%TF.GenerationSoftware,KiCad,Pcbnew,6.0.4-6f826c9f35~116~ubuntu20.04.1*%
%TF.CreationDate,2022-08-25T10:03:06+00:00*%
%TF.ProjectId,QFHMIX01E,5146484d-4958-4303-9145-2e6b69636164,rev?*%
%TF.SameCoordinates,Original*%
%TF.FileFunction,Copper,L1,Top*%
%TF.FilePolarity,Positive*%
%FSLAX46Y46*%
G04 Gerber Fmt 4.6, Leading zero omitted, Abs format (unit mm)*
G04 Created by KiCad (PCBNEW 6.0.4-6f826c9f35~116~ubuntu20.04.1) date 2022-08-25 10:03:06*
%MOMM*%
%LPD*%
G01*
G04 APERTURE LIST*
G04 Aperture macros list*
%AMRoundRect*
0 Rectangle with rounded corners*
0 $1 Rounding radius*
0 $2 $3 $4 $5 $6 $7 $8 $9 X,Y pos of 4 corners*
0 Add a 4 corners polygon primitive as box body*
4,1,4,$2,$3,$4,$5,$6,$7,$8,$9,$2,$3,0*
0 Add four circle primitives for the rounded corners*
1,1,$1+$1,$2,$3*
1,1,$1+$1,$4,$5*
1,1,$1+$1,$6,$7*
1,1,$1+$1,$8,$9*
0 Add four rect primitives between the rounded corners*
20,1,$1+$1,$2,$3,$4,$5,0*
20,1,$1+$1,$4,$5,$6,$7,0*
20,1,$1+$1,$6,$7,$8,$9,0*
20,1,$1+$1,$8,$9,$2,$3,0*%
%AMRotRect*
0 Rectangle, with rotation*
0 The origin of the aperture is its center*
0 $1 length*
0 $2 width*
0 $3 Rotation angle, in degrees counterclockwise*
0 Add horizontal line*
21,1,$1,$2,0,0,$3*%
G04 Aperture macros list end*
%TA.AperFunction,ComponentPad*%
%ADD10C,2.500000*%
%TD*%
%TA.AperFunction,ComponentPad*%
%ADD11RotRect,1.524000X1.524000X45.000000*%
%TD*%
%TA.AperFunction,ComponentPad*%
%ADD12C,6.000000*%
%TD*%
%TA.AperFunction,WasherPad*%
%ADD13C,7.400000*%
%TD*%
%TA.AperFunction,ComponentPad*%
%ADD14C,0.500000*%
%TD*%
%TA.AperFunction,ComponentPad*%
%ADD15C,0.600000*%
%TD*%
%TA.AperFunction,SMDPad,CuDef*%
%ADD16RoundRect,0.250000X0.000000X-0.848528X0.848528X0.000000X0.000000X0.848528X-0.848528X0.000000X0*%
%TD*%
%TA.AperFunction,SMDPad,CuDef*%
%ADD17RoundRect,0.250000X0.000000X0.848528X-0.848528X0.000000X0.000000X-0.848528X0.848528X0.000000X0*%
%TD*%
%TA.AperFunction,SMDPad,CuDef*%
%ADD18RoundRect,0.250000X-0.848528X0.000000X0.000000X-0.848528X0.848528X0.000000X0.000000X0.848528X0*%
%TD*%
%TA.AperFunction,ViaPad*%
%ADD19C,0.750000*%
%TD*%
%TA.AperFunction,ViaPad*%
%ADD20C,1.000000*%
%TD*%
%TA.AperFunction,Conductor*%
%ADD21C,0.500000*%
%TD*%
%TA.AperFunction,Conductor*%
%ADD22C,0.800000*%
%TD*%
%TA.AperFunction,Conductor*%
%ADD23C,0.600000*%
%TD*%
%TA.AperFunction,Conductor*%
%ADD24C,0.400000*%
%TD*%
%TA.AperFunction,Conductor*%
%ADD25C,3.000000*%
%TD*%
%TA.AperFunction,Conductor*%
%ADD26C,0.300000*%
%TD*%
G04 APERTURE END LIST*
D10*
%TO.P,J1,1*%
%TO.N,CLK_IN_N*%
X111070731Y-110070731D03*
%TO.P,J1,2*%
%TO.N,CLK_IN_P*%
X113764808Y-112764808D03*
%TO.P,J1,3*%
%TO.N,DEM_OUTA_N*%
X116458885Y-115458885D03*
%TO.P,J1,4*%
%TO.N,DEM_OUTA_P*%
X119152962Y-118152962D03*
%TO.P,J1,5*%
%TO.N,DEM_OUTB_N*%
X121847038Y-120847038D03*
%TO.P,J1,6*%
%TO.N,DEM_OUTB_P*%
X124541115Y-123541115D03*
%TO.P,J1,7*%
%TO.N,GND*%
X127235192Y-126235192D03*
%TO.P,J1,8*%
%TO.N,VCC*%
X129929269Y-128929269D03*
%TD*%
D11*
%TO.P,J2,1*%
%TO.N,GND*%
X134583897Y-121031000D03*
%TO.P,J2,2*%
X136379948Y-119234949D03*
%TO.P,J2,3*%
%TO.N,VDDA*%
X136379948Y-122827052D03*
%TO.P,J2,4*%
X138176000Y-121031000D03*
%TO.P,J2,5*%
%TO.N,GND*%
X138176000Y-124623103D03*
%TO.P,J2,6*%
X139972051Y-122827052D03*
%TD*%
D12*
%TO.P,M7,1*%
%TO.N,GND*%
X185560000Y-125560000D03*
%TD*%
%TO.P,M6,1*%
%TO.N,GND*%
X185560000Y-54440000D03*
%TD*%
%TO.P,M5,1*%
%TO.N,GND*%
X114440000Y-125560000D03*
%TD*%
D13*
%TO.P,M4,*%
%TO.N,*%
X150000000Y-126000000D03*
D14*
%TO.P,M4,1*%
%TO.N,/LNA/QFH_IN_2_N*%
X153000000Y-126000000D03*
X152598076Y-127500000D03*
X150000000Y-123000000D03*
X152598076Y-124500000D03*
X147401924Y-127500000D03*
X150000000Y-129000000D03*
X147000000Y-126000000D03*
X148500000Y-123401924D03*
X151500000Y-128598076D03*
X151500000Y-123401924D03*
X147401924Y-124500000D03*
X148500000Y-128598076D03*
%TD*%
D13*
%TO.P,M3,*%
%TO.N,*%
X150000000Y-54000000D03*
D14*
%TO.P,M3,1*%
%TO.N,/LNA/QFH_IN_2_P*%
X151500000Y-51401924D03*
X152598076Y-55500000D03*
X148500000Y-51401924D03*
X153000000Y-54000000D03*
X147401924Y-55500000D03*
X150000000Y-57000000D03*
X147000000Y-54000000D03*
X151500000Y-56598076D03*
X148500000Y-56598076D03*
X150000000Y-51000000D03*
X152598076Y-52500000D03*
X147401924Y-52500000D03*
%TD*%
D13*
%TO.P,M1,*%
%TO.N,*%
X186000000Y-90000000D03*
D14*
%TO.P,M1,1*%
%TO.N,/LNA/QFH_IN_1_N*%
X187500000Y-92598076D03*
X183401924Y-88500000D03*
X188598076Y-88500000D03*
X183401924Y-91500000D03*
X186000000Y-87000000D03*
X188598076Y-91500000D03*
X184500000Y-92598076D03*
X189000000Y-90000000D03*
X187500000Y-87401924D03*
X186000000Y-93000000D03*
X183000000Y-90000000D03*
X184500000Y-87401924D03*
%TD*%
D13*
%TO.P,M2,*%
%TO.N,*%
X114000000Y-90000000D03*
D14*
%TO.P,M2,1*%
%TO.N,/LNA/QFH_IN_1_P*%
X112500000Y-87401924D03*
X117000000Y-90000000D03*
X111401924Y-88500000D03*
X116598076Y-91500000D03*
X115500000Y-87401924D03*
X112500000Y-92598076D03*
X114000000Y-93000000D03*
X111000000Y-90000000D03*
X114000000Y-87000000D03*
X111401924Y-91500000D03*
X116598076Y-88500000D03*
X115500000Y-92598076D03*
%TD*%
D12*
%TO.P,M8,1*%
%TO.N,GND*%
X114440000Y-54440000D03*
%TD*%
D14*
%TO.P,U7,2,GND*%
%TO.N,GND*%
X148885965Y-83692462D03*
X148178859Y-82985355D03*
X147471752Y-83692462D03*
X146764645Y-82985355D03*
X147471752Y-82278248D03*
X144643325Y-82278248D03*
X148178859Y-84399569D03*
X146057538Y-83692462D03*
X146764645Y-81571141D03*
X146764645Y-84399569D03*
X147471752Y-85106675D03*
X145350431Y-82985355D03*
X145350431Y-81571141D03*
X146057538Y-80864035D03*
X146057538Y-82278248D03*
%TD*%
%TO.P,U8,2,GND*%
%TO.N,GND*%
X158428859Y-94549569D03*
X159135965Y-93842462D03*
X157721752Y-92428248D03*
X158428859Y-93135355D03*
X156307538Y-92428248D03*
X157014645Y-91721141D03*
X156307538Y-93842462D03*
X157014645Y-94549569D03*
X157721752Y-93842462D03*
X157014645Y-93135355D03*
X155600431Y-91721141D03*
X155600431Y-93135355D03*
X157721752Y-95256675D03*
X156307538Y-91014035D03*
X154893325Y-92428248D03*
%TD*%
D15*
%TO.P,U9,17,PGND*%
%TO.N,GND*%
X124213909Y-61206091D03*
X123436091Y-61206091D03*
X123047183Y-61595000D03*
X123825000Y-60817183D03*
X124213909Y-61983909D03*
X123825000Y-62372817D03*
X123825000Y-61595000D03*
X124602817Y-61595000D03*
D16*
X123825000Y-61595000D03*
D15*
X123436091Y-61983909D03*
%TD*%
D14*
%TO.P,U5,2,GND*%
%TO.N,GND*%
X144594014Y-60833000D03*
X143179800Y-60833000D03*
X141765586Y-62247214D03*
X141058480Y-61540107D03*
X145301120Y-60125893D03*
X142472693Y-62954320D03*
X142472693Y-60125893D03*
X141765586Y-60833000D03*
X142472693Y-61540107D03*
X143179800Y-59418786D03*
X143886907Y-58711680D03*
X143886907Y-60125893D03*
X143886907Y-61540107D03*
X144594014Y-59418786D03*
X143179800Y-62247214D03*
%TD*%
D15*
%TO.P,U11,17,PGND*%
%TO.N,GND*%
X162234911Y-116468501D03*
X162623820Y-116079593D03*
X163012729Y-117246319D03*
X163012729Y-116468501D03*
X162623820Y-116857410D03*
D17*
X162623820Y-116857410D03*
D15*
X162623820Y-117635227D03*
X162234911Y-117246319D03*
X163401637Y-116857410D03*
X161846003Y-116857410D03*
%TD*%
D14*
%TO.P,U6,2,GND*%
%TO.N,GND*%
X176893786Y-96774000D03*
X179722214Y-96774000D03*
X179015107Y-96066893D03*
X178308000Y-96774000D03*
X177600893Y-98895320D03*
X179722214Y-95359786D03*
X178308000Y-98188214D03*
X176893786Y-98188214D03*
X176186680Y-97481107D03*
X179015107Y-97481107D03*
X180429320Y-96066893D03*
X177600893Y-96066893D03*
X179015107Y-94652680D03*
X177600893Y-97481107D03*
X178308000Y-95359786D03*
%TD*%
D15*
%TO.P,U1,17,GND*%
%TO.N,GND*%
X125359235Y-76810455D03*
X125359235Y-76032637D03*
X125748144Y-75643729D03*
X124970327Y-76421546D03*
X125748144Y-77199363D03*
D18*
X125748144Y-76421546D03*
D15*
X126525961Y-76421546D03*
X126137053Y-76810455D03*
X126137053Y-76032637D03*
X125748144Y-76421546D03*
%TD*%
D19*
%TO.N,GND*%
X137498990Y-109201010D03*
X125349000Y-102235000D03*
X128451993Y-97821972D03*
X130848990Y-102551010D03*
X132700000Y-107300000D03*
X129900388Y-117120427D03*
X126800000Y-104400000D03*
X122763604Y-110115076D03*
X128300000Y-118500000D03*
X128734206Y-108614665D03*
X127746377Y-109602494D03*
X129127375Y-110017547D03*
X131338481Y-111218940D03*
X130350652Y-112206767D03*
X130025402Y-110915571D03*
X149682200Y-102387400D03*
X136128565Y-92155227D03*
X137488879Y-93498721D03*
X112522000Y-63246000D03*
X170002200Y-101015800D03*
X189484000Y-120396000D03*
X138303000Y-80391000D03*
X133350000Y-77470000D03*
X125286500Y-94234000D03*
X110185200Y-84378800D03*
X117221000Y-60452000D03*
X127431800Y-86690200D03*
X125095000Y-106807000D03*
X137836299Y-82963701D03*
X132334000Y-88900000D03*
X146200000Y-106800000D03*
X123545600Y-76276200D03*
X122047000Y-74676000D03*
X126200000Y-107800000D03*
X121500000Y-111700000D03*
X132080000Y-119227600D03*
X131064000Y-118110000D03*
X115138200Y-106476800D03*
X121920000Y-103886000D03*
X118364000Y-111379000D03*
X122605800Y-84328000D03*
X126599259Y-99476067D03*
X127222987Y-89052771D03*
D20*
X145673093Y-58466707D03*
X146380201Y-59173816D03*
X147087307Y-58466706D03*
X146380200Y-57759600D03*
X145673093Y-57052493D03*
X139573000Y-72898000D03*
X150444200Y-80213200D03*
X149783800Y-76987400D03*
X140766799Y-64685613D03*
X140059693Y-63978507D03*
X139352585Y-63271401D03*
X140059693Y-62564293D03*
X140766800Y-63271400D03*
X141473907Y-63978507D03*
X148132800Y-86309200D03*
X144475200Y-80670400D03*
X145491200Y-79629000D03*
X142570200Y-82575400D03*
X143405887Y-79626598D03*
X144466548Y-78565938D03*
X141478000Y-81407000D03*
X149946625Y-84046016D03*
X147218400Y-87274400D03*
X150123402Y-86344113D03*
X151184062Y-85283452D03*
X148132800Y-88290400D03*
X152806400Y-80213200D03*
X148310600Y-77851000D03*
X150622000Y-78130400D03*
X151663400Y-79222600D03*
X149428200Y-79070200D03*
X143256000Y-86487000D03*
X142240000Y-86741000D03*
X143129000Y-87503000D03*
X144289771Y-86308757D03*
X143441243Y-85460229D03*
X180670199Y-94454413D03*
X175895000Y-99161600D03*
X179963095Y-93747307D03*
X175187893Y-98454493D03*
X176602107Y-99868706D03*
X181377307Y-95161519D03*
X182084414Y-94454413D03*
X181377307Y-93747307D03*
X180670200Y-93040200D03*
X175209200Y-93624400D03*
X174040800Y-94742000D03*
X176428400Y-92430600D03*
X160324800Y-94310200D03*
X159181800Y-95580200D03*
X157708600Y-97078800D03*
X158648400Y-98221800D03*
X159867600Y-97028000D03*
X161975800Y-95453200D03*
X175187893Y-99868707D03*
X175895001Y-100575815D03*
X174480785Y-99161601D03*
X155702000Y-89865200D03*
X154736800Y-88290400D03*
X154025600Y-89662000D03*
X154787600Y-90703400D03*
X152882600Y-92811600D03*
X153416000Y-96647000D03*
X153691243Y-95610229D03*
X152400000Y-96901000D03*
X153289000Y-97663000D03*
X154539771Y-96458757D03*
X159588200Y-89331800D03*
X158445200Y-88341200D03*
X161569400Y-87223600D03*
X160604200Y-88442800D03*
X160401000Y-90551000D03*
D19*
X155727400Y-60172600D03*
X178485800Y-76377800D03*
X175895000Y-73914000D03*
X147218400Y-91948000D03*
X145415000Y-98475800D03*
X130300000Y-90500000D03*
X129300000Y-89600000D03*
X162941000Y-102362000D03*
X166370000Y-120523000D03*
X123698000Y-73152000D03*
X151130000Y-133604000D03*
X150368000Y-131699000D03*
X110000000Y-105000000D03*
X135000000Y-130000000D03*
X119126000Y-74549000D03*
X122047000Y-70739000D03*
X161137600Y-119938800D03*
X110032800Y-56896000D03*
X109956600Y-72059800D03*
X118033800Y-69723000D03*
X119253000Y-92119896D03*
X114500000Y-52250000D03*
X114440000Y-123310000D03*
X114440000Y-127810000D03*
X116690000Y-125560000D03*
X112190000Y-125560000D03*
X112840000Y-123960000D03*
X116040000Y-123960000D03*
X116040000Y-127160000D03*
X112840000Y-127160000D03*
X116040000Y-52840000D03*
X112190000Y-54440000D03*
X112039400Y-65709800D03*
X112840000Y-52840000D03*
X112840000Y-56040000D03*
X116690000Y-54440000D03*
X111937800Y-69189600D03*
X187160000Y-52840000D03*
X183310000Y-54440000D03*
X185560000Y-56690000D03*
X183960000Y-56040000D03*
X185560000Y-52190000D03*
X187810000Y-54440000D03*
X187160000Y-56040000D03*
X187160000Y-127160000D03*
X187810000Y-125560000D03*
X187160000Y-123960000D03*
X183310000Y-125560000D03*
X185560000Y-123310000D03*
X183960000Y-123960000D03*
X185560000Y-127810000D03*
X183960000Y-127160000D03*
X183960000Y-52840000D03*
X122555000Y-81203800D03*
X173685200Y-71628000D03*
X176784000Y-129794000D03*
X173101000Y-129794000D03*
X169418000Y-129794000D03*
X141376400Y-73101200D03*
X142646400Y-73202800D03*
X141097000Y-77597000D03*
X140335000Y-76835000D03*
X164846000Y-124841000D03*
X191643000Y-133604000D03*
X175641000Y-119126000D03*
X178689000Y-125857000D03*
X164744400Y-99872800D03*
X173355000Y-121539000D03*
X147574000Y-107975400D03*
X157226000Y-59893200D03*
X167538400Y-98374200D03*
X149800000Y-94450000D03*
X119253000Y-83693000D03*
X163093400Y-66624200D03*
X177673000Y-117348000D03*
X138049000Y-66903600D03*
D20*
X151790400Y-91871800D03*
D19*
X157403800Y-78663800D03*
X127635000Y-52324000D03*
X159893000Y-69545200D03*
X154178000Y-73685400D03*
X127762000Y-71755000D03*
X164338000Y-93726000D03*
X149199600Y-65532000D03*
X184556400Y-105308400D03*
X190906400Y-107340400D03*
X183591200Y-94361000D03*
X131064000Y-82804000D03*
X193421000Y-73406000D03*
X172593000Y-124841000D03*
X162306000Y-110998000D03*
X137033000Y-81153000D03*
X178054000Y-88138000D03*
D20*
X142468600Y-80543400D03*
D19*
X127254000Y-70612000D03*
X141909800Y-52882800D03*
X156845000Y-128143000D03*
X168351200Y-80899000D03*
X169341800Y-81813400D03*
X169037000Y-49276000D03*
X159562800Y-74777600D03*
X128397000Y-70866000D03*
X155575000Y-56642000D03*
X129540000Y-87249000D03*
X161518600Y-80086200D03*
X144780000Y-125095000D03*
X168402000Y-119888000D03*
X162179000Y-60198000D03*
X140500000Y-101000000D03*
X153162000Y-122428000D03*
X168935400Y-106680000D03*
X169037000Y-124841000D03*
X168656000Y-72085200D03*
X181991000Y-86868000D03*
X167259000Y-119634000D03*
X181102000Y-119761000D03*
X174142400Y-81559400D03*
X170942000Y-97840800D03*
X192532000Y-107670600D03*
X122174000Y-56896000D03*
X177190400Y-104800400D03*
X119380000Y-87836379D03*
X133883400Y-106045000D03*
X139852400Y-74828400D03*
X131953000Y-74549000D03*
X117754400Y-103911400D03*
X117348000Y-109855000D03*
X133096000Y-89662000D03*
D20*
X162788600Y-88773000D03*
D19*
X143256000Y-53467000D03*
X164947600Y-92075000D03*
X111633000Y-107442000D03*
X148107400Y-73837800D03*
X181559200Y-91922600D03*
D20*
X156514800Y-100863400D03*
D19*
X153162000Y-57531000D03*
X133324600Y-64236600D03*
X183007000Y-108788200D03*
X166420800Y-80873600D03*
X166446200Y-97256600D03*
X125628400Y-58318400D03*
X131572000Y-88138000D03*
X167640000Y-90424000D03*
X105500000Y-110000000D03*
X132257800Y-52273200D03*
X185547000Y-117856000D03*
X171043600Y-81559400D03*
X173863000Y-53721000D03*
X119253000Y-96926400D03*
X110058200Y-67259200D03*
X140000000Y-134500000D03*
D20*
X161569400Y-89509600D03*
D19*
X161500000Y-51100000D03*
X175768000Y-82905600D03*
D20*
X174929800Y-92125800D03*
D19*
X162483800Y-83058000D03*
X175412400Y-103682800D03*
X105500000Y-115000000D03*
X178816000Y-115316000D03*
X163830000Y-61849000D03*
X159258000Y-66802000D03*
X193548000Y-54991000D03*
X160528000Y-58420000D03*
D20*
X144627600Y-65709800D03*
D19*
X152069800Y-65760600D03*
X158496000Y-114046000D03*
X146939000Y-75184000D03*
X130606800Y-48920400D03*
X118110000Y-59563000D03*
X171856400Y-61391800D03*
X141900000Y-74300000D03*
X180441600Y-85623400D03*
X147900000Y-94700000D03*
X189230000Y-100838000D03*
X162001200Y-107950000D03*
D20*
X155448000Y-99847400D03*
D19*
X134848600Y-60477400D03*
X160045400Y-71628000D03*
D20*
X145973800Y-64439800D03*
D19*
X105500000Y-120000000D03*
X181457600Y-107264200D03*
X135700000Y-115300000D03*
X128244600Y-85877400D03*
X161036000Y-83058000D03*
X136398000Y-75819000D03*
X159385000Y-62611000D03*
X105500000Y-99500000D03*
X139400000Y-96500000D03*
X180863400Y-129986000D03*
D20*
X138531600Y-57480200D03*
D19*
X178917600Y-104648000D03*
X145725000Y-96750002D03*
X105500000Y-134500000D03*
X193294000Y-75819000D03*
X158267400Y-110007400D03*
D20*
X157480000Y-101904800D03*
X181584600Y-100025200D03*
X153847800Y-91643200D03*
X146024600Y-65862200D03*
D19*
X164871400Y-122555000D03*
X189636400Y-105460800D03*
X127189500Y-96061434D03*
X153212800Y-102336600D03*
X187071000Y-98806000D03*
X153162000Y-62738000D03*
X119253000Y-79121000D03*
X159893000Y-129794000D03*
D20*
X149072600Y-87274400D03*
D19*
X188468000Y-48387000D03*
X159715200Y-105714800D03*
X175006000Y-116205000D03*
X174879000Y-106299000D03*
X193675000Y-58420000D03*
X164617400Y-80873600D03*
X110500000Y-99500000D03*
X193167000Y-81915000D03*
X122453400Y-101117400D03*
X122504200Y-88087200D03*
X157099000Y-117271800D03*
X105500000Y-130000000D03*
X143100000Y-91900000D03*
X169799000Y-91973400D03*
X171729400Y-84632800D03*
X132461000Y-73279000D03*
X119761000Y-58039000D03*
X166547800Y-55956200D03*
D20*
X152857200Y-90728800D03*
D19*
X110007400Y-77647800D03*
X133985000Y-61976000D03*
X157708600Y-83667600D03*
X152831800Y-69977000D03*
X166116000Y-90170000D03*
X171653200Y-87223600D03*
X123393200Y-64947800D03*
D20*
X139573000Y-56337200D03*
D19*
X168275000Y-118745000D03*
X167640000Y-65633600D03*
X175996600Y-109372400D03*
X130556000Y-56794400D03*
X166954200Y-75260200D03*
X136931400Y-52933600D03*
X131572000Y-47371000D03*
D20*
X138684000Y-58953400D03*
D19*
X137541000Y-98120200D03*
X172212000Y-112395000D03*
X132664200Y-67437000D03*
X149758400Y-62204600D03*
X105500000Y-125000000D03*
X181686200Y-79603600D03*
X173482000Y-104521000D03*
X121031000Y-60960000D03*
X156032200Y-77343000D03*
D20*
X180365398Y-101219000D03*
D19*
X150368000Y-72059800D03*
X132765800Y-84378800D03*
X167386000Y-120777000D03*
X185115200Y-95504000D03*
X115000000Y-99500000D03*
X138400000Y-101800000D03*
X157886400Y-72440800D03*
X135000000Y-134500000D03*
D20*
X161290000Y-100761800D03*
D19*
X145034000Y-127508000D03*
D20*
X146989800Y-63220600D03*
X182905400Y-100380802D03*
D19*
X181864000Y-48006000D03*
X177368200Y-110820200D03*
X149352000Y-112242600D03*
X112522000Y-60960000D03*
X184912000Y-48133000D03*
X149860000Y-67157600D03*
X105500000Y-105000000D03*
X146431000Y-122555000D03*
X141351000Y-51943000D03*
D20*
X139852400Y-57835800D03*
D19*
X180136800Y-106095800D03*
X171958000Y-122936000D03*
X175133000Y-122555000D03*
X152019000Y-61722000D03*
D20*
X144965984Y-57759601D03*
D19*
X175514000Y-48006000D03*
X160223200Y-77571600D03*
X186309000Y-102743000D03*
D20*
X149225000Y-85369400D03*
D19*
X129540000Y-67310000D03*
X135890000Y-77851000D03*
X115000000Y-134500000D03*
X178562000Y-89535000D03*
X170967400Y-110718600D03*
X170256200Y-102692200D03*
X179959000Y-82981800D03*
X188544200Y-106273600D03*
X173736000Y-100939600D03*
X183134000Y-72898000D03*
X169164000Y-122936000D03*
X125730000Y-103759000D03*
X142621000Y-68427600D03*
X190627000Y-99949000D03*
D20*
X173888400Y-93268800D03*
D19*
X127189500Y-82888965D03*
X120000000Y-134500000D03*
D20*
X161772600Y-91719400D03*
D19*
X143002000Y-51003200D03*
X146685000Y-129921000D03*
X157454600Y-75209400D03*
X166624000Y-91694000D03*
X150520400Y-65328800D03*
X119303800Y-101142800D03*
D20*
X147777200Y-64185800D03*
D19*
X163652200Y-82016600D03*
X142367000Y-71983600D03*
X189230000Y-115443000D03*
X129667000Y-47371000D03*
X191008000Y-50165000D03*
X185496200Y-110439200D03*
X135534400Y-65176400D03*
X166522400Y-85267800D03*
X134700000Y-108100000D03*
X175133000Y-90119200D03*
X170891200Y-108737400D03*
X138811000Y-78740000D03*
X165608000Y-117602000D03*
X135940800Y-66954400D03*
X130000000Y-134500000D03*
X143306800Y-96774000D03*
X116459000Y-112014000D03*
X172770800Y-90551000D03*
X187426600Y-111099600D03*
X170307000Y-94361000D03*
X172974000Y-111633000D03*
X179070000Y-113157000D03*
X156692600Y-121005600D03*
X139192000Y-65557400D03*
X150100000Y-105200000D03*
X157962600Y-69748400D03*
X171729400Y-75539600D03*
X168478200Y-111404400D03*
X156210000Y-82219800D03*
D20*
X182753000Y-98907600D03*
D19*
X125000000Y-134500000D03*
X118491000Y-107696000D03*
X170281600Y-78257400D03*
X129921000Y-60502800D03*
X131900000Y-105200000D03*
X163195000Y-120904000D03*
X138988800Y-99542798D03*
X172593000Y-80873600D03*
X158496000Y-56896000D03*
X150368000Y-110744000D03*
X185978800Y-97205800D03*
X148158200Y-69773800D03*
X166344600Y-64439800D03*
X133197600Y-85648800D03*
X126923800Y-49961800D03*
X158064200Y-122250200D03*
X137185400Y-64414400D03*
X171754800Y-69748400D03*
X122301000Y-96951800D03*
X162306000Y-105613200D03*
X171450000Y-121412000D03*
X163322000Y-72263000D03*
X118872000Y-58801000D03*
X141224000Y-72009000D03*
X193675000Y-62230000D03*
D20*
X181864000Y-101523797D03*
D19*
X130302000Y-62661800D03*
X188468000Y-85826600D03*
X154279600Y-68072000D03*
X110000000Y-134500000D03*
X146800000Y-93400000D03*
X129159000Y-53721000D03*
X132435600Y-57785000D03*
X184531000Y-113411000D03*
X193802000Y-131445000D03*
X110007400Y-62839600D03*
X144449800Y-53314600D03*
X150114000Y-121285000D03*
X193548000Y-66421000D03*
X134200000Y-116800000D03*
X166471600Y-95656400D03*
X142011400Y-102500000D03*
X139827000Y-70485000D03*
X130429000Y-75438000D03*
X148996400Y-66675000D03*
X139827000Y-50800000D03*
D20*
X143535400Y-81584800D03*
D19*
X178562000Y-48133000D03*
X128955800Y-56032400D03*
X172186600Y-101981000D03*
X115570000Y-67818000D03*
X169468800Y-67614800D03*
X164084000Y-121666000D03*
X137007600Y-65709800D03*
X154940000Y-111760000D03*
X153035000Y-113919000D03*
X174828200Y-88646000D03*
X173151800Y-85242400D03*
X126111000Y-57378600D03*
X177952400Y-67691000D03*
X179197000Y-58928000D03*
X154813000Y-58674000D03*
X160782000Y-111252000D03*
X120624600Y-67335400D03*
X132969000Y-71247000D03*
X190500000Y-101727000D03*
X171069000Y-120015000D03*
X124600000Y-115400000D03*
X155067000Y-126365000D03*
X135737600Y-62306200D03*
X193548000Y-52197000D03*
X122301000Y-92862400D03*
X192582800Y-105486200D03*
X151384000Y-112649000D03*
X193421000Y-79121000D03*
X160045400Y-102082600D03*
X182930800Y-81610200D03*
X169849800Y-87071200D03*
X165125400Y-77774800D03*
X145669000Y-69088000D03*
X147599400Y-112318800D03*
X193421000Y-70231000D03*
X183057800Y-84404200D03*
X157810200Y-81584800D03*
X133146800Y-60477400D03*
D20*
X147345400Y-65455800D03*
X141071600Y-56642000D03*
D19*
X174117000Y-117983000D03*
X135356600Y-54660800D03*
X151079200Y-62534800D03*
D20*
X162839400Y-99669600D03*
D19*
X166243000Y-122936000D03*
X188087000Y-99822000D03*
X165623400Y-129859000D03*
X139100000Y-95200000D03*
X176936400Y-81991200D03*
X136194800Y-72085200D03*
D20*
X151612600Y-81280000D03*
D19*
X177165000Y-120396000D03*
D20*
X158800800Y-96672400D03*
D19*
X185420000Y-108839000D03*
X136144000Y-96647000D03*
X188976000Y-76454000D03*
X156210000Y-109982000D03*
X127762000Y-67564000D03*
D20*
X160629600Y-95758000D03*
D19*
%TO.N,+5V*%
X156946600Y-62890400D03*
X154965400Y-86283800D03*
X144094200Y-93446600D03*
X128905000Y-92075000D03*
X146380200Y-73482200D03*
X177241200Y-83566000D03*
X167005000Y-93091000D03*
X158902400Y-101498400D03*
X149225000Y-108331000D03*
X139395200Y-100787200D03*
X153670000Y-84988400D03*
%TO.N,+3V3*%
X120650000Y-71628000D03*
X122809000Y-73787000D03*
%TO.N,Net-(C23-Pad1)*%
X132154771Y-109010099D03*
X133959600Y-112598200D03*
%TO.N,Net-(C22-Pad2)*%
X130977668Y-107863268D03*
X127457200Y-106324400D03*
%TO.N,VDDA*%
X128930400Y-65049400D03*
%TO.N,Net-(C68-Pad1)*%
X164084000Y-118999000D03*
X160020000Y-118110000D03*
%TO.N,/LNA/QFH_IN_1_N*%
X185100000Y-70916800D03*
X186000000Y-70016800D03*
X186000000Y-70916800D03*
X186900000Y-70916800D03*
X186000000Y-71816800D03*
%TO.N,+3.3VA*%
X127196814Y-112055871D03*
X124028200Y-108000800D03*
X131350000Y-116200000D03*
%TO.N,/Power/PWR_EN*%
X160528000Y-115316000D03*
X152273000Y-115189000D03*
%TO.N,Net-(C67-Pad1)*%
X126619000Y-60452000D03*
X122428000Y-59309000D03*
%TD*%
D21*
%TO.N,GND*%
X125041037Y-76421546D02*
X125748144Y-76421546D01*
X125748144Y-77128653D02*
X125748144Y-76421546D01*
X126455251Y-76421546D02*
X125748144Y-76421546D01*
X125748144Y-75714439D02*
X125748144Y-76421546D01*
X132575000Y-89450000D02*
X132525000Y-89450000D01*
D22*
%TO.N,+5V*%
X156819600Y-62890400D02*
X149034500Y-70675500D01*
X155016200Y-83642200D02*
X155016200Y-77316200D01*
X148691600Y-72644000D02*
X147218400Y-72644000D01*
X151182200Y-73482200D02*
X149885400Y-73482200D01*
X168986200Y-91109800D02*
X168986200Y-89636600D01*
D23*
X133045200Y-92075000D02*
X149225000Y-108254800D01*
D22*
X167005000Y-93091000D02*
X168986200Y-91109800D01*
X155016200Y-77316200D02*
X151182200Y-73482200D01*
X149034500Y-72301100D02*
X148691600Y-72644000D01*
X149034500Y-70675500D02*
X149034500Y-72301100D01*
X147218400Y-72644000D02*
X146380200Y-73482200D01*
X167005000Y-93395800D02*
X158902400Y-101498400D01*
X154965400Y-86283800D02*
X153670000Y-84988400D01*
D23*
X149225000Y-108254800D02*
X149225000Y-108331000D01*
D22*
X156946600Y-62890400D02*
X156819600Y-62890400D01*
X177215800Y-83566000D02*
X171145200Y-89636600D01*
X153670000Y-84988400D02*
X155016200Y-83642200D01*
X156362400Y-84886800D02*
X154965400Y-86283800D01*
X171145200Y-89636600D02*
X168986200Y-89636600D01*
X168986200Y-89636600D02*
X164236400Y-84886800D01*
X164236400Y-84886800D02*
X156362400Y-84886800D01*
D24*
X139395200Y-100787200D02*
X139412800Y-100787200D01*
D23*
X139257900Y-98282900D02*
X144094200Y-93446600D01*
D22*
X167005000Y-93091000D02*
X167005000Y-93395800D01*
X149885400Y-73482200D02*
X148920200Y-72517000D01*
D23*
X128905000Y-92075000D02*
X133045200Y-92075000D01*
D22*
X177241200Y-83566000D02*
X177215800Y-83566000D01*
D21*
X139412800Y-100787200D02*
X140587500Y-99612500D01*
D22*
%TO.N,+3V3*%
X120650000Y-71628000D02*
X122809000Y-73787000D01*
D21*
%TO.N,Net-(C23-Pad1)*%
X132154771Y-109294771D02*
X132154771Y-109010099D01*
X133959600Y-111099600D02*
X132154771Y-109294771D01*
X133959600Y-112598200D02*
X133959600Y-111099600D01*
%TO.N,Net-(C22-Pad2)*%
X129133600Y-106324400D02*
X130672468Y-107863268D01*
X130672468Y-107863268D02*
X130977668Y-107863268D01*
X127457200Y-106324400D02*
X129133600Y-106324400D01*
%TO.N,VDDA*%
X143510000Y-115697000D02*
X143510000Y-114046000D01*
X126238000Y-82042000D02*
X134874000Y-73406000D01*
X138176000Y-121031000D02*
X143510000Y-115697000D01*
X134874000Y-71120000D02*
X128930400Y-65176400D01*
X143510000Y-114046000D02*
X126238000Y-96774000D01*
X128930400Y-65176400D02*
X128930400Y-65049400D01*
X126238000Y-96774000D02*
X126238000Y-82042000D01*
X134874000Y-73406000D02*
X134874000Y-71120000D01*
%TO.N,Net-(C68-Pad1)*%
X163449000Y-119634000D02*
X164084000Y-118999000D01*
X161036000Y-119126000D02*
X161544000Y-119126000D01*
X160020000Y-118110000D02*
X161036000Y-119126000D01*
X162052000Y-119634000D02*
X163449000Y-119634000D01*
X161544000Y-119126000D02*
X162052000Y-119634000D01*
D25*
%TO.N,/LNA/QFH_IN_1_N*%
X186000000Y-71816800D02*
X186000000Y-70916800D01*
X186000000Y-71816800D02*
X186000000Y-90000000D01*
D23*
%TO.N,+3.3VA*%
X131350000Y-116200000D02*
X127205871Y-112055871D01*
X127205871Y-112055871D02*
X127196814Y-112055871D01*
X124028200Y-108000800D02*
X124028199Y-108813599D01*
X127196814Y-111982214D02*
X124028199Y-108813599D01*
X127196814Y-112055871D02*
X127196814Y-111982214D01*
D21*
%TO.N,/Power/PWR_EN*%
X152273000Y-115189000D02*
X160401000Y-115189000D01*
D26*
X160401000Y-115189000D02*
X160528000Y-115316000D01*
D21*
%TO.N,Net-(C67-Pad1)*%
X124968000Y-58801000D02*
X122936000Y-58801000D01*
X126619000Y-60452000D02*
X124968000Y-58801000D01*
X122936000Y-58801000D02*
X122428000Y-59309000D01*
%TD*%
%TA.AperFunction,Conductor*%
%TO.N,GND*%
G36*
X194907621Y-45054502D02*
G01*
X194954114Y-45108158D01*
X194965500Y-45160500D01*
X194965500Y-134839500D01*
X194945498Y-134907621D01*
X194891842Y-134954114D01*
X194839500Y-134965500D01*
X105160500Y-134965500D01*
X105092379Y-134945498D01*
X105045886Y-134891842D01*
X105034500Y-134839500D01*
X105034500Y-128929269D01*
X128373975Y-128929269D01*
X128393123Y-129172571D01*
X128394278Y-129177380D01*
X128442933Y-129380040D01*
X128450097Y-129409881D01*
X128451987Y-129414444D01*
X128451989Y-129414450D01*
X128519047Y-129576343D01*
X128543492Y-129635358D01*
X128671010Y-129843448D01*
X128829510Y-130029028D01*
X129015090Y-130187528D01*
X129223180Y-130315046D01*
X129227750Y-130316939D01*
X129227754Y-130316941D01*
X129444088Y-130406549D01*
X129444094Y-130406551D01*
X129448657Y-130408441D01*
X129453457Y-130409593D01*
X129453462Y-130409595D01*
X129561971Y-130435646D01*
X129685967Y-130465415D01*
X129929269Y-130484563D01*
X130172571Y-130465415D01*
X130296567Y-130435646D01*
X130405076Y-130409595D01*
X130405081Y-130409593D01*
X130409881Y-130408441D01*
X130414444Y-130406551D01*
X130414450Y-130406549D01*
X130630784Y-130316941D01*
X130630788Y-130316939D01*
X130635358Y-130315046D01*
X130843448Y-130187528D01*
X131029028Y-130029028D01*
X131187528Y-129843448D01*
X131315046Y-129635358D01*
X131339491Y-129576343D01*
X131406549Y-129414450D01*
X131406551Y-129414444D01*
X131408441Y-129409881D01*
X131415606Y-129380040D01*
X131464260Y-129177380D01*
X131465415Y-129172571D01*
X131484563Y-128929269D01*
X131465415Y-128685967D01*
X131418419Y-128490217D01*
X131409595Y-128453462D01*
X131409593Y-128453457D01*
X131408441Y-128448657D01*
X131406551Y-128444094D01*
X131406549Y-128444088D01*
X131316941Y-128227754D01*
X131316939Y-128227750D01*
X131315046Y-128223180D01*
X131187528Y-128015090D01*
X131029028Y-127829510D01*
X130843448Y-127671010D01*
X130635358Y-127543492D01*
X130630788Y-127541599D01*
X130630784Y-127541597D01*
X130414450Y-127451989D01*
X130414444Y-127451987D01*
X130409881Y-127450097D01*
X130405081Y-127448945D01*
X130405076Y-127448943D01*
X130254201Y-127412721D01*
X130172571Y-127393123D01*
X129929269Y-127373975D01*
X129685967Y-127393123D01*
X129604337Y-127412721D01*
X129453462Y-127448943D01*
X129453457Y-127448945D01*
X129448657Y-127450097D01*
X129444094Y-127451987D01*
X129444088Y-127451989D01*
X129227754Y-127541597D01*
X129227750Y-127541599D01*
X129223180Y-127543492D01*
X129015090Y-127671010D01*
X128829510Y-127829510D01*
X128671010Y-128015090D01*
X128543492Y-128223180D01*
X128541599Y-128227750D01*
X128541597Y-128227754D01*
X128451989Y-128444088D01*
X128451987Y-128444094D01*
X128450097Y-128448657D01*
X128448945Y-128453457D01*
X128448943Y-128453462D01*
X128440119Y-128490217D01*
X128393123Y-128685967D01*
X128373975Y-128929269D01*
X105034500Y-128929269D01*
X105034500Y-127096891D01*
X122521226Y-127096891D01*
X122530935Y-127306662D01*
X122532339Y-127312487D01*
X122532339Y-127312488D01*
X122572052Y-127477268D01*
X122580136Y-127510813D01*
X122582618Y-127516271D01*
X122582619Y-127516275D01*
X122625732Y-127611096D01*
X122667052Y-127701976D01*
X122788549Y-127873255D01*
X122940243Y-128018470D01*
X122945278Y-128021721D01*
X123111621Y-128129128D01*
X123111624Y-128129129D01*
X123116658Y-128132380D01*
X123122221Y-128134622D01*
X123305867Y-128208634D01*
X123305870Y-128208635D01*
X123311431Y-128210876D01*
X123317312Y-128212024D01*
X123317317Y-128212026D01*
X123513088Y-128250257D01*
X123513091Y-128250257D01*
X123517534Y-128251125D01*
X123523055Y-128251395D01*
X123677881Y-128251395D01*
X123834458Y-128236456D01*
X123840214Y-128234767D01*
X123840216Y-128234767D01*
X123929295Y-128208634D01*
X124035961Y-128177342D01*
X124136359Y-128125634D01*
X124217320Y-128083936D01*
X124217323Y-128083934D01*
X124222651Y-128081190D01*
X124301432Y-128019307D01*
X124383074Y-127955177D01*
X124383079Y-127955173D01*
X124387791Y-127951471D01*
X124391723Y-127946940D01*
X124521491Y-127797397D01*
X124521495Y-127797392D01*
X124525422Y-127792866D01*
X124630578Y-127611096D01*
X124699465Y-127412721D01*
X124714843Y-127306662D01*
X124728737Y-127210839D01*
X124728737Y-127210836D01*
X124729598Y-127204899D01*
X124719889Y-126995128D01*
X124670688Y-126790977D01*
X124641161Y-126726034D01*
X124586252Y-126605269D01*
X124583772Y-126599814D01*
X124462275Y-126428535D01*
X124310581Y-126283320D01*
X124213445Y-126220600D01*
X124139203Y-126172662D01*
X124139200Y-126172661D01*
X124134166Y-126169410D01*
X124128603Y-126167168D01*
X123944957Y-126093156D01*
X123944954Y-126093155D01*
X123939393Y-126090914D01*
X123933512Y-126089766D01*
X123933507Y-126089764D01*
X123737736Y-126051533D01*
X123737733Y-126051533D01*
X123733290Y-126050665D01*
X123727769Y-126050395D01*
X123572943Y-126050395D01*
X123416366Y-126065334D01*
X123410610Y-126067023D01*
X123410608Y-126067023D01*
X123333091Y-126089764D01*
X123214863Y-126124448D01*
X123131917Y-126167168D01*
X123033504Y-126217854D01*
X123033501Y-126217856D01*
X123028173Y-126220600D01*
X122991020Y-126249784D01*
X122867750Y-126346613D01*
X122867745Y-126346617D01*
X122863033Y-126350319D01*
X122859102Y-126354849D01*
X122859101Y-126354850D01*
X122729333Y-126504393D01*
X122729329Y-126504398D01*
X122725402Y-126508924D01*
X122620246Y-126690694D01*
X122551359Y-126889069D01*
X122550498Y-126895004D01*
X122550498Y-126895006D01*
X122535113Y-127001118D01*
X122521226Y-127096891D01*
X105034500Y-127096891D01*
X105034500Y-125265485D01*
X129740786Y-125265485D01*
X129750495Y-125475256D01*
X129751899Y-125481081D01*
X129751899Y-125481082D01*
X129782764Y-125609149D01*
X129799696Y-125679407D01*
X129802178Y-125684865D01*
X129802179Y-125684869D01*
X129845292Y-125779690D01*
X129886612Y-125870570D01*
X130008109Y-126041849D01*
X130159803Y-126187064D01*
X130164838Y-126190315D01*
X130331181Y-126297722D01*
X130331184Y-126297723D01*
X130336218Y-126300974D01*
X130341781Y-126303216D01*
X130525427Y-126377228D01*
X130525430Y-126377229D01*
X130530991Y-126379470D01*
X130536872Y-126380618D01*
X130536877Y-126380620D01*
X130732648Y-126418851D01*
X130732651Y-126418851D01*
X130737094Y-126419719D01*
X130742615Y-126419989D01*
X130897441Y-126419989D01*
X131054018Y-126405050D01*
X131059774Y-126403361D01*
X131059776Y-126403361D01*
X131148855Y-126377228D01*
X131255521Y-126345936D01*
X131383409Y-126280069D01*
X131436880Y-126252530D01*
X131436883Y-126252528D01*
X131442211Y-126249784D01*
X131517919Y-126190315D01*
X131602634Y-126123771D01*
X131602639Y-126123767D01*
X131607351Y-126120065D01*
X131614493Y-126111835D01*
X131741051Y-125965991D01*
X131741055Y-125965986D01*
X131744982Y-125961460D01*
X131755038Y-125944077D01*
X145995065Y-125944077D01*
X146008722Y-126335157D01*
X146009129Y-126338206D01*
X146009129Y-126338208D01*
X146014635Y-126379470D01*
X146060477Y-126723038D01*
X146149834Y-127104017D01*
X146150823Y-127106923D01*
X146150825Y-127106929D01*
X146274950Y-127471543D01*
X146274955Y-127471555D01*
X146275943Y-127474458D01*
X146437598Y-127830826D01*
X146633258Y-128169717D01*
X146635047Y-128172216D01*
X146635049Y-128172219D01*
X146836399Y-128453462D01*
X146861053Y-128487899D01*
X147118810Y-128782333D01*
X147404069Y-129050208D01*
X147714107Y-129288969D01*
X147716710Y-129290596D01*
X147716715Y-129290599D01*
X147835687Y-129364941D01*
X148045964Y-129496337D01*
X148396472Y-129670331D01*
X148762287Y-129809290D01*
X149139915Y-129911890D01*
X149142958Y-129912405D01*
X149142964Y-129912406D01*
X149522713Y-129976636D01*
X149522720Y-129976637D01*
X149525754Y-129977150D01*
X149528825Y-129977365D01*
X149528827Y-129977365D01*
X149913053Y-130004233D01*
X149913061Y-130004233D01*
X149916119Y-130004447D01*
X150169704Y-129997363D01*
X150304211Y-129993606D01*
X150304214Y-129993606D01*
X150307285Y-129993520D01*
X150310338Y-129993134D01*
X150310342Y-129993134D01*
X150496145Y-129969662D01*
X150695517Y-129944475D01*
X150698521Y-129943793D01*
X150698524Y-129943792D01*
X151074115Y-129858460D01*
X151074121Y-129858458D01*
X151077111Y-129857779D01*
X151222875Y-129809290D01*
X151445500Y-129735233D01*
X151445506Y-129735231D01*
X151448424Y-129734260D01*
X151589551Y-129671426D01*
X151803111Y-129576343D01*
X151803117Y-129576340D01*
X151805911Y-129575096D01*
X151808580Y-129573580D01*
X152143492Y-129383324D01*
X152143498Y-129383320D01*
X152146160Y-129381808D01*
X152465924Y-129156239D01*
X152762150Y-128900544D01*
X152764271Y-128898317D01*
X152764277Y-128898311D01*
X153029894Y-128619385D01*
X153032011Y-128617162D01*
X153131192Y-128490217D01*
X153271021Y-128311244D01*
X153271023Y-128311241D01*
X153272931Y-128308799D01*
X153274587Y-128306189D01*
X153274593Y-128306181D01*
X153480957Y-127981003D01*
X153480959Y-127981000D01*
X153482610Y-127978398D01*
X153498501Y-127946940D01*
X153576328Y-127792866D01*
X153659046Y-127629112D01*
X153800557Y-127264277D01*
X153905790Y-126887374D01*
X153957504Y-126594090D01*
X153973210Y-126505018D01*
X153973210Y-126505015D01*
X153973742Y-126502000D01*
X153986580Y-126335157D01*
X154003613Y-126113789D01*
X154003613Y-126113778D01*
X154003763Y-126111835D01*
X154005325Y-126000000D01*
X153986209Y-125609149D01*
X153929044Y-125222028D01*
X153834376Y-124842334D01*
X153817934Y-124796158D01*
X153720824Y-124523444D01*
X153703107Y-124473689D01*
X153536492Y-124119614D01*
X153507167Y-124070420D01*
X153337700Y-123786138D01*
X153336120Y-123783487D01*
X153103905Y-123468517D01*
X152842061Y-123177711D01*
X152553090Y-122913844D01*
X152239749Y-122679435D01*
X152146846Y-122623171D01*
X151907658Y-122478313D01*
X151907649Y-122478308D01*
X151905030Y-122476722D01*
X151650974Y-122354998D01*
X151554898Y-122308966D01*
X151554896Y-122308965D01*
X151552126Y-122307638D01*
X151549237Y-122306586D01*
X151549231Y-122306584D01*
X151187306Y-122174855D01*
X151187303Y-122174854D01*
X151184407Y-122173800D01*
X150905080Y-122102081D01*
X150808366Y-122077249D01*
X150808363Y-122077248D01*
X150805382Y-122076483D01*
X150418670Y-122016617D01*
X150415613Y-122016446D01*
X150415612Y-122016446D01*
X150385120Y-122014741D01*
X150027962Y-121994773D01*
X150024883Y-121994902D01*
X150024880Y-121994902D01*
X149793940Y-122004581D01*
X149636987Y-122011159D01*
X149633943Y-122011587D01*
X149633941Y-122011587D01*
X149599368Y-122016446D01*
X149249477Y-122065620D01*
X148869131Y-122157636D01*
X148499579Y-122286327D01*
X148496781Y-122287620D01*
X148147146Y-122449174D01*
X148147136Y-122449179D01*
X148144349Y-122450467D01*
X148035829Y-122514135D01*
X147809486Y-122646929D01*
X147809481Y-122646932D01*
X147806831Y-122648487D01*
X147769392Y-122675688D01*
X147492730Y-122876694D01*
X147492721Y-122876701D01*
X147490248Y-122878498D01*
X147487958Y-122880531D01*
X147487952Y-122880536D01*
X147290397Y-123055934D01*
X147197621Y-123138305D01*
X146931743Y-123425427D01*
X146695152Y-123737124D01*
X146490107Y-124070420D01*
X146318564Y-124422135D01*
X146317493Y-124425016D01*
X146317490Y-124425022D01*
X146251667Y-124602015D01*
X146182162Y-124788910D01*
X146082201Y-125167246D01*
X146073328Y-125222028D01*
X146032315Y-125475256D01*
X146019637Y-125553531D01*
X146019443Y-125556611D01*
X146019443Y-125556613D01*
X146011374Y-125684869D01*
X145995065Y-125944077D01*
X131755038Y-125944077D01*
X131850138Y-125779690D01*
X131908292Y-125612222D01*
X131917058Y-125586980D01*
X131917058Y-125586978D01*
X131919025Y-125581315D01*
X131934403Y-125475256D01*
X131948297Y-125379433D01*
X131948297Y-125379430D01*
X131949158Y-125373493D01*
X131939449Y-125163722D01*
X131890248Y-124959571D01*
X131876252Y-124928787D01*
X131814006Y-124791885D01*
X131803332Y-124768408D01*
X131681835Y-124597129D01*
X131530141Y-124451914D01*
X131433005Y-124389194D01*
X131358763Y-124341256D01*
X131358760Y-124341255D01*
X131353726Y-124338004D01*
X131348163Y-124335762D01*
X131164517Y-124261750D01*
X131164514Y-124261749D01*
X131158953Y-124259508D01*
X131153072Y-124258360D01*
X131153067Y-124258358D01*
X130957296Y-124220127D01*
X130957293Y-124220127D01*
X130952850Y-124219259D01*
X130947329Y-124218989D01*
X130792503Y-124218989D01*
X130635926Y-124233928D01*
X130630170Y-124235617D01*
X130630168Y-124235617D01*
X130606263Y-124242630D01*
X130434423Y-124293042D01*
X130351477Y-124335762D01*
X130253064Y-124386448D01*
X130253061Y-124386450D01*
X130247733Y-124389194D01*
X130243018Y-124392898D01*
X130087310Y-124515207D01*
X130087305Y-124515211D01*
X130082593Y-124518913D01*
X130078662Y-124523443D01*
X130078661Y-124523444D01*
X129948893Y-124672987D01*
X129948889Y-124672992D01*
X129944962Y-124677518D01*
X129839806Y-124859288D01*
X129770919Y-125057663D01*
X129770058Y-125063598D01*
X129770058Y-125063600D01*
X129754673Y-125169712D01*
X129740786Y-125265485D01*
X105034500Y-125265485D01*
X105034500Y-123541115D01*
X122985821Y-123541115D01*
X123004969Y-123784417D01*
X123061943Y-124021727D01*
X123063833Y-124026290D01*
X123063835Y-124026296D01*
X123153443Y-124242630D01*
X123155338Y-124247204D01*
X123282856Y-124455294D01*
X123441356Y-124640874D01*
X123626936Y-124799374D01*
X123835026Y-124926892D01*
X123839596Y-124928785D01*
X123839600Y-124928787D01*
X124055934Y-125018395D01*
X124055940Y-125018397D01*
X124060503Y-125020287D01*
X124065303Y-125021439D01*
X124065308Y-125021441D01*
X124173817Y-125047492D01*
X124297813Y-125077261D01*
X124541115Y-125096409D01*
X124784417Y-125077261D01*
X124908413Y-125047492D01*
X125016922Y-125021441D01*
X125016927Y-125021439D01*
X125021727Y-125020287D01*
X125026290Y-125018397D01*
X125026296Y-125018395D01*
X125242630Y-124928787D01*
X125242634Y-124928785D01*
X125247204Y-124926892D01*
X125455294Y-124799374D01*
X125640874Y-124640874D01*
X125799374Y-124455294D01*
X125926892Y-124247204D01*
X125928787Y-124242630D01*
X126018395Y-124026296D01*
X126018397Y-124026290D01*
X126020287Y-124021727D01*
X126077261Y-123784417D01*
X126096409Y-123541115D01*
X126077261Y-123297813D01*
X126020287Y-123060503D01*
X126018397Y-123055940D01*
X126018395Y-123055934D01*
X125928787Y-122839600D01*
X125928785Y-122839596D01*
X125926892Y-122835026D01*
X125887866Y-122771342D01*
X135001732Y-122771342D01*
X135001829Y-122883287D01*
X135006025Y-122894132D01*
X135006025Y-122894134D01*
X135013651Y-122913844D01*
X135042220Y-122987692D01*
X135058262Y-123007968D01*
X136199032Y-124148738D01*
X136201962Y-124151045D01*
X136201968Y-124151050D01*
X136211942Y-124158902D01*
X136219763Y-124165059D01*
X136228584Y-124168454D01*
X136313384Y-124201091D01*
X136313386Y-124201091D01*
X136324238Y-124205268D01*
X136335869Y-124205258D01*
X136379966Y-124205220D01*
X136436183Y-124205171D01*
X136447028Y-124200975D01*
X136447030Y-124200975D01*
X136531754Y-124168198D01*
X136531756Y-124168197D01*
X136540588Y-124164780D01*
X136548016Y-124158903D01*
X136548018Y-124158902D01*
X136557986Y-124151015D01*
X136560864Y-124148738D01*
X137701634Y-123007968D01*
X137703941Y-123005038D01*
X137703946Y-123005032D01*
X137712108Y-122994664D01*
X137717955Y-122987237D01*
X137746911Y-122912001D01*
X137753987Y-122893616D01*
X137753987Y-122893614D01*
X137758164Y-122882762D01*
X137758067Y-122770817D01*
X137723429Y-122681282D01*
X137721094Y-122675246D01*
X137721093Y-122675244D01*
X137717676Y-122666412D01*
X137701634Y-122646136D01*
X136560864Y-121505366D01*
X136557934Y-121503059D01*
X136557928Y-121503054D01*
X136547560Y-121494892D01*
X136540133Y-121489045D01*
X136531312Y-121485650D01*
X136446512Y-121453013D01*
X136446510Y-121453013D01*
X136435658Y-121448836D01*
X136424027Y-121448846D01*
X136379930Y-121448884D01*
X136323713Y-121448933D01*
X136312868Y-121453129D01*
X136312866Y-121453129D01*
X136228142Y-121485906D01*
X136228140Y-121485907D01*
X136219308Y-121489324D01*
X136211880Y-121495201D01*
X136211878Y-121495202D01*
X136202326Y-121502760D01*
X136199032Y-121505366D01*
X135058262Y-122646136D01*
X135055955Y-122649066D01*
X135055950Y-122649072D01*
X135054985Y-122650298D01*
X135041941Y-122666867D01*
X135038546Y-122675688D01*
X135006109Y-122759970D01*
X135001732Y-122771342D01*
X125887866Y-122771342D01*
X125799374Y-122626936D01*
X125640874Y-122441356D01*
X125455294Y-122282856D01*
X125247204Y-122155338D01*
X125242634Y-122153445D01*
X125242630Y-122153443D01*
X125026296Y-122063835D01*
X125026290Y-122063833D01*
X125021727Y-122061943D01*
X125016927Y-122060791D01*
X125016922Y-122060789D01*
X124908413Y-122034738D01*
X124784417Y-122004969D01*
X124541115Y-121985821D01*
X124297813Y-122004969D01*
X124173817Y-122034738D01*
X124065308Y-122060789D01*
X124065303Y-122060791D01*
X124060503Y-122061943D01*
X124055940Y-122063833D01*
X124055934Y-122063835D01*
X123839600Y-122153443D01*
X123839596Y-122153445D01*
X123835026Y-122155338D01*
X123626936Y-122282856D01*
X123441356Y-122441356D01*
X123282856Y-122626936D01*
X123155338Y-122835026D01*
X123153445Y-122839596D01*
X123153443Y-122839600D01*
X123063835Y-123055934D01*
X123063833Y-123055940D01*
X123061943Y-123060503D01*
X123004969Y-123297813D01*
X122985821Y-123541115D01*
X105034500Y-123541115D01*
X105034500Y-120847038D01*
X120291744Y-120847038D01*
X120310892Y-121090340D01*
X120367866Y-121327650D01*
X120369756Y-121332213D01*
X120369758Y-121332219D01*
X120459366Y-121548553D01*
X120461261Y-121553127D01*
X120588779Y-121761217D01*
X120747279Y-121946797D01*
X120932859Y-122105297D01*
X121140949Y-122232815D01*
X121145519Y-122234708D01*
X121145523Y-122234710D01*
X121361857Y-122324318D01*
X121361863Y-122324320D01*
X121366426Y-122326210D01*
X121371226Y-122327362D01*
X121371231Y-122327364D01*
X121465883Y-122350088D01*
X121603736Y-122383184D01*
X121847038Y-122402332D01*
X122090340Y-122383184D01*
X122228193Y-122350088D01*
X122322845Y-122327364D01*
X122322850Y-122327362D01*
X122327650Y-122326210D01*
X122332213Y-122324320D01*
X122332219Y-122324318D01*
X122548553Y-122234710D01*
X122548557Y-122234708D01*
X122553127Y-122232815D01*
X122761217Y-122105297D01*
X122946797Y-121946797D01*
X123105297Y-121761217D01*
X123232815Y-121553127D01*
X123234710Y-121548553D01*
X123324318Y-121332219D01*
X123324320Y-121332213D01*
X123326210Y-121327650D01*
X123383184Y-121090340D01*
X123402332Y-120847038D01*
X123383184Y-120603736D01*
X123333486Y-120396732D01*
X123327364Y-120371231D01*
X123327362Y-120371226D01*
X123326210Y-120366426D01*
X123324320Y-120361863D01*
X123324318Y-120361857D01*
X123234710Y-120145523D01*
X123234708Y-120145519D01*
X123232815Y-120140949D01*
X123105297Y-119932859D01*
X123057872Y-119877331D01*
X124352633Y-119877331D01*
X124362342Y-120087102D01*
X124363746Y-120092927D01*
X124363746Y-120092928D01*
X124387903Y-120193161D01*
X124411543Y-120291253D01*
X124414025Y-120296711D01*
X124414026Y-120296715D01*
X124457139Y-120391536D01*
X124498459Y-120482416D01*
X124619956Y-120653695D01*
X124771650Y-120798910D01*
X124776685Y-120802161D01*
X124943028Y-120909568D01*
X124943031Y-120909569D01*
X124948065Y-120912820D01*
X124953628Y-120915062D01*
X125137274Y-120989074D01*
X125137277Y-120989075D01*
X125142838Y-120991316D01*
X125148719Y-120992464D01*
X125148724Y-120992466D01*
X125344495Y-121030697D01*
X125344498Y-121030697D01*
X125348941Y-121031565D01*
X125354462Y-121031835D01*
X125509288Y-121031835D01*
X125665865Y-121016896D01*
X125671621Y-121015207D01*
X125671623Y-121015207D01*
X125768041Y-120986921D01*
X125867368Y-120957782D01*
X125967766Y-120906074D01*
X126048727Y-120864376D01*
X126048730Y-120864374D01*
X126054058Y-120861630D01*
X126129766Y-120802161D01*
X126214481Y-120735617D01*
X126214486Y-120735613D01*
X126219198Y-120731911D01*
X126223130Y-120727380D01*
X126352898Y-120577837D01*
X126352902Y-120577832D01*
X126356829Y-120573306D01*
X126461985Y-120391536D01*
X126530872Y-120193161D01*
X126531872Y-120186265D01*
X126560144Y-119991279D01*
X126560144Y-119991276D01*
X126561005Y-119985339D01*
X126551296Y-119775568D01*
X126510169Y-119604920D01*
X126503501Y-119577250D01*
X126503500Y-119577248D01*
X126502095Y-119571417D01*
X126499528Y-119565770D01*
X126446711Y-119449605D01*
X126415179Y-119380254D01*
X126293682Y-119208975D01*
X126141988Y-119063760D01*
X126050589Y-119004744D01*
X125970610Y-118953102D01*
X125970607Y-118953101D01*
X125965573Y-118949850D01*
X125865770Y-118909628D01*
X125776364Y-118873596D01*
X125776361Y-118873595D01*
X125770800Y-118871354D01*
X125764919Y-118870206D01*
X125764914Y-118870204D01*
X125569143Y-118831973D01*
X125569140Y-118831973D01*
X125564697Y-118831105D01*
X125559176Y-118830835D01*
X125404350Y-118830835D01*
X125247773Y-118845774D01*
X125242017Y-118847463D01*
X125242015Y-118847463D01*
X125164498Y-118870204D01*
X125046270Y-118904888D01*
X125022076Y-118917349D01*
X124864911Y-118998294D01*
X124864908Y-118998296D01*
X124859580Y-119001040D01*
X124854865Y-119004744D01*
X124699157Y-119127053D01*
X124699152Y-119127057D01*
X124694440Y-119130759D01*
X124690509Y-119135289D01*
X124690508Y-119135290D01*
X124560740Y-119284833D01*
X124560736Y-119284838D01*
X124556809Y-119289364D01*
X124451653Y-119471134D01*
X124438690Y-119508464D01*
X124388544Y-119652871D01*
X124382766Y-119669509D01*
X124381905Y-119675444D01*
X124381905Y-119675446D01*
X124366520Y-119781558D01*
X124352633Y-119877331D01*
X123057872Y-119877331D01*
X122946797Y-119747279D01*
X122761217Y-119588779D01*
X122553127Y-119461261D01*
X122548557Y-119459368D01*
X122548553Y-119459366D01*
X122332219Y-119369758D01*
X122332213Y-119369756D01*
X122327650Y-119367866D01*
X122322850Y-119366714D01*
X122322845Y-119366712D01*
X122182354Y-119332983D01*
X122090340Y-119310892D01*
X121847038Y-119291744D01*
X121603736Y-119310892D01*
X121511722Y-119332983D01*
X121371231Y-119366712D01*
X121371226Y-119366714D01*
X121366426Y-119367866D01*
X121361863Y-119369756D01*
X121361857Y-119369758D01*
X121145523Y-119459366D01*
X121145519Y-119459368D01*
X121140949Y-119461261D01*
X120932859Y-119588779D01*
X120747279Y-119747279D01*
X120588779Y-119932859D01*
X120461261Y-120140949D01*
X120459368Y-120145519D01*
X120459366Y-120145523D01*
X120369758Y-120361857D01*
X120369756Y-120361863D01*
X120367866Y-120366426D01*
X120366714Y-120371226D01*
X120366712Y-120371231D01*
X120360590Y-120396732D01*
X120310892Y-120603736D01*
X120291744Y-120847038D01*
X105034500Y-120847038D01*
X105034500Y-118152962D01*
X117597668Y-118152962D01*
X117616816Y-118396264D01*
X117622256Y-118418923D01*
X117670139Y-118618365D01*
X117673790Y-118633574D01*
X117675680Y-118638137D01*
X117675682Y-118638143D01*
X117762385Y-118847463D01*
X117767185Y-118859051D01*
X117894703Y-119067141D01*
X118053203Y-119252721D01*
X118238783Y-119411221D01*
X118446873Y-119538739D01*
X118451443Y-119540632D01*
X118451447Y-119540634D01*
X118667781Y-119630242D01*
X118667787Y-119630244D01*
X118672350Y-119632134D01*
X118677150Y-119633286D01*
X118677155Y-119633288D01*
X118758724Y-119652871D01*
X118909660Y-119689108D01*
X119152962Y-119708256D01*
X119396264Y-119689108D01*
X119547200Y-119652871D01*
X119628769Y-119633288D01*
X119628774Y-119633286D01*
X119633574Y-119632134D01*
X119638137Y-119630244D01*
X119638143Y-119630242D01*
X119854477Y-119540634D01*
X119854481Y-119540632D01*
X119859051Y-119538739D01*
X120067141Y-119411221D01*
X120252721Y-119252721D01*
X120411221Y-119067141D01*
X120538739Y-118859051D01*
X120543539Y-118847463D01*
X120630242Y-118638143D01*
X120630244Y-118638137D01*
X120632134Y-118633574D01*
X120635786Y-118618365D01*
X120683668Y-118418923D01*
X120689108Y-118396264D01*
X120708256Y-118152962D01*
X120689108Y-117909660D01*
X120632134Y-117672350D01*
X120630244Y-117667787D01*
X120630242Y-117667781D01*
X120540634Y-117451447D01*
X120540632Y-117451443D01*
X120538739Y-117446873D01*
X120411221Y-117238783D01*
X120252721Y-117053203D01*
X120067141Y-116894703D01*
X119859051Y-116767185D01*
X119854481Y-116765292D01*
X119854477Y-116765290D01*
X119638143Y-116675682D01*
X119638137Y-116675680D01*
X119633574Y-116673790D01*
X119628774Y-116672638D01*
X119628769Y-116672636D01*
X119477894Y-116636414D01*
X119396264Y-116616816D01*
X119152962Y-116597668D01*
X118909660Y-116616816D01*
X118828030Y-116636414D01*
X118677155Y-116672636D01*
X118677150Y-116672638D01*
X118672350Y-116673790D01*
X118667787Y-116675680D01*
X118667781Y-116675682D01*
X118451447Y-116765290D01*
X118451443Y-116765292D01*
X118446873Y-116767185D01*
X118238783Y-116894703D01*
X118053203Y-117053203D01*
X117894703Y-117238783D01*
X117767185Y-117446873D01*
X117765292Y-117451443D01*
X117765290Y-117451447D01*
X117675682Y-117667781D01*
X117675680Y-117667787D01*
X117673790Y-117672350D01*
X117616816Y-117909660D01*
X117597668Y-118152962D01*
X105034500Y-118152962D01*
X105034500Y-116320584D01*
X111744919Y-116320584D01*
X111754628Y-116530355D01*
X111756032Y-116536180D01*
X111756032Y-116536181D01*
X111799645Y-116717144D01*
X111803829Y-116734506D01*
X111806311Y-116739964D01*
X111806312Y-116739968D01*
X111852738Y-116842076D01*
X111890745Y-116925669D01*
X112012242Y-117096948D01*
X112163936Y-117242163D01*
X112168971Y-117245414D01*
X112335314Y-117352821D01*
X112335317Y-117352822D01*
X112340351Y-117356073D01*
X112345914Y-117358315D01*
X112529560Y-117432327D01*
X112529563Y-117432328D01*
X112535124Y-117434569D01*
X112541005Y-117435717D01*
X112541010Y-117435719D01*
X112736781Y-117473950D01*
X112736784Y-117473950D01*
X112741227Y-117474818D01*
X112746748Y-117475088D01*
X112901574Y-117475088D01*
X113058151Y-117460149D01*
X113063907Y-117458460D01*
X113063909Y-117458460D01*
X113152988Y-117432327D01*
X113259654Y-117401035D01*
X113360052Y-117349327D01*
X113441013Y-117307629D01*
X113441016Y-117307627D01*
X113446344Y-117304883D01*
X113525125Y-117243000D01*
X113606767Y-117178870D01*
X113606772Y-117178866D01*
X113611484Y-117175164D01*
X113615416Y-117170633D01*
X113745184Y-117021090D01*
X113745188Y-117021085D01*
X113749115Y-117016559D01*
X113854271Y-116834789D01*
X113910580Y-116672636D01*
X113921191Y-116642079D01*
X113921191Y-116642077D01*
X113923158Y-116636414D01*
X113928776Y-116597668D01*
X113952430Y-116434532D01*
X113952430Y-116434529D01*
X113953291Y-116428592D01*
X113943582Y-116218821D01*
X113899928Y-116037687D01*
X113895787Y-116020503D01*
X113895786Y-116020501D01*
X113894381Y-116014670D01*
X113891881Y-116009170D01*
X113809945Y-115828962D01*
X113807465Y-115823507D01*
X113699335Y-115671072D01*
X113689434Y-115657114D01*
X113689433Y-115657113D01*
X113685968Y-115652228D01*
X113534274Y-115507013D01*
X113486587Y-115476222D01*
X113459737Y-115458885D01*
X114903591Y-115458885D01*
X114922739Y-115702187D01*
X114950556Y-115818052D01*
X114977509Y-115930315D01*
X114979713Y-115939497D01*
X114981603Y-115944060D01*
X114981605Y-115944066D01*
X115051481Y-116112762D01*
X115073108Y-116164974D01*
X115200626Y-116373064D01*
X115359126Y-116558644D01*
X115544706Y-116717144D01*
X115611845Y-116758287D01*
X115748335Y-116841928D01*
X115752796Y-116844662D01*
X115757366Y-116846555D01*
X115757370Y-116846557D01*
X115973704Y-116936165D01*
X115973710Y-116936167D01*
X115978273Y-116938057D01*
X115983073Y-116939209D01*
X115983078Y-116939211D01*
X116091587Y-116965262D01*
X116215583Y-116995031D01*
X116458885Y-117014179D01*
X116702187Y-116995031D01*
X116826183Y-116965262D01*
X116934692Y-116939211D01*
X116934697Y-116939209D01*
X116939497Y-116938057D01*
X116944060Y-116936167D01*
X116944066Y-116936165D01*
X117160400Y-116846557D01*
X117160404Y-116846555D01*
X117164974Y-116844662D01*
X117169436Y-116841928D01*
X117305925Y-116758287D01*
X117373064Y-116717144D01*
X117558644Y-116558644D01*
X117717144Y-116373064D01*
X117844662Y-116164974D01*
X117866289Y-116112762D01*
X117936165Y-115944066D01*
X117936167Y-115944060D01*
X117938057Y-115939497D01*
X117940262Y-115930315D01*
X117967214Y-115818052D01*
X117995031Y-115702187D01*
X118014179Y-115458885D01*
X117995031Y-115215583D01*
X117945333Y-115008578D01*
X117939211Y-114983078D01*
X117939209Y-114983073D01*
X117938057Y-114978273D01*
X117936167Y-114973710D01*
X117936165Y-114973704D01*
X117846557Y-114757370D01*
X117846555Y-114757366D01*
X117844662Y-114752796D01*
X117717144Y-114544706D01*
X117669718Y-114489177D01*
X118964479Y-114489177D01*
X118974188Y-114698948D01*
X118975592Y-114704773D01*
X118975592Y-114704774D01*
X118999749Y-114805007D01*
X119023389Y-114903099D01*
X119025871Y-114908557D01*
X119025872Y-114908561D01*
X119067786Y-115000745D01*
X119110305Y-115094262D01*
X119231802Y-115265541D01*
X119383496Y-115410756D01*
X119388531Y-115414007D01*
X119554874Y-115521414D01*
X119554877Y-115521415D01*
X119559911Y-115524666D01*
X119565474Y-115526908D01*
X119749120Y-115600920D01*
X119749123Y-115600921D01*
X119754684Y-115603162D01*
X119760565Y-115604310D01*
X119760570Y-115604312D01*
X119956341Y-115642543D01*
X119956344Y-115642543D01*
X119960787Y-115643411D01*
X119966308Y-115643681D01*
X120121134Y-115643681D01*
X120277711Y-115628742D01*
X120283467Y-115627053D01*
X120283469Y-115627053D01*
X120448825Y-115578543D01*
X120479214Y-115569628D01*
X120602988Y-115505880D01*
X120660573Y-115476222D01*
X120660576Y-115476220D01*
X120665904Y-115473476D01*
X120741612Y-115414007D01*
X120826327Y-115347463D01*
X120826332Y-115347459D01*
X120831044Y-115343757D01*
X120834976Y-115339226D01*
X120964744Y-115189683D01*
X120964748Y-115189678D01*
X120968675Y-115185152D01*
X121073831Y-115003382D01*
X121123194Y-114861232D01*
X121140751Y-114810672D01*
X121140751Y-114810670D01*
X121142718Y-114805007D01*
X121158096Y-114698948D01*
X121171990Y-114603125D01*
X121171990Y-114603122D01*
X121172851Y-114597185D01*
X121163142Y-114387414D01*
X121113941Y-114183263D01*
X121099084Y-114150585D01*
X121055950Y-114055717D01*
X121027025Y-113992100D01*
X120905528Y-113820821D01*
X120753834Y-113675606D01*
X120710473Y-113647608D01*
X120582456Y-113564948D01*
X120582453Y-113564947D01*
X120577419Y-113561696D01*
X120571856Y-113559454D01*
X120388210Y-113485442D01*
X120388207Y-113485441D01*
X120382646Y-113483200D01*
X120376765Y-113482052D01*
X120376760Y-113482050D01*
X120180989Y-113443819D01*
X120180986Y-113443819D01*
X120176543Y-113442951D01*
X120171022Y-113442681D01*
X120016196Y-113442681D01*
X119859619Y-113457620D01*
X119853863Y-113459309D01*
X119853861Y-113459309D01*
X119776344Y-113482050D01*
X119658116Y-113516734D01*
X119575170Y-113559454D01*
X119476757Y-113610140D01*
X119476754Y-113610142D01*
X119471426Y-113612886D01*
X119466711Y-113616590D01*
X119311003Y-113738899D01*
X119310998Y-113738903D01*
X119306286Y-113742605D01*
X119302355Y-113747135D01*
X119302354Y-113747136D01*
X119172586Y-113896679D01*
X119172582Y-113896684D01*
X119168655Y-113901210D01*
X119063499Y-114082980D01*
X118994612Y-114281355D01*
X118993751Y-114287290D01*
X118993751Y-114287292D01*
X118978366Y-114393404D01*
X118964479Y-114489177D01*
X117669718Y-114489177D01*
X117558644Y-114359126D01*
X117373064Y-114200626D01*
X117164974Y-114073108D01*
X117160404Y-114071215D01*
X117160400Y-114071213D01*
X116944066Y-113981605D01*
X116944060Y-113981603D01*
X116939497Y-113979713D01*
X116934697Y-113978561D01*
X116934692Y-113978559D01*
X116826183Y-113952508D01*
X116702187Y-113922739D01*
X116458885Y-113903591D01*
X116215583Y-113922739D01*
X116091587Y-113952508D01*
X115983078Y-113978559D01*
X115983073Y-113978561D01*
X115978273Y-113979713D01*
X115973710Y-113981603D01*
X115973704Y-113981605D01*
X115757370Y-114071213D01*
X115757366Y-114071215D01*
X115752796Y-114073108D01*
X115544706Y-114200626D01*
X115359126Y-114359126D01*
X115200626Y-114544706D01*
X115073108Y-114752796D01*
X115071215Y-114757366D01*
X115071213Y-114757370D01*
X114981605Y-114973704D01*
X114981603Y-114973710D01*
X114979713Y-114978273D01*
X114978561Y-114983073D01*
X114978559Y-114983078D01*
X114972437Y-115008578D01*
X114922739Y-115215583D01*
X114903591Y-115458885D01*
X113459737Y-115458885D01*
X113362896Y-115396355D01*
X113362893Y-115396354D01*
X113357859Y-115393103D01*
X113352296Y-115390861D01*
X113168650Y-115316849D01*
X113168647Y-115316848D01*
X113163086Y-115314607D01*
X113157205Y-115313459D01*
X113157200Y-115313457D01*
X112961429Y-115275226D01*
X112961426Y-115275226D01*
X112956983Y-115274358D01*
X112951462Y-115274088D01*
X112796636Y-115274088D01*
X112640059Y-115289027D01*
X112634303Y-115290716D01*
X112634301Y-115290716D01*
X112556784Y-115313457D01*
X112438556Y-115348141D01*
X112355610Y-115390861D01*
X112257197Y-115441547D01*
X112257194Y-115441549D01*
X112251866Y-115444293D01*
X112200557Y-115484597D01*
X112091443Y-115570306D01*
X112091438Y-115570310D01*
X112086726Y-115574012D01*
X112082795Y-115578542D01*
X112082794Y-115578543D01*
X111953026Y-115728086D01*
X111953022Y-115728091D01*
X111949095Y-115732617D01*
X111843939Y-115914387D01*
X111833187Y-115945350D01*
X111794411Y-116057015D01*
X111775052Y-116112762D01*
X111774191Y-116118697D01*
X111774191Y-116118699D01*
X111758806Y-116224811D01*
X111744919Y-116320584D01*
X105034500Y-116320584D01*
X105034500Y-112764808D01*
X112209514Y-112764808D01*
X112228662Y-113008110D01*
X112239348Y-113052618D01*
X112283959Y-113238433D01*
X112285636Y-113245420D01*
X112287526Y-113249983D01*
X112287528Y-113249989D01*
X112374231Y-113459309D01*
X112379031Y-113470897D01*
X112506549Y-113678987D01*
X112665049Y-113864567D01*
X112850629Y-114023067D01*
X113058719Y-114150585D01*
X113063289Y-114152478D01*
X113063293Y-114152480D01*
X113279627Y-114242088D01*
X113279633Y-114242090D01*
X113284196Y-114243980D01*
X113288996Y-114245132D01*
X113289001Y-114245134D01*
X113397510Y-114271185D01*
X113521506Y-114300954D01*
X113764808Y-114320102D01*
X114008110Y-114300954D01*
X114132106Y-114271185D01*
X114240615Y-114245134D01*
X114240620Y-114245132D01*
X114245420Y-114243980D01*
X114249983Y-114242090D01*
X114249989Y-114242088D01*
X114466323Y-114152480D01*
X114466327Y-114152478D01*
X114470897Y-114150585D01*
X114678987Y-114023067D01*
X114864567Y-113864567D01*
X115023067Y-113678987D01*
X115150585Y-113470897D01*
X115155385Y-113459309D01*
X115242088Y-113249989D01*
X115242090Y-113249983D01*
X115243980Y-113245420D01*
X115245658Y-113238433D01*
X115290268Y-113052618D01*
X115300954Y-113008110D01*
X115320102Y-112764808D01*
X115300954Y-112521506D01*
X115263330Y-112364794D01*
X115245134Y-112289001D01*
X115245132Y-112288996D01*
X115243980Y-112284196D01*
X115242090Y-112279633D01*
X115242088Y-112279627D01*
X115152480Y-112063293D01*
X115152478Y-112063289D01*
X115150585Y-112058719D01*
X115023067Y-111850629D01*
X114864567Y-111665049D01*
X114678987Y-111506549D01*
X114470897Y-111379031D01*
X114466327Y-111377138D01*
X114466323Y-111377136D01*
X114249989Y-111287528D01*
X114249983Y-111287526D01*
X114245420Y-111285636D01*
X114240620Y-111284484D01*
X114240615Y-111284482D01*
X114132106Y-111258431D01*
X114008110Y-111228662D01*
X113764808Y-111209514D01*
X113521506Y-111228662D01*
X113397510Y-111258431D01*
X113289001Y-111284482D01*
X113288996Y-111284484D01*
X113284196Y-111285636D01*
X113279633Y-111287526D01*
X113279627Y-111287528D01*
X113063293Y-111377136D01*
X113063289Y-111377138D01*
X113058719Y-111379031D01*
X112850629Y-111506549D01*
X112665049Y-111665049D01*
X112506549Y-111850629D01*
X112379031Y-112058719D01*
X112377138Y-112063289D01*
X112377136Y-112063293D01*
X112287528Y-112279627D01*
X112287526Y-112279633D01*
X112285636Y-112284196D01*
X112284484Y-112288996D01*
X112284482Y-112289001D01*
X112266286Y-112364794D01*
X112228662Y-112521506D01*
X112209514Y-112764808D01*
X105034500Y-112764808D01*
X105034500Y-110070731D01*
X109515437Y-110070731D01*
X109534585Y-110314033D01*
X109535740Y-110318842D01*
X109578031Y-110494994D01*
X109591559Y-110551343D01*
X109593449Y-110555906D01*
X109593451Y-110555912D01*
X109683059Y-110772246D01*
X109684954Y-110776820D01*
X109812472Y-110984910D01*
X109970972Y-111170490D01*
X110156552Y-111328990D01*
X110364642Y-111456508D01*
X110369212Y-111458401D01*
X110369216Y-111458403D01*
X110585550Y-111548011D01*
X110585556Y-111548013D01*
X110590119Y-111549903D01*
X110594919Y-111551055D01*
X110594924Y-111551057D01*
X110682995Y-111572201D01*
X110827429Y-111606877D01*
X111070731Y-111626025D01*
X111314033Y-111606877D01*
X111458467Y-111572201D01*
X111546538Y-111551057D01*
X111546543Y-111551055D01*
X111551343Y-111549903D01*
X111555906Y-111548013D01*
X111555912Y-111548011D01*
X111772246Y-111458403D01*
X111772250Y-111458401D01*
X111776820Y-111456508D01*
X111984910Y-111328990D01*
X112170490Y-111170490D01*
X112328990Y-110984910D01*
X112456508Y-110776820D01*
X112458403Y-110772246D01*
X112548011Y-110555912D01*
X112548013Y-110555906D01*
X112549903Y-110551343D01*
X112563432Y-110494994D01*
X112605722Y-110318842D01*
X112606877Y-110314033D01*
X112626025Y-110070731D01*
X112606877Y-109827429D01*
X112566375Y-109658729D01*
X112551057Y-109594924D01*
X112551055Y-109594919D01*
X112549903Y-109590119D01*
X112548013Y-109585556D01*
X112548011Y-109585550D01*
X112458403Y-109369216D01*
X112458401Y-109369212D01*
X112456508Y-109364642D01*
X112328990Y-109156552D01*
X112281565Y-109101024D01*
X113576325Y-109101024D01*
X113586034Y-109310795D01*
X113587438Y-109316620D01*
X113587438Y-109316621D01*
X113630165Y-109493907D01*
X113635235Y-109514946D01*
X113637717Y-109520404D01*
X113637718Y-109520408D01*
X113679770Y-109612897D01*
X113722151Y-109706109D01*
X113843648Y-109877388D01*
X113995342Y-110022603D01*
X114000377Y-110025854D01*
X114166720Y-110133261D01*
X114166723Y-110133262D01*
X114171757Y-110136513D01*
X114177320Y-110138755D01*
X114360966Y-110212767D01*
X114360969Y-110212768D01*
X114366530Y-110215009D01*
X114372411Y-110216157D01*
X114372416Y-110216159D01*
X114568187Y-110254390D01*
X114568190Y-110254390D01*
X114572633Y-110255258D01*
X114578154Y-110255528D01*
X114732980Y-110255528D01*
X114889557Y-110240589D01*
X114895313Y-110238900D01*
X114895315Y-110238900D01*
X114984394Y-110212767D01*
X115091060Y-110181475D01*
X115191458Y-110129767D01*
X115272419Y-110088069D01*
X115272422Y-110088067D01*
X115277750Y-110085323D01*
X115353458Y-110025854D01*
X115438173Y-109959310D01*
X115438178Y-109959306D01*
X115442890Y-109955604D01*
X115446822Y-109951073D01*
X115576590Y-109801530D01*
X115576594Y-109801525D01*
X115580521Y-109796999D01*
X115685677Y-109615229D01*
X115736692Y-109468321D01*
X115752597Y-109422519D01*
X115752597Y-109422517D01*
X115754564Y-109416854D01*
X115761471Y-109369216D01*
X115783836Y-109214972D01*
X115783836Y-109214969D01*
X115784697Y-109209032D01*
X115774988Y-108999261D01*
X115732216Y-108821787D01*
X115727193Y-108800943D01*
X115727192Y-108800941D01*
X115725787Y-108795110D01*
X115721381Y-108785418D01*
X115655228Y-108639923D01*
X115638871Y-108603947D01*
X115517374Y-108432668D01*
X115365680Y-108287453D01*
X115268544Y-108224733D01*
X115194302Y-108176795D01*
X115194299Y-108176794D01*
X115189265Y-108173543D01*
X115183702Y-108171301D01*
X115000056Y-108097289D01*
X115000053Y-108097288D01*
X114994492Y-108095047D01*
X114988611Y-108093899D01*
X114988606Y-108093897D01*
X114792835Y-108055666D01*
X114792832Y-108055666D01*
X114788389Y-108054798D01*
X114782868Y-108054528D01*
X114628042Y-108054528D01*
X114471465Y-108069467D01*
X114465709Y-108071156D01*
X114465707Y-108071156D01*
X114388190Y-108093897D01*
X114269962Y-108128581D01*
X114231027Y-108148634D01*
X114088603Y-108221987D01*
X114088600Y-108221989D01*
X114083272Y-108224733D01*
X114078557Y-108228437D01*
X113922849Y-108350746D01*
X113922844Y-108350750D01*
X113918132Y-108354452D01*
X113914201Y-108358982D01*
X113914200Y-108358983D01*
X113784432Y-108508526D01*
X113784428Y-108508531D01*
X113780501Y-108513057D01*
X113675345Y-108694827D01*
X113650637Y-108765979D01*
X113624696Y-108840683D01*
X113606458Y-108893202D01*
X113605597Y-108899137D01*
X113605597Y-108899139D01*
X113580959Y-109069067D01*
X113576325Y-109101024D01*
X112281565Y-109101024D01*
X112170490Y-108970972D01*
X111984910Y-108812472D01*
X111776820Y-108684954D01*
X111772250Y-108683061D01*
X111772246Y-108683059D01*
X111555912Y-108593451D01*
X111555906Y-108593449D01*
X111551343Y-108591559D01*
X111546543Y-108590407D01*
X111546538Y-108590405D01*
X111398158Y-108554782D01*
X111314033Y-108534585D01*
X111070731Y-108515437D01*
X110827429Y-108534585D01*
X110743304Y-108554782D01*
X110594924Y-108590405D01*
X110594919Y-108590407D01*
X110590119Y-108591559D01*
X110585556Y-108593449D01*
X110585550Y-108593451D01*
X110369216Y-108683059D01*
X110369212Y-108683061D01*
X110364642Y-108684954D01*
X110156552Y-108812472D01*
X109970972Y-108970972D01*
X109812472Y-109156552D01*
X109684954Y-109364642D01*
X109683061Y-109369212D01*
X109683059Y-109369216D01*
X109593451Y-109585550D01*
X109593449Y-109585556D01*
X109591559Y-109590119D01*
X109590407Y-109594919D01*
X109590405Y-109594924D01*
X109575087Y-109658729D01*
X109534585Y-109827429D01*
X109515437Y-110070731D01*
X105034500Y-110070731D01*
X105034500Y-107993674D01*
X123347776Y-107993674D01*
X123365718Y-108156184D01*
X123368327Y-108163315D01*
X123368328Y-108163317D01*
X123420026Y-108304588D01*
X123427700Y-108347889D01*
X123427699Y-108560102D01*
X123427699Y-108765979D01*
X123426621Y-108782425D01*
X123422517Y-108813599D01*
X123443155Y-108970361D01*
X123503663Y-109116440D01*
X123534442Y-109156552D01*
X123599916Y-109241880D01*
X123606466Y-109246906D01*
X123606469Y-109246909D01*
X123624866Y-109261025D01*
X123637257Y-109271892D01*
X126497795Y-112132430D01*
X126531821Y-112194742D01*
X126532799Y-112200721D01*
X126533498Y-112203702D01*
X126534332Y-112211255D01*
X126536942Y-112218387D01*
X126558277Y-112276687D01*
X126590519Y-112364794D01*
X126594755Y-112371097D01*
X126594755Y-112371098D01*
X126677474Y-112494198D01*
X126677477Y-112494201D01*
X126681708Y-112500498D01*
X126802636Y-112610534D01*
X126864113Y-112643913D01*
X126939643Y-112684923D01*
X126939645Y-112684924D01*
X126946320Y-112688548D01*
X126971604Y-112695181D01*
X127028727Y-112727962D01*
X128858052Y-114557288D01*
X130685951Y-116385187D01*
X130715182Y-116430981D01*
X130716482Y-116434532D01*
X130743705Y-116508923D01*
X130747941Y-116515226D01*
X130747941Y-116515227D01*
X130830660Y-116638327D01*
X130830663Y-116638330D01*
X130834894Y-116644627D01*
X130955822Y-116754663D01*
X130984410Y-116770185D01*
X131092829Y-116829052D01*
X131092831Y-116829053D01*
X131099506Y-116832677D01*
X131106855Y-116834605D01*
X131250301Y-116872237D01*
X131250303Y-116872237D01*
X131257651Y-116874165D01*
X131340932Y-116875473D01*
X131413529Y-116876614D01*
X131413532Y-116876614D01*
X131421128Y-116876733D01*
X131428533Y-116875037D01*
X131428534Y-116875037D01*
X131573097Y-116841928D01*
X131580498Y-116840233D01*
X131726561Y-116766770D01*
X131833212Y-116675682D01*
X131845106Y-116665524D01*
X131845107Y-116665523D01*
X131850885Y-116660588D01*
X131862355Y-116644627D01*
X131941861Y-116533983D01*
X131941862Y-116533982D01*
X131946293Y-116527815D01*
X132007275Y-116376116D01*
X132030312Y-116214250D01*
X132030461Y-116200000D01*
X132026223Y-116164974D01*
X132022465Y-116133925D01*
X132010819Y-116037687D01*
X131953027Y-115884745D01*
X131948726Y-115878487D01*
X131864723Y-115756262D01*
X131864722Y-115756261D01*
X131860421Y-115750003D01*
X131840908Y-115732617D01*
X131760526Y-115661000D01*
X131738348Y-115641240D01*
X131715820Y-115629312D01*
X131600566Y-115568288D01*
X131600564Y-115568287D01*
X131593855Y-115564735D01*
X131586489Y-115562885D01*
X131579398Y-115560163D01*
X131579929Y-115558778D01*
X131529321Y-115530085D01*
X127855461Y-111856226D01*
X127826690Y-111811669D01*
X127802525Y-111747719D01*
X127799841Y-111740616D01*
X127745697Y-111661836D01*
X127711537Y-111612133D01*
X127711536Y-111612132D01*
X127707235Y-111605874D01*
X127701564Y-111600821D01*
X127590834Y-111502164D01*
X127590831Y-111502162D01*
X127585162Y-111497111D01*
X127550437Y-111478725D01*
X127520301Y-111456466D01*
X125066808Y-109002973D01*
X131474347Y-109002973D01*
X131481644Y-109069067D01*
X131491387Y-109157310D01*
X131492289Y-109165483D01*
X131494898Y-109172614D01*
X131494899Y-109172616D01*
X131527924Y-109262860D01*
X131548476Y-109319022D01*
X131552711Y-109325325D01*
X131552715Y-109325332D01*
X131601055Y-109397269D01*
X131617833Y-109433663D01*
X131618399Y-109435690D01*
X131619565Y-109444203D01*
X131622977Y-109452087D01*
X131625536Y-109458001D01*
X131632570Y-109479270D01*
X131636003Y-109493907D01*
X131640140Y-109501432D01*
X131640141Y-109501435D01*
X131656966Y-109532039D01*
X131662182Y-109542684D01*
X131679466Y-109582626D01*
X131688929Y-109594312D01*
X131701416Y-109612896D01*
X131708664Y-109626079D01*
X131715668Y-109634193D01*
X131740204Y-109658729D01*
X131749029Y-109668530D01*
X131768977Y-109693163D01*
X131774385Y-109699841D01*
X131781383Y-109704814D01*
X131781388Y-109704819D01*
X131789719Y-109710739D01*
X131805825Y-109724350D01*
X133372195Y-111290720D01*
X133406221Y-111353032D01*
X133409100Y-111379815D01*
X133409100Y-112166805D01*
X133386186Y-112239257D01*
X133359907Y-112276648D01*
X133300517Y-112428976D01*
X133299526Y-112436503D01*
X133287686Y-112526437D01*
X133279176Y-112591074D01*
X133288147Y-112672329D01*
X133290151Y-112690476D01*
X133297118Y-112753584D01*
X133299727Y-112760715D01*
X133299728Y-112760717D01*
X133304705Y-112774316D01*
X133353305Y-112907123D01*
X133357541Y-112913426D01*
X133357541Y-112913427D01*
X133440260Y-113036527D01*
X133440263Y-113036530D01*
X133444494Y-113042827D01*
X133565422Y-113152863D01*
X133594010Y-113168385D01*
X133702429Y-113227252D01*
X133702431Y-113227253D01*
X133709106Y-113230877D01*
X133716455Y-113232805D01*
X133859901Y-113270437D01*
X133859903Y-113270437D01*
X133867251Y-113272365D01*
X133950532Y-113273673D01*
X134023129Y-113274814D01*
X134023132Y-113274814D01*
X134030728Y-113274933D01*
X134038133Y-113273237D01*
X134038134Y-113273237D01*
X134182697Y-113240128D01*
X134190098Y-113238433D01*
X134336161Y-113164970D01*
X134460485Y-113058788D01*
X134471955Y-113042827D01*
X134551461Y-112932183D01*
X134551462Y-112932182D01*
X134555893Y-112926015D01*
X134616875Y-112774316D01*
X134639912Y-112612450D01*
X134640061Y-112598200D01*
X134638288Y-112583543D01*
X134621331Y-112443427D01*
X134620419Y-112435887D01*
X134562627Y-112282945D01*
X134532260Y-112238761D01*
X134510100Y-112167394D01*
X134510100Y-111114593D01*
X134510211Y-111109317D01*
X134512450Y-111055891D01*
X134512810Y-111047306D01*
X134510848Y-111038941D01*
X134502873Y-111004938D01*
X134500710Y-110993267D01*
X134495972Y-110958681D01*
X134494806Y-110950168D01*
X134488835Y-110936370D01*
X134481801Y-110915101D01*
X134480329Y-110908825D01*
X134478368Y-110900464D01*
X134474231Y-110892939D01*
X134474230Y-110892936D01*
X134457405Y-110862332D01*
X134452189Y-110851687D01*
X134434905Y-110811745D01*
X134425442Y-110800059D01*
X134412954Y-110781474D01*
X134405707Y-110768292D01*
X134398703Y-110760178D01*
X134374167Y-110735642D01*
X134365342Y-110725841D01*
X134345394Y-110701208D01*
X134345393Y-110701207D01*
X134339986Y-110694530D01*
X134332988Y-110689557D01*
X134332983Y-110689552D01*
X134324652Y-110683632D01*
X134308546Y-110670021D01*
X132858146Y-109219622D01*
X132824121Y-109157310D01*
X132822498Y-109112773D01*
X132825016Y-109095084D01*
X132835083Y-109024349D01*
X132835232Y-109010099D01*
X132834650Y-109005284D01*
X132821804Y-108899139D01*
X132815590Y-108847786D01*
X132757798Y-108694844D01*
X132695326Y-108603947D01*
X132669494Y-108566361D01*
X132669493Y-108566360D01*
X132665192Y-108560102D01*
X132639883Y-108537552D01*
X132593184Y-108495945D01*
X132543119Y-108451339D01*
X132536409Y-108447786D01*
X132405337Y-108378387D01*
X132405335Y-108378386D01*
X132398626Y-108374834D01*
X132335520Y-108358983D01*
X132247426Y-108336855D01*
X132247422Y-108336855D01*
X132240055Y-108335004D01*
X132232456Y-108334964D01*
X132232454Y-108334964D01*
X132164424Y-108334608D01*
X132076561Y-108334148D01*
X132069181Y-108335920D01*
X132069179Y-108335920D01*
X131924960Y-108370543D01*
X131924956Y-108370544D01*
X131917581Y-108372315D01*
X131772295Y-108447303D01*
X131766573Y-108452295D01*
X131766571Y-108452296D01*
X131654815Y-108549787D01*
X131654812Y-108549790D01*
X131649090Y-108554782D01*
X131555078Y-108688547D01*
X131495688Y-108840875D01*
X131494697Y-108848402D01*
X131478065Y-108974734D01*
X131474347Y-109002973D01*
X125066808Y-109002973D01*
X124665604Y-108601769D01*
X124631578Y-108539457D01*
X124628699Y-108512673D01*
X124628700Y-108437554D01*
X124628700Y-108342529D01*
X124637792Y-108295534D01*
X124682643Y-108183962D01*
X124682644Y-108183959D01*
X124685475Y-108176916D01*
X124708512Y-108015050D01*
X124708661Y-108000800D01*
X124706888Y-107986143D01*
X124693742Y-107877518D01*
X124689019Y-107838487D01*
X124631227Y-107685545D01*
X124538621Y-107550803D01*
X124416548Y-107442040D01*
X124409838Y-107438487D01*
X124278766Y-107369088D01*
X124278764Y-107369087D01*
X124272055Y-107365535D01*
X124220985Y-107352707D01*
X124120855Y-107327556D01*
X124120851Y-107327556D01*
X124113484Y-107325705D01*
X124105885Y-107325665D01*
X124105883Y-107325665D01*
X124037853Y-107325309D01*
X123949990Y-107324849D01*
X123942610Y-107326621D01*
X123942608Y-107326621D01*
X123798389Y-107361244D01*
X123798385Y-107361245D01*
X123791010Y-107363016D01*
X123645724Y-107438004D01*
X123640002Y-107442996D01*
X123640000Y-107442997D01*
X123528244Y-107540488D01*
X123528241Y-107540491D01*
X123522519Y-107545483D01*
X123428507Y-107679248D01*
X123369117Y-107831576D01*
X123368126Y-107839103D01*
X123361786Y-107887262D01*
X123347776Y-107993674D01*
X105034500Y-107993674D01*
X105034500Y-106317274D01*
X126776776Y-106317274D01*
X126794718Y-106479784D01*
X126850905Y-106633323D01*
X126855141Y-106639626D01*
X126855141Y-106639627D01*
X126937860Y-106762727D01*
X126937863Y-106762730D01*
X126942094Y-106769027D01*
X127063022Y-106879063D01*
X127088693Y-106893001D01*
X127200029Y-106953452D01*
X127200031Y-106953453D01*
X127206706Y-106957077D01*
X127214055Y-106959005D01*
X127357501Y-106996637D01*
X127357503Y-106996637D01*
X127364851Y-106998565D01*
X127448132Y-106999873D01*
X127520729Y-107001014D01*
X127520732Y-107001014D01*
X127528328Y-107001133D01*
X127535733Y-106999437D01*
X127535734Y-106999437D01*
X127680297Y-106966328D01*
X127687698Y-106964633D01*
X127833761Y-106891170D01*
X127834682Y-106893001D01*
X127894642Y-106874900D01*
X128853385Y-106874900D01*
X128921506Y-106894902D01*
X128942480Y-106911805D01*
X130272586Y-108241910D01*
X130276239Y-108245719D01*
X130318267Y-108291424D01*
X130355270Y-108314367D01*
X130365020Y-108321068D01*
X130399685Y-108347380D01*
X130413663Y-108352914D01*
X130433667Y-108362975D01*
X130446454Y-108370903D01*
X130454705Y-108373300D01*
X130454707Y-108373301D01*
X130488240Y-108383043D01*
X130499470Y-108386888D01*
X130539921Y-108402904D01*
X130548463Y-108403802D01*
X130550678Y-108404346D01*
X130582865Y-108419082D01*
X130583490Y-108417931D01*
X130720497Y-108492320D01*
X130720499Y-108492321D01*
X130727174Y-108495945D01*
X130734523Y-108497873D01*
X130877969Y-108535505D01*
X130877971Y-108535505D01*
X130885319Y-108537433D01*
X130968600Y-108538741D01*
X131041197Y-108539882D01*
X131041200Y-108539882D01*
X131048796Y-108540001D01*
X131056201Y-108538305D01*
X131056202Y-108538305D01*
X131200765Y-108505196D01*
X131208166Y-108503501D01*
X131354229Y-108430038D01*
X131439684Y-108357053D01*
X131472774Y-108328792D01*
X131472775Y-108328791D01*
X131478553Y-108323856D01*
X131483131Y-108317486D01*
X131569529Y-108197251D01*
X131569530Y-108197250D01*
X131573961Y-108191083D01*
X131634943Y-108039384D01*
X131657980Y-107877518D01*
X131658129Y-107863268D01*
X131638487Y-107700955D01*
X131580695Y-107548013D01*
X131575523Y-107540488D01*
X131492391Y-107419530D01*
X131492390Y-107419529D01*
X131488089Y-107413271D01*
X131366016Y-107304508D01*
X131359306Y-107300955D01*
X131228234Y-107231556D01*
X131228232Y-107231555D01*
X131221523Y-107228003D01*
X131155439Y-107211404D01*
X131070323Y-107190024D01*
X131070319Y-107190024D01*
X131062952Y-107188173D01*
X131055353Y-107188133D01*
X131055351Y-107188133D01*
X130987321Y-107187777D01*
X130899458Y-107187317D01*
X130867743Y-107194931D01*
X130796835Y-107191385D01*
X130749232Y-107161508D01*
X129533482Y-105945758D01*
X129529829Y-105941949D01*
X129493615Y-105902567D01*
X129487801Y-105896244D01*
X129450798Y-105873301D01*
X129441048Y-105866600D01*
X129406383Y-105840288D01*
X129392404Y-105834754D01*
X129372401Y-105824693D01*
X129359614Y-105816765D01*
X129351363Y-105814368D01*
X129351361Y-105814367D01*
X129317828Y-105804625D01*
X129306595Y-105800779D01*
X129266147Y-105784764D01*
X129257606Y-105783866D01*
X129257605Y-105783866D01*
X129251192Y-105783192D01*
X129229217Y-105778880D01*
X129214775Y-105774685D01*
X129207292Y-105774135D01*
X129206392Y-105774069D01*
X129206381Y-105774069D01*
X129204085Y-105773900D01*
X129169383Y-105773900D01*
X129156213Y-105773210D01*
X129145984Y-105772135D01*
X129116146Y-105768999D01*
X129107681Y-105770431D01*
X129107672Y-105770431D01*
X129097600Y-105772135D01*
X129076587Y-105773900D01*
X127892448Y-105773900D01*
X127833489Y-105759255D01*
X127707766Y-105692688D01*
X127707764Y-105692687D01*
X127701055Y-105689135D01*
X127649985Y-105676307D01*
X127549855Y-105651156D01*
X127549851Y-105651156D01*
X127542484Y-105649305D01*
X127534885Y-105649265D01*
X127534883Y-105649265D01*
X127466853Y-105648909D01*
X127378990Y-105648449D01*
X127371610Y-105650221D01*
X127371608Y-105650221D01*
X127227389Y-105684844D01*
X127227385Y-105684845D01*
X127220010Y-105686616D01*
X127074724Y-105761604D01*
X127069002Y-105766596D01*
X127069000Y-105766597D01*
X126957244Y-105864088D01*
X126957241Y-105864091D01*
X126951519Y-105869083D01*
X126857507Y-106002848D01*
X126798117Y-106155176D01*
X126776776Y-106317274D01*
X105034500Y-106317274D01*
X105034500Y-89944077D01*
X109995065Y-89944077D01*
X110008722Y-90335157D01*
X110060477Y-90723038D01*
X110149834Y-91104017D01*
X110150823Y-91106923D01*
X110150825Y-91106929D01*
X110274950Y-91471543D01*
X110274955Y-91471555D01*
X110275943Y-91474458D01*
X110437598Y-91830826D01*
X110633258Y-92169717D01*
X110635047Y-92172216D01*
X110635049Y-92172219D01*
X110732831Y-92308799D01*
X110861053Y-92487899D01*
X110863080Y-92490214D01*
X110863082Y-92490217D01*
X111103307Y-92764624D01*
X111118810Y-92782333D01*
X111404069Y-93050208D01*
X111714107Y-93288969D01*
X111716710Y-93290596D01*
X111716715Y-93290599D01*
X111797172Y-93340874D01*
X112045964Y-93496337D01*
X112396472Y-93670331D01*
X112762287Y-93809290D01*
X113139915Y-93911890D01*
X113142958Y-93912405D01*
X113142964Y-93912406D01*
X113522713Y-93976636D01*
X113522720Y-93976637D01*
X113525754Y-93977150D01*
X113528825Y-93977365D01*
X113528827Y-93977365D01*
X113913053Y-94004233D01*
X113913061Y-94004233D01*
X113916119Y-94004447D01*
X114169704Y-93997363D01*
X114304211Y-93993606D01*
X114304214Y-93993606D01*
X114307285Y-93993520D01*
X114310338Y-93993134D01*
X114310342Y-93993134D01*
X114496145Y-93969662D01*
X114695517Y-93944475D01*
X114698521Y-93943793D01*
X114698524Y-93943792D01*
X115074115Y-93858460D01*
X115074121Y-93858458D01*
X115077111Y-93857779D01*
X115201691Y-93816337D01*
X115445500Y-93735233D01*
X115445506Y-93735231D01*
X115448424Y-93734260D01*
X115589551Y-93671426D01*
X115803111Y-93576343D01*
X115803117Y-93576340D01*
X115805911Y-93575096D01*
X115812616Y-93571287D01*
X116143492Y-93383324D01*
X116143498Y-93383320D01*
X116146160Y-93381808D01*
X116465924Y-93156239D01*
X116762150Y-92900544D01*
X116764271Y-92898317D01*
X116764277Y-92898311D01*
X117029894Y-92619385D01*
X117032011Y-92617162D01*
X117034611Y-92613835D01*
X117271021Y-92311244D01*
X117271023Y-92311241D01*
X117272931Y-92308799D01*
X117274587Y-92306189D01*
X117274593Y-92306181D01*
X117480957Y-91981003D01*
X117480959Y-91981000D01*
X117482610Y-91978398D01*
X117659046Y-91629112D01*
X117800557Y-91264277D01*
X117905790Y-90887374D01*
X117973742Y-90502000D01*
X117986580Y-90335157D01*
X118003613Y-90113789D01*
X118003613Y-90113778D01*
X118003763Y-90111835D01*
X118005325Y-90000000D01*
X118004296Y-89978947D01*
X117986359Y-89612222D01*
X117986209Y-89609149D01*
X117929044Y-89222028D01*
X117834376Y-88842334D01*
X117703107Y-88473689D01*
X117536492Y-88119614D01*
X117507167Y-88070420D01*
X117337700Y-87786138D01*
X117336120Y-87783487D01*
X117103905Y-87468517D01*
X116842061Y-87177711D01*
X116553090Y-86913844D01*
X116239749Y-86679435D01*
X116186075Y-86646929D01*
X115907658Y-86478313D01*
X115907649Y-86478308D01*
X115905030Y-86476722D01*
X115552126Y-86307638D01*
X115549237Y-86306586D01*
X115549231Y-86306584D01*
X115187306Y-86174855D01*
X115187303Y-86174854D01*
X115184407Y-86173800D01*
X114907326Y-86102658D01*
X114808366Y-86077249D01*
X114808363Y-86077248D01*
X114805382Y-86076483D01*
X114418670Y-86016617D01*
X114415613Y-86016446D01*
X114415612Y-86016446D01*
X114385120Y-86014741D01*
X114027962Y-85994773D01*
X114024883Y-85994902D01*
X114024880Y-85994902D01*
X113768770Y-86005636D01*
X113636987Y-86011159D01*
X113633943Y-86011587D01*
X113633941Y-86011587D01*
X113599368Y-86016446D01*
X113249477Y-86065620D01*
X112869131Y-86157636D01*
X112499579Y-86286327D01*
X112496781Y-86287620D01*
X112147146Y-86449174D01*
X112147136Y-86449179D01*
X112144349Y-86450467D01*
X112035829Y-86514135D01*
X111809486Y-86646929D01*
X111809481Y-86646932D01*
X111806831Y-86648487D01*
X111766433Y-86677838D01*
X111492730Y-86876694D01*
X111492721Y-86876701D01*
X111490248Y-86878498D01*
X111487958Y-86880531D01*
X111487952Y-86880536D01*
X111199924Y-87136260D01*
X111197621Y-87138305D01*
X110931743Y-87425427D01*
X110695152Y-87737124D01*
X110490107Y-88070420D01*
X110318564Y-88422135D01*
X110182162Y-88788910D01*
X110082201Y-89167246D01*
X110019637Y-89553531D01*
X109995065Y-89944077D01*
X105034500Y-89944077D01*
X105034500Y-82059454D01*
X125682599Y-82059454D01*
X125684031Y-82067919D01*
X125684031Y-82067928D01*
X125685735Y-82078000D01*
X125687500Y-82099013D01*
X125687500Y-96759007D01*
X125687389Y-96764283D01*
X125684790Y-96826294D01*
X125686752Y-96834659D01*
X125694727Y-96868662D01*
X125696890Y-96880333D01*
X125702794Y-96923432D01*
X125706206Y-96931316D01*
X125706206Y-96931317D01*
X125708765Y-96937230D01*
X125715799Y-96958499D01*
X125719232Y-96973136D01*
X125723369Y-96980661D01*
X125723370Y-96980664D01*
X125740195Y-97011268D01*
X125745411Y-97021913D01*
X125762695Y-97061855D01*
X125772158Y-97073541D01*
X125784645Y-97092125D01*
X125791893Y-97105308D01*
X125798897Y-97113422D01*
X125823433Y-97137958D01*
X125832258Y-97147759D01*
X125852206Y-97172392D01*
X125857614Y-97179070D01*
X125864612Y-97184043D01*
X125864617Y-97184048D01*
X125872948Y-97189968D01*
X125889054Y-97203579D01*
X142922595Y-114237120D01*
X142956621Y-114299432D01*
X142959500Y-114326215D01*
X142959500Y-115416785D01*
X142939498Y-115484906D01*
X142922595Y-115505880D01*
X140751321Y-117677155D01*
X138627134Y-119801342D01*
X138564822Y-119835368D01*
X138494007Y-119830303D01*
X138448944Y-119801342D01*
X138356916Y-119709314D01*
X138353986Y-119707007D01*
X138353980Y-119707002D01*
X138343612Y-119698840D01*
X138336185Y-119692993D01*
X138306066Y-119681401D01*
X138242564Y-119656961D01*
X138242562Y-119656961D01*
X138231710Y-119652784D01*
X138220079Y-119652794D01*
X138175982Y-119652832D01*
X138119765Y-119652881D01*
X138108920Y-119657077D01*
X138108918Y-119657077D01*
X138024194Y-119689854D01*
X138024192Y-119689855D01*
X138015360Y-119693272D01*
X138007932Y-119699149D01*
X138007930Y-119699150D01*
X137998378Y-119706708D01*
X137995084Y-119709314D01*
X136854314Y-120850084D01*
X136852007Y-120853014D01*
X136852002Y-120853020D01*
X136848140Y-120857926D01*
X136837993Y-120870815D01*
X136834598Y-120879636D01*
X136802161Y-120963918D01*
X136797784Y-120975290D01*
X136797881Y-121087235D01*
X136838272Y-121191640D01*
X136854314Y-121211916D01*
X137995084Y-122352686D01*
X137998014Y-122354993D01*
X137998020Y-122354998D01*
X138007994Y-122362850D01*
X138015815Y-122369007D01*
X138024636Y-122372402D01*
X138109436Y-122405039D01*
X138109438Y-122405039D01*
X138120290Y-122409216D01*
X138131921Y-122409206D01*
X138176018Y-122409168D01*
X138232235Y-122409119D01*
X138243080Y-122404923D01*
X138243082Y-122404923D01*
X138327806Y-122372146D01*
X138327808Y-122372145D01*
X138336640Y-122368728D01*
X138344068Y-122362851D01*
X138344070Y-122362850D01*
X138354038Y-122354963D01*
X138356916Y-122352686D01*
X139497686Y-121211916D01*
X139499993Y-121208986D01*
X139499998Y-121208980D01*
X139508160Y-121198612D01*
X139514007Y-121191185D01*
X139517402Y-121182364D01*
X139550039Y-121097564D01*
X139550039Y-121097562D01*
X139554216Y-121086710D01*
X139554119Y-120974765D01*
X139547549Y-120957782D01*
X139517146Y-120879194D01*
X139517145Y-120879192D01*
X139513728Y-120870360D01*
X139503891Y-120857926D01*
X139499963Y-120852962D01*
X139497686Y-120850084D01*
X139405658Y-120758056D01*
X139371632Y-120695744D01*
X139376697Y-120624929D01*
X139405658Y-120579866D01*
X141882650Y-118102874D01*
X159339576Y-118102874D01*
X159357518Y-118265384D01*
X159360127Y-118272515D01*
X159360128Y-118272517D01*
X159403609Y-118391333D01*
X159413705Y-118418923D01*
X159417941Y-118425226D01*
X159417941Y-118425227D01*
X159500660Y-118548327D01*
X159500663Y-118548330D01*
X159504894Y-118554627D01*
X159572306Y-118615967D01*
X159606499Y-118647080D01*
X159625822Y-118664663D01*
X159632497Y-118668287D01*
X159762829Y-118739052D01*
X159762831Y-118739053D01*
X159769506Y-118742677D01*
X159878371Y-118771237D01*
X159935492Y-118804017D01*
X160636130Y-119504654D01*
X160639783Y-119508464D01*
X160681799Y-119554156D01*
X160718802Y-119577099D01*
X160728552Y-119583800D01*
X160763217Y-119610112D01*
X160777195Y-119615646D01*
X160797199Y-119625707D01*
X160809986Y-119633635D01*
X160818237Y-119636032D01*
X160818239Y-119636033D01*
X160851772Y-119645775D01*
X160863002Y-119649620D01*
X160903453Y-119665636D01*
X160911994Y-119666534D01*
X160911995Y-119666534D01*
X160918408Y-119667208D01*
X160940383Y-119671520D01*
X160954825Y-119675715D01*
X160962308Y-119676264D01*
X160963208Y-119676331D01*
X160963219Y-119676331D01*
X160965515Y-119676500D01*
X161000217Y-119676500D01*
X161013387Y-119677190D01*
X161053454Y-119681401D01*
X161061919Y-119679969D01*
X161061928Y-119679969D01*
X161072000Y-119678265D01*
X161093013Y-119676500D01*
X161263785Y-119676500D01*
X161331906Y-119696502D01*
X161352880Y-119713405D01*
X161652130Y-120012655D01*
X161655783Y-120016464D01*
X161697799Y-120062156D01*
X161734797Y-120085095D01*
X161744548Y-120091797D01*
X161779216Y-120118112D01*
X161793201Y-120123649D01*
X161813209Y-120133713D01*
X161825986Y-120141635D01*
X161864306Y-120152768D01*
X161867772Y-120153775D01*
X161879001Y-120157620D01*
X161911465Y-120170473D01*
X161911467Y-120170473D01*
X161919452Y-120173635D01*
X161934407Y-120175207D01*
X161956376Y-120179518D01*
X161964482Y-120181873D01*
X161964488Y-120181874D01*
X161970825Y-120183715D01*
X161978219Y-120184258D01*
X161979208Y-120184331D01*
X161979219Y-120184331D01*
X161981515Y-120184500D01*
X162016219Y-120184500D01*
X162029390Y-120185190D01*
X162069454Y-120189401D01*
X162077919Y-120187969D01*
X162077928Y-120187969D01*
X162088000Y-120186265D01*
X162109013Y-120184500D01*
X163434007Y-120184500D01*
X163439284Y-120184611D01*
X163501294Y-120187210D01*
X163512848Y-120184500D01*
X163543662Y-120177273D01*
X163555333Y-120175110D01*
X163570229Y-120173069D01*
X163598432Y-120169206D01*
X163612230Y-120163235D01*
X163633499Y-120156201D01*
X163639775Y-120154729D01*
X163648136Y-120152768D01*
X163655661Y-120148631D01*
X163655664Y-120148630D01*
X163686268Y-120131805D01*
X163696913Y-120126589D01*
X163736855Y-120109305D01*
X163748541Y-120099842D01*
X163767126Y-120087354D01*
X163780308Y-120080107D01*
X163788422Y-120073103D01*
X163812958Y-120048567D01*
X163822759Y-120039742D01*
X163847392Y-120019794D01*
X163847393Y-120019793D01*
X163854070Y-120014386D01*
X163859043Y-120007388D01*
X163859048Y-120007383D01*
X163864968Y-119999052D01*
X163878579Y-119982946D01*
X164169268Y-119692257D01*
X164230234Y-119658532D01*
X164307097Y-119640928D01*
X164314498Y-119639233D01*
X164460561Y-119565770D01*
X164564730Y-119476802D01*
X164579106Y-119464524D01*
X164579107Y-119464523D01*
X164584885Y-119459588D01*
X164680293Y-119326815D01*
X164741275Y-119175116D01*
X164764312Y-119013250D01*
X164764461Y-118999000D01*
X164744819Y-118836687D01*
X164687027Y-118683745D01*
X164656086Y-118638726D01*
X164598723Y-118555262D01*
X164598722Y-118555261D01*
X164594421Y-118549003D01*
X164582741Y-118538596D01*
X164478019Y-118445293D01*
X164472348Y-118440240D01*
X164465638Y-118436687D01*
X164334566Y-118367288D01*
X164334564Y-118367287D01*
X164327855Y-118363735D01*
X164276785Y-118350907D01*
X164176655Y-118325756D01*
X164176651Y-118325756D01*
X164169284Y-118323905D01*
X164161685Y-118323865D01*
X164161683Y-118323865D01*
X164093653Y-118323509D01*
X164005790Y-118323049D01*
X163998410Y-118324821D01*
X163998408Y-118324821D01*
X163854189Y-118359444D01*
X163854185Y-118359445D01*
X163846810Y-118361216D01*
X163701524Y-118436204D01*
X163695802Y-118441196D01*
X163695800Y-118441197D01*
X163584044Y-118538688D01*
X163584041Y-118538691D01*
X163578319Y-118543683D01*
X163484307Y-118677448D01*
X163424917Y-118829776D01*
X163423926Y-118837303D01*
X163422952Y-118844701D01*
X163394229Y-118909628D01*
X163387126Y-118917349D01*
X163257881Y-119046595D01*
X163195569Y-119080620D01*
X163168785Y-119083500D01*
X162332214Y-119083500D01*
X162264093Y-119063498D01*
X162243119Y-119046595D01*
X161943882Y-118747358D01*
X161940229Y-118743549D01*
X161904015Y-118704167D01*
X161898201Y-118697844D01*
X161861198Y-118674901D01*
X161851448Y-118668200D01*
X161816783Y-118641888D01*
X161802804Y-118636354D01*
X161782801Y-118626293D01*
X161770014Y-118618365D01*
X161761763Y-118615968D01*
X161761761Y-118615967D01*
X161728228Y-118606225D01*
X161716995Y-118602379D01*
X161676547Y-118586364D01*
X161668006Y-118585466D01*
X161668005Y-118585466D01*
X161661592Y-118584792D01*
X161639617Y-118580480D01*
X161625175Y-118576285D01*
X161617692Y-118575736D01*
X161616792Y-118575669D01*
X161616781Y-118575669D01*
X161614485Y-118575500D01*
X161579783Y-118575500D01*
X161566613Y-118574810D01*
X161556384Y-118573735D01*
X161526546Y-118570599D01*
X161518081Y-118572031D01*
X161518072Y-118572031D01*
X161508000Y-118573735D01*
X161486987Y-118575500D01*
X161316216Y-118575500D01*
X161248095Y-118555498D01*
X161227121Y-118538596D01*
X160717726Y-118029202D01*
X160683701Y-117966889D01*
X160681733Y-117955237D01*
X160681732Y-117955232D01*
X160680819Y-117947687D01*
X160623027Y-117794745D01*
X160614427Y-117782232D01*
X160534723Y-117666262D01*
X160534722Y-117666261D01*
X160530421Y-117660003D01*
X160408348Y-117551240D01*
X160401638Y-117547687D01*
X160270566Y-117478288D01*
X160270564Y-117478287D01*
X160263855Y-117474735D01*
X160199061Y-117458460D01*
X160112655Y-117436756D01*
X160112651Y-117436756D01*
X160105284Y-117434905D01*
X160097685Y-117434865D01*
X160097683Y-117434865D01*
X160029653Y-117434509D01*
X159941790Y-117434049D01*
X159934410Y-117435821D01*
X159934408Y-117435821D01*
X159790189Y-117470444D01*
X159790185Y-117470445D01*
X159782810Y-117472216D01*
X159637524Y-117547204D01*
X159631802Y-117552196D01*
X159631800Y-117552197D01*
X159520044Y-117649688D01*
X159520041Y-117649691D01*
X159514319Y-117654683D01*
X159420307Y-117788448D01*
X159360917Y-117940776D01*
X159339576Y-118102874D01*
X141882650Y-118102874D01*
X143888642Y-116096882D01*
X143892451Y-116093229D01*
X143931833Y-116057015D01*
X143938156Y-116051201D01*
X143957190Y-116020503D01*
X143961087Y-116014217D01*
X143967801Y-116004447D01*
X143994112Y-115969784D01*
X143999649Y-115955799D01*
X144009713Y-115935791D01*
X144013108Y-115930315D01*
X144017635Y-115923014D01*
X144020142Y-115914387D01*
X144029773Y-115881235D01*
X144033613Y-115870015D01*
X144049636Y-115829547D01*
X144051208Y-115814592D01*
X144055520Y-115792617D01*
X144059715Y-115778175D01*
X144060500Y-115767485D01*
X144060500Y-115732783D01*
X144061190Y-115719613D01*
X144064503Y-115688088D01*
X144065401Y-115679546D01*
X144063969Y-115671081D01*
X144063969Y-115671072D01*
X144062265Y-115661000D01*
X144060500Y-115639987D01*
X144060500Y-115181874D01*
X151592576Y-115181874D01*
X151595767Y-115210774D01*
X151608958Y-115330250D01*
X151610518Y-115344384D01*
X151613127Y-115351515D01*
X151613128Y-115351517D01*
X151658764Y-115476222D01*
X151666705Y-115497923D01*
X151670941Y-115504226D01*
X151670941Y-115504227D01*
X151753660Y-115627327D01*
X151753663Y-115627330D01*
X151757894Y-115633627D01*
X151783706Y-115657114D01*
X151872390Y-115737810D01*
X151878822Y-115743663D01*
X151904493Y-115757601D01*
X152015829Y-115818052D01*
X152015831Y-115818053D01*
X152022506Y-115821677D01*
X152029855Y-115823605D01*
X152173301Y-115861237D01*
X152173303Y-115861237D01*
X152180651Y-115863165D01*
X152263932Y-115864473D01*
X152336529Y-115865614D01*
X152336532Y-115865614D01*
X152344128Y-115865733D01*
X152351533Y-115864037D01*
X152351534Y-115864037D01*
X152496097Y-115830928D01*
X152503498Y-115829233D01*
X152649561Y-115755770D01*
X152650482Y-115757601D01*
X152710442Y-115739500D01*
X159940929Y-115739500D01*
X160009050Y-115759502D01*
X160025729Y-115772306D01*
X160125713Y-115863284D01*
X160133822Y-115870663D01*
X160159758Y-115884745D01*
X160270829Y-115945052D01*
X160270831Y-115945053D01*
X160277506Y-115948677D01*
X160284855Y-115950605D01*
X160428301Y-115988237D01*
X160428303Y-115988237D01*
X160435651Y-115990165D01*
X160518932Y-115991473D01*
X160591529Y-115992614D01*
X160591532Y-115992614D01*
X160599128Y-115992733D01*
X160606533Y-115991037D01*
X160606534Y-115991037D01*
X160751097Y-115957928D01*
X160758498Y-115956233D01*
X160904561Y-115882770D01*
X161028885Y-115776588D01*
X161033769Y-115769792D01*
X161119861Y-115649983D01*
X161119862Y-115649982D01*
X161124293Y-115643815D01*
X161185275Y-115492116D01*
X161208312Y-115330250D01*
X161208461Y-115316000D01*
X161205402Y-115290716D01*
X161193175Y-115189683D01*
X161188819Y-115153687D01*
X161131027Y-115000745D01*
X161112442Y-114973704D01*
X161042723Y-114872262D01*
X161042722Y-114872261D01*
X161038421Y-114866003D01*
X160916348Y-114757240D01*
X160817257Y-114704774D01*
X160778566Y-114684288D01*
X160778564Y-114684287D01*
X160771855Y-114680735D01*
X160693418Y-114661033D01*
X160620654Y-114642756D01*
X160620652Y-114642756D01*
X160613284Y-114640905D01*
X160605686Y-114640865D01*
X160605684Y-114640865D01*
X160509995Y-114640364D01*
X160494421Y-114640283D01*
X160482184Y-114639158D01*
X160482175Y-114639285D01*
X160473792Y-114638669D01*
X160473781Y-114638669D01*
X160471485Y-114638500D01*
X152708248Y-114638500D01*
X152649289Y-114623855D01*
X152523566Y-114557288D01*
X152523564Y-114557287D01*
X152516855Y-114553735D01*
X152465785Y-114540907D01*
X152365655Y-114515756D01*
X152365651Y-114515756D01*
X152358284Y-114513905D01*
X152350685Y-114513865D01*
X152350683Y-114513865D01*
X152282653Y-114513509D01*
X152194790Y-114513049D01*
X152187410Y-114514821D01*
X152187408Y-114514821D01*
X152043189Y-114549444D01*
X152043185Y-114549445D01*
X152035810Y-114551216D01*
X151890524Y-114626204D01*
X151884802Y-114631196D01*
X151884800Y-114631197D01*
X151773044Y-114728688D01*
X151773041Y-114728691D01*
X151767319Y-114733683D01*
X151673307Y-114867448D01*
X151613917Y-115019776D01*
X151612926Y-115027303D01*
X151604111Y-115094262D01*
X151592576Y-115181874D01*
X144060500Y-115181874D01*
X144060500Y-114060993D01*
X144060611Y-114055717D01*
X144062850Y-114002291D01*
X144063210Y-113993706D01*
X144059657Y-113978559D01*
X144053273Y-113951338D01*
X144051110Y-113939667D01*
X144046372Y-113905081D01*
X144045206Y-113896568D01*
X144039235Y-113882770D01*
X144032201Y-113861501D01*
X144030729Y-113855225D01*
X144028768Y-113846864D01*
X144024631Y-113839339D01*
X144024630Y-113839336D01*
X144007805Y-113808732D01*
X144002589Y-113798087D01*
X143985305Y-113758145D01*
X143975842Y-113746459D01*
X143963354Y-113727874D01*
X143959290Y-113720482D01*
X143956107Y-113714692D01*
X143949103Y-113706578D01*
X143924567Y-113682042D01*
X143915742Y-113672241D01*
X143895794Y-113647608D01*
X143895793Y-113647607D01*
X143890386Y-113640930D01*
X143883388Y-113635957D01*
X143883383Y-113635952D01*
X143875052Y-113630032D01*
X143858946Y-113616421D01*
X140478525Y-110236000D01*
X162682396Y-110236000D01*
X162702779Y-110494994D01*
X162703933Y-110499801D01*
X162703934Y-110499807D01*
X162716307Y-110551343D01*
X162763427Y-110747610D01*
X162765320Y-110752181D01*
X162765321Y-110752183D01*
X162850856Y-110958681D01*
X162862846Y-110987628D01*
X162998588Y-111209140D01*
X163167311Y-111406689D01*
X163364860Y-111575412D01*
X163586372Y-111711154D01*
X163590942Y-111713047D01*
X163590946Y-111713049D01*
X163657499Y-111740616D01*
X163826390Y-111810573D01*
X163914724Y-111831780D01*
X164074193Y-111870066D01*
X164074199Y-111870067D01*
X164079006Y-111871221D01*
X164169191Y-111878319D01*
X164270690Y-111886307D01*
X164270699Y-111886307D01*
X164273147Y-111886500D01*
X164402853Y-111886500D01*
X164405301Y-111886307D01*
X164405310Y-111886307D01*
X164506809Y-111878319D01*
X164596994Y-111871221D01*
X164601801Y-111870067D01*
X164601807Y-111870066D01*
X164761276Y-111831780D01*
X164849610Y-111810573D01*
X165018501Y-111740616D01*
X165085054Y-111713049D01*
X165085058Y-111713047D01*
X165089628Y-111711154D01*
X165311140Y-111575412D01*
X165508689Y-111406689D01*
X165677412Y-111209140D01*
X165813154Y-110987628D01*
X165825145Y-110958681D01*
X165910679Y-110752183D01*
X165910680Y-110752181D01*
X165912573Y-110747610D01*
X165959693Y-110551343D01*
X165972066Y-110499807D01*
X165972067Y-110499801D01*
X165973221Y-110494994D01*
X165993604Y-110236000D01*
X165973221Y-109977006D01*
X165972067Y-109972199D01*
X165972066Y-109972193D01*
X165913728Y-109729202D01*
X165912573Y-109724390D01*
X165905001Y-109706109D01*
X165815049Y-109488946D01*
X165815047Y-109488942D01*
X165813154Y-109484372D01*
X165677412Y-109262860D01*
X165508689Y-109065311D01*
X165311140Y-108896588D01*
X165089628Y-108760846D01*
X165085058Y-108758953D01*
X165085054Y-108758951D01*
X164854183Y-108663321D01*
X164854181Y-108663320D01*
X164849610Y-108661427D01*
X164730325Y-108632789D01*
X164601807Y-108601934D01*
X164601801Y-108601933D01*
X164596994Y-108600779D01*
X164503882Y-108593451D01*
X164405310Y-108585693D01*
X164405301Y-108585693D01*
X164402853Y-108585500D01*
X164273147Y-108585500D01*
X164270699Y-108585693D01*
X164270690Y-108585693D01*
X164172118Y-108593451D01*
X164079006Y-108600779D01*
X164074199Y-108601933D01*
X164074193Y-108601934D01*
X163945675Y-108632789D01*
X163826390Y-108661427D01*
X163821819Y-108663320D01*
X163821817Y-108663321D01*
X163590946Y-108758951D01*
X163590942Y-108758953D01*
X163586372Y-108760846D01*
X163364860Y-108896588D01*
X163167311Y-109065311D01*
X162998588Y-109262860D01*
X162862846Y-109484372D01*
X162860953Y-109488942D01*
X162860951Y-109488946D01*
X162770999Y-109706109D01*
X162763427Y-109724390D01*
X162762272Y-109729202D01*
X162703934Y-109972193D01*
X162703933Y-109972199D01*
X162702779Y-109977006D01*
X162682396Y-110236000D01*
X140478525Y-110236000D01*
X126825405Y-96582881D01*
X126791379Y-96520569D01*
X126788500Y-96493786D01*
X126788500Y-92067874D01*
X128224576Y-92067874D01*
X128242518Y-92230384D01*
X128245127Y-92237515D01*
X128245128Y-92237517D01*
X128271214Y-92308799D01*
X128298705Y-92383923D01*
X128302941Y-92390226D01*
X128302941Y-92390227D01*
X128385660Y-92513327D01*
X128385663Y-92513330D01*
X128389894Y-92519627D01*
X128454545Y-92578455D01*
X128499527Y-92619385D01*
X128510822Y-92629663D01*
X128517497Y-92633287D01*
X128647829Y-92704052D01*
X128647831Y-92704053D01*
X128654506Y-92707677D01*
X128661855Y-92709605D01*
X128805301Y-92747237D01*
X128805303Y-92747237D01*
X128812651Y-92749165D01*
X128895932Y-92750473D01*
X128968529Y-92751614D01*
X128968532Y-92751614D01*
X128976128Y-92751733D01*
X128983533Y-92750037D01*
X128983534Y-92750037D01*
X129128097Y-92716928D01*
X129135498Y-92715233D01*
X129187783Y-92688936D01*
X129244398Y-92675500D01*
X132744275Y-92675500D01*
X132812396Y-92695502D01*
X132833370Y-92712405D01*
X138815436Y-98694471D01*
X138822603Y-98702643D01*
X138824592Y-98704632D01*
X138829618Y-98711182D01*
X138836168Y-98716208D01*
X138838157Y-98718197D01*
X138846329Y-98725364D01*
X139682125Y-99561160D01*
X139716151Y-99623472D01*
X139711086Y-99694287D01*
X139682125Y-99739350D01*
X139333217Y-100088258D01*
X139273536Y-100121681D01*
X139158010Y-100149416D01*
X139151264Y-100152898D01*
X139151261Y-100152899D01*
X139019472Y-100220921D01*
X139012724Y-100224404D01*
X139007002Y-100229396D01*
X139007000Y-100229397D01*
X138895244Y-100326888D01*
X138895241Y-100326891D01*
X138889519Y-100331883D01*
X138795507Y-100465648D01*
X138736117Y-100617976D01*
X138714776Y-100780074D01*
X138715610Y-100787624D01*
X138730210Y-100919866D01*
X138732718Y-100942584D01*
X138735327Y-100949715D01*
X138735328Y-100949717D01*
X138765855Y-101033135D01*
X138788905Y-101096123D01*
X138793141Y-101102426D01*
X138793141Y-101102427D01*
X138875860Y-101225527D01*
X138875863Y-101225530D01*
X138880094Y-101231827D01*
X139001022Y-101341863D01*
X139029610Y-101357385D01*
X139138029Y-101416252D01*
X139138031Y-101416253D01*
X139144706Y-101419877D01*
X139152055Y-101421805D01*
X139295501Y-101459437D01*
X139295503Y-101459437D01*
X139302851Y-101461365D01*
X139386132Y-101462673D01*
X139458729Y-101463814D01*
X139458732Y-101463814D01*
X139466328Y-101463933D01*
X139473733Y-101462237D01*
X139473734Y-101462237D01*
X139618297Y-101429128D01*
X139625698Y-101427433D01*
X139771761Y-101353970D01*
X139896085Y-101247788D01*
X139907555Y-101231827D01*
X139987061Y-101121183D01*
X139987062Y-101121182D01*
X139991493Y-101115015D01*
X140052475Y-100963316D01*
X140053545Y-100955797D01*
X140055511Y-100948460D01*
X140058319Y-100949212D01*
X140082136Y-100896860D01*
X140088384Y-100890141D01*
X140460650Y-100517875D01*
X140522962Y-100483849D01*
X140593777Y-100488914D01*
X140638840Y-100517875D01*
X148525666Y-108404701D01*
X148559692Y-108467013D01*
X148561486Y-108477988D01*
X148561684Y-108478834D01*
X148562518Y-108486384D01*
X148565127Y-108493515D01*
X148565128Y-108493517D01*
X148605540Y-108603947D01*
X148618705Y-108639923D01*
X148622941Y-108646226D01*
X148622941Y-108646227D01*
X148705660Y-108769327D01*
X148705663Y-108769330D01*
X148709894Y-108775627D01*
X148830822Y-108885663D01*
X148859410Y-108901185D01*
X148967829Y-108960052D01*
X148967831Y-108960053D01*
X148974506Y-108963677D01*
X148981855Y-108965605D01*
X149125301Y-109003237D01*
X149125303Y-109003237D01*
X149132651Y-109005165D01*
X149215932Y-109006473D01*
X149288529Y-109007614D01*
X149288532Y-109007614D01*
X149296128Y-109007733D01*
X149303533Y-109006037D01*
X149303534Y-109006037D01*
X149448097Y-108972928D01*
X149455498Y-108971233D01*
X149601561Y-108897770D01*
X149690526Y-108821787D01*
X149720106Y-108796524D01*
X149720107Y-108796523D01*
X149725885Y-108791588D01*
X149732470Y-108782425D01*
X149816861Y-108664983D01*
X149816862Y-108664982D01*
X149821293Y-108658815D01*
X149882275Y-108507116D01*
X149905312Y-108345250D01*
X149905461Y-108331000D01*
X149904597Y-108323856D01*
X149894680Y-108241910D01*
X149885819Y-108168687D01*
X149828027Y-108015745D01*
X149817756Y-108000800D01*
X149739723Y-107887262D01*
X149739722Y-107887261D01*
X149735421Y-107881003D01*
X149688394Y-107839103D01*
X149619019Y-107777293D01*
X149613348Y-107772240D01*
X149584025Y-107756714D01*
X149553890Y-107734455D01*
X140193830Y-98374395D01*
X140159804Y-98312083D01*
X140164869Y-98241268D01*
X140193830Y-98196205D01*
X144272709Y-94117326D01*
X144318531Y-94088245D01*
X144324698Y-94086833D01*
X144331481Y-94083421D01*
X144331485Y-94083420D01*
X144397024Y-94050456D01*
X144470761Y-94013370D01*
X144552227Y-93943792D01*
X144589306Y-93912124D01*
X144589307Y-93912123D01*
X144595085Y-93907188D01*
X144630590Y-93857779D01*
X144686061Y-93780583D01*
X144686062Y-93780582D01*
X144690493Y-93774415D01*
X144751475Y-93622716D01*
X144774512Y-93460850D01*
X144774661Y-93446600D01*
X144773876Y-93440108D01*
X144755931Y-93291827D01*
X144755019Y-93284287D01*
X144697227Y-93131345D01*
X144640009Y-93048092D01*
X144608923Y-93002862D01*
X144608922Y-93002861D01*
X144604621Y-92996603D01*
X144583861Y-92978106D01*
X144522059Y-92923043D01*
X144482548Y-92887840D01*
X144475838Y-92884287D01*
X144344766Y-92814888D01*
X144344764Y-92814887D01*
X144338055Y-92811335D01*
X144286985Y-92798507D01*
X144186855Y-92773356D01*
X144186851Y-92773356D01*
X144179484Y-92771505D01*
X144171885Y-92771465D01*
X144171883Y-92771465D01*
X144103853Y-92771109D01*
X144015990Y-92770649D01*
X144008610Y-92772421D01*
X144008608Y-92772421D01*
X143864389Y-92807044D01*
X143864385Y-92807045D01*
X143857010Y-92808816D01*
X143711724Y-92883804D01*
X143706002Y-92888796D01*
X143706000Y-92888797D01*
X143594244Y-92986288D01*
X143594241Y-92986291D01*
X143588519Y-92991283D01*
X143584152Y-92997497D01*
X143498930Y-93118755D01*
X143494507Y-93125048D01*
X143491746Y-93132130D01*
X143458094Y-93218443D01*
X143429796Y-93261769D01*
X139344595Y-97346970D01*
X139282283Y-97380996D01*
X139211468Y-97375931D01*
X139166405Y-97346970D01*
X133503497Y-91684062D01*
X133492629Y-91671671D01*
X133478505Y-91653264D01*
X133473482Y-91646718D01*
X133446348Y-91625897D01*
X133389099Y-91581969D01*
X133348041Y-91550464D01*
X133201962Y-91489956D01*
X133099274Y-91476437D01*
X133045200Y-91469318D01*
X133037012Y-91470396D01*
X133014027Y-91473422D01*
X132997581Y-91474500D01*
X129245814Y-91474500D01*
X129186855Y-91459854D01*
X129155572Y-91443291D01*
X129155569Y-91443290D01*
X129148855Y-91439735D01*
X129097785Y-91426907D01*
X128997655Y-91401756D01*
X128997651Y-91401756D01*
X128990284Y-91399905D01*
X128982685Y-91399865D01*
X128982683Y-91399865D01*
X128914653Y-91399509D01*
X128826790Y-91399049D01*
X128819410Y-91400821D01*
X128819408Y-91400821D01*
X128675189Y-91435444D01*
X128675185Y-91435445D01*
X128667810Y-91437216D01*
X128595655Y-91474458D01*
X128565629Y-91489956D01*
X128522524Y-91512204D01*
X128516802Y-91517196D01*
X128516800Y-91517197D01*
X128405044Y-91614688D01*
X128405041Y-91614691D01*
X128399319Y-91619683D01*
X128305307Y-91753448D01*
X128245917Y-91905776D01*
X128224576Y-92067874D01*
X126788500Y-92067874D01*
X126788500Y-82322215D01*
X126808502Y-82254094D01*
X126825405Y-82233120D01*
X135252642Y-73805882D01*
X135256451Y-73802229D01*
X135285269Y-73775729D01*
X135302156Y-73760201D01*
X135308438Y-73750070D01*
X135325087Y-73723217D01*
X135331801Y-73713447D01*
X135358112Y-73678784D01*
X135363646Y-73664807D01*
X135373709Y-73644798D01*
X135377111Y-73639312D01*
X135377113Y-73639308D01*
X135381635Y-73632014D01*
X135384029Y-73623772D01*
X135384031Y-73623769D01*
X135393779Y-73590216D01*
X135397618Y-73579003D01*
X135413635Y-73538547D01*
X135415206Y-73523598D01*
X135419519Y-73501615D01*
X135421873Y-73493514D01*
X135423715Y-73487175D01*
X135424500Y-73476485D01*
X135424500Y-73441781D01*
X135424704Y-73437892D01*
X145675948Y-73437892D01*
X145685707Y-73607159D01*
X145735561Y-73769211D01*
X145822631Y-73914695D01*
X145827968Y-73920088D01*
X145827971Y-73920092D01*
X145870974Y-73963547D01*
X145941890Y-74035210D01*
X146086454Y-74123798D01*
X146172721Y-74151329D01*
X146240736Y-74173036D01*
X146240738Y-74173036D01*
X146247975Y-74175346D01*
X146255555Y-74175863D01*
X146255556Y-74175863D01*
X146409554Y-74186362D01*
X146409558Y-74186362D01*
X146417130Y-74186878D01*
X146424607Y-74185573D01*
X146424608Y-74185573D01*
X146576677Y-74159032D01*
X146584154Y-74157727D01*
X146591103Y-74154676D01*
X146591105Y-74154676D01*
X146732449Y-74092631D01*
X146732448Y-74092631D01*
X146739402Y-74089579D01*
X146750459Y-74081095D01*
X146839604Y-74012690D01*
X146842878Y-74010178D01*
X147139625Y-73713431D01*
X147471653Y-73381404D01*
X147533965Y-73347379D01*
X147560748Y-73344500D01*
X148662959Y-73344500D01*
X148671529Y-73344792D01*
X148716488Y-73347857D01*
X148783090Y-73372446D01*
X148797014Y-73384470D01*
X149091327Y-73678784D01*
X149369824Y-73957281D01*
X149375677Y-73963547D01*
X149413231Y-74006596D01*
X149464873Y-74042890D01*
X149470158Y-74046816D01*
X149513876Y-74081095D01*
X149513880Y-74081097D01*
X149519857Y-74085784D01*
X149526780Y-74088910D01*
X149529728Y-74090695D01*
X149542688Y-74098087D01*
X149545734Y-74099720D01*
X149551947Y-74104087D01*
X149592325Y-74119830D01*
X149610766Y-74127020D01*
X149616845Y-74129575D01*
X149674384Y-74155555D01*
X149681855Y-74156940D01*
X149685123Y-74157964D01*
X149699564Y-74162077D01*
X149702837Y-74162917D01*
X149709913Y-74165676D01*
X149754583Y-74171556D01*
X149772506Y-74173916D01*
X149779023Y-74174948D01*
X149783960Y-74175863D01*
X149841092Y-74186452D01*
X149848672Y-74186015D01*
X149848673Y-74186015D01*
X149902544Y-74182909D01*
X149909796Y-74182700D01*
X150839854Y-74182700D01*
X150907975Y-74202702D01*
X150928949Y-74219605D01*
X154278795Y-77569452D01*
X154312821Y-77631764D01*
X154315700Y-77658547D01*
X154315700Y-83299853D01*
X154295698Y-83367974D01*
X154278795Y-83388948D01*
X153180977Y-84486766D01*
X153180510Y-84487232D01*
X153116990Y-84550090D01*
X153113023Y-84556564D01*
X153113021Y-84556566D01*
X153097595Y-84581739D01*
X153089318Y-84593648D01*
X153071104Y-84616877D01*
X153071101Y-84616881D01*
X153066416Y-84622857D01*
X153052924Y-84652738D01*
X153045529Y-84666705D01*
X153028402Y-84694654D01*
X153017118Y-84730013D01*
X153011919Y-84743556D01*
X152996645Y-84777384D01*
X152995261Y-84784851D01*
X152990673Y-84809605D01*
X152986818Y-84824952D01*
X152976854Y-84856175D01*
X152976337Y-84863755D01*
X152976337Y-84863756D01*
X152974329Y-84893210D01*
X152972511Y-84907599D01*
X152965748Y-84944092D01*
X152966185Y-84951674D01*
X152967634Y-84976809D01*
X152967551Y-84992629D01*
X152966014Y-85015183D01*
X152965322Y-85025330D01*
X152966627Y-85032806D01*
X152966627Y-85032811D01*
X152971703Y-85061895D01*
X152973370Y-85076303D01*
X152975507Y-85113359D01*
X152985148Y-85144698D01*
X152988838Y-85160068D01*
X152994473Y-85192354D01*
X153009393Y-85226343D01*
X153014445Y-85239929D01*
X153025361Y-85275411D01*
X153029260Y-85281926D01*
X153042192Y-85303534D01*
X153049445Y-85317586D01*
X153062621Y-85347602D01*
X153067241Y-85353623D01*
X153067243Y-85353626D01*
X153085219Y-85377052D01*
X153093370Y-85389046D01*
X153112431Y-85420895D01*
X153117773Y-85426293D01*
X153117775Y-85426296D01*
X153130060Y-85438710D01*
X153140364Y-85449123D01*
X153141256Y-85450080D01*
X153142022Y-85451078D01*
X153168271Y-85477327D01*
X153168737Y-85477794D01*
X153231690Y-85541410D01*
X153233007Y-85542217D01*
X153234420Y-85543476D01*
X154463671Y-86772727D01*
X154464137Y-86773194D01*
X154527090Y-86836810D01*
X154533569Y-86840780D01*
X154558739Y-86856204D01*
X154570652Y-86864484D01*
X154593878Y-86882696D01*
X154593884Y-86882700D01*
X154599857Y-86887383D01*
X154629726Y-86900869D01*
X154643701Y-86908268D01*
X154671654Y-86925398D01*
X154707023Y-86936686D01*
X154720553Y-86941880D01*
X154747462Y-86954030D01*
X154747465Y-86954031D01*
X154754384Y-86957155D01*
X154773144Y-86960632D01*
X154786605Y-86963127D01*
X154801953Y-86966982D01*
X154825936Y-86974636D01*
X154825937Y-86974636D01*
X154833175Y-86976946D01*
X154840755Y-86977463D01*
X154840756Y-86977463D01*
X154870210Y-86979471D01*
X154884599Y-86981289D01*
X154913622Y-86986668D01*
X154913626Y-86986668D01*
X154921092Y-86988052D01*
X154928674Y-86987615D01*
X154939066Y-86987016D01*
X154953810Y-86986166D01*
X154969629Y-86986249D01*
X154994753Y-86987962D01*
X154994757Y-86987962D01*
X155002330Y-86988478D01*
X155009806Y-86987173D01*
X155009811Y-86987173D01*
X155038895Y-86982097D01*
X155053303Y-86980430D01*
X155082771Y-86978731D01*
X155082775Y-86978730D01*
X155090359Y-86978293D01*
X155121698Y-86968652D01*
X155137069Y-86964962D01*
X155169354Y-86959327D01*
X155203343Y-86944407D01*
X155216929Y-86939355D01*
X155245153Y-86930672D01*
X155245154Y-86930672D01*
X155252411Y-86928439D01*
X155280535Y-86911608D01*
X155294586Y-86904355D01*
X155324602Y-86891179D01*
X155330623Y-86886559D01*
X155330626Y-86886557D01*
X155354052Y-86868581D01*
X155366049Y-86860428D01*
X155397895Y-86841369D01*
X155403293Y-86836027D01*
X155403296Y-86836025D01*
X155415710Y-86823740D01*
X155426123Y-86813436D01*
X155427080Y-86812544D01*
X155428078Y-86811778D01*
X155454327Y-86785529D01*
X155454794Y-86785063D01*
X155515313Y-86725175D01*
X155515315Y-86725173D01*
X155518410Y-86722110D01*
X155519217Y-86720793D01*
X155520476Y-86719380D01*
X156615651Y-85624205D01*
X156677963Y-85590179D01*
X156704746Y-85587300D01*
X163894054Y-85587300D01*
X163962175Y-85607302D01*
X163983149Y-85624205D01*
X168248795Y-89889852D01*
X168282821Y-89952164D01*
X168285700Y-89978947D01*
X168285700Y-90767454D01*
X168265698Y-90835575D01*
X168248795Y-90856549D01*
X166529926Y-92575417D01*
X166523661Y-92581270D01*
X166480604Y-92618831D01*
X166444317Y-92670463D01*
X166440384Y-92675758D01*
X166406105Y-92719476D01*
X166406103Y-92719480D01*
X166401416Y-92725457D01*
X166398290Y-92732380D01*
X166396505Y-92735328D01*
X166389113Y-92748288D01*
X166387480Y-92751334D01*
X166383113Y-92757547D01*
X166377671Y-92771505D01*
X166360180Y-92816366D01*
X166357625Y-92822445D01*
X166331645Y-92879984D01*
X166330260Y-92887455D01*
X166329236Y-92890723D01*
X166325123Y-92905164D01*
X166324283Y-92908437D01*
X166321524Y-92915513D01*
X166320533Y-92923043D01*
X166313284Y-92978106D01*
X166312252Y-92984623D01*
X166311018Y-92991283D01*
X166300748Y-93046692D01*
X166301185Y-93054274D01*
X166300708Y-93061856D01*
X166298107Y-93061692D01*
X166284857Y-93118755D01*
X166264218Y-93145926D01*
X158377008Y-101033135D01*
X158374666Y-101036122D01*
X158374665Y-101036123D01*
X158307970Y-101121183D01*
X158298816Y-101132857D01*
X158229045Y-101287384D01*
X158198148Y-101454092D01*
X158198585Y-101461672D01*
X158198585Y-101461673D01*
X158198715Y-101463933D01*
X158207907Y-101623359D01*
X158257761Y-101785411D01*
X158344831Y-101930895D01*
X158350168Y-101936288D01*
X158350171Y-101936292D01*
X158405610Y-101992314D01*
X158464090Y-102051410D01*
X158608654Y-102139998D01*
X158694921Y-102167529D01*
X158762936Y-102189236D01*
X158762938Y-102189236D01*
X158770175Y-102191546D01*
X158777755Y-102192063D01*
X158777756Y-102192063D01*
X158931754Y-102202562D01*
X158931758Y-102202562D01*
X158939330Y-102203078D01*
X158946807Y-102201773D01*
X158946808Y-102201773D01*
X159098877Y-102175232D01*
X159106354Y-102173927D01*
X159113303Y-102170876D01*
X159113305Y-102170876D01*
X159254649Y-102108831D01*
X159254648Y-102108831D01*
X159261602Y-102105779D01*
X159327283Y-102055380D01*
X159361807Y-102028888D01*
X159365078Y-102026378D01*
X167480075Y-93911382D01*
X167486341Y-93905528D01*
X167523669Y-93872965D01*
X167529396Y-93867969D01*
X167565690Y-93816327D01*
X167569616Y-93811042D01*
X167603895Y-93767324D01*
X167603897Y-93767320D01*
X167608584Y-93761343D01*
X167611710Y-93754420D01*
X167613495Y-93751472D01*
X167620887Y-93738512D01*
X167622520Y-93735466D01*
X167626887Y-93729253D01*
X167649820Y-93670433D01*
X167652376Y-93664354D01*
X167675228Y-93613741D01*
X167678355Y-93606816D01*
X167679740Y-93599345D01*
X167680764Y-93596077D01*
X167684877Y-93581636D01*
X167685717Y-93578363D01*
X167688476Y-93571287D01*
X167696716Y-93508694D01*
X167697748Y-93502177D01*
X167707868Y-93447575D01*
X167709252Y-93440108D01*
X167708815Y-93432526D01*
X167709292Y-93424944D01*
X167711893Y-93425108D01*
X167725143Y-93368045D01*
X167745782Y-93340874D01*
X168596440Y-92490217D01*
X169461274Y-91625383D01*
X169467540Y-91619529D01*
X169504869Y-91586965D01*
X169510596Y-91581969D01*
X169546890Y-91530327D01*
X169550816Y-91525042D01*
X169585095Y-91481324D01*
X169585097Y-91481320D01*
X169589784Y-91475343D01*
X169592910Y-91468420D01*
X169594695Y-91465472D01*
X169602087Y-91452512D01*
X169603720Y-91449466D01*
X169608087Y-91443253D01*
X169631020Y-91384433D01*
X169633576Y-91378354D01*
X169656428Y-91327741D01*
X169659555Y-91320816D01*
X169660940Y-91313345D01*
X169661964Y-91310077D01*
X169666077Y-91295636D01*
X169666917Y-91292363D01*
X169669676Y-91285287D01*
X169677916Y-91222694D01*
X169678948Y-91216177D01*
X169689068Y-91161575D01*
X169690452Y-91154108D01*
X169686909Y-91092656D01*
X169686700Y-91085404D01*
X169686700Y-90463100D01*
X169706702Y-90394979D01*
X169760358Y-90348486D01*
X169812700Y-90337100D01*
X171116559Y-90337100D01*
X171125129Y-90337392D01*
X171174554Y-90340762D01*
X171174558Y-90340762D01*
X171182130Y-90341278D01*
X171189606Y-90339973D01*
X171189609Y-90339973D01*
X171244332Y-90330422D01*
X171250858Y-90329459D01*
X171291296Y-90324565D01*
X171313520Y-90321876D01*
X171320627Y-90319191D01*
X171323920Y-90318382D01*
X171338391Y-90314423D01*
X171341667Y-90313434D01*
X171349154Y-90312127D01*
X171356114Y-90309072D01*
X171406960Y-90286753D01*
X171413066Y-90284261D01*
X171465018Y-90264630D01*
X171465020Y-90264629D01*
X171472123Y-90261945D01*
X171478378Y-90257646D01*
X171481403Y-90256065D01*
X171494499Y-90248775D01*
X171497443Y-90247034D01*
X171504402Y-90243979D01*
X171554473Y-90205558D01*
X171559809Y-90201681D01*
X171605586Y-90170219D01*
X171605592Y-90170214D01*
X171611851Y-90165912D01*
X171652809Y-90119942D01*
X171657789Y-90114667D01*
X171828379Y-89944077D01*
X181995065Y-89944077D01*
X182008722Y-90335157D01*
X182060477Y-90723038D01*
X182149834Y-91104017D01*
X182150823Y-91106923D01*
X182150825Y-91106929D01*
X182274950Y-91471543D01*
X182274955Y-91471555D01*
X182275943Y-91474458D01*
X182437598Y-91830826D01*
X182633258Y-92169717D01*
X182635047Y-92172216D01*
X182635049Y-92172219D01*
X182732831Y-92308799D01*
X182861053Y-92487899D01*
X182863080Y-92490214D01*
X182863082Y-92490217D01*
X183103307Y-92764624D01*
X183118810Y-92782333D01*
X183404069Y-93050208D01*
X183714107Y-93288969D01*
X183716710Y-93290596D01*
X183716715Y-93290599D01*
X183797172Y-93340874D01*
X184045964Y-93496337D01*
X184396472Y-93670331D01*
X184762287Y-93809290D01*
X185139915Y-93911890D01*
X185142958Y-93912405D01*
X185142964Y-93912406D01*
X185522713Y-93976636D01*
X185522720Y-93976637D01*
X185525754Y-93977150D01*
X185528825Y-93977365D01*
X185528827Y-93977365D01*
X185913053Y-94004233D01*
X185913061Y-94004233D01*
X185916119Y-94004447D01*
X186169704Y-93997363D01*
X186304211Y-93993606D01*
X186304214Y-93993606D01*
X186307285Y-93993520D01*
X186310338Y-93993134D01*
X186310342Y-93993134D01*
X186496145Y-93969662D01*
X186695517Y-93944475D01*
X186698521Y-93943793D01*
X186698524Y-93943792D01*
X187074115Y-93858460D01*
X187074121Y-93858458D01*
X187077111Y-93857779D01*
X187201691Y-93816337D01*
X187445500Y-93735233D01*
X187445506Y-93735231D01*
X187448424Y-93734260D01*
X187589551Y-93671426D01*
X187803111Y-93576343D01*
X187803117Y-93576340D01*
X187805911Y-93575096D01*
X187812616Y-93571287D01*
X188143492Y-93383324D01*
X188143498Y-93383320D01*
X188146160Y-93381808D01*
X188465924Y-93156239D01*
X188762150Y-92900544D01*
X188764271Y-92898317D01*
X188764277Y-92898311D01*
X189029894Y-92619385D01*
X189032011Y-92617162D01*
X189034611Y-92613835D01*
X189271021Y-92311244D01*
X189271023Y-92311241D01*
X189272931Y-92308799D01*
X189274587Y-92306189D01*
X189274593Y-92306181D01*
X189480957Y-91981003D01*
X189480959Y-91981000D01*
X189482610Y-91978398D01*
X189659046Y-91629112D01*
X189800557Y-91264277D01*
X189905790Y-90887374D01*
X189973742Y-90502000D01*
X189986580Y-90335157D01*
X190003613Y-90113789D01*
X190003613Y-90113778D01*
X190003763Y-90111835D01*
X190005325Y-90000000D01*
X190004296Y-89978947D01*
X189986359Y-89612222D01*
X189986209Y-89609149D01*
X189929044Y-89222028D01*
X189834376Y-88842334D01*
X189703107Y-88473689D01*
X189536492Y-88119614D01*
X189507167Y-88070420D01*
X189337700Y-87786138D01*
X189336120Y-87783487D01*
X189103905Y-87468517D01*
X188842061Y-87177711D01*
X188553090Y-86913844D01*
X188239749Y-86679435D01*
X188186075Y-86646929D01*
X187907658Y-86478313D01*
X187907649Y-86478308D01*
X187905030Y-86476722D01*
X187872057Y-86460924D01*
X187819266Y-86413451D01*
X187800500Y-86347293D01*
X187800500Y-70848856D01*
X187799259Y-70832145D01*
X187786064Y-70654588D01*
X187786063Y-70654584D01*
X187785717Y-70649923D01*
X187775161Y-70603270D01*
X187753158Y-70506035D01*
X187726655Y-70388909D01*
X187709149Y-70343891D01*
X187631355Y-70143844D01*
X187631354Y-70143842D01*
X187629662Y-70139491D01*
X187496868Y-69907150D01*
X187331190Y-69696989D01*
X187136269Y-69513625D01*
X186916385Y-69361086D01*
X186912194Y-69359019D01*
X186680559Y-69244789D01*
X186680556Y-69244788D01*
X186676371Y-69242724D01*
X186421497Y-69161138D01*
X186276134Y-69137465D01*
X186161976Y-69118873D01*
X186161975Y-69118873D01*
X186157364Y-69118122D01*
X186023569Y-69116371D01*
X185894451Y-69114680D01*
X185894448Y-69114680D01*
X185889774Y-69114619D01*
X185624605Y-69150707D01*
X185620118Y-69152015D01*
X185620117Y-69152015D01*
X185588817Y-69161138D01*
X185367683Y-69225592D01*
X185363430Y-69227552D01*
X185363429Y-69227553D01*
X185311512Y-69251487D01*
X185124652Y-69337631D01*
X185120743Y-69340194D01*
X184904764Y-69481796D01*
X184904759Y-69481800D01*
X184900851Y-69484362D01*
X184701197Y-69662560D01*
X184530075Y-69868312D01*
X184391244Y-70097098D01*
X184389437Y-70101406D01*
X184389437Y-70101407D01*
X184292411Y-70332788D01*
X184287755Y-70343891D01*
X184286604Y-70348423D01*
X184286603Y-70348426D01*
X184230553Y-70569123D01*
X184221881Y-70603270D01*
X184221412Y-70607926D01*
X184221412Y-70607927D01*
X184212882Y-70692644D01*
X184199500Y-70825541D01*
X184199500Y-86345949D01*
X184179498Y-86414070D01*
X184137260Y-86454626D01*
X183809486Y-86646929D01*
X183809481Y-86646932D01*
X183806831Y-86648487D01*
X183766433Y-86677838D01*
X183492730Y-86876694D01*
X183492721Y-86876701D01*
X183490248Y-86878498D01*
X183487958Y-86880531D01*
X183487952Y-86880536D01*
X183199924Y-87136260D01*
X183197621Y-87138305D01*
X182931743Y-87425427D01*
X182695152Y-87737124D01*
X182490107Y-88070420D01*
X182318564Y-88422135D01*
X182182162Y-88788910D01*
X182082201Y-89167246D01*
X182019637Y-89553531D01*
X181995065Y-89944077D01*
X171828379Y-89944077D01*
X177601468Y-84170989D01*
X177619195Y-84156244D01*
X177625473Y-84151929D01*
X177707851Y-84095312D01*
X177800938Y-83990834D01*
X177815588Y-83974392D01*
X177815590Y-83974388D01*
X177820640Y-83968721D01*
X177899976Y-83818881D01*
X177941281Y-83654441D01*
X177942169Y-83484895D01*
X177902588Y-83320032D01*
X177824825Y-83169369D01*
X177713369Y-83041604D01*
X177588472Y-82953825D01*
X177580870Y-82948482D01*
X177580868Y-82948481D01*
X177574653Y-82944113D01*
X177416687Y-82882524D01*
X177409157Y-82881533D01*
X177409154Y-82881532D01*
X177351389Y-82873928D01*
X177351557Y-82872653D01*
X177348027Y-82872843D01*
X177348026Y-82872854D01*
X177348003Y-82872852D01*
X177340442Y-82872337D01*
X177339885Y-82872231D01*
X177334156Y-82871659D01*
X177287374Y-82865500D01*
X177244441Y-82865500D01*
X177235871Y-82865208D01*
X177186446Y-82861838D01*
X177186442Y-82861838D01*
X177178870Y-82861322D01*
X177171394Y-82862627D01*
X177171391Y-82862627D01*
X177116668Y-82872178D01*
X177110142Y-82873141D01*
X177069704Y-82878035D01*
X177047480Y-82880724D01*
X177040373Y-82883409D01*
X177037080Y-82884218D01*
X177022609Y-82888177D01*
X177019333Y-82889166D01*
X177011846Y-82890473D01*
X177004887Y-82893528D01*
X177004886Y-82893528D01*
X176954040Y-82915847D01*
X176947934Y-82918339D01*
X176895982Y-82937970D01*
X176895980Y-82937971D01*
X176888877Y-82940655D01*
X176882622Y-82944954D01*
X176879597Y-82946535D01*
X176866501Y-82953825D01*
X176863557Y-82955566D01*
X176856598Y-82958621D01*
X176850570Y-82963246D01*
X176850569Y-82963247D01*
X176806527Y-82997042D01*
X176801191Y-83000919D01*
X176755414Y-83032381D01*
X176755408Y-83032386D01*
X176749149Y-83036688D01*
X176708192Y-83082657D01*
X176703211Y-83087933D01*
X170891948Y-88899195D01*
X170829636Y-88933221D01*
X170802853Y-88936100D01*
X169328547Y-88936100D01*
X169260426Y-88916098D01*
X169239452Y-88899195D01*
X164751982Y-84411725D01*
X164746128Y-84405459D01*
X164713565Y-84368131D01*
X164708569Y-84362404D01*
X164656927Y-84326110D01*
X164651642Y-84322184D01*
X164607924Y-84287905D01*
X164607920Y-84287903D01*
X164601943Y-84283216D01*
X164595020Y-84280090D01*
X164592072Y-84278305D01*
X164579112Y-84270913D01*
X164576066Y-84269280D01*
X164569853Y-84264913D01*
X164511033Y-84241980D01*
X164504954Y-84239424D01*
X164498801Y-84236646D01*
X164447416Y-84213445D01*
X164439945Y-84212060D01*
X164436677Y-84211036D01*
X164422236Y-84206923D01*
X164418963Y-84206083D01*
X164411887Y-84203324D01*
X164367217Y-84197444D01*
X164349294Y-84195084D01*
X164342777Y-84194052D01*
X164288175Y-84183932D01*
X164280708Y-84182548D01*
X164273128Y-84182985D01*
X164273127Y-84182985D01*
X164219256Y-84186091D01*
X164212004Y-84186300D01*
X156391037Y-84186300D01*
X156382466Y-84186008D01*
X156325470Y-84182122D01*
X156317994Y-84183427D01*
X156317990Y-84183427D01*
X156263268Y-84192978D01*
X156256742Y-84193941D01*
X156216304Y-84198835D01*
X156194080Y-84201524D01*
X156186973Y-84204209D01*
X156183680Y-84205018D01*
X156169209Y-84208977D01*
X156165933Y-84209966D01*
X156158446Y-84211273D01*
X156151488Y-84214328D01*
X156151486Y-84214328D01*
X156100642Y-84236646D01*
X156094537Y-84239138D01*
X156090184Y-84240783D01*
X156035477Y-84261455D01*
X156029224Y-84265753D01*
X156026193Y-84267337D01*
X156013116Y-84274617D01*
X156010157Y-84276367D01*
X156003197Y-84279422D01*
X155997170Y-84284047D01*
X155997166Y-84284049D01*
X155953100Y-84317862D01*
X155947781Y-84321727D01*
X155895749Y-84357488D01*
X155854800Y-84403448D01*
X155849819Y-84408724D01*
X155054495Y-85204048D01*
X154992183Y-85238074D01*
X154921368Y-85233009D01*
X154876305Y-85204048D01*
X154749752Y-85077495D01*
X154715726Y-85015183D01*
X154720791Y-84944368D01*
X154749752Y-84899305D01*
X155491274Y-84157783D01*
X155497540Y-84151929D01*
X155534871Y-84119363D01*
X155540596Y-84114369D01*
X155544961Y-84108158D01*
X155544964Y-84108155D01*
X155576905Y-84062707D01*
X155580838Y-84057412D01*
X155615093Y-84013724D01*
X155619783Y-84007743D01*
X155622911Y-84000816D01*
X155624686Y-83997885D01*
X155632103Y-83984882D01*
X155633719Y-83981868D01*
X155638087Y-83975653D01*
X155640846Y-83968577D01*
X155640848Y-83968573D01*
X155661019Y-83916836D01*
X155663575Y-83910755D01*
X155686431Y-83860135D01*
X155686431Y-83860134D01*
X155689555Y-83853216D01*
X155690939Y-83845750D01*
X155691957Y-83842501D01*
X155696077Y-83828036D01*
X155696917Y-83824763D01*
X155699676Y-83817687D01*
X155707916Y-83755094D01*
X155708948Y-83748577D01*
X155719068Y-83693975D01*
X155720452Y-83686508D01*
X155716909Y-83625061D01*
X155716700Y-83617809D01*
X155716700Y-77344841D01*
X155716992Y-77336271D01*
X155717051Y-77335411D01*
X155720878Y-77279270D01*
X155710023Y-77217070D01*
X155709060Y-77210546D01*
X155702389Y-77155421D01*
X155702388Y-77155418D01*
X155701476Y-77147880D01*
X155698792Y-77140778D01*
X155697973Y-77137442D01*
X155694017Y-77122985D01*
X155693034Y-77119728D01*
X155691728Y-77112247D01*
X155688676Y-77105294D01*
X155666351Y-77054433D01*
X155663860Y-77048328D01*
X155644233Y-76996389D01*
X155644231Y-76996385D01*
X155641545Y-76989277D01*
X155637240Y-76983013D01*
X155635651Y-76979974D01*
X155628376Y-76966901D01*
X155626631Y-76963950D01*
X155623579Y-76956998D01*
X155585158Y-76906927D01*
X155581281Y-76901591D01*
X155549819Y-76855814D01*
X155549814Y-76855808D01*
X155545512Y-76849549D01*
X155499542Y-76808591D01*
X155494267Y-76803611D01*
X151697782Y-73007125D01*
X151691928Y-73000859D01*
X151659365Y-72963531D01*
X151654369Y-72957804D01*
X151602727Y-72921510D01*
X151597442Y-72917584D01*
X151553724Y-72883305D01*
X151553720Y-72883303D01*
X151547743Y-72878616D01*
X151540820Y-72875490D01*
X151537872Y-72873705D01*
X151524912Y-72866313D01*
X151521866Y-72864680D01*
X151515653Y-72860313D01*
X151456833Y-72837380D01*
X151450754Y-72834824D01*
X151393216Y-72808845D01*
X151385745Y-72807460D01*
X151382477Y-72806436D01*
X151368036Y-72802323D01*
X151364763Y-72801483D01*
X151357687Y-72798724D01*
X151313017Y-72792844D01*
X151295094Y-72790484D01*
X151288577Y-72789452D01*
X151233975Y-72779332D01*
X151226508Y-72777948D01*
X151218928Y-72778385D01*
X151218927Y-72778385D01*
X151165056Y-72781491D01*
X151157804Y-72781700D01*
X150227747Y-72781700D01*
X150159626Y-72761698D01*
X150138651Y-72744795D01*
X149772654Y-72378797D01*
X149738629Y-72316485D01*
X149735959Y-72296960D01*
X149735209Y-72283961D01*
X149735000Y-72276703D01*
X149735000Y-71017846D01*
X149755002Y-70949725D01*
X149771905Y-70928751D01*
X157111909Y-63588748D01*
X157156466Y-63559977D01*
X157266420Y-63518429D01*
X157273523Y-63515745D01*
X157413251Y-63419712D01*
X157418304Y-63414041D01*
X157520988Y-63298792D01*
X157520990Y-63298788D01*
X157526040Y-63293121D01*
X157605376Y-63143281D01*
X157646681Y-62978841D01*
X157647569Y-62809295D01*
X157607988Y-62644432D01*
X157530225Y-62493769D01*
X157418769Y-62366004D01*
X157293872Y-62278225D01*
X157286270Y-62272882D01*
X157286268Y-62272881D01*
X157280053Y-62268513D01*
X157122087Y-62206924D01*
X157114554Y-62205932D01*
X157114553Y-62205932D01*
X156996861Y-62190438D01*
X156996860Y-62190438D01*
X156992774Y-62189900D01*
X156848241Y-62189900D01*
X156839671Y-62189608D01*
X156790246Y-62186238D01*
X156790242Y-62186238D01*
X156782670Y-62185722D01*
X156775194Y-62187027D01*
X156775191Y-62187027D01*
X156720468Y-62196578D01*
X156713942Y-62197541D01*
X156673504Y-62202435D01*
X156651280Y-62205124D01*
X156644173Y-62207809D01*
X156640880Y-62208618D01*
X156626409Y-62212577D01*
X156623133Y-62213566D01*
X156615646Y-62214873D01*
X156608687Y-62217928D01*
X156608686Y-62217928D01*
X156557840Y-62240247D01*
X156551734Y-62242739D01*
X156499782Y-62262370D01*
X156499780Y-62262371D01*
X156492677Y-62265055D01*
X156486422Y-62269354D01*
X156483397Y-62270935D01*
X156470301Y-62278225D01*
X156467357Y-62279966D01*
X156460398Y-62283021D01*
X156454370Y-62287646D01*
X156454369Y-62287647D01*
X156410327Y-62321442D01*
X156404991Y-62325319D01*
X156359214Y-62356781D01*
X156359208Y-62356786D01*
X156352949Y-62361088D01*
X156311992Y-62407057D01*
X156307011Y-62412333D01*
X148559425Y-70159918D01*
X148553160Y-70165771D01*
X148510104Y-70203331D01*
X148473817Y-70254963D01*
X148469884Y-70260258D01*
X148435605Y-70303976D01*
X148435603Y-70303980D01*
X148430916Y-70309957D01*
X148427790Y-70316880D01*
X148426005Y-70319828D01*
X148418613Y-70332788D01*
X148416980Y-70335834D01*
X148412613Y-70342047D01*
X148394342Y-70388909D01*
X148389680Y-70400866D01*
X148387125Y-70406945D01*
X148361145Y-70464484D01*
X148359760Y-70471955D01*
X148358736Y-70475223D01*
X148354623Y-70489664D01*
X148353783Y-70492937D01*
X148351024Y-70500013D01*
X148350033Y-70507543D01*
X148342784Y-70562606D01*
X148341752Y-70569123D01*
X148330248Y-70631192D01*
X148330685Y-70638772D01*
X148330685Y-70638773D01*
X148333791Y-70692644D01*
X148334000Y-70699896D01*
X148334000Y-71817500D01*
X148313998Y-71885621D01*
X148260342Y-71932114D01*
X148208000Y-71943500D01*
X147247041Y-71943500D01*
X147238471Y-71943208D01*
X147189046Y-71939838D01*
X147189042Y-71939838D01*
X147181470Y-71939322D01*
X147173994Y-71940627D01*
X147173990Y-71940627D01*
X147119278Y-71950176D01*
X147112752Y-71951139D01*
X147057629Y-71957810D01*
X147057625Y-71957811D01*
X147050080Y-71958724D01*
X147042975Y-71961409D01*
X147039627Y-71962231D01*
X147025208Y-71966176D01*
X147021929Y-71967166D01*
X147014446Y-71968472D01*
X146987618Y-71980249D01*
X146956634Y-71993850D01*
X146950530Y-71996341D01*
X146891477Y-72018655D01*
X146885217Y-72022958D01*
X146882188Y-72024541D01*
X146869101Y-72031824D01*
X146866150Y-72033569D01*
X146859198Y-72036621D01*
X146853170Y-72041246D01*
X146853169Y-72041247D01*
X146809127Y-72075042D01*
X146803791Y-72078919D01*
X146758014Y-72110381D01*
X146758008Y-72110386D01*
X146751749Y-72114688D01*
X146746694Y-72120362D01*
X146710800Y-72160648D01*
X146705819Y-72165925D01*
X145854808Y-73016935D01*
X145776616Y-73116657D01*
X145706845Y-73271184D01*
X145675948Y-73437892D01*
X135424704Y-73437892D01*
X135425190Y-73428610D01*
X135428503Y-73397088D01*
X135429401Y-73388546D01*
X135427969Y-73380081D01*
X135427969Y-73380072D01*
X135426265Y-73370000D01*
X135424500Y-73348987D01*
X135424500Y-71134993D01*
X135424611Y-71129717D01*
X135424796Y-71125310D01*
X135427210Y-71067706D01*
X135418156Y-71029103D01*
X135417273Y-71025338D01*
X135415110Y-71013667D01*
X135410958Y-70983361D01*
X135409206Y-70970568D01*
X135403235Y-70956770D01*
X135396201Y-70935501D01*
X135394729Y-70929225D01*
X135392768Y-70920864D01*
X135388631Y-70913339D01*
X135388630Y-70913336D01*
X135371805Y-70882732D01*
X135366589Y-70872087D01*
X135349305Y-70832145D01*
X135339842Y-70820459D01*
X135327354Y-70801874D01*
X135323290Y-70794482D01*
X135320107Y-70788692D01*
X135313103Y-70780578D01*
X135288567Y-70756042D01*
X135279742Y-70746241D01*
X135259794Y-70721608D01*
X135259793Y-70721607D01*
X135254386Y-70714930D01*
X135247388Y-70709957D01*
X135247383Y-70709952D01*
X135239052Y-70704032D01*
X135222946Y-70690421D01*
X129645610Y-65113086D01*
X129611584Y-65050774D01*
X129609618Y-65039128D01*
X129592131Y-64894627D01*
X129591219Y-64887087D01*
X129533427Y-64734145D01*
X129440821Y-64599403D01*
X129318748Y-64490640D01*
X129312038Y-64487087D01*
X129180966Y-64417688D01*
X129180964Y-64417687D01*
X129174255Y-64414135D01*
X129123185Y-64401307D01*
X129023055Y-64376156D01*
X129023051Y-64376156D01*
X129015684Y-64374305D01*
X129008085Y-64374265D01*
X129008083Y-64374265D01*
X128940053Y-64373909D01*
X128852190Y-64373449D01*
X128844810Y-64375221D01*
X128844808Y-64375221D01*
X128700589Y-64409844D01*
X128700585Y-64409845D01*
X128693210Y-64411616D01*
X128547924Y-64486604D01*
X128542202Y-64491596D01*
X128542200Y-64491597D01*
X128430444Y-64589088D01*
X128430441Y-64589091D01*
X128424719Y-64594083D01*
X128330707Y-64727848D01*
X128271317Y-64880176D01*
X128249976Y-65042274D01*
X128267918Y-65204784D01*
X128324105Y-65358323D01*
X128328341Y-65364626D01*
X128328341Y-65364627D01*
X128411060Y-65487727D01*
X128411063Y-65487730D01*
X128415294Y-65494027D01*
X128536222Y-65604063D01*
X128542897Y-65607687D01*
X128614943Y-65646805D01*
X128643916Y-65668441D01*
X134286595Y-71311120D01*
X134320621Y-71373432D01*
X134323500Y-71400215D01*
X134323500Y-73125786D01*
X134303498Y-73193907D01*
X134286595Y-73214881D01*
X125859358Y-81642118D01*
X125855549Y-81645771D01*
X125809844Y-81687799D01*
X125786901Y-81724802D01*
X125780200Y-81734552D01*
X125753888Y-81769217D01*
X125748354Y-81783195D01*
X125738293Y-81803199D01*
X125730365Y-81815986D01*
X125727968Y-81824237D01*
X125727967Y-81824239D01*
X125718225Y-81857772D01*
X125714380Y-81869002D01*
X125698364Y-81909453D01*
X125697466Y-81917994D01*
X125697466Y-81917995D01*
X125696792Y-81924408D01*
X125692480Y-81946383D01*
X125688285Y-81960825D01*
X125687500Y-81971515D01*
X125687500Y-82006217D01*
X125686810Y-82019387D01*
X125682599Y-82059454D01*
X105034500Y-82059454D01*
X105034500Y-71664930D01*
X119945322Y-71664930D01*
X119974473Y-71831954D01*
X120042621Y-71987202D01*
X120047243Y-71993226D01*
X120047244Y-71993227D01*
X120074819Y-72029163D01*
X120122022Y-72090678D01*
X122343735Y-74312392D01*
X122443457Y-74390583D01*
X122450375Y-74393707D01*
X122450379Y-74393709D01*
X122534385Y-74431639D01*
X122597984Y-74460355D01*
X122605452Y-74461739D01*
X122605455Y-74461740D01*
X122712036Y-74481493D01*
X122764692Y-74491252D01*
X122772272Y-74490815D01*
X122772273Y-74490815D01*
X122803499Y-74489015D01*
X122933959Y-74481493D01*
X123096011Y-74431639D01*
X123241495Y-74344569D01*
X123246888Y-74339232D01*
X123246892Y-74339229D01*
X123302914Y-74283790D01*
X123362010Y-74225310D01*
X123450598Y-74080746D01*
X123488001Y-73963547D01*
X123499836Y-73926464D01*
X123499836Y-73926462D01*
X123502146Y-73919225D01*
X123510001Y-73804012D01*
X123513162Y-73757646D01*
X123513162Y-73757642D01*
X123513678Y-73750070D01*
X123508111Y-73718170D01*
X123485833Y-73590529D01*
X123484527Y-73583046D01*
X123416379Y-73427797D01*
X123336978Y-73324322D01*
X121115265Y-71102608D01*
X121081702Y-71076291D01*
X121021521Y-71029103D01*
X121021519Y-71029102D01*
X121015543Y-71024416D01*
X120861016Y-70954645D01*
X120694308Y-70923748D01*
X120686728Y-70924185D01*
X120686727Y-70924185D01*
X120655501Y-70925985D01*
X120525041Y-70933507D01*
X120362989Y-70983361D01*
X120217505Y-71070431D01*
X120212112Y-71075768D01*
X120212108Y-71075771D01*
X120157595Y-71129717D01*
X120096990Y-71189690D01*
X120008402Y-71334254D01*
X119956854Y-71495775D01*
X119945322Y-71664930D01*
X105034500Y-71664930D01*
X105034500Y-67183000D01*
X122093196Y-67183000D01*
X122113579Y-67441994D01*
X122114733Y-67446801D01*
X122114734Y-67446807D01*
X122153020Y-67606276D01*
X122174227Y-67694610D01*
X122273646Y-67934628D01*
X122409388Y-68156140D01*
X122578111Y-68353689D01*
X122775660Y-68522412D01*
X122997172Y-68658154D01*
X123001742Y-68660047D01*
X123001746Y-68660049D01*
X123232617Y-68755679D01*
X123237190Y-68757573D01*
X123325524Y-68778780D01*
X123484993Y-68817066D01*
X123484999Y-68817067D01*
X123489806Y-68818221D01*
X123579991Y-68825319D01*
X123681490Y-68833307D01*
X123681499Y-68833307D01*
X123683947Y-68833500D01*
X123813653Y-68833500D01*
X123816101Y-68833307D01*
X123816110Y-68833307D01*
X123917609Y-68825319D01*
X124007794Y-68818221D01*
X124012601Y-68817067D01*
X124012607Y-68817066D01*
X124172076Y-68778780D01*
X124260410Y-68757573D01*
X124264983Y-68755679D01*
X124495854Y-68660049D01*
X124495858Y-68660047D01*
X124500428Y-68658154D01*
X124721940Y-68522412D01*
X124919489Y-68353689D01*
X125088212Y-68156140D01*
X125223954Y-67934628D01*
X125323373Y-67694610D01*
X125344580Y-67606276D01*
X125382866Y-67446807D01*
X125382867Y-67446801D01*
X125384021Y-67441994D01*
X125404404Y-67183000D01*
X125384021Y-66924006D01*
X125382867Y-66919199D01*
X125382866Y-66919193D01*
X125324528Y-66676202D01*
X125323373Y-66671390D01*
X125223954Y-66431372D01*
X125088212Y-66209860D01*
X124919489Y-66012311D01*
X124721940Y-65843588D01*
X124500428Y-65707846D01*
X124495858Y-65705953D01*
X124495854Y-65705951D01*
X124264983Y-65610321D01*
X124264981Y-65610320D01*
X124260410Y-65608427D01*
X124172076Y-65587220D01*
X124012607Y-65548934D01*
X124012601Y-65548933D01*
X124007794Y-65547779D01*
X123917609Y-65540681D01*
X123816110Y-65532693D01*
X123816101Y-65532693D01*
X123813653Y-65532500D01*
X123683947Y-65532500D01*
X123681499Y-65532693D01*
X123681490Y-65532693D01*
X123579991Y-65540681D01*
X123489806Y-65547779D01*
X123484999Y-65548933D01*
X123484993Y-65548934D01*
X123325524Y-65587220D01*
X123237190Y-65608427D01*
X123232619Y-65610320D01*
X123232617Y-65610321D01*
X123001746Y-65705951D01*
X123001742Y-65705953D01*
X122997172Y-65707846D01*
X122775660Y-65843588D01*
X122578111Y-66012311D01*
X122409388Y-66209860D01*
X122273646Y-66431372D01*
X122174227Y-66671390D01*
X122173072Y-66676202D01*
X122114734Y-66919193D01*
X122114733Y-66919199D01*
X122113579Y-66924006D01*
X122093196Y-67183000D01*
X105034500Y-67183000D01*
X105034500Y-59301874D01*
X121747576Y-59301874D01*
X121765518Y-59464384D01*
X121768127Y-59471515D01*
X121768128Y-59471517D01*
X121775683Y-59492160D01*
X121821705Y-59617923D01*
X121825941Y-59624226D01*
X121825941Y-59624227D01*
X121908660Y-59747327D01*
X121908663Y-59747330D01*
X121912894Y-59753627D01*
X122033822Y-59863663D01*
X122062410Y-59879185D01*
X122170829Y-59938052D01*
X122170831Y-59938053D01*
X122177506Y-59941677D01*
X122184855Y-59943605D01*
X122328301Y-59981237D01*
X122328303Y-59981237D01*
X122335651Y-59983165D01*
X122418932Y-59984473D01*
X122491529Y-59985614D01*
X122491532Y-59985614D01*
X122499128Y-59985733D01*
X122506533Y-59984037D01*
X122506534Y-59984037D01*
X122651097Y-59950928D01*
X122658498Y-59949233D01*
X122804561Y-59875770D01*
X122877709Y-59813296D01*
X122923106Y-59774524D01*
X122923107Y-59774523D01*
X122928885Y-59769588D01*
X122940355Y-59753627D01*
X123019861Y-59642983D01*
X123019862Y-59642982D01*
X123024293Y-59636815D01*
X123085275Y-59485116D01*
X123088456Y-59462764D01*
X123117856Y-59398141D01*
X123124104Y-59391421D01*
X123127120Y-59388405D01*
X123189432Y-59354379D01*
X123216215Y-59351500D01*
X124687785Y-59351500D01*
X124755906Y-59371502D01*
X124776880Y-59388405D01*
X125920347Y-60531872D01*
X125953480Y-60592549D01*
X125953950Y-60592439D01*
X125954349Y-60594140D01*
X125954373Y-60594184D01*
X125954404Y-60594377D01*
X125955685Y-60599835D01*
X125956518Y-60607384D01*
X126012705Y-60760923D01*
X126016941Y-60767226D01*
X126016941Y-60767227D01*
X126099660Y-60890327D01*
X126099663Y-60890330D01*
X126103894Y-60896627D01*
X126224822Y-61006663D01*
X126253410Y-61022185D01*
X126361829Y-61081052D01*
X126361831Y-61081053D01*
X126368506Y-61084677D01*
X126375855Y-61086605D01*
X126519301Y-61124237D01*
X126519303Y-61124237D01*
X126526651Y-61126165D01*
X126609932Y-61127473D01*
X126682529Y-61128614D01*
X126682532Y-61128614D01*
X126690128Y-61128733D01*
X126697533Y-61127037D01*
X126697534Y-61127037D01*
X126842097Y-61093928D01*
X126849498Y-61092233D01*
X126995561Y-61018770D01*
X127119885Y-60912588D01*
X127131355Y-60896627D01*
X127210861Y-60785983D01*
X127210862Y-60785982D01*
X127215293Y-60779815D01*
X127276275Y-60628116D01*
X127299312Y-60466250D01*
X127299461Y-60452000D01*
X127279819Y-60289687D01*
X127222027Y-60136745D01*
X127129421Y-60002003D01*
X127111027Y-59985614D01*
X127063876Y-59943605D01*
X127007348Y-59893240D01*
X126974353Y-59875770D01*
X126869566Y-59820288D01*
X126869564Y-59820287D01*
X126862855Y-59816735D01*
X126762290Y-59791475D01*
X126703891Y-59758366D01*
X125367882Y-58422358D01*
X125364229Y-58418549D01*
X125328015Y-58379167D01*
X125322201Y-58372844D01*
X125285198Y-58349901D01*
X125275448Y-58343200D01*
X125240783Y-58316888D01*
X125226804Y-58311354D01*
X125206801Y-58301293D01*
X125194014Y-58293365D01*
X125185763Y-58290968D01*
X125185761Y-58290967D01*
X125152228Y-58281225D01*
X125140995Y-58277379D01*
X125120353Y-58269206D01*
X125100547Y-58261364D01*
X125092006Y-58260466D01*
X125092005Y-58260466D01*
X125085592Y-58259792D01*
X125063617Y-58255480D01*
X125049175Y-58251285D01*
X125041692Y-58250736D01*
X125040792Y-58250669D01*
X125040781Y-58250669D01*
X125038485Y-58250500D01*
X125003783Y-58250500D01*
X124990613Y-58249810D01*
X124980384Y-58248735D01*
X124950546Y-58245599D01*
X124942081Y-58247031D01*
X124942072Y-58247031D01*
X124932000Y-58248735D01*
X124910987Y-58250500D01*
X122950993Y-58250500D01*
X122945717Y-58250389D01*
X122941310Y-58250204D01*
X122883706Y-58247790D01*
X122875341Y-58249752D01*
X122841338Y-58257727D01*
X122829667Y-58259890D01*
X122818907Y-58261364D01*
X122786568Y-58265794D01*
X122778684Y-58269206D01*
X122778683Y-58269206D01*
X122772770Y-58271765D01*
X122751501Y-58278799D01*
X122745228Y-58280270D01*
X122745226Y-58280271D01*
X122736864Y-58282232D01*
X122729336Y-58286371D01*
X122729335Y-58286371D01*
X122698735Y-58303194D01*
X122688073Y-58308417D01*
X122656027Y-58322284D01*
X122656026Y-58322285D01*
X122648145Y-58325695D01*
X122641472Y-58331099D01*
X122636459Y-58335158D01*
X122617871Y-58347649D01*
X122604692Y-58354894D01*
X122596578Y-58361898D01*
X122572043Y-58386433D01*
X122562242Y-58395258D01*
X122530930Y-58420614D01*
X122525954Y-58427616D01*
X122525952Y-58427618D01*
X122520032Y-58435949D01*
X122506421Y-58452055D01*
X122342859Y-58615617D01*
X122283178Y-58649041D01*
X122198194Y-58669443D01*
X122198192Y-58669444D01*
X122190810Y-58671216D01*
X122184064Y-58674698D01*
X122184061Y-58674699D01*
X122052272Y-58742721D01*
X122045524Y-58746204D01*
X122039802Y-58751196D01*
X122039800Y-58751197D01*
X121928044Y-58848688D01*
X121928041Y-58848691D01*
X121922319Y-58853683D01*
X121828307Y-58987448D01*
X121768917Y-59139776D01*
X121747576Y-59301874D01*
X105034500Y-59301874D01*
X105034500Y-53944077D01*
X145995065Y-53944077D01*
X146008722Y-54335157D01*
X146060477Y-54723038D01*
X146149834Y-55104017D01*
X146150823Y-55106923D01*
X146150825Y-55106929D01*
X146274950Y-55471543D01*
X146274955Y-55471555D01*
X146275943Y-55474458D01*
X146437598Y-55830826D01*
X146633258Y-56169717D01*
X146635047Y-56172216D01*
X146635049Y-56172219D01*
X146732831Y-56308799D01*
X146861053Y-56487899D01*
X147118810Y-56782333D01*
X147404069Y-57050208D01*
X147714107Y-57288969D01*
X147716710Y-57290596D01*
X147716715Y-57290599D01*
X147835687Y-57364941D01*
X148045964Y-57496337D01*
X148396472Y-57670331D01*
X148762287Y-57809290D01*
X149139915Y-57911890D01*
X149142958Y-57912405D01*
X149142964Y-57912406D01*
X149522713Y-57976636D01*
X149522720Y-57976637D01*
X149525754Y-57977150D01*
X149528825Y-57977365D01*
X149528827Y-57977365D01*
X149913053Y-58004233D01*
X149913061Y-58004233D01*
X149916119Y-58004447D01*
X150169704Y-57997363D01*
X150304211Y-57993606D01*
X150304214Y-57993606D01*
X150307285Y-57993520D01*
X150310338Y-57993134D01*
X150310342Y-57993134D01*
X150496145Y-57969662D01*
X150695517Y-57944475D01*
X150698521Y-57943793D01*
X150698524Y-57943792D01*
X151074115Y-57858460D01*
X151074121Y-57858458D01*
X151077111Y-57857779D01*
X151222875Y-57809290D01*
X151445500Y-57735233D01*
X151445506Y-57735231D01*
X151448424Y-57734260D01*
X151589551Y-57671426D01*
X151803111Y-57576343D01*
X151803117Y-57576340D01*
X151805911Y-57575096D01*
X151808580Y-57573580D01*
X152143492Y-57383324D01*
X152143498Y-57383320D01*
X152146160Y-57381808D01*
X152465924Y-57156239D01*
X152762150Y-56900544D01*
X152764271Y-56898317D01*
X152764277Y-56898311D01*
X153029894Y-56619385D01*
X153032011Y-56617162D01*
X153131192Y-56490217D01*
X153271021Y-56311244D01*
X153271023Y-56311241D01*
X153272931Y-56308799D01*
X153274587Y-56306189D01*
X153274593Y-56306181D01*
X153480957Y-55981003D01*
X153480959Y-55981000D01*
X153482610Y-55978398D01*
X153659046Y-55629112D01*
X153800557Y-55264277D01*
X153905790Y-54887374D01*
X153973742Y-54502000D01*
X153986580Y-54335157D01*
X154003613Y-54113789D01*
X154003613Y-54113778D01*
X154003763Y-54111835D01*
X154005325Y-54000000D01*
X153986209Y-53609149D01*
X153929044Y-53222028D01*
X153834376Y-52842334D01*
X153703107Y-52473689D01*
X153536492Y-52119614D01*
X153507167Y-52070420D01*
X153337700Y-51786138D01*
X153336120Y-51783487D01*
X153103905Y-51468517D01*
X152842061Y-51177711D01*
X152553090Y-50913844D01*
X152239749Y-50679435D01*
X152186075Y-50646929D01*
X151907658Y-50478313D01*
X151907649Y-50478308D01*
X151905030Y-50476722D01*
X151552126Y-50307638D01*
X151549237Y-50306586D01*
X151549231Y-50306584D01*
X151187306Y-50174855D01*
X151187303Y-50174854D01*
X151184407Y-50173800D01*
X150907326Y-50102658D01*
X150808366Y-50077249D01*
X150808363Y-50077248D01*
X150805382Y-50076483D01*
X150418670Y-50016617D01*
X150415613Y-50016446D01*
X150415612Y-50016446D01*
X150385120Y-50014741D01*
X150027962Y-49994773D01*
X150024883Y-49994902D01*
X150024880Y-49994902D01*
X149768770Y-50005636D01*
X149636987Y-50011159D01*
X149633943Y-50011587D01*
X149633941Y-50011587D01*
X149599368Y-50016446D01*
X149249477Y-50065620D01*
X148869131Y-50157636D01*
X148499579Y-50286327D01*
X148496781Y-50287620D01*
X148147146Y-50449174D01*
X148147136Y-50449179D01*
X148144349Y-50450467D01*
X148035829Y-50514135D01*
X147809486Y-50646929D01*
X147809481Y-50646932D01*
X147806831Y-50648487D01*
X147766433Y-50677838D01*
X147492730Y-50876694D01*
X147492721Y-50876701D01*
X147490248Y-50878498D01*
X147487958Y-50880531D01*
X147487952Y-50880536D01*
X147199924Y-51136260D01*
X147197621Y-51138305D01*
X146931743Y-51425427D01*
X146695152Y-51737124D01*
X146490107Y-52070420D01*
X146318564Y-52422135D01*
X146182162Y-52788910D01*
X146082201Y-53167246D01*
X146019637Y-53553531D01*
X145995065Y-53944077D01*
X105034500Y-53944077D01*
X105034500Y-45160500D01*
X105054502Y-45092379D01*
X105108158Y-45045886D01*
X105160500Y-45034500D01*
X194839500Y-45034500D01*
X194907621Y-45054502D01*
G37*
%TD.AperFunction*%
%TD*%
M02*
