G04 #@! TF.GenerationSoftware,KiCad,Pcbnew,5.99.0-unknown-43001cae3~104~ubuntu18.04.1*
G04 #@! TF.CreationDate,2020-11-12T23:28:15+01:00*
G04 #@! TF.ProjectId,QFHMIX01C,5146484d-4958-4303-9143-2e6b69636164,REV 0.2*
G04 #@! TF.SameCoordinates,Original*
G04 #@! TF.FileFunction,Soldermask,Bot*
G04 #@! TF.FilePolarity,Negative*
%FSLAX45Y45*%
G04 Gerber Fmt 4.5, Leading zero omitted, Abs format (unit mm)*
G04 Created by KiCad (PCBNEW 5.99.0-unknown-43001cae3~104~ubuntu18.04.1) date 2020-11-12 23:28:15*
%MOMM*%
%LPD*%
G01*
G04 APERTURE LIST*
G04 Aperture macros list*
%AMRoundRect*
0 Rectangle with rounded corners*
0 $1 Rounding radius*
0 $2 $3 $4 $5 $6 $7 $8 $9 X,Y pos of 4 corners*
0 Add a 4 corners polygon primitive as box body*
4,1,4,$2,$3,$4,$5,$6,$7,$8,$9,$2,$3,0*
0 Add four circle primitives for the rounded corners*
1,1,$1+$1,$2,$3,0*
1,1,$1+$1,$4,$5,0*
1,1,$1+$1,$6,$7,0*
1,1,$1+$1,$8,$9,0*
0 Add four rect primitives between the rounded corners*
20,1,$1+$1,$2,$3,$4,$5,0*
20,1,$1+$1,$4,$5,$6,$7,0*
20,1,$1+$1,$6,$7,$8,$9,0*
20,1,$1+$1,$8,$9,$2,$3,0*%
%AMHorizOval*
0 Thick line with rounded ends*
0 $1 width*
0 $2 $3 position (X,Y) of the first rounded end (center of the circle)*
0 $4 $5 position (X,Y) of the second rounded end (center of the circle)*
0 Add line between two ends*
20,1,$1,$2,$3,$4,$5,0*
0 Add two circle primitives to create the rounded ends*
1,1,$1,$2,$3,0*
1,1,$1,$4,$5,0*%
G04 Aperture macros list end*
%ADD10C,2.000000*%
%ADD11C,2.900000*%
%ADD12RoundRect,0.200000X0.000000X1.077631X-1.077631X0.000000X0.000000X-1.077631X1.077631X0.000000X0*%
%ADD13RoundRect,0.200000X0.628618X0.179605X0.179605X0.628618X-0.628618X-0.179605X-0.179605X-0.628618X0*%
%ADD14RoundRect,0.200000X-0.628618X-0.179605X-0.179605X-0.628618X0.628618X0.179605X0.179605X0.628618X0*%
%ADD15RoundRect,0.200000X0.179605X-0.628618X0.628618X-0.179605X-0.179605X0.628618X-0.628618X0.179605X0*%
%ADD16RoundRect,0.200000X-0.179605X0.628618X-0.628618X0.179605X0.179605X-0.628618X0.628618X-0.179605X0*%
%ADD17RoundRect,0.200000X0.653763X0.441829X0.441829X0.653763X-0.653763X-0.441829X-0.441829X-0.653763X0*%
%ADD18RoundRect,0.200000X-0.653763X-0.441829X-0.441829X-0.653763X0.653763X0.441829X0.441829X0.653763X0*%
%ADD19RoundRect,0.200000X0.176777X1.237437X-1.237437X-0.176777X-0.176777X-1.237437X1.237437X0.176777X0*%
%ADD20RoundRect,0.200000X-0.636396X2.050610X-2.050610X0.636396X0.636396X-2.050610X2.050610X-0.636396X0*%
%ADD21RoundRect,0.200000X0.179605X-0.808223X0.808223X-0.179605X-0.179605X0.808223X-0.808223X0.179605X0*%
%ADD22RoundRect,0.200000X0.808223X0.179605X0.179605X0.808223X-0.808223X-0.179605X-0.179605X-0.808223X0*%
%ADD23RoundRect,0.200000X-0.179605X0.808223X-0.808223X0.179605X0.179605X-0.808223X0.808223X-0.179605X0*%
%ADD24HorizOval,0.700000X0.159099X-0.159099X-0.159099X0.159099X0*%
%ADD25HorizOval,0.700000X-0.159099X-0.159099X0.159099X0.159099X0*%
%ADD26RoundRect,0.200000X-0.636396X0.000000X0.000000X-0.636396X0.636396X0.000000X0.000000X0.636396X0*%
%ADD27C,6.400000*%
%ADD28RoundRect,0.200000X0.106066X0.318198X-0.318198X-0.106066X-0.106066X-0.318198X0.318198X0.106066X0*%
%ADD29RoundRect,0.200000X0.353553X0.565685X-0.565685X-0.353553X-0.353553X-0.565685X0.565685X0.353553X0*%
%ADD30RoundRect,0.200000X0.318198X-0.106066X-0.106066X0.318198X-0.318198X0.106066X0.106066X-0.318198X0*%
%ADD31RoundRect,0.225000X0.279307X1.552099X-1.552099X-0.279307X-0.279307X-1.552099X1.552099X0.279307X0*%
%ADD32RoundRect,0.200000X-0.194454X1.219759X-1.219759X0.194454X0.194454X-1.219759X1.219759X-0.194454X0*%
%ADD33RoundRect,0.200000X-0.400000X0.450000X-0.400000X-0.450000X0.400000X-0.450000X0.400000X0.450000X0*%
%ADD34RoundRect,0.200000X0.450000X0.400000X-0.450000X0.400000X-0.450000X-0.400000X0.450000X-0.400000X0*%
%ADD35RoundRect,0.200000X0.247487X1.520280X-1.520280X-0.247487X-0.247487X-1.520280X1.520280X0.247487X0*%
%ADD36RoundRect,0.200000X0.176777X-1.590990X1.590990X-0.176777X-0.176777X1.590990X-1.590990X0.176777X0*%
%ADD37RoundRect,0.200000X0.400000X-0.450000X0.400000X0.450000X-0.400000X0.450000X-0.400000X-0.450000X0*%
%ADD38RoundRect,0.200000X-0.450000X-0.400000X0.450000X-0.400000X0.450000X0.400000X-0.450000X0.400000X0*%
%ADD39RoundRect,0.200000X0.795495X0.088388X0.088388X0.795495X-0.795495X-0.088388X-0.088388X-0.795495X0*%
%ADD40RoundRect,0.200000X-0.707107X-0.212132X-0.212132X-0.707107X0.707107X0.212132X0.212132X0.707107X0*%
%ADD41RoundRect,0.200000X0.707107X0.212132X0.212132X0.707107X-0.707107X-0.212132X-0.212132X-0.707107X0*%
%ADD42RoundRect,0.200000X0.571500X-0.317500X0.571500X0.317500X-0.571500X0.317500X-0.571500X-0.317500X0*%
%ADD43RoundRect,0.200000X-0.317500X-0.571500X0.317500X-0.571500X0.317500X0.571500X-0.317500X0.571500X0*%
%ADD44RoundRect,0.200000X-0.808223X-0.179605X-0.179605X-0.808223X0.808223X0.179605X0.179605X0.808223X0*%
%ADD45RoundRect,0.200000X0.212132X-0.707107X0.707107X-0.212132X-0.212132X0.707107X-0.707107X0.212132X0*%
%ADD46RoundRect,0.200000X-0.212132X0.707107X-0.707107X0.212132X0.212132X-0.707107X0.707107X-0.212132X0*%
%ADD47RoundRect,0.200000X-0.565685X-2.828427X2.828427X0.565685X0.565685X2.828427X-2.828427X-0.565685X0*%
%ADD48RoundRect,0.200000X0.180312X-0.717713X0.717713X-0.180312X-0.180312X0.717713X-0.717713X0.180312X0*%
%ADD49RoundRect,0.200000X-2.828427X0.565685X0.565685X-2.828427X2.828427X-0.565685X-0.565685X2.828427X0*%
%ADD50RoundRect,0.200000X-0.717713X-0.180312X-0.180312X-0.717713X0.717713X0.180312X0.180312X0.717713X0*%
%ADD51RoundRect,0.200000X0.565685X2.828427X-2.828427X-0.565685X-0.565685X-2.828427X2.828427X0.565685X0*%
%ADD52RoundRect,0.200000X-0.180312X0.717713X-0.717713X0.180312X0.180312X-0.717713X0.717713X-0.180312X0*%
G04 APERTURE END LIST*
D10*
X12631949Y-12984497D03*
X12815089Y-12262541D03*
X11015503Y-11368051D03*
X11737459Y-11184910D03*
X12093133Y-12445682D03*
X11554318Y-11906866D03*
D11*
X12992927Y-12892927D03*
X12723519Y-12623519D03*
X12454111Y-12354111D03*
X12184704Y-12084704D03*
X11915296Y-11815296D03*
X11645888Y-11545888D03*
X11376481Y-11276481D03*
X11107073Y-11007073D03*
D12*
X17639408Y-10589803D03*
X17459803Y-10769408D03*
X17459803Y-10410197D03*
X17280197Y-10589803D03*
X17280197Y-10230592D03*
X17100592Y-10410197D03*
D13*
X12797177Y-6669486D03*
X12689414Y-6561723D03*
D14*
X12204016Y-6091158D03*
X12311779Y-6198921D03*
D15*
X12047513Y-7413954D03*
X12155276Y-7306191D03*
D16*
X11952076Y-7509391D03*
X11844313Y-7617154D03*
D13*
X12453486Y-7986438D03*
X12345723Y-7878675D03*
X12199726Y-6778954D03*
X12091963Y-6671191D03*
X12587836Y-7852088D03*
X12480073Y-7744325D03*
X12801736Y-7641724D03*
X12693973Y-7533961D03*
D17*
X13924375Y-8927850D03*
X13970354Y-8973829D03*
X14016333Y-9019808D03*
X14062133Y-9065607D03*
X14107932Y-9111407D03*
X14153911Y-9157385D03*
X14199890Y-9203364D03*
D18*
X13804040Y-9599214D03*
X13758061Y-9553235D03*
X13712082Y-9507256D03*
X13666283Y-9461457D03*
X13620484Y-9415658D03*
X13574505Y-9369679D03*
X13528526Y-9323700D03*
D19*
X16500104Y-11084627D03*
D20*
X16217261Y-11692739D03*
D19*
X16662739Y-11247261D03*
X16825373Y-11409896D03*
X15949104Y-10532327D03*
D20*
X15666261Y-11140439D03*
D19*
X16111739Y-10694961D03*
X16274373Y-10857596D03*
D21*
X11818571Y-6208447D03*
X11953275Y-6073743D03*
D22*
X15807352Y-11667352D03*
X15672648Y-11532648D03*
D23*
X15492667Y-11314033D03*
X15357963Y-11448737D03*
D15*
X13448810Y-9146094D03*
X13556573Y-9038331D03*
D24*
X11753563Y-6915107D03*
X11788918Y-6879752D03*
X11824274Y-6844396D03*
X11859629Y-6809041D03*
D25*
X11962160Y-6809041D03*
X11997515Y-6844396D03*
X12032870Y-6879752D03*
X12068226Y-6915107D03*
D24*
X12068226Y-7017637D03*
X12032870Y-7052993D03*
X11997515Y-7088348D03*
X11962160Y-7123704D03*
D25*
X11859629Y-7123704D03*
X11824274Y-7088348D03*
X11788918Y-7052993D03*
X11753563Y-7017637D03*
D26*
X11910894Y-6902733D03*
X11974534Y-6966372D03*
X11910894Y-7030012D03*
X11847255Y-6966372D03*
D14*
X12603817Y-11672303D03*
X12711580Y-11780066D03*
D15*
X13235590Y-9892150D03*
X13343353Y-9784387D03*
D14*
X12217118Y-11281118D03*
X12324881Y-11388881D03*
D15*
X13091906Y-9748466D03*
X13199669Y-9640703D03*
D17*
X14940064Y-9943538D03*
X14986042Y-9989517D03*
X15032021Y-10035496D03*
X15077821Y-10081295D03*
X15123620Y-10127095D03*
X15169599Y-10173074D03*
X15215578Y-10219052D03*
D18*
X14819728Y-10614902D03*
X14773749Y-10568923D03*
X14727770Y-10522944D03*
X14681971Y-10477145D03*
X14636172Y-10431346D03*
X14590193Y-10385367D03*
X14544214Y-10339388D03*
D27*
X18556000Y-12556000D03*
X18556000Y-5444000D03*
X11444000Y-12556000D03*
D28*
X12874046Y-10701434D03*
X12909401Y-10736789D03*
X12944757Y-10772144D03*
X12980112Y-10807500D03*
X13015467Y-10842855D03*
D29*
X13026074Y-10902959D03*
X13061429Y-10938314D03*
X13096785Y-10973670D03*
D28*
X13156889Y-10984276D03*
X13192244Y-11019632D03*
X13227599Y-11054987D03*
X13262955Y-11090342D03*
X13298310Y-11125698D03*
D30*
X13245277Y-11228228D03*
X13209922Y-11263583D03*
X13174566Y-11298939D03*
X13139211Y-11334294D03*
D28*
X13036681Y-11387327D03*
X13001325Y-11351972D03*
X12965970Y-11316616D03*
X12930615Y-11281261D03*
X12895259Y-11245906D03*
D29*
X12884653Y-11185802D03*
X12849297Y-11150446D03*
X12813942Y-11115091D03*
D28*
X12753838Y-11104485D03*
X12718482Y-11069129D03*
X12683127Y-11033774D03*
X12647772Y-10998419D03*
X12612416Y-10963063D03*
D30*
X12665449Y-10860533D03*
X12700805Y-10825177D03*
X12736160Y-10789822D03*
X12771515Y-10754467D03*
D31*
X12820659Y-10909677D03*
X13090067Y-11179084D03*
D32*
X12955363Y-11044380D03*
D33*
X15513727Y-12959000D03*
X15703727Y-12959000D03*
X15608727Y-13159000D03*
D34*
X18883605Y-7638711D03*
X18883605Y-7828711D03*
X18683605Y-7733711D03*
X11026000Y-8269000D03*
X11026000Y-8459000D03*
X10826000Y-8364000D03*
D35*
X17331421Y-11388579D03*
X17048579Y-11671421D03*
D14*
X12106505Y-7653599D03*
X12214268Y-7761362D03*
D16*
X12543211Y-6459590D03*
X12435448Y-6567353D03*
D14*
X12253799Y-7503909D03*
X12361562Y-7611672D03*
D16*
X12407511Y-6326590D03*
X12299748Y-6434353D03*
X13443436Y-8925194D03*
X13335673Y-9032957D03*
D15*
X13526591Y-8842038D03*
X13634354Y-8734275D03*
D16*
X14461669Y-9957569D03*
X14353906Y-10065332D03*
D15*
X14551896Y-9867343D03*
X14659659Y-9759580D03*
D21*
X12837648Y-8779852D03*
X12972352Y-8645148D03*
D14*
X12567543Y-6683285D03*
X12675306Y-6791048D03*
D13*
X12194939Y-6315761D03*
X12087176Y-6207998D03*
X12936086Y-7507374D03*
X12828323Y-7399611D03*
D15*
X12250713Y-7210754D03*
X12358476Y-7102991D03*
D16*
X12561676Y-6899791D03*
X12453913Y-7007554D03*
X13745469Y-8845389D03*
X13637706Y-8953152D03*
D15*
X14467043Y-10178470D03*
X14574806Y-10070707D03*
D16*
X14772796Y-9872717D03*
X14665033Y-9980480D03*
D36*
X17568579Y-11141421D03*
X17851421Y-10858579D03*
D27*
X15000000Y-12600000D03*
X15000000Y-5400000D03*
X18600000Y-9000000D03*
X11400000Y-9000000D03*
D15*
X14251278Y-10907838D03*
X14359041Y-10800075D03*
X14106462Y-10765285D03*
X14214225Y-10657522D03*
X12716489Y-11556255D03*
X12824252Y-11448492D03*
X12984143Y-10143597D03*
X13091906Y-10035834D03*
X12447081Y-11279663D03*
X12554844Y-11171900D03*
X12330338Y-11162920D03*
X12438101Y-11055157D03*
X12840459Y-9999913D03*
X12948222Y-9892150D03*
D13*
X12876380Y-9712545D03*
X12768617Y-9604782D03*
X13379274Y-10215439D03*
X13271511Y-10107676D03*
X14394962Y-11231127D03*
X14287199Y-11123364D03*
X13892068Y-10728233D03*
X13784305Y-10620470D03*
D15*
X13999831Y-11159285D03*
X14107594Y-11051522D03*
X12833232Y-11672998D03*
X12940995Y-11565235D03*
D27*
X11444000Y-5444000D03*
D33*
X15518981Y-5843000D03*
X15708981Y-5843000D03*
X15613981Y-6043000D03*
D37*
X15703727Y-12799000D03*
X15513727Y-12799000D03*
X15608727Y-12599000D03*
D38*
X11196000Y-8459000D03*
X11196000Y-8269000D03*
X11396000Y-8364000D03*
X19068305Y-7828711D03*
X19068305Y-7638711D03*
X19268305Y-7733711D03*
D37*
X15711000Y-5688000D03*
X15521000Y-5688000D03*
X15616000Y-5488000D03*
D14*
X12452987Y-7307117D03*
X12560750Y-7414880D03*
X12601479Y-7158624D03*
X12709242Y-7266387D03*
D39*
X16435711Y-10380711D03*
X16294289Y-10239289D03*
X16943211Y-10900711D03*
X16801789Y-10759289D03*
X17110711Y-10770711D03*
X16969289Y-10629289D03*
D16*
X12872092Y-9097908D03*
X12764329Y-9205671D03*
X13808881Y-10183619D03*
X13701118Y-10291382D03*
D14*
X13247908Y-11505408D03*
X13355671Y-11613171D03*
D16*
X12634592Y-11365408D03*
X12526829Y-11473171D03*
D14*
X12542272Y-10523526D03*
X12650035Y-10631289D03*
X14391118Y-9068619D03*
X14498881Y-9176382D03*
X13395408Y-11360408D03*
X13503171Y-11468171D03*
X15423618Y-10091119D03*
X15531381Y-10198882D03*
D16*
X14078881Y-9911119D03*
X13971118Y-10018882D03*
D15*
X14811118Y-11216381D03*
X14918881Y-11108619D03*
D13*
X16558881Y-10788882D03*
X16451118Y-10681119D03*
D14*
X16181118Y-10416119D03*
X16288881Y-10523882D03*
D13*
X11841381Y-6543881D03*
X11733618Y-6436118D03*
D15*
X12098618Y-5931381D03*
X12206381Y-5823618D03*
D14*
X16896119Y-11126119D03*
X17003882Y-11233881D03*
X16700000Y-10930000D03*
X16807763Y-11037763D03*
D15*
X13043618Y-8921382D03*
X13151381Y-8813619D03*
X13856147Y-11015601D03*
X13963910Y-10907838D03*
D40*
X13032825Y-9237825D03*
X13167175Y-9372175D03*
D41*
X13738673Y-9943673D03*
X13604323Y-9809323D03*
D40*
X14637825Y-10817825D03*
X14772175Y-10952175D03*
D41*
X14184675Y-10392175D03*
X14050325Y-10257825D03*
D13*
X14663881Y-7303881D03*
X14556118Y-7196118D03*
D14*
X15446118Y-6306118D03*
X15553881Y-6413881D03*
D16*
X14283881Y-7546118D03*
X14176118Y-7653881D03*
D14*
X15296118Y-8326118D03*
X15403881Y-8433882D03*
D16*
X13123881Y-5193619D03*
X13016118Y-5301382D03*
D13*
X13433881Y-5363882D03*
X13326118Y-5256119D03*
X13723881Y-5771381D03*
X13616118Y-5663618D03*
X14954445Y-6878368D03*
X14846682Y-6770605D03*
D42*
X15282401Y-7438088D03*
X15282401Y-7285688D03*
D16*
X14222589Y-8464126D03*
X14114826Y-8571889D03*
X14718881Y-6358618D03*
X14611118Y-6466381D03*
X15198397Y-6837781D03*
X15090634Y-6945544D03*
D13*
X15213881Y-7878881D03*
X15106118Y-7771118D03*
D16*
X13548881Y-4771119D03*
X13441118Y-4878882D03*
D14*
X13503618Y-5078619D03*
X13611381Y-5186382D03*
X13916118Y-5363619D03*
X14023881Y-5471382D03*
D13*
X15131222Y-6701592D03*
X15023459Y-6593829D03*
D42*
X15470000Y-7436200D03*
X15470000Y-7283800D03*
D16*
X14519574Y-8761111D03*
X14411811Y-8868874D03*
D15*
X19126119Y-10546382D03*
X19233882Y-10438619D03*
D14*
X18819058Y-10377809D03*
X18926821Y-10485572D03*
X18529144Y-9967687D03*
X18636907Y-10075450D03*
X17291119Y-8856119D03*
X17398882Y-8963882D03*
D43*
X16560800Y-8534000D03*
X16713200Y-8534000D03*
D16*
X15242795Y-9479783D03*
X15135032Y-9587546D03*
D15*
X17536119Y-9388882D03*
X17643882Y-9281119D03*
X17051119Y-8896382D03*
X17158882Y-8788619D03*
D13*
X16233881Y-8888882D03*
X16126118Y-8781119D03*
D15*
X18701119Y-10971382D03*
X18808882Y-10863619D03*
D13*
X18750044Y-10662349D03*
X18642281Y-10554586D03*
X18341382Y-10373882D03*
X18233619Y-10266119D03*
D14*
X17118619Y-9031119D03*
X17226382Y-9138882D03*
D43*
X16558800Y-8710000D03*
X16711200Y-8710000D03*
D16*
X15539779Y-9776768D03*
X15432016Y-9884531D03*
D14*
X17591119Y-8451119D03*
X17698882Y-8558882D03*
D15*
X16346118Y-9823882D03*
X16453881Y-9716119D03*
D14*
X15566118Y-8596119D03*
X15673881Y-8703882D03*
D22*
X14577352Y-6977352D03*
X14442648Y-6842648D03*
X15227352Y-6327352D03*
X15092648Y-6192648D03*
D23*
X14197352Y-7872648D03*
X14062648Y-8007352D03*
X15107352Y-8762648D03*
X14972648Y-8897352D03*
D22*
X14327352Y-6727352D03*
X14192648Y-6592648D03*
X14977352Y-6077352D03*
X14842648Y-5942648D03*
D44*
X13982648Y-8182648D03*
X14117352Y-8317352D03*
D22*
X14807352Y-8997352D03*
X14672648Y-8862648D03*
D44*
X14352379Y-6431866D03*
X14487083Y-6566570D03*
D23*
X14976871Y-7671187D03*
X14842167Y-7805891D03*
D45*
X13230325Y-5117175D03*
X13364675Y-4982825D03*
X13575325Y-5462175D03*
X13709675Y-5327825D03*
X14741464Y-6630033D03*
X14875815Y-6495682D03*
X15211690Y-7093187D03*
X15346041Y-6958837D03*
D40*
X15234017Y-7615334D03*
X15368367Y-7749684D03*
D22*
X14819423Y-6234230D03*
X14684719Y-6099526D03*
D21*
X15179694Y-8143418D03*
X15314398Y-8008714D03*
D22*
X17899852Y-9304852D03*
X17765148Y-9170148D03*
D23*
X16002352Y-8682648D03*
X15867648Y-8817352D03*
D46*
X19021432Y-10629680D03*
X18887082Y-10764031D03*
X18682021Y-10283198D03*
X18547670Y-10417548D03*
X17515294Y-9123543D03*
X17380944Y-9257893D03*
X17034675Y-8637825D03*
X16900325Y-8772175D03*
D40*
X16247825Y-8632825D03*
X16382175Y-8767175D03*
D44*
X17432648Y-9502648D03*
X17567352Y-9637352D03*
D21*
X16197648Y-9147352D03*
X16332352Y-9012648D03*
D22*
X18057352Y-9147352D03*
X17922648Y-9012648D03*
D44*
X15692648Y-9882648D03*
X15827352Y-10017352D03*
D22*
X15147352Y-9327352D03*
X15012648Y-9192648D03*
X17817352Y-8907352D03*
X17682648Y-8772648D03*
D21*
X15992648Y-9937352D03*
X16127352Y-9802648D03*
X15102648Y-9027352D03*
X15237352Y-8892648D03*
D13*
X14783881Y-7183881D03*
X14676118Y-7076118D03*
D14*
X15326118Y-6426118D03*
X15433881Y-6533881D03*
D16*
X14403881Y-7666118D03*
X14296118Y-7773881D03*
D15*
X15206118Y-8663882D03*
X15313881Y-8556119D03*
D14*
X17471119Y-8571119D03*
X17578882Y-8678882D03*
D15*
X16226118Y-9703882D03*
X16333881Y-9596119D03*
D16*
X15443881Y-8686119D03*
X15336118Y-8793882D03*
D47*
X14180000Y-5932500D03*
D48*
X13847730Y-5869638D03*
X13937533Y-5779836D03*
X14027336Y-5690033D03*
X14117138Y-5600230D03*
X14512269Y-5995362D03*
X14422467Y-6085164D03*
X14332664Y-6174967D03*
X14242862Y-6264769D03*
D49*
X14676464Y-8298535D03*
D50*
X14739326Y-7966266D03*
X14829129Y-8056069D03*
X14918931Y-8145871D03*
X15008734Y-8235674D03*
X14613603Y-8630805D03*
X14523800Y-8541002D03*
X14433998Y-8451200D03*
X14344195Y-8361397D03*
D51*
X18070000Y-9807500D03*
D52*
X18402270Y-9870362D03*
X18312467Y-9960164D03*
X18222664Y-10049967D03*
X18132862Y-10139770D03*
X17737731Y-9744638D03*
X17827533Y-9654836D03*
X17917336Y-9565033D03*
X18007138Y-9475231D03*
D49*
X15701464Y-9313536D03*
D50*
X15764326Y-8981266D03*
X15854129Y-9071069D03*
X15943931Y-9160871D03*
X16033734Y-9250674D03*
X15638603Y-9645805D03*
X15548800Y-9556002D03*
X15458998Y-9466200D03*
X15369195Y-9376397D03*
D13*
X16933882Y-9323882D03*
X16826119Y-9216119D03*
X16813882Y-9443882D03*
X16706118Y-9336119D03*
D22*
X17407352Y-9797352D03*
X17272648Y-9662648D03*
X17167352Y-9557352D03*
X17032648Y-9422648D03*
M02*
