G04 #@! TF.GenerationSoftware,KiCad,Pcbnew,5.99.0-unknown-43001cae3~104~ubuntu18.04.1*
G04 #@! TF.CreationDate,2020-11-12T23:28:15+01:00*
G04 #@! TF.ProjectId,QFHMIX01C,5146484d-4958-4303-9143-2e6b69636164,REV 0.2*
G04 #@! TF.SameCoordinates,Original*
G04 #@! TF.FileFunction,Soldermask,Top*
G04 #@! TF.FilePolarity,Negative*
%FSLAX45Y45*%
G04 Gerber Fmt 4.5, Leading zero omitted, Abs format (unit mm)*
G04 Created by KiCad (PCBNEW 5.99.0-unknown-43001cae3~104~ubuntu18.04.1) date 2020-11-12 23:28:15*
%MOMM*%
%LPD*%
G01*
G04 APERTURE LIST*
G04 Aperture macros list*
%AMRoundRect*
0 Rectangle with rounded corners*
0 $1 Rounding radius*
0 $2 $3 $4 $5 $6 $7 $8 $9 X,Y pos of 4 corners*
0 Add a 4 corners polygon primitive as box body*
4,1,4,$2,$3,$4,$5,$6,$7,$8,$9,$2,$3,0*
0 Add four circle primitives for the rounded corners*
1,1,$1+$1,$2,$3,0*
1,1,$1+$1,$4,$5,0*
1,1,$1+$1,$6,$7,0*
1,1,$1+$1,$8,$9,0*
0 Add four rect primitives between the rounded corners*
20,1,$1+$1,$2,$3,$4,$5,0*
20,1,$1+$1,$4,$5,$6,$7,0*
20,1,$1+$1,$6,$7,$8,$9,0*
20,1,$1+$1,$8,$9,$2,$3,0*%
G04 Aperture macros list end*
%ADD10C,2.000000*%
%ADD11C,2.900000*%
%ADD12RoundRect,0.200000X0.000000X1.077631X-1.077631X0.000000X0.000000X-1.077631X1.077631X0.000000X0*%
%ADD13C,6.400000*%
G04 APERTURE END LIST*
D10*
X12631949Y-12984497D03*
X12815089Y-12262541D03*
X11015503Y-11368051D03*
X11737459Y-11184910D03*
X12093133Y-12445682D03*
X11554318Y-11906866D03*
D11*
X12992927Y-12892927D03*
X12723519Y-12623519D03*
X12454111Y-12354111D03*
X12184704Y-12084704D03*
X11915296Y-11815296D03*
X11645888Y-11545888D03*
X11376481Y-11276481D03*
X11107073Y-11007073D03*
D12*
X17639408Y-10589803D03*
X17459803Y-10769408D03*
X17459803Y-10410197D03*
X17280197Y-10589803D03*
X17280197Y-10230592D03*
X17100592Y-10410197D03*
D13*
X18556000Y-12556000D03*
X18556000Y-5444000D03*
X11444000Y-12556000D03*
X15000000Y-12600000D03*
X15000000Y-5400000D03*
X18600000Y-9000000D03*
X11400000Y-9000000D03*
X11444000Y-5444000D03*
G36*
X18088205Y-9095109D02*
G01*
X18090302Y-9096799D01*
X18772350Y-9778847D01*
X18775753Y-9785079D01*
X18776041Y-9787757D01*
X18776041Y-9918740D01*
X18774041Y-9925552D01*
X18772350Y-9927650D01*
X18178691Y-10521310D01*
X18172459Y-10524712D01*
X18169781Y-10525000D01*
X18038798Y-10525000D01*
X18031986Y-10523000D01*
X18029888Y-10521310D01*
X17347840Y-9839261D01*
X17344437Y-9833030D01*
X17344150Y-9830352D01*
X17344150Y-9699369D01*
X17346150Y-9692557D01*
X17347840Y-9690459D01*
X17941500Y-9096799D01*
X17947731Y-9093397D01*
X17950409Y-9093109D01*
X18081393Y-9093109D01*
X18088205Y-9095109D01*
G37*
G36*
X15825552Y-8600959D02*
G01*
X15827650Y-8602650D01*
X16421309Y-9196310D01*
X16424712Y-9202541D01*
X16425000Y-9205219D01*
X16425000Y-9336202D01*
X16423000Y-9343015D01*
X16421309Y-9345112D01*
X15739261Y-10027160D01*
X15733030Y-10030563D01*
X15730352Y-10030851D01*
X15599369Y-10030851D01*
X15592556Y-10028850D01*
X15590459Y-10027160D01*
X14996799Y-9433500D01*
X14993397Y-9427269D01*
X14993109Y-9424591D01*
X14993109Y-9293607D01*
X14995109Y-9286795D01*
X14996799Y-9284698D01*
X15678847Y-8602650D01*
X15685079Y-8599247D01*
X15687757Y-8598959D01*
X15818740Y-8598959D01*
X15825552Y-8600959D01*
G37*
G36*
X14800552Y-7575959D02*
G01*
X14802650Y-7577650D01*
X15396309Y-8171309D01*
X15399712Y-8177541D01*
X15400000Y-8180219D01*
X15400000Y-8311202D01*
X15398000Y-8318014D01*
X15396309Y-8320112D01*
X14714261Y-9002160D01*
X14708030Y-9005563D01*
X14705352Y-9005851D01*
X14574369Y-9005851D01*
X14567556Y-9003850D01*
X14565459Y-9002160D01*
X13971799Y-8408500D01*
X13968397Y-8402269D01*
X13968109Y-8399591D01*
X13968109Y-8268607D01*
X13970109Y-8261795D01*
X13971799Y-8259698D01*
X14653847Y-7577650D01*
X14660079Y-7574247D01*
X14662757Y-7573959D01*
X14793740Y-7573959D01*
X14800552Y-7575959D01*
G37*
G36*
X11983395Y-6562381D02*
G01*
X11985492Y-6564071D01*
X12296309Y-6874888D01*
X12299712Y-6881119D01*
X12300000Y-6883798D01*
X12300000Y-7014781D01*
X12298000Y-7021593D01*
X12296309Y-7023690D01*
X11985492Y-7334508D01*
X11979261Y-7337910D01*
X11976583Y-7338198D01*
X11845600Y-7338198D01*
X11838787Y-7336198D01*
X11836690Y-7334508D01*
X11525873Y-7023690D01*
X11522470Y-7017459D01*
X11522182Y-7014781D01*
X11522182Y-6883798D01*
X11524183Y-6876985D01*
X11525873Y-6874888D01*
X11836690Y-6564071D01*
X11842921Y-6560668D01*
X11845600Y-6560381D01*
X11976583Y-6560381D01*
X11983395Y-6562381D01*
G37*
G36*
X14213205Y-5220109D02*
G01*
X14215302Y-5221799D01*
X14897350Y-5903847D01*
X14900753Y-5910079D01*
X14901041Y-5912757D01*
X14901041Y-6043740D01*
X14899041Y-6050552D01*
X14897350Y-6052650D01*
X14303690Y-6646309D01*
X14297459Y-6649712D01*
X14294781Y-6650000D01*
X14163798Y-6650000D01*
X14156985Y-6648000D01*
X14154888Y-6646309D01*
X13472840Y-5964261D01*
X13469437Y-5958030D01*
X13469149Y-5955352D01*
X13469149Y-5824369D01*
X13471150Y-5817556D01*
X13472840Y-5815459D01*
X14066500Y-5221799D01*
X14072731Y-5218397D01*
X14075409Y-5218109D01*
X14206393Y-5218109D01*
X14213205Y-5220109D01*
G37*
G36*
X16684266Y-11125876D02*
G01*
X16688772Y-11128772D01*
X16784091Y-11224090D01*
X16787493Y-11230322D01*
X16786987Y-11237403D01*
X16784091Y-11241909D01*
X16652860Y-11373140D01*
X16651579Y-11375486D01*
X16651579Y-11429178D01*
X16652332Y-11431743D01*
X16706339Y-11485750D01*
X16709742Y-11491982D01*
X16709235Y-11499063D01*
X16706370Y-11503539D01*
X16327074Y-11885442D01*
X16320854Y-11888866D01*
X16317969Y-11889162D01*
X16250915Y-11888286D01*
X16244130Y-11886197D01*
X16241924Y-11884344D01*
X15998852Y-11627276D01*
X15995625Y-11620952D01*
X15996329Y-11613887D01*
X15999097Y-11609709D01*
X16405788Y-11203019D01*
X16412019Y-11199616D01*
X16419101Y-11200123D01*
X16423607Y-11203019D01*
X16480592Y-11260003D01*
X16482938Y-11261284D01*
X16536630Y-11261284D01*
X16539195Y-11260531D01*
X16670953Y-11128772D01*
X16677185Y-11125370D01*
X16684266Y-11125876D01*
G37*
G36*
X16139403Y-10561013D02*
G01*
X16143909Y-10563910D01*
X16239228Y-10659228D01*
X16242630Y-10665459D01*
X16242124Y-10672540D01*
X16239228Y-10677047D01*
X16107997Y-10808277D01*
X16106716Y-10810623D01*
X16106716Y-10864316D01*
X16107469Y-10866880D01*
X16161446Y-10920857D01*
X16164848Y-10927088D01*
X16164342Y-10934170D01*
X16161446Y-10938676D01*
X15748972Y-11351150D01*
X15742069Y-11354679D01*
X15533248Y-11388360D01*
X15526205Y-11387470D01*
X15522333Y-11384830D01*
X15425086Y-11287584D01*
X15421683Y-11281352D01*
X15421468Y-11277325D01*
X15445095Y-11057928D01*
X15447813Y-11051370D01*
X15448713Y-11050368D01*
X15860925Y-10638156D01*
X15867157Y-10634753D01*
X15874238Y-10635260D01*
X15878744Y-10638156D01*
X15935729Y-10695140D01*
X15938075Y-10696421D01*
X15991767Y-10696421D01*
X15994332Y-10695668D01*
X16126090Y-10563910D01*
X16132322Y-10560507D01*
X16139403Y-10561013D01*
G37*
M02*
