G04 #@! TF.GenerationSoftware,KiCad,Pcbnew,5.99.0-unknown-43001cae3~104~ubuntu18.04.1*
G04 #@! TF.CreationDate,2020-11-12T23:28:15+01:00*
G04 #@! TF.ProjectId,QFHMIX01C,5146484d-4958-4303-9143-2e6b69636164,REV 0.2*
G04 #@! TF.SameCoordinates,Original*
G04 #@! TF.FileFunction,Legend,Bot*
G04 #@! TF.FilePolarity,Positive*
%FSLAX45Y45*%
G04 Gerber Fmt 4.5, Leading zero omitted, Abs format (unit mm)*
G04 Created by KiCad (PCBNEW 5.99.0-unknown-43001cae3~104~ubuntu18.04.1) date 2020-11-12 23:28:15*
%MOMM*%
%LPD*%
G01*
G04 APERTURE LIST*
%ADD10C,0.150000*%
%ADD11C,0.120000*%
%ADD12C,0.100000*%
%ADD13C,0.200000*%
%ADD14C,0.500000*%
G04 APERTURE END LIST*
D10*
X12926725Y-6350544D02*
X12880931Y-6358625D01*
X12894400Y-6318219D02*
X12837832Y-6374788D01*
X12859381Y-6396337D01*
X12867463Y-6399031D01*
X12872850Y-6399031D01*
X12880931Y-6396337D01*
X12889013Y-6388256D01*
X12891706Y-6380175D01*
X12891706Y-6374788D01*
X12889013Y-6366706D01*
X12867463Y-6345156D01*
X12937500Y-6436744D02*
X12975212Y-6399031D01*
X12902481Y-6444825D02*
X12929419Y-6390950D01*
X12964437Y-6425969D01*
X13034475Y-6458293D02*
X13002150Y-6425969D01*
X13018312Y-6442131D02*
X12961744Y-6498700D01*
X12964437Y-6485231D01*
X12964437Y-6474456D01*
X12961744Y-6466375D01*
X12484225Y-5833044D02*
X12438431Y-5841125D01*
X12451900Y-5800719D02*
X12395332Y-5857288D01*
X12416881Y-5878837D01*
X12424963Y-5881531D01*
X12430350Y-5881531D01*
X12438431Y-5878837D01*
X12446513Y-5870756D01*
X12449206Y-5862675D01*
X12449206Y-5857288D01*
X12446513Y-5849206D01*
X12424963Y-5827656D01*
X12495000Y-5919244D02*
X12532712Y-5881531D01*
X12459981Y-5927325D02*
X12486919Y-5873450D01*
X12521937Y-5908469D01*
X12516550Y-5978506D02*
X12521937Y-5983893D01*
X12530019Y-5986587D01*
X12535406Y-5986587D01*
X12543487Y-5983893D01*
X12556956Y-5975812D01*
X12570425Y-5962343D01*
X12578506Y-5948875D01*
X12581200Y-5940793D01*
X12581200Y-5935406D01*
X12578506Y-5927325D01*
X12573118Y-5921937D01*
X12565037Y-5919244D01*
X12559650Y-5919244D01*
X12551568Y-5921937D01*
X12538100Y-5930019D01*
X12524631Y-5943487D01*
X12516550Y-5956956D01*
X12513856Y-5965037D01*
X12513856Y-5970425D01*
X12516550Y-5978506D01*
X12044956Y-7279225D02*
X12036875Y-7233431D01*
X12077281Y-7246900D02*
X12020712Y-7190332D01*
X11999162Y-7211881D01*
X11996469Y-7219963D01*
X11996469Y-7225350D01*
X11999162Y-7233431D01*
X12007244Y-7241513D01*
X12015325Y-7244206D01*
X12020712Y-7244206D01*
X12028793Y-7241513D01*
X12050343Y-7219963D01*
X11969531Y-7241513D02*
X11934513Y-7276531D01*
X11974919Y-7279225D01*
X11966837Y-7287306D01*
X11964144Y-7295387D01*
X11964144Y-7300775D01*
X11966837Y-7308856D01*
X11980306Y-7322325D01*
X11988387Y-7325019D01*
X11993775Y-7325019D01*
X12001856Y-7322325D01*
X12018019Y-7306162D01*
X12020712Y-7298081D01*
X12020712Y-7292694D01*
X11964144Y-7360037D02*
X11953369Y-7370812D01*
X11945288Y-7373506D01*
X11939900Y-7373506D01*
X11926431Y-7370812D01*
X11912963Y-7362731D01*
X11891413Y-7341181D01*
X11888719Y-7333100D01*
X11888719Y-7327712D01*
X11891413Y-7319631D01*
X11902188Y-7308856D01*
X11910269Y-7306162D01*
X11915656Y-7306162D01*
X11923738Y-7308856D01*
X11937206Y-7322325D01*
X11939900Y-7330406D01*
X11939900Y-7335793D01*
X11937206Y-7343875D01*
X11926431Y-7354650D01*
X11918350Y-7357343D01*
X11912963Y-7357343D01*
X11904881Y-7354650D01*
X11861956Y-7469225D02*
X11853875Y-7423431D01*
X11894281Y-7436900D02*
X11837712Y-7380332D01*
X11816162Y-7401881D01*
X11813469Y-7409963D01*
X11813469Y-7415350D01*
X11816162Y-7423431D01*
X11824244Y-7431513D01*
X11832325Y-7434206D01*
X11837712Y-7434206D01*
X11845793Y-7431513D01*
X11867343Y-7409963D01*
X11786531Y-7431513D02*
X11751513Y-7466531D01*
X11791919Y-7469225D01*
X11783837Y-7477306D01*
X11781144Y-7485387D01*
X11781144Y-7490775D01*
X11783837Y-7498856D01*
X11797306Y-7512325D01*
X11805387Y-7515019D01*
X11810775Y-7515019D01*
X11818856Y-7512325D01*
X11835019Y-7496162D01*
X11837712Y-7488081D01*
X11837712Y-7482694D01*
X11743431Y-7523100D02*
X11746125Y-7515019D01*
X11746125Y-7509631D01*
X11743431Y-7501550D01*
X11740738Y-7498856D01*
X11732656Y-7496162D01*
X11727269Y-7496162D01*
X11719188Y-7498856D01*
X11708413Y-7509631D01*
X11705719Y-7517712D01*
X11705719Y-7523100D01*
X11708413Y-7531181D01*
X11711106Y-7533875D01*
X11719188Y-7536568D01*
X11724575Y-7536568D01*
X11732656Y-7533875D01*
X11743431Y-7523100D01*
X11751513Y-7520406D01*
X11756900Y-7520406D01*
X11764981Y-7523100D01*
X11775756Y-7533875D01*
X11778450Y-7541956D01*
X11778450Y-7547343D01*
X11775756Y-7555425D01*
X11764981Y-7566200D01*
X11756900Y-7568893D01*
X11751513Y-7568893D01*
X11743431Y-7566200D01*
X11732656Y-7555425D01*
X11729963Y-7547343D01*
X11729963Y-7541956D01*
X11732656Y-7533875D01*
X12169225Y-8098044D02*
X12123431Y-8106125D01*
X12136900Y-8065719D02*
X12080332Y-8122288D01*
X12101881Y-8143838D01*
X12109963Y-8146531D01*
X12115350Y-8146531D01*
X12123431Y-8143838D01*
X12131513Y-8135756D01*
X12134206Y-8127675D01*
X12134206Y-8122288D01*
X12131513Y-8114206D01*
X12109963Y-8092656D01*
X12131513Y-8173469D02*
X12166531Y-8208487D01*
X12169225Y-8168081D01*
X12177306Y-8176162D01*
X12185387Y-8178856D01*
X12190775Y-8178856D01*
X12198856Y-8176162D01*
X12212325Y-8162694D01*
X12215019Y-8154613D01*
X12215019Y-8149225D01*
X12212325Y-8141144D01*
X12196162Y-8124981D01*
X12188081Y-8122288D01*
X12182694Y-8122288D01*
X12185387Y-8227344D02*
X12223100Y-8265056D01*
X12255425Y-8184244D01*
X12242833Y-6573314D02*
X12197039Y-6581395D01*
X12210508Y-6540989D02*
X12153939Y-6597557D01*
X12175489Y-6619107D01*
X12183570Y-6621801D01*
X12188958Y-6621801D01*
X12197039Y-6619107D01*
X12205120Y-6611026D01*
X12207814Y-6602945D01*
X12207814Y-6597557D01*
X12205120Y-6589476D01*
X12183570Y-6567926D01*
X12205120Y-6648738D02*
X12240139Y-6683757D01*
X12242833Y-6643351D01*
X12250914Y-6651432D01*
X12258995Y-6654126D01*
X12264382Y-6654126D01*
X12272464Y-6651432D01*
X12285932Y-6637963D01*
X12288626Y-6629882D01*
X12288626Y-6624495D01*
X12285932Y-6616414D01*
X12269770Y-6600251D01*
X12261689Y-6597557D01*
X12256301Y-6597557D01*
X12288626Y-6732244D02*
X12277851Y-6721469D01*
X12275157Y-6713388D01*
X12275157Y-6708001D01*
X12277851Y-6694532D01*
X12285932Y-6681063D01*
X12307482Y-6659513D01*
X12315564Y-6656820D01*
X12320951Y-6656820D01*
X12329032Y-6659513D01*
X12339807Y-6670288D01*
X12342501Y-6678370D01*
X12342501Y-6683757D01*
X12339807Y-6691838D01*
X12326338Y-6705307D01*
X12318257Y-6708001D01*
X12312870Y-6708001D01*
X12304789Y-6705307D01*
X12294014Y-6694532D01*
X12291320Y-6686451D01*
X12291320Y-6681063D01*
X12294014Y-6672982D01*
X12269225Y-7998044D02*
X12223431Y-8006125D01*
X12236900Y-7965719D02*
X12180332Y-8022288D01*
X12201881Y-8043837D01*
X12209963Y-8046531D01*
X12215350Y-8046531D01*
X12223431Y-8043837D01*
X12231513Y-8035756D01*
X12234206Y-8027675D01*
X12234206Y-8022288D01*
X12231513Y-8014206D01*
X12209963Y-7992656D01*
X12231513Y-8073469D02*
X12266531Y-8108487D01*
X12269225Y-8068081D01*
X12277306Y-8076162D01*
X12285387Y-8078856D01*
X12290775Y-8078856D01*
X12298856Y-8076162D01*
X12312325Y-8062694D01*
X12315019Y-8054612D01*
X12315019Y-8049225D01*
X12312325Y-8041144D01*
X12296162Y-8024981D01*
X12288081Y-8022288D01*
X12282694Y-8022288D01*
X12317712Y-8159668D02*
X12290775Y-8132731D01*
X12315019Y-8103100D01*
X12315019Y-8108487D01*
X12317712Y-8116568D01*
X12331181Y-8130037D01*
X12339262Y-8132731D01*
X12344650Y-8132731D01*
X12352731Y-8130037D01*
X12366200Y-8116568D01*
X12368893Y-8108487D01*
X12368893Y-8103100D01*
X12366200Y-8095019D01*
X12352731Y-8081550D01*
X12344650Y-8078856D01*
X12339262Y-8078856D01*
X13009225Y-7318044D02*
X12963431Y-7326125D01*
X12976900Y-7285719D02*
X12920332Y-7342288D01*
X12941881Y-7363837D01*
X12949963Y-7366531D01*
X12955350Y-7366531D01*
X12963431Y-7363837D01*
X12971513Y-7355756D01*
X12974206Y-7347675D01*
X12974206Y-7342288D01*
X12971513Y-7334206D01*
X12949963Y-7312656D01*
X12971513Y-7393469D02*
X13006531Y-7428487D01*
X13009225Y-7388081D01*
X13017306Y-7396162D01*
X13025387Y-7398856D01*
X13030775Y-7398856D01*
X13038856Y-7396162D01*
X13052325Y-7382694D01*
X13055019Y-7374612D01*
X13055019Y-7369225D01*
X13052325Y-7361144D01*
X13036162Y-7344981D01*
X13028081Y-7342288D01*
X13022694Y-7342288D01*
X13073875Y-7458118D02*
X13111587Y-7420406D01*
X13038856Y-7466200D02*
X13065793Y-7412325D01*
X13100812Y-7447343D01*
X16022122Y-11415922D02*
X16067915Y-11461716D01*
X16070609Y-11469797D01*
X16070609Y-11475184D01*
X16067915Y-11483266D01*
X16057140Y-11494041D01*
X16049059Y-11496734D01*
X16043672Y-11496734D01*
X16035590Y-11494041D01*
X15989797Y-11448247D01*
X16016734Y-11534447D02*
X16005959Y-11545222D01*
X15997878Y-11547915D01*
X15992491Y-11547915D01*
X15979022Y-11545222D01*
X15965553Y-11537140D01*
X15944003Y-11515590D01*
X15941310Y-11507509D01*
X15941310Y-11502122D01*
X15944003Y-11494041D01*
X15954778Y-11483266D01*
X15962859Y-11480572D01*
X15968247Y-11480572D01*
X15976328Y-11483266D01*
X15989797Y-11496734D01*
X15992491Y-11504815D01*
X15992491Y-11510203D01*
X15989797Y-11518284D01*
X15979022Y-11529059D01*
X15970941Y-11531753D01*
X15965553Y-11531753D01*
X15957472Y-11529059D01*
X15482122Y-10865922D02*
X15527915Y-10911716D01*
X15530609Y-10919797D01*
X15530609Y-10925184D01*
X15527915Y-10933266D01*
X15517140Y-10944041D01*
X15509059Y-10946734D01*
X15503672Y-10946734D01*
X15495590Y-10944041D01*
X15449797Y-10898247D01*
X15439022Y-10957509D02*
X15441716Y-10949428D01*
X15441716Y-10944041D01*
X15439022Y-10935959D01*
X15436328Y-10933266D01*
X15428247Y-10930572D01*
X15422859Y-10930572D01*
X15414778Y-10933266D01*
X15404003Y-10944041D01*
X15401310Y-10952122D01*
X15401310Y-10957509D01*
X15404003Y-10965591D01*
X15406697Y-10968284D01*
X15414778Y-10970978D01*
X15420166Y-10970978D01*
X15428247Y-10968284D01*
X15439022Y-10957509D01*
X15447103Y-10954816D01*
X15452491Y-10954816D01*
X15460572Y-10957509D01*
X15471347Y-10968284D01*
X15474041Y-10976365D01*
X15474041Y-10981753D01*
X15471347Y-10989834D01*
X15460572Y-11000609D01*
X15452491Y-11003303D01*
X15447103Y-11003303D01*
X15439022Y-11000609D01*
X15428247Y-10989834D01*
X15425553Y-10981753D01*
X15425553Y-10976365D01*
X15428247Y-10968284D01*
X11811956Y-6054225D02*
X11838893Y-6027288D01*
X11782325Y-5970719D01*
X11744612Y-6019206D02*
X11739225Y-6019206D01*
X11731144Y-6021900D01*
X11717675Y-6035369D01*
X11714981Y-6043450D01*
X11714981Y-6048837D01*
X11717675Y-6056919D01*
X11723062Y-6062306D01*
X11733837Y-6067694D01*
X11798487Y-6067694D01*
X11763469Y-6102712D01*
X11709594Y-6156587D02*
X11741919Y-6124262D01*
X11725756Y-6140425D02*
X11669188Y-6083856D01*
X11682656Y-6086550D01*
X11693431Y-6086550D01*
X11701513Y-6083856D01*
X15618650Y-11653169D02*
X15591712Y-11626231D01*
X15535144Y-11682800D01*
X15583631Y-11720512D02*
X15583631Y-11725900D01*
X15586325Y-11733981D01*
X15599794Y-11747450D01*
X15607875Y-11750144D01*
X15613262Y-11750144D01*
X15621343Y-11747450D01*
X15626731Y-11742062D01*
X15632118Y-11731287D01*
X15632118Y-11666638D01*
X15667137Y-11701656D01*
X15645587Y-11793243D02*
X15650975Y-11798631D01*
X15659056Y-11801325D01*
X15664443Y-11801325D01*
X15672525Y-11798631D01*
X15685993Y-11790550D01*
X15699462Y-11777081D01*
X15707543Y-11763612D01*
X15710237Y-11755531D01*
X15710237Y-11750144D01*
X15707543Y-11742062D01*
X15702156Y-11736675D01*
X15694074Y-11733981D01*
X15688687Y-11733981D01*
X15680606Y-11736675D01*
X15667137Y-11744756D01*
X15653668Y-11758225D01*
X15645587Y-11771693D01*
X15642893Y-11779775D01*
X15642893Y-11785162D01*
X15645587Y-11793243D01*
X15374956Y-11260225D02*
X15401893Y-11233288D01*
X15345325Y-11176719D01*
X15326469Y-11308712D02*
X15358793Y-11276387D01*
X15342631Y-11292550D02*
X15286062Y-11235981D01*
X15299531Y-11238675D01*
X15310306Y-11238675D01*
X15318387Y-11235981D01*
X15299531Y-11335650D02*
X15288756Y-11346425D01*
X15280675Y-11349118D01*
X15275288Y-11349118D01*
X15261819Y-11346425D01*
X15248350Y-11338343D01*
X15226800Y-11316793D01*
X15224106Y-11308712D01*
X15224106Y-11303325D01*
X15226800Y-11295244D01*
X15237575Y-11284469D01*
X15245656Y-11281775D01*
X15251044Y-11281775D01*
X15259125Y-11284469D01*
X15272594Y-11297937D01*
X15275288Y-11306019D01*
X15275288Y-11311406D01*
X15272594Y-11319487D01*
X15261819Y-11330262D01*
X15253738Y-11332956D01*
X15248350Y-11332956D01*
X15240269Y-11330262D01*
X13471956Y-8749225D02*
X13463875Y-8703431D01*
X13504281Y-8716900D02*
X13447712Y-8660332D01*
X13426162Y-8681882D01*
X13423469Y-8689963D01*
X13423469Y-8695350D01*
X13426162Y-8703431D01*
X13434244Y-8711513D01*
X13442325Y-8714206D01*
X13447712Y-8714206D01*
X13455793Y-8711513D01*
X13477343Y-8689963D01*
X13399225Y-8719594D02*
X13393837Y-8719594D01*
X13385756Y-8722288D01*
X13372288Y-8735756D01*
X13369594Y-8743838D01*
X13369594Y-8749225D01*
X13372288Y-8757306D01*
X13377675Y-8762694D01*
X13388450Y-8768081D01*
X13453100Y-8768081D01*
X13418081Y-8803100D01*
X13353431Y-8803100D02*
X13356125Y-8795019D01*
X13356125Y-8789631D01*
X13353431Y-8781550D01*
X13350738Y-8778856D01*
X13342656Y-8776162D01*
X13337269Y-8776162D01*
X13329188Y-8778856D01*
X13318413Y-8789631D01*
X13315719Y-8797712D01*
X13315719Y-8803100D01*
X13318413Y-8811181D01*
X13321106Y-8813875D01*
X13329188Y-8816569D01*
X13334575Y-8816569D01*
X13342656Y-8813875D01*
X13353431Y-8803100D01*
X13361513Y-8800406D01*
X13366900Y-8800406D01*
X13374981Y-8803100D01*
X13385756Y-8813875D01*
X13388450Y-8821956D01*
X13388450Y-8827344D01*
X13385756Y-8835425D01*
X13374981Y-8846200D01*
X13366900Y-8848893D01*
X13361513Y-8848893D01*
X13353431Y-8846200D01*
X13342656Y-8835425D01*
X13339963Y-8827344D01*
X13339963Y-8821956D01*
X13342656Y-8813875D01*
X11608354Y-7128838D02*
X11654147Y-7083045D01*
X11662228Y-7080351D01*
X11667616Y-7080351D01*
X11675697Y-7083045D01*
X11686472Y-7093820D01*
X11689166Y-7101901D01*
X11689166Y-7107288D01*
X11686472Y-7115370D01*
X11640679Y-7161163D01*
X11753816Y-7161163D02*
X11721491Y-7128838D01*
X11737653Y-7145001D02*
X11681085Y-7201569D01*
X11683778Y-7188101D01*
X11683778Y-7177326D01*
X11681085Y-7169244D01*
X11732266Y-7252750D02*
X11737653Y-7258138D01*
X11745734Y-7260832D01*
X11751122Y-7260832D01*
X11759203Y-7258138D01*
X11772672Y-7250057D01*
X11786140Y-7236588D01*
X11794222Y-7223119D01*
X11796915Y-7215038D01*
X11796915Y-7209651D01*
X11794222Y-7201569D01*
X11788834Y-7196182D01*
X11780753Y-7193488D01*
X11775366Y-7193488D01*
X11767284Y-7196182D01*
X11753816Y-7204263D01*
X11740347Y-7217732D01*
X11732266Y-7231200D01*
X11729572Y-7239282D01*
X11729572Y-7244669D01*
X11732266Y-7252750D01*
X12533773Y-11763431D02*
X12533773Y-11758044D01*
X12528385Y-11747269D01*
X12522998Y-11741881D01*
X12512223Y-11736494D01*
X12501448Y-11736494D01*
X12493367Y-11739188D01*
X12479898Y-11747269D01*
X12471817Y-11755350D01*
X12463736Y-11768819D01*
X12461042Y-11776900D01*
X12461042Y-11787675D01*
X12466429Y-11798450D01*
X12471817Y-11803837D01*
X12482592Y-11809225D01*
X12487979Y-11809225D01*
X12501448Y-11833469D02*
X12536467Y-11868487D01*
X12539160Y-11828081D01*
X12547242Y-11836162D01*
X12555323Y-11838856D01*
X12560710Y-11838856D01*
X12568792Y-11836162D01*
X12582260Y-11822694D01*
X12584954Y-11814612D01*
X12584954Y-11809225D01*
X12582260Y-11801144D01*
X12566098Y-11784981D01*
X12558017Y-11782288D01*
X12552629Y-11782288D01*
X12571485Y-11903506D02*
X12576873Y-11908893D01*
X12584954Y-11911587D01*
X12590342Y-11911587D01*
X12598423Y-11908893D01*
X12611891Y-11900812D01*
X12625360Y-11887343D01*
X12633441Y-11873875D01*
X12636135Y-11865793D01*
X12636135Y-11860406D01*
X12633441Y-11852325D01*
X12628054Y-11846937D01*
X12619973Y-11844244D01*
X12614585Y-11844244D01*
X12606504Y-11846937D01*
X12593035Y-11855019D01*
X12579567Y-11868487D01*
X12571485Y-11881956D01*
X12568792Y-11890037D01*
X12568792Y-11895425D01*
X12571485Y-11903506D01*
X13536568Y-9623838D02*
X13541956Y-9623838D01*
X13552731Y-9618450D01*
X13558118Y-9613063D01*
X13563506Y-9602288D01*
X13563506Y-9591513D01*
X13560812Y-9583431D01*
X13552731Y-9569963D01*
X13544650Y-9561882D01*
X13531181Y-9553800D01*
X13523100Y-9551107D01*
X13512325Y-9551107D01*
X13501550Y-9556494D01*
X13496162Y-9561882D01*
X13490775Y-9572656D01*
X13490775Y-9578044D01*
X13469225Y-9599594D02*
X13463837Y-9599594D01*
X13455756Y-9602288D01*
X13442288Y-9615756D01*
X13439594Y-9623838D01*
X13439594Y-9629225D01*
X13442288Y-9637306D01*
X13447675Y-9642694D01*
X13458450Y-9648081D01*
X13523100Y-9648081D01*
X13488081Y-9683100D01*
X13423431Y-9683100D02*
X13426125Y-9675019D01*
X13426125Y-9669631D01*
X13423431Y-9661550D01*
X13420738Y-9658856D01*
X13412656Y-9656162D01*
X13407269Y-9656162D01*
X13399188Y-9658856D01*
X13388413Y-9669631D01*
X13385719Y-9677712D01*
X13385719Y-9683100D01*
X13388413Y-9691181D01*
X13391106Y-9693875D01*
X13399188Y-9696569D01*
X13404575Y-9696569D01*
X13412656Y-9693875D01*
X13423431Y-9683100D01*
X13431513Y-9680406D01*
X13436900Y-9680406D01*
X13444981Y-9683100D01*
X13455756Y-9693875D01*
X13458450Y-9701956D01*
X13458450Y-9707344D01*
X13455756Y-9715425D01*
X13444981Y-9726200D01*
X13436900Y-9728893D01*
X13431513Y-9728893D01*
X13423431Y-9726200D01*
X13412656Y-9715425D01*
X13409963Y-9707344D01*
X13409963Y-9701956D01*
X13412656Y-9693875D01*
X12143837Y-11383431D02*
X12143837Y-11378044D01*
X12138450Y-11367269D01*
X12133062Y-11361882D01*
X12122288Y-11356494D01*
X12111513Y-11356494D01*
X12103431Y-11359188D01*
X12089963Y-11367269D01*
X12081881Y-11375350D01*
X12073800Y-11388819D01*
X12071106Y-11396900D01*
X12071106Y-11407675D01*
X12076494Y-11418450D01*
X12081881Y-11423838D01*
X12092656Y-11429225D01*
X12098044Y-11429225D01*
X12119594Y-11450775D02*
X12119594Y-11456162D01*
X12122288Y-11464244D01*
X12135756Y-11477712D01*
X12143837Y-11480406D01*
X12149225Y-11480406D01*
X12157306Y-11477712D01*
X12162694Y-11472325D01*
X12168081Y-11461550D01*
X12168081Y-11396900D01*
X12203100Y-11431919D01*
X12165387Y-11507344D02*
X12203100Y-11545056D01*
X12235425Y-11464244D01*
X13416568Y-9523838D02*
X13421956Y-9523838D01*
X13432731Y-9518450D01*
X13438118Y-9513063D01*
X13443506Y-9502288D01*
X13443506Y-9491513D01*
X13440812Y-9483431D01*
X13432731Y-9469963D01*
X13424650Y-9461882D01*
X13411181Y-9453800D01*
X13403100Y-9451107D01*
X13392325Y-9451107D01*
X13381550Y-9456494D01*
X13376162Y-9461882D01*
X13370775Y-9472656D01*
X13370775Y-9478044D01*
X13349225Y-9499594D02*
X13343837Y-9499594D01*
X13335756Y-9502288D01*
X13322288Y-9515756D01*
X13319594Y-9523838D01*
X13319594Y-9529225D01*
X13322288Y-9537306D01*
X13327675Y-9542694D01*
X13338450Y-9548081D01*
X13403100Y-9548081D01*
X13368081Y-9583100D01*
X13314206Y-9636975D02*
X13346531Y-9604650D01*
X13330369Y-9620812D02*
X13273800Y-9564244D01*
X13287269Y-9566937D01*
X13298044Y-9566937D01*
X13306125Y-9564244D01*
X12943922Y-10645878D02*
X12989716Y-10600085D01*
X12997797Y-10597391D01*
X13003184Y-10597391D01*
X13011266Y-10600085D01*
X13022041Y-10610860D01*
X13024734Y-10618941D01*
X13024734Y-10624328D01*
X13022041Y-10632409D01*
X12976247Y-10678203D01*
X13046284Y-10710528D02*
X13083997Y-10672816D01*
X13011266Y-10718609D02*
X13038203Y-10664734D01*
X13073222Y-10699753D01*
X15905309Y-12982371D02*
X15805309Y-12982371D01*
X15805309Y-13006181D01*
X15810071Y-13020466D01*
X15819595Y-13029990D01*
X15829119Y-13034752D01*
X15848166Y-13039514D01*
X15862452Y-13039514D01*
X15881500Y-13034752D01*
X15891023Y-13029990D01*
X15900547Y-13020466D01*
X15905309Y-13006181D01*
X15905309Y-12982371D01*
X15805309Y-13125228D02*
X15805309Y-13106181D01*
X15810071Y-13096657D01*
X15814833Y-13091895D01*
X15829119Y-13082371D01*
X15848166Y-13077609D01*
X15886261Y-13077609D01*
X15895785Y-13082371D01*
X15900547Y-13087133D01*
X15905309Y-13096657D01*
X15905309Y-13115704D01*
X15900547Y-13125228D01*
X15895785Y-13129990D01*
X15886261Y-13134752D01*
X15862452Y-13134752D01*
X15852928Y-13129990D01*
X15848166Y-13125228D01*
X15843404Y-13115704D01*
X15843404Y-13096657D01*
X15848166Y-13087133D01*
X15852928Y-13082371D01*
X15862452Y-13077609D01*
X18924495Y-7424663D02*
X18844495Y-7424663D01*
X18844495Y-7443711D01*
X18848305Y-7455139D01*
X18855924Y-7462758D01*
X18863543Y-7466568D01*
X18878781Y-7470377D01*
X18890209Y-7470377D01*
X18905447Y-7466568D01*
X18913066Y-7462758D01*
X18920685Y-7455139D01*
X18924495Y-7443711D01*
X18924495Y-7424663D01*
X18844495Y-7497044D02*
X18844495Y-7546568D01*
X18874971Y-7519901D01*
X18874971Y-7531330D01*
X18878781Y-7538949D01*
X18882590Y-7542758D01*
X18890209Y-7546568D01*
X18909257Y-7546568D01*
X18916876Y-7542758D01*
X18920685Y-7538949D01*
X18924495Y-7531330D01*
X18924495Y-7508473D01*
X18920685Y-7500853D01*
X18916876Y-7497044D01*
X11080048Y-8640190D02*
X11080048Y-8560190D01*
X11061000Y-8560190D01*
X11049571Y-8564000D01*
X11041952Y-8571619D01*
X11038143Y-8579238D01*
X11034333Y-8594476D01*
X11034333Y-8605905D01*
X11038143Y-8621143D01*
X11041952Y-8628762D01*
X11049571Y-8636381D01*
X11061000Y-8640190D01*
X11080048Y-8640190D01*
X10961952Y-8560190D02*
X11000048Y-8560190D01*
X11003857Y-8598286D01*
X11000048Y-8594476D01*
X10992429Y-8590667D01*
X10973381Y-8590667D01*
X10965762Y-8594476D01*
X10961952Y-8598286D01*
X10958143Y-8605905D01*
X10958143Y-8624952D01*
X10961952Y-8632571D01*
X10965762Y-8636381D01*
X10973381Y-8640190D01*
X10992429Y-8640190D01*
X11000048Y-8636381D01*
X11003857Y-8632571D01*
X17462773Y-11675690D02*
X17406204Y-11619121D01*
X17392735Y-11632590D01*
X17387348Y-11643365D01*
X17387348Y-11654140D01*
X17390042Y-11662221D01*
X17398123Y-11675690D01*
X17406204Y-11683771D01*
X17419673Y-11691852D01*
X17427754Y-11694546D01*
X17438529Y-11694546D01*
X17449304Y-11689159D01*
X17462773Y-11675690D01*
X17357717Y-11678384D02*
X17352329Y-11678384D01*
X17344248Y-11681077D01*
X17330779Y-11694546D01*
X17328085Y-11702627D01*
X17328085Y-11708015D01*
X17330779Y-11716096D01*
X17336167Y-11721483D01*
X17346942Y-11726871D01*
X17411591Y-11726871D01*
X17376573Y-11761890D01*
X11923837Y-7843431D02*
X11923837Y-7838044D01*
X11918450Y-7827269D01*
X11913062Y-7821881D01*
X11902288Y-7816494D01*
X11891513Y-7816494D01*
X11883431Y-7819188D01*
X11869963Y-7827269D01*
X11861881Y-7835350D01*
X11853800Y-7848819D01*
X11851106Y-7856900D01*
X11851106Y-7867675D01*
X11856494Y-7878450D01*
X11861881Y-7883837D01*
X11872656Y-7889225D01*
X11878044Y-7889225D01*
X11921144Y-7943100D02*
X11910369Y-7932325D01*
X11907675Y-7924244D01*
X11907675Y-7918856D01*
X11910369Y-7905387D01*
X11918450Y-7891919D01*
X11940000Y-7870369D01*
X11948081Y-7867675D01*
X11953469Y-7867675D01*
X11961550Y-7870369D01*
X11972325Y-7881144D01*
X11975019Y-7889225D01*
X11975019Y-7894612D01*
X11972325Y-7902694D01*
X11958856Y-7916162D01*
X11950775Y-7918856D01*
X11945387Y-7918856D01*
X11937306Y-7916162D01*
X11926531Y-7905387D01*
X11923837Y-7897306D01*
X11923837Y-7891919D01*
X11926531Y-7883837D01*
X11975019Y-7996975D02*
X11964244Y-7986200D01*
X11961550Y-7978118D01*
X11961550Y-7972731D01*
X11964244Y-7959262D01*
X11972325Y-7945793D01*
X11993875Y-7924244D01*
X12001956Y-7921550D01*
X12007343Y-7921550D01*
X12015425Y-7924244D01*
X12026200Y-7935019D01*
X12028893Y-7943100D01*
X12028893Y-7948487D01*
X12026200Y-7956568D01*
X12012731Y-7970037D01*
X12004650Y-7972731D01*
X11999262Y-7972731D01*
X11991181Y-7970037D01*
X11980406Y-7959262D01*
X11977712Y-7951181D01*
X11977712Y-7945793D01*
X11980406Y-7937712D01*
X12736568Y-6323837D02*
X12741956Y-6323837D01*
X12752731Y-6318450D01*
X12758118Y-6313062D01*
X12763506Y-6302288D01*
X12763506Y-6291513D01*
X12760812Y-6283431D01*
X12752731Y-6269963D01*
X12744650Y-6261881D01*
X12731181Y-6253800D01*
X12723100Y-6251106D01*
X12712325Y-6251106D01*
X12701550Y-6256494D01*
X12696162Y-6261881D01*
X12690775Y-6272656D01*
X12690775Y-6278044D01*
X12636900Y-6321144D02*
X12647675Y-6310369D01*
X12655756Y-6307675D01*
X12661144Y-6307675D01*
X12674612Y-6310369D01*
X12688081Y-6318450D01*
X12709631Y-6340000D01*
X12712325Y-6348081D01*
X12712325Y-6353469D01*
X12709631Y-6361550D01*
X12698856Y-6372325D01*
X12690775Y-6375019D01*
X12685387Y-6375019D01*
X12677306Y-6372325D01*
X12663837Y-6358856D01*
X12661144Y-6350775D01*
X12661144Y-6345387D01*
X12663837Y-6337306D01*
X12674612Y-6326531D01*
X12682694Y-6323837D01*
X12688081Y-6323837D01*
X12696162Y-6326531D01*
X12580332Y-6377712D02*
X12607269Y-6350775D01*
X12636900Y-6375019D01*
X12631513Y-6375019D01*
X12623431Y-6377712D01*
X12609963Y-6391181D01*
X12607269Y-6399262D01*
X12607269Y-6404650D01*
X12609963Y-6412731D01*
X12623431Y-6426200D01*
X12631513Y-6428893D01*
X12636900Y-6428893D01*
X12644981Y-6426200D01*
X12658450Y-6412731D01*
X12661144Y-6404650D01*
X12661144Y-6399262D01*
X12023837Y-7763431D02*
X12023837Y-7758044D01*
X12018450Y-7747269D01*
X12013062Y-7741881D01*
X12002288Y-7736494D01*
X11991513Y-7736494D01*
X11983431Y-7739188D01*
X11969963Y-7747269D01*
X11961881Y-7755350D01*
X11953800Y-7768819D01*
X11951106Y-7776900D01*
X11951106Y-7787675D01*
X11956494Y-7798450D01*
X11961881Y-7803837D01*
X11972656Y-7809225D01*
X11978044Y-7809225D01*
X12021144Y-7863100D02*
X12010369Y-7852325D01*
X12007675Y-7844244D01*
X12007675Y-7838856D01*
X12010369Y-7825387D01*
X12018450Y-7811919D01*
X12040000Y-7790369D01*
X12048081Y-7787675D01*
X12053469Y-7787675D01*
X12061550Y-7790369D01*
X12072325Y-7801144D01*
X12075019Y-7809225D01*
X12075019Y-7814612D01*
X12072325Y-7822694D01*
X12058856Y-7836162D01*
X12050775Y-7838856D01*
X12045387Y-7838856D01*
X12037306Y-7836162D01*
X12026531Y-7825387D01*
X12023837Y-7817306D01*
X12023837Y-7811919D01*
X12026531Y-7803837D01*
X12093875Y-7898118D02*
X12131587Y-7860406D01*
X12058856Y-7906200D02*
X12085793Y-7852325D01*
X12120812Y-7887343D01*
X12596568Y-6183837D02*
X12601956Y-6183837D01*
X12612731Y-6178450D01*
X12618118Y-6173062D01*
X12623506Y-6162288D01*
X12623506Y-6151513D01*
X12620812Y-6143431D01*
X12612731Y-6129963D01*
X12604650Y-6121881D01*
X12591181Y-6113800D01*
X12583100Y-6111106D01*
X12572325Y-6111106D01*
X12561550Y-6116494D01*
X12556162Y-6121881D01*
X12550775Y-6132656D01*
X12550775Y-6138044D01*
X12496900Y-6181144D02*
X12507675Y-6170369D01*
X12515756Y-6167675D01*
X12521144Y-6167675D01*
X12534612Y-6170369D01*
X12548081Y-6178450D01*
X12569631Y-6200000D01*
X12572325Y-6208081D01*
X12572325Y-6213469D01*
X12569631Y-6221550D01*
X12558856Y-6232325D01*
X12550775Y-6235019D01*
X12545387Y-6235019D01*
X12537306Y-6232325D01*
X12523837Y-6218856D01*
X12521144Y-6210775D01*
X12521144Y-6205387D01*
X12523837Y-6197306D01*
X12534612Y-6186531D01*
X12542694Y-6183837D01*
X12548081Y-6183837D01*
X12556162Y-6186531D01*
X12472656Y-6205387D02*
X12437638Y-6240406D01*
X12478044Y-6243100D01*
X12469963Y-6251181D01*
X12467269Y-6259262D01*
X12467269Y-6264650D01*
X12469963Y-6272731D01*
X12483431Y-6286200D01*
X12491513Y-6288893D01*
X12496900Y-6288893D01*
X12504981Y-6286200D01*
X12521144Y-6270037D01*
X12523837Y-6261956D01*
X12523837Y-6256568D01*
X13341956Y-8609225D02*
X13333875Y-8563431D01*
X13374281Y-8576900D02*
X13317712Y-8520332D01*
X13296162Y-8541882D01*
X13293469Y-8549963D01*
X13293469Y-8555350D01*
X13296162Y-8563431D01*
X13304244Y-8571513D01*
X13312325Y-8574206D01*
X13317712Y-8574206D01*
X13325793Y-8571513D01*
X13347343Y-8549963D01*
X13255756Y-8620000D02*
X13293469Y-8657712D01*
X13247675Y-8584981D02*
X13301550Y-8611919D01*
X13266531Y-8646937D01*
X13180332Y-8657712D02*
X13207269Y-8630775D01*
X13236900Y-8655019D01*
X13231513Y-8655019D01*
X13223431Y-8657712D01*
X13209963Y-8671181D01*
X13207269Y-8679262D01*
X13207269Y-8684650D01*
X13209963Y-8692731D01*
X13223431Y-8706200D01*
X13231513Y-8708893D01*
X13236900Y-8708893D01*
X13244981Y-8706200D01*
X13258450Y-8692731D01*
X13261144Y-8684650D01*
X13261144Y-8679262D01*
X13641956Y-8509225D02*
X13633875Y-8463431D01*
X13674281Y-8476900D02*
X13617712Y-8420332D01*
X13596162Y-8441882D01*
X13593469Y-8449963D01*
X13593469Y-8455350D01*
X13596162Y-8463431D01*
X13604244Y-8471513D01*
X13612325Y-8474206D01*
X13617712Y-8474206D01*
X13625793Y-8471513D01*
X13647343Y-8449963D01*
X13555756Y-8520000D02*
X13593469Y-8557712D01*
X13547675Y-8484981D02*
X13601550Y-8511919D01*
X13566531Y-8546937D01*
X13501881Y-8573875D02*
X13539594Y-8611587D01*
X13493800Y-8538856D02*
X13547675Y-8565794D01*
X13512656Y-8600812D01*
X14321956Y-9669225D02*
X14313875Y-9623431D01*
X14354281Y-9636900D02*
X14297712Y-9580332D01*
X14276162Y-9601882D01*
X14273469Y-9609963D01*
X14273469Y-9615350D01*
X14276162Y-9623431D01*
X14284244Y-9631513D01*
X14292325Y-9634206D01*
X14297712Y-9634206D01*
X14305793Y-9631513D01*
X14327343Y-9609963D01*
X14235756Y-9680000D02*
X14273469Y-9717712D01*
X14227675Y-9644981D02*
X14281550Y-9671919D01*
X14246531Y-9706937D01*
X14192656Y-9685387D02*
X14157638Y-9720406D01*
X14198044Y-9723100D01*
X14189963Y-9731181D01*
X14187269Y-9739262D01*
X14187269Y-9744650D01*
X14189963Y-9752731D01*
X14203431Y-9766200D01*
X14211513Y-9768893D01*
X14216900Y-9768893D01*
X14224981Y-9766200D01*
X14241144Y-9750037D01*
X14243837Y-9741956D01*
X14243837Y-9736569D01*
X14821956Y-9599225D02*
X14813875Y-9553431D01*
X14854281Y-9566900D02*
X14797712Y-9510332D01*
X14776162Y-9531882D01*
X14773469Y-9539963D01*
X14773469Y-9545350D01*
X14776162Y-9553431D01*
X14784244Y-9561513D01*
X14792325Y-9564206D01*
X14797712Y-9564206D01*
X14805793Y-9561513D01*
X14827343Y-9539963D01*
X14735756Y-9610000D02*
X14773469Y-9647712D01*
X14727675Y-9574981D02*
X14781550Y-9601919D01*
X14746531Y-9636937D01*
X14695350Y-9623469D02*
X14689963Y-9623469D01*
X14681881Y-9626162D01*
X14668413Y-9639631D01*
X14665719Y-9647712D01*
X14665719Y-9653100D01*
X14668413Y-9661181D01*
X14673800Y-9666569D01*
X14684575Y-9671956D01*
X14749225Y-9671956D01*
X14714206Y-9706975D01*
X12821956Y-8609225D02*
X12848893Y-8582288D01*
X12792325Y-8525719D01*
X12754612Y-8574206D02*
X12749225Y-8574206D01*
X12741144Y-8576900D01*
X12727675Y-8590369D01*
X12724981Y-8598450D01*
X12724981Y-8603838D01*
X12727675Y-8611919D01*
X12733062Y-8617306D01*
X12743837Y-8622694D01*
X12808487Y-8622694D01*
X12773469Y-8657712D01*
X12700738Y-8628081D02*
X12695350Y-8628081D01*
X12687269Y-8630775D01*
X12673800Y-8644244D01*
X12671106Y-8652325D01*
X12671106Y-8657712D01*
X12673800Y-8665794D01*
X12679188Y-8671181D01*
X12689963Y-8676569D01*
X12754612Y-8676569D01*
X12719594Y-8711587D01*
X12839225Y-6450544D02*
X12793431Y-6458625D01*
X12806900Y-6418219D02*
X12750332Y-6474788D01*
X12771881Y-6496337D01*
X12779963Y-6499031D01*
X12785350Y-6499031D01*
X12793431Y-6496337D01*
X12801513Y-6488256D01*
X12804206Y-6480175D01*
X12804206Y-6474788D01*
X12801513Y-6466706D01*
X12779963Y-6445156D01*
X12801513Y-6525969D02*
X12836531Y-6560987D01*
X12839225Y-6520581D01*
X12847306Y-6528662D01*
X12855387Y-6531356D01*
X12860775Y-6531356D01*
X12868856Y-6528662D01*
X12882325Y-6515194D01*
X12885019Y-6507112D01*
X12885019Y-6501725D01*
X12882325Y-6493644D01*
X12866162Y-6477481D01*
X12858081Y-6474788D01*
X12852694Y-6474788D01*
X12855387Y-6579843D02*
X12890406Y-6614862D01*
X12893100Y-6574456D01*
X12901181Y-6582537D01*
X12909262Y-6585231D01*
X12914650Y-6585231D01*
X12922731Y-6582537D01*
X12936200Y-6569068D01*
X12938893Y-6560987D01*
X12938893Y-6555600D01*
X12936200Y-6547519D01*
X12920037Y-6531356D01*
X12911956Y-6528662D01*
X12906568Y-6528662D01*
X12409225Y-5913044D02*
X12363431Y-5921125D01*
X12376900Y-5880719D02*
X12320332Y-5937288D01*
X12341881Y-5958837D01*
X12349963Y-5961531D01*
X12355350Y-5961531D01*
X12363431Y-5958837D01*
X12371513Y-5950756D01*
X12374206Y-5942675D01*
X12374206Y-5937288D01*
X12371513Y-5929206D01*
X12349963Y-5907656D01*
X12371513Y-5988469D02*
X12406531Y-6023487D01*
X12409225Y-5983081D01*
X12417306Y-5991162D01*
X12425387Y-5993856D01*
X12430775Y-5993856D01*
X12438856Y-5991162D01*
X12452325Y-5977694D01*
X12455019Y-5969612D01*
X12455019Y-5964225D01*
X12452325Y-5956144D01*
X12436162Y-5939981D01*
X12428081Y-5937288D01*
X12422694Y-5937288D01*
X12433469Y-6039650D02*
X12433469Y-6045037D01*
X12436162Y-6053118D01*
X12449631Y-6066587D01*
X12457712Y-6069281D01*
X12463100Y-6069281D01*
X12471181Y-6066587D01*
X12476568Y-6061200D01*
X12481956Y-6050425D01*
X12481956Y-5985775D01*
X12516975Y-6020793D01*
X13089225Y-7228044D02*
X13043431Y-7236125D01*
X13056900Y-7195719D02*
X13000332Y-7252288D01*
X13021881Y-7273837D01*
X13029963Y-7276531D01*
X13035350Y-7276531D01*
X13043431Y-7273837D01*
X13051513Y-7265756D01*
X13054206Y-7257675D01*
X13054206Y-7252288D01*
X13051513Y-7244206D01*
X13029963Y-7222656D01*
X13051513Y-7303469D02*
X13086531Y-7338487D01*
X13089225Y-7298081D01*
X13097306Y-7306162D01*
X13105387Y-7308856D01*
X13110775Y-7308856D01*
X13118856Y-7306162D01*
X13132325Y-7292694D01*
X13135019Y-7284612D01*
X13135019Y-7279225D01*
X13132325Y-7271144D01*
X13116162Y-7254981D01*
X13108081Y-7252288D01*
X13102694Y-7252288D01*
X13196975Y-7335793D02*
X13164650Y-7303469D01*
X13180812Y-7319631D02*
X13124244Y-7376200D01*
X13126937Y-7362731D01*
X13126937Y-7351956D01*
X13124244Y-7343875D01*
X12301956Y-7029225D02*
X12293875Y-6983431D01*
X12334281Y-6996900D02*
X12277712Y-6940332D01*
X12256162Y-6961881D01*
X12253469Y-6969963D01*
X12253469Y-6975350D01*
X12256162Y-6983431D01*
X12264244Y-6991513D01*
X12272325Y-6994206D01*
X12277712Y-6994206D01*
X12285793Y-6991513D01*
X12307343Y-6969963D01*
X12226531Y-6991513D02*
X12191513Y-7026531D01*
X12231919Y-7029225D01*
X12223837Y-7037306D01*
X12221144Y-7045387D01*
X12221144Y-7050775D01*
X12223837Y-7058856D01*
X12237306Y-7072325D01*
X12245387Y-7075019D01*
X12250775Y-7075019D01*
X12258856Y-7072325D01*
X12275019Y-7056162D01*
X12277712Y-7048081D01*
X12277712Y-7042694D01*
X12156494Y-7061550D02*
X12151106Y-7066937D01*
X12148413Y-7075019D01*
X12148413Y-7080406D01*
X12151106Y-7088487D01*
X12159188Y-7101956D01*
X12172656Y-7115425D01*
X12186125Y-7123506D01*
X12194206Y-7126200D01*
X12199594Y-7126200D01*
X12207675Y-7123506D01*
X12213062Y-7118118D01*
X12215756Y-7110037D01*
X12215756Y-7104650D01*
X12213062Y-7096568D01*
X12204981Y-7083100D01*
X12191513Y-7069631D01*
X12178044Y-7061550D01*
X12169963Y-7058856D01*
X12164575Y-7058856D01*
X12156494Y-7061550D01*
X12491956Y-6839225D02*
X12483875Y-6793431D01*
X12524281Y-6806900D02*
X12467712Y-6750332D01*
X12446162Y-6771881D01*
X12443469Y-6779963D01*
X12443469Y-6785350D01*
X12446162Y-6793431D01*
X12454244Y-6801513D01*
X12462325Y-6804206D01*
X12467712Y-6804206D01*
X12475793Y-6801513D01*
X12497343Y-6779963D01*
X12419225Y-6809594D02*
X12413837Y-6809594D01*
X12405756Y-6812288D01*
X12392288Y-6825756D01*
X12389594Y-6833837D01*
X12389594Y-6839225D01*
X12392288Y-6847306D01*
X12397675Y-6852694D01*
X12408450Y-6858081D01*
X12473100Y-6858081D01*
X12438081Y-6893100D01*
X12411144Y-6920037D02*
X12400369Y-6930812D01*
X12392288Y-6933506D01*
X12386900Y-6933506D01*
X12373431Y-6930812D01*
X12359963Y-6922731D01*
X12338413Y-6901181D01*
X12335719Y-6893100D01*
X12335719Y-6887712D01*
X12338413Y-6879631D01*
X12349188Y-6868856D01*
X12357269Y-6866162D01*
X12362656Y-6866162D01*
X12370738Y-6868856D01*
X12384206Y-6882325D01*
X12386900Y-6890406D01*
X12386900Y-6895793D01*
X12384206Y-6903875D01*
X12373431Y-6914650D01*
X12365350Y-6917343D01*
X12359963Y-6917343D01*
X12351881Y-6914650D01*
X13501956Y-8389225D02*
X13493875Y-8343431D01*
X13534281Y-8356900D02*
X13477712Y-8300332D01*
X13456162Y-8321881D01*
X13453469Y-8329963D01*
X13453469Y-8335350D01*
X13456162Y-8343431D01*
X13464244Y-8351513D01*
X13472325Y-8354206D01*
X13477712Y-8354206D01*
X13485793Y-8351513D01*
X13507343Y-8329963D01*
X13429225Y-8359594D02*
X13423837Y-8359594D01*
X13415756Y-8362288D01*
X13402288Y-8375756D01*
X13399594Y-8383837D01*
X13399594Y-8389225D01*
X13402288Y-8397306D01*
X13407675Y-8402694D01*
X13418450Y-8408081D01*
X13483100Y-8408081D01*
X13448081Y-8443100D01*
X13372656Y-8405387D02*
X13334944Y-8443100D01*
X13415756Y-8475425D01*
X14441956Y-9819225D02*
X14433875Y-9773431D01*
X14474281Y-9786900D02*
X14417712Y-9730332D01*
X14396162Y-9751882D01*
X14393469Y-9759963D01*
X14393469Y-9765350D01*
X14396162Y-9773431D01*
X14404244Y-9781513D01*
X14412325Y-9784206D01*
X14417712Y-9784206D01*
X14425793Y-9781513D01*
X14447343Y-9759963D01*
X14369225Y-9789594D02*
X14363837Y-9789594D01*
X14355756Y-9792288D01*
X14342288Y-9805756D01*
X14339594Y-9813838D01*
X14339594Y-9819225D01*
X14342288Y-9827306D01*
X14347675Y-9832694D01*
X14358450Y-9838081D01*
X14423100Y-9838081D01*
X14388081Y-9873100D01*
X14283025Y-9865019D02*
X14293800Y-9854244D01*
X14301881Y-9851550D01*
X14307269Y-9851550D01*
X14320738Y-9854244D01*
X14334206Y-9862325D01*
X14355756Y-9883875D01*
X14358450Y-9891956D01*
X14358450Y-9897344D01*
X14355756Y-9905425D01*
X14344981Y-9916200D01*
X14336900Y-9918893D01*
X14331513Y-9918893D01*
X14323431Y-9916200D01*
X14309963Y-9902731D01*
X14307269Y-9894650D01*
X14307269Y-9889262D01*
X14309963Y-9881181D01*
X14320738Y-9870406D01*
X14328819Y-9867712D01*
X14334206Y-9867712D01*
X14342288Y-9870406D01*
X14971956Y-9749225D02*
X14963875Y-9703431D01*
X15004281Y-9716900D02*
X14947712Y-9660332D01*
X14926162Y-9681882D01*
X14923469Y-9689963D01*
X14923469Y-9695350D01*
X14926162Y-9703431D01*
X14934244Y-9711513D01*
X14942325Y-9714206D01*
X14947712Y-9714206D01*
X14955793Y-9711513D01*
X14977343Y-9689963D01*
X14899225Y-9719594D02*
X14893837Y-9719594D01*
X14885756Y-9722288D01*
X14872288Y-9735756D01*
X14869594Y-9743838D01*
X14869594Y-9749225D01*
X14872288Y-9757306D01*
X14877675Y-9762694D01*
X14888450Y-9768081D01*
X14953100Y-9768081D01*
X14918081Y-9803100D01*
X14810332Y-9797712D02*
X14837269Y-9770775D01*
X14866900Y-9795019D01*
X14861513Y-9795019D01*
X14853431Y-9797712D01*
X14839963Y-9811181D01*
X14837269Y-9819262D01*
X14837269Y-9824650D01*
X14839963Y-9832731D01*
X14853431Y-9846200D01*
X14861513Y-9848893D01*
X14866900Y-9848893D01*
X14874981Y-9846200D01*
X14888450Y-9832731D01*
X14891144Y-9824650D01*
X14891144Y-9819262D01*
X17899631Y-11200775D02*
X17905019Y-11200775D01*
X17915794Y-11195387D01*
X17921181Y-11190000D01*
X17926569Y-11179225D01*
X17926569Y-11168450D01*
X17923875Y-11160369D01*
X17915794Y-11146900D01*
X17907712Y-11138819D01*
X17894244Y-11130738D01*
X17886162Y-11128044D01*
X17875387Y-11128044D01*
X17864613Y-11133431D01*
X17859225Y-11138819D01*
X17853838Y-11149594D01*
X17853838Y-11154981D01*
X17851144Y-11260037D02*
X17883469Y-11227712D01*
X17867306Y-11243875D02*
X17810738Y-11187306D01*
X17824206Y-11190000D01*
X17834981Y-11190000D01*
X17843063Y-11187306D01*
X14556568Y-10643838D02*
X14561956Y-10643838D01*
X14572731Y-10638450D01*
X14578118Y-10633063D01*
X14583506Y-10622288D01*
X14583506Y-10611513D01*
X14580812Y-10603431D01*
X14572731Y-10589963D01*
X14564650Y-10581882D01*
X14551181Y-10573800D01*
X14543100Y-10571107D01*
X14532325Y-10571107D01*
X14521550Y-10576494D01*
X14516162Y-10581882D01*
X14510775Y-10592656D01*
X14510775Y-10598044D01*
X14486531Y-10611513D02*
X14451513Y-10646531D01*
X14491919Y-10649225D01*
X14483837Y-10657306D01*
X14481144Y-10665387D01*
X14481144Y-10670775D01*
X14483837Y-10678856D01*
X14497306Y-10692325D01*
X14505387Y-10695019D01*
X14510775Y-10695019D01*
X14518856Y-10692325D01*
X14535019Y-10676162D01*
X14537712Y-10668081D01*
X14537712Y-10662694D01*
X14403025Y-10695019D02*
X14413800Y-10684244D01*
X14421881Y-10681550D01*
X14427269Y-10681550D01*
X14440738Y-10684244D01*
X14454206Y-10692325D01*
X14475756Y-10713875D01*
X14478450Y-10721956D01*
X14478450Y-10727344D01*
X14475756Y-10735425D01*
X14464981Y-10746200D01*
X14456900Y-10748893D01*
X14451513Y-10748893D01*
X14443431Y-10746200D01*
X14429963Y-10732731D01*
X14427269Y-10724650D01*
X14427269Y-10719262D01*
X14429963Y-10711181D01*
X14440738Y-10700406D01*
X14448819Y-10697712D01*
X14454206Y-10697712D01*
X14462288Y-10700406D01*
X14416568Y-10503838D02*
X14421956Y-10503838D01*
X14432731Y-10498450D01*
X14438118Y-10493063D01*
X14443506Y-10482288D01*
X14443506Y-10471513D01*
X14440812Y-10463431D01*
X14432731Y-10449963D01*
X14424650Y-10441882D01*
X14411181Y-10433800D01*
X14403100Y-10431107D01*
X14392325Y-10431107D01*
X14381550Y-10436494D01*
X14376162Y-10441882D01*
X14370775Y-10452656D01*
X14370775Y-10458044D01*
X14349225Y-10479594D02*
X14343837Y-10479594D01*
X14335756Y-10482288D01*
X14322288Y-10495756D01*
X14319594Y-10503838D01*
X14319594Y-10509225D01*
X14322288Y-10517306D01*
X14327675Y-10522694D01*
X14338450Y-10528081D01*
X14403100Y-10528081D01*
X14368081Y-10563100D01*
X14341144Y-10590037D02*
X14330369Y-10600812D01*
X14322288Y-10603506D01*
X14316900Y-10603506D01*
X14303431Y-10600812D01*
X14289963Y-10592731D01*
X14268413Y-10571181D01*
X14265719Y-10563100D01*
X14265719Y-10557712D01*
X14268413Y-10549631D01*
X14279188Y-10538856D01*
X14287269Y-10536162D01*
X14292656Y-10536162D01*
X14300738Y-10538856D01*
X14314206Y-10552325D01*
X14316900Y-10560406D01*
X14316900Y-10565794D01*
X14314206Y-10573875D01*
X14303431Y-10584650D01*
X14295350Y-10587344D01*
X14289963Y-10587344D01*
X14281881Y-10584650D01*
X13088956Y-11791225D02*
X13080875Y-11745431D01*
X13121281Y-11758900D02*
X13064712Y-11702332D01*
X13043162Y-11723881D01*
X13040469Y-11731963D01*
X13040469Y-11737350D01*
X13043162Y-11745431D01*
X13051244Y-11753513D01*
X13059325Y-11756206D01*
X13064712Y-11756206D01*
X13072793Y-11753513D01*
X13094343Y-11731963D01*
X13035081Y-11845100D02*
X13067406Y-11812775D01*
X13051244Y-11828937D02*
X12994675Y-11772369D01*
X13008144Y-11775062D01*
X13018919Y-11775062D01*
X13027000Y-11772369D01*
X12948881Y-11855875D02*
X12986594Y-11893587D01*
X12940800Y-11820856D02*
X12994675Y-11847793D01*
X12959656Y-11882812D01*
X12921956Y-10249225D02*
X12913875Y-10203431D01*
X12954281Y-10216900D02*
X12897712Y-10160332D01*
X12876162Y-10181882D01*
X12873469Y-10189963D01*
X12873469Y-10195350D01*
X12876162Y-10203431D01*
X12884244Y-10211513D01*
X12892325Y-10214206D01*
X12897712Y-10214206D01*
X12905793Y-10211513D01*
X12927343Y-10189963D01*
X12868081Y-10303100D02*
X12900406Y-10270775D01*
X12884244Y-10286937D02*
X12827675Y-10230369D01*
X12841144Y-10233063D01*
X12851919Y-10233063D01*
X12860000Y-10230369D01*
X12795350Y-10273469D02*
X12789963Y-10273469D01*
X12781881Y-10276162D01*
X12768413Y-10289631D01*
X12765719Y-10297712D01*
X12765719Y-10303100D01*
X12768413Y-10311181D01*
X12773800Y-10316569D01*
X12784575Y-10321956D01*
X12849225Y-10321956D01*
X12814206Y-10356975D01*
X12252956Y-10938225D02*
X12244875Y-10892431D01*
X12285281Y-10905900D02*
X12228712Y-10849332D01*
X12207162Y-10870882D01*
X12204469Y-10878963D01*
X12204469Y-10884350D01*
X12207162Y-10892431D01*
X12215244Y-10900513D01*
X12223325Y-10903206D01*
X12228712Y-10903206D01*
X12236793Y-10900513D01*
X12258343Y-10878963D01*
X12199081Y-10992100D02*
X12231406Y-10959775D01*
X12215244Y-10975937D02*
X12158675Y-10919369D01*
X12172144Y-10922063D01*
X12182919Y-10922063D01*
X12191000Y-10919369D01*
X12145206Y-11045975D02*
X12177531Y-11013650D01*
X12161369Y-11029812D02*
X12104800Y-10973244D01*
X12118269Y-10975937D01*
X12129044Y-10975937D01*
X12137125Y-10973244D01*
X12158956Y-10846225D02*
X12150875Y-10800431D01*
X12191281Y-10813900D02*
X12134712Y-10757332D01*
X12113162Y-10778882D01*
X12110469Y-10786963D01*
X12110469Y-10792350D01*
X12113162Y-10800431D01*
X12121244Y-10808513D01*
X12129325Y-10811206D01*
X12134712Y-10811206D01*
X12142793Y-10808513D01*
X12164343Y-10786963D01*
X12105081Y-10900100D02*
X12137406Y-10867775D01*
X12121244Y-10883937D02*
X12064675Y-10827369D01*
X12078144Y-10830063D01*
X12088919Y-10830063D01*
X12097000Y-10827369D01*
X12013494Y-10878550D02*
X12008106Y-10883937D01*
X12005413Y-10892019D01*
X12005413Y-10897406D01*
X12008106Y-10905487D01*
X12016188Y-10918956D01*
X12029656Y-10932425D01*
X12043125Y-10940506D01*
X12051206Y-10943200D01*
X12056594Y-10943200D01*
X12064675Y-10940506D01*
X12070062Y-10935118D01*
X12072756Y-10927037D01*
X12072756Y-10921650D01*
X12070062Y-10913569D01*
X12061981Y-10900100D01*
X12048513Y-10886631D01*
X12035044Y-10878550D01*
X12026963Y-10875856D01*
X12021575Y-10875856D01*
X12013494Y-10878550D01*
X12773019Y-10117162D02*
X12764937Y-10071369D01*
X12805343Y-10084838D02*
X12748775Y-10028269D01*
X12727225Y-10049819D01*
X12724531Y-10057900D01*
X12724531Y-10063288D01*
X12727225Y-10071369D01*
X12735306Y-10079450D01*
X12743387Y-10082144D01*
X12748775Y-10082144D01*
X12756856Y-10079450D01*
X12778406Y-10057900D01*
X12746081Y-10144100D02*
X12735306Y-10154875D01*
X12727225Y-10157569D01*
X12721837Y-10157569D01*
X12708369Y-10154875D01*
X12694900Y-10146794D01*
X12673350Y-10125244D01*
X12670656Y-10117162D01*
X12670656Y-10111775D01*
X12673350Y-10103694D01*
X12684125Y-10092919D01*
X12692206Y-10090225D01*
X12697594Y-10090225D01*
X12705675Y-10092919D01*
X12719144Y-10106387D01*
X12721837Y-10114469D01*
X12721837Y-10119856D01*
X12719144Y-10127937D01*
X12708369Y-10138712D01*
X12700288Y-10141406D01*
X12694900Y-10141406D01*
X12686819Y-10138712D01*
X12926162Y-9534981D02*
X12880369Y-9543063D01*
X12893837Y-9502656D02*
X12837269Y-9559225D01*
X12858819Y-9580775D01*
X12866900Y-9583469D01*
X12872288Y-9583469D01*
X12880369Y-9580775D01*
X12888450Y-9572694D01*
X12891144Y-9564613D01*
X12891144Y-9559225D01*
X12888450Y-9551144D01*
X12866900Y-9529594D01*
X12926162Y-9599631D02*
X12918081Y-9596937D01*
X12912694Y-9596937D01*
X12904612Y-9599631D01*
X12901919Y-9602325D01*
X12899225Y-9610406D01*
X12899225Y-9615794D01*
X12901919Y-9623875D01*
X12912694Y-9634650D01*
X12920775Y-9637344D01*
X12926162Y-9637344D01*
X12934244Y-9634650D01*
X12936937Y-9631956D01*
X12939631Y-9623875D01*
X12939631Y-9618487D01*
X12936937Y-9610406D01*
X12926162Y-9599631D01*
X12923469Y-9591550D01*
X12923469Y-9586162D01*
X12926162Y-9578081D01*
X12936937Y-9567306D01*
X12945019Y-9564613D01*
X12950406Y-9564613D01*
X12958487Y-9567306D01*
X12969262Y-9578081D01*
X12971956Y-9586162D01*
X12971956Y-9591550D01*
X12969262Y-9599631D01*
X12958487Y-9610406D01*
X12950406Y-9613100D01*
X12945019Y-9613100D01*
X12936937Y-9610406D01*
X13431162Y-10034981D02*
X13385369Y-10043063D01*
X13398837Y-10002656D02*
X13342269Y-10059225D01*
X13363819Y-10080775D01*
X13371900Y-10083469D01*
X13377288Y-10083469D01*
X13385369Y-10080775D01*
X13393450Y-10072694D01*
X13396144Y-10064613D01*
X13396144Y-10059225D01*
X13393450Y-10051144D01*
X13371900Y-10029594D01*
X13393450Y-10110406D02*
X13431162Y-10148118D01*
X13463487Y-10067306D01*
X14434225Y-11023044D02*
X14388431Y-11031125D01*
X14401900Y-10990719D02*
X14345332Y-11047288D01*
X14366881Y-11068838D01*
X14374963Y-11071531D01*
X14380350Y-11071531D01*
X14388431Y-11068838D01*
X14396513Y-11060756D01*
X14399206Y-11052675D01*
X14399206Y-11047288D01*
X14396513Y-11039206D01*
X14374963Y-11017656D01*
X14488100Y-11076919D02*
X14455775Y-11044594D01*
X14471937Y-11060756D02*
X14415369Y-11117325D01*
X14418062Y-11103856D01*
X14418062Y-11093081D01*
X14415369Y-11085000D01*
X14488100Y-11141569D02*
X14480019Y-11138875D01*
X14474631Y-11138875D01*
X14466550Y-11141569D01*
X14463856Y-11144262D01*
X14461162Y-11152344D01*
X14461162Y-11157731D01*
X14463856Y-11165812D01*
X14474631Y-11176587D01*
X14482712Y-11179281D01*
X14488100Y-11179281D01*
X14496181Y-11176587D01*
X14498875Y-11173893D01*
X14501568Y-11165812D01*
X14501568Y-11160425D01*
X14498875Y-11152344D01*
X14488100Y-11141569D01*
X14485406Y-11133487D01*
X14485406Y-11128100D01*
X14488100Y-11120019D01*
X14498875Y-11109244D01*
X14506956Y-11106550D01*
X14512343Y-11106550D01*
X14520425Y-11109244D01*
X14531200Y-11120019D01*
X14533893Y-11128100D01*
X14533893Y-11133487D01*
X14531200Y-11141569D01*
X14520425Y-11152344D01*
X14512343Y-11155037D01*
X14506956Y-11155037D01*
X14498875Y-11152344D01*
X13924225Y-10513044D02*
X13878431Y-10521125D01*
X13891900Y-10480719D02*
X13835332Y-10537288D01*
X13856881Y-10558838D01*
X13864963Y-10561531D01*
X13870350Y-10561531D01*
X13878431Y-10558838D01*
X13886513Y-10550756D01*
X13889206Y-10542675D01*
X13889206Y-10537288D01*
X13886513Y-10529206D01*
X13864963Y-10507656D01*
X13978100Y-10566919D02*
X13945775Y-10534594D01*
X13961937Y-10550756D02*
X13905369Y-10607325D01*
X13908062Y-10593856D01*
X13908062Y-10583081D01*
X13905369Y-10575000D01*
X13940387Y-10642344D02*
X13978100Y-10680056D01*
X14010425Y-10599244D01*
X13921956Y-11289225D02*
X13913875Y-11243431D01*
X13954281Y-11256900D02*
X13897712Y-11200332D01*
X13876162Y-11221881D01*
X13873469Y-11229963D01*
X13873469Y-11235350D01*
X13876162Y-11243431D01*
X13884244Y-11251513D01*
X13892325Y-11254206D01*
X13897712Y-11254206D01*
X13905793Y-11251513D01*
X13927343Y-11229963D01*
X13868081Y-11343100D02*
X13900406Y-11310775D01*
X13884244Y-11326937D02*
X13827675Y-11270369D01*
X13841144Y-11273062D01*
X13851919Y-11273062D01*
X13860000Y-11270369D01*
X13763025Y-11335019D02*
X13773800Y-11324244D01*
X13781881Y-11321550D01*
X13787269Y-11321550D01*
X13800738Y-11324244D01*
X13814206Y-11332325D01*
X13835756Y-11353875D01*
X13838450Y-11361956D01*
X13838450Y-11367343D01*
X13835756Y-11375425D01*
X13824981Y-11386200D01*
X13816900Y-11388893D01*
X13811513Y-11388893D01*
X13803431Y-11386200D01*
X13789963Y-11372731D01*
X13787269Y-11364650D01*
X13787269Y-11359262D01*
X13789963Y-11351181D01*
X13800738Y-11340406D01*
X13808819Y-11337712D01*
X13814206Y-11337712D01*
X13822288Y-11340406D01*
X13182956Y-11885225D02*
X13174875Y-11839431D01*
X13215281Y-11852900D02*
X13158712Y-11796332D01*
X13137162Y-11817881D01*
X13134469Y-11825963D01*
X13134469Y-11831350D01*
X13137162Y-11839431D01*
X13145244Y-11847513D01*
X13153325Y-11850206D01*
X13158712Y-11850206D01*
X13166793Y-11847513D01*
X13188343Y-11825963D01*
X13129081Y-11939100D02*
X13161406Y-11906775D01*
X13145244Y-11922937D02*
X13088675Y-11866369D01*
X13102144Y-11869062D01*
X13112919Y-11869062D01*
X13121000Y-11866369D01*
X13021332Y-11933712D02*
X13048269Y-11906775D01*
X13077900Y-11931019D01*
X13072513Y-11931019D01*
X13064431Y-11933712D01*
X13050963Y-11947181D01*
X13048269Y-11955262D01*
X13048269Y-11960650D01*
X13050963Y-11968731D01*
X13064431Y-11982200D01*
X13072513Y-11984893D01*
X13077900Y-11984893D01*
X13085981Y-11982200D01*
X13099450Y-11968731D01*
X13102144Y-11960650D01*
X13102144Y-11955262D01*
X15415048Y-5894190D02*
X15415048Y-5814190D01*
X15396000Y-5814190D01*
X15384571Y-5818000D01*
X15376952Y-5825619D01*
X15373143Y-5833238D01*
X15369333Y-5848476D01*
X15369333Y-5859905D01*
X15373143Y-5875143D01*
X15376952Y-5882762D01*
X15384571Y-5890381D01*
X15396000Y-5894190D01*
X15415048Y-5894190D01*
X15331238Y-5894190D02*
X15316000Y-5894190D01*
X15308381Y-5890381D01*
X15304571Y-5886571D01*
X15296952Y-5875143D01*
X15293143Y-5859905D01*
X15293143Y-5829428D01*
X15296952Y-5821809D01*
X15300762Y-5818000D01*
X15308381Y-5814190D01*
X15323619Y-5814190D01*
X15331238Y-5818000D01*
X15335048Y-5821809D01*
X15338857Y-5829428D01*
X15338857Y-5848476D01*
X15335048Y-5856095D01*
X15331238Y-5859905D01*
X15323619Y-5863714D01*
X15308381Y-5863714D01*
X15300762Y-5859905D01*
X15296952Y-5856095D01*
X15293143Y-5848476D01*
X15905309Y-12630777D02*
X15805309Y-12630777D01*
X15805309Y-12654587D01*
X15810071Y-12668873D01*
X15819595Y-12678396D01*
X15829119Y-12683158D01*
X15848166Y-12687920D01*
X15862452Y-12687920D01*
X15881500Y-12683158D01*
X15891023Y-12678396D01*
X15900547Y-12668873D01*
X15905309Y-12654587D01*
X15905309Y-12630777D01*
X15805309Y-12721253D02*
X15805309Y-12787920D01*
X15905309Y-12745063D01*
X11350245Y-8640190D02*
X11350245Y-8560190D01*
X11331198Y-8560190D01*
X11319769Y-8564000D01*
X11312150Y-8571619D01*
X11308340Y-8579238D01*
X11304531Y-8594476D01*
X11304531Y-8605905D01*
X11308340Y-8621143D01*
X11312150Y-8628762D01*
X11319769Y-8636381D01*
X11331198Y-8640190D01*
X11350245Y-8640190D01*
X11235960Y-8586857D02*
X11235960Y-8640190D01*
X11255007Y-8556381D02*
X11274055Y-8613524D01*
X11224531Y-8613524D01*
X19174495Y-7424663D02*
X19094495Y-7424663D01*
X19094495Y-7443711D01*
X19098305Y-7455139D01*
X19105924Y-7462758D01*
X19113543Y-7466568D01*
X19128781Y-7470377D01*
X19140209Y-7470377D01*
X19155447Y-7466568D01*
X19163066Y-7462758D01*
X19170685Y-7455139D01*
X19174495Y-7443711D01*
X19174495Y-7424663D01*
X19174495Y-7546568D02*
X19174495Y-7500853D01*
X19174495Y-7523711D02*
X19094495Y-7523711D01*
X19105924Y-7516092D01*
X19113543Y-7508473D01*
X19117352Y-7500853D01*
X15415048Y-5719190D02*
X15415048Y-5639190D01*
X15396000Y-5639190D01*
X15384571Y-5643000D01*
X15376952Y-5650619D01*
X15373143Y-5658238D01*
X15369333Y-5673476D01*
X15369333Y-5684905D01*
X15373143Y-5700143D01*
X15376952Y-5707762D01*
X15384571Y-5715381D01*
X15396000Y-5719190D01*
X15415048Y-5719190D01*
X15323619Y-5673476D02*
X15331238Y-5669667D01*
X15335048Y-5665857D01*
X15338857Y-5658238D01*
X15338857Y-5654428D01*
X15335048Y-5646809D01*
X15331238Y-5643000D01*
X15323619Y-5639190D01*
X15308381Y-5639190D01*
X15300762Y-5643000D01*
X15296952Y-5646809D01*
X15293143Y-5654428D01*
X15293143Y-5658238D01*
X15296952Y-5665857D01*
X15300762Y-5669667D01*
X15308381Y-5673476D01*
X15323619Y-5673476D01*
X15331238Y-5677286D01*
X15335048Y-5681095D01*
X15338857Y-5688714D01*
X15338857Y-5703952D01*
X15335048Y-5711571D01*
X15331238Y-5715381D01*
X15323619Y-5719190D01*
X15308381Y-5719190D01*
X15300762Y-5715381D01*
X15296952Y-5711571D01*
X15293143Y-5703952D01*
X15293143Y-5688714D01*
X15296952Y-5681095D01*
X15300762Y-5677286D01*
X15308381Y-5673476D01*
X12763837Y-7063431D02*
X12763837Y-7058044D01*
X12758450Y-7047269D01*
X12753062Y-7041881D01*
X12742288Y-7036494D01*
X12731513Y-7036494D01*
X12723431Y-7039188D01*
X12709963Y-7047269D01*
X12701881Y-7055350D01*
X12693800Y-7068819D01*
X12691106Y-7076900D01*
X12691106Y-7087675D01*
X12696494Y-7098450D01*
X12701881Y-7103837D01*
X12712656Y-7109225D01*
X12718044Y-7109225D01*
X12761144Y-7163100D02*
X12750369Y-7152325D01*
X12747675Y-7144244D01*
X12747675Y-7138856D01*
X12750369Y-7125387D01*
X12758450Y-7111919D01*
X12780000Y-7090369D01*
X12788081Y-7087675D01*
X12793469Y-7087675D01*
X12801550Y-7090369D01*
X12812325Y-7101144D01*
X12815019Y-7109225D01*
X12815019Y-7114612D01*
X12812325Y-7122694D01*
X12798856Y-7136162D01*
X12790775Y-7138856D01*
X12785387Y-7138856D01*
X12777306Y-7136162D01*
X12766531Y-7125387D01*
X12763837Y-7117306D01*
X12763837Y-7111919D01*
X12766531Y-7103837D01*
X12793469Y-7184650D02*
X12793469Y-7190037D01*
X12796162Y-7198118D01*
X12809631Y-7211587D01*
X12817712Y-7214281D01*
X12823100Y-7214281D01*
X12831181Y-7211587D01*
X12836568Y-7206200D01*
X12841956Y-7195425D01*
X12841956Y-7130775D01*
X12876975Y-7165793D01*
X12863837Y-6963431D02*
X12863837Y-6958044D01*
X12858450Y-6947269D01*
X12853062Y-6941881D01*
X12842288Y-6936494D01*
X12831513Y-6936494D01*
X12823431Y-6939188D01*
X12809963Y-6947269D01*
X12801881Y-6955350D01*
X12793800Y-6968819D01*
X12791106Y-6976900D01*
X12791106Y-6987675D01*
X12796494Y-6998450D01*
X12801881Y-7003837D01*
X12812656Y-7009225D01*
X12818044Y-7009225D01*
X12861144Y-7063100D02*
X12850369Y-7052325D01*
X12847675Y-7044244D01*
X12847675Y-7038856D01*
X12850369Y-7025387D01*
X12858450Y-7011919D01*
X12880000Y-6990369D01*
X12888081Y-6987675D01*
X12893469Y-6987675D01*
X12901550Y-6990369D01*
X12912325Y-7001144D01*
X12915019Y-7009225D01*
X12915019Y-7014612D01*
X12912325Y-7022694D01*
X12898856Y-7036162D01*
X12890775Y-7038856D01*
X12885387Y-7038856D01*
X12877306Y-7036162D01*
X12866531Y-7025387D01*
X12863837Y-7017306D01*
X12863837Y-7011919D01*
X12866531Y-7003837D01*
X12976975Y-7065793D02*
X12944650Y-7033469D01*
X12960812Y-7049631D02*
X12904244Y-7106200D01*
X12906937Y-7092731D01*
X12906937Y-7081956D01*
X12904244Y-7073875D01*
X16463837Y-10143431D02*
X16463837Y-10138044D01*
X16458450Y-10127269D01*
X16453062Y-10121882D01*
X16442288Y-10116494D01*
X16431513Y-10116494D01*
X16423431Y-10119188D01*
X16409963Y-10127269D01*
X16401881Y-10135350D01*
X16393800Y-10148819D01*
X16391106Y-10156900D01*
X16391106Y-10167675D01*
X16396494Y-10178450D01*
X16401881Y-10183838D01*
X16412656Y-10189225D01*
X16418044Y-10189225D01*
X16463837Y-10245794D02*
X16436900Y-10218856D01*
X16461144Y-10189225D01*
X16461144Y-10194613D01*
X16463837Y-10202694D01*
X16477306Y-10216162D01*
X16485387Y-10218856D01*
X16490775Y-10218856D01*
X16498856Y-10216162D01*
X16512325Y-10202694D01*
X16515019Y-10194613D01*
X16515019Y-10189225D01*
X16512325Y-10181144D01*
X16498856Y-10167675D01*
X16490775Y-10164981D01*
X16485387Y-10164981D01*
X16485387Y-10267344D02*
X16520406Y-10302362D01*
X16523100Y-10261956D01*
X16531181Y-10270037D01*
X16539262Y-10272731D01*
X16544650Y-10272731D01*
X16552731Y-10270037D01*
X16566200Y-10256569D01*
X16568893Y-10248487D01*
X16568893Y-10243100D01*
X16566200Y-10235019D01*
X16550037Y-10218856D01*
X16541956Y-10216162D01*
X16536568Y-10216162D01*
X16823838Y-10233431D02*
X16823838Y-10228044D01*
X16818450Y-10217269D01*
X16813063Y-10211882D01*
X16802288Y-10206494D01*
X16791513Y-10206494D01*
X16783431Y-10209188D01*
X16769963Y-10217269D01*
X16761881Y-10225350D01*
X16753800Y-10238819D01*
X16751106Y-10246900D01*
X16751106Y-10257675D01*
X16756494Y-10268450D01*
X16761881Y-10273838D01*
X16772656Y-10279225D01*
X16778044Y-10279225D01*
X16823838Y-10335794D02*
X16796900Y-10308856D01*
X16821144Y-10279225D01*
X16821144Y-10284613D01*
X16823838Y-10292694D01*
X16837306Y-10306162D01*
X16845387Y-10308856D01*
X16850775Y-10308856D01*
X16858856Y-10306162D01*
X16872325Y-10292694D01*
X16875019Y-10284613D01*
X16875019Y-10279225D01*
X16872325Y-10271144D01*
X16858856Y-10257675D01*
X16850775Y-10254981D01*
X16845387Y-10254981D01*
X16845387Y-10357344D02*
X16883100Y-10395056D01*
X16915425Y-10314244D01*
X16780775Y-10360369D02*
X16780775Y-10354981D01*
X16775387Y-10344206D01*
X16770000Y-10338819D01*
X16759225Y-10333431D01*
X16748450Y-10333431D01*
X16740369Y-10336125D01*
X16726900Y-10344206D01*
X16718819Y-10352288D01*
X16710738Y-10365756D01*
X16708044Y-10373838D01*
X16708044Y-10384613D01*
X16713431Y-10395387D01*
X16718819Y-10400775D01*
X16729594Y-10406162D01*
X16734981Y-10406162D01*
X16756531Y-10427712D02*
X16756531Y-10433100D01*
X16759225Y-10441181D01*
X16772694Y-10454650D01*
X16780775Y-10457344D01*
X16786162Y-10457344D01*
X16794244Y-10454650D01*
X16799631Y-10449262D01*
X16805019Y-10438487D01*
X16805019Y-10373838D01*
X16840037Y-10408856D01*
X12758039Y-9054801D02*
X12763427Y-9054801D01*
X12774202Y-9049414D01*
X12779589Y-9044026D01*
X12784977Y-9033251D01*
X12784977Y-9022476D01*
X12782283Y-9014395D01*
X12774202Y-9000926D01*
X12766120Y-8992845D01*
X12752652Y-8984764D01*
X12744570Y-8982070D01*
X12733795Y-8982070D01*
X12723021Y-8987458D01*
X12717633Y-8992845D01*
X12712246Y-9003620D01*
X12712246Y-9009008D01*
X12688002Y-9022476D02*
X12650290Y-9060189D01*
X12731102Y-9092514D01*
X13909631Y-10310775D02*
X13915019Y-10310775D01*
X13925793Y-10305387D01*
X13931181Y-10300000D01*
X13936568Y-10289225D01*
X13936568Y-10278450D01*
X13933875Y-10270369D01*
X13925793Y-10256900D01*
X13917712Y-10248819D01*
X13904244Y-10240738D01*
X13896162Y-10238044D01*
X13885387Y-10238044D01*
X13874612Y-10243431D01*
X13869225Y-10248819D01*
X13863837Y-10259594D01*
X13863837Y-10264981D01*
X13850369Y-10316162D02*
X13853062Y-10308081D01*
X13853062Y-10302694D01*
X13850369Y-10294613D01*
X13847675Y-10291919D01*
X13839594Y-10289225D01*
X13834206Y-10289225D01*
X13826125Y-10291919D01*
X13815350Y-10302694D01*
X13812656Y-10310775D01*
X13812656Y-10316162D01*
X13815350Y-10324244D01*
X13818044Y-10326937D01*
X13826125Y-10329631D01*
X13831513Y-10329631D01*
X13839594Y-10326937D01*
X13850369Y-10316162D01*
X13858450Y-10313469D01*
X13863837Y-10313469D01*
X13871919Y-10316162D01*
X13882694Y-10326937D01*
X13885387Y-10335019D01*
X13885387Y-10340406D01*
X13882694Y-10348487D01*
X13871919Y-10359262D01*
X13863837Y-10361956D01*
X13858450Y-10361956D01*
X13850369Y-10359262D01*
X13839594Y-10348487D01*
X13836900Y-10340406D01*
X13836900Y-10335019D01*
X13839594Y-10326937D01*
X13230775Y-11670369D02*
X13230775Y-11664981D01*
X13225387Y-11654206D01*
X13220000Y-11648819D01*
X13209225Y-11643431D01*
X13198450Y-11643431D01*
X13190369Y-11646125D01*
X13176900Y-11654206D01*
X13168819Y-11662288D01*
X13160738Y-11675756D01*
X13158044Y-11683837D01*
X13158044Y-11694612D01*
X13163431Y-11705387D01*
X13168819Y-11710775D01*
X13179594Y-11716162D01*
X13184981Y-11716162D01*
X13263100Y-11691919D02*
X13273875Y-11702694D01*
X13276568Y-11710775D01*
X13276568Y-11716162D01*
X13273875Y-11729631D01*
X13265793Y-11743100D01*
X13244244Y-11764650D01*
X13236162Y-11767343D01*
X13230775Y-11767343D01*
X13222694Y-11764650D01*
X13211919Y-11753875D01*
X13209225Y-11745793D01*
X13209225Y-11740406D01*
X13211919Y-11732325D01*
X13225387Y-11718856D01*
X13233469Y-11716162D01*
X13238856Y-11716162D01*
X13246937Y-11718856D01*
X13257712Y-11729631D01*
X13260406Y-11737712D01*
X13260406Y-11743100D01*
X13257712Y-11751181D01*
X12406568Y-11643837D02*
X12411956Y-11643837D01*
X12422731Y-11638450D01*
X12428118Y-11633062D01*
X12433506Y-11622288D01*
X12433506Y-11611513D01*
X12430812Y-11603431D01*
X12422731Y-11589963D01*
X12414650Y-11581881D01*
X12401181Y-11573800D01*
X12393100Y-11571106D01*
X12382325Y-11571106D01*
X12371550Y-11576494D01*
X12366162Y-11581881D01*
X12360775Y-11592656D01*
X12360775Y-11598044D01*
X12358081Y-11703100D02*
X12390406Y-11670775D01*
X12374244Y-11686937D02*
X12317675Y-11630369D01*
X12331144Y-11633062D01*
X12341919Y-11633062D01*
X12350000Y-11630369D01*
X12266494Y-11681550D02*
X12261106Y-11686937D01*
X12258413Y-11695019D01*
X12258413Y-11700406D01*
X12261106Y-11708487D01*
X12269188Y-11721956D01*
X12282656Y-11735425D01*
X12296125Y-11743506D01*
X12304206Y-11746200D01*
X12309594Y-11746200D01*
X12317675Y-11743506D01*
X12323062Y-11738118D01*
X12325756Y-11730037D01*
X12325756Y-11724650D01*
X12323062Y-11716568D01*
X12314981Y-11703100D01*
X12301513Y-11689631D01*
X12288044Y-11681550D01*
X12279963Y-11678856D01*
X12274575Y-11678856D01*
X12266494Y-11681550D01*
X12472228Y-10610641D02*
X12472228Y-10605254D01*
X12466840Y-10594479D01*
X12461453Y-10589091D01*
X12450678Y-10583704D01*
X12439903Y-10583704D01*
X12431821Y-10586397D01*
X12418353Y-10594479D01*
X12410272Y-10602560D01*
X12402190Y-10616029D01*
X12399497Y-10624110D01*
X12399497Y-10634885D01*
X12404884Y-10645660D01*
X12410272Y-10651047D01*
X12421046Y-10656435D01*
X12426434Y-10656435D01*
X12531490Y-10659128D02*
X12499165Y-10626804D01*
X12515327Y-10642966D02*
X12458759Y-10699535D01*
X12461453Y-10686066D01*
X12461453Y-10675291D01*
X12458759Y-10667210D01*
X12523409Y-10764184D02*
X12512634Y-10753409D01*
X12509940Y-10745328D01*
X12509940Y-10739941D01*
X12512634Y-10726472D01*
X12520715Y-10713003D01*
X12542265Y-10691453D01*
X12550346Y-10688760D01*
X12555734Y-10688760D01*
X12563815Y-10691453D01*
X12574590Y-10702228D01*
X12577283Y-10710310D01*
X12577283Y-10715697D01*
X12574590Y-10723778D01*
X12561121Y-10737247D01*
X12553040Y-10739941D01*
X12547652Y-10739941D01*
X12539571Y-10737247D01*
X12528796Y-10726472D01*
X12526102Y-10718391D01*
X12526102Y-10713003D01*
X12528796Y-10704922D01*
X14363837Y-9223431D02*
X14363837Y-9218044D01*
X14358450Y-9207269D01*
X14353062Y-9201882D01*
X14342288Y-9196494D01*
X14331513Y-9196494D01*
X14323431Y-9199188D01*
X14309963Y-9207269D01*
X14301881Y-9215350D01*
X14293800Y-9228819D01*
X14291106Y-9236900D01*
X14291106Y-9247675D01*
X14296494Y-9258450D01*
X14301881Y-9263838D01*
X14312656Y-9269225D01*
X14318044Y-9269225D01*
X14339594Y-9290775D02*
X14339594Y-9296162D01*
X14342288Y-9304244D01*
X14355756Y-9317712D01*
X14363837Y-9320406D01*
X14369225Y-9320406D01*
X14377306Y-9317712D01*
X14382694Y-9312325D01*
X14388081Y-9301550D01*
X14388081Y-9236900D01*
X14423100Y-9271919D01*
X14401550Y-9363506D02*
X14406937Y-9368893D01*
X14415019Y-9371587D01*
X14420406Y-9371587D01*
X14428487Y-9368893D01*
X14441956Y-9360812D01*
X14455425Y-9347344D01*
X14463506Y-9333875D01*
X14466200Y-9325794D01*
X14466200Y-9320406D01*
X14463506Y-9312325D01*
X14458118Y-9306937D01*
X14450037Y-9304244D01*
X14444650Y-9304244D01*
X14436568Y-9306937D01*
X14423100Y-9315019D01*
X14409631Y-9328487D01*
X14401550Y-9341956D01*
X14398856Y-9350037D01*
X14398856Y-9355425D01*
X14401550Y-9363506D01*
X13593837Y-11338431D02*
X13593837Y-11333044D01*
X13588450Y-11322269D01*
X13583062Y-11316881D01*
X13572288Y-11311494D01*
X13561513Y-11311494D01*
X13553431Y-11314188D01*
X13539963Y-11322269D01*
X13531881Y-11330350D01*
X13523800Y-11343819D01*
X13521106Y-11351900D01*
X13521106Y-11362675D01*
X13526494Y-11373450D01*
X13531881Y-11378837D01*
X13542656Y-11384225D01*
X13548044Y-11384225D01*
X13610000Y-11419244D02*
X13647712Y-11381531D01*
X13574981Y-11427325D02*
X13601919Y-11373450D01*
X13636937Y-11408469D01*
X13631550Y-11478506D02*
X13636937Y-11483893D01*
X13645019Y-11486587D01*
X13650406Y-11486587D01*
X13658487Y-11483893D01*
X13671956Y-11475812D01*
X13685425Y-11462343D01*
X13693506Y-11448875D01*
X13696200Y-11440793D01*
X13696200Y-11435406D01*
X13693506Y-11427325D01*
X13688118Y-11421937D01*
X13680037Y-11419244D01*
X13674650Y-11419244D01*
X13666568Y-11421937D01*
X13653100Y-11430019D01*
X13639631Y-11443487D01*
X13631550Y-11456956D01*
X13628856Y-11465037D01*
X13628856Y-11470425D01*
X13631550Y-11478506D01*
X15363837Y-10223431D02*
X15363837Y-10218044D01*
X15358450Y-10207269D01*
X15353062Y-10201882D01*
X15342288Y-10196494D01*
X15331513Y-10196494D01*
X15323431Y-10199188D01*
X15309963Y-10207269D01*
X15301881Y-10215350D01*
X15293800Y-10228819D01*
X15291106Y-10236900D01*
X15291106Y-10247675D01*
X15296494Y-10258450D01*
X15301881Y-10263838D01*
X15312656Y-10269225D01*
X15318044Y-10269225D01*
X15380000Y-10304244D02*
X15417712Y-10266531D01*
X15344981Y-10312325D02*
X15371919Y-10258450D01*
X15406937Y-10293469D01*
X15476975Y-10325794D02*
X15444650Y-10293469D01*
X15460812Y-10309631D02*
X15404244Y-10366200D01*
X15406937Y-10352731D01*
X15406937Y-10341956D01*
X15404244Y-10333875D01*
X14026568Y-9833838D02*
X14031956Y-9833838D01*
X14042731Y-9828450D01*
X14048118Y-9823063D01*
X14053506Y-9812288D01*
X14053506Y-9801513D01*
X14050812Y-9793431D01*
X14042731Y-9779963D01*
X14034650Y-9771882D01*
X14021181Y-9763800D01*
X14013100Y-9761107D01*
X14002325Y-9761107D01*
X13991550Y-9766494D01*
X13986162Y-9771882D01*
X13980775Y-9782656D01*
X13980775Y-9788044D01*
X13945756Y-9850000D02*
X13983469Y-9887712D01*
X13937675Y-9814981D02*
X13991550Y-9841919D01*
X13956531Y-9876937D01*
X13902656Y-9855387D02*
X13864944Y-9893100D01*
X13945756Y-9925425D01*
X15011371Y-11254101D02*
X15016759Y-11254101D01*
X15027533Y-11248713D01*
X15032921Y-11243326D01*
X15038308Y-11232551D01*
X15038308Y-11221776D01*
X15035615Y-11213694D01*
X15027533Y-11200226D01*
X15019452Y-11192145D01*
X15005984Y-11184063D01*
X14997902Y-11181370D01*
X14987127Y-11181370D01*
X14976352Y-11186757D01*
X14970965Y-11192145D01*
X14965577Y-11202919D01*
X14965577Y-11208307D01*
X14909009Y-11254101D02*
X14935946Y-11227163D01*
X14965577Y-11251407D01*
X14960190Y-11251407D01*
X14952109Y-11254101D01*
X14938640Y-11267569D01*
X14935946Y-11275650D01*
X14935946Y-11281038D01*
X14938640Y-11289119D01*
X14952109Y-11302588D01*
X14960190Y-11305282D01*
X14965577Y-11305282D01*
X14973659Y-11302588D01*
X14987127Y-11289119D01*
X14989821Y-11281038D01*
X14989821Y-11275650D01*
X14890153Y-11283732D02*
X14884765Y-11283732D01*
X14876684Y-11286425D01*
X14863215Y-11299894D01*
X14860522Y-11307975D01*
X14860522Y-11313363D01*
X14863215Y-11321444D01*
X14868603Y-11326832D01*
X14879378Y-11332219D01*
X14944028Y-11332219D01*
X14909009Y-11367238D01*
X16543837Y-10543431D02*
X16543837Y-10538044D01*
X16538450Y-10527269D01*
X16533062Y-10521882D01*
X16522288Y-10516494D01*
X16511513Y-10516494D01*
X16503431Y-10519188D01*
X16489963Y-10527269D01*
X16481881Y-10535350D01*
X16473800Y-10548819D01*
X16471106Y-10556900D01*
X16471106Y-10567675D01*
X16476494Y-10578450D01*
X16481881Y-10583838D01*
X16492656Y-10589225D01*
X16498044Y-10589225D01*
X16543837Y-10645794D02*
X16516900Y-10618856D01*
X16541144Y-10589225D01*
X16541144Y-10594613D01*
X16543837Y-10602694D01*
X16557306Y-10616162D01*
X16565387Y-10618856D01*
X16570775Y-10618856D01*
X16578856Y-10616162D01*
X16592325Y-10602694D01*
X16595019Y-10594613D01*
X16595019Y-10589225D01*
X16592325Y-10581144D01*
X16578856Y-10567675D01*
X16570775Y-10564981D01*
X16565387Y-10564981D01*
X16613875Y-10678118D02*
X16651587Y-10640406D01*
X16578856Y-10686200D02*
X16605793Y-10632325D01*
X16640812Y-10667344D01*
X16078837Y-10128431D02*
X16078837Y-10123044D01*
X16073450Y-10112269D01*
X16068062Y-10106882D01*
X16057288Y-10101494D01*
X16046513Y-10101494D01*
X16038431Y-10104188D01*
X16024963Y-10112269D01*
X16016881Y-10120350D01*
X16008800Y-10133819D01*
X16006106Y-10141900D01*
X16006106Y-10152675D01*
X16011494Y-10163450D01*
X16016881Y-10168838D01*
X16027656Y-10174225D01*
X16033044Y-10174225D01*
X16078837Y-10230794D02*
X16051900Y-10203856D01*
X16076144Y-10174225D01*
X16076144Y-10179613D01*
X16078837Y-10187694D01*
X16092306Y-10201162D01*
X16100387Y-10203856D01*
X16105775Y-10203856D01*
X16113856Y-10201162D01*
X16127325Y-10187694D01*
X16130019Y-10179613D01*
X16130019Y-10174225D01*
X16127325Y-10166144D01*
X16113856Y-10152675D01*
X16105775Y-10149981D01*
X16100387Y-10149981D01*
X16132712Y-10284668D02*
X16105775Y-10257731D01*
X16130019Y-10228100D01*
X16130019Y-10233487D01*
X16132712Y-10241569D01*
X16146181Y-10255037D01*
X16154262Y-10257731D01*
X16159650Y-10257731D01*
X16167731Y-10255037D01*
X16181200Y-10241569D01*
X16183893Y-10233487D01*
X16183893Y-10228100D01*
X16181200Y-10220019D01*
X16167731Y-10206550D01*
X16159650Y-10203856D01*
X16154262Y-10203856D01*
X11643837Y-6543431D02*
X11643837Y-6538044D01*
X11638450Y-6527269D01*
X11633062Y-6521881D01*
X11622287Y-6516494D01*
X11611512Y-6516494D01*
X11603431Y-6519188D01*
X11589963Y-6527269D01*
X11581881Y-6535350D01*
X11573800Y-6548819D01*
X11571106Y-6556900D01*
X11571106Y-6567675D01*
X11576494Y-6578450D01*
X11581881Y-6583837D01*
X11592656Y-6589225D01*
X11598044Y-6589225D01*
X11643837Y-6645793D02*
X11616900Y-6618856D01*
X11641144Y-6589225D01*
X11641144Y-6594612D01*
X11643837Y-6602694D01*
X11657306Y-6616162D01*
X11665387Y-6618856D01*
X11670775Y-6618856D01*
X11678856Y-6616162D01*
X11692325Y-6602694D01*
X11695018Y-6594612D01*
X11695018Y-6589225D01*
X11692325Y-6581144D01*
X11678856Y-6567675D01*
X11670775Y-6564981D01*
X11665387Y-6564981D01*
X11695018Y-6696975D02*
X11684243Y-6686200D01*
X11681550Y-6678118D01*
X11681550Y-6672731D01*
X11684243Y-6659262D01*
X11692325Y-6645793D01*
X11713875Y-6624244D01*
X11721956Y-6621550D01*
X11727343Y-6621550D01*
X11735425Y-6624244D01*
X11746199Y-6635019D01*
X11748893Y-6643100D01*
X11748893Y-6648487D01*
X11746199Y-6656568D01*
X11732731Y-6670037D01*
X11724650Y-6672731D01*
X11719262Y-6672731D01*
X11711181Y-6670037D01*
X11700406Y-6659262D01*
X11697712Y-6651181D01*
X11697712Y-6645793D01*
X11700406Y-6637712D01*
X12061568Y-5813837D02*
X12066956Y-5813837D01*
X12077731Y-5808450D01*
X12083118Y-5803062D01*
X12088506Y-5792288D01*
X12088506Y-5781513D01*
X12085812Y-5773431D01*
X12077731Y-5759963D01*
X12069650Y-5751881D01*
X12056181Y-5743800D01*
X12048100Y-5741106D01*
X12037325Y-5741106D01*
X12026550Y-5746494D01*
X12021162Y-5751881D01*
X12015775Y-5762656D01*
X12015775Y-5768044D01*
X11959206Y-5813837D02*
X11986144Y-5786900D01*
X12015775Y-5811144D01*
X12010387Y-5811144D01*
X12002306Y-5813837D01*
X11988837Y-5827306D01*
X11986144Y-5835387D01*
X11986144Y-5840775D01*
X11988837Y-5848856D01*
X12002306Y-5862325D01*
X12010387Y-5865019D01*
X12015775Y-5865019D01*
X12023856Y-5862325D01*
X12037325Y-5848856D01*
X12040019Y-5840775D01*
X12040019Y-5835387D01*
X11948431Y-5873100D02*
X11951125Y-5865019D01*
X11951125Y-5859631D01*
X11948431Y-5851550D01*
X11945738Y-5848856D01*
X11937656Y-5846162D01*
X11932269Y-5846162D01*
X11924188Y-5848856D01*
X11913413Y-5859631D01*
X11910719Y-5867712D01*
X11910719Y-5873100D01*
X11913413Y-5881181D01*
X11916106Y-5883875D01*
X11924188Y-5886568D01*
X11929575Y-5886568D01*
X11937656Y-5883875D01*
X11948431Y-5873100D01*
X11956513Y-5870406D01*
X11961900Y-5870406D01*
X11969981Y-5873100D01*
X11980756Y-5883875D01*
X11983450Y-5891956D01*
X11983450Y-5897343D01*
X11980756Y-5905425D01*
X11969981Y-5916200D01*
X11961900Y-5918893D01*
X11956513Y-5918893D01*
X11948431Y-5916200D01*
X11937656Y-5905425D01*
X11934963Y-5897343D01*
X11934963Y-5891956D01*
X11937656Y-5883875D01*
X17033838Y-11023431D02*
X17033838Y-11018044D01*
X17028450Y-11007269D01*
X17023063Y-11001882D01*
X17012288Y-10996494D01*
X17001513Y-10996494D01*
X16993431Y-10999188D01*
X16979963Y-11007269D01*
X16971882Y-11015350D01*
X16963800Y-11028819D01*
X16961107Y-11036900D01*
X16961107Y-11047675D01*
X16966494Y-11058450D01*
X16971882Y-11063838D01*
X16982656Y-11069225D01*
X16988044Y-11069225D01*
X17033838Y-11125794D02*
X17006900Y-11098856D01*
X17031144Y-11069225D01*
X17031144Y-11074613D01*
X17033838Y-11082694D01*
X17047306Y-11096162D01*
X17055387Y-11098856D01*
X17060775Y-11098856D01*
X17068856Y-11096162D01*
X17082325Y-11082694D01*
X17085019Y-11074613D01*
X17085019Y-11069225D01*
X17082325Y-11061144D01*
X17068856Y-11047675D01*
X17060775Y-11044981D01*
X17055387Y-11044981D01*
X17120037Y-11098856D02*
X17130812Y-11109631D01*
X17133506Y-11117712D01*
X17133506Y-11123100D01*
X17130812Y-11136569D01*
X17122731Y-11150037D01*
X17101181Y-11171587D01*
X17093100Y-11174281D01*
X17087712Y-11174281D01*
X17079631Y-11171587D01*
X17068856Y-11160812D01*
X17066162Y-11152731D01*
X17066162Y-11147344D01*
X17068856Y-11139262D01*
X17082325Y-11125794D01*
X17090406Y-11123100D01*
X17095794Y-11123100D01*
X17103875Y-11125794D01*
X17114650Y-11136569D01*
X17117344Y-11144650D01*
X17117344Y-11150037D01*
X17114650Y-11158118D01*
X16663837Y-10413431D02*
X16663837Y-10408044D01*
X16658450Y-10397269D01*
X16653062Y-10391882D01*
X16642288Y-10386494D01*
X16631513Y-10386494D01*
X16623431Y-10389188D01*
X16609963Y-10397269D01*
X16601881Y-10405350D01*
X16593800Y-10418819D01*
X16591106Y-10426900D01*
X16591106Y-10437675D01*
X16596494Y-10448450D01*
X16601881Y-10453838D01*
X16612656Y-10459225D01*
X16618044Y-10459225D01*
X16661144Y-10513100D02*
X16650369Y-10502325D01*
X16647675Y-10494244D01*
X16647675Y-10488856D01*
X16650369Y-10475387D01*
X16658450Y-10461919D01*
X16680000Y-10440369D01*
X16688081Y-10437675D01*
X16693469Y-10437675D01*
X16701550Y-10440369D01*
X16712325Y-10451144D01*
X16715019Y-10459225D01*
X16715019Y-10464613D01*
X16712325Y-10472694D01*
X16698856Y-10486162D01*
X16690775Y-10488856D01*
X16685387Y-10488856D01*
X16677306Y-10486162D01*
X16666531Y-10475387D01*
X16663837Y-10467306D01*
X16663837Y-10461919D01*
X16666531Y-10453838D01*
X16701550Y-10553506D02*
X16706937Y-10558893D01*
X16715019Y-10561587D01*
X16720406Y-10561587D01*
X16728487Y-10558893D01*
X16741956Y-10550812D01*
X16755425Y-10537344D01*
X16763506Y-10523875D01*
X16766200Y-10515794D01*
X16766200Y-10510406D01*
X16763506Y-10502325D01*
X16758118Y-10496937D01*
X16750037Y-10494244D01*
X16744650Y-10494244D01*
X16736568Y-10496937D01*
X16723100Y-10505019D01*
X16709631Y-10518487D01*
X16701550Y-10531956D01*
X16698856Y-10540037D01*
X16698856Y-10545425D01*
X16701550Y-10553506D01*
X13243871Y-8959101D02*
X13249259Y-8959101D01*
X13260033Y-8953713D01*
X13265421Y-8948326D01*
X13270808Y-8937551D01*
X13270808Y-8926776D01*
X13268115Y-8918695D01*
X13260033Y-8905226D01*
X13251952Y-8897145D01*
X13238484Y-8889063D01*
X13230402Y-8886370D01*
X13219627Y-8886370D01*
X13208852Y-8891757D01*
X13203465Y-8897145D01*
X13198077Y-8907920D01*
X13198077Y-8913307D01*
X13144203Y-8956407D02*
X13154978Y-8945632D01*
X13163059Y-8942938D01*
X13168446Y-8942938D01*
X13181915Y-8945632D01*
X13195384Y-8953713D01*
X13216934Y-8975263D01*
X13219627Y-8983344D01*
X13219627Y-8988732D01*
X13216934Y-8996813D01*
X13206159Y-9007588D01*
X13198077Y-9010282D01*
X13192690Y-9010282D01*
X13184609Y-9007588D01*
X13171140Y-8994119D01*
X13168446Y-8986038D01*
X13168446Y-8980651D01*
X13171140Y-8972569D01*
X13181915Y-8961794D01*
X13189996Y-8959101D01*
X13195384Y-8959101D01*
X13203465Y-8961794D01*
X13119959Y-8980651D02*
X13082247Y-9018363D01*
X13163059Y-9050688D01*
X13781956Y-11139225D02*
X13773875Y-11093431D01*
X13814281Y-11106900D02*
X13757712Y-11050332D01*
X13736162Y-11071882D01*
X13733469Y-11079963D01*
X13733469Y-11085350D01*
X13736162Y-11093431D01*
X13744244Y-11101513D01*
X13752325Y-11104206D01*
X13757712Y-11104206D01*
X13765793Y-11101513D01*
X13787343Y-11079963D01*
X13728081Y-11193100D02*
X13760406Y-11160775D01*
X13744244Y-11176937D02*
X13687675Y-11120369D01*
X13701144Y-11123063D01*
X13711919Y-11123063D01*
X13720000Y-11120369D01*
X13652656Y-11155387D02*
X13617638Y-11190406D01*
X13658044Y-11193100D01*
X13649963Y-11201181D01*
X13647269Y-11209262D01*
X13647269Y-11214650D01*
X13649963Y-11222731D01*
X13663431Y-11236200D01*
X13671513Y-11238893D01*
X13676900Y-11238893D01*
X13684981Y-11236200D01*
X13701144Y-11220037D01*
X13703837Y-11211956D01*
X13703837Y-11206568D01*
X13276162Y-9164981D02*
X13249225Y-9138044D01*
X13192656Y-9194613D01*
X13233062Y-9235019D02*
X13268081Y-9270037D01*
X13270775Y-9229631D01*
X13278856Y-9237712D01*
X13286937Y-9240406D01*
X13292325Y-9240406D01*
X13300406Y-9237712D01*
X13313875Y-9224244D01*
X13316568Y-9216162D01*
X13316568Y-9210775D01*
X13313875Y-9202694D01*
X13297712Y-9186531D01*
X13289631Y-9183838D01*
X13284244Y-9183838D01*
X13785203Y-9706227D02*
X13751531Y-9672555D01*
X13680821Y-9743266D01*
X13791937Y-9807242D02*
X13839078Y-9760102D01*
X13748164Y-9817344D02*
X13781836Y-9750000D01*
X13825609Y-9793773D01*
X14941956Y-10709225D02*
X14968893Y-10682288D01*
X14912325Y-10625719D01*
X14893469Y-10757712D02*
X14925793Y-10725387D01*
X14909631Y-10741550D02*
X14853062Y-10684981D01*
X14866531Y-10687675D01*
X14877306Y-10687675D01*
X14885387Y-10684981D01*
X14785719Y-10752325D02*
X14812656Y-10725387D01*
X14842288Y-10749631D01*
X14836900Y-10749631D01*
X14828819Y-10752325D01*
X14815350Y-10765794D01*
X14812656Y-10773875D01*
X14812656Y-10779262D01*
X14815350Y-10787344D01*
X14828819Y-10800812D01*
X14836900Y-10803506D01*
X14842288Y-10803506D01*
X14850369Y-10800812D01*
X14863837Y-10787344D01*
X14866531Y-10779262D01*
X14866531Y-10773875D01*
X14259225Y-10198044D02*
X14232288Y-10171107D01*
X14175719Y-10227675D01*
X14307712Y-10246531D02*
X14275387Y-10214206D01*
X14291550Y-10230369D02*
X14234981Y-10286937D01*
X14237675Y-10273469D01*
X14237675Y-10262694D01*
X14234981Y-10254613D01*
X14299631Y-10351587D02*
X14288856Y-10340812D01*
X14286162Y-10332731D01*
X14286162Y-10327344D01*
X14288856Y-10313875D01*
X14296937Y-10300406D01*
X14318487Y-10278856D01*
X14326568Y-10276162D01*
X14331956Y-10276162D01*
X14340037Y-10278856D01*
X14350812Y-10289631D01*
X14353506Y-10297712D01*
X14353506Y-10303100D01*
X14350812Y-10311181D01*
X14337343Y-10324650D01*
X14329262Y-10327344D01*
X14323875Y-10327344D01*
X14315793Y-10324650D01*
X14305019Y-10313875D01*
X14302325Y-10305794D01*
X14302325Y-10300406D01*
X14305019Y-10292325D01*
X14770775Y-7370369D02*
X14770775Y-7364981D01*
X14765387Y-7354206D01*
X14760000Y-7348819D01*
X14749225Y-7343431D01*
X14738450Y-7343431D01*
X14730369Y-7346125D01*
X14716900Y-7354206D01*
X14708819Y-7362288D01*
X14700738Y-7375756D01*
X14698044Y-7383837D01*
X14698044Y-7394612D01*
X14703431Y-7405387D01*
X14708819Y-7410775D01*
X14719594Y-7416162D01*
X14724981Y-7416162D01*
X14738450Y-7440406D02*
X14773469Y-7475425D01*
X14776162Y-7435019D01*
X14784244Y-7443100D01*
X14792325Y-7445793D01*
X14797712Y-7445793D01*
X14805793Y-7443100D01*
X14819262Y-7429631D01*
X14821956Y-7421550D01*
X14821956Y-7416162D01*
X14819262Y-7408081D01*
X14803100Y-7391919D01*
X14795019Y-7389225D01*
X14789631Y-7389225D01*
X15690775Y-6490369D02*
X15690775Y-6484981D01*
X15685387Y-6474206D01*
X15680000Y-6468819D01*
X15669225Y-6463431D01*
X15658450Y-6463431D01*
X15650369Y-6466125D01*
X15636900Y-6474206D01*
X15628819Y-6482288D01*
X15620738Y-6495756D01*
X15618044Y-6503837D01*
X15618044Y-6514612D01*
X15623431Y-6525387D01*
X15628819Y-6530775D01*
X15639594Y-6536162D01*
X15644981Y-6536162D01*
X15706937Y-6571181D02*
X15744650Y-6533469D01*
X15671919Y-6579262D02*
X15698856Y-6525387D01*
X15733875Y-6560406D01*
X14089631Y-7430775D02*
X14095019Y-7430775D01*
X14105793Y-7425387D01*
X14111181Y-7420000D01*
X14116568Y-7409225D01*
X14116568Y-7398450D01*
X14113875Y-7390369D01*
X14105793Y-7376900D01*
X14097712Y-7368819D01*
X14084244Y-7360738D01*
X14076162Y-7358044D01*
X14065387Y-7358044D01*
X14054612Y-7363431D01*
X14049225Y-7368819D01*
X14043837Y-7379594D01*
X14043837Y-7384981D01*
X13987269Y-7430775D02*
X14014206Y-7403837D01*
X14043837Y-7428081D01*
X14038450Y-7428081D01*
X14030369Y-7430775D01*
X14016900Y-7444244D01*
X14014206Y-7452325D01*
X14014206Y-7457712D01*
X14016900Y-7465793D01*
X14030369Y-7479262D01*
X14038450Y-7481956D01*
X14043837Y-7481956D01*
X14051919Y-7479262D01*
X14065387Y-7465793D01*
X14068081Y-7457712D01*
X14068081Y-7452325D01*
X15539631Y-8220775D02*
X15545019Y-8220775D01*
X15555793Y-8215387D01*
X15561181Y-8210000D01*
X15566568Y-8199225D01*
X15566568Y-8188450D01*
X15563875Y-8180369D01*
X15555793Y-8166900D01*
X15547712Y-8158819D01*
X15534244Y-8150738D01*
X15526162Y-8148044D01*
X15515387Y-8148044D01*
X15504612Y-8153431D01*
X15499225Y-8158819D01*
X15493837Y-8169594D01*
X15493837Y-8174981D01*
X15439963Y-8218081D02*
X15450738Y-8207306D01*
X15458819Y-8204612D01*
X15464206Y-8204612D01*
X15477675Y-8207306D01*
X15491144Y-8215387D01*
X15512694Y-8236937D01*
X15515387Y-8245019D01*
X15515387Y-8250406D01*
X15512694Y-8258487D01*
X15501919Y-8269262D01*
X15493837Y-8271956D01*
X15488450Y-8271956D01*
X15480369Y-8269262D01*
X15466900Y-8255793D01*
X15464206Y-8247712D01*
X15464206Y-8242325D01*
X15466900Y-8234244D01*
X15477675Y-8223469D01*
X15485756Y-8220775D01*
X15491144Y-8220775D01*
X15499225Y-8223469D01*
X13036766Y-5123574D02*
X13042153Y-5123574D01*
X13052928Y-5118187D01*
X13058316Y-5112799D01*
X13063703Y-5102025D01*
X13063703Y-5091250D01*
X13061010Y-5083168D01*
X13052928Y-5069700D01*
X13044847Y-5061618D01*
X13031378Y-5053537D01*
X13023297Y-5050843D01*
X13012522Y-5050843D01*
X13001747Y-5056231D01*
X12996360Y-5061618D01*
X12990972Y-5072393D01*
X12990972Y-5077781D01*
X12988279Y-5182837D02*
X13020603Y-5150512D01*
X13004441Y-5166674D02*
X12947872Y-5110106D01*
X12961341Y-5112799D01*
X12972116Y-5112799D01*
X12980197Y-5110106D01*
X12934404Y-5236712D02*
X12966729Y-5204387D01*
X12950566Y-5220549D02*
X12893998Y-5163981D01*
X12907466Y-5166674D01*
X12918241Y-5166674D01*
X12926322Y-5163981D01*
X13252947Y-5365688D02*
X13252947Y-5360301D01*
X13247559Y-5349526D01*
X13242172Y-5344139D01*
X13231397Y-5338751D01*
X13220622Y-5338751D01*
X13212541Y-5341445D01*
X13199072Y-5349526D01*
X13190991Y-5357607D01*
X13182910Y-5371076D01*
X13180216Y-5379157D01*
X13180216Y-5389932D01*
X13185603Y-5400707D01*
X13190991Y-5406095D01*
X13201766Y-5411482D01*
X13207153Y-5411482D01*
X13312209Y-5414176D02*
X13279884Y-5381851D01*
X13296047Y-5398013D02*
X13239478Y-5454582D01*
X13242172Y-5441113D01*
X13242172Y-5430338D01*
X13239478Y-5422257D01*
X13282578Y-5486907D02*
X13282578Y-5492294D01*
X13285272Y-5500375D01*
X13298741Y-5513844D01*
X13306822Y-5516538D01*
X13312209Y-5516538D01*
X13320290Y-5513844D01*
X13325678Y-5508457D01*
X13331065Y-5497682D01*
X13331065Y-5433032D01*
X13366084Y-5468051D01*
X13536569Y-5786602D02*
X13536569Y-5781214D01*
X13531181Y-5770440D01*
X13525794Y-5765052D01*
X13515019Y-5759665D01*
X13504244Y-5759665D01*
X13496163Y-5762358D01*
X13482694Y-5770440D01*
X13474613Y-5778521D01*
X13466531Y-5791989D01*
X13463838Y-5800071D01*
X13463838Y-5810846D01*
X13469225Y-5821621D01*
X13474613Y-5827008D01*
X13485388Y-5832396D01*
X13490775Y-5832396D01*
X13595831Y-5835089D02*
X13563506Y-5802764D01*
X13579669Y-5818927D02*
X13523100Y-5875495D01*
X13525794Y-5862027D01*
X13525794Y-5851252D01*
X13523100Y-5843171D01*
X13558119Y-5910514D02*
X13593137Y-5945533D01*
X13595831Y-5905127D01*
X13603912Y-5913208D01*
X13611993Y-5915901D01*
X13617381Y-5915901D01*
X13625462Y-5913208D01*
X13638931Y-5899739D01*
X13641625Y-5891658D01*
X13641625Y-5886270D01*
X13638931Y-5878189D01*
X13622768Y-5862027D01*
X13614687Y-5859333D01*
X13609300Y-5859333D01*
X14783837Y-6883431D02*
X14783837Y-6878044D01*
X14778450Y-6867269D01*
X14773062Y-6861881D01*
X14762288Y-6856494D01*
X14751513Y-6856494D01*
X14743431Y-6859188D01*
X14729963Y-6867269D01*
X14721881Y-6875350D01*
X14713800Y-6888819D01*
X14711106Y-6896900D01*
X14711106Y-6907675D01*
X14716494Y-6918450D01*
X14721881Y-6923837D01*
X14732656Y-6929225D01*
X14738044Y-6929225D01*
X14843100Y-6931919D02*
X14810775Y-6899594D01*
X14826937Y-6915756D02*
X14770369Y-6972325D01*
X14773062Y-6958856D01*
X14773062Y-6948081D01*
X14770369Y-6940000D01*
X14853875Y-7018118D02*
X14891587Y-6980406D01*
X14818856Y-7026200D02*
X14845793Y-6972325D01*
X14880812Y-7007343D01*
X15148571Y-7308571D02*
X15152381Y-7304762D01*
X15156190Y-7293333D01*
X15156190Y-7285714D01*
X15152381Y-7274286D01*
X15144762Y-7266667D01*
X15137143Y-7262857D01*
X15121905Y-7259048D01*
X15110476Y-7259048D01*
X15095238Y-7262857D01*
X15087619Y-7266667D01*
X15080000Y-7274286D01*
X15076190Y-7285714D01*
X15076190Y-7293333D01*
X15080000Y-7304762D01*
X15083809Y-7308571D01*
X15156190Y-7384762D02*
X15156190Y-7339048D01*
X15156190Y-7361905D02*
X15076190Y-7361905D01*
X15087619Y-7354286D01*
X15095238Y-7346667D01*
X15099048Y-7339048D01*
X15076190Y-7457143D02*
X15076190Y-7419048D01*
X15114286Y-7415238D01*
X15110476Y-7419048D01*
X15106667Y-7426667D01*
X15106667Y-7445714D01*
X15110476Y-7453333D01*
X15114286Y-7457143D01*
X15121905Y-7460952D01*
X15140952Y-7460952D01*
X15148571Y-7457143D01*
X15152381Y-7453333D01*
X15156190Y-7445714D01*
X15156190Y-7426667D01*
X15152381Y-7419048D01*
X15148571Y-7415238D01*
X13963837Y-8363431D02*
X13963837Y-8358044D01*
X13958450Y-8347269D01*
X13953062Y-8341881D01*
X13942288Y-8336494D01*
X13931513Y-8336494D01*
X13923431Y-8339188D01*
X13909963Y-8347269D01*
X13901881Y-8355350D01*
X13893800Y-8368819D01*
X13891106Y-8376900D01*
X13891106Y-8387675D01*
X13896494Y-8398450D01*
X13901881Y-8403838D01*
X13912656Y-8409225D01*
X13918044Y-8409225D01*
X14023100Y-8411919D02*
X13990775Y-8379594D01*
X14006937Y-8395756D02*
X13950369Y-8452325D01*
X13953062Y-8438856D01*
X13953062Y-8428081D01*
X13950369Y-8420000D01*
X13985387Y-8487344D02*
X14023100Y-8525056D01*
X14055425Y-8444244D01*
X14977669Y-6298446D02*
X14977669Y-6293058D01*
X14972281Y-6282283D01*
X14966894Y-6276896D01*
X14956119Y-6271508D01*
X14945344Y-6271508D01*
X14937263Y-6274202D01*
X14923794Y-6282283D01*
X14915713Y-6290364D01*
X14907632Y-6303833D01*
X14904938Y-6311914D01*
X14904938Y-6322689D01*
X14910325Y-6333464D01*
X14915713Y-6338852D01*
X14926488Y-6344239D01*
X14931875Y-6344239D01*
X15036931Y-6346933D02*
X15004606Y-6314608D01*
X15020769Y-6330771D02*
X14964200Y-6387339D01*
X14966894Y-6373870D01*
X14966894Y-6363095D01*
X14964200Y-6355014D01*
X15036931Y-6411583D02*
X15028850Y-6408889D01*
X15023462Y-6408889D01*
X15015381Y-6411583D01*
X15012687Y-6414276D01*
X15009994Y-6422358D01*
X15009994Y-6427745D01*
X15012687Y-6435826D01*
X15023462Y-6446601D01*
X15031544Y-6449295D01*
X15036931Y-6449295D01*
X15045012Y-6446601D01*
X15047706Y-6443908D01*
X15050400Y-6435826D01*
X15050400Y-6430439D01*
X15047706Y-6422358D01*
X15036931Y-6411583D01*
X15034237Y-6403502D01*
X15034237Y-6398114D01*
X15036931Y-6390033D01*
X15047706Y-6379258D01*
X15055787Y-6376564D01*
X15061175Y-6376564D01*
X15069256Y-6379258D01*
X15080031Y-6390033D01*
X15082725Y-6398114D01*
X15082725Y-6403502D01*
X15080031Y-6411583D01*
X15069256Y-6422358D01*
X15061175Y-6425051D01*
X15055787Y-6425051D01*
X15047706Y-6422358D01*
X15436568Y-6723837D02*
X15441956Y-6723837D01*
X15452731Y-6718450D01*
X15458118Y-6713062D01*
X15463506Y-6702288D01*
X15463506Y-6691513D01*
X15460812Y-6683431D01*
X15452731Y-6669963D01*
X15444650Y-6661881D01*
X15431181Y-6653800D01*
X15423100Y-6651106D01*
X15412325Y-6651106D01*
X15401550Y-6656494D01*
X15396162Y-6661881D01*
X15390775Y-6672656D01*
X15390775Y-6678044D01*
X15388081Y-6783100D02*
X15420406Y-6750775D01*
X15404244Y-6766937D02*
X15347675Y-6710369D01*
X15361144Y-6713062D01*
X15371919Y-6713062D01*
X15380000Y-6710369D01*
X15361144Y-6810037D02*
X15350369Y-6820812D01*
X15342288Y-6823506D01*
X15336900Y-6823506D01*
X15323431Y-6820812D01*
X15309963Y-6812731D01*
X15288413Y-6791181D01*
X15285719Y-6783100D01*
X15285719Y-6777712D01*
X15288413Y-6769631D01*
X15299188Y-6758856D01*
X15307269Y-6756162D01*
X15312656Y-6756162D01*
X15320738Y-6758856D01*
X15334206Y-6772325D01*
X15336900Y-6780406D01*
X15336900Y-6785793D01*
X15334206Y-6793875D01*
X15323431Y-6804650D01*
X15315350Y-6807343D01*
X15309963Y-6807343D01*
X15301881Y-6804650D01*
X15508716Y-7879853D02*
X15508716Y-7874465D01*
X15503328Y-7863690D01*
X15497941Y-7858303D01*
X15487166Y-7852915D01*
X15476391Y-7852915D01*
X15468309Y-7855609D01*
X15454841Y-7863690D01*
X15446760Y-7871772D01*
X15438678Y-7885240D01*
X15435985Y-7893321D01*
X15435985Y-7904096D01*
X15441372Y-7914871D01*
X15446760Y-7920259D01*
X15457534Y-7925646D01*
X15462922Y-7925646D01*
X15484472Y-7947196D02*
X15484472Y-7952584D01*
X15487166Y-7960665D01*
X15500634Y-7974134D01*
X15508716Y-7976827D01*
X15514103Y-7976827D01*
X15522184Y-7974134D01*
X15527572Y-7968746D01*
X15532959Y-7957971D01*
X15532959Y-7893321D01*
X15567978Y-7928340D01*
X15538347Y-8001071D02*
X15538347Y-8006459D01*
X15541040Y-8014540D01*
X15554509Y-8028008D01*
X15562590Y-8030702D01*
X15567978Y-8030702D01*
X15576059Y-8028008D01*
X15581447Y-8022621D01*
X15586834Y-8011846D01*
X15586834Y-7947196D01*
X15621853Y-7982215D01*
X13461766Y-4701074D02*
X13467153Y-4701074D01*
X13477928Y-4695687D01*
X13483316Y-4690299D01*
X13488703Y-4679525D01*
X13488703Y-4668750D01*
X13486010Y-4660668D01*
X13477928Y-4647200D01*
X13469847Y-4639118D01*
X13456378Y-4631037D01*
X13448297Y-4628343D01*
X13437522Y-4628343D01*
X13426747Y-4633731D01*
X13421360Y-4639118D01*
X13415972Y-4649893D01*
X13415972Y-4655281D01*
X13394422Y-4676831D02*
X13389035Y-4676831D01*
X13380954Y-4679525D01*
X13367485Y-4692993D01*
X13364791Y-4701074D01*
X13364791Y-4706462D01*
X13367485Y-4714543D01*
X13372872Y-4719931D01*
X13383647Y-4725318D01*
X13448297Y-4725318D01*
X13413279Y-4760337D01*
X13337854Y-4722624D02*
X13302835Y-4757643D01*
X13343241Y-4760337D01*
X13335160Y-4768418D01*
X13332466Y-4776499D01*
X13332466Y-4781887D01*
X13335160Y-4789968D01*
X13348629Y-4803437D01*
X13356710Y-4806130D01*
X13362097Y-4806130D01*
X13370179Y-4803437D01*
X13386341Y-4787274D01*
X13389035Y-4779193D01*
X13389035Y-4773805D01*
X13653670Y-4964965D02*
X13653670Y-4959578D01*
X13648283Y-4948803D01*
X13642895Y-4943415D01*
X13632120Y-4938028D01*
X13621345Y-4938028D01*
X13613264Y-4940721D01*
X13599795Y-4948803D01*
X13591714Y-4956884D01*
X13583633Y-4970353D01*
X13580939Y-4978434D01*
X13580939Y-4989209D01*
X13586327Y-4999984D01*
X13591714Y-5005371D01*
X13602489Y-5010759D01*
X13607877Y-5010759D01*
X13629427Y-5032309D02*
X13629427Y-5037696D01*
X13632120Y-5045777D01*
X13645589Y-5059246D01*
X13653670Y-5061940D01*
X13659058Y-5061940D01*
X13667139Y-5059246D01*
X13672526Y-5053859D01*
X13677914Y-5043084D01*
X13677914Y-4978434D01*
X13712933Y-5013452D01*
X13723708Y-5099652D02*
X13761420Y-5061940D01*
X13688689Y-5107733D02*
X13715626Y-5053859D01*
X13750645Y-5088877D01*
X14061354Y-5245357D02*
X14061354Y-5239969D01*
X14055966Y-5229195D01*
X14050579Y-5223807D01*
X14039804Y-5218420D01*
X14029029Y-5218420D01*
X14020948Y-5221113D01*
X14007479Y-5229195D01*
X13999398Y-5237276D01*
X13991317Y-5250744D01*
X13988623Y-5258826D01*
X13988623Y-5269601D01*
X13994010Y-5280376D01*
X13999398Y-5285763D01*
X14010173Y-5291151D01*
X14015560Y-5291151D01*
X14037110Y-5312700D02*
X14037110Y-5318088D01*
X14039804Y-5326169D01*
X14053273Y-5339638D01*
X14061354Y-5342332D01*
X14066741Y-5342332D01*
X14074823Y-5339638D01*
X14080210Y-5334250D01*
X14085598Y-5323475D01*
X14085598Y-5258826D01*
X14120616Y-5293844D01*
X14115229Y-5401594D02*
X14088291Y-5374656D01*
X14112535Y-5345025D01*
X14112535Y-5350413D01*
X14115229Y-5358494D01*
X14128697Y-5371963D01*
X14136779Y-5374656D01*
X14142166Y-5374656D01*
X14150247Y-5371963D01*
X14163716Y-5358494D01*
X14166410Y-5350413D01*
X14166410Y-5345025D01*
X14163716Y-5336944D01*
X14150247Y-5323475D01*
X14142166Y-5320782D01*
X14136779Y-5320782D01*
X15163837Y-6483431D02*
X15163837Y-6478044D01*
X15158450Y-6467269D01*
X15153062Y-6461881D01*
X15142288Y-6456494D01*
X15131513Y-6456494D01*
X15123431Y-6459188D01*
X15109963Y-6467269D01*
X15101881Y-6475350D01*
X15093800Y-6488819D01*
X15091106Y-6496900D01*
X15091106Y-6507675D01*
X15096494Y-6518450D01*
X15101881Y-6523837D01*
X15112656Y-6529225D01*
X15118044Y-6529225D01*
X15139594Y-6550775D02*
X15139594Y-6556162D01*
X15142288Y-6564244D01*
X15155756Y-6577712D01*
X15163837Y-6580406D01*
X15169225Y-6580406D01*
X15177306Y-6577712D01*
X15182694Y-6572325D01*
X15188081Y-6561550D01*
X15188081Y-6496900D01*
X15223100Y-6531919D01*
X15215019Y-6636975D02*
X15204244Y-6626200D01*
X15201550Y-6618118D01*
X15201550Y-6612731D01*
X15204244Y-6599262D01*
X15212325Y-6585793D01*
X15233875Y-6564244D01*
X15241956Y-6561550D01*
X15247343Y-6561550D01*
X15255425Y-6564244D01*
X15266200Y-6575019D01*
X15268893Y-6583100D01*
X15268893Y-6588487D01*
X15266200Y-6596568D01*
X15252731Y-6610037D01*
X15244650Y-6612731D01*
X15239262Y-6612731D01*
X15231181Y-6610037D01*
X15220406Y-6599262D01*
X15217712Y-6591181D01*
X15217712Y-6585793D01*
X15220406Y-6577712D01*
X15668683Y-7319612D02*
X15672492Y-7315803D01*
X15676302Y-7304374D01*
X15676302Y-7296755D01*
X15672492Y-7285326D01*
X15664873Y-7277707D01*
X15657254Y-7273898D01*
X15642016Y-7270088D01*
X15630588Y-7270088D01*
X15615349Y-7273898D01*
X15607730Y-7277707D01*
X15600111Y-7285326D01*
X15596302Y-7296755D01*
X15596302Y-7304374D01*
X15600111Y-7315803D01*
X15603921Y-7319612D01*
X15596302Y-7346279D02*
X15596302Y-7395803D01*
X15626778Y-7369136D01*
X15626778Y-7380565D01*
X15630588Y-7388184D01*
X15634397Y-7391993D01*
X15642016Y-7395803D01*
X15661064Y-7395803D01*
X15668683Y-7391993D01*
X15672492Y-7388184D01*
X15676302Y-7380565D01*
X15676302Y-7357707D01*
X15672492Y-7350088D01*
X15668683Y-7346279D01*
X15676302Y-7471993D02*
X15676302Y-7426279D01*
X15676302Y-7449136D02*
X15596302Y-7449136D01*
X15607730Y-7441517D01*
X15615349Y-7433898D01*
X15619159Y-7426279D01*
X14553837Y-8983431D02*
X14553837Y-8978044D01*
X14548450Y-8967269D01*
X14543062Y-8961882D01*
X14532288Y-8956494D01*
X14521513Y-8956494D01*
X14513431Y-8959188D01*
X14499963Y-8967269D01*
X14491881Y-8975350D01*
X14483800Y-8988819D01*
X14481106Y-8996900D01*
X14481106Y-9007675D01*
X14486494Y-9018450D01*
X14491881Y-9023838D01*
X14502656Y-9029225D01*
X14508044Y-9029225D01*
X14521513Y-9053469D02*
X14556531Y-9088487D01*
X14559225Y-9048081D01*
X14567306Y-9056162D01*
X14575387Y-9058856D01*
X14580775Y-9058856D01*
X14588856Y-9056162D01*
X14602325Y-9042694D01*
X14605019Y-9034613D01*
X14605019Y-9029225D01*
X14602325Y-9021144D01*
X14586162Y-9004981D01*
X14578081Y-9002288D01*
X14572694Y-9002288D01*
X14583469Y-9104650D02*
X14583469Y-9110037D01*
X14586162Y-9118118D01*
X14599631Y-9131587D01*
X14607712Y-9134281D01*
X14613100Y-9134281D01*
X14621181Y-9131587D01*
X14626568Y-9126200D01*
X14631956Y-9115425D01*
X14631956Y-9050775D01*
X14666975Y-9085794D01*
X19326371Y-10584101D02*
X19331759Y-10584101D01*
X19342534Y-10578713D01*
X19347921Y-10573326D01*
X19353309Y-10562551D01*
X19353309Y-10551776D01*
X19350615Y-10543695D01*
X19342534Y-10530226D01*
X19334452Y-10522145D01*
X19320984Y-10514063D01*
X19312902Y-10511370D01*
X19302127Y-10511370D01*
X19291353Y-10516757D01*
X19285965Y-10522145D01*
X19280578Y-10532920D01*
X19280578Y-10538307D01*
X19256334Y-10551776D02*
X19221315Y-10586794D01*
X19261721Y-10589488D01*
X19253640Y-10597569D01*
X19250946Y-10605651D01*
X19250946Y-10611038D01*
X19253640Y-10619119D01*
X19267109Y-10632588D01*
X19275190Y-10635282D01*
X19280578Y-10635282D01*
X19288659Y-10632588D01*
X19304821Y-10616426D01*
X19307515Y-10608344D01*
X19307515Y-10602957D01*
X19202459Y-10605651D02*
X19167440Y-10640669D01*
X19207847Y-10643363D01*
X19199765Y-10651444D01*
X19197072Y-10659525D01*
X19197072Y-10664913D01*
X19199765Y-10672994D01*
X19213234Y-10686463D01*
X19221315Y-10689157D01*
X19226703Y-10689157D01*
X19234784Y-10686463D01*
X19250946Y-10670300D01*
X19253640Y-10662219D01*
X19253640Y-10656832D01*
X18983838Y-10263431D02*
X18983838Y-10258044D01*
X18978450Y-10247269D01*
X18973063Y-10241882D01*
X18962288Y-10236494D01*
X18951513Y-10236494D01*
X18943431Y-10239188D01*
X18929963Y-10247269D01*
X18921882Y-10255350D01*
X18913800Y-10268819D01*
X18911107Y-10276900D01*
X18911107Y-10287675D01*
X18916494Y-10298450D01*
X18921882Y-10303838D01*
X18932656Y-10309225D01*
X18938044Y-10309225D01*
X18951513Y-10333469D02*
X18986531Y-10368487D01*
X18989225Y-10328081D01*
X18997306Y-10336162D01*
X19005387Y-10338856D01*
X19010775Y-10338856D01*
X19018856Y-10336162D01*
X19032325Y-10322694D01*
X19035019Y-10314613D01*
X19035019Y-10309225D01*
X19032325Y-10301144D01*
X19016162Y-10284981D01*
X19008081Y-10282288D01*
X19002694Y-10282288D01*
X19053875Y-10398118D02*
X19091587Y-10360406D01*
X19018856Y-10406200D02*
X19045794Y-10352325D01*
X19080812Y-10387344D01*
X18683838Y-9843431D02*
X18683838Y-9838044D01*
X18678450Y-9827269D01*
X18673063Y-9821882D01*
X18662288Y-9816494D01*
X18651513Y-9816494D01*
X18643431Y-9819188D01*
X18629963Y-9827269D01*
X18621882Y-9835350D01*
X18613800Y-9848819D01*
X18611107Y-9856900D01*
X18611107Y-9867675D01*
X18616494Y-9878450D01*
X18621882Y-9883838D01*
X18632656Y-9889225D01*
X18638044Y-9889225D01*
X18651513Y-9913469D02*
X18686531Y-9948487D01*
X18689225Y-9908081D01*
X18697306Y-9916162D01*
X18705387Y-9918856D01*
X18710775Y-9918856D01*
X18718856Y-9916162D01*
X18732325Y-9902694D01*
X18735019Y-9894613D01*
X18735019Y-9889225D01*
X18732325Y-9881144D01*
X18716162Y-9864981D01*
X18708081Y-9862288D01*
X18702694Y-9862288D01*
X18737712Y-9999668D02*
X18710775Y-9972731D01*
X18735019Y-9943100D01*
X18735019Y-9948487D01*
X18737712Y-9956569D01*
X18751181Y-9970037D01*
X18759262Y-9972731D01*
X18764650Y-9972731D01*
X18772731Y-9970037D01*
X18786200Y-9956569D01*
X18788893Y-9948487D01*
X18788893Y-9943100D01*
X18786200Y-9935019D01*
X18772731Y-9921550D01*
X18764650Y-9918856D01*
X18759262Y-9918856D01*
X17432642Y-8751414D02*
X17432642Y-8746026D01*
X17427255Y-8735252D01*
X17421867Y-8729864D01*
X17411092Y-8724477D01*
X17400317Y-8724477D01*
X17392236Y-8727170D01*
X17378767Y-8735252D01*
X17370686Y-8743333D01*
X17362605Y-8756801D01*
X17359911Y-8764883D01*
X17359911Y-8775658D01*
X17365299Y-8786433D01*
X17370686Y-8791820D01*
X17381461Y-8797208D01*
X17386849Y-8797208D01*
X17400317Y-8821451D02*
X17435336Y-8856470D01*
X17438030Y-8816064D01*
X17446111Y-8824145D01*
X17454192Y-8826839D01*
X17459580Y-8826839D01*
X17467661Y-8824145D01*
X17481130Y-8810676D01*
X17483823Y-8802595D01*
X17483823Y-8797208D01*
X17481130Y-8789126D01*
X17464967Y-8772964D01*
X17456886Y-8770270D01*
X17451498Y-8770270D01*
X17454192Y-8875326D02*
X17491905Y-8913038D01*
X17524229Y-8832226D01*
X16693482Y-8413102D02*
X16697292Y-8416912D01*
X16708720Y-8420721D01*
X16716339Y-8420721D01*
X16727768Y-8416912D01*
X16735387Y-8409293D01*
X16739196Y-8401674D01*
X16743006Y-8386435D01*
X16743006Y-8375007D01*
X16739196Y-8359769D01*
X16735387Y-8352150D01*
X16727768Y-8344531D01*
X16716339Y-8340721D01*
X16708720Y-8340721D01*
X16697292Y-8344531D01*
X16693482Y-8348340D01*
X16666815Y-8340721D02*
X16617292Y-8340721D01*
X16643958Y-8371197D01*
X16632530Y-8371197D01*
X16624911Y-8375007D01*
X16621101Y-8378816D01*
X16617292Y-8386435D01*
X16617292Y-8405483D01*
X16621101Y-8413102D01*
X16624911Y-8416912D01*
X16632530Y-8420721D01*
X16655387Y-8420721D01*
X16663006Y-8416912D01*
X16666815Y-8413102D01*
X16571577Y-8375007D02*
X16579196Y-8371197D01*
X16583006Y-8367388D01*
X16586815Y-8359769D01*
X16586815Y-8355959D01*
X16583006Y-8348340D01*
X16579196Y-8344531D01*
X16571577Y-8340721D01*
X16556339Y-8340721D01*
X16548720Y-8344531D01*
X16544911Y-8348340D01*
X16541101Y-8355959D01*
X16541101Y-8359769D01*
X16544911Y-8367388D01*
X16548720Y-8371197D01*
X16556339Y-8375007D01*
X16571577Y-8375007D01*
X16579196Y-8378816D01*
X16583006Y-8382626D01*
X16586815Y-8390245D01*
X16586815Y-8405483D01*
X16583006Y-8413102D01*
X16579196Y-8416912D01*
X16571577Y-8420721D01*
X16556339Y-8420721D01*
X16548720Y-8416912D01*
X16544911Y-8413102D01*
X16541101Y-8405483D01*
X16541101Y-8390245D01*
X16544911Y-8382626D01*
X16548720Y-8378816D01*
X16556339Y-8375007D01*
X15116568Y-9743838D02*
X15121956Y-9743838D01*
X15132731Y-9738450D01*
X15138118Y-9733063D01*
X15143506Y-9722288D01*
X15143506Y-9711513D01*
X15140812Y-9703431D01*
X15132731Y-9689963D01*
X15124650Y-9681882D01*
X15111181Y-9673800D01*
X15103100Y-9671107D01*
X15092325Y-9671107D01*
X15081550Y-9676494D01*
X15076162Y-9681882D01*
X15070775Y-9692656D01*
X15070775Y-9698044D01*
X15046531Y-9711513D02*
X15011513Y-9746531D01*
X15051919Y-9749225D01*
X15043837Y-9757306D01*
X15041144Y-9765387D01*
X15041144Y-9770775D01*
X15043837Y-9778856D01*
X15057306Y-9792325D01*
X15065387Y-9795019D01*
X15070775Y-9795019D01*
X15078856Y-9792325D01*
X15095019Y-9776162D01*
X15097712Y-9768081D01*
X15097712Y-9762694D01*
X15041144Y-9830037D02*
X15030369Y-9840812D01*
X15022288Y-9843506D01*
X15016900Y-9843506D01*
X15003431Y-9840812D01*
X14989963Y-9832731D01*
X14968413Y-9811181D01*
X14965719Y-9803100D01*
X14965719Y-9797712D01*
X14968413Y-9789631D01*
X14979188Y-9778856D01*
X14987269Y-9776162D01*
X14992656Y-9776162D01*
X15000738Y-9778856D01*
X15014206Y-9792325D01*
X15016900Y-9800406D01*
X15016900Y-9805794D01*
X15014206Y-9813875D01*
X15003431Y-9824650D01*
X14995350Y-9827344D01*
X14989963Y-9827344D01*
X14981881Y-9824650D01*
X17640761Y-8969827D02*
X17640761Y-8964440D01*
X17635374Y-8953665D01*
X17629986Y-8948278D01*
X17619212Y-8942890D01*
X17608437Y-8942890D01*
X17600355Y-8945584D01*
X17586887Y-8953665D01*
X17578805Y-8961746D01*
X17570724Y-8975215D01*
X17568030Y-8983296D01*
X17568030Y-8994071D01*
X17573418Y-9004846D01*
X17578805Y-9010234D01*
X17589580Y-9015621D01*
X17594968Y-9015621D01*
X17656924Y-9050640D02*
X17694636Y-9012927D01*
X17621905Y-9058721D02*
X17648843Y-9004846D01*
X17683861Y-9039865D01*
X17670393Y-9091046D02*
X17670393Y-9096433D01*
X17673086Y-9104514D01*
X17686555Y-9117983D01*
X17694636Y-9120677D01*
X17700024Y-9120677D01*
X17708105Y-9117983D01*
X17713492Y-9112596D01*
X17718880Y-9101821D01*
X17718880Y-9037171D01*
X17753899Y-9072190D01*
X17372861Y-8555031D02*
X17378248Y-8555031D01*
X17389023Y-8549643D01*
X17394410Y-8544256D01*
X17399798Y-8533481D01*
X17399798Y-8522706D01*
X17397104Y-8514625D01*
X17389023Y-8501156D01*
X17380942Y-8493075D01*
X17367473Y-8484994D01*
X17359392Y-8482300D01*
X17348617Y-8482300D01*
X17337842Y-8487687D01*
X17332454Y-8493075D01*
X17327067Y-8503850D01*
X17327067Y-8509237D01*
X17292048Y-8571193D02*
X17329761Y-8608906D01*
X17283967Y-8536175D02*
X17337842Y-8563112D01*
X17302823Y-8598131D01*
X17248948Y-8576581D02*
X17213930Y-8611599D01*
X17254336Y-8614293D01*
X17246255Y-8622374D01*
X17243561Y-8630455D01*
X17243561Y-8635843D01*
X17246255Y-8643924D01*
X17259723Y-8657393D01*
X17267805Y-8660087D01*
X17273192Y-8660087D01*
X17281273Y-8657393D01*
X17297436Y-8641230D01*
X17300130Y-8633149D01*
X17300130Y-8627762D01*
X16092046Y-8390660D02*
X16092046Y-8385273D01*
X16086658Y-8374498D01*
X16081271Y-8369110D01*
X16070496Y-8363723D01*
X16059721Y-8363723D01*
X16051640Y-8366416D01*
X16038171Y-8374498D01*
X16030090Y-8382579D01*
X16022009Y-8396048D01*
X16019315Y-8404129D01*
X16019315Y-8414904D01*
X16024702Y-8425679D01*
X16030090Y-8431066D01*
X16040865Y-8436454D01*
X16046252Y-8436454D01*
X16108208Y-8471472D02*
X16145921Y-8433760D01*
X16073190Y-8479554D02*
X16100127Y-8425679D01*
X16135146Y-8460697D01*
X16162083Y-8525347D02*
X16199796Y-8487635D01*
X16127065Y-8533428D02*
X16154002Y-8479554D01*
X16189021Y-8514572D01*
X18901371Y-11009101D02*
X18906759Y-11009101D01*
X18917534Y-11003713D01*
X18922921Y-10998326D01*
X18928309Y-10987551D01*
X18928309Y-10976776D01*
X18925615Y-10968695D01*
X18917534Y-10955226D01*
X18909452Y-10947145D01*
X18895984Y-10939063D01*
X18887902Y-10936370D01*
X18877127Y-10936370D01*
X18866353Y-10941757D01*
X18860965Y-10947145D01*
X18855578Y-10957920D01*
X18855578Y-10963307D01*
X18820559Y-11025263D02*
X18858271Y-11062975D01*
X18812478Y-10990244D02*
X18866353Y-11017182D01*
X18831334Y-11052201D01*
X18745134Y-11062975D02*
X18772072Y-11036038D01*
X18801703Y-11060282D01*
X18796315Y-11060282D01*
X18788234Y-11062975D01*
X18774765Y-11076444D01*
X18772072Y-11084525D01*
X18772072Y-11089913D01*
X18774765Y-11097994D01*
X18788234Y-11111463D01*
X18796315Y-11114157D01*
X18801703Y-11114157D01*
X18809784Y-11111463D01*
X18823253Y-11097994D01*
X18825946Y-11089913D01*
X18825946Y-11084525D01*
X18523838Y-10683431D02*
X18523838Y-10678044D01*
X18518450Y-10667269D01*
X18513063Y-10661882D01*
X18502288Y-10656494D01*
X18491513Y-10656494D01*
X18483431Y-10659188D01*
X18469963Y-10667269D01*
X18461882Y-10675350D01*
X18453800Y-10688819D01*
X18451107Y-10696900D01*
X18451107Y-10707675D01*
X18456494Y-10718450D01*
X18461882Y-10723838D01*
X18472656Y-10729225D01*
X18478044Y-10729225D01*
X18540000Y-10764244D02*
X18577712Y-10726531D01*
X18504981Y-10772325D02*
X18531919Y-10718450D01*
X18566937Y-10753469D01*
X18575019Y-10836975D02*
X18564244Y-10826200D01*
X18561550Y-10818118D01*
X18561550Y-10812731D01*
X18564244Y-10799262D01*
X18572325Y-10785794D01*
X18593875Y-10764244D01*
X18601956Y-10761550D01*
X18607344Y-10761550D01*
X18615425Y-10764244D01*
X18626200Y-10775019D01*
X18628893Y-10783100D01*
X18628893Y-10788487D01*
X18626200Y-10796569D01*
X18612731Y-10810037D01*
X18604650Y-10812731D01*
X18599262Y-10812731D01*
X18591181Y-10810037D01*
X18580406Y-10799262D01*
X18577712Y-10791181D01*
X18577712Y-10785794D01*
X18580406Y-10777712D01*
X18161761Y-10381343D02*
X18161761Y-10375955D01*
X18156374Y-10365180D01*
X18150986Y-10359793D01*
X18140211Y-10354405D01*
X18129436Y-10354405D01*
X18121355Y-10357099D01*
X18107886Y-10365180D01*
X18099805Y-10373261D01*
X18091724Y-10386730D01*
X18089030Y-10394811D01*
X18089030Y-10405586D01*
X18094418Y-10416361D01*
X18099805Y-10421749D01*
X18110580Y-10427136D01*
X18115968Y-10427136D01*
X18177924Y-10462155D02*
X18215636Y-10424442D01*
X18142905Y-10470236D02*
X18169842Y-10416361D01*
X18204861Y-10451380D01*
X18221024Y-10494480D02*
X18212942Y-10491786D01*
X18207555Y-10491786D01*
X18199474Y-10494480D01*
X18196780Y-10497173D01*
X18194086Y-10505255D01*
X18194086Y-10510642D01*
X18196780Y-10518723D01*
X18207555Y-10529498D01*
X18215636Y-10532192D01*
X18221024Y-10532192D01*
X18229105Y-10529498D01*
X18231799Y-10526805D01*
X18234492Y-10518723D01*
X18234492Y-10513336D01*
X18231799Y-10505255D01*
X18221024Y-10494480D01*
X18218330Y-10486398D01*
X18218330Y-10481011D01*
X18221024Y-10472930D01*
X18231799Y-10462155D01*
X18239880Y-10459461D01*
X18245267Y-10459461D01*
X18253348Y-10462155D01*
X18264123Y-10472930D01*
X18266817Y-10481011D01*
X18266817Y-10486398D01*
X18264123Y-10494480D01*
X18253348Y-10505255D01*
X18245267Y-10507948D01*
X18239880Y-10507948D01*
X18231799Y-10505255D01*
X17056919Y-9129637D02*
X17056919Y-9124250D01*
X17051531Y-9113475D01*
X17046144Y-9108087D01*
X17035369Y-9102700D01*
X17024594Y-9102700D01*
X17016513Y-9105394D01*
X17003044Y-9113475D01*
X16994963Y-9121556D01*
X16986882Y-9135025D01*
X16984188Y-9143106D01*
X16984188Y-9153881D01*
X16989575Y-9164656D01*
X16994963Y-9170043D01*
X17005738Y-9175431D01*
X17011125Y-9175431D01*
X17073081Y-9210449D02*
X17110794Y-9172737D01*
X17038063Y-9218531D02*
X17065000Y-9164656D01*
X17100019Y-9199675D01*
X17143119Y-9205062D02*
X17153894Y-9215837D01*
X17156587Y-9223918D01*
X17156587Y-9229306D01*
X17153894Y-9242774D01*
X17145812Y-9256243D01*
X17124262Y-9277793D01*
X17116181Y-9280487D01*
X17110794Y-9280487D01*
X17102713Y-9277793D01*
X17091938Y-9267018D01*
X17089244Y-9258937D01*
X17089244Y-9253549D01*
X17091938Y-9245468D01*
X17105406Y-9231999D01*
X17113488Y-9229306D01*
X17118875Y-9229306D01*
X17126956Y-9231999D01*
X17137731Y-9242774D01*
X17140425Y-9250856D01*
X17140425Y-9256243D01*
X17137731Y-9264324D01*
X16673728Y-8901615D02*
X16677538Y-8905424D01*
X16688967Y-8909234D01*
X16696586Y-8909234D01*
X16708014Y-8905424D01*
X16715633Y-8897805D01*
X16719443Y-8890186D01*
X16723252Y-8874948D01*
X16723252Y-8863520D01*
X16719443Y-8848282D01*
X16715633Y-8840663D01*
X16708014Y-8833044D01*
X16696586Y-8829234D01*
X16688967Y-8829234D01*
X16677538Y-8833044D01*
X16673728Y-8836853D01*
X16601348Y-8829234D02*
X16639443Y-8829234D01*
X16643252Y-8867329D01*
X16639443Y-8863520D01*
X16631824Y-8859710D01*
X16612776Y-8859710D01*
X16605157Y-8863520D01*
X16601348Y-8867329D01*
X16597538Y-8874948D01*
X16597538Y-8893996D01*
X16601348Y-8901615D01*
X16605157Y-8905424D01*
X16612776Y-8909234D01*
X16631824Y-8909234D01*
X16639443Y-8905424D01*
X16643252Y-8901615D01*
X16548014Y-8829234D02*
X16540395Y-8829234D01*
X16532776Y-8833044D01*
X16528967Y-8836853D01*
X16525157Y-8844472D01*
X16521348Y-8859710D01*
X16521348Y-8878758D01*
X16525157Y-8893996D01*
X16528967Y-8901615D01*
X16532776Y-8905424D01*
X16540395Y-8909234D01*
X16548014Y-8909234D01*
X16555633Y-8905424D01*
X16559443Y-8901615D01*
X16563252Y-8893996D01*
X16567062Y-8878758D01*
X16567062Y-8859710D01*
X16563252Y-8844472D01*
X16559443Y-8836853D01*
X16555633Y-8833044D01*
X16548014Y-8829234D01*
X15376568Y-9983838D02*
X15381956Y-9983838D01*
X15392731Y-9978450D01*
X15398118Y-9973063D01*
X15403506Y-9962288D01*
X15403506Y-9951513D01*
X15400812Y-9943431D01*
X15392731Y-9929963D01*
X15384650Y-9921882D01*
X15371181Y-9913800D01*
X15363100Y-9911107D01*
X15352325Y-9911107D01*
X15341550Y-9916494D01*
X15336162Y-9921882D01*
X15330775Y-9932656D01*
X15330775Y-9938044D01*
X15274206Y-9983838D02*
X15301144Y-9956900D01*
X15330775Y-9981144D01*
X15325387Y-9981144D01*
X15317306Y-9983838D01*
X15303837Y-9997306D01*
X15301144Y-10005387D01*
X15301144Y-10010775D01*
X15303837Y-10018856D01*
X15317306Y-10032325D01*
X15325387Y-10035019D01*
X15330775Y-10035019D01*
X15338856Y-10032325D01*
X15352325Y-10018856D01*
X15355019Y-10010775D01*
X15355019Y-10005387D01*
X15274206Y-10096975D02*
X15306531Y-10064650D01*
X15290369Y-10080812D02*
X15233800Y-10024244D01*
X15247269Y-10026937D01*
X15258044Y-10026937D01*
X15266125Y-10024244D01*
X17853838Y-8233431D02*
X17853838Y-8228044D01*
X17848450Y-8217269D01*
X17843063Y-8211881D01*
X17832288Y-8206494D01*
X17821513Y-8206494D01*
X17813431Y-8209188D01*
X17799963Y-8217269D01*
X17791882Y-8225350D01*
X17783800Y-8238819D01*
X17781107Y-8246900D01*
X17781107Y-8257675D01*
X17786494Y-8268450D01*
X17791882Y-8273837D01*
X17802656Y-8279225D01*
X17808044Y-8279225D01*
X17851144Y-8333100D02*
X17840369Y-8322325D01*
X17837675Y-8314244D01*
X17837675Y-8308856D01*
X17840369Y-8295387D01*
X17848450Y-8281919D01*
X17870000Y-8260369D01*
X17878081Y-8257675D01*
X17883469Y-8257675D01*
X17891550Y-8260369D01*
X17902325Y-8271144D01*
X17905019Y-8279225D01*
X17905019Y-8284612D01*
X17902325Y-8292694D01*
X17888856Y-8306162D01*
X17880775Y-8308856D01*
X17875387Y-8308856D01*
X17867306Y-8306162D01*
X17856531Y-8295387D01*
X17853838Y-8287306D01*
X17853838Y-8281919D01*
X17856531Y-8273837D01*
X17940037Y-8308856D02*
X17950812Y-8319631D01*
X17953506Y-8327712D01*
X17953506Y-8333100D01*
X17950812Y-8346568D01*
X17942731Y-8360037D01*
X17921181Y-8381587D01*
X17913100Y-8384281D01*
X17907712Y-8384281D01*
X17899631Y-8381587D01*
X17888856Y-8370812D01*
X17886162Y-8362731D01*
X17886162Y-8357343D01*
X17888856Y-8349262D01*
X17902325Y-8335793D01*
X17910406Y-8333100D01*
X17915794Y-8333100D01*
X17923875Y-8335793D01*
X17934650Y-8346568D01*
X17937344Y-8354650D01*
X17937344Y-8360037D01*
X17934650Y-8368118D01*
X16671568Y-9758838D02*
X16676956Y-9758838D01*
X16687731Y-9753450D01*
X16693118Y-9748063D01*
X16698506Y-9737288D01*
X16698506Y-9726513D01*
X16695812Y-9718431D01*
X16687731Y-9704963D01*
X16679650Y-9696882D01*
X16666181Y-9688800D01*
X16658100Y-9686107D01*
X16647325Y-9686107D01*
X16636550Y-9691494D01*
X16631162Y-9696882D01*
X16625775Y-9707656D01*
X16625775Y-9713044D01*
X16601531Y-9726513D02*
X16563819Y-9764225D01*
X16644631Y-9796550D01*
X16531494Y-9796550D02*
X16526106Y-9801937D01*
X16523413Y-9810019D01*
X16523413Y-9815406D01*
X16526106Y-9823487D01*
X16534188Y-9836956D01*
X16547656Y-9850425D01*
X16561125Y-9858506D01*
X16569206Y-9861200D01*
X16574594Y-9861200D01*
X16582675Y-9858506D01*
X16588062Y-9853118D01*
X16590756Y-9845037D01*
X16590756Y-9839650D01*
X16588062Y-9831569D01*
X16579981Y-9818100D01*
X16566513Y-9804631D01*
X16553044Y-9796550D01*
X16544963Y-9793856D01*
X16539575Y-9793856D01*
X16531494Y-9796550D01*
X15876568Y-8453838D02*
X15881956Y-8453838D01*
X15892731Y-8448450D01*
X15898118Y-8443063D01*
X15903506Y-8432288D01*
X15903506Y-8421513D01*
X15900812Y-8413431D01*
X15892731Y-8399963D01*
X15884650Y-8391882D01*
X15871181Y-8383800D01*
X15863100Y-8381106D01*
X15852325Y-8381106D01*
X15841550Y-8386494D01*
X15836162Y-8391882D01*
X15830775Y-8402656D01*
X15830775Y-8408044D01*
X15806531Y-8421513D02*
X15768819Y-8459225D01*
X15849631Y-8491550D01*
X15774206Y-8566975D02*
X15806531Y-8534650D01*
X15790369Y-8550812D02*
X15733800Y-8494244D01*
X15747269Y-8496937D01*
X15758044Y-8496937D01*
X15766125Y-8494244D01*
X14396162Y-6984981D02*
X14369225Y-6958044D01*
X14312656Y-7014612D01*
X14444650Y-7033469D02*
X14412325Y-7001144D01*
X14428487Y-7017306D02*
X14371919Y-7073875D01*
X14374612Y-7060406D01*
X14374612Y-7049631D01*
X14371919Y-7041550D01*
X15276162Y-6104981D02*
X15249225Y-6078044D01*
X15192656Y-6134612D01*
X15241144Y-6172325D02*
X15241144Y-6177712D01*
X15243837Y-6185793D01*
X15257306Y-6199262D01*
X15265387Y-6201956D01*
X15270775Y-6201956D01*
X15278856Y-6199262D01*
X15284244Y-6193875D01*
X15289631Y-6183100D01*
X15289631Y-6118450D01*
X15324650Y-6153469D01*
X14055019Y-7856162D02*
X14081956Y-7829225D01*
X14025387Y-7772656D01*
X13952656Y-7845387D02*
X13979594Y-7818450D01*
X14009225Y-7842694D01*
X14003837Y-7842694D01*
X13995756Y-7845387D01*
X13982288Y-7858856D01*
X13979594Y-7866937D01*
X13979594Y-7872325D01*
X13982288Y-7880406D01*
X13995756Y-7893875D01*
X14003837Y-7896568D01*
X14009225Y-7896568D01*
X14017306Y-7893875D01*
X14030775Y-7880406D01*
X14033469Y-7872325D01*
X14033469Y-7866937D01*
X15795019Y-8156162D02*
X15821956Y-8129225D01*
X15765387Y-8072656D01*
X15695350Y-8142694D02*
X15706125Y-8131919D01*
X15714206Y-8129225D01*
X15719594Y-8129225D01*
X15733062Y-8131919D01*
X15746531Y-8140000D01*
X15768081Y-8161550D01*
X15770775Y-8169631D01*
X15770775Y-8175019D01*
X15768081Y-8183100D01*
X15757306Y-8193875D01*
X15749225Y-8196568D01*
X15743837Y-8196568D01*
X15735756Y-8193875D01*
X15722288Y-8180406D01*
X15719594Y-8172325D01*
X15719594Y-8166937D01*
X15722288Y-8158856D01*
X15733062Y-8148081D01*
X15741144Y-8145387D01*
X15746531Y-8145387D01*
X15754612Y-8148081D01*
X14156162Y-6744981D02*
X14129225Y-6718044D01*
X14072656Y-6774612D01*
X14113062Y-6815019D02*
X14150775Y-6852731D01*
X14183100Y-6771919D01*
X15056162Y-5864981D02*
X15029225Y-5838044D01*
X14972656Y-5894612D01*
X15050775Y-5924244D02*
X15042694Y-5921550D01*
X15037306Y-5921550D01*
X15029225Y-5924244D01*
X15026531Y-5926937D01*
X15023837Y-5935019D01*
X15023837Y-5940406D01*
X15026531Y-5948487D01*
X15037306Y-5959262D01*
X15045387Y-5961956D01*
X15050775Y-5961956D01*
X15058856Y-5959262D01*
X15061550Y-5956568D01*
X15064244Y-5948487D01*
X15064244Y-5943100D01*
X15061550Y-5935019D01*
X15050775Y-5924244D01*
X15048081Y-5916162D01*
X15048081Y-5910775D01*
X15050775Y-5902694D01*
X15061550Y-5891919D01*
X15069631Y-5889225D01*
X15075019Y-5889225D01*
X15083100Y-5891919D01*
X15093875Y-5902694D01*
X15096568Y-5910775D01*
X15096568Y-5916162D01*
X15093875Y-5924244D01*
X15083100Y-5935019D01*
X15075019Y-5937712D01*
X15069631Y-5937712D01*
X15061550Y-5935019D01*
X13876162Y-8044981D02*
X13849225Y-8018044D01*
X13792656Y-8074612D01*
X13897712Y-8066531D02*
X13908487Y-8077306D01*
X13911181Y-8085387D01*
X13911181Y-8090775D01*
X13908487Y-8104244D01*
X13900406Y-8117712D01*
X13878856Y-8139262D01*
X13870775Y-8141956D01*
X13865387Y-8141956D01*
X13857306Y-8139262D01*
X13846531Y-8128487D01*
X13843838Y-8120406D01*
X13843838Y-8115019D01*
X13846531Y-8106937D01*
X13860000Y-8093469D01*
X13868081Y-8090775D01*
X13873469Y-8090775D01*
X13881550Y-8093469D01*
X13892325Y-8104244D01*
X13895019Y-8112325D01*
X13895019Y-8117712D01*
X13892325Y-8125793D01*
X14789225Y-8718044D02*
X14762288Y-8691107D01*
X14705719Y-8747675D01*
X14837712Y-8766531D02*
X14805387Y-8734206D01*
X14821550Y-8750369D02*
X14764981Y-8806937D01*
X14767675Y-8793469D01*
X14767675Y-8782694D01*
X14764981Y-8774613D01*
X14816162Y-8858118D02*
X14821550Y-8863506D01*
X14829631Y-8866200D01*
X14835019Y-8866200D01*
X14843100Y-8863506D01*
X14856568Y-8855425D01*
X14870037Y-8841956D01*
X14878118Y-8828487D01*
X14880812Y-8820406D01*
X14880812Y-8815019D01*
X14878118Y-8806937D01*
X14872731Y-8801550D01*
X14864650Y-8798856D01*
X14859262Y-8798856D01*
X14851181Y-8801550D01*
X14837712Y-8809631D01*
X14824244Y-8823100D01*
X14816162Y-8836569D01*
X14813469Y-8844650D01*
X14813469Y-8850037D01*
X14816162Y-8858118D01*
X14161956Y-6469225D02*
X14188893Y-6442288D01*
X14132325Y-6385719D01*
X14113469Y-6517712D02*
X14145793Y-6485387D01*
X14129631Y-6501550D02*
X14073062Y-6444981D01*
X14086531Y-6447675D01*
X14097306Y-6447675D01*
X14105387Y-6444981D01*
X14059594Y-6571587D02*
X14091919Y-6539262D01*
X14075756Y-6555425D02*
X14019188Y-6498856D01*
X14032656Y-6501550D01*
X14043431Y-6501550D01*
X14051513Y-6498856D01*
X14861956Y-7609225D02*
X14888893Y-7582288D01*
X14832325Y-7525719D01*
X14813469Y-7657712D02*
X14845793Y-7625387D01*
X14829631Y-7641550D02*
X14773062Y-7584981D01*
X14786531Y-7587675D01*
X14797306Y-7587675D01*
X14805387Y-7584981D01*
X14740738Y-7628081D02*
X14735350Y-7628081D01*
X14727269Y-7630775D01*
X14713800Y-7644244D01*
X14711106Y-7652325D01*
X14711106Y-7657712D01*
X14713800Y-7665793D01*
X14719188Y-7671181D01*
X14729963Y-7676568D01*
X14794612Y-7676568D01*
X14759594Y-7711587D01*
X13235465Y-4915158D02*
X13262402Y-4888221D01*
X13205834Y-4831652D01*
X13186978Y-4963645D02*
X13219302Y-4931321D01*
X13203140Y-4947483D02*
X13146571Y-4890914D01*
X13160040Y-4893608D01*
X13170815Y-4893608D01*
X13178896Y-4890914D01*
X13111553Y-4925933D02*
X13076534Y-4960952D01*
X13116940Y-4963645D01*
X13108859Y-4971727D01*
X13106165Y-4979808D01*
X13106165Y-4985195D01*
X13108859Y-4993277D01*
X13122328Y-5006745D01*
X13130409Y-5009439D01*
X13135796Y-5009439D01*
X13143878Y-5006745D01*
X13160040Y-4990583D01*
X13162734Y-4982502D01*
X13162734Y-4977114D01*
X13456085Y-5634537D02*
X13483023Y-5607600D01*
X13426454Y-5551032D01*
X13407598Y-5683025D02*
X13439923Y-5650700D01*
X13423761Y-5666862D02*
X13367192Y-5610294D01*
X13380661Y-5612988D01*
X13391436Y-5612988D01*
X13399517Y-5610294D01*
X13321398Y-5693800D02*
X13359111Y-5731512D01*
X13313317Y-5658781D02*
X13367192Y-5685719D01*
X13332173Y-5720737D01*
X14589225Y-6678044D02*
X14562288Y-6651106D01*
X14505719Y-6707675D01*
X14637712Y-6726531D02*
X14605387Y-6694206D01*
X14621550Y-6710369D02*
X14564981Y-6766937D01*
X14567675Y-6753469D01*
X14567675Y-6742694D01*
X14564981Y-6734612D01*
X14600000Y-6801956D02*
X14637712Y-6839668D01*
X14670037Y-6758856D01*
X15581956Y-6829225D02*
X15608893Y-6802288D01*
X15552325Y-6745719D01*
X15533469Y-6877712D02*
X15565793Y-6845387D01*
X15549631Y-6861550D02*
X15493062Y-6804981D01*
X15506531Y-6807675D01*
X15517306Y-6807675D01*
X15525387Y-6804981D01*
X15468819Y-6877712D02*
X15471513Y-6869631D01*
X15471513Y-6864244D01*
X15468819Y-6856162D01*
X15466125Y-6853469D01*
X15458044Y-6850775D01*
X15452656Y-6850775D01*
X15444575Y-6853469D01*
X15433800Y-6864244D01*
X15431106Y-6872325D01*
X15431106Y-6877712D01*
X15433800Y-6885793D01*
X15436494Y-6888487D01*
X15444575Y-6891181D01*
X15449963Y-6891181D01*
X15458044Y-6888487D01*
X15468819Y-6877712D01*
X15476900Y-6875019D01*
X15482288Y-6875019D01*
X15490369Y-6877712D01*
X15501144Y-6888487D01*
X15503837Y-6896568D01*
X15503837Y-6901956D01*
X15501144Y-6910037D01*
X15490369Y-6920812D01*
X15482288Y-6923506D01*
X15476900Y-6923506D01*
X15468819Y-6920812D01*
X15458044Y-6910037D01*
X15455350Y-6901956D01*
X15455350Y-6896568D01*
X15458044Y-6888487D01*
X15629225Y-7778044D02*
X15602288Y-7751106D01*
X15545719Y-7807675D01*
X15594206Y-7845387D02*
X15594206Y-7850775D01*
X15596900Y-7858856D01*
X15610369Y-7872325D01*
X15618450Y-7875019D01*
X15623837Y-7875019D01*
X15631919Y-7872325D01*
X15637306Y-7866937D01*
X15642694Y-7856162D01*
X15642694Y-7791513D01*
X15677712Y-7826531D01*
X15640000Y-7901956D02*
X15675019Y-7936975D01*
X15677712Y-7896568D01*
X15685793Y-7904650D01*
X15693875Y-7907343D01*
X15699262Y-7907343D01*
X15707343Y-7904650D01*
X15720812Y-7891181D01*
X15723506Y-7883100D01*
X15723506Y-7877712D01*
X15720812Y-7869631D01*
X15704650Y-7853469D01*
X15696568Y-7850775D01*
X15691181Y-7850775D01*
X14801956Y-5849225D02*
X14828893Y-5822288D01*
X14772325Y-5765719D01*
X14734612Y-5814206D02*
X14729225Y-5814206D01*
X14721144Y-5816900D01*
X14707675Y-5830369D01*
X14704981Y-5838450D01*
X14704981Y-5843837D01*
X14707675Y-5851919D01*
X14713062Y-5857306D01*
X14723837Y-5862694D01*
X14788487Y-5862694D01*
X14753469Y-5897712D01*
X14667269Y-5908487D02*
X14704981Y-5946200D01*
X14659188Y-5873469D02*
X14713062Y-5900406D01*
X14678044Y-5935425D01*
X15511956Y-8089225D02*
X15538893Y-8062288D01*
X15482325Y-8005719D01*
X15444612Y-8054206D02*
X15439225Y-8054206D01*
X15431144Y-8056900D01*
X15417675Y-8070369D01*
X15414981Y-8078450D01*
X15414981Y-8083837D01*
X15417675Y-8091919D01*
X15423062Y-8097306D01*
X15433837Y-8102694D01*
X15498487Y-8102694D01*
X15463469Y-8137712D01*
X15355719Y-8132325D02*
X15382656Y-8105387D01*
X15412288Y-8129631D01*
X15406900Y-8129631D01*
X15398819Y-8132325D01*
X15385350Y-8145793D01*
X15382656Y-8153875D01*
X15382656Y-8159262D01*
X15385350Y-8167343D01*
X15398819Y-8180812D01*
X15406900Y-8183506D01*
X15412288Y-8183506D01*
X15420369Y-8180812D01*
X15433837Y-8167343D01*
X15436531Y-8159262D01*
X15436531Y-8153875D01*
X18064697Y-8841186D02*
X18037760Y-8814249D01*
X17981191Y-8870818D01*
X18029678Y-8908530D02*
X18029678Y-8913917D01*
X18032372Y-8921999D01*
X18045841Y-8935467D01*
X18053922Y-8938161D01*
X18059310Y-8938161D01*
X18067391Y-8935467D01*
X18072778Y-8930080D01*
X18078166Y-8919305D01*
X18078166Y-8854655D01*
X18113184Y-8889674D01*
X18105103Y-8994730D02*
X18094328Y-8983955D01*
X18091634Y-8975873D01*
X18091634Y-8970486D01*
X18094328Y-8957017D01*
X18102409Y-8943549D01*
X18123959Y-8921999D01*
X18132041Y-8919305D01*
X18137428Y-8919305D01*
X18145509Y-8921999D01*
X18156284Y-8932774D01*
X18158978Y-8940855D01*
X18158978Y-8946242D01*
X18156284Y-8954323D01*
X18142816Y-8967792D01*
X18134734Y-8970486D01*
X18129347Y-8970486D01*
X18121266Y-8967792D01*
X18110491Y-8957017D01*
X18107797Y-8948936D01*
X18107797Y-8943549D01*
X18110491Y-8935467D01*
X15975581Y-8553378D02*
X16002518Y-8526440D01*
X15945950Y-8469872D01*
X15908237Y-8518359D02*
X15902850Y-8518359D01*
X15894769Y-8521053D01*
X15881300Y-8534521D01*
X15878606Y-8542603D01*
X15878606Y-8547990D01*
X15881300Y-8556071D01*
X15886687Y-8561459D01*
X15897462Y-8566846D01*
X15962112Y-8566846D01*
X15927093Y-8601865D01*
X15851669Y-8564153D02*
X15813956Y-8601865D01*
X15894769Y-8634190D01*
X19141956Y-10809225D02*
X19168893Y-10782288D01*
X19112325Y-10725719D01*
X19074613Y-10774207D02*
X19069225Y-10774207D01*
X19061144Y-10776900D01*
X19047675Y-10790369D01*
X19044981Y-10798450D01*
X19044981Y-10803838D01*
X19047675Y-10811919D01*
X19053063Y-10817306D01*
X19063838Y-10822694D01*
X19128487Y-10822694D01*
X19093469Y-10857712D01*
X19028819Y-10857712D02*
X19031513Y-10849631D01*
X19031513Y-10844244D01*
X19028819Y-10836163D01*
X19026125Y-10833469D01*
X19018044Y-10830775D01*
X19012656Y-10830775D01*
X19004575Y-10833469D01*
X18993800Y-10844244D01*
X18991107Y-10852325D01*
X18991107Y-10857712D01*
X18993800Y-10865794D01*
X18996494Y-10868487D01*
X19004575Y-10871181D01*
X19009963Y-10871181D01*
X19018044Y-10868487D01*
X19028819Y-10857712D01*
X19036900Y-10855019D01*
X19042288Y-10855019D01*
X19050369Y-10857712D01*
X19061144Y-10868487D01*
X19063838Y-10876569D01*
X19063838Y-10881956D01*
X19061144Y-10890037D01*
X19050369Y-10900812D01*
X19042288Y-10903506D01*
X19036900Y-10903506D01*
X19028819Y-10900812D01*
X19018044Y-10890037D01*
X19015350Y-10881956D01*
X19015350Y-10876569D01*
X19018044Y-10868487D01*
X18901956Y-10129225D02*
X18928893Y-10102288D01*
X18872325Y-10045719D01*
X18834613Y-10094206D02*
X18829225Y-10094206D01*
X18821144Y-10096900D01*
X18807675Y-10110369D01*
X18804981Y-10118450D01*
X18804981Y-10123838D01*
X18807675Y-10131919D01*
X18813063Y-10137306D01*
X18823838Y-10142694D01*
X18888487Y-10142694D01*
X18853469Y-10177712D01*
X18826531Y-10204650D02*
X18815756Y-10215425D01*
X18807675Y-10218118D01*
X18802288Y-10218118D01*
X18788819Y-10215425D01*
X18775350Y-10207344D01*
X18753800Y-10185794D01*
X18751107Y-10177712D01*
X18751107Y-10172325D01*
X18753800Y-10164244D01*
X18764575Y-10153469D01*
X18772656Y-10150775D01*
X18778044Y-10150775D01*
X18786125Y-10153469D01*
X18799594Y-10166937D01*
X18802288Y-10175019D01*
X18802288Y-10180406D01*
X18799594Y-10188487D01*
X18788819Y-10199262D01*
X18780738Y-10201956D01*
X18775350Y-10201956D01*
X18767269Y-10199262D01*
X17249225Y-9338044D02*
X17222288Y-9311107D01*
X17165719Y-9367675D01*
X17206125Y-9408081D02*
X17241144Y-9443100D01*
X17243838Y-9402694D01*
X17251919Y-9410775D01*
X17260000Y-9413469D01*
X17265387Y-9413469D01*
X17273469Y-9410775D01*
X17286937Y-9397306D01*
X17289631Y-9389225D01*
X17289631Y-9383838D01*
X17286937Y-9375756D01*
X17270775Y-9359594D01*
X17262694Y-9356900D01*
X17257306Y-9356900D01*
X17276162Y-9478118D02*
X17281550Y-9483506D01*
X17289631Y-9486200D01*
X17295019Y-9486200D01*
X17303100Y-9483506D01*
X17316569Y-9475425D01*
X17330037Y-9461956D01*
X17338118Y-9448487D01*
X17340812Y-9440406D01*
X17340812Y-9435019D01*
X17338118Y-9426937D01*
X17332731Y-9421550D01*
X17324650Y-9418856D01*
X17319262Y-9418856D01*
X17311181Y-9421550D01*
X17297712Y-9429631D01*
X17284244Y-9443100D01*
X17276162Y-9456569D01*
X17273469Y-9464650D01*
X17273469Y-9470037D01*
X17276162Y-9478118D01*
X17258634Y-8473733D02*
X17285571Y-8446796D01*
X17229003Y-8390227D01*
X17188597Y-8430633D02*
X17153578Y-8465652D01*
X17193984Y-8468345D01*
X17185903Y-8476427D01*
X17183209Y-8484508D01*
X17183209Y-8489895D01*
X17185903Y-8497977D01*
X17199372Y-8511445D01*
X17207453Y-8514139D01*
X17212840Y-8514139D01*
X17220921Y-8511445D01*
X17237084Y-8495283D01*
X17239778Y-8487202D01*
X17239778Y-8481814D01*
X17156272Y-8576095D02*
X17188597Y-8543770D01*
X17172434Y-8559933D02*
X17115866Y-8503364D01*
X17129334Y-8506058D01*
X17140109Y-8506058D01*
X17148190Y-8503364D01*
X16167477Y-8308158D02*
X16140539Y-8281221D01*
X16083971Y-8337790D01*
X16124377Y-8378196D02*
X16159395Y-8413214D01*
X16162089Y-8372808D01*
X16170170Y-8380889D01*
X16178252Y-8383583D01*
X16183639Y-8383583D01*
X16191720Y-8380889D01*
X16205189Y-8367421D01*
X16207883Y-8359339D01*
X16207883Y-8353952D01*
X16205189Y-8345871D01*
X16189026Y-8329708D01*
X16180945Y-8327015D01*
X16175558Y-8327015D01*
X16186333Y-8429377D02*
X16186333Y-8434764D01*
X16189026Y-8442845D01*
X16202495Y-8456314D01*
X16210576Y-8459008D01*
X16215964Y-8459008D01*
X16224045Y-8456314D01*
X16229433Y-8450927D01*
X16234820Y-8440152D01*
X16234820Y-8375502D01*
X16269839Y-8410521D01*
X17213931Y-9791953D02*
X17186993Y-9765015D01*
X17130425Y-9821584D01*
X17170831Y-9861990D02*
X17205849Y-9897009D01*
X17208543Y-9856602D01*
X17216624Y-9864684D01*
X17224706Y-9867377D01*
X17230093Y-9867377D01*
X17238174Y-9864684D01*
X17251643Y-9851215D01*
X17254337Y-9843134D01*
X17254337Y-9837746D01*
X17251643Y-9829665D01*
X17235481Y-9813503D01*
X17227399Y-9810809D01*
X17222012Y-9810809D01*
X17224706Y-9915865D02*
X17259724Y-9950883D01*
X17262418Y-9910477D01*
X17270499Y-9918558D01*
X17278580Y-9921252D01*
X17283968Y-9921252D01*
X17292049Y-9918558D01*
X17305518Y-9905090D01*
X17308212Y-9897009D01*
X17308212Y-9891621D01*
X17305518Y-9883540D01*
X17289355Y-9867377D01*
X17281274Y-9864684D01*
X17275887Y-9864684D01*
X16423241Y-9201037D02*
X16450178Y-9174100D01*
X16393609Y-9117531D01*
X16353203Y-9157937D02*
X16318185Y-9192956D01*
X16358591Y-9195650D01*
X16350510Y-9203731D01*
X16347816Y-9211812D01*
X16347816Y-9217200D01*
X16350510Y-9225281D01*
X16363978Y-9238750D01*
X16372059Y-9241443D01*
X16377447Y-9241443D01*
X16385528Y-9238750D01*
X16401691Y-9222587D01*
X16404384Y-9214506D01*
X16404384Y-9209119D01*
X16288554Y-9260300D02*
X16326266Y-9298012D01*
X16280472Y-9225281D02*
X16334347Y-9252218D01*
X16299328Y-9287237D01*
X18089225Y-8728044D02*
X18062288Y-8701107D01*
X18005719Y-8757675D01*
X18046125Y-8798081D02*
X18081144Y-8833100D01*
X18083838Y-8792694D01*
X18091919Y-8800775D01*
X18100000Y-8803469D01*
X18105387Y-8803469D01*
X18113469Y-8800775D01*
X18126937Y-8787306D01*
X18129631Y-8779225D01*
X18129631Y-8773838D01*
X18126937Y-8765756D01*
X18110775Y-8749594D01*
X18102694Y-8746900D01*
X18097306Y-8746900D01*
X18129631Y-8881587D02*
X18118856Y-8870812D01*
X18116162Y-8862731D01*
X18116162Y-8857344D01*
X18118856Y-8843875D01*
X18126937Y-8830406D01*
X18148487Y-8808856D01*
X18156569Y-8806162D01*
X18161956Y-8806162D01*
X18170037Y-8808856D01*
X18180812Y-8819631D01*
X18183506Y-8827712D01*
X18183506Y-8833100D01*
X18180812Y-8841181D01*
X18167344Y-8854650D01*
X18159262Y-8857344D01*
X18153875Y-8857344D01*
X18145794Y-8854650D01*
X18135019Y-8843875D01*
X18132325Y-8835794D01*
X18132325Y-8830406D01*
X18135019Y-8822325D01*
X15811956Y-10214225D02*
X15838893Y-10187288D01*
X15782325Y-10130719D01*
X15741919Y-10171125D02*
X15706900Y-10206144D01*
X15747306Y-10208838D01*
X15739225Y-10216919D01*
X15736531Y-10225000D01*
X15736531Y-10230387D01*
X15739225Y-10238469D01*
X15752694Y-10251937D01*
X15760775Y-10254631D01*
X15766162Y-10254631D01*
X15774244Y-10251937D01*
X15790406Y-10235775D01*
X15793100Y-10227694D01*
X15793100Y-10222306D01*
X15688044Y-10225000D02*
X15650332Y-10262712D01*
X15731144Y-10295037D01*
X15209225Y-9138044D02*
X15182288Y-9111106D01*
X15125719Y-9167675D01*
X15166125Y-9208081D02*
X15201144Y-9243100D01*
X15203837Y-9202694D01*
X15211919Y-9210775D01*
X15220000Y-9213469D01*
X15225387Y-9213469D01*
X15233469Y-9210775D01*
X15246937Y-9197306D01*
X15249631Y-9189225D01*
X15249631Y-9183837D01*
X15246937Y-9175756D01*
X15230775Y-9159594D01*
X15222694Y-9156900D01*
X15217306Y-9156900D01*
X15257712Y-9251181D02*
X15249631Y-9248487D01*
X15244244Y-9248487D01*
X15236162Y-9251181D01*
X15233469Y-9253875D01*
X15230775Y-9261956D01*
X15230775Y-9267343D01*
X15233469Y-9275425D01*
X15244244Y-9286200D01*
X15252325Y-9288893D01*
X15257712Y-9288893D01*
X15265793Y-9286200D01*
X15268487Y-9283506D01*
X15271181Y-9275425D01*
X15271181Y-9270037D01*
X15268487Y-9261956D01*
X15257712Y-9251181D01*
X15255019Y-9243100D01*
X15255019Y-9237712D01*
X15257712Y-9229631D01*
X15268487Y-9218856D01*
X15276568Y-9216162D01*
X15281956Y-9216162D01*
X15290037Y-9218856D01*
X15300812Y-9229631D01*
X15303506Y-9237712D01*
X15303506Y-9243100D01*
X15300812Y-9251181D01*
X15290037Y-9261956D01*
X15281956Y-9264650D01*
X15276568Y-9264650D01*
X15268487Y-9261956D01*
X17849225Y-8668044D02*
X17822288Y-8641107D01*
X17765719Y-8697675D01*
X17854613Y-8748856D02*
X17892325Y-8711144D01*
X17819594Y-8756937D02*
X17846531Y-8703063D01*
X17881550Y-8738081D01*
X17876162Y-8808118D02*
X17881550Y-8813506D01*
X17889631Y-8816200D01*
X17895019Y-8816200D01*
X17903100Y-8813506D01*
X17916569Y-8805425D01*
X17930037Y-8791956D01*
X17938118Y-8778487D01*
X17940812Y-8770406D01*
X17940812Y-8765019D01*
X17938118Y-8756937D01*
X17932731Y-8751550D01*
X17924650Y-8748856D01*
X17919262Y-8748856D01*
X17911181Y-8751550D01*
X17897712Y-8759631D01*
X17884244Y-8773100D01*
X17876162Y-8786569D01*
X17873469Y-8794650D01*
X17873469Y-8800037D01*
X17876162Y-8808118D01*
X16241956Y-9969225D02*
X16268893Y-9942288D01*
X16212325Y-9885719D01*
X16161144Y-9974613D02*
X16198856Y-10012325D01*
X16153063Y-9939594D02*
X16206937Y-9966531D01*
X16171919Y-10001550D01*
X16139594Y-10071587D02*
X16171919Y-10039262D01*
X16155756Y-10055425D02*
X16099188Y-9998856D01*
X16112656Y-10001550D01*
X16123431Y-10001550D01*
X16131513Y-9998856D01*
X15901956Y-8269225D02*
X15928893Y-8242287D01*
X15872325Y-8185719D01*
X15821144Y-8274612D02*
X15858856Y-8312325D01*
X15813062Y-8239594D02*
X15866937Y-8266531D01*
X15831919Y-8301550D01*
X15780738Y-8288081D02*
X15775350Y-8288081D01*
X15767269Y-8290775D01*
X15753800Y-8304243D01*
X15751106Y-8312325D01*
X15751106Y-8317712D01*
X15753800Y-8325793D01*
X15759188Y-8331181D01*
X15769963Y-8336568D01*
X15834612Y-8336568D01*
X15799594Y-8371587D01*
X14896162Y-7244981D02*
X14850369Y-7253062D01*
X14863837Y-7212656D02*
X14807269Y-7269225D01*
X14828819Y-7290775D01*
X14836900Y-7293469D01*
X14842288Y-7293469D01*
X14850369Y-7290775D01*
X14858450Y-7282694D01*
X14861144Y-7274612D01*
X14861144Y-7269225D01*
X14858450Y-7261144D01*
X14836900Y-7239594D01*
X14950037Y-7298856D02*
X14917712Y-7266531D01*
X14933875Y-7282694D02*
X14877306Y-7339262D01*
X14880000Y-7325793D01*
X14880000Y-7315019D01*
X14877306Y-7306937D01*
X15596162Y-6584981D02*
X15550369Y-6593062D01*
X15563837Y-6552656D02*
X15507269Y-6609225D01*
X15528819Y-6630775D01*
X15536900Y-6633469D01*
X15542288Y-6633469D01*
X15550369Y-6630775D01*
X15558450Y-6622694D01*
X15561144Y-6614612D01*
X15561144Y-6609225D01*
X15558450Y-6601144D01*
X15536900Y-6579594D01*
X15566531Y-6657712D02*
X15566531Y-6663100D01*
X15569225Y-6671181D01*
X15582694Y-6684650D01*
X15590775Y-6687343D01*
X15596162Y-6687343D01*
X15604244Y-6684650D01*
X15609631Y-6679262D01*
X15615019Y-6668487D01*
X15615019Y-6603837D01*
X15650037Y-6638856D01*
X14175019Y-7516162D02*
X14166937Y-7470369D01*
X14207343Y-7483837D02*
X14150775Y-7427269D01*
X14129225Y-7448819D01*
X14126531Y-7456900D01*
X14126531Y-7462288D01*
X14129225Y-7470369D01*
X14137306Y-7478450D01*
X14145387Y-7481144D01*
X14150775Y-7481144D01*
X14158856Y-7478450D01*
X14180406Y-7456900D01*
X14099594Y-7478450D02*
X14064575Y-7513469D01*
X14104981Y-7516162D01*
X14096900Y-7524244D01*
X14094206Y-7532325D01*
X14094206Y-7537712D01*
X14096900Y-7545793D01*
X14110369Y-7559262D01*
X14118450Y-7561956D01*
X14123837Y-7561956D01*
X14131919Y-7559262D01*
X14148081Y-7543100D01*
X14150775Y-7535019D01*
X14150775Y-7529631D01*
X15915019Y-8016162D02*
X15906937Y-7970369D01*
X15947343Y-7983838D02*
X15890775Y-7927269D01*
X15869225Y-7948819D01*
X15866531Y-7956900D01*
X15866531Y-7962288D01*
X15869225Y-7970369D01*
X15877306Y-7978450D01*
X15885387Y-7981144D01*
X15890775Y-7981144D01*
X15898856Y-7978450D01*
X15920406Y-7956900D01*
X15828819Y-8026937D02*
X15866531Y-8064650D01*
X15820738Y-7991919D02*
X15874612Y-8018856D01*
X15839594Y-8053875D01*
X17759225Y-8328044D02*
X17713432Y-8336125D01*
X17726900Y-8295719D02*
X17670332Y-8352288D01*
X17691882Y-8373837D01*
X17699963Y-8376531D01*
X17705350Y-8376531D01*
X17713432Y-8373837D01*
X17721513Y-8365756D01*
X17724207Y-8357675D01*
X17724207Y-8352288D01*
X17721513Y-8344206D01*
X17699963Y-8322656D01*
X17729594Y-8400775D02*
X17729594Y-8406162D01*
X17732288Y-8414244D01*
X17745756Y-8427712D01*
X17753838Y-8430406D01*
X17759225Y-8430406D01*
X17767306Y-8427712D01*
X17772694Y-8422325D01*
X17778081Y-8411550D01*
X17778081Y-8346900D01*
X17813100Y-8381919D01*
X17783469Y-8454650D02*
X17783469Y-8460037D01*
X17786163Y-8468118D01*
X17799631Y-8481587D01*
X17807712Y-8484281D01*
X17813100Y-8484281D01*
X17821181Y-8481587D01*
X17826569Y-8476200D01*
X17831956Y-8465425D01*
X17831956Y-8400775D01*
X17866975Y-8435794D01*
X16376956Y-9409225D02*
X16368875Y-9363431D01*
X16409281Y-9376900D02*
X16352712Y-9320332D01*
X16331162Y-9341882D01*
X16328469Y-9349963D01*
X16328469Y-9355350D01*
X16331162Y-9363431D01*
X16339244Y-9371513D01*
X16347325Y-9374206D01*
X16352712Y-9374206D01*
X16360793Y-9371513D01*
X16382343Y-9349963D01*
X16304225Y-9379594D02*
X16298837Y-9379594D01*
X16290756Y-9382288D01*
X16277288Y-9395756D01*
X16274594Y-9403838D01*
X16274594Y-9409225D01*
X16277288Y-9417306D01*
X16282675Y-9422694D01*
X16293450Y-9428081D01*
X16358100Y-9428081D01*
X16323081Y-9463100D01*
X16247656Y-9425387D02*
X16212638Y-9460406D01*
X16253044Y-9463100D01*
X16244963Y-9471181D01*
X16242269Y-9479262D01*
X16242269Y-9484650D01*
X16244963Y-9492731D01*
X16258431Y-9506200D01*
X16266513Y-9508893D01*
X16271900Y-9508893D01*
X16279981Y-9506200D01*
X16296144Y-9490037D01*
X16298837Y-9481956D01*
X16298837Y-9476569D01*
X16061956Y-8109225D02*
X16053875Y-8063431D01*
X16094281Y-8076900D02*
X16037712Y-8020332D01*
X16016162Y-8041881D01*
X16013469Y-8049963D01*
X16013469Y-8055350D01*
X16016162Y-8063431D01*
X16024243Y-8071513D01*
X16032325Y-8074206D01*
X16037712Y-8074206D01*
X16045793Y-8071513D01*
X16067343Y-8049963D01*
X15989225Y-8079594D02*
X15983837Y-8079594D01*
X15975756Y-8082288D01*
X15962287Y-8095756D01*
X15959594Y-8103837D01*
X15959594Y-8109225D01*
X15962287Y-8117306D01*
X15967675Y-8122694D01*
X15978450Y-8128081D01*
X16043100Y-8128081D01*
X16008081Y-8163100D01*
X15921881Y-8173875D02*
X15959594Y-8211587D01*
X15913800Y-8138856D02*
X15967675Y-8165793D01*
X15932656Y-8200812D01*
X14300152Y-5354903D02*
X14357394Y-5412145D01*
X14360761Y-5422246D01*
X14360761Y-5428981D01*
X14357394Y-5439082D01*
X14343925Y-5452551D01*
X14333824Y-5455918D01*
X14327090Y-5455918D01*
X14316988Y-5452551D01*
X14259746Y-5395309D01*
X14259746Y-5536730D02*
X14300152Y-5496324D01*
X14279949Y-5516527D02*
X14209238Y-5445816D01*
X14226074Y-5449184D01*
X14239543Y-5449184D01*
X14249645Y-5445816D01*
X14000504Y-8336416D02*
X14057746Y-8279174D01*
X14067847Y-8275807D01*
X14074582Y-8275807D01*
X14084683Y-8279174D01*
X14098152Y-8292643D01*
X14101519Y-8302744D01*
X14101519Y-8309479D01*
X14098152Y-8319580D01*
X14040910Y-8376822D01*
X14077949Y-8400393D02*
X14077949Y-8407127D01*
X14081316Y-8417228D01*
X14098152Y-8434064D01*
X14108254Y-8437431D01*
X14114988Y-8437431D01*
X14125089Y-8434064D01*
X14131824Y-8427330D01*
X14138558Y-8413861D01*
X14138558Y-8333049D01*
X14182331Y-8376822D01*
X18005152Y-10229903D02*
X18062394Y-10287145D01*
X18065761Y-10297246D01*
X18065761Y-10303980D01*
X18062394Y-10314082D01*
X18048926Y-10327551D01*
X18038824Y-10330918D01*
X18032090Y-10330918D01*
X18021988Y-10327551D01*
X17964746Y-10270309D01*
X17897403Y-10337652D02*
X17931074Y-10303980D01*
X17968113Y-10334285D01*
X17961379Y-10334285D01*
X17951277Y-10337652D01*
X17934442Y-10354488D01*
X17931074Y-10364590D01*
X17931074Y-10371324D01*
X17934442Y-10381425D01*
X17951277Y-10398261D01*
X17961379Y-10401629D01*
X17968113Y-10401629D01*
X17978215Y-10398261D01*
X17995051Y-10381425D01*
X17998418Y-10371324D01*
X17998418Y-10364590D01*
X15025504Y-9351416D02*
X15082746Y-9294174D01*
X15092847Y-9290807D01*
X15099582Y-9290807D01*
X15109683Y-9294174D01*
X15123152Y-9307643D01*
X15126519Y-9317744D01*
X15126519Y-9324479D01*
X15123152Y-9334580D01*
X15065910Y-9391822D01*
X15129886Y-9455799D02*
X15116418Y-9442330D01*
X15113051Y-9432228D01*
X15113051Y-9425494D01*
X15116418Y-9408658D01*
X15126519Y-9391822D01*
X15153457Y-9364885D01*
X15163558Y-9361518D01*
X15170293Y-9361518D01*
X15180394Y-9364885D01*
X15193863Y-9378354D01*
X15197230Y-9388455D01*
X15197230Y-9395189D01*
X15193863Y-9405291D01*
X15177027Y-9422127D01*
X15166925Y-9425494D01*
X15160191Y-9425494D01*
X15150089Y-9422127D01*
X15136621Y-9408658D01*
X15133254Y-9398557D01*
X15133254Y-9391822D01*
X15136621Y-9381721D01*
X16649225Y-9428044D02*
X16603431Y-9436125D01*
X16616900Y-9395719D02*
X16560332Y-9452288D01*
X16581881Y-9473838D01*
X16589963Y-9476531D01*
X16595350Y-9476531D01*
X16603431Y-9473838D01*
X16611513Y-9465756D01*
X16614206Y-9457675D01*
X16614206Y-9452288D01*
X16611513Y-9444206D01*
X16589963Y-9422656D01*
X16619594Y-9500775D02*
X16619594Y-9506162D01*
X16622288Y-9514244D01*
X16635756Y-9527712D01*
X16643837Y-9530406D01*
X16649225Y-9530406D01*
X16657306Y-9527712D01*
X16662694Y-9522325D01*
X16668081Y-9511550D01*
X16668081Y-9446900D01*
X16703100Y-9481919D01*
X16756975Y-9535794D02*
X16724650Y-9503469D01*
X16740812Y-9519631D02*
X16684244Y-9576200D01*
X16686937Y-9562731D01*
X16686937Y-9551956D01*
X16684244Y-9543875D01*
X16563837Y-9513431D02*
X16563837Y-9508044D01*
X16558450Y-9497269D01*
X16553062Y-9491882D01*
X16542288Y-9486494D01*
X16531513Y-9486494D01*
X16523431Y-9489188D01*
X16509963Y-9497269D01*
X16501881Y-9505350D01*
X16493800Y-9518819D01*
X16491106Y-9526900D01*
X16491106Y-9537675D01*
X16496494Y-9548450D01*
X16501881Y-9553838D01*
X16512656Y-9559225D01*
X16518044Y-9559225D01*
X16561144Y-9613100D02*
X16550369Y-9602325D01*
X16547675Y-9594244D01*
X16547675Y-9588856D01*
X16550369Y-9575387D01*
X16558450Y-9561919D01*
X16580000Y-9540369D01*
X16588081Y-9537675D01*
X16593469Y-9537675D01*
X16601550Y-9540369D01*
X16612325Y-9551144D01*
X16615019Y-9559225D01*
X16615019Y-9564613D01*
X16612325Y-9572694D01*
X16598856Y-9586162D01*
X16590775Y-9588856D01*
X16585387Y-9588856D01*
X16577306Y-9586162D01*
X16566531Y-9575387D01*
X16563837Y-9567306D01*
X16563837Y-9561919D01*
X16566531Y-9553838D01*
X16623100Y-9626569D02*
X16615019Y-9623875D01*
X16609631Y-9623875D01*
X16601550Y-9626569D01*
X16598856Y-9629262D01*
X16596162Y-9637344D01*
X16596162Y-9642731D01*
X16598856Y-9650812D01*
X16609631Y-9661587D01*
X16617712Y-9664281D01*
X16623100Y-9664281D01*
X16631181Y-9661587D01*
X16633875Y-9658893D01*
X16636568Y-9650812D01*
X16636568Y-9645425D01*
X16633875Y-9637344D01*
X16623100Y-9626569D01*
X16620406Y-9618487D01*
X16620406Y-9613100D01*
X16623100Y-9605019D01*
X16633875Y-9594244D01*
X16641956Y-9591550D01*
X16647343Y-9591550D01*
X16655425Y-9594244D01*
X16666200Y-9605019D01*
X16668893Y-9613100D01*
X16668893Y-9618487D01*
X16666200Y-9626569D01*
X16655425Y-9637344D01*
X16647343Y-9640037D01*
X16641956Y-9640037D01*
X16633875Y-9637344D01*
X17129225Y-9888044D02*
X17102288Y-9861106D01*
X17045719Y-9917675D01*
X17086125Y-9958081D02*
X17121144Y-9993100D01*
X17123838Y-9952694D01*
X17131919Y-9960775D01*
X17140000Y-9963469D01*
X17145387Y-9963469D01*
X17153469Y-9960775D01*
X17166937Y-9947306D01*
X17169631Y-9939225D01*
X17169631Y-9933837D01*
X17166937Y-9925756D01*
X17150775Y-9909594D01*
X17142694Y-9906900D01*
X17137306Y-9906900D01*
X17172325Y-10044281D02*
X17145387Y-10017343D01*
X17169631Y-9987712D01*
X17169631Y-9993100D01*
X17172325Y-10001181D01*
X17185794Y-10014650D01*
X17193875Y-10017343D01*
X17199262Y-10017343D01*
X17207344Y-10014650D01*
X17220812Y-10001181D01*
X17223506Y-9993100D01*
X17223506Y-9987712D01*
X17220812Y-9979631D01*
X17207344Y-9966162D01*
X17199262Y-9963469D01*
X17193875Y-9963469D01*
X16969225Y-9548044D02*
X16942288Y-9521107D01*
X16885719Y-9577675D01*
X16926125Y-9618081D02*
X16961144Y-9653100D01*
X16963838Y-9612694D01*
X16971919Y-9620775D01*
X16980000Y-9623469D01*
X16985387Y-9623469D01*
X16993469Y-9620775D01*
X17006937Y-9607306D01*
X17009631Y-9599225D01*
X17009631Y-9593838D01*
X17006937Y-9585756D01*
X16990775Y-9569594D01*
X16982694Y-9566900D01*
X16977306Y-9566900D01*
X17044650Y-9623469D02*
X17055425Y-9634244D01*
X17058118Y-9642325D01*
X17058118Y-9647712D01*
X17055425Y-9661181D01*
X17047344Y-9674650D01*
X17025794Y-9696200D01*
X17017712Y-9698893D01*
X17012325Y-9698893D01*
X17004244Y-9696200D01*
X16993469Y-9685425D01*
X16990775Y-9677344D01*
X16990775Y-9671956D01*
X16993469Y-9663875D01*
X17006937Y-9650406D01*
X17015019Y-9647712D01*
X17020406Y-9647712D01*
X17028487Y-9650406D01*
X17039262Y-9661181D01*
X17041956Y-9669262D01*
X17041956Y-9674650D01*
X17039262Y-9682731D01*
X12779217Y-6741328D02*
X12869019Y-6651525D01*
X12617572Y-6579683D02*
X12779217Y-6741328D01*
X12869019Y-6651525D02*
X12707375Y-6489881D01*
X12707375Y-6489881D02*
X12617572Y-6579683D01*
X12132174Y-6109119D02*
X12293819Y-6270763D01*
X12293819Y-6270763D02*
X12383621Y-6180961D01*
X12383621Y-6180961D02*
X12221977Y-6019316D01*
X12221977Y-6019316D02*
X12132174Y-6109119D01*
X12137315Y-7234349D02*
X11975671Y-7395993D01*
X12227118Y-7324151D02*
X12137315Y-7234349D01*
X11975671Y-7395993D02*
X12065473Y-7485796D01*
X12065473Y-7485796D02*
X12227118Y-7324151D01*
X11862273Y-7688996D02*
X12023918Y-7527351D01*
X11772471Y-7599193D02*
X11862273Y-7688996D01*
X11934115Y-7437549D02*
X11772471Y-7599193D01*
X12023918Y-7527351D02*
X11934115Y-7437549D01*
X12273881Y-7896636D02*
X12435526Y-8058280D01*
X12435526Y-8058280D02*
X12525328Y-7968478D01*
X12363684Y-7806833D02*
X12273881Y-7896636D01*
X12525328Y-7968478D02*
X12363684Y-7806833D01*
X12020121Y-6689151D02*
X12181765Y-6850796D01*
X12109923Y-6599349D02*
X12020121Y-6689151D01*
X12181765Y-6850796D02*
X12271568Y-6760993D01*
X12271568Y-6760993D02*
X12109923Y-6599349D01*
X12498034Y-7672483D02*
X12408231Y-7762286D01*
X12408231Y-7762286D02*
X12569876Y-7923930D01*
X12569876Y-7923930D02*
X12659678Y-7834128D01*
X12659678Y-7834128D02*
X12498034Y-7672483D01*
X12622131Y-7551921D02*
X12783776Y-7713566D01*
X12711934Y-7462119D02*
X12622131Y-7551921D01*
X12783776Y-7713566D02*
X12873578Y-7623763D01*
X12873578Y-7623763D02*
X12711934Y-7462119D01*
D11*
X16488790Y-10938963D02*
X16063819Y-11363934D01*
X16546066Y-11846181D02*
X16456971Y-11757085D01*
X16811938Y-11580309D02*
X16546066Y-11846181D01*
X16063819Y-11363934D02*
X16152915Y-11453029D01*
X15937790Y-10386663D02*
X15512819Y-10811634D01*
X15995066Y-11293881D02*
X15905971Y-11204785D01*
X15512819Y-10811634D02*
X15601915Y-10900729D01*
X16260938Y-11028009D02*
X15995066Y-11293881D01*
D10*
X11975725Y-6159056D02*
X12047567Y-6087214D01*
X12047567Y-6087214D02*
X11939804Y-5979450D01*
X11832041Y-6302740D02*
X11903883Y-6230898D01*
X11796120Y-6123135D02*
X11724278Y-6194977D01*
X11939804Y-5979450D02*
X11867962Y-6051292D01*
X11724278Y-6194977D02*
X11832041Y-6302740D01*
X15901645Y-11653881D02*
X15829803Y-11582039D01*
X15722039Y-11689803D02*
X15793881Y-11761645D01*
X15757960Y-11510197D02*
X15686118Y-11438355D01*
X15578355Y-11546118D02*
X15650197Y-11617960D01*
X15793881Y-11761645D02*
X15901645Y-11653881D01*
X15686118Y-11438355D02*
X15578355Y-11546118D01*
X15263670Y-11435266D02*
X15371434Y-11543029D01*
X15586960Y-11327503D02*
X15479197Y-11219740D01*
X15515118Y-11399345D02*
X15586960Y-11327503D01*
X15479197Y-11219740D02*
X15407355Y-11291582D01*
X15371434Y-11543029D02*
X15443276Y-11471187D01*
X15335512Y-11363424D02*
X15263670Y-11435266D01*
X13466770Y-9217936D02*
X13628415Y-9056291D01*
X13628415Y-9056291D02*
X13538612Y-8966489D01*
X13376968Y-9128133D02*
X13466770Y-9217936D01*
X13538612Y-8966489D02*
X13376968Y-9128133D01*
X11910894Y-6736563D02*
X11875539Y-6771918D01*
X11910894Y-7196182D02*
X11875539Y-7160827D01*
X11681085Y-6966372D02*
X11716440Y-7001728D01*
X11910894Y-7196182D02*
X11946250Y-7160827D01*
X12140704Y-6966372D02*
X12105349Y-7001728D01*
X12140704Y-6966372D02*
X12105349Y-6931017D01*
X11910894Y-6736563D02*
X11946250Y-6771918D01*
X12531975Y-11690264D02*
X12693620Y-11851908D01*
X12783422Y-11762106D02*
X12621778Y-11600461D01*
X12693620Y-11851908D02*
X12783422Y-11762106D01*
X12621778Y-11600461D02*
X12531975Y-11690264D01*
X13163748Y-9874189D02*
X13253550Y-9963992D01*
X13325392Y-9712545D02*
X13163748Y-9874189D01*
X13415195Y-9802347D02*
X13325392Y-9712545D01*
X13253550Y-9963992D02*
X13415195Y-9802347D01*
X12235079Y-11209276D02*
X12145276Y-11299079D01*
X12145276Y-11299079D02*
X12306921Y-11460724D01*
X12306921Y-11460724D02*
X12396724Y-11370921D01*
X12396724Y-11370921D02*
X12235079Y-11209276D01*
X13109866Y-9820308D02*
X13271511Y-9658663D01*
X13020064Y-9730505D02*
X13109866Y-9820308D01*
X13181708Y-9568861D02*
X13020064Y-9730505D01*
X13271511Y-9658663D02*
X13181708Y-9568861D01*
D12*
X12569212Y-10927637D02*
X12578192Y-10936617D01*
X13072107Y-11430531D02*
X13063126Y-11421551D01*
X13125988Y-11376650D02*
X13072107Y-11430531D01*
X13287633Y-11215005D02*
X13341514Y-11161124D01*
X12829640Y-10667210D02*
X12847600Y-10667210D01*
X13341514Y-11161124D02*
X13332534Y-11152144D01*
X12784738Y-10712111D02*
X12829640Y-10667210D01*
X12623094Y-10873756D02*
X12569212Y-10927637D01*
D11*
X15766727Y-13135000D02*
X15766727Y-12989000D01*
X15450727Y-13135000D02*
X15450727Y-12919000D01*
X15450727Y-13135000D02*
X15543727Y-13135000D01*
X15766727Y-13135000D02*
X15673727Y-13135000D01*
X18707605Y-7891711D02*
X18853605Y-7891711D01*
X18707605Y-7575711D02*
X18923605Y-7575711D01*
X18707605Y-7891711D02*
X18707605Y-7798711D01*
X18707605Y-7575711D02*
X18707605Y-7668711D01*
X10850000Y-8206000D02*
X11066000Y-8206000D01*
X10850000Y-8522000D02*
X10996000Y-8522000D01*
X10850000Y-8522000D02*
X10850000Y-8429000D01*
X10850000Y-8206000D02*
X10850000Y-8299000D01*
X17313744Y-11172911D02*
X16931906Y-11554749D01*
X17313744Y-11172911D02*
X17547089Y-11406256D01*
X17547089Y-11406256D02*
X17165251Y-11788094D01*
D10*
X12196307Y-7833204D02*
X12286110Y-7743402D01*
X12124465Y-7581757D02*
X12034663Y-7671560D01*
X12286110Y-7743402D02*
X12124465Y-7581757D01*
X12034663Y-7671560D02*
X12196307Y-7833204D01*
X12453408Y-6639195D02*
X12615053Y-6477550D01*
X12525250Y-6387748D02*
X12363606Y-6549392D01*
X12363606Y-6549392D02*
X12453408Y-6639195D01*
X12615053Y-6477550D02*
X12525250Y-6387748D01*
X12181957Y-7521869D02*
X12343602Y-7683514D01*
X12343602Y-7683514D02*
X12433404Y-7593711D01*
X12433404Y-7593711D02*
X12271760Y-7432067D01*
X12271760Y-7432067D02*
X12181957Y-7521869D01*
X12389550Y-6254747D02*
X12227905Y-6416392D01*
X12227905Y-6416392D02*
X12317708Y-6506195D01*
X12317708Y-6506195D02*
X12479353Y-6344550D01*
X12479353Y-6344550D02*
X12389550Y-6254747D01*
X13263830Y-9014996D02*
X13353633Y-9104799D01*
X13425475Y-8853351D02*
X13263830Y-9014996D01*
X13515278Y-8943154D02*
X13425475Y-8853351D01*
X13353633Y-9104799D02*
X13515278Y-8943154D01*
X13706197Y-8752235D02*
X13616394Y-8662433D01*
X13454749Y-8824077D02*
X13544552Y-8913880D01*
X13544552Y-8913880D02*
X13706197Y-8752235D01*
X13616394Y-8662433D02*
X13454749Y-8824077D01*
X14443709Y-9885727D02*
X14282064Y-10047372D01*
X14282064Y-10047372D02*
X14371867Y-10137175D01*
X14533511Y-9975530D02*
X14443709Y-9885727D01*
X14371867Y-10137175D02*
X14533511Y-9975530D01*
X14641699Y-9687737D02*
X14480054Y-9849382D01*
X14731501Y-9777540D02*
X14641699Y-9687737D01*
X14569857Y-9939185D02*
X14731501Y-9777540D01*
X14480054Y-9849382D02*
X14569857Y-9939185D01*
X12815197Y-8694540D02*
X12743355Y-8766382D01*
X13066645Y-8658619D02*
X12958881Y-8550855D01*
X12994803Y-8730461D02*
X13066645Y-8658619D01*
X12958881Y-8550855D02*
X12887039Y-8622697D01*
X12851118Y-8874145D02*
X12922960Y-8802303D01*
X12743355Y-8766382D02*
X12851118Y-8874145D01*
X12585504Y-6611443D02*
X12495701Y-6701246D01*
X12495701Y-6701246D02*
X12657346Y-6862890D01*
X12747148Y-6773088D02*
X12585504Y-6611443D01*
X12657346Y-6862890D02*
X12747148Y-6773088D01*
X12266781Y-6297801D02*
X12105137Y-6136156D01*
X12176979Y-6387603D02*
X12266781Y-6297801D01*
X12105137Y-6136156D02*
X12015334Y-6225959D01*
X12015334Y-6225959D02*
X12176979Y-6387603D01*
X12756481Y-7417571D02*
X12918126Y-7579216D01*
X12846284Y-7327768D02*
X12756481Y-7417571D01*
X13007929Y-7489413D02*
X12846284Y-7327768D01*
X12918126Y-7579216D02*
X13007929Y-7489413D01*
X12268673Y-7282596D02*
X12430318Y-7120951D01*
X12178871Y-7192793D02*
X12268673Y-7282596D01*
X12340515Y-7031149D02*
X12178871Y-7192793D01*
X12430318Y-7120951D02*
X12340515Y-7031149D01*
X12633518Y-6917751D02*
X12543715Y-6827949D01*
X12382071Y-6989593D02*
X12471873Y-7079396D01*
X12543715Y-6827949D02*
X12382071Y-6989593D01*
X12471873Y-7079396D02*
X12633518Y-6917751D01*
X13727509Y-8773547D02*
X13565864Y-8935192D01*
X13565864Y-8935192D02*
X13655667Y-9024994D01*
X13655667Y-9024994D02*
X13817311Y-8863350D01*
X13817311Y-8863350D02*
X13727509Y-8773547D01*
X14485004Y-10250312D02*
X14646649Y-10088667D01*
X14646649Y-10088667D02*
X14556846Y-9998864D01*
X14556846Y-9998864D02*
X14395201Y-10160509D01*
X14395201Y-10160509D02*
X14485004Y-10250312D01*
X14682994Y-10052322D02*
X14844638Y-9890677D01*
X14593191Y-9962519D02*
X14682994Y-10052322D01*
X14754836Y-9800875D02*
X14593191Y-9962519D01*
X14844638Y-9890677D02*
X14754836Y-9800875D01*
D11*
X17885363Y-11033941D02*
X17743941Y-11175363D01*
X17534638Y-10966059D02*
X17676059Y-10824638D01*
D10*
X14269239Y-10979680D02*
X14430883Y-10818036D01*
X14430883Y-10818036D02*
X14341081Y-10728233D01*
X14179436Y-10889878D02*
X14269239Y-10979680D01*
X14341081Y-10728233D02*
X14179436Y-10889878D01*
X14124423Y-10837127D02*
X14286068Y-10675483D01*
X14034620Y-10747325D02*
X14124423Y-10837127D01*
X14286068Y-10675483D02*
X14196265Y-10585680D01*
X14196265Y-10585680D02*
X14034620Y-10747325D01*
X12734449Y-11628097D02*
X12896094Y-11466452D01*
X12806291Y-11376650D02*
X12644647Y-11538294D01*
X12896094Y-11466452D02*
X12806291Y-11376650D01*
X12644647Y-11538294D02*
X12734449Y-11628097D01*
X13163748Y-10053794D02*
X13073945Y-9963992D01*
X12912301Y-10125636D02*
X13002103Y-10215439D01*
X13073945Y-9963992D02*
X12912301Y-10125636D01*
X13002103Y-10215439D02*
X13163748Y-10053794D01*
X12536883Y-11100058D02*
X12375239Y-11261703D01*
X12465041Y-11351505D02*
X12626686Y-11189861D01*
X12626686Y-11189861D02*
X12536883Y-11100058D01*
X12375239Y-11261703D02*
X12465041Y-11351505D01*
X12509943Y-11073117D02*
X12420140Y-10983315D01*
X12258495Y-11144959D02*
X12348298Y-11234762D01*
X12348298Y-11234762D02*
X12509943Y-11073117D01*
X12420140Y-10983315D02*
X12258495Y-11144959D01*
X12930261Y-9820308D02*
X12768617Y-9981952D01*
X12858419Y-10071755D02*
X13020064Y-9910110D01*
X13020064Y-9910110D02*
X12930261Y-9820308D01*
X12768617Y-9981952D02*
X12858419Y-10071755D01*
X12948222Y-9694584D02*
X12786577Y-9532940D01*
X12786577Y-9532940D02*
X12696774Y-9622742D01*
X12696774Y-9622742D02*
X12858419Y-9784387D01*
X12858419Y-9784387D02*
X12948222Y-9694584D01*
X13199669Y-10125637D02*
X13361313Y-10287281D01*
X13289471Y-10035834D02*
X13199669Y-10125637D01*
X13451116Y-10197479D02*
X13289471Y-10035834D01*
X13361313Y-10287281D02*
X13451116Y-10197479D01*
X14215357Y-11141325D02*
X14377002Y-11302969D01*
X14305160Y-11051522D02*
X14215357Y-11141325D01*
X14377002Y-11302969D02*
X14466804Y-11213166D01*
X14466804Y-11213166D02*
X14305160Y-11051522D01*
X13963910Y-10710273D02*
X13802265Y-10548628D01*
X13802265Y-10548628D02*
X13712462Y-10638431D01*
X13874107Y-10800075D02*
X13963910Y-10710273D01*
X13712462Y-10638431D02*
X13874107Y-10800075D01*
X14017791Y-11231127D02*
X14179436Y-11069483D01*
X14089633Y-10979680D02*
X13927989Y-11141325D01*
X13927989Y-11141325D02*
X14017791Y-11231127D01*
X14179436Y-11069483D02*
X14089633Y-10979680D01*
X12761390Y-11655038D02*
X12851192Y-11744840D01*
X12923034Y-11493393D02*
X12761390Y-11655038D01*
X13012837Y-11583196D02*
X12923034Y-11493393D01*
X12851192Y-11744840D02*
X13012837Y-11583196D01*
D11*
X15771981Y-6019000D02*
X15678981Y-6019000D01*
X15455981Y-6019000D02*
X15455981Y-5803000D01*
X15771981Y-6019000D02*
X15771981Y-5873000D01*
X15455981Y-6019000D02*
X15548981Y-6019000D01*
X15450727Y-12623000D02*
X15450727Y-12769000D01*
X15766727Y-12623000D02*
X15766727Y-12839000D01*
X15450727Y-12623000D02*
X15543727Y-12623000D01*
X15766727Y-12623000D02*
X15673727Y-12623000D01*
X11372000Y-8522000D02*
X11372000Y-8429000D01*
X11372000Y-8206000D02*
X11226000Y-8206000D01*
X11372000Y-8206000D02*
X11372000Y-8299000D01*
X11372000Y-8522000D02*
X11156000Y-8522000D01*
X19244305Y-7575711D02*
X19244305Y-7668711D01*
X19244305Y-7891711D02*
X19244305Y-7798711D01*
X19244305Y-7575711D02*
X19098305Y-7575711D01*
X19244305Y-7891711D02*
X19028305Y-7891711D01*
X15774000Y-5512000D02*
X15681000Y-5512000D01*
X15458000Y-5512000D02*
X15458000Y-5658000D01*
X15458000Y-5512000D02*
X15551000Y-5512000D01*
X15774000Y-5512000D02*
X15774000Y-5728000D01*
D10*
X12542790Y-7486722D02*
X12632592Y-7396919D01*
X12381145Y-7325077D02*
X12542790Y-7486722D01*
X12470948Y-7235275D02*
X12381145Y-7325077D01*
X12632592Y-7396919D02*
X12470948Y-7235275D01*
X12619440Y-7086782D02*
X12529637Y-7176585D01*
X12691282Y-7338229D02*
X12781084Y-7248427D01*
X12529637Y-7176585D02*
X12691282Y-7338229D01*
X12781084Y-7248427D02*
X12619440Y-7086782D01*
D11*
X16389749Y-10214541D02*
X16460459Y-10285251D01*
X16340251Y-10405459D02*
X16269541Y-10334749D01*
X16847751Y-10925459D02*
X16777041Y-10854749D01*
X16897249Y-10734541D02*
X16967959Y-10805251D01*
X17015251Y-10795459D02*
X16944541Y-10724749D01*
X17064749Y-10604541D02*
X17135459Y-10675251D01*
D10*
X12692487Y-9187710D02*
X12782290Y-9277513D01*
X12943934Y-9115868D02*
X12854132Y-9026066D01*
X12854132Y-9026066D02*
X12692487Y-9187710D01*
X12782290Y-9277513D02*
X12943934Y-9115868D01*
X13629276Y-10273421D02*
X13719079Y-10363224D01*
X13719079Y-10363224D02*
X13880724Y-10201579D01*
X13790921Y-10111776D02*
X13629276Y-10273421D01*
X13880724Y-10201579D02*
X13790921Y-10111776D01*
X13427513Y-11595210D02*
X13265868Y-11433566D01*
X13337710Y-11685013D02*
X13427513Y-11595210D01*
X13265868Y-11433566D02*
X13176066Y-11523368D01*
X13176066Y-11523368D02*
X13337710Y-11685013D01*
X12706434Y-11383368D02*
X12616632Y-11293566D01*
X12544790Y-11545013D02*
X12706434Y-11383368D01*
X12616632Y-11293566D02*
X12454987Y-11455210D01*
X12454987Y-11455210D02*
X12544790Y-11545013D01*
X12470430Y-10541486D02*
X12632074Y-10703131D01*
X12560232Y-10451684D02*
X12470430Y-10541486D01*
X12632074Y-10703131D02*
X12721877Y-10613328D01*
X12721877Y-10613328D02*
X12560232Y-10451684D01*
X14409079Y-8996776D02*
X14319276Y-9086579D01*
X14570724Y-9158421D02*
X14409079Y-8996776D01*
X14480921Y-9248224D02*
X14570724Y-9158421D01*
X14319276Y-9086579D02*
X14480921Y-9248224D01*
X13575013Y-11450210D02*
X13413368Y-11288566D01*
X13323566Y-11378368D02*
X13485210Y-11540013D01*
X13413368Y-11288566D02*
X13323566Y-11378368D01*
X13485210Y-11540013D02*
X13575013Y-11450210D01*
X15441579Y-10019276D02*
X15351776Y-10109079D01*
X15603224Y-10180921D02*
X15441579Y-10019276D01*
X15513421Y-10270724D02*
X15603224Y-10180921D01*
X15351776Y-10109079D02*
X15513421Y-10270724D01*
X13899276Y-10000921D02*
X13989079Y-10090724D01*
X14060921Y-9839276D02*
X13899276Y-10000921D01*
X13989079Y-10090724D02*
X14150724Y-9929079D01*
X14150724Y-9929079D02*
X14060921Y-9839276D01*
X14900921Y-11036776D02*
X14739276Y-11198421D01*
X14739276Y-11198421D02*
X14829079Y-11288224D01*
X14829079Y-11288224D02*
X14990724Y-11126579D01*
X14990724Y-11126579D02*
X14900921Y-11036776D01*
X16630724Y-10770921D02*
X16469079Y-10609276D01*
X16469079Y-10609276D02*
X16379276Y-10699079D01*
X16379276Y-10699079D02*
X16540921Y-10860724D01*
X16540921Y-10860724D02*
X16630724Y-10770921D01*
X16199079Y-10344276D02*
X16109276Y-10434079D01*
X16109276Y-10434079D02*
X16270921Y-10595724D01*
X16360724Y-10505921D02*
X16199079Y-10344276D01*
X16270921Y-10595724D02*
X16360724Y-10505921D01*
X11661776Y-6454079D02*
X11823421Y-6615724D01*
X11913224Y-6525921D02*
X11751579Y-6364276D01*
X11751579Y-6364276D02*
X11661776Y-6454079D01*
X11823421Y-6615724D02*
X11913224Y-6525921D01*
X12026776Y-5913421D02*
X12116579Y-6003224D01*
X12116579Y-6003224D02*
X12278224Y-5841579D01*
X12278224Y-5841579D02*
X12188421Y-5751776D01*
X12188421Y-5751776D02*
X12026776Y-5913421D01*
X16824276Y-11144079D02*
X16985921Y-11305724D01*
X16914079Y-11054276D02*
X16824276Y-11144079D01*
X17075724Y-11215921D02*
X16914079Y-11054276D01*
X16985921Y-11305724D02*
X17075724Y-11215921D01*
X16717960Y-10858158D02*
X16628158Y-10947961D01*
X16628158Y-10947961D02*
X16789803Y-11109605D01*
X16789803Y-11109605D02*
X16879605Y-11019803D01*
X16879605Y-11019803D02*
X16717960Y-10858158D01*
X12971776Y-8903421D02*
X13061579Y-8993224D01*
X13133421Y-8741776D02*
X12971776Y-8903421D01*
X13223224Y-8831579D02*
X13133421Y-8741776D01*
X13061579Y-8993224D02*
X13223224Y-8831579D01*
X13784305Y-10997641D02*
X13874107Y-11087443D01*
X14035752Y-10925799D02*
X13945949Y-10835996D01*
X13874107Y-11087443D02*
X14035752Y-10925799D01*
X13945949Y-10835996D02*
X13784305Y-10997641D01*
D11*
X13204652Y-9285201D02*
X13119799Y-9200348D01*
X12995348Y-9324799D02*
X13080201Y-9409652D01*
X13776150Y-9856699D02*
X13691297Y-9771846D01*
X13566846Y-9896297D02*
X13651699Y-9981150D01*
X14809652Y-10865201D02*
X14724799Y-10780348D01*
X14600348Y-10904799D02*
X14685201Y-10989652D01*
X14012848Y-10344799D02*
X14097701Y-10429652D01*
X14222152Y-10305201D02*
X14137299Y-10220348D01*
D10*
X14645921Y-7375724D02*
X14735724Y-7285921D01*
X14484276Y-7214079D02*
X14645921Y-7375724D01*
X14574079Y-7124276D02*
X14484276Y-7214079D01*
X14735724Y-7285921D02*
X14574079Y-7124276D01*
X15464079Y-6234276D02*
X15374276Y-6324079D01*
X15374276Y-6324079D02*
X15535921Y-6485724D01*
X15625724Y-6395921D02*
X15464079Y-6234276D01*
X15535921Y-6485724D02*
X15625724Y-6395921D01*
X14104276Y-7635921D02*
X14194079Y-7725724D01*
X14355724Y-7564079D02*
X14265921Y-7474276D01*
X14265921Y-7474276D02*
X14104276Y-7635921D01*
X14194079Y-7725724D02*
X14355724Y-7564079D01*
X15224276Y-8344079D02*
X15385921Y-8505724D01*
X15314079Y-8254276D02*
X15224276Y-8344079D01*
X15475724Y-8415921D02*
X15314079Y-8254276D01*
X15385921Y-8505724D02*
X15475724Y-8415921D01*
X13195724Y-5211579D02*
X13105921Y-5121776D01*
X12944276Y-5283421D02*
X13034079Y-5373224D01*
X13034079Y-5373224D02*
X13195724Y-5211579D01*
X13105921Y-5121776D02*
X12944276Y-5283421D01*
X13254276Y-5274079D02*
X13415921Y-5435724D01*
X13344079Y-5184276D02*
X13254276Y-5274079D01*
X13505724Y-5345921D02*
X13344079Y-5184276D01*
X13415921Y-5435724D02*
X13505724Y-5345921D01*
X13544276Y-5681579D02*
X13705921Y-5843224D01*
X13795724Y-5753421D02*
X13634079Y-5591776D01*
X13705921Y-5843224D02*
X13795724Y-5753421D01*
X13634079Y-5591776D02*
X13544276Y-5681579D01*
X15026287Y-6860408D02*
X14864642Y-6698763D01*
X14864642Y-6698763D02*
X14774840Y-6788566D01*
X14936484Y-6950211D02*
X15026287Y-6860408D01*
X14774840Y-6788566D02*
X14936484Y-6950211D01*
X15218901Y-7476188D02*
X15345901Y-7476188D01*
X15345901Y-7247588D02*
X15218901Y-7247588D01*
X15218901Y-7247588D02*
X15218901Y-7476188D01*
X15345901Y-7476188D02*
X15345901Y-7247588D01*
X14204629Y-8392284D02*
X14042984Y-8553929D01*
X14294432Y-8482087D02*
X14204629Y-8392284D01*
X14042984Y-8553929D02*
X14132787Y-8643731D01*
X14132787Y-8643731D02*
X14294432Y-8482087D01*
X14629079Y-6538224D02*
X14790724Y-6376579D01*
X14700921Y-6286776D02*
X14539276Y-6448421D01*
X14790724Y-6376579D02*
X14700921Y-6286776D01*
X14539276Y-6448421D02*
X14629079Y-6538224D01*
X15270239Y-6855741D02*
X15180436Y-6765939D01*
X15018792Y-6927583D02*
X15108594Y-7017386D01*
X15108594Y-7017386D02*
X15270239Y-6855741D01*
X15180436Y-6765939D02*
X15018792Y-6927583D01*
X15285724Y-7860921D02*
X15124079Y-7699276D01*
X15195921Y-7950724D02*
X15285724Y-7860921D01*
X15124079Y-7699276D02*
X15034276Y-7789079D01*
X15034276Y-7789079D02*
X15195921Y-7950724D01*
X13459079Y-4950724D02*
X13620724Y-4789079D01*
X13369276Y-4860921D02*
X13459079Y-4950724D01*
X13530921Y-4699276D02*
X13369276Y-4860921D01*
X13620724Y-4789079D02*
X13530921Y-4699276D01*
X13593421Y-5258224D02*
X13683224Y-5168421D01*
X13521579Y-5006776D02*
X13431776Y-5096579D01*
X13431776Y-5096579D02*
X13593421Y-5258224D01*
X13683224Y-5168421D02*
X13521579Y-5006776D01*
X13844276Y-5381579D02*
X14005921Y-5543224D01*
X14005921Y-5543224D02*
X14095724Y-5453421D01*
X14095724Y-5453421D02*
X13934079Y-5291776D01*
X13934079Y-5291776D02*
X13844276Y-5381579D01*
X15203064Y-6683631D02*
X15041419Y-6521987D01*
X15041419Y-6521987D02*
X14951617Y-6611789D01*
X14951617Y-6611789D02*
X15113261Y-6773434D01*
X15113261Y-6773434D02*
X15203064Y-6683631D01*
X15533500Y-7474300D02*
X15533500Y-7245700D01*
X15406500Y-7245700D02*
X15406500Y-7474300D01*
X15406500Y-7474300D02*
X15533500Y-7474300D01*
X15533500Y-7245700D02*
X15406500Y-7245700D01*
X14339969Y-8850914D02*
X14429772Y-8940716D01*
X14501614Y-8689269D02*
X14339969Y-8850914D01*
X14429772Y-8940716D02*
X14591416Y-8779072D01*
X14591416Y-8779072D02*
X14501614Y-8689269D01*
X19054276Y-10528421D02*
X19144079Y-10618224D01*
X19215921Y-10366776D02*
X19054276Y-10528421D01*
X19144079Y-10618224D02*
X19305724Y-10456579D01*
X19305724Y-10456579D02*
X19215921Y-10366776D01*
X18837018Y-10305967D02*
X18747216Y-10395770D01*
X18998663Y-10467612D02*
X18837018Y-10305967D01*
X18747216Y-10395770D02*
X18908860Y-10557414D01*
X18908860Y-10557414D02*
X18998663Y-10467612D01*
X18547105Y-9895845D02*
X18457302Y-9985648D01*
X18457302Y-9985648D02*
X18618947Y-10147292D01*
X18618947Y-10147292D02*
X18708749Y-10057490D01*
X18708749Y-10057490D02*
X18547105Y-9895845D01*
X17309079Y-8784276D02*
X17219276Y-8874079D01*
X17470724Y-8945921D02*
X17309079Y-8784276D01*
X17219276Y-8874079D02*
X17380921Y-9035724D01*
X17380921Y-9035724D02*
X17470724Y-8945921D01*
X16522700Y-8470500D02*
X16522700Y-8597500D01*
X16522700Y-8597500D02*
X16751300Y-8597500D01*
X16751300Y-8597500D02*
X16751300Y-8470500D01*
X16751300Y-8470500D02*
X16522700Y-8470500D01*
X15314637Y-9497744D02*
X15224834Y-9407941D01*
X15224834Y-9407941D02*
X15063189Y-9569586D01*
X15063189Y-9569586D02*
X15152992Y-9659389D01*
X15152992Y-9659389D02*
X15314637Y-9497744D01*
X17625921Y-9209276D02*
X17464276Y-9370921D01*
X17554079Y-9460724D02*
X17715724Y-9299079D01*
X17464276Y-9370921D02*
X17554079Y-9460724D01*
X17715724Y-9299079D02*
X17625921Y-9209276D01*
X17069079Y-8968224D02*
X17230724Y-8806579D01*
X17230724Y-8806579D02*
X17140921Y-8716776D01*
X16979276Y-8878421D02*
X17069079Y-8968224D01*
X17140921Y-8716776D02*
X16979276Y-8878421D01*
X16305724Y-8870921D02*
X16144079Y-8709276D01*
X16054276Y-8799079D02*
X16215921Y-8960724D01*
X16144079Y-8709276D02*
X16054276Y-8799079D01*
X16215921Y-8960724D02*
X16305724Y-8870921D01*
X18629276Y-10953421D02*
X18719079Y-11043224D01*
X18880724Y-10881579D02*
X18790921Y-10791776D01*
X18719079Y-11043224D02*
X18880724Y-10881579D01*
X18790921Y-10791776D02*
X18629276Y-10953421D01*
X18570439Y-10572546D02*
X18732084Y-10734191D01*
X18660242Y-10482744D02*
X18570439Y-10572546D01*
X18821886Y-10644388D02*
X18660242Y-10482744D01*
X18732084Y-10734191D02*
X18821886Y-10644388D01*
X18413224Y-10355921D02*
X18251579Y-10194276D01*
X18161776Y-10284079D02*
X18323421Y-10445724D01*
X18323421Y-10445724D02*
X18413224Y-10355921D01*
X18251579Y-10194276D02*
X18161776Y-10284079D01*
X17046776Y-9049079D02*
X17208421Y-9210724D01*
X17298224Y-9120921D02*
X17136579Y-8959276D01*
X17136579Y-8959276D02*
X17046776Y-9049079D01*
X17208421Y-9210724D02*
X17298224Y-9120921D01*
X16749300Y-8646500D02*
X16520700Y-8646500D01*
X16749300Y-8773500D02*
X16749300Y-8646500D01*
X16520700Y-8773500D02*
X16749300Y-8773500D01*
X16520700Y-8646500D02*
X16520700Y-8773500D01*
X15611621Y-9794729D02*
X15521819Y-9704926D01*
X15521819Y-9704926D02*
X15360174Y-9866571D01*
X15449977Y-9956373D02*
X15611621Y-9794729D01*
X15360174Y-9866571D02*
X15449977Y-9956373D01*
X17770724Y-8540921D02*
X17609079Y-8379276D01*
X17519276Y-8469079D02*
X17680921Y-8630724D01*
X17680921Y-8630724D02*
X17770724Y-8540921D01*
X17609079Y-8379276D02*
X17519276Y-8469079D01*
X16364079Y-9895724D02*
X16525724Y-9734079D01*
X16435921Y-9644276D02*
X16274276Y-9805921D01*
X16525724Y-9734079D02*
X16435921Y-9644276D01*
X16274276Y-9805921D02*
X16364079Y-9895724D01*
X15494276Y-8614079D02*
X15655921Y-8775724D01*
X15584079Y-8524276D02*
X15494276Y-8614079D01*
X15745724Y-8685921D02*
X15584079Y-8524276D01*
X15655921Y-8775724D02*
X15745724Y-8685921D01*
X14671645Y-6963881D02*
X14599803Y-6892039D01*
X14563881Y-7071645D02*
X14671645Y-6963881D01*
X14527960Y-6820197D02*
X14456118Y-6748355D01*
X14348355Y-6856118D02*
X14420197Y-6927960D01*
X14492039Y-6999803D02*
X14563881Y-7071645D01*
X14456118Y-6748355D02*
X14348355Y-6856118D01*
X15321645Y-6313881D02*
X15249803Y-6242039D01*
X15177960Y-6170197D02*
X15106118Y-6098355D01*
X15142039Y-6349803D02*
X15213881Y-6421645D01*
X14998355Y-6206118D02*
X15070197Y-6277960D01*
X15106118Y-6098355D02*
X14998355Y-6206118D01*
X15213881Y-6421645D02*
X15321645Y-6313881D01*
X13968355Y-7993881D02*
X14076118Y-8101645D01*
X14040197Y-7922039D02*
X13968355Y-7993881D01*
X14076118Y-8101645D02*
X14147960Y-8029803D01*
X14183881Y-7778355D02*
X14112039Y-7850197D01*
X14291645Y-7886118D02*
X14183881Y-7778355D01*
X14219803Y-7957960D02*
X14291645Y-7886118D01*
X15129803Y-8847961D02*
X15201645Y-8776119D01*
X14950197Y-8812040D02*
X14878355Y-8883882D01*
X14878355Y-8883882D02*
X14986118Y-8991645D01*
X14986118Y-8991645D02*
X15057960Y-8919803D01*
X15201645Y-8776119D02*
X15093881Y-8668355D01*
X15093881Y-8668355D02*
X15022039Y-8740197D01*
X14277960Y-6570197D02*
X14206118Y-6498355D01*
X14313881Y-6821645D02*
X14421645Y-6713881D01*
X14206118Y-6498355D02*
X14098355Y-6606118D01*
X14098355Y-6606118D02*
X14170197Y-6677960D01*
X14242039Y-6749803D02*
X14313881Y-6821645D01*
X14421645Y-6713881D02*
X14349803Y-6642039D01*
X14927960Y-5920197D02*
X14856118Y-5848355D01*
X14856118Y-5848355D02*
X14748355Y-5956118D01*
X14748355Y-5956118D02*
X14820197Y-6027960D01*
X14892039Y-6099803D02*
X14963881Y-6171645D01*
X14963881Y-6171645D02*
X15071645Y-6063881D01*
X15071645Y-6063881D02*
X14999803Y-5992039D01*
X14032039Y-8339803D02*
X14103881Y-8411645D01*
X14103881Y-8411645D02*
X14211645Y-8303881D01*
X14067960Y-8160197D02*
X13996118Y-8088355D01*
X13888355Y-8196118D02*
X13960197Y-8267960D01*
X14211645Y-8303881D02*
X14139803Y-8232039D01*
X13996118Y-8088355D02*
X13888355Y-8196118D01*
X14757960Y-8840197D02*
X14686118Y-8768355D01*
X14686118Y-8768355D02*
X14578355Y-8876119D01*
X14901645Y-8983882D02*
X14829803Y-8912040D01*
X14578355Y-8876119D02*
X14650197Y-8947961D01*
X14793881Y-9091645D02*
X14901645Y-8983882D01*
X14722039Y-9019803D02*
X14793881Y-9091645D01*
X14581375Y-6553099D02*
X14509533Y-6481257D01*
X14437691Y-6409415D02*
X14365849Y-6337573D01*
X14401770Y-6589020D02*
X14473612Y-6660862D01*
X14473612Y-6660862D02*
X14581375Y-6553099D01*
X14365849Y-6337573D02*
X14258086Y-6445336D01*
X14258086Y-6445336D02*
X14329928Y-6517178D01*
X14999321Y-7756500D02*
X15071163Y-7684658D01*
X14747874Y-7792421D02*
X14855637Y-7900184D01*
X15071163Y-7684658D02*
X14963400Y-7576894D01*
X14819716Y-7720579D02*
X14747874Y-7792421D01*
X14963400Y-7576894D02*
X14891558Y-7648736D01*
X14855637Y-7900184D02*
X14927479Y-7828342D01*
D11*
X13277701Y-4945348D02*
X13192848Y-5030201D01*
X13317299Y-5154652D02*
X13402152Y-5069799D01*
X13662299Y-5499652D02*
X13747152Y-5414799D01*
X13622701Y-5290348D02*
X13537848Y-5375201D01*
X14788841Y-6458206D02*
X14703988Y-6543058D01*
X14828439Y-6667509D02*
X14913291Y-6582656D01*
X15298665Y-7130664D02*
X15383517Y-7045811D01*
X15259067Y-6921361D02*
X15174214Y-7006213D01*
X15405844Y-7662710D02*
X15320991Y-7577857D01*
X15196540Y-7702308D02*
X15281393Y-7787161D01*
D10*
X14913716Y-6220759D02*
X14841874Y-6148917D01*
X14698190Y-6005233D02*
X14590426Y-6112996D01*
X14590426Y-6112996D02*
X14662268Y-6184838D01*
X14805953Y-6328522D02*
X14913716Y-6220759D01*
X14734111Y-6256680D02*
X14805953Y-6328522D01*
X14770032Y-6077075D02*
X14698190Y-6005233D01*
X15085401Y-8129947D02*
X15193164Y-8237711D01*
X15300927Y-7914421D02*
X15229085Y-7986263D01*
X15157243Y-8058105D02*
X15085401Y-8129947D01*
X15408690Y-8022184D02*
X15300927Y-7914421D01*
X15193164Y-8237711D02*
X15265006Y-8165869D01*
X15336848Y-8094026D02*
X15408690Y-8022184D01*
X17850461Y-9147697D02*
X17778619Y-9075855D01*
X17778619Y-9075855D02*
X17670855Y-9183619D01*
X17994145Y-9291382D02*
X17922303Y-9219540D01*
X17814540Y-9327303D02*
X17886382Y-9399145D01*
X17670855Y-9183619D02*
X17742697Y-9255461D01*
X17886382Y-9399145D02*
X17994145Y-9291382D01*
X15773355Y-8803882D02*
X15881118Y-8911645D01*
X15881118Y-8911645D02*
X15952960Y-8839803D01*
X16024803Y-8767961D02*
X16096645Y-8696119D01*
X15845197Y-8732040D02*
X15773355Y-8803882D01*
X15988881Y-8588355D02*
X15917039Y-8660197D01*
X16096645Y-8696119D02*
X15988881Y-8588355D01*
D11*
X18974056Y-10801507D02*
X19058909Y-10716655D01*
X18934458Y-10592204D02*
X18849605Y-10677057D01*
X18634644Y-10455025D02*
X18719497Y-10370172D01*
X18595046Y-10245721D02*
X18510194Y-10330574D01*
X17428320Y-9086066D02*
X17343467Y-9170919D01*
X17467918Y-9295370D02*
X17552771Y-9210517D01*
X16987299Y-8809652D02*
X17072152Y-8724799D01*
X16947701Y-8600348D02*
X16862848Y-8685201D01*
X16210348Y-8719799D02*
X16295201Y-8804652D01*
X16419652Y-8680201D02*
X16334799Y-8595348D01*
D10*
X17553882Y-9731645D02*
X17661645Y-9623882D01*
X17661645Y-9623882D02*
X17589803Y-9552040D01*
X17446119Y-9408355D02*
X17338355Y-9516119D01*
X17517961Y-9480197D02*
X17446119Y-9408355D01*
X17482040Y-9659803D02*
X17553882Y-9731645D01*
X17338355Y-9516119D02*
X17410197Y-9587961D01*
X16426645Y-9026119D02*
X16318881Y-8918355D01*
X16175197Y-9062040D02*
X16103355Y-9133882D01*
X16103355Y-9133882D02*
X16211118Y-9241645D01*
X16318881Y-8918355D02*
X16247039Y-8990197D01*
X16211118Y-9241645D02*
X16282960Y-9169803D01*
X16354803Y-9097961D02*
X16426645Y-9026119D01*
X18007961Y-8990197D02*
X17936119Y-8918355D01*
X17828355Y-9026119D02*
X17900197Y-9097961D01*
X17972040Y-9169803D02*
X18043882Y-9241645D01*
X18043882Y-9241645D02*
X18151645Y-9133882D01*
X17936119Y-8918355D02*
X17828355Y-9026119D01*
X18151645Y-9133882D02*
X18079803Y-9062040D01*
X15742039Y-10039803D02*
X15813881Y-10111645D01*
X15813881Y-10111645D02*
X15921645Y-10003882D01*
X15598355Y-9896119D02*
X15670197Y-9967961D01*
X15921645Y-10003882D02*
X15849803Y-9932040D01*
X15777960Y-9860197D02*
X15706118Y-9788355D01*
X15706118Y-9788355D02*
X15598355Y-9896119D01*
X15133881Y-9421645D02*
X15241645Y-9313882D01*
X15062039Y-9349803D02*
X15133881Y-9421645D01*
X15097960Y-9170197D02*
X15026118Y-9098355D01*
X14918355Y-9206119D02*
X14990197Y-9277961D01*
X15241645Y-9313882D02*
X15169803Y-9242040D01*
X15026118Y-9098355D02*
X14918355Y-9206119D01*
X17911645Y-8893882D02*
X17839803Y-8822040D01*
X17732040Y-8929803D02*
X17803882Y-9001645D01*
X17803882Y-9001645D02*
X17911645Y-8893882D01*
X17767961Y-8750197D02*
X17696119Y-8678355D01*
X17696119Y-8678355D02*
X17588355Y-8786119D01*
X17588355Y-8786119D02*
X17660197Y-8857961D01*
X16149803Y-9887961D02*
X16221645Y-9816119D01*
X16006118Y-10031645D02*
X16077960Y-9959803D01*
X15898355Y-9923882D02*
X16006118Y-10031645D01*
X16221645Y-9816119D02*
X16113881Y-9708355D01*
X15970197Y-9852040D02*
X15898355Y-9923882D01*
X16113881Y-9708355D02*
X16042039Y-9780197D01*
X15259803Y-8977961D02*
X15331645Y-8906119D01*
X15080197Y-8942040D02*
X15008355Y-9013882D01*
X15223881Y-8798355D02*
X15152039Y-8870197D01*
X15008355Y-9013882D02*
X15116118Y-9121645D01*
X15116118Y-9121645D02*
X15187960Y-9049803D01*
X15331645Y-8906119D02*
X15223881Y-8798355D01*
X14765921Y-7255724D02*
X14855724Y-7165921D01*
X14694079Y-7004276D02*
X14604276Y-7094079D01*
X14604276Y-7094079D02*
X14765921Y-7255724D01*
X14855724Y-7165921D02*
X14694079Y-7004276D01*
X15344079Y-6354276D02*
X15254276Y-6444079D01*
X15254276Y-6444079D02*
X15415921Y-6605724D01*
X15415921Y-6605724D02*
X15505724Y-6515921D01*
X15505724Y-6515921D02*
X15344079Y-6354276D01*
X14314079Y-7845724D02*
X14475724Y-7684079D01*
X14475724Y-7684079D02*
X14385921Y-7594276D01*
X14224276Y-7755921D02*
X14314079Y-7845724D01*
X14385921Y-7594276D02*
X14224276Y-7755921D01*
X15224079Y-8735724D02*
X15385724Y-8574079D01*
X15134276Y-8645921D02*
X15224079Y-8735724D01*
X15385724Y-8574079D02*
X15295921Y-8484276D01*
X15295921Y-8484276D02*
X15134276Y-8645921D01*
X17560921Y-8750724D02*
X17650724Y-8660921D01*
X17399276Y-8589079D02*
X17560921Y-8750724D01*
X17650724Y-8660921D02*
X17489079Y-8499276D01*
X17489079Y-8499276D02*
X17399276Y-8589079D01*
X16244079Y-9775724D02*
X16405724Y-9614079D01*
X16405724Y-9614079D02*
X16315921Y-9524276D01*
X16315921Y-9524276D02*
X16154276Y-9685921D01*
X16154276Y-9685921D02*
X16244079Y-9775724D01*
X15264276Y-8775921D02*
X15354079Y-8865724D01*
X15515724Y-8704079D02*
X15425921Y-8614276D01*
X15425921Y-8614276D02*
X15264276Y-8775921D01*
X15354079Y-8865724D02*
X15515724Y-8704079D01*
D13*
X14554625Y-5876073D02*
X14611052Y-5932500D01*
X13805375Y-5988927D02*
X13748948Y-5932500D01*
X14180000Y-5501448D02*
X14236427Y-5557875D01*
X14183394Y-6360158D02*
X14126967Y-6303731D01*
D14*
X13745781Y-6017353D02*
G75*
G03*
X13745781Y-6017353I-25400J0D01*
G01*
D13*
X14248806Y-8301930D02*
X14305233Y-8245502D01*
X15107517Y-8298535D02*
X15051090Y-8354963D01*
X14732892Y-8673161D02*
X14676464Y-8729588D01*
X14620037Y-7923910D02*
X14676464Y-7867483D01*
D14*
X14617012Y-7838916D02*
G75*
G03*
X14617012Y-7838916I-25400J0D01*
G01*
D13*
X18070000Y-10238552D02*
X18013573Y-10182125D01*
X17695375Y-9863927D02*
X17638948Y-9807500D01*
X18444625Y-9751073D02*
X18501052Y-9807500D01*
X18066606Y-9379842D02*
X18123033Y-9436269D01*
D14*
X18555019Y-9722647D02*
G75*
G03*
X18555019Y-9722647I-25400J0D01*
G01*
D13*
X16132517Y-9313536D02*
X16076090Y-9369963D01*
X15757892Y-9688161D02*
X15701464Y-9744588D01*
X15273806Y-9316930D02*
X15330233Y-9260503D01*
X15645037Y-8938910D02*
X15701464Y-8882483D01*
D14*
X15642012Y-8853916D02*
G75*
G03*
X15642012Y-8853916I-25400J0D01*
G01*
D10*
X16915921Y-9395724D02*
X17005724Y-9305921D01*
X16754276Y-9234079D02*
X16915921Y-9395724D01*
X17005724Y-9305921D02*
X16844079Y-9144276D01*
X16844079Y-9144276D02*
X16754276Y-9234079D01*
X16795921Y-9515724D02*
X16885724Y-9425921D01*
X16724079Y-9264276D02*
X16634276Y-9354079D01*
X16885724Y-9425921D02*
X16724079Y-9264276D01*
X16634276Y-9354079D02*
X16795921Y-9515724D01*
X17322040Y-9819803D02*
X17393882Y-9891645D01*
X17178355Y-9676119D02*
X17250197Y-9747961D01*
X17286119Y-9568355D02*
X17178355Y-9676119D01*
X17357961Y-9640197D02*
X17286119Y-9568355D01*
X17393882Y-9891645D02*
X17501645Y-9783882D01*
X17501645Y-9783882D02*
X17429803Y-9712040D01*
X17261645Y-9543882D02*
X17189803Y-9472040D01*
X17046119Y-9328355D02*
X16938355Y-9436119D01*
X16938355Y-9436119D02*
X17010197Y-9507961D01*
X17082040Y-9579803D02*
X17153882Y-9651645D01*
X17153882Y-9651645D02*
X17261645Y-9543882D01*
X17117961Y-9400197D02*
X17046119Y-9328355D01*
M02*
