%TF.GenerationSoftware,KiCad,Pcbnew,6.0.4-6f826c9f35~116~ubuntu20.04.1*%
%TF.CreationDate,2022-06-01T08:35:17+00:00*%
%TF.ProjectId,QFHMIX01D,5146484d-4958-4303-9144-2e6b69636164,REV 0.2*%
%TF.SameCoordinates,Original*%
%TF.FileFunction,Legend,Bot*%
%TF.FilePolarity,Positive*%
%FSLAX46Y46*%
G04 Gerber Fmt 4.6, Leading zero omitted, Abs format (unit mm)*
G04 Created by KiCad (PCBNEW 6.0.4-6f826c9f35~116~ubuntu20.04.1) date 2022-06-01 08:35:17*
%MOMM*%
%LPD*%
G01*
G04 APERTURE LIST*
%ADD10C,0.150000*%
%ADD11C,0.100000*%
%ADD12C,0.304800*%
%ADD13C,0.120000*%
%ADD14C,0.200000*%
%ADD15C,0.500000*%
G04 APERTURE END LIST*
D10*
%TO.C,C2*%
X128950026Y-70548324D02*
X129017369Y-70548324D01*
X129152056Y-70480980D01*
X129219400Y-70413637D01*
X129286743Y-70278949D01*
X129286743Y-70144262D01*
X129253072Y-70043247D01*
X129152056Y-69874888D01*
X129051041Y-69773873D01*
X128882682Y-69672858D01*
X128781667Y-69639186D01*
X128646980Y-69639186D01*
X128512293Y-69706530D01*
X128444949Y-69773873D01*
X128377606Y-69908560D01*
X128377606Y-69975904D01*
X128108232Y-70245278D02*
X128040888Y-70245278D01*
X127939873Y-70278949D01*
X127771514Y-70447308D01*
X127737843Y-70548324D01*
X127737843Y-70615667D01*
X127771514Y-70716682D01*
X127838858Y-70784026D01*
X127973545Y-70851369D01*
X128781667Y-70851369D01*
X128343934Y-71289102D01*
%TO.C,C5*%
X133514924Y-83292373D02*
X133514924Y-83225030D01*
X133447580Y-83090343D01*
X133380237Y-83022999D01*
X133245549Y-82955656D01*
X133110862Y-82955656D01*
X133009847Y-82989327D01*
X132841488Y-83090343D01*
X132740473Y-83191358D01*
X132639458Y-83359717D01*
X132605786Y-83460732D01*
X132605786Y-83595419D01*
X132673130Y-83730106D01*
X132740473Y-83797450D01*
X132875160Y-83864793D01*
X132942504Y-83864793D01*
X133514924Y-84571900D02*
X133178206Y-84235182D01*
X133481252Y-83864793D01*
X133481252Y-83932137D01*
X133514924Y-84033152D01*
X133683282Y-84201511D01*
X133784298Y-84235182D01*
X133851641Y-84235182D01*
X133952656Y-84201511D01*
X134121015Y-84033152D01*
X134154687Y-83932137D01*
X134154687Y-83864793D01*
X134121015Y-83763778D01*
X133952656Y-83595419D01*
X133851641Y-83561747D01*
X133784298Y-83561747D01*
%TO.C,C23*%
X124748338Y-106078127D02*
X124748338Y-106010783D01*
X124680994Y-105876096D01*
X124613651Y-105808753D01*
X124478964Y-105741409D01*
X124344277Y-105741409D01*
X124243262Y-105775081D01*
X124074903Y-105876096D01*
X123973888Y-105977111D01*
X123872872Y-106145470D01*
X123839201Y-106246485D01*
X123839201Y-106381172D01*
X123906544Y-106515859D01*
X123973888Y-106583203D01*
X124108575Y-106650546D01*
X124175918Y-106650546D01*
X124445292Y-106919921D02*
X124445292Y-106987264D01*
X124478964Y-107088279D01*
X124647323Y-107256638D01*
X124748338Y-107290310D01*
X124815681Y-107290310D01*
X124916697Y-107256638D01*
X124984040Y-107189295D01*
X125051384Y-107054608D01*
X125051384Y-106246485D01*
X125489117Y-106684218D01*
X125017712Y-107627027D02*
X125455445Y-108064760D01*
X125489117Y-107559684D01*
X125590132Y-107660699D01*
X125691147Y-107694371D01*
X125758491Y-107694371D01*
X125859506Y-107660699D01*
X126027865Y-107492340D01*
X126061536Y-107391325D01*
X126061536Y-107323982D01*
X126027865Y-107222966D01*
X125825834Y-107020936D01*
X125724819Y-106987264D01*
X125657475Y-106987264D01*
%TO.C,L9*%
X131535304Y-95028993D02*
X131198586Y-94692275D01*
X130491480Y-95399382D01*
X131804678Y-95298367D02*
X131939365Y-95433054D01*
X131973037Y-95534069D01*
X131973037Y-95601413D01*
X131939365Y-95769771D01*
X131838350Y-95938130D01*
X131568976Y-96207504D01*
X131467961Y-96241176D01*
X131400617Y-96241176D01*
X131299602Y-96207504D01*
X131164915Y-96072817D01*
X131131243Y-95971802D01*
X131131243Y-95904458D01*
X131164915Y-95803443D01*
X131333274Y-95635084D01*
X131434289Y-95601413D01*
X131501632Y-95601413D01*
X131602648Y-95635084D01*
X131737335Y-95769771D01*
X131771006Y-95870787D01*
X131771006Y-95938130D01*
X131737335Y-96039145D01*
%TO.C,L13*%
X136439438Y-95544023D02*
X136102721Y-95207306D01*
X135395614Y-95914412D01*
X137045530Y-96150115D02*
X136641469Y-95746054D01*
X136843500Y-95948084D02*
X136136393Y-96655191D01*
X136170064Y-96486832D01*
X136170064Y-96352145D01*
X136136393Y-96251130D01*
X136574126Y-97092924D02*
X137011858Y-97530657D01*
X137045530Y-97025580D01*
X137146545Y-97126596D01*
X137247561Y-97160267D01*
X137314904Y-97160267D01*
X137415919Y-97126596D01*
X137584278Y-96958237D01*
X137617950Y-96857222D01*
X137617950Y-96789878D01*
X137584278Y-96688863D01*
X137382248Y-96486832D01*
X137281232Y-96453161D01*
X137213889Y-96453161D01*
%TO.C,L18*%
X145100838Y-67756423D02*
X144764121Y-67419706D01*
X144057014Y-68126812D01*
X145706930Y-68362515D02*
X145302869Y-67958454D01*
X145504900Y-68160484D02*
X144797793Y-68867591D01*
X144831464Y-68699232D01*
X144831464Y-68564545D01*
X144797793Y-68463530D01*
X145706930Y-69170637D02*
X145605915Y-69136965D01*
X145538571Y-69136965D01*
X145437556Y-69170637D01*
X145403884Y-69204309D01*
X145370213Y-69305324D01*
X145370213Y-69372667D01*
X145403884Y-69473683D01*
X145538571Y-69608370D01*
X145639587Y-69642041D01*
X145706930Y-69642041D01*
X145807945Y-69608370D01*
X145841617Y-69574698D01*
X145875289Y-69473683D01*
X145875289Y-69406339D01*
X145841617Y-69305324D01*
X145706930Y-69170637D01*
X145673258Y-69069622D01*
X145673258Y-69002278D01*
X145706930Y-68901263D01*
X145841617Y-68766576D01*
X145942632Y-68732904D01*
X146009976Y-68732904D01*
X146110991Y-68766576D01*
X146245678Y-68901263D01*
X146279350Y-69002278D01*
X146279350Y-69069622D01*
X146245678Y-69170637D01*
X146110991Y-69305324D01*
X146009976Y-69338996D01*
X145942632Y-69338996D01*
X145841617Y-69305324D01*
%TO.C,L22*%
X154067038Y-58510823D02*
X153730321Y-58174106D01*
X153023214Y-58881212D01*
X153629306Y-59352617D02*
X153629306Y-59419961D01*
X153662977Y-59520976D01*
X153831336Y-59689335D01*
X153932351Y-59723006D01*
X153999695Y-59723006D01*
X154100710Y-59689335D01*
X154168054Y-59621991D01*
X154235397Y-59487304D01*
X154235397Y-58679182D01*
X154673130Y-59116915D01*
X154302741Y-60026052D02*
X154302741Y-60093396D01*
X154336413Y-60194411D01*
X154504771Y-60362770D01*
X154605787Y-60396441D01*
X154673130Y-60396441D01*
X154774145Y-60362770D01*
X154841489Y-60295426D01*
X154908832Y-60160739D01*
X154908832Y-59352617D01*
X155346565Y-59790350D01*
%TO.C,L40*%
X140907724Y-78098586D02*
X141244441Y-77761869D01*
X140537335Y-77054762D01*
X139897571Y-78165930D02*
X140368976Y-78637335D01*
X139796556Y-77728197D02*
X140469991Y-78064915D01*
X140032258Y-78502648D01*
X139156793Y-78435304D02*
X139089449Y-78502648D01*
X139055777Y-78603663D01*
X139055777Y-78671006D01*
X139089449Y-78772022D01*
X139190464Y-78940380D01*
X139358823Y-79108739D01*
X139527182Y-79209754D01*
X139628197Y-79243426D01*
X139695541Y-79243426D01*
X139796556Y-79209754D01*
X139863899Y-79142411D01*
X139897571Y-79041396D01*
X139897571Y-78974052D01*
X139863899Y-78873037D01*
X139762884Y-78704678D01*
X139594525Y-78536319D01*
X139426167Y-78435304D01*
X139325151Y-78401632D01*
X139257808Y-78401632D01*
X139156793Y-78435304D01*
%TO.C,L44*%
X149848724Y-87090586D02*
X150185441Y-86753869D01*
X149478335Y-86046762D01*
X148838571Y-87157930D02*
X149309976Y-87629335D01*
X148737556Y-86720197D02*
X149410991Y-87056915D01*
X148973258Y-87494648D01*
X148165136Y-87831365D02*
X148636541Y-88302770D01*
X148064121Y-87393632D02*
X148737556Y-87730350D01*
X148299823Y-88168083D01*
%TO.C,L19*%
X144663776Y-68113438D02*
X145000493Y-67776721D01*
X144293387Y-67069614D01*
X144057684Y-68719530D02*
X144461745Y-68315469D01*
X144259715Y-68517500D02*
X143552608Y-67810393D01*
X143720967Y-67844064D01*
X143855654Y-67844064D01*
X143956669Y-67810393D01*
X143720967Y-69056248D02*
X143586280Y-69190935D01*
X143485264Y-69224606D01*
X143417921Y-69224606D01*
X143249562Y-69190935D01*
X143081203Y-69089919D01*
X142811829Y-68820545D01*
X142778158Y-68719530D01*
X142778158Y-68652187D01*
X142811829Y-68551171D01*
X142946516Y-68416484D01*
X143047532Y-68382813D01*
X143114875Y-68382813D01*
X143215890Y-68416484D01*
X143384249Y-68584843D01*
X143417921Y-68685858D01*
X143417921Y-68753202D01*
X143384249Y-68854217D01*
X143249562Y-68988904D01*
X143148547Y-69022576D01*
X143081203Y-69022576D01*
X142980188Y-68988904D01*
%TO.C,L23*%
X149315324Y-58794986D02*
X149652041Y-58458269D01*
X148944935Y-57751162D01*
X148473530Y-58357254D02*
X148406186Y-58357254D01*
X148305171Y-58390925D01*
X148136812Y-58559284D01*
X148103141Y-58660299D01*
X148103141Y-58727643D01*
X148136812Y-58828658D01*
X148204156Y-58896002D01*
X148338843Y-58963345D01*
X149146965Y-58963345D01*
X148709232Y-59401078D01*
X147766423Y-58929674D02*
X147328690Y-59367406D01*
X147833767Y-59401078D01*
X147732751Y-59502093D01*
X147699080Y-59603109D01*
X147699080Y-59670452D01*
X147732751Y-59771467D01*
X147901110Y-59939826D01*
X148002125Y-59973498D01*
X148069469Y-59973498D01*
X148170484Y-59939826D01*
X148372515Y-59737796D01*
X148406186Y-59636780D01*
X148406186Y-59569437D01*
%TO.C,L41*%
X138982786Y-82815275D02*
X138646069Y-82478558D01*
X137938962Y-83185664D01*
X139050130Y-83825428D02*
X139521535Y-83354023D01*
X138612397Y-83926443D02*
X138949115Y-83253008D01*
X139386848Y-83690741D01*
X140262313Y-84094802D02*
X139858252Y-83690741D01*
X140060283Y-83892771D02*
X139353176Y-84599878D01*
X139386848Y-84431519D01*
X139386848Y-84296832D01*
X139353176Y-84195817D01*
%TO.C,L45*%
X148377438Y-87822423D02*
X148040721Y-87485706D01*
X147333614Y-88192812D01*
X148444782Y-88832576D02*
X148916187Y-88361171D01*
X148007049Y-88933591D02*
X148343767Y-88260156D01*
X148781500Y-88697889D01*
X148916187Y-89775385D02*
X148579469Y-89438667D01*
X148882515Y-89068278D01*
X148882515Y-89135622D01*
X148916187Y-89236637D01*
X149084545Y-89404996D01*
X149185561Y-89438667D01*
X149252904Y-89438667D01*
X149353919Y-89404996D01*
X149522278Y-89236637D01*
X149555950Y-89135622D01*
X149555950Y-89068278D01*
X149522278Y-88967263D01*
X149353919Y-88798904D01*
X149252904Y-88765232D01*
X149185561Y-88765232D01*
%TO.C,L58*%
X147288586Y-67829275D02*
X146951869Y-67492558D01*
X146244762Y-68199664D01*
X147153899Y-69108802D02*
X146817182Y-68772084D01*
X147120228Y-68401695D01*
X147120228Y-68469038D01*
X147153899Y-68570054D01*
X147322258Y-68738413D01*
X147423274Y-68772084D01*
X147490617Y-68772084D01*
X147591632Y-68738413D01*
X147759991Y-68570054D01*
X147793663Y-68469038D01*
X147793663Y-68401695D01*
X147759991Y-68300680D01*
X147591632Y-68132321D01*
X147490617Y-68098649D01*
X147423274Y-68098649D01*
X147894678Y-69243489D02*
X147793663Y-69209817D01*
X147726319Y-69209817D01*
X147625304Y-69243489D01*
X147591632Y-69277161D01*
X147557961Y-69378176D01*
X147557961Y-69445519D01*
X147591632Y-69546535D01*
X147726319Y-69681222D01*
X147827335Y-69714893D01*
X147894678Y-69714893D01*
X147995693Y-69681222D01*
X148029365Y-69647550D01*
X148063037Y-69546535D01*
X148063037Y-69479191D01*
X148029365Y-69378176D01*
X147894678Y-69243489D01*
X147861006Y-69142474D01*
X147861006Y-69075130D01*
X147894678Y-68974115D01*
X148029365Y-68839428D01*
X148130380Y-68805756D01*
X148197724Y-68805756D01*
X148298739Y-68839428D01*
X148433426Y-68974115D01*
X148467098Y-69075130D01*
X148467098Y-69142474D01*
X148433426Y-69243489D01*
X148298739Y-69378176D01*
X148197724Y-69411848D01*
X148130380Y-69411848D01*
X148029365Y-69378176D01*
%TO.C,L69*%
X148959724Y-76041586D02*
X149296441Y-75704869D01*
X148589335Y-74997762D01*
X147713869Y-75873228D02*
X147848556Y-75738541D01*
X147949571Y-75704869D01*
X148016915Y-75704869D01*
X148185274Y-75738541D01*
X148353632Y-75839556D01*
X148623006Y-76108930D01*
X148656678Y-76209945D01*
X148656678Y-76277289D01*
X148623006Y-76378304D01*
X148488319Y-76512991D01*
X148387304Y-76546663D01*
X148319961Y-76546663D01*
X148218945Y-76512991D01*
X148050586Y-76344632D01*
X148016915Y-76243617D01*
X148016915Y-76176274D01*
X148050586Y-76075258D01*
X148185274Y-75940571D01*
X148286289Y-75906899D01*
X148353632Y-75906899D01*
X148454648Y-75940571D01*
X148016915Y-76984396D02*
X147882228Y-77119083D01*
X147781212Y-77152754D01*
X147713869Y-77152754D01*
X147545510Y-77119083D01*
X147377151Y-77018067D01*
X147107777Y-76748693D01*
X147074106Y-76647678D01*
X147074106Y-76580335D01*
X147107777Y-76479319D01*
X147242464Y-76344632D01*
X147343480Y-76310961D01*
X147410823Y-76310961D01*
X147511838Y-76344632D01*
X147680197Y-76512991D01*
X147713869Y-76614006D01*
X147713869Y-76681350D01*
X147680197Y-76782365D01*
X147545510Y-76917052D01*
X147444495Y-76950724D01*
X147377151Y-76950724D01*
X147276136Y-76917052D01*
%TO.C,L17*%
X136383376Y-52670238D02*
X136720093Y-52333521D01*
X136012987Y-51626414D01*
X135777284Y-53276330D02*
X136181345Y-52872269D01*
X135979315Y-53074300D02*
X135272208Y-52367193D01*
X135440567Y-52400864D01*
X135575254Y-52400864D01*
X135676269Y-52367193D01*
X134834475Y-52804926D02*
X134363071Y-53276330D01*
X135373223Y-53680391D01*
%TO.C,L54*%
X140015576Y-56505638D02*
X140352293Y-56168921D01*
X139645187Y-55461814D01*
X138736049Y-56370951D02*
X139072767Y-56034234D01*
X139443156Y-56337280D01*
X139375813Y-56337280D01*
X139274797Y-56370951D01*
X139106438Y-56539310D01*
X139072767Y-56640326D01*
X139072767Y-56707669D01*
X139106438Y-56808684D01*
X139274797Y-56977043D01*
X139375813Y-57010715D01*
X139443156Y-57010715D01*
X139544171Y-56977043D01*
X139712530Y-56808684D01*
X139746202Y-56707669D01*
X139746202Y-56640326D01*
X138331988Y-57246417D02*
X138803393Y-57717822D01*
X138230973Y-56808684D02*
X138904408Y-57145402D01*
X138466675Y-57583135D01*
%TO.C,L30*%
X155153976Y-68900838D02*
X155490693Y-68564121D01*
X154783587Y-67857014D01*
X154278510Y-68362090D02*
X153840777Y-68799823D01*
X154345854Y-68833495D01*
X154244838Y-68934510D01*
X154211167Y-69035526D01*
X154211167Y-69102869D01*
X154244838Y-69203884D01*
X154413197Y-69372243D01*
X154514213Y-69405915D01*
X154581556Y-69405915D01*
X154682571Y-69372243D01*
X154884602Y-69170213D01*
X154918274Y-69069197D01*
X154918274Y-69001854D01*
X153403045Y-69237556D02*
X153335701Y-69304900D01*
X153302029Y-69405915D01*
X153302029Y-69473258D01*
X153335701Y-69574274D01*
X153436716Y-69742632D01*
X153605075Y-69910991D01*
X153773434Y-70012006D01*
X153874449Y-70045678D01*
X153941793Y-70045678D01*
X154042808Y-70012006D01*
X154110151Y-69944663D01*
X154143823Y-69843648D01*
X154143823Y-69776304D01*
X154110151Y-69675289D01*
X154009136Y-69506930D01*
X153840777Y-69338571D01*
X153672419Y-69237556D01*
X153571403Y-69203884D01*
X153504060Y-69203884D01*
X153403045Y-69237556D01*
%TO.C,L36*%
X160341176Y-72132038D02*
X160677893Y-71795321D01*
X159970787Y-71088214D01*
X159465710Y-71593290D02*
X159027977Y-72031023D01*
X159533054Y-72064695D01*
X159432038Y-72165710D01*
X159398367Y-72266726D01*
X159398367Y-72334069D01*
X159432038Y-72435084D01*
X159600397Y-72603443D01*
X159701413Y-72637115D01*
X159768756Y-72637115D01*
X159869771Y-72603443D01*
X160071802Y-72401413D01*
X160105474Y-72300397D01*
X160105474Y-72233054D01*
X158421886Y-72637115D02*
X158556573Y-72502428D01*
X158657588Y-72468756D01*
X158724932Y-72468756D01*
X158893290Y-72502428D01*
X159061649Y-72603443D01*
X159331023Y-72872817D01*
X159364695Y-72973832D01*
X159364695Y-73041176D01*
X159331023Y-73142191D01*
X159196336Y-73276878D01*
X159095321Y-73310550D01*
X159027977Y-73310550D01*
X158926962Y-73276878D01*
X158758603Y-73108519D01*
X158724932Y-73007504D01*
X158724932Y-72940161D01*
X158758603Y-72839145D01*
X158893290Y-72704458D01*
X158994306Y-72670787D01*
X159061649Y-72670787D01*
X159162664Y-72704458D01*
%TO.C,L67*%
X151555786Y-77532075D02*
X151219069Y-77195358D01*
X150511962Y-77902464D01*
X151387428Y-78777930D02*
X151252741Y-78643243D01*
X151219069Y-78542228D01*
X151219069Y-78474884D01*
X151252741Y-78306526D01*
X151353756Y-78138167D01*
X151623130Y-77868793D01*
X151724145Y-77835121D01*
X151791489Y-77835121D01*
X151892504Y-77868793D01*
X152027191Y-78003480D01*
X152060863Y-78104495D01*
X152060863Y-78171838D01*
X152027191Y-78272854D01*
X151858832Y-78441213D01*
X151757817Y-78474884D01*
X151690474Y-78474884D01*
X151589458Y-78441213D01*
X151454771Y-78306526D01*
X151421099Y-78205510D01*
X151421099Y-78138167D01*
X151454771Y-78037151D01*
X151690474Y-79080976D02*
X152161878Y-79552380D01*
X152565939Y-78542228D01*
%TO.C,L59*%
X153432038Y-62158823D02*
X153095321Y-61822106D01*
X152388214Y-62529212D01*
X153297351Y-63438350D02*
X152960634Y-63101632D01*
X153263680Y-62731243D01*
X153263680Y-62798586D01*
X153297351Y-62899602D01*
X153465710Y-63067961D01*
X153566726Y-63101632D01*
X153634069Y-63101632D01*
X153735084Y-63067961D01*
X153903443Y-62899602D01*
X153937115Y-62798586D01*
X153937115Y-62731243D01*
X153903443Y-62630228D01*
X153735084Y-62461869D01*
X153634069Y-62428197D01*
X153566726Y-62428197D01*
X154374848Y-63101632D02*
X154509535Y-63236319D01*
X154543206Y-63337335D01*
X154543206Y-63404678D01*
X154509535Y-63573037D01*
X154408519Y-63741396D01*
X154139145Y-64010770D01*
X154038130Y-64044441D01*
X153970787Y-64044441D01*
X153869771Y-64010770D01*
X153735084Y-63876083D01*
X153701413Y-63775067D01*
X153701413Y-63707724D01*
X153735084Y-63606709D01*
X153903443Y-63438350D01*
X154004458Y-63404678D01*
X154071802Y-63404678D01*
X154172817Y-63438350D01*
X154307504Y-63573037D01*
X154341176Y-63674052D01*
X154341176Y-63741396D01*
X154307504Y-63842411D01*
%TO.C,L63*%
X155763576Y-81016638D02*
X156100293Y-80679921D01*
X155393187Y-79972814D01*
X154517721Y-80848280D02*
X154652408Y-80713593D01*
X154753423Y-80679921D01*
X154820767Y-80679921D01*
X154989126Y-80713593D01*
X155157484Y-80814608D01*
X155426858Y-81083982D01*
X155460530Y-81184997D01*
X155460530Y-81252341D01*
X155426858Y-81353356D01*
X155292171Y-81488043D01*
X155191156Y-81521715D01*
X155123813Y-81521715D01*
X155022797Y-81488043D01*
X154854438Y-81319684D01*
X154820767Y-81218669D01*
X154820767Y-81151326D01*
X154854438Y-81050310D01*
X154989126Y-80915623D01*
X155090141Y-80881951D01*
X155157484Y-80881951D01*
X155258500Y-80915623D01*
X154214675Y-81151326D02*
X153776942Y-81589058D01*
X154282019Y-81622730D01*
X154181003Y-81723745D01*
X154147332Y-81824761D01*
X154147332Y-81892104D01*
X154181003Y-81993119D01*
X154349362Y-82161478D01*
X154450377Y-82195150D01*
X154517721Y-82195150D01*
X154618736Y-82161478D01*
X154820767Y-81959448D01*
X154854438Y-81858432D01*
X154854438Y-81791089D01*
%TO.C,L24*%
X181646176Y-92141838D02*
X181982893Y-91805121D01*
X181275787Y-91098014D01*
X180804382Y-91704106D02*
X180737038Y-91704106D01*
X180636023Y-91737777D01*
X180467664Y-91906136D01*
X180433993Y-92007151D01*
X180433993Y-92074495D01*
X180467664Y-92175510D01*
X180535008Y-92242854D01*
X180669695Y-92310197D01*
X181477817Y-92310197D01*
X181040084Y-92747930D01*
X179962588Y-92882617D02*
X180433993Y-93354022D01*
X179861573Y-92444884D02*
X180535008Y-92781602D01*
X180097275Y-93219335D01*
%TO.C,L42*%
X156298586Y-99892275D02*
X155961869Y-99555558D01*
X155254762Y-100262664D01*
X156365930Y-100902428D02*
X156837335Y-100431023D01*
X155928197Y-101003443D02*
X156264915Y-100330008D01*
X156702648Y-100767741D01*
X156534289Y-101407504D02*
X156534289Y-101474848D01*
X156567961Y-101575863D01*
X156736319Y-101744222D01*
X156837335Y-101777893D01*
X156904678Y-101777893D01*
X157005693Y-101744222D01*
X157073037Y-101676878D01*
X157140380Y-101542191D01*
X157140380Y-100734069D01*
X157578113Y-101171802D01*
D11*
%TO.C,L46*%
X149692250Y-93380439D02*
X149422876Y-93111065D01*
X148857190Y-93676751D01*
X149746125Y-94188561D02*
X150123248Y-93811438D01*
X149395938Y-94269374D02*
X149665312Y-93730625D01*
X150015499Y-94080812D01*
X150096311Y-94915871D02*
X149988561Y-94808122D01*
X149961624Y-94727309D01*
X149961624Y-94673435D01*
X149988561Y-94538748D01*
X150069374Y-94404061D01*
X150284873Y-94188561D01*
X150365685Y-94161624D01*
X150419560Y-94161624D01*
X150500372Y-94188561D01*
X150608122Y-94296311D01*
X150635059Y-94377123D01*
X150635059Y-94430998D01*
X150608122Y-94511810D01*
X150473435Y-94646497D01*
X150392622Y-94673435D01*
X150338748Y-94673435D01*
X150257935Y-94646497D01*
X150150186Y-94538748D01*
X150123248Y-94457935D01*
X150123248Y-94404061D01*
X150150186Y-94323248D01*
D10*
%TO.C,L25*%
X180874737Y-85343922D02*
X180538020Y-85007205D01*
X179830913Y-85714311D01*
X180437005Y-86185716D02*
X180437005Y-86253060D01*
X180470676Y-86354075D01*
X180639035Y-86522434D01*
X180740050Y-86556105D01*
X180807394Y-86556105D01*
X180908409Y-86522434D01*
X180975753Y-86455090D01*
X181043096Y-86320403D01*
X181043096Y-85512281D01*
X181480829Y-85950014D01*
X181413486Y-87296884D02*
X181076768Y-86960166D01*
X181379814Y-86589777D01*
X181379814Y-86657121D01*
X181413486Y-86758136D01*
X181581844Y-86926495D01*
X181682860Y-86960166D01*
X181750203Y-86960166D01*
X181851218Y-86926495D01*
X182019577Y-86758136D01*
X182053249Y-86657121D01*
X182053249Y-86589777D01*
X182019577Y-86488762D01*
X181851218Y-86320403D01*
X181750203Y-86286731D01*
X181682860Y-86286731D01*
%TO.C,L43*%
X162541176Y-99732038D02*
X162877893Y-99395321D01*
X162170787Y-98688214D01*
X161531023Y-99799382D02*
X162002428Y-100270787D01*
X161430008Y-99361649D02*
X162103443Y-99698367D01*
X161665710Y-100136100D01*
X160992275Y-99866726D02*
X160554542Y-100304458D01*
X161059619Y-100338130D01*
X160958603Y-100439145D01*
X160924932Y-100540161D01*
X160924932Y-100607504D01*
X160958603Y-100708519D01*
X161126962Y-100876878D01*
X161227977Y-100910550D01*
X161295321Y-100910550D01*
X161396336Y-100876878D01*
X161598367Y-100674848D01*
X161632038Y-100573832D01*
X161632038Y-100506489D01*
%TO.C,L47*%
X153579176Y-90821038D02*
X153915893Y-90484321D01*
X153208787Y-89777214D01*
X152569023Y-90888382D02*
X153040428Y-91359787D01*
X152468008Y-90450649D02*
X153141443Y-90787367D01*
X152703710Y-91225100D01*
X152030275Y-90955726D02*
X151558871Y-91427130D01*
X152569023Y-91831191D01*
%TO.C,L20*%
X172353124Y-96945786D02*
X172689841Y-96609069D01*
X171982735Y-95901962D01*
X171511330Y-96508054D02*
X171443986Y-96508054D01*
X171342971Y-96541725D01*
X171174612Y-96710084D01*
X171140941Y-96811099D01*
X171140941Y-96878443D01*
X171174612Y-96979458D01*
X171241956Y-97046802D01*
X171376643Y-97114145D01*
X172184765Y-97114145D01*
X171747032Y-97551878D01*
X170602193Y-97282504D02*
X170534849Y-97349848D01*
X170501177Y-97450863D01*
X170501177Y-97518206D01*
X170534849Y-97619222D01*
X170635864Y-97787580D01*
X170804223Y-97955939D01*
X170972582Y-98056954D01*
X171073597Y-98090626D01*
X171140941Y-98090626D01*
X171241956Y-98056954D01*
X171309299Y-97989611D01*
X171342971Y-97888596D01*
X171342971Y-97821252D01*
X171309299Y-97720237D01*
X171208284Y-97551878D01*
X171039925Y-97383519D01*
X170871567Y-97282504D01*
X170770551Y-97248832D01*
X170703208Y-97248832D01*
X170602193Y-97282504D01*
%TO.C,L21*%
X171019537Y-94894322D02*
X170682820Y-94557605D01*
X169975713Y-95264711D01*
X170581805Y-95736116D02*
X170581805Y-95803460D01*
X170615476Y-95904475D01*
X170783835Y-96072834D01*
X170884850Y-96106505D01*
X170952194Y-96106505D01*
X171053209Y-96072834D01*
X171120553Y-96005490D01*
X171187896Y-95870803D01*
X171187896Y-95062681D01*
X171625629Y-95500414D01*
X172299064Y-96173849D02*
X171895003Y-95769788D01*
X172097034Y-95971818D02*
X171389927Y-96678925D01*
X171423599Y-96510566D01*
X171423599Y-96375879D01*
X171389927Y-96274864D01*
%TO.C,L8*%
X131004458Y-97168756D02*
X131341176Y-96832038D01*
X130634069Y-96124932D01*
X130263680Y-97101413D02*
X130297351Y-97000397D01*
X130297351Y-96933054D01*
X130263680Y-96832038D01*
X130230008Y-96798367D01*
X130128993Y-96764695D01*
X130061649Y-96764695D01*
X129960634Y-96798367D01*
X129825947Y-96933054D01*
X129792275Y-97034069D01*
X129792275Y-97101413D01*
X129825947Y-97202428D01*
X129859619Y-97236100D01*
X129960634Y-97269771D01*
X130027977Y-97269771D01*
X130128993Y-97236100D01*
X130263680Y-97101413D01*
X130364695Y-97067741D01*
X130432038Y-97067741D01*
X130533054Y-97101413D01*
X130667741Y-97236100D01*
X130701413Y-97337115D01*
X130701413Y-97404458D01*
X130667741Y-97505474D01*
X130533054Y-97640161D01*
X130432038Y-97673832D01*
X130364695Y-97673832D01*
X130263680Y-97640161D01*
X130128993Y-97505474D01*
X130095321Y-97404458D01*
X130095321Y-97337115D01*
X130128993Y-97236100D01*
%TO.C,L10*%
X141217986Y-105091075D02*
X140881269Y-104754358D01*
X140174162Y-105461464D01*
X141824078Y-105697167D02*
X141420017Y-105293106D01*
X141622048Y-105495136D02*
X140914941Y-106202243D01*
X140948612Y-106033884D01*
X140948612Y-105899197D01*
X140914941Y-105798182D01*
X141554704Y-106842006D02*
X141622048Y-106909350D01*
X141723063Y-106943022D01*
X141790406Y-106943022D01*
X141891422Y-106909350D01*
X142059780Y-106808335D01*
X142228139Y-106639976D01*
X142329154Y-106471617D01*
X142362826Y-106370602D01*
X142362826Y-106303258D01*
X142329154Y-106202243D01*
X142261811Y-106134900D01*
X142160796Y-106101228D01*
X142093452Y-106101228D01*
X141992437Y-106134900D01*
X141824078Y-106235915D01*
X141655719Y-106404274D01*
X141554704Y-106572632D01*
X141521032Y-106673648D01*
X141521032Y-106740991D01*
X141554704Y-106842006D01*
%TO.C,R25*%
X138193287Y-103502149D02*
X138092272Y-102929730D01*
X138597348Y-103098088D02*
X137890241Y-102390982D01*
X137620867Y-102660356D01*
X137587195Y-102761371D01*
X137587195Y-102828714D01*
X137620867Y-102929730D01*
X137721882Y-103030745D01*
X137822898Y-103064417D01*
X137890241Y-103064417D01*
X137991256Y-103030745D01*
X138260630Y-102761371D01*
X137284149Y-103131760D02*
X137216806Y-103131760D01*
X137115791Y-103165432D01*
X136947432Y-103333791D01*
X136913760Y-103434806D01*
X136913760Y-103502149D01*
X136947432Y-103603165D01*
X137014775Y-103670508D01*
X137149462Y-103737852D01*
X137957585Y-103737852D01*
X137519852Y-104175585D01*
X136172982Y-104108241D02*
X136509699Y-103771524D01*
X136880088Y-104074569D01*
X136812745Y-104074569D01*
X136711730Y-104108241D01*
X136543371Y-104276600D01*
X136509699Y-104377615D01*
X136509699Y-104444959D01*
X136543371Y-104545974D01*
X136711730Y-104714333D01*
X136812745Y-104748004D01*
X136880088Y-104748004D01*
X136981104Y-104714333D01*
X137149462Y-104545974D01*
X137183134Y-104444959D01*
X137183134Y-104377615D01*
%TO.C,C56*%
X174605606Y-91896456D02*
X174605606Y-91829112D01*
X174538262Y-91694425D01*
X174470919Y-91627082D01*
X174336232Y-91559738D01*
X174201545Y-91559738D01*
X174100530Y-91593410D01*
X173932171Y-91694425D01*
X173831156Y-91795440D01*
X173730140Y-91963799D01*
X173696469Y-92064814D01*
X173696469Y-92199501D01*
X173763812Y-92334188D01*
X173831156Y-92401532D01*
X173965843Y-92468875D01*
X174033186Y-92468875D01*
X174605606Y-93175982D02*
X174268888Y-92839265D01*
X174571934Y-92468875D01*
X174571934Y-92536219D01*
X174605606Y-92637234D01*
X174773965Y-92805593D01*
X174874980Y-92839265D01*
X174942324Y-92839265D01*
X175043339Y-92805593D01*
X175211698Y-92637234D01*
X175245369Y-92536219D01*
X175245369Y-92468875D01*
X175211698Y-92367860D01*
X175043339Y-92199501D01*
X174942324Y-92165830D01*
X174874980Y-92165830D01*
X175245369Y-93815746D02*
X175110682Y-93681059D01*
X175077011Y-93580043D01*
X175077011Y-93512700D01*
X175110682Y-93344341D01*
X175211698Y-93175982D01*
X175481072Y-92906608D01*
X175582087Y-92872937D01*
X175649430Y-92872937D01*
X175750446Y-92906608D01*
X175885133Y-93041295D01*
X175918804Y-93142311D01*
X175918804Y-93209654D01*
X175885133Y-93310669D01*
X175716774Y-93479028D01*
X175615759Y-93512700D01*
X175548415Y-93512700D01*
X175447400Y-93479028D01*
X175312713Y-93344341D01*
X175279041Y-93243326D01*
X175279041Y-93175982D01*
X175312713Y-93074967D01*
%TO.C,L39*%
X155307724Y-72398586D02*
X155644441Y-72061869D01*
X154937335Y-71354762D01*
X154432258Y-71859838D02*
X153994525Y-72297571D01*
X154499602Y-72331243D01*
X154398586Y-72432258D01*
X154364915Y-72533274D01*
X154364915Y-72600617D01*
X154398586Y-72701632D01*
X154566945Y-72869991D01*
X154667961Y-72903663D01*
X154735304Y-72903663D01*
X154836319Y-72869991D01*
X155038350Y-72667961D01*
X155072022Y-72566945D01*
X155072022Y-72499602D01*
X154364915Y-73341396D02*
X154230228Y-73476083D01*
X154129212Y-73509754D01*
X154061869Y-73509754D01*
X153893510Y-73476083D01*
X153725151Y-73375067D01*
X153455777Y-73105693D01*
X153422106Y-73004678D01*
X153422106Y-72937335D01*
X153455777Y-72836319D01*
X153590464Y-72701632D01*
X153691480Y-72667961D01*
X153758823Y-72667961D01*
X153859838Y-72701632D01*
X154028197Y-72869991D01*
X154061869Y-72971006D01*
X154061869Y-73038350D01*
X154028197Y-73139365D01*
X153893510Y-73274052D01*
X153792495Y-73307724D01*
X153725151Y-73307724D01*
X153624136Y-73274052D01*
%TO.C,L14*%
X134606757Y-46681380D02*
X135082947Y-46681380D01*
X135082947Y-45681380D01*
X133749614Y-46681380D02*
X134321042Y-46681380D01*
X134035328Y-46681380D02*
X134035328Y-45681380D01*
X134130566Y-45824238D01*
X134225804Y-45919476D01*
X134321042Y-45967095D01*
X132892471Y-46014714D02*
X132892471Y-46681380D01*
X133130566Y-45633761D02*
X133368661Y-46348047D01*
X132749614Y-46348047D01*
%TO.C,L7*%
X145952658Y-111833356D02*
X146289376Y-111496638D01*
X145582269Y-110789532D01*
X145077193Y-111294608D02*
X144605788Y-111766013D01*
X145615941Y-112170074D01*
%TO.C,L29*%
X171006924Y-85439586D02*
X171343641Y-85102869D01*
X170636535Y-84395762D01*
X170165130Y-85001854D02*
X170097786Y-85001854D01*
X169996771Y-85035525D01*
X169828412Y-85203884D01*
X169794741Y-85304899D01*
X169794741Y-85372243D01*
X169828412Y-85473258D01*
X169895756Y-85540602D01*
X170030443Y-85607945D01*
X170838565Y-85607945D01*
X170400832Y-86045678D01*
X170064115Y-86382396D02*
X169929428Y-86517083D01*
X169828412Y-86550754D01*
X169761069Y-86550754D01*
X169592710Y-86517083D01*
X169424351Y-86416067D01*
X169154977Y-86146693D01*
X169121306Y-86045678D01*
X169121306Y-85978335D01*
X169154977Y-85877319D01*
X169289664Y-85742632D01*
X169390680Y-85708961D01*
X169458023Y-85708961D01*
X169559038Y-85742632D01*
X169727397Y-85910991D01*
X169761069Y-86012006D01*
X169761069Y-86079350D01*
X169727397Y-86180365D01*
X169592710Y-86315052D01*
X169491695Y-86348724D01*
X169424351Y-86348724D01*
X169323336Y-86315052D01*
%TO.C,L37*%
X164529924Y-80537386D02*
X164866641Y-80200669D01*
X164159535Y-79493562D01*
X163654458Y-79998638D02*
X163216725Y-80436371D01*
X163721802Y-80470043D01*
X163620786Y-80571058D01*
X163587115Y-80672074D01*
X163587115Y-80739417D01*
X163620786Y-80840432D01*
X163789145Y-81008791D01*
X163890161Y-81042463D01*
X163957504Y-81042463D01*
X164058519Y-81008791D01*
X164260550Y-80806761D01*
X164294222Y-80705745D01*
X164294222Y-80638402D01*
X162981023Y-80672074D02*
X162509619Y-81143478D01*
X163519771Y-81547539D01*
%TO.C,L53*%
X136518986Y-51392275D02*
X136182269Y-51055558D01*
X135475162Y-51762664D01*
X136384299Y-52671802D02*
X136047582Y-52335084D01*
X136350628Y-51964695D01*
X136350628Y-52032038D01*
X136384299Y-52133054D01*
X136552658Y-52301413D01*
X136653674Y-52335084D01*
X136721017Y-52335084D01*
X136822032Y-52301413D01*
X136990391Y-52133054D01*
X137024063Y-52032038D01*
X137024063Y-51964695D01*
X136990391Y-51863680D01*
X136822032Y-51695321D01*
X136721017Y-51661649D01*
X136653674Y-51661649D01*
X136653674Y-52941176D02*
X137091406Y-53378909D01*
X137125078Y-52873832D01*
X137226093Y-52974848D01*
X137327109Y-53008519D01*
X137394452Y-53008519D01*
X137495467Y-52974848D01*
X137663826Y-52806489D01*
X137697498Y-52705474D01*
X137697498Y-52638130D01*
X137663826Y-52537115D01*
X137461796Y-52335084D01*
X137360780Y-52301413D01*
X137293437Y-52301413D01*
%TO.C,L15*%
X191207380Y-103116142D02*
X191207380Y-102639952D01*
X190207380Y-102639952D01*
X191207380Y-103973285D02*
X191207380Y-103401857D01*
X191207380Y-103687571D02*
X190207380Y-103687571D01*
X190350238Y-103592333D01*
X190445476Y-103497095D01*
X190493095Y-103401857D01*
X190207380Y-104878047D02*
X190207380Y-104401857D01*
X190683571Y-104354238D01*
X190635952Y-104401857D01*
X190588333Y-104497095D01*
X190588333Y-104735190D01*
X190635952Y-104830428D01*
X190683571Y-104878047D01*
X190778809Y-104925666D01*
X191016904Y-104925666D01*
X191112142Y-104878047D01*
X191159761Y-104830428D01*
X191207380Y-104735190D01*
X191207380Y-104497095D01*
X191159761Y-104401857D01*
X191112142Y-104354238D01*
%TO.C,L32*%
X167354586Y-88149275D02*
X167017869Y-87812558D01*
X166310762Y-88519664D01*
X166815838Y-89024741D02*
X167253571Y-89462474D01*
X167287243Y-88957397D01*
X167388258Y-89058413D01*
X167489274Y-89092084D01*
X167556617Y-89092084D01*
X167657632Y-89058413D01*
X167825991Y-88890054D01*
X167859663Y-88789038D01*
X167859663Y-88721695D01*
X167825991Y-88620680D01*
X167623961Y-88418649D01*
X167522945Y-88384977D01*
X167455602Y-88384977D01*
X167590289Y-89664504D02*
X167590289Y-89731848D01*
X167623961Y-89832863D01*
X167792319Y-90001222D01*
X167893335Y-90034893D01*
X167960678Y-90034893D01*
X168061693Y-90001222D01*
X168129037Y-89933878D01*
X168196380Y-89799191D01*
X168196380Y-88991069D01*
X168634113Y-89428802D01*
%TO.C,R24*%
X127963287Y-93154149D02*
X127862272Y-92581730D01*
X128367348Y-92750088D02*
X127660241Y-92042982D01*
X127390867Y-92312356D01*
X127357195Y-92413371D01*
X127357195Y-92480714D01*
X127390867Y-92581730D01*
X127491882Y-92682745D01*
X127592898Y-92716417D01*
X127660241Y-92716417D01*
X127761256Y-92682745D01*
X128030630Y-92413371D01*
X127054149Y-92783760D02*
X126986806Y-92783760D01*
X126885791Y-92817432D01*
X126717432Y-92985791D01*
X126683760Y-93086806D01*
X126683760Y-93154149D01*
X126717432Y-93255165D01*
X126784775Y-93322508D01*
X126919462Y-93389852D01*
X127727585Y-93389852D01*
X127289852Y-93827585D01*
X126212356Y-93962272D02*
X126683760Y-94433676D01*
X126111340Y-93524539D02*
X126784775Y-93861256D01*
X126347043Y-94298989D01*
%TO.C,L62*%
X186678724Y-104438786D02*
X187015441Y-104102069D01*
X186308335Y-103394962D01*
X185432869Y-104270428D02*
X185567556Y-104135741D01*
X185668571Y-104102069D01*
X185735915Y-104102069D01*
X185904274Y-104135741D01*
X186072632Y-104236756D01*
X186342006Y-104506130D01*
X186375678Y-104607145D01*
X186375678Y-104674489D01*
X186342006Y-104775504D01*
X186207319Y-104910191D01*
X186106304Y-104943863D01*
X186038961Y-104943863D01*
X185937945Y-104910191D01*
X185769586Y-104741832D01*
X185735915Y-104640817D01*
X185735915Y-104573474D01*
X185769586Y-104472458D01*
X185904274Y-104337771D01*
X186005289Y-104304099D01*
X186072632Y-104304099D01*
X186173648Y-104337771D01*
X185163495Y-104674489D02*
X185096151Y-104674489D01*
X184995136Y-104708161D01*
X184826777Y-104876519D01*
X184793106Y-104977535D01*
X184793106Y-105044878D01*
X184826777Y-105145893D01*
X184894121Y-105213237D01*
X185028808Y-105280580D01*
X185836930Y-105280580D01*
X185399197Y-105718313D01*
%TO.C,L51*%
X160510457Y-102789980D02*
X160986647Y-102789980D01*
X160986647Y-101789980D01*
X159700933Y-101789980D02*
X160177123Y-101789980D01*
X160224742Y-102266171D01*
X160177123Y-102218552D01*
X160081885Y-102170933D01*
X159843790Y-102170933D01*
X159748552Y-102218552D01*
X159700933Y-102266171D01*
X159653314Y-102361409D01*
X159653314Y-102599504D01*
X159700933Y-102694742D01*
X159748552Y-102742361D01*
X159843790Y-102789980D01*
X160081885Y-102789980D01*
X160177123Y-102742361D01*
X160224742Y-102694742D01*
X158700933Y-102789980D02*
X159272361Y-102789980D01*
X158986647Y-102789980D02*
X158986647Y-101789980D01*
X159081885Y-101932838D01*
X159177123Y-102028076D01*
X159272361Y-102075695D01*
%TO.C,L5*%
X128835304Y-51228993D02*
X128498586Y-50892275D01*
X127791480Y-51599382D01*
X128700617Y-52508519D02*
X128363899Y-52171802D01*
X128666945Y-51801413D01*
X128666945Y-51868756D01*
X128700617Y-51969771D01*
X128868976Y-52138130D01*
X128969991Y-52171802D01*
X129037335Y-52171802D01*
X129138350Y-52138130D01*
X129306709Y-51969771D01*
X129340380Y-51868756D01*
X129340380Y-51801413D01*
X129306709Y-51700397D01*
X129138350Y-51532038D01*
X129037335Y-51498367D01*
X128969991Y-51498367D01*
%TO.C,L56*%
X139759487Y-54661376D02*
X139422770Y-54324659D01*
X138715663Y-55031765D01*
X139624800Y-55940903D02*
X139288083Y-55604185D01*
X139591129Y-55233796D01*
X139591129Y-55301139D01*
X139624800Y-55402155D01*
X139793159Y-55570514D01*
X139894175Y-55604185D01*
X139961518Y-55604185D01*
X140062533Y-55570514D01*
X140230892Y-55402155D01*
X140264564Y-55301139D01*
X140264564Y-55233796D01*
X140230892Y-55132781D01*
X140062533Y-54964422D01*
X139961518Y-54930750D01*
X139894175Y-54930750D01*
X140264564Y-56580666D02*
X140129877Y-56445979D01*
X140096205Y-56344964D01*
X140096205Y-56277620D01*
X140129877Y-56109262D01*
X140230892Y-55940903D01*
X140500266Y-55671529D01*
X140601281Y-55637857D01*
X140668625Y-55637857D01*
X140769640Y-55671529D01*
X140904327Y-55806216D01*
X140937999Y-55907231D01*
X140937999Y-55974575D01*
X140904327Y-56075590D01*
X140735968Y-56243949D01*
X140634953Y-56277620D01*
X140567610Y-56277620D01*
X140466594Y-56243949D01*
X140331907Y-56109262D01*
X140298236Y-56008246D01*
X140298236Y-55940903D01*
X140331907Y-55839888D01*
%TO.C,L12*%
X135941176Y-101532038D02*
X136277893Y-101195321D01*
X135570787Y-100488214D01*
X135335084Y-102138130D02*
X135739145Y-101734069D01*
X135537115Y-101936100D02*
X134830008Y-101228993D01*
X134998367Y-101262664D01*
X135133054Y-101262664D01*
X135234069Y-101228993D01*
X134425947Y-101767741D02*
X134358603Y-101767741D01*
X134257588Y-101801413D01*
X134089229Y-101969771D01*
X134055558Y-102070787D01*
X134055558Y-102138130D01*
X134089229Y-102239145D01*
X134156573Y-102306489D01*
X134291260Y-102373832D01*
X135099382Y-102373832D01*
X134661649Y-102811565D01*
%TO.C,L52*%
X132632786Y-55561075D02*
X132296069Y-55224358D01*
X131588962Y-55931464D01*
X132498099Y-56840602D02*
X132161382Y-56503884D01*
X132464428Y-56133495D01*
X132464428Y-56200838D01*
X132498099Y-56301854D01*
X132666458Y-56470213D01*
X132767474Y-56503884D01*
X132834817Y-56503884D01*
X132935832Y-56470213D01*
X133104191Y-56301854D01*
X133137863Y-56200838D01*
X133137863Y-56133495D01*
X133104191Y-56032480D01*
X132935832Y-55864121D01*
X132834817Y-55830449D01*
X132767474Y-55830449D01*
X132868489Y-57076304D02*
X132868489Y-57143648D01*
X132902161Y-57244663D01*
X133070519Y-57413022D01*
X133171535Y-57446693D01*
X133238878Y-57446693D01*
X133339893Y-57413022D01*
X133407237Y-57345678D01*
X133474580Y-57210991D01*
X133474580Y-56402869D01*
X133912313Y-56840602D01*
%TO.C,L55*%
X135604586Y-58812275D02*
X135267869Y-58475558D01*
X134560762Y-59182664D01*
X135469899Y-60091802D02*
X135133182Y-59755084D01*
X135436228Y-59384695D01*
X135436228Y-59452038D01*
X135469899Y-59553054D01*
X135638258Y-59721413D01*
X135739274Y-59755084D01*
X135806617Y-59755084D01*
X135907632Y-59721413D01*
X136075991Y-59553054D01*
X136109663Y-59452038D01*
X136109663Y-59384695D01*
X136075991Y-59283680D01*
X135907632Y-59115321D01*
X135806617Y-59081649D01*
X135739274Y-59081649D01*
X136143335Y-60765237D02*
X135806617Y-60428519D01*
X136109663Y-60058130D01*
X136109663Y-60125474D01*
X136143335Y-60226489D01*
X136311693Y-60394848D01*
X136412709Y-60428519D01*
X136480052Y-60428519D01*
X136581067Y-60394848D01*
X136749426Y-60226489D01*
X136783098Y-60125474D01*
X136783098Y-60058130D01*
X136749426Y-59957115D01*
X136581067Y-59788756D01*
X136480052Y-59755084D01*
X136412709Y-59755084D01*
%TO.C,L3*%
X149022304Y-97756993D02*
X148685586Y-97420275D01*
X147978480Y-98127382D01*
X148483556Y-98632458D02*
X148921289Y-99070191D01*
X148954961Y-98565115D01*
X149055976Y-98666130D01*
X149156991Y-98699802D01*
X149224335Y-98699802D01*
X149325350Y-98666130D01*
X149493709Y-98497771D01*
X149527380Y-98396756D01*
X149527380Y-98329413D01*
X149493709Y-98228397D01*
X149291678Y-98026367D01*
X149190663Y-97992695D01*
X149123319Y-97992695D01*
%TO.C,L16*%
X190109638Y-107939223D02*
X189772921Y-107602506D01*
X189065814Y-108309612D01*
X190715730Y-108545315D02*
X190311669Y-108141254D01*
X190513700Y-108343284D02*
X189806593Y-109050391D01*
X189840264Y-108882032D01*
X189840264Y-108747345D01*
X189806593Y-108646330D01*
X190614715Y-109858513D02*
X190480028Y-109723826D01*
X190446356Y-109622811D01*
X190446356Y-109555467D01*
X190480028Y-109387109D01*
X190581043Y-109218750D01*
X190850417Y-108949376D01*
X190951432Y-108915704D01*
X191018776Y-108915704D01*
X191119791Y-108949376D01*
X191254478Y-109084063D01*
X191288150Y-109185078D01*
X191288150Y-109252422D01*
X191254478Y-109353437D01*
X191086119Y-109521796D01*
X190985104Y-109555467D01*
X190917761Y-109555467D01*
X190816745Y-109521796D01*
X190682058Y-109387109D01*
X190648387Y-109286093D01*
X190648387Y-109218750D01*
X190682058Y-109117735D01*
%TO.C,L33*%
X183630724Y-101416186D02*
X183967441Y-101079469D01*
X183260335Y-100372362D01*
X182755258Y-100877438D02*
X182317525Y-101315171D01*
X182822602Y-101348843D01*
X182721586Y-101449858D01*
X182687915Y-101550874D01*
X182687915Y-101618217D01*
X182721586Y-101719232D01*
X182889945Y-101887591D01*
X182990961Y-101921263D01*
X183058304Y-101921263D01*
X183159319Y-101887591D01*
X183361350Y-101685561D01*
X183395022Y-101584545D01*
X183395022Y-101517202D01*
X182081823Y-101550874D02*
X181644090Y-101988606D01*
X182149167Y-102022278D01*
X182048151Y-102123293D01*
X182014480Y-102224309D01*
X182014480Y-102291652D01*
X182048151Y-102392667D01*
X182216510Y-102561026D01*
X182317525Y-102594698D01*
X182384869Y-102594698D01*
X182485884Y-102561026D01*
X182687915Y-102358996D01*
X182721586Y-102257980D01*
X182721586Y-102190637D01*
%TO.C,L27*%
X189373038Y-100573223D02*
X189036321Y-100236506D01*
X188329214Y-100943612D01*
X188935306Y-101415017D02*
X188935306Y-101482361D01*
X188968977Y-101583376D01*
X189137336Y-101751735D01*
X189238351Y-101785406D01*
X189305695Y-101785406D01*
X189406710Y-101751735D01*
X189474054Y-101684391D01*
X189541397Y-101549704D01*
X189541397Y-100741582D01*
X189979130Y-101179315D01*
X189507726Y-102122124D02*
X189979130Y-102593528D01*
X190383191Y-101583376D01*
%TO.C,L6*%
X146783756Y-106040741D02*
X146447038Y-105704023D01*
X145739932Y-106411130D01*
X146615397Y-107286596D02*
X146480710Y-107151909D01*
X146447038Y-107050893D01*
X146447038Y-106983550D01*
X146480710Y-106815191D01*
X146581726Y-106646832D01*
X146851100Y-106377458D01*
X146952115Y-106343786D01*
X147019458Y-106343786D01*
X147120474Y-106377458D01*
X147255161Y-106512145D01*
X147288832Y-106613161D01*
X147288832Y-106680504D01*
X147255161Y-106781519D01*
X147086802Y-106949878D01*
X146985787Y-106983550D01*
X146918443Y-106983550D01*
X146817428Y-106949878D01*
X146682741Y-106815191D01*
X146649069Y-106714176D01*
X146649069Y-106646832D01*
X146682741Y-106545817D01*
%TO.C,L38*%
X168031776Y-84318638D02*
X168368493Y-83981921D01*
X167661387Y-83274814D01*
X167156310Y-83779890D02*
X166718577Y-84217623D01*
X167223654Y-84251295D01*
X167122638Y-84352310D01*
X167088967Y-84453326D01*
X167088967Y-84520669D01*
X167122638Y-84621684D01*
X167290997Y-84790043D01*
X167392013Y-84823715D01*
X167459356Y-84823715D01*
X167560371Y-84790043D01*
X167762402Y-84588013D01*
X167796074Y-84486997D01*
X167796074Y-84419654D01*
X166617562Y-84924730D02*
X166651234Y-84823715D01*
X166651234Y-84756371D01*
X166617562Y-84655356D01*
X166583890Y-84621684D01*
X166482875Y-84588013D01*
X166415532Y-84588013D01*
X166314516Y-84621684D01*
X166179829Y-84756371D01*
X166146158Y-84857387D01*
X166146158Y-84924730D01*
X166179829Y-85025745D01*
X166213501Y-85059417D01*
X166314516Y-85093089D01*
X166381860Y-85093089D01*
X166482875Y-85059417D01*
X166617562Y-84924730D01*
X166718577Y-84891058D01*
X166785921Y-84891058D01*
X166886936Y-84924730D01*
X167021623Y-85059417D01*
X167055295Y-85160432D01*
X167055295Y-85227776D01*
X167021623Y-85328791D01*
X166886936Y-85463478D01*
X166785921Y-85497150D01*
X166718577Y-85497150D01*
X166617562Y-85463478D01*
X166482875Y-85328791D01*
X166449203Y-85227776D01*
X166449203Y-85160432D01*
X166482875Y-85059417D01*
%TO.C,U3*%
X146510963Y-99426709D02*
X147083383Y-99999129D01*
X147117055Y-100100144D01*
X147117055Y-100167488D01*
X147083383Y-100268503D01*
X146948696Y-100403190D01*
X146847681Y-100436862D01*
X146780337Y-100436862D01*
X146679322Y-100403190D01*
X146106902Y-99830770D01*
X145837528Y-100100144D02*
X145399796Y-100537877D01*
X145904872Y-100571549D01*
X145803857Y-100672564D01*
X145770185Y-100773579D01*
X145770185Y-100840923D01*
X145803857Y-100941938D01*
X145972215Y-101110297D01*
X146073231Y-101143969D01*
X146140574Y-101143969D01*
X146241589Y-101110297D01*
X146443620Y-100908266D01*
X146477292Y-100807251D01*
X146477292Y-100739908D01*
%TO.C,L61*%
X158004038Y-64860823D02*
X157667321Y-64524106D01*
X156960214Y-65231212D01*
X157835680Y-66106678D02*
X157700993Y-65971991D01*
X157667321Y-65870976D01*
X157667321Y-65803632D01*
X157700993Y-65635274D01*
X157802008Y-65466915D01*
X158071382Y-65197541D01*
X158172397Y-65163869D01*
X158239741Y-65163869D01*
X158340756Y-65197541D01*
X158475443Y-65332228D01*
X158509115Y-65433243D01*
X158509115Y-65500586D01*
X158475443Y-65601602D01*
X158307084Y-65769961D01*
X158206069Y-65803632D01*
X158138726Y-65803632D01*
X158037710Y-65769961D01*
X157903023Y-65635274D01*
X157869351Y-65534258D01*
X157869351Y-65466915D01*
X157903023Y-65365899D01*
X159283565Y-66140350D02*
X158879504Y-65736289D01*
X159081535Y-65938319D02*
X158374428Y-66645426D01*
X158408100Y-66477067D01*
X158408100Y-66342380D01*
X158374428Y-66241365D01*
%TO.C,TH1*%
X140403637Y-96678087D02*
X140807698Y-97082148D01*
X141312774Y-96173011D02*
X140605668Y-96880118D01*
X141750507Y-96610744D02*
X141043400Y-97317851D01*
X141380118Y-96981133D02*
X141784179Y-97385194D01*
X142154568Y-97014805D02*
X141447461Y-97721912D01*
X142861675Y-97721912D02*
X142457614Y-97317851D01*
X142659644Y-97519881D02*
X141952538Y-98226988D01*
X141986209Y-98058629D01*
X141986209Y-97923942D01*
X141952538Y-97822927D01*
%TO.C,L26*%
X169462786Y-91756075D02*
X169126069Y-91419358D01*
X168418962Y-92126464D01*
X169025054Y-92597869D02*
X169025054Y-92665213D01*
X169058725Y-92766228D01*
X169227084Y-92934587D01*
X169328099Y-92968258D01*
X169395443Y-92968258D01*
X169496458Y-92934587D01*
X169563802Y-92867243D01*
X169631145Y-92732556D01*
X169631145Y-91924434D01*
X170068878Y-92362167D01*
X169967863Y-93675365D02*
X169833176Y-93540678D01*
X169799504Y-93439663D01*
X169799504Y-93372319D01*
X169833176Y-93203961D01*
X169934191Y-93035602D01*
X170203565Y-92766228D01*
X170304580Y-92732556D01*
X170371924Y-92732556D01*
X170472939Y-92766228D01*
X170607626Y-92900915D01*
X170641298Y-93001930D01*
X170641298Y-93069274D01*
X170607626Y-93170289D01*
X170439267Y-93338648D01*
X170338252Y-93372319D01*
X170270909Y-93372319D01*
X170169893Y-93338648D01*
X170035206Y-93203961D01*
X170001535Y-93102945D01*
X170001535Y-93035602D01*
X170035206Y-92934587D01*
%TO.C,L4*%
X144468756Y-88286141D02*
X144132038Y-87949423D01*
X143424932Y-88656530D01*
X144536100Y-89296293D02*
X145007504Y-88824889D01*
X144098367Y-89397309D02*
X144435084Y-88723874D01*
X144872817Y-89161606D01*
%TO.C,C69*%
X143609542Y-118203742D02*
X143657161Y-118156123D01*
X143704780Y-118013266D01*
X143704780Y-117918028D01*
X143657161Y-117775171D01*
X143561923Y-117679933D01*
X143466685Y-117632314D01*
X143276209Y-117584695D01*
X143133352Y-117584695D01*
X142942876Y-117632314D01*
X142847638Y-117679933D01*
X142752400Y-117775171D01*
X142704780Y-117918028D01*
X142704780Y-118013266D01*
X142752400Y-118156123D01*
X142800019Y-118203742D01*
X142704780Y-119060885D02*
X142704780Y-118870409D01*
X142752400Y-118775171D01*
X142800019Y-118727552D01*
X142942876Y-118632314D01*
X143133352Y-118584695D01*
X143514304Y-118584695D01*
X143609542Y-118632314D01*
X143657161Y-118679933D01*
X143704780Y-118775171D01*
X143704780Y-118965647D01*
X143657161Y-119060885D01*
X143609542Y-119108504D01*
X143514304Y-119156123D01*
X143276209Y-119156123D01*
X143180971Y-119108504D01*
X143133352Y-119060885D01*
X143085733Y-118965647D01*
X143085733Y-118775171D01*
X143133352Y-118679933D01*
X143180971Y-118632314D01*
X143276209Y-118584695D01*
X143704780Y-119632314D02*
X143704780Y-119822790D01*
X143657161Y-119918028D01*
X143609542Y-119965647D01*
X143466685Y-120060885D01*
X143276209Y-120108504D01*
X142895257Y-120108504D01*
X142800019Y-120060885D01*
X142752400Y-120013266D01*
X142704780Y-119918028D01*
X142704780Y-119727552D01*
X142752400Y-119632314D01*
X142800019Y-119584695D01*
X142895257Y-119537076D01*
X143133352Y-119537076D01*
X143228590Y-119584695D01*
X143276209Y-119632314D01*
X143323828Y-119727552D01*
X143323828Y-119918028D01*
X143276209Y-120013266D01*
X143228590Y-120060885D01*
X143133352Y-120108504D01*
%TO.C,L2*%
X138935304Y-87828993D02*
X138598586Y-87492275D01*
X137891480Y-88199382D01*
X138497571Y-88670787D02*
X138497571Y-88738130D01*
X138531243Y-88839145D01*
X138699602Y-89007504D01*
X138800617Y-89041176D01*
X138867961Y-89041176D01*
X138968976Y-89007504D01*
X139036319Y-88940161D01*
X139103663Y-88805474D01*
X139103663Y-87997351D01*
X139541396Y-88435084D01*
%TO.C,L60*%
X152698586Y-71392275D02*
X152361869Y-71055558D01*
X151654762Y-71762664D01*
X152530228Y-72638130D02*
X152395541Y-72503443D01*
X152361869Y-72402428D01*
X152361869Y-72335084D01*
X152395541Y-72166726D01*
X152496556Y-71998367D01*
X152765930Y-71728993D01*
X152866945Y-71695321D01*
X152934289Y-71695321D01*
X153035304Y-71728993D01*
X153169991Y-71863680D01*
X153203663Y-71964695D01*
X153203663Y-72032038D01*
X153169991Y-72133054D01*
X153001632Y-72301413D01*
X152900617Y-72335084D01*
X152833274Y-72335084D01*
X152732258Y-72301413D01*
X152597571Y-72166726D01*
X152563899Y-72065710D01*
X152563899Y-71998367D01*
X152597571Y-71897351D01*
X153035304Y-73143206D02*
X153102648Y-73210550D01*
X153203663Y-73244222D01*
X153271006Y-73244222D01*
X153372022Y-73210550D01*
X153540380Y-73109535D01*
X153708739Y-72941176D01*
X153809754Y-72772817D01*
X153843426Y-72671802D01*
X153843426Y-72604458D01*
X153809754Y-72503443D01*
X153742411Y-72436100D01*
X153641396Y-72402428D01*
X153574052Y-72402428D01*
X153473037Y-72436100D01*
X153304678Y-72537115D01*
X153136319Y-72705474D01*
X153035304Y-72873832D01*
X153001632Y-72974848D01*
X153001632Y-73042191D01*
X153035304Y-73143206D01*
%TO.C,L57*%
X182362638Y-102300423D02*
X182025921Y-101963706D01*
X181318814Y-102670812D01*
X182227951Y-103579950D02*
X181891234Y-103243232D01*
X182194280Y-102872843D01*
X182194280Y-102940186D01*
X182227951Y-103041202D01*
X182396310Y-103209561D01*
X182497326Y-103243232D01*
X182564669Y-103243232D01*
X182665684Y-103209561D01*
X182834043Y-103041202D01*
X182867715Y-102940186D01*
X182867715Y-102872843D01*
X182834043Y-102771828D01*
X182665684Y-102603469D01*
X182564669Y-102569797D01*
X182497326Y-102569797D01*
X182497326Y-103849324D02*
X182968730Y-104320728D01*
X183372791Y-103310576D01*
%TO.C,R16*%
X166198586Y-117892275D02*
X165626167Y-117993290D01*
X165794525Y-117488214D02*
X165087419Y-118195321D01*
X165356793Y-118464695D01*
X165457808Y-118498367D01*
X165525151Y-118498367D01*
X165626167Y-118464695D01*
X165727182Y-118363680D01*
X165760854Y-118262664D01*
X165760854Y-118195321D01*
X165727182Y-118094306D01*
X165457808Y-117824932D01*
X166872022Y-118565710D02*
X166467961Y-118161649D01*
X166669991Y-118363680D02*
X165962884Y-119070787D01*
X165996556Y-118902428D01*
X165996556Y-118767741D01*
X165962884Y-118666726D01*
X166771006Y-119878909D02*
X166636319Y-119744222D01*
X166602648Y-119643206D01*
X166602648Y-119575863D01*
X166636319Y-119407504D01*
X166737335Y-119239145D01*
X167006709Y-118969771D01*
X167107724Y-118936100D01*
X167175067Y-118936100D01*
X167276083Y-118969771D01*
X167410770Y-119104458D01*
X167444441Y-119205474D01*
X167444441Y-119272817D01*
X167410770Y-119373832D01*
X167242411Y-119542191D01*
X167141396Y-119575863D01*
X167074052Y-119575863D01*
X166973037Y-119542191D01*
X166838350Y-119407504D01*
X166804678Y-119306489D01*
X166804678Y-119239145D01*
X166838350Y-119138130D01*
%TO.C,C72*%
X176246932Y-109305130D02*
X176246932Y-109237786D01*
X176179588Y-109103099D01*
X176112245Y-109035756D01*
X175977558Y-108968412D01*
X175842871Y-108968412D01*
X175741856Y-109002084D01*
X175573497Y-109103099D01*
X175472482Y-109204114D01*
X175371466Y-109372473D01*
X175337795Y-109473488D01*
X175337795Y-109608175D01*
X175405138Y-109742862D01*
X175472482Y-109810206D01*
X175607169Y-109877549D01*
X175674512Y-109877549D01*
X175842871Y-110180595D02*
X176314275Y-110652000D01*
X176718337Y-109641847D01*
X176617321Y-110820359D02*
X176617321Y-110887702D01*
X176650993Y-110988717D01*
X176819352Y-111157076D01*
X176920367Y-111190748D01*
X176987711Y-111190748D01*
X177088726Y-111157076D01*
X177156069Y-111089733D01*
X177223413Y-110955046D01*
X177223413Y-110146924D01*
X177661146Y-110584656D01*
%TO.C,C51*%
X173777869Y-89709132D02*
X173845213Y-89709132D01*
X173979900Y-89641788D01*
X174047243Y-89574445D01*
X174114587Y-89439758D01*
X174114587Y-89305071D01*
X174080915Y-89204056D01*
X173979900Y-89035697D01*
X173878885Y-88934682D01*
X173710526Y-88833666D01*
X173609511Y-88799995D01*
X173474824Y-88799995D01*
X173340137Y-88867338D01*
X173272793Y-88934682D01*
X173205450Y-89069369D01*
X173205450Y-89136712D01*
X172498343Y-89709132D02*
X172835060Y-89372414D01*
X173205450Y-89675460D01*
X173138106Y-89675460D01*
X173037091Y-89709132D01*
X172868732Y-89877491D01*
X172835060Y-89978506D01*
X172835060Y-90045850D01*
X172868732Y-90146865D01*
X173037091Y-90315224D01*
X173138106Y-90348895D01*
X173205450Y-90348895D01*
X173306465Y-90315224D01*
X173474824Y-90146865D01*
X173508495Y-90045850D01*
X173508495Y-89978506D01*
X172498343Y-91123346D02*
X172902404Y-90719285D01*
X172700373Y-90921315D02*
X171993266Y-90214208D01*
X172161625Y-90247880D01*
X172296312Y-90247880D01*
X172397327Y-90214208D01*
%TO.C,L31*%
X174133038Y-81574023D02*
X173796321Y-81237306D01*
X173089214Y-81944412D01*
X173594290Y-82449489D02*
X174032023Y-82887222D01*
X174065695Y-82382145D01*
X174166710Y-82483161D01*
X174267726Y-82516832D01*
X174335069Y-82516832D01*
X174436084Y-82483161D01*
X174604443Y-82314802D01*
X174638115Y-82213786D01*
X174638115Y-82146443D01*
X174604443Y-82045428D01*
X174402413Y-81843397D01*
X174301397Y-81809725D01*
X174234054Y-81809725D01*
X175412565Y-82853550D02*
X175008504Y-82449489D01*
X175210535Y-82651519D02*
X174503428Y-83358626D01*
X174537100Y-83190267D01*
X174537100Y-83055580D01*
X174503428Y-82954565D01*
%TO.C,L1*%
X154468756Y-98595541D02*
X154132038Y-98258823D01*
X153424932Y-98965930D01*
X155074848Y-99201632D02*
X154670787Y-98797571D01*
X154872817Y-98999602D02*
X154165710Y-99706709D01*
X154199382Y-99538350D01*
X154199382Y-99403663D01*
X154165710Y-99302648D01*
%TO.C,L65*%
X160141176Y-75632038D02*
X160477893Y-75295321D01*
X159770787Y-74588214D01*
X158895321Y-75463680D02*
X159030008Y-75328993D01*
X159131023Y-75295321D01*
X159198367Y-75295321D01*
X159366726Y-75328993D01*
X159535084Y-75430008D01*
X159804458Y-75699382D01*
X159838130Y-75800397D01*
X159838130Y-75867741D01*
X159804458Y-75968756D01*
X159669771Y-76103443D01*
X159568756Y-76137115D01*
X159501413Y-76137115D01*
X159400397Y-76103443D01*
X159232038Y-75935084D01*
X159198367Y-75834069D01*
X159198367Y-75766726D01*
X159232038Y-75665710D01*
X159366726Y-75531023D01*
X159467741Y-75497351D01*
X159535084Y-75497351D01*
X159636100Y-75531023D01*
X158188214Y-76170787D02*
X158524932Y-75834069D01*
X158895321Y-76137115D01*
X158827977Y-76137115D01*
X158726962Y-76170787D01*
X158558603Y-76339145D01*
X158524932Y-76440161D01*
X158524932Y-76507504D01*
X158558603Y-76608519D01*
X158726962Y-76776878D01*
X158827977Y-76810550D01*
X158895321Y-76810550D01*
X158996336Y-76776878D01*
X159164695Y-76608519D01*
X159198367Y-76507504D01*
X159198367Y-76440161D01*
%TO.C,L48*%
X139042857Y-116702380D02*
X139519047Y-116702380D01*
X139519047Y-115702380D01*
X138280952Y-116035714D02*
X138280952Y-116702380D01*
X138519047Y-115654761D02*
X138757142Y-116369047D01*
X138138095Y-116369047D01*
X137614285Y-116130952D02*
X137709523Y-116083333D01*
X137757142Y-116035714D01*
X137804761Y-115940476D01*
X137804761Y-115892857D01*
X137757142Y-115797619D01*
X137709523Y-115750000D01*
X137614285Y-115702380D01*
X137423809Y-115702380D01*
X137328571Y-115750000D01*
X137280952Y-115797619D01*
X137233333Y-115892857D01*
X137233333Y-115940476D01*
X137280952Y-116035714D01*
X137328571Y-116083333D01*
X137423809Y-116130952D01*
X137614285Y-116130952D01*
X137709523Y-116178571D01*
X137757142Y-116226190D01*
X137804761Y-116321428D01*
X137804761Y-116511904D01*
X137757142Y-116607142D01*
X137709523Y-116654761D01*
X137614285Y-116702380D01*
X137423809Y-116702380D01*
X137328571Y-116654761D01*
X137280952Y-116607142D01*
X137233333Y-116511904D01*
X137233333Y-116321428D01*
X137280952Y-116226190D01*
X137328571Y-116178571D01*
X137423809Y-116130952D01*
%TO.C,U12*%
X122505554Y-77913204D02*
X123077974Y-77340784D01*
X123178989Y-77307113D01*
X123246332Y-77307113D01*
X123347348Y-77340784D01*
X123482035Y-77475471D01*
X123515706Y-77576487D01*
X123515706Y-77643830D01*
X123482035Y-77744845D01*
X122909615Y-78317265D01*
X124323828Y-78317265D02*
X123919767Y-77913204D01*
X124121798Y-78115235D02*
X123414691Y-78822341D01*
X123448363Y-78653983D01*
X123448363Y-78519296D01*
X123414691Y-78418280D01*
X123953439Y-79226402D02*
X123953439Y-79293746D01*
X123987111Y-79394761D01*
X124155470Y-79563120D01*
X124256485Y-79596792D01*
X124323828Y-79596792D01*
X124424844Y-79563120D01*
X124492187Y-79495776D01*
X124559531Y-79361089D01*
X124559531Y-78552967D01*
X124997263Y-78990700D01*
%TO.C,R48*%
X175298275Y-104716586D02*
X174725856Y-104817601D01*
X174894214Y-104312525D02*
X174187108Y-105019632D01*
X174456482Y-105289006D01*
X174557497Y-105322678D01*
X174624840Y-105322678D01*
X174725856Y-105289006D01*
X174826871Y-105187991D01*
X174860543Y-105086975D01*
X174860543Y-105019632D01*
X174826871Y-104918617D01*
X174557497Y-104649243D01*
X175432963Y-105794082D02*
X175904367Y-105322678D01*
X174995230Y-105895098D02*
X175331947Y-105221662D01*
X175769680Y-105659395D01*
X175971711Y-106198143D02*
X175870695Y-106164472D01*
X175803352Y-106164472D01*
X175702337Y-106198143D01*
X175668665Y-106231815D01*
X175634993Y-106332830D01*
X175634993Y-106400174D01*
X175668665Y-106501189D01*
X175803352Y-106635876D01*
X175904367Y-106669548D01*
X175971711Y-106669548D01*
X176072726Y-106635876D01*
X176106398Y-106602204D01*
X176140069Y-106501189D01*
X176140069Y-106433846D01*
X176106398Y-106332830D01*
X175971711Y-106198143D01*
X175938039Y-106097128D01*
X175938039Y-106029785D01*
X175971711Y-105928769D01*
X176106398Y-105794082D01*
X176207413Y-105760411D01*
X176274756Y-105760411D01*
X176375772Y-105794082D01*
X176510459Y-105928769D01*
X176544130Y-106029785D01*
X176544130Y-106097128D01*
X176510459Y-106198143D01*
X176375772Y-106332830D01*
X176274756Y-106366502D01*
X176207413Y-106366502D01*
X176106398Y-106332830D01*
%TO.C,L64*%
X175504638Y-85993623D02*
X175167921Y-85656906D01*
X174460814Y-86364012D01*
X175336280Y-87239478D02*
X175201593Y-87104791D01*
X175167921Y-87003776D01*
X175167921Y-86936432D01*
X175201593Y-86768074D01*
X175302608Y-86599715D01*
X175571982Y-86330341D01*
X175672997Y-86296669D01*
X175740341Y-86296669D01*
X175841356Y-86330341D01*
X175976043Y-86465028D01*
X176009715Y-86566043D01*
X176009715Y-86633386D01*
X175976043Y-86734402D01*
X175807684Y-86902761D01*
X175706669Y-86936432D01*
X175639326Y-86936432D01*
X175538310Y-86902761D01*
X175403623Y-86768074D01*
X175369951Y-86667058D01*
X175369951Y-86599715D01*
X175403623Y-86498699D01*
X176245417Y-87677211D02*
X176716822Y-87205806D01*
X175807684Y-87778226D02*
X176144402Y-87104791D01*
X176582135Y-87542524D01*
%TO.C,U5*%
X129439221Y-106458781D02*
X129897157Y-106000845D01*
X129977969Y-105973908D01*
X130031844Y-105973908D01*
X130112656Y-106000845D01*
X130220406Y-106108595D01*
X130247343Y-106189407D01*
X130247343Y-106243282D01*
X130220406Y-106324094D01*
X129762470Y-106782030D01*
X130301218Y-107320778D02*
X130031844Y-107051404D01*
X130274280Y-106755093D01*
X130274280Y-106808967D01*
X130301218Y-106889780D01*
X130435905Y-107024467D01*
X130516717Y-107051404D01*
X130570592Y-107051404D01*
X130651404Y-107024467D01*
X130786091Y-106889780D01*
X130813028Y-106808967D01*
X130813028Y-106755093D01*
X130786091Y-106674280D01*
X130651404Y-106539593D01*
X130570592Y-106512656D01*
X130516717Y-106512656D01*
%TO.C,D2*%
X171327579Y-115683755D02*
X170620473Y-114976648D01*
X170452114Y-115145007D01*
X170384770Y-115279694D01*
X170384770Y-115414381D01*
X170418442Y-115515396D01*
X170519457Y-115683755D01*
X170620473Y-115784770D01*
X170788831Y-115885786D01*
X170889847Y-115919457D01*
X171024534Y-115919457D01*
X171159221Y-115852114D01*
X171327579Y-115683755D01*
X170014381Y-115717427D02*
X169947037Y-115717427D01*
X169846022Y-115751098D01*
X169677663Y-115919457D01*
X169643992Y-116020473D01*
X169643992Y-116087816D01*
X169677663Y-116188831D01*
X169745007Y-116256175D01*
X169879694Y-116323518D01*
X170687816Y-116323518D01*
X170250083Y-116761251D01*
%TO.C,L70*%
X164388877Y-91415937D02*
X164725594Y-91079220D01*
X164018488Y-90372113D01*
X163513411Y-90877189D02*
X163042007Y-91348594D01*
X164052159Y-91752655D01*
X162637946Y-91752655D02*
X162570602Y-91819999D01*
X162536930Y-91921014D01*
X162536930Y-91988357D01*
X162570602Y-92089373D01*
X162671617Y-92257731D01*
X162839976Y-92426090D01*
X163008335Y-92527105D01*
X163109350Y-92560777D01*
X163176694Y-92560777D01*
X163277709Y-92527105D01*
X163345052Y-92459762D01*
X163378724Y-92358747D01*
X163378724Y-92291403D01*
X163345052Y-92190388D01*
X163244037Y-92022029D01*
X163075678Y-91853670D01*
X162907320Y-91752655D01*
X162806304Y-91718983D01*
X162738961Y-91718983D01*
X162637946Y-91752655D01*
%TO.C,L68*%
X159221324Y-86531786D02*
X159558041Y-86195069D01*
X158850935Y-85487962D01*
X157975469Y-86363428D02*
X158110156Y-86228741D01*
X158211171Y-86195069D01*
X158278515Y-86195069D01*
X158446874Y-86228741D01*
X158615232Y-86329756D01*
X158884606Y-86599130D01*
X158918278Y-86700145D01*
X158918278Y-86767489D01*
X158884606Y-86868504D01*
X158749919Y-87003191D01*
X158648904Y-87036863D01*
X158581561Y-87036863D01*
X158480545Y-87003191D01*
X158312186Y-86834832D01*
X158278515Y-86733817D01*
X158278515Y-86666474D01*
X158312186Y-86565458D01*
X158446874Y-86430771D01*
X158547889Y-86397099D01*
X158615232Y-86397099D01*
X158716248Y-86430771D01*
X157807110Y-87137878D02*
X157840782Y-87036863D01*
X157840782Y-86969519D01*
X157807110Y-86868504D01*
X157773438Y-86834832D01*
X157672423Y-86801161D01*
X157605080Y-86801161D01*
X157504064Y-86834832D01*
X157369377Y-86969519D01*
X157335706Y-87070535D01*
X157335706Y-87137878D01*
X157369377Y-87238893D01*
X157403049Y-87272565D01*
X157504064Y-87306237D01*
X157571408Y-87306237D01*
X157672423Y-87272565D01*
X157807110Y-87137878D01*
X157908125Y-87104206D01*
X157975469Y-87104206D01*
X158076484Y-87137878D01*
X158211171Y-87272565D01*
X158244843Y-87373580D01*
X158244843Y-87440924D01*
X158211171Y-87541939D01*
X158076484Y-87676626D01*
X157975469Y-87710298D01*
X157908125Y-87710298D01*
X157807110Y-87676626D01*
X157672423Y-87541939D01*
X157638751Y-87440924D01*
X157638751Y-87373580D01*
X157672423Y-87272565D01*
%TO.C,L11*%
X141793576Y-106746838D02*
X142130293Y-106410121D01*
X141423187Y-105703014D01*
X141187484Y-107352930D02*
X141591545Y-106948869D01*
X141389515Y-107150900D02*
X140682408Y-106443793D01*
X140850767Y-106477464D01*
X140985454Y-106477464D01*
X141086469Y-106443793D01*
X140514049Y-108026365D02*
X140918110Y-107622304D01*
X140716080Y-107824335D02*
X140008973Y-107117228D01*
X140177332Y-107150900D01*
X140312019Y-107150900D01*
X140413034Y-107117228D01*
%TO.C,L35*%
X169279724Y-81299386D02*
X169616441Y-80962669D01*
X168909335Y-80255562D01*
X168404258Y-80760638D02*
X167966525Y-81198371D01*
X168471602Y-81232043D01*
X168370586Y-81333058D01*
X168336915Y-81434074D01*
X168336915Y-81501417D01*
X168370586Y-81602432D01*
X168538945Y-81770791D01*
X168639961Y-81804463D01*
X168707304Y-81804463D01*
X168808319Y-81770791D01*
X169010350Y-81568761D01*
X169044022Y-81467745D01*
X169044022Y-81400402D01*
X167326762Y-81838135D02*
X167663480Y-81501417D01*
X168033869Y-81804463D01*
X167966525Y-81804463D01*
X167865510Y-81838135D01*
X167697151Y-82006493D01*
X167663480Y-82107509D01*
X167663480Y-82174852D01*
X167697151Y-82275867D01*
X167865510Y-82444226D01*
X167966525Y-82477898D01*
X168033869Y-82477898D01*
X168134884Y-82444226D01*
X168303243Y-82275867D01*
X168336915Y-82174852D01*
X168336915Y-82107509D01*
%TO.C,L28*%
X185004238Y-105018223D02*
X184667521Y-104681506D01*
X183960414Y-105388612D01*
X184566506Y-105860017D02*
X184566506Y-105927361D01*
X184600177Y-106028376D01*
X184768536Y-106196735D01*
X184869551Y-106230406D01*
X184936895Y-106230406D01*
X185037910Y-106196735D01*
X185105254Y-106129391D01*
X185172597Y-105994704D01*
X185172597Y-105186582D01*
X185610330Y-105624315D01*
X185610330Y-106432437D02*
X185509315Y-106398765D01*
X185441971Y-106398765D01*
X185340956Y-106432437D01*
X185307284Y-106466109D01*
X185273613Y-106567124D01*
X185273613Y-106634467D01*
X185307284Y-106735483D01*
X185441971Y-106870170D01*
X185542987Y-106903841D01*
X185610330Y-106903841D01*
X185711345Y-106870170D01*
X185745017Y-106836498D01*
X185778689Y-106735483D01*
X185778689Y-106668139D01*
X185745017Y-106567124D01*
X185610330Y-106432437D01*
X185576658Y-106331422D01*
X185576658Y-106264078D01*
X185610330Y-106163063D01*
X185745017Y-106028376D01*
X185846032Y-105994704D01*
X185913376Y-105994704D01*
X186014391Y-106028376D01*
X186149078Y-106163063D01*
X186182750Y-106264078D01*
X186182750Y-106331422D01*
X186149078Y-106432437D01*
X186014391Y-106567124D01*
X185913376Y-106600796D01*
X185846032Y-106600796D01*
X185745017Y-106567124D01*
%TO.C,L34*%
X186680638Y-97931623D02*
X186343921Y-97594906D01*
X185636814Y-98302012D01*
X186141890Y-98807089D02*
X186579623Y-99244822D01*
X186613295Y-98739745D01*
X186714310Y-98840761D01*
X186815326Y-98874432D01*
X186882669Y-98874432D01*
X186983684Y-98840761D01*
X187152043Y-98672402D01*
X187185715Y-98571386D01*
X187185715Y-98504043D01*
X187152043Y-98403028D01*
X186950013Y-98200997D01*
X186848997Y-98167325D01*
X186781654Y-98167325D01*
X187421417Y-99615211D02*
X187892822Y-99143806D01*
X186983684Y-99716226D02*
X187320402Y-99042791D01*
X187758135Y-99480524D01*
D12*
%TO.C,C78*%
X162452507Y-104680839D02*
X161631455Y-105501891D01*
X162452507Y-105501891D02*
X161631455Y-104680839D01*
D10*
%TO.C,L66*%
X161451087Y-87147976D02*
X161114370Y-86811259D01*
X160407263Y-87518365D01*
X161282729Y-88393831D02*
X161148042Y-88259144D01*
X161114370Y-88158129D01*
X161114370Y-88090785D01*
X161148042Y-87922427D01*
X161249057Y-87754068D01*
X161518431Y-87484694D01*
X161619446Y-87451022D01*
X161686790Y-87451022D01*
X161787805Y-87484694D01*
X161922492Y-87619381D01*
X161956164Y-87720396D01*
X161956164Y-87787739D01*
X161922492Y-87888755D01*
X161754133Y-88057114D01*
X161653118Y-88090785D01*
X161585775Y-88090785D01*
X161484759Y-88057114D01*
X161350072Y-87922427D01*
X161316400Y-87821411D01*
X161316400Y-87754068D01*
X161350072Y-87653052D01*
X161956164Y-89067266D02*
X161821477Y-88932579D01*
X161787805Y-88831564D01*
X161787805Y-88764220D01*
X161821477Y-88595862D01*
X161922492Y-88427503D01*
X162191866Y-88158129D01*
X162292881Y-88124457D01*
X162360225Y-88124457D01*
X162461240Y-88158129D01*
X162595927Y-88292816D01*
X162629599Y-88393831D01*
X162629599Y-88461175D01*
X162595927Y-88562190D01*
X162427568Y-88730549D01*
X162326553Y-88764220D01*
X162259210Y-88764220D01*
X162158194Y-88730549D01*
X162023507Y-88595862D01*
X161989836Y-88494846D01*
X161989836Y-88427503D01*
X162023507Y-88326488D01*
D13*
%TO.C,R8*%
X130325897Y-82045830D02*
X130661430Y-81710297D01*
X129586970Y-81306903D02*
X129922503Y-80971370D01*
%TO.C,R5*%
X128324630Y-83894697D02*
X127989097Y-84230230D01*
X127585703Y-83155770D02*
X127250170Y-83491303D01*
%TO.C,C20*%
X132239970Y-98138781D02*
X132438781Y-97939970D01*
X132961219Y-98860030D02*
X133160030Y-98661219D01*
%TO.C,C19*%
X131719093Y-97405872D02*
X131917904Y-97207061D01*
X130997844Y-96684623D02*
X131196655Y-96485812D01*
%TO.C,D1*%
X127758400Y-131977400D02*
X122358400Y-131977400D01*
X127758400Y-128677400D02*
X122358400Y-128677400D01*
X127758400Y-128677400D02*
X127758400Y-131977400D01*
%TO.C,C7*%
X130003427Y-84950801D02*
X130202238Y-85149612D01*
X129282178Y-85672050D02*
X129480989Y-85870861D01*
%TO.C,C1*%
X130421781Y-72031570D02*
X130222970Y-72230381D01*
X131143030Y-72752819D02*
X130944219Y-72951630D01*
%TO.C,C6*%
X130425178Y-84656050D02*
X130623989Y-84854861D01*
X131146427Y-83934801D02*
X131345238Y-84133612D01*
%TO.C,C2*%
X130050830Y-71686019D02*
X129852019Y-71884830D01*
X129329581Y-70964770D02*
X129130770Y-71163581D01*
%TO.C,R11*%
X130329740Y-78262067D02*
X129994207Y-77926534D01*
X131068667Y-77523140D02*
X130733134Y-77187607D01*
%TO.C,R7*%
X131720570Y-81408503D02*
X132056103Y-81072970D01*
X132459497Y-82147430D02*
X132795030Y-81811897D01*
%TO.C,R4*%
X134215103Y-78913970D02*
X133879570Y-79249503D01*
X134954030Y-79652897D02*
X134618497Y-79988430D01*
%TO.C,C27*%
X140034990Y-120961543D02*
X140404457Y-121331010D01*
X138995543Y-122000990D02*
X139365010Y-122370457D01*
%TO.C,C22*%
X143136219Y-109172030D02*
X143335030Y-108973219D01*
X142414970Y-108450781D02*
X142613781Y-108251970D01*
%TO.C,C21*%
X141761219Y-107660030D02*
X141960030Y-107461219D01*
X141039970Y-106938781D02*
X141238781Y-106739970D01*
%TO.C,R33*%
X127905399Y-115560964D02*
X128240932Y-115225431D01*
X127166472Y-114822037D02*
X127502005Y-114486504D01*
%TO.C,R28*%
X130581940Y-101434384D02*
X130917473Y-101098851D01*
X129843013Y-100695457D02*
X130178546Y-100359924D01*
%TO.C,R32*%
X125211322Y-112795047D02*
X125546855Y-112459514D01*
X124472395Y-112056120D02*
X124807928Y-111720587D01*
%TO.C,R31*%
X124043888Y-111627613D02*
X124379421Y-111292080D01*
X123304961Y-110888686D02*
X123640494Y-110553153D01*
%TO.C,R27*%
X128406173Y-99258616D02*
X128741706Y-98923083D01*
X129145100Y-99997543D02*
X129480633Y-99662010D01*
%TO.C,R30*%
X140738822Y-111591266D02*
X141074355Y-111255733D01*
X139999895Y-110852339D02*
X140335428Y-110516806D01*
%TO.C,R34*%
X128333905Y-115989472D02*
X128669438Y-115653939D01*
X129072832Y-116728399D02*
X129408365Y-116392866D01*
%TO.C,C5*%
X133931370Y-82912819D02*
X134130181Y-83111630D01*
X134652619Y-82191570D02*
X134851430Y-82390381D01*
%TO.C,C4*%
X135708627Y-81139378D02*
X135907438Y-81338189D01*
X134987378Y-81860627D02*
X135186189Y-82059438D01*
%TO.C,C28*%
X140739970Y-120403219D02*
X140938781Y-120602030D01*
X141461219Y-119681970D02*
X141660030Y-119880781D01*
%TO.C,C17*%
X130561219Y-92660030D02*
X130760030Y-92461219D01*
X129839970Y-91938781D02*
X130038781Y-91739970D01*
%TO.C,C18*%
X137080970Y-99332181D02*
X137279781Y-99133370D01*
X137802219Y-100053430D02*
X138001030Y-99854619D01*
%TO.C,C25*%
X132557863Y-115854112D02*
X132756674Y-116052923D01*
X133279112Y-115132863D02*
X133477923Y-115331674D01*
%TO.C,C26*%
X125722781Y-113052570D02*
X125523970Y-113251381D01*
X126444030Y-113773819D02*
X126245219Y-113972630D01*
%TO.C,C23*%
X125501502Y-106035290D02*
X125700313Y-106234101D01*
X126222751Y-105314041D02*
X126421562Y-105512852D01*
%TO.C,C12*%
X137139970Y-87761219D02*
X137338781Y-87960030D01*
X137861219Y-87039970D02*
X138060030Y-87238781D01*
%TO.C,C24*%
X134032863Y-114404112D02*
X134231674Y-114602923D01*
X134754112Y-113682863D02*
X134952923Y-113881674D01*
%TO.C,C3*%
X126118219Y-72469030D02*
X126317030Y-72270219D01*
X125396970Y-71747781D02*
X125595781Y-71548970D01*
%TO.C,R29*%
X138563052Y-109415499D02*
X138898585Y-109079966D01*
X139301979Y-110154426D02*
X139637512Y-109818893D01*
%TO.C,L9*%
X132817313Y-93613221D02*
X133186779Y-93982687D01*
X131813221Y-94617313D02*
X132182687Y-94986779D01*
%TO.C,L13*%
X135090087Y-98171979D02*
X134720621Y-97802513D01*
X136094179Y-97167887D02*
X135724713Y-96798421D01*
%TO.C,C41*%
X145838781Y-72960030D02*
X145639970Y-72761219D01*
X146560030Y-72238781D02*
X146361219Y-72039970D01*
%TO.C,C43*%
X156192562Y-61790811D02*
X156391373Y-61989622D01*
X156913811Y-61069562D02*
X157112622Y-61268373D01*
%TO.C,C59*%
X142038781Y-75539970D02*
X141839970Y-75738781D01*
X142760030Y-76261219D02*
X142561219Y-76460030D01*
%TO.C,C62*%
X155323830Y-84055819D02*
X155125019Y-84254630D01*
X154602581Y-83334570D02*
X154403770Y-83533381D01*
%TO.C,C14*%
X127362852Y-47042400D02*
X126840348Y-47042400D01*
X127362852Y-48512400D02*
X126840348Y-48512400D01*
%TO.C,C32*%
X132737570Y-50157781D02*
X132936381Y-49958970D01*
X133458819Y-50879030D02*
X133657630Y-50680219D01*
%TO.C,C47*%
X139880630Y-58234981D02*
X139681819Y-58036170D01*
X139159381Y-58956230D02*
X138960570Y-58757419D01*
%TO.C,C49*%
X145788781Y-67770030D02*
X145589970Y-67571219D01*
X146510030Y-67048781D02*
X146311219Y-66849970D01*
%TO.C,C29*%
X146819219Y-77803030D02*
X147018030Y-77604219D01*
X146097970Y-77081781D02*
X146296781Y-76882970D01*
%TO.C,C35*%
X142147110Y-85441297D02*
X141948299Y-85640108D01*
X141425861Y-84720048D02*
X141227050Y-84918859D01*
%TO.C,C58*%
X151960030Y-67161219D02*
X151761219Y-67360030D01*
X151238781Y-66439970D02*
X151039970Y-66638781D01*
%TO.C,C63*%
X156558381Y-69643970D02*
X156359570Y-69842781D01*
X157279630Y-70365219D02*
X157080819Y-70564030D01*
%TO.C,C65*%
X155160030Y-76138781D02*
X154961219Y-75939970D01*
X154438781Y-76860030D02*
X154239970Y-76661219D01*
%TO.C,C31*%
X137776852Y-47067800D02*
X137254348Y-47067800D01*
X137776852Y-48537800D02*
X137254348Y-48537800D01*
%TO.C,C45*%
X137116419Y-54587430D02*
X137315230Y-54388619D01*
X136395170Y-53866181D02*
X136593981Y-53667370D01*
%TO.C,C33*%
X141383619Y-56283570D02*
X141582430Y-56482381D01*
X140662370Y-57004819D02*
X140861181Y-57203630D01*
%TO.C,C50*%
X149939030Y-63619781D02*
X149740219Y-63420970D01*
X149217781Y-64341030D02*
X149018970Y-64142219D01*
%TO.C,C36*%
X144264781Y-87639970D02*
X144065970Y-87838781D01*
X144986030Y-88361219D02*
X144787219Y-88560030D01*
%TO.C,C37*%
X152349161Y-95597868D02*
X152150350Y-95796679D01*
X151627912Y-94876619D02*
X151429101Y-95075430D01*
%TO.C,C38*%
X155222230Y-98432219D02*
X155023419Y-98631030D01*
X154500981Y-97710970D02*
X154302170Y-97909781D01*
%TO.C,C44*%
X178630811Y-83065962D02*
X178829622Y-83264773D01*
X177909562Y-83787211D02*
X178108373Y-83986022D01*
%TO.C,C60*%
X164421419Y-97945230D02*
X164620230Y-97746419D01*
X163700170Y-97223981D02*
X163898981Y-97025170D01*
%TO.C,C61*%
X156445819Y-85499230D02*
X156644630Y-85300419D01*
X155724570Y-84777981D02*
X155923381Y-84579170D01*
%TO.C,L18*%
X143751487Y-70384379D02*
X143382021Y-70014913D01*
X144755579Y-69380287D02*
X144386113Y-69010821D01*
%TO.C,L22*%
X152717687Y-61138779D02*
X152348221Y-60769313D01*
X153721779Y-60134687D02*
X153352313Y-59765221D01*
%TO.C,L40*%
X140982687Y-78713221D02*
X140613221Y-79082687D01*
X141986779Y-79717313D02*
X141617313Y-80086779D01*
%TO.C,L44*%
X149923687Y-87705221D02*
X149554221Y-88074687D01*
X150927779Y-88709313D02*
X150558313Y-89078779D01*
%TO.C,L19*%
X142035821Y-66764087D02*
X142405287Y-66394621D01*
X143039913Y-67768179D02*
X143409379Y-67398713D01*
%TO.C,L23*%
X149390287Y-59409621D02*
X149020821Y-59779087D01*
X150394379Y-60413713D02*
X150024913Y-60783179D01*
%TO.C,L41*%
X139597421Y-82740313D02*
X139966887Y-83109779D01*
X140601513Y-81736221D02*
X140970979Y-82105687D01*
%TO.C,L45*%
X147028087Y-90450379D02*
X146658621Y-90080913D01*
X148032179Y-89446287D02*
X147662713Y-89076821D01*
%TO.C,L58*%
X148907313Y-66750221D02*
X149276779Y-67119687D01*
X147903221Y-67754313D02*
X148272687Y-68123779D01*
%TO.C,L69*%
X149034687Y-76656221D02*
X148665221Y-77025687D01*
X150038779Y-77660313D02*
X149669313Y-78029779D01*
%TO.C,L17*%
X133755421Y-51320887D02*
X134124887Y-50951421D01*
X134759513Y-52324979D02*
X135128979Y-51955513D01*
%TO.C,L54*%
X137387621Y-55156287D02*
X137757087Y-54786821D01*
X138391713Y-56160379D02*
X138761179Y-55790913D01*
%TO.C,L30*%
X153530113Y-68555579D02*
X153899579Y-68186113D01*
X152526021Y-67551487D02*
X152895487Y-67182021D01*
%TO.C,L36*%
X158717313Y-71786779D02*
X159086779Y-71417313D01*
X157713221Y-70782687D02*
X158082687Y-70413221D01*
%TO.C,L67*%
X153174513Y-76453021D02*
X153543979Y-76822487D01*
X152170421Y-77457113D02*
X152539887Y-77826579D01*
%TO.C,L59*%
X152082687Y-64786779D02*
X151713221Y-64417313D01*
X153086779Y-63782687D02*
X152717313Y-63413221D01*
%TO.C,L63*%
X153135621Y-79667287D02*
X153505087Y-79297821D01*
X154139713Y-80671379D02*
X154509179Y-80301913D01*
%TO.C,L24*%
X179018221Y-90792487D02*
X179387687Y-90423021D01*
X180022313Y-91796579D02*
X180391779Y-91427113D01*
%TO.C,L42*%
X157917313Y-98813221D02*
X158286779Y-99182687D01*
X156913221Y-99817313D02*
X157282687Y-100186779D01*
%TO.C,L46*%
X151308779Y-92519687D02*
X150939313Y-92150221D01*
X150304687Y-93523779D02*
X149935221Y-93154313D01*
%TO.C,L25*%
X180529478Y-86967786D02*
X180160012Y-86598320D01*
X179525386Y-87971878D02*
X179155920Y-87602412D01*
%TO.C,L43*%
X160917313Y-99386779D02*
X161286779Y-99017313D01*
X159913221Y-98382687D02*
X160282687Y-98013221D01*
%TO.C,L47*%
X151955313Y-90475779D02*
X152324779Y-90106313D01*
X150951221Y-89471687D02*
X151320687Y-89102221D01*
%TO.C,R35*%
X147837230Y-71098303D02*
X147501697Y-70762770D01*
X147098303Y-71837230D02*
X146762770Y-71501697D01*
%TO.C,R37*%
X155802097Y-62048370D02*
X156137630Y-62383903D01*
X155063170Y-62787297D02*
X155398703Y-63122830D01*
%TO.C,R39*%
X144174230Y-77290697D02*
X143838697Y-77626230D01*
X143435303Y-76551770D02*
X143099770Y-76887303D01*
%TO.C,R41*%
X152801697Y-86637230D02*
X153137230Y-86301697D01*
X152062770Y-85898303D02*
X152398303Y-85562770D01*
%TO.C,R38*%
X177418334Y-84223407D02*
X177753867Y-84558940D01*
X176679407Y-84962334D02*
X177014940Y-85297867D01*
%TO.C,R40*%
X162403770Y-96191303D02*
X162739303Y-95855770D01*
X163142697Y-96930230D02*
X163478230Y-96594697D01*
%TO.C,R42*%
X153698303Y-86862770D02*
X153362770Y-87198303D01*
X154437230Y-87601697D02*
X154101697Y-87937230D01*
D14*
%TO.C,U8*%
X142488063Y-83019296D02*
X143052334Y-82455025D01*
X146200374Y-79239103D02*
X146764645Y-78674832D01*
X151075168Y-82985355D02*
X150510897Y-83549626D01*
X147328916Y-86731607D02*
X146764645Y-87295878D01*
D15*
X146170117Y-78389161D02*
G75*
G03*
X146170117Y-78389161I-254000J0D01*
G01*
D14*
%TO.C,U9*%
X161325168Y-93135355D02*
X160760897Y-93699626D01*
X157578916Y-96881607D02*
X157014645Y-97445878D01*
X156450374Y-89389103D02*
X157014645Y-88824832D01*
X152738063Y-93169296D02*
X153302334Y-92605025D01*
D15*
X156420117Y-88539161D02*
G75*
G03*
X156420117Y-88539161I-254000J0D01*
G01*
D13*
%TO.C,R36*%
X167695467Y-93956940D02*
X167359934Y-93621407D01*
X166956540Y-94695867D02*
X166621007Y-94360334D01*
%TO.C,C42*%
X167835981Y-93424030D02*
X167637170Y-93225219D01*
X168557230Y-92702781D02*
X168358419Y-92503970D01*
%TO.C,L20*%
X173432179Y-98564513D02*
X173062713Y-98933979D01*
X172428087Y-97560421D02*
X172058621Y-97929887D01*
%TO.C,L21*%
X169670186Y-97522278D02*
X169300720Y-97152812D01*
X170674278Y-96518186D02*
X170304812Y-96148720D01*
%TO.C,L8*%
X128713221Y-95482687D02*
X129082687Y-95113221D01*
X129717313Y-96486779D02*
X130086779Y-96117313D01*
%TO.C,L10*%
X141832621Y-105016113D02*
X142202087Y-105385579D01*
X142836713Y-104012021D02*
X143206179Y-104381487D01*
%TO.C,R25*%
X138967230Y-104849697D02*
X138631697Y-105185230D01*
X138228303Y-104110770D02*
X137892770Y-104446303D01*
%TO.C,R3*%
X146598303Y-96662770D02*
X146262770Y-96998303D01*
X147337230Y-97401697D02*
X147001697Y-97737230D01*
%TO.C,C56*%
X175358770Y-91853619D02*
X175557581Y-92052430D01*
X176080019Y-91132370D02*
X176278830Y-91331181D01*
%TO.C,L39*%
X156386779Y-74017313D02*
X156017313Y-74386779D01*
X155382687Y-73013221D02*
X155013221Y-73382687D01*
%TO.C,C34*%
X191670000Y-100398252D02*
X191670000Y-99875748D01*
X193140000Y-100398252D02*
X193140000Y-99875748D01*
%TO.C,C64*%
X164431638Y-85224389D02*
X164232827Y-85025578D01*
X163710389Y-85945638D02*
X163511578Y-85746827D01*
%TO.C,L14*%
X134225152Y-47169000D02*
X133702648Y-47169000D01*
X134225152Y-48589000D02*
X133702648Y-48589000D01*
%TO.C,L7*%
X143661421Y-110147287D02*
X144030887Y-109777821D01*
X144665513Y-111151379D02*
X145034979Y-110781913D01*
%TO.C,L29*%
X171081887Y-86054221D02*
X170712421Y-86423687D01*
X172085979Y-87058313D02*
X171716513Y-87427779D01*
%TO.C,L37*%
X164604887Y-81152021D02*
X164235421Y-81521487D01*
X165608979Y-82156113D02*
X165239513Y-82525579D01*
%TO.C,L53*%
X137133621Y-51317313D02*
X137503087Y-51686779D01*
X138137713Y-50313221D02*
X138507179Y-50682687D01*
%TO.C,L15*%
X193115000Y-103497748D02*
X193115000Y-104020252D01*
X191695000Y-103497748D02*
X191695000Y-104020252D01*
%TO.C,L32*%
X167969221Y-88074313D02*
X168338687Y-88443779D01*
X168973313Y-87070221D02*
X169342779Y-87439687D01*
%TO.C,R24*%
X128737230Y-94501697D02*
X128401697Y-94837230D01*
X127998303Y-93762770D02*
X127662770Y-94098303D01*
%TO.C,R52*%
X172413697Y-103729770D02*
X172749230Y-104065303D01*
X171674770Y-104468697D02*
X172010303Y-104804230D01*
%TO.C,C11*%
X153757978Y-104314227D02*
X153956789Y-104513038D01*
X154479227Y-103592978D02*
X154678038Y-103791789D01*
%TO.C,C13*%
X148267019Y-98808830D02*
X148465830Y-98610019D01*
X147545770Y-98087581D02*
X147744581Y-97888770D01*
%TO.C,C66*%
X147403419Y-114252030D02*
X147602230Y-114053219D01*
X146682170Y-113530781D02*
X146880981Y-113331970D01*
%TO.C,L62*%
X186753687Y-105053421D02*
X186384221Y-105422887D01*
X187757779Y-106057513D02*
X187388313Y-106426979D01*
%TO.C,C74*%
X165665361Y-104897392D02*
X165295894Y-105266859D01*
X166704808Y-105936839D02*
X166335341Y-106306306D01*
%TO.C,C82*%
X157483573Y-106058622D02*
X157284762Y-105859811D01*
X158204822Y-105337373D02*
X158006011Y-105138562D01*
%TO.C,L51*%
X160128852Y-103277600D02*
X159606348Y-103277600D01*
X160128852Y-104697600D02*
X159606348Y-104697600D01*
%TO.C,L5*%
X129113221Y-50817313D02*
X129482687Y-51186779D01*
X130117313Y-49813221D02*
X130486779Y-50182687D01*
%TO.C,U1*%
X156917872Y-115303924D02*
X156026918Y-114412970D01*
X152095404Y-110481456D02*
X152986358Y-111372410D01*
X152668160Y-119553636D02*
X156917872Y-115303924D01*
X149436682Y-113140177D02*
X152095404Y-110481456D01*
%TO.C,C80*%
X156205210Y-107714657D02*
X155835743Y-107345190D01*
X157244657Y-106675210D02*
X156875190Y-106305743D01*
%TO.C,L56*%
X141378214Y-53582322D02*
X141747680Y-53951788D01*
X140374122Y-54586414D02*
X140743588Y-54955880D01*
%TO.C,L12*%
X133313221Y-100182687D02*
X133682687Y-99813221D01*
X134317313Y-101186779D02*
X134686779Y-100817313D01*
%TO.C,R12*%
X128751097Y-73173570D02*
X129086630Y-73509103D01*
X128012170Y-73912497D02*
X128347703Y-74248030D01*
%TO.C,R2*%
X138555497Y-84839830D02*
X138891030Y-84504297D01*
X137816570Y-84100903D02*
X138152103Y-83765370D01*
%TO.C,R1*%
X155291770Y-102512897D02*
X155627303Y-102848430D01*
X156030697Y-101773970D02*
X156366230Y-102109503D01*
%TO.C,C9*%
X153499419Y-106835230D02*
X153698230Y-106636419D01*
X152778170Y-106113981D02*
X152976981Y-105915170D01*
%TO.C,C53*%
X162125370Y-93083781D02*
X162324181Y-92884970D01*
X162846619Y-93805030D02*
X163045430Y-93606219D01*
%TO.C,L52*%
X133247421Y-55486113D02*
X133616887Y-55855579D01*
X134251513Y-54482021D02*
X134620979Y-54851487D01*
%TO.C,C68*%
X168422610Y-105873943D02*
X168053143Y-106243410D01*
X169462057Y-106913390D02*
X169092590Y-107282857D01*
%TO.C,L55*%
X136219221Y-58737313D02*
X136588687Y-59106779D01*
X137223313Y-57733221D02*
X137592779Y-58102687D01*
%TO.C,L3*%
X150304313Y-96341221D02*
X150673779Y-96710687D01*
X149300221Y-97345313D02*
X149669687Y-97714779D01*
%TO.C,L16*%
X188760287Y-110567179D02*
X188390821Y-110197713D01*
X189764379Y-109563087D02*
X189394913Y-109193621D01*
%TO.C,L33*%
X183705687Y-102030821D02*
X183336221Y-102400287D01*
X184709779Y-103034913D02*
X184340313Y-103404379D01*
%TO.C,L27*%
X188023687Y-103201179D02*
X187654221Y-102831713D01*
X189027779Y-102197087D02*
X188658313Y-101827621D01*
%TO.C,C76*%
X164104610Y-103384743D02*
X163735143Y-103754210D01*
X165144057Y-104424190D02*
X164774590Y-104793657D01*
%TO.C,C52*%
X169948570Y-83990581D02*
X170147381Y-83791770D01*
X170669819Y-84711830D02*
X170868630Y-84513019D01*
%TO.C,L6*%
X145097687Y-108331979D02*
X144728221Y-107962513D01*
X146101779Y-107327887D02*
X145732313Y-106958421D01*
%TO.C,L38*%
X165403821Y-82969287D02*
X165773287Y-82599821D01*
X166407913Y-83973379D02*
X166777379Y-83603913D01*
%TO.C,C40*%
X188928030Y-107119019D02*
X188729219Y-107317830D01*
X188206781Y-106397770D02*
X188007970Y-106596581D01*
%TO.C,R15*%
X127461030Y-80925903D02*
X127125497Y-80590370D01*
X126722103Y-81664830D02*
X126386570Y-81329297D01*
%TO.C,U3*%
X146953410Y-100946652D02*
X145397775Y-102502287D01*
X150644508Y-104637750D02*
X152200143Y-103082115D01*
X150644508Y-104637750D02*
X149088873Y-106193385D01*
X146953410Y-100946652D02*
X149498995Y-98401068D01*
%TO.C,R23*%
X145264103Y-111273570D02*
X144928570Y-111609103D01*
X146003030Y-112012497D02*
X145667497Y-112348030D01*
%TO.C,L61*%
X156654687Y-67488779D02*
X156285221Y-67119313D01*
X157658779Y-66484687D02*
X157289313Y-66115221D01*
%TO.C,TH1*%
X141180282Y-98040835D02*
X140859165Y-97719718D01*
X140140835Y-99080282D02*
X139819718Y-98759165D01*
%TO.C,C46*%
X185133381Y-103527570D02*
X184934570Y-103726381D01*
X185854630Y-104248819D02*
X185655819Y-104447630D01*
%TO.C,L26*%
X170077421Y-91681113D02*
X170446887Y-92050579D01*
X171081513Y-90677021D02*
X171450979Y-91046487D01*
%TO.C,L4*%
X143786779Y-89573287D02*
X143417313Y-89203821D01*
X142782687Y-90577379D02*
X142413221Y-90207913D01*
%TO.C,C69*%
X144197400Y-118585348D02*
X144197400Y-119107852D01*
X145667400Y-118585348D02*
X145667400Y-119107852D01*
%TO.C,C55*%
X183344419Y-99260370D02*
X183543230Y-99459181D01*
X182623170Y-99981619D02*
X182821981Y-100180430D01*
%TO.C,R26*%
X135970030Y-102301697D02*
X135634497Y-102637230D01*
X135231103Y-101562770D02*
X134895570Y-101898303D01*
D14*
%TO.C,U6*%
X147916652Y-61056129D02*
X148480923Y-61620400D01*
X144170400Y-57309877D02*
X144734671Y-57874148D01*
X140424148Y-62184671D02*
X139859877Y-61620400D01*
X144204341Y-65896982D02*
X143640070Y-65332711D01*
D15*
X139828206Y-62468928D02*
G75*
G03*
X139828206Y-62468928I-254000J0D01*
G01*
D13*
%TO.C,L2*%
X140217313Y-86413221D02*
X140586779Y-86782687D01*
X139213221Y-87417313D02*
X139582687Y-87786779D01*
%TO.C,R13*%
X129262103Y-79328030D02*
X128926570Y-78992497D01*
X130001030Y-78589103D02*
X129665497Y-78253570D01*
%TO.C,R14*%
X128629430Y-79859103D02*
X128293897Y-79523570D01*
X127890503Y-80598030D02*
X127554970Y-80262497D01*
%TO.C,U11*%
X171013521Y-108251105D02*
X170447836Y-108816791D01*
X171013521Y-108251105D02*
X171579207Y-107685420D01*
X173219695Y-110457279D02*
X171946902Y-111730071D01*
X173219695Y-110457279D02*
X173785380Y-109891593D01*
%TO.C,L60*%
X153313221Y-71317313D02*
X153682687Y-71686779D01*
X154317313Y-70313221D02*
X154686779Y-70682687D01*
%TO.C,L57*%
X182017379Y-103924287D02*
X181647913Y-103554821D01*
X181013287Y-104928379D02*
X180643821Y-104558913D01*
%TO.C,C54*%
X156257970Y-87622781D02*
X156456781Y-87423970D01*
X156979219Y-88344030D02*
X157178030Y-88145219D01*
%TO.C,R54*%
X144306058Y-114568500D02*
X143831542Y-114568500D01*
X144306058Y-113523500D02*
X143831542Y-113523500D01*
%TO.C,C57*%
X173286019Y-93570770D02*
X173484830Y-93769581D01*
X172564770Y-94292019D02*
X172763581Y-94490830D01*
%TO.C,R16*%
X166819718Y-117859165D02*
X167140835Y-118180282D01*
X167859165Y-116819718D02*
X168180282Y-117140835D01*
%TO.C,R9*%
X143463030Y-93724497D02*
X143127497Y-94060030D01*
X142724103Y-92985570D02*
X142388570Y-93321103D01*
%TO.C,C10*%
X144243027Y-95287178D02*
X144441838Y-95485989D01*
X143521778Y-96008427D02*
X143720589Y-96207238D01*
%TO.C,C72*%
X175176581Y-111483430D02*
X174977770Y-111284619D01*
X175897830Y-110762181D02*
X175699019Y-110563370D01*
%TO.C,C51*%
X171599570Y-88638781D02*
X171798381Y-88439970D01*
X172320819Y-89360030D02*
X172519630Y-89161219D01*
%TO.C,C15*%
X140128970Y-102100781D02*
X140327781Y-101901970D01*
X140850219Y-102822030D02*
X141049030Y-102623219D01*
%TO.C,R10*%
X152296897Y-105744030D02*
X152632430Y-105408497D01*
X151557970Y-105005103D02*
X151893503Y-104669570D01*
%TO.C,L31*%
X173787779Y-83197887D02*
X173418313Y-82828421D01*
X172783687Y-84201979D02*
X172414221Y-83832513D01*
%TO.C,C67*%
X146859970Y-117228219D02*
X147058781Y-117427030D01*
X147581219Y-116506970D02*
X147780030Y-116705781D01*
%TO.C,L1*%
X152782687Y-100886779D02*
X152413221Y-100517313D01*
X153786779Y-99882687D02*
X153417313Y-99513221D01*
%TO.C,C39*%
X191568400Y-110598852D02*
X191568400Y-110076348D01*
X193038400Y-110598852D02*
X193038400Y-110076348D01*
D14*
%TO.C,U7*%
X178194993Y-92395818D02*
X178759264Y-92960089D01*
X178228934Y-100982923D02*
X177664663Y-100418652D01*
X181975186Y-96108129D02*
X182539457Y-96672400D01*
X174482682Y-97236671D02*
X173918411Y-96672400D01*
D15*
X183079128Y-95823872D02*
G75*
G03*
X183079128Y-95823872I-254000J0D01*
G01*
D13*
%TO.C,L65*%
X158517313Y-75286779D02*
X158886779Y-74917313D01*
X157513221Y-74282687D02*
X157882687Y-73913221D01*
%TO.C,L48*%
X138661252Y-118610000D02*
X138138748Y-118610000D01*
X138661252Y-117190000D02*
X138138748Y-117190000D01*
%TO.C,C70*%
X170447622Y-108149627D02*
X170248811Y-108348438D01*
X169726373Y-107428378D02*
X169527562Y-107627189D01*
%TO.C,C48*%
X181638230Y-101414981D02*
X181439419Y-101216170D01*
X180916981Y-102136230D02*
X180718170Y-101937419D01*
%TO.C,U12*%
X125748144Y-78698430D02*
X126084020Y-78362554D01*
X125412268Y-78362554D02*
X125748144Y-78698430D01*
X128025028Y-76421546D02*
X127689152Y-76757422D01*
X123807136Y-76757422D02*
X123471260Y-76421546D01*
X127689152Y-76085670D02*
X128025028Y-76421546D01*
X126084020Y-74480538D02*
X125748144Y-74144662D01*
X125748144Y-74144662D02*
X125412268Y-74480538D01*
%TO.C,R48*%
X174959030Y-106300503D02*
X174623497Y-105964970D01*
X174220103Y-107039430D02*
X173884570Y-106703897D01*
%TO.C,C8*%
X145473019Y-94053370D02*
X145671830Y-94252181D01*
X144751770Y-94774619D02*
X144950581Y-94973430D01*
%TO.C,U2*%
X140487627Y-94480869D02*
X138931992Y-96036504D01*
X140487627Y-94480869D02*
X142043262Y-92925234D01*
X136796529Y-90789771D02*
X135240894Y-92345406D01*
X136796529Y-90789771D02*
X139342114Y-88244187D01*
%TO.C,L64*%
X174155287Y-88621579D02*
X173785821Y-88252113D01*
X175159379Y-87617487D02*
X174789913Y-87248021D01*
D11*
%TO.C,U5*%
X128296397Y-106672096D02*
X128476002Y-106672096D01*
X127847384Y-107121109D02*
X128296397Y-106672096D01*
X131259882Y-113766499D02*
X130721066Y-114305314D01*
X130721066Y-114305314D02*
X130631264Y-114215512D01*
X132876328Y-112150053D02*
X133415143Y-111611237D01*
X125692123Y-109276371D02*
X125781925Y-109366173D01*
X133415143Y-111611237D02*
X133325341Y-111521435D01*
X126230938Y-108737555D02*
X125692123Y-109276371D01*
D13*
%TO.C,D2*%
X169955456Y-117830330D02*
X172996016Y-114789771D01*
X172996016Y-114789771D02*
X174410229Y-116203984D01*
X174410229Y-116203984D02*
X171369670Y-119244544D01*
%TO.C,L70*%
X161760922Y-90066586D02*
X162130388Y-89697120D01*
X162765014Y-91070678D02*
X163134480Y-90701212D01*
%TO.C,L68*%
X159296287Y-87146421D02*
X158926821Y-87515887D01*
X160300379Y-88150513D02*
X159930913Y-88519979D01*
%TO.C,L11*%
X139165621Y-105397487D02*
X139535087Y-105028021D01*
X140169713Y-106401579D02*
X140539179Y-106032113D01*
%TO.C,L35*%
X169354687Y-81914021D02*
X168985221Y-82283487D01*
X170358779Y-82918113D02*
X169989313Y-83287579D01*
%TO.C,R6*%
X145601697Y-91837230D02*
X145937230Y-91501697D01*
X144862770Y-91098303D02*
X145198303Y-90762770D01*
%TO.C,L28*%
X184658979Y-106642087D02*
X184289513Y-106272621D01*
X183654887Y-107646179D02*
X183285421Y-107276713D01*
%TO.C,L34*%
X186335379Y-99555487D02*
X185965913Y-99186021D01*
X185331287Y-100559579D02*
X184961821Y-100190113D01*
%TO.C,C30*%
X152559619Y-83873630D02*
X152758430Y-83674819D01*
X151838370Y-83152381D02*
X152037181Y-82953570D01*
D10*
%TO.C,L49*%
X166967785Y-107753681D02*
X170503319Y-111289215D01*
X163078697Y-111642769D02*
X163891870Y-110829596D01*
X167427404Y-114365130D02*
X166614231Y-115178303D01*
X166013191Y-108708276D02*
X166967785Y-107753681D01*
X166614231Y-115178303D02*
X163078697Y-111642769D01*
X169548724Y-112243809D02*
X170503319Y-111289215D01*
%TO.C,C78*%
X162875669Y-103567068D02*
X162027933Y-104414804D01*
X162559564Y-105090119D02*
X164962681Y-107493236D01*
X157412082Y-110234010D02*
X161654355Y-105991737D01*
X162570341Y-105075751D02*
X164973457Y-107478867D01*
X159800830Y-112655087D02*
X164043103Y-108412814D01*
X162097979Y-103637114D02*
X162875669Y-104414804D01*
D13*
%TO.C,C16*%
X147911419Y-110061030D02*
X148110230Y-109862219D01*
X147190170Y-109339781D02*
X147388981Y-109140970D01*
%TO.C,L66*%
X162065722Y-87073014D02*
X162435188Y-87442480D01*
X163069814Y-86068922D02*
X163439280Y-86438388D01*
%TD*%
M02*
