%TF.GenerationSoftware,KiCad,Pcbnew,6.0.4-6f826c9f35~116~ubuntu20.04.1*%
%TF.CreationDate,2022-04-04T15:56:57+00:00*%
%TF.ProjectId,QFHMIX01D,5146484d-4958-4303-9144-2e6b69636164,REV 0.2*%
%TF.SameCoordinates,Original*%
%TF.FileFunction,Legend,Top*%
%TF.FilePolarity,Positive*%
%FSLAX46Y46*%
G04 Gerber Fmt 4.6, Leading zero omitted, Abs format (unit mm)*
G04 Created by KiCad (PCBNEW 6.0.4-6f826c9f35~116~ubuntu20.04.1) date 2022-04-04 15:56:57*
%MOMM*%
%LPD*%
G01*
G04 APERTURE LIST*
%ADD10C,0.300000*%
%ADD11C,0.200000*%
%ADD12C,0.150000*%
%ADD13C,0.050000*%
G04 APERTURE END LIST*
D10*
X138155131Y-120695391D02*
X138963253Y-119887269D01*
X138963253Y-120695391D02*
X138155131Y-119887269D01*
X138660208Y-118877116D02*
X140074421Y-119584223D01*
X139367314Y-118170009D01*
X140393547Y-121562791D02*
X140242024Y-121613299D01*
X140090502Y-121764822D01*
X139989486Y-121966852D01*
X139989486Y-122168883D01*
X140039994Y-122320406D01*
X140191517Y-122572944D01*
X140343040Y-122724467D01*
X140595578Y-122875990D01*
X140747101Y-122926497D01*
X140949131Y-122926497D01*
X141151162Y-122825482D01*
X141252177Y-122724467D01*
X141353192Y-122522436D01*
X141353192Y-122421421D01*
X140999639Y-122067868D01*
X140797608Y-122269898D01*
X141908776Y-122067868D02*
X140848116Y-121007208D01*
X142514868Y-121461776D01*
X141454208Y-120401116D01*
X143019944Y-120956700D02*
X141959284Y-119896040D01*
X142211822Y-119643502D01*
X142413852Y-119542486D01*
X142615883Y-119542486D01*
X142767406Y-119592994D01*
X143019944Y-119744517D01*
X143171467Y-119896040D01*
X143322990Y-120148578D01*
X143373497Y-120300101D01*
X143373497Y-120502131D01*
X143272482Y-120704162D01*
X143019944Y-120956700D01*
X120454547Y-131595791D02*
X120303024Y-131646299D01*
X120151502Y-131797822D01*
X120050486Y-131999852D01*
X120050486Y-132201883D01*
X120100994Y-132353406D01*
X120252517Y-132605944D01*
X120404040Y-132757467D01*
X120656578Y-132908990D01*
X120808101Y-132959497D01*
X121010131Y-132959497D01*
X121212162Y-132858482D01*
X121313177Y-132757467D01*
X121414192Y-132555436D01*
X121414192Y-132454421D01*
X121060639Y-132100868D01*
X120858608Y-132302898D01*
X121969776Y-132100868D02*
X120909116Y-131040208D01*
X122575868Y-131494776D01*
X121515208Y-130434116D01*
X123080944Y-130989700D02*
X122020284Y-129929040D01*
X122272822Y-129676502D01*
X122474852Y-129575486D01*
X122676883Y-129575486D01*
X122828406Y-129625994D01*
X123080944Y-129777517D01*
X123232467Y-129929040D01*
X123383990Y-130181578D01*
X123434497Y-130333101D01*
X123434497Y-130535131D01*
X123333482Y-130737162D01*
X123080944Y-130989700D01*
X123677131Y-134030391D02*
X124485253Y-133222269D01*
X124485253Y-134030391D02*
X123677131Y-133222269D01*
X124182208Y-132212116D02*
X125596421Y-132919223D01*
X124889314Y-131505009D01*
X116497461Y-107760152D02*
X116497461Y-107861167D01*
X116396446Y-108063198D01*
X116295431Y-108164213D01*
X116093400Y-108265228D01*
X115891370Y-108265228D01*
X115739847Y-108214721D01*
X115487309Y-108063198D01*
X115335786Y-107911675D01*
X115184263Y-107659137D01*
X115133755Y-107507614D01*
X115133755Y-107305583D01*
X115234771Y-107103553D01*
X115335786Y-107002538D01*
X115537816Y-106901522D01*
X115638832Y-106901522D01*
X117558122Y-106901522D02*
X117053045Y-107406599D01*
X115992385Y-106345938D01*
X117911675Y-106547969D02*
X116851015Y-105487309D01*
X118517766Y-105941877D02*
X117457106Y-105790355D01*
X117457106Y-104881217D02*
X117457106Y-106093400D01*
X126424111Y-117664213D02*
X126626141Y-117462183D01*
X126777664Y-117411675D01*
X126979694Y-117411675D01*
X127232233Y-117563198D01*
X127585786Y-117916751D01*
X127737309Y-118169289D01*
X127737309Y-118371320D01*
X127686801Y-118522843D01*
X127484771Y-118724873D01*
X127333248Y-118775381D01*
X127131217Y-118775381D01*
X126878679Y-118623858D01*
X126525126Y-118270305D01*
X126373603Y-118017766D01*
X126373603Y-117815736D01*
X126424111Y-117664213D01*
X127333248Y-116755076D02*
X128191877Y-117613705D01*
X128343400Y-117664213D01*
X128444416Y-117664213D01*
X128595938Y-117613705D01*
X128797969Y-117411675D01*
X128848477Y-117260152D01*
X128848477Y-117159137D01*
X128797969Y-117007614D01*
X127939339Y-116148984D01*
X128292893Y-115795431D02*
X128898984Y-115189339D01*
X129656599Y-116553045D02*
X128595938Y-115492385D01*
X130161675Y-116250000D02*
X130969797Y-115441877D01*
X130919289Y-114179187D02*
X131121320Y-114078172D01*
X131222335Y-114078172D01*
X131373858Y-114128679D01*
X131525381Y-114280202D01*
X131575888Y-114431725D01*
X131575888Y-114532740D01*
X131525381Y-114684263D01*
X131121320Y-115088324D01*
X130060660Y-114027664D01*
X130414213Y-113674111D01*
X130565736Y-113623603D01*
X130666751Y-113623603D01*
X130818274Y-113674111D01*
X130919289Y-113775126D01*
X130969797Y-113926649D01*
X130969797Y-114027664D01*
X130919289Y-114179187D01*
X130565736Y-114532740D01*
X166003114Y-65642228D02*
X165860257Y-65570800D01*
X165717400Y-65427942D01*
X165503114Y-65213657D01*
X165360257Y-65142228D01*
X165217400Y-65142228D01*
X165288828Y-65499371D02*
X165145971Y-65427942D01*
X165003114Y-65285085D01*
X164931685Y-64999371D01*
X164931685Y-64499371D01*
X165003114Y-64213657D01*
X165145971Y-64070800D01*
X165288828Y-63999371D01*
X165574542Y-63999371D01*
X165717400Y-64070800D01*
X165860257Y-64213657D01*
X165931685Y-64499371D01*
X165931685Y-64999371D01*
X165860257Y-65285085D01*
X165717400Y-65427942D01*
X165574542Y-65499371D01*
X165288828Y-65499371D01*
X167074542Y-64713657D02*
X166574542Y-64713657D01*
X166574542Y-65499371D02*
X166574542Y-63999371D01*
X167288828Y-63999371D01*
X167860257Y-65499371D02*
X167860257Y-63999371D01*
X167860257Y-64713657D02*
X168717400Y-64713657D01*
X168717400Y-65499371D02*
X168717400Y-63999371D01*
X169431685Y-65499371D02*
X169431685Y-63999371D01*
X169931685Y-65070800D01*
X170431685Y-63999371D01*
X170431685Y-65499371D01*
X171145971Y-65499371D02*
X171145971Y-63999371D01*
X171717400Y-63999371D02*
X172717400Y-65499371D01*
X172717400Y-63999371D02*
X171717400Y-65499371D01*
X173574542Y-63999371D02*
X173717400Y-63999371D01*
X173860257Y-64070800D01*
X173931685Y-64142228D01*
X174003114Y-64285085D01*
X174074542Y-64570800D01*
X174074542Y-64927942D01*
X174003114Y-65213657D01*
X173931685Y-65356514D01*
X173860257Y-65427942D01*
X173717400Y-65499371D01*
X173574542Y-65499371D01*
X173431685Y-65427942D01*
X173360257Y-65356514D01*
X173288828Y-65213657D01*
X173217400Y-64927942D01*
X173217400Y-64570800D01*
X173288828Y-64285085D01*
X173360257Y-64142228D01*
X173431685Y-64070800D01*
X173574542Y-63999371D01*
X175503114Y-65499371D02*
X174645971Y-65499371D01*
X175074542Y-65499371D02*
X175074542Y-63999371D01*
X174931685Y-64213657D01*
X174788828Y-64356514D01*
X174645971Y-64427942D01*
X176145971Y-65499371D02*
X176145971Y-63999371D01*
X176503114Y-63999371D01*
X176717400Y-64070800D01*
X176860257Y-64213657D01*
X176931685Y-64356514D01*
X177003114Y-64642228D01*
X177003114Y-64856514D01*
X176931685Y-65142228D01*
X176860257Y-65285085D01*
X176717400Y-65427942D01*
X176503114Y-65499371D01*
X176145971Y-65499371D01*
X121249872Y-113088452D02*
X121451902Y-112886421D01*
X121603425Y-112835913D01*
X121805456Y-112835913D01*
X122057994Y-112987436D01*
X122411547Y-113340990D01*
X122563070Y-113593528D01*
X122563070Y-113795558D01*
X122512563Y-113947081D01*
X122310532Y-114149112D01*
X122159009Y-114199619D01*
X121956979Y-114199619D01*
X121704441Y-114048097D01*
X121350887Y-113694543D01*
X121199364Y-113442005D01*
X121199364Y-113239975D01*
X121249872Y-113088452D01*
X122159009Y-112179314D02*
X123017639Y-113037944D01*
X123169162Y-113088452D01*
X123270177Y-113088452D01*
X123421700Y-113037944D01*
X123623730Y-112835913D01*
X123674238Y-112684391D01*
X123674238Y-112583375D01*
X123623730Y-112431852D01*
X122765101Y-111573223D01*
X123118654Y-111219669D02*
X123724746Y-110613578D01*
X124482360Y-111977284D02*
X123421700Y-110916624D01*
X124987436Y-111674238D02*
X125795558Y-110866116D01*
X125593528Y-110260024D02*
X126098604Y-109754948D01*
X125795558Y-110664086D02*
X125088452Y-109249872D01*
X126502665Y-109956979D01*
D11*
X182593371Y-83248000D02*
X182593371Y-83962285D01*
X181093371Y-83962285D01*
X181093371Y-82462285D02*
X181093371Y-82176571D01*
X181164800Y-82033714D01*
X181307657Y-81890857D01*
X181593371Y-81819428D01*
X182093371Y-81819428D01*
X182379085Y-81890857D01*
X182521942Y-82033714D01*
X182593371Y-82176571D01*
X182593371Y-82462285D01*
X182521942Y-82605142D01*
X182379085Y-82748000D01*
X182093371Y-82819428D01*
X181593371Y-82819428D01*
X181307657Y-82748000D01*
X181164800Y-82605142D01*
X181093371Y-82462285D01*
X181093371Y-80890857D02*
X181093371Y-80605142D01*
X181164800Y-80462285D01*
X181307657Y-80319428D01*
X181593371Y-80248000D01*
X182093371Y-80248000D01*
X182379085Y-80319428D01*
X182521942Y-80462285D01*
X182593371Y-80605142D01*
X182593371Y-80890857D01*
X182521942Y-81033714D01*
X182379085Y-81176571D01*
X182093371Y-81248000D01*
X181593371Y-81248000D01*
X181307657Y-81176571D01*
X181164800Y-81033714D01*
X181093371Y-80890857D01*
X182593371Y-79605142D02*
X181093371Y-79605142D01*
X181093371Y-79033714D01*
X181164800Y-78890857D01*
X181236228Y-78819428D01*
X181379085Y-78748000D01*
X181593371Y-78748000D01*
X181736228Y-78819428D01*
X181807657Y-78890857D01*
X181879085Y-79033714D01*
X181879085Y-79605142D01*
X182164800Y-77033714D02*
X182164800Y-76319428D01*
X182593371Y-77176571D02*
X181093371Y-76676571D01*
X182593371Y-76176571D01*
X182021942Y-75676571D02*
X182021942Y-74533714D01*
X156674857Y-124274971D02*
X155960571Y-124274971D01*
X155960571Y-122774971D01*
X157460571Y-122774971D02*
X157746285Y-122774971D01*
X157889142Y-122846400D01*
X158032000Y-122989257D01*
X158103428Y-123274971D01*
X158103428Y-123774971D01*
X158032000Y-124060685D01*
X157889142Y-124203542D01*
X157746285Y-124274971D01*
X157460571Y-124274971D01*
X157317714Y-124203542D01*
X157174857Y-124060685D01*
X157103428Y-123774971D01*
X157103428Y-123274971D01*
X157174857Y-122989257D01*
X157317714Y-122846400D01*
X157460571Y-122774971D01*
X159032000Y-122774971D02*
X159317714Y-122774971D01*
X159460571Y-122846400D01*
X159603428Y-122989257D01*
X159674857Y-123274971D01*
X159674857Y-123774971D01*
X159603428Y-124060685D01*
X159460571Y-124203542D01*
X159317714Y-124274971D01*
X159032000Y-124274971D01*
X158889142Y-124203542D01*
X158746285Y-124060685D01*
X158674857Y-123774971D01*
X158674857Y-123274971D01*
X158746285Y-122989257D01*
X158889142Y-122846400D01*
X159032000Y-122774971D01*
X160317714Y-124274971D02*
X160317714Y-122774971D01*
X160889142Y-122774971D01*
X161032000Y-122846400D01*
X161103428Y-122917828D01*
X161174857Y-123060685D01*
X161174857Y-123274971D01*
X161103428Y-123417828D01*
X161032000Y-123489257D01*
X160889142Y-123560685D01*
X160317714Y-123560685D01*
X163460571Y-123489257D02*
X163674857Y-123560685D01*
X163746285Y-123632114D01*
X163817714Y-123774971D01*
X163817714Y-123989257D01*
X163746285Y-124132114D01*
X163674857Y-124203542D01*
X163532000Y-124274971D01*
X162960571Y-124274971D01*
X162960571Y-122774971D01*
X163460571Y-122774971D01*
X163603428Y-122846400D01*
X163674857Y-122917828D01*
X163746285Y-123060685D01*
X163746285Y-123203542D01*
X163674857Y-123346400D01*
X163603428Y-123417828D01*
X163460571Y-123489257D01*
X162960571Y-123489257D01*
X164460571Y-123703542D02*
X165603428Y-123703542D01*
X165032000Y-124274971D02*
X165032000Y-123132114D01*
X155989057Y-54577371D02*
X155274771Y-54577371D01*
X155274771Y-53077371D01*
X156774771Y-53077371D02*
X157060485Y-53077371D01*
X157203342Y-53148800D01*
X157346200Y-53291657D01*
X157417628Y-53577371D01*
X157417628Y-54077371D01*
X157346200Y-54363085D01*
X157203342Y-54505942D01*
X157060485Y-54577371D01*
X156774771Y-54577371D01*
X156631914Y-54505942D01*
X156489057Y-54363085D01*
X156417628Y-54077371D01*
X156417628Y-53577371D01*
X156489057Y-53291657D01*
X156631914Y-53148800D01*
X156774771Y-53077371D01*
X158346200Y-53077371D02*
X158631914Y-53077371D01*
X158774771Y-53148800D01*
X158917628Y-53291657D01*
X158989057Y-53577371D01*
X158989057Y-54077371D01*
X158917628Y-54363085D01*
X158774771Y-54505942D01*
X158631914Y-54577371D01*
X158346200Y-54577371D01*
X158203342Y-54505942D01*
X158060485Y-54363085D01*
X157989057Y-54077371D01*
X157989057Y-53577371D01*
X158060485Y-53291657D01*
X158203342Y-53148800D01*
X158346200Y-53077371D01*
X159631914Y-54577371D02*
X159631914Y-53077371D01*
X160203342Y-53077371D01*
X160346200Y-53148800D01*
X160417628Y-53220228D01*
X160489057Y-53363085D01*
X160489057Y-53577371D01*
X160417628Y-53720228D01*
X160346200Y-53791657D01*
X160203342Y-53863085D01*
X159631914Y-53863085D01*
X162774771Y-53791657D02*
X162989057Y-53863085D01*
X163060485Y-53934514D01*
X163131914Y-54077371D01*
X163131914Y-54291657D01*
X163060485Y-54434514D01*
X162989057Y-54505942D01*
X162846200Y-54577371D01*
X162274771Y-54577371D01*
X162274771Y-53077371D01*
X162774771Y-53077371D01*
X162917628Y-53148800D01*
X162989057Y-53220228D01*
X163060485Y-53363085D01*
X163060485Y-53505942D01*
X162989057Y-53648800D01*
X162917628Y-53720228D01*
X162774771Y-53791657D01*
X162274771Y-53791657D01*
X163774771Y-54005942D02*
X164917628Y-54005942D01*
X118839371Y-83984600D02*
X118839371Y-84698885D01*
X117339371Y-84698885D01*
X117339371Y-83198885D02*
X117339371Y-82913171D01*
X117410800Y-82770314D01*
X117553657Y-82627457D01*
X117839371Y-82556028D01*
X118339371Y-82556028D01*
X118625085Y-82627457D01*
X118767942Y-82770314D01*
X118839371Y-82913171D01*
X118839371Y-83198885D01*
X118767942Y-83341742D01*
X118625085Y-83484600D01*
X118339371Y-83556028D01*
X117839371Y-83556028D01*
X117553657Y-83484600D01*
X117410800Y-83341742D01*
X117339371Y-83198885D01*
X117339371Y-81627457D02*
X117339371Y-81341742D01*
X117410800Y-81198885D01*
X117553657Y-81056028D01*
X117839371Y-80984600D01*
X118339371Y-80984600D01*
X118625085Y-81056028D01*
X118767942Y-81198885D01*
X118839371Y-81341742D01*
X118839371Y-81627457D01*
X118767942Y-81770314D01*
X118625085Y-81913171D01*
X118339371Y-81984600D01*
X117839371Y-81984600D01*
X117553657Y-81913171D01*
X117410800Y-81770314D01*
X117339371Y-81627457D01*
X118839371Y-80341742D02*
X117339371Y-80341742D01*
X117339371Y-79770314D01*
X117410800Y-79627457D01*
X117482228Y-79556028D01*
X117625085Y-79484600D01*
X117839371Y-79484600D01*
X117982228Y-79556028D01*
X118053657Y-79627457D01*
X118125085Y-79770314D01*
X118125085Y-80341742D01*
X118410800Y-77770314D02*
X118410800Y-77056028D01*
X118839371Y-77913171D02*
X117339371Y-77413171D01*
X118839371Y-76913171D01*
X118267942Y-76413171D02*
X118267942Y-75270314D01*
X118839371Y-75841742D02*
X117696514Y-75841742D01*
D10*
X181801000Y-62717071D02*
X181801000Y-61717071D01*
X181801000Y-61859928D02*
X181872428Y-61788500D01*
X182015285Y-61717071D01*
X182229571Y-61717071D01*
X182372428Y-61788500D01*
X182443857Y-61931357D01*
X182443857Y-62717071D01*
X182443857Y-61931357D02*
X182515285Y-61788500D01*
X182658142Y-61717071D01*
X182872428Y-61717071D01*
X183015285Y-61788500D01*
X183086714Y-61931357D01*
X183086714Y-62717071D01*
X184015285Y-62717071D02*
X183872428Y-62645642D01*
X183801000Y-62502785D01*
X183801000Y-61217071D01*
X185229571Y-62717071D02*
X185229571Y-61931357D01*
X185158142Y-61788500D01*
X185015285Y-61717071D01*
X184729571Y-61717071D01*
X184586714Y-61788500D01*
X185229571Y-62645642D02*
X185086714Y-62717071D01*
X184729571Y-62717071D01*
X184586714Y-62645642D01*
X184515285Y-62502785D01*
X184515285Y-62359928D01*
X184586714Y-62217071D01*
X184729571Y-62145642D01*
X185086714Y-62145642D01*
X185229571Y-62074214D01*
X185943857Y-62717071D02*
X185943857Y-61217071D01*
X185943857Y-61788500D02*
X186086714Y-61717071D01*
X186372428Y-61717071D01*
X186515285Y-61788500D01*
X186586714Y-61859928D01*
X186658142Y-62002785D01*
X186658142Y-62431357D01*
X186586714Y-62574214D01*
X186515285Y-62645642D01*
X186372428Y-62717071D01*
X186086714Y-62717071D01*
X185943857Y-62645642D01*
X187301000Y-62574214D02*
X187372428Y-62645642D01*
X187301000Y-62717071D01*
X187229571Y-62645642D01*
X187301000Y-62574214D01*
X187301000Y-62717071D01*
X188658142Y-62645642D02*
X188515285Y-62717071D01*
X188229571Y-62717071D01*
X188086714Y-62645642D01*
X188015285Y-62574214D01*
X187943857Y-62431357D01*
X187943857Y-62002785D01*
X188015285Y-61859928D01*
X188086714Y-61788500D01*
X188229571Y-61717071D01*
X188515285Y-61717071D01*
X188658142Y-61788500D01*
X189158142Y-61717071D02*
X189943857Y-61717071D01*
X189158142Y-62717071D01*
X189943857Y-62717071D01*
X183229571Y-63774928D02*
X183301000Y-63703500D01*
X183443857Y-63632071D01*
X183801000Y-63632071D01*
X183943857Y-63703500D01*
X184015285Y-63774928D01*
X184086714Y-63917785D01*
X184086714Y-64060642D01*
X184015285Y-64274928D01*
X183158142Y-65132071D01*
X184086714Y-65132071D01*
X185015285Y-63632071D02*
X185158142Y-63632071D01*
X185301000Y-63703500D01*
X185372428Y-63774928D01*
X185443857Y-63917785D01*
X185515285Y-64203500D01*
X185515285Y-64560642D01*
X185443857Y-64846357D01*
X185372428Y-64989214D01*
X185301000Y-65060642D01*
X185158142Y-65132071D01*
X185015285Y-65132071D01*
X184872428Y-65060642D01*
X184801000Y-64989214D01*
X184729571Y-64846357D01*
X184658142Y-64560642D01*
X184658142Y-64203500D01*
X184729571Y-63917785D01*
X184801000Y-63774928D01*
X184872428Y-63703500D01*
X185015285Y-63632071D01*
X186086714Y-63774928D02*
X186158142Y-63703500D01*
X186301000Y-63632071D01*
X186658142Y-63632071D01*
X186801000Y-63703500D01*
X186872428Y-63774928D01*
X186943857Y-63917785D01*
X186943857Y-64060642D01*
X186872428Y-64274928D01*
X186015285Y-65132071D01*
X186943857Y-65132071D01*
X188372428Y-65132071D02*
X187515285Y-65132071D01*
X187943857Y-65132071D02*
X187943857Y-63632071D01*
X187801000Y-63846357D01*
X187658142Y-63989214D01*
X187515285Y-64060642D01*
X136202547Y-117752791D02*
X136051024Y-117803299D01*
X135899502Y-117954822D01*
X135798486Y-118156852D01*
X135798486Y-118358883D01*
X135848994Y-118510406D01*
X136000517Y-118762944D01*
X136152040Y-118914467D01*
X136404578Y-119065990D01*
X136556101Y-119116497D01*
X136758131Y-119116497D01*
X136960162Y-119015482D01*
X137061177Y-118914467D01*
X137162192Y-118712436D01*
X137162192Y-118611421D01*
X136808639Y-118257868D01*
X136606608Y-118459898D01*
X137717776Y-118257868D02*
X136657116Y-117197208D01*
X138323868Y-117651776D01*
X137263208Y-116591116D01*
X138828944Y-117146700D02*
X137768284Y-116086040D01*
X138020822Y-115833502D01*
X138222852Y-115732486D01*
X138424883Y-115732486D01*
X138576406Y-115782994D01*
X138828944Y-115934517D01*
X138980467Y-116086040D01*
X139131990Y-116338578D01*
X139182497Y-116490101D01*
X139182497Y-116692131D01*
X139081482Y-116894162D01*
X138828944Y-117146700D01*
D12*
%TO.C,J1*%
X130783567Y-134252216D02*
X131288643Y-133747140D01*
X131423330Y-133679796D01*
X131558017Y-133679796D01*
X131692704Y-133747140D01*
X131760047Y-133814483D01*
X130783567Y-132838002D02*
X131187628Y-133242063D01*
X130985597Y-133040033D02*
X130278490Y-133747140D01*
X130446849Y-133713468D01*
X130581536Y-133713468D01*
X130682551Y-133747140D01*
%TO.C,J2*%
X137859014Y-128426576D02*
X138364090Y-127921500D01*
X138498777Y-127854156D01*
X138633464Y-127854156D01*
X138768151Y-127921500D01*
X138835494Y-127988843D01*
X137623311Y-128056187D02*
X137555968Y-128056187D01*
X137454953Y-128022515D01*
X137286594Y-127854156D01*
X137252922Y-127753141D01*
X137252922Y-127685797D01*
X137286594Y-127584782D01*
X137353937Y-127517439D01*
X137488624Y-127450095D01*
X138296746Y-127450095D01*
X137859014Y-127012362D01*
D13*
X139809266Y-122801717D02*
X139607235Y-123003748D01*
X139708250Y-122902732D02*
X139354697Y-122549179D01*
X139371533Y-122633358D01*
X139371533Y-122700702D01*
X139354697Y-122751209D01*
D12*
%TO.C,J1*%
X112028861Y-105343722D02*
X134656278Y-127971139D01*
X128971139Y-133656278D02*
X106343722Y-111028861D01*
X134656278Y-127971139D02*
X128971139Y-133656278D01*
X112028861Y-105343722D02*
X106343722Y-111028861D01*
%TO.C,J2*%
X136584826Y-127502328D02*
X131196672Y-122114174D01*
X134788774Y-118522072D02*
X140176928Y-123910226D01*
X140176928Y-123910226D02*
X136584826Y-127502328D01*
X131196672Y-122114174D02*
X134788774Y-118522072D01*
%TD*%
M02*
