G04 #@! TF.GenerationSoftware,KiCad,Pcbnew,(5.99.0-10394-g2e15de97e0)*
G04 #@! TF.CreationDate,2021-06-29T10:31:27+02:00*
G04 #@! TF.ProjectId,QFHMIX01D,5146484d-4958-4303-9144-2e6b69636164,REV 0.2*
G04 #@! TF.SameCoordinates,Original*
G04 #@! TF.FileFunction,Soldermask,Bot*
G04 #@! TF.FilePolarity,Negative*
%FSLAX45Y45*%
G04 Gerber Fmt 4.5, Leading zero omitted, Abs format (unit mm)*
G04 Created by KiCad (PCBNEW (5.99.0-10394-g2e15de97e0)) date 2021-06-29 10:31:27*
%MOMM*%
%LPD*%
G01*
G04 APERTURE LIST*
G04 Aperture macros list*
%AMRoundRect*
0 Rectangle with rounded corners*
0 $1 Rounding radius*
0 $2 $3 $4 $5 $6 $7 $8 $9 X,Y pos of 4 corners*
0 Add a 4 corners polygon primitive as box body*
4,1,4,$2,$3,$4,$5,$6,$7,$8,$9,$2,$3,0*
0 Add four circle primitives for the rounded corners*
1,1,$1+$1,$2,$3*
1,1,$1+$1,$4,$5*
1,1,$1+$1,$6,$7*
1,1,$1+$1,$8,$9*
0 Add four rect primitives between the rounded corners*
20,1,$1+$1,$2,$3,$4,$5,0*
20,1,$1+$1,$4,$5,$6,$7,0*
20,1,$1+$1,$6,$7,$8,$9,0*
20,1,$1+$1,$8,$9,$2,$3,0*%
G04 Aperture macros list end*
%ADD10C,2.000000*%
%ADD11C,2.900000*%
%ADD12RoundRect,0.200000X0.000000X1.077631X-1.077631X0.000000X0.000000X-1.077631X1.077631X0.000000X0*%
%ADD13RoundRect,0.300000X0.053033X-0.477297X0.477297X-0.053033X-0.053033X0.477297X-0.477297X0.053033X0*%
%ADD14RoundRect,0.300000X-0.053033X0.477297X-0.477297X0.053033X0.053033X-0.477297X0.477297X-0.053033X0*%
%ADD15RoundRect,0.325000X0.017678X-0.477297X0.477297X-0.017678X-0.017678X0.477297X-0.477297X0.017678X0*%
%ADD16C,6.400000*%
%ADD17RoundRect,0.200000X1.250000X0.900000X-1.250000X0.900000X-1.250000X-0.900000X1.250000X-0.900000X0*%
%ADD18RoundRect,0.325000X-0.477297X-0.017678X-0.017678X-0.477297X0.477297X0.017678X0.017678X0.477297X0*%
%ADD19RoundRect,0.325000X-0.017678X0.477297X-0.477297X0.017678X0.017678X-0.477297X0.477297X-0.017678X0*%
%ADD20RoundRect,0.300000X0.477297X0.053033X0.053033X0.477297X-0.477297X-0.053033X-0.053033X-0.477297X0*%
%ADD21RoundRect,0.350000X-0.654074X-0.159099X-0.159099X-0.654074X0.654074X0.159099X0.159099X0.654074X0*%
%ADD22RoundRect,0.325000X0.477297X0.017678X0.017678X0.477297X-0.477297X-0.017678X-0.017678X-0.477297X0*%
%ADD23RoundRect,0.318750X-0.565685X-0.114905X-0.114905X-0.565685X0.565685X0.114905X0.114905X0.565685X0*%
%ADD24RoundRect,0.318750X0.565685X0.114905X0.114905X0.565685X-0.565685X-0.114905X-0.114905X-0.565685X0*%
%ADD25RoundRect,0.350000X0.350000X0.575000X-0.350000X0.575000X-0.350000X-0.575000X0.350000X-0.575000X0*%
%ADD26RoundRect,0.318750X-0.114905X0.565685X-0.565685X0.114905X0.114905X-0.565685X0.565685X-0.114905X0*%
%ADD27RoundRect,0.318750X0.114905X-0.565685X0.565685X-0.114905X-0.114905X0.565685X-0.565685X0.114905X0*%
%ADD28RoundRect,0.300000X-0.477297X-0.053033X-0.053033X-0.477297X0.477297X0.053033X0.053033X0.477297X0*%
%ADD29RoundRect,0.200000X-0.717713X-0.180312X-0.180312X-0.717713X0.717713X0.180312X0.180312X0.717713X0*%
%ADD30C,0.900000*%
%ADD31RoundRect,0.200000X-2.828427X0.565685X0.565685X-2.828427X2.828427X-0.565685X-0.565685X2.828427X0*%
%ADD32RoundRect,0.350000X0.575000X-0.350000X0.575000X0.350000X-0.575000X0.350000X-0.575000X-0.350000X0*%
%ADD33RoundRect,0.318750X0.318750X0.481250X-0.318750X0.481250X-0.318750X-0.481250X0.318750X-0.481250X0*%
%ADD34RoundRect,0.318750X-0.481250X0.318750X-0.481250X-0.318750X0.481250X-0.318750X0.481250X0.318750X0*%
%ADD35RoundRect,0.350000X-0.159099X0.654074X-0.654074X0.159099X0.159099X-0.654074X0.654074X-0.159099X0*%
%ADD36RoundRect,0.200000X0.444500X0.698500X-0.444500X0.698500X-0.444500X-0.698500X0.444500X-0.698500X0*%
%ADD37RoundRect,0.200000X-0.176777X-1.237437X1.237437X0.176777X0.176777X1.237437X-1.237437X-0.176777X0*%
%ADD38RoundRect,0.200000X0.636396X-2.050610X2.050610X-0.636396X-0.636396X2.050610X-2.050610X0.636396X0*%
%ADD39RoundRect,0.350000X0.654074X0.159099X0.159099X0.654074X-0.654074X-0.159099X-0.159099X-0.654074X0*%
%ADD40RoundRect,0.200000X0.380070X0.662913X-0.662913X-0.380070X-0.380070X-0.662913X0.662913X0.380070X0*%
%ADD41RoundRect,0.350000X-0.575000X0.350000X-0.575000X-0.350000X0.575000X-0.350000X0.575000X0.350000X0*%
%ADD42C,2.700000*%
%ADD43RoundRect,0.200000X-0.194454X0.866206X-0.866206X0.194454X0.194454X-0.866206X0.866206X-0.194454X0*%
%ADD44RoundRect,0.200000X0.180312X-0.717713X0.717713X-0.180312X-0.180312X0.717713X-0.717713X0.180312X0*%
%ADD45RoundRect,0.200000X-0.565685X-2.828427X2.828427X0.565685X0.565685X2.828427X-2.828427X-0.565685X0*%
%ADD46RoundRect,0.250000X-0.256326X-0.609880X0.609880X0.256326X0.256326X0.609880X-0.609880X-0.256326X0*%
%ADD47RoundRect,0.300000X0.300000X0.375000X-0.300000X0.375000X-0.300000X-0.375000X0.300000X-0.375000X0*%
%ADD48RoundRect,0.200000X-0.180312X0.717713X-0.717713X0.180312X0.180312X-0.717713X0.717713X-0.180312X0*%
%ADD49RoundRect,0.200000X0.565685X2.828427X-2.828427X-0.565685X-0.565685X-2.828427X2.828427X0.565685X0*%
%ADD50RoundRect,0.162500X-0.424264X0.194454X0.194454X-0.424264X0.424264X-0.194454X-0.194454X0.424264X0*%
%ADD51RoundRect,0.162500X-0.424264X-0.194454X-0.194454X-0.424264X0.424264X0.194454X0.194454X0.424264X0*%
%ADD52RoundRect,0.308824X-1.048181X0.000000X0.000000X-1.048181X1.048181X0.000000X0.000000X1.048181X0*%
%ADD53RoundRect,0.200000X0.106066X0.318198X-0.318198X-0.106066X-0.106066X-0.318198X0.318198X0.106066X0*%
%ADD54RoundRect,0.200000X0.353553X0.565685X-0.565685X-0.353553X-0.353553X-0.565685X0.565685X0.353553X0*%
%ADD55RoundRect,0.200000X0.318198X-0.106066X-0.106066X0.318198X-0.318198X0.106066X0.106066X-0.318198X0*%
%ADD56RoundRect,0.200000X-0.194454X1.219759X-1.219759X0.194454X0.194454X-1.219759X1.219759X-0.194454X0*%
%ADD57RoundRect,0.225000X0.279307X1.552099X-1.552099X-0.279307X-0.279307X-1.552099X1.552099X0.279307X0*%
%ADD58RoundRect,0.200000X1.622810X0.350018X0.350018X1.622810X-1.622810X-0.350018X-0.350018X-1.622810X0*%
%ADD59RoundRect,0.200000X-1.622810X-0.350018X-0.350018X-1.622810X1.622810X0.350018X0.350018X1.622810X0*%
%ADD60RoundRect,0.200000X0.017961X1.785275X-1.785275X-0.017961X-0.017961X-1.785275X1.785275X0.017961X0*%
G04 APERTURE END LIST*
D10*
X11468051Y-10915503D03*
X12362541Y-12715089D03*
X13084497Y-12531949D03*
X12545682Y-11993133D03*
X12006866Y-11454318D03*
X11284910Y-11637459D03*
D11*
X11107073Y-11007073D03*
X11376481Y-11276481D03*
X11645888Y-11545888D03*
X11915296Y-11815296D03*
X12184704Y-12084704D03*
X12454111Y-12354111D03*
X12723519Y-12623519D03*
X12992927Y-12892927D03*
D12*
X13838088Y-12391023D03*
X13658483Y-12570628D03*
X13658483Y-12211417D03*
X13478877Y-12391023D03*
X13478877Y-12031812D03*
X13299272Y-12211417D03*
D13*
X12954084Y-8209196D03*
X13070756Y-8092524D03*
D14*
X12837076Y-8310964D03*
X12720404Y-8427636D03*
D15*
X13234671Y-9893069D03*
X13344272Y-9783468D03*
X13090987Y-9749385D03*
X13200588Y-9639783D03*
D16*
X18556000Y-12556000D03*
X18556000Y-5444000D03*
X11444000Y-12556000D03*
D17*
X12635840Y-13032740D03*
X12235840Y-13032740D03*
D18*
X12919420Y-8486282D03*
X13029022Y-8595884D03*
D19*
X13123101Y-7194359D03*
X13013499Y-7303961D03*
D18*
X13033720Y-8384682D03*
X13143322Y-8494284D03*
D19*
X13013881Y-7087679D03*
X12904279Y-7197281D03*
D20*
X13111480Y-7830820D03*
X12994807Y-7714147D03*
D13*
X13167444Y-8219356D03*
X13284116Y-8102684D03*
D14*
X13500016Y-7886784D03*
X13383344Y-8003456D03*
D21*
X13902825Y-12099425D03*
X14037175Y-12233775D03*
D16*
X15000000Y-12600000D03*
X15000000Y-5400000D03*
X18600000Y-9000000D03*
X11400000Y-9000000D03*
D15*
X14232699Y-10926001D03*
X14342301Y-10816399D03*
X14105543Y-10766205D03*
X14215145Y-10656603D03*
D13*
X12712034Y-11560710D03*
X12828706Y-11444037D03*
X12979688Y-10148052D03*
X13096361Y-10031379D03*
X12442626Y-11284118D03*
X12559299Y-11167445D03*
X12325883Y-11167375D03*
X12442555Y-11050702D03*
X12836004Y-10004368D03*
X12952677Y-9887695D03*
X13995376Y-11163740D03*
X14112049Y-11047067D03*
X12828777Y-11677453D03*
X12945450Y-11560781D03*
D16*
X11444000Y-5444000D03*
D18*
X13384339Y-8210359D03*
X13493941Y-8319961D03*
X13489940Y-8105140D03*
X13599542Y-8214742D03*
X14059979Y-11959399D03*
X14169581Y-12069001D03*
D15*
X12995719Y-9292781D03*
X13105321Y-9183179D03*
X13699299Y-10014141D03*
X13808901Y-9904539D03*
D18*
X13246988Y-11504488D03*
X13356590Y-11614090D03*
D19*
X12653201Y-11296459D03*
X12543599Y-11406061D03*
D18*
X12541352Y-10522606D03*
X12650954Y-10632208D03*
D22*
X13833222Y-8788782D03*
X13723620Y-8679180D03*
D18*
X13394488Y-11359488D03*
X13504090Y-11469090D03*
D15*
X12530899Y-7255701D03*
X12640501Y-7146099D03*
D13*
X13851692Y-11020056D03*
X13968364Y-10903383D03*
D23*
X13176050Y-9373670D03*
X13326310Y-9523930D03*
D24*
X13615870Y-9823650D03*
X13465610Y-9673390D03*
D22*
X14664801Y-7304801D03*
X14555199Y-7195199D03*
D18*
X15610458Y-6098158D03*
X15720060Y-6207760D03*
D19*
X14284801Y-7545199D03*
X14175199Y-7654801D03*
X15541181Y-8324659D03*
X15431579Y-8434261D03*
D25*
X12805160Y-4777740D03*
X12615160Y-4777740D03*
D15*
X13264959Y-5096701D03*
X13374561Y-4987099D03*
D22*
X13996861Y-5904421D03*
X13887259Y-5794819D03*
X14659801Y-6785801D03*
X14550199Y-6676199D03*
D15*
X14600999Y-7789101D03*
X14710601Y-7679499D03*
D19*
X14223509Y-8463207D03*
X14113907Y-8572809D03*
X15223681Y-6653339D03*
X15114079Y-6762941D03*
X15736761Y-6955599D03*
X15627159Y-7065201D03*
D22*
X15510701Y-7700201D03*
X15401099Y-7590599D03*
D25*
X13846560Y-4780280D03*
X13656560Y-4780280D03*
D15*
X13630719Y-5467541D03*
X13740321Y-5357939D03*
D18*
X14057439Y-5619559D03*
X14167041Y-5729161D03*
D22*
X15002701Y-6442901D03*
X14893099Y-6333299D03*
D19*
X14507401Y-8733599D03*
X14397799Y-8843201D03*
X15243714Y-9478864D03*
X15134112Y-9588466D03*
X15531021Y-9762299D03*
X15421419Y-9871901D03*
D18*
X17782158Y-8297798D03*
X17891760Y-8407400D03*
D15*
X16361219Y-9803321D03*
X16470821Y-9693719D03*
X15563659Y-8558721D03*
X15673261Y-8449119D03*
D24*
X14482010Y-7044890D03*
X14331750Y-6894630D03*
X15378630Y-6120330D03*
X15228370Y-5970070D03*
D26*
X14205130Y-7864870D03*
X14054870Y-8015130D03*
X15099230Y-8764070D03*
X14948970Y-8914330D03*
D27*
X14197130Y-6783270D03*
X14347390Y-6633010D03*
D26*
X15045890Y-5934510D03*
X14895630Y-6084770D03*
D23*
X13953290Y-8167170D03*
X14103550Y-8317430D03*
D24*
X14809670Y-9051490D03*
X14659410Y-8901230D03*
D23*
X14783870Y-6668570D03*
X14934130Y-6818830D03*
D26*
X15010330Y-7659170D03*
X14860070Y-7809430D03*
D27*
X13369090Y-5238950D03*
X13519350Y-5088690D03*
X13732310Y-5622490D03*
X13882570Y-5472230D03*
X15246150Y-6862010D03*
X15396410Y-6711750D03*
X15726210Y-7202370D03*
X15876470Y-7052110D03*
D23*
X15210590Y-7638850D03*
X15360850Y-7789110D03*
D24*
X15294810Y-6493710D03*
X15144550Y-6343450D03*
D27*
X15307110Y-8073590D03*
X15457370Y-7923330D03*
X17895370Y-9186110D03*
X18045630Y-9035850D03*
D23*
X15684870Y-9874870D03*
X15835130Y-10025130D03*
D24*
X15137330Y-9358830D03*
X14987070Y-9208570D03*
X18059400Y-8803640D03*
X17909140Y-8653380D03*
D27*
X15984870Y-9945130D03*
X16135130Y-9794870D03*
X15088670Y-9054030D03*
X15238930Y-8903770D03*
D20*
X14788336Y-7188336D03*
X14671664Y-7071664D03*
D28*
X15501704Y-6200224D03*
X15618376Y-6316896D03*
D14*
X14422036Y-7650564D03*
X14305364Y-7767236D03*
D13*
X15201664Y-8668336D03*
X15318336Y-8551664D03*
D28*
X17663327Y-8417727D03*
X17780000Y-8534400D03*
D13*
X16235764Y-9697636D03*
X16352436Y-9580964D03*
D14*
X15448336Y-8681664D03*
X15331664Y-8798336D03*
D29*
X14739326Y-7966266D03*
D30*
X14605754Y-8227825D03*
X14535043Y-8157114D03*
X14464332Y-8227825D03*
X14747175Y-8227825D03*
X14605754Y-8369246D03*
X14817886Y-8439957D03*
X14747175Y-8369246D03*
X14535043Y-8298535D03*
X14817886Y-8298535D03*
X14747175Y-8510668D03*
X14676464Y-8298535D03*
X14605754Y-8086403D03*
D31*
X14676464Y-8298535D03*
D30*
X14888596Y-8369246D03*
X14676464Y-8157114D03*
D29*
X14829129Y-8056069D03*
D30*
X14676464Y-8439957D03*
D29*
X14918931Y-8145871D03*
X15008734Y-8235674D03*
X14613603Y-8630805D03*
X14523800Y-8541002D03*
X14433998Y-8451200D03*
X14344195Y-8361397D03*
X15764326Y-8981266D03*
D30*
X15772175Y-9525668D03*
X15842886Y-9313536D03*
X15772175Y-9384246D03*
X15630754Y-9384246D03*
X15560043Y-9172114D03*
X15701464Y-9172114D03*
X15772175Y-9242825D03*
X15630754Y-9101404D03*
X15842886Y-9454957D03*
X15701464Y-9313536D03*
X15560043Y-9313536D03*
D31*
X15701464Y-9313536D03*
D30*
X15630754Y-9242825D03*
D29*
X15854129Y-9071069D03*
D30*
X15701464Y-9454957D03*
X15489332Y-9242825D03*
X15913596Y-9384246D03*
D29*
X15943931Y-9160871D03*
X16033734Y-9250674D03*
X15638603Y-9645805D03*
X15548800Y-9556002D03*
X15458998Y-9466200D03*
X15369195Y-9376397D03*
D20*
X16774160Y-9474200D03*
X16657487Y-9357527D03*
D22*
X16864521Y-9351201D03*
X16754919Y-9241599D03*
D26*
X17349670Y-9749590D03*
X17199410Y-9899850D03*
D24*
X17073880Y-9758680D03*
X16923620Y-9608420D03*
D27*
X12894110Y-9617910D03*
X13044370Y-9467650D03*
D23*
X14176810Y-10394750D03*
X14327070Y-10545010D03*
D14*
X13901336Y-10406464D03*
X13784664Y-10523136D03*
X14828436Y-9504764D03*
X14711764Y-9621436D03*
D18*
X17527079Y-9104439D03*
X17636681Y-9214041D03*
D26*
X15652950Y-7334050D03*
X15502690Y-7484310D03*
D32*
X19240500Y-10108700D03*
X19240500Y-9918700D03*
D22*
X16451962Y-8603362D03*
X16342360Y-8493760D03*
D33*
X13502640Y-4787900D03*
X13290140Y-4787900D03*
D27*
X14359690Y-11121590D03*
X14509950Y-10971330D03*
D26*
X17215050Y-8598970D03*
X17064790Y-8749230D03*
X16567350Y-8108750D03*
X16417090Y-8259010D03*
D23*
X13706910Y-5042970D03*
X13857170Y-5193230D03*
D34*
X19240500Y-10269650D03*
X19240500Y-10482150D03*
D23*
X16790470Y-8700570D03*
X16940730Y-8850830D03*
D14*
X12895496Y-9390464D03*
X12778824Y-9507136D03*
D28*
X17162864Y-10368364D03*
X17279536Y-10485036D03*
D18*
X15367000Y-10350500D03*
X15476602Y-10460102D03*
D15*
X14745779Y-9889681D03*
X14855381Y-9780079D03*
X14659419Y-11434001D03*
X14769021Y-11324399D03*
D26*
X18782230Y-10498890D03*
X18631970Y-10649150D03*
D35*
X16667210Y-10493010D03*
X16532860Y-10627360D03*
D22*
X15829280Y-10614660D03*
X15719678Y-10505058D03*
D36*
X16082010Y-10398760D03*
X15891510Y-10398760D03*
D23*
X12942370Y-5007410D03*
X13092630Y-5157670D03*
D37*
X15255502Y-11809700D03*
X15092868Y-11647065D03*
D38*
X15538345Y-11201588D03*
D37*
X14930233Y-11484430D03*
D39*
X15721195Y-10768195D03*
X15586845Y-10633845D03*
D23*
X14030960Y-5351780D03*
X14181220Y-5502040D03*
D27*
X13369090Y-10103050D03*
X13519350Y-9952790D03*
D28*
X12796604Y-7312744D03*
X12913276Y-7429416D03*
D13*
X13777044Y-8488596D03*
X13893716Y-8371924D03*
D28*
X15524564Y-10172784D03*
X15641236Y-10289456D03*
D15*
X15269019Y-10692321D03*
X15378621Y-10582719D03*
X16203739Y-9389301D03*
X16313341Y-9279699D03*
D23*
X13318290Y-5441750D03*
X13468550Y-5592010D03*
D35*
X16942935Y-10590665D03*
X16808585Y-10725015D03*
D23*
X13615470Y-5766870D03*
X13765730Y-5917130D03*
X14923570Y-9627670D03*
X15073830Y-9777930D03*
D24*
X18982890Y-11063170D03*
X18832630Y-10912910D03*
D26*
X18477430Y-10196630D03*
X18327170Y-10346890D03*
D24*
X18909230Y-10326570D03*
X18758970Y-10176310D03*
D35*
X16511135Y-10341745D03*
X16376785Y-10476095D03*
D15*
X16986059Y-8479981D03*
X17095661Y-8370379D03*
D24*
X14616630Y-10839650D03*
X14466370Y-10689390D03*
D27*
X16533930Y-8403790D03*
X16684190Y-8253530D03*
D19*
X18901601Y-10630979D03*
X18791999Y-10740581D03*
D20*
X12750716Y-8171096D03*
X12634044Y-8054424D03*
D40*
X14944419Y-9938925D03*
X14990381Y-9984887D03*
X15036343Y-10030849D03*
X15082305Y-10076811D03*
X15128267Y-10122773D03*
X15174229Y-10168735D03*
X15220191Y-10214697D03*
X14815372Y-10619515D03*
X14769410Y-10573553D03*
X14723448Y-10527591D03*
X14677487Y-10481629D03*
X14631525Y-10435668D03*
X14585563Y-10389706D03*
X14539601Y-10343744D03*
D14*
X14604916Y-11122744D03*
X14488244Y-11239416D03*
D24*
X15772330Y-6755330D03*
X15622070Y-6605070D03*
D19*
X18594261Y-10343959D03*
X18484659Y-10453561D03*
D23*
X17001290Y-9061250D03*
X17151550Y-9211510D03*
D24*
X14377870Y-9064190D03*
X14227610Y-8913930D03*
D41*
X14493240Y-11789660D03*
X14493240Y-11979660D03*
D18*
X18253519Y-9917239D03*
X18363121Y-10026841D03*
D42*
X14074140Y-11391900D03*
D43*
X13927415Y-11538625D03*
X14220865Y-11245175D03*
D14*
X13601616Y-10121984D03*
X13484944Y-10238656D03*
D44*
X14084770Y-6099178D03*
D30*
X14558461Y-6162040D03*
X14204908Y-6232751D03*
D44*
X14174573Y-6009376D03*
D30*
X14346329Y-6091329D03*
X14417040Y-6303461D03*
X14487751Y-6232751D03*
X14346329Y-6374172D03*
X14417040Y-6162040D03*
X14346329Y-6232751D03*
X14629172Y-6091329D03*
D45*
X14417040Y-6162040D03*
D30*
X14558461Y-6020619D03*
X14487751Y-5949908D03*
X14487751Y-6091329D03*
X14275619Y-6303461D03*
X14275619Y-6162040D03*
X14417040Y-6020619D03*
D44*
X14264376Y-5919573D03*
X14354178Y-5829770D03*
X14749309Y-6224902D03*
X14659507Y-6314704D03*
X14569704Y-6404507D03*
X14479902Y-6494309D03*
D23*
X13924280Y-8605520D03*
X14074540Y-8755780D03*
D20*
X13004716Y-7937416D03*
X12888044Y-7820744D03*
X12867556Y-8064416D03*
X12750884Y-7947744D03*
D46*
X17198403Y-11083028D03*
X17131227Y-11015853D03*
X17064052Y-10948678D03*
X17224919Y-10787811D03*
X17292094Y-10854986D03*
X17359269Y-10922161D03*
D23*
X15329970Y-7011470D03*
X15480230Y-7161730D03*
D24*
X18208190Y-10499290D03*
X18057930Y-10349030D03*
D15*
X15616999Y-8843201D03*
X15726601Y-8733599D03*
D47*
X14489380Y-11404600D03*
X14324380Y-11404600D03*
D18*
X17247679Y-9348279D03*
X17357281Y-9457881D03*
D14*
X14350916Y-9293944D03*
X14234244Y-9410616D03*
D18*
X14343380Y-9519920D03*
X14452982Y-9629522D03*
D22*
X17598581Y-11157141D03*
X17488979Y-11047539D03*
D15*
X17151159Y-8944801D03*
X17260761Y-8835199D03*
X14004099Y-10291001D03*
X14113701Y-10181399D03*
D13*
X15151184Y-10579016D03*
X15267856Y-10462344D03*
D24*
X17385230Y-8426650D03*
X17234970Y-8276390D03*
D18*
X14677199Y-11641899D03*
X14786801Y-11751501D03*
D24*
X15402960Y-10081660D03*
X15252700Y-9931400D03*
D32*
X19230340Y-11128760D03*
X19230340Y-10938760D03*
D48*
X18155163Y-9730102D03*
D30*
X17610761Y-9737951D03*
X17752183Y-9596529D03*
X17893604Y-9737951D03*
X17893604Y-9455108D03*
X18035025Y-9596529D03*
D48*
X18065360Y-9819904D03*
D30*
X17681472Y-9667240D03*
X17752183Y-9737951D03*
X17822893Y-9808661D03*
X17752183Y-9879372D03*
X17964315Y-9525819D03*
X17964315Y-9667240D03*
X17681472Y-9808661D03*
X17822893Y-9525819D03*
X17822893Y-9667240D03*
D49*
X17822893Y-9667240D03*
D30*
X17893604Y-9596529D03*
D48*
X17975558Y-9909707D03*
X17885755Y-9999510D03*
X17490624Y-9604378D03*
X17580427Y-9514576D03*
X17670229Y-9424773D03*
X17760032Y-9334971D03*
D27*
X15728750Y-7522410D03*
X15879010Y-7372150D03*
D36*
X13956030Y-11793220D03*
X13765530Y-11793220D03*
D19*
X17053560Y-10734040D03*
X16943958Y-10843642D03*
D22*
X18172621Y-10222421D03*
X18063019Y-10112819D03*
D50*
X12419251Y-7592657D03*
X12454606Y-7557302D03*
X12489962Y-7521946D03*
X12525317Y-7486591D03*
D51*
X12624312Y-7486591D03*
X12659667Y-7521946D03*
X12695023Y-7557302D03*
X12730378Y-7592657D03*
D50*
X12730378Y-7691652D03*
X12695023Y-7727007D03*
X12659667Y-7762363D03*
X12624312Y-7797718D03*
D51*
X12525317Y-7797718D03*
X12489962Y-7762363D03*
X12454606Y-7727007D03*
X12419251Y-7691652D03*
D52*
X12574814Y-7642155D03*
D20*
X17500516Y-10708556D03*
X17383844Y-10591884D03*
D18*
X14466379Y-9396539D03*
X14575981Y-9506141D03*
D40*
X13928731Y-8923237D03*
X13974693Y-8969199D03*
X14020655Y-9015161D03*
X14066617Y-9061123D03*
X14112579Y-9107085D03*
X14158541Y-9153047D03*
X14204503Y-9199009D03*
X13799684Y-9603827D03*
X13753722Y-9557865D03*
X13707760Y-9511903D03*
X13661798Y-9465941D03*
X13615836Y-9419979D03*
X13569875Y-9374017D03*
X13523913Y-9328056D03*
D24*
X17522390Y-8868610D03*
X17372130Y-8718350D03*
D53*
X12874046Y-10701434D03*
X12909401Y-10736789D03*
X12944757Y-10772144D03*
X12980112Y-10807500D03*
X13015467Y-10842855D03*
D54*
X13026074Y-10902959D03*
X13061429Y-10938314D03*
X13096785Y-10973670D03*
D53*
X13156889Y-10984276D03*
X13192244Y-11019632D03*
X13227599Y-11054987D03*
X13262955Y-11090342D03*
X13298310Y-11125698D03*
D55*
X13245277Y-11228228D03*
X13209922Y-11263583D03*
X13174566Y-11298939D03*
X13139211Y-11334294D03*
D53*
X13036681Y-11387327D03*
X13001325Y-11351972D03*
X12965970Y-11316616D03*
X12930615Y-11281261D03*
X12895259Y-11245906D03*
D54*
X12884653Y-11185802D03*
X12849297Y-11150446D03*
X12813942Y-11115091D03*
D53*
X12753838Y-11104485D03*
X12718482Y-11069129D03*
X12683127Y-11033774D03*
X12647772Y-10998419D03*
X12612416Y-10963063D03*
D55*
X12665449Y-10860533D03*
X12700805Y-10825177D03*
X12736160Y-10789822D03*
X12771515Y-10754467D03*
D56*
X12955363Y-11044380D03*
D57*
X13090067Y-11179084D03*
X12820659Y-10909677D03*
D27*
X16169640Y-9113520D03*
X16319900Y-8963260D03*
D26*
X16036490Y-8708190D03*
X15886230Y-8858450D03*
D27*
X13910110Y-10646610D03*
X14060370Y-10496350D03*
D26*
X17042330Y-8184950D03*
X16892070Y-8335210D03*
D28*
X14495864Y-9169484D03*
X14612536Y-9286156D03*
D24*
X18472350Y-10771070D03*
X18322090Y-10620810D03*
X18639990Y-10062410D03*
X18489730Y-9912150D03*
D15*
X15175039Y-8396161D03*
X15284641Y-8286559D03*
D58*
X16846897Y-11314396D03*
D59*
X16511375Y-10978874D03*
D60*
X16250568Y-10754712D03*
X15893513Y-11111767D03*
D15*
X14710219Y-11014901D03*
X14819821Y-10905299D03*
D23*
X16200120Y-8600440D03*
X16350380Y-8750700D03*
G36*
X13943616Y-11423621D02*
G01*
X13947470Y-11438004D01*
X13957401Y-11459300D01*
X13970878Y-11478547D01*
X13987493Y-11495162D01*
X14006740Y-11508639D01*
X14028036Y-11518570D01*
X14043633Y-11522749D01*
X14043774Y-11522890D01*
X14043723Y-11523084D01*
X14043541Y-11523138D01*
X14038585Y-11522130D01*
X14031654Y-11522720D01*
X14026166Y-11526944D01*
X14023834Y-11533466D01*
X14025401Y-11540228D01*
X14027425Y-11542895D01*
X14027450Y-11543093D01*
X14027291Y-11543214D01*
X14027124Y-11543157D01*
X13923087Y-11439120D01*
X13923035Y-11438926D01*
X13923176Y-11438785D01*
X13923324Y-11438803D01*
X13929454Y-11442150D01*
X13936362Y-11441656D01*
X13941907Y-11437505D01*
X13944332Y-11431002D01*
X13944063Y-11427421D01*
X13943228Y-11423717D01*
X13943288Y-11423526D01*
X13943483Y-11423482D01*
X13943616Y-11423621D01*
G37*
G36*
X12504515Y-11317830D02*
G01*
X12504509Y-11317953D01*
X12502128Y-11324209D01*
X12503555Y-11330986D01*
X12508420Y-11335916D01*
X12515187Y-11337435D01*
X12519636Y-11336289D01*
X12520345Y-11335955D01*
X12520544Y-11335972D01*
X12520629Y-11336153D01*
X12520548Y-11336298D01*
X12511909Y-11342574D01*
X12482225Y-11372259D01*
X12482031Y-11372310D01*
X12481890Y-11372169D01*
X12481908Y-11372021D01*
X12485255Y-11365891D01*
X12484761Y-11358983D01*
X12480610Y-11353439D01*
X12474118Y-11351017D01*
X12468044Y-11352149D01*
X12467855Y-11352082D01*
X12467818Y-11351886D01*
X12467889Y-11351791D01*
X12476084Y-11345837D01*
X12504181Y-11317740D01*
X12504374Y-11317688D01*
X12504515Y-11317830D01*
G37*
G36*
X14283090Y-11317442D02*
G01*
X14283072Y-11317589D01*
X14279725Y-11323719D01*
X14280219Y-11330628D01*
X14284370Y-11336172D01*
X14290877Y-11338599D01*
X14293416Y-11338517D01*
X14298899Y-11337766D01*
X14299084Y-11337841D01*
X14299111Y-11338039D01*
X14298957Y-11338161D01*
X14292082Y-11339250D01*
X14280987Y-11344903D01*
X14272183Y-11353707D01*
X14267065Y-11363752D01*
X14266898Y-11363861D01*
X14266719Y-11363770D01*
X14266687Y-11363649D01*
X14267039Y-11357791D01*
X14263651Y-11351751D01*
X14257535Y-11348501D01*
X14250615Y-11349075D01*
X14249275Y-11349790D01*
X14249233Y-11349806D01*
X14248850Y-11349909D01*
X14248657Y-11349857D01*
X14248605Y-11349664D01*
X14248687Y-11349549D01*
X14254325Y-11345783D01*
X14282755Y-11317352D01*
X14282949Y-11317300D01*
X14283090Y-11317442D01*
G37*
G36*
X13092282Y-11336023D02*
G01*
X13093405Y-11337702D01*
X13100110Y-11344408D01*
X13100162Y-11344601D01*
X13100020Y-11344742D01*
X13099873Y-11344724D01*
X13093742Y-11341377D01*
X13086810Y-11341873D01*
X13085650Y-11342377D01*
X13080562Y-11347111D01*
X13078846Y-11353821D01*
X13081036Y-11360413D01*
X13081663Y-11361163D01*
X13081673Y-11361177D01*
X13082033Y-11361691D01*
X13082051Y-11361890D01*
X13081887Y-11362004D01*
X13081728Y-11361947D01*
X13069309Y-11349528D01*
X13069257Y-11349334D01*
X13069398Y-11349193D01*
X13069442Y-11349186D01*
X13069902Y-11349168D01*
X13081635Y-11344629D01*
X13089228Y-11338740D01*
X13091975Y-11335993D01*
X13092168Y-11335941D01*
X13092282Y-11336023D01*
G37*
G36*
X14121016Y-11240504D02*
G01*
X14225049Y-11344537D01*
X14225101Y-11344730D01*
X14224960Y-11344871D01*
X14224812Y-11344854D01*
X14218682Y-11341506D01*
X14211774Y-11342000D01*
X14206229Y-11346151D01*
X14203804Y-11352653D01*
X14204144Y-11356528D01*
X14204805Y-11359160D01*
X14204750Y-11359352D01*
X14204556Y-11359401D01*
X14204418Y-11359260D01*
X14200810Y-11345796D01*
X14190879Y-11324500D01*
X14177402Y-11305253D01*
X14160787Y-11288638D01*
X14141540Y-11275161D01*
X14120244Y-11265230D01*
X14103136Y-11260646D01*
X14102995Y-11260505D01*
X14103047Y-11260312D01*
X14103223Y-11260256D01*
X14109464Y-11261368D01*
X14109500Y-11261168D01*
X14109629Y-11261015D01*
X14109708Y-11261003D01*
X14114680Y-11261273D01*
X14120701Y-11257849D01*
X14123915Y-11251714D01*
X14123301Y-11244807D01*
X14121266Y-11241699D01*
X14121257Y-11241539D01*
X14120711Y-11240760D01*
X14120694Y-11240561D01*
X14120858Y-11240446D01*
X14121016Y-11240504D01*
G37*
G36*
X12615964Y-11206381D02*
G01*
X12615947Y-11206528D01*
X12612600Y-11212658D01*
X12613094Y-11219566D01*
X12617244Y-11225111D01*
X12623736Y-11227532D01*
X12629871Y-11226389D01*
X12629947Y-11226353D01*
X12630146Y-11226370D01*
X12630231Y-11226551D01*
X12630149Y-11226696D01*
X12621511Y-11232972D01*
X12598897Y-11255586D01*
X12598704Y-11255638D01*
X12598563Y-11255496D01*
X12598580Y-11255349D01*
X12601928Y-11249219D01*
X12601434Y-11242310D01*
X12597283Y-11236766D01*
X12590791Y-11234345D01*
X12584716Y-11235476D01*
X12584528Y-11235410D01*
X12584491Y-11235213D01*
X12584562Y-11235118D01*
X12592756Y-11229164D01*
X12615630Y-11206291D01*
X12615823Y-11206239D01*
X12615964Y-11206381D01*
G37*
G36*
X13260305Y-11158120D02*
G01*
X13273145Y-11170960D01*
X13273197Y-11171153D01*
X13273055Y-11171295D01*
X13272907Y-11171277D01*
X13272813Y-11171225D01*
X13272780Y-11171203D01*
X13272711Y-11171145D01*
X13272697Y-11171150D01*
X13272636Y-11171129D01*
X13266777Y-11167930D01*
X13259869Y-11168424D01*
X13254308Y-11172587D01*
X13253174Y-11174423D01*
X13251944Y-11181260D01*
X13254607Y-11187680D01*
X13255474Y-11188646D01*
X13255516Y-11188841D01*
X13255367Y-11188975D01*
X13255184Y-11188921D01*
X13248685Y-11182422D01*
X13247006Y-11181300D01*
X13246917Y-11181120D01*
X13246976Y-11180992D01*
X13249720Y-11178248D01*
X13257042Y-11168002D01*
X13259972Y-11158204D01*
X13260117Y-11158067D01*
X13260305Y-11158120D01*
G37*
G36*
X12655542Y-10899840D02*
G01*
X12662041Y-10906339D01*
X12663721Y-10907461D01*
X12663809Y-10907641D01*
X12663751Y-10907769D01*
X12661007Y-10910513D01*
X12653685Y-10920759D01*
X12650755Y-10930557D01*
X12650609Y-10930694D01*
X12650422Y-10930641D01*
X12637582Y-10917801D01*
X12637530Y-10917607D01*
X12637671Y-10917466D01*
X12637819Y-10917484D01*
X12637914Y-10917535D01*
X12637946Y-10917558D01*
X12638015Y-10917616D01*
X12638029Y-10917610D01*
X12638090Y-10917632D01*
X12643949Y-10920831D01*
X12650857Y-10920337D01*
X12656418Y-10916174D01*
X12657552Y-10914337D01*
X12658783Y-10907501D01*
X12656120Y-10901081D01*
X12655252Y-10900115D01*
X12655211Y-10899919D01*
X12655359Y-10899786D01*
X12655542Y-10899840D01*
G37*
G36*
X14545198Y-10881073D02*
G01*
X14575385Y-10911260D01*
X14575437Y-10911453D01*
X14575296Y-10911594D01*
X14575173Y-10911588D01*
X14568847Y-10909180D01*
X14562070Y-10910607D01*
X14557140Y-10915472D01*
X14555622Y-10922229D01*
X14558007Y-10928755D01*
X14559201Y-10930143D01*
X14559238Y-10930339D01*
X14559086Y-10930470D01*
X14558908Y-10930414D01*
X14528227Y-10899734D01*
X14528175Y-10899540D01*
X14528317Y-10899399D01*
X14528439Y-10899405D01*
X14534774Y-10901816D01*
X14541551Y-10900389D01*
X14546481Y-10895524D01*
X14547998Y-10888770D01*
X14545272Y-10881797D01*
X14544901Y-10881340D01*
X14544870Y-10881142D01*
X14545026Y-10881017D01*
X14545198Y-10881073D01*
G37*
G36*
X16900458Y-10759897D02*
G01*
X16900505Y-10760048D01*
X16899826Y-10766364D01*
X16902926Y-10772557D01*
X16908882Y-10776091D01*
X16915815Y-10775843D01*
X16917417Y-10774966D01*
X16917617Y-10774971D01*
X16917628Y-10774983D01*
X16920705Y-10773536D01*
X16920904Y-10773552D01*
X16920989Y-10773733D01*
X16920907Y-10773878D01*
X16912269Y-10780155D01*
X16880472Y-10811952D01*
X16872684Y-10822671D01*
X16871971Y-10824865D01*
X16871822Y-10824999D01*
X16871632Y-10824937D01*
X16871581Y-10824785D01*
X16872162Y-10818443D01*
X16868965Y-10812299D01*
X16862954Y-10808859D01*
X16856024Y-10809216D01*
X16854504Y-10810037D01*
X16854305Y-10810032D01*
X16854209Y-10809856D01*
X16854274Y-10809715D01*
X16856178Y-10807954D01*
X16891518Y-10772614D01*
X16899441Y-10761887D01*
X16900117Y-10759961D01*
X16900269Y-10759830D01*
X16900458Y-10759897D01*
G37*
G36*
X12828999Y-10726814D02*
G01*
X12841418Y-10739233D01*
X12841470Y-10739426D01*
X12841328Y-10739568D01*
X12841284Y-10739574D01*
X12840824Y-10739593D01*
X12829091Y-10744131D01*
X12821499Y-10750021D01*
X12818752Y-10752768D01*
X12818559Y-10752820D01*
X12818444Y-10752738D01*
X12817322Y-10751059D01*
X12810617Y-10744353D01*
X12810565Y-10744160D01*
X12810706Y-10744019D01*
X12810854Y-10744036D01*
X12816984Y-10747384D01*
X12823917Y-10746888D01*
X12825076Y-10746383D01*
X12830165Y-10741650D01*
X12831881Y-10734940D01*
X12829690Y-10728348D01*
X12829063Y-10727597D01*
X12829053Y-10727584D01*
X12828693Y-10727070D01*
X12828676Y-10726871D01*
X12828840Y-10726756D01*
X12828999Y-10726814D01*
G37*
G36*
X17024391Y-10640165D02*
G01*
X17024374Y-10640312D01*
X17021026Y-10646443D01*
X17021520Y-10653351D01*
X17025671Y-10658895D01*
X17032163Y-10661317D01*
X17038297Y-10660174D01*
X17039033Y-10659828D01*
X17039085Y-10659812D01*
X17041812Y-10659350D01*
X17042000Y-10659420D01*
X17042033Y-10659617D01*
X17041908Y-10659738D01*
X17032590Y-10662765D01*
X17021870Y-10670553D01*
X16990149Y-10702274D01*
X16989956Y-10702326D01*
X16989815Y-10702184D01*
X16989821Y-10702062D01*
X16992181Y-10695861D01*
X16990754Y-10689084D01*
X16985889Y-10684154D01*
X16979119Y-10682634D01*
X16977379Y-10683039D01*
X16977187Y-10682981D01*
X16977142Y-10682786D01*
X16977228Y-10682675D01*
X16987948Y-10675989D01*
X16990528Y-10673604D01*
X17024057Y-10640075D01*
X17024250Y-10640023D01*
X17024391Y-10640165D01*
G37*
G36*
X14244534Y-10566250D02*
G01*
X14247513Y-10575419D01*
X14255186Y-10585981D01*
X14286099Y-10616894D01*
X14296661Y-10624567D01*
X14307052Y-10627943D01*
X14307186Y-10628092D01*
X14307124Y-10628282D01*
X14306969Y-10628332D01*
X14305598Y-10628188D01*
X14305545Y-10628175D01*
X14304478Y-10627753D01*
X14297551Y-10627118D01*
X14291408Y-10630315D01*
X14287968Y-10636326D01*
X14288325Y-10643267D01*
X14288796Y-10644420D01*
X14289357Y-10645611D01*
X14289373Y-10645663D01*
X14289835Y-10648391D01*
X14289765Y-10648579D01*
X14289568Y-10648612D01*
X14289447Y-10648486D01*
X14286420Y-10639168D01*
X14278632Y-10628449D01*
X14243299Y-10593116D01*
X14232580Y-10585328D01*
X14228035Y-10583852D01*
X14227927Y-10583731D01*
X14227758Y-10583761D01*
X14222025Y-10581899D01*
X14221891Y-10581750D01*
X14221953Y-10581560D01*
X14222108Y-10581510D01*
X14223507Y-10581657D01*
X14223560Y-10581670D01*
X14227893Y-10583385D01*
X14227988Y-10583505D01*
X14228115Y-10583462D01*
X14235006Y-10584094D01*
X14241150Y-10580897D01*
X14244594Y-10574878D01*
X14244758Y-10569962D01*
X14244146Y-10566345D01*
X14244216Y-10566158D01*
X14244413Y-10566125D01*
X14244534Y-10566250D01*
G37*
G36*
X15656643Y-10537200D02*
G01*
X15687397Y-10567954D01*
X15687449Y-10568147D01*
X15687308Y-10568289D01*
X15687135Y-10568255D01*
X15686616Y-10567860D01*
X15686566Y-10567926D01*
X15686381Y-10568004D01*
X15686311Y-10567981D01*
X15681412Y-10565306D01*
X15674504Y-10565800D01*
X15668960Y-10569950D01*
X15666539Y-10576440D01*
X15668016Y-10583229D01*
X15669045Y-10584809D01*
X15669509Y-10585414D01*
X15669536Y-10585613D01*
X15669377Y-10585734D01*
X15669209Y-10585678D01*
X15638180Y-10554648D01*
X15638128Y-10554455D01*
X15638270Y-10554314D01*
X15638417Y-10554331D01*
X15644548Y-10557679D01*
X15651456Y-10557185D01*
X15657000Y-10553034D01*
X15659421Y-10546545D01*
X15657944Y-10539757D01*
X15656713Y-10537920D01*
X15656346Y-10537467D01*
X15656315Y-10537270D01*
X15656470Y-10537144D01*
X15656643Y-10537200D01*
G37*
G36*
X15415843Y-10494520D02*
G01*
X15444912Y-10523588D01*
X15454615Y-10530638D01*
X15454696Y-10530821D01*
X15454579Y-10530983D01*
X15454424Y-10530986D01*
X15453954Y-10530800D01*
X15453907Y-10530773D01*
X15452283Y-10529541D01*
X15445782Y-10527067D01*
X15439005Y-10528494D01*
X15434075Y-10533359D01*
X15432558Y-10540116D01*
X15434943Y-10546642D01*
X15436136Y-10548028D01*
X15436173Y-10548225D01*
X15436022Y-10548355D01*
X15435843Y-10548300D01*
X15406775Y-10519232D01*
X15397072Y-10512183D01*
X15396990Y-10512000D01*
X15397108Y-10511838D01*
X15397263Y-10511835D01*
X15397732Y-10512021D01*
X15397780Y-10512047D01*
X15399404Y-10513280D01*
X15405904Y-10515754D01*
X15412682Y-10514327D01*
X15417612Y-10509462D01*
X15419129Y-10502705D01*
X15416744Y-10496179D01*
X15415550Y-10494792D01*
X15415513Y-10494595D01*
X15415665Y-10494465D01*
X15415843Y-10494520D01*
G37*
G36*
X14093142Y-10403792D02*
G01*
X14093224Y-10403954D01*
X14093224Y-10412760D01*
X14097253Y-10425159D01*
X14104926Y-10435721D01*
X14135839Y-10466634D01*
X14146401Y-10474307D01*
X14156791Y-10477683D01*
X14156925Y-10477832D01*
X14156863Y-10478022D01*
X14156709Y-10478072D01*
X14155328Y-10477927D01*
X14148485Y-10479178D01*
X14143428Y-10483910D01*
X14141728Y-10490633D01*
X14142773Y-10494923D01*
X14142776Y-10494937D01*
X14143294Y-10497996D01*
X14143224Y-10498184D01*
X14143027Y-10498217D01*
X14142906Y-10498091D01*
X14139927Y-10488922D01*
X14132254Y-10478360D01*
X14078360Y-10424466D01*
X14068805Y-10417524D01*
X14068723Y-10417341D01*
X14068841Y-10417180D01*
X14068996Y-10417176D01*
X14069452Y-10417357D01*
X14069500Y-10417384D01*
X14072962Y-10420012D01*
X14079463Y-10422486D01*
X14086240Y-10421059D01*
X14091170Y-10416194D01*
X14092693Y-10409413D01*
X14092548Y-10408175D01*
X14092449Y-10407585D01*
X14092447Y-10407531D01*
X14092825Y-10403933D01*
X14092943Y-10403771D01*
X14093142Y-10403792D01*
G37*
G36*
X15297237Y-10373551D02*
G01*
X15303513Y-10382190D01*
X15335310Y-10413987D01*
X15345107Y-10421104D01*
X15345188Y-10421287D01*
X15345070Y-10421449D01*
X15344971Y-10421465D01*
X15338117Y-10420837D01*
X15331973Y-10424034D01*
X15328533Y-10430045D01*
X15328889Y-10436974D01*
X15330941Y-10440652D01*
X15334963Y-10445618D01*
X15334989Y-10445659D01*
X15335803Y-10447390D01*
X15335787Y-10447590D01*
X15335606Y-10447675D01*
X15335461Y-10447593D01*
X15329575Y-10439493D01*
X15290707Y-10400625D01*
X15281598Y-10394006D01*
X15281516Y-10393824D01*
X15281634Y-10393662D01*
X15281789Y-10393658D01*
X15283188Y-10394212D01*
X15290114Y-10394847D01*
X15296258Y-10391650D01*
X15299698Y-10385639D01*
X15299342Y-10378710D01*
X15298394Y-10377011D01*
X15298395Y-10376943D01*
X15296894Y-10373754D01*
X15296911Y-10373555D01*
X15297092Y-10373469D01*
X15297237Y-10373551D01*
G37*
G36*
X18102858Y-10245472D02*
G01*
X18109134Y-10254111D01*
X18140931Y-10285908D01*
X18150634Y-10292957D01*
X18150716Y-10293140D01*
X18150598Y-10293302D01*
X18150443Y-10293305D01*
X18149974Y-10293119D01*
X18149926Y-10293093D01*
X18148372Y-10291913D01*
X18141871Y-10289439D01*
X18135094Y-10290866D01*
X18130164Y-10295730D01*
X18128647Y-10302485D01*
X18131373Y-10309457D01*
X18135448Y-10314490D01*
X18135474Y-10314530D01*
X18136335Y-10316361D01*
X18136318Y-10316560D01*
X18136137Y-10316645D01*
X18135992Y-10316564D01*
X18129814Y-10308059D01*
X18098901Y-10277146D01*
X18089345Y-10270204D01*
X18089264Y-10270021D01*
X18089382Y-10269860D01*
X18089537Y-10269856D01*
X18089993Y-10270037D01*
X18090041Y-10270064D01*
X18091024Y-10270810D01*
X18097524Y-10273284D01*
X18104301Y-10271857D01*
X18109231Y-10266992D01*
X18110748Y-10260237D01*
X18108022Y-10253265D01*
X18103417Y-10247579D01*
X18103392Y-10247538D01*
X18102515Y-10245675D01*
X18102532Y-10245475D01*
X18102712Y-10245390D01*
X18102858Y-10245472D01*
G37*
G36*
X13629536Y-10033657D02*
G01*
X13635812Y-10042295D01*
X13671145Y-10077628D01*
X13681763Y-10085342D01*
X13681845Y-10085525D01*
X13681727Y-10085687D01*
X13681627Y-10085703D01*
X13675666Y-10085157D01*
X13669523Y-10088354D01*
X13666083Y-10094365D01*
X13666439Y-10101294D01*
X13668491Y-10104971D01*
X13668723Y-10105258D01*
X13668749Y-10105299D01*
X13669563Y-10107030D01*
X13669547Y-10107230D01*
X13669366Y-10107315D01*
X13669221Y-10107233D01*
X13663335Y-10099133D01*
X13624467Y-10060265D01*
X13614939Y-10053342D01*
X13614858Y-10053159D01*
X13614975Y-10052997D01*
X13615075Y-10052981D01*
X13621575Y-10053577D01*
X13627719Y-10050380D01*
X13631159Y-10044369D01*
X13630802Y-10037427D01*
X13630330Y-10036275D01*
X13629193Y-10033859D01*
X13629210Y-10033660D01*
X13629391Y-10033575D01*
X13629536Y-10033657D01*
G37*
G36*
X17884192Y-9892976D02*
G01*
X17884274Y-9893101D01*
X17885497Y-9899252D01*
X17889800Y-9905690D01*
X17979574Y-9995465D01*
X17986013Y-9999767D01*
X17990425Y-10000645D01*
X17990575Y-10000777D01*
X17990536Y-10000973D01*
X17990425Y-10001037D01*
X17983793Y-10002370D01*
X17978819Y-10007189D01*
X17977235Y-10013951D01*
X17977481Y-10015490D01*
X17977483Y-10015539D01*
X17977435Y-10016094D01*
X17977320Y-10016258D01*
X17977121Y-10016241D01*
X17977039Y-10016116D01*
X17975816Y-10009965D01*
X17971513Y-10003526D01*
X17881739Y-9913752D01*
X17875300Y-9909449D01*
X17870889Y-9908572D01*
X17870738Y-9908440D01*
X17870777Y-9908244D01*
X17870888Y-9908179D01*
X17877520Y-9906847D01*
X17882494Y-9902028D01*
X17884078Y-9895266D01*
X17883832Y-9893726D01*
X17883830Y-9893677D01*
X17883879Y-9893122D01*
X17883993Y-9892958D01*
X17884192Y-9892976D01*
G37*
G36*
X15902334Y-9943389D02*
G01*
X15905313Y-9952559D01*
X15912986Y-9963120D01*
X15938455Y-9988589D01*
X15938507Y-9988782D01*
X15938366Y-9988924D01*
X15938218Y-9988906D01*
X15932088Y-9985559D01*
X15925180Y-9986053D01*
X15919635Y-9990203D01*
X15917209Y-9996709D01*
X15917350Y-9999632D01*
X15918054Y-10003795D01*
X15917984Y-10003983D01*
X15917787Y-10004016D01*
X15917666Y-10003890D01*
X15914687Y-9994721D01*
X15907014Y-9984160D01*
X15881545Y-9958690D01*
X15881493Y-9958497D01*
X15881634Y-9958356D01*
X15881782Y-9958374D01*
X15887912Y-9961721D01*
X15894820Y-9961227D01*
X15900364Y-9957076D01*
X15902791Y-9950570D01*
X15902650Y-9947647D01*
X15901946Y-9943484D01*
X15902016Y-9943297D01*
X15902213Y-9943263D01*
X15902334Y-9943389D01*
G37*
G36*
X18411667Y-9944616D02*
G01*
X18417846Y-9953121D01*
X18448759Y-9984034D01*
X18450431Y-9985248D01*
X18450512Y-9985431D01*
X18450395Y-9985593D01*
X18450242Y-9985597D01*
X18443953Y-9983203D01*
X18437176Y-9984630D01*
X18432246Y-9989495D01*
X18430727Y-9996263D01*
X18431874Y-10000711D01*
X18433227Y-10003587D01*
X18433210Y-10003786D01*
X18433029Y-10003871D01*
X18432884Y-10003790D01*
X18426608Y-9995151D01*
X18394811Y-9963354D01*
X18393994Y-9962761D01*
X18393913Y-9962578D01*
X18394030Y-9962416D01*
X18394183Y-9962412D01*
X18400398Y-9964777D01*
X18407175Y-9963350D01*
X18412105Y-9958486D01*
X18413624Y-9951718D01*
X18412478Y-9947270D01*
X18411325Y-9944819D01*
X18411341Y-9944620D01*
X18411522Y-9944534D01*
X18411667Y-9944616D01*
G37*
G36*
X17858192Y-9886642D02*
G01*
X17858174Y-9886789D01*
X17854827Y-9892919D01*
X17855321Y-9899828D01*
X17859472Y-9905373D01*
X17865793Y-9907788D01*
X17866278Y-9907830D01*
X17866442Y-9907945D01*
X17866424Y-9908144D01*
X17866299Y-9908226D01*
X17860148Y-9909449D01*
X17853709Y-9913752D01*
X17799997Y-9967464D01*
X17795695Y-9973903D01*
X17794721Y-9978798D01*
X17794589Y-9978948D01*
X17794393Y-9978909D01*
X17794329Y-9978798D01*
X17793034Y-9972353D01*
X17788215Y-9967379D01*
X17781470Y-9965799D01*
X17775224Y-9967961D01*
X17775027Y-9967923D01*
X17774962Y-9967734D01*
X17775047Y-9967606D01*
X17780340Y-9964069D01*
X17857857Y-9886552D01*
X17858050Y-9886500D01*
X17858192Y-9886642D01*
G37*
G36*
X13537257Y-9855359D02*
G01*
X13543986Y-9864621D01*
X13574899Y-9895534D01*
X13585461Y-9903207D01*
X13595852Y-9906583D01*
X13595985Y-9906732D01*
X13595924Y-9906922D01*
X13595769Y-9906972D01*
X13594809Y-9906872D01*
X13587967Y-9908123D01*
X13582909Y-9912854D01*
X13581212Y-9919569D01*
X13583422Y-9926155D01*
X13584809Y-9927811D01*
X13584844Y-9928008D01*
X13584691Y-9928137D01*
X13584515Y-9928081D01*
X13537340Y-9880906D01*
X13526778Y-9873233D01*
X13516387Y-9869857D01*
X13516254Y-9869708D01*
X13516315Y-9869518D01*
X13516470Y-9869468D01*
X13517841Y-9869612D01*
X13517894Y-9869625D01*
X13520730Y-9870747D01*
X13527656Y-9871382D01*
X13533800Y-9868185D01*
X13537240Y-9862174D01*
X13536896Y-9855487D01*
X13536987Y-9855309D01*
X13537187Y-9855299D01*
X13537257Y-9855359D01*
G37*
G36*
X17973995Y-9803173D02*
G01*
X17974076Y-9803298D01*
X17975300Y-9809449D01*
X17979602Y-9815888D01*
X18069377Y-9905662D01*
X18075816Y-9909965D01*
X18080227Y-9910842D01*
X18080377Y-9910974D01*
X18080338Y-9911170D01*
X18080227Y-9911235D01*
X18073596Y-9912567D01*
X18068621Y-9917386D01*
X18067038Y-9924148D01*
X18067284Y-9925688D01*
X18067286Y-9925737D01*
X18067237Y-9926292D01*
X18067122Y-9926456D01*
X18066923Y-9926438D01*
X18066842Y-9926313D01*
X18065618Y-9920162D01*
X18061316Y-9913723D01*
X17971541Y-9823949D01*
X17965102Y-9819647D01*
X17960691Y-9818769D01*
X17960541Y-9818637D01*
X17960580Y-9818441D01*
X17960691Y-9818377D01*
X17967322Y-9817044D01*
X17972297Y-9812225D01*
X17973880Y-9805463D01*
X17973634Y-9803924D01*
X17973632Y-9803875D01*
X17973681Y-9803320D01*
X17973796Y-9803156D01*
X17973995Y-9803173D01*
G37*
G36*
X15347116Y-9880017D02*
G01*
X15350144Y-9889336D01*
X15357456Y-9899399D01*
X15357476Y-9899598D01*
X15357315Y-9899715D01*
X15357180Y-9899681D01*
X15351507Y-9895762D01*
X15344585Y-9895532D01*
X15338637Y-9899080D01*
X15335546Y-9905291D01*
X15335528Y-9909502D01*
X15335624Y-9910065D01*
X15335554Y-9910252D01*
X15335357Y-9910286D01*
X15335236Y-9910160D01*
X15332257Y-9900991D01*
X15324949Y-9890932D01*
X15324928Y-9890733D01*
X15325090Y-9890615D01*
X15325224Y-9890650D01*
X15330868Y-9894549D01*
X15337790Y-9894779D01*
X15343738Y-9891231D01*
X15346829Y-9885020D01*
X15346847Y-9880809D01*
X15346729Y-9880112D01*
X15346799Y-9879925D01*
X15346996Y-9879891D01*
X15347116Y-9880017D01*
G37*
G36*
X17947994Y-9796839D02*
G01*
X17947977Y-9796987D01*
X17944629Y-9803117D01*
X17945123Y-9810025D01*
X17949274Y-9815570D01*
X17955596Y-9817985D01*
X17956080Y-9818028D01*
X17956244Y-9818142D01*
X17956227Y-9818341D01*
X17956102Y-9818423D01*
X17949951Y-9819647D01*
X17943512Y-9823949D01*
X17889800Y-9877661D01*
X17885497Y-9884100D01*
X17884187Y-9890690D01*
X17884055Y-9890840D01*
X17883859Y-9890801D01*
X17883794Y-9890690D01*
X17882631Y-9884900D01*
X17877812Y-9879926D01*
X17871069Y-9878346D01*
X17864521Y-9880671D01*
X17863042Y-9881932D01*
X17862845Y-9881969D01*
X17862715Y-9881816D01*
X17862770Y-9881639D01*
X17947660Y-9796749D01*
X17947853Y-9796698D01*
X17947994Y-9796839D01*
G37*
G36*
X18063798Y-9713371D02*
G01*
X18063879Y-9713495D01*
X18065103Y-9719646D01*
X18069405Y-9726085D01*
X18159179Y-9815860D01*
X18165618Y-9820162D01*
X18170030Y-9821040D01*
X18170180Y-9821172D01*
X18170141Y-9821368D01*
X18170030Y-9821432D01*
X18163398Y-9822765D01*
X18158424Y-9827584D01*
X18156840Y-9834346D01*
X18157087Y-9835885D01*
X18157088Y-9835934D01*
X18157040Y-9836489D01*
X18156925Y-9836653D01*
X18156726Y-9836636D01*
X18156644Y-9836511D01*
X18155421Y-9830360D01*
X18151118Y-9823921D01*
X18061344Y-9734146D01*
X18054905Y-9729844D01*
X18050494Y-9728967D01*
X18050343Y-9728835D01*
X18050382Y-9728638D01*
X18050493Y-9728574D01*
X18057125Y-9727242D01*
X18062099Y-9722423D01*
X18063683Y-9715661D01*
X18063437Y-9714121D01*
X18063435Y-9714072D01*
X18063484Y-9713517D01*
X18063598Y-9713353D01*
X18063798Y-9713371D01*
G37*
G36*
X18037797Y-9707037D02*
G01*
X18037779Y-9707184D01*
X18034432Y-9713314D01*
X18034926Y-9720223D01*
X18039077Y-9725768D01*
X18045398Y-9728183D01*
X18045883Y-9728225D01*
X18046047Y-9728340D01*
X18046029Y-9728539D01*
X18045904Y-9728620D01*
X18039753Y-9729844D01*
X18033314Y-9734146D01*
X17979602Y-9787859D01*
X17975300Y-9794297D01*
X17973989Y-9800887D01*
X17973857Y-9801038D01*
X17973661Y-9800999D01*
X17973597Y-9800888D01*
X17972433Y-9795098D01*
X17967614Y-9790123D01*
X17960871Y-9788544D01*
X17954324Y-9790868D01*
X17952844Y-9792130D01*
X17952647Y-9792166D01*
X17952518Y-9792014D01*
X17952573Y-9791836D01*
X18037462Y-9706947D01*
X18037655Y-9706895D01*
X18037797Y-9707037D01*
G37*
G36*
X16163882Y-9701677D02*
G01*
X16166716Y-9710401D01*
X16174045Y-9720487D01*
X16212913Y-9759355D01*
X16222999Y-9766684D01*
X16232900Y-9769901D01*
X16233034Y-9770049D01*
X16232972Y-9770240D01*
X16232818Y-9770290D01*
X16231533Y-9770155D01*
X16231480Y-9770142D01*
X16229640Y-9769413D01*
X16222713Y-9768778D01*
X16216569Y-9771975D01*
X16213129Y-9777986D01*
X16213486Y-9784928D01*
X16213665Y-9785364D01*
X16213638Y-9785562D01*
X16213453Y-9785638D01*
X16213318Y-9785558D01*
X16207014Y-9776880D01*
X16153120Y-9722986D01*
X16143565Y-9716044D01*
X16143483Y-9715861D01*
X16143601Y-9715700D01*
X16143756Y-9715696D01*
X16144212Y-9715877D01*
X16144260Y-9715904D01*
X16144301Y-9715936D01*
X16150802Y-9718410D01*
X16157579Y-9716983D01*
X16162509Y-9712118D01*
X16164032Y-9705337D01*
X16163888Y-9704099D01*
X16163494Y-9701772D01*
X16163564Y-9701584D01*
X16163761Y-9701551D01*
X16163882Y-9701677D01*
G37*
G36*
X13383074Y-9694630D02*
G01*
X13386053Y-9703799D01*
X13393726Y-9714361D01*
X13424639Y-9745274D01*
X13434194Y-9752216D01*
X13434276Y-9752399D01*
X13434158Y-9752560D01*
X13434003Y-9752564D01*
X13432327Y-9751900D01*
X13425400Y-9751265D01*
X13419256Y-9754462D01*
X13415816Y-9760473D01*
X13416129Y-9766552D01*
X13416038Y-9766730D01*
X13415838Y-9766740D01*
X13415739Y-9766624D01*
X13415547Y-9766033D01*
X13407759Y-9755313D01*
X13372426Y-9719981D01*
X13362723Y-9712931D01*
X13362642Y-9712748D01*
X13362759Y-9712586D01*
X13362914Y-9712583D01*
X13363384Y-9712769D01*
X13363431Y-9712796D01*
X13365436Y-9714317D01*
X13371937Y-9716791D01*
X13378714Y-9715364D01*
X13383644Y-9710499D01*
X13385163Y-9703732D01*
X13384016Y-9699283D01*
X13383155Y-9697453D01*
X13383139Y-9697401D01*
X13382686Y-9694725D01*
X13382756Y-9694537D01*
X13382953Y-9694504D01*
X13383074Y-9694630D01*
G37*
G36*
X15548947Y-9672018D02*
G01*
X15552845Y-9677851D01*
X15606557Y-9731563D01*
X15612996Y-9735865D01*
X15618058Y-9736872D01*
X15618209Y-9737004D01*
X15618170Y-9737201D01*
X15618059Y-9737265D01*
X15611678Y-9738547D01*
X15606704Y-9743366D01*
X15605119Y-9750133D01*
X15605271Y-9751484D01*
X15605711Y-9754088D01*
X15605641Y-9754275D01*
X15605444Y-9754308D01*
X15605323Y-9754183D01*
X15602296Y-9744864D01*
X15594508Y-9734145D01*
X15559175Y-9698812D01*
X15548456Y-9691024D01*
X15536390Y-9687104D01*
X15536256Y-9686955D01*
X15536318Y-9686765D01*
X15536416Y-9686717D01*
X15542133Y-9685672D01*
X15547191Y-9680940D01*
X15548892Y-9674208D01*
X15548583Y-9672159D01*
X15548656Y-9671972D01*
X15548854Y-9671942D01*
X15548947Y-9672018D01*
G37*
G36*
X14866139Y-9683094D02*
G01*
X14882599Y-9699554D01*
X14893161Y-9707227D01*
X14905560Y-9711256D01*
X14915627Y-9711256D01*
X14915800Y-9711356D01*
X14915800Y-9711556D01*
X14915661Y-9711653D01*
X14913425Y-9712031D01*
X14913370Y-9712033D01*
X14910140Y-9711693D01*
X14903298Y-9712945D01*
X14898240Y-9717676D01*
X14896543Y-9724391D01*
X14898753Y-9730977D01*
X14900140Y-9732633D01*
X14900174Y-9732830D01*
X14900021Y-9732958D01*
X14899845Y-9732903D01*
X14883535Y-9716592D01*
X14872816Y-9708804D01*
X14860230Y-9704715D01*
X14850002Y-9704715D01*
X14849829Y-9704615D01*
X14849829Y-9704415D01*
X14849969Y-9704318D01*
X14852249Y-9703932D01*
X14852303Y-9703930D01*
X14855844Y-9704303D01*
X14862686Y-9703051D01*
X14867744Y-9698320D01*
X14869441Y-9691605D01*
X14867231Y-9685019D01*
X14865844Y-9683363D01*
X14865810Y-9683166D01*
X14865963Y-9683038D01*
X14866139Y-9683094D01*
G37*
G36*
X17582323Y-9623284D02*
G01*
X17582387Y-9623395D01*
X17583551Y-9629185D01*
X17588370Y-9634160D01*
X17595113Y-9635739D01*
X17601661Y-9633415D01*
X17603140Y-9632153D01*
X17603337Y-9632117D01*
X17603467Y-9632269D01*
X17603411Y-9632447D01*
X17526064Y-9709794D01*
X17523419Y-9713753D01*
X17523239Y-9713841D01*
X17523073Y-9713730D01*
X17523055Y-9713612D01*
X17524096Y-9706758D01*
X17521269Y-9700436D01*
X17515471Y-9696645D01*
X17512546Y-9696598D01*
X17512374Y-9696496D01*
X17512350Y-9696381D01*
X17512361Y-9696255D01*
X17510102Y-9696058D01*
X17509938Y-9695943D01*
X17509955Y-9695744D01*
X17510080Y-9695662D01*
X17516231Y-9694439D01*
X17522670Y-9690136D01*
X17576382Y-9636424D01*
X17580684Y-9629985D01*
X17581995Y-9623395D01*
X17582127Y-9623245D01*
X17582323Y-9623284D01*
G37*
G36*
X18122714Y-9620750D02*
G01*
X18122732Y-9620868D01*
X18121691Y-9627722D01*
X18124518Y-9634044D01*
X18130316Y-9637835D01*
X18133241Y-9637882D01*
X18133413Y-9637984D01*
X18133437Y-9638099D01*
X18133426Y-9638225D01*
X18135685Y-9638423D01*
X18135849Y-9638537D01*
X18135832Y-9638736D01*
X18135707Y-9638818D01*
X18129556Y-9640041D01*
X18123117Y-9644344D01*
X18069405Y-9698056D01*
X18065103Y-9704495D01*
X18063792Y-9711085D01*
X18063660Y-9711235D01*
X18063464Y-9711196D01*
X18063399Y-9711085D01*
X18062236Y-9705295D01*
X18057417Y-9700321D01*
X18050674Y-9698741D01*
X18044126Y-9701066D01*
X18042647Y-9702327D01*
X18042450Y-9702363D01*
X18042320Y-9702211D01*
X18042376Y-9702034D01*
X18119723Y-9624686D01*
X18122368Y-9620727D01*
X18122548Y-9620639D01*
X18122714Y-9620750D01*
G37*
G36*
X15640066Y-9541024D02*
G01*
X15640130Y-9541135D01*
X15641463Y-9547767D01*
X15646282Y-9552741D01*
X15653044Y-9554325D01*
X15654583Y-9554079D01*
X15654632Y-9554077D01*
X15655187Y-9554126D01*
X15655351Y-9554240D01*
X15655334Y-9554440D01*
X15655209Y-9554521D01*
X15649058Y-9555745D01*
X15642619Y-9560047D01*
X15552845Y-9649822D01*
X15548542Y-9656260D01*
X15547665Y-9660672D01*
X15547533Y-9660822D01*
X15547337Y-9660783D01*
X15547272Y-9660672D01*
X15545940Y-9654040D01*
X15541121Y-9649066D01*
X15534359Y-9647482D01*
X15532819Y-9647729D01*
X15532770Y-9647730D01*
X15532215Y-9647682D01*
X15532051Y-9647567D01*
X15532069Y-9647368D01*
X15532194Y-9647286D01*
X15538345Y-9646063D01*
X15544784Y-9641760D01*
X15634558Y-9551986D01*
X15638860Y-9545547D01*
X15639738Y-9541136D01*
X15639870Y-9540985D01*
X15640066Y-9541024D01*
G37*
G36*
X17672126Y-9533481D02*
G01*
X17672190Y-9533592D01*
X17673354Y-9539383D01*
X17678173Y-9544357D01*
X17684916Y-9545936D01*
X17691463Y-9543612D01*
X17692943Y-9542350D01*
X17693139Y-9542314D01*
X17693269Y-9542466D01*
X17693214Y-9542644D01*
X17608325Y-9627533D01*
X17608132Y-9627585D01*
X17607990Y-9627444D01*
X17608008Y-9627296D01*
X17611355Y-9621166D01*
X17610861Y-9614258D01*
X17606710Y-9608712D01*
X17600389Y-9606297D01*
X17599904Y-9606255D01*
X17599740Y-9606140D01*
X17599758Y-9605941D01*
X17599882Y-9605860D01*
X17606034Y-9604636D01*
X17612472Y-9600334D01*
X17666185Y-9546622D01*
X17670487Y-9540183D01*
X17671798Y-9533593D01*
X17671930Y-9533442D01*
X17672126Y-9533481D01*
G37*
G36*
X15666671Y-9533018D02*
G01*
X15744018Y-9610365D01*
X15747977Y-9613010D01*
X15748066Y-9613190D01*
X15747955Y-9613356D01*
X15747836Y-9613374D01*
X15740983Y-9612333D01*
X15734660Y-9615160D01*
X15730869Y-9620958D01*
X15730823Y-9623883D01*
X15730720Y-9624055D01*
X15730605Y-9624079D01*
X15730480Y-9624068D01*
X15730282Y-9626327D01*
X15730167Y-9626491D01*
X15729968Y-9626474D01*
X15729887Y-9626349D01*
X15728663Y-9620198D01*
X15724361Y-9613759D01*
X15670649Y-9560047D01*
X15664210Y-9555745D01*
X15657620Y-9554434D01*
X15657469Y-9554302D01*
X15657508Y-9554106D01*
X15657619Y-9554042D01*
X15663410Y-9552878D01*
X15668384Y-9548059D01*
X15669963Y-9541316D01*
X15667639Y-9534768D01*
X15666377Y-9533289D01*
X15666341Y-9533092D01*
X15666493Y-9532962D01*
X15666671Y-9533018D01*
G37*
G36*
X17489061Y-9497844D02*
G01*
X17489143Y-9497969D01*
X17490366Y-9504120D01*
X17494669Y-9510559D01*
X17584443Y-9600334D01*
X17590882Y-9604636D01*
X17595293Y-9605514D01*
X17595444Y-9605645D01*
X17595405Y-9605842D01*
X17595294Y-9605906D01*
X17588662Y-9607239D01*
X17583688Y-9612058D01*
X17582104Y-9618820D01*
X17582350Y-9620359D01*
X17582352Y-9620408D01*
X17582303Y-9620963D01*
X17582189Y-9621127D01*
X17581989Y-9621109D01*
X17581908Y-9620985D01*
X17580684Y-9614834D01*
X17576382Y-9608395D01*
X17486607Y-9518620D01*
X17480169Y-9514318D01*
X17475757Y-9513440D01*
X17475607Y-9513308D01*
X17475646Y-9513112D01*
X17475757Y-9513048D01*
X17482389Y-9511715D01*
X17487363Y-9506896D01*
X17488947Y-9500134D01*
X17488700Y-9498595D01*
X17488699Y-9498546D01*
X17488747Y-9497991D01*
X17488862Y-9497827D01*
X17489061Y-9497844D01*
G37*
G36*
X12851427Y-9520534D02*
G01*
X12851477Y-9520689D01*
X12851184Y-9523478D01*
X12851477Y-9523509D01*
X12851639Y-9523626D01*
X12851655Y-9523726D01*
X12851321Y-9527369D01*
X12854517Y-9533513D01*
X12860528Y-9536954D01*
X12867469Y-9536597D01*
X12868622Y-9536126D01*
X12870047Y-9535455D01*
X12870099Y-9535439D01*
X12872775Y-9534986D01*
X12872962Y-9535056D01*
X12872996Y-9535253D01*
X12872870Y-9535374D01*
X12863701Y-9538353D01*
X12853139Y-9546026D01*
X12822226Y-9576940D01*
X12814553Y-9587501D01*
X12811177Y-9597892D01*
X12811028Y-9598026D01*
X12810838Y-9597964D01*
X12810788Y-9597809D01*
X12810932Y-9596438D01*
X12810945Y-9596385D01*
X12811365Y-9595323D01*
X12812000Y-9588396D01*
X12808803Y-9582252D01*
X12802792Y-9578812D01*
X12797815Y-9579068D01*
X12797637Y-9578977D01*
X12797608Y-9578902D01*
X12797578Y-9578727D01*
X12793566Y-9579406D01*
X12793378Y-9579336D01*
X12793345Y-9579139D01*
X12793470Y-9579018D01*
X12802195Y-9576184D01*
X12812281Y-9568855D01*
X12840543Y-9540594D01*
X12847871Y-9530507D01*
X12851088Y-9520606D01*
X12851237Y-9520473D01*
X12851427Y-9520534D01*
G37*
G36*
X14897118Y-9529148D02*
G01*
X14897121Y-9529303D01*
X14896957Y-9529719D01*
X14896930Y-9529767D01*
X14894190Y-9533377D01*
X14891716Y-9539877D01*
X14893143Y-9546655D01*
X14898008Y-9551585D01*
X14904763Y-9553101D01*
X14911735Y-9550375D01*
X14912011Y-9550152D01*
X14912051Y-9550126D01*
X14913881Y-9549265D01*
X14914081Y-9549282D01*
X14914166Y-9549463D01*
X14914084Y-9549608D01*
X14905580Y-9555786D01*
X14868842Y-9592525D01*
X14868649Y-9592576D01*
X14868507Y-9592435D01*
X14868525Y-9592287D01*
X14871872Y-9586157D01*
X14871378Y-9579249D01*
X14867228Y-9573705D01*
X14860735Y-9571283D01*
X14854602Y-9572426D01*
X14853996Y-9572711D01*
X14853797Y-9572694D01*
X14853712Y-9572513D01*
X14853793Y-9572368D01*
X14861894Y-9566483D01*
X14890155Y-9538221D01*
X14896774Y-9529112D01*
X14896956Y-9529031D01*
X14897118Y-9529148D01*
G37*
G36*
X15550264Y-9451222D02*
G01*
X15550328Y-9451333D01*
X15551660Y-9457964D01*
X15556479Y-9462939D01*
X15563241Y-9464523D01*
X15564781Y-9464276D01*
X15564830Y-9464275D01*
X15565385Y-9464323D01*
X15565549Y-9464438D01*
X15565531Y-9464637D01*
X15565406Y-9464719D01*
X15559255Y-9465942D01*
X15552817Y-9470244D01*
X15463042Y-9560019D01*
X15458740Y-9566458D01*
X15457862Y-9570869D01*
X15457730Y-9571020D01*
X15457534Y-9570981D01*
X15457470Y-9570870D01*
X15456137Y-9564238D01*
X15451318Y-9559264D01*
X15444556Y-9557680D01*
X15443017Y-9557926D01*
X15442968Y-9557928D01*
X15442413Y-9557879D01*
X15442249Y-9557765D01*
X15442266Y-9557565D01*
X15442391Y-9557484D01*
X15448542Y-9556260D01*
X15454981Y-9551958D01*
X15544756Y-9462183D01*
X15549058Y-9455745D01*
X15549935Y-9451333D01*
X15550067Y-9451183D01*
X15550264Y-9451222D01*
G37*
G36*
X17761928Y-9443679D02*
G01*
X17761993Y-9443790D01*
X17763156Y-9449580D01*
X17767975Y-9454554D01*
X17774718Y-9456134D01*
X17781266Y-9453809D01*
X17782745Y-9452548D01*
X17782942Y-9452512D01*
X17783072Y-9452664D01*
X17783016Y-9452841D01*
X17698127Y-9537731D01*
X17697934Y-9537782D01*
X17697793Y-9537641D01*
X17697810Y-9537493D01*
X17701158Y-9531363D01*
X17700664Y-9524455D01*
X17696512Y-9518910D01*
X17690191Y-9516495D01*
X17689707Y-9516453D01*
X17689543Y-9516338D01*
X17689560Y-9516139D01*
X17689685Y-9516057D01*
X17695836Y-9514834D01*
X17702275Y-9510531D01*
X17755987Y-9456819D01*
X17760289Y-9450380D01*
X17761600Y-9443790D01*
X17761732Y-9443640D01*
X17761928Y-9443679D01*
G37*
G36*
X15576868Y-9443215D02*
G01*
X15661758Y-9528104D01*
X15661809Y-9528297D01*
X15661668Y-9528439D01*
X15661520Y-9528421D01*
X15655390Y-9525074D01*
X15648482Y-9525568D01*
X15642937Y-9529719D01*
X15640522Y-9536040D01*
X15640479Y-9536525D01*
X15640365Y-9536689D01*
X15640166Y-9536671D01*
X15640084Y-9536547D01*
X15638860Y-9530395D01*
X15634558Y-9523957D01*
X15580846Y-9470244D01*
X15574407Y-9465942D01*
X15567817Y-9464631D01*
X15567667Y-9464499D01*
X15567706Y-9464303D01*
X15567817Y-9464239D01*
X15573607Y-9463075D01*
X15578581Y-9458256D01*
X15580161Y-9451513D01*
X15577836Y-9444966D01*
X15576575Y-9443486D01*
X15576538Y-9443290D01*
X15576691Y-9443160D01*
X15576868Y-9443215D01*
G37*
G36*
X17578864Y-9408042D02*
G01*
X17578945Y-9408167D01*
X17580169Y-9414318D01*
X17584471Y-9420757D01*
X17674246Y-9510531D01*
X17680684Y-9514834D01*
X17685096Y-9515711D01*
X17685246Y-9515843D01*
X17685207Y-9516039D01*
X17685096Y-9516103D01*
X17678465Y-9517436D01*
X17673490Y-9522255D01*
X17671906Y-9529017D01*
X17672153Y-9530556D01*
X17672154Y-9530605D01*
X17672106Y-9531160D01*
X17671991Y-9531324D01*
X17671792Y-9531307D01*
X17671710Y-9531182D01*
X17670487Y-9525031D01*
X17666185Y-9518592D01*
X17576410Y-9428818D01*
X17569971Y-9424515D01*
X17565560Y-9423638D01*
X17565409Y-9423506D01*
X17565448Y-9423310D01*
X17565559Y-9423245D01*
X17572191Y-9421913D01*
X17577165Y-9417094D01*
X17578749Y-9410332D01*
X17578503Y-9408792D01*
X17578501Y-9408743D01*
X17578550Y-9408188D01*
X17578664Y-9408024D01*
X17578864Y-9408042D01*
G37*
G36*
X14302926Y-9435001D02*
G01*
X14302929Y-9435156D01*
X14302245Y-9436884D01*
X14301610Y-9443811D01*
X14304807Y-9449955D01*
X14310818Y-9453395D01*
X14317747Y-9453038D01*
X14321424Y-9450987D01*
X14321758Y-9450717D01*
X14321798Y-9450691D01*
X14323661Y-9449814D01*
X14323861Y-9449831D01*
X14323946Y-9450012D01*
X14323864Y-9450157D01*
X14315226Y-9456433D01*
X14279893Y-9491766D01*
X14272843Y-9501469D01*
X14272661Y-9501550D01*
X14272499Y-9501433D01*
X14272496Y-9501278D01*
X14272682Y-9500808D01*
X14272708Y-9500761D01*
X14275796Y-9496693D01*
X14278270Y-9490192D01*
X14276843Y-9483415D01*
X14271978Y-9478485D01*
X14265210Y-9476966D01*
X14260762Y-9478113D01*
X14259804Y-9478563D01*
X14259604Y-9478547D01*
X14259519Y-9478366D01*
X14259601Y-9478221D01*
X14267701Y-9472335D01*
X14295963Y-9444074D01*
X14302581Y-9434965D01*
X14302764Y-9434883D01*
X14302926Y-9435001D01*
G37*
G36*
X15460461Y-9361419D02*
G01*
X15460525Y-9361530D01*
X15461858Y-9368162D01*
X15466677Y-9373136D01*
X15473439Y-9374720D01*
X15474978Y-9374474D01*
X15475027Y-9374472D01*
X15475582Y-9374521D01*
X15475746Y-9374635D01*
X15475729Y-9374835D01*
X15475604Y-9374916D01*
X15469453Y-9376140D01*
X15463014Y-9380442D01*
X15373240Y-9470216D01*
X15368937Y-9476655D01*
X15368060Y-9481067D01*
X15367928Y-9481217D01*
X15367732Y-9481178D01*
X15367667Y-9481067D01*
X15366335Y-9474435D01*
X15361516Y-9469461D01*
X15354754Y-9467877D01*
X15353214Y-9468124D01*
X15353165Y-9468125D01*
X15352610Y-9468077D01*
X15352446Y-9467962D01*
X15352464Y-9467763D01*
X15352589Y-9467681D01*
X15358740Y-9466458D01*
X15365178Y-9462155D01*
X15454953Y-9372381D01*
X15459255Y-9365942D01*
X15460133Y-9361531D01*
X15460265Y-9361380D01*
X15460461Y-9361419D01*
G37*
G36*
X15277830Y-9395729D02*
G01*
X15277911Y-9395853D01*
X15279135Y-9402004D01*
X15283437Y-9408443D01*
X15337149Y-9462155D01*
X15341027Y-9464746D01*
X15341115Y-9464926D01*
X15341004Y-9465092D01*
X15340831Y-9465094D01*
X15337849Y-9463703D01*
X15337781Y-9463750D01*
X15337683Y-9463734D01*
X15332979Y-9461675D01*
X15326140Y-9462769D01*
X15320978Y-9467387D01*
X15319292Y-9473486D01*
X15319149Y-9473626D01*
X15318957Y-9473573D01*
X15318909Y-9473494D01*
X15314989Y-9461429D01*
X15307201Y-9450710D01*
X15271868Y-9415377D01*
X15261343Y-9407731D01*
X15261262Y-9407548D01*
X15261380Y-9407386D01*
X15261479Y-9407370D01*
X15267542Y-9407925D01*
X15273686Y-9404728D01*
X15277137Y-9398698D01*
X15277423Y-9396929D01*
X15277516Y-9395875D01*
X15277630Y-9395711D01*
X15277830Y-9395729D01*
G37*
G36*
X13093409Y-9394588D02*
G01*
X13096493Y-9404079D01*
X13104166Y-9414641D01*
X13135079Y-9445554D01*
X13144634Y-9452496D01*
X13144715Y-9452678D01*
X13144598Y-9452840D01*
X13144443Y-9452843D01*
X13143403Y-9452432D01*
X13136476Y-9451797D01*
X13130333Y-9454994D01*
X13126888Y-9461013D01*
X13126724Y-9465928D01*
X13127294Y-9469296D01*
X13127224Y-9469484D01*
X13127027Y-9469517D01*
X13126906Y-9469391D01*
X13123927Y-9460222D01*
X13116254Y-9449660D01*
X13071894Y-9405300D01*
X13071842Y-9405107D01*
X13071983Y-9404966D01*
X13072131Y-9404984D01*
X13078261Y-9408331D01*
X13085169Y-9407837D01*
X13090714Y-9403686D01*
X13093140Y-9397181D01*
X13093019Y-9394659D01*
X13093111Y-9394482D01*
X13093310Y-9394472D01*
X13093409Y-9394588D01*
G37*
G36*
X12968788Y-9399580D02*
G01*
X12969930Y-9405825D01*
X12974662Y-9410883D01*
X12981376Y-9412580D01*
X12987962Y-9410370D01*
X12989618Y-9408983D01*
X12989815Y-9408948D01*
X12989944Y-9409102D01*
X12989888Y-9409278D01*
X12972486Y-9426679D01*
X12964813Y-9437241D01*
X12960784Y-9449640D01*
X12960784Y-9451019D01*
X12960684Y-9451192D01*
X12960484Y-9451192D01*
X12960387Y-9451055D01*
X12959322Y-9445226D01*
X12954590Y-9440168D01*
X12947875Y-9438471D01*
X12941289Y-9440681D01*
X12939633Y-9442068D01*
X12939436Y-9442102D01*
X12939308Y-9441949D01*
X12939364Y-9441773D01*
X12957215Y-9423921D01*
X12964544Y-9413835D01*
X12968391Y-9401993D01*
X12968391Y-9399616D01*
X12968491Y-9399443D01*
X12968691Y-9399443D01*
X12968788Y-9399580D01*
G37*
G36*
X16794758Y-9374252D02*
G01*
X16801034Y-9382891D01*
X16832831Y-9414688D01*
X16843550Y-9422476D01*
X16854105Y-9425905D01*
X16854239Y-9426054D01*
X16854177Y-9426244D01*
X16854022Y-9426294D01*
X16851430Y-9426022D01*
X16844588Y-9427273D01*
X16839531Y-9432005D01*
X16837834Y-9438719D01*
X16840045Y-9445310D01*
X16840559Y-9445994D01*
X16841267Y-9446868D01*
X16841292Y-9446909D01*
X16842107Y-9448640D01*
X16842090Y-9448839D01*
X16841909Y-9448924D01*
X16841764Y-9448843D01*
X16835879Y-9440742D01*
X16807618Y-9412481D01*
X16797531Y-9405153D01*
X16787630Y-9401936D01*
X16787497Y-9401787D01*
X16787558Y-9401597D01*
X16787713Y-9401547D01*
X16788758Y-9401656D01*
X16795601Y-9400405D01*
X16800658Y-9395674D01*
X16802355Y-9388959D01*
X16800144Y-9382368D01*
X16799630Y-9381684D01*
X16795317Y-9376359D01*
X16795292Y-9376318D01*
X16794415Y-9374455D01*
X16794432Y-9374256D01*
X16794613Y-9374170D01*
X16794758Y-9374252D01*
G37*
G36*
X17851394Y-9355571D02*
G01*
X17851458Y-9355682D01*
X17852753Y-9362127D01*
X17857572Y-9367102D01*
X17864316Y-9368681D01*
X17870563Y-9366519D01*
X17870759Y-9366557D01*
X17870825Y-9366746D01*
X17870740Y-9366874D01*
X17865447Y-9370411D01*
X17787930Y-9447928D01*
X17787737Y-9447980D01*
X17787595Y-9447838D01*
X17787613Y-9447691D01*
X17790960Y-9441561D01*
X17790466Y-9434652D01*
X17786315Y-9429107D01*
X17779994Y-9426692D01*
X17779509Y-9426650D01*
X17779345Y-9426535D01*
X17779363Y-9426336D01*
X17779488Y-9426255D01*
X17785639Y-9425031D01*
X17792078Y-9420729D01*
X17845790Y-9367016D01*
X17850092Y-9360578D01*
X17851066Y-9355683D01*
X17851198Y-9355532D01*
X17851394Y-9355571D01*
G37*
G36*
X15487066Y-9353413D02*
G01*
X15571955Y-9438302D01*
X15572007Y-9438495D01*
X15571865Y-9438636D01*
X15571718Y-9438619D01*
X15565588Y-9435271D01*
X15558679Y-9435765D01*
X15553134Y-9439917D01*
X15550719Y-9446238D01*
X15550677Y-9446722D01*
X15550562Y-9446886D01*
X15550363Y-9446869D01*
X15550282Y-9446744D01*
X15549058Y-9440593D01*
X15544756Y-9434154D01*
X15491043Y-9380442D01*
X15484605Y-9376140D01*
X15478015Y-9374829D01*
X15477864Y-9374697D01*
X15477903Y-9374501D01*
X15478014Y-9374436D01*
X15483804Y-9373273D01*
X15488779Y-9368454D01*
X15490358Y-9361711D01*
X15488034Y-9355163D01*
X15486772Y-9353684D01*
X15486736Y-9353487D01*
X15486888Y-9353357D01*
X15487066Y-9353413D01*
G37*
G36*
X17668666Y-9318239D02*
G01*
X17668748Y-9318364D01*
X17669971Y-9324515D01*
X17674274Y-9330954D01*
X17764048Y-9420729D01*
X17770487Y-9425031D01*
X17774898Y-9425908D01*
X17775049Y-9426040D01*
X17775010Y-9426237D01*
X17774899Y-9426301D01*
X17768267Y-9427633D01*
X17763293Y-9432452D01*
X17761709Y-9439214D01*
X17761955Y-9440754D01*
X17761957Y-9440803D01*
X17761908Y-9441358D01*
X17761794Y-9441522D01*
X17761594Y-9441504D01*
X17761513Y-9441380D01*
X17760289Y-9435229D01*
X17755987Y-9428790D01*
X17666213Y-9339015D01*
X17659774Y-9334713D01*
X17655362Y-9333835D01*
X17655212Y-9333703D01*
X17655251Y-9333507D01*
X17655362Y-9333443D01*
X17661994Y-9332110D01*
X17666968Y-9327291D01*
X17668552Y-9320529D01*
X17668305Y-9318990D01*
X17668304Y-9318941D01*
X17668352Y-9318386D01*
X17668467Y-9318222D01*
X17668666Y-9318239D01*
G37*
G36*
X13026680Y-9357168D02*
G01*
X13026607Y-9357345D01*
X13021268Y-9361668D01*
X13017314Y-9367391D01*
X13017083Y-9374313D01*
X13020631Y-9380261D01*
X13026843Y-9383352D01*
X13031054Y-9383370D01*
X13031535Y-9383289D01*
X13031589Y-9383287D01*
X13035187Y-9383665D01*
X13035349Y-9383783D01*
X13035328Y-9383982D01*
X13035166Y-9384064D01*
X13026360Y-9384064D01*
X13013961Y-9388093D01*
X13004446Y-9395006D01*
X13004247Y-9395027D01*
X13004129Y-9394865D01*
X13004202Y-9394689D01*
X13009367Y-9390506D01*
X13013321Y-9384783D01*
X13013551Y-9377861D01*
X13010003Y-9371913D01*
X13003792Y-9368823D01*
X12999581Y-9368805D01*
X12998852Y-9368928D01*
X12998797Y-9368930D01*
X12995129Y-9368544D01*
X12994967Y-9368426D01*
X12994988Y-9368228D01*
X12995149Y-9368145D01*
X13004104Y-9368145D01*
X13016690Y-9364056D01*
X13026363Y-9357028D01*
X13026562Y-9357007D01*
X13026680Y-9357168D01*
G37*
G36*
X12921417Y-9300898D02*
G01*
X12924444Y-9310216D01*
X12932232Y-9320935D01*
X12967565Y-9356268D01*
X12978284Y-9364056D01*
X12982305Y-9365362D01*
X12982438Y-9365511D01*
X12982377Y-9365701D01*
X12982225Y-9365751D01*
X12975456Y-9365131D01*
X12969312Y-9368328D01*
X12965872Y-9374339D01*
X12966229Y-9381280D01*
X12966700Y-9382432D01*
X12967323Y-9383755D01*
X12967339Y-9383807D01*
X12967766Y-9386329D01*
X12967696Y-9386516D01*
X12967499Y-9386550D01*
X12967378Y-9386424D01*
X12964544Y-9377699D01*
X12957215Y-9367613D01*
X12918347Y-9328745D01*
X12908261Y-9321416D01*
X12906288Y-9320775D01*
X12906154Y-9320627D01*
X12906216Y-9320436D01*
X12906368Y-9320386D01*
X12912701Y-9320966D01*
X12918845Y-9317769D01*
X12922285Y-9311758D01*
X12921928Y-9304817D01*
X12921507Y-9303790D01*
X12921495Y-9303748D01*
X12921029Y-9300993D01*
X12921099Y-9300805D01*
X12921296Y-9300772D01*
X12921417Y-9300898D01*
G37*
G36*
X14419799Y-9318051D02*
G01*
X14419816Y-9318151D01*
X14419206Y-9324805D01*
X14422403Y-9330949D01*
X14428414Y-9334389D01*
X14435343Y-9334032D01*
X14439025Y-9331978D01*
X14439026Y-9331978D01*
X14439028Y-9331975D01*
X14444757Y-9327336D01*
X14444798Y-9327310D01*
X14446661Y-9326433D01*
X14446860Y-9326450D01*
X14446945Y-9326631D01*
X14446863Y-9326776D01*
X14439271Y-9332292D01*
X14439251Y-9332294D01*
X14439240Y-9332315D01*
X14438225Y-9333052D01*
X14402892Y-9368385D01*
X14395843Y-9378088D01*
X14395660Y-9378169D01*
X14395498Y-9378052D01*
X14395495Y-9377897D01*
X14396191Y-9376138D01*
X14396826Y-9369212D01*
X14393629Y-9363068D01*
X14387618Y-9359628D01*
X14380677Y-9359985D01*
X14379525Y-9360456D01*
X14376477Y-9361891D01*
X14376277Y-9361874D01*
X14376192Y-9361693D01*
X14376274Y-9361548D01*
X14384374Y-9355663D01*
X14412635Y-9327401D01*
X14419455Y-9318015D01*
X14419638Y-9317934D01*
X14419799Y-9318051D01*
G37*
G36*
X15942368Y-9270005D02*
G01*
X15942450Y-9270130D01*
X15943674Y-9276281D01*
X15947976Y-9282720D01*
X16001688Y-9336432D01*
X16008127Y-9340734D01*
X16013022Y-9341708D01*
X16013172Y-9341840D01*
X16013133Y-9342036D01*
X16013022Y-9342100D01*
X16006577Y-9343395D01*
X16001603Y-9348214D01*
X16000023Y-9354959D01*
X16002185Y-9361205D01*
X16002148Y-9361402D01*
X16001959Y-9361467D01*
X16001830Y-9361382D01*
X15998294Y-9356089D01*
X15920776Y-9278572D01*
X15920725Y-9278379D01*
X15920866Y-9278237D01*
X15921014Y-9278255D01*
X15927144Y-9281602D01*
X15934052Y-9281108D01*
X15939597Y-9276957D01*
X15942012Y-9270636D01*
X15942055Y-9270151D01*
X15942169Y-9269987D01*
X15942368Y-9270005D01*
G37*
G36*
X15401099Y-9265689D02*
G01*
X15404635Y-9270982D01*
X15482152Y-9348499D01*
X15482204Y-9348692D01*
X15482063Y-9348834D01*
X15481915Y-9348816D01*
X15475785Y-9345469D01*
X15468877Y-9345963D01*
X15463332Y-9350114D01*
X15460917Y-9356435D01*
X15460874Y-9356920D01*
X15460760Y-9357084D01*
X15460560Y-9357066D01*
X15460479Y-9356941D01*
X15459255Y-9350790D01*
X15454953Y-9344351D01*
X15401241Y-9290639D01*
X15394802Y-9286337D01*
X15389907Y-9285363D01*
X15389757Y-9285231D01*
X15389796Y-9285035D01*
X15389907Y-9284971D01*
X15396352Y-9283676D01*
X15401326Y-9278857D01*
X15402905Y-9272113D01*
X15400743Y-9265866D01*
X15400781Y-9265670D01*
X15400970Y-9265604D01*
X15401099Y-9265689D01*
G37*
G36*
X16685156Y-9264650D02*
G01*
X16691432Y-9273289D01*
X16723229Y-9305086D01*
X16733949Y-9312874D01*
X16744503Y-9316304D01*
X16744637Y-9316452D01*
X16744575Y-9316642D01*
X16744421Y-9316693D01*
X16743021Y-9316546D01*
X16742968Y-9316533D01*
X16741405Y-9315914D01*
X16734478Y-9315279D01*
X16728334Y-9318476D01*
X16724894Y-9324487D01*
X16725251Y-9331428D01*
X16725524Y-9332095D01*
X16725497Y-9332293D01*
X16725312Y-9332369D01*
X16725177Y-9332288D01*
X16719206Y-9324070D01*
X16690945Y-9295808D01*
X16680858Y-9288480D01*
X16670957Y-9285263D01*
X16670824Y-9285114D01*
X16670885Y-9284924D01*
X16671040Y-9284874D01*
X16673703Y-9285154D01*
X16680546Y-9283903D01*
X16685603Y-9279171D01*
X16687302Y-9272448D01*
X16686138Y-9267669D01*
X16684813Y-9264853D01*
X16684830Y-9264654D01*
X16685011Y-9264569D01*
X16685156Y-9264650D01*
G37*
G36*
X17702759Y-9239139D02*
G01*
X17702763Y-9239291D01*
X17700324Y-9245702D01*
X17701751Y-9252479D01*
X17706615Y-9257409D01*
X17713373Y-9258926D01*
X17719899Y-9256541D01*
X17721286Y-9255348D01*
X17721482Y-9255310D01*
X17721613Y-9255462D01*
X17721558Y-9255641D01*
X17677079Y-9300119D01*
X17676886Y-9300171D01*
X17676745Y-9300029D01*
X17676762Y-9299882D01*
X17680110Y-9293752D01*
X17679616Y-9286843D01*
X17675465Y-9281299D01*
X17668976Y-9278879D01*
X17662188Y-9280355D01*
X17660351Y-9281586D01*
X17658303Y-9283244D01*
X17658262Y-9283270D01*
X17656399Y-9284147D01*
X17656200Y-9284130D01*
X17656115Y-9283949D01*
X17656197Y-9283804D01*
X17664835Y-9277528D01*
X17700168Y-9242195D01*
X17702415Y-9239103D01*
X17702597Y-9239021D01*
X17702759Y-9239139D01*
G37*
G36*
X15852566Y-9180202D02*
G01*
X15852647Y-9180327D01*
X15853871Y-9186478D01*
X15858173Y-9192917D01*
X15911885Y-9246629D01*
X15918324Y-9250932D01*
X15924914Y-9252242D01*
X15925065Y-9252374D01*
X15925026Y-9252570D01*
X15924915Y-9252635D01*
X15919124Y-9253798D01*
X15914150Y-9258617D01*
X15912571Y-9265360D01*
X15914895Y-9271908D01*
X15916157Y-9273387D01*
X15916193Y-9273584D01*
X15916041Y-9273714D01*
X15915863Y-9273659D01*
X15830974Y-9188769D01*
X15830922Y-9188576D01*
X15831063Y-9188435D01*
X15831211Y-9188452D01*
X15837341Y-9191800D01*
X15844249Y-9191306D01*
X15849795Y-9187155D01*
X15852210Y-9180833D01*
X15852252Y-9180349D01*
X15852367Y-9180185D01*
X15852566Y-9180202D01*
G37*
G36*
X16035197Y-9145893D02*
G01*
X16035262Y-9146004D01*
X16036594Y-9152636D01*
X16041413Y-9157610D01*
X16048175Y-9159194D01*
X16049715Y-9158948D01*
X16049764Y-9158946D01*
X16050319Y-9158994D01*
X16050483Y-9159109D01*
X16050465Y-9159308D01*
X16050340Y-9159390D01*
X16044189Y-9160613D01*
X16037750Y-9164916D01*
X15947976Y-9254690D01*
X15943674Y-9261129D01*
X15942796Y-9265540D01*
X15942664Y-9265691D01*
X15942468Y-9265652D01*
X15942404Y-9265541D01*
X15941071Y-9258909D01*
X15936252Y-9253935D01*
X15929490Y-9252351D01*
X15927951Y-9252597D01*
X15927902Y-9252599D01*
X15927347Y-9252550D01*
X15927183Y-9252436D01*
X15927200Y-9252237D01*
X15927325Y-9252155D01*
X15933476Y-9250932D01*
X15939915Y-9246629D01*
X16029689Y-9156855D01*
X16033992Y-9150416D01*
X16034869Y-9146004D01*
X16035001Y-9145854D01*
X16035197Y-9145893D01*
G37*
G36*
X15762763Y-9090400D02*
G01*
X15762845Y-9090525D01*
X15764068Y-9096676D01*
X15768371Y-9103115D01*
X15822083Y-9156827D01*
X15828522Y-9161129D01*
X15835112Y-9162440D01*
X15835262Y-9162572D01*
X15835223Y-9162768D01*
X15835112Y-9162832D01*
X15829322Y-9163996D01*
X15824348Y-9168815D01*
X15822768Y-9175558D01*
X15825093Y-9182105D01*
X15826354Y-9183585D01*
X15826390Y-9183782D01*
X15826238Y-9183911D01*
X15826061Y-9183856D01*
X15741171Y-9098967D01*
X15741120Y-9098774D01*
X15741261Y-9098632D01*
X15741409Y-9098650D01*
X15747539Y-9101997D01*
X15754447Y-9101503D01*
X15759992Y-9097352D01*
X15762407Y-9091031D01*
X15762449Y-9090546D01*
X15762564Y-9090382D01*
X15762763Y-9090400D01*
G37*
G36*
X15945395Y-9056091D02*
G01*
X15945459Y-9056202D01*
X15946792Y-9062833D01*
X15951611Y-9067808D01*
X15958373Y-9069391D01*
X15959912Y-9069145D01*
X15959961Y-9069143D01*
X15960516Y-9069192D01*
X15960680Y-9069307D01*
X15960663Y-9069506D01*
X15960538Y-9069587D01*
X15954387Y-9070811D01*
X15947948Y-9075113D01*
X15858173Y-9164888D01*
X15853871Y-9171327D01*
X15852993Y-9175738D01*
X15852862Y-9175888D01*
X15852665Y-9175849D01*
X15852601Y-9175738D01*
X15851268Y-9169107D01*
X15846449Y-9164132D01*
X15839687Y-9162549D01*
X15838148Y-9162795D01*
X15838099Y-9162797D01*
X15837544Y-9162748D01*
X15837380Y-9162633D01*
X15837398Y-9162434D01*
X15837522Y-9162353D01*
X15843673Y-9161129D01*
X15850112Y-9156827D01*
X15939887Y-9067052D01*
X15944189Y-9060613D01*
X15945067Y-9056202D01*
X15945199Y-9056052D01*
X15945395Y-9056091D01*
G37*
G36*
X15672961Y-9000597D02*
G01*
X15673042Y-9000722D01*
X15674266Y-9006873D01*
X15678568Y-9013312D01*
X15732280Y-9067024D01*
X15738719Y-9071326D01*
X15745309Y-9072637D01*
X15745460Y-9072769D01*
X15745421Y-9072965D01*
X15745310Y-9073030D01*
X15739519Y-9074193D01*
X15734545Y-9079012D01*
X15732966Y-9085755D01*
X15735290Y-9092303D01*
X15736552Y-9093782D01*
X15736588Y-9093979D01*
X15736436Y-9094109D01*
X15736258Y-9094053D01*
X15658911Y-9016706D01*
X15654952Y-9014061D01*
X15654863Y-9013881D01*
X15654974Y-9013715D01*
X15655093Y-9013697D01*
X15661946Y-9014738D01*
X15668269Y-9011911D01*
X15672060Y-9006113D01*
X15672106Y-9003188D01*
X15672209Y-9003016D01*
X15672323Y-9002992D01*
X15672449Y-9003003D01*
X15672647Y-9000744D01*
X15672762Y-9000580D01*
X15672961Y-9000597D01*
G37*
G36*
X15855592Y-8966288D02*
G01*
X15855656Y-8966399D01*
X15856989Y-8973031D01*
X15861808Y-8978005D01*
X15868570Y-8979589D01*
X15870110Y-8979342D01*
X15870159Y-8979341D01*
X15870714Y-8979389D01*
X15870878Y-8979504D01*
X15870860Y-8979703D01*
X15870735Y-8979785D01*
X15864584Y-8981008D01*
X15858145Y-8985311D01*
X15768371Y-9075085D01*
X15764068Y-9081524D01*
X15763191Y-9085935D01*
X15763059Y-9086086D01*
X15762863Y-9086047D01*
X15762799Y-9085936D01*
X15761466Y-9079304D01*
X15756647Y-9074330D01*
X15749885Y-9072746D01*
X15748346Y-9072992D01*
X15748297Y-9072994D01*
X15747741Y-9072945D01*
X15747578Y-9072831D01*
X15747595Y-9072631D01*
X15747720Y-9072550D01*
X15753871Y-9071326D01*
X15760310Y-9067024D01*
X15850084Y-8977250D01*
X15854387Y-8970811D01*
X15855264Y-8966399D01*
X15855396Y-8966249D01*
X15855592Y-8966288D01*
G37*
G36*
X15259781Y-8802376D02*
G01*
X15262616Y-8811101D01*
X15269945Y-8821187D01*
X15308813Y-8860055D01*
X15318899Y-8867384D01*
X15328800Y-8870601D01*
X15328934Y-8870749D01*
X15328872Y-8870940D01*
X15328718Y-8870990D01*
X15326084Y-8870713D01*
X15319242Y-8871964D01*
X15314185Y-8876696D01*
X15312488Y-8883411D01*
X15314699Y-8890002D01*
X15315213Y-8890685D01*
X15316448Y-8892211D01*
X15316474Y-8892251D01*
X15317335Y-8894082D01*
X15317318Y-8894281D01*
X15317137Y-8894366D01*
X15316992Y-8894284D01*
X15310814Y-8885780D01*
X15256920Y-8831886D01*
X15246358Y-8824213D01*
X15245956Y-8824082D01*
X15245822Y-8823934D01*
X15245884Y-8823744D01*
X15246036Y-8823693D01*
X15251971Y-8824237D01*
X15258115Y-8821040D01*
X15261555Y-8815029D01*
X15261198Y-8808087D01*
X15260727Y-8806936D01*
X15259837Y-8805045D01*
X15259821Y-8804993D01*
X15259394Y-8802471D01*
X15259464Y-8802284D01*
X15259661Y-8802251D01*
X15259781Y-8802376D01*
G37*
G36*
X16984621Y-8754774D02*
G01*
X16985233Y-8756659D01*
X16992906Y-8767220D01*
X17044886Y-8819200D01*
X17044938Y-8819393D01*
X17044797Y-8819534D01*
X17044649Y-8819517D01*
X17038519Y-8816169D01*
X17031611Y-8816663D01*
X17026066Y-8820814D01*
X17023640Y-8827320D01*
X17023761Y-8829841D01*
X17023669Y-8830019D01*
X17023470Y-8830028D01*
X17023371Y-8829912D01*
X17020287Y-8820421D01*
X17012614Y-8809860D01*
X16981701Y-8778946D01*
X16971139Y-8771273D01*
X16968430Y-8770393D01*
X16968296Y-8770244D01*
X16968358Y-8770054D01*
X16968510Y-8770004D01*
X16974984Y-8770597D01*
X16981128Y-8767400D01*
X16984568Y-8761389D01*
X16984231Y-8754846D01*
X16984322Y-8754668D01*
X16984522Y-8754658D01*
X16984621Y-8754774D01*
G37*
G36*
X17292368Y-8748129D02*
G01*
X17292573Y-8748759D01*
X17300246Y-8759321D01*
X17331159Y-8790234D01*
X17341721Y-8797907D01*
X17352112Y-8801283D01*
X17352245Y-8801432D01*
X17352184Y-8801622D01*
X17352029Y-8801672D01*
X17350658Y-8801528D01*
X17350605Y-8801515D01*
X17347182Y-8800160D01*
X17340255Y-8799525D01*
X17334111Y-8802722D01*
X17330671Y-8808733D01*
X17331029Y-8815674D01*
X17331060Y-8815750D01*
X17331033Y-8815948D01*
X17330848Y-8816024D01*
X17330713Y-8815943D01*
X17324248Y-8807045D01*
X17288915Y-8771712D01*
X17278196Y-8763924D01*
X17276373Y-8763332D01*
X17276239Y-8763183D01*
X17276301Y-8762993D01*
X17276453Y-8762943D01*
X17282709Y-8763516D01*
X17288853Y-8760319D01*
X17292293Y-8754308D01*
X17291978Y-8748201D01*
X17292069Y-8748023D01*
X17292269Y-8748013D01*
X17292368Y-8748129D01*
G37*
G36*
X15129782Y-8672376D02*
G01*
X15132616Y-8681101D01*
X15139945Y-8691187D01*
X15178813Y-8730055D01*
X15188899Y-8737384D01*
X15198800Y-8740601D01*
X15198934Y-8740749D01*
X15198872Y-8740940D01*
X15198718Y-8740990D01*
X15197432Y-8740855D01*
X15197380Y-8740842D01*
X15194195Y-8739581D01*
X15187268Y-8738946D01*
X15181125Y-8742143D01*
X15177685Y-8748154D01*
X15178036Y-8754982D01*
X15177945Y-8755161D01*
X15177745Y-8755171D01*
X15177674Y-8755110D01*
X15171114Y-8746080D01*
X15117220Y-8692186D01*
X15107665Y-8685244D01*
X15107583Y-8685061D01*
X15107701Y-8684900D01*
X15107856Y-8684896D01*
X15108312Y-8685077D01*
X15108360Y-8685104D01*
X15110176Y-8686482D01*
X15116677Y-8688956D01*
X15123454Y-8687529D01*
X15128384Y-8682665D01*
X15129906Y-8675883D01*
X15129762Y-8674645D01*
X15129394Y-8672472D01*
X15129464Y-8672284D01*
X15129661Y-8672251D01*
X15129782Y-8672376D01*
G37*
G36*
X14573877Y-8708883D02*
G01*
X14581557Y-8716563D01*
X14587996Y-8720865D01*
X14595546Y-8722367D01*
X14595697Y-8722499D01*
X14595658Y-8722695D01*
X14595547Y-8722760D01*
X14590127Y-8723849D01*
X14585147Y-8728674D01*
X14583612Y-8733464D01*
X14583164Y-8737726D01*
X14583046Y-8737887D01*
X14582847Y-8737866D01*
X14582765Y-8737705D01*
X14582765Y-8728750D01*
X14578676Y-8716164D01*
X14573574Y-8709142D01*
X14573553Y-8708943D01*
X14573715Y-8708826D01*
X14573877Y-8708883D01*
G37*
G36*
X14615066Y-8526024D02*
G01*
X14615130Y-8526135D01*
X14616463Y-8532767D01*
X14621282Y-8537741D01*
X14628044Y-8539325D01*
X14629583Y-8539079D01*
X14629632Y-8539077D01*
X14630187Y-8539126D01*
X14630351Y-8539240D01*
X14630334Y-8539440D01*
X14630209Y-8539521D01*
X14624058Y-8540745D01*
X14617619Y-8545047D01*
X14527845Y-8634822D01*
X14523542Y-8641260D01*
X14522665Y-8645671D01*
X14522533Y-8645822D01*
X14522337Y-8645783D01*
X14522273Y-8645672D01*
X14520940Y-8639040D01*
X14516120Y-8634066D01*
X14509358Y-8632482D01*
X14507819Y-8632729D01*
X14507770Y-8632730D01*
X14507215Y-8632682D01*
X14507051Y-8632567D01*
X14507069Y-8632368D01*
X14507194Y-8632286D01*
X14513345Y-8631063D01*
X14519784Y-8626760D01*
X14609558Y-8536986D01*
X14613860Y-8530547D01*
X14614738Y-8526136D01*
X14614870Y-8525985D01*
X14615066Y-8526024D01*
G37*
G36*
X14641671Y-8518018D02*
G01*
X14719018Y-8595365D01*
X14722977Y-8598010D01*
X14723066Y-8598190D01*
X14722955Y-8598356D01*
X14722836Y-8598374D01*
X14715983Y-8597333D01*
X14709660Y-8600160D01*
X14705869Y-8605958D01*
X14705823Y-8608883D01*
X14705720Y-8609055D01*
X14705605Y-8609079D01*
X14705480Y-8609068D01*
X14705282Y-8611327D01*
X14705167Y-8611491D01*
X14704968Y-8611474D01*
X14704887Y-8611349D01*
X14703663Y-8605198D01*
X14699361Y-8598759D01*
X14645649Y-8545047D01*
X14639210Y-8540745D01*
X14632620Y-8539434D01*
X14632469Y-8539302D01*
X14632508Y-8539106D01*
X14632619Y-8539042D01*
X14638410Y-8537878D01*
X14643384Y-8533059D01*
X14644963Y-8526316D01*
X14642639Y-8519768D01*
X14641377Y-8518289D01*
X14641341Y-8518092D01*
X14641493Y-8517962D01*
X14641671Y-8518018D01*
G37*
G36*
X13069019Y-8505936D02*
G01*
X13072047Y-8515254D01*
X13079835Y-8525974D01*
X13111632Y-8557771D01*
X13121335Y-8564821D01*
X13121416Y-8565003D01*
X13121299Y-8565165D01*
X13121144Y-8565168D01*
X13119268Y-8564426D01*
X13119226Y-8564532D01*
X13119069Y-8564656D01*
X13118969Y-8564645D01*
X13114974Y-8563124D01*
X13108197Y-8564551D01*
X13103266Y-8569416D01*
X13101746Y-8576183D01*
X13102893Y-8580632D01*
X13103234Y-8581357D01*
X13103250Y-8581408D01*
X13103711Y-8584136D01*
X13103642Y-8584324D01*
X13103445Y-8584357D01*
X13103324Y-8584232D01*
X13100296Y-8574914D01*
X13092508Y-8564194D01*
X13060711Y-8532397D01*
X13051008Y-8525347D01*
X13050927Y-8525165D01*
X13051044Y-8525003D01*
X13051199Y-8525000D01*
X13053075Y-8525742D01*
X13053117Y-8525636D01*
X13053274Y-8525512D01*
X13053374Y-8525523D01*
X13057369Y-8527043D01*
X13064147Y-8525617D01*
X13069077Y-8520752D01*
X13070597Y-8513985D01*
X13069450Y-8509535D01*
X13069109Y-8508811D01*
X13069093Y-8508760D01*
X13068632Y-8506031D01*
X13068701Y-8505844D01*
X13068899Y-8505811D01*
X13069019Y-8505936D01*
G37*
G36*
X14525264Y-8436222D02*
G01*
X14525328Y-8436333D01*
X14526660Y-8442964D01*
X14531479Y-8447939D01*
X14538241Y-8449523D01*
X14539781Y-8449276D01*
X14539830Y-8449275D01*
X14540385Y-8449323D01*
X14540549Y-8449438D01*
X14540531Y-8449637D01*
X14540406Y-8449719D01*
X14534255Y-8450942D01*
X14527817Y-8455244D01*
X14438042Y-8545019D01*
X14433740Y-8551458D01*
X14432862Y-8555869D01*
X14432730Y-8556020D01*
X14432534Y-8555981D01*
X14432470Y-8555870D01*
X14431137Y-8549238D01*
X14426318Y-8544264D01*
X14419556Y-8542680D01*
X14418017Y-8542926D01*
X14417968Y-8542928D01*
X14417413Y-8542879D01*
X14417249Y-8542765D01*
X14417266Y-8542565D01*
X14417391Y-8542484D01*
X14423542Y-8541260D01*
X14429981Y-8536958D01*
X14519756Y-8447183D01*
X14524058Y-8440745D01*
X14524935Y-8436333D01*
X14525067Y-8436183D01*
X14525264Y-8436222D01*
G37*
G36*
X14551868Y-8428215D02*
G01*
X14636758Y-8513104D01*
X14636809Y-8513297D01*
X14636668Y-8513439D01*
X14636520Y-8513421D01*
X14630390Y-8510074D01*
X14623482Y-8510568D01*
X14617937Y-8514719D01*
X14615522Y-8521040D01*
X14615479Y-8521525D01*
X14615365Y-8521689D01*
X14615166Y-8521671D01*
X14615084Y-8521547D01*
X14613860Y-8515395D01*
X14609558Y-8508957D01*
X14555846Y-8455244D01*
X14549407Y-8450942D01*
X14542817Y-8449631D01*
X14542667Y-8449499D01*
X14542706Y-8449303D01*
X14542817Y-8449239D01*
X14548607Y-8448075D01*
X14553581Y-8443256D01*
X14555161Y-8436513D01*
X14552836Y-8429966D01*
X14551575Y-8428486D01*
X14551538Y-8428290D01*
X14551691Y-8428160D01*
X14551868Y-8428215D01*
G37*
G36*
X12959417Y-8396335D02*
G01*
X12962445Y-8405653D01*
X12970233Y-8416372D01*
X13002030Y-8448169D01*
X13011733Y-8455219D01*
X13011815Y-8455402D01*
X13011697Y-8455563D01*
X13011542Y-8455567D01*
X13009666Y-8454824D01*
X13009624Y-8454930D01*
X13009468Y-8455055D01*
X13009367Y-8455044D01*
X13005372Y-8453523D01*
X12998595Y-8454950D01*
X12993665Y-8459814D01*
X12992145Y-8466581D01*
X12993292Y-8471031D01*
X12993632Y-8471755D01*
X12993648Y-8471807D01*
X12994110Y-8474535D01*
X12994040Y-8474722D01*
X12993843Y-8474756D01*
X12993722Y-8474630D01*
X12990695Y-8465312D01*
X12982907Y-8454593D01*
X12951110Y-8422796D01*
X12941407Y-8415746D01*
X12941325Y-8415563D01*
X12941443Y-8415401D01*
X12941598Y-8415398D01*
X12943473Y-8416141D01*
X12943516Y-8416034D01*
X12943672Y-8415910D01*
X12943773Y-8415921D01*
X12947768Y-8417442D01*
X12954545Y-8416015D01*
X12959475Y-8411151D01*
X12960995Y-8404383D01*
X12959848Y-8399934D01*
X12959508Y-8399210D01*
X12959491Y-8399158D01*
X12959030Y-8396430D01*
X12959100Y-8396242D01*
X12959297Y-8396209D01*
X12959417Y-8396335D01*
G37*
G36*
X14252783Y-8380446D02*
G01*
X14252853Y-8380562D01*
X14254135Y-8387004D01*
X14258437Y-8393443D01*
X14312149Y-8447155D01*
X14316752Y-8450231D01*
X14316840Y-8450410D01*
X14316729Y-8450577D01*
X14316611Y-8450595D01*
X14310171Y-8449617D01*
X14303849Y-8452444D01*
X14300055Y-8458245D01*
X14299796Y-8462343D01*
X14299796Y-8462352D01*
X14299272Y-8467333D01*
X14299154Y-8467495D01*
X14298955Y-8467474D01*
X14298873Y-8467312D01*
X14298873Y-8458358D01*
X14294784Y-8445772D01*
X14286996Y-8435053D01*
X14251663Y-8399720D01*
X14240944Y-8391932D01*
X14230389Y-8388503D01*
X14230255Y-8388354D01*
X14230317Y-8388164D01*
X14230472Y-8388114D01*
X14231871Y-8388261D01*
X14231924Y-8388274D01*
X14235831Y-8389820D01*
X14242758Y-8390455D01*
X14248901Y-8387258D01*
X14252353Y-8381228D01*
X14252460Y-8380569D01*
X14252586Y-8380414D01*
X14252783Y-8380446D01*
G37*
G36*
X14435461Y-8346419D02*
G01*
X14435525Y-8346530D01*
X14436858Y-8353162D01*
X14441677Y-8358136D01*
X14448439Y-8359720D01*
X14449978Y-8359474D01*
X14450027Y-8359472D01*
X14450582Y-8359521D01*
X14450746Y-8359635D01*
X14450729Y-8359834D01*
X14450604Y-8359916D01*
X14444453Y-8361139D01*
X14438014Y-8365442D01*
X14348240Y-8455216D01*
X14343937Y-8461655D01*
X14343060Y-8466067D01*
X14342928Y-8466217D01*
X14342732Y-8466178D01*
X14342667Y-8466067D01*
X14341335Y-8459435D01*
X14336516Y-8454461D01*
X14329754Y-8452877D01*
X14328214Y-8453124D01*
X14328165Y-8453125D01*
X14327610Y-8453077D01*
X14327446Y-8452962D01*
X14327464Y-8452763D01*
X14327589Y-8452681D01*
X14333740Y-8451458D01*
X14340178Y-8447155D01*
X14429953Y-8357381D01*
X14434255Y-8350942D01*
X14435133Y-8346531D01*
X14435265Y-8346380D01*
X14435461Y-8346419D01*
G37*
G36*
X16952286Y-8388272D02*
G01*
X16952268Y-8388420D01*
X16948921Y-8394550D01*
X16949415Y-8401458D01*
X16953566Y-8407003D01*
X16960058Y-8409424D01*
X16964624Y-8408574D01*
X16964812Y-8408640D01*
X16964849Y-8408837D01*
X16964778Y-8408932D01*
X16954369Y-8416494D01*
X16935523Y-8435340D01*
X16935330Y-8435392D01*
X16935189Y-8435251D01*
X16935206Y-8435103D01*
X16938554Y-8428973D01*
X16938060Y-8422065D01*
X16933909Y-8416520D01*
X16927417Y-8414099D01*
X16922884Y-8414943D01*
X16922696Y-8414877D01*
X16922659Y-8414680D01*
X16922730Y-8414585D01*
X16933041Y-8407094D01*
X16951951Y-8388183D01*
X16952145Y-8388131D01*
X16952286Y-8388272D01*
G37*
G36*
X14462066Y-8338412D02*
G01*
X14546955Y-8423302D01*
X14547007Y-8423495D01*
X14546865Y-8423636D01*
X14546718Y-8423619D01*
X14540588Y-8420271D01*
X14533679Y-8420765D01*
X14528134Y-8424917D01*
X14525719Y-8431238D01*
X14525677Y-8431722D01*
X14525562Y-8431886D01*
X14525363Y-8431869D01*
X14525282Y-8431744D01*
X14524058Y-8425593D01*
X14519756Y-8419154D01*
X14466043Y-8365442D01*
X14459605Y-8361139D01*
X14453015Y-8359829D01*
X14452864Y-8359697D01*
X14452903Y-8359501D01*
X14453014Y-8359436D01*
X14458804Y-8358273D01*
X14463779Y-8353454D01*
X14465358Y-8346711D01*
X14463034Y-8340163D01*
X14461772Y-8338684D01*
X14461736Y-8338487D01*
X14461888Y-8338357D01*
X14462066Y-8338412D01*
G37*
G36*
X17152434Y-8297630D02*
G01*
X17155413Y-8306799D01*
X17163086Y-8317360D01*
X17189171Y-8343445D01*
X17189222Y-8343638D01*
X17189081Y-8343779D01*
X17188933Y-8343762D01*
X17182803Y-8340415D01*
X17175895Y-8340909D01*
X17170351Y-8345059D01*
X17167929Y-8351551D01*
X17169072Y-8357685D01*
X17169873Y-8359387D01*
X17169889Y-8359439D01*
X17170351Y-8362167D01*
X17170281Y-8362355D01*
X17170084Y-8362388D01*
X17169963Y-8362262D01*
X17166936Y-8352944D01*
X17159148Y-8342225D01*
X17133128Y-8316206D01*
X17133077Y-8316012D01*
X17133218Y-8315871D01*
X17133366Y-8315889D01*
X17139496Y-8319236D01*
X17146404Y-8318742D01*
X17151948Y-8314591D01*
X17154370Y-8308099D01*
X17153227Y-8301965D01*
X17152515Y-8300453D01*
X17152499Y-8300401D01*
X17152046Y-8297725D01*
X17152116Y-8297537D01*
X17152313Y-8297504D01*
X17152434Y-8297630D01*
G37*
G36*
X14917368Y-8255005D02*
G01*
X14917450Y-8255130D01*
X14918674Y-8261281D01*
X14922976Y-8267720D01*
X14976688Y-8321432D01*
X14983127Y-8325734D01*
X14988022Y-8326708D01*
X14988172Y-8326840D01*
X14988133Y-8327036D01*
X14988022Y-8327100D01*
X14981577Y-8328395D01*
X14976603Y-8333214D01*
X14975023Y-8339958D01*
X14977185Y-8346205D01*
X14977148Y-8346401D01*
X14976959Y-8346467D01*
X14976830Y-8346382D01*
X14973294Y-8341089D01*
X14895776Y-8263572D01*
X14895725Y-8263379D01*
X14895866Y-8263237D01*
X14896014Y-8263255D01*
X14902144Y-8266602D01*
X14909052Y-8266108D01*
X14914597Y-8261957D01*
X14917012Y-8255636D01*
X14917055Y-8255151D01*
X14917169Y-8254987D01*
X14917368Y-8255005D01*
G37*
G36*
X14376099Y-8250689D02*
G01*
X14379635Y-8255982D01*
X14457152Y-8333499D01*
X14457204Y-8333692D01*
X14457063Y-8333834D01*
X14456915Y-8333816D01*
X14450785Y-8330469D01*
X14443877Y-8330963D01*
X14438332Y-8335114D01*
X14435917Y-8341435D01*
X14435874Y-8341920D01*
X14435760Y-8342084D01*
X14435560Y-8342066D01*
X14435479Y-8341941D01*
X14434255Y-8335790D01*
X14429953Y-8329351D01*
X14376241Y-8275639D01*
X14369802Y-8271337D01*
X14364907Y-8270363D01*
X14364757Y-8270231D01*
X14364796Y-8270035D01*
X14364907Y-8269971D01*
X14371352Y-8268676D01*
X14376326Y-8263857D01*
X14377905Y-8257112D01*
X14375743Y-8250866D01*
X14375781Y-8250669D01*
X14375970Y-8250604D01*
X14376099Y-8250689D01*
G37*
G36*
X13525239Y-8226394D02*
G01*
X13528267Y-8235712D01*
X13536055Y-8246431D01*
X13567852Y-8278228D01*
X13578571Y-8286016D01*
X13589126Y-8289446D01*
X13589260Y-8289595D01*
X13589198Y-8289785D01*
X13589043Y-8289835D01*
X13587643Y-8289688D01*
X13587590Y-8289675D01*
X13583500Y-8288056D01*
X13576573Y-8287421D01*
X13570430Y-8290618D01*
X13566990Y-8296629D01*
X13567347Y-8303570D01*
X13567818Y-8304722D01*
X13568153Y-8305433D01*
X13568169Y-8305485D01*
X13568631Y-8308213D01*
X13568561Y-8308401D01*
X13568364Y-8308434D01*
X13568243Y-8308308D01*
X13565216Y-8298990D01*
X13557428Y-8288271D01*
X13525631Y-8256474D01*
X13514911Y-8248686D01*
X13504356Y-8245256D01*
X13504223Y-8245108D01*
X13504284Y-8244918D01*
X13504439Y-8244867D01*
X13505839Y-8245014D01*
X13505892Y-8245027D01*
X13509982Y-8246647D01*
X13516909Y-8247281D01*
X13523053Y-8244084D01*
X13526493Y-8238073D01*
X13526135Y-8231132D01*
X13525664Y-8229980D01*
X13525329Y-8229269D01*
X13525313Y-8229217D01*
X13524852Y-8226489D01*
X13524921Y-8226302D01*
X13525119Y-8226268D01*
X13525239Y-8226394D01*
G37*
G36*
X14827566Y-8165202D02*
G01*
X14827647Y-8165327D01*
X14828871Y-8171478D01*
X14833173Y-8177917D01*
X14886885Y-8231629D01*
X14893324Y-8235931D01*
X14899914Y-8237242D01*
X14900065Y-8237374D01*
X14900026Y-8237570D01*
X14899915Y-8237635D01*
X14894124Y-8238798D01*
X14889150Y-8243617D01*
X14887571Y-8250360D01*
X14889895Y-8256908D01*
X14891157Y-8258387D01*
X14891193Y-8258584D01*
X14891041Y-8258714D01*
X14890863Y-8258658D01*
X14805974Y-8173769D01*
X14805922Y-8173576D01*
X14806063Y-8173435D01*
X14806211Y-8173452D01*
X14812341Y-8176800D01*
X14819249Y-8176306D01*
X14824795Y-8172154D01*
X14827210Y-8165833D01*
X14827252Y-8165349D01*
X14827367Y-8165185D01*
X14827566Y-8165202D01*
G37*
G36*
X15010197Y-8130893D02*
G01*
X15010262Y-8131004D01*
X15011594Y-8137636D01*
X15016413Y-8142610D01*
X15023175Y-8144194D01*
X15024715Y-8143947D01*
X15024764Y-8143946D01*
X15025319Y-8143994D01*
X15025483Y-8144109D01*
X15025465Y-8144308D01*
X15025340Y-8144390D01*
X15019189Y-8145613D01*
X15012750Y-8149916D01*
X14922976Y-8239690D01*
X14918674Y-8246129D01*
X14917796Y-8250540D01*
X14917664Y-8250691D01*
X14917468Y-8250652D01*
X14917404Y-8250541D01*
X14916071Y-8243909D01*
X14911252Y-8238935D01*
X14904490Y-8237351D01*
X14902951Y-8237597D01*
X14902902Y-8237599D01*
X14902347Y-8237550D01*
X14902183Y-8237436D01*
X14902200Y-8237236D01*
X14902325Y-8237155D01*
X14908476Y-8235931D01*
X14914915Y-8231629D01*
X15004689Y-8141855D01*
X15008992Y-8135416D01*
X15009869Y-8131004D01*
X15010001Y-8130854D01*
X15010197Y-8130893D01*
G37*
G36*
X13415637Y-8116792D02*
G01*
X13418665Y-8126110D01*
X13426453Y-8136830D01*
X13458250Y-8168627D01*
X13468970Y-8176415D01*
X13479524Y-8179844D01*
X13479658Y-8179993D01*
X13479596Y-8180183D01*
X13479442Y-8180233D01*
X13478041Y-8180086D01*
X13477989Y-8180073D01*
X13473899Y-8178454D01*
X13466972Y-8177819D01*
X13460828Y-8181016D01*
X13457388Y-8187027D01*
X13457745Y-8193969D01*
X13458217Y-8195120D01*
X13458551Y-8195832D01*
X13458568Y-8195883D01*
X13459029Y-8198612D01*
X13458959Y-8198799D01*
X13458762Y-8198833D01*
X13458642Y-8198707D01*
X13455614Y-8189389D01*
X13447826Y-8178669D01*
X13416029Y-8146872D01*
X13405310Y-8139084D01*
X13394755Y-8135655D01*
X13394621Y-8135506D01*
X13394683Y-8135316D01*
X13394837Y-8135266D01*
X13396238Y-8135413D01*
X13396290Y-8135426D01*
X13400380Y-8137045D01*
X13407307Y-8137680D01*
X13413451Y-8134483D01*
X13416891Y-8128472D01*
X13416534Y-8121530D01*
X13416062Y-8120379D01*
X13415728Y-8119667D01*
X13415711Y-8119616D01*
X13415250Y-8116887D01*
X13415320Y-8116700D01*
X13415517Y-8116667D01*
X13415637Y-8116792D01*
G37*
G36*
X13356720Y-8116082D02*
G01*
X13356770Y-8116236D01*
X13356635Y-8117521D01*
X13356622Y-8117574D01*
X13355202Y-8121161D01*
X13354567Y-8128088D01*
X13357764Y-8134231D01*
X13363775Y-8137671D01*
X13370716Y-8137314D01*
X13371868Y-8136843D01*
X13373347Y-8136147D01*
X13373399Y-8136131D01*
X13376127Y-8135669D01*
X13376315Y-8135739D01*
X13376348Y-8135936D01*
X13376223Y-8136057D01*
X13366904Y-8139084D01*
X13356185Y-8146872D01*
X13320852Y-8182205D01*
X13313803Y-8191908D01*
X13313620Y-8191989D01*
X13313458Y-8191872D01*
X13313455Y-8191717D01*
X13313570Y-8191427D01*
X13314205Y-8184500D01*
X13311008Y-8178356D01*
X13304989Y-8174911D01*
X13300073Y-8174748D01*
X13298859Y-8174953D01*
X13298671Y-8174883D01*
X13298638Y-8174686D01*
X13298763Y-8174566D01*
X13307487Y-8171731D01*
X13317574Y-8164403D01*
X13345835Y-8136141D01*
X13353164Y-8126055D01*
X13356381Y-8116154D01*
X13356529Y-8116020D01*
X13356720Y-8116082D01*
G37*
G36*
X13127038Y-8131842D02*
G01*
X13127021Y-8131990D01*
X13123673Y-8138120D01*
X13124167Y-8145028D01*
X13128318Y-8150573D01*
X13134810Y-8152994D01*
X13140944Y-8151851D01*
X13141884Y-8151409D01*
X13142083Y-8151426D01*
X13142168Y-8151607D01*
X13142086Y-8151752D01*
X13133986Y-8157637D01*
X13111496Y-8180127D01*
X13111303Y-8180179D01*
X13111162Y-8180037D01*
X13111179Y-8179890D01*
X13114526Y-8173760D01*
X13114032Y-8166852D01*
X13109882Y-8161307D01*
X13103390Y-8158886D01*
X13097256Y-8160029D01*
X13096316Y-8160471D01*
X13096117Y-8160454D01*
X13096032Y-8160273D01*
X13096113Y-8160128D01*
X13104214Y-8154243D01*
X13126704Y-8131753D01*
X13126897Y-8131701D01*
X13127038Y-8131842D01*
G37*
G36*
X14737763Y-8075400D02*
G01*
X14737845Y-8075524D01*
X14739068Y-8081676D01*
X14743371Y-8088114D01*
X14797083Y-8141827D01*
X14803522Y-8146129D01*
X14810112Y-8147440D01*
X14810262Y-8147572D01*
X14810223Y-8147768D01*
X14810112Y-8147832D01*
X14804322Y-8148996D01*
X14799348Y-8153815D01*
X14797768Y-8160558D01*
X14800093Y-8167105D01*
X14801354Y-8168585D01*
X14801390Y-8168781D01*
X14801238Y-8168911D01*
X14801061Y-8168856D01*
X14716171Y-8083967D01*
X14716120Y-8083774D01*
X14716261Y-8083632D01*
X14716409Y-8083650D01*
X14722539Y-8086997D01*
X14729447Y-8086503D01*
X14734992Y-8082352D01*
X14737407Y-8076031D01*
X14737449Y-8075546D01*
X14737564Y-8075382D01*
X14737763Y-8075400D01*
G37*
G36*
X14920395Y-8041090D02*
G01*
X14920459Y-8041201D01*
X14921792Y-8047833D01*
X14926611Y-8052807D01*
X14933373Y-8054391D01*
X14934912Y-8054145D01*
X14934961Y-8054143D01*
X14935516Y-8054192D01*
X14935680Y-8054306D01*
X14935663Y-8054506D01*
X14935538Y-8054587D01*
X14929387Y-8055811D01*
X14922948Y-8060113D01*
X14833173Y-8149888D01*
X14828871Y-8156326D01*
X14827993Y-8160738D01*
X14827862Y-8160888D01*
X14827665Y-8160849D01*
X14827601Y-8160738D01*
X14826268Y-8154107D01*
X14821449Y-8149132D01*
X14814687Y-8147548D01*
X14813148Y-8147795D01*
X14813099Y-8147796D01*
X14812544Y-8147748D01*
X14812380Y-8147633D01*
X14812398Y-8147434D01*
X14812522Y-8147352D01*
X14818673Y-8146129D01*
X14825112Y-8141827D01*
X14914887Y-8052052D01*
X14919189Y-8045613D01*
X14920067Y-8041202D01*
X14920199Y-8041051D01*
X14920395Y-8041090D01*
G37*
G36*
X12799952Y-8089774D02*
G01*
X12805837Y-8097874D01*
X12834099Y-8126135D01*
X12836058Y-8127559D01*
X12836139Y-8127741D01*
X12836021Y-8127903D01*
X12835869Y-8127907D01*
X12829556Y-8125505D01*
X12822778Y-8126932D01*
X12817848Y-8131796D01*
X12816329Y-8138564D01*
X12817476Y-8143012D01*
X12818663Y-8145536D01*
X12818646Y-8145735D01*
X12818465Y-8145820D01*
X12818320Y-8145739D01*
X12812435Y-8137639D01*
X12784174Y-8109377D01*
X12782215Y-8107954D01*
X12782134Y-8107771D01*
X12782251Y-8107609D01*
X12782404Y-8107605D01*
X12788717Y-8110008D01*
X12795494Y-8108581D01*
X12800424Y-8103716D01*
X12801943Y-8096949D01*
X12800797Y-8092500D01*
X12799609Y-8089977D01*
X12799626Y-8089777D01*
X12799807Y-8089692D01*
X12799952Y-8089774D01*
G37*
G36*
X13455947Y-8016854D02*
G01*
X13455997Y-8017009D01*
X13455695Y-8019888D01*
X13455709Y-8019899D01*
X13455726Y-8019998D01*
X13455250Y-8025182D01*
X13458447Y-8031326D01*
X13464458Y-8034766D01*
X13471110Y-8034424D01*
X13471288Y-8034515D01*
X13471299Y-8034715D01*
X13471238Y-8034785D01*
X13461786Y-8041653D01*
X13426453Y-8076986D01*
X13418665Y-8087705D01*
X13417705Y-8090661D01*
X13417556Y-8090795D01*
X13417366Y-8090733D01*
X13417315Y-8090581D01*
X13417913Y-8084060D01*
X13414716Y-8077917D01*
X13408705Y-8074477D01*
X13401763Y-8074834D01*
X13400660Y-8075285D01*
X13400618Y-8075297D01*
X13398086Y-8075726D01*
X13397898Y-8075656D01*
X13397865Y-8075459D01*
X13397990Y-8075338D01*
X13406715Y-8072504D01*
X13416801Y-8065175D01*
X13445063Y-8036914D01*
X13452391Y-8026827D01*
X13455608Y-8016926D01*
X13455757Y-8016793D01*
X13455947Y-8016854D01*
G37*
G36*
X13315668Y-8018108D02*
G01*
X13321625Y-8026307D01*
X13360493Y-8065175D01*
X13369602Y-8071794D01*
X13369683Y-8071976D01*
X13369566Y-8072138D01*
X13369411Y-8072141D01*
X13367987Y-8071578D01*
X13361060Y-8070943D01*
X13354917Y-8074140D01*
X13351477Y-8080151D01*
X13351834Y-8087092D01*
X13352139Y-8087838D01*
X13352112Y-8088036D01*
X13351927Y-8088112D01*
X13351792Y-8088031D01*
X13345835Y-8079833D01*
X13306967Y-8040965D01*
X13297858Y-8034346D01*
X13297777Y-8034164D01*
X13297894Y-8034002D01*
X13298049Y-8033998D01*
X13299473Y-8034562D01*
X13306399Y-8035197D01*
X13312543Y-8032000D01*
X13315983Y-8025989D01*
X13315626Y-8019048D01*
X13315321Y-8018302D01*
X13315348Y-8018104D01*
X13315533Y-8018028D01*
X13315668Y-8018108D01*
G37*
G36*
X14647961Y-7985597D02*
G01*
X14648042Y-7985722D01*
X14649266Y-7991873D01*
X14653568Y-7998312D01*
X14707280Y-8052024D01*
X14713719Y-8056326D01*
X14720309Y-8057637D01*
X14720460Y-8057769D01*
X14720421Y-8057965D01*
X14720310Y-8058029D01*
X14714519Y-8059193D01*
X14709545Y-8064012D01*
X14707966Y-8070755D01*
X14710290Y-8077303D01*
X14711552Y-8078782D01*
X14711588Y-8078979D01*
X14711436Y-8079109D01*
X14711258Y-8079053D01*
X14633911Y-8001706D01*
X14629952Y-7999061D01*
X14629863Y-7998881D01*
X14629974Y-7998715D01*
X14630093Y-7998697D01*
X14636946Y-7999738D01*
X14643269Y-7996911D01*
X14647060Y-7991113D01*
X14647106Y-7988188D01*
X14647209Y-7988016D01*
X14647323Y-7987992D01*
X14647449Y-7988003D01*
X14647647Y-7985744D01*
X14647762Y-7985580D01*
X14647961Y-7985597D01*
G37*
G36*
X14830592Y-7951288D02*
G01*
X14830656Y-7951399D01*
X14831989Y-7958031D01*
X14836808Y-7963005D01*
X14843570Y-7964589D01*
X14845110Y-7964342D01*
X14845159Y-7964341D01*
X14845714Y-7964389D01*
X14845878Y-7964504D01*
X14845860Y-7964703D01*
X14845735Y-7964785D01*
X14839584Y-7966008D01*
X14833145Y-7970311D01*
X14743371Y-8060085D01*
X14739068Y-8066524D01*
X14738191Y-8070935D01*
X14738059Y-8071086D01*
X14737863Y-8071047D01*
X14737799Y-8070936D01*
X14736466Y-8064304D01*
X14731647Y-8059330D01*
X14724885Y-8057746D01*
X14723346Y-8057992D01*
X14723297Y-8057994D01*
X14722741Y-8057945D01*
X14722578Y-8057831D01*
X14722595Y-8057631D01*
X14722720Y-8057550D01*
X14728871Y-8056326D01*
X14735310Y-8052024D01*
X14825084Y-7962249D01*
X14829387Y-7955811D01*
X14830264Y-7951399D01*
X14830396Y-7951249D01*
X14830592Y-7951288D01*
G37*
G36*
X12683280Y-7973101D02*
G01*
X12689165Y-7981201D01*
X12717426Y-8009463D01*
X12719385Y-8010886D01*
X12719466Y-8011069D01*
X12719349Y-8011230D01*
X12719196Y-8011235D01*
X12712883Y-8008832D01*
X12706106Y-8010259D01*
X12701176Y-8015124D01*
X12699656Y-8021891D01*
X12700803Y-8026340D01*
X12701991Y-8028863D01*
X12701974Y-8029063D01*
X12701793Y-8029148D01*
X12701648Y-8029066D01*
X12695763Y-8020966D01*
X12667501Y-7992705D01*
X12665542Y-7991281D01*
X12665461Y-7991099D01*
X12665579Y-7990937D01*
X12665731Y-7990933D01*
X12672044Y-7993335D01*
X12678821Y-7991908D01*
X12683751Y-7987044D01*
X12685271Y-7980276D01*
X12684124Y-7975827D01*
X12682937Y-7973304D01*
X12682954Y-7973105D01*
X12683134Y-7973020D01*
X12683280Y-7973101D01*
G37*
G36*
X13041582Y-7851574D02*
G01*
X13042432Y-7854191D01*
X13049761Y-7864278D01*
X13078022Y-7892539D01*
X13088109Y-7899867D01*
X13090822Y-7900749D01*
X13090955Y-7900897D01*
X13090894Y-7901088D01*
X13090742Y-7901138D01*
X13084236Y-7900542D01*
X13078092Y-7903739D01*
X13074652Y-7909750D01*
X13075004Y-7916590D01*
X13074913Y-7916768D01*
X13074713Y-7916779D01*
X13074614Y-7916662D01*
X13073764Y-7914045D01*
X13066435Y-7903959D01*
X13038174Y-7875697D01*
X13028087Y-7868369D01*
X13025375Y-7867487D01*
X13025241Y-7867339D01*
X13025303Y-7867149D01*
X13025455Y-7867098D01*
X13031960Y-7867694D01*
X13038104Y-7864497D01*
X13041544Y-7858486D01*
X13041192Y-7851646D01*
X13041283Y-7851468D01*
X13041483Y-7851457D01*
X13041582Y-7851574D01*
G37*
G36*
X15419383Y-7820875D02*
G01*
X15419365Y-7821022D01*
X15416018Y-7827152D01*
X15416512Y-7834061D01*
X15420663Y-7839605D01*
X15427155Y-7842027D01*
X15433289Y-7840884D01*
X15433307Y-7840875D01*
X15433359Y-7840859D01*
X15436035Y-7840406D01*
X15436223Y-7840476D01*
X15436256Y-7840673D01*
X15436131Y-7840793D01*
X15426961Y-7843773D01*
X15416399Y-7851446D01*
X15385486Y-7882359D01*
X15378544Y-7891914D01*
X15378361Y-7891996D01*
X15378200Y-7891878D01*
X15378196Y-7891723D01*
X15378377Y-7891266D01*
X15378404Y-7891219D01*
X15380471Y-7888496D01*
X15382945Y-7881995D01*
X15381518Y-7875218D01*
X15376653Y-7870288D01*
X15369885Y-7868769D01*
X15366848Y-7869552D01*
X15366655Y-7869498D01*
X15366605Y-7869305D01*
X15366736Y-7869168D01*
X15368278Y-7868667D01*
X15378840Y-7860994D01*
X15419048Y-7820785D01*
X15419242Y-7820733D01*
X15419383Y-7820875D01*
G37*
G36*
X14233482Y-7771277D02*
G01*
X14236316Y-7780001D01*
X14243645Y-7790087D01*
X14282513Y-7828955D01*
X14292599Y-7836284D01*
X14302500Y-7839501D01*
X14302634Y-7839649D01*
X14302572Y-7839839D01*
X14302418Y-7839890D01*
X14301133Y-7839755D01*
X14301080Y-7839742D01*
X14299500Y-7839116D01*
X14292573Y-7838482D01*
X14286430Y-7841678D01*
X14282989Y-7847690D01*
X14283347Y-7854631D01*
X14283623Y-7855306D01*
X14283596Y-7855504D01*
X14283411Y-7855580D01*
X14283276Y-7855500D01*
X14277014Y-7846880D01*
X14223120Y-7792986D01*
X14213565Y-7786044D01*
X14213483Y-7785861D01*
X14213601Y-7785699D01*
X14213756Y-7785696D01*
X14215654Y-7786448D01*
X14215751Y-7786370D01*
X14215852Y-7786381D01*
X14220421Y-7788120D01*
X14227198Y-7786693D01*
X14232128Y-7781829D01*
X14233651Y-7775048D01*
X14233506Y-7773809D01*
X14233094Y-7771372D01*
X14233164Y-7771184D01*
X14233361Y-7771151D01*
X14233482Y-7771277D01*
G37*
G36*
X12924909Y-7734901D02*
G01*
X12925760Y-7737518D01*
X12933088Y-7747605D01*
X12961350Y-7775866D01*
X12971436Y-7783195D01*
X12974149Y-7784076D01*
X12974283Y-7784225D01*
X12974221Y-7784415D01*
X12974069Y-7784466D01*
X12967563Y-7783869D01*
X12961420Y-7787066D01*
X12957979Y-7793077D01*
X12958331Y-7799918D01*
X12958241Y-7800096D01*
X12958041Y-7800106D01*
X12957942Y-7799990D01*
X12957091Y-7797373D01*
X12949763Y-7787286D01*
X12921501Y-7759025D01*
X12911415Y-7751696D01*
X12908702Y-7750815D01*
X12908568Y-7750666D01*
X12908630Y-7750476D01*
X12908782Y-7750425D01*
X12915288Y-7751022D01*
X12921431Y-7747825D01*
X12924872Y-7741814D01*
X12924520Y-7734973D01*
X12924610Y-7734795D01*
X12924810Y-7734785D01*
X12924909Y-7734901D01*
G37*
G36*
X15439652Y-7721482D02*
G01*
X15447214Y-7731891D01*
X15460980Y-7745657D01*
X15461032Y-7745850D01*
X15460891Y-7745991D01*
X15460743Y-7745974D01*
X15454613Y-7742626D01*
X15447705Y-7743120D01*
X15442160Y-7747271D01*
X15439739Y-7753763D01*
X15440583Y-7758296D01*
X15440517Y-7758484D01*
X15440320Y-7758521D01*
X15440225Y-7758450D01*
X15432734Y-7748139D01*
X15418903Y-7734309D01*
X15418851Y-7734115D01*
X15418992Y-7733974D01*
X15419140Y-7733992D01*
X15425270Y-7737339D01*
X15432178Y-7736845D01*
X15437723Y-7732694D01*
X15440144Y-7726202D01*
X15439293Y-7721636D01*
X15439360Y-7721448D01*
X15439557Y-7721411D01*
X15439652Y-7721482D01*
G37*
G36*
X15424628Y-7493796D02*
G01*
X15430806Y-7502300D01*
X15484700Y-7556194D01*
X15494255Y-7563136D01*
X15494337Y-7563319D01*
X15494219Y-7563480D01*
X15494064Y-7563484D01*
X15492201Y-7562746D01*
X15492093Y-7563020D01*
X15491936Y-7563145D01*
X15491835Y-7563134D01*
X15488431Y-7561833D01*
X15481652Y-7563252D01*
X15476717Y-7568111D01*
X15475186Y-7574890D01*
X15475331Y-7576143D01*
X15475789Y-7578852D01*
X15475720Y-7579040D01*
X15475522Y-7579073D01*
X15475402Y-7578947D01*
X15472374Y-7569629D01*
X15464586Y-7558909D01*
X15432789Y-7527112D01*
X15422070Y-7519324D01*
X15411515Y-7515895D01*
X15411381Y-7515746D01*
X15411443Y-7515556D01*
X15411598Y-7515506D01*
X15414254Y-7515785D01*
X15421097Y-7514534D01*
X15426154Y-7509802D01*
X15427851Y-7503087D01*
X15425640Y-7496496D01*
X15425172Y-7495875D01*
X15425151Y-7495840D01*
X15424285Y-7493998D01*
X15424302Y-7493799D01*
X15424482Y-7493714D01*
X15424628Y-7493796D01*
G37*
G36*
X15664063Y-7230097D02*
G01*
X15708220Y-7274254D01*
X15718781Y-7281927D01*
X15729172Y-7285303D01*
X15729306Y-7285452D01*
X15729244Y-7285642D01*
X15729090Y-7285692D01*
X15726215Y-7285390D01*
X15726204Y-7285497D01*
X15726086Y-7285659D01*
X15725986Y-7285675D01*
X15721705Y-7285283D01*
X15715561Y-7288480D01*
X15712121Y-7294491D01*
X15712477Y-7301414D01*
X15715408Y-7306076D01*
X15715415Y-7306275D01*
X15715246Y-7306382D01*
X15715097Y-7306323D01*
X15670940Y-7262166D01*
X15660378Y-7254493D01*
X15649987Y-7251117D01*
X15649854Y-7250968D01*
X15649915Y-7250778D01*
X15650070Y-7250728D01*
X15652945Y-7251030D01*
X15652956Y-7250923D01*
X15653074Y-7250761D01*
X15653173Y-7250745D01*
X15657455Y-7251137D01*
X15663599Y-7247940D01*
X15667039Y-7241929D01*
X15666683Y-7235006D01*
X15663752Y-7230344D01*
X15663745Y-7230145D01*
X15663914Y-7230038D01*
X15664063Y-7230097D01*
G37*
G36*
X12976009Y-7217823D02*
G01*
X12976059Y-7217975D01*
X12975517Y-7223889D01*
X12978714Y-7230032D01*
X12984725Y-7233473D01*
X12991285Y-7233135D01*
X12991463Y-7233226D01*
X12991473Y-7233426D01*
X12991413Y-7233497D01*
X12981809Y-7240474D01*
X12950012Y-7272271D01*
X12942224Y-7282990D01*
X12942109Y-7283346D01*
X12941960Y-7283480D01*
X12941770Y-7283418D01*
X12941719Y-7283266D01*
X12942261Y-7277353D01*
X12939064Y-7271209D01*
X12933053Y-7267769D01*
X12926493Y-7268106D01*
X12926315Y-7268016D01*
X12926305Y-7267816D01*
X12926365Y-7267745D01*
X12935969Y-7260768D01*
X12967766Y-7228971D01*
X12975554Y-7218251D01*
X12975670Y-7217895D01*
X12975818Y-7217761D01*
X12976009Y-7217823D01*
G37*
G36*
X13085610Y-7108221D02*
G01*
X13085661Y-7108374D01*
X13085119Y-7114287D01*
X13088316Y-7120431D01*
X13094327Y-7123871D01*
X13100887Y-7123533D01*
X13101065Y-7123624D01*
X13101075Y-7123824D01*
X13101015Y-7123895D01*
X13091411Y-7130872D01*
X13059614Y-7162669D01*
X13051826Y-7173389D01*
X13051710Y-7173745D01*
X13051562Y-7173879D01*
X13051371Y-7173817D01*
X13051321Y-7173665D01*
X13051863Y-7167751D01*
X13048666Y-7161607D01*
X13042655Y-7158167D01*
X13036095Y-7158505D01*
X13035917Y-7158414D01*
X13035906Y-7158214D01*
X13035967Y-7158143D01*
X13045571Y-7151166D01*
X13077368Y-7119369D01*
X13085156Y-7108650D01*
X13085271Y-7108293D01*
X13085420Y-7108160D01*
X13085610Y-7108221D01*
G37*
G36*
X15687889Y-7100072D02*
G01*
X15687871Y-7100220D01*
X15684524Y-7106350D01*
X15685018Y-7113258D01*
X15689168Y-7118803D01*
X15695660Y-7121224D01*
X15701794Y-7120081D01*
X15702147Y-7119915D01*
X15702199Y-7119899D01*
X15704875Y-7119446D01*
X15705062Y-7119516D01*
X15705096Y-7119713D01*
X15704970Y-7119834D01*
X15695801Y-7122813D01*
X15685239Y-7130486D01*
X15656469Y-7159256D01*
X15656276Y-7159308D01*
X15656135Y-7159167D01*
X15656152Y-7159019D01*
X15659500Y-7152889D01*
X15659006Y-7145981D01*
X15654855Y-7140436D01*
X15648363Y-7138015D01*
X15642229Y-7139158D01*
X15641687Y-7139413D01*
X15641635Y-7139429D01*
X15638907Y-7139891D01*
X15638719Y-7139821D01*
X15638686Y-7139624D01*
X15638811Y-7139503D01*
X15648130Y-7136476D01*
X15658849Y-7128688D01*
X15687554Y-7099983D01*
X15687747Y-7099931D01*
X15687889Y-7100072D01*
G37*
G36*
X15811804Y-6965943D02*
G01*
X15811854Y-6966097D01*
X15811707Y-6967498D01*
X15811694Y-6967550D01*
X15810029Y-6971756D01*
X15809394Y-6978683D01*
X15812591Y-6984827D01*
X15818602Y-6988267D01*
X15825525Y-6987911D01*
X15830187Y-6984981D01*
X15830386Y-6984973D01*
X15830493Y-6985142D01*
X15830434Y-6985291D01*
X15804586Y-7011139D01*
X15796913Y-7021701D01*
X15793537Y-7032092D01*
X15793388Y-7032225D01*
X15793198Y-7032164D01*
X15793148Y-7032009D01*
X15793292Y-7030638D01*
X15793305Y-7030585D01*
X15794886Y-7026591D01*
X15795521Y-7019664D01*
X15792324Y-7013520D01*
X15786313Y-7010080D01*
X15779390Y-7010436D01*
X15774728Y-7013367D01*
X15774528Y-7013374D01*
X15774422Y-7013205D01*
X15774480Y-7013056D01*
X15800248Y-6987289D01*
X15808036Y-6976570D01*
X15811465Y-6966015D01*
X15811614Y-6965881D01*
X15811804Y-6965943D01*
G37*
G36*
X15310166Y-6911272D02*
G01*
X15310148Y-6911420D01*
X15306801Y-6917550D01*
X15307295Y-6924458D01*
X15311446Y-6930003D01*
X15317938Y-6932424D01*
X15322312Y-6931609D01*
X15322501Y-6931676D01*
X15322537Y-6931872D01*
X15322466Y-6931968D01*
X15311980Y-6939586D01*
X15289269Y-6962297D01*
X15289076Y-6962349D01*
X15288934Y-6962208D01*
X15288952Y-6962060D01*
X15292299Y-6955930D01*
X15291805Y-6949022D01*
X15287655Y-6943477D01*
X15281163Y-6941056D01*
X15276788Y-6941871D01*
X15276600Y-6941804D01*
X15276563Y-6941608D01*
X15276634Y-6941512D01*
X15287120Y-6933894D01*
X15309831Y-6911183D01*
X15310025Y-6911131D01*
X15310166Y-6911272D01*
G37*
G36*
X15189122Y-6773284D02*
G01*
X15189173Y-6773439D01*
X15188922Y-6775819D01*
X15190174Y-6782661D01*
X15194905Y-6787719D01*
X15201620Y-6789416D01*
X15208211Y-6787205D01*
X15208894Y-6786690D01*
X15211610Y-6784492D01*
X15211650Y-6784466D01*
X15213481Y-6783605D01*
X15213680Y-6783622D01*
X15213765Y-6783803D01*
X15213684Y-6783948D01*
X15205179Y-6790126D01*
X15174266Y-6821039D01*
X15166593Y-6831601D01*
X15163217Y-6841992D01*
X15163068Y-6842125D01*
X15162878Y-6842064D01*
X15162828Y-6841909D01*
X15163037Y-6839916D01*
X15161786Y-6833074D01*
X15157054Y-6828016D01*
X15150340Y-6826319D01*
X15143749Y-6828530D01*
X15143065Y-6829044D01*
X15139237Y-6832144D01*
X15139196Y-6832170D01*
X15137333Y-6833047D01*
X15137134Y-6833030D01*
X15137049Y-6832849D01*
X15137130Y-6832704D01*
X15145769Y-6826428D01*
X15177566Y-6794631D01*
X15185354Y-6783911D01*
X15188783Y-6773356D01*
X15188932Y-6773223D01*
X15189122Y-6773284D01*
G37*
G36*
X14705807Y-6701036D02*
G01*
X14711986Y-6709540D01*
X14742899Y-6740454D01*
X14746269Y-6742902D01*
X14746351Y-6743085D01*
X14746233Y-6743247D01*
X14746081Y-6743251D01*
X14739646Y-6740802D01*
X14732869Y-6742229D01*
X14727939Y-6747094D01*
X14726422Y-6753848D01*
X14728537Y-6759258D01*
X14728507Y-6759456D01*
X14728467Y-6759488D01*
X14729907Y-6762547D01*
X14729890Y-6762746D01*
X14729709Y-6762831D01*
X14729564Y-6762750D01*
X14723288Y-6754111D01*
X14691491Y-6722314D01*
X14688597Y-6720212D01*
X14688516Y-6720029D01*
X14688634Y-6719867D01*
X14688786Y-6719863D01*
X14695180Y-6722297D01*
X14701957Y-6720870D01*
X14706887Y-6716005D01*
X14708404Y-6709250D01*
X14706587Y-6704603D01*
X14706617Y-6704406D01*
X14706688Y-6704350D01*
X14706885Y-6704257D01*
X14705465Y-6701239D01*
X14705481Y-6701040D01*
X14705662Y-6700954D01*
X14705807Y-6701036D01*
G37*
G36*
X15246649Y-6558403D02*
G01*
X15253839Y-6565594D01*
X15264401Y-6573267D01*
X15274792Y-6576643D01*
X15274925Y-6576792D01*
X15274864Y-6576982D01*
X15274709Y-6577032D01*
X15273338Y-6576888D01*
X15273285Y-6576875D01*
X15272479Y-6576556D01*
X15265552Y-6575922D01*
X15259409Y-6579119D01*
X15255969Y-6585130D01*
X15256325Y-6592053D01*
X15259255Y-6596714D01*
X15259263Y-6596914D01*
X15259093Y-6597020D01*
X15258944Y-6596962D01*
X15251835Y-6589852D01*
X15241116Y-6582064D01*
X15230561Y-6578635D01*
X15230427Y-6578486D01*
X15230489Y-6578296D01*
X15230644Y-6578246D01*
X15232043Y-6578393D01*
X15232096Y-6578406D01*
X15233114Y-6578809D01*
X15240041Y-6579443D01*
X15246184Y-6576247D01*
X15249625Y-6570235D01*
X15249268Y-6563312D01*
X15246338Y-6558651D01*
X15246331Y-6558451D01*
X15246500Y-6558345D01*
X15246649Y-6558403D01*
G37*
G36*
X14478339Y-6387776D02*
G01*
X14478420Y-6387900D01*
X14479644Y-6394051D01*
X14483946Y-6400490D01*
X14573721Y-6490265D01*
X14580160Y-6494567D01*
X14584571Y-6495445D01*
X14584721Y-6495577D01*
X14584682Y-6495773D01*
X14584571Y-6495837D01*
X14577940Y-6497170D01*
X14572965Y-6501989D01*
X14571382Y-6508751D01*
X14571628Y-6510290D01*
X14571630Y-6510339D01*
X14571581Y-6510894D01*
X14571466Y-6511058D01*
X14571267Y-6511041D01*
X14571186Y-6510916D01*
X14569962Y-6504765D01*
X14565660Y-6498326D01*
X14475885Y-6408551D01*
X14469446Y-6404249D01*
X14465035Y-6403372D01*
X14464885Y-6403240D01*
X14464924Y-6403043D01*
X14465035Y-6402979D01*
X14471666Y-6401647D01*
X14476641Y-6396828D01*
X14478224Y-6390066D01*
X14477978Y-6388526D01*
X14477976Y-6388477D01*
X14478025Y-6387922D01*
X14478140Y-6387758D01*
X14478339Y-6387776D01*
G37*
G36*
X14452338Y-6381442D02*
G01*
X14452320Y-6381589D01*
X14448973Y-6387719D01*
X14449467Y-6394628D01*
X14453618Y-6400173D01*
X14459940Y-6402588D01*
X14460424Y-6402630D01*
X14460588Y-6402745D01*
X14460571Y-6402944D01*
X14460446Y-6403025D01*
X14454295Y-6404249D01*
X14447856Y-6408551D01*
X14394144Y-6462264D01*
X14389841Y-6468702D01*
X14388868Y-6473597D01*
X14388736Y-6473748D01*
X14388540Y-6473709D01*
X14388475Y-6473598D01*
X14387180Y-6467153D01*
X14382361Y-6462178D01*
X14375617Y-6460599D01*
X14369370Y-6462761D01*
X14369174Y-6462723D01*
X14369109Y-6462534D01*
X14369194Y-6462406D01*
X14374486Y-6458869D01*
X14452004Y-6381352D01*
X14452197Y-6381300D01*
X14452338Y-6381442D01*
G37*
G36*
X14568141Y-6297973D02*
G01*
X14568223Y-6298098D01*
X14569446Y-6304249D01*
X14573749Y-6310688D01*
X14663523Y-6400462D01*
X14669962Y-6404765D01*
X14674374Y-6405642D01*
X14674524Y-6405774D01*
X14674485Y-6405970D01*
X14674374Y-6406035D01*
X14667742Y-6407367D01*
X14662768Y-6412186D01*
X14661184Y-6418948D01*
X14661431Y-6420488D01*
X14661432Y-6420537D01*
X14661384Y-6421092D01*
X14661269Y-6421256D01*
X14661070Y-6421238D01*
X14660988Y-6421113D01*
X14659765Y-6414962D01*
X14655462Y-6408523D01*
X14565688Y-6318749D01*
X14559249Y-6314446D01*
X14554838Y-6313569D01*
X14554687Y-6313437D01*
X14554726Y-6313241D01*
X14554837Y-6313177D01*
X14561469Y-6311844D01*
X14566443Y-6307025D01*
X14568027Y-6300263D01*
X14567781Y-6298724D01*
X14567779Y-6298675D01*
X14567828Y-6298120D01*
X14567942Y-6297956D01*
X14568141Y-6297973D01*
G37*
G36*
X15066487Y-6375916D02*
G01*
X15072666Y-6384420D01*
X15092241Y-6403995D01*
X15092293Y-6404189D01*
X15092151Y-6404330D01*
X15092004Y-6404312D01*
X15085874Y-6400965D01*
X15078966Y-6401459D01*
X15073421Y-6405610D01*
X15071000Y-6412102D01*
X15072143Y-6418236D01*
X15072807Y-6419647D01*
X15072790Y-6419846D01*
X15072609Y-6419931D01*
X15072464Y-6419850D01*
X15066188Y-6411211D01*
X15046677Y-6391701D01*
X15046625Y-6391507D01*
X15046767Y-6391366D01*
X15046914Y-6391384D01*
X15053045Y-6394731D01*
X15059953Y-6394237D01*
X15065497Y-6390086D01*
X15067919Y-6383594D01*
X15066776Y-6377460D01*
X15066145Y-6376119D01*
X15066161Y-6375919D01*
X15066342Y-6375834D01*
X15066487Y-6375916D01*
G37*
G36*
X14542141Y-6291639D02*
G01*
X14542123Y-6291787D01*
X14538776Y-6297917D01*
X14539270Y-6304825D01*
X14543421Y-6310370D01*
X14549742Y-6312785D01*
X14550227Y-6312827D01*
X14550391Y-6312942D01*
X14550373Y-6313141D01*
X14550248Y-6313223D01*
X14544097Y-6314446D01*
X14537658Y-6318749D01*
X14483946Y-6372461D01*
X14479644Y-6378900D01*
X14478333Y-6385490D01*
X14478201Y-6385640D01*
X14478005Y-6385601D01*
X14477941Y-6385490D01*
X14476777Y-6379700D01*
X14471958Y-6374726D01*
X14465215Y-6373146D01*
X14458668Y-6375471D01*
X14457188Y-6376732D01*
X14456991Y-6376768D01*
X14456862Y-6376616D01*
X14456917Y-6376439D01*
X14541806Y-6291549D01*
X14541999Y-6291498D01*
X14542141Y-6291639D01*
G37*
G36*
X14657944Y-6208171D02*
G01*
X14658026Y-6208295D01*
X14659249Y-6214446D01*
X14663551Y-6220885D01*
X14753326Y-6310660D01*
X14759765Y-6314962D01*
X14764176Y-6315840D01*
X14764327Y-6315972D01*
X14764288Y-6316168D01*
X14764177Y-6316232D01*
X14757545Y-6317565D01*
X14752570Y-6322384D01*
X14750987Y-6329146D01*
X14751233Y-6330685D01*
X14751235Y-6330734D01*
X14751186Y-6331289D01*
X14751071Y-6331453D01*
X14750872Y-6331436D01*
X14750791Y-6331311D01*
X14749567Y-6325160D01*
X14745265Y-6318721D01*
X14655490Y-6228946D01*
X14649051Y-6224644D01*
X14644640Y-6223766D01*
X14644490Y-6223635D01*
X14644529Y-6223438D01*
X14644640Y-6223374D01*
X14651271Y-6222041D01*
X14656246Y-6217222D01*
X14657830Y-6210460D01*
X14657583Y-6208921D01*
X14657582Y-6208872D01*
X14657630Y-6208317D01*
X14657745Y-6208153D01*
X14657944Y-6208171D01*
G37*
G36*
X15649153Y-6229237D02*
G01*
X15656573Y-6239450D01*
X15688370Y-6271247D01*
X15699090Y-6279035D01*
X15709644Y-6282464D01*
X15709778Y-6282613D01*
X15709716Y-6282803D01*
X15709562Y-6282853D01*
X15708162Y-6282706D01*
X15708109Y-6282693D01*
X15705248Y-6281561D01*
X15698321Y-6280926D01*
X15692178Y-6284123D01*
X15688737Y-6290134D01*
X15689095Y-6297075D01*
X15689566Y-6298227D01*
X15690203Y-6299581D01*
X15690219Y-6299633D01*
X15690646Y-6302155D01*
X15690576Y-6302342D01*
X15690379Y-6302375D01*
X15690258Y-6302250D01*
X15687424Y-6293525D01*
X15680095Y-6283439D01*
X15651834Y-6255177D01*
X15641747Y-6247849D01*
X15631846Y-6244632D01*
X15631713Y-6244483D01*
X15631774Y-6244293D01*
X15631929Y-6244243D01*
X15634718Y-6244536D01*
X15634720Y-6244519D01*
X15634837Y-6244357D01*
X15634937Y-6244341D01*
X15639526Y-6244761D01*
X15645670Y-6241565D01*
X15649110Y-6235554D01*
X15648792Y-6229365D01*
X15648883Y-6229187D01*
X15649083Y-6229177D01*
X15649153Y-6229237D01*
G37*
G36*
X14631943Y-6201836D02*
G01*
X14631926Y-6201984D01*
X14628578Y-6208114D01*
X14629072Y-6215022D01*
X14633223Y-6220568D01*
X14639545Y-6222983D01*
X14640029Y-6223025D01*
X14640193Y-6223140D01*
X14640176Y-6223339D01*
X14640051Y-6223420D01*
X14633900Y-6224644D01*
X14627461Y-6228946D01*
X14573749Y-6282658D01*
X14569446Y-6289097D01*
X14568136Y-6295687D01*
X14568004Y-6295838D01*
X14567808Y-6295799D01*
X14567743Y-6295688D01*
X14566580Y-6289897D01*
X14561761Y-6284923D01*
X14555018Y-6283344D01*
X14548470Y-6285668D01*
X14546991Y-6286930D01*
X14546794Y-6286966D01*
X14546664Y-6286814D01*
X14546719Y-6286636D01*
X14631609Y-6201747D01*
X14631802Y-6201695D01*
X14631943Y-6201836D01*
G37*
G36*
X14176470Y-6118084D02*
G01*
X14176534Y-6118195D01*
X14177698Y-6123985D01*
X14182517Y-6128959D01*
X14189260Y-6130539D01*
X14195807Y-6128214D01*
X14197287Y-6126953D01*
X14197483Y-6126917D01*
X14197613Y-6127069D01*
X14197558Y-6127246D01*
X14120211Y-6204594D01*
X14117565Y-6208553D01*
X14117386Y-6208641D01*
X14117220Y-6208530D01*
X14117201Y-6208412D01*
X14118242Y-6201558D01*
X14115415Y-6195236D01*
X14109618Y-6191445D01*
X14106692Y-6191398D01*
X14106520Y-6191296D01*
X14106496Y-6191181D01*
X14106507Y-6191055D01*
X14104248Y-6190857D01*
X14104084Y-6190743D01*
X14104102Y-6190544D01*
X14104226Y-6190462D01*
X14110377Y-6189239D01*
X14116816Y-6184936D01*
X14170528Y-6131224D01*
X14174831Y-6124785D01*
X14176142Y-6118195D01*
X14176274Y-6118045D01*
X14176470Y-6118084D01*
G37*
G36*
X14716860Y-6115550D02*
G01*
X14716879Y-6115668D01*
X14715838Y-6122522D01*
X14718665Y-6128844D01*
X14724462Y-6132635D01*
X14727388Y-6132682D01*
X14727559Y-6132784D01*
X14727584Y-6132899D01*
X14727573Y-6133025D01*
X14729832Y-6133222D01*
X14729996Y-6133337D01*
X14729978Y-6133536D01*
X14729853Y-6133618D01*
X14723702Y-6134841D01*
X14717264Y-6139144D01*
X14663551Y-6192856D01*
X14659249Y-6199295D01*
X14657938Y-6205885D01*
X14657806Y-6206035D01*
X14657610Y-6205996D01*
X14657546Y-6205885D01*
X14656382Y-6200095D01*
X14651563Y-6195120D01*
X14644820Y-6193541D01*
X14638273Y-6195865D01*
X14636793Y-6197127D01*
X14636597Y-6197163D01*
X14636467Y-6197011D01*
X14636522Y-6196833D01*
X14713869Y-6119486D01*
X14716515Y-6115527D01*
X14716694Y-6115439D01*
X14716860Y-6115550D01*
G37*
G36*
X15459755Y-6123903D02*
G01*
X15459806Y-6124055D01*
X15459189Y-6130779D01*
X15462386Y-6136923D01*
X15468398Y-6140363D01*
X15475326Y-6140006D01*
X15478691Y-6138130D01*
X15478891Y-6138133D01*
X15478988Y-6138307D01*
X15478906Y-6138466D01*
X15478853Y-6138504D01*
X15439985Y-6177373D01*
X15432656Y-6187459D01*
X15429439Y-6197360D01*
X15429291Y-6197494D01*
X15429100Y-6197432D01*
X15429050Y-6197278D01*
X15429185Y-6195993D01*
X15429198Y-6195940D01*
X15430748Y-6192026D01*
X15431382Y-6185100D01*
X15428185Y-6178956D01*
X15422174Y-6175516D01*
X15415251Y-6175872D01*
X15410590Y-6178802D01*
X15410390Y-6178810D01*
X15410283Y-6178640D01*
X15410342Y-6178492D01*
X15450514Y-6138320D01*
X15458187Y-6127758D01*
X15459416Y-6123975D01*
X15459565Y-6123841D01*
X15459755Y-6123903D01*
G37*
G36*
X15536156Y-6109811D02*
G01*
X15539183Y-6119129D01*
X15546972Y-6129848D01*
X15578769Y-6161645D01*
X15589422Y-6169385D01*
X15589503Y-6169568D01*
X15589385Y-6169729D01*
X15589286Y-6169746D01*
X15583362Y-6169203D01*
X15577218Y-6172400D01*
X15573774Y-6178419D01*
X15573610Y-6183335D01*
X15573973Y-6185482D01*
X15573903Y-6185669D01*
X15573706Y-6185703D01*
X15573586Y-6185577D01*
X15570751Y-6176853D01*
X15563423Y-6166766D01*
X15535161Y-6138505D01*
X15525075Y-6131176D01*
X15515174Y-6127959D01*
X15515040Y-6127811D01*
X15515102Y-6127620D01*
X15515256Y-6127570D01*
X15516541Y-6127705D01*
X15516594Y-6127718D01*
X15520528Y-6129276D01*
X15527455Y-6129910D01*
X15533598Y-6126714D01*
X15537039Y-6120702D01*
X15536681Y-6113761D01*
X15536245Y-6112695D01*
X15536233Y-6112653D01*
X15535768Y-6109906D01*
X15535838Y-6109718D01*
X15536035Y-6109685D01*
X15536156Y-6109811D01*
G37*
G36*
X14266272Y-6028281D02*
G01*
X14266337Y-6028392D01*
X14267500Y-6034182D01*
X14272319Y-6039157D01*
X14279062Y-6040736D01*
X14285610Y-6038412D01*
X14287089Y-6037150D01*
X14287286Y-6037114D01*
X14287416Y-6037266D01*
X14287360Y-6037444D01*
X14202471Y-6122333D01*
X14202278Y-6122385D01*
X14202137Y-6122243D01*
X14202154Y-6122096D01*
X14205502Y-6115966D01*
X14205008Y-6109057D01*
X14200856Y-6103512D01*
X14194535Y-6101097D01*
X14194051Y-6101055D01*
X14193887Y-6100940D01*
X14193904Y-6100741D01*
X14194029Y-6100660D01*
X14200180Y-6099436D01*
X14206619Y-6095134D01*
X14260331Y-6041421D01*
X14264633Y-6034983D01*
X14265944Y-6028393D01*
X14266076Y-6028242D01*
X14266272Y-6028281D01*
G37*
G36*
X14083208Y-5992644D02*
G01*
X14083289Y-5992769D01*
X14084513Y-5998920D01*
X14088815Y-6005359D01*
X14178590Y-6095134D01*
X14185028Y-6099436D01*
X14189440Y-6100313D01*
X14189590Y-6100445D01*
X14189551Y-6100642D01*
X14189440Y-6100706D01*
X14182808Y-6102038D01*
X14177834Y-6106857D01*
X14176250Y-6113619D01*
X14176497Y-6115159D01*
X14176498Y-6115208D01*
X14176450Y-6115763D01*
X14176335Y-6115927D01*
X14176136Y-6115909D01*
X14176054Y-6115785D01*
X14174831Y-6109634D01*
X14170528Y-6103195D01*
X14080754Y-6013420D01*
X14074315Y-6009118D01*
X14069904Y-6008240D01*
X14069753Y-6008108D01*
X14069792Y-6007912D01*
X14069903Y-6007848D01*
X14076535Y-6006515D01*
X14081509Y-6001696D01*
X14083093Y-5994934D01*
X14082847Y-5993395D01*
X14082845Y-5993346D01*
X14082894Y-5992791D01*
X14083008Y-5992627D01*
X14083208Y-5992644D01*
G37*
G36*
X14356075Y-5938479D02*
G01*
X14356139Y-5938590D01*
X14357303Y-5944380D01*
X14362122Y-5949354D01*
X14368865Y-5950934D01*
X14375412Y-5948609D01*
X14376892Y-5947348D01*
X14377088Y-5947311D01*
X14377218Y-5947464D01*
X14377163Y-5947641D01*
X14292274Y-6032531D01*
X14292081Y-6032582D01*
X14291939Y-6032441D01*
X14291957Y-6032293D01*
X14295304Y-6026163D01*
X14294810Y-6019255D01*
X14290659Y-6013710D01*
X14284338Y-6011295D01*
X14283853Y-6011252D01*
X14283689Y-6011138D01*
X14283707Y-6010939D01*
X14283831Y-6010857D01*
X14289983Y-6009633D01*
X14296421Y-6005331D01*
X14350134Y-5951619D01*
X14354436Y-5945180D01*
X14355747Y-5938590D01*
X14355879Y-5938440D01*
X14356075Y-5938479D01*
G37*
G36*
X14173010Y-5902842D02*
G01*
X14173092Y-5902967D01*
X14174315Y-5909118D01*
X14178618Y-5915557D01*
X14268392Y-6005331D01*
X14274831Y-6009633D01*
X14279242Y-6010511D01*
X14279393Y-6010643D01*
X14279354Y-6010839D01*
X14279243Y-6010903D01*
X14272611Y-6012236D01*
X14267637Y-6017055D01*
X14266053Y-6023817D01*
X14266299Y-6025356D01*
X14266301Y-6025405D01*
X14266252Y-6025960D01*
X14266138Y-6026124D01*
X14265938Y-6026107D01*
X14265857Y-6025982D01*
X14264633Y-6019831D01*
X14260331Y-6013392D01*
X14170557Y-5923618D01*
X14164118Y-5919315D01*
X14159706Y-5918438D01*
X14159556Y-5918306D01*
X14159595Y-5918110D01*
X14159706Y-5918045D01*
X14166338Y-5916713D01*
X14171312Y-5911894D01*
X14172896Y-5905132D01*
X14172649Y-5903592D01*
X14172648Y-5903543D01*
X14172696Y-5902988D01*
X14172811Y-5902824D01*
X14173010Y-5902842D01*
G37*
G36*
X15129873Y-5949376D02*
G01*
X15131054Y-5955836D01*
X15135785Y-5960893D01*
X15142500Y-5962590D01*
X15149079Y-5960383D01*
X15151839Y-5957732D01*
X15152931Y-5956293D01*
X15153115Y-5956216D01*
X15153275Y-5956337D01*
X15153252Y-5956532D01*
X15148813Y-5962641D01*
X15144784Y-5975041D01*
X15144784Y-5978149D01*
X15144684Y-5978322D01*
X15144484Y-5978322D01*
X15144387Y-5978185D01*
X15143206Y-5971725D01*
X15138474Y-5966667D01*
X15131760Y-5964970D01*
X15125181Y-5967177D01*
X15122421Y-5969829D01*
X15121330Y-5971266D01*
X15121146Y-5971344D01*
X15120986Y-5971223D01*
X15121009Y-5971028D01*
X15125447Y-5964919D01*
X15129476Y-5952519D01*
X15129476Y-5949412D01*
X15129576Y-5949239D01*
X15129776Y-5949239D01*
X15129873Y-5949376D01*
G37*
G36*
X14445540Y-5850371D02*
G01*
X14445605Y-5850482D01*
X14446900Y-5856927D01*
X14451719Y-5861901D01*
X14458463Y-5863481D01*
X14464710Y-5861319D01*
X14464906Y-5861357D01*
X14464971Y-5861546D01*
X14464886Y-5861674D01*
X14459594Y-5865211D01*
X14382076Y-5942728D01*
X14381883Y-5942780D01*
X14381742Y-5942638D01*
X14381759Y-5942491D01*
X14385107Y-5936361D01*
X14384613Y-5929452D01*
X14380462Y-5923907D01*
X14374140Y-5921492D01*
X14373656Y-5921450D01*
X14373492Y-5921335D01*
X14373509Y-5921136D01*
X14373634Y-5921054D01*
X14379785Y-5919831D01*
X14386224Y-5915528D01*
X14439936Y-5861816D01*
X14444239Y-5855377D01*
X14445212Y-5850482D01*
X14445344Y-5850332D01*
X14445540Y-5850371D01*
G37*
G36*
X14262813Y-5813039D02*
G01*
X14262894Y-5813164D01*
X14264118Y-5819315D01*
X14268420Y-5825754D01*
X14358195Y-5915528D01*
X14364634Y-5919831D01*
X14369045Y-5920708D01*
X14369195Y-5920840D01*
X14369156Y-5921036D01*
X14369045Y-5921101D01*
X14362414Y-5922433D01*
X14357439Y-5927252D01*
X14355855Y-5934014D01*
X14356102Y-5935554D01*
X14356103Y-5935603D01*
X14356055Y-5936158D01*
X14355940Y-5936322D01*
X14355741Y-5936304D01*
X14355659Y-5936179D01*
X14354436Y-5930028D01*
X14350134Y-5923590D01*
X14260359Y-5833815D01*
X14253920Y-5829513D01*
X14249509Y-5828635D01*
X14249358Y-5828503D01*
X14249397Y-5828307D01*
X14249508Y-5828243D01*
X14256140Y-5826910D01*
X14261115Y-5822091D01*
X14262698Y-5815329D01*
X14262452Y-5813790D01*
X14262450Y-5813741D01*
X14262499Y-5813186D01*
X14262614Y-5813022D01*
X14262813Y-5813039D01*
G37*
G36*
X13824224Y-5826961D02*
G01*
X13854978Y-5857715D01*
X13855030Y-5857908D01*
X13854889Y-5858049D01*
X13854716Y-5858016D01*
X13854297Y-5857697D01*
X13847796Y-5855223D01*
X13841019Y-5856650D01*
X13836089Y-5861515D01*
X13834572Y-5868270D01*
X13837298Y-5875242D01*
X13837459Y-5875440D01*
X13837490Y-5875638D01*
X13837335Y-5875764D01*
X13837162Y-5875708D01*
X13807292Y-5845837D01*
X13807240Y-5845644D01*
X13807381Y-5845503D01*
X13807554Y-5845537D01*
X13807747Y-5845683D01*
X13814248Y-5848157D01*
X13821025Y-5846730D01*
X13825955Y-5841865D01*
X13827472Y-5835108D01*
X13825087Y-5828582D01*
X13824014Y-5827335D01*
X13824011Y-5827331D01*
X13823928Y-5827228D01*
X13823896Y-5827031D01*
X13824052Y-5826905D01*
X13824224Y-5826961D01*
G37*
G36*
X14103158Y-5534507D02*
G01*
X14109336Y-5543011D01*
X14140250Y-5573924D01*
X14143775Y-5576485D01*
X14143856Y-5576668D01*
X14143739Y-5576830D01*
X14143586Y-5576834D01*
X14137139Y-5574380D01*
X14130361Y-5575807D01*
X14125431Y-5580672D01*
X14123915Y-5587427D01*
X14126112Y-5593047D01*
X14126088Y-5593208D01*
X14126602Y-5594301D01*
X14126607Y-5594314D01*
X14126641Y-5594399D01*
X14126643Y-5594401D01*
X14126668Y-5594442D01*
X14127545Y-5596305D01*
X14127528Y-5596504D01*
X14127347Y-5596590D01*
X14127202Y-5596508D01*
X14120926Y-5587869D01*
X14089129Y-5556072D01*
X14086080Y-5553858D01*
X14085999Y-5553675D01*
X14086117Y-5553513D01*
X14086269Y-5553509D01*
X14092676Y-5555947D01*
X14099453Y-5554520D01*
X14104383Y-5549655D01*
X14105900Y-5542900D01*
X14104001Y-5538044D01*
X14104031Y-5537846D01*
X14104102Y-5537790D01*
X14104235Y-5537728D01*
X14102815Y-5534709D01*
X14102832Y-5534510D01*
X14103013Y-5534425D01*
X14103158Y-5534507D01*
G37*
G36*
X13586728Y-4732058D02*
G01*
X13586783Y-4732203D01*
X13586760Y-4732783D01*
X13586760Y-4827765D01*
X13588567Y-4839783D01*
X13588494Y-4839970D01*
X13588296Y-4839999D01*
X13588184Y-4839890D01*
X13587460Y-4838140D01*
X13587306Y-4838203D01*
X13587108Y-4838177D01*
X13587047Y-4838100D01*
X13585341Y-4834242D01*
X13579560Y-4830428D01*
X13572635Y-4830345D01*
X13566755Y-4834025D01*
X13564786Y-4837342D01*
X13564611Y-4837440D01*
X13564439Y-4837338D01*
X13564416Y-4837209D01*
X13566190Y-4826010D01*
X13566190Y-4749791D01*
X13564148Y-4736898D01*
X13563270Y-4735175D01*
X13563280Y-4734975D01*
X13563459Y-4734884D01*
X13563602Y-4734956D01*
X13567629Y-4739796D01*
X13574234Y-4741880D01*
X13580917Y-4740062D01*
X13585565Y-4734909D01*
X13586391Y-4732138D01*
X13586537Y-4732001D01*
X13586728Y-4732058D01*
G37*
M02*
