%TF.GenerationSoftware,KiCad,Pcbnew,6.0.4-6f826c9f35~116~ubuntu20.04.1*%
%TF.CreationDate,2022-04-04T13:34:39+00:00*%
%TF.ProjectId,QFHMIX01D,5146484d-4958-4303-9144-2e6b69636164,REV 0.2*%
%TF.SameCoordinates,Original*%
%TF.FileFunction,Legend,Bot*%
%TF.FilePolarity,Positive*%
%FSLAX46Y46*%
G04 Gerber Fmt 4.6, Leading zero omitted, Abs format (unit mm)*
G04 Created by KiCad (PCBNEW 6.0.4-6f826c9f35~116~ubuntu20.04.1) date 2022-04-04 13:34:39*
%MOMM*%
%LPD*%
G01*
G04 APERTURE LIST*
%ADD10C,0.150000*%
%ADD11C,0.304800*%
%ADD12C,0.120000*%
%ADD13C,0.200000*%
%ADD14C,0.500000*%
%ADD15C,0.100000*%
G04 APERTURE END LIST*
D10*
%TO.C,C2*%
X128950026Y-70548324D02*
X129017369Y-70548324D01*
X129152056Y-70480980D01*
X129219400Y-70413637D01*
X129286743Y-70278949D01*
X129286743Y-70144262D01*
X129253072Y-70043247D01*
X129152056Y-69874888D01*
X129051041Y-69773873D01*
X128882682Y-69672858D01*
X128781667Y-69639186D01*
X128646980Y-69639186D01*
X128512293Y-69706530D01*
X128444949Y-69773873D01*
X128377606Y-69908560D01*
X128377606Y-69975904D01*
X128108232Y-70245278D02*
X128040888Y-70245278D01*
X127939873Y-70278949D01*
X127771514Y-70447308D01*
X127737843Y-70548324D01*
X127737843Y-70615667D01*
X127771514Y-70716682D01*
X127838858Y-70784026D01*
X127973545Y-70851369D01*
X128781667Y-70851369D01*
X128343934Y-71289102D01*
%TO.C,C5*%
X133514924Y-83292373D02*
X133514924Y-83225030D01*
X133447580Y-83090343D01*
X133380237Y-83022999D01*
X133245549Y-82955656D01*
X133110862Y-82955656D01*
X133009847Y-82989327D01*
X132841488Y-83090343D01*
X132740473Y-83191358D01*
X132639458Y-83359717D01*
X132605786Y-83460732D01*
X132605786Y-83595419D01*
X132673130Y-83730106D01*
X132740473Y-83797450D01*
X132875160Y-83864793D01*
X132942504Y-83864793D01*
X133514924Y-84571900D02*
X133178206Y-84235182D01*
X133481252Y-83864793D01*
X133481252Y-83932137D01*
X133514924Y-84033152D01*
X133683282Y-84201511D01*
X133784298Y-84235182D01*
X133851641Y-84235182D01*
X133952656Y-84201511D01*
X134121015Y-84033152D01*
X134154687Y-83932137D01*
X134154687Y-83864793D01*
X134121015Y-83763778D01*
X133952656Y-83595419D01*
X133851641Y-83561747D01*
X133784298Y-83561747D01*
%TO.C,C23*%
X124748338Y-106078127D02*
X124748338Y-106010783D01*
X124680994Y-105876096D01*
X124613651Y-105808753D01*
X124478964Y-105741409D01*
X124344277Y-105741409D01*
X124243262Y-105775081D01*
X124074903Y-105876096D01*
X123973888Y-105977111D01*
X123872872Y-106145470D01*
X123839201Y-106246485D01*
X123839201Y-106381172D01*
X123906544Y-106515859D01*
X123973888Y-106583203D01*
X124108575Y-106650546D01*
X124175918Y-106650546D01*
X124445292Y-106919921D02*
X124445292Y-106987264D01*
X124478964Y-107088279D01*
X124647323Y-107256638D01*
X124748338Y-107290310D01*
X124815681Y-107290310D01*
X124916697Y-107256638D01*
X124984040Y-107189295D01*
X125051384Y-107054608D01*
X125051384Y-106246485D01*
X125489117Y-106684218D01*
X125017712Y-107627027D02*
X125455445Y-108064760D01*
X125489117Y-107559684D01*
X125590132Y-107660699D01*
X125691147Y-107694371D01*
X125758491Y-107694371D01*
X125859506Y-107660699D01*
X126027865Y-107492340D01*
X126061536Y-107391325D01*
X126061536Y-107323982D01*
X126027865Y-107222966D01*
X125825834Y-107020936D01*
X125724819Y-106987264D01*
X125657475Y-106987264D01*
%TO.C,L13*%
X136368728Y-95614733D02*
X136032011Y-95278016D01*
X135324904Y-95985122D01*
X136974820Y-96220825D02*
X136570759Y-95816764D01*
X136772790Y-96018794D02*
X136065683Y-96725901D01*
X136099354Y-96557542D01*
X136099354Y-96422855D01*
X136065683Y-96321840D01*
X136503416Y-97163634D02*
X136941148Y-97601367D01*
X136974820Y-97096290D01*
X137075835Y-97197306D01*
X137176851Y-97230977D01*
X137244194Y-97230977D01*
X137345209Y-97197306D01*
X137513568Y-97028947D01*
X137547240Y-96927932D01*
X137547240Y-96860588D01*
X137513568Y-96759573D01*
X137311538Y-96557542D01*
X137210522Y-96523871D01*
X137143179Y-96523871D01*
%TO.C,L63*%
X155692866Y-80945928D02*
X156029583Y-80609211D01*
X155322477Y-79902104D01*
X154447011Y-80777570D02*
X154581698Y-80642883D01*
X154682713Y-80609211D01*
X154750057Y-80609211D01*
X154918416Y-80642883D01*
X155086774Y-80743898D01*
X155356148Y-81013272D01*
X155389820Y-81114287D01*
X155389820Y-81181631D01*
X155356148Y-81282646D01*
X155221461Y-81417333D01*
X155120446Y-81451005D01*
X155053103Y-81451005D01*
X154952087Y-81417333D01*
X154783728Y-81248974D01*
X154750057Y-81147959D01*
X154750057Y-81080616D01*
X154783728Y-80979600D01*
X154918416Y-80844913D01*
X155019431Y-80811241D01*
X155086774Y-80811241D01*
X155187790Y-80844913D01*
X154143965Y-81080616D02*
X153706232Y-81518348D01*
X154211309Y-81552020D01*
X154110293Y-81653035D01*
X154076622Y-81754051D01*
X154076622Y-81821394D01*
X154110293Y-81922409D01*
X154278652Y-82090768D01*
X154379667Y-82124440D01*
X154447011Y-82124440D01*
X154548026Y-82090768D01*
X154750057Y-81888738D01*
X154783728Y-81787722D01*
X154783728Y-81720379D01*
%TO.C,L24*%
X181575466Y-92071128D02*
X181912183Y-91734411D01*
X181205077Y-91027304D01*
X180733672Y-91633396D02*
X180666328Y-91633396D01*
X180565313Y-91667067D01*
X180396954Y-91835426D01*
X180363283Y-91936441D01*
X180363283Y-92003785D01*
X180396954Y-92104800D01*
X180464298Y-92172144D01*
X180598985Y-92239487D01*
X181407107Y-92239487D01*
X180969374Y-92677220D01*
X179891878Y-92811907D02*
X180363283Y-93283312D01*
X179790863Y-92374174D02*
X180464298Y-92710892D01*
X180026565Y-93148625D01*
%TO.C,L25*%
X180804027Y-85414632D02*
X180467310Y-85077915D01*
X179760203Y-85785021D01*
X180366295Y-86256426D02*
X180366295Y-86323770D01*
X180399966Y-86424785D01*
X180568325Y-86593144D01*
X180669340Y-86626815D01*
X180736684Y-86626815D01*
X180837699Y-86593144D01*
X180905043Y-86525800D01*
X180972386Y-86391113D01*
X180972386Y-85582991D01*
X181410119Y-86020724D01*
X181342776Y-87367594D02*
X181006058Y-87030876D01*
X181309104Y-86660487D01*
X181309104Y-86727831D01*
X181342776Y-86828846D01*
X181511134Y-86997205D01*
X181612150Y-87030876D01*
X181679493Y-87030876D01*
X181780508Y-86997205D01*
X181948867Y-86828846D01*
X181982539Y-86727831D01*
X181982539Y-86660487D01*
X181948867Y-86559472D01*
X181780508Y-86391113D01*
X181679493Y-86357441D01*
X181612150Y-86357441D01*
%TO.C,R25*%
X138193287Y-103502149D02*
X138092272Y-102929730D01*
X138597348Y-103098088D02*
X137890241Y-102390982D01*
X137620867Y-102660356D01*
X137587195Y-102761371D01*
X137587195Y-102828714D01*
X137620867Y-102929730D01*
X137721882Y-103030745D01*
X137822898Y-103064417D01*
X137890241Y-103064417D01*
X137991256Y-103030745D01*
X138260630Y-102761371D01*
X137284149Y-103131760D02*
X137216806Y-103131760D01*
X137115791Y-103165432D01*
X136947432Y-103333791D01*
X136913760Y-103434806D01*
X136913760Y-103502149D01*
X136947432Y-103603165D01*
X137014775Y-103670508D01*
X137149462Y-103737852D01*
X137957585Y-103737852D01*
X137519852Y-104175585D01*
X136172982Y-104108241D02*
X136509699Y-103771524D01*
X136880088Y-104074569D01*
X136812745Y-104074569D01*
X136711730Y-104108241D01*
X136543371Y-104276600D01*
X136509699Y-104377615D01*
X136509699Y-104444959D01*
X136543371Y-104545974D01*
X136711730Y-104714333D01*
X136812745Y-104748004D01*
X136880088Y-104748004D01*
X136981104Y-104714333D01*
X137149462Y-104545974D01*
X137183134Y-104444959D01*
X137183134Y-104377615D01*
%TO.C,C56*%
X174605606Y-91896456D02*
X174605606Y-91829112D01*
X174538262Y-91694425D01*
X174470919Y-91627082D01*
X174336232Y-91559738D01*
X174201545Y-91559738D01*
X174100530Y-91593410D01*
X173932171Y-91694425D01*
X173831156Y-91795440D01*
X173730140Y-91963799D01*
X173696469Y-92064814D01*
X173696469Y-92199501D01*
X173763812Y-92334188D01*
X173831156Y-92401532D01*
X173965843Y-92468875D01*
X174033186Y-92468875D01*
X174605606Y-93175982D02*
X174268888Y-92839265D01*
X174571934Y-92468875D01*
X174571934Y-92536219D01*
X174605606Y-92637234D01*
X174773965Y-92805593D01*
X174874980Y-92839265D01*
X174942324Y-92839265D01*
X175043339Y-92805593D01*
X175211698Y-92637234D01*
X175245369Y-92536219D01*
X175245369Y-92468875D01*
X175211698Y-92367860D01*
X175043339Y-92199501D01*
X174942324Y-92165830D01*
X174874980Y-92165830D01*
X175245369Y-93815746D02*
X175110682Y-93681059D01*
X175077011Y-93580043D01*
X175077011Y-93512700D01*
X175110682Y-93344341D01*
X175211698Y-93175982D01*
X175481072Y-92906608D01*
X175582087Y-92872937D01*
X175649430Y-92872937D01*
X175750446Y-92906608D01*
X175885133Y-93041295D01*
X175918804Y-93142311D01*
X175918804Y-93209654D01*
X175885133Y-93310669D01*
X175716774Y-93479028D01*
X175615759Y-93512700D01*
X175548415Y-93512700D01*
X175447400Y-93479028D01*
X175312713Y-93344341D01*
X175279041Y-93243326D01*
X175279041Y-93175982D01*
X175312713Y-93074967D01*
%TO.C,L32*%
X167425296Y-88078565D02*
X167088579Y-87741848D01*
X166381472Y-88448954D01*
X166886548Y-88954031D02*
X167324281Y-89391764D01*
X167357953Y-88886687D01*
X167458968Y-88987703D01*
X167559984Y-89021374D01*
X167627327Y-89021374D01*
X167728342Y-88987703D01*
X167896701Y-88819344D01*
X167930373Y-88718328D01*
X167930373Y-88650985D01*
X167896701Y-88549970D01*
X167694671Y-88347939D01*
X167593655Y-88314267D01*
X167526312Y-88314267D01*
X167660999Y-89593794D02*
X167660999Y-89661138D01*
X167694671Y-89762153D01*
X167863029Y-89930512D01*
X167964045Y-89964183D01*
X168031388Y-89964183D01*
X168132403Y-89930512D01*
X168199747Y-89863168D01*
X168267090Y-89728481D01*
X168267090Y-88920359D01*
X168704823Y-89358092D01*
%TO.C,R24*%
X128134887Y-93342149D02*
X128033872Y-92769730D01*
X128538948Y-92938088D02*
X127831841Y-92230982D01*
X127562467Y-92500356D01*
X127528795Y-92601371D01*
X127528795Y-92668714D01*
X127562467Y-92769730D01*
X127663482Y-92870745D01*
X127764498Y-92904417D01*
X127831841Y-92904417D01*
X127932856Y-92870745D01*
X128202230Y-92601371D01*
X127225749Y-92971760D02*
X127158406Y-92971760D01*
X127057391Y-93005432D01*
X126889032Y-93173791D01*
X126855360Y-93274806D01*
X126855360Y-93342149D01*
X126889032Y-93443165D01*
X126956375Y-93510508D01*
X127091062Y-93577852D01*
X127899185Y-93577852D01*
X127461452Y-94015585D01*
X126383956Y-94150272D02*
X126855360Y-94621676D01*
X126282940Y-93712539D02*
X126956375Y-94049256D01*
X126518643Y-94486989D01*
%TO.C,U3*%
X146510963Y-99426709D02*
X147083383Y-99999129D01*
X147117055Y-100100144D01*
X147117055Y-100167488D01*
X147083383Y-100268503D01*
X146948696Y-100403190D01*
X146847681Y-100436862D01*
X146780337Y-100436862D01*
X146679322Y-100403190D01*
X146106902Y-99830770D01*
X145837528Y-100100144D02*
X145399796Y-100537877D01*
X145904872Y-100571549D01*
X145803857Y-100672564D01*
X145770185Y-100773579D01*
X145770185Y-100840923D01*
X145803857Y-100941938D01*
X145972215Y-101110297D01*
X146073231Y-101143969D01*
X146140574Y-101143969D01*
X146241589Y-101110297D01*
X146443620Y-100908266D01*
X146477292Y-100807251D01*
X146477292Y-100739908D01*
%TO.C,L61*%
X157933328Y-64931533D02*
X157596611Y-64594816D01*
X156889504Y-65301922D01*
X157764970Y-66177388D02*
X157630283Y-66042701D01*
X157596611Y-65941686D01*
X157596611Y-65874342D01*
X157630283Y-65705984D01*
X157731298Y-65537625D01*
X158000672Y-65268251D01*
X158101687Y-65234579D01*
X158169031Y-65234579D01*
X158270046Y-65268251D01*
X158404733Y-65402938D01*
X158438405Y-65503953D01*
X158438405Y-65571296D01*
X158404733Y-65672312D01*
X158236374Y-65840671D01*
X158135359Y-65874342D01*
X158068016Y-65874342D01*
X157967000Y-65840671D01*
X157832313Y-65705984D01*
X157798641Y-65604968D01*
X157798641Y-65537625D01*
X157832313Y-65436609D01*
X159212855Y-66211060D02*
X158808794Y-65806999D01*
X159010825Y-66009029D02*
X158303718Y-66716136D01*
X158337390Y-66547777D01*
X158337390Y-66413090D01*
X158303718Y-66312075D01*
%TO.C,C69*%
X143609542Y-118203742D02*
X143657161Y-118156123D01*
X143704780Y-118013266D01*
X143704780Y-117918028D01*
X143657161Y-117775171D01*
X143561923Y-117679933D01*
X143466685Y-117632314D01*
X143276209Y-117584695D01*
X143133352Y-117584695D01*
X142942876Y-117632314D01*
X142847638Y-117679933D01*
X142752400Y-117775171D01*
X142704780Y-117918028D01*
X142704780Y-118013266D01*
X142752400Y-118156123D01*
X142800019Y-118203742D01*
X142704780Y-119060885D02*
X142704780Y-118870409D01*
X142752400Y-118775171D01*
X142800019Y-118727552D01*
X142942876Y-118632314D01*
X143133352Y-118584695D01*
X143514304Y-118584695D01*
X143609542Y-118632314D01*
X143657161Y-118679933D01*
X143704780Y-118775171D01*
X143704780Y-118965647D01*
X143657161Y-119060885D01*
X143609542Y-119108504D01*
X143514304Y-119156123D01*
X143276209Y-119156123D01*
X143180971Y-119108504D01*
X143133352Y-119060885D01*
X143085733Y-118965647D01*
X143085733Y-118775171D01*
X143133352Y-118679933D01*
X143180971Y-118632314D01*
X143276209Y-118584695D01*
X143704780Y-119632314D02*
X143704780Y-119822790D01*
X143657161Y-119918028D01*
X143609542Y-119965647D01*
X143466685Y-120060885D01*
X143276209Y-120108504D01*
X142895257Y-120108504D01*
X142800019Y-120060885D01*
X142752400Y-120013266D01*
X142704780Y-119918028D01*
X142704780Y-119727552D01*
X142752400Y-119632314D01*
X142800019Y-119584695D01*
X142895257Y-119537076D01*
X143133352Y-119537076D01*
X143228590Y-119584695D01*
X143276209Y-119632314D01*
X143323828Y-119727552D01*
X143323828Y-119918028D01*
X143276209Y-120013266D01*
X143228590Y-120060885D01*
X143133352Y-120108504D01*
%TO.C,C72*%
X176246932Y-109305130D02*
X176246932Y-109237786D01*
X176179588Y-109103099D01*
X176112245Y-109035756D01*
X175977558Y-108968412D01*
X175842871Y-108968412D01*
X175741856Y-109002084D01*
X175573497Y-109103099D01*
X175472482Y-109204114D01*
X175371466Y-109372473D01*
X175337795Y-109473488D01*
X175337795Y-109608175D01*
X175405138Y-109742862D01*
X175472482Y-109810206D01*
X175607169Y-109877549D01*
X175674512Y-109877549D01*
X175842871Y-110180595D02*
X176314275Y-110652000D01*
X176718337Y-109641847D01*
X176617321Y-110820359D02*
X176617321Y-110887702D01*
X176650993Y-110988717D01*
X176819352Y-111157076D01*
X176920367Y-111190748D01*
X176987711Y-111190748D01*
X177088726Y-111157076D01*
X177156069Y-111089733D01*
X177223413Y-110955046D01*
X177223413Y-110146924D01*
X177661146Y-110584656D01*
%TO.C,C51*%
X173777869Y-89709132D02*
X173845213Y-89709132D01*
X173979900Y-89641788D01*
X174047243Y-89574445D01*
X174114587Y-89439758D01*
X174114587Y-89305071D01*
X174080915Y-89204056D01*
X173979900Y-89035697D01*
X173878885Y-88934682D01*
X173710526Y-88833666D01*
X173609511Y-88799995D01*
X173474824Y-88799995D01*
X173340137Y-88867338D01*
X173272793Y-88934682D01*
X173205450Y-89069369D01*
X173205450Y-89136712D01*
X172498343Y-89709132D02*
X172835060Y-89372414D01*
X173205450Y-89675460D01*
X173138106Y-89675460D01*
X173037091Y-89709132D01*
X172868732Y-89877491D01*
X172835060Y-89978506D01*
X172835060Y-90045850D01*
X172868732Y-90146865D01*
X173037091Y-90315224D01*
X173138106Y-90348895D01*
X173205450Y-90348895D01*
X173306465Y-90315224D01*
X173474824Y-90146865D01*
X173508495Y-90045850D01*
X173508495Y-89978506D01*
X172498343Y-91123346D02*
X172902404Y-90719285D01*
X172700373Y-90921315D02*
X171993266Y-90214208D01*
X172161625Y-90247880D01*
X172296312Y-90247880D01*
X172397327Y-90214208D01*
%TO.C,L31*%
X174062328Y-81644733D02*
X173725611Y-81308016D01*
X173018504Y-82015122D01*
X173523580Y-82520199D02*
X173961313Y-82957932D01*
X173994985Y-82452855D01*
X174096000Y-82553871D01*
X174197016Y-82587542D01*
X174264359Y-82587542D01*
X174365374Y-82553871D01*
X174533733Y-82385512D01*
X174567405Y-82284496D01*
X174567405Y-82217153D01*
X174533733Y-82116138D01*
X174331703Y-81914107D01*
X174230687Y-81880435D01*
X174163344Y-81880435D01*
X175341855Y-82924260D02*
X174937794Y-82520199D01*
X175139825Y-82722229D02*
X174432718Y-83429336D01*
X174466390Y-83260977D01*
X174466390Y-83126290D01*
X174432718Y-83025275D01*
%TO.C,U12*%
X122505554Y-77913204D02*
X123077974Y-77340784D01*
X123178989Y-77307113D01*
X123246332Y-77307113D01*
X123347348Y-77340784D01*
X123482035Y-77475471D01*
X123515706Y-77576487D01*
X123515706Y-77643830D01*
X123482035Y-77744845D01*
X122909615Y-78317265D01*
X124323828Y-78317265D02*
X123919767Y-77913204D01*
X124121798Y-78115235D02*
X123414691Y-78822341D01*
X123448363Y-78653983D01*
X123448363Y-78519296D01*
X123414691Y-78418280D01*
X123953439Y-79226402D02*
X123953439Y-79293746D01*
X123987111Y-79394761D01*
X124155470Y-79563120D01*
X124256485Y-79596792D01*
X124323828Y-79596792D01*
X124424844Y-79563120D01*
X124492187Y-79495776D01*
X124559531Y-79361089D01*
X124559531Y-78552967D01*
X124997263Y-78990700D01*
%TO.C,R48*%
X175298275Y-104716586D02*
X174725856Y-104817601D01*
X174894214Y-104312525D02*
X174187108Y-105019632D01*
X174456482Y-105289006D01*
X174557497Y-105322678D01*
X174624840Y-105322678D01*
X174725856Y-105289006D01*
X174826871Y-105187991D01*
X174860543Y-105086975D01*
X174860543Y-105019632D01*
X174826871Y-104918617D01*
X174557497Y-104649243D01*
X175432963Y-105794082D02*
X175904367Y-105322678D01*
X174995230Y-105895098D02*
X175331947Y-105221662D01*
X175769680Y-105659395D01*
X175971711Y-106198143D02*
X175870695Y-106164472D01*
X175803352Y-106164472D01*
X175702337Y-106198143D01*
X175668665Y-106231815D01*
X175634993Y-106332830D01*
X175634993Y-106400174D01*
X175668665Y-106501189D01*
X175803352Y-106635876D01*
X175904367Y-106669548D01*
X175971711Y-106669548D01*
X176072726Y-106635876D01*
X176106398Y-106602204D01*
X176140069Y-106501189D01*
X176140069Y-106433846D01*
X176106398Y-106332830D01*
X175971711Y-106198143D01*
X175938039Y-106097128D01*
X175938039Y-106029785D01*
X175971711Y-105928769D01*
X176106398Y-105794082D01*
X176207413Y-105760411D01*
X176274756Y-105760411D01*
X176375772Y-105794082D01*
X176510459Y-105928769D01*
X176544130Y-106029785D01*
X176544130Y-106097128D01*
X176510459Y-106198143D01*
X176375772Y-106332830D01*
X176274756Y-106366502D01*
X176207413Y-106366502D01*
X176106398Y-106332830D01*
%TO.C,U5*%
X129439221Y-106458781D02*
X129897157Y-106000845D01*
X129977969Y-105973908D01*
X130031844Y-105973908D01*
X130112656Y-106000845D01*
X130220406Y-106108595D01*
X130247343Y-106189407D01*
X130247343Y-106243282D01*
X130220406Y-106324094D01*
X129762470Y-106782030D01*
X130301218Y-107320778D02*
X130031844Y-107051404D01*
X130274280Y-106755093D01*
X130274280Y-106808967D01*
X130301218Y-106889780D01*
X130435905Y-107024467D01*
X130516717Y-107051404D01*
X130570592Y-107051404D01*
X130651404Y-107024467D01*
X130786091Y-106889780D01*
X130813028Y-106808967D01*
X130813028Y-106755093D01*
X130786091Y-106674280D01*
X130651404Y-106539593D01*
X130570592Y-106512656D01*
X130516717Y-106512656D01*
%TO.C,L35*%
X169350434Y-81370096D02*
X169687151Y-81033379D01*
X168980045Y-80326272D01*
X168474968Y-80831348D02*
X168037235Y-81269081D01*
X168542312Y-81302753D01*
X168441296Y-81403768D01*
X168407625Y-81504784D01*
X168407625Y-81572127D01*
X168441296Y-81673142D01*
X168609655Y-81841501D01*
X168710671Y-81875173D01*
X168778014Y-81875173D01*
X168879029Y-81841501D01*
X169081060Y-81639471D01*
X169114732Y-81538455D01*
X169114732Y-81471112D01*
X167397472Y-81908845D02*
X167734190Y-81572127D01*
X168104579Y-81875173D01*
X168037235Y-81875173D01*
X167936220Y-81908845D01*
X167767861Y-82077203D01*
X167734190Y-82178219D01*
X167734190Y-82245562D01*
X167767861Y-82346577D01*
X167936220Y-82514936D01*
X168037235Y-82548608D01*
X168104579Y-82548608D01*
X168205594Y-82514936D01*
X168373953Y-82346577D01*
X168407625Y-82245562D01*
X168407625Y-82178219D01*
D11*
%TO.C,C78*%
X162452507Y-104680839D02*
X161631455Y-105501891D01*
X162452507Y-105501891D02*
X161631455Y-104680839D01*
D12*
%TO.C,R8*%
X130325897Y-82045830D02*
X130661430Y-81710297D01*
X129586970Y-81306903D02*
X129922503Y-80971370D01*
%TO.C,R5*%
X128324630Y-83894697D02*
X127989097Y-84230230D01*
X127585703Y-83155770D02*
X127250170Y-83491303D01*
%TO.C,C20*%
X132434684Y-98121464D02*
X132633495Y-97922653D01*
X133155933Y-98842713D02*
X133354744Y-98643902D01*
%TO.C,C19*%
X131719093Y-97405872D02*
X131917904Y-97207061D01*
X130997844Y-96684623D02*
X131196655Y-96485812D01*
%TO.C,D1*%
X127758400Y-131977400D02*
X122358400Y-131977400D01*
X127758400Y-128677400D02*
X122358400Y-128677400D01*
X127758400Y-128677400D02*
X127758400Y-131977400D01*
%TO.C,C7*%
X130003427Y-84950801D02*
X130202238Y-85149612D01*
X129282178Y-85672050D02*
X129480989Y-85870861D01*
%TO.C,C1*%
X130421781Y-72031570D02*
X130222970Y-72230381D01*
X131143030Y-72752819D02*
X130944219Y-72951630D01*
%TO.C,C6*%
X130425178Y-84656050D02*
X130623989Y-84854861D01*
X131146427Y-83934801D02*
X131345238Y-84133612D01*
%TO.C,C2*%
X130050830Y-71686019D02*
X129852019Y-71884830D01*
X129329581Y-70964770D02*
X129130770Y-71163581D01*
%TO.C,R11*%
X130329740Y-78262067D02*
X129994207Y-77926534D01*
X131068667Y-77523140D02*
X130733134Y-77187607D01*
%TO.C,R7*%
X131720570Y-81408503D02*
X132056103Y-81072970D01*
X132459497Y-82147430D02*
X132795030Y-81811897D01*
%TO.C,R4*%
X134215103Y-78913970D02*
X133879570Y-79249503D01*
X134954030Y-79652897D02*
X134618497Y-79988430D01*
%TO.C,C27*%
X140034990Y-120961543D02*
X140404457Y-121331010D01*
X138995543Y-122000990D02*
X139365010Y-122370457D01*
%TO.C,C22*%
X143136219Y-109172030D02*
X143335030Y-108973219D01*
X142414970Y-108450781D02*
X142613781Y-108251970D01*
%TO.C,C21*%
X141864659Y-107574068D02*
X142063470Y-107375257D01*
X141143410Y-106852819D02*
X141342221Y-106654008D01*
%TO.C,R33*%
X127905399Y-115560964D02*
X128240932Y-115225431D01*
X127166472Y-114822037D02*
X127502005Y-114486504D01*
%TO.C,R28*%
X130581940Y-101434384D02*
X130917473Y-101098851D01*
X129843013Y-100695457D02*
X130178546Y-100359924D01*
%TO.C,R32*%
X125211322Y-112795047D02*
X125546855Y-112459514D01*
X124472395Y-112056120D02*
X124807928Y-111720587D01*
%TO.C,R31*%
X124043888Y-111627613D02*
X124379421Y-111292080D01*
X123304961Y-110888686D02*
X123640494Y-110553153D01*
%TO.C,R27*%
X128406173Y-99258616D02*
X128741706Y-98923083D01*
X129145100Y-99997543D02*
X129480633Y-99662010D01*
%TO.C,R30*%
X140738822Y-111591266D02*
X141074355Y-111255733D01*
X139999895Y-110852339D02*
X140335428Y-110516806D01*
%TO.C,R34*%
X128333905Y-115989472D02*
X128669438Y-115653939D01*
X129072832Y-116728399D02*
X129408365Y-116392866D01*
%TO.C,C5*%
X133931370Y-82912819D02*
X134130181Y-83111630D01*
X134652619Y-82191570D02*
X134851430Y-82390381D01*
%TO.C,C4*%
X135708627Y-81139378D02*
X135907438Y-81338189D01*
X134987378Y-81860627D02*
X135186189Y-82059438D01*
%TO.C,C28*%
X140687770Y-120403219D02*
X140886581Y-120602030D01*
X141409019Y-119681970D02*
X141607830Y-119880781D01*
%TO.C,C17*%
X130766419Y-92839830D02*
X130965230Y-92641019D01*
X130045170Y-92118581D02*
X130243981Y-91919770D01*
%TO.C,C18*%
X137080970Y-99332181D02*
X137279781Y-99133370D01*
X137802219Y-100053430D02*
X138001030Y-99854619D01*
%TO.C,C25*%
X132557863Y-115854112D02*
X132756674Y-116052923D01*
X133279112Y-115132863D02*
X133477923Y-115331674D01*
%TO.C,C26*%
X125722781Y-113052570D02*
X125523970Y-113251381D01*
X126444030Y-113773819D02*
X126245219Y-113972630D01*
%TO.C,C23*%
X125501502Y-106035290D02*
X125700313Y-106234101D01*
X126222751Y-105314041D02*
X126421562Y-105512852D01*
%TO.C,C12*%
X138244238Y-87078589D02*
X138045427Y-86879778D01*
X137522989Y-87799838D02*
X137324178Y-87601027D01*
%TO.C,C24*%
X134032863Y-114404112D02*
X134231674Y-114602923D01*
X134754112Y-113682863D02*
X134952923Y-113881674D01*
%TO.C,C3*%
X126118219Y-72469030D02*
X126317030Y-72270219D01*
X125396970Y-71747781D02*
X125595781Y-71548970D01*
%TO.C,R29*%
X138563052Y-109415499D02*
X138898585Y-109079966D01*
X139301979Y-110154426D02*
X139637512Y-109818893D01*
%TO.C,L9*%
X132625204Y-93809445D02*
X133190355Y-94374596D01*
X131833245Y-94601404D02*
X132398396Y-95166555D01*
%TO.C,L13*%
X135293996Y-98163755D02*
X134728845Y-97598604D01*
X136085955Y-97371796D02*
X135520804Y-96806645D01*
%TO.C,C41*%
X145838781Y-72960030D02*
X145639970Y-72761219D01*
X146560030Y-72238781D02*
X146361219Y-72039970D01*
%TO.C,C43*%
X156192562Y-61790811D02*
X156391373Y-61989622D01*
X156913811Y-61069562D02*
X157112622Y-61268373D01*
%TO.C,C59*%
X142038781Y-75539970D02*
X141839970Y-75738781D01*
X142760030Y-76261219D02*
X142561219Y-76460030D01*
%TO.C,C62*%
X155323830Y-84055819D02*
X155125019Y-84254630D01*
X154602581Y-83334570D02*
X154403770Y-83533381D01*
%TO.C,C14*%
X127362852Y-47042400D02*
X126840348Y-47042400D01*
X127362852Y-48512400D02*
X126840348Y-48512400D01*
%TO.C,C32*%
X132737570Y-50157781D02*
X132936381Y-49958970D01*
X133458819Y-50879030D02*
X133657630Y-50680219D01*
%TO.C,C47*%
X139880630Y-58234981D02*
X139681819Y-58036170D01*
X139159381Y-58956230D02*
X138960570Y-58757419D01*
%TO.C,C49*%
X145788781Y-67770030D02*
X145589970Y-67571219D01*
X146510030Y-67048781D02*
X146311219Y-66849970D01*
%TO.C,C29*%
X146819219Y-77803030D02*
X147018030Y-77604219D01*
X146097970Y-77081781D02*
X146296781Y-76882970D01*
%TO.C,C35*%
X142147110Y-85441297D02*
X141948299Y-85640108D01*
X141425861Y-84720048D02*
X141227050Y-84918859D01*
%TO.C,C58*%
X152148830Y-67342619D02*
X151950019Y-67541430D01*
X151427581Y-66621370D02*
X151228770Y-66820181D01*
%TO.C,C63*%
X156558381Y-69643970D02*
X156359570Y-69842781D01*
X157279630Y-70365219D02*
X157080819Y-70564030D01*
%TO.C,C65*%
X155019030Y-76192781D02*
X154820219Y-75993970D01*
X154297781Y-76914030D02*
X154098970Y-76715219D01*
%TO.C,C31*%
X137776852Y-47067800D02*
X137254348Y-47067800D01*
X137776852Y-48537800D02*
X137254348Y-48537800D01*
%TO.C,C45*%
X137116419Y-54587430D02*
X137315230Y-54388619D01*
X136395170Y-53866181D02*
X136593981Y-53667370D01*
%TO.C,C33*%
X141383619Y-56283570D02*
X141582430Y-56482381D01*
X140662370Y-57004819D02*
X140861181Y-57203630D01*
%TO.C,C50*%
X149939030Y-63619781D02*
X149740219Y-63420970D01*
X149217781Y-64341030D02*
X149018970Y-64142219D01*
%TO.C,C36*%
X144264781Y-87423970D02*
X144065970Y-87622781D01*
X144986030Y-88145219D02*
X144787219Y-88344030D01*
%TO.C,C37*%
X152349161Y-95597868D02*
X152150350Y-95796679D01*
X151627912Y-94876619D02*
X151429101Y-95075430D01*
%TO.C,C38*%
X155222230Y-98432219D02*
X155023419Y-98631030D01*
X154500981Y-97710970D02*
X154302170Y-97909781D01*
%TO.C,C44*%
X178630811Y-83065962D02*
X178829622Y-83264773D01*
X177909562Y-83787211D02*
X178108373Y-83986022D01*
%TO.C,C60*%
X164421419Y-97945230D02*
X164620230Y-97746419D01*
X163700170Y-97223981D02*
X163898981Y-97025170D01*
%TO.C,C61*%
X156445819Y-85499230D02*
X156644630Y-85300419D01*
X155724570Y-84777981D02*
X155923381Y-84579170D01*
%TO.C,L18*%
X143955396Y-70376155D02*
X143390245Y-69811004D01*
X144747355Y-69584196D02*
X144182204Y-69019045D01*
%TO.C,L22*%
X152921596Y-61130555D02*
X152356445Y-60565404D01*
X153713555Y-60338596D02*
X153148404Y-59773445D01*
%TO.C,L40*%
X141186596Y-78721445D02*
X140621445Y-79286596D01*
X141978555Y-79513404D02*
X141413404Y-80078555D01*
%TO.C,L44*%
X150919555Y-88505404D02*
X150354404Y-89070555D01*
X150127596Y-87713445D02*
X149562445Y-88278596D01*
%TO.C,L19*%
X142044045Y-66967996D02*
X142609196Y-66402845D01*
X142836004Y-67759955D02*
X143401155Y-67194804D01*
%TO.C,L23*%
X149594196Y-59417845D02*
X149029045Y-59982996D01*
X150386155Y-60209804D02*
X149821004Y-60774955D01*
%TO.C,L41*%
X140397604Y-81744445D02*
X140962755Y-82309596D01*
X139605645Y-82536404D02*
X140170796Y-83101555D01*
%TO.C,L45*%
X148023955Y-89650196D02*
X147458804Y-89085045D01*
X147231996Y-90442155D02*
X146666845Y-89877004D01*
%TO.C,L58*%
X148703404Y-66758445D02*
X149268555Y-67323596D01*
X147911445Y-67550404D02*
X148476596Y-68115555D01*
%TO.C,L69*%
X150030555Y-77456404D02*
X149465404Y-78021555D01*
X149238596Y-76664445D02*
X148673445Y-77229596D01*
%TO.C,L17*%
X133763645Y-51524796D02*
X134328796Y-50959645D01*
X134555604Y-52316755D02*
X135120755Y-51751604D01*
%TO.C,L54*%
X138187804Y-56152155D02*
X138752955Y-55587004D01*
X137395845Y-55360196D02*
X137960996Y-54795045D01*
%TO.C,L30*%
X152534245Y-67755396D02*
X153099396Y-67190245D01*
X153326204Y-68547355D02*
X153891355Y-67982204D01*
%TO.C,L36*%
X157334845Y-71158996D02*
X157899996Y-70593845D01*
X158126804Y-71950955D02*
X158691955Y-71385804D01*
%TO.C,L67*%
X152178645Y-77253204D02*
X152743796Y-77818355D01*
X152970604Y-76461245D02*
X153535755Y-77026396D01*
%TO.C,L59*%
X152083396Y-64864355D02*
X151518245Y-64299204D01*
X152875355Y-64072396D02*
X152310204Y-63507245D01*
%TO.C,L63*%
X153935804Y-80663155D02*
X154500955Y-80098004D01*
X153143845Y-79871196D02*
X153708996Y-79306045D01*
%TO.C,L24*%
X179026445Y-90996396D02*
X179591596Y-90431245D01*
X179818404Y-91788355D02*
X180383555Y-91223204D01*
%TO.C,L42*%
X157713404Y-98821445D02*
X158278555Y-99386596D01*
X156921445Y-99613404D02*
X157486596Y-100178555D01*
%TO.C,L46*%
X151300555Y-92723596D02*
X150735404Y-92158445D01*
X150508596Y-93515555D02*
X149943445Y-92950404D01*
%TO.C,L25*%
X180521254Y-87171695D02*
X179956103Y-86606544D01*
X179729295Y-87963654D02*
X179164144Y-87398503D01*
%TO.C,L43*%
X159921445Y-98586596D02*
X160486596Y-98021445D01*
X160713404Y-99378555D02*
X161278555Y-98813404D01*
%TO.C,L47*%
X150959445Y-89675596D02*
X151524596Y-89110445D01*
X151751404Y-90467555D02*
X152316555Y-89902404D01*
%TO.C,R35*%
X147837230Y-71098303D02*
X147501697Y-70762770D01*
X147098303Y-71837230D02*
X146762770Y-71501697D01*
%TO.C,R37*%
X155802097Y-62048370D02*
X156137630Y-62383903D01*
X155063170Y-62787297D02*
X155398703Y-63122830D01*
%TO.C,R39*%
X144174230Y-77290697D02*
X143838697Y-77626230D01*
X143435303Y-76551770D02*
X143099770Y-76887303D01*
%TO.C,R41*%
X152801697Y-86637230D02*
X153137230Y-86301697D01*
X152062770Y-85898303D02*
X152398303Y-85562770D01*
%TO.C,R38*%
X177418334Y-84223407D02*
X177753867Y-84558940D01*
X176679407Y-84962334D02*
X177014940Y-85297867D01*
%TO.C,R40*%
X162403770Y-96191303D02*
X162739303Y-95855770D01*
X163142697Y-96930230D02*
X163478230Y-96594697D01*
%TO.C,R42*%
X153698303Y-86862770D02*
X153362770Y-87198303D01*
X154437230Y-87601697D02*
X154101697Y-87937230D01*
D13*
%TO.C,U8*%
X142488063Y-83019296D02*
X143052334Y-82455025D01*
X146200374Y-79239103D02*
X146764645Y-78674832D01*
X151075168Y-82985355D02*
X150510897Y-83549626D01*
X147328916Y-86731607D02*
X146764645Y-87295878D01*
D14*
X146170117Y-78389161D02*
G75*
G03*
X146170117Y-78389161I-254000J0D01*
G01*
D13*
%TO.C,U9*%
X161325168Y-93135355D02*
X160760897Y-93699626D01*
X157578916Y-96881607D02*
X157014645Y-97445878D01*
X156450374Y-89389103D02*
X157014645Y-88824832D01*
X152738063Y-93169296D02*
X153302334Y-92605025D01*
D14*
X156420117Y-88539161D02*
G75*
G03*
X156420117Y-88539161I-254000J0D01*
G01*
D12*
%TO.C,R36*%
X167695467Y-93956940D02*
X167359934Y-93621407D01*
X166956540Y-94695867D02*
X166621007Y-94360334D01*
%TO.C,C42*%
X167835981Y-93424030D02*
X167637170Y-93225219D01*
X168557230Y-92702781D02*
X168358419Y-92503970D01*
%TO.C,L20*%
X172631996Y-97568645D02*
X172066845Y-98133796D01*
X173423955Y-98360604D02*
X172858804Y-98925755D01*
%TO.C,L21*%
X170666054Y-96722095D02*
X170100903Y-96156944D01*
X169874095Y-97514054D02*
X169308944Y-96948903D01*
%TO.C,L8*%
X129805804Y-96106355D02*
X130370955Y-95541204D01*
X129013845Y-95314396D02*
X129578996Y-94749245D01*
%TO.C,L10*%
X141840845Y-104812204D02*
X142405996Y-105377355D01*
X142632804Y-104020245D02*
X143197955Y-104585396D01*
%TO.C,R25*%
X138967230Y-104849697D02*
X138631697Y-105185230D01*
X138228303Y-104110770D02*
X137892770Y-104446303D01*
%TO.C,R3*%
X147499303Y-95093770D02*
X147163770Y-95429303D01*
X148238230Y-95832697D02*
X147902697Y-96168230D01*
%TO.C,C56*%
X175358770Y-91853619D02*
X175557581Y-92052430D01*
X176080019Y-91132370D02*
X176278830Y-91331181D01*
%TO.C,L39*%
X156456755Y-74205204D02*
X155891604Y-74770355D01*
X155664796Y-73413245D02*
X155099645Y-73978396D01*
%TO.C,C34*%
X191670000Y-100398252D02*
X191670000Y-99875748D01*
X193140000Y-100398252D02*
X193140000Y-99875748D01*
%TO.C,C64*%
X164431638Y-85224389D02*
X164232827Y-85025578D01*
X163710389Y-85945638D02*
X163511578Y-85746827D01*
%TO.C,L14*%
X134363522Y-48439000D02*
X133564278Y-48439000D01*
X134363522Y-47319000D02*
X133564278Y-47319000D01*
%TO.C,L7*%
X144461604Y-111143155D02*
X145026755Y-110578004D01*
X143669645Y-110351196D02*
X144234796Y-109786045D01*
%TO.C,L29*%
X172077755Y-86854404D02*
X171512604Y-87419555D01*
X171285796Y-86062445D02*
X170720645Y-86627596D01*
%TO.C,L37*%
X165600755Y-81952204D02*
X165035604Y-82517355D01*
X164808796Y-81160245D02*
X164243645Y-81725396D01*
%TO.C,L53*%
X137933804Y-50502445D02*
X138498955Y-51067596D01*
X137141845Y-51294404D02*
X137706996Y-51859555D01*
%TO.C,L15*%
X191845000Y-103359378D02*
X191845000Y-104158622D01*
X192965000Y-103359378D02*
X192965000Y-104158622D01*
%TO.C,L32*%
X167977445Y-87870404D02*
X168542596Y-88435555D01*
X168769404Y-87078445D02*
X169334555Y-87643596D01*
%TO.C,R24*%
X128908830Y-94689697D02*
X128573297Y-95025230D01*
X128169903Y-93950770D02*
X127834370Y-94286303D01*
%TO.C,R52*%
X172413697Y-103729770D02*
X172749230Y-104065303D01*
X171674770Y-104468697D02*
X172010303Y-104804230D01*
%TO.C,C11*%
X153757978Y-104314227D02*
X153956789Y-104513038D01*
X154479227Y-103592978D02*
X154678038Y-103791789D01*
%TO.C,C13*%
X148267019Y-98808830D02*
X148465830Y-98610019D01*
X147545770Y-98087581D02*
X147744581Y-97888770D01*
%TO.C,C66*%
X147403419Y-114252030D02*
X147602230Y-114053219D01*
X146682170Y-113530781D02*
X146880981Y-113331970D01*
%TO.C,L62*%
X187749555Y-105853604D02*
X187184404Y-106418755D01*
X186957596Y-105061645D02*
X186392445Y-105626796D01*
%TO.C,C74*%
X165665361Y-104897392D02*
X165295894Y-105266859D01*
X166704808Y-105936839D02*
X166335341Y-106306306D01*
%TO.C,C82*%
X157483573Y-106058622D02*
X157284762Y-105859811D01*
X158204822Y-105337373D02*
X158006011Y-105138562D01*
D10*
%TO.C,L51*%
X161391600Y-104749600D02*
X161391600Y-103225600D01*
D12*
X160248600Y-104749600D02*
X159486600Y-104749600D01*
X160248600Y-103225600D02*
X159486600Y-103225600D01*
D10*
X158343600Y-103225600D02*
X158343600Y-104749600D01*
D12*
%TO.C,L5*%
X130288404Y-50146845D02*
X130853555Y-50711996D01*
X129496445Y-50938804D02*
X130061596Y-51503955D01*
%TO.C,U1*%
X156917872Y-115303924D02*
X156026918Y-114412970D01*
X152095404Y-110481456D02*
X152986358Y-111372410D01*
X152668160Y-119553636D02*
X156917872Y-115303924D01*
X149436682Y-113140177D02*
X152095404Y-110481456D01*
%TO.C,C80*%
X156205210Y-107714657D02*
X155835743Y-107345190D01*
X157244657Y-106675210D02*
X156875190Y-106305743D01*
%TO.C,L56*%
X141174305Y-53590546D02*
X141739456Y-54155697D01*
X140382346Y-54382505D02*
X140947497Y-54947656D01*
%TO.C,L12*%
X134555604Y-100957755D02*
X135120755Y-100392604D01*
X133763645Y-100165796D02*
X134328796Y-99600645D01*
%TO.C,R12*%
X128751097Y-73173570D02*
X129086630Y-73509103D01*
X128012170Y-73912497D02*
X128347703Y-74248030D01*
%TO.C,R2*%
X138555497Y-84839830D02*
X138891030Y-84504297D01*
X137816570Y-84100903D02*
X138152103Y-83765370D01*
%TO.C,R1*%
X155291770Y-102512897D02*
X155627303Y-102848430D01*
X156030697Y-101773970D02*
X156366230Y-102109503D01*
%TO.C,C9*%
X153499419Y-106835230D02*
X153698230Y-106636419D01*
X152778170Y-106113981D02*
X152976981Y-105915170D01*
%TO.C,C53*%
X162125370Y-93083781D02*
X162324181Y-92884970D01*
X162846619Y-93805030D02*
X163045430Y-93606219D01*
%TO.C,L52*%
X134047604Y-54490245D02*
X134612755Y-55055396D01*
X133255645Y-55282204D02*
X133820796Y-55847355D01*
%TO.C,C68*%
X168422610Y-105873943D02*
X168053143Y-106243410D01*
X169462057Y-106913390D02*
X169092590Y-107282857D01*
%TO.C,L55*%
X136227445Y-58533404D02*
X136792596Y-59098555D01*
X137019404Y-57741445D02*
X137584555Y-58306596D01*
%TO.C,L3*%
X150100404Y-96349445D02*
X150665555Y-96914596D01*
X149308445Y-97141404D02*
X149873596Y-97706555D01*
%TO.C,L16*%
X188964196Y-110558955D02*
X188399045Y-109993804D01*
X189756155Y-109766996D02*
X189191004Y-109201845D01*
%TO.C,L33*%
X183909596Y-102039045D02*
X183344445Y-102604196D01*
X184701555Y-102831004D02*
X184136404Y-103396155D01*
%TO.C,L27*%
X189019555Y-102400996D02*
X188454404Y-101835845D01*
X188227596Y-103192955D02*
X187662445Y-102627804D01*
%TO.C,C76*%
X164104610Y-103384743D02*
X163735143Y-103754210D01*
X165144057Y-104424190D02*
X164774590Y-104793657D01*
%TO.C,C52*%
X169948570Y-83990581D02*
X170147381Y-83791770D01*
X170669819Y-84711830D02*
X170868630Y-84513019D01*
%TO.C,L6*%
X145301596Y-108323755D02*
X144736445Y-107758604D01*
X146093555Y-107531796D02*
X145528404Y-106966645D01*
%TO.C,L38*%
X165412045Y-83173196D02*
X165977196Y-82608045D01*
X166204004Y-83965155D02*
X166769155Y-83400004D01*
%TO.C,C40*%
X188928030Y-107119019D02*
X188729219Y-107317830D01*
X188206781Y-106397770D02*
X188007970Y-106596581D01*
%TO.C,R15*%
X127461030Y-80925903D02*
X127125497Y-80590370D01*
X126722103Y-81664830D02*
X126386570Y-81329297D01*
%TO.C,U3*%
X146953410Y-100946652D02*
X145397775Y-102502287D01*
X150644508Y-104637750D02*
X152200143Y-103082115D01*
X150644508Y-104637750D02*
X149088873Y-106193385D01*
X146953410Y-100946652D02*
X149498995Y-98401068D01*
%TO.C,R23*%
X145264103Y-111273570D02*
X144928570Y-111609103D01*
X146003030Y-112012497D02*
X145667497Y-112348030D01*
%TO.C,L61*%
X157650555Y-66688596D02*
X157085404Y-66123445D01*
X156858596Y-67480555D02*
X156293445Y-66915404D01*
%TO.C,C46*%
X185133381Y-103527570D02*
X184934570Y-103726381D01*
X185854630Y-104248819D02*
X185655819Y-104447630D01*
%TO.C,L26*%
X170877604Y-90685245D02*
X171442755Y-91250396D01*
X170085645Y-91477204D02*
X170650796Y-92042355D01*
%TO.C,L4*%
X142913996Y-90569155D02*
X142348845Y-90004004D01*
X143705955Y-89777196D02*
X143140804Y-89212045D01*
%TO.C,C69*%
X144197400Y-118585348D02*
X144197400Y-119107852D01*
X145667400Y-118585348D02*
X145667400Y-119107852D01*
%TO.C,C55*%
X183344419Y-99260370D02*
X183543230Y-99459181D01*
X182623170Y-99981619D02*
X182821981Y-100180430D01*
%TO.C,R26*%
X135970030Y-102004897D02*
X135634497Y-102340430D01*
X135231103Y-101265970D02*
X134895570Y-101601503D01*
D13*
%TO.C,U6*%
X147916652Y-61056129D02*
X148480923Y-61620400D01*
X144170400Y-57309877D02*
X144734671Y-57874148D01*
X140424148Y-62184671D02*
X139859877Y-61620400D01*
X144204341Y-65896982D02*
X143640070Y-65332711D01*
D14*
X139828206Y-62468928D02*
G75*
G03*
X139828206Y-62468928I-254000J0D01*
G01*
D12*
%TO.C,L2*%
X140107505Y-86127946D02*
X140672656Y-86693097D01*
X139315546Y-86919905D02*
X139880697Y-87485056D01*
%TO.C,R13*%
X129262103Y-79328030D02*
X128926570Y-78992497D01*
X130001030Y-78589103D02*
X129665497Y-78253570D01*
%TO.C,R14*%
X128629430Y-79859103D02*
X128293897Y-79523570D01*
X127890503Y-80598030D02*
X127554970Y-80262497D01*
%TO.C,U11*%
X171013521Y-108251105D02*
X170447836Y-108816791D01*
X171013521Y-108251105D02*
X171579207Y-107685420D01*
X173219695Y-110457279D02*
X171946902Y-111730071D01*
X173219695Y-110457279D02*
X173785380Y-109891593D01*
%TO.C,L60*%
X154164404Y-70187445D02*
X154729555Y-70752596D01*
X153372445Y-70979404D02*
X153937596Y-71544555D01*
%TO.C,L57*%
X182009155Y-104128196D02*
X181444004Y-103563045D01*
X181217196Y-104920155D02*
X180652045Y-104355004D01*
%TO.C,C54*%
X156257970Y-87622781D02*
X156456781Y-87423970D01*
X156979219Y-88344030D02*
X157178030Y-88145219D01*
%TO.C,R54*%
X144306058Y-114568500D02*
X143831542Y-114568500D01*
X144306058Y-113523500D02*
X143831542Y-113523500D01*
%TO.C,C57*%
X173286019Y-93570770D02*
X173484830Y-93769581D01*
X172564770Y-94292019D02*
X172763581Y-94490830D01*
%TO.C,R9*%
X143463030Y-93724497D02*
X143127497Y-94060030D01*
X142724103Y-92985570D02*
X142388570Y-93321103D01*
%TO.C,C10*%
X144243027Y-95287178D02*
X144441838Y-95485989D01*
X143521778Y-96008427D02*
X143720589Y-96207238D01*
%TO.C,C72*%
X175176581Y-111483430D02*
X174977770Y-111284619D01*
X175897830Y-110762181D02*
X175699019Y-110563370D01*
%TO.C,C51*%
X171599570Y-88638781D02*
X171798381Y-88439970D01*
X172320819Y-89360030D02*
X172519630Y-89161219D01*
%TO.C,C15*%
X140128970Y-102100781D02*
X140327781Y-101901970D01*
X140850219Y-102822030D02*
X141049030Y-102623219D01*
%TO.C,R10*%
X152296897Y-105744030D02*
X152632430Y-105408497D01*
X151557970Y-105005103D02*
X151893503Y-104669570D01*
%TO.C,L31*%
X173779555Y-83401796D02*
X173214404Y-82836645D01*
X172987596Y-84193755D02*
X172422445Y-83628604D01*
%TO.C,C67*%
X146859970Y-117228219D02*
X147058781Y-117427030D01*
X147581219Y-116506970D02*
X147780030Y-116705781D01*
%TO.C,L1*%
X153164897Y-100743856D02*
X152599746Y-100178705D01*
X153956856Y-99951897D02*
X153391705Y-99386746D01*
%TO.C,C39*%
X191568400Y-110598852D02*
X191568400Y-110076348D01*
X193038400Y-110598852D02*
X193038400Y-110076348D01*
D13*
%TO.C,U7*%
X178194993Y-92395818D02*
X178759264Y-92960089D01*
X178228934Y-100982923D02*
X177664663Y-100418652D01*
X181975186Y-96108129D02*
X182539457Y-96672400D01*
X174482682Y-97236671D02*
X173918411Y-96672400D01*
D14*
X183079128Y-95823872D02*
G75*
G03*
X183079128Y-95823872I-254000J0D01*
G01*
D12*
%TO.C,L65*%
X158152204Y-75151355D02*
X158717355Y-74586204D01*
X157360245Y-74359396D02*
X157925396Y-73794245D01*
D10*
%TO.C,L48*%
X137083800Y-117170200D02*
X137083800Y-118694200D01*
X140131800Y-118694200D02*
X140131800Y-117170200D01*
D12*
X138988800Y-117170200D02*
X138226800Y-117170200D01*
X138988800Y-118694200D02*
X138226800Y-118694200D01*
%TO.C,C70*%
X170447622Y-108149627D02*
X170248811Y-108348438D01*
X169726373Y-107428378D02*
X169527562Y-107627189D01*
%TO.C,C48*%
X181638230Y-101414981D02*
X181439419Y-101216170D01*
X180916981Y-102136230D02*
X180718170Y-101937419D01*
%TO.C,U12*%
X125748144Y-78698430D02*
X126084020Y-78362554D01*
X125412268Y-78362554D02*
X125748144Y-78698430D01*
X128025028Y-76421546D02*
X127689152Y-76757422D01*
X123807136Y-76757422D02*
X123471260Y-76421546D01*
X127689152Y-76085670D02*
X128025028Y-76421546D01*
X126084020Y-74480538D02*
X125748144Y-74144662D01*
X125748144Y-74144662D02*
X125412268Y-74480538D01*
%TO.C,R48*%
X174959030Y-106300503D02*
X174623497Y-105964970D01*
X174220103Y-107039430D02*
X173884570Y-106703897D01*
%TO.C,C8*%
X145473019Y-94053370D02*
X145671830Y-94252181D01*
X144751770Y-94774619D02*
X144950581Y-94973430D01*
%TO.C,U2*%
X140487627Y-94480869D02*
X138931992Y-96036504D01*
X140487627Y-94480869D02*
X142043262Y-92925234D01*
X136796529Y-90789771D02*
X135240894Y-92345406D01*
X136796529Y-90789771D02*
X139342114Y-88244187D01*
%TO.C,L64*%
X175151155Y-87821396D02*
X174586004Y-87256245D01*
X174359196Y-88613355D02*
X173794045Y-88048204D01*
D15*
%TO.C,U5*%
X128296397Y-106672096D02*
X128476002Y-106672096D01*
X127847384Y-107121109D02*
X128296397Y-106672096D01*
X131259882Y-113766499D02*
X130721066Y-114305314D01*
X130721066Y-114305314D02*
X130631264Y-114215512D01*
X132876328Y-112150053D02*
X133415143Y-111611237D01*
X125692123Y-109276371D02*
X125781925Y-109366173D01*
X133415143Y-111611237D02*
X133325341Y-111521435D01*
X126230938Y-108737555D02*
X125692123Y-109276371D01*
D12*
%TO.C,L70*%
X161769146Y-90270495D02*
X162334297Y-89705344D01*
X162561105Y-91062454D02*
X163126256Y-90497303D01*
%TO.C,L68*%
X159500196Y-87154645D02*
X158935045Y-87719796D01*
X160292155Y-87946604D02*
X159727004Y-88511755D01*
%TO.C,L11*%
X139965804Y-106393355D02*
X140530955Y-105828204D01*
X139173845Y-105601396D02*
X139738996Y-105036245D01*
%TO.C,L35*%
X169558596Y-81922245D02*
X168993445Y-82487396D01*
X170350555Y-82714204D02*
X169785404Y-83279355D01*
%TO.C,R6*%
X145004770Y-92479897D02*
X145340303Y-92815430D01*
X145743697Y-91740970D02*
X146079230Y-92076503D01*
%TO.C,L28*%
X183858796Y-107637955D02*
X183293645Y-107072804D01*
X184650755Y-106845996D02*
X184085604Y-106280845D01*
%TO.C,L34*%
X186327155Y-99759396D02*
X185762004Y-99194245D01*
X185535196Y-100551355D02*
X184970045Y-99986204D01*
%TO.C,C30*%
X152559619Y-83873630D02*
X152758430Y-83674819D01*
X151838370Y-83152381D02*
X152037181Y-82953570D01*
D10*
%TO.C,L49*%
X166967785Y-107753681D02*
X170503319Y-111289215D01*
X163078697Y-111642769D02*
X163891870Y-110829596D01*
X167427404Y-114365130D02*
X166614231Y-115178303D01*
X166013191Y-108708276D02*
X166967785Y-107753681D01*
X166614231Y-115178303D02*
X163078697Y-111642769D01*
X169548724Y-112243809D02*
X170503319Y-111289215D01*
%TO.C,C78*%
X162875669Y-103567068D02*
X162027933Y-104414804D01*
X162559564Y-105090119D02*
X164962681Y-107493236D01*
X157412082Y-110234010D02*
X161654355Y-105991737D01*
X162570341Y-105075751D02*
X164973457Y-107478867D01*
X159800830Y-112655087D02*
X164043103Y-108412814D01*
X162097979Y-103637114D02*
X162875669Y-104414804D01*
D12*
%TO.C,C16*%
X147911419Y-110061030D02*
X148110230Y-109862219D01*
X147190170Y-109339781D02*
X147388981Y-109140970D01*
%TO.C,L66*%
X162865905Y-86077146D02*
X163431056Y-86642297D01*
X162073946Y-86869105D02*
X162639097Y-87434256D01*
%TD*%
M02*
