%TF.GenerationSoftware,KiCad,Pcbnew,6.0.4-6f826c9f35~116~ubuntu20.04.1*%
%TF.CreationDate,2022-09-05T23:11:20+00:00*%
%TF.ProjectId,QFHMIX01E,5146484d-4958-4303-9145-2e6b69636164,rev?*%
%TF.SameCoordinates,Original*%
%TF.FileFunction,Soldermask,Top*%
%TF.FilePolarity,Negative*%
%FSLAX46Y46*%
G04 Gerber Fmt 4.6, Leading zero omitted, Abs format (unit mm)*
G04 Created by KiCad (PCBNEW 6.0.4-6f826c9f35~116~ubuntu20.04.1) date 2022-09-05 23:11:20*
%MOMM*%
%LPD*%
G01*
G04 APERTURE LIST*
G04 Aperture macros list*
%AMRoundRect*
0 Rectangle with rounded corners*
0 $1 Rounding radius*
0 $2 $3 $4 $5 $6 $7 $8 $9 X,Y pos of 4 corners*
0 Add a 4 corners polygon primitive as box body*
4,1,4,$2,$3,$4,$5,$6,$7,$8,$9,$2,$3,0*
0 Add four circle primitives for the rounded corners*
1,1,$1+$1,$2,$3*
1,1,$1+$1,$4,$5*
1,1,$1+$1,$6,$7*
1,1,$1+$1,$8,$9*
0 Add four rect primitives between the rounded corners*
20,1,$1+$1,$2,$3,$4,$5,0*
20,1,$1+$1,$4,$5,$6,$7,0*
20,1,$1+$1,$6,$7,$8,$9,0*
20,1,$1+$1,$8,$9,$2,$3,0*%
G04 Aperture macros list end*
%ADD10C,2.000000*%
%ADD11C,2.900000*%
%ADD12RoundRect,0.200000X0.000000X-1.077631X1.077631X0.000000X0.000000X1.077631X-1.077631X0.000000X0*%
%ADD13C,6.400000*%
%ADD14C,7.800000*%
%ADD15C,0.900000*%
%ADD16C,2.700000*%
G04 APERTURE END LIST*
D10*
%TO.C,J1*%
X114680511Y-109155028D03*
X123625412Y-127150895D03*
X130844972Y-125319489D03*
X125456819Y-119931335D03*
X120068665Y-114543181D03*
X112849105Y-116374588D03*
D11*
X111070731Y-110070731D03*
X113764808Y-112764808D03*
X116458885Y-115458885D03*
X119152962Y-118152962D03*
X121847038Y-120847038D03*
X124541115Y-123541115D03*
X127235192Y-126235192D03*
X129929269Y-128929269D03*
%TD*%
D12*
%TO.C,J2*%
X134583897Y-121031000D03*
X136379948Y-119234949D03*
X136379948Y-122827052D03*
X138176000Y-121031000D03*
X138176000Y-124623103D03*
X139972051Y-122827052D03*
%TD*%
D13*
%TO.C,M7*%
X185560000Y-125560000D03*
%TD*%
%TO.C,M6*%
X185560000Y-54440000D03*
%TD*%
%TO.C,M5*%
X114440000Y-125560000D03*
%TD*%
D14*
%TO.C,M4*%
X150000000Y-126000000D03*
D15*
X153000000Y-126000000D03*
X152598076Y-127500000D03*
X150000000Y-123000000D03*
X152598076Y-124500000D03*
X147401924Y-127500000D03*
X150000000Y-129000000D03*
X147000000Y-126000000D03*
X148500000Y-123401924D03*
X151500000Y-128598076D03*
X151500000Y-123401924D03*
X147401924Y-124500000D03*
X148500000Y-128598076D03*
%TD*%
D14*
%TO.C,M3*%
X150000000Y-54000000D03*
D15*
X151500000Y-51401924D03*
X152598076Y-55500000D03*
X148500000Y-51401924D03*
X153000000Y-54000000D03*
X147401924Y-55500000D03*
X150000000Y-57000000D03*
X147000000Y-54000000D03*
X151500000Y-56598076D03*
X148500000Y-56598076D03*
X150000000Y-51000000D03*
X152598076Y-52500000D03*
X147401924Y-52500000D03*
%TD*%
D14*
%TO.C,M1*%
X186000000Y-90000000D03*
D15*
X187500000Y-92598076D03*
X183401924Y-88500000D03*
X188598076Y-88500000D03*
X183401924Y-91500000D03*
X186000000Y-87000000D03*
X188598076Y-91500000D03*
X184500000Y-92598076D03*
X189000000Y-90000000D03*
X187500000Y-87401924D03*
X186000000Y-93000000D03*
X183000000Y-90000000D03*
X184500000Y-87401924D03*
%TD*%
D14*
%TO.C,M2*%
X114000000Y-90000000D03*
D15*
X112500000Y-87401924D03*
X117000000Y-90000000D03*
X111401924Y-88500000D03*
X116598076Y-91500000D03*
X115500000Y-87401924D03*
X112500000Y-92598076D03*
X114000000Y-93000000D03*
X111000000Y-90000000D03*
X114000000Y-87000000D03*
X111401924Y-91500000D03*
X116598076Y-88500000D03*
X115500000Y-92598076D03*
%TD*%
D13*
%TO.C,M8*%
X114440000Y-54440000D03*
%TD*%
D15*
%TO.C,U7*%
X148885965Y-83692462D03*
X148178859Y-82985355D03*
X147471752Y-83692462D03*
X146764645Y-82985355D03*
X147471752Y-82278248D03*
X144643325Y-82278248D03*
X148178859Y-84399569D03*
X146057538Y-83692462D03*
X146764645Y-81571141D03*
X146764645Y-84399569D03*
X147471752Y-85106675D03*
X145350431Y-82985355D03*
X145350431Y-81571141D03*
X146057538Y-80864035D03*
X146057538Y-82278248D03*
%TD*%
%TO.C,U8*%
X158428859Y-94549569D03*
X159135965Y-93842462D03*
X157721752Y-92428248D03*
X158428859Y-93135355D03*
X156307538Y-92428248D03*
X157014645Y-91721141D03*
X156307538Y-93842462D03*
X157014645Y-94549569D03*
X157721752Y-93842462D03*
X157014645Y-93135355D03*
X155600431Y-91721141D03*
X155600431Y-93135355D03*
X157721752Y-95256675D03*
X156307538Y-91014035D03*
X154893325Y-92428248D03*
%TD*%
D16*
%TO.C,D3*%
X164338000Y-110236000D03*
%TD*%
D15*
%TO.C,U5*%
X144594014Y-60833000D03*
X143179800Y-60833000D03*
X141765586Y-62247214D03*
X141058480Y-61540107D03*
X145301120Y-60125893D03*
X142472693Y-62954320D03*
X142472693Y-60125893D03*
X141765586Y-60833000D03*
X142472693Y-61540107D03*
X143179800Y-59418786D03*
X143886907Y-58711680D03*
X143886907Y-60125893D03*
X143886907Y-61540107D03*
X144594014Y-59418786D03*
X143179800Y-62247214D03*
%TD*%
%TO.C,U6*%
X176893786Y-96774000D03*
X179722214Y-96774000D03*
X179015107Y-96066893D03*
X178308000Y-96774000D03*
X177600893Y-98895320D03*
X179722214Y-95359786D03*
X178308000Y-98188214D03*
X176893786Y-98188214D03*
X176186680Y-97481107D03*
X179015107Y-97481107D03*
X180429320Y-96066893D03*
X177600893Y-96066893D03*
X179015107Y-94652680D03*
X177600893Y-97481107D03*
X178308000Y-95359786D03*
%TD*%
D16*
%TO.C,D4*%
X123748800Y-67183000D03*
%TD*%
G36*
X177515642Y-88784144D02*
G01*
X177560704Y-88813105D01*
X186448505Y-97700906D01*
X186482531Y-97763218D01*
X186477466Y-97834033D01*
X186448505Y-97879096D01*
X179202073Y-105125527D01*
X179139761Y-105159553D01*
X179068946Y-105154488D01*
X179023883Y-105125527D01*
X170136082Y-96237725D01*
X170102056Y-96175413D01*
X170107121Y-96104598D01*
X170136082Y-96059535D01*
X177382514Y-88813105D01*
X177444826Y-88779079D01*
X177515642Y-88784144D01*
G37*
G36*
X158255523Y-86009594D02*
G01*
X158276497Y-86026497D01*
X164213095Y-91963095D01*
X164247121Y-92025407D01*
X164250000Y-92052190D01*
X164250000Y-93362024D01*
X164229998Y-93430145D01*
X164213095Y-93451119D01*
X157392613Y-100271600D01*
X157330301Y-100305626D01*
X157303518Y-100308505D01*
X155993686Y-100308505D01*
X155925565Y-100288503D01*
X155904591Y-100271600D01*
X149967993Y-94335002D01*
X149933967Y-94272690D01*
X149931088Y-94245907D01*
X149931088Y-92936073D01*
X149951090Y-92867952D01*
X149967993Y-92846978D01*
X156788474Y-86026497D01*
X156850786Y-85992471D01*
X156877569Y-85989592D01*
X158187402Y-85989592D01*
X158255523Y-86009594D01*
G37*
G36*
X147509638Y-76165108D02*
G01*
X147530612Y-76182011D01*
X153467210Y-82118609D01*
X153501236Y-82180921D01*
X153504115Y-82207704D01*
X153504115Y-83517538D01*
X153484113Y-83585659D01*
X153467210Y-83606633D01*
X146646728Y-90427114D01*
X146584416Y-90461140D01*
X146557633Y-90464019D01*
X145247801Y-90464019D01*
X145179680Y-90444017D01*
X145158706Y-90427114D01*
X139222108Y-84490516D01*
X139188082Y-84428204D01*
X139185203Y-84401421D01*
X139185203Y-83091587D01*
X139205205Y-83023466D01*
X139222108Y-83002492D01*
X146042589Y-76182011D01*
X146104901Y-76147985D01*
X146131684Y-76145106D01*
X147441517Y-76145106D01*
X147509638Y-76165108D01*
G37*
G36*
X126473150Y-72381631D02*
G01*
X126494124Y-72398534D01*
X129602295Y-75506704D01*
X129636321Y-75569016D01*
X129639200Y-75595799D01*
X129639200Y-76905633D01*
X129619198Y-76973754D01*
X129602295Y-76994728D01*
X126494124Y-80102899D01*
X126431812Y-80136925D01*
X126405029Y-80139804D01*
X125095196Y-80139804D01*
X125027075Y-80119802D01*
X125006101Y-80102899D01*
X121897930Y-76994728D01*
X121863904Y-76932416D01*
X121861025Y-76905633D01*
X121861025Y-75595799D01*
X121881027Y-75527678D01*
X121897930Y-75506704D01*
X125006101Y-72398534D01*
X125068413Y-72364508D01*
X125095196Y-72361629D01*
X126405029Y-72361629D01*
X126473150Y-72381631D01*
G37*
G36*
X162604032Y-114360134D02*
G01*
X162649095Y-114389095D01*
X165010905Y-116750905D01*
X165044931Y-116813217D01*
X165039866Y-116884032D01*
X165010905Y-116929095D01*
X162649095Y-119290905D01*
X162586783Y-119324931D01*
X162515968Y-119319866D01*
X162470905Y-119290905D01*
X160109095Y-116929095D01*
X160075069Y-116866783D01*
X160080134Y-116795968D01*
X160109095Y-116750905D01*
X162470905Y-114389095D01*
X162533217Y-114355069D01*
X162604032Y-114360134D01*
G37*
G36*
X142398333Y-53198743D02*
G01*
X142443395Y-53227704D01*
X151026396Y-61810705D01*
X151060422Y-61873017D01*
X151055357Y-61943832D01*
X151026396Y-61988895D01*
X143779964Y-69235326D01*
X143717652Y-69269352D01*
X143646837Y-69264287D01*
X143601774Y-69235326D01*
X135018773Y-60652324D01*
X134984747Y-60590012D01*
X134989812Y-60519197D01*
X135018773Y-60474134D01*
X142265205Y-53227704D01*
X142327517Y-53193678D01*
X142398333Y-53198743D01*
G37*
G36*
X123996032Y-59242134D02*
G01*
X124041095Y-59271095D01*
X126402905Y-61632905D01*
X126436931Y-61695217D01*
X126431866Y-61766032D01*
X126402905Y-61811095D01*
X124041095Y-64172905D01*
X123978783Y-64206931D01*
X123907968Y-64201866D01*
X123862905Y-64172905D01*
X121501095Y-61811095D01*
X121467069Y-61748783D01*
X121472134Y-61677968D01*
X121501095Y-61632905D01*
X123862905Y-59271095D01*
X123925217Y-59237069D01*
X123996032Y-59242134D01*
G37*
M02*
