G04 #@! TF.GenerationSoftware,KiCad,Pcbnew,5.99.0-unknown-43001cae3~104~ubuntu18.04.1*
G04 #@! TF.CreationDate,2020-11-12T23:28:15+01:00*
G04 #@! TF.ProjectId,QFHMIX01C,5146484d-4958-4303-9143-2e6b69636164,REV 0.2*
G04 #@! TF.SameCoordinates,Original*
G04 #@! TF.FileFunction,AssemblyDrawing,Bot*
%FSLAX45Y45*%
G04 Gerber Fmt 4.5, Leading zero omitted, Abs format (unit mm)*
G04 Created by KiCad (PCBNEW 5.99.0-unknown-43001cae3~104~ubuntu18.04.1) date 2020-11-12 23:28:15*
%MOMM*%
%LPD*%
G01*
G04 APERTURE LIST*
%ADD10C,0.075000*%
%ADD11C,0.150000*%
%ADD12C,0.120000*%
%ADD13C,0.100000*%
%ADD14C,0.125000*%
%ADD15C,0.149860*%
G04 APERTURE END LIST*
D10*
X12736561Y-6576882D02*
X12707940Y-6581932D01*
X12716358Y-6556679D02*
X12681003Y-6592034D01*
X12694472Y-6605503D01*
X12699522Y-6607186D01*
X12702890Y-6607186D01*
X12707940Y-6605503D01*
X12712991Y-6600452D01*
X12714675Y-6595401D01*
X12714675Y-6592034D01*
X12712991Y-6586983D01*
X12699522Y-6573515D01*
X12743296Y-6630756D02*
X12766866Y-6607186D01*
X12721409Y-6635807D02*
X12738245Y-6602135D01*
X12760132Y-6624022D01*
X12803905Y-6644225D02*
X12783702Y-6624022D01*
X12793803Y-6634124D02*
X12758448Y-6669479D01*
X12760132Y-6661061D01*
X12760132Y-6654327D01*
X12758448Y-6649276D01*
X12251163Y-6106317D02*
X12222542Y-6111368D01*
X12230960Y-6086114D02*
X12195605Y-6121470D01*
X12209074Y-6134938D01*
X12214125Y-6136622D01*
X12217492Y-6136622D01*
X12222542Y-6134938D01*
X12227593Y-6129888D01*
X12229277Y-6124837D01*
X12229277Y-6121470D01*
X12227593Y-6116419D01*
X12214125Y-6102950D01*
X12257898Y-6160192D02*
X12281468Y-6136622D01*
X12236011Y-6165243D02*
X12252847Y-6131571D01*
X12274734Y-6153458D01*
X12271367Y-6197231D02*
X12274734Y-6200598D01*
X12279784Y-6202282D01*
X12283152Y-6202282D01*
X12288202Y-6200598D01*
X12296620Y-6195547D01*
X12305038Y-6187129D01*
X12310089Y-6178712D01*
X12311773Y-6173661D01*
X12311773Y-6170294D01*
X12310089Y-6165243D01*
X12306722Y-6161876D01*
X12301671Y-6160192D01*
X12298304Y-6160192D01*
X12293253Y-6161876D01*
X12284835Y-6166926D01*
X12276417Y-6175344D01*
X12271367Y-6183762D01*
X12269683Y-6188813D01*
X12269683Y-6192180D01*
X12271367Y-6197231D01*
X12140117Y-7353338D02*
X12135066Y-7324717D01*
X12160320Y-7333135D02*
X12124965Y-7297780D01*
X12111496Y-7311248D01*
X12109812Y-7316299D01*
X12109812Y-7319666D01*
X12111496Y-7324717D01*
X12116547Y-7329768D01*
X12121597Y-7331451D01*
X12124965Y-7331451D01*
X12130015Y-7329768D01*
X12143484Y-7316299D01*
X12092976Y-7329768D02*
X12071090Y-7351654D01*
X12096344Y-7353338D01*
X12091293Y-7358389D01*
X12089609Y-7363439D01*
X12089609Y-7366807D01*
X12091293Y-7371857D01*
X12099711Y-7380275D01*
X12104762Y-7381959D01*
X12108129Y-7381959D01*
X12113180Y-7380275D01*
X12123281Y-7370174D01*
X12124965Y-7365123D01*
X12124965Y-7361756D01*
X12089609Y-7403846D02*
X12082875Y-7410580D01*
X12077824Y-7412264D01*
X12074457Y-7412264D01*
X12066039Y-7410580D01*
X12057621Y-7405529D01*
X12044152Y-7392060D01*
X12042469Y-7387010D01*
X12042469Y-7383643D01*
X12044152Y-7378592D01*
X12050887Y-7371857D01*
X12055938Y-7370174D01*
X12059305Y-7370174D01*
X12064355Y-7371857D01*
X12072773Y-7380275D01*
X12074457Y-7385326D01*
X12074457Y-7388693D01*
X12072773Y-7393744D01*
X12066039Y-7400478D01*
X12060988Y-7402162D01*
X12057621Y-7402162D01*
X12052570Y-7400478D01*
X11936917Y-7556538D02*
X11931866Y-7527917D01*
X11957120Y-7536335D02*
X11921765Y-7500980D01*
X11908296Y-7514448D01*
X11906612Y-7519499D01*
X11906612Y-7522866D01*
X11908296Y-7527917D01*
X11913347Y-7532968D01*
X11918397Y-7534651D01*
X11921765Y-7534651D01*
X11926815Y-7532968D01*
X11940284Y-7519499D01*
X11889776Y-7532968D02*
X11867890Y-7554854D01*
X11893144Y-7556538D01*
X11888093Y-7561589D01*
X11886409Y-7566639D01*
X11886409Y-7570007D01*
X11888093Y-7575057D01*
X11896511Y-7583475D01*
X11901562Y-7585159D01*
X11904929Y-7585159D01*
X11909980Y-7583475D01*
X11920081Y-7573374D01*
X11921765Y-7568323D01*
X11921765Y-7564956D01*
X11862839Y-7590210D02*
X11864523Y-7585159D01*
X11864523Y-7581792D01*
X11862839Y-7576741D01*
X11861155Y-7575057D01*
X11856105Y-7573374D01*
X11852738Y-7573374D01*
X11847687Y-7575057D01*
X11840952Y-7581792D01*
X11839269Y-7586843D01*
X11839269Y-7590210D01*
X11840952Y-7595260D01*
X11842636Y-7596944D01*
X11847687Y-7598628D01*
X11851054Y-7598628D01*
X11856105Y-7596944D01*
X11862839Y-7590210D01*
X11867890Y-7588526D01*
X11871257Y-7588526D01*
X11876308Y-7590210D01*
X11883042Y-7596944D01*
X11884726Y-7601995D01*
X11884726Y-7605362D01*
X11883042Y-7610413D01*
X11876308Y-7617147D01*
X11871257Y-7618831D01*
X11867890Y-7618831D01*
X11862839Y-7617147D01*
X11856105Y-7610413D01*
X11854421Y-7605362D01*
X11854421Y-7601995D01*
X11856105Y-7596944D01*
X12392870Y-7893834D02*
X12364249Y-7898885D01*
X12372667Y-7873631D02*
X12337312Y-7908987D01*
X12350780Y-7922455D01*
X12355831Y-7924139D01*
X12359198Y-7924139D01*
X12364249Y-7922455D01*
X12369300Y-7917405D01*
X12370984Y-7912354D01*
X12370984Y-7908987D01*
X12369300Y-7903936D01*
X12355831Y-7890467D01*
X12369300Y-7940975D02*
X12391187Y-7962861D01*
X12392870Y-7937608D01*
X12397921Y-7942658D01*
X12402972Y-7944342D01*
X12406339Y-7944342D01*
X12411390Y-7942658D01*
X12419808Y-7934240D01*
X12421491Y-7929190D01*
X12421491Y-7925822D01*
X12419808Y-7920772D01*
X12409706Y-7910670D01*
X12404655Y-7908987D01*
X12401288Y-7908987D01*
X12402972Y-7974646D02*
X12426542Y-7998217D01*
X12446745Y-7947709D01*
X12139110Y-6686350D02*
X12110489Y-6691401D01*
X12118907Y-6666147D02*
X12083552Y-6701502D01*
X12097020Y-6714971D01*
X12102071Y-6716654D01*
X12105438Y-6716654D01*
X12110489Y-6714971D01*
X12115540Y-6709920D01*
X12117223Y-6704869D01*
X12117223Y-6701502D01*
X12115540Y-6696451D01*
X12102071Y-6682983D01*
X12115540Y-6733490D02*
X12137426Y-6755377D01*
X12139110Y-6730123D01*
X12144161Y-6735174D01*
X12149212Y-6736857D01*
X12152579Y-6736857D01*
X12157630Y-6735174D01*
X12166047Y-6726756D01*
X12167731Y-6721705D01*
X12167731Y-6718338D01*
X12166047Y-6713287D01*
X12155946Y-6703186D01*
X12150895Y-6701502D01*
X12147528Y-6701502D01*
X12167731Y-6785681D02*
X12160997Y-6778947D01*
X12159313Y-6773896D01*
X12159313Y-6770529D01*
X12160997Y-6762111D01*
X12166047Y-6753693D01*
X12179516Y-6740225D01*
X12184567Y-6738541D01*
X12187934Y-6738541D01*
X12192985Y-6740225D01*
X12199719Y-6746959D01*
X12201403Y-6752010D01*
X12201403Y-6755377D01*
X12199719Y-6760428D01*
X12191301Y-6768846D01*
X12186251Y-6770529D01*
X12182883Y-6770529D01*
X12177833Y-6768846D01*
X12171098Y-6762111D01*
X12169415Y-6757060D01*
X12169415Y-6753693D01*
X12171098Y-6748643D01*
X12527220Y-7759484D02*
X12498599Y-7764535D01*
X12507017Y-7739281D02*
X12471662Y-7774636D01*
X12485131Y-7788105D01*
X12490182Y-7789789D01*
X12493549Y-7789789D01*
X12498599Y-7788105D01*
X12503650Y-7783054D01*
X12505334Y-7778004D01*
X12505334Y-7774636D01*
X12503650Y-7769586D01*
X12490182Y-7756117D01*
X12503650Y-7806625D02*
X12525537Y-7828511D01*
X12527220Y-7803257D01*
X12532271Y-7808308D01*
X12537322Y-7809992D01*
X12540689Y-7809992D01*
X12545740Y-7808308D01*
X12554158Y-7799890D01*
X12555841Y-7794839D01*
X12555841Y-7791472D01*
X12554158Y-7786421D01*
X12544056Y-7776320D01*
X12539006Y-7774636D01*
X12535638Y-7774636D01*
X12557525Y-7860499D02*
X12540689Y-7843663D01*
X12555841Y-7825144D01*
X12555841Y-7828511D01*
X12557525Y-7833562D01*
X12565943Y-7841980D01*
X12570994Y-7843663D01*
X12574361Y-7843663D01*
X12579412Y-7841980D01*
X12587830Y-7833562D01*
X12589513Y-7828511D01*
X12589513Y-7825144D01*
X12587830Y-7820093D01*
X12579412Y-7811675D01*
X12574361Y-7809992D01*
X12570994Y-7809992D01*
X12741120Y-7549120D02*
X12712499Y-7554171D01*
X12720917Y-7528917D02*
X12685562Y-7564272D01*
X12699031Y-7577741D01*
X12704081Y-7579424D01*
X12707448Y-7579424D01*
X12712499Y-7577741D01*
X12717550Y-7572690D01*
X12719234Y-7567639D01*
X12719234Y-7564272D01*
X12717550Y-7559221D01*
X12704081Y-7545753D01*
X12717550Y-7596260D02*
X12739437Y-7618147D01*
X12741120Y-7592893D01*
X12746171Y-7597944D01*
X12751222Y-7599627D01*
X12754589Y-7599627D01*
X12759640Y-7597944D01*
X12768058Y-7589526D01*
X12769741Y-7584475D01*
X12769741Y-7581108D01*
X12768058Y-7576057D01*
X12757956Y-7565956D01*
X12752905Y-7564272D01*
X12749538Y-7564272D01*
X12781526Y-7636666D02*
X12805097Y-7613096D01*
X12759640Y-7641717D02*
X12776476Y-7608045D01*
X12798362Y-7629932D01*
D11*
X13772403Y-9249848D02*
X13829645Y-9192606D01*
X13839746Y-9189239D01*
X13846480Y-9189239D01*
X13856582Y-9192606D01*
X13870051Y-9206074D01*
X13873418Y-9216176D01*
X13873418Y-9222910D01*
X13870051Y-9233012D01*
X13812809Y-9290254D01*
X13839746Y-9317191D02*
X13883519Y-9360964D01*
X13886887Y-9310457D01*
X13896988Y-9320558D01*
X13907090Y-9323926D01*
X13913824Y-9323926D01*
X13923925Y-9320558D01*
X13940761Y-9303723D01*
X13944129Y-9293621D01*
X13944129Y-9286887D01*
X13940761Y-9276785D01*
X13920558Y-9256582D01*
X13910457Y-9253215D01*
X13903722Y-9253215D01*
D12*
X16365922Y-11457878D02*
X16411716Y-11412084D01*
X16419797Y-11409391D01*
X16425184Y-11409391D01*
X16433266Y-11412084D01*
X16444041Y-11422859D01*
X16446734Y-11430941D01*
X16446734Y-11436328D01*
X16444041Y-11444409D01*
X16398247Y-11490203D01*
X16484447Y-11463266D02*
X16495222Y-11474041D01*
X16497915Y-11482122D01*
X16497915Y-11487509D01*
X16495222Y-11500978D01*
X16487140Y-11514447D01*
X16465590Y-11535997D01*
X16457509Y-11538690D01*
X16452122Y-11538690D01*
X16444041Y-11535997D01*
X16433266Y-11525222D01*
X16430572Y-11517140D01*
X16430572Y-11511753D01*
X16433266Y-11503672D01*
X16446734Y-11490203D01*
X16454815Y-11487509D01*
X16460203Y-11487509D01*
X16468284Y-11490203D01*
X16479059Y-11500978D01*
X16481753Y-11509059D01*
X16481753Y-11514447D01*
X16479059Y-11522528D01*
X15814922Y-10905578D02*
X15860716Y-10859784D01*
X15868797Y-10857091D01*
X15874184Y-10857091D01*
X15882266Y-10859784D01*
X15893041Y-10870559D01*
X15895734Y-10878641D01*
X15895734Y-10884028D01*
X15893041Y-10892109D01*
X15847247Y-10937903D01*
X15906509Y-10948678D02*
X15898428Y-10945984D01*
X15893041Y-10945984D01*
X15884959Y-10948678D01*
X15882266Y-10951372D01*
X15879572Y-10959453D01*
X15879572Y-10964840D01*
X15882266Y-10972922D01*
X15893041Y-10983697D01*
X15901122Y-10986390D01*
X15906509Y-10986390D01*
X15914590Y-10983697D01*
X15917284Y-10981003D01*
X15919978Y-10972922D01*
X15919978Y-10967534D01*
X15917284Y-10959453D01*
X15906509Y-10948678D01*
X15903815Y-10940597D01*
X15903815Y-10935209D01*
X15906509Y-10927128D01*
X15917284Y-10916353D01*
X15925365Y-10913659D01*
X15930753Y-10913659D01*
X15938834Y-10916353D01*
X15949609Y-10927128D01*
X15952303Y-10935209D01*
X15952303Y-10940597D01*
X15949609Y-10948678D01*
X15938834Y-10959453D01*
X15930753Y-10962147D01*
X15925365Y-10962147D01*
X15917284Y-10959453D01*
D13*
X11924645Y-6134361D02*
X11941481Y-6117525D01*
X11906126Y-6082169D01*
X11882556Y-6112474D02*
X11879188Y-6112474D01*
X11874138Y-6114158D01*
X11865720Y-6122576D01*
X11864036Y-6127626D01*
X11864036Y-6130993D01*
X11865720Y-6136044D01*
X11869087Y-6139411D01*
X11875821Y-6142779D01*
X11916227Y-6142779D01*
X11894341Y-6164665D01*
X11860669Y-6198337D02*
X11880872Y-6178134D01*
X11870770Y-6188235D02*
X11835415Y-6152880D01*
X11843833Y-6154564D01*
X11850567Y-6154564D01*
X11855618Y-6152880D01*
X15733266Y-11561277D02*
X15716430Y-11544442D01*
X15681074Y-11579797D01*
X15711379Y-11603367D02*
X15711379Y-11606734D01*
X15713062Y-11611785D01*
X15721480Y-11620203D01*
X15726531Y-11621887D01*
X15729898Y-11621887D01*
X15734949Y-11620203D01*
X15738316Y-11616836D01*
X15741683Y-11610101D01*
X15741683Y-11569695D01*
X15763570Y-11591582D01*
X15750101Y-11648824D02*
X15753469Y-11652191D01*
X15758519Y-11653875D01*
X15761887Y-11653875D01*
X15766937Y-11652191D01*
X15775355Y-11647140D01*
X15783773Y-11638722D01*
X15788824Y-11630304D01*
X15790508Y-11625254D01*
X15790508Y-11621887D01*
X15788824Y-11616836D01*
X15785457Y-11613469D01*
X15780406Y-11611785D01*
X15777039Y-11611785D01*
X15771988Y-11613469D01*
X15763570Y-11618519D01*
X15755152Y-11626937D01*
X15750101Y-11635355D01*
X15748418Y-11640406D01*
X15748418Y-11643773D01*
X15750101Y-11648824D01*
X15464038Y-11374650D02*
X15480873Y-11357815D01*
X15445518Y-11322459D01*
X15433733Y-11404955D02*
X15453936Y-11384752D01*
X15443834Y-11394854D02*
X15408479Y-11359498D01*
X15416897Y-11361182D01*
X15423631Y-11361182D01*
X15428682Y-11359498D01*
X15416897Y-11421791D02*
X15410163Y-11428525D01*
X15405112Y-11430209D01*
X15401745Y-11430209D01*
X15393327Y-11428525D01*
X15384909Y-11423474D01*
X15371440Y-11410006D01*
X15369757Y-11404955D01*
X15369757Y-11401588D01*
X15371440Y-11396537D01*
X15378175Y-11389803D01*
X15383225Y-11388119D01*
X15386592Y-11388119D01*
X15391643Y-11389803D01*
X15400061Y-11398221D01*
X15401745Y-11403271D01*
X15401745Y-11406639D01*
X15400061Y-11411689D01*
X15393327Y-11418424D01*
X15388276Y-11420107D01*
X15384909Y-11420107D01*
X15379858Y-11418424D01*
D10*
X13541414Y-9085478D02*
X13536363Y-9056857D01*
X13561617Y-9065275D02*
X13526261Y-9029919D01*
X13512793Y-9043388D01*
X13511109Y-9048439D01*
X13511109Y-9051806D01*
X13512793Y-9056857D01*
X13517843Y-9061908D01*
X13522894Y-9063591D01*
X13526261Y-9063591D01*
X13531312Y-9061908D01*
X13544781Y-9048439D01*
X13495957Y-9066958D02*
X13492590Y-9066958D01*
X13487539Y-9068642D01*
X13479121Y-9077060D01*
X13477437Y-9082111D01*
X13477437Y-9085478D01*
X13479121Y-9090529D01*
X13482488Y-9093896D01*
X13489222Y-9097263D01*
X13529629Y-9097263D01*
X13507742Y-9119150D01*
X13467336Y-9119150D02*
X13469019Y-9114099D01*
X13469019Y-9110732D01*
X13467336Y-9105681D01*
X13465652Y-9103997D01*
X13460601Y-9102314D01*
X13457234Y-9102314D01*
X13452183Y-9103997D01*
X13445449Y-9110732D01*
X13443766Y-9115782D01*
X13443766Y-9119150D01*
X13445449Y-9124200D01*
X13447133Y-9125884D01*
X13452183Y-9127567D01*
X13455551Y-9127567D01*
X13460601Y-9125884D01*
X13467336Y-9119150D01*
X13472387Y-9117466D01*
X13475754Y-9117466D01*
X13480804Y-9119150D01*
X13487539Y-9125884D01*
X13489222Y-9130935D01*
X13489222Y-9134302D01*
X13487539Y-9139353D01*
X13480804Y-9146087D01*
X13475754Y-9147770D01*
X13472387Y-9147770D01*
X13467336Y-9146087D01*
X13460601Y-9139353D01*
X13458918Y-9134302D01*
X13458918Y-9130935D01*
X13460601Y-9125884D01*
D14*
X11828819Y-6934637D02*
X11866027Y-6897429D01*
X11872593Y-6895241D01*
X11876970Y-6895241D01*
X11883536Y-6897429D01*
X11892291Y-6906184D01*
X11894479Y-6912750D01*
X11894479Y-6917127D01*
X11892291Y-6923693D01*
X11855083Y-6960901D01*
X11947007Y-6960901D02*
X11920743Y-6934637D01*
X11933875Y-6947769D02*
X11887913Y-6993730D01*
X11890102Y-6982787D01*
X11890102Y-6974033D01*
X11887913Y-6967467D01*
X11929498Y-7035315D02*
X11933875Y-7039692D01*
X11940441Y-7041881D01*
X11944819Y-7041881D01*
X11951385Y-7039692D01*
X11962328Y-7033126D01*
X11973271Y-7022183D01*
X11979837Y-7011240D01*
X11982026Y-7004674D01*
X11982026Y-7000296D01*
X11979837Y-6993730D01*
X11975460Y-6989353D01*
X11968894Y-6987165D01*
X11964517Y-6987165D01*
X11957951Y-6989353D01*
X11947007Y-6995919D01*
X11936064Y-7006862D01*
X11929498Y-7017806D01*
X11927309Y-7024372D01*
X11927309Y-7028749D01*
X11929498Y-7035315D01*
D13*
X12647597Y-11690829D02*
X12647597Y-11687462D01*
X12644230Y-11680728D01*
X12640863Y-11677361D01*
X12634128Y-11673993D01*
X12627394Y-11673993D01*
X12622343Y-11675677D01*
X12613925Y-11680728D01*
X12608874Y-11685779D01*
X12603824Y-11694197D01*
X12602140Y-11699247D01*
X12602140Y-11705982D01*
X12605507Y-11712716D01*
X12608874Y-11716083D01*
X12615609Y-11719450D01*
X12618976Y-11719450D01*
X12627394Y-11734603D02*
X12649281Y-11756489D01*
X12650964Y-11731235D01*
X12656015Y-11736286D01*
X12661066Y-11737970D01*
X12664433Y-11737970D01*
X12669484Y-11736286D01*
X12677902Y-11727868D01*
X12679585Y-11722818D01*
X12679585Y-11719450D01*
X12677902Y-11714400D01*
X12667800Y-11704298D01*
X12662749Y-11702614D01*
X12659382Y-11702614D01*
X12671167Y-11778376D02*
X12674534Y-11781743D01*
X12679585Y-11783427D01*
X12682952Y-11783427D01*
X12688003Y-11781743D01*
X12696421Y-11776692D01*
X12704839Y-11768274D01*
X12709890Y-11759856D01*
X12711573Y-11754806D01*
X12711573Y-11751439D01*
X12709890Y-11746388D01*
X12706523Y-11743021D01*
X12701472Y-11741337D01*
X12698105Y-11741337D01*
X12693054Y-11743021D01*
X12684636Y-11748071D01*
X12676218Y-11756489D01*
X12671167Y-11764907D01*
X12669484Y-11769958D01*
X12669484Y-11773325D01*
X12671167Y-11778376D01*
X13324827Y-9828167D02*
X13328194Y-9828167D01*
X13334928Y-9824800D01*
X13338295Y-9821432D01*
X13341663Y-9814698D01*
X13341663Y-9807964D01*
X13339979Y-9802913D01*
X13334928Y-9794495D01*
X13329877Y-9789444D01*
X13321459Y-9784393D01*
X13316409Y-9782710D01*
X13309674Y-9782710D01*
X13302940Y-9786077D01*
X13299573Y-9789444D01*
X13296206Y-9796179D01*
X13296206Y-9799546D01*
X13282737Y-9813014D02*
X13279370Y-9813014D01*
X13274319Y-9814698D01*
X13265901Y-9823116D01*
X13264217Y-9828167D01*
X13264217Y-9831534D01*
X13265901Y-9836585D01*
X13269268Y-9839952D01*
X13276003Y-9843319D01*
X13316409Y-9843319D01*
X13294522Y-9865206D01*
X13254116Y-9865206D02*
X13255800Y-9860155D01*
X13255800Y-9856788D01*
X13254116Y-9851737D01*
X13252432Y-9850053D01*
X13247382Y-9848370D01*
X13244014Y-9848370D01*
X13238964Y-9850053D01*
X13232229Y-9856788D01*
X13230546Y-9861839D01*
X13230546Y-9865206D01*
X13232229Y-9870256D01*
X13233913Y-9871940D01*
X13238964Y-9873624D01*
X13242331Y-9873624D01*
X13247382Y-9871940D01*
X13254116Y-9865206D01*
X13259167Y-9863522D01*
X13262534Y-9863522D01*
X13267585Y-9865206D01*
X13274319Y-9871940D01*
X13276003Y-9876991D01*
X13276003Y-9880358D01*
X13274319Y-9885409D01*
X13267585Y-9892143D01*
X13262534Y-9893827D01*
X13259167Y-9893827D01*
X13254116Y-9892143D01*
X13247382Y-9885409D01*
X13245698Y-9880358D01*
X13245698Y-9876991D01*
X13247382Y-9871940D01*
X12260898Y-11299645D02*
X12260898Y-11296277D01*
X12257531Y-11289543D01*
X12254164Y-11286176D01*
X12247430Y-11282809D01*
X12240695Y-11282809D01*
X12235645Y-11284492D01*
X12227227Y-11289543D01*
X12222176Y-11294594D01*
X12217125Y-11303012D01*
X12215442Y-11308062D01*
X12215442Y-11314797D01*
X12218809Y-11321531D01*
X12222176Y-11324898D01*
X12228910Y-11328266D01*
X12232277Y-11328266D01*
X12245746Y-11341734D02*
X12245746Y-11345101D01*
X12247430Y-11350152D01*
X12255848Y-11358570D01*
X12260898Y-11360254D01*
X12264266Y-11360254D01*
X12269316Y-11358570D01*
X12272683Y-11355203D01*
X12276051Y-11348469D01*
X12276051Y-11308062D01*
X12297937Y-11329949D01*
X12274367Y-11377090D02*
X12297937Y-11400660D01*
X12318140Y-11350152D01*
X13181143Y-9684483D02*
X13184510Y-9684483D01*
X13191244Y-9681115D01*
X13194611Y-9677748D01*
X13197979Y-9671014D01*
X13197979Y-9664280D01*
X13196295Y-9659229D01*
X13191244Y-9650811D01*
X13186193Y-9645760D01*
X13177775Y-9640709D01*
X13172725Y-9639026D01*
X13165990Y-9639026D01*
X13159256Y-9642393D01*
X13155889Y-9645760D01*
X13152522Y-9652495D01*
X13152522Y-9655862D01*
X13139053Y-9669330D02*
X13135686Y-9669330D01*
X13130635Y-9671014D01*
X13122217Y-9679432D01*
X13120533Y-9684483D01*
X13120533Y-9687850D01*
X13122217Y-9692901D01*
X13125584Y-9696268D01*
X13132319Y-9699635D01*
X13172725Y-9699635D01*
X13150838Y-9721522D01*
X13117166Y-9755193D02*
X13137369Y-9734990D01*
X13127268Y-9745092D02*
X13091912Y-9709736D01*
X13100330Y-9711420D01*
X13107065Y-9711420D01*
X13112116Y-9709736D01*
D11*
X14787403Y-10264848D02*
X14844645Y-10207606D01*
X14854746Y-10204239D01*
X14861480Y-10204239D01*
X14871582Y-10207606D01*
X14885051Y-10221074D01*
X14888418Y-10231176D01*
X14888418Y-10237910D01*
X14885051Y-10248012D01*
X14827809Y-10305254D01*
X14854746Y-10332191D02*
X14901887Y-10379332D01*
X14942293Y-10278316D01*
X12835825Y-11020248D02*
X12893067Y-10963006D01*
X12903169Y-10959639D01*
X12909903Y-10959639D01*
X12920004Y-10963006D01*
X12933473Y-10976475D01*
X12936840Y-10986576D01*
X12936840Y-10993310D01*
X12933473Y-11003412D01*
X12876231Y-11060654D01*
X12963778Y-11101060D02*
X13010918Y-11053920D01*
X12920004Y-11111162D02*
X12953676Y-11043818D01*
X12997449Y-11087591D01*
D10*
X15645632Y-13081619D02*
X15645632Y-13031619D01*
X15633727Y-13031619D01*
X15626584Y-13034000D01*
X15621822Y-13038762D01*
X15619441Y-13043524D01*
X15617061Y-13053048D01*
X15617061Y-13060190D01*
X15619441Y-13069714D01*
X15621822Y-13074476D01*
X15626584Y-13079238D01*
X15633727Y-13081619D01*
X15645632Y-13081619D01*
X15574203Y-13031619D02*
X15583727Y-13031619D01*
X15588489Y-13034000D01*
X15590870Y-13036381D01*
X15595632Y-13043524D01*
X15598013Y-13053048D01*
X15598013Y-13072095D01*
X15595632Y-13076857D01*
X15593251Y-13079238D01*
X15588489Y-13081619D01*
X15578965Y-13081619D01*
X15574203Y-13079238D01*
X15571822Y-13076857D01*
X15569441Y-13072095D01*
X15569441Y-13060190D01*
X15571822Y-13055428D01*
X15574203Y-13053048D01*
X15578965Y-13050667D01*
X15588489Y-13050667D01*
X15593251Y-13053048D01*
X15595632Y-13055428D01*
X15598013Y-13060190D01*
X18806224Y-7696806D02*
X18756224Y-7696806D01*
X18756224Y-7708711D01*
X18758605Y-7715853D01*
X18763366Y-7720615D01*
X18768128Y-7722996D01*
X18777652Y-7725377D01*
X18784795Y-7725377D01*
X18794319Y-7722996D01*
X18799081Y-7720615D01*
X18803843Y-7715853D01*
X18806224Y-7708711D01*
X18806224Y-7696806D01*
X18756224Y-7742044D02*
X18756224Y-7772996D01*
X18775271Y-7756330D01*
X18775271Y-7763473D01*
X18777652Y-7768234D01*
X18780033Y-7770615D01*
X18784795Y-7772996D01*
X18796700Y-7772996D01*
X18801462Y-7770615D01*
X18803843Y-7768234D01*
X18806224Y-7763473D01*
X18806224Y-7749187D01*
X18803843Y-7744425D01*
X18801462Y-7742044D01*
X10948619Y-8327095D02*
X10898619Y-8327095D01*
X10898619Y-8339000D01*
X10901000Y-8346143D01*
X10905762Y-8350905D01*
X10910524Y-8353286D01*
X10920048Y-8355667D01*
X10927190Y-8355667D01*
X10936714Y-8353286D01*
X10941476Y-8350905D01*
X10946238Y-8346143D01*
X10948619Y-8339000D01*
X10948619Y-8327095D01*
X10898619Y-8400905D02*
X10898619Y-8377095D01*
X10922429Y-8374714D01*
X10920048Y-8377095D01*
X10917667Y-8381857D01*
X10917667Y-8393762D01*
X10920048Y-8398524D01*
X10922429Y-8400905D01*
X10927190Y-8403286D01*
X10939095Y-8403286D01*
X10943857Y-8400905D01*
X10946238Y-8398524D01*
X10948619Y-8393762D01*
X10948619Y-8381857D01*
X10946238Y-8377095D01*
X10943857Y-8374714D01*
D11*
X17442679Y-11672297D02*
X17371969Y-11601586D01*
X17355133Y-11618422D01*
X17348399Y-11631891D01*
X17348399Y-11645359D01*
X17351766Y-11655461D01*
X17361867Y-11672297D01*
X17371969Y-11682398D01*
X17388805Y-11692500D01*
X17398906Y-11695867D01*
X17412375Y-11695867D01*
X17425844Y-11689133D01*
X17442679Y-11672297D01*
X17311360Y-11675664D02*
X17304625Y-11675664D01*
X17294524Y-11679031D01*
X17277688Y-11695867D01*
X17274321Y-11705969D01*
X17274321Y-11712703D01*
X17277688Y-11722804D01*
X17284422Y-11729539D01*
X17297891Y-11736273D01*
X17378703Y-11736273D01*
X17334930Y-11780046D01*
D13*
X12150285Y-7672125D02*
X12150285Y-7668758D01*
X12146917Y-7662024D01*
X12143550Y-7658656D01*
X12136816Y-7655289D01*
X12130082Y-7655289D01*
X12125031Y-7656973D01*
X12116613Y-7662024D01*
X12111562Y-7667074D01*
X12106511Y-7675492D01*
X12104828Y-7680543D01*
X12104828Y-7687277D01*
X12108195Y-7694012D01*
X12111562Y-7697379D01*
X12118296Y-7700746D01*
X12121664Y-7700746D01*
X12148601Y-7734418D02*
X12141867Y-7727684D01*
X12140183Y-7722633D01*
X12140183Y-7719266D01*
X12141867Y-7710848D01*
X12146917Y-7702430D01*
X12160386Y-7688961D01*
X12165437Y-7687277D01*
X12168804Y-7687277D01*
X12173855Y-7688961D01*
X12180589Y-7695695D01*
X12182273Y-7700746D01*
X12182273Y-7704113D01*
X12180589Y-7709164D01*
X12172171Y-7717582D01*
X12167120Y-7719266D01*
X12163753Y-7719266D01*
X12158703Y-7717582D01*
X12151968Y-7710848D01*
X12150285Y-7705797D01*
X12150285Y-7702430D01*
X12151968Y-7697379D01*
X12182273Y-7768090D02*
X12175538Y-7761355D01*
X12173855Y-7756305D01*
X12173855Y-7752937D01*
X12175538Y-7744519D01*
X12180589Y-7736101D01*
X12194058Y-7722633D01*
X12199109Y-7720949D01*
X12202476Y-7720949D01*
X12207527Y-7722633D01*
X12214261Y-7729367D01*
X12215944Y-7734418D01*
X12215944Y-7737785D01*
X12214261Y-7742836D01*
X12205843Y-7751254D01*
X12200792Y-7752937D01*
X12197425Y-7752937D01*
X12192374Y-7751254D01*
X12185640Y-7744519D01*
X12183956Y-7739469D01*
X12183956Y-7736101D01*
X12185640Y-7731051D01*
X12524685Y-6503370D02*
X12528052Y-6503370D01*
X12534786Y-6500003D01*
X12538153Y-6496635D01*
X12541521Y-6489901D01*
X12541521Y-6483167D01*
X12539837Y-6478116D01*
X12534786Y-6469698D01*
X12529735Y-6464647D01*
X12521317Y-6459596D01*
X12516267Y-6457913D01*
X12509532Y-6457913D01*
X12502798Y-6461280D01*
X12499431Y-6464647D01*
X12496064Y-6471382D01*
X12496064Y-6474749D01*
X12462392Y-6501686D02*
X12469126Y-6494952D01*
X12474177Y-6493268D01*
X12477544Y-6493268D01*
X12485962Y-6494952D01*
X12494380Y-6500003D01*
X12507849Y-6513471D01*
X12509532Y-6518522D01*
X12509532Y-6521889D01*
X12507849Y-6526940D01*
X12501114Y-6533674D01*
X12496064Y-6535358D01*
X12492696Y-6535358D01*
X12487646Y-6533674D01*
X12479228Y-6525256D01*
X12477544Y-6520206D01*
X12477544Y-6516838D01*
X12479228Y-6511788D01*
X12485962Y-6505053D01*
X12491013Y-6503370D01*
X12494380Y-6503370D01*
X12499431Y-6505053D01*
X12427037Y-6537042D02*
X12443872Y-6520206D01*
X12462392Y-6535358D01*
X12459025Y-6535358D01*
X12453974Y-6537042D01*
X12445556Y-6545459D01*
X12443872Y-6550510D01*
X12443872Y-6553877D01*
X12445556Y-6558928D01*
X12453974Y-6567346D01*
X12459025Y-6569030D01*
X12462392Y-6569030D01*
X12467443Y-6567346D01*
X12475861Y-6558928D01*
X12477544Y-6553877D01*
X12477544Y-6550510D01*
X12297579Y-7522435D02*
X12297579Y-7519068D01*
X12294212Y-7512333D01*
X12290845Y-7508966D01*
X12284110Y-7505599D01*
X12277376Y-7505599D01*
X12272325Y-7507283D01*
X12263907Y-7512333D01*
X12258857Y-7517384D01*
X12253806Y-7525802D01*
X12252122Y-7530853D01*
X12252122Y-7537587D01*
X12255489Y-7544322D01*
X12258857Y-7547689D01*
X12265591Y-7551056D01*
X12268958Y-7551056D01*
X12295896Y-7584728D02*
X12289161Y-7577993D01*
X12287478Y-7572943D01*
X12287478Y-7569575D01*
X12289161Y-7561157D01*
X12294212Y-7552740D01*
X12307681Y-7539271D01*
X12312731Y-7537587D01*
X12316099Y-7537587D01*
X12321149Y-7539271D01*
X12327884Y-7546005D01*
X12329567Y-7551056D01*
X12329567Y-7554423D01*
X12327884Y-7559474D01*
X12319466Y-7567892D01*
X12314415Y-7569575D01*
X12311048Y-7569575D01*
X12305997Y-7567892D01*
X12299263Y-7561157D01*
X12297579Y-7556107D01*
X12297579Y-7552740D01*
X12299263Y-7547689D01*
X12341352Y-7606614D02*
X12364923Y-7583044D01*
X12319466Y-7611665D02*
X12336302Y-7577993D01*
X12358188Y-7599880D01*
X12388984Y-6370369D02*
X12392352Y-6370369D01*
X12399086Y-6367002D01*
X12402453Y-6363635D01*
X12405820Y-6356901D01*
X12405820Y-6350166D01*
X12404137Y-6345116D01*
X12399086Y-6336698D01*
X12394035Y-6331647D01*
X12385617Y-6326596D01*
X12380566Y-6324913D01*
X12373832Y-6324913D01*
X12367098Y-6328280D01*
X12363731Y-6331647D01*
X12360363Y-6338381D01*
X12360363Y-6341748D01*
X12326692Y-6368686D02*
X12333426Y-6361952D01*
X12338477Y-6360268D01*
X12341844Y-6360268D01*
X12350262Y-6361952D01*
X12358680Y-6367002D01*
X12372148Y-6380471D01*
X12373832Y-6385522D01*
X12373832Y-6388889D01*
X12372148Y-6393940D01*
X12365414Y-6400674D01*
X12360363Y-6402358D01*
X12356996Y-6402358D01*
X12351945Y-6400674D01*
X12343527Y-6392256D01*
X12341844Y-6387205D01*
X12341844Y-6383838D01*
X12343527Y-6378787D01*
X12350262Y-6372053D01*
X12355313Y-6370369D01*
X12358680Y-6370369D01*
X12363731Y-6372053D01*
X12311539Y-6383838D02*
X12289653Y-6405725D01*
X12314906Y-6407408D01*
X12309856Y-6412459D01*
X12308172Y-6417510D01*
X12308172Y-6420877D01*
X12309856Y-6425928D01*
X12318274Y-6434346D01*
X12323324Y-6436029D01*
X12326692Y-6436029D01*
X12331742Y-6434346D01*
X12341844Y-6424244D01*
X12343527Y-6419194D01*
X12343527Y-6415826D01*
D10*
X13428277Y-8972341D02*
X13423226Y-8943720D01*
X13448480Y-8952138D02*
X13413124Y-8916782D01*
X13399656Y-8930251D01*
X13397972Y-8935302D01*
X13397972Y-8938669D01*
X13399656Y-8943720D01*
X13404706Y-8948770D01*
X13409757Y-8950454D01*
X13413124Y-8950454D01*
X13418175Y-8948770D01*
X13431644Y-8935302D01*
X13374402Y-8979075D02*
X13397972Y-9002645D01*
X13369351Y-8957188D02*
X13403023Y-8974024D01*
X13381136Y-8995911D01*
X13327261Y-9002645D02*
X13344097Y-8985809D01*
X13362617Y-9000962D01*
X13359249Y-9000962D01*
X13354199Y-9002645D01*
X13345781Y-9011063D01*
X13344097Y-9016114D01*
X13344097Y-9019481D01*
X13345781Y-9024532D01*
X13354199Y-9032950D01*
X13359249Y-9034633D01*
X13362617Y-9034633D01*
X13367667Y-9032950D01*
X13376085Y-9024532D01*
X13377769Y-9019481D01*
X13377769Y-9016114D01*
X13619195Y-8781422D02*
X13614145Y-8752801D01*
X13639398Y-8761219D02*
X13604043Y-8725863D01*
X13590574Y-8739332D01*
X13588891Y-8744383D01*
X13588891Y-8747750D01*
X13590574Y-8752801D01*
X13595625Y-8757852D01*
X13600676Y-8759535D01*
X13604043Y-8759535D01*
X13609094Y-8757852D01*
X13622563Y-8744383D01*
X13565321Y-8788156D02*
X13588891Y-8811726D01*
X13560270Y-8766270D02*
X13593942Y-8783105D01*
X13572055Y-8804992D01*
X13531649Y-8821828D02*
X13555219Y-8845398D01*
X13526598Y-8799941D02*
X13560270Y-8816777D01*
X13538383Y-8838664D01*
X14446510Y-10004717D02*
X14441460Y-9976096D01*
X14466713Y-9984513D02*
X14431358Y-9949158D01*
X14417889Y-9962627D01*
X14416206Y-9967678D01*
X14416206Y-9971045D01*
X14417889Y-9976096D01*
X14422940Y-9981146D01*
X14427991Y-9982830D01*
X14431358Y-9982830D01*
X14436409Y-9981146D01*
X14449877Y-9967678D01*
X14392636Y-10011451D02*
X14416206Y-10035021D01*
X14387585Y-9989564D02*
X14421257Y-10006400D01*
X14399370Y-10028287D01*
X14365698Y-10014818D02*
X14343811Y-10036705D01*
X14369065Y-10038388D01*
X14364015Y-10043439D01*
X14362331Y-10048490D01*
X14362331Y-10051857D01*
X14364015Y-10056908D01*
X14372432Y-10065326D01*
X14377483Y-10067009D01*
X14380850Y-10067009D01*
X14385901Y-10065326D01*
X14396003Y-10055224D01*
X14397686Y-10050173D01*
X14397686Y-10046806D01*
X14644500Y-9806727D02*
X14639449Y-9778106D01*
X14664703Y-9786524D02*
X14629348Y-9751168D01*
X14615879Y-9764637D01*
X14614196Y-9769688D01*
X14614196Y-9773055D01*
X14615879Y-9778106D01*
X14620930Y-9783156D01*
X14625981Y-9784840D01*
X14629348Y-9784840D01*
X14634399Y-9783156D01*
X14647867Y-9769688D01*
X14590625Y-9813461D02*
X14614196Y-9837031D01*
X14585575Y-9791574D02*
X14619246Y-9808410D01*
X14597360Y-9830297D01*
X14565372Y-9821879D02*
X14562004Y-9821879D01*
X14556954Y-9823563D01*
X14548536Y-9831980D01*
X14546852Y-9837031D01*
X14546852Y-9840398D01*
X14548536Y-9845449D01*
X14551903Y-9848816D01*
X14558637Y-9852184D01*
X14599043Y-9852184D01*
X14577157Y-9874070D01*
D13*
X12943722Y-8705766D02*
X12960558Y-8688930D01*
X12925203Y-8653574D01*
X12901633Y-8683879D02*
X12898266Y-8683879D01*
X12893215Y-8685563D01*
X12884797Y-8693981D01*
X12883113Y-8699031D01*
X12883113Y-8702398D01*
X12884797Y-8707449D01*
X12888164Y-8710816D01*
X12894898Y-8714184D01*
X12935304Y-8714184D01*
X12913418Y-8736070D01*
X12867961Y-8717551D02*
X12864594Y-8717551D01*
X12859543Y-8719234D01*
X12851125Y-8727652D01*
X12849442Y-8732703D01*
X12849442Y-8736070D01*
X12851125Y-8741121D01*
X12854492Y-8744488D01*
X12861227Y-8747855D01*
X12901633Y-8747855D01*
X12879746Y-8769742D01*
D10*
X12614690Y-6698444D02*
X12586069Y-6703495D01*
X12594487Y-6678241D02*
X12559132Y-6713597D01*
X12572601Y-6727065D01*
X12577652Y-6728749D01*
X12581019Y-6728749D01*
X12586069Y-6727065D01*
X12591120Y-6722015D01*
X12592804Y-6716964D01*
X12592804Y-6713597D01*
X12591120Y-6708546D01*
X12577652Y-6695077D01*
X12591120Y-6745585D02*
X12613007Y-6767471D01*
X12614690Y-6742218D01*
X12619741Y-6747268D01*
X12624792Y-6748952D01*
X12628159Y-6748952D01*
X12633210Y-6747268D01*
X12641628Y-6738850D01*
X12643311Y-6733800D01*
X12643311Y-6730432D01*
X12641628Y-6725382D01*
X12631526Y-6715280D01*
X12626476Y-6713597D01*
X12623108Y-6713597D01*
X12624792Y-6779256D02*
X12646679Y-6801143D01*
X12648362Y-6775889D01*
X12653413Y-6780940D01*
X12658464Y-6782624D01*
X12661831Y-6782624D01*
X12666882Y-6780940D01*
X12675300Y-6772522D01*
X12676983Y-6767471D01*
X12676983Y-6764104D01*
X12675300Y-6759053D01*
X12665198Y-6748952D01*
X12660147Y-6747268D01*
X12656780Y-6747268D01*
X12134323Y-6223157D02*
X12105702Y-6228208D01*
X12114120Y-6202954D02*
X12078765Y-6238310D01*
X12092234Y-6251778D01*
X12097285Y-6253462D01*
X12100652Y-6253462D01*
X12105702Y-6251778D01*
X12110753Y-6246728D01*
X12112437Y-6241677D01*
X12112437Y-6238310D01*
X12110753Y-6233259D01*
X12097285Y-6219790D01*
X12110753Y-6270298D02*
X12132640Y-6292184D01*
X12134323Y-6266931D01*
X12139374Y-6271981D01*
X12144425Y-6273665D01*
X12147792Y-6273665D01*
X12152843Y-6271981D01*
X12161261Y-6263563D01*
X12162944Y-6258513D01*
X12162944Y-6255145D01*
X12161261Y-6250095D01*
X12151159Y-6239993D01*
X12146109Y-6238310D01*
X12142741Y-6238310D01*
X12149476Y-6302286D02*
X12149476Y-6305653D01*
X12151159Y-6310704D01*
X12159577Y-6319122D01*
X12164628Y-6320805D01*
X12167995Y-6320805D01*
X12173046Y-6319122D01*
X12176413Y-6315755D01*
X12179780Y-6309020D01*
X12179780Y-6268614D01*
X12201667Y-6290501D01*
X12875471Y-7414769D02*
X12846850Y-7419820D01*
X12855267Y-7394566D02*
X12819912Y-7429922D01*
X12833381Y-7443390D01*
X12838432Y-7445074D01*
X12841799Y-7445074D01*
X12846850Y-7443390D01*
X12851900Y-7438340D01*
X12853584Y-7433289D01*
X12853584Y-7429922D01*
X12851900Y-7424871D01*
X12838432Y-7411402D01*
X12851900Y-7461910D02*
X12873787Y-7483797D01*
X12875471Y-7458543D01*
X12880521Y-7463594D01*
X12885572Y-7465277D01*
X12888939Y-7465277D01*
X12893990Y-7463594D01*
X12902408Y-7455176D01*
X12904092Y-7450125D01*
X12904092Y-7446758D01*
X12902408Y-7441707D01*
X12892306Y-7431605D01*
X12887256Y-7429922D01*
X12883888Y-7429922D01*
X12942814Y-7482113D02*
X12922611Y-7461910D01*
X12932713Y-7472011D02*
X12897357Y-7507367D01*
X12899041Y-7498949D01*
X12899041Y-7492215D01*
X12897357Y-7487164D01*
X12343317Y-7150138D02*
X12338266Y-7121517D01*
X12363520Y-7129935D02*
X12328165Y-7094580D01*
X12314696Y-7108048D01*
X12313012Y-7113099D01*
X12313012Y-7116466D01*
X12314696Y-7121517D01*
X12319747Y-7126568D01*
X12324797Y-7128251D01*
X12328165Y-7128251D01*
X12333215Y-7126568D01*
X12346684Y-7113099D01*
X12296176Y-7126568D02*
X12274290Y-7148454D01*
X12299544Y-7150138D01*
X12294493Y-7155189D01*
X12292809Y-7160239D01*
X12292809Y-7163607D01*
X12294493Y-7168657D01*
X12302911Y-7177075D01*
X12307962Y-7178759D01*
X12311329Y-7178759D01*
X12316380Y-7177075D01*
X12326481Y-7166974D01*
X12328165Y-7161923D01*
X12328165Y-7158556D01*
X12252403Y-7170341D02*
X12249036Y-7173708D01*
X12247352Y-7178759D01*
X12247352Y-7182126D01*
X12249036Y-7187177D01*
X12254087Y-7195595D01*
X12262505Y-7204013D01*
X12270923Y-7209064D01*
X12275973Y-7210747D01*
X12279341Y-7210747D01*
X12284391Y-7209064D01*
X12287759Y-7205696D01*
X12289442Y-7200646D01*
X12289442Y-7197278D01*
X12287759Y-7192228D01*
X12282708Y-7183810D01*
X12274290Y-7175392D01*
X12265872Y-7170341D01*
X12260821Y-7168657D01*
X12257454Y-7168657D01*
X12252403Y-7170341D01*
X12546517Y-6946938D02*
X12541466Y-6918317D01*
X12566720Y-6926735D02*
X12531365Y-6891379D01*
X12517896Y-6904848D01*
X12516212Y-6909899D01*
X12516212Y-6913266D01*
X12517896Y-6918317D01*
X12522947Y-6923368D01*
X12527997Y-6925051D01*
X12531365Y-6925051D01*
X12536415Y-6923368D01*
X12549884Y-6909899D01*
X12501060Y-6928418D02*
X12497693Y-6928418D01*
X12492642Y-6930102D01*
X12484224Y-6938520D01*
X12482541Y-6943571D01*
X12482541Y-6946938D01*
X12484224Y-6951989D01*
X12487591Y-6955356D01*
X12494326Y-6958723D01*
X12534732Y-6958723D01*
X12512845Y-6980610D01*
X12496009Y-6997445D02*
X12489275Y-7004180D01*
X12484224Y-7005863D01*
X12480857Y-7005863D01*
X12472439Y-7004180D01*
X12464021Y-6999129D01*
X12450552Y-6985660D01*
X12448869Y-6980610D01*
X12448869Y-6977242D01*
X12450552Y-6972192D01*
X12457287Y-6965457D01*
X12462338Y-6963774D01*
X12465705Y-6963774D01*
X12470755Y-6965457D01*
X12479173Y-6973875D01*
X12480857Y-6978926D01*
X12480857Y-6982293D01*
X12479173Y-6987344D01*
X12472439Y-6994078D01*
X12467388Y-6995762D01*
X12464021Y-6995762D01*
X12458970Y-6994078D01*
X13730310Y-8892536D02*
X13725259Y-8863915D01*
X13750513Y-8872333D02*
X13715158Y-8836978D01*
X13701689Y-8850447D01*
X13700005Y-8855498D01*
X13700005Y-8858865D01*
X13701689Y-8863915D01*
X13706740Y-8868966D01*
X13711791Y-8870650D01*
X13715158Y-8870650D01*
X13720208Y-8868966D01*
X13733677Y-8855498D01*
X13684853Y-8874017D02*
X13681486Y-8874017D01*
X13676435Y-8875701D01*
X13668017Y-8884119D01*
X13666334Y-8889169D01*
X13666334Y-8892536D01*
X13668017Y-8897587D01*
X13671384Y-8900954D01*
X13678119Y-8904322D01*
X13718525Y-8904322D01*
X13696638Y-8926208D01*
X13649498Y-8902638D02*
X13625928Y-8926208D01*
X13676435Y-8946411D01*
X14559647Y-10117854D02*
X14554597Y-10089233D01*
X14579850Y-10097651D02*
X14544495Y-10062295D01*
X14531026Y-10075764D01*
X14529343Y-10080815D01*
X14529343Y-10084182D01*
X14531026Y-10089233D01*
X14536077Y-10094283D01*
X14541128Y-10095967D01*
X14544495Y-10095967D01*
X14549546Y-10094283D01*
X14563015Y-10080815D01*
X14514191Y-10099334D02*
X14510823Y-10099334D01*
X14505773Y-10101018D01*
X14497355Y-10109436D01*
X14495671Y-10114486D01*
X14495671Y-10117854D01*
X14497355Y-10122904D01*
X14500722Y-10126272D01*
X14507456Y-10129639D01*
X14547862Y-10129639D01*
X14525976Y-10151525D01*
X14460316Y-10146475D02*
X14467050Y-10139740D01*
X14472101Y-10138057D01*
X14475468Y-10138057D01*
X14483886Y-10139740D01*
X14492304Y-10144791D01*
X14505773Y-10158260D01*
X14507456Y-10163311D01*
X14507456Y-10166678D01*
X14505773Y-10171728D01*
X14499038Y-10178463D01*
X14493987Y-10180146D01*
X14490620Y-10180146D01*
X14485570Y-10178463D01*
X14477152Y-10170045D01*
X14475468Y-10164994D01*
X14475468Y-10161627D01*
X14477152Y-10156576D01*
X14483886Y-10149842D01*
X14488937Y-10148158D01*
X14492304Y-10148158D01*
X14497355Y-10149842D01*
X14757637Y-9919864D02*
X14752587Y-9891243D01*
X14777840Y-9899661D02*
X14742485Y-9864305D01*
X14729016Y-9877774D01*
X14727333Y-9882825D01*
X14727333Y-9886192D01*
X14729016Y-9891243D01*
X14734067Y-9896294D01*
X14739118Y-9897977D01*
X14742485Y-9897977D01*
X14747536Y-9896294D01*
X14761004Y-9882825D01*
X14712180Y-9901344D02*
X14708813Y-9901344D01*
X14703763Y-9903028D01*
X14695345Y-9911446D01*
X14693661Y-9916497D01*
X14693661Y-9919864D01*
X14695345Y-9924915D01*
X14698712Y-9928282D01*
X14705446Y-9931649D01*
X14745852Y-9931649D01*
X14723966Y-9953536D01*
X14656622Y-9950168D02*
X14673458Y-9933332D01*
X14691977Y-9948485D01*
X14688610Y-9948485D01*
X14683559Y-9950168D01*
X14675142Y-9958586D01*
X14673458Y-9963637D01*
X14673458Y-9967004D01*
X14675142Y-9972055D01*
X14683559Y-9980473D01*
X14688610Y-9982156D01*
X14691977Y-9982156D01*
X14697028Y-9980473D01*
X14705446Y-9972055D01*
X14707130Y-9967004D01*
X14707130Y-9963637D01*
D11*
X17736239Y-11027269D02*
X17742973Y-11027269D01*
X17756442Y-11020534D01*
X17763176Y-11013800D01*
X17769911Y-11000331D01*
X17769911Y-10986863D01*
X17766544Y-10976761D01*
X17756442Y-10959925D01*
X17746341Y-10949824D01*
X17729505Y-10939722D01*
X17719403Y-10936355D01*
X17705934Y-10936355D01*
X17692466Y-10943089D01*
X17685731Y-10949824D01*
X17678997Y-10963292D01*
X17678997Y-10970027D01*
X17675630Y-11101347D02*
X17716036Y-11060940D01*
X17695833Y-11081144D02*
X17625122Y-11010433D01*
X17641958Y-11013800D01*
X17655427Y-11013800D01*
X17665528Y-11010433D01*
D13*
X14340515Y-10843855D02*
X14343882Y-10843855D01*
X14350616Y-10840488D01*
X14353984Y-10837121D01*
X14357351Y-10830386D01*
X14357351Y-10823652D01*
X14355667Y-10818601D01*
X14350616Y-10810183D01*
X14345566Y-10805133D01*
X14337148Y-10800082D01*
X14332097Y-10798398D01*
X14325363Y-10798398D01*
X14318628Y-10801765D01*
X14315261Y-10805133D01*
X14311894Y-10811867D01*
X14311894Y-10815234D01*
X14296742Y-10823652D02*
X14274855Y-10845539D01*
X14300109Y-10847222D01*
X14295058Y-10852273D01*
X14293374Y-10857324D01*
X14293374Y-10860691D01*
X14295058Y-10865742D01*
X14303476Y-10874160D01*
X14308527Y-10875843D01*
X14311894Y-10875843D01*
X14316945Y-10874160D01*
X14327046Y-10864058D01*
X14328730Y-10859007D01*
X14328730Y-10855640D01*
X14244550Y-10875843D02*
X14251285Y-10869109D01*
X14256335Y-10867425D01*
X14259703Y-10867425D01*
X14268121Y-10869109D01*
X14276539Y-10874160D01*
X14290007Y-10887628D01*
X14291691Y-10892679D01*
X14291691Y-10896046D01*
X14290007Y-10901097D01*
X14283273Y-10907832D01*
X14278222Y-10909515D01*
X14274855Y-10909515D01*
X14269804Y-10907832D01*
X14261386Y-10899414D01*
X14259703Y-10894363D01*
X14259703Y-10890996D01*
X14261386Y-10885945D01*
X14268121Y-10879211D01*
X14273171Y-10877527D01*
X14276539Y-10877527D01*
X14281589Y-10879211D01*
X14195699Y-10701302D02*
X14199066Y-10701302D01*
X14205801Y-10697935D01*
X14209168Y-10694568D01*
X14212535Y-10687834D01*
X14212535Y-10681099D01*
X14210852Y-10676048D01*
X14205801Y-10667631D01*
X14200750Y-10662580D01*
X14192332Y-10657529D01*
X14187281Y-10655845D01*
X14180547Y-10655845D01*
X14173813Y-10659213D01*
X14170445Y-10662580D01*
X14167078Y-10669314D01*
X14167078Y-10672681D01*
X14153610Y-10686150D02*
X14150242Y-10686150D01*
X14145192Y-10687834D01*
X14136774Y-10696252D01*
X14135090Y-10701302D01*
X14135090Y-10704669D01*
X14136774Y-10709720D01*
X14140141Y-10713087D01*
X14146875Y-10716455D01*
X14187281Y-10716455D01*
X14165395Y-10738341D01*
X14148559Y-10755177D02*
X14141824Y-10761911D01*
X14136774Y-10763595D01*
X14133406Y-10763595D01*
X14124989Y-10761911D01*
X14116571Y-10756861D01*
X14103102Y-10743392D01*
X14101418Y-10738341D01*
X14101418Y-10734974D01*
X14103102Y-10729923D01*
X14109836Y-10723189D01*
X14114887Y-10721505D01*
X14118254Y-10721505D01*
X14123305Y-10723189D01*
X14131723Y-10731607D01*
X14133406Y-10736658D01*
X14133406Y-10740025D01*
X14131723Y-10745076D01*
X14124989Y-10751810D01*
X14119938Y-10753493D01*
X14116571Y-10753493D01*
X14111520Y-10751810D01*
D10*
X12809093Y-11495639D02*
X12804042Y-11467018D01*
X12829296Y-11475436D02*
X12793940Y-11440081D01*
X12780472Y-11453549D01*
X12778788Y-11458600D01*
X12778788Y-11461967D01*
X12780472Y-11467018D01*
X12785522Y-11472069D01*
X12790573Y-11473752D01*
X12793940Y-11473752D01*
X12798991Y-11472069D01*
X12812460Y-11458600D01*
X12775421Y-11529311D02*
X12795624Y-11509108D01*
X12785522Y-11519209D02*
X12750167Y-11483854D01*
X12758585Y-11485537D01*
X12765319Y-11485537D01*
X12770370Y-11483854D01*
X12721546Y-11536045D02*
X12745116Y-11559615D01*
X12716495Y-11514158D02*
X12750167Y-11530994D01*
X12728280Y-11552881D01*
X13076747Y-10082981D02*
X13071696Y-10054360D01*
X13096950Y-10062778D02*
X13061594Y-10027423D01*
X13048126Y-10040891D01*
X13046442Y-10045942D01*
X13046442Y-10049309D01*
X13048126Y-10054360D01*
X13053176Y-10059411D01*
X13058227Y-10061094D01*
X13061594Y-10061094D01*
X13066645Y-10059411D01*
X13080114Y-10045942D01*
X13043075Y-10116653D02*
X13063278Y-10096450D01*
X13053176Y-10106551D02*
X13017821Y-10071196D01*
X13026239Y-10072880D01*
X13032973Y-10072880D01*
X13038024Y-10071196D01*
X12997618Y-10098133D02*
X12994251Y-10098133D01*
X12989200Y-10099817D01*
X12980782Y-10108235D01*
X12979099Y-10113286D01*
X12979099Y-10116653D01*
X12980782Y-10121704D01*
X12984149Y-10125071D01*
X12990884Y-10128438D01*
X13031290Y-10128438D01*
X13009403Y-10150325D01*
X12539685Y-11219047D02*
X12534634Y-11190426D01*
X12559888Y-11198844D02*
X12524533Y-11163489D01*
X12511064Y-11176958D01*
X12509380Y-11182008D01*
X12509380Y-11185375D01*
X12511064Y-11190426D01*
X12516115Y-11195477D01*
X12521165Y-11197161D01*
X12524533Y-11197161D01*
X12529583Y-11195477D01*
X12543052Y-11182008D01*
X12506013Y-11252719D02*
X12526216Y-11232516D01*
X12516115Y-11242617D02*
X12480759Y-11207262D01*
X12489177Y-11208946D01*
X12495912Y-11208946D01*
X12500962Y-11207262D01*
X12472341Y-11286391D02*
X12492544Y-11266188D01*
X12482443Y-11276289D02*
X12447088Y-11240934D01*
X12455506Y-11242617D01*
X12462240Y-11242617D01*
X12467291Y-11240934D01*
X12422942Y-11102304D02*
X12417891Y-11073683D01*
X12443145Y-11082101D02*
X12407789Y-11046746D01*
X12394321Y-11060214D01*
X12392637Y-11065265D01*
X12392637Y-11068632D01*
X12394321Y-11073683D01*
X12399371Y-11078734D01*
X12404422Y-11080417D01*
X12407789Y-11080417D01*
X12412840Y-11078734D01*
X12426309Y-11065265D01*
X12389270Y-11135976D02*
X12409473Y-11115773D01*
X12399371Y-11125874D02*
X12364016Y-11090519D01*
X12372434Y-11092202D01*
X12379168Y-11092202D01*
X12384219Y-11090519D01*
X12332028Y-11122507D02*
X12328661Y-11125874D01*
X12326977Y-11130925D01*
X12326977Y-11134292D01*
X12328661Y-11139343D01*
X12333711Y-11147761D01*
X12342129Y-11156179D01*
X12350547Y-11161230D01*
X12355598Y-11162913D01*
X12358965Y-11162913D01*
X12364016Y-11161230D01*
X12367383Y-11157862D01*
X12369067Y-11152812D01*
X12369067Y-11149444D01*
X12367383Y-11144394D01*
X12362332Y-11135976D01*
X12353914Y-11127558D01*
X12345496Y-11122507D01*
X12340446Y-11120823D01*
X12337079Y-11120823D01*
X12332028Y-11122507D01*
X12916227Y-9956133D02*
X12911176Y-9927512D01*
X12936430Y-9935930D02*
X12901075Y-9900574D01*
X12887606Y-9914043D01*
X12885922Y-9919094D01*
X12885922Y-9922461D01*
X12887606Y-9927512D01*
X12892657Y-9932563D01*
X12897707Y-9934246D01*
X12901075Y-9934246D01*
X12906125Y-9932563D01*
X12919594Y-9919094D01*
X12899391Y-9972969D02*
X12892657Y-9979703D01*
X12887606Y-9981387D01*
X12884239Y-9981387D01*
X12875821Y-9979703D01*
X12867403Y-9974652D01*
X12853934Y-9961184D01*
X12852251Y-9956133D01*
X12852251Y-9952766D01*
X12853934Y-9947715D01*
X12860668Y-9940981D01*
X12865719Y-9939297D01*
X12869086Y-9939297D01*
X12874137Y-9940981D01*
X12882555Y-9949398D01*
X12884239Y-9954449D01*
X12884239Y-9957816D01*
X12882555Y-9962867D01*
X12875821Y-9969602D01*
X12870770Y-9971285D01*
X12867403Y-9971285D01*
X12862352Y-9969602D01*
X12832600Y-9636777D02*
X12803979Y-9641827D01*
X12812396Y-9616574D02*
X12777041Y-9651929D01*
X12790510Y-9665398D01*
X12795561Y-9667081D01*
X12798928Y-9667081D01*
X12803979Y-9665398D01*
X12809029Y-9660347D01*
X12810713Y-9655296D01*
X12810713Y-9651929D01*
X12809029Y-9646878D01*
X12795561Y-9633409D01*
X12832600Y-9677183D02*
X12827549Y-9675499D01*
X12824182Y-9675499D01*
X12819131Y-9677183D01*
X12817447Y-9678866D01*
X12815764Y-9683917D01*
X12815764Y-9687284D01*
X12817447Y-9692335D01*
X12824182Y-9699069D01*
X12829232Y-9700753D01*
X12832600Y-9700753D01*
X12837650Y-9699069D01*
X12839334Y-9697386D01*
X12841017Y-9692335D01*
X12841017Y-9688968D01*
X12839334Y-9683917D01*
X12832600Y-9677183D01*
X12830916Y-9672132D01*
X12830916Y-9668765D01*
X12832600Y-9663714D01*
X12839334Y-9656980D01*
X12844385Y-9655296D01*
X12847752Y-9655296D01*
X12852803Y-9656980D01*
X12859537Y-9663714D01*
X12861221Y-9668765D01*
X12861221Y-9672132D01*
X12859537Y-9677183D01*
X12852803Y-9683917D01*
X12847752Y-9685601D01*
X12844385Y-9685601D01*
X12839334Y-9683917D01*
X13335494Y-10139671D02*
X13306873Y-10144722D01*
X13315291Y-10119468D02*
X13279936Y-10154823D01*
X13293404Y-10168292D01*
X13298455Y-10169976D01*
X13301822Y-10169976D01*
X13306873Y-10168292D01*
X13311924Y-10163241D01*
X13313607Y-10158190D01*
X13313607Y-10154823D01*
X13311924Y-10149772D01*
X13298455Y-10136304D01*
X13311924Y-10186811D02*
X13335494Y-10210382D01*
X13355697Y-10159874D01*
X14334346Y-11138523D02*
X14305725Y-11143574D01*
X14314143Y-11118320D02*
X14278788Y-11153675D01*
X14292257Y-11167144D01*
X14297307Y-11168828D01*
X14300674Y-11168828D01*
X14305725Y-11167144D01*
X14310776Y-11162093D01*
X14312460Y-11157042D01*
X14312460Y-11153675D01*
X14310776Y-11148625D01*
X14297307Y-11135156D01*
X14368018Y-11172195D02*
X14347815Y-11151992D01*
X14357916Y-11162093D02*
X14322561Y-11197448D01*
X14324245Y-11189031D01*
X14324245Y-11182296D01*
X14322561Y-11177246D01*
X14368018Y-11212601D02*
X14362967Y-11210917D01*
X14359600Y-11210917D01*
X14354549Y-11212601D01*
X14352866Y-11214284D01*
X14351182Y-11219335D01*
X14351182Y-11222702D01*
X14352866Y-11227753D01*
X14359600Y-11234487D01*
X14364651Y-11236171D01*
X14368018Y-11236171D01*
X14373069Y-11234487D01*
X14374752Y-11232804D01*
X14376436Y-11227753D01*
X14376436Y-11224386D01*
X14374752Y-11219335D01*
X14368018Y-11212601D01*
X14366334Y-11207550D01*
X14366334Y-11204183D01*
X14368018Y-11199132D01*
X14374752Y-11192398D01*
X14379803Y-11190714D01*
X14383170Y-11190714D01*
X14388221Y-11192398D01*
X14394955Y-11199132D01*
X14396639Y-11204183D01*
X14396639Y-11207550D01*
X14394955Y-11212601D01*
X14388221Y-11219335D01*
X14383170Y-11221019D01*
X14379803Y-11221019D01*
X14374752Y-11219335D01*
X13831452Y-10635629D02*
X13802831Y-10640680D01*
X13811249Y-10615426D02*
X13775893Y-10650781D01*
X13789362Y-10664250D01*
X13794413Y-10665934D01*
X13797780Y-10665934D01*
X13802831Y-10664250D01*
X13807881Y-10659199D01*
X13809565Y-10654148D01*
X13809565Y-10650781D01*
X13807881Y-10645731D01*
X13794413Y-10632262D01*
X13865123Y-10669301D02*
X13844920Y-10649098D01*
X13855022Y-10659199D02*
X13819667Y-10694555D01*
X13821350Y-10686137D01*
X13821350Y-10679402D01*
X13819667Y-10674352D01*
X13841553Y-10716441D02*
X13865123Y-10740011D01*
X13885326Y-10689504D01*
X14092435Y-11098669D02*
X14087384Y-11070048D01*
X14112638Y-11078466D02*
X14077283Y-11043111D01*
X14063814Y-11056580D01*
X14062130Y-11061630D01*
X14062130Y-11064997D01*
X14063814Y-11070048D01*
X14068865Y-11075099D01*
X14073915Y-11076783D01*
X14077283Y-11076783D01*
X14082333Y-11075099D01*
X14095802Y-11061630D01*
X14058763Y-11132341D02*
X14078966Y-11112138D01*
X14068865Y-11122239D02*
X14033509Y-11086884D01*
X14041927Y-11088568D01*
X14048662Y-11088568D01*
X14053712Y-11086884D01*
X13993103Y-11127290D02*
X13999838Y-11120556D01*
X14004888Y-11118872D01*
X14008256Y-11118872D01*
X14016673Y-11120556D01*
X14025091Y-11125607D01*
X14038560Y-11139075D01*
X14040244Y-11144126D01*
X14040244Y-11147493D01*
X14038560Y-11152544D01*
X14031826Y-11159278D01*
X14026775Y-11160962D01*
X14023408Y-11160962D01*
X14018357Y-11159278D01*
X14009939Y-11150860D01*
X14008256Y-11145810D01*
X14008256Y-11142443D01*
X14009939Y-11137392D01*
X14016673Y-11130657D01*
X14021724Y-11128974D01*
X14025091Y-11128974D01*
X14030142Y-11130657D01*
X12925836Y-11612382D02*
X12920785Y-11583761D01*
X12946039Y-11592179D02*
X12910684Y-11556824D01*
X12897215Y-11570293D01*
X12895531Y-11575344D01*
X12895531Y-11578711D01*
X12897215Y-11583761D01*
X12902266Y-11588812D01*
X12907316Y-11590496D01*
X12910684Y-11590496D01*
X12915734Y-11588812D01*
X12929203Y-11575344D01*
X12892164Y-11646054D02*
X12912367Y-11625851D01*
X12902266Y-11635953D02*
X12866910Y-11600597D01*
X12875328Y-11602281D01*
X12882063Y-11602281D01*
X12887113Y-11600597D01*
X12824821Y-11642687D02*
X12841657Y-11625851D01*
X12860176Y-11641003D01*
X12856809Y-11641003D01*
X12851758Y-11642687D01*
X12843340Y-11651105D01*
X12841657Y-11656156D01*
X12841657Y-11659523D01*
X12843340Y-11664574D01*
X12851758Y-11672992D01*
X12856809Y-11674675D01*
X12860176Y-11674675D01*
X12865227Y-11672992D01*
X12873645Y-11664574D01*
X12875328Y-11659523D01*
X12875328Y-11656156D01*
X15650886Y-5965619D02*
X15650886Y-5915619D01*
X15638981Y-5915619D01*
X15631838Y-5918000D01*
X15627076Y-5922762D01*
X15624695Y-5927524D01*
X15622315Y-5937048D01*
X15622315Y-5944190D01*
X15624695Y-5953714D01*
X15627076Y-5958476D01*
X15631838Y-5963238D01*
X15638981Y-5965619D01*
X15650886Y-5965619D01*
X15598505Y-5965619D02*
X15588981Y-5965619D01*
X15584219Y-5963238D01*
X15581838Y-5960857D01*
X15577076Y-5953714D01*
X15574695Y-5944190D01*
X15574695Y-5925143D01*
X15577076Y-5920381D01*
X15579457Y-5918000D01*
X15584219Y-5915619D01*
X15593743Y-5915619D01*
X15598505Y-5918000D01*
X15600886Y-5920381D01*
X15603267Y-5925143D01*
X15603267Y-5937048D01*
X15600886Y-5941809D01*
X15598505Y-5944190D01*
X15593743Y-5946571D01*
X15584219Y-5946571D01*
X15579457Y-5944190D01*
X15577076Y-5941809D01*
X15574695Y-5937048D01*
X15645632Y-12721619D02*
X15645632Y-12671619D01*
X15633727Y-12671619D01*
X15626584Y-12674000D01*
X15621822Y-12678762D01*
X15619441Y-12683524D01*
X15617061Y-12693048D01*
X15617061Y-12700190D01*
X15619441Y-12709714D01*
X15621822Y-12714476D01*
X15626584Y-12719238D01*
X15633727Y-12721619D01*
X15645632Y-12721619D01*
X15600394Y-12671619D02*
X15567061Y-12671619D01*
X15588489Y-12721619D01*
X11318619Y-8327095D02*
X11268619Y-8327095D01*
X11268619Y-8339000D01*
X11271000Y-8346143D01*
X11275762Y-8350905D01*
X11280524Y-8353286D01*
X11290048Y-8355667D01*
X11297190Y-8355667D01*
X11306714Y-8353286D01*
X11311476Y-8350905D01*
X11316238Y-8346143D01*
X11318619Y-8339000D01*
X11318619Y-8327095D01*
X11285286Y-8398524D02*
X11318619Y-8398524D01*
X11266238Y-8386619D02*
X11301952Y-8374714D01*
X11301952Y-8405667D01*
X19190924Y-7696806D02*
X19140924Y-7696806D01*
X19140924Y-7708711D01*
X19143305Y-7715853D01*
X19148066Y-7720615D01*
X19152828Y-7722996D01*
X19162352Y-7725377D01*
X19169495Y-7725377D01*
X19179019Y-7722996D01*
X19183781Y-7720615D01*
X19188543Y-7715853D01*
X19190924Y-7708711D01*
X19190924Y-7696806D01*
X19190924Y-7772996D02*
X19190924Y-7744425D01*
X19190924Y-7758711D02*
X19140924Y-7758711D01*
X19148066Y-7753949D01*
X19152828Y-7749187D01*
X19155209Y-7744425D01*
X15652905Y-5610619D02*
X15652905Y-5560619D01*
X15641000Y-5560619D01*
X15633857Y-5563000D01*
X15629095Y-5567762D01*
X15626714Y-5572524D01*
X15624333Y-5582048D01*
X15624333Y-5589190D01*
X15626714Y-5598714D01*
X15629095Y-5603476D01*
X15633857Y-5608238D01*
X15641000Y-5610619D01*
X15652905Y-5610619D01*
X15595762Y-5582048D02*
X15600524Y-5579667D01*
X15602905Y-5577286D01*
X15605286Y-5572524D01*
X15605286Y-5570143D01*
X15602905Y-5565381D01*
X15600524Y-5563000D01*
X15595762Y-5560619D01*
X15586238Y-5560619D01*
X15581476Y-5563000D01*
X15579095Y-5565381D01*
X15576714Y-5570143D01*
X15576714Y-5572524D01*
X15579095Y-5577286D01*
X15581476Y-5579667D01*
X15586238Y-5582048D01*
X15595762Y-5582048D01*
X15600524Y-5584429D01*
X15602905Y-5586810D01*
X15605286Y-5591571D01*
X15605286Y-5601095D01*
X15602905Y-5605857D01*
X15600524Y-5608238D01*
X15595762Y-5610619D01*
X15586238Y-5610619D01*
X15581476Y-5608238D01*
X15579095Y-5605857D01*
X15576714Y-5601095D01*
X15576714Y-5591571D01*
X15579095Y-5586810D01*
X15581476Y-5584429D01*
X15586238Y-5582048D01*
D13*
X12496767Y-7325643D02*
X12496767Y-7322276D01*
X12493400Y-7315541D01*
X12490033Y-7312174D01*
X12483298Y-7308807D01*
X12476564Y-7308807D01*
X12471513Y-7310491D01*
X12463095Y-7315541D01*
X12458044Y-7320592D01*
X12452994Y-7329010D01*
X12451310Y-7334061D01*
X12451310Y-7340795D01*
X12454677Y-7347530D01*
X12458044Y-7350897D01*
X12464779Y-7354264D01*
X12468146Y-7354264D01*
X12495083Y-7387936D02*
X12488349Y-7381201D01*
X12486665Y-7376151D01*
X12486665Y-7372783D01*
X12488349Y-7364365D01*
X12493400Y-7355948D01*
X12506869Y-7342479D01*
X12511919Y-7340795D01*
X12515286Y-7340795D01*
X12520337Y-7342479D01*
X12527072Y-7349213D01*
X12528755Y-7354264D01*
X12528755Y-7357631D01*
X12527072Y-7362682D01*
X12518654Y-7371100D01*
X12513603Y-7372783D01*
X12510236Y-7372783D01*
X12505185Y-7371100D01*
X12498451Y-7364365D01*
X12496767Y-7359315D01*
X12496767Y-7355948D01*
X12498451Y-7350897D01*
X12515286Y-7401404D02*
X12515286Y-7404772D01*
X12516970Y-7409822D01*
X12525388Y-7418240D01*
X12530439Y-7419924D01*
X12533806Y-7419924D01*
X12538857Y-7418240D01*
X12542224Y-7414873D01*
X12545591Y-7408139D01*
X12545591Y-7367733D01*
X12567478Y-7389619D01*
X12645259Y-7177150D02*
X12645259Y-7173783D01*
X12641892Y-7167049D01*
X12638525Y-7163682D01*
X12631791Y-7160315D01*
X12625056Y-7160315D01*
X12620005Y-7161998D01*
X12611588Y-7167049D01*
X12606537Y-7172100D01*
X12601486Y-7180518D01*
X12599802Y-7185568D01*
X12599802Y-7192303D01*
X12603170Y-7199037D01*
X12606537Y-7202404D01*
X12613271Y-7205771D01*
X12616638Y-7205771D01*
X12643576Y-7239443D02*
X12636841Y-7232709D01*
X12635158Y-7227658D01*
X12635158Y-7224291D01*
X12636841Y-7215873D01*
X12641892Y-7207455D01*
X12655361Y-7193986D01*
X12660412Y-7192303D01*
X12663779Y-7192303D01*
X12668830Y-7193986D01*
X12675564Y-7200721D01*
X12677247Y-7205771D01*
X12677247Y-7209139D01*
X12675564Y-7214189D01*
X12667146Y-7222607D01*
X12662095Y-7224291D01*
X12658728Y-7224291D01*
X12653677Y-7222607D01*
X12646943Y-7215873D01*
X12645259Y-7210822D01*
X12645259Y-7207455D01*
X12646943Y-7202404D01*
X12715970Y-7241127D02*
X12695767Y-7220924D01*
X12705868Y-7231025D02*
X12670513Y-7266381D01*
X12672197Y-7257963D01*
X12672197Y-7251228D01*
X12670513Y-7246178D01*
X16354898Y-10274645D02*
X16354898Y-10271277D01*
X16351531Y-10264543D01*
X16348164Y-10261176D01*
X16341430Y-10257809D01*
X16334695Y-10257809D01*
X16329645Y-10259492D01*
X16321227Y-10264543D01*
X16316176Y-10269594D01*
X16311125Y-10278012D01*
X16309442Y-10283063D01*
X16309442Y-10289797D01*
X16312809Y-10296531D01*
X16316176Y-10299898D01*
X16322910Y-10303266D01*
X16326277Y-10303266D01*
X16354898Y-10338621D02*
X16338062Y-10321785D01*
X16353215Y-10303266D01*
X16353215Y-10306633D01*
X16354898Y-10311684D01*
X16363316Y-10320102D01*
X16368367Y-10321785D01*
X16371734Y-10321785D01*
X16376785Y-10320102D01*
X16385203Y-10311684D01*
X16386887Y-10306633D01*
X16386887Y-10303266D01*
X16385203Y-10298215D01*
X16376785Y-10289797D01*
X16371734Y-10288113D01*
X16368367Y-10288113D01*
X16368367Y-10352090D02*
X16390254Y-10373976D01*
X16391937Y-10348723D01*
X16396988Y-10353773D01*
X16402039Y-10355457D01*
X16405406Y-10355457D01*
X16410457Y-10353773D01*
X16418875Y-10345355D01*
X16420558Y-10340305D01*
X16420558Y-10336937D01*
X16418875Y-10331887D01*
X16408773Y-10321785D01*
X16403722Y-10320102D01*
X16400355Y-10320102D01*
X16862398Y-10794645D02*
X16862398Y-10791277D01*
X16859031Y-10784543D01*
X16855664Y-10781176D01*
X16848930Y-10777809D01*
X16842195Y-10777809D01*
X16837145Y-10779492D01*
X16828727Y-10784543D01*
X16823676Y-10789594D01*
X16818625Y-10798012D01*
X16816942Y-10803063D01*
X16816942Y-10809797D01*
X16820309Y-10816531D01*
X16823676Y-10819898D01*
X16830410Y-10823266D01*
X16833777Y-10823266D01*
X16862398Y-10858621D02*
X16845563Y-10841785D01*
X16860715Y-10823266D01*
X16860715Y-10826633D01*
X16862398Y-10831684D01*
X16870816Y-10840102D01*
X16875867Y-10841785D01*
X16879234Y-10841785D01*
X16884285Y-10840102D01*
X16892703Y-10831684D01*
X16894387Y-10826633D01*
X16894387Y-10823266D01*
X16892703Y-10818215D01*
X16884285Y-10809797D01*
X16879234Y-10808113D01*
X16875867Y-10808113D01*
X16875867Y-10872090D02*
X16899437Y-10895660D01*
X16919640Y-10845152D01*
X17046734Y-10681481D02*
X17046734Y-10678113D01*
X17043367Y-10671379D01*
X17040000Y-10668012D01*
X17033266Y-10664645D01*
X17026531Y-10664645D01*
X17021481Y-10666328D01*
X17013063Y-10671379D01*
X17008012Y-10676430D01*
X17002961Y-10684848D01*
X17001277Y-10689898D01*
X17001277Y-10696633D01*
X17004645Y-10703367D01*
X17008012Y-10706734D01*
X17014746Y-10710102D01*
X17018113Y-10710102D01*
X17031582Y-10723570D02*
X17031582Y-10726937D01*
X17033266Y-10731988D01*
X17041684Y-10740406D01*
X17046734Y-10742090D01*
X17050102Y-10742090D01*
X17055152Y-10740406D01*
X17058519Y-10737039D01*
X17061887Y-10730305D01*
X17061887Y-10689898D01*
X17083773Y-10711785D01*
X12836730Y-9158524D02*
X12840097Y-9158524D01*
X12846832Y-9155156D01*
X12850199Y-9151789D01*
X12853566Y-9145055D01*
X12853566Y-9138321D01*
X12851882Y-9133270D01*
X12846832Y-9124852D01*
X12841781Y-9119801D01*
X12833363Y-9114750D01*
X12828312Y-9113067D01*
X12821578Y-9113067D01*
X12814843Y-9116434D01*
X12811476Y-9119801D01*
X12808109Y-9126535D01*
X12808109Y-9129903D01*
X12792957Y-9138321D02*
X12769387Y-9161891D01*
X12819894Y-9182094D01*
X13773519Y-10244234D02*
X13776887Y-10244234D01*
X13783621Y-10240867D01*
X13786988Y-10237500D01*
X13790355Y-10230766D01*
X13790355Y-10224031D01*
X13788672Y-10218981D01*
X13783621Y-10210563D01*
X13778570Y-10205512D01*
X13770152Y-10200461D01*
X13765101Y-10198777D01*
X13758367Y-10198777D01*
X13751633Y-10202145D01*
X13748266Y-10205512D01*
X13744898Y-10212246D01*
X13744898Y-10215613D01*
X13736480Y-10247602D02*
X13738164Y-10242551D01*
X13738164Y-10239184D01*
X13736480Y-10234133D01*
X13734797Y-10232449D01*
X13729746Y-10230766D01*
X13726379Y-10230766D01*
X13721328Y-10232449D01*
X13714594Y-10239184D01*
X13712910Y-10244234D01*
X13712910Y-10247602D01*
X13714594Y-10252652D01*
X13716277Y-10254336D01*
X13721328Y-10256019D01*
X13724695Y-10256019D01*
X13729746Y-10254336D01*
X13736480Y-10247602D01*
X13741531Y-10245918D01*
X13744898Y-10245918D01*
X13749949Y-10247602D01*
X13756683Y-10254336D01*
X13758367Y-10259387D01*
X13758367Y-10262754D01*
X13756683Y-10267805D01*
X13749949Y-10274539D01*
X13744898Y-10276223D01*
X13741531Y-10276223D01*
X13736480Y-10274539D01*
X13729746Y-10267805D01*
X13728062Y-10262754D01*
X13728062Y-10259387D01*
X13729746Y-10254336D01*
X13308524Y-11540770D02*
X13308524Y-11537403D01*
X13305156Y-11530668D01*
X13301789Y-11527301D01*
X13295055Y-11523934D01*
X13288320Y-11523934D01*
X13283270Y-11525617D01*
X13274852Y-11530668D01*
X13269801Y-11535719D01*
X13264750Y-11544137D01*
X13263067Y-11549188D01*
X13263067Y-11555922D01*
X13266434Y-11562656D01*
X13269801Y-11566024D01*
X13276535Y-11569391D01*
X13279903Y-11569391D01*
X13328727Y-11554238D02*
X13335461Y-11560973D01*
X13337145Y-11566024D01*
X13337145Y-11569391D01*
X13335461Y-11577809D01*
X13330410Y-11586227D01*
X13316941Y-11599695D01*
X13311891Y-11601379D01*
X13308524Y-11601379D01*
X13303473Y-11599695D01*
X13296738Y-11592961D01*
X13295055Y-11587910D01*
X13295055Y-11584543D01*
X13296738Y-11579492D01*
X13305156Y-11571074D01*
X13310207Y-11569391D01*
X13313574Y-11569391D01*
X13318625Y-11571074D01*
X13325359Y-11577809D01*
X13327043Y-11582859D01*
X13327043Y-11586227D01*
X13325359Y-11591277D01*
X12616066Y-11409188D02*
X12619433Y-11409188D01*
X12626167Y-11405820D01*
X12629535Y-11402453D01*
X12632902Y-11395719D01*
X12632902Y-11388985D01*
X12631218Y-11383934D01*
X12626167Y-11375516D01*
X12621117Y-11370465D01*
X12612699Y-11365414D01*
X12607648Y-11363731D01*
X12600914Y-11363731D01*
X12594179Y-11367098D01*
X12590812Y-11370465D01*
X12587445Y-11377200D01*
X12587445Y-11380567D01*
X12585761Y-11446227D02*
X12605964Y-11426024D01*
X12595863Y-11436125D02*
X12560508Y-11400770D01*
X12568925Y-11402453D01*
X12575660Y-11402453D01*
X12580711Y-11400770D01*
X12528519Y-11432758D02*
X12525152Y-11436125D01*
X12523469Y-11441176D01*
X12523469Y-11444543D01*
X12525152Y-11449594D01*
X12530203Y-11458012D01*
X12538621Y-11466430D01*
X12547039Y-11471480D01*
X12552090Y-11473164D01*
X12555457Y-11473164D01*
X12560508Y-11471480D01*
X12563875Y-11468113D01*
X12565558Y-11463062D01*
X12565558Y-11459695D01*
X12563875Y-11454645D01*
X12558824Y-11446227D01*
X12550406Y-11437809D01*
X12541988Y-11432758D01*
X12536937Y-11431074D01*
X12533570Y-11431074D01*
X12528519Y-11432758D01*
X12586052Y-10542052D02*
X12586052Y-10538685D01*
X12582684Y-10531950D01*
X12579317Y-10528583D01*
X12572583Y-10525216D01*
X12565849Y-10525216D01*
X12560798Y-10526899D01*
X12552380Y-10531950D01*
X12547329Y-10537001D01*
X12542278Y-10545419D01*
X12540595Y-10550470D01*
X12540595Y-10557204D01*
X12543962Y-10563938D01*
X12547329Y-10567306D01*
X12554063Y-10570673D01*
X12557431Y-10570673D01*
X12623091Y-10572356D02*
X12602887Y-10552153D01*
X12612989Y-10562255D02*
X12577634Y-10597610D01*
X12579317Y-10589192D01*
X12579317Y-10582458D01*
X12577634Y-10577407D01*
X12618040Y-10638016D02*
X12611305Y-10631282D01*
X12609622Y-10626231D01*
X12609622Y-10622864D01*
X12611305Y-10614446D01*
X12616356Y-10606028D01*
X12629825Y-10592559D01*
X12634876Y-10590876D01*
X12638243Y-10590876D01*
X12643294Y-10592559D01*
X12650028Y-10599294D01*
X12651711Y-10604345D01*
X12651711Y-10607712D01*
X12650028Y-10612762D01*
X12641610Y-10621180D01*
X12636559Y-10622864D01*
X12633192Y-10622864D01*
X12628141Y-10621180D01*
X12621407Y-10614446D01*
X12619723Y-10609395D01*
X12619723Y-10606028D01*
X12621407Y-10600977D01*
X14434898Y-9087145D02*
X14434898Y-9083777D01*
X14431531Y-9077043D01*
X14428164Y-9073676D01*
X14421430Y-9070309D01*
X14414695Y-9070309D01*
X14409645Y-9071992D01*
X14401227Y-9077043D01*
X14396176Y-9082094D01*
X14391125Y-9090512D01*
X14389442Y-9095563D01*
X14389442Y-9102297D01*
X14392809Y-9109031D01*
X14396176Y-9112398D01*
X14402910Y-9115766D01*
X14406277Y-9115766D01*
X14419746Y-9129234D02*
X14419746Y-9132602D01*
X14421430Y-9137652D01*
X14429848Y-9146070D01*
X14434898Y-9147754D01*
X14438266Y-9147754D01*
X14443316Y-9146070D01*
X14446683Y-9142703D01*
X14450051Y-9135969D01*
X14450051Y-9095563D01*
X14471937Y-9117449D01*
X14458469Y-9174691D02*
X14461836Y-9178058D01*
X14466887Y-9179742D01*
X14470254Y-9179742D01*
X14475304Y-9178058D01*
X14483722Y-9173008D01*
X14492140Y-9164590D01*
X14497191Y-9156172D01*
X14498875Y-9151121D01*
X14498875Y-9147754D01*
X14497191Y-9142703D01*
X14493824Y-9139336D01*
X14488773Y-9137652D01*
X14485406Y-9137652D01*
X14480355Y-9139336D01*
X14471937Y-9144387D01*
X14463519Y-9152805D01*
X14458469Y-9161223D01*
X14456785Y-9166273D01*
X14456785Y-9169640D01*
X14458469Y-9174691D01*
X13439188Y-11378934D02*
X13439188Y-11375567D01*
X13435820Y-11368832D01*
X13432453Y-11365465D01*
X13425719Y-11362098D01*
X13418985Y-11362098D01*
X13413934Y-11363782D01*
X13405516Y-11368832D01*
X13400465Y-11373883D01*
X13395414Y-11382301D01*
X13393731Y-11387352D01*
X13393731Y-11394086D01*
X13397098Y-11400820D01*
X13400465Y-11404188D01*
X13407200Y-11407555D01*
X13410567Y-11407555D01*
X13449289Y-11429441D02*
X13472859Y-11405871D01*
X13427403Y-11434492D02*
X13444238Y-11400820D01*
X13466125Y-11422707D01*
X13462758Y-11466480D02*
X13466125Y-11469848D01*
X13471176Y-11471531D01*
X13474543Y-11471531D01*
X13479594Y-11469848D01*
X13488012Y-11464797D01*
X13496430Y-11456379D01*
X13501480Y-11447961D01*
X13503164Y-11442910D01*
X13503164Y-11439543D01*
X13501480Y-11434492D01*
X13498113Y-11431125D01*
X13493062Y-11429441D01*
X13489695Y-11429441D01*
X13484645Y-11431125D01*
X13476227Y-11436176D01*
X13467809Y-11444594D01*
X13462758Y-11453012D01*
X13461074Y-11458062D01*
X13461074Y-11461430D01*
X13462758Y-11466480D01*
X15467398Y-10109645D02*
X15467398Y-10106277D01*
X15464031Y-10099543D01*
X15460664Y-10096176D01*
X15453930Y-10092809D01*
X15447195Y-10092809D01*
X15442145Y-10094492D01*
X15433727Y-10099543D01*
X15428676Y-10104594D01*
X15423625Y-10113012D01*
X15421942Y-10118063D01*
X15421942Y-10124797D01*
X15425309Y-10131531D01*
X15428676Y-10134898D01*
X15435410Y-10138266D01*
X15438777Y-10138266D01*
X15477500Y-10160152D02*
X15501070Y-10136582D01*
X15455613Y-10165203D02*
X15472449Y-10131531D01*
X15494336Y-10153418D01*
X15538109Y-10173621D02*
X15517906Y-10153418D01*
X15528008Y-10163519D02*
X15492652Y-10198875D01*
X15494336Y-10190457D01*
X15494336Y-10183723D01*
X15492652Y-10178672D01*
X14060355Y-9954898D02*
X14063722Y-9954898D01*
X14070457Y-9951531D01*
X14073824Y-9948164D01*
X14077191Y-9941430D01*
X14077191Y-9934695D01*
X14075508Y-9929645D01*
X14070457Y-9921227D01*
X14065406Y-9916176D01*
X14056988Y-9911125D01*
X14051937Y-9909442D01*
X14045203Y-9909442D01*
X14038469Y-9912809D01*
X14035101Y-9916176D01*
X14031734Y-9922910D01*
X14031734Y-9926277D01*
X14009848Y-9965000D02*
X14033418Y-9988570D01*
X14004797Y-9943113D02*
X14038469Y-9959949D01*
X14016582Y-9981836D01*
X13982910Y-9968367D02*
X13959340Y-9991937D01*
X14009848Y-10012140D01*
X14900355Y-11152398D02*
X14903722Y-11152398D01*
X14910457Y-11149031D01*
X14913824Y-11145664D01*
X14917191Y-11138930D01*
X14917191Y-11132195D01*
X14915508Y-11127145D01*
X14910457Y-11118727D01*
X14905406Y-11113676D01*
X14896988Y-11108625D01*
X14891937Y-11106942D01*
X14885203Y-11106942D01*
X14878469Y-11110309D01*
X14875101Y-11113676D01*
X14871734Y-11120410D01*
X14871734Y-11123777D01*
X14836379Y-11152398D02*
X14853215Y-11135563D01*
X14871734Y-11150715D01*
X14868367Y-11150715D01*
X14863316Y-11152398D01*
X14854898Y-11160816D01*
X14853215Y-11165867D01*
X14853215Y-11169234D01*
X14854898Y-11174285D01*
X14863316Y-11182703D01*
X14868367Y-11184387D01*
X14871734Y-11184387D01*
X14876785Y-11182703D01*
X14885203Y-11174285D01*
X14886887Y-11169234D01*
X14886887Y-11165867D01*
X14824594Y-11170918D02*
X14821227Y-11170918D01*
X14816176Y-11172602D01*
X14807758Y-11181019D01*
X14806074Y-11186070D01*
X14806074Y-11189437D01*
X14807758Y-11194488D01*
X14811125Y-11197855D01*
X14817859Y-11201222D01*
X14858266Y-11201222D01*
X14836379Y-11223109D01*
X16494898Y-10699645D02*
X16494898Y-10696277D01*
X16491531Y-10689543D01*
X16488164Y-10686176D01*
X16481430Y-10682809D01*
X16474695Y-10682809D01*
X16469645Y-10684492D01*
X16461227Y-10689543D01*
X16456176Y-10694594D01*
X16451125Y-10703012D01*
X16449442Y-10708063D01*
X16449442Y-10714797D01*
X16452809Y-10721531D01*
X16456176Y-10724898D01*
X16462910Y-10728266D01*
X16466277Y-10728266D01*
X16494898Y-10763621D02*
X16478062Y-10746785D01*
X16493215Y-10728266D01*
X16493215Y-10731633D01*
X16494898Y-10736684D01*
X16503316Y-10745102D01*
X16508367Y-10746785D01*
X16511734Y-10746785D01*
X16516785Y-10745102D01*
X16525203Y-10736684D01*
X16526887Y-10731633D01*
X16526887Y-10728266D01*
X16525203Y-10723215D01*
X16516785Y-10714797D01*
X16511734Y-10713113D01*
X16508367Y-10713113D01*
X16538672Y-10783824D02*
X16562242Y-10760254D01*
X16516785Y-10788875D02*
X16533621Y-10755203D01*
X16555508Y-10777090D01*
X16224898Y-10434645D02*
X16224898Y-10431277D01*
X16221531Y-10424543D01*
X16218164Y-10421176D01*
X16211430Y-10417809D01*
X16204695Y-10417809D01*
X16199645Y-10419492D01*
X16191227Y-10424543D01*
X16186176Y-10429594D01*
X16181125Y-10438012D01*
X16179442Y-10443063D01*
X16179442Y-10449797D01*
X16182809Y-10456531D01*
X16186176Y-10459898D01*
X16192910Y-10463266D01*
X16196277Y-10463266D01*
X16224898Y-10498621D02*
X16208062Y-10481785D01*
X16223215Y-10463266D01*
X16223215Y-10466633D01*
X16224898Y-10471684D01*
X16233316Y-10480102D01*
X16238367Y-10481785D01*
X16241734Y-10481785D01*
X16246785Y-10480102D01*
X16255203Y-10471684D01*
X16256887Y-10466633D01*
X16256887Y-10463266D01*
X16255203Y-10458215D01*
X16246785Y-10449797D01*
X16241734Y-10448113D01*
X16238367Y-10448113D01*
X16258570Y-10532293D02*
X16241734Y-10515457D01*
X16256887Y-10496937D01*
X16256887Y-10500305D01*
X16258570Y-10505355D01*
X16266988Y-10513773D01*
X16272039Y-10515457D01*
X16275406Y-10515457D01*
X16280457Y-10513773D01*
X16288875Y-10505355D01*
X16290558Y-10500305D01*
X16290558Y-10496937D01*
X16288875Y-10491887D01*
X16280457Y-10483469D01*
X16275406Y-10481785D01*
X16272039Y-10481785D01*
X11777398Y-6454645D02*
X11777398Y-6451277D01*
X11774031Y-6444543D01*
X11770664Y-6441176D01*
X11763930Y-6437809D01*
X11757195Y-6437809D01*
X11752145Y-6439492D01*
X11743727Y-6444543D01*
X11738676Y-6449594D01*
X11733625Y-6458012D01*
X11731942Y-6463062D01*
X11731942Y-6469797D01*
X11735309Y-6476531D01*
X11738676Y-6479898D01*
X11745410Y-6483266D01*
X11748777Y-6483266D01*
X11777398Y-6518621D02*
X11760562Y-6501785D01*
X11775715Y-6483266D01*
X11775715Y-6486633D01*
X11777398Y-6491683D01*
X11785816Y-6500101D01*
X11790867Y-6501785D01*
X11794234Y-6501785D01*
X11799285Y-6500101D01*
X11807703Y-6491683D01*
X11809387Y-6486633D01*
X11809387Y-6483266D01*
X11807703Y-6478215D01*
X11799285Y-6469797D01*
X11794234Y-6468113D01*
X11790867Y-6468113D01*
X11809387Y-6550609D02*
X11802652Y-6543875D01*
X11800969Y-6538824D01*
X11800969Y-6535457D01*
X11802652Y-6527039D01*
X11807703Y-6518621D01*
X11821172Y-6505152D01*
X11826222Y-6503469D01*
X11829590Y-6503469D01*
X11834640Y-6505152D01*
X11841375Y-6511887D01*
X11843058Y-6516937D01*
X11843058Y-6520304D01*
X11841375Y-6525355D01*
X11832957Y-6533773D01*
X11827906Y-6535457D01*
X11824539Y-6535457D01*
X11819488Y-6533773D01*
X11812754Y-6527039D01*
X11811070Y-6521988D01*
X11811070Y-6518621D01*
X11812754Y-6513570D01*
X12187855Y-5867398D02*
X12191222Y-5867398D01*
X12197957Y-5864031D01*
X12201324Y-5860664D01*
X12204691Y-5853930D01*
X12204691Y-5847195D01*
X12203008Y-5842145D01*
X12197957Y-5833727D01*
X12192906Y-5828676D01*
X12184488Y-5823625D01*
X12179437Y-5821942D01*
X12172703Y-5821942D01*
X12165969Y-5825309D01*
X12162601Y-5828676D01*
X12159234Y-5835410D01*
X12159234Y-5838777D01*
X12123879Y-5867398D02*
X12140715Y-5850562D01*
X12159234Y-5865715D01*
X12155867Y-5865715D01*
X12150816Y-5867398D01*
X12142398Y-5875816D01*
X12140715Y-5880867D01*
X12140715Y-5884234D01*
X12142398Y-5889285D01*
X12150816Y-5897703D01*
X12155867Y-5899387D01*
X12159234Y-5899387D01*
X12164285Y-5897703D01*
X12172703Y-5889285D01*
X12174387Y-5884234D01*
X12174387Y-5880867D01*
X12117145Y-5904437D02*
X12118828Y-5899387D01*
X12118828Y-5896019D01*
X12117145Y-5890969D01*
X12115461Y-5889285D01*
X12110410Y-5887601D01*
X12107043Y-5887601D01*
X12101992Y-5889285D01*
X12095258Y-5896019D01*
X12093574Y-5901070D01*
X12093574Y-5904437D01*
X12095258Y-5909488D01*
X12096942Y-5911172D01*
X12101992Y-5912855D01*
X12105359Y-5912855D01*
X12110410Y-5911172D01*
X12117145Y-5904437D01*
X12122195Y-5902754D01*
X12125562Y-5902754D01*
X12130613Y-5904437D01*
X12137348Y-5911172D01*
X12139031Y-5916222D01*
X12139031Y-5919590D01*
X12137348Y-5924640D01*
X12130613Y-5931375D01*
X12125562Y-5933058D01*
X12122195Y-5933058D01*
X12117145Y-5931375D01*
X12110410Y-5924640D01*
X12108727Y-5919590D01*
X12108727Y-5916222D01*
X12110410Y-5911172D01*
X16939898Y-11144645D02*
X16939898Y-11141277D01*
X16936531Y-11134543D01*
X16933164Y-11131176D01*
X16926430Y-11127809D01*
X16919695Y-11127809D01*
X16914645Y-11129492D01*
X16906227Y-11134543D01*
X16901176Y-11139594D01*
X16896125Y-11148012D01*
X16894442Y-11153063D01*
X16894442Y-11159797D01*
X16897809Y-11166531D01*
X16901176Y-11169898D01*
X16907910Y-11173266D01*
X16911277Y-11173266D01*
X16939898Y-11208621D02*
X16923063Y-11191785D01*
X16938215Y-11173266D01*
X16938215Y-11176633D01*
X16939898Y-11181684D01*
X16948316Y-11190101D01*
X16953367Y-11191785D01*
X16956734Y-11191785D01*
X16961785Y-11190101D01*
X16970203Y-11181684D01*
X16971887Y-11176633D01*
X16971887Y-11173266D01*
X16970203Y-11168215D01*
X16961785Y-11159797D01*
X16956734Y-11158113D01*
X16953367Y-11158113D01*
X16993773Y-11191785D02*
X17000508Y-11198519D01*
X17002191Y-11203570D01*
X17002191Y-11206937D01*
X17000508Y-11215355D01*
X16995457Y-11223773D01*
X16981988Y-11237242D01*
X16976937Y-11238925D01*
X16973570Y-11238925D01*
X16968519Y-11237242D01*
X16961785Y-11230508D01*
X16960102Y-11225457D01*
X16960102Y-11222090D01*
X16961785Y-11217039D01*
X16970203Y-11208621D01*
X16975254Y-11206937D01*
X16978621Y-11206937D01*
X16983672Y-11208621D01*
X16990406Y-11215355D01*
X16992090Y-11220406D01*
X16992090Y-11223773D01*
X16990406Y-11228824D01*
X16743780Y-10948526D02*
X16743780Y-10945159D01*
X16740413Y-10938425D01*
X16737046Y-10935057D01*
X16730311Y-10931690D01*
X16723577Y-10931690D01*
X16718526Y-10933374D01*
X16710108Y-10938425D01*
X16705057Y-10943475D01*
X16700007Y-10951893D01*
X16698323Y-10956944D01*
X16698323Y-10963678D01*
X16701690Y-10970413D01*
X16705057Y-10973780D01*
X16711792Y-10977147D01*
X16715159Y-10977147D01*
X16742096Y-11010819D02*
X16735362Y-11004085D01*
X16733678Y-10999034D01*
X16733678Y-10995667D01*
X16735362Y-10987249D01*
X16740413Y-10978831D01*
X16753881Y-10965362D01*
X16758932Y-10963678D01*
X16762299Y-10963678D01*
X16767350Y-10965362D01*
X16774084Y-10972096D01*
X16775768Y-10977147D01*
X16775768Y-10980514D01*
X16774084Y-10985565D01*
X16765667Y-10993983D01*
X16760616Y-10995667D01*
X16757249Y-10995667D01*
X16752198Y-10993983D01*
X16745463Y-10987249D01*
X16743780Y-10982198D01*
X16743780Y-10978831D01*
X16745463Y-10973780D01*
X16767350Y-11036073D02*
X16770717Y-11039440D01*
X16775768Y-11041123D01*
X16779135Y-11041123D01*
X16784186Y-11039440D01*
X16792604Y-11034389D01*
X16801022Y-11025971D01*
X16806073Y-11017553D01*
X16807756Y-11012502D01*
X16807756Y-11009135D01*
X16806073Y-11004085D01*
X16802706Y-11000717D01*
X16797655Y-10999034D01*
X16794288Y-10999034D01*
X16789237Y-11000717D01*
X16780819Y-11005768D01*
X16772401Y-11014186D01*
X16767350Y-11022604D01*
X16765667Y-11027655D01*
X16765667Y-11031022D01*
X16767350Y-11036073D01*
X13132855Y-8857398D02*
X13136222Y-8857398D01*
X13142957Y-8854031D01*
X13146324Y-8850664D01*
X13149691Y-8843930D01*
X13149691Y-8837195D01*
X13148008Y-8832145D01*
X13142957Y-8823727D01*
X13137906Y-8818676D01*
X13129488Y-8813625D01*
X13124437Y-8811942D01*
X13117703Y-8811942D01*
X13110969Y-8815309D01*
X13107601Y-8818676D01*
X13104234Y-8825410D01*
X13104234Y-8828777D01*
X13070562Y-8855715D02*
X13077297Y-8848981D01*
X13082348Y-8847297D01*
X13085715Y-8847297D01*
X13094133Y-8848981D01*
X13102551Y-8854031D01*
X13116019Y-8867500D01*
X13117703Y-8872551D01*
X13117703Y-8875918D01*
X13116019Y-8880969D01*
X13109285Y-8887703D01*
X13104234Y-8889387D01*
X13100867Y-8889387D01*
X13095816Y-8887703D01*
X13087398Y-8879285D01*
X13085715Y-8874234D01*
X13085715Y-8870867D01*
X13087398Y-8865816D01*
X13094133Y-8859082D01*
X13099183Y-8857398D01*
X13102551Y-8857398D01*
X13107601Y-8859082D01*
X13055410Y-8870867D02*
X13031840Y-8894437D01*
X13082348Y-8914640D01*
D10*
X13941006Y-10956332D02*
X13936966Y-10933435D01*
X13957169Y-10940170D02*
X13928884Y-10911885D01*
X13918109Y-10922660D01*
X13916762Y-10926701D01*
X13916762Y-10929395D01*
X13918109Y-10933435D01*
X13922150Y-10937476D01*
X13926191Y-10938823D01*
X13928884Y-10938823D01*
X13932925Y-10937476D01*
X13943700Y-10926701D01*
X13914069Y-10983270D02*
X13930231Y-10967107D01*
X13922150Y-10975188D02*
X13893866Y-10946904D01*
X13900600Y-10948251D01*
X13905987Y-10948251D01*
X13910028Y-10946904D01*
X13876356Y-10964413D02*
X13858847Y-10981923D01*
X13879050Y-10983270D01*
X13875009Y-10987310D01*
X13873663Y-10991351D01*
X13873663Y-10994044D01*
X13875009Y-10998085D01*
X13881744Y-11004819D01*
X13885784Y-11006166D01*
X13888478Y-11006166D01*
X13892519Y-11004819D01*
X13900600Y-10996738D01*
X13901947Y-10992698D01*
X13901947Y-10990004D01*
X13110101Y-9283113D02*
X13093266Y-9266277D01*
X13057910Y-9301633D01*
X13083164Y-9326887D02*
X13105051Y-9348773D01*
X13106734Y-9323519D01*
X13111785Y-9328570D01*
X13116836Y-9330254D01*
X13120203Y-9330254D01*
X13125254Y-9328570D01*
X13133672Y-9320152D01*
X13135355Y-9315102D01*
X13135355Y-9311734D01*
X13133672Y-9306684D01*
X13123570Y-9296582D01*
X13118519Y-9294898D01*
X13115152Y-9294898D01*
X13681600Y-9854611D02*
X13664764Y-9837776D01*
X13629408Y-9873131D01*
X13684967Y-9905119D02*
X13708537Y-9881549D01*
X13663080Y-9910170D02*
X13679916Y-9876498D01*
X13701803Y-9898385D01*
X14698266Y-10846277D02*
X14681430Y-10829442D01*
X14646074Y-10864797D01*
X14728570Y-10876582D02*
X14708367Y-10856379D01*
X14718469Y-10866481D02*
X14683113Y-10901836D01*
X14684797Y-10893418D01*
X14684797Y-10886684D01*
X14683113Y-10881633D01*
X14725203Y-10943926D02*
X14708367Y-10927090D01*
X14723519Y-10908570D01*
X14723519Y-10911937D01*
X14725203Y-10916988D01*
X14733621Y-10925406D01*
X14738672Y-10927090D01*
X14742039Y-10927090D01*
X14747090Y-10925406D01*
X14755508Y-10916988D01*
X14757191Y-10911937D01*
X14757191Y-10908570D01*
X14755508Y-10903519D01*
X14747090Y-10895102D01*
X14742039Y-10893418D01*
X14738672Y-10893418D01*
X14110766Y-10286277D02*
X14093930Y-10269442D01*
X14058574Y-10304797D01*
X14141070Y-10316582D02*
X14120867Y-10296379D01*
X14130969Y-10306481D02*
X14095613Y-10341836D01*
X14097297Y-10333418D01*
X14097297Y-10326684D01*
X14095613Y-10321633D01*
X14136019Y-10382242D02*
X14129285Y-10375508D01*
X14127601Y-10370457D01*
X14127601Y-10367090D01*
X14129285Y-10358672D01*
X14134336Y-10350254D01*
X14147804Y-10336785D01*
X14152855Y-10335102D01*
X14156222Y-10335102D01*
X14161273Y-10336785D01*
X14168008Y-10343519D01*
X14169691Y-10348570D01*
X14169691Y-10351937D01*
X14168008Y-10356988D01*
X14159590Y-10365406D01*
X14154539Y-10367090D01*
X14151172Y-10367090D01*
X14146121Y-10365406D01*
X14139387Y-10358672D01*
X14137703Y-10353621D01*
X14137703Y-10350254D01*
X14139387Y-10345203D01*
D13*
X14616734Y-7231480D02*
X14616734Y-7228113D01*
X14613367Y-7221379D01*
X14610000Y-7218012D01*
X14603266Y-7214645D01*
X14596531Y-7214645D01*
X14591480Y-7216328D01*
X14583062Y-7221379D01*
X14578012Y-7226430D01*
X14572961Y-7234848D01*
X14571277Y-7239898D01*
X14571277Y-7246633D01*
X14574645Y-7253367D01*
X14578012Y-7256734D01*
X14584746Y-7260101D01*
X14588113Y-7260101D01*
X14596531Y-7275254D02*
X14618418Y-7297140D01*
X14620101Y-7271887D01*
X14625152Y-7276937D01*
X14630203Y-7278621D01*
X14633570Y-7278621D01*
X14638621Y-7276937D01*
X14647039Y-7268519D01*
X14648722Y-7263469D01*
X14648722Y-7260101D01*
X14647039Y-7255051D01*
X14636937Y-7244949D01*
X14631887Y-7243266D01*
X14628519Y-7243266D01*
X15506734Y-6341480D02*
X15506734Y-6338113D01*
X15503367Y-6331379D01*
X15500000Y-6328012D01*
X15493266Y-6324645D01*
X15486531Y-6324645D01*
X15481480Y-6326328D01*
X15473062Y-6331379D01*
X15468012Y-6336430D01*
X15462961Y-6344848D01*
X15461277Y-6349898D01*
X15461277Y-6356633D01*
X15464645Y-6363367D01*
X15468012Y-6366734D01*
X15474746Y-6370101D01*
X15478113Y-6370101D01*
X15516836Y-6391988D02*
X15540406Y-6368418D01*
X15494949Y-6397039D02*
X15511785Y-6363367D01*
X15533672Y-6385254D01*
X14248519Y-7606734D02*
X14251887Y-7606734D01*
X14258621Y-7603367D01*
X14261988Y-7600000D01*
X14265355Y-7593266D01*
X14265355Y-7586531D01*
X14263672Y-7581480D01*
X14258621Y-7573062D01*
X14253570Y-7568012D01*
X14245152Y-7562961D01*
X14240101Y-7561277D01*
X14233367Y-7561277D01*
X14226633Y-7564645D01*
X14223266Y-7568012D01*
X14219898Y-7574746D01*
X14219898Y-7578113D01*
X14184543Y-7606734D02*
X14201379Y-7589898D01*
X14219898Y-7605051D01*
X14216531Y-7605051D01*
X14211480Y-7606734D01*
X14203062Y-7615152D01*
X14201379Y-7620203D01*
X14201379Y-7623570D01*
X14203062Y-7628621D01*
X14211480Y-7637039D01*
X14216531Y-7638722D01*
X14219898Y-7638722D01*
X14224949Y-7637039D01*
X14233367Y-7628621D01*
X14235051Y-7623570D01*
X14235051Y-7620203D01*
X15356734Y-8361480D02*
X15356734Y-8358113D01*
X15353367Y-8351379D01*
X15350000Y-8348012D01*
X15343266Y-8344645D01*
X15336531Y-8344645D01*
X15331480Y-8346328D01*
X15323062Y-8351379D01*
X15318012Y-8356430D01*
X15312961Y-8364848D01*
X15311277Y-8369898D01*
X15311277Y-8376633D01*
X15314645Y-8383367D01*
X15318012Y-8386734D01*
X15324746Y-8390102D01*
X15328113Y-8390102D01*
X15355051Y-8423773D02*
X15348316Y-8417039D01*
X15346633Y-8411988D01*
X15346633Y-8408621D01*
X15348316Y-8400203D01*
X15353367Y-8391785D01*
X15366836Y-8378316D01*
X15371887Y-8376633D01*
X15375254Y-8376633D01*
X15380304Y-8378316D01*
X15387039Y-8385051D01*
X15388722Y-8390102D01*
X15388722Y-8393469D01*
X15387039Y-8398519D01*
X15378621Y-8406937D01*
X15373570Y-8408621D01*
X15370203Y-8408621D01*
X15365152Y-8406937D01*
X15358418Y-8400203D01*
X15356734Y-8395152D01*
X15356734Y-8391785D01*
X15358418Y-8386734D01*
X13105355Y-5237398D02*
X13108722Y-5237398D01*
X13115457Y-5234031D01*
X13118824Y-5230664D01*
X13122191Y-5223930D01*
X13122191Y-5217195D01*
X13120508Y-5212145D01*
X13115457Y-5203727D01*
X13110406Y-5198676D01*
X13101988Y-5193625D01*
X13096937Y-5191942D01*
X13090203Y-5191942D01*
X13083469Y-5195309D01*
X13080101Y-5198676D01*
X13076734Y-5205410D01*
X13076734Y-5208777D01*
X13075051Y-5274437D02*
X13095254Y-5254234D01*
X13085152Y-5264336D02*
X13049797Y-5228981D01*
X13058215Y-5230664D01*
X13064949Y-5230664D01*
X13070000Y-5228981D01*
X13041379Y-5308109D02*
X13061582Y-5287906D01*
X13051480Y-5298008D02*
X13016125Y-5262652D01*
X13024543Y-5264336D01*
X13031277Y-5264336D01*
X13036328Y-5262652D01*
X13369898Y-5274645D02*
X13369898Y-5271277D01*
X13366531Y-5264543D01*
X13363164Y-5261176D01*
X13356430Y-5257809D01*
X13349695Y-5257809D01*
X13344645Y-5259492D01*
X13336227Y-5264543D01*
X13331176Y-5269594D01*
X13326125Y-5278012D01*
X13324442Y-5283063D01*
X13324442Y-5289797D01*
X13327809Y-5296531D01*
X13331176Y-5299898D01*
X13337910Y-5303266D01*
X13341277Y-5303266D01*
X13406937Y-5304949D02*
X13386734Y-5284746D01*
X13396836Y-5294848D02*
X13361480Y-5330203D01*
X13363164Y-5321785D01*
X13363164Y-5315051D01*
X13361480Y-5310000D01*
X13388418Y-5350406D02*
X13388418Y-5353773D01*
X13390101Y-5358824D01*
X13398519Y-5367242D01*
X13403570Y-5368926D01*
X13406937Y-5368926D01*
X13411988Y-5367242D01*
X13415355Y-5363875D01*
X13418722Y-5357140D01*
X13418722Y-5316734D01*
X13440609Y-5338621D01*
X13659898Y-5682145D02*
X13659898Y-5678777D01*
X13656531Y-5672043D01*
X13653164Y-5668676D01*
X13646430Y-5665309D01*
X13639695Y-5665309D01*
X13634645Y-5666992D01*
X13626227Y-5672043D01*
X13621176Y-5677094D01*
X13616125Y-5685512D01*
X13614442Y-5690562D01*
X13614442Y-5697297D01*
X13617809Y-5704031D01*
X13621176Y-5707398D01*
X13627910Y-5710766D01*
X13631277Y-5710766D01*
X13696937Y-5712449D02*
X13676734Y-5692246D01*
X13686836Y-5702348D02*
X13651480Y-5737703D01*
X13653164Y-5729285D01*
X13653164Y-5722551D01*
X13651480Y-5717500D01*
X13673367Y-5759590D02*
X13695254Y-5781476D01*
X13696937Y-5756222D01*
X13701988Y-5761273D01*
X13707039Y-5762957D01*
X13710406Y-5762957D01*
X13715457Y-5761273D01*
X13723875Y-5752855D01*
X13725558Y-5747804D01*
X13725558Y-5744437D01*
X13723875Y-5739387D01*
X13713773Y-5729285D01*
X13708722Y-5727601D01*
X13705355Y-5727601D01*
X14890462Y-6789132D02*
X14890462Y-6785764D01*
X14887095Y-6779030D01*
X14883728Y-6775663D01*
X14876993Y-6772296D01*
X14870259Y-6772296D01*
X14865208Y-6773979D01*
X14856790Y-6779030D01*
X14851739Y-6784081D01*
X14846689Y-6792499D01*
X14845005Y-6797549D01*
X14845005Y-6804284D01*
X14848372Y-6811018D01*
X14851739Y-6814385D01*
X14858474Y-6817753D01*
X14861841Y-6817753D01*
X14927501Y-6819436D02*
X14907298Y-6799233D01*
X14917399Y-6809335D02*
X14882044Y-6844690D01*
X14883728Y-6836272D01*
X14883728Y-6829538D01*
X14882044Y-6824487D01*
X14934235Y-6873311D02*
X14957805Y-6849741D01*
X14912349Y-6878362D02*
X14929184Y-6844690D01*
X14951071Y-6866577D01*
X15300258Y-7329745D02*
X15302639Y-7327364D01*
X15305020Y-7320221D01*
X15305020Y-7315460D01*
X15302639Y-7308317D01*
X15297877Y-7303555D01*
X15293115Y-7301174D01*
X15283592Y-7298793D01*
X15276449Y-7298793D01*
X15266925Y-7301174D01*
X15262163Y-7303555D01*
X15257401Y-7308317D01*
X15255020Y-7315460D01*
X15255020Y-7320221D01*
X15257401Y-7327364D01*
X15259782Y-7329745D01*
X15305020Y-7377364D02*
X15305020Y-7348793D01*
X15305020Y-7363079D02*
X15255020Y-7363079D01*
X15262163Y-7358317D01*
X15266925Y-7353555D01*
X15269306Y-7348793D01*
X15255020Y-7422602D02*
X15255020Y-7398793D01*
X15278830Y-7396412D01*
X15276449Y-7398793D01*
X15274068Y-7403555D01*
X15274068Y-7415460D01*
X15276449Y-7420221D01*
X15278830Y-7422602D01*
X15283592Y-7424983D01*
X15295496Y-7424983D01*
X15300258Y-7422602D01*
X15302639Y-7420221D01*
X15305020Y-7415460D01*
X15305020Y-7403555D01*
X15302639Y-7398793D01*
X15300258Y-7396412D01*
X14204063Y-8507906D02*
X14207430Y-8507906D01*
X14214165Y-8504539D01*
X14217532Y-8501172D01*
X14220899Y-8494438D01*
X14220899Y-8487703D01*
X14219216Y-8482652D01*
X14214165Y-8474235D01*
X14209114Y-8469184D01*
X14200696Y-8464133D01*
X14195645Y-8462449D01*
X14188911Y-8462449D01*
X14182177Y-8465817D01*
X14178809Y-8469184D01*
X14175442Y-8475918D01*
X14175442Y-8479285D01*
X14173759Y-8544945D02*
X14193962Y-8524742D01*
X14183860Y-8534844D02*
X14148505Y-8499488D01*
X14156923Y-8501172D01*
X14163657Y-8501172D01*
X14168708Y-8499488D01*
X14126618Y-8521375D02*
X14103048Y-8544945D01*
X14153556Y-8565148D01*
X14700355Y-6402398D02*
X14703722Y-6402398D01*
X14710457Y-6399031D01*
X14713824Y-6395664D01*
X14717191Y-6388930D01*
X14717191Y-6382195D01*
X14715508Y-6377145D01*
X14710457Y-6368727D01*
X14705406Y-6363676D01*
X14696988Y-6358625D01*
X14691937Y-6356942D01*
X14685203Y-6356942D01*
X14678469Y-6360309D01*
X14675101Y-6363676D01*
X14671734Y-6370410D01*
X14671734Y-6373777D01*
X14670051Y-6439437D02*
X14690254Y-6419234D01*
X14680152Y-6429336D02*
X14644797Y-6393980D01*
X14653215Y-6395664D01*
X14659949Y-6395664D01*
X14665000Y-6393980D01*
X14629645Y-6439437D02*
X14631328Y-6434387D01*
X14631328Y-6431019D01*
X14629645Y-6425969D01*
X14627961Y-6424285D01*
X14622910Y-6422601D01*
X14619543Y-6422601D01*
X14614492Y-6424285D01*
X14607758Y-6431019D01*
X14606074Y-6436070D01*
X14606074Y-6439437D01*
X14607758Y-6444488D01*
X14609442Y-6446172D01*
X14614492Y-6447855D01*
X14617859Y-6447855D01*
X14622910Y-6446172D01*
X14629645Y-6439437D01*
X14634695Y-6437754D01*
X14638062Y-6437754D01*
X14643113Y-6439437D01*
X14649848Y-6446172D01*
X14651531Y-6451222D01*
X14651531Y-6454590D01*
X14649848Y-6459640D01*
X14643113Y-6466375D01*
X14638062Y-6468058D01*
X14634695Y-6468058D01*
X14629645Y-6466375D01*
X14622910Y-6459640D01*
X14621227Y-6454590D01*
X14621227Y-6451222D01*
X14622910Y-6446172D01*
X15179871Y-6881561D02*
X15183238Y-6881561D01*
X15189972Y-6878193D01*
X15193339Y-6874826D01*
X15196706Y-6868092D01*
X15196706Y-6861358D01*
X15195023Y-6856307D01*
X15189972Y-6847889D01*
X15184921Y-6842838D01*
X15176503Y-6837787D01*
X15171453Y-6836104D01*
X15164718Y-6836104D01*
X15157984Y-6839471D01*
X15154617Y-6842838D01*
X15151250Y-6849572D01*
X15151250Y-6852940D01*
X15149566Y-6918600D02*
X15169769Y-6898396D01*
X15159667Y-6908498D02*
X15124312Y-6873143D01*
X15132730Y-6874826D01*
X15139464Y-6874826D01*
X15144515Y-6873143D01*
X15132730Y-6935435D02*
X15125996Y-6942170D01*
X15120945Y-6943853D01*
X15117578Y-6943853D01*
X15109160Y-6942170D01*
X15100742Y-6937119D01*
X15087273Y-6923650D01*
X15085590Y-6918600D01*
X15085590Y-6915232D01*
X15087273Y-6910182D01*
X15094008Y-6903447D01*
X15099058Y-6901764D01*
X15102426Y-6901764D01*
X15107476Y-6903447D01*
X15115894Y-6911865D01*
X15117578Y-6916916D01*
X15117578Y-6920283D01*
X15115894Y-6925334D01*
X15109160Y-6932068D01*
X15104109Y-6933752D01*
X15100742Y-6933752D01*
X15095691Y-6932068D01*
X15149898Y-7789645D02*
X15149898Y-7786277D01*
X15146531Y-7779543D01*
X15143164Y-7776176D01*
X15136430Y-7772809D01*
X15129695Y-7772809D01*
X15124645Y-7774492D01*
X15116227Y-7779543D01*
X15111176Y-7784594D01*
X15106125Y-7793012D01*
X15104442Y-7798062D01*
X15104442Y-7804797D01*
X15107809Y-7811531D01*
X15111176Y-7814898D01*
X15117910Y-7818266D01*
X15121277Y-7818266D01*
X15134746Y-7831734D02*
X15134746Y-7835101D01*
X15136430Y-7840152D01*
X15144848Y-7848570D01*
X15149898Y-7850254D01*
X15153266Y-7850254D01*
X15158316Y-7848570D01*
X15161683Y-7845203D01*
X15165051Y-7838469D01*
X15165051Y-7798062D01*
X15186937Y-7819949D01*
X15168418Y-7865406D02*
X15168418Y-7868773D01*
X15170101Y-7873824D01*
X15178519Y-7882242D01*
X15183570Y-7883925D01*
X15186937Y-7883925D01*
X15191988Y-7882242D01*
X15195355Y-7878875D01*
X15198722Y-7872140D01*
X15198722Y-7831734D01*
X15220609Y-7853621D01*
X13530355Y-4814898D02*
X13533722Y-4814898D01*
X13540457Y-4811531D01*
X13543824Y-4808164D01*
X13547191Y-4801430D01*
X13547191Y-4794695D01*
X13545508Y-4789645D01*
X13540457Y-4781227D01*
X13535406Y-4776176D01*
X13526988Y-4771125D01*
X13521937Y-4769442D01*
X13515203Y-4769442D01*
X13508469Y-4772809D01*
X13505101Y-4776176D01*
X13501734Y-4782910D01*
X13501734Y-4786277D01*
X13488266Y-4799746D02*
X13484898Y-4799746D01*
X13479848Y-4801430D01*
X13471430Y-4809848D01*
X13469746Y-4814898D01*
X13469746Y-4818266D01*
X13471430Y-4823316D01*
X13474797Y-4826684D01*
X13481531Y-4830051D01*
X13521937Y-4830051D01*
X13500051Y-4851937D01*
X13452910Y-4828367D02*
X13431024Y-4850254D01*
X13456277Y-4851937D01*
X13451227Y-4856988D01*
X13449543Y-4862039D01*
X13449543Y-4865406D01*
X13451227Y-4870457D01*
X13459645Y-4878875D01*
X13464695Y-4880558D01*
X13468062Y-4880558D01*
X13473113Y-4878875D01*
X13483215Y-4868773D01*
X13484898Y-4863723D01*
X13484898Y-4860355D01*
X13547398Y-5097145D02*
X13547398Y-5093777D01*
X13544031Y-5087043D01*
X13540664Y-5083676D01*
X13533930Y-5080309D01*
X13527195Y-5080309D01*
X13522145Y-5081992D01*
X13513727Y-5087043D01*
X13508676Y-5092094D01*
X13503625Y-5100512D01*
X13501942Y-5105563D01*
X13501942Y-5112297D01*
X13505309Y-5119031D01*
X13508676Y-5122398D01*
X13515410Y-5125766D01*
X13518777Y-5125766D01*
X13532246Y-5139234D02*
X13532246Y-5142602D01*
X13533930Y-5147652D01*
X13542348Y-5156070D01*
X13547398Y-5157754D01*
X13550766Y-5157754D01*
X13555816Y-5156070D01*
X13559183Y-5152703D01*
X13562551Y-5145969D01*
X13562551Y-5105563D01*
X13584437Y-5127449D01*
X13591172Y-5181324D02*
X13614742Y-5157754D01*
X13569285Y-5186375D02*
X13586121Y-5152703D01*
X13608008Y-5174590D01*
X13959898Y-5382145D02*
X13959898Y-5378777D01*
X13956531Y-5372043D01*
X13953164Y-5368676D01*
X13946430Y-5365309D01*
X13939695Y-5365309D01*
X13934645Y-5366992D01*
X13926227Y-5372043D01*
X13921176Y-5377094D01*
X13916125Y-5385512D01*
X13914442Y-5390563D01*
X13914442Y-5397297D01*
X13917809Y-5404031D01*
X13921176Y-5407398D01*
X13927910Y-5410766D01*
X13931277Y-5410766D01*
X13944746Y-5424234D02*
X13944746Y-5427602D01*
X13946430Y-5432652D01*
X13954848Y-5441070D01*
X13959898Y-5442754D01*
X13963266Y-5442754D01*
X13968316Y-5441070D01*
X13971683Y-5437703D01*
X13975051Y-5430969D01*
X13975051Y-5390563D01*
X13996937Y-5412449D01*
X13993570Y-5479793D02*
X13976734Y-5462957D01*
X13991887Y-5444437D01*
X13991887Y-5447805D01*
X13993570Y-5452855D01*
X14001988Y-5461273D01*
X14007039Y-5462957D01*
X14010406Y-5462957D01*
X14015457Y-5461273D01*
X14023875Y-5452855D01*
X14025558Y-5447805D01*
X14025558Y-5444437D01*
X14023875Y-5439387D01*
X14015457Y-5430969D01*
X14010406Y-5429285D01*
X14007039Y-5429285D01*
X15067239Y-6612355D02*
X15067239Y-6608988D01*
X15063871Y-6602253D01*
X15060504Y-6598886D01*
X15053770Y-6595519D01*
X15047036Y-6595519D01*
X15041985Y-6597203D01*
X15033567Y-6602253D01*
X15028516Y-6607304D01*
X15023465Y-6615722D01*
X15021782Y-6620773D01*
X15021782Y-6627507D01*
X15025149Y-6634241D01*
X15028516Y-6637609D01*
X15035250Y-6640976D01*
X15038618Y-6640976D01*
X15052086Y-6654445D02*
X15052086Y-6657812D01*
X15053770Y-6662862D01*
X15062188Y-6671280D01*
X15067239Y-6672964D01*
X15070606Y-6672964D01*
X15075657Y-6671280D01*
X15079024Y-6667913D01*
X15082391Y-6661179D01*
X15082391Y-6620773D01*
X15104278Y-6642659D01*
X15099227Y-6708319D02*
X15092492Y-6701585D01*
X15090809Y-6696534D01*
X15090809Y-6693167D01*
X15092492Y-6684749D01*
X15097543Y-6676331D01*
X15111012Y-6662862D01*
X15116063Y-6661179D01*
X15119430Y-6661179D01*
X15124481Y-6662862D01*
X15131215Y-6669597D01*
X15132898Y-6674648D01*
X15132898Y-6678015D01*
X15131215Y-6683066D01*
X15122797Y-6691483D01*
X15117746Y-6693167D01*
X15114379Y-6693167D01*
X15109328Y-6691483D01*
X15102594Y-6684749D01*
X15100910Y-6679698D01*
X15100910Y-6676331D01*
X15102594Y-6671280D01*
X15487857Y-7327857D02*
X15490238Y-7325476D01*
X15492619Y-7318333D01*
X15492619Y-7313571D01*
X15490238Y-7306428D01*
X15485476Y-7301667D01*
X15480714Y-7299286D01*
X15471190Y-7296905D01*
X15464048Y-7296905D01*
X15454524Y-7299286D01*
X15449762Y-7301667D01*
X15445000Y-7306428D01*
X15442619Y-7313571D01*
X15442619Y-7318333D01*
X15445000Y-7325476D01*
X15447381Y-7327857D01*
X15442619Y-7344524D02*
X15442619Y-7375476D01*
X15461667Y-7358809D01*
X15461667Y-7365952D01*
X15464048Y-7370714D01*
X15466428Y-7373095D01*
X15471190Y-7375476D01*
X15483095Y-7375476D01*
X15487857Y-7373095D01*
X15490238Y-7370714D01*
X15492619Y-7365952D01*
X15492619Y-7351667D01*
X15490238Y-7346905D01*
X15487857Y-7344524D01*
X15492619Y-7423095D02*
X15492619Y-7394524D01*
X15492619Y-7408809D02*
X15442619Y-7408809D01*
X15449762Y-7404048D01*
X15454524Y-7399286D01*
X15456905Y-7394524D01*
X14501048Y-8804891D02*
X14504415Y-8804891D01*
X14511150Y-8801524D01*
X14514517Y-8798157D01*
X14517884Y-8791422D01*
X14517884Y-8784688D01*
X14516200Y-8779637D01*
X14511150Y-8771219D01*
X14506099Y-8766169D01*
X14497681Y-8761118D01*
X14492630Y-8759434D01*
X14485896Y-8759434D01*
X14479161Y-8762801D01*
X14475794Y-8766169D01*
X14472427Y-8772903D01*
X14472427Y-8776270D01*
X14457275Y-8784688D02*
X14435388Y-8806575D01*
X14460642Y-8808258D01*
X14455591Y-8813309D01*
X14453908Y-8818360D01*
X14453908Y-8821727D01*
X14455591Y-8826778D01*
X14464009Y-8835196D01*
X14469060Y-8836879D01*
X14472427Y-8836879D01*
X14477478Y-8835196D01*
X14487579Y-8825094D01*
X14489263Y-8820043D01*
X14489263Y-8816676D01*
X14425287Y-8823411D02*
X14421919Y-8823411D01*
X14416869Y-8825094D01*
X14408451Y-8833512D01*
X14406767Y-8838563D01*
X14406767Y-8841930D01*
X14408451Y-8846981D01*
X14411818Y-8850348D01*
X14418552Y-8853715D01*
X14458958Y-8853715D01*
X14437072Y-8875602D01*
X19215355Y-10482398D02*
X19218723Y-10482398D01*
X19225457Y-10479031D01*
X19228824Y-10475664D01*
X19232191Y-10468930D01*
X19232191Y-10462195D01*
X19230508Y-10457145D01*
X19225457Y-10448727D01*
X19220406Y-10443676D01*
X19211988Y-10438625D01*
X19206937Y-10436942D01*
X19200203Y-10436942D01*
X19193469Y-10440309D01*
X19190102Y-10443676D01*
X19186734Y-10450410D01*
X19186734Y-10453777D01*
X19171582Y-10462195D02*
X19149695Y-10484082D01*
X19174949Y-10485766D01*
X19169898Y-10490816D01*
X19168215Y-10495867D01*
X19168215Y-10499234D01*
X19169898Y-10504285D01*
X19178316Y-10512703D01*
X19183367Y-10514387D01*
X19186734Y-10514387D01*
X19191785Y-10512703D01*
X19201887Y-10502602D01*
X19203570Y-10497551D01*
X19203570Y-10494184D01*
X19137910Y-10495867D02*
X19116024Y-10517754D01*
X19141277Y-10519437D01*
X19136227Y-10524488D01*
X19134543Y-10529539D01*
X19134543Y-10532906D01*
X19136227Y-10537957D01*
X19144645Y-10546375D01*
X19149695Y-10548058D01*
X19153063Y-10548058D01*
X19158113Y-10546375D01*
X19168215Y-10536273D01*
X19169898Y-10531223D01*
X19169898Y-10527855D01*
X18862838Y-10396335D02*
X18862838Y-10392968D01*
X18859471Y-10386234D01*
X18856104Y-10382866D01*
X18849369Y-10379499D01*
X18842635Y-10379499D01*
X18837584Y-10381183D01*
X18829166Y-10386234D01*
X18824115Y-10391284D01*
X18819065Y-10399702D01*
X18817381Y-10404753D01*
X18817381Y-10411487D01*
X18820748Y-10418222D01*
X18824115Y-10421589D01*
X18830850Y-10424956D01*
X18834217Y-10424956D01*
X18842635Y-10440108D02*
X18864521Y-10461995D01*
X18866205Y-10436741D01*
X18871256Y-10441792D01*
X18876307Y-10443476D01*
X18879674Y-10443476D01*
X18884725Y-10441792D01*
X18893142Y-10433374D01*
X18894826Y-10428323D01*
X18894826Y-10424956D01*
X18893142Y-10419905D01*
X18883041Y-10409804D01*
X18877990Y-10408120D01*
X18874623Y-10408120D01*
X18906611Y-10480515D02*
X18930181Y-10456944D01*
X18884725Y-10485565D02*
X18901560Y-10451894D01*
X18923447Y-10473780D01*
X18572924Y-9986213D02*
X18572924Y-9982846D01*
X18569557Y-9976112D01*
X18566190Y-9972744D01*
X18559455Y-9969377D01*
X18552721Y-9969377D01*
X18547670Y-9971061D01*
X18539252Y-9976112D01*
X18534202Y-9981162D01*
X18529151Y-9989580D01*
X18527467Y-9994631D01*
X18527467Y-10001365D01*
X18530834Y-10008100D01*
X18534202Y-10011467D01*
X18540936Y-10014834D01*
X18544303Y-10014834D01*
X18552721Y-10029986D02*
X18574608Y-10051873D01*
X18576291Y-10026619D01*
X18581342Y-10031670D01*
X18586393Y-10033354D01*
X18589760Y-10033354D01*
X18594811Y-10031670D01*
X18603229Y-10023252D01*
X18604912Y-10018201D01*
X18604912Y-10014834D01*
X18603229Y-10009783D01*
X18593127Y-9999682D01*
X18588076Y-9997998D01*
X18584709Y-9997998D01*
X18606596Y-10083861D02*
X18589760Y-10067025D01*
X18604912Y-10048506D01*
X18604912Y-10051873D01*
X18606596Y-10056924D01*
X18615014Y-10065342D01*
X18620065Y-10067025D01*
X18623432Y-10067025D01*
X18628482Y-10065342D01*
X18636900Y-10056924D01*
X18638584Y-10051873D01*
X18638584Y-10048506D01*
X18636900Y-10043455D01*
X18628482Y-10035037D01*
X18623432Y-10033354D01*
X18620065Y-10033354D01*
X17334898Y-8874645D02*
X17334898Y-8871277D01*
X17331531Y-8864543D01*
X17328164Y-8861176D01*
X17321430Y-8857809D01*
X17314695Y-8857809D01*
X17309645Y-8859492D01*
X17301227Y-8864543D01*
X17296176Y-8869594D01*
X17291125Y-8878012D01*
X17289442Y-8883063D01*
X17289442Y-8889797D01*
X17292809Y-8896531D01*
X17296176Y-8899898D01*
X17302910Y-8903266D01*
X17306277Y-8903266D01*
X17314695Y-8918418D02*
X17336582Y-8940305D01*
X17338266Y-8915051D01*
X17343316Y-8920102D01*
X17348367Y-8921785D01*
X17351734Y-8921785D01*
X17356785Y-8920102D01*
X17365203Y-8911684D01*
X17366887Y-8906633D01*
X17366887Y-8903266D01*
X17365203Y-8898215D01*
X17355102Y-8888113D01*
X17350051Y-8886430D01*
X17346684Y-8886430D01*
X17348367Y-8952090D02*
X17371937Y-8975660D01*
X17392140Y-8925152D01*
X16669143Y-8551857D02*
X16671524Y-8554238D01*
X16678667Y-8556619D01*
X16683428Y-8556619D01*
X16690571Y-8554238D01*
X16695333Y-8549476D01*
X16697714Y-8544714D01*
X16700095Y-8535190D01*
X16700095Y-8528048D01*
X16697714Y-8518524D01*
X16695333Y-8513762D01*
X16690571Y-8509000D01*
X16683428Y-8506619D01*
X16678667Y-8506619D01*
X16671524Y-8509000D01*
X16669143Y-8511381D01*
X16652476Y-8506619D02*
X16621524Y-8506619D01*
X16638190Y-8525667D01*
X16631048Y-8525667D01*
X16626286Y-8528048D01*
X16623905Y-8530429D01*
X16621524Y-8535190D01*
X16621524Y-8547095D01*
X16623905Y-8551857D01*
X16626286Y-8554238D01*
X16631048Y-8556619D01*
X16645333Y-8556619D01*
X16650095Y-8554238D01*
X16652476Y-8551857D01*
X16592952Y-8528048D02*
X16597714Y-8525667D01*
X16600095Y-8523286D01*
X16602476Y-8518524D01*
X16602476Y-8516143D01*
X16600095Y-8511381D01*
X16597714Y-8509000D01*
X16592952Y-8506619D01*
X16583428Y-8506619D01*
X16578667Y-8509000D01*
X16576286Y-8511381D01*
X16573905Y-8516143D01*
X16573905Y-8518524D01*
X16576286Y-8523286D01*
X16578667Y-8525667D01*
X16583428Y-8528048D01*
X16592952Y-8528048D01*
X16597714Y-8530429D01*
X16600095Y-8532810D01*
X16602476Y-8537571D01*
X16602476Y-8547095D01*
X16600095Y-8551857D01*
X16597714Y-8554238D01*
X16592952Y-8556619D01*
X16583428Y-8556619D01*
X16578667Y-8554238D01*
X16576286Y-8551857D01*
X16573905Y-8547095D01*
X16573905Y-8537571D01*
X16576286Y-8532810D01*
X16578667Y-8530429D01*
X16583428Y-8528048D01*
X15224268Y-9523563D02*
X15227636Y-9523563D01*
X15234370Y-9520196D01*
X15237737Y-9516829D01*
X15241104Y-9510095D01*
X15241104Y-9503360D01*
X15239421Y-9498310D01*
X15234370Y-9489892D01*
X15229319Y-9484841D01*
X15220901Y-9479790D01*
X15215850Y-9478107D01*
X15209116Y-9478107D01*
X15202382Y-9481474D01*
X15199015Y-9484841D01*
X15195647Y-9491575D01*
X15195647Y-9494942D01*
X15180495Y-9503360D02*
X15158608Y-9525247D01*
X15183862Y-9526931D01*
X15178811Y-9531981D01*
X15177128Y-9537032D01*
X15177128Y-9540399D01*
X15178811Y-9545450D01*
X15187229Y-9553868D01*
X15192280Y-9555552D01*
X15195647Y-9555552D01*
X15200698Y-9553868D01*
X15210800Y-9543766D01*
X15212483Y-9538716D01*
X15212483Y-9535348D01*
X15177128Y-9577438D02*
X15170394Y-9584173D01*
X15165343Y-9585856D01*
X15161976Y-9585856D01*
X15153558Y-9584173D01*
X15145140Y-9579122D01*
X15131671Y-9565653D01*
X15129987Y-9560602D01*
X15129987Y-9557235D01*
X15131671Y-9552184D01*
X15138405Y-9545450D01*
X15143456Y-9543766D01*
X15146823Y-9543766D01*
X15151874Y-9545450D01*
X15160292Y-9553868D01*
X15161976Y-9558919D01*
X15161976Y-9562286D01*
X15160292Y-9567337D01*
X15153558Y-9574071D01*
X15148507Y-9575755D01*
X15145140Y-9575755D01*
X15140089Y-9574071D01*
X17625355Y-9324898D02*
X17628723Y-9324898D01*
X17635457Y-9321531D01*
X17638824Y-9318164D01*
X17642191Y-9311430D01*
X17642191Y-9304695D01*
X17640508Y-9299645D01*
X17635457Y-9291227D01*
X17630406Y-9286176D01*
X17621988Y-9281125D01*
X17616937Y-9279442D01*
X17610203Y-9279442D01*
X17603469Y-9282809D01*
X17600102Y-9286176D01*
X17596734Y-9292910D01*
X17596734Y-9296277D01*
X17574848Y-9335000D02*
X17598418Y-9358570D01*
X17569797Y-9313113D02*
X17603469Y-9329949D01*
X17581582Y-9351836D01*
X17549594Y-9343418D02*
X17546227Y-9343418D01*
X17541176Y-9345102D01*
X17532758Y-9353519D01*
X17531074Y-9358570D01*
X17531074Y-9361937D01*
X17532758Y-9366988D01*
X17536125Y-9370355D01*
X17542860Y-9373723D01*
X17583266Y-9373723D01*
X17561379Y-9395609D01*
X17140355Y-8832398D02*
X17143723Y-8832398D01*
X17150457Y-8829031D01*
X17153824Y-8825664D01*
X17157191Y-8818930D01*
X17157191Y-8812195D01*
X17155508Y-8807145D01*
X17150457Y-8798727D01*
X17145406Y-8793676D01*
X17136988Y-8788625D01*
X17131937Y-8786942D01*
X17125203Y-8786942D01*
X17118469Y-8790309D01*
X17115102Y-8793676D01*
X17111734Y-8800410D01*
X17111734Y-8803777D01*
X17089848Y-8842500D02*
X17113418Y-8866070D01*
X17084797Y-8820613D02*
X17118469Y-8837449D01*
X17096582Y-8859336D01*
X17062910Y-8845867D02*
X17041024Y-8867754D01*
X17066277Y-8869437D01*
X17061227Y-8874488D01*
X17059543Y-8879539D01*
X17059543Y-8882906D01*
X17061227Y-8887957D01*
X17069645Y-8896375D01*
X17074695Y-8898058D01*
X17078063Y-8898058D01*
X17083113Y-8896375D01*
X17093215Y-8886273D01*
X17094898Y-8881223D01*
X17094898Y-8877855D01*
X16169898Y-8799645D02*
X16169898Y-8796277D01*
X16166531Y-8789543D01*
X16163164Y-8786176D01*
X16156430Y-8782809D01*
X16149695Y-8782809D01*
X16144645Y-8784492D01*
X16136227Y-8789543D01*
X16131176Y-8794594D01*
X16126125Y-8803012D01*
X16124442Y-8808063D01*
X16124442Y-8814797D01*
X16127809Y-8821531D01*
X16131176Y-8824898D01*
X16137910Y-8828266D01*
X16141277Y-8828266D01*
X16180000Y-8850152D02*
X16203570Y-8826582D01*
X16158113Y-8855203D02*
X16174949Y-8821531D01*
X16196836Y-8843418D01*
X16213672Y-8883824D02*
X16237242Y-8860254D01*
X16191785Y-8888875D02*
X16208621Y-8855203D01*
X16230508Y-8877090D01*
X18790355Y-10907398D02*
X18793723Y-10907398D01*
X18800457Y-10904031D01*
X18803824Y-10900664D01*
X18807191Y-10893930D01*
X18807191Y-10887195D01*
X18805508Y-10882145D01*
X18800457Y-10873727D01*
X18795406Y-10868676D01*
X18786988Y-10863625D01*
X18781937Y-10861942D01*
X18775203Y-10861942D01*
X18768469Y-10865309D01*
X18765102Y-10868676D01*
X18761734Y-10875410D01*
X18761734Y-10878777D01*
X18739848Y-10917500D02*
X18763418Y-10941070D01*
X18734797Y-10895613D02*
X18768469Y-10912449D01*
X18746582Y-10934336D01*
X18692707Y-10941070D02*
X18709543Y-10924234D01*
X18728063Y-10939387D01*
X18724695Y-10939387D01*
X18719645Y-10941070D01*
X18711227Y-10949488D01*
X18709543Y-10954539D01*
X18709543Y-10957906D01*
X18711227Y-10962957D01*
X18719645Y-10971375D01*
X18724695Y-10973058D01*
X18728063Y-10973058D01*
X18733113Y-10971375D01*
X18741531Y-10962957D01*
X18743215Y-10957906D01*
X18743215Y-10954539D01*
X18686061Y-10573112D02*
X18686061Y-10569745D01*
X18682694Y-10563010D01*
X18679327Y-10559643D01*
X18672592Y-10556276D01*
X18665858Y-10556276D01*
X18660807Y-10557960D01*
X18652389Y-10563010D01*
X18647339Y-10568061D01*
X18642288Y-10576479D01*
X18640604Y-10581530D01*
X18640604Y-10588264D01*
X18643971Y-10594998D01*
X18647339Y-10598366D01*
X18654073Y-10601733D01*
X18657440Y-10601733D01*
X18696163Y-10623619D02*
X18719733Y-10600049D01*
X18674276Y-10628670D02*
X18691112Y-10594998D01*
X18712999Y-10616885D01*
X18718049Y-10669076D02*
X18711315Y-10662342D01*
X18709631Y-10657291D01*
X18709631Y-10653924D01*
X18711315Y-10645506D01*
X18716366Y-10637088D01*
X18729834Y-10623619D01*
X18734885Y-10621936D01*
X18738252Y-10621936D01*
X18743303Y-10623619D01*
X18750038Y-10630354D01*
X18751721Y-10635405D01*
X18751721Y-10638772D01*
X18750038Y-10643823D01*
X18741620Y-10652240D01*
X18736569Y-10653924D01*
X18733202Y-10653924D01*
X18728151Y-10652240D01*
X18721417Y-10645506D01*
X18719733Y-10640455D01*
X18719733Y-10637088D01*
X18721417Y-10632037D01*
X18277398Y-10284645D02*
X18277398Y-10281277D01*
X18274031Y-10274543D01*
X18270664Y-10271176D01*
X18263930Y-10267809D01*
X18257195Y-10267809D01*
X18252145Y-10269492D01*
X18243727Y-10274543D01*
X18238676Y-10279594D01*
X18233625Y-10288012D01*
X18231942Y-10293063D01*
X18231942Y-10299797D01*
X18235309Y-10306531D01*
X18238676Y-10309898D01*
X18245410Y-10313266D01*
X18248777Y-10313266D01*
X18287500Y-10335152D02*
X18311070Y-10311582D01*
X18265613Y-10340203D02*
X18282449Y-10306531D01*
X18304336Y-10328418D01*
X18314437Y-10355355D02*
X18309387Y-10353672D01*
X18306019Y-10353672D01*
X18300969Y-10355355D01*
X18299285Y-10357039D01*
X18297602Y-10362090D01*
X18297602Y-10365457D01*
X18299285Y-10370508D01*
X18306019Y-10377242D01*
X18311070Y-10378926D01*
X18314437Y-10378926D01*
X18319488Y-10377242D01*
X18321172Y-10375558D01*
X18322855Y-10370508D01*
X18322855Y-10367140D01*
X18321172Y-10362090D01*
X18314437Y-10355355D01*
X18312754Y-10350305D01*
X18312754Y-10346937D01*
X18314437Y-10341887D01*
X18321172Y-10335152D01*
X18326223Y-10333469D01*
X18329590Y-10333469D01*
X18334640Y-10335152D01*
X18341375Y-10341887D01*
X18343058Y-10346937D01*
X18343058Y-10350305D01*
X18341375Y-10355355D01*
X18334640Y-10362090D01*
X18329590Y-10363773D01*
X18326223Y-10363773D01*
X18321172Y-10362090D01*
X17162398Y-9049645D02*
X17162398Y-9046277D01*
X17159031Y-9039543D01*
X17155664Y-9036176D01*
X17148930Y-9032809D01*
X17142195Y-9032809D01*
X17137145Y-9034492D01*
X17128727Y-9039543D01*
X17123676Y-9044594D01*
X17118625Y-9053012D01*
X17116942Y-9058063D01*
X17116942Y-9064797D01*
X17120309Y-9071531D01*
X17123676Y-9074898D01*
X17130410Y-9078266D01*
X17133777Y-9078266D01*
X17172500Y-9100152D02*
X17196070Y-9076582D01*
X17150613Y-9105203D02*
X17167449Y-9071531D01*
X17189336Y-9093418D01*
X17216273Y-9096785D02*
X17223008Y-9103519D01*
X17224691Y-9108570D01*
X17224691Y-9111937D01*
X17223008Y-9120355D01*
X17217957Y-9128773D01*
X17204488Y-9142242D01*
X17199437Y-9143926D01*
X17196070Y-9143926D01*
X17191019Y-9142242D01*
X17184285Y-9135508D01*
X17182602Y-9130457D01*
X17182602Y-9127090D01*
X17184285Y-9122039D01*
X17192703Y-9113621D01*
X17197754Y-9111937D01*
X17201121Y-9111937D01*
X17206172Y-9113621D01*
X17212906Y-9120355D01*
X17214590Y-9125406D01*
X17214590Y-9128773D01*
X17212906Y-9133824D01*
X16667143Y-8727857D02*
X16669524Y-8730238D01*
X16676667Y-8732619D01*
X16681428Y-8732619D01*
X16688571Y-8730238D01*
X16693333Y-8725476D01*
X16695714Y-8720714D01*
X16698095Y-8711190D01*
X16698095Y-8704048D01*
X16695714Y-8694524D01*
X16693333Y-8689762D01*
X16688571Y-8685000D01*
X16681428Y-8682619D01*
X16676667Y-8682619D01*
X16669524Y-8685000D01*
X16667143Y-8687381D01*
X16621905Y-8682619D02*
X16645714Y-8682619D01*
X16648095Y-8706429D01*
X16645714Y-8704048D01*
X16640952Y-8701667D01*
X16629048Y-8701667D01*
X16624286Y-8704048D01*
X16621905Y-8706429D01*
X16619524Y-8711190D01*
X16619524Y-8723095D01*
X16621905Y-8727857D01*
X16624286Y-8730238D01*
X16629048Y-8732619D01*
X16640952Y-8732619D01*
X16645714Y-8730238D01*
X16648095Y-8727857D01*
X16588571Y-8682619D02*
X16583809Y-8682619D01*
X16579048Y-8685000D01*
X16576667Y-8687381D01*
X16574286Y-8692143D01*
X16571905Y-8701667D01*
X16571905Y-8713571D01*
X16574286Y-8723095D01*
X16576667Y-8727857D01*
X16579048Y-8730238D01*
X16583809Y-8732619D01*
X16588571Y-8732619D01*
X16593333Y-8730238D01*
X16595714Y-8727857D01*
X16598095Y-8723095D01*
X16600476Y-8713571D01*
X16600476Y-8701667D01*
X16598095Y-8692143D01*
X16595714Y-8687381D01*
X16593333Y-8685000D01*
X16588571Y-8682619D01*
X15521253Y-9820548D02*
X15524620Y-9820548D01*
X15531355Y-9817181D01*
X15534722Y-9813814D01*
X15538089Y-9807079D01*
X15538089Y-9800345D01*
X15536405Y-9795294D01*
X15531355Y-9786876D01*
X15526304Y-9781826D01*
X15517886Y-9776775D01*
X15512835Y-9775091D01*
X15506101Y-9775091D01*
X15499367Y-9778458D01*
X15495999Y-9781826D01*
X15492632Y-9788560D01*
X15492632Y-9791927D01*
X15457277Y-9820548D02*
X15474113Y-9803712D01*
X15492632Y-9818865D01*
X15489265Y-9818865D01*
X15484214Y-9820548D01*
X15475796Y-9828966D01*
X15474113Y-9834017D01*
X15474113Y-9837384D01*
X15475796Y-9842435D01*
X15484214Y-9850853D01*
X15489265Y-9852536D01*
X15492632Y-9852536D01*
X15497683Y-9850853D01*
X15506101Y-9842435D01*
X15507784Y-9837384D01*
X15507784Y-9834017D01*
X15457277Y-9891259D02*
X15477480Y-9871056D01*
X15467378Y-9881157D02*
X15432023Y-9845802D01*
X15440441Y-9847486D01*
X15447175Y-9847486D01*
X15452226Y-9845802D01*
X17634898Y-8469645D02*
X17634898Y-8466277D01*
X17631531Y-8459543D01*
X17628164Y-8456176D01*
X17621430Y-8452809D01*
X17614695Y-8452809D01*
X17609645Y-8454492D01*
X17601227Y-8459543D01*
X17596176Y-8464594D01*
X17591125Y-8473012D01*
X17589442Y-8478063D01*
X17589442Y-8484797D01*
X17592809Y-8491531D01*
X17596176Y-8494898D01*
X17602910Y-8498266D01*
X17606277Y-8498266D01*
X17633215Y-8531937D02*
X17626481Y-8525203D01*
X17624797Y-8520152D01*
X17624797Y-8516785D01*
X17626481Y-8508367D01*
X17631531Y-8499949D01*
X17645000Y-8486481D01*
X17650051Y-8484797D01*
X17653418Y-8484797D01*
X17658469Y-8486481D01*
X17665203Y-8493215D01*
X17666887Y-8498266D01*
X17666887Y-8501633D01*
X17665203Y-8506684D01*
X17656785Y-8515102D01*
X17651734Y-8516785D01*
X17648367Y-8516785D01*
X17643316Y-8515102D01*
X17636582Y-8508367D01*
X17634898Y-8503316D01*
X17634898Y-8499949D01*
X17636582Y-8494898D01*
X17688773Y-8516785D02*
X17695508Y-8523519D01*
X17697191Y-8528570D01*
X17697191Y-8531937D01*
X17695508Y-8540355D01*
X17690457Y-8548773D01*
X17676988Y-8562242D01*
X17671937Y-8563926D01*
X17668570Y-8563926D01*
X17663519Y-8562242D01*
X17656785Y-8555508D01*
X17655102Y-8550457D01*
X17655102Y-8547090D01*
X17656785Y-8542039D01*
X17665203Y-8533621D01*
X17670254Y-8531937D01*
X17673621Y-8531937D01*
X17678672Y-8533621D01*
X17685406Y-8540355D01*
X17687090Y-8545406D01*
X17687090Y-8548773D01*
X17685406Y-8553824D01*
X16435355Y-9759898D02*
X16438722Y-9759898D01*
X16445457Y-9756531D01*
X16448824Y-9753164D01*
X16452191Y-9746430D01*
X16452191Y-9739695D01*
X16450508Y-9734645D01*
X16445457Y-9726227D01*
X16440406Y-9721176D01*
X16431988Y-9716125D01*
X16426937Y-9714442D01*
X16420203Y-9714442D01*
X16413469Y-9717809D01*
X16410101Y-9721176D01*
X16406734Y-9727910D01*
X16406734Y-9731277D01*
X16391582Y-9739695D02*
X16368012Y-9763266D01*
X16418519Y-9783469D01*
X16347809Y-9783469D02*
X16344442Y-9786836D01*
X16342758Y-9791887D01*
X16342758Y-9795254D01*
X16344442Y-9800305D01*
X16349492Y-9808723D01*
X16357910Y-9817140D01*
X16366328Y-9822191D01*
X16371379Y-9823875D01*
X16374746Y-9823875D01*
X16379797Y-9822191D01*
X16383164Y-9818824D01*
X16384848Y-9813773D01*
X16384848Y-9810406D01*
X16383164Y-9805355D01*
X16378113Y-9796937D01*
X16369695Y-9788519D01*
X16361277Y-9783469D01*
X16356227Y-9781785D01*
X16352859Y-9781785D01*
X16347809Y-9783469D01*
X15609898Y-8614645D02*
X15609898Y-8611277D01*
X15606531Y-8604543D01*
X15603164Y-8601176D01*
X15596430Y-8597809D01*
X15589695Y-8597809D01*
X15584645Y-8599492D01*
X15576227Y-8604543D01*
X15571176Y-8609594D01*
X15566125Y-8618012D01*
X15564442Y-8623063D01*
X15564442Y-8629797D01*
X15567809Y-8636531D01*
X15571176Y-8639898D01*
X15577910Y-8643266D01*
X15581277Y-8643266D01*
X15589695Y-8658418D02*
X15613266Y-8681988D01*
X15633469Y-8631481D01*
X15680609Y-8678621D02*
X15660406Y-8658418D01*
X15670508Y-8668519D02*
X15635152Y-8703875D01*
X15636836Y-8695457D01*
X15636836Y-8688723D01*
X15635152Y-8683672D01*
X14520101Y-6888113D02*
X14503266Y-6871277D01*
X14467910Y-6906633D01*
X14550406Y-6918418D02*
X14530203Y-6898215D01*
X14540304Y-6908316D02*
X14504949Y-6943672D01*
X14506633Y-6935254D01*
X14506633Y-6928519D01*
X14504949Y-6923469D01*
X15170101Y-6238113D02*
X15153266Y-6221277D01*
X15117910Y-6256633D01*
X15148215Y-6280203D02*
X15148215Y-6283570D01*
X15149898Y-6288621D01*
X15158316Y-6297039D01*
X15163367Y-6298722D01*
X15166734Y-6298722D01*
X15171785Y-6297039D01*
X15175152Y-6293672D01*
X15178519Y-6286937D01*
X15178519Y-6246531D01*
X15200406Y-6268418D01*
X14151887Y-7950101D02*
X14168722Y-7933266D01*
X14133367Y-7897910D01*
X14087910Y-7943367D02*
X14104746Y-7926531D01*
X14123266Y-7941683D01*
X14119898Y-7941683D01*
X14114848Y-7943367D01*
X14106430Y-7951785D01*
X14104746Y-7956836D01*
X14104746Y-7960203D01*
X14106430Y-7965254D01*
X14114848Y-7973672D01*
X14119898Y-7975355D01*
X14123266Y-7975355D01*
X14128316Y-7973672D01*
X14136734Y-7965254D01*
X14138418Y-7960203D01*
X14138418Y-7956836D01*
X15061887Y-8840102D02*
X15078722Y-8823266D01*
X15043367Y-8787910D01*
X14999594Y-8831684D02*
X15006328Y-8824949D01*
X15011379Y-8823266D01*
X15014746Y-8823266D01*
X15023164Y-8824949D01*
X15031582Y-8830000D01*
X15045051Y-8843469D01*
X15046734Y-8848519D01*
X15046734Y-8851887D01*
X15045051Y-8856937D01*
X15038316Y-8863672D01*
X15033266Y-8865355D01*
X15029898Y-8865355D01*
X15024848Y-8863672D01*
X15016430Y-8855254D01*
X15014746Y-8850203D01*
X15014746Y-8846836D01*
X15016430Y-8841785D01*
X15023164Y-8835051D01*
X15028215Y-8833367D01*
X15031582Y-8833367D01*
X15036633Y-8835051D01*
X14270101Y-6638113D02*
X14253266Y-6621277D01*
X14217910Y-6656633D01*
X14243164Y-6681887D02*
X14266734Y-6705457D01*
X14286937Y-6654949D01*
X14920101Y-5988113D02*
X14903266Y-5971277D01*
X14867910Y-6006633D01*
X14916734Y-6025152D02*
X14911683Y-6023469D01*
X14908316Y-6023469D01*
X14903266Y-6025152D01*
X14901582Y-6026836D01*
X14899898Y-6031887D01*
X14899898Y-6035254D01*
X14901582Y-6040304D01*
X14908316Y-6047039D01*
X14913367Y-6048722D01*
X14916734Y-6048722D01*
X14921785Y-6047039D01*
X14923469Y-6045355D01*
X14925152Y-6040304D01*
X14925152Y-6036937D01*
X14923469Y-6031887D01*
X14916734Y-6025152D01*
X14915051Y-6020101D01*
X14915051Y-6016734D01*
X14916734Y-6011683D01*
X14923469Y-6004949D01*
X14928519Y-6003266D01*
X14931887Y-6003266D01*
X14936937Y-6004949D01*
X14943672Y-6011683D01*
X14945355Y-6016734D01*
X14945355Y-6020101D01*
X14943672Y-6025152D01*
X14936937Y-6031887D01*
X14931887Y-6033570D01*
X14928519Y-6033570D01*
X14923469Y-6031887D01*
X14060101Y-8228113D02*
X14043266Y-8211277D01*
X14007910Y-8246633D01*
X14073570Y-8241582D02*
X14080304Y-8248316D01*
X14081988Y-8253367D01*
X14081988Y-8256734D01*
X14080304Y-8265152D01*
X14075254Y-8273570D01*
X14061785Y-8287039D01*
X14056734Y-8288722D01*
X14053367Y-8288722D01*
X14048316Y-8287039D01*
X14041582Y-8280304D01*
X14039898Y-8275254D01*
X14039898Y-8271887D01*
X14041582Y-8266836D01*
X14050000Y-8258418D01*
X14055051Y-8256734D01*
X14058418Y-8256734D01*
X14063469Y-8258418D01*
X14070203Y-8265152D01*
X14071887Y-8270203D01*
X14071887Y-8273570D01*
X14070203Y-8278621D01*
X14733266Y-8891277D02*
X14716430Y-8874442D01*
X14681074Y-8909797D01*
X14763570Y-8921582D02*
X14743367Y-8901379D01*
X14753469Y-8911481D02*
X14718113Y-8946836D01*
X14719797Y-8938418D01*
X14719797Y-8931684D01*
X14718113Y-8926633D01*
X14750101Y-8978824D02*
X14753469Y-8982191D01*
X14758519Y-8983875D01*
X14761887Y-8983875D01*
X14766937Y-8982191D01*
X14775355Y-8977140D01*
X14783773Y-8968723D01*
X14788824Y-8960305D01*
X14790508Y-8955254D01*
X14790508Y-8951887D01*
X14788824Y-8946836D01*
X14785457Y-8943469D01*
X14780406Y-8941785D01*
X14777039Y-8941785D01*
X14771988Y-8943469D01*
X14763570Y-8948519D01*
X14755152Y-8956937D01*
X14750101Y-8965355D01*
X14748418Y-8970406D01*
X14748418Y-8973773D01*
X14750101Y-8978824D01*
X14412996Y-6460495D02*
X14396161Y-6443659D01*
X14360805Y-6479015D01*
X14443301Y-6490800D02*
X14423098Y-6470597D01*
X14433200Y-6480698D02*
X14397844Y-6516054D01*
X14399528Y-6507636D01*
X14399528Y-6500901D01*
X14397844Y-6495851D01*
X14476973Y-6524472D02*
X14456770Y-6504269D01*
X14466871Y-6514370D02*
X14431516Y-6549725D01*
X14433200Y-6541307D01*
X14433200Y-6534573D01*
X14431516Y-6529522D01*
X14948241Y-7731805D02*
X14965077Y-7714969D01*
X14929722Y-7679613D01*
X14917937Y-7762109D02*
X14938140Y-7741906D01*
X14928038Y-7752008D02*
X14892683Y-7716652D01*
X14901101Y-7718336D01*
X14907835Y-7718336D01*
X14912886Y-7716652D01*
X14872480Y-7743590D02*
X14869113Y-7743590D01*
X14864062Y-7745273D01*
X14855644Y-7753691D01*
X14853960Y-7758742D01*
X14853960Y-7762109D01*
X14855644Y-7767160D01*
X14859011Y-7770527D01*
X14865746Y-7773894D01*
X14906152Y-7773894D01*
X14884265Y-7795781D01*
D10*
X13336222Y-5043266D02*
X13353058Y-5026430D01*
X13317703Y-4991074D01*
X13305918Y-5073570D02*
X13326121Y-5053367D01*
X13316019Y-5063469D02*
X13280664Y-5028113D01*
X13289082Y-5029797D01*
X13295816Y-5029797D01*
X13300867Y-5028113D01*
X13258777Y-5050000D02*
X13236891Y-5071887D01*
X13262145Y-5073570D01*
X13257094Y-5078621D01*
X13255410Y-5083672D01*
X13255410Y-5087039D01*
X13257094Y-5092090D01*
X13265512Y-5100508D01*
X13270562Y-5102191D01*
X13273930Y-5102191D01*
X13278980Y-5100508D01*
X13289082Y-5090406D01*
X13290766Y-5085355D01*
X13290766Y-5081988D01*
X13681222Y-5388266D02*
X13698058Y-5371430D01*
X13662703Y-5336074D01*
X13650918Y-5418570D02*
X13671121Y-5398367D01*
X13661019Y-5408469D02*
X13625664Y-5373113D01*
X13634082Y-5374797D01*
X13640816Y-5374797D01*
X13645867Y-5373113D01*
X13597043Y-5425305D02*
X13620613Y-5448875D01*
X13591992Y-5403418D02*
X13625664Y-5420254D01*
X13603777Y-5442140D01*
X14847362Y-6556123D02*
X14864198Y-6539287D01*
X14828843Y-6503932D01*
X14817057Y-6586428D02*
X14837260Y-6566225D01*
X14827159Y-6576326D02*
X14791804Y-6540971D01*
X14800222Y-6542654D01*
X14806956Y-6542654D01*
X14812007Y-6540971D01*
X14769917Y-6562857D02*
X14746347Y-6586428D01*
X14796854Y-6606631D01*
X15317588Y-7019278D02*
X15334424Y-7002442D01*
X15299069Y-6967087D01*
X15287283Y-7049583D02*
X15307486Y-7029379D01*
X15297385Y-7039481D02*
X15262030Y-7004126D01*
X15270448Y-7005809D01*
X15277182Y-7005809D01*
X15282233Y-7004126D01*
X15246877Y-7049583D02*
X15248561Y-7044532D01*
X15248561Y-7041165D01*
X15246877Y-7036114D01*
X15245194Y-7034430D01*
X15240143Y-7032747D01*
X15236776Y-7032747D01*
X15231725Y-7034430D01*
X15224991Y-7041165D01*
X15223307Y-7046215D01*
X15223307Y-7049583D01*
X15224991Y-7054633D01*
X15226674Y-7056317D01*
X15231725Y-7058000D01*
X15235092Y-7058000D01*
X15240143Y-7056317D01*
X15246877Y-7049583D01*
X15251928Y-7047899D01*
X15255295Y-7047899D01*
X15260346Y-7049583D01*
X15267080Y-7056317D01*
X15268764Y-7061368D01*
X15268764Y-7064735D01*
X15267080Y-7069786D01*
X15260346Y-7076520D01*
X15255295Y-7078204D01*
X15251928Y-7078204D01*
X15246877Y-7076520D01*
X15240143Y-7069786D01*
X15238459Y-7064735D01*
X15238459Y-7061368D01*
X15240143Y-7056317D01*
X15294457Y-7643786D02*
X15277621Y-7626950D01*
X15242266Y-7662306D01*
X15272571Y-7685876D02*
X15272571Y-7689243D01*
X15274254Y-7694294D01*
X15282672Y-7702712D01*
X15287723Y-7704395D01*
X15291090Y-7704395D01*
X15296141Y-7702712D01*
X15299508Y-7699345D01*
X15302875Y-7692610D01*
X15302875Y-7652204D01*
X15324762Y-7674091D01*
X15301192Y-7721231D02*
X15323078Y-7743118D01*
X15324762Y-7717864D01*
X15329813Y-7722915D01*
X15334863Y-7724598D01*
X15338231Y-7724598D01*
X15343281Y-7722915D01*
X15351699Y-7714497D01*
X15353383Y-7709446D01*
X15353383Y-7706079D01*
X15351699Y-7701028D01*
X15341598Y-7690927D01*
X15336547Y-7689243D01*
X15333180Y-7689243D01*
D13*
X14745337Y-6128155D02*
X14728501Y-6111319D01*
X14693145Y-6146675D01*
X14723450Y-6170245D02*
X14723450Y-6173612D01*
X14725134Y-6178663D01*
X14733552Y-6187081D01*
X14738602Y-6188764D01*
X14741969Y-6188764D01*
X14747020Y-6187081D01*
X14750387Y-6183713D01*
X14753755Y-6176979D01*
X14753755Y-6136573D01*
X14775641Y-6158460D01*
X14782376Y-6212334D02*
X14805946Y-6188764D01*
X14760489Y-6217385D02*
X14777325Y-6183713D01*
X14799211Y-6205600D01*
X15285768Y-8069332D02*
X15302604Y-8052496D01*
X15267249Y-8017140D01*
X15243679Y-8047445D02*
X15240311Y-8047445D01*
X15235261Y-8049128D01*
X15226843Y-8057546D01*
X15225159Y-8062597D01*
X15225159Y-8065964D01*
X15226843Y-8071015D01*
X15230210Y-8074382D01*
X15236944Y-8077749D01*
X15277350Y-8077749D01*
X15255464Y-8099636D01*
X15188120Y-8096269D02*
X15204956Y-8079433D01*
X15223475Y-8094585D01*
X15220108Y-8094585D01*
X15215058Y-8096269D01*
X15206640Y-8104687D01*
X15204956Y-8109738D01*
X15204956Y-8113105D01*
X15206640Y-8118156D01*
X15215058Y-8126574D01*
X15220108Y-8128257D01*
X15223475Y-8128257D01*
X15228526Y-8126574D01*
X15236944Y-8118156D01*
X15238628Y-8113105D01*
X15238628Y-8109738D01*
X17825766Y-9198777D02*
X17808930Y-9181942D01*
X17773574Y-9217297D01*
X17803879Y-9240867D02*
X17803879Y-9244234D01*
X17805563Y-9249285D01*
X17813981Y-9257703D01*
X17819031Y-9259387D01*
X17822398Y-9259387D01*
X17827449Y-9257703D01*
X17830816Y-9254336D01*
X17834184Y-9247602D01*
X17834184Y-9207195D01*
X17856070Y-9229082D01*
X17851019Y-9294742D02*
X17844285Y-9288008D01*
X17842602Y-9282957D01*
X17842602Y-9279590D01*
X17844285Y-9271172D01*
X17849336Y-9262754D01*
X17862805Y-9249285D01*
X17867855Y-9247602D01*
X17871223Y-9247602D01*
X17876273Y-9249285D01*
X17883008Y-9256019D01*
X17884691Y-9261070D01*
X17884691Y-9264437D01*
X17883008Y-9269488D01*
X17874590Y-9277906D01*
X17869539Y-9279590D01*
X17866172Y-9279590D01*
X17861121Y-9277906D01*
X17854387Y-9271172D01*
X17852703Y-9266121D01*
X17852703Y-9262754D01*
X17854387Y-9257703D01*
X15973722Y-8743266D02*
X15990558Y-8726430D01*
X15955203Y-8691074D01*
X15931633Y-8721379D02*
X15928266Y-8721379D01*
X15923215Y-8723063D01*
X15914797Y-8731481D01*
X15913113Y-8736531D01*
X15913113Y-8739898D01*
X15914797Y-8744949D01*
X15918164Y-8748316D01*
X15924898Y-8751684D01*
X15965304Y-8751684D01*
X15943418Y-8773570D01*
X15896277Y-8750000D02*
X15872707Y-8773570D01*
X15923215Y-8793773D01*
D10*
X18992979Y-10690121D02*
X19009815Y-10673285D01*
X18974460Y-10637930D01*
X18950890Y-10668235D02*
X18947522Y-10668235D01*
X18942472Y-10669918D01*
X18934054Y-10678336D01*
X18932370Y-10683387D01*
X18932370Y-10686754D01*
X18934054Y-10691805D01*
X18937421Y-10695172D01*
X18944155Y-10698539D01*
X18984561Y-10698539D01*
X18962675Y-10720426D01*
X18922269Y-10720426D02*
X18923952Y-10715375D01*
X18923952Y-10712008D01*
X18922269Y-10706957D01*
X18920585Y-10705273D01*
X18915534Y-10703590D01*
X18912167Y-10703590D01*
X18907116Y-10705273D01*
X18900382Y-10712008D01*
X18898698Y-10717059D01*
X18898698Y-10720426D01*
X18900382Y-10725476D01*
X18902065Y-10727160D01*
X18907116Y-10728844D01*
X18910483Y-10728844D01*
X18915534Y-10727160D01*
X18922269Y-10720426D01*
X18927319Y-10718742D01*
X18930686Y-10718742D01*
X18935737Y-10720426D01*
X18942472Y-10727160D01*
X18944155Y-10732211D01*
X18944155Y-10735578D01*
X18942472Y-10740629D01*
X18935737Y-10747363D01*
X18930686Y-10749047D01*
X18927319Y-10749047D01*
X18922269Y-10747363D01*
X18915534Y-10740629D01*
X18913851Y-10735578D01*
X18913851Y-10732211D01*
X18915534Y-10727160D01*
X18653568Y-10343639D02*
X18670404Y-10326803D01*
X18635048Y-10291448D01*
X18611478Y-10321752D02*
X18608111Y-10321752D01*
X18603060Y-10323436D01*
X18594642Y-10331854D01*
X18592959Y-10336904D01*
X18592959Y-10340272D01*
X18594642Y-10345322D01*
X18598010Y-10348690D01*
X18604744Y-10352057D01*
X18645150Y-10352057D01*
X18623263Y-10373943D01*
X18606427Y-10390779D02*
X18599693Y-10397514D01*
X18594642Y-10399197D01*
X18591275Y-10399197D01*
X18582857Y-10397514D01*
X18574439Y-10392463D01*
X18560971Y-10378994D01*
X18559287Y-10373943D01*
X18559287Y-10370576D01*
X18560971Y-10365525D01*
X18567705Y-10358791D01*
X18572756Y-10357108D01*
X18576123Y-10357108D01*
X18581174Y-10358791D01*
X18589592Y-10367209D01*
X18591275Y-10372260D01*
X18591275Y-10375627D01*
X18589592Y-10380678D01*
X18582857Y-10387412D01*
X18577806Y-10389096D01*
X18574439Y-10389096D01*
X18569389Y-10387412D01*
X17486842Y-9183984D02*
X17503678Y-9167148D01*
X17468322Y-9131793D01*
X17443068Y-9157046D02*
X17421182Y-9178933D01*
X17446436Y-9180617D01*
X17441385Y-9185667D01*
X17439701Y-9190718D01*
X17439701Y-9194085D01*
X17441385Y-9199136D01*
X17449803Y-9207554D01*
X17454854Y-9209238D01*
X17458221Y-9209238D01*
X17463271Y-9207554D01*
X17473373Y-9197452D01*
X17475057Y-9192402D01*
X17475057Y-9189035D01*
X17399295Y-9200820D02*
X17395928Y-9204187D01*
X17394244Y-9209238D01*
X17394244Y-9212605D01*
X17395928Y-9217656D01*
X17400979Y-9226073D01*
X17409397Y-9234491D01*
X17417815Y-9239542D01*
X17422865Y-9241226D01*
X17426233Y-9241226D01*
X17431283Y-9239542D01*
X17434650Y-9236175D01*
X17436334Y-9231124D01*
X17436334Y-9227757D01*
X17434650Y-9222706D01*
X17429600Y-9214288D01*
X17421182Y-9205870D01*
X17412764Y-9200820D01*
X17407713Y-9199136D01*
X17404346Y-9199136D01*
X17399295Y-9200820D01*
X17006223Y-8698266D02*
X17023058Y-8681430D01*
X16987703Y-8646074D01*
X16962449Y-8671328D02*
X16940563Y-8693215D01*
X16965816Y-8694898D01*
X16960766Y-8699949D01*
X16959082Y-8705000D01*
X16959082Y-8708367D01*
X16960766Y-8713418D01*
X16969184Y-8721836D01*
X16974234Y-8723519D01*
X16977602Y-8723519D01*
X16982652Y-8721836D01*
X16992754Y-8711734D01*
X16994437Y-8706684D01*
X16994437Y-8703316D01*
X16942246Y-8762242D02*
X16962449Y-8742039D01*
X16952348Y-8752140D02*
X16916992Y-8716785D01*
X16925410Y-8718469D01*
X16932145Y-8718469D01*
X16937195Y-8716785D01*
X16308266Y-8661277D02*
X16291430Y-8644442D01*
X16256074Y-8679797D01*
X16281328Y-8705051D02*
X16303215Y-8726937D01*
X16304898Y-8701684D01*
X16309949Y-8706734D01*
X16315000Y-8708418D01*
X16318367Y-8708418D01*
X16323418Y-8706734D01*
X16331836Y-8698316D01*
X16333519Y-8693266D01*
X16333519Y-8689898D01*
X16331836Y-8684848D01*
X16321734Y-8674746D01*
X16316683Y-8673063D01*
X16313316Y-8673063D01*
X16320051Y-8737039D02*
X16320051Y-8740406D01*
X16321734Y-8745457D01*
X16330152Y-8753875D01*
X16335203Y-8755558D01*
X16338570Y-8755558D01*
X16343621Y-8753875D01*
X16346988Y-8750508D01*
X16350355Y-8743773D01*
X16350355Y-8703367D01*
X16372242Y-8725254D01*
D13*
X17493266Y-9531277D02*
X17476430Y-9514442D01*
X17441074Y-9549797D01*
X17466328Y-9575051D02*
X17488215Y-9596937D01*
X17489898Y-9571684D01*
X17494949Y-9576734D01*
X17500000Y-9578418D01*
X17503367Y-9578418D01*
X17508418Y-9576734D01*
X17516836Y-9568316D01*
X17518519Y-9563266D01*
X17518519Y-9559898D01*
X17516836Y-9554848D01*
X17506734Y-9544746D01*
X17501684Y-9543063D01*
X17498316Y-9543063D01*
X17500000Y-9608723D02*
X17521887Y-9630609D01*
X17523570Y-9605355D01*
X17528621Y-9610406D01*
X17533672Y-9612090D01*
X17537039Y-9612090D01*
X17542090Y-9610406D01*
X17550508Y-9601988D01*
X17552191Y-9596937D01*
X17552191Y-9593570D01*
X17550508Y-9588519D01*
X17540406Y-9578418D01*
X17535355Y-9576734D01*
X17531988Y-9576734D01*
X16303722Y-9073266D02*
X16320558Y-9056430D01*
X16285203Y-9021074D01*
X16259949Y-9046328D02*
X16238062Y-9068215D01*
X16263316Y-9069898D01*
X16258266Y-9074949D01*
X16256582Y-9080000D01*
X16256582Y-9083367D01*
X16258266Y-9088418D01*
X16266683Y-9096836D01*
X16271734Y-9098519D01*
X16275101Y-9098519D01*
X16280152Y-9096836D01*
X16290254Y-9086734D01*
X16291937Y-9081684D01*
X16291937Y-9078316D01*
X16219543Y-9110305D02*
X16243113Y-9133875D01*
X16214492Y-9088418D02*
X16248164Y-9105254D01*
X16226277Y-9127140D01*
X17983266Y-9041277D02*
X17966430Y-9024442D01*
X17931074Y-9059797D01*
X17956328Y-9085051D02*
X17978215Y-9106937D01*
X17979898Y-9081684D01*
X17984949Y-9086734D01*
X17990000Y-9088418D01*
X17993367Y-9088418D01*
X17998418Y-9086734D01*
X18006836Y-9078316D01*
X18008519Y-9073266D01*
X18008519Y-9069898D01*
X18006836Y-9064848D01*
X17996734Y-9054746D01*
X17991684Y-9053063D01*
X17988316Y-9053063D01*
X18008519Y-9137242D02*
X18001785Y-9130508D01*
X18000102Y-9125457D01*
X18000102Y-9122090D01*
X18001785Y-9113672D01*
X18006836Y-9105254D01*
X18020305Y-9091785D01*
X18025355Y-9090102D01*
X18028723Y-9090102D01*
X18033773Y-9091785D01*
X18040508Y-9098519D01*
X18042191Y-9103570D01*
X18042191Y-9106937D01*
X18040508Y-9111988D01*
X18032090Y-9120406D01*
X18027039Y-9122090D01*
X18023672Y-9122090D01*
X18018621Y-9120406D01*
X18011887Y-9113672D01*
X18010203Y-9108621D01*
X18010203Y-9105254D01*
X18011887Y-9100203D01*
X15753266Y-9911277D02*
X15736430Y-9894442D01*
X15701074Y-9929797D01*
X15726328Y-9955051D02*
X15748215Y-9976937D01*
X15749898Y-9951684D01*
X15754949Y-9956734D01*
X15760000Y-9958418D01*
X15763367Y-9958418D01*
X15768418Y-9956734D01*
X15776836Y-9948316D01*
X15778519Y-9943266D01*
X15778519Y-9939898D01*
X15776836Y-9934848D01*
X15766734Y-9924746D01*
X15761683Y-9923063D01*
X15758316Y-9923063D01*
X15760000Y-9988723D02*
X15783570Y-10012293D01*
X15803773Y-9961785D01*
X15073266Y-9221277D02*
X15056430Y-9204442D01*
X15021074Y-9239797D01*
X15046328Y-9265051D02*
X15068215Y-9286937D01*
X15069898Y-9261684D01*
X15074949Y-9266734D01*
X15080000Y-9268418D01*
X15083367Y-9268418D01*
X15088418Y-9266734D01*
X15096836Y-9258316D01*
X15098519Y-9253266D01*
X15098519Y-9249898D01*
X15096836Y-9244848D01*
X15086734Y-9234746D01*
X15081683Y-9233063D01*
X15078316Y-9233063D01*
X15103570Y-9291988D02*
X15098519Y-9290305D01*
X15095152Y-9290305D01*
X15090101Y-9291988D01*
X15088418Y-9293672D01*
X15086734Y-9298723D01*
X15086734Y-9302090D01*
X15088418Y-9307140D01*
X15095152Y-9313875D01*
X15100203Y-9315558D01*
X15103570Y-9315558D01*
X15108621Y-9313875D01*
X15110304Y-9312191D01*
X15111988Y-9307140D01*
X15111988Y-9303773D01*
X15110304Y-9298723D01*
X15103570Y-9291988D01*
X15101887Y-9286937D01*
X15101887Y-9283570D01*
X15103570Y-9278519D01*
X15110304Y-9271785D01*
X15115355Y-9270102D01*
X15118722Y-9270102D01*
X15123773Y-9271785D01*
X15130508Y-9278519D01*
X15132191Y-9283570D01*
X15132191Y-9286937D01*
X15130508Y-9291988D01*
X15123773Y-9298723D01*
X15118722Y-9300406D01*
X15115355Y-9300406D01*
X15110304Y-9298723D01*
X17743266Y-8801277D02*
X17726430Y-8784442D01*
X17691074Y-8819797D01*
X17746633Y-8851785D02*
X17770203Y-8828215D01*
X17724746Y-8856836D02*
X17741582Y-8823164D01*
X17763469Y-8845051D01*
X17760102Y-8888824D02*
X17763469Y-8892191D01*
X17768519Y-8893875D01*
X17771887Y-8893875D01*
X17776937Y-8892191D01*
X17785355Y-8887140D01*
X17793773Y-8878723D01*
X17798824Y-8870305D01*
X17800508Y-8865254D01*
X17800508Y-8861887D01*
X17798824Y-8856836D01*
X17795457Y-8853469D01*
X17790406Y-8851785D01*
X17787039Y-8851785D01*
X17781988Y-8853469D01*
X17773570Y-8858519D01*
X17765152Y-8866937D01*
X17760102Y-8875355D01*
X17758418Y-8880406D01*
X17758418Y-8883773D01*
X17760102Y-8888824D01*
X16098722Y-9863266D02*
X16115558Y-9846430D01*
X16080203Y-9811074D01*
X16048215Y-9866633D02*
X16071785Y-9890203D01*
X16043164Y-9844746D02*
X16076836Y-9861582D01*
X16054949Y-9883469D01*
X16034746Y-9927242D02*
X16054949Y-9907039D01*
X16044848Y-9917140D02*
X16009492Y-9881785D01*
X16017910Y-9883469D01*
X16024645Y-9883469D01*
X16029695Y-9881785D01*
X15208722Y-8953266D02*
X15225558Y-8936430D01*
X15190203Y-8901074D01*
X15158215Y-8956633D02*
X15181785Y-8980203D01*
X15153164Y-8934746D02*
X15186836Y-8951582D01*
X15164949Y-8973469D01*
X15132961Y-8965051D02*
X15129594Y-8965051D01*
X15124543Y-8966734D01*
X15116125Y-8975152D01*
X15114442Y-8980203D01*
X15114442Y-8983570D01*
X15116125Y-8988621D01*
X15119492Y-8991988D01*
X15126227Y-8995355D01*
X15166633Y-8995355D01*
X15144746Y-9017242D01*
D10*
X14740101Y-7108113D02*
X14711480Y-7113164D01*
X14719898Y-7087910D02*
X14684543Y-7123266D01*
X14698012Y-7136734D01*
X14703062Y-7138418D01*
X14706430Y-7138418D01*
X14711480Y-7136734D01*
X14716531Y-7131683D01*
X14718215Y-7126633D01*
X14718215Y-7123266D01*
X14716531Y-7118215D01*
X14703062Y-7104746D01*
X14773773Y-7141785D02*
X14753570Y-7121582D01*
X14763672Y-7131683D02*
X14728316Y-7167039D01*
X14730000Y-7158621D01*
X14730000Y-7151887D01*
X14728316Y-7146836D01*
X15390101Y-6458113D02*
X15361480Y-6463164D01*
X15369898Y-6437910D02*
X15334543Y-6473266D01*
X15348012Y-6486734D01*
X15353062Y-6488418D01*
X15356430Y-6488418D01*
X15361480Y-6486734D01*
X15366531Y-6481683D01*
X15368215Y-6476633D01*
X15368215Y-6473266D01*
X15366531Y-6468215D01*
X15353062Y-6454746D01*
X15371582Y-6503570D02*
X15371582Y-6506937D01*
X15373266Y-6511988D01*
X15381683Y-6520406D01*
X15386734Y-6522090D01*
X15390101Y-6522090D01*
X15395152Y-6520406D01*
X15398519Y-6517039D01*
X15401887Y-6510304D01*
X15401887Y-6469898D01*
X15423773Y-6491785D01*
X14371887Y-7730101D02*
X14366836Y-7701480D01*
X14392090Y-7709898D02*
X14356734Y-7674543D01*
X14343266Y-7688012D01*
X14341582Y-7693062D01*
X14341582Y-7696430D01*
X14343266Y-7701480D01*
X14348316Y-7706531D01*
X14353367Y-7708215D01*
X14356734Y-7708215D01*
X14361785Y-7706531D01*
X14375254Y-7693062D01*
X14324746Y-7706531D02*
X14302859Y-7728418D01*
X14328113Y-7730101D01*
X14323062Y-7735152D01*
X14321379Y-7740203D01*
X14321379Y-7743570D01*
X14323062Y-7748621D01*
X14331480Y-7757039D01*
X14336531Y-7758722D01*
X14339898Y-7758722D01*
X14344949Y-7757039D01*
X14355051Y-7746937D01*
X14356734Y-7741887D01*
X14356734Y-7738519D01*
X15281887Y-8620102D02*
X15276836Y-8591481D01*
X15302090Y-8599898D02*
X15266734Y-8564543D01*
X15253266Y-8578012D01*
X15251582Y-8583063D01*
X15251582Y-8586430D01*
X15253266Y-8591481D01*
X15258316Y-8596531D01*
X15263367Y-8598215D01*
X15266734Y-8598215D01*
X15271785Y-8596531D01*
X15285254Y-8583063D01*
X15228012Y-8626836D02*
X15251582Y-8650406D01*
X15222961Y-8604949D02*
X15256633Y-8621785D01*
X15234746Y-8643672D01*
X17518266Y-8586277D02*
X17489645Y-8591328D01*
X17498063Y-8566074D02*
X17462707Y-8601430D01*
X17476176Y-8614898D01*
X17481227Y-8616582D01*
X17484594Y-8616582D01*
X17489645Y-8614898D01*
X17494695Y-8609848D01*
X17496379Y-8604797D01*
X17496379Y-8601430D01*
X17494695Y-8596379D01*
X17481227Y-8582910D01*
X17499746Y-8631734D02*
X17499746Y-8635102D01*
X17501430Y-8640152D01*
X17509848Y-8648570D01*
X17514898Y-8650254D01*
X17518266Y-8650254D01*
X17523316Y-8648570D01*
X17526684Y-8645203D01*
X17530051Y-8638469D01*
X17530051Y-8598063D01*
X17551937Y-8619949D01*
X17533418Y-8665406D02*
X17533418Y-8668773D01*
X17535102Y-8673824D01*
X17543519Y-8682242D01*
X17548570Y-8683926D01*
X17551937Y-8683926D01*
X17556988Y-8682242D01*
X17560355Y-8678875D01*
X17563723Y-8672140D01*
X17563723Y-8631734D01*
X17585609Y-8653621D01*
X16318722Y-9643266D02*
X16313672Y-9614645D01*
X16338925Y-9623063D02*
X16303570Y-9587707D01*
X16290101Y-9601176D01*
X16288418Y-9606227D01*
X16288418Y-9609594D01*
X16290101Y-9614645D01*
X16295152Y-9619695D01*
X16300203Y-9621379D01*
X16303570Y-9621379D01*
X16308621Y-9619695D01*
X16322090Y-9606227D01*
X16273266Y-9624746D02*
X16269898Y-9624746D01*
X16264848Y-9626430D01*
X16256430Y-9634848D01*
X16254746Y-9639898D01*
X16254746Y-9643266D01*
X16256430Y-9648316D01*
X16259797Y-9651684D01*
X16266531Y-9655051D01*
X16306937Y-9655051D01*
X16285051Y-9676937D01*
X16237910Y-9653367D02*
X16216024Y-9675254D01*
X16241277Y-9676937D01*
X16236227Y-9681988D01*
X16234543Y-9687039D01*
X16234543Y-9690406D01*
X16236227Y-9695457D01*
X16244645Y-9703875D01*
X16249695Y-9705558D01*
X16253062Y-9705558D01*
X16258113Y-9703875D01*
X16268215Y-9693773D01*
X16269898Y-9688723D01*
X16269898Y-9685355D01*
X15428722Y-8733266D02*
X15423672Y-8704645D01*
X15448925Y-8713063D02*
X15413570Y-8677707D01*
X15400101Y-8691176D01*
X15398418Y-8696227D01*
X15398418Y-8699594D01*
X15400101Y-8704645D01*
X15405152Y-8709695D01*
X15410203Y-8711379D01*
X15413570Y-8711379D01*
X15418621Y-8709695D01*
X15432090Y-8696227D01*
X15383266Y-8714746D02*
X15379898Y-8714746D01*
X15374848Y-8716430D01*
X15366430Y-8724848D01*
X15364746Y-8729898D01*
X15364746Y-8733266D01*
X15366430Y-8738316D01*
X15369797Y-8741684D01*
X15376531Y-8745051D01*
X15416937Y-8745051D01*
X15395051Y-8766937D01*
X15341176Y-8773672D02*
X15364746Y-8797242D01*
X15336125Y-8751785D02*
X15369797Y-8768621D01*
X15347910Y-8790508D01*
D11*
X14186172Y-5830922D02*
X14243414Y-5888164D01*
X14246781Y-5898266D01*
X14246781Y-5905000D01*
X14243414Y-5915102D01*
X14229945Y-5928570D01*
X14219844Y-5931938D01*
X14213109Y-5931938D01*
X14203008Y-5928570D01*
X14145766Y-5871328D01*
X14145766Y-6012750D02*
X14186172Y-5972344D01*
X14165969Y-5992547D02*
X14095258Y-5921836D01*
X14112094Y-5925203D01*
X14125563Y-5925203D01*
X14135664Y-5921836D01*
X14592847Y-8274403D02*
X14650089Y-8217161D01*
X14660191Y-8213794D01*
X14666925Y-8213794D01*
X14677027Y-8217161D01*
X14690495Y-8230630D01*
X14693863Y-8240731D01*
X14693863Y-8247465D01*
X14690495Y-8257567D01*
X14633253Y-8314809D01*
X14670292Y-8338379D02*
X14670292Y-8345113D01*
X14673660Y-8355215D01*
X14690495Y-8372051D01*
X14700597Y-8375418D01*
X14707331Y-8375418D01*
X14717433Y-8372051D01*
X14724167Y-8365317D01*
X14730902Y-8351848D01*
X14730902Y-8271036D01*
X14774675Y-8314809D01*
X18094133Y-9723883D02*
X18151375Y-9781125D01*
X18154742Y-9791226D01*
X18154742Y-9797961D01*
X18151375Y-9808062D01*
X18137906Y-9821531D01*
X18127804Y-9824898D01*
X18121070Y-9824898D01*
X18110968Y-9821531D01*
X18053726Y-9764289D01*
X17986383Y-9831633D02*
X18020055Y-9797961D01*
X18057094Y-9828265D01*
X18050359Y-9828265D01*
X18040258Y-9831633D01*
X18023422Y-9848468D01*
X18020055Y-9858570D01*
X18020055Y-9865304D01*
X18023422Y-9875406D01*
X18040258Y-9892242D01*
X18050359Y-9895609D01*
X18057094Y-9895609D01*
X18067195Y-9892242D01*
X18084031Y-9875406D01*
X18087398Y-9865304D01*
X18087398Y-9858570D01*
X15617847Y-9289403D02*
X15675089Y-9232161D01*
X15685191Y-9228794D01*
X15691925Y-9228794D01*
X15702027Y-9232161D01*
X15715495Y-9245630D01*
X15718863Y-9255731D01*
X15718863Y-9262466D01*
X15715495Y-9272567D01*
X15658253Y-9329809D01*
X15722230Y-9393785D02*
X15708761Y-9380317D01*
X15705394Y-9370215D01*
X15705394Y-9363481D01*
X15708761Y-9346645D01*
X15718863Y-9329809D01*
X15745800Y-9302872D01*
X15755902Y-9299504D01*
X15762636Y-9299504D01*
X15772737Y-9302872D01*
X15786206Y-9316340D01*
X15789573Y-9326442D01*
X15789573Y-9333176D01*
X15786206Y-9343278D01*
X15769370Y-9360114D01*
X15759269Y-9363481D01*
X15752534Y-9363481D01*
X15742433Y-9360114D01*
X15728964Y-9346645D01*
X15725597Y-9336543D01*
X15725597Y-9329809D01*
X15728964Y-9319707D01*
D10*
X16873266Y-9231277D02*
X16844645Y-9236328D01*
X16853063Y-9211074D02*
X16817707Y-9246430D01*
X16831176Y-9259898D01*
X16836227Y-9261582D01*
X16839594Y-9261582D01*
X16844645Y-9259898D01*
X16849695Y-9254848D01*
X16851379Y-9249797D01*
X16851379Y-9246430D01*
X16849695Y-9241379D01*
X16836227Y-9227910D01*
X16854746Y-9276734D02*
X16854746Y-9280102D01*
X16856430Y-9285152D01*
X16864848Y-9293570D01*
X16869898Y-9295254D01*
X16873266Y-9295254D01*
X16878316Y-9293570D01*
X16881684Y-9290203D01*
X16885051Y-9283469D01*
X16885051Y-9243063D01*
X16906937Y-9264949D01*
X16940609Y-9298621D02*
X16920406Y-9278418D01*
X16930508Y-9288519D02*
X16895152Y-9323875D01*
X16896836Y-9315457D01*
X16896836Y-9308723D01*
X16895152Y-9303672D01*
D13*
X16749898Y-9354645D02*
X16749898Y-9351277D01*
X16746531Y-9344543D01*
X16743164Y-9341176D01*
X16736430Y-9337809D01*
X16729695Y-9337809D01*
X16724645Y-9339492D01*
X16716227Y-9344543D01*
X16711176Y-9349594D01*
X16706125Y-9358012D01*
X16704442Y-9363063D01*
X16704442Y-9369797D01*
X16707809Y-9376531D01*
X16711176Y-9379898D01*
X16717910Y-9383266D01*
X16721277Y-9383266D01*
X16748215Y-9416937D02*
X16741480Y-9410203D01*
X16739797Y-9405152D01*
X16739797Y-9401785D01*
X16741480Y-9393367D01*
X16746531Y-9384949D01*
X16760000Y-9371481D01*
X16765051Y-9369797D01*
X16768418Y-9369797D01*
X16773469Y-9371481D01*
X16780203Y-9378215D01*
X16781887Y-9383266D01*
X16781887Y-9386633D01*
X16780203Y-9391684D01*
X16771785Y-9400102D01*
X16766734Y-9401785D01*
X16763367Y-9401785D01*
X16758316Y-9400102D01*
X16751582Y-9393367D01*
X16749898Y-9388316D01*
X16749898Y-9384949D01*
X16751582Y-9379898D01*
X16786937Y-9425355D02*
X16781887Y-9423672D01*
X16778519Y-9423672D01*
X16773469Y-9425355D01*
X16771785Y-9427039D01*
X16770101Y-9432090D01*
X16770101Y-9435457D01*
X16771785Y-9440508D01*
X16778519Y-9447242D01*
X16783570Y-9448926D01*
X16786937Y-9448926D01*
X16791988Y-9447242D01*
X16793672Y-9445558D01*
X16795355Y-9440508D01*
X16795355Y-9437140D01*
X16793672Y-9432090D01*
X16786937Y-9425355D01*
X16785254Y-9420305D01*
X16785254Y-9416937D01*
X16786937Y-9411887D01*
X16793672Y-9405152D01*
X16798723Y-9403469D01*
X16802090Y-9403469D01*
X16807140Y-9405152D01*
X16813875Y-9411887D01*
X16815558Y-9416937D01*
X16815558Y-9420305D01*
X16813875Y-9425355D01*
X16807140Y-9432090D01*
X16802090Y-9433773D01*
X16798723Y-9433773D01*
X16793672Y-9432090D01*
X17333266Y-9691277D02*
X17316430Y-9674442D01*
X17281074Y-9709797D01*
X17306328Y-9735051D02*
X17328215Y-9756937D01*
X17329898Y-9731684D01*
X17334949Y-9736734D01*
X17340000Y-9738418D01*
X17343367Y-9738418D01*
X17348418Y-9736734D01*
X17356836Y-9728316D01*
X17358519Y-9723266D01*
X17358519Y-9719898D01*
X17356836Y-9714848D01*
X17346734Y-9704746D01*
X17341684Y-9703063D01*
X17338316Y-9703063D01*
X17360203Y-9788926D02*
X17343367Y-9772090D01*
X17358519Y-9753570D01*
X17358519Y-9756937D01*
X17360203Y-9761988D01*
X17368621Y-9770406D01*
X17373672Y-9772090D01*
X17377039Y-9772090D01*
X17382090Y-9770406D01*
X17390508Y-9761988D01*
X17392191Y-9756937D01*
X17392191Y-9753570D01*
X17390508Y-9748519D01*
X17382090Y-9740102D01*
X17377039Y-9738418D01*
X17373672Y-9738418D01*
X17093266Y-9451277D02*
X17076430Y-9434442D01*
X17041074Y-9469797D01*
X17066328Y-9495051D02*
X17088215Y-9516937D01*
X17089898Y-9491684D01*
X17094949Y-9496734D01*
X17100000Y-9498418D01*
X17103367Y-9498418D01*
X17108418Y-9496734D01*
X17116836Y-9488316D01*
X17118519Y-9483266D01*
X17118519Y-9479898D01*
X17116836Y-9474848D01*
X17106734Y-9464746D01*
X17101684Y-9463063D01*
X17098316Y-9463063D01*
X17140406Y-9498418D02*
X17147140Y-9505152D01*
X17148824Y-9510203D01*
X17148824Y-9513570D01*
X17147140Y-9521988D01*
X17142090Y-9530406D01*
X17128621Y-9543875D01*
X17123570Y-9545558D01*
X17120203Y-9545558D01*
X17115152Y-9543875D01*
X17108418Y-9537140D01*
X17106734Y-9532090D01*
X17106734Y-9528723D01*
X17108418Y-9523672D01*
X17116836Y-9515254D01*
X17121887Y-9513570D01*
X17125254Y-9513570D01*
X17130305Y-9515254D01*
X17137039Y-9521988D01*
X17138723Y-9527039D01*
X17138723Y-9530406D01*
X17137039Y-9535457D01*
X12617572Y-6579683D02*
X12707375Y-6489881D01*
X12869019Y-6651525D02*
X12779217Y-6741328D01*
X12779217Y-6741328D02*
X12617572Y-6579683D01*
X12707375Y-6489881D02*
X12869019Y-6651525D01*
X12293819Y-6270763D02*
X12132174Y-6109119D01*
X12132174Y-6109119D02*
X12221977Y-6019316D01*
X12383621Y-6180961D02*
X12293819Y-6270763D01*
X12221977Y-6019316D02*
X12383621Y-6180961D01*
X12065473Y-7485796D02*
X11975671Y-7395993D01*
X12137315Y-7234349D02*
X12227118Y-7324151D01*
X12227118Y-7324151D02*
X12065473Y-7485796D01*
X11975671Y-7395993D02*
X12137315Y-7234349D01*
X11772471Y-7599193D02*
X11934115Y-7437549D01*
X11862273Y-7688996D02*
X11772471Y-7599193D01*
X11934115Y-7437549D02*
X12023918Y-7527351D01*
X12023918Y-7527351D02*
X11862273Y-7688996D01*
X12363684Y-7806833D02*
X12525328Y-7968478D01*
X12525328Y-7968478D02*
X12435526Y-8058280D01*
X12435526Y-8058280D02*
X12273881Y-7896636D01*
X12273881Y-7896636D02*
X12363684Y-7806833D01*
X12020121Y-6689151D02*
X12109923Y-6599349D01*
X12271568Y-6760993D02*
X12181765Y-6850796D01*
X12181765Y-6850796D02*
X12020121Y-6689151D01*
X12109923Y-6599349D02*
X12271568Y-6760993D01*
X12408231Y-7762286D02*
X12498034Y-7672483D01*
X12498034Y-7672483D02*
X12659678Y-7834128D01*
X12659678Y-7834128D02*
X12569876Y-7923930D01*
X12569876Y-7923930D02*
X12408231Y-7762286D01*
X12783776Y-7713566D02*
X12622131Y-7551921D01*
X12711934Y-7462119D02*
X12873578Y-7623763D01*
X12622131Y-7551921D02*
X12711934Y-7462119D01*
X12873578Y-7623763D02*
X12783776Y-7713566D01*
D15*
X13885401Y-9602627D02*
X14203302Y-9284725D01*
X13858999Y-9576225D02*
X13885401Y-9602627D01*
X14176900Y-9258324D02*
X14203302Y-9284725D01*
X13843014Y-8988018D02*
X13853611Y-8977421D01*
X13525113Y-9242339D02*
X13843014Y-8924438D01*
X13843014Y-8924438D02*
X13869416Y-8950840D01*
X13811224Y-8956228D02*
X13843014Y-8988018D01*
X13525113Y-9242339D02*
X13551515Y-9268741D01*
D13*
X16263223Y-11173015D02*
X16072304Y-11363934D01*
X16072304Y-11363934D02*
X16546066Y-11837695D01*
X16404645Y-11173015D02*
X16263223Y-11173015D01*
X16807696Y-11576066D02*
X16546066Y-11837695D01*
X16404645Y-11173015D02*
X16807696Y-11576066D01*
X15712223Y-10620715D02*
X15521304Y-10811634D01*
X15853645Y-10620715D02*
X15712223Y-10620715D01*
X15521304Y-10811634D02*
X15995066Y-11285395D01*
X16256695Y-11023766D02*
X15995066Y-11285395D01*
X15853645Y-10620715D02*
X16256695Y-11023766D01*
X11724278Y-6194977D02*
X11939804Y-5979450D01*
X11939804Y-5979450D02*
X12047567Y-6087214D01*
X11832041Y-6302740D02*
X11724278Y-6194977D01*
X12047567Y-6087214D02*
X11832041Y-6302740D01*
X15793881Y-11761645D02*
X15578355Y-11546118D01*
X15901645Y-11653881D02*
X15793881Y-11761645D01*
X15686118Y-11438355D02*
X15901645Y-11653881D01*
X15578355Y-11546118D02*
X15686118Y-11438355D01*
X15263670Y-11435266D02*
X15479197Y-11219740D01*
X15371434Y-11543029D02*
X15263670Y-11435266D01*
X15479197Y-11219740D02*
X15586960Y-11327503D01*
X15586960Y-11327503D02*
X15371434Y-11543029D01*
X13466770Y-9217936D02*
X13376968Y-9128133D01*
X13628415Y-9056291D02*
X13466770Y-9217936D01*
X13376968Y-9128133D02*
X13538612Y-8966489D01*
X13538612Y-8966489D02*
X13628415Y-9056291D01*
D11*
X11910894Y-7178504D02*
X12123026Y-6966372D01*
X11769473Y-6895662D02*
X11769473Y-7037083D01*
X11769473Y-7037083D02*
X11910894Y-7178504D01*
X12123026Y-6966372D02*
X11910894Y-6754240D01*
X11910894Y-6754240D02*
X11769473Y-6895662D01*
X12801383Y-11762106D02*
X12693620Y-11869869D01*
X12514014Y-11690264D02*
X12621778Y-11582501D01*
X12621778Y-11582501D02*
X12801383Y-11762106D01*
X12693620Y-11869869D02*
X12514014Y-11690264D01*
X13253550Y-9981952D02*
X13145787Y-9874189D01*
X13325392Y-9694584D02*
X13433155Y-9802347D01*
X13433155Y-9802347D02*
X13253550Y-9981952D01*
X13145787Y-9874189D02*
X13325392Y-9694584D01*
X12414684Y-11370921D02*
X12306921Y-11478684D01*
X12127316Y-11299079D02*
X12235079Y-11191316D01*
X12235079Y-11191316D02*
X12414684Y-11370921D01*
X12306921Y-11478684D02*
X12127316Y-11299079D01*
X13002103Y-9730505D02*
X13181708Y-9550900D01*
X13289471Y-9658663D02*
X13109866Y-9838268D01*
X13181708Y-9550900D02*
X13289471Y-9658663D01*
X13109866Y-9838268D02*
X13002103Y-9730505D01*
D15*
X14858702Y-10003706D02*
X14869299Y-9993109D01*
X14540801Y-10258027D02*
X14567203Y-10284429D01*
X14901089Y-10618315D02*
X15218990Y-10300414D01*
X14858702Y-9940126D02*
X14885104Y-9966528D01*
X15192588Y-10274012D02*
X15218990Y-10300414D01*
X14540801Y-10258027D02*
X14858702Y-9940126D01*
X14826912Y-9971916D02*
X14858702Y-10003706D01*
X14874687Y-10591913D02*
X14901089Y-10618315D01*
D13*
X12792729Y-10669614D02*
X12524028Y-10938314D01*
X12905866Y-10669614D02*
X12792729Y-10669614D01*
X13061429Y-11475715D02*
X13386698Y-11150446D01*
X13386698Y-11150446D02*
X12905866Y-10669614D01*
X12524028Y-10938314D02*
X13061429Y-11475715D01*
X15456727Y-13044000D02*
X15456727Y-13129000D01*
X15456727Y-13129000D02*
X15760727Y-13129000D01*
X15513727Y-12989000D02*
X15758727Y-12989000D01*
X15513727Y-12989000D02*
X15456727Y-13044000D01*
X15760727Y-12989000D02*
X15760727Y-13129000D01*
X18853605Y-7638711D02*
X18853605Y-7883711D01*
X18853605Y-7885711D02*
X18713605Y-7885711D01*
X18798605Y-7581711D02*
X18713605Y-7581711D01*
X18713605Y-7581711D02*
X18713605Y-7885711D01*
X18853605Y-7638711D02*
X18798605Y-7581711D01*
X10996000Y-8269000D02*
X10941000Y-8212000D01*
X10996000Y-8269000D02*
X10996000Y-8514000D01*
X10996000Y-8516000D02*
X10856000Y-8516000D01*
X10941000Y-8212000D02*
X10856000Y-8212000D01*
X10856000Y-8212000D02*
X10856000Y-8516000D01*
X16921299Y-11586568D02*
X17246569Y-11261299D01*
X17133432Y-11798701D02*
X17458701Y-11473431D01*
X16921299Y-11586568D02*
X17133432Y-11798701D01*
X17235995Y-11484150D02*
X17299754Y-11420390D01*
X17154633Y-11565511D02*
X17084049Y-11636096D01*
X17207617Y-11618494D02*
X17098058Y-11508935D01*
X17179419Y-11427574D02*
X17292570Y-11540725D01*
X17458701Y-11473431D02*
X17246569Y-11261299D01*
X17235995Y-11484150D02*
X17207617Y-11618494D01*
X17235995Y-11484150D02*
X17098058Y-11508935D01*
D11*
X12196307Y-7851165D02*
X12016702Y-7671560D01*
X12304070Y-7743402D02*
X12196307Y-7851165D01*
X12124465Y-7563796D02*
X12304070Y-7743402D01*
X12016702Y-7671560D02*
X12124465Y-7563796D01*
X12345645Y-6549392D02*
X12525250Y-6369787D01*
X12453408Y-6657155D02*
X12345645Y-6549392D01*
X12525250Y-6369787D02*
X12633013Y-6477550D01*
X12633013Y-6477550D02*
X12453408Y-6657155D01*
X12163997Y-7521869D02*
X12271760Y-7414106D01*
X12271760Y-7414106D02*
X12451365Y-7593711D01*
X12343602Y-7701474D02*
X12163997Y-7521869D01*
X12451365Y-7593711D02*
X12343602Y-7701474D01*
X12389550Y-6236787D02*
X12497313Y-6344550D01*
X12209945Y-6416392D02*
X12389550Y-6236787D01*
X12497313Y-6344550D02*
X12317708Y-6524155D01*
X12317708Y-6524155D02*
X12209945Y-6416392D01*
D13*
X13263830Y-9014996D02*
X13425475Y-8853351D01*
X13425475Y-8853351D02*
X13515278Y-8943154D01*
X13515278Y-8943154D02*
X13353633Y-9104799D01*
X13353633Y-9104799D02*
X13263830Y-9014996D01*
X13454749Y-8824077D02*
X13616394Y-8662433D01*
X13616394Y-8662433D02*
X13706197Y-8752235D01*
X13544552Y-8913880D02*
X13454749Y-8824077D01*
X13706197Y-8752235D02*
X13544552Y-8913880D01*
X14443709Y-9885727D02*
X14533511Y-9975530D01*
X14371867Y-10137175D02*
X14282064Y-10047372D01*
X14282064Y-10047372D02*
X14443709Y-9885727D01*
X14533511Y-9975530D02*
X14371867Y-10137175D01*
X14569857Y-9939185D02*
X14480054Y-9849382D01*
X14641699Y-9687737D02*
X14731501Y-9777540D01*
X14480054Y-9849382D02*
X14641699Y-9687737D01*
X14731501Y-9777540D02*
X14569857Y-9939185D01*
X12958881Y-8550855D02*
X13066645Y-8658619D01*
X12743355Y-8766382D02*
X12958881Y-8550855D01*
X12851118Y-8874145D02*
X12743355Y-8766382D01*
X13066645Y-8658619D02*
X12851118Y-8874145D01*
X12495701Y-6701246D02*
X12585504Y-6611443D01*
X12657346Y-6862890D02*
X12495701Y-6701246D01*
X12747148Y-6773088D02*
X12657346Y-6862890D01*
X12585504Y-6611443D02*
X12747148Y-6773088D01*
X12105137Y-6136156D02*
X12266781Y-6297801D01*
X12015334Y-6225959D02*
X12105137Y-6136156D01*
X12266781Y-6297801D02*
X12176979Y-6387603D01*
X12176979Y-6387603D02*
X12015334Y-6225959D01*
X12756481Y-7417571D02*
X12846284Y-7327768D01*
X12918126Y-7579216D02*
X12756481Y-7417571D01*
X13007929Y-7489413D02*
X12918126Y-7579216D01*
X12846284Y-7327768D02*
X13007929Y-7489413D01*
X12268673Y-7282596D02*
X12178871Y-7192793D01*
X12340515Y-7031149D02*
X12430318Y-7120951D01*
X12430318Y-7120951D02*
X12268673Y-7282596D01*
X12178871Y-7192793D02*
X12340515Y-7031149D01*
X12382071Y-6989593D02*
X12543715Y-6827949D01*
X12633518Y-6917751D02*
X12471873Y-7079396D01*
X12471873Y-7079396D02*
X12382071Y-6989593D01*
X12543715Y-6827949D02*
X12633518Y-6917751D01*
X13817311Y-8863350D02*
X13655667Y-9024994D01*
X13727509Y-8773547D02*
X13817311Y-8863350D01*
X13655667Y-9024994D02*
X13565864Y-8935192D01*
X13565864Y-8935192D02*
X13727509Y-8773547D01*
X14556846Y-9998864D02*
X14646649Y-10088667D01*
X14485004Y-10250312D02*
X14395201Y-10160509D01*
X14395201Y-10160509D02*
X14556846Y-9998864D01*
X14646649Y-10088667D02*
X14485004Y-10250312D01*
X14682994Y-10052322D02*
X14593191Y-9962519D01*
X14754836Y-9800875D02*
X14844638Y-9890677D01*
X14844638Y-9890677D02*
X14682994Y-10052322D01*
X14593191Y-9962519D02*
X14754836Y-9800875D01*
X17685251Y-11201525D02*
X17911525Y-10975251D01*
X17734749Y-10798475D02*
X17508475Y-11024749D01*
X17508475Y-11024749D02*
X17685251Y-11201525D01*
X17911525Y-10975251D02*
X17734749Y-10798475D01*
D11*
X14448844Y-10818036D02*
X14269239Y-10997641D01*
X14269239Y-10997641D02*
X14161475Y-10889878D01*
X14161475Y-10889878D02*
X14341081Y-10710273D01*
X14341081Y-10710273D02*
X14448844Y-10818036D01*
X14196265Y-10567720D02*
X14304028Y-10675483D01*
X14124423Y-10855088D02*
X14016660Y-10747325D01*
X14016660Y-10747325D02*
X14196265Y-10567720D01*
X14304028Y-10675483D02*
X14124423Y-10855088D01*
D13*
X12644647Y-11538294D02*
X12806291Y-11376650D01*
X12734449Y-11628097D02*
X12644647Y-11538294D01*
X12806291Y-11376650D02*
X12896094Y-11466452D01*
X12896094Y-11466452D02*
X12734449Y-11628097D01*
X13002103Y-10215439D02*
X12912301Y-10125636D01*
X13073945Y-9963992D02*
X13163748Y-10053794D01*
X12912301Y-10125636D02*
X13073945Y-9963992D01*
X13163748Y-10053794D02*
X13002103Y-10215439D01*
X12375239Y-11261703D02*
X12536883Y-11100058D01*
X12626686Y-11189861D02*
X12465041Y-11351505D01*
X12536883Y-11100058D02*
X12626686Y-11189861D01*
X12465041Y-11351505D02*
X12375239Y-11261703D01*
X12348298Y-11234762D02*
X12258495Y-11144959D01*
X12258495Y-11144959D02*
X12420140Y-10983315D01*
X12509943Y-11073117D02*
X12348298Y-11234762D01*
X12420140Y-10983315D02*
X12509943Y-11073117D01*
X12858419Y-10071755D02*
X12768617Y-9981952D01*
X12768617Y-9981952D02*
X12930261Y-9820308D01*
X12930261Y-9820308D02*
X13020064Y-9910110D01*
X13020064Y-9910110D02*
X12858419Y-10071755D01*
X12858419Y-9784387D02*
X12696774Y-9622742D01*
X12786577Y-9532940D02*
X12948222Y-9694584D01*
X12948222Y-9694584D02*
X12858419Y-9784387D01*
X12696774Y-9622742D02*
X12786577Y-9532940D01*
X13451116Y-10197479D02*
X13361313Y-10287281D01*
X13289471Y-10035834D02*
X13451116Y-10197479D01*
X13361313Y-10287281D02*
X13199669Y-10125637D01*
X13199669Y-10125637D02*
X13289471Y-10035834D01*
X14305160Y-11051522D02*
X14466804Y-11213166D01*
X14377002Y-11302969D02*
X14215357Y-11141325D01*
X14215357Y-11141325D02*
X14305160Y-11051522D01*
X14466804Y-11213166D02*
X14377002Y-11302969D01*
X13802265Y-10548628D02*
X13963910Y-10710273D01*
X13963910Y-10710273D02*
X13874107Y-10800075D01*
X13712462Y-10638431D02*
X13802265Y-10548628D01*
X13874107Y-10800075D02*
X13712462Y-10638431D01*
X13927989Y-11141325D02*
X14089633Y-10979680D01*
X14089633Y-10979680D02*
X14179436Y-11069483D01*
X14017791Y-11231127D02*
X13927989Y-11141325D01*
X14179436Y-11069483D02*
X14017791Y-11231127D01*
X13012837Y-11583196D02*
X12851192Y-11744840D01*
X12923034Y-11493393D02*
X13012837Y-11583196D01*
X12851192Y-11744840D02*
X12761390Y-11655038D01*
X12761390Y-11655038D02*
X12923034Y-11493393D01*
X15518981Y-5873000D02*
X15763981Y-5873000D01*
X15461981Y-6013000D02*
X15765981Y-6013000D01*
X15765981Y-5873000D02*
X15765981Y-6013000D01*
X15518981Y-5873000D02*
X15461981Y-5928000D01*
X15461981Y-5928000D02*
X15461981Y-6013000D01*
X15703727Y-12769000D02*
X15458727Y-12769000D01*
X15703727Y-12769000D02*
X15760727Y-12714000D01*
X15760727Y-12629000D02*
X15456727Y-12629000D01*
X15456727Y-12769000D02*
X15456727Y-12629000D01*
X15760727Y-12714000D02*
X15760727Y-12629000D01*
X11226000Y-8459000D02*
X11281000Y-8516000D01*
X11226000Y-8459000D02*
X11226000Y-8214000D01*
X11366000Y-8516000D02*
X11366000Y-8212000D01*
X11226000Y-8212000D02*
X11366000Y-8212000D01*
X11281000Y-8516000D02*
X11366000Y-8516000D01*
X19098305Y-7828711D02*
X19098305Y-7583711D01*
X19238305Y-7885711D02*
X19238305Y-7581711D01*
X19098305Y-7828711D02*
X19153305Y-7885711D01*
X19098305Y-7581711D02*
X19238305Y-7581711D01*
X19153305Y-7885711D02*
X19238305Y-7885711D01*
X15711000Y-5658000D02*
X15768000Y-5603000D01*
X15768000Y-5603000D02*
X15768000Y-5518000D01*
X15711000Y-5658000D02*
X15466000Y-5658000D01*
X15464000Y-5658000D02*
X15464000Y-5518000D01*
X15768000Y-5518000D02*
X15464000Y-5518000D01*
D11*
X12542790Y-7504682D02*
X12363184Y-7325077D01*
X12650553Y-7396919D02*
X12542790Y-7504682D01*
X12470948Y-7217314D02*
X12650553Y-7396919D01*
X12363184Y-7325077D02*
X12470948Y-7217314D01*
X12691282Y-7356190D02*
X12511677Y-7176585D01*
X12619440Y-7068822D02*
X12799045Y-7248427D01*
X12799045Y-7248427D02*
X12691282Y-7356190D01*
X12511677Y-7176585D02*
X12619440Y-7068822D01*
D13*
X16320099Y-10175296D02*
X16230296Y-10265099D01*
X16409901Y-10444704D02*
X16499704Y-10354901D01*
X16230296Y-10265099D02*
X16409901Y-10444704D01*
X16499704Y-10354901D02*
X16320099Y-10175296D01*
X16737796Y-10785099D02*
X16917401Y-10964704D01*
X17007204Y-10874901D02*
X16827599Y-10695296D01*
X16827599Y-10695296D02*
X16737796Y-10785099D01*
X16917401Y-10964704D02*
X17007204Y-10874901D01*
X16976360Y-10509081D02*
X16849081Y-10636360D01*
X16849081Y-10636360D02*
X17103640Y-10890919D01*
X17103640Y-10890919D02*
X17230919Y-10763640D01*
X17230919Y-10763640D02*
X16976360Y-10509081D01*
D11*
X12854132Y-9008105D02*
X12961895Y-9115868D01*
X12782290Y-9295473D02*
X12674527Y-9187710D01*
X12674527Y-9187710D02*
X12854132Y-9008105D01*
X12961895Y-9115868D02*
X12782290Y-9295473D01*
X13790921Y-10093816D02*
X13898684Y-10201579D01*
X13898684Y-10201579D02*
X13719079Y-10381184D01*
X13611316Y-10273421D02*
X13790921Y-10093816D01*
X13719079Y-10381184D02*
X13611316Y-10273421D01*
X13158105Y-11523368D02*
X13265868Y-11415605D01*
X13445473Y-11595210D02*
X13337710Y-11702973D01*
X13265868Y-11415605D02*
X13445473Y-11595210D01*
X13337710Y-11702973D02*
X13158105Y-11523368D01*
X12437027Y-11455210D02*
X12616632Y-11275605D01*
X12616632Y-11275605D02*
X12724395Y-11383368D01*
X12724395Y-11383368D02*
X12544790Y-11562973D01*
X12544790Y-11562973D02*
X12437027Y-11455210D01*
X12632074Y-10721091D02*
X12452469Y-10541486D01*
X12452469Y-10541486D02*
X12560232Y-10433723D01*
X12739837Y-10613328D02*
X12632074Y-10721091D01*
X12560232Y-10433723D02*
X12739837Y-10613328D01*
X14301316Y-9086579D02*
X14409079Y-8978816D01*
X14588684Y-9158421D02*
X14480921Y-9266184D01*
X14480921Y-9266184D02*
X14301316Y-9086579D01*
X14409079Y-8978816D02*
X14588684Y-9158421D01*
X13485210Y-11557973D02*
X13305605Y-11378368D01*
X13592973Y-11450210D02*
X13485210Y-11557973D01*
X13305605Y-11378368D02*
X13413368Y-11270605D01*
X13413368Y-11270605D02*
X13592973Y-11450210D01*
X15441579Y-10001316D02*
X15621184Y-10180921D01*
X15333816Y-10109079D02*
X15441579Y-10001316D01*
X15621184Y-10180921D02*
X15513421Y-10288684D01*
X15513421Y-10288684D02*
X15333816Y-10109079D01*
X13989079Y-10108684D02*
X13881316Y-10000921D01*
X13881316Y-10000921D02*
X14060921Y-9821316D01*
X14060921Y-9821316D02*
X14168684Y-9929079D01*
X14168684Y-9929079D02*
X13989079Y-10108684D01*
X14829079Y-11306184D02*
X14721316Y-11198421D01*
X14721316Y-11198421D02*
X14900921Y-11018816D01*
X15008684Y-11126579D02*
X14829079Y-11306184D01*
X14900921Y-11018816D02*
X15008684Y-11126579D01*
X16361316Y-10699079D02*
X16469079Y-10591316D01*
X16469079Y-10591316D02*
X16648684Y-10770921D01*
X16540921Y-10878684D02*
X16361316Y-10699079D01*
X16648684Y-10770921D02*
X16540921Y-10878684D01*
X16199079Y-10326316D02*
X16378684Y-10505921D01*
X16270921Y-10613684D02*
X16091316Y-10434079D01*
X16091316Y-10434079D02*
X16199079Y-10326316D01*
X16378684Y-10505921D02*
X16270921Y-10613684D01*
X11643816Y-6454079D02*
X11751579Y-6346316D01*
X11931184Y-6525921D02*
X11823421Y-6633684D01*
X11751579Y-6346316D02*
X11931184Y-6525921D01*
X11823421Y-6633684D02*
X11643816Y-6454079D01*
X12188421Y-5733816D02*
X12296184Y-5841579D01*
X12008816Y-5913421D02*
X12188421Y-5733816D01*
X12296184Y-5841579D02*
X12116579Y-6021184D01*
X12116579Y-6021184D02*
X12008816Y-5913421D01*
X16914079Y-11036316D02*
X17093684Y-11215921D01*
X16806316Y-11144079D02*
X16914079Y-11036316D01*
X16985921Y-11323684D02*
X16806316Y-11144079D01*
X17093684Y-11215921D02*
X16985921Y-11323684D01*
X16897566Y-11019803D02*
X16789803Y-11127566D01*
X16610197Y-10947961D02*
X16717960Y-10840197D01*
X16789803Y-11127566D02*
X16610197Y-10947961D01*
X16717960Y-10840197D02*
X16897566Y-11019803D01*
X13061579Y-9011184D02*
X12953816Y-8903421D01*
X12953816Y-8903421D02*
X13133421Y-8723816D01*
X13133421Y-8723816D02*
X13241184Y-8831579D01*
X13241184Y-8831579D02*
X13061579Y-9011184D01*
D13*
X14035752Y-10925799D02*
X13874107Y-11087443D01*
X13784305Y-10997641D02*
X13945949Y-10835996D01*
X13945949Y-10835996D02*
X14035752Y-10925799D01*
X13874107Y-11087443D02*
X13784305Y-10997641D01*
X13126870Y-9419551D02*
X13214551Y-9331870D01*
X13073130Y-9190449D02*
X12985449Y-9278130D01*
X13214551Y-9331870D02*
X13073130Y-9190449D01*
X12985449Y-9278130D02*
X13126870Y-9419551D01*
X13556947Y-9849628D02*
X13698368Y-9991049D01*
X13786049Y-9903368D02*
X13644628Y-9761947D01*
X13698368Y-9991049D02*
X13786049Y-9903368D01*
X13644628Y-9761947D02*
X13556947Y-9849628D01*
X14819551Y-10911870D02*
X14678130Y-10770449D01*
X14678130Y-10770449D02*
X14590449Y-10858130D01*
X14590449Y-10858130D02*
X14731870Y-10999551D01*
X14731870Y-10999551D02*
X14819551Y-10911870D01*
X14144370Y-10439551D02*
X14232051Y-10351870D01*
X14090630Y-10210449D02*
X14002949Y-10298130D01*
X14002949Y-10298130D02*
X14144370Y-10439551D01*
X14232051Y-10351870D02*
X14090630Y-10210449D01*
D11*
X14753684Y-7285921D02*
X14645921Y-7393684D01*
X14466316Y-7214079D02*
X14574079Y-7106316D01*
X14574079Y-7106316D02*
X14753684Y-7285921D01*
X14645921Y-7393684D02*
X14466316Y-7214079D01*
X15356316Y-6324079D02*
X15464079Y-6216316D01*
X15643684Y-6395921D02*
X15535921Y-6503684D01*
X15464079Y-6216316D02*
X15643684Y-6395921D01*
X15535921Y-6503684D02*
X15356316Y-6324079D01*
X14086316Y-7635921D02*
X14265921Y-7456316D01*
X14194079Y-7743684D02*
X14086316Y-7635921D01*
X14373684Y-7564079D02*
X14194079Y-7743684D01*
X14265921Y-7456316D02*
X14373684Y-7564079D01*
X15314079Y-8236316D02*
X15493684Y-8415921D01*
X15493684Y-8415921D02*
X15385921Y-8523684D01*
X15206316Y-8344079D02*
X15314079Y-8236316D01*
X15385921Y-8523684D02*
X15206316Y-8344079D01*
X13213684Y-5211579D02*
X13034079Y-5391184D01*
X13105921Y-5103816D02*
X13213684Y-5211579D01*
X13034079Y-5391184D02*
X12926316Y-5283421D01*
X12926316Y-5283421D02*
X13105921Y-5103816D01*
X13415921Y-5453684D02*
X13236316Y-5274079D01*
X13344079Y-5166316D02*
X13523684Y-5345921D01*
X13236316Y-5274079D02*
X13344079Y-5166316D01*
X13523684Y-5345921D02*
X13415921Y-5453684D01*
X13813684Y-5753421D02*
X13705921Y-5861184D01*
X13705921Y-5861184D02*
X13526316Y-5681579D01*
X13634079Y-5573816D02*
X13813684Y-5753421D01*
X13526316Y-5681579D02*
X13634079Y-5573816D01*
X15044248Y-6860408D02*
X14936484Y-6968171D01*
X14756879Y-6788566D02*
X14864642Y-6680803D01*
X14864642Y-6680803D02*
X15044248Y-6860408D01*
X14936484Y-6968171D02*
X14756879Y-6788566D01*
X15206201Y-7234888D02*
X15358601Y-7234888D01*
X15206201Y-7488888D02*
X15206201Y-7234888D01*
X15358601Y-7234888D02*
X15358601Y-7488888D01*
X15358601Y-7488888D02*
X15206201Y-7488888D01*
X14025024Y-8553929D02*
X14204629Y-8374324D01*
X14312392Y-8482087D02*
X14132787Y-8661692D01*
X14204629Y-8374324D02*
X14312392Y-8482087D01*
X14132787Y-8661692D02*
X14025024Y-8553929D01*
X14629079Y-6556184D02*
X14521316Y-6448421D01*
X14700921Y-6268816D02*
X14808684Y-6376579D01*
X14808684Y-6376579D02*
X14629079Y-6556184D01*
X14521316Y-6448421D02*
X14700921Y-6268816D01*
X15180436Y-6747978D02*
X15288199Y-6855741D01*
X15288199Y-6855741D02*
X15108594Y-7035346D01*
X15108594Y-7035346D02*
X15000831Y-6927583D01*
X15000831Y-6927583D02*
X15180436Y-6747978D01*
X15303684Y-7860921D02*
X15195921Y-7968684D01*
X15124079Y-7681316D02*
X15303684Y-7860921D01*
X15195921Y-7968684D02*
X15016316Y-7789079D01*
X15016316Y-7789079D02*
X15124079Y-7681316D01*
X13459079Y-4968684D02*
X13351316Y-4860921D01*
X13638684Y-4789079D02*
X13459079Y-4968684D01*
X13351316Y-4860921D02*
X13530921Y-4681316D01*
X13530921Y-4681316D02*
X13638684Y-4789079D01*
X13413816Y-5096579D02*
X13521579Y-4988816D01*
X13593421Y-5276184D02*
X13413816Y-5096579D01*
X13521579Y-4988816D02*
X13701184Y-5168421D01*
X13701184Y-5168421D02*
X13593421Y-5276184D01*
X14005921Y-5561184D02*
X13826316Y-5381579D01*
X13826316Y-5381579D02*
X13934079Y-5273816D01*
X14113684Y-5453421D02*
X14005921Y-5561184D01*
X13934079Y-5273816D02*
X14113684Y-5453421D01*
X15221024Y-6683631D02*
X15113261Y-6791394D01*
X14933656Y-6611789D02*
X15041419Y-6504026D01*
X15113261Y-6791394D02*
X14933656Y-6611789D01*
X15041419Y-6504026D02*
X15221024Y-6683631D01*
X15546200Y-7233000D02*
X15546200Y-7487000D01*
X15546200Y-7487000D02*
X15393800Y-7487000D01*
X15393800Y-7233000D02*
X15546200Y-7233000D01*
X15393800Y-7487000D02*
X15393800Y-7233000D01*
X14322009Y-8850914D02*
X14501614Y-8671309D01*
X14609377Y-8779072D02*
X14429772Y-8958677D01*
X14501614Y-8671309D02*
X14609377Y-8779072D01*
X14429772Y-8958677D02*
X14322009Y-8850914D01*
X19036316Y-10528421D02*
X19215921Y-10348816D01*
X19215921Y-10348816D02*
X19323684Y-10456579D01*
X19323684Y-10456579D02*
X19144079Y-10636184D01*
X19144079Y-10636184D02*
X19036316Y-10528421D01*
X18837018Y-10288006D02*
X19016624Y-10467612D01*
X18908860Y-10575375D02*
X18729255Y-10395770D01*
X19016624Y-10467612D02*
X18908860Y-10575375D01*
X18729255Y-10395770D02*
X18837018Y-10288006D01*
X18618947Y-10165253D02*
X18439342Y-9985648D01*
X18439342Y-9985648D02*
X18547105Y-9877884D01*
X18726710Y-10057490D02*
X18618947Y-10165253D01*
X18547105Y-9877884D02*
X18726710Y-10057490D01*
X17201316Y-8874079D02*
X17309079Y-8766316D01*
X17380921Y-9053684D02*
X17201316Y-8874079D01*
X17309079Y-8766316D02*
X17488684Y-8945921D01*
X17488684Y-8945921D02*
X17380921Y-9053684D01*
X16764000Y-8610200D02*
X16510000Y-8610200D01*
X16764000Y-8457800D02*
X16764000Y-8610200D01*
X16510000Y-8610200D02*
X16510000Y-8457800D01*
X16510000Y-8457800D02*
X16764000Y-8457800D01*
X15152992Y-9677349D02*
X15045229Y-9569586D01*
X15332597Y-9497744D02*
X15152992Y-9677349D01*
X15224834Y-9389981D02*
X15332597Y-9497744D01*
X15045229Y-9569586D02*
X15224834Y-9389981D01*
X17446316Y-9370921D02*
X17625921Y-9191316D01*
X17625921Y-9191316D02*
X17733684Y-9299079D01*
X17554079Y-9478684D02*
X17446316Y-9370921D01*
X17733684Y-9299079D02*
X17554079Y-9478684D01*
X17069079Y-8986184D02*
X16961316Y-8878421D01*
X17248684Y-8806579D02*
X17069079Y-8986184D01*
X17140921Y-8698816D02*
X17248684Y-8806579D01*
X16961316Y-8878421D02*
X17140921Y-8698816D01*
X16036316Y-8799079D02*
X16144079Y-8691316D01*
X16144079Y-8691316D02*
X16323684Y-8870921D01*
X16215921Y-8978684D02*
X16036316Y-8799079D01*
X16323684Y-8870921D02*
X16215921Y-8978684D01*
X18719079Y-11061184D02*
X18611316Y-10953421D01*
X18790921Y-10773816D02*
X18898684Y-10881579D01*
X18611316Y-10953421D02*
X18790921Y-10773816D01*
X18898684Y-10881579D02*
X18719079Y-11061184D01*
X18552479Y-10572546D02*
X18660242Y-10464783D01*
X18839847Y-10644388D02*
X18732084Y-10752151D01*
X18732084Y-10752151D02*
X18552479Y-10572546D01*
X18660242Y-10464783D02*
X18839847Y-10644388D01*
X18431184Y-10355921D02*
X18323421Y-10463684D01*
X18143816Y-10284079D02*
X18251579Y-10176316D01*
X18251579Y-10176316D02*
X18431184Y-10355921D01*
X18323421Y-10463684D02*
X18143816Y-10284079D01*
X17136579Y-8941316D02*
X17316184Y-9120921D01*
X17316184Y-9120921D02*
X17208421Y-9228684D01*
X17028816Y-9049079D02*
X17136579Y-8941316D01*
X17208421Y-9228684D02*
X17028816Y-9049079D01*
X16508000Y-8633800D02*
X16762000Y-8633800D01*
X16762000Y-8633800D02*
X16762000Y-8786200D01*
X16508000Y-8786200D02*
X16508000Y-8633800D01*
X16762000Y-8786200D02*
X16508000Y-8786200D01*
X15521819Y-9686966D02*
X15629582Y-9794729D01*
X15342214Y-9866571D02*
X15521819Y-9686966D01*
X15629582Y-9794729D02*
X15449977Y-9974334D01*
X15449977Y-9974334D02*
X15342214Y-9866571D01*
X17788684Y-8540921D02*
X17680921Y-8648684D01*
X17609079Y-8361316D02*
X17788684Y-8540921D01*
X17680921Y-8648684D02*
X17501316Y-8469079D01*
X17501316Y-8469079D02*
X17609079Y-8361316D01*
X16543684Y-9734079D02*
X16364079Y-9913684D01*
X16435921Y-9626316D02*
X16543684Y-9734079D01*
X16256316Y-9805921D02*
X16435921Y-9626316D01*
X16364079Y-9913684D02*
X16256316Y-9805921D01*
X15584079Y-8506316D02*
X15763684Y-8685921D01*
X15763684Y-8685921D02*
X15655921Y-8793684D01*
X15655921Y-8793684D02*
X15476316Y-8614079D01*
X15476316Y-8614079D02*
X15584079Y-8506316D01*
D13*
X14671645Y-6963881D02*
X14563881Y-7071645D01*
X14563881Y-7071645D02*
X14348355Y-6856118D01*
X14348355Y-6856118D02*
X14456118Y-6748355D01*
X14456118Y-6748355D02*
X14671645Y-6963881D01*
X14998355Y-6206118D02*
X15106118Y-6098355D01*
X15213881Y-6421645D02*
X14998355Y-6206118D01*
X15321645Y-6313881D02*
X15213881Y-6421645D01*
X15106118Y-6098355D02*
X15321645Y-6313881D01*
X14076118Y-8101645D02*
X13968355Y-7993881D01*
X14291645Y-7886118D02*
X14076118Y-8101645D01*
X13968355Y-7993881D02*
X14183881Y-7778355D01*
X14183881Y-7778355D02*
X14291645Y-7886118D01*
X15093881Y-8668355D02*
X15201645Y-8776119D01*
X14986118Y-8991645D02*
X14878355Y-8883882D01*
X14878355Y-8883882D02*
X15093881Y-8668355D01*
X15201645Y-8776119D02*
X14986118Y-8991645D01*
X14206118Y-6498355D02*
X14421645Y-6713881D01*
X14313881Y-6821645D02*
X14098355Y-6606118D01*
X14421645Y-6713881D02*
X14313881Y-6821645D01*
X14098355Y-6606118D02*
X14206118Y-6498355D01*
X14963881Y-6171645D02*
X14748355Y-5956118D01*
X14748355Y-5956118D02*
X14856118Y-5848355D01*
X14856118Y-5848355D02*
X15071645Y-6063881D01*
X15071645Y-6063881D02*
X14963881Y-6171645D01*
X13888355Y-8196118D02*
X13996118Y-8088355D01*
X14103881Y-8411645D02*
X13888355Y-8196118D01*
X13996118Y-8088355D02*
X14211645Y-8303881D01*
X14211645Y-8303881D02*
X14103881Y-8411645D01*
X14578355Y-8876119D02*
X14686118Y-8768355D01*
X14901645Y-8983882D02*
X14793881Y-9091645D01*
X14686118Y-8768355D02*
X14901645Y-8983882D01*
X14793881Y-9091645D02*
X14578355Y-8876119D01*
X14473612Y-6660862D02*
X14258086Y-6445336D01*
X14258086Y-6445336D02*
X14365849Y-6337573D01*
X14365849Y-6337573D02*
X14581375Y-6553099D01*
X14581375Y-6553099D02*
X14473612Y-6660862D01*
X15071163Y-7684658D02*
X14855637Y-7900184D01*
X14855637Y-7900184D02*
X14747874Y-7792421D01*
X14963400Y-7576894D02*
X15071163Y-7684658D01*
X14747874Y-7792421D02*
X14963400Y-7576894D01*
X13270630Y-5164551D02*
X13412051Y-5023130D01*
X13412051Y-5023130D02*
X13324370Y-4935449D01*
X13182949Y-5076870D02*
X13270630Y-5164551D01*
X13324370Y-4935449D02*
X13182949Y-5076870D01*
X13669370Y-5280449D02*
X13527949Y-5421870D01*
X13757051Y-5368130D02*
X13669370Y-5280449D01*
X13615630Y-5509551D02*
X13757051Y-5368130D01*
X13527949Y-5421870D02*
X13615630Y-5509551D01*
X14835510Y-6448306D02*
X14694088Y-6589728D01*
X14923191Y-6535987D02*
X14835510Y-6448306D01*
X14694088Y-6589728D02*
X14781769Y-6677409D01*
X14781769Y-6677409D02*
X14923191Y-6535987D01*
X15251995Y-7140564D02*
X15393417Y-6999142D01*
X15305736Y-6911461D02*
X15164314Y-7052882D01*
X15164314Y-7052882D02*
X15251995Y-7140564D01*
X15393417Y-6999142D02*
X15305736Y-6911461D01*
X15274322Y-7567957D02*
X15186640Y-7655639D01*
X15415743Y-7709379D02*
X15274322Y-7567957D01*
X15328062Y-7797060D02*
X15415743Y-7709379D01*
X15186640Y-7655639D02*
X15328062Y-7797060D01*
X14698190Y-6005233D02*
X14913716Y-6220759D01*
X14913716Y-6220759D02*
X14805953Y-6328522D01*
X14805953Y-6328522D02*
X14590426Y-6112996D01*
X14590426Y-6112996D02*
X14698190Y-6005233D01*
X15085401Y-8129947D02*
X15300927Y-7914421D01*
X15300927Y-7914421D02*
X15408690Y-8022184D01*
X15193164Y-8237711D02*
X15085401Y-8129947D01*
X15408690Y-8022184D02*
X15193164Y-8237711D01*
X17994145Y-9291382D02*
X17886382Y-9399145D01*
X17886382Y-9399145D02*
X17670855Y-9183619D01*
X17778619Y-9075855D02*
X17994145Y-9291382D01*
X17670855Y-9183619D02*
X17778619Y-9075855D01*
X15881118Y-8911645D02*
X15773355Y-8803882D01*
X15988881Y-8588355D02*
X16096645Y-8696119D01*
X16096645Y-8696119D02*
X15881118Y-8911645D01*
X15773355Y-8803882D02*
X15988881Y-8588355D01*
X19068808Y-10669985D02*
X18981127Y-10582304D01*
X18927387Y-10811407D02*
X19068808Y-10669985D01*
X18981127Y-10582304D02*
X18839705Y-10723726D01*
X18839705Y-10723726D02*
X18927387Y-10811407D01*
X18641716Y-10235822D02*
X18500294Y-10377243D01*
X18729397Y-10323503D02*
X18641716Y-10235822D01*
X18500294Y-10377243D02*
X18587975Y-10464925D01*
X18587975Y-10464925D02*
X18729397Y-10323503D01*
X17562671Y-9163848D02*
X17474989Y-9076167D01*
X17474989Y-9076167D02*
X17333568Y-9217588D01*
X17421249Y-9305269D02*
X17562671Y-9163848D01*
X17333568Y-9217588D02*
X17421249Y-9305269D01*
X16940630Y-8819551D02*
X17082051Y-8678130D01*
X16994370Y-8590449D02*
X16852949Y-8731870D01*
X17082051Y-8678130D02*
X16994370Y-8590449D01*
X16852949Y-8731870D02*
X16940630Y-8819551D01*
X16288130Y-8585449D02*
X16200449Y-8673130D01*
X16429551Y-8726870D02*
X16288130Y-8585449D01*
X16341870Y-8814551D02*
X16429551Y-8726870D01*
X16200449Y-8673130D02*
X16341870Y-8814551D01*
X17661645Y-9623882D02*
X17553882Y-9731645D01*
X17446119Y-9408355D02*
X17661645Y-9623882D01*
X17553882Y-9731645D02*
X17338355Y-9516119D01*
X17338355Y-9516119D02*
X17446119Y-9408355D01*
X16103355Y-9133882D02*
X16318881Y-8918355D01*
X16211118Y-9241645D02*
X16103355Y-9133882D01*
X16318881Y-8918355D02*
X16426645Y-9026119D01*
X16426645Y-9026119D02*
X16211118Y-9241645D01*
X18151645Y-9133882D02*
X18043882Y-9241645D01*
X17936119Y-8918355D02*
X18151645Y-9133882D01*
X18043882Y-9241645D02*
X17828355Y-9026119D01*
X17828355Y-9026119D02*
X17936119Y-8918355D01*
X15706118Y-9788355D02*
X15921645Y-10003882D01*
X15598355Y-9896119D02*
X15706118Y-9788355D01*
X15813881Y-10111645D02*
X15598355Y-9896119D01*
X15921645Y-10003882D02*
X15813881Y-10111645D01*
X15241645Y-9313882D02*
X15133881Y-9421645D01*
X15026118Y-9098355D02*
X15241645Y-9313882D01*
X15133881Y-9421645D02*
X14918355Y-9206119D01*
X14918355Y-9206119D02*
X15026118Y-9098355D01*
X17588355Y-8786119D02*
X17696119Y-8678355D01*
X17803882Y-9001645D02*
X17588355Y-8786119D01*
X17911645Y-8893882D02*
X17803882Y-9001645D01*
X17696119Y-8678355D02*
X17911645Y-8893882D01*
X16006118Y-10031645D02*
X15898355Y-9923882D01*
X15898355Y-9923882D02*
X16113881Y-9708355D01*
X16221645Y-9816119D02*
X16006118Y-10031645D01*
X16113881Y-9708355D02*
X16221645Y-9816119D01*
X15008355Y-9013882D02*
X15223881Y-8798355D01*
X15331645Y-8906119D02*
X15116118Y-9121645D01*
X15223881Y-8798355D02*
X15331645Y-8906119D01*
X15116118Y-9121645D02*
X15008355Y-9013882D01*
X14604276Y-7094079D02*
X14694079Y-7004276D01*
X14855724Y-7165921D02*
X14765921Y-7255724D01*
X14765921Y-7255724D02*
X14604276Y-7094079D01*
X14694079Y-7004276D02*
X14855724Y-7165921D01*
X15505724Y-6515921D02*
X15415921Y-6605724D01*
X15254276Y-6444079D02*
X15344079Y-6354276D01*
X15344079Y-6354276D02*
X15505724Y-6515921D01*
X15415921Y-6605724D02*
X15254276Y-6444079D01*
X14475724Y-7684079D02*
X14314079Y-7845724D01*
X14314079Y-7845724D02*
X14224276Y-7755921D01*
X14385921Y-7594276D02*
X14475724Y-7684079D01*
X14224276Y-7755921D02*
X14385921Y-7594276D01*
X15295921Y-8484276D02*
X15385724Y-8574079D01*
X15224079Y-8735724D02*
X15134276Y-8645921D01*
X15134276Y-8645921D02*
X15295921Y-8484276D01*
X15385724Y-8574079D02*
X15224079Y-8735724D01*
X17489079Y-8499276D02*
X17650724Y-8660921D01*
X17650724Y-8660921D02*
X17560921Y-8750724D01*
X17560921Y-8750724D02*
X17399276Y-8589079D01*
X17399276Y-8589079D02*
X17489079Y-8499276D01*
X16244079Y-9775724D02*
X16154276Y-9685921D01*
X16405724Y-9614079D02*
X16244079Y-9775724D01*
X16154276Y-9685921D02*
X16315921Y-9524276D01*
X16315921Y-9524276D02*
X16405724Y-9614079D01*
X15425921Y-8614276D02*
X15515724Y-8704079D01*
X15515724Y-8704079D02*
X15354079Y-8865724D01*
X15264276Y-8775921D02*
X15425921Y-8614276D01*
X15354079Y-8865724D02*
X15264276Y-8775921D01*
X14109289Y-5494094D02*
X13784020Y-5819363D01*
X14618406Y-6003211D02*
X14109289Y-5494094D01*
X13784020Y-5904216D02*
X14250711Y-6370906D01*
X13784020Y-5904216D02*
X13784020Y-5819363D01*
X14250711Y-6370906D02*
X14618406Y-6003211D01*
X14605754Y-8736942D02*
X15114871Y-8227825D01*
X14238058Y-8369246D02*
X14605754Y-8736942D01*
X14704749Y-7902556D02*
X14238058Y-8369246D01*
X14704749Y-7902556D02*
X14789602Y-7902556D01*
X15114871Y-8227825D02*
X14789602Y-7902556D01*
X18465980Y-9835784D02*
X17999289Y-9369094D01*
X17631594Y-9736789D02*
X18140711Y-10245906D01*
X18140711Y-10245906D02*
X18465980Y-9920637D01*
X18465980Y-9835784D02*
X18465980Y-9920637D01*
X17999289Y-9369094D02*
X17631594Y-9736789D01*
X16139871Y-9242825D02*
X15814602Y-8917556D01*
X15729749Y-8917556D02*
X15263058Y-9384246D01*
X15263058Y-9384246D02*
X15630754Y-9751942D01*
X15630754Y-9751942D02*
X16139871Y-9242825D01*
X15729749Y-8917556D02*
X15814602Y-8917556D01*
X17005724Y-9305921D02*
X16915921Y-9395724D01*
X16844079Y-9144276D02*
X17005724Y-9305921D01*
X16754276Y-9234079D02*
X16844079Y-9144276D01*
X16915921Y-9395724D02*
X16754276Y-9234079D01*
D11*
X16903684Y-9425921D02*
X16795921Y-9533684D01*
X16616316Y-9354079D02*
X16724079Y-9246316D01*
X16795921Y-9533684D02*
X16616316Y-9354079D01*
X16724079Y-9246316D02*
X16903684Y-9425921D01*
D13*
X17501645Y-9783882D02*
X17393882Y-9891645D01*
X17286119Y-9568355D02*
X17501645Y-9783882D01*
X17393882Y-9891645D02*
X17178355Y-9676119D01*
X17178355Y-9676119D02*
X17286119Y-9568355D01*
X17261645Y-9543882D02*
X17153882Y-9651645D01*
X16938355Y-9436119D02*
X17046119Y-9328355D01*
X17046119Y-9328355D02*
X17261645Y-9543882D01*
X17153882Y-9651645D02*
X16938355Y-9436119D01*
M02*
