G04 #@! TF.GenerationSoftware,KiCad,Pcbnew,5.99.0-unknown-43001cae3~104~ubuntu18.04.1*
G04 #@! TF.CreationDate,2020-11-12T23:28:15+01:00*
G04 #@! TF.ProjectId,QFHMIX01C,5146484d-4958-4303-9143-2e6b69636164,REV 0.2*
G04 #@! TF.SameCoordinates,Original*
G04 #@! TF.FileFunction,Copper,L1,Top*
G04 #@! TF.FilePolarity,Positive*
%FSLAX45Y45*%
G04 Gerber Fmt 4.5, Leading zero omitted, Abs format (unit mm)*
G04 Created by KiCad (PCBNEW 5.99.0-unknown-43001cae3~104~ubuntu18.04.1) date 2020-11-12 23:28:15*
%MOMM*%
%LPD*%
G01*
G04 APERTURE LIST*
G04 Aperture macros list*
%AMRotRect*
0 Rectangle, with rotation*
0 The origin of the aperture is its center*
0 $1 length*
0 $2 width*
0 $3 Rotation angle, in degrees counterclockwise*
0 Add horizontal line*
21,1,$1,$2,0,0,$3*%
G04 Aperture macros list end*
G04 #@! TA.AperFunction,ComponentPad*
%ADD10C,2.500000*%
G04 #@! TD*
G04 #@! TA.AperFunction,ComponentPad*
%ADD11RotRect,1.524000X1.524000X225.000000*%
G04 #@! TD*
G04 #@! TA.AperFunction,ComponentPad*
%ADD12C,0.600000*%
G04 #@! TD*
G04 #@! TA.AperFunction,ComponentPad*
%ADD13C,6.000000*%
G04 #@! TD*
G04 #@! TA.AperFunction,ViaPad*
%ADD14C,0.750000*%
G04 #@! TD*
G04 #@! TA.AperFunction,ViaPad*
%ADD15C,1.000000*%
G04 #@! TD*
G04 #@! TA.AperFunction,Conductor*
%ADD16C,0.500000*%
G04 #@! TD*
G04 #@! TA.AperFunction,Conductor*
%ADD17C,0.800000*%
G04 #@! TD*
G04 #@! TA.AperFunction,Conductor*
%ADD18C,0.600000*%
G04 #@! TD*
G04 #@! TA.AperFunction,Conductor*
%ADD19C,0.250000*%
G04 #@! TD*
G04 #@! TA.AperFunction,Conductor*
%ADD20C,0.300000*%
G04 #@! TD*
G04 #@! TA.AperFunction,Conductor*
%ADD21C,3.000000*%
G04 #@! TD*
G04 APERTURE END LIST*
D10*
X12992927Y-12892927D03*
X12723519Y-12623519D03*
X12454111Y-12354111D03*
X12184704Y-12084704D03*
X11915296Y-11815296D03*
X11645888Y-11545888D03*
X11376481Y-11276481D03*
X11107073Y-11007073D03*
D11*
X17639408Y-10589803D03*
X17459803Y-10769408D03*
X17459803Y-10410197D03*
X17280197Y-10589803D03*
X17280197Y-10230592D03*
X17100592Y-10410197D03*
D12*
X11910894Y-6966372D03*
X11910894Y-6895662D03*
X11981605Y-6966372D03*
X11910894Y-7037083D03*
X11840184Y-6966372D03*
D13*
X18556000Y-12556000D03*
X18556000Y-5444000D03*
X11444000Y-12556000D03*
X15000000Y-12600000D03*
X15000000Y-5400000D03*
X18600000Y-9000000D03*
X11400000Y-9000000D03*
X11444000Y-5444000D03*
D14*
X13750000Y-10920000D03*
X12654163Y-10209441D03*
X12747279Y-9917279D03*
X13090000Y-10250000D03*
X13270000Y-10730000D03*
X12990039Y-11712043D03*
X12680000Y-10440000D03*
X12276360Y-11011508D03*
X12830000Y-11850000D03*
X14639960Y-10200000D03*
X12873421Y-10861467D03*
X12774638Y-10960249D03*
X12912737Y-11001755D03*
X13133848Y-11121894D03*
X13035065Y-11220677D03*
X13002540Y-11091557D03*
X14940000Y-10160000D03*
X13630000Y-9200000D03*
X13740000Y-9320000D03*
X14500000Y-10970000D03*
X12425000Y-5700000D03*
X12290000Y-7350000D03*
X12125000Y-7180000D03*
X15640000Y-10480000D03*
X15480000Y-10580000D03*
X12500000Y-6150000D03*
X14730000Y-11700000D03*
X13420000Y-7940000D03*
X13740000Y-7280000D03*
X13149138Y-6850684D03*
X12512742Y-7557790D03*
X13460000Y-7740000D03*
X11650000Y-7850000D03*
X12420000Y-9350000D03*
X12155000Y-7945000D03*
X13210000Y-6550000D03*
X13400000Y-6350000D03*
X12510000Y-8620000D03*
X12000000Y-10550000D03*
X12200000Y-10360000D03*
X13820000Y-8777550D03*
X13780000Y-8300000D03*
X13100000Y-7620000D03*
X12920000Y-7805278D03*
X13420000Y-8620000D03*
X12540000Y-8160000D03*
X13460000Y-7280000D03*
X13920000Y-9140000D03*
X14780000Y-10350000D03*
X14950000Y-10520908D03*
X14120000Y-9320000D03*
X11690434Y-6852656D03*
X11500000Y-6700000D03*
X12620000Y-10780000D03*
X12680000Y-8460000D03*
X12150000Y-11170000D03*
X13000000Y-7980000D03*
X12760000Y-7820000D03*
X13457071Y-12157647D03*
X13707071Y-12407647D03*
X15450000Y-11700000D03*
X15100000Y-11700000D03*
X11425000Y-10775000D03*
X12025000Y-10175000D03*
X11825000Y-10375000D03*
X11625000Y-10575000D03*
X11600000Y-10960000D03*
X12300000Y-8395000D03*
X12400000Y-9950000D03*
X13260000Y-7780000D03*
X13080000Y-7960000D03*
X11990000Y-8125000D03*
D15*
X14535043Y-8157114D03*
X14464332Y-8227825D03*
X14535043Y-8298535D03*
X14605754Y-8227825D03*
X14676464Y-8157114D03*
X14747175Y-8227825D03*
X14676464Y-8298535D03*
X14605754Y-8369246D03*
X14676464Y-8439957D03*
X14747175Y-8369246D03*
X14817886Y-8298535D03*
X14888596Y-8369246D03*
X14817886Y-8439957D03*
X14747175Y-8510668D03*
X14888596Y-8510668D03*
X14464332Y-8086403D03*
X14570398Y-7980337D03*
X14358266Y-8192469D03*
X14340589Y-7962660D03*
X14446655Y-7856594D03*
X14234523Y-8068726D03*
X14994662Y-8404602D03*
X14782530Y-8616734D03*
X15012340Y-8634411D03*
X15118406Y-8528345D03*
X14906274Y-8740477D03*
X15005269Y-7969731D03*
X14920416Y-7969731D03*
X15005269Y-7884878D03*
X15090122Y-7969731D03*
X15005269Y-8054584D03*
X14344124Y-8630876D03*
X14259271Y-8630876D03*
X14344124Y-8715729D03*
X14428977Y-8630876D03*
X14344124Y-8546023D03*
X14180000Y-5930000D03*
X14109289Y-5859289D03*
X14250711Y-6000711D03*
X14038579Y-6071421D03*
X13967868Y-6000711D03*
X14038579Y-5930000D03*
X14109289Y-6142132D03*
X14109289Y-6000711D03*
X14180000Y-6071421D03*
X14180000Y-5788579D03*
X14250711Y-5859289D03*
X14321421Y-5930000D03*
X14392132Y-5859289D03*
X14321421Y-5788579D03*
X14250711Y-5717868D03*
X14392132Y-5717868D03*
X13967868Y-6142132D03*
X13851195Y-5601195D03*
X13766342Y-5601195D03*
X13851195Y-5516343D03*
X13936048Y-5601195D03*
X13851195Y-5686048D03*
X14512340Y-6262340D03*
X14427487Y-6262340D03*
X14512340Y-6177487D03*
X14512340Y-6347193D03*
X14597193Y-6262340D03*
X14073934Y-6248198D03*
X13950190Y-6371942D03*
X13844124Y-6265876D03*
X13738058Y-6159810D03*
X13861802Y-6036066D03*
X14286066Y-5611802D03*
X14409810Y-5488058D03*
X14515876Y-5594124D03*
X14621942Y-5700190D03*
X14498198Y-5823934D03*
X18072500Y-9810000D03*
X18143211Y-9880711D03*
X18218921Y-9820000D03*
X18284632Y-9739289D03*
X18213921Y-9668579D03*
X18143211Y-9597868D03*
X18072500Y-9668579D03*
X18143211Y-9739289D03*
X18001789Y-9739289D03*
X17931079Y-9810000D03*
X18001789Y-9880711D03*
X18072500Y-9951421D03*
X18001789Y-10022132D03*
X17931079Y-9951421D03*
X17860368Y-9880711D03*
X17860368Y-10022132D03*
X17966434Y-10128198D03*
X18390698Y-9703934D03*
X18284632Y-9597868D03*
X18178566Y-9491802D03*
X17754302Y-9916066D03*
X17740160Y-9477660D03*
X17825013Y-9477660D03*
X17740160Y-9562513D03*
X17655307Y-9477660D03*
X17740160Y-9392807D03*
X18401305Y-10138805D03*
X18486158Y-10138805D03*
X18401305Y-10223658D03*
X18316452Y-10138805D03*
X18401305Y-10053952D03*
X18408376Y-9474124D03*
X18302310Y-9368058D03*
X18514442Y-9580190D03*
X17736624Y-10145876D03*
X17630558Y-10039810D03*
X17842690Y-10251942D03*
X15701464Y-9313536D03*
X15630754Y-9242825D03*
X15772175Y-9242825D03*
X15701464Y-9172114D03*
X15560043Y-9313536D03*
X15630754Y-9384246D03*
X15701464Y-9454957D03*
X15772175Y-9384246D03*
X15842886Y-9313536D03*
X15842886Y-9454957D03*
X15772175Y-9525668D03*
X15913596Y-9384246D03*
X16019662Y-9419602D03*
X15913596Y-9525668D03*
X15807530Y-9631734D03*
X15931274Y-9755477D03*
X16037340Y-9649411D03*
X16143406Y-9543345D03*
X15560043Y-9172114D03*
X15489332Y-9242825D03*
X15630754Y-9101404D03*
X15595398Y-8995338D03*
X15471655Y-8871594D03*
X15365589Y-8977660D03*
X15489332Y-9101404D03*
X15383266Y-9207470D03*
X15259523Y-9083726D03*
X15369124Y-9645876D03*
X15369124Y-9561023D03*
X15284271Y-9645876D03*
X15369124Y-9730729D03*
X15453977Y-9645876D03*
X16030269Y-8984731D03*
X15945416Y-8984731D03*
X16030269Y-8899878D03*
X16115122Y-8984731D03*
X16030269Y-9069584D03*
D14*
X19268305Y-7643000D03*
X15521000Y-6043000D03*
X14350000Y-11700000D03*
X17760000Y-8650000D03*
X17810000Y-8600000D03*
X15360000Y-8260000D03*
X15740000Y-8640000D03*
X15670000Y-10150000D03*
X15530000Y-10000000D03*
X14590000Y-9210000D03*
X14530000Y-9270000D03*
X13030000Y-9050000D03*
X12930000Y-8960000D03*
X12700000Y-9260000D03*
X12840000Y-9400000D03*
X12710000Y-9540000D03*
X16600000Y-10890000D03*
X16660000Y-10830000D03*
X15830000Y-10290000D03*
X16070000Y-10290000D03*
X13630000Y-10360000D03*
X13590000Y-10140000D03*
X13870000Y-10410000D03*
X13450000Y-10280000D03*
X13720000Y-10550000D03*
X14980000Y-11340000D03*
X12200000Y-11800000D03*
X12172500Y-6932500D03*
X11597500Y-6960000D03*
X14000000Y-13000000D03*
X14000000Y-12500000D03*
X11000000Y-10500000D03*
X13500000Y-13000000D03*
X11350000Y-7550000D03*
X11350000Y-7020000D03*
X11350000Y-6450000D03*
X12100000Y-5700000D03*
X11850000Y-5950000D03*
X12300000Y-6000000D03*
X11975000Y-9225000D03*
X11450000Y-5225000D03*
X11444000Y-12331000D03*
X11444000Y-12781000D03*
X11669000Y-12556000D03*
X11219000Y-12556000D03*
X11284000Y-12396000D03*
X11604000Y-12396000D03*
X11604000Y-12716000D03*
X11284000Y-12716000D03*
X11604000Y-5284000D03*
X11219000Y-5444000D03*
X11444000Y-5669000D03*
X11284000Y-5284000D03*
X11284000Y-5604000D03*
X11669000Y-5444000D03*
X11604000Y-5604000D03*
X18716000Y-5284000D03*
X18331000Y-5444000D03*
X18556000Y-5669000D03*
X18396000Y-5604000D03*
X18556000Y-5219000D03*
X18781000Y-5444000D03*
X18716000Y-5604000D03*
X18716000Y-12716000D03*
X18781000Y-12556000D03*
X18716000Y-12396000D03*
X18331000Y-12556000D03*
X18556000Y-12331000D03*
X18396000Y-12396000D03*
X18556000Y-12781000D03*
X18396000Y-12716000D03*
X18396000Y-5284000D03*
X11620000Y-7360000D03*
X17060000Y-11010000D03*
X17270000Y-11110000D03*
X16700000Y-12050000D03*
X17180000Y-12050000D03*
X17460000Y-11770000D03*
X18040000Y-11190000D03*
X18040000Y-10910000D03*
X17760000Y-11470000D03*
X16870000Y-9540000D03*
X16920000Y-9490000D03*
X15360000Y-6270000D03*
X15410000Y-6220000D03*
X14520000Y-7110000D03*
X14470000Y-7160000D03*
X14140000Y-7740000D03*
X14090000Y-7690000D03*
X16310000Y-9910000D03*
X16260000Y-9860000D03*
X15610000Y-8770000D03*
X15230000Y-8390000D03*
X16710000Y-9790000D03*
X16890000Y-9790000D03*
X17090000Y-9990000D03*
X16620000Y-10070000D03*
X16620000Y-10330000D03*
X14960000Y-10960000D03*
X15130000Y-11130000D03*
X15160000Y-10740000D03*
X15706000Y-6043000D03*
X19266000Y-7823000D03*
X15513000Y-12599000D03*
X15620000Y-10230000D03*
X15565000Y-10285000D03*
X14805000Y-9275000D03*
X14980000Y-9445000D03*
X14620000Y-9080000D03*
X13580000Y-8480000D03*
X12350000Y-6750000D03*
X10550000Y-10500000D03*
X12010000Y-8675000D03*
X13910000Y-9520000D03*
X13000000Y-13450000D03*
X10550000Y-12500000D03*
X17400000Y-10090000D03*
X17790000Y-10660000D03*
X12865000Y-6737500D03*
X12125000Y-9950000D03*
X15150000Y-10350000D03*
X12650000Y-6975000D03*
X11800000Y-10760000D03*
X13470000Y-10810000D03*
X13260000Y-9450000D03*
X10550000Y-11500000D03*
X13740000Y-7740000D03*
X13400000Y-8300000D03*
X13500000Y-13450000D03*
X12400000Y-9675000D03*
X16270000Y-10100000D03*
X13730000Y-7910000D03*
X12460000Y-11540000D03*
X14730000Y-12050821D03*
X14143736Y-12158218D03*
X16690000Y-10700000D03*
X12425000Y-8900000D03*
X14000000Y-13450000D03*
X12000000Y-13450000D03*
X13600000Y-8100000D03*
X13950000Y-7660000D03*
X15750000Y-12050821D03*
X14190000Y-7430000D03*
X14177500Y-9807500D03*
X16250000Y-11250000D03*
X12070000Y-6480000D03*
X13520000Y-6210000D03*
X13570000Y-11530000D03*
X10550000Y-13450000D03*
X12910000Y-7252500D03*
X11050000Y-9950000D03*
X12225000Y-9125000D03*
X12730000Y-6400000D03*
X11925000Y-7700000D03*
X13465000Y-6805000D03*
X10550000Y-13000000D03*
X14540000Y-11340000D03*
X13240000Y-8120000D03*
X15250000Y-12050821D03*
X17790000Y-10470000D03*
X10550000Y-12000000D03*
X13975000Y-11700000D03*
X14670000Y-9410000D03*
X14790000Y-9730000D03*
X12125000Y-9350000D03*
X11500000Y-13450000D03*
X12125000Y-9675000D03*
X13420000Y-11680000D03*
X13250000Y-8460000D03*
X13980000Y-11340000D03*
X16200000Y-12050821D03*
X12770000Y-6290000D03*
X16330930Y-11163046D03*
X12740000Y-5700000D03*
X16750000Y-10640000D03*
X12480000Y-10460000D03*
X10550000Y-9950000D03*
X12500000Y-13450000D03*
X11500000Y-9950000D03*
D15*
X14605754Y-8086403D03*
D14*
X13060000Y-6025000D03*
X13725000Y-6650000D03*
X14190000Y-7090000D03*
X11396000Y-8254000D03*
X13730000Y-8170000D03*
X11800000Y-9750000D03*
X15703000Y-12599000D03*
X10550000Y-11000000D03*
X13890000Y-6590000D03*
X11000000Y-13450000D03*
X11600000Y-6200000D03*
X11396000Y-8474000D03*
X12950000Y-6300000D03*
X12680000Y-6025000D03*
X16470000Y-9900000D03*
X13190000Y-10520000D03*
X13920000Y-6840000D03*
X16620000Y-11770000D03*
X16760000Y-11630000D03*
X16690000Y-11700000D03*
X13185000Y-9085000D03*
X13240000Y-9140000D03*
X14870000Y-7100000D03*
X13905000Y-9805000D03*
X14185000Y-10092500D03*
X14246250Y-10148750D03*
X13850000Y-9750000D03*
X15512763Y-8237237D03*
X15330002Y-6634998D03*
X15272500Y-6697500D03*
X15675000Y-8485000D03*
X15765000Y-8485000D03*
X16910000Y-9130000D03*
X14935000Y-7035000D03*
X16970000Y-9070000D03*
X14920000Y-10822500D03*
X15512763Y-8325000D03*
X17400000Y-8640000D03*
X17340000Y-8700000D03*
X14976250Y-10766250D03*
X12371320Y-10859979D03*
X12719681Y-11205587D03*
X13192500Y-11677500D03*
X12315671Y-10804329D03*
X13135000Y-11620000D03*
X13215791Y-10855795D03*
X13480000Y-11280000D03*
X16000000Y-10800000D03*
X15900000Y-10900000D03*
X15800000Y-11000000D03*
X15750000Y-10850000D03*
X15850000Y-10750000D03*
X15950000Y-11050000D03*
X16050000Y-10950000D03*
X16400000Y-11300000D03*
X16550000Y-11350000D03*
X16300000Y-11400000D03*
X16500000Y-11600000D03*
X16450000Y-11450000D03*
X16600000Y-11500000D03*
X16350000Y-11550000D03*
X11997500Y-6300000D03*
X12740000Y-6850000D03*
X13797908Y-8436371D03*
X14363594Y-9702092D03*
X13730733Y-8503546D03*
X14296419Y-9769267D03*
X13143949Y-10785084D03*
X12730000Y-10550000D03*
X13252500Y-8945000D03*
X14572500Y-9675000D03*
X14270000Y-9980000D03*
X13550000Y-8652500D03*
X12688588Y-8908588D03*
X13642500Y-7845000D03*
X13547500Y-7845000D03*
X12621412Y-8841412D03*
X18690000Y-8010000D03*
X18600000Y-8100000D03*
X18600000Y-7920000D03*
X18600000Y-8010000D03*
X18510000Y-8010000D03*
D16*
X11840184Y-6966372D02*
X11910894Y-6966372D01*
X11910894Y-7037083D02*
X11910894Y-6966372D01*
X11981605Y-6966372D02*
X11910894Y-6966372D01*
X11910894Y-6895662D02*
X11910894Y-6966372D01*
D17*
X12992927Y-12892927D02*
X13927534Y-11958320D01*
X13927534Y-11958320D02*
X16431680Y-11958320D01*
X16431680Y-11958320D02*
X16760000Y-11630000D01*
D18*
X13850000Y-9750000D02*
X13190000Y-9090000D01*
X14920000Y-10822500D02*
X14976250Y-10766250D01*
D17*
X16265000Y-8485000D02*
X16805000Y-9025000D01*
X16805000Y-9025000D02*
X16910000Y-9130000D01*
X17400000Y-8640000D02*
X17340000Y-8700000D01*
X15675000Y-8485000D02*
X15765000Y-8485000D01*
X14870000Y-7095000D02*
X15330002Y-6634998D01*
D18*
X13190000Y-9090000D02*
X13190000Y-9080000D01*
D17*
X15765000Y-8485000D02*
X16265000Y-8485000D01*
X15672763Y-8485000D02*
X15512763Y-8325000D01*
D18*
X14920000Y-10822500D02*
X13852500Y-9755000D01*
D17*
X16970000Y-9070000D02*
X17340000Y-8700000D01*
X15512763Y-7742763D02*
X14907500Y-7137500D01*
D18*
X14190000Y-10092500D02*
X14185000Y-10092500D01*
D17*
X15512763Y-8325000D02*
X15512763Y-7742763D01*
X15675000Y-8485000D02*
X15672763Y-8485000D01*
X14870000Y-7100000D02*
X14870000Y-7095000D01*
X14907500Y-7137500D02*
X14870000Y-7100000D01*
X16910000Y-9130000D02*
X16970000Y-9070000D01*
D18*
X12716928Y-11205587D02*
X12719681Y-11205587D01*
X12720587Y-11205587D02*
X12719681Y-11205587D01*
X13192500Y-11677500D02*
X12720587Y-11205587D01*
X12315671Y-10804329D02*
X12318424Y-10804329D01*
X12318424Y-10804329D02*
X12719681Y-11205587D01*
D19*
X13442500Y-11242500D02*
X13442500Y-11242500D01*
X13215791Y-11015791D02*
X13215791Y-10855795D01*
X13442500Y-11242500D02*
X13215791Y-11015791D01*
X13480000Y-11280000D02*
X13442500Y-11242500D01*
D16*
X12190000Y-6300000D02*
X12702500Y-6812500D01*
X11997500Y-6300000D02*
X12190000Y-6300000D01*
X12702500Y-6812500D02*
X12740000Y-6850000D01*
D20*
X13797908Y-8468190D02*
X14296670Y-8966952D01*
X14331774Y-9702092D02*
X14363594Y-9702092D01*
X14296670Y-9666988D02*
X14331774Y-9702092D01*
X13797908Y-8436371D02*
X13797908Y-8468190D01*
X14296670Y-8966952D02*
X14296670Y-9666988D01*
X14246670Y-8987663D02*
X14246670Y-9687698D01*
X14246670Y-9687698D02*
X14296419Y-9737447D01*
X14296419Y-9737447D02*
X14296419Y-9769267D01*
X13762553Y-8503546D02*
X14246670Y-8987663D01*
X13730733Y-8503546D02*
X13762553Y-8503546D01*
X13143949Y-10783953D02*
X12963953Y-10783953D01*
X12963953Y-10783953D02*
X12767500Y-10587500D01*
X12767500Y-10587500D02*
X12730000Y-10550000D01*
D16*
X13550000Y-8652500D02*
X13257500Y-8945000D01*
X13509762Y-9202262D02*
X13509762Y-9272795D01*
X13509762Y-9272795D02*
X14216967Y-9980000D01*
X13252500Y-8945000D02*
X13509762Y-9202262D01*
X14270000Y-9977500D02*
X14270000Y-9980000D01*
X14572500Y-9675000D02*
X14270000Y-9977500D01*
X14216967Y-9980000D02*
X14270000Y-9980000D01*
X13257500Y-8945000D02*
X13252500Y-8945000D01*
D20*
X12688588Y-8876768D02*
X13620000Y-7945355D01*
X12688588Y-8908588D02*
X12688588Y-8876768D01*
X13620000Y-7945355D02*
X13620000Y-7867500D01*
X13620000Y-7867500D02*
X13642500Y-7845000D01*
X12621412Y-8841412D02*
X12653232Y-8841412D01*
X13570000Y-7924645D02*
X13570000Y-7867500D01*
X13570000Y-7867500D02*
X13547500Y-7845000D01*
X12653232Y-8841412D02*
X13570000Y-7924645D01*
D21*
X18600000Y-8100000D02*
X18600000Y-8010000D01*
X18600000Y-9000000D02*
X18600000Y-8100000D01*
G04 #@! TA.AperFunction,Conductor*
G36*
X19509150Y-4485396D02*
G01*
X19514604Y-4490850D01*
X19516600Y-4498300D01*
X19516600Y-13501700D01*
X19514604Y-13509150D01*
X19509150Y-13514604D01*
X19501700Y-13516600D01*
X10498300Y-13516600D01*
X10490850Y-13514604D01*
X10485396Y-13509150D01*
X10483400Y-13501700D01*
X10483400Y-12994709D01*
X12521871Y-12994709D01*
X12522004Y-12995406D01*
X12524286Y-13007428D01*
X12525788Y-13015340D01*
X12533536Y-13034858D01*
X12533917Y-13035455D01*
X12533917Y-13035455D01*
X12539965Y-13044929D01*
X12544834Y-13052559D01*
X12545322Y-13053073D01*
X12552450Y-13060598D01*
X12559276Y-13067804D01*
X12576340Y-13080043D01*
X12595410Y-13088834D01*
X12608588Y-13092083D01*
X12615111Y-13093692D01*
X12615112Y-13093692D01*
X12615799Y-13093861D01*
X12616506Y-13093898D01*
X12616507Y-13093898D01*
X12628530Y-13094517D01*
X12636771Y-13094942D01*
X12649406Y-13093177D01*
X12656866Y-13092136D01*
X12656866Y-13092136D01*
X12657569Y-13092038D01*
X12662940Y-13090204D01*
X12676771Y-13085482D01*
X12676771Y-13085482D01*
X12677442Y-13085253D01*
X12678057Y-13084901D01*
X12678057Y-13084901D01*
X12695058Y-13075184D01*
X12695058Y-13075184D01*
X12695673Y-13074833D01*
X12711606Y-13061153D01*
X12722336Y-13047639D01*
X12724223Y-13045262D01*
X12724223Y-13045262D01*
X12724664Y-13044707D01*
X12725536Y-13043035D01*
X12734048Y-13026718D01*
X12734377Y-13026089D01*
X12740393Y-13005970D01*
X12741599Y-12993999D01*
X12742461Y-12985440D01*
X12742461Y-12985439D01*
X12742497Y-12985076D01*
X12742499Y-12984497D01*
X12741915Y-12978374D01*
X12740572Y-12964299D01*
X12740504Y-12963593D01*
X12734593Y-12943442D01*
X12724978Y-12924774D01*
X12712006Y-12908260D01*
X12711471Y-12907795D01*
X12706841Y-12903777D01*
X12837756Y-12903777D01*
X12837845Y-12904368D01*
X12837845Y-12904369D01*
X12839711Y-12916709D01*
X12841487Y-12928447D01*
X12841670Y-12929017D01*
X12841670Y-12929017D01*
X12846728Y-12944770D01*
X12849114Y-12952202D01*
X12849385Y-12952735D01*
X12849385Y-12952735D01*
X12852372Y-12958596D01*
X12860441Y-12974433D01*
X12860794Y-12974916D01*
X12874823Y-12994083D01*
X12874823Y-12994084D01*
X12875176Y-12994566D01*
X12875602Y-12994987D01*
X12875602Y-12994987D01*
X12880442Y-12999760D01*
X12892941Y-13012085D01*
X12893428Y-13012431D01*
X12893428Y-13012431D01*
X12898447Y-13015998D01*
X12913279Y-13026538D01*
X12935665Y-13037554D01*
X12959525Y-13044848D01*
X12984244Y-13048234D01*
X12984841Y-13048220D01*
X12993347Y-13048012D01*
X13009186Y-13047625D01*
X13024957Y-13044673D01*
X13033121Y-13043145D01*
X13033122Y-13043145D01*
X13033710Y-13043035D01*
X13057185Y-13034584D01*
X13079007Y-13022488D01*
X13088975Y-13014643D01*
X13098144Y-13007428D01*
X13098145Y-13007428D01*
X13098614Y-13007059D01*
X13115502Y-12988693D01*
X13129236Y-12967864D01*
X13136275Y-12952202D01*
X13139219Y-12945652D01*
X13139464Y-12945106D01*
X13145921Y-12921007D01*
X13148443Y-12896184D01*
X13148477Y-12892927D01*
X13146476Y-12868057D01*
X13142639Y-12852436D01*
X13142800Y-12844725D01*
X13146573Y-12838346D01*
X13368146Y-12616773D01*
X14599801Y-12616773D01*
X14599835Y-12617141D01*
X14599835Y-12617142D01*
X14603412Y-12656069D01*
X14603446Y-12656438D01*
X14611012Y-12695545D01*
X14622425Y-12733706D01*
X14637571Y-12770546D01*
X14656302Y-12805699D01*
X14678431Y-12838818D01*
X14691609Y-12854832D01*
X14702014Y-12867476D01*
X14703741Y-12869575D01*
X14704003Y-12869836D01*
X14704004Y-12869837D01*
X14730490Y-12896184D01*
X14731980Y-12897667D01*
X14762869Y-12922815D01*
X14763178Y-12923019D01*
X14763178Y-12923019D01*
X14772258Y-12929017D01*
X14796103Y-12944770D01*
X14796430Y-12944942D01*
X14796431Y-12944942D01*
X14813257Y-12953795D01*
X14831354Y-12963316D01*
X14868272Y-12978270D01*
X14906493Y-12989483D01*
X14906858Y-12989551D01*
X14945274Y-12996775D01*
X14945275Y-12996775D01*
X14945639Y-12996844D01*
X14959595Y-12998053D01*
X14984952Y-13000249D01*
X14984953Y-13000249D01*
X14985322Y-13000281D01*
X15003253Y-13000046D01*
X15024780Y-12999764D01*
X15024781Y-12999764D01*
X15025151Y-12999760D01*
X15064730Y-12995285D01*
X15091681Y-12989483D01*
X15103307Y-12986980D01*
X15103307Y-12986980D01*
X15103670Y-12986902D01*
X15141584Y-12974692D01*
X15178099Y-12958777D01*
X15212852Y-12939315D01*
X15245500Y-12916497D01*
X15275720Y-12890549D01*
X15303214Y-12861728D01*
X15327710Y-12830318D01*
X15348965Y-12796631D01*
X15366769Y-12761000D01*
X15373572Y-12743136D01*
X15380814Y-12724123D01*
X15380814Y-12724123D01*
X15380946Y-12723777D01*
X15391356Y-12685329D01*
X15397895Y-12646038D01*
X15400501Y-12606292D01*
X15400550Y-12600000D01*
X15398569Y-12560217D01*
X15392874Y-12522337D01*
X15392703Y-12521195D01*
X15392703Y-12521194D01*
X15392648Y-12520828D01*
X15388911Y-12506114D01*
X15382934Y-12482581D01*
X15382934Y-12482580D01*
X15382843Y-12482222D01*
X15369252Y-12444781D01*
X15352010Y-12408874D01*
X15333056Y-12377761D01*
X15331480Y-12375175D01*
X15331480Y-12375174D01*
X15331287Y-12374857D01*
X15327682Y-12370082D01*
X15307512Y-12343363D01*
X15307511Y-12343363D01*
X15307288Y-12343067D01*
X15305018Y-12340612D01*
X15289021Y-12323306D01*
X15280250Y-12313818D01*
X15250441Y-12287399D01*
X15218155Y-12264070D01*
X15183712Y-12244064D01*
X15163363Y-12234812D01*
X15147790Y-12227732D01*
X15147790Y-12227731D01*
X15147452Y-12227578D01*
X15124661Y-12219841D01*
X15110085Y-12214893D01*
X15110085Y-12214893D01*
X15109734Y-12214774D01*
X15070931Y-12205780D01*
X15031427Y-12200685D01*
X15031057Y-12200674D01*
X15031056Y-12200674D01*
X15016732Y-12200261D01*
X14991611Y-12199538D01*
X14991243Y-12199564D01*
X14991243Y-12199564D01*
X14952249Y-12202325D01*
X14952248Y-12202325D01*
X14951879Y-12202351D01*
X14951515Y-12202414D01*
X14951514Y-12202414D01*
X14912987Y-12209034D01*
X14912987Y-12209034D01*
X14912623Y-12209096D01*
X14912267Y-12209195D01*
X14912266Y-12209195D01*
X14903325Y-12211666D01*
X14874230Y-12219708D01*
X14873885Y-12219841D01*
X14873885Y-12219841D01*
X14855997Y-12226762D01*
X14837082Y-12234079D01*
X14836751Y-12234246D01*
X14836750Y-12234247D01*
X14806388Y-12249617D01*
X14801544Y-12252070D01*
X14767969Y-12273501D01*
X14736688Y-12298160D01*
X14708012Y-12325805D01*
X14682222Y-12356161D01*
X14682013Y-12356464D01*
X14682013Y-12356464D01*
X14677835Y-12362508D01*
X14659575Y-12388928D01*
X14659397Y-12389251D01*
X14659397Y-12389251D01*
X14645164Y-12414980D01*
X14640295Y-12423782D01*
X14640149Y-12424122D01*
X14640149Y-12424123D01*
X14635216Y-12435603D01*
X14624572Y-12460379D01*
X14624460Y-12460732D01*
X14624460Y-12460733D01*
X14617664Y-12482222D01*
X14612561Y-12498357D01*
X14604381Y-12537340D01*
X14604342Y-12537708D01*
X14604342Y-12537709D01*
X14601876Y-12560587D01*
X14600114Y-12576943D01*
X14599801Y-12616773D01*
X13368146Y-12616773D01*
X13952185Y-12032734D01*
X13958865Y-12028878D01*
X13962721Y-12028370D01*
X16428949Y-12028370D01*
X16429963Y-12028404D01*
X16434476Y-12028712D01*
X16434476Y-12028712D01*
X16435372Y-12028773D01*
X16441531Y-12027698D01*
X16442300Y-12027585D01*
X16448508Y-12026833D01*
X16449348Y-12026516D01*
X16450221Y-12026302D01*
X16450226Y-12026320D01*
X16450331Y-12026291D01*
X16450326Y-12026273D01*
X16451186Y-12026013D01*
X16452071Y-12025859D01*
X16457796Y-12023346D01*
X16458515Y-12023052D01*
X16463525Y-12021159D01*
X16463525Y-12021159D01*
X16464365Y-12020842D01*
X16465106Y-12020333D01*
X16465902Y-12019917D01*
X16465910Y-12019934D01*
X16466007Y-12019880D01*
X16465997Y-12019863D01*
X16466770Y-12019407D01*
X16467593Y-12019045D01*
X16472554Y-12015239D01*
X16473182Y-12014782D01*
X16477595Y-12011750D01*
X16477595Y-12011749D01*
X16478336Y-12011240D01*
X16482220Y-12006880D01*
X16482809Y-12006256D01*
X16812137Y-11676928D01*
X16812454Y-11676611D01*
X16820346Y-11666547D01*
X16827322Y-11651097D01*
X16830411Y-11634430D01*
X16829435Y-11617507D01*
X16824451Y-11601305D01*
X16822842Y-11598616D01*
X16816207Y-11587530D01*
X16816207Y-11587530D01*
X16815745Y-11586759D01*
X16803822Y-11574710D01*
X16803057Y-11574241D01*
X16803056Y-11574241D01*
X16790134Y-11566323D01*
X16790134Y-11566322D01*
X16789369Y-11565853D01*
X16781602Y-11563375D01*
X16774075Y-11560973D01*
X16774075Y-11560973D01*
X16773220Y-11560700D01*
X16772324Y-11560639D01*
X16772324Y-11560639D01*
X16757204Y-11559608D01*
X16757204Y-11559608D01*
X16756308Y-11559547D01*
X16755422Y-11559701D01*
X16755422Y-11559701D01*
X16740494Y-11562307D01*
X16740494Y-11562307D01*
X16739609Y-11562461D01*
X16738787Y-11562822D01*
X16738786Y-11562822D01*
X16724087Y-11569275D01*
X16723974Y-11569017D01*
X16717987Y-11570689D01*
X16710517Y-11568771D01*
X16705006Y-11563375D01*
X16702931Y-11555946D01*
X16704849Y-11548476D01*
X16707295Y-11545253D01*
X16727659Y-11524889D01*
X16731683Y-11519896D01*
X16734579Y-11515389D01*
X16736472Y-11511975D01*
X16739265Y-11501310D01*
X16739547Y-11497370D01*
X16739745Y-11494603D01*
X16739745Y-11494603D01*
X16739772Y-11494229D01*
X16739594Y-11488193D01*
X16736179Y-11477710D01*
X16732776Y-11471479D01*
X16727659Y-11464644D01*
X16686080Y-11423065D01*
X16682223Y-11416385D01*
X16681716Y-11412529D01*
X16681716Y-11393157D01*
X16683712Y-11385707D01*
X16686080Y-11382621D01*
X16743630Y-11325070D01*
X16805441Y-11263260D01*
X16809465Y-11258266D01*
X16812361Y-11253760D01*
X16812513Y-11253486D01*
X16813802Y-11251161D01*
X16814253Y-11250346D01*
X16817047Y-11239681D01*
X16817554Y-11232599D01*
X16817519Y-11231421D01*
X16817453Y-11229156D01*
X16817376Y-11226563D01*
X16813960Y-11216081D01*
X16813401Y-11215057D01*
X16811952Y-11212403D01*
X16810558Y-11209850D01*
X16808472Y-11207063D01*
X16806902Y-11204966D01*
X16805441Y-11203014D01*
X16710123Y-11107696D01*
X16705129Y-11103672D01*
X16700623Y-11100776D01*
X16697209Y-11098884D01*
X16686543Y-11096090D01*
X16683585Y-11095878D01*
X16679837Y-11095610D01*
X16679837Y-11095610D01*
X16679462Y-11095583D01*
X16679088Y-11095594D01*
X16679087Y-11095594D01*
X16677231Y-11095649D01*
X16673426Y-11095761D01*
X16662944Y-11099177D01*
X16662340Y-11099507D01*
X16662340Y-11099507D01*
X16660231Y-11100658D01*
X16656713Y-11102579D01*
X16649877Y-11107696D01*
X16530516Y-11227057D01*
X16523837Y-11230914D01*
X16519980Y-11231421D01*
X16500608Y-11231421D01*
X16493158Y-11229425D01*
X16490072Y-11227057D01*
X16445417Y-11182402D01*
X16440423Y-11178378D01*
X16435917Y-11175482D01*
X16432503Y-11173589D01*
X16421838Y-11170796D01*
X16418879Y-11170584D01*
X16415131Y-11170316D01*
X16415131Y-11170316D01*
X16414756Y-11170289D01*
X16414382Y-11170300D01*
X16414381Y-11170300D01*
X16412526Y-11170355D01*
X16408721Y-11170467D01*
X16398238Y-11173882D01*
X16397634Y-11174212D01*
X16397634Y-11174212D01*
X16396374Y-11174900D01*
X16392007Y-11177285D01*
X16385172Y-11182402D01*
X15978757Y-11588816D01*
X15974705Y-11593853D01*
X15971794Y-11598401D01*
X15969885Y-11601865D01*
X15967129Y-11612540D01*
X15966647Y-11619623D01*
X15966659Y-11619998D01*
X15966659Y-11619998D01*
X15966686Y-11620825D01*
X15966845Y-11625658D01*
X15970297Y-11636128D01*
X15973721Y-11642348D01*
X15978862Y-11649166D01*
X16187790Y-11856649D01*
X16193981Y-11862798D01*
X16197861Y-11869464D01*
X16197887Y-11877176D01*
X16194054Y-11883869D01*
X16187388Y-11887749D01*
X16183482Y-11888270D01*
X13930264Y-11888270D01*
X13929251Y-11888235D01*
X13924738Y-11887928D01*
X13924738Y-11887928D01*
X13923841Y-11887867D01*
X13917682Y-11888942D01*
X13916912Y-11889055D01*
X13911694Y-11889687D01*
X13910705Y-11889806D01*
X13909865Y-11890124D01*
X13908993Y-11890338D01*
X13908988Y-11890320D01*
X13908882Y-11890349D01*
X13908887Y-11890367D01*
X13908027Y-11890627D01*
X13907143Y-11890781D01*
X13901417Y-11893294D01*
X13900697Y-11893588D01*
X13894848Y-11895798D01*
X13894108Y-11896307D01*
X13893312Y-11896723D01*
X13893303Y-11896706D01*
X13893207Y-11896760D01*
X13893216Y-11896777D01*
X13892444Y-11897233D01*
X13891621Y-11897595D01*
X13890908Y-11898142D01*
X13890908Y-11898142D01*
X13886663Y-11901399D01*
X13886032Y-11901857D01*
X13881619Y-11904891D01*
X13881618Y-11904891D01*
X13880878Y-11905400D01*
X13880281Y-11906070D01*
X13880281Y-11906070D01*
X13876994Y-11909759D01*
X13876405Y-11910383D01*
X13460702Y-12326087D01*
X13047701Y-12739087D01*
X13041022Y-12742943D01*
X13034119Y-12743136D01*
X13012422Y-12738603D01*
X13011825Y-12738576D01*
X13011824Y-12738576D01*
X12988095Y-12737499D01*
X12988095Y-12737499D01*
X12987498Y-12737472D01*
X12962714Y-12740339D01*
X12962138Y-12740502D01*
X12962138Y-12740502D01*
X12939283Y-12746970D01*
X12939282Y-12746970D01*
X12938706Y-12747133D01*
X12916094Y-12757677D01*
X12915600Y-12758013D01*
X12915600Y-12758013D01*
X12910717Y-12761331D01*
X12895459Y-12771701D01*
X12877331Y-12788844D01*
X12862177Y-12808664D01*
X12850387Y-12830653D01*
X12850192Y-12831219D01*
X12842458Y-12853678D01*
X12842458Y-12853678D01*
X12842264Y-12854243D01*
X12838017Y-12878829D01*
X12838011Y-12879427D01*
X12838011Y-12879427D01*
X12837966Y-12883748D01*
X12837756Y-12903777D01*
X12706841Y-12903777D01*
X12696681Y-12894961D01*
X12696681Y-12894961D01*
X12696146Y-12894497D01*
X12686060Y-12888662D01*
X12678582Y-12884336D01*
X12678582Y-12884336D01*
X12677969Y-12883981D01*
X12663132Y-12878829D01*
X12658801Y-12877325D01*
X12658801Y-12877325D01*
X12658131Y-12877092D01*
X12637349Y-12874079D01*
X12630283Y-12874406D01*
X12617080Y-12875017D01*
X12617079Y-12875017D01*
X12616372Y-12875050D01*
X12595957Y-12879970D01*
X12576841Y-12888662D01*
X12576263Y-12889072D01*
X12576263Y-12889072D01*
X12573842Y-12890789D01*
X12559713Y-12900811D01*
X12559223Y-12901323D01*
X12559223Y-12901324D01*
X12545682Y-12915468D01*
X12545192Y-12915981D01*
X12533801Y-12933622D01*
X12525951Y-12953099D01*
X12521926Y-12973709D01*
X12521925Y-12974418D01*
X12521925Y-12974418D01*
X12521914Y-12978374D01*
X12521871Y-12994709D01*
X10483400Y-12994709D01*
X10483400Y-12455893D01*
X11983056Y-12455893D01*
X11986973Y-12476524D01*
X11987234Y-12477182D01*
X11987234Y-12477183D01*
X11989377Y-12482581D01*
X11994720Y-12496042D01*
X11995102Y-12496640D01*
X11995102Y-12496640D01*
X11999810Y-12504017D01*
X12006019Y-12513743D01*
X12006506Y-12514258D01*
X12013634Y-12521782D01*
X12020461Y-12528988D01*
X12037525Y-12541227D01*
X12056595Y-12550019D01*
X12069772Y-12553268D01*
X12076296Y-12554876D01*
X12076296Y-12554876D01*
X12076984Y-12555046D01*
X12077691Y-12555082D01*
X12077691Y-12555082D01*
X12089715Y-12555702D01*
X12097956Y-12556127D01*
X12110591Y-12554362D01*
X12118051Y-12553320D01*
X12118051Y-12553320D01*
X12118753Y-12553222D01*
X12124125Y-12551388D01*
X12137955Y-12546667D01*
X12137956Y-12546666D01*
X12138626Y-12546437D01*
X12139242Y-12546086D01*
X12139242Y-12546086D01*
X12156242Y-12536369D01*
X12156243Y-12536369D01*
X12156858Y-12536017D01*
X12172790Y-12522337D01*
X12183532Y-12508809D01*
X12185408Y-12506447D01*
X12185408Y-12506447D01*
X12185848Y-12505892D01*
X12195561Y-12487273D01*
X12201578Y-12467154D01*
X12203682Y-12446261D01*
X12203683Y-12445682D01*
X12203631Y-12445129D01*
X12201756Y-12425484D01*
X12201689Y-12424777D01*
X12195778Y-12404627D01*
X12186162Y-12385958D01*
X12173191Y-12369444D01*
X12170429Y-12367048D01*
X12168025Y-12364962D01*
X12298940Y-12364962D01*
X12299030Y-12365553D01*
X12299030Y-12365553D01*
X12299996Y-12371942D01*
X12302671Y-12389631D01*
X12302854Y-12390202D01*
X12302854Y-12390202D01*
X12308957Y-12409208D01*
X12310298Y-12413387D01*
X12321625Y-12435617D01*
X12321979Y-12436100D01*
X12336007Y-12455268D01*
X12336007Y-12455268D01*
X12336361Y-12455751D01*
X12354126Y-12473270D01*
X12354613Y-12473616D01*
X12354613Y-12473616D01*
X12366234Y-12481875D01*
X12374463Y-12487723D01*
X12396850Y-12498738D01*
X12420709Y-12506033D01*
X12445428Y-12509419D01*
X12446026Y-12509404D01*
X12454531Y-12509196D01*
X12470371Y-12508809D01*
X12486142Y-12505858D01*
X12494306Y-12504330D01*
X12494306Y-12504330D01*
X12494895Y-12504220D01*
X12518370Y-12495768D01*
X12540192Y-12483672D01*
X12550160Y-12475828D01*
X12559329Y-12468613D01*
X12559329Y-12468612D01*
X12559799Y-12468243D01*
X12576687Y-12449878D01*
X12590421Y-12429048D01*
X12597459Y-12413387D01*
X12600403Y-12406837D01*
X12600648Y-12406291D01*
X12607106Y-12382191D01*
X12609627Y-12357369D01*
X12609661Y-12354111D01*
X12608236Y-12336401D01*
X12607708Y-12329838D01*
X12607708Y-12329838D01*
X12607660Y-12329242D01*
X12606753Y-12325548D01*
X12601852Y-12305593D01*
X12601852Y-12305593D01*
X12601709Y-12305012D01*
X12598703Y-12297930D01*
X12592194Y-12282597D01*
X12592194Y-12282596D01*
X12591960Y-12282046D01*
X12586108Y-12272753D01*
X12705012Y-12272753D01*
X12705144Y-12273450D01*
X12707839Y-12287645D01*
X12708929Y-12293384D01*
X12709190Y-12294042D01*
X12709190Y-12294042D01*
X12710825Y-12298160D01*
X12716676Y-12312902D01*
X12717058Y-12313499D01*
X12717058Y-12313499D01*
X12722562Y-12322122D01*
X12727975Y-12330603D01*
X12728462Y-12331117D01*
X12735590Y-12338642D01*
X12742417Y-12345848D01*
X12747583Y-12349553D01*
X12758480Y-12357369D01*
X12759481Y-12358087D01*
X12778551Y-12366878D01*
X12791728Y-12370127D01*
X12798252Y-12371736D01*
X12798252Y-12371736D01*
X12798940Y-12371905D01*
X12799647Y-12371942D01*
X12799647Y-12371942D01*
X12811671Y-12372561D01*
X12819912Y-12372986D01*
X12832547Y-12371221D01*
X12840007Y-12370180D01*
X12840007Y-12370180D01*
X12840709Y-12370082D01*
X12846081Y-12368248D01*
X12859911Y-12363526D01*
X12859912Y-12363526D01*
X12860582Y-12363297D01*
X12861198Y-12362945D01*
X12861198Y-12362945D01*
X12878198Y-12353228D01*
X12878199Y-12353228D01*
X12878814Y-12352877D01*
X12882343Y-12349846D01*
X12887600Y-12345333D01*
X12894746Y-12339197D01*
X12905156Y-12326087D01*
X12907364Y-12323306D01*
X12907364Y-12323306D01*
X12907804Y-12322751D01*
X12912465Y-12313818D01*
X12917189Y-12304762D01*
X12917517Y-12304133D01*
X12923534Y-12284014D01*
X12924598Y-12273450D01*
X12925601Y-12263484D01*
X12925601Y-12263483D01*
X12925638Y-12263120D01*
X12925639Y-12262541D01*
X12923645Y-12241637D01*
X12917734Y-12221486D01*
X12908118Y-12202818D01*
X12895147Y-12186304D01*
X12879286Y-12172541D01*
X12869178Y-12166693D01*
X12861723Y-12162380D01*
X12861723Y-12162380D01*
X12861109Y-12162025D01*
X12860439Y-12161792D01*
X12841942Y-12155369D01*
X12841941Y-12155369D01*
X12841272Y-12155136D01*
X12820490Y-12152123D01*
X12813423Y-12152450D01*
X12800221Y-12153061D01*
X12800220Y-12153061D01*
X12799513Y-12153094D01*
X12779098Y-12158014D01*
X12759982Y-12166706D01*
X12742854Y-12178855D01*
X12742364Y-12179367D01*
X12742363Y-12179368D01*
X12728823Y-12193512D01*
X12728332Y-12194025D01*
X12716941Y-12211666D01*
X12709092Y-12231143D01*
X12705067Y-12251753D01*
X12705012Y-12272753D01*
X12586108Y-12272753D01*
X12578665Y-12260933D01*
X12568689Y-12249617D01*
X12562562Y-12242667D01*
X12562561Y-12242667D01*
X12562166Y-12242218D01*
X12559380Y-12239930D01*
X12543348Y-12226762D01*
X12542886Y-12226382D01*
X12531419Y-12219708D01*
X12521840Y-12214133D01*
X12521840Y-12214133D01*
X12521322Y-12213831D01*
X12520764Y-12213617D01*
X12520763Y-12213617D01*
X12498588Y-12205105D01*
X12498588Y-12205104D01*
X12498030Y-12204890D01*
X12473607Y-12199788D01*
X12473010Y-12199761D01*
X12473009Y-12199761D01*
X12449280Y-12198683D01*
X12449280Y-12198683D01*
X12448683Y-12198656D01*
X12423898Y-12201524D01*
X12423323Y-12201687D01*
X12423323Y-12201687D01*
X12400467Y-12208154D01*
X12400467Y-12208154D01*
X12399891Y-12208317D01*
X12399349Y-12208570D01*
X12399348Y-12208570D01*
X12393987Y-12211070D01*
X12377279Y-12218862D01*
X12376785Y-12219197D01*
X12376784Y-12219197D01*
X12360175Y-12230485D01*
X12356643Y-12232885D01*
X12338515Y-12250028D01*
X12323361Y-12269849D01*
X12311571Y-12291837D01*
X12309394Y-12298160D01*
X12303643Y-12314862D01*
X12303643Y-12314863D01*
X12303448Y-12315428D01*
X12299202Y-12340014D01*
X12299195Y-12340612D01*
X12299195Y-12340612D01*
X12299170Y-12343067D01*
X12298940Y-12364962D01*
X12168025Y-12364962D01*
X12157865Y-12356146D01*
X12157865Y-12356146D01*
X12157330Y-12355681D01*
X12147244Y-12349846D01*
X12139767Y-12345521D01*
X12139767Y-12345521D01*
X12139153Y-12345166D01*
X12138483Y-12344933D01*
X12119986Y-12338510D01*
X12119985Y-12338509D01*
X12119316Y-12338277D01*
X12098534Y-12335264D01*
X12091467Y-12335591D01*
X12078265Y-12336202D01*
X12078264Y-12336202D01*
X12077557Y-12336235D01*
X12057142Y-12341155D01*
X12038026Y-12349846D01*
X12037447Y-12350257D01*
X12037447Y-12350257D01*
X12030300Y-12355327D01*
X12020898Y-12361996D01*
X12020408Y-12362508D01*
X12020407Y-12362508D01*
X12008586Y-12374857D01*
X12006376Y-12377165D01*
X11994985Y-12394807D01*
X11987136Y-12414284D01*
X11983111Y-12434894D01*
X11983056Y-12455893D01*
X10483400Y-12455893D01*
X10483400Y-12095554D01*
X12029533Y-12095554D01*
X12033264Y-12120224D01*
X12040891Y-12143979D01*
X12052218Y-12166210D01*
X12052571Y-12166693D01*
X12066599Y-12185860D01*
X12066600Y-12185861D01*
X12066953Y-12186343D01*
X12084718Y-12203862D01*
X12105055Y-12218315D01*
X12127442Y-12229330D01*
X12128015Y-12229506D01*
X12128015Y-12229506D01*
X12132260Y-12230804D01*
X12151302Y-12236625D01*
X12176021Y-12240011D01*
X12176618Y-12239997D01*
X12185123Y-12239789D01*
X12200963Y-12239402D01*
X12216734Y-12236450D01*
X12224898Y-12234922D01*
X12224898Y-12234922D01*
X12225487Y-12234812D01*
X12227057Y-12234247D01*
X12241447Y-12229066D01*
X12248962Y-12226361D01*
X12270784Y-12214265D01*
X12278549Y-12208154D01*
X12289921Y-12199205D01*
X12289922Y-12199205D01*
X12290391Y-12198835D01*
X12307279Y-12180470D01*
X12321013Y-12159641D01*
X12321819Y-12157848D01*
X12330996Y-12137429D01*
X12331241Y-12136883D01*
X12337698Y-12112784D01*
X12340220Y-12087961D01*
X12340254Y-12084704D01*
X12338253Y-12059834D01*
X12332301Y-12035605D01*
X12332068Y-12035054D01*
X12322787Y-12013189D01*
X12322786Y-12013188D01*
X12322553Y-12012638D01*
X12309258Y-11991526D01*
X12299281Y-11980209D01*
X12293154Y-11973260D01*
X12293153Y-11973259D01*
X12292758Y-11972810D01*
X12290054Y-11970589D01*
X12273941Y-11957354D01*
X12273478Y-11956974D01*
X12272944Y-11956663D01*
X12252432Y-11944725D01*
X12252432Y-11944725D01*
X12251915Y-11944424D01*
X12251356Y-11944209D01*
X12251355Y-11944209D01*
X12229181Y-11935697D01*
X12229180Y-11935697D01*
X12228622Y-11935482D01*
X12204199Y-11930380D01*
X12203602Y-11930353D01*
X12203601Y-11930353D01*
X12179872Y-11929276D01*
X12179872Y-11929276D01*
X12179275Y-11929249D01*
X12154491Y-11932116D01*
X12153915Y-11932279D01*
X12153915Y-11932279D01*
X12131060Y-11938746D01*
X12131059Y-11938747D01*
X12130483Y-11938910D01*
X12107871Y-11949454D01*
X12107377Y-11949790D01*
X12107377Y-11949790D01*
X12096247Y-11957354D01*
X12087236Y-11963478D01*
X12069108Y-11980620D01*
X12053954Y-12000441D01*
X12042164Y-12022429D01*
X12040349Y-12027699D01*
X12034235Y-12045454D01*
X12034235Y-12045455D01*
X12034041Y-12046020D01*
X12029794Y-12070606D01*
X12029533Y-12095554D01*
X10483400Y-12095554D01*
X10483400Y-11917078D01*
X11444241Y-11917078D01*
X11444373Y-11917775D01*
X11447712Y-11935360D01*
X11448158Y-11937709D01*
X11448419Y-11938367D01*
X11448419Y-11938367D01*
X11450823Y-11944424D01*
X11455905Y-11957227D01*
X11456286Y-11957824D01*
X11456286Y-11957825D01*
X11462334Y-11967299D01*
X11467203Y-11974928D01*
X11467691Y-11975442D01*
X11474819Y-11982967D01*
X11481645Y-11990173D01*
X11490801Y-11996740D01*
X11496697Y-12000969D01*
X11498709Y-12002412D01*
X11517780Y-12011204D01*
X11530957Y-12014452D01*
X11537481Y-12016061D01*
X11537481Y-12016061D01*
X11538169Y-12016231D01*
X11538876Y-12016267D01*
X11538876Y-12016267D01*
X11550899Y-12016887D01*
X11559140Y-12017311D01*
X11571775Y-12015547D01*
X11579235Y-12014505D01*
X11579236Y-12014505D01*
X11579938Y-12014407D01*
X11585309Y-12012573D01*
X11599140Y-12007851D01*
X11599141Y-12007851D01*
X11599811Y-12007622D01*
X11600426Y-12007270D01*
X11600427Y-12007270D01*
X11617427Y-11997554D01*
X11617427Y-11997553D01*
X11618043Y-11997202D01*
X11633975Y-11983522D01*
X11644705Y-11970009D01*
X11646592Y-11967631D01*
X11646592Y-11967631D01*
X11647033Y-11967076D01*
X11647905Y-11965404D01*
X11656417Y-11949087D01*
X11656746Y-11948458D01*
X11662763Y-11928339D01*
X11663968Y-11916369D01*
X11664830Y-11907809D01*
X11664830Y-11907809D01*
X11664867Y-11907445D01*
X11664868Y-11906866D01*
X11664792Y-11906070D01*
X11663329Y-11890733D01*
X11662874Y-11885962D01*
X11656962Y-11865812D01*
X11647347Y-11847143D01*
X11634375Y-11830629D01*
X11633840Y-11830164D01*
X11629210Y-11826147D01*
X11760125Y-11826147D01*
X11760214Y-11826738D01*
X11760214Y-11826738D01*
X11762379Y-11841047D01*
X11763856Y-11850816D01*
X11771483Y-11874572D01*
X11771755Y-11875104D01*
X11771755Y-11875105D01*
X11772810Y-11877176D01*
X11782810Y-11896802D01*
X11783164Y-11897285D01*
X11797192Y-11916453D01*
X11797192Y-11916453D01*
X11797546Y-11916936D01*
X11815311Y-11934454D01*
X11815797Y-11934800D01*
X11815798Y-11934801D01*
X11829037Y-11944209D01*
X11835648Y-11948907D01*
X11858034Y-11959923D01*
X11881894Y-11967218D01*
X11906613Y-11970604D01*
X11907211Y-11970589D01*
X11915716Y-11970381D01*
X11931556Y-11969994D01*
X11947327Y-11967043D01*
X11955490Y-11965515D01*
X11955491Y-11965515D01*
X11956080Y-11965404D01*
X11960291Y-11963888D01*
X11977134Y-11957825D01*
X11979555Y-11956953D01*
X12001376Y-11944857D01*
X12011345Y-11937013D01*
X12020514Y-11929797D01*
X12020514Y-11929797D01*
X12020983Y-11929428D01*
X12037871Y-11911062D01*
X12049393Y-11893589D01*
X12051276Y-11890733D01*
X12051276Y-11890733D01*
X12051606Y-11890233D01*
X12052722Y-11887749D01*
X12061588Y-11868021D01*
X12061833Y-11867476D01*
X12068291Y-11843376D01*
X12070812Y-11818554D01*
X12070846Y-11815296D01*
X12068845Y-11790427D01*
X12062894Y-11766197D01*
X12062660Y-11765646D01*
X12053379Y-11743781D01*
X12053379Y-11743781D01*
X12053145Y-11743230D01*
X12039850Y-11722118D01*
X12028408Y-11709140D01*
X12023746Y-11703852D01*
X12023746Y-11703852D01*
X12023350Y-11703403D01*
X12020565Y-11701115D01*
X12004533Y-11687946D01*
X12004071Y-11687566D01*
X11990716Y-11679794D01*
X11983025Y-11675317D01*
X11983025Y-11675317D01*
X11982507Y-11675016D01*
X11981948Y-11674802D01*
X11981948Y-11674801D01*
X11959773Y-11666289D01*
X11959773Y-11666289D01*
X11959214Y-11666075D01*
X11934792Y-11660973D01*
X11934194Y-11660946D01*
X11934194Y-11660946D01*
X11910465Y-11659868D01*
X11910464Y-11659868D01*
X11909868Y-11659841D01*
X11885083Y-11662709D01*
X11884507Y-11662871D01*
X11884507Y-11662871D01*
X11861652Y-11669339D01*
X11861652Y-11669339D01*
X11861076Y-11669502D01*
X11838463Y-11680046D01*
X11837969Y-11680382D01*
X11837969Y-11680382D01*
X11818322Y-11693734D01*
X11817828Y-11694070D01*
X11817394Y-11694481D01*
X11801892Y-11709140D01*
X11799700Y-11711213D01*
X11784546Y-11731033D01*
X11772756Y-11753022D01*
X11772561Y-11753588D01*
X11764828Y-11776047D01*
X11764828Y-11776047D01*
X11764633Y-11776612D01*
X11760386Y-11801198D01*
X11760380Y-11801796D01*
X11760380Y-11801797D01*
X11760335Y-11806118D01*
X11760125Y-11826147D01*
X11629210Y-11826147D01*
X11619050Y-11817330D01*
X11619050Y-11817330D01*
X11618515Y-11816866D01*
X11608429Y-11811031D01*
X11600951Y-11806705D01*
X11600951Y-11806705D01*
X11600338Y-11806350D01*
X11585501Y-11801198D01*
X11581170Y-11799694D01*
X11581170Y-11799694D01*
X11580501Y-11799462D01*
X11559718Y-11796448D01*
X11552652Y-11796776D01*
X11539449Y-11797387D01*
X11539449Y-11797387D01*
X11538741Y-11797419D01*
X11518326Y-11802339D01*
X11499210Y-11811031D01*
X11482082Y-11823181D01*
X11481592Y-11823693D01*
X11481592Y-11823693D01*
X11468051Y-11837838D01*
X11467561Y-11838350D01*
X11456170Y-11855991D01*
X11448321Y-11875469D01*
X11446404Y-11885281D01*
X11444809Y-11893450D01*
X11444296Y-11896079D01*
X11444294Y-11896787D01*
X11444294Y-11896788D01*
X11444273Y-11904891D01*
X11444241Y-11917078D01*
X10483400Y-11917078D01*
X10483400Y-11556739D01*
X11490717Y-11556739D01*
X11490807Y-11557330D01*
X11490807Y-11557330D01*
X11491770Y-11563700D01*
X11494448Y-11581408D01*
X11494631Y-11581979D01*
X11494631Y-11581979D01*
X11501016Y-11601865D01*
X11502075Y-11605164D01*
X11502347Y-11605697D01*
X11502347Y-11605697D01*
X11506051Y-11612966D01*
X11513402Y-11627394D01*
X11513756Y-11627877D01*
X11527784Y-11647045D01*
X11527784Y-11647045D01*
X11528138Y-11647528D01*
X11545903Y-11665047D01*
X11546390Y-11665393D01*
X11546390Y-11665393D01*
X11551943Y-11669339D01*
X11566240Y-11679500D01*
X11588627Y-11690515D01*
X11612486Y-11697810D01*
X11637205Y-11701196D01*
X11637803Y-11701181D01*
X11646308Y-11700973D01*
X11662148Y-11700586D01*
X11677919Y-11697635D01*
X11686083Y-11696107D01*
X11686083Y-11696107D01*
X11686672Y-11695997D01*
X11691597Y-11694224D01*
X11702632Y-11690251D01*
X11710147Y-11687545D01*
X11731969Y-11675449D01*
X11744322Y-11665728D01*
X11751106Y-11660390D01*
X11751106Y-11660389D01*
X11751576Y-11660020D01*
X11768464Y-11641655D01*
X11782198Y-11620825D01*
X11782570Y-11619998D01*
X11792180Y-11598614D01*
X11792425Y-11598068D01*
X11798883Y-11573968D01*
X11801404Y-11549146D01*
X11801438Y-11545888D01*
X11799437Y-11521019D01*
X11793486Y-11496789D01*
X11792558Y-11494603D01*
X11783971Y-11474374D01*
X11783971Y-11474373D01*
X11783737Y-11473823D01*
X11770442Y-11452710D01*
X11760466Y-11441394D01*
X11754339Y-11434444D01*
X11754338Y-11434444D01*
X11753943Y-11433995D01*
X11751157Y-11431707D01*
X11735125Y-11418539D01*
X11734663Y-11418159D01*
X11733106Y-11417252D01*
X11713617Y-11405910D01*
X11713617Y-11405910D01*
X11713099Y-11405608D01*
X11712541Y-11405394D01*
X11712540Y-11405394D01*
X11690365Y-11396882D01*
X11690365Y-11396881D01*
X11689807Y-11396667D01*
X11665384Y-11391565D01*
X11664787Y-11391538D01*
X11664786Y-11391538D01*
X11641057Y-11390460D01*
X11641057Y-11390460D01*
X11640460Y-11390433D01*
X11615675Y-11393301D01*
X11615100Y-11393464D01*
X11615100Y-11393464D01*
X11592244Y-11399931D01*
X11592244Y-11399931D01*
X11591668Y-11400094D01*
X11569056Y-11410639D01*
X11568562Y-11410974D01*
X11568561Y-11410974D01*
X11552485Y-11421900D01*
X11548420Y-11424662D01*
X11530292Y-11441805D01*
X11515138Y-11461626D01*
X11503348Y-11483614D01*
X11503153Y-11484181D01*
X11495420Y-11506639D01*
X11495420Y-11506640D01*
X11495225Y-11507205D01*
X11495124Y-11507794D01*
X11495124Y-11507794D01*
X11493848Y-11515177D01*
X11490979Y-11531791D01*
X11490717Y-11556739D01*
X10483400Y-11556739D01*
X10483400Y-11378263D01*
X10905425Y-11378263D01*
X10905558Y-11378959D01*
X10907840Y-11390982D01*
X10909342Y-11398894D01*
X10909604Y-11399552D01*
X10909604Y-11399552D01*
X10909819Y-11400094D01*
X10917090Y-11418412D01*
X10917471Y-11419009D01*
X10917471Y-11419009D01*
X10923519Y-11428483D01*
X10928388Y-11436112D01*
X10928876Y-11436627D01*
X10936004Y-11444152D01*
X10942830Y-11451357D01*
X10945422Y-11453216D01*
X10957146Y-11461626D01*
X10959894Y-11463597D01*
X10978964Y-11472388D01*
X10992142Y-11475637D01*
X10998665Y-11477246D01*
X10998666Y-11477246D01*
X10999353Y-11477415D01*
X11000060Y-11477452D01*
X11000061Y-11477452D01*
X11012084Y-11478071D01*
X11020325Y-11478496D01*
X11032960Y-11476731D01*
X11040420Y-11475690D01*
X11040420Y-11475689D01*
X11041123Y-11475591D01*
X11047786Y-11473317D01*
X11060325Y-11469036D01*
X11060325Y-11469036D01*
X11060996Y-11468807D01*
X11061611Y-11468455D01*
X11061611Y-11468455D01*
X11078612Y-11458738D01*
X11078612Y-11458738D01*
X11079227Y-11458386D01*
X11095160Y-11444707D01*
X11105890Y-11431193D01*
X11107777Y-11428816D01*
X11107777Y-11428816D01*
X11108218Y-11428261D01*
X11109090Y-11426589D01*
X11116425Y-11412529D01*
X11117931Y-11409643D01*
X11123947Y-11389524D01*
X11125330Y-11375795D01*
X11126015Y-11368993D01*
X11126015Y-11368993D01*
X11126051Y-11368630D01*
X11126053Y-11368051D01*
X11125139Y-11358470D01*
X11124126Y-11347853D01*
X11124058Y-11347147D01*
X11118147Y-11326996D01*
X11108532Y-11308327D01*
X11095560Y-11291814D01*
X11095025Y-11291349D01*
X11090395Y-11287331D01*
X11221310Y-11287331D01*
X11221399Y-11287922D01*
X11221399Y-11287923D01*
X11223317Y-11300605D01*
X11225041Y-11312001D01*
X11225224Y-11312571D01*
X11225224Y-11312571D01*
X11232382Y-11334865D01*
X11232668Y-11335756D01*
X11232939Y-11336289D01*
X11232939Y-11336289D01*
X11236497Y-11343272D01*
X11243995Y-11357987D01*
X11244348Y-11358470D01*
X11258376Y-11377637D01*
X11258377Y-11377638D01*
X11258730Y-11378120D01*
X11259156Y-11378541D01*
X11259156Y-11378541D01*
X11269578Y-11388818D01*
X11276495Y-11395639D01*
X11276982Y-11395985D01*
X11276982Y-11395985D01*
X11282001Y-11399552D01*
X11296832Y-11410092D01*
X11319219Y-11421107D01*
X11343079Y-11428402D01*
X11367798Y-11431788D01*
X11368395Y-11431774D01*
X11376900Y-11431566D01*
X11392740Y-11431179D01*
X11408511Y-11428227D01*
X11416675Y-11426699D01*
X11416675Y-11426699D01*
X11417264Y-11426589D01*
X11440739Y-11418138D01*
X11442336Y-11417252D01*
X11453662Y-11410974D01*
X11462561Y-11406042D01*
X11474629Y-11396545D01*
X11481698Y-11390982D01*
X11481699Y-11390982D01*
X11482168Y-11390612D01*
X11499056Y-11372247D01*
X11512790Y-11351418D01*
X11514587Y-11347421D01*
X11522773Y-11329206D01*
X11523018Y-11328660D01*
X11529475Y-11304561D01*
X11531997Y-11279738D01*
X11532031Y-11276481D01*
X11530945Y-11262981D01*
X11530078Y-11252208D01*
X11530078Y-11252207D01*
X11530030Y-11251611D01*
X11529077Y-11247733D01*
X11524221Y-11227962D01*
X11524221Y-11227962D01*
X11524078Y-11227382D01*
X11522948Y-11224719D01*
X11514564Y-11204966D01*
X11514563Y-11204965D01*
X11514330Y-11204415D01*
X11508478Y-11195122D01*
X11627381Y-11195122D01*
X11627514Y-11195819D01*
X11629840Y-11208072D01*
X11631298Y-11215753D01*
X11639046Y-11235271D01*
X11639427Y-11235868D01*
X11639427Y-11235869D01*
X11641860Y-11239681D01*
X11650344Y-11252972D01*
X11650832Y-11253486D01*
X11660340Y-11263524D01*
X11664786Y-11268217D01*
X11671401Y-11272962D01*
X11681215Y-11280000D01*
X11681850Y-11280456D01*
X11700920Y-11289248D01*
X11714097Y-11292496D01*
X11720621Y-11294105D01*
X11720622Y-11294105D01*
X11721309Y-11294275D01*
X11722016Y-11294311D01*
X11722017Y-11294311D01*
X11734040Y-11294931D01*
X11742281Y-11295355D01*
X11754916Y-11293591D01*
X11762376Y-11292549D01*
X11762376Y-11292549D01*
X11763078Y-11292451D01*
X11769898Y-11290123D01*
X11782281Y-11285895D01*
X11782281Y-11285895D01*
X11782952Y-11285666D01*
X11783567Y-11285314D01*
X11783567Y-11285314D01*
X11800568Y-11275598D01*
X11800568Y-11275597D01*
X11801183Y-11275246D01*
X11804713Y-11272216D01*
X11813512Y-11264660D01*
X11817116Y-11261566D01*
X11826850Y-11249307D01*
X11829733Y-11245675D01*
X11829733Y-11245675D01*
X11830174Y-11245120D01*
X11839886Y-11226502D01*
X11845903Y-11206383D01*
X11847277Y-11192746D01*
X11847971Y-11185853D01*
X11847971Y-11185853D01*
X11848007Y-11185489D01*
X11848009Y-11184910D01*
X11847608Y-11180710D01*
X11846082Y-11164713D01*
X11846014Y-11164006D01*
X11840103Y-11143856D01*
X11830488Y-11125187D01*
X11817516Y-11108673D01*
X11816715Y-11107978D01*
X11802191Y-11095374D01*
X11802190Y-11095374D01*
X11801655Y-11094910D01*
X11791547Y-11089062D01*
X11784092Y-11084749D01*
X11784092Y-11084749D01*
X11783479Y-11084394D01*
X11782809Y-11084162D01*
X11764311Y-11077738D01*
X11764311Y-11077738D01*
X11763641Y-11077506D01*
X11742859Y-11074493D01*
X11735793Y-11074820D01*
X11722590Y-11075431D01*
X11722589Y-11075431D01*
X11721882Y-11075463D01*
X11701467Y-11080383D01*
X11682351Y-11089075D01*
X11681773Y-11089485D01*
X11681773Y-11089485D01*
X11667887Y-11099335D01*
X11665223Y-11101225D01*
X11664733Y-11101737D01*
X11664733Y-11101737D01*
X11651192Y-11115882D01*
X11650702Y-11116394D01*
X11639311Y-11134035D01*
X11631461Y-11153513D01*
X11629729Y-11162381D01*
X11627587Y-11173353D01*
X11627436Y-11174123D01*
X11627434Y-11174831D01*
X11627434Y-11174832D01*
X11627415Y-11182152D01*
X11627381Y-11195122D01*
X11508478Y-11195122D01*
X11501035Y-11183303D01*
X11494255Y-11175613D01*
X11484931Y-11165037D01*
X11484930Y-11165036D01*
X11484535Y-11164588D01*
X11481749Y-11162299D01*
X11465718Y-11149131D01*
X11465255Y-11148751D01*
X11452028Y-11141053D01*
X11444209Y-11136502D01*
X11444209Y-11136502D01*
X11443692Y-11136201D01*
X11443133Y-11135986D01*
X11443132Y-11135986D01*
X11420958Y-11127474D01*
X11420957Y-11127474D01*
X11420399Y-11127260D01*
X11395976Y-11122157D01*
X11395379Y-11122130D01*
X11395378Y-11122130D01*
X11371649Y-11121053D01*
X11371649Y-11121053D01*
X11371052Y-11121026D01*
X11346268Y-11123893D01*
X11345692Y-11124056D01*
X11345692Y-11124056D01*
X11322837Y-11130524D01*
X11322836Y-11130524D01*
X11322260Y-11130687D01*
X11299648Y-11141231D01*
X11299154Y-11141567D01*
X11299154Y-11141567D01*
X11282544Y-11152855D01*
X11279013Y-11155255D01*
X11278578Y-11155666D01*
X11263103Y-11170300D01*
X11260885Y-11172398D01*
X11245731Y-11192218D01*
X11245448Y-11192746D01*
X11234890Y-11212436D01*
X11233941Y-11214206D01*
X11233746Y-11214773D01*
X11226012Y-11237231D01*
X11226012Y-11237232D01*
X11225818Y-11237797D01*
X11225716Y-11238386D01*
X11225716Y-11238386D01*
X11225377Y-11240348D01*
X11221571Y-11262383D01*
X11221565Y-11262981D01*
X11221565Y-11262981D01*
X11221547Y-11264660D01*
X11221310Y-11287331D01*
X11090395Y-11287331D01*
X11080235Y-11278515D01*
X11080235Y-11278515D01*
X11079700Y-11278051D01*
X11069614Y-11272216D01*
X11062136Y-11267890D01*
X11062136Y-11267890D01*
X11061523Y-11267535D01*
X11048410Y-11262981D01*
X11042355Y-11260879D01*
X11042355Y-11260879D01*
X11041685Y-11260646D01*
X11020903Y-11257633D01*
X11013837Y-11257960D01*
X11000634Y-11258571D01*
X11000633Y-11258571D01*
X10999926Y-11258604D01*
X10979511Y-11263524D01*
X10960395Y-11272216D01*
X10959817Y-11272626D01*
X10959817Y-11272626D01*
X10949317Y-11280074D01*
X10943267Y-11284365D01*
X10942777Y-11284877D01*
X10942777Y-11284878D01*
X10930585Y-11297613D01*
X10928746Y-11299534D01*
X10917355Y-11317176D01*
X10909505Y-11336653D01*
X10905480Y-11357263D01*
X10905425Y-11378263D01*
X10483400Y-11378263D01*
X10483400Y-11017924D01*
X10951902Y-11017924D01*
X10951991Y-11018515D01*
X10951991Y-11018515D01*
X10953749Y-11030138D01*
X10955633Y-11042593D01*
X10955816Y-11043163D01*
X10955816Y-11043163D01*
X10955971Y-11043646D01*
X10963260Y-11066349D01*
X10974587Y-11088579D01*
X10974941Y-11089062D01*
X10988969Y-11108230D01*
X10988969Y-11108230D01*
X10989323Y-11108713D01*
X11007088Y-11126231D01*
X11027425Y-11140684D01*
X11049811Y-11151700D01*
X11050384Y-11151875D01*
X11050384Y-11151875D01*
X11054630Y-11153173D01*
X11073671Y-11158995D01*
X11098390Y-11162381D01*
X11098988Y-11162366D01*
X11107493Y-11162158D01*
X11123333Y-11161771D01*
X11139104Y-11158820D01*
X11147267Y-11157292D01*
X11147268Y-11157292D01*
X11147857Y-11157181D01*
X11171332Y-11148730D01*
X11193153Y-11136634D01*
X11205221Y-11127137D01*
X11212291Y-11121574D01*
X11212291Y-11121574D01*
X11212760Y-11121205D01*
X11229648Y-11102839D01*
X11243383Y-11082010D01*
X11244188Y-11080217D01*
X11253365Y-11059798D01*
X11253610Y-11059253D01*
X11260068Y-11035153D01*
X11262589Y-11010331D01*
X11262623Y-11007073D01*
X11260622Y-10982204D01*
X11255186Y-10960070D01*
X11254813Y-10958555D01*
X11254813Y-10958555D01*
X11254671Y-10957974D01*
X11251684Y-10950937D01*
X11245156Y-10935558D01*
X11245156Y-10935558D01*
X11244922Y-10935007D01*
X11231627Y-10913895D01*
X11223295Y-10904444D01*
X11215523Y-10895629D01*
X11215523Y-10895629D01*
X11215127Y-10895180D01*
X11208724Y-10889920D01*
X11196310Y-10879723D01*
X11195848Y-10879343D01*
X11194565Y-10878597D01*
X11174802Y-10867094D01*
X11174802Y-10867094D01*
X11174284Y-10866793D01*
X11173725Y-10866579D01*
X11173725Y-10866578D01*
X11151550Y-10858066D01*
X11151550Y-10858066D01*
X11150991Y-10857852D01*
X11126569Y-10852750D01*
X11125971Y-10852723D01*
X11125971Y-10852723D01*
X11102242Y-10851645D01*
X11102241Y-10851645D01*
X11101645Y-10851618D01*
X11076860Y-10854486D01*
X11076284Y-10854648D01*
X11076284Y-10854648D01*
X11053429Y-10861116D01*
X11053429Y-10861116D01*
X11052853Y-10861279D01*
X11030240Y-10871823D01*
X11029746Y-10872159D01*
X11029746Y-10872159D01*
X11010099Y-10885511D01*
X11009605Y-10885847D01*
X10991477Y-10902990D01*
X10976323Y-10922810D01*
X10964533Y-10944799D01*
X10964338Y-10945365D01*
X10956605Y-10967824D01*
X10956605Y-10967824D01*
X10956410Y-10968389D01*
X10952163Y-10992975D01*
X10951902Y-11017924D01*
X10483400Y-11017924D01*
X10483400Y-10803617D01*
X12247624Y-10803617D01*
X12247723Y-10804510D01*
X12248960Y-10815717D01*
X12249419Y-10819869D01*
X12249727Y-10820712D01*
X12249727Y-10820712D01*
X12254181Y-10832883D01*
X12255038Y-10835223D01*
X12255539Y-10835969D01*
X12263574Y-10847927D01*
X12264157Y-10848795D01*
X12264821Y-10849399D01*
X12264821Y-10849399D01*
X12268285Y-10852550D01*
X12276251Y-10859799D01*
X12282013Y-10862928D01*
X12288737Y-10866578D01*
X12290620Y-10867601D01*
X12295057Y-10868765D01*
X12301812Y-10872641D01*
X12302961Y-10873790D01*
X12306418Y-10879206D01*
X12310339Y-10889920D01*
X12310687Y-10890873D01*
X12319807Y-10904444D01*
X12331900Y-10915448D01*
X12346269Y-10923250D01*
X12347138Y-10923478D01*
X12347139Y-10923478D01*
X12350706Y-10924414D01*
X12357462Y-10928291D01*
X12652911Y-11223740D01*
X12656368Y-11229156D01*
X12658605Y-11235271D01*
X12659048Y-11236481D01*
X12659549Y-11237227D01*
X12667107Y-11248473D01*
X12668168Y-11250052D01*
X12668832Y-11250657D01*
X12668832Y-11250657D01*
X12672242Y-11253760D01*
X12680261Y-11261056D01*
X12694630Y-11268858D01*
X12695499Y-11269086D01*
X12695500Y-11269086D01*
X12696564Y-11269366D01*
X12703319Y-11273242D01*
X13068230Y-11638153D01*
X13071686Y-11643568D01*
X13074367Y-11650894D01*
X13074868Y-11651640D01*
X13082260Y-11662640D01*
X13083486Y-11664465D01*
X13084151Y-11665070D01*
X13084151Y-11665070D01*
X13086551Y-11667253D01*
X13095580Y-11675469D01*
X13109949Y-11683271D01*
X13110818Y-11683499D01*
X13111653Y-11683830D01*
X13111589Y-11683992D01*
X13117409Y-11687333D01*
X13125730Y-11695653D01*
X13129186Y-11701068D01*
X13129227Y-11701181D01*
X13131867Y-11708394D01*
X13140986Y-11721965D01*
X13141651Y-11722570D01*
X13141651Y-11722570D01*
X13147800Y-11728165D01*
X13153080Y-11732969D01*
X13167449Y-11740771D01*
X13174893Y-11742724D01*
X13182396Y-11744693D01*
X13182396Y-11744693D01*
X13183265Y-11744920D01*
X13199613Y-11745177D01*
X13202151Y-11744596D01*
X13214675Y-11741727D01*
X13214676Y-11741727D01*
X13215551Y-11741527D01*
X13217905Y-11740343D01*
X13229356Y-11734584D01*
X13229356Y-11734584D01*
X13230158Y-11734180D01*
X13235786Y-11729374D01*
X13241908Y-11724145D01*
X13241909Y-11724144D01*
X13242591Y-11723561D01*
X13244274Y-11721220D01*
X13251608Y-11711013D01*
X13251608Y-11711013D01*
X13252133Y-11710283D01*
X13254718Y-11703852D01*
X13257896Y-11695946D01*
X13257896Y-11695945D01*
X13258231Y-11695113D01*
X13259348Y-11687265D01*
X13260466Y-11679407D01*
X13260466Y-11679407D01*
X13260535Y-11678925D01*
X13260550Y-11677500D01*
X13260231Y-11674865D01*
X13258694Y-11662160D01*
X13258694Y-11662159D01*
X13258586Y-11661268D01*
X13252806Y-11645973D01*
X13252297Y-11645232D01*
X13244054Y-11633238D01*
X13244054Y-11633238D01*
X13243545Y-11632498D01*
X13231337Y-11621621D01*
X13216887Y-11613970D01*
X13216016Y-11613751D01*
X13215177Y-11613429D01*
X13215320Y-11613056D01*
X13209977Y-11610054D01*
X13201771Y-11601848D01*
X13198369Y-11596579D01*
X13195306Y-11588473D01*
X13194797Y-11587732D01*
X13186554Y-11575738D01*
X13186554Y-11575738D01*
X13186045Y-11574998D01*
X13185196Y-11574241D01*
X13179622Y-11569275D01*
X13173837Y-11564121D01*
X13159387Y-11556470D01*
X13158516Y-11556251D01*
X13157677Y-11555929D01*
X13157820Y-11555556D01*
X13152477Y-11552554D01*
X12785903Y-11185979D01*
X12782500Y-11180710D01*
X12781538Y-11178162D01*
X12779988Y-11174060D01*
X12779479Y-11173319D01*
X12771235Y-11161325D01*
X12771235Y-11161325D01*
X12770726Y-11160585D01*
X12769033Y-11159076D01*
X12762789Y-11153513D01*
X12758518Y-11149708D01*
X12744068Y-11142057D01*
X12743197Y-11141838D01*
X12742358Y-11141516D01*
X12742501Y-11141143D01*
X12737159Y-11138141D01*
X12436420Y-10837402D01*
X12433018Y-10832133D01*
X12431944Y-10829292D01*
X12431944Y-10829292D01*
X12431627Y-10828452D01*
X12427832Y-10822930D01*
X12422874Y-10815717D01*
X12422874Y-10815717D01*
X12422365Y-10814977D01*
X12421232Y-10813967D01*
X12416998Y-10810195D01*
X12410157Y-10804100D01*
X12401967Y-10799763D01*
X12397176Y-10797226D01*
X12393612Y-10794594D01*
X12380770Y-10781753D01*
X12377368Y-10776483D01*
X12376294Y-10773642D01*
X12375977Y-10772802D01*
X12366716Y-10759327D01*
X12365456Y-10758205D01*
X12360240Y-10753557D01*
X12354508Y-10748450D01*
X12340058Y-10740799D01*
X12339186Y-10740580D01*
X12339186Y-10740580D01*
X12331399Y-10738624D01*
X12324200Y-10736816D01*
X12310727Y-10736745D01*
X12308747Y-10736735D01*
X12307849Y-10736730D01*
X12306976Y-10736940D01*
X12306976Y-10736940D01*
X12292824Y-10740338D01*
X12292823Y-10740338D01*
X12291950Y-10740547D01*
X12291152Y-10740959D01*
X12291152Y-10740959D01*
X12278219Y-10747634D01*
X12278219Y-10747635D01*
X12277421Y-10748047D01*
X12265100Y-10758795D01*
X12255698Y-10772172D01*
X12249759Y-10787406D01*
X12249641Y-10788297D01*
X12249641Y-10788297D01*
X12248812Y-10794594D01*
X12247624Y-10803617D01*
X10483400Y-10803617D01*
X10483400Y-10549287D01*
X12661953Y-10549287D01*
X12662052Y-10550181D01*
X12663151Y-10560137D01*
X12663748Y-10565539D01*
X12664056Y-10566383D01*
X12664056Y-10566383D01*
X12665485Y-10570286D01*
X12669367Y-10580894D01*
X12669868Y-10581640D01*
X12676301Y-10591214D01*
X12678486Y-10594465D01*
X12690580Y-10605469D01*
X12704949Y-10613271D01*
X12712403Y-10615227D01*
X12719896Y-10617193D01*
X12719896Y-10617193D01*
X12720764Y-10617420D01*
X12727882Y-10617532D01*
X12735300Y-10619645D01*
X12738184Y-10621895D01*
X12929635Y-10813346D01*
X12930801Y-10814657D01*
X12932772Y-10817158D01*
X12933688Y-10817791D01*
X12933688Y-10817791D01*
X12937569Y-10820473D01*
X12937949Y-10820745D01*
X12941742Y-10823547D01*
X12941742Y-10823547D01*
X12942638Y-10824208D01*
X12943319Y-10824448D01*
X12943914Y-10824858D01*
X12949257Y-10826548D01*
X12949474Y-10826617D01*
X12949918Y-10826765D01*
X12954366Y-10828327D01*
X12954367Y-10828327D01*
X12955417Y-10828696D01*
X12956139Y-10828724D01*
X12956827Y-10828942D01*
X12957600Y-10829003D01*
X12962937Y-10829003D01*
X12963522Y-10829015D01*
X12967838Y-10829184D01*
X12967838Y-10829184D01*
X12968951Y-10829228D01*
X12969668Y-10829038D01*
X12970298Y-10829003D01*
X13086070Y-10829003D01*
X13093520Y-10830999D01*
X13096098Y-10832883D01*
X13103864Y-10839949D01*
X13103864Y-10839950D01*
X13104529Y-10840554D01*
X13118898Y-10848356D01*
X13126158Y-10850260D01*
X13133844Y-10852277D01*
X13133844Y-10852277D01*
X13134713Y-10852505D01*
X13135612Y-10852519D01*
X13136131Y-10852590D01*
X13143241Y-10855579D01*
X13147904Y-10861722D01*
X13148919Y-10865717D01*
X13149233Y-10868561D01*
X13149539Y-10871334D01*
X13149848Y-10872178D01*
X13149848Y-10872178D01*
X13154727Y-10885511D01*
X13155158Y-10886689D01*
X13155659Y-10887435D01*
X13157367Y-10889977D01*
X13164277Y-10900260D01*
X13165230Y-10901127D01*
X13168369Y-10903983D01*
X13172536Y-10910474D01*
X13173241Y-10915004D01*
X13173241Y-11018948D01*
X13173261Y-11019074D01*
X13173271Y-11019329D01*
X13173271Y-11022525D01*
X13173956Y-11024633D01*
X13174501Y-11026906D01*
X13174848Y-11029094D01*
X13175854Y-11031069D01*
X13176748Y-11033228D01*
X13177433Y-11035335D01*
X13178122Y-11036284D01*
X13178122Y-11036284D01*
X13178735Y-11037127D01*
X13179957Y-11039121D01*
X13180963Y-11041095D01*
X13183223Y-11043356D01*
X13183396Y-11043543D01*
X13183471Y-11043646D01*
X13183740Y-11043915D01*
X13407706Y-11267881D01*
X13411562Y-11274560D01*
X13412059Y-11278490D01*
X13411954Y-11279288D01*
X13412052Y-11280181D01*
X13412052Y-11280181D01*
X13413649Y-11294647D01*
X13413748Y-11295540D01*
X13414057Y-11296383D01*
X13414057Y-11296383D01*
X13418038Y-11307263D01*
X13419367Y-11310894D01*
X13428486Y-11324466D01*
X13429151Y-11325070D01*
X13429151Y-11325070D01*
X13431268Y-11326996D01*
X13440580Y-11335470D01*
X13454949Y-11343272D01*
X13463650Y-11345554D01*
X13469896Y-11347193D01*
X13469896Y-11347193D01*
X13470765Y-11347421D01*
X13487113Y-11347678D01*
X13492406Y-11346465D01*
X13502175Y-11344228D01*
X13502176Y-11344228D01*
X13503051Y-11344027D01*
X13505405Y-11342843D01*
X13516856Y-11337084D01*
X13516856Y-11337084D01*
X13517658Y-11336681D01*
X13523286Y-11331874D01*
X13529408Y-11326645D01*
X13529409Y-11326645D01*
X13530091Y-11326062D01*
X13531774Y-11323720D01*
X13539108Y-11313513D01*
X13539108Y-11313513D01*
X13539633Y-11312784D01*
X13541648Y-11307770D01*
X13545396Y-11298446D01*
X13545396Y-11298446D01*
X13545731Y-11297613D01*
X13546916Y-11289292D01*
X13547705Y-11283742D01*
X15387387Y-11283742D01*
X15387403Y-11284044D01*
X15387403Y-11284045D01*
X15387575Y-11287331D01*
X15387599Y-11287797D01*
X15387812Y-11290123D01*
X15391228Y-11300605D01*
X15394631Y-11306836D01*
X15399748Y-11313672D01*
X15496961Y-11410885D01*
X15497232Y-11411109D01*
X15497232Y-11411109D01*
X15501052Y-11414268D01*
X15501053Y-11414269D01*
X15501323Y-11414492D01*
X15501614Y-11414689D01*
X15501614Y-11414690D01*
X15503656Y-11416076D01*
X15505240Y-11417151D01*
X15505406Y-11417252D01*
X15505407Y-11417252D01*
X15506391Y-11417848D01*
X15507934Y-11418780D01*
X15508778Y-11419048D01*
X15508778Y-11419048D01*
X15515837Y-11421283D01*
X15518445Y-11422108D01*
X15519128Y-11422192D01*
X15519128Y-11422192D01*
X15521136Y-11422438D01*
X15525492Y-11422971D01*
X15530107Y-11422874D01*
X15533496Y-11422803D01*
X15533497Y-11422803D01*
X15534029Y-11422792D01*
X15711503Y-11393464D01*
X15743321Y-11388206D01*
X15743321Y-11388206D01*
X15743893Y-11388111D01*
X15752711Y-11385197D01*
X15759566Y-11381675D01*
X15767070Y-11376204D01*
X15972808Y-11170467D01*
X16178240Y-10965034D01*
X16178522Y-10964752D01*
X16182546Y-10959759D01*
X16185442Y-10955252D01*
X16187334Y-10951838D01*
X16190128Y-10941173D01*
X16190635Y-10934092D01*
X16190457Y-10928056D01*
X16187041Y-10917573D01*
X16183639Y-10911342D01*
X16178522Y-10904507D01*
X16136943Y-10862928D01*
X16133086Y-10856248D01*
X16132579Y-10852392D01*
X16132579Y-10833020D01*
X16134575Y-10825570D01*
X16136943Y-10822484D01*
X16256022Y-10703405D01*
X16256304Y-10703123D01*
X16260328Y-10698129D01*
X16263224Y-10693623D01*
X16265116Y-10690209D01*
X16267910Y-10679544D01*
X16268417Y-10672462D01*
X16268382Y-10671284D01*
X16268270Y-10667492D01*
X16268239Y-10666426D01*
X16264823Y-10655944D01*
X16261421Y-10649713D01*
X16256304Y-10642877D01*
X16204640Y-10591214D01*
X17141917Y-10591214D01*
X17142233Y-10592558D01*
X17142233Y-10592558D01*
X17143547Y-10598144D01*
X17144487Y-10602142D01*
X17145268Y-10603282D01*
X17145268Y-10603282D01*
X17150321Y-10610658D01*
X17150832Y-10611405D01*
X17258595Y-10719168D01*
X17258720Y-10719282D01*
X17258722Y-10719283D01*
X17259646Y-10720125D01*
X17260681Y-10721069D01*
X17261434Y-10721488D01*
X17261434Y-10721489D01*
X17262307Y-10721975D01*
X17270489Y-10726532D01*
X17271856Y-10726723D01*
X17271857Y-10726723D01*
X17275181Y-10727187D01*
X17281608Y-10728083D01*
X17282952Y-10727767D01*
X17282953Y-10727767D01*
X17288991Y-10726347D01*
X17292537Y-10725513D01*
X17293677Y-10724732D01*
X17301232Y-10719557D01*
X17301232Y-10719557D01*
X17301800Y-10719168D01*
X17409563Y-10611405D01*
X17409677Y-10611280D01*
X17409678Y-10611278D01*
X17410883Y-10609957D01*
X17410883Y-10609957D01*
X17411464Y-10609319D01*
X17413945Y-10604865D01*
X17416255Y-10600717D01*
X17416927Y-10599511D01*
X17418478Y-10588392D01*
X17415908Y-10577463D01*
X17409563Y-10568201D01*
X17301800Y-10460437D01*
X17301675Y-10460323D01*
X17301673Y-10460322D01*
X17300351Y-10459117D01*
X17300351Y-10459117D01*
X17299714Y-10458536D01*
X17289906Y-10453073D01*
X17288538Y-10452882D01*
X17288538Y-10452882D01*
X17285214Y-10452419D01*
X17278787Y-10451522D01*
X17277443Y-10451838D01*
X17277442Y-10451838D01*
X17273003Y-10452882D01*
X17267858Y-10454093D01*
X17266718Y-10454873D01*
X17266718Y-10454873D01*
X17259163Y-10460048D01*
X17259163Y-10460049D01*
X17258595Y-10460437D01*
X17150832Y-10568201D01*
X17150718Y-10568326D01*
X17150717Y-10568327D01*
X17149512Y-10569649D01*
X17148931Y-10570286D01*
X17143468Y-10580094D01*
X17141917Y-10591214D01*
X16204640Y-10591214D01*
X16160986Y-10547559D01*
X16155992Y-10543535D01*
X16151486Y-10540639D01*
X16148071Y-10538747D01*
X16137406Y-10535953D01*
X16134447Y-10535741D01*
X16130700Y-10535473D01*
X16130699Y-10535473D01*
X16130325Y-10535446D01*
X16129951Y-10535457D01*
X16129950Y-10535457D01*
X16128094Y-10535512D01*
X16124289Y-10535624D01*
X16113807Y-10539040D01*
X16113203Y-10539369D01*
X16113203Y-10539370D01*
X16112137Y-10539952D01*
X16107576Y-10542442D01*
X16100740Y-10547559D01*
X15981379Y-10666920D01*
X15974700Y-10670777D01*
X15970843Y-10671284D01*
X15951471Y-10671284D01*
X15944021Y-10669288D01*
X15940935Y-10666920D01*
X15896280Y-10622265D01*
X15891286Y-10618241D01*
X15886780Y-10615345D01*
X15883366Y-10613452D01*
X15872701Y-10610658D01*
X15869742Y-10610447D01*
X15865994Y-10610179D01*
X15865994Y-10610179D01*
X15865619Y-10610152D01*
X15865245Y-10610163D01*
X15865244Y-10610163D01*
X15863389Y-10610218D01*
X15859583Y-10610330D01*
X15849101Y-10613745D01*
X15848497Y-10614075D01*
X15848497Y-10614075D01*
X15846388Y-10615227D01*
X15842870Y-10617148D01*
X15836034Y-10622265D01*
X15423811Y-11034488D01*
X15422731Y-11035626D01*
X15421849Y-11036606D01*
X15421511Y-11037139D01*
X15417395Y-11043646D01*
X15416453Y-11045135D01*
X15413720Y-11051688D01*
X15411589Y-11059957D01*
X15411531Y-11060485D01*
X15411531Y-11060485D01*
X15387561Y-11278573D01*
X15387525Y-11278895D01*
X15387517Y-11279195D01*
X15387517Y-11279196D01*
X15387501Y-11279738D01*
X15387387Y-11283742D01*
X13547705Y-11283742D01*
X13547966Y-11281908D01*
X13547966Y-11281907D01*
X13548035Y-11281425D01*
X13548050Y-11280000D01*
X13547877Y-11278573D01*
X13546194Y-11264660D01*
X13546194Y-11264660D01*
X13546086Y-11263768D01*
X13545562Y-11262383D01*
X13544007Y-11258266D01*
X13540306Y-11248473D01*
X13537570Y-11244491D01*
X13531554Y-11235738D01*
X13531554Y-11235738D01*
X13531045Y-11234998D01*
X13527932Y-11232224D01*
X13522496Y-11227382D01*
X13518837Y-11224121D01*
X13504387Y-11216470D01*
X13503516Y-11216251D01*
X13503515Y-11216251D01*
X13493272Y-11213678D01*
X13488529Y-11212487D01*
X13478704Y-11212436D01*
X13471265Y-11210400D01*
X13468246Y-11208072D01*
X13262705Y-11002530D01*
X13258849Y-10995851D01*
X13258341Y-10991994D01*
X13258341Y-10915166D01*
X13260337Y-10907716D01*
X13263564Y-10903836D01*
X13265882Y-10901856D01*
X13267565Y-10899515D01*
X13274899Y-10889308D01*
X13274899Y-10889308D01*
X13275424Y-10888578D01*
X13276183Y-10886689D01*
X13281187Y-10874241D01*
X13281187Y-10874240D01*
X13281522Y-10873408D01*
X13283014Y-10862928D01*
X13283757Y-10857702D01*
X13283757Y-10857702D01*
X13283826Y-10857220D01*
X13283841Y-10855795D01*
X13283702Y-10854648D01*
X13281985Y-10840455D01*
X13281984Y-10840454D01*
X13281877Y-10839563D01*
X13276097Y-10824268D01*
X13274871Y-10822484D01*
X13267345Y-10811533D01*
X13267345Y-10811533D01*
X13266836Y-10810793D01*
X13254628Y-10799916D01*
X13240178Y-10792265D01*
X13239306Y-10792046D01*
X13239306Y-10792046D01*
X13225191Y-10788500D01*
X13225191Y-10788500D01*
X13224320Y-10788282D01*
X13223646Y-10788278D01*
X13216601Y-10785403D01*
X13211874Y-10779309D01*
X13210818Y-10775325D01*
X13210691Y-10774282D01*
X13210034Y-10768852D01*
X13204255Y-10753557D01*
X13201245Y-10749177D01*
X13195503Y-10740822D01*
X13195502Y-10740822D01*
X13194994Y-10740082D01*
X13193671Y-10738903D01*
X13188114Y-10733953D01*
X13182786Y-10729205D01*
X13168336Y-10721554D01*
X13167464Y-10721335D01*
X13167464Y-10721335D01*
X13159294Y-10719283D01*
X13152478Y-10717571D01*
X13139005Y-10717500D01*
X13137025Y-10717490D01*
X13136127Y-10717485D01*
X13135254Y-10717695D01*
X13135254Y-10717695D01*
X13121102Y-10721093D01*
X13121101Y-10721093D01*
X13120228Y-10721302D01*
X13119430Y-10721714D01*
X13119430Y-10721714D01*
X13106497Y-10728389D01*
X13106497Y-10728390D01*
X13105699Y-10728802D01*
X13105022Y-10729392D01*
X13105022Y-10729392D01*
X13100124Y-10733665D01*
X13098911Y-10734723D01*
X13098329Y-10735231D01*
X13091402Y-10738624D01*
X13088534Y-10738903D01*
X12988785Y-10738903D01*
X12981335Y-10736907D01*
X12978249Y-10734539D01*
X12803849Y-10560139D01*
X12803848Y-10560138D01*
X12803847Y-10560137D01*
X12802285Y-10558575D01*
X12798429Y-10551896D01*
X12798029Y-10549829D01*
X12796085Y-10533768D01*
X12795508Y-10532240D01*
X12790624Y-10519313D01*
X12790306Y-10518473D01*
X12781045Y-10504998D01*
X12779785Y-10503875D01*
X12776498Y-10500947D01*
X12768837Y-10494121D01*
X12754387Y-10486470D01*
X12753515Y-10486251D01*
X12753515Y-10486251D01*
X12746555Y-10484503D01*
X12738529Y-10482487D01*
X12725056Y-10482416D01*
X12723076Y-10482406D01*
X12722178Y-10482401D01*
X12721305Y-10482611D01*
X12721305Y-10482611D01*
X12707153Y-10486008D01*
X12707152Y-10486008D01*
X12706279Y-10486218D01*
X12705482Y-10486630D01*
X12705481Y-10486630D01*
X12692548Y-10493305D01*
X12692548Y-10493305D01*
X12691750Y-10493717D01*
X12679429Y-10504466D01*
X12670027Y-10517843D01*
X12664088Y-10533077D01*
X12663970Y-10533967D01*
X12663970Y-10533968D01*
X12663234Y-10539563D01*
X12661953Y-10549287D01*
X10483400Y-10549287D01*
X10483400Y-9016773D01*
X10999801Y-9016773D01*
X10999835Y-9017141D01*
X10999835Y-9017142D01*
X11003412Y-9056069D01*
X11003446Y-9056438D01*
X11011012Y-9095545D01*
X11022425Y-9133706D01*
X11025382Y-9140898D01*
X11037275Y-9169826D01*
X11037572Y-9170546D01*
X11056302Y-9205699D01*
X11078432Y-9238818D01*
X11103741Y-9269575D01*
X11104003Y-9269836D01*
X11104004Y-9269837D01*
X11125066Y-9290789D01*
X11131980Y-9297667D01*
X11162869Y-9322815D01*
X11163178Y-9323019D01*
X11163178Y-9323019D01*
X11180416Y-9334407D01*
X11196103Y-9344770D01*
X11196430Y-9344942D01*
X11196431Y-9344943D01*
X11222383Y-9358596D01*
X11231354Y-9363317D01*
X11268272Y-9378270D01*
X11306493Y-9389483D01*
X11306858Y-9389551D01*
X11345274Y-9396775D01*
X11345275Y-9396775D01*
X11345639Y-9396844D01*
X11359595Y-9398053D01*
X11384952Y-9400249D01*
X11384953Y-9400249D01*
X11385322Y-9400281D01*
X11403253Y-9400046D01*
X11424780Y-9399765D01*
X11424781Y-9399764D01*
X11425151Y-9399760D01*
X11464730Y-9395285D01*
X11491681Y-9389483D01*
X11503307Y-9386980D01*
X11503307Y-9386980D01*
X11503670Y-9386902D01*
X11541584Y-9374692D01*
X11578099Y-9358777D01*
X11612852Y-9339315D01*
X11645500Y-9316497D01*
X11675720Y-9290549D01*
X11703214Y-9261728D01*
X11727710Y-9230318D01*
X11748965Y-9196632D01*
X11749356Y-9195849D01*
X11760924Y-9172696D01*
X11766769Y-9161000D01*
X11777033Y-9134050D01*
X11780814Y-9124124D01*
X11780814Y-9124123D01*
X11780946Y-9123777D01*
X11791356Y-9085329D01*
X11791529Y-9084287D01*
X13116954Y-9084287D01*
X13117052Y-9085181D01*
X13118197Y-9095545D01*
X13118748Y-9100539D01*
X13119057Y-9101383D01*
X13119057Y-9101383D01*
X13120291Y-9104757D01*
X13124367Y-9115894D01*
X13133486Y-9129465D01*
X13145580Y-9140469D01*
X13159949Y-9148271D01*
X13160818Y-9148499D01*
X13161653Y-9148830D01*
X13161589Y-9148993D01*
X13167409Y-9152333D01*
X13173230Y-9158153D01*
X13176687Y-9163569D01*
X13177313Y-9165282D01*
X13179367Y-9170895D01*
X13179868Y-9171640D01*
X13187918Y-9183619D01*
X13188487Y-9184466D01*
X13189151Y-9185070D01*
X13189151Y-9185070D01*
X13192523Y-9188138D01*
X13200580Y-9195470D01*
X13214949Y-9203272D01*
X13215818Y-9203500D01*
X13216653Y-9203830D01*
X13216589Y-9203993D01*
X13222410Y-9207333D01*
X13783230Y-9768153D01*
X13786686Y-9773569D01*
X13789367Y-9780894D01*
X13798486Y-9794465D01*
X13810580Y-9805469D01*
X13824425Y-9812987D01*
X13824949Y-9813271D01*
X13824831Y-9813488D01*
X13828427Y-9815850D01*
X13839673Y-9827096D01*
X13843129Y-9832511D01*
X13844367Y-9835894D01*
X13853486Y-9849465D01*
X13865580Y-9860469D01*
X13879949Y-9868271D01*
X13879831Y-9868489D01*
X13883427Y-9870850D01*
X14115343Y-10102767D01*
X14118800Y-10108182D01*
X14124367Y-10123394D01*
X14133486Y-10136965D01*
X14145580Y-10147969D01*
X14159949Y-10155771D01*
X14160817Y-10155999D01*
X14160817Y-10155999D01*
X14164777Y-10157038D01*
X14167433Y-10157735D01*
X14174187Y-10161611D01*
X14179480Y-10166903D01*
X14182936Y-10172318D01*
X14185617Y-10179644D01*
X14194736Y-10193215D01*
X14206830Y-10204219D01*
X14221199Y-10212021D01*
X14222067Y-10212249D01*
X14222903Y-10212580D01*
X14222839Y-10212742D01*
X14228659Y-10216083D01*
X14853230Y-10840653D01*
X14856686Y-10846069D01*
X14859367Y-10853394D01*
X14859868Y-10854140D01*
X14864963Y-10861722D01*
X14868486Y-10866965D01*
X14869151Y-10867570D01*
X14869151Y-10867570D01*
X14872307Y-10870441D01*
X14880580Y-10877969D01*
X14894949Y-10885771D01*
X14902471Y-10887745D01*
X14909896Y-10889693D01*
X14909896Y-10889693D01*
X14910765Y-10889920D01*
X14927113Y-10890177D01*
X14930909Y-10889308D01*
X14942175Y-10886728D01*
X14942176Y-10886727D01*
X14943051Y-10886527D01*
X14944403Y-10885847D01*
X14950355Y-10882854D01*
X14957658Y-10879180D01*
X14965315Y-10872641D01*
X14969408Y-10869145D01*
X14969409Y-10869145D01*
X14970091Y-10868561D01*
X14979633Y-10855283D01*
X14983534Y-10845579D01*
X14986822Y-10840601D01*
X14993759Y-10833665D01*
X14998982Y-10830350D01*
X14999301Y-10830277D01*
X15001655Y-10829093D01*
X15010075Y-10824858D01*
X15013908Y-10822930D01*
X15021692Y-10816283D01*
X15025658Y-10812895D01*
X15025659Y-10812895D01*
X15026341Y-10812311D01*
X15027862Y-10810195D01*
X15035358Y-10799763D01*
X15035358Y-10799763D01*
X15035883Y-10799033D01*
X15036609Y-10797226D01*
X15041646Y-10784696D01*
X15041646Y-10784696D01*
X15041981Y-10783863D01*
X15043526Y-10773009D01*
X15044216Y-10768157D01*
X15044216Y-10768157D01*
X15044285Y-10767675D01*
X15044300Y-10766250D01*
X15043487Y-10759530D01*
X15042444Y-10750910D01*
X15042444Y-10750910D01*
X15042336Y-10750018D01*
X15036556Y-10734723D01*
X15032475Y-10728785D01*
X15027804Y-10721988D01*
X15027804Y-10721988D01*
X15027295Y-10721248D01*
X15026442Y-10720488D01*
X15022748Y-10717197D01*
X15015087Y-10710371D01*
X15000637Y-10702720D01*
X14999766Y-10702501D01*
X14999765Y-10702501D01*
X14992805Y-10700753D01*
X14984779Y-10698737D01*
X14971306Y-10698666D01*
X14969326Y-10698656D01*
X14968428Y-10698651D01*
X14967555Y-10698861D01*
X14967555Y-10698861D01*
X14953403Y-10702258D01*
X14953403Y-10702258D01*
X14952530Y-10702468D01*
X14951732Y-10702880D01*
X14951732Y-10702880D01*
X14938798Y-10709555D01*
X14938798Y-10709555D01*
X14938000Y-10709967D01*
X14925679Y-10720716D01*
X14925413Y-10721094D01*
X14919114Y-10725185D01*
X14911411Y-10725589D01*
X14903974Y-10721550D01*
X14594032Y-10411608D01*
X17321522Y-10411608D01*
X17324093Y-10422537D01*
X17330437Y-10431800D01*
X17438201Y-10539563D01*
X17438326Y-10539677D01*
X17438327Y-10539678D01*
X17439381Y-10540639D01*
X17440286Y-10541464D01*
X17441039Y-10541883D01*
X17441039Y-10541883D01*
X17444455Y-10543786D01*
X17450094Y-10546927D01*
X17451462Y-10547118D01*
X17451462Y-10547118D01*
X17454628Y-10547559D01*
X17461214Y-10548478D01*
X17462558Y-10548162D01*
X17462558Y-10548162D01*
X17468596Y-10546742D01*
X17472142Y-10545908D01*
X17475921Y-10543319D01*
X17480837Y-10539952D01*
X17480837Y-10539951D01*
X17481405Y-10539563D01*
X17589168Y-10431800D01*
X17589282Y-10431675D01*
X17589283Y-10431673D01*
X17590488Y-10430351D01*
X17590488Y-10430351D01*
X17591069Y-10429714D01*
X17596532Y-10419906D01*
X17598083Y-10408787D01*
X17595513Y-10397858D01*
X17589168Y-10388595D01*
X17481405Y-10280832D01*
X17481280Y-10280718D01*
X17481278Y-10280717D01*
X17479957Y-10279512D01*
X17479957Y-10279512D01*
X17479319Y-10278931D01*
X17469511Y-10273468D01*
X17468144Y-10273277D01*
X17468144Y-10273277D01*
X17464819Y-10272814D01*
X17458392Y-10271917D01*
X17457048Y-10272233D01*
X17457048Y-10272233D01*
X17452608Y-10273277D01*
X17447463Y-10274487D01*
X17446324Y-10275268D01*
X17446323Y-10275268D01*
X17438768Y-10280443D01*
X17438768Y-10280443D01*
X17438201Y-10280832D01*
X17330437Y-10388595D01*
X17330323Y-10388720D01*
X17330322Y-10388722D01*
X17329117Y-10390043D01*
X17328536Y-10390681D01*
X17323073Y-10400489D01*
X17321522Y-10411608D01*
X14594032Y-10411608D01*
X14313021Y-10130598D01*
X14309619Y-10125329D01*
X14306874Y-10118063D01*
X14306556Y-10117223D01*
X14297295Y-10103748D01*
X14285087Y-10092871D01*
X14270637Y-10085220D01*
X14269766Y-10085001D01*
X14268927Y-10084679D01*
X14269077Y-10084289D01*
X14263727Y-10081304D01*
X14258668Y-10076244D01*
X14255362Y-10072939D01*
X14251506Y-10066259D01*
X14251506Y-10058546D01*
X14255362Y-10051867D01*
X14262042Y-10048011D01*
X14266132Y-10047505D01*
X14277113Y-10047677D01*
X14279651Y-10047096D01*
X14292175Y-10044228D01*
X14292176Y-10044227D01*
X14293051Y-10044027D01*
X14307658Y-10036680D01*
X14313286Y-10031874D01*
X14319408Y-10026645D01*
X14319409Y-10026645D01*
X14320091Y-10026061D01*
X14329633Y-10012783D01*
X14335731Y-9997613D01*
X14336357Y-9993217D01*
X14339383Y-9986122D01*
X14340572Y-9984780D01*
X14580554Y-9744799D01*
X14587763Y-9740811D01*
X14588164Y-9740719D01*
X14595551Y-9739027D01*
X14610158Y-9731681D01*
X14620033Y-9723247D01*
X14621908Y-9721645D01*
X14621909Y-9721645D01*
X14622591Y-9721062D01*
X14626903Y-9715061D01*
X14631608Y-9708513D01*
X14631608Y-9708513D01*
X14632133Y-9707784D01*
X14632468Y-9706950D01*
X14637896Y-9693446D01*
X14637896Y-9693446D01*
X14638231Y-9692613D01*
X14640535Y-9676425D01*
X14640550Y-9675000D01*
X14640491Y-9674516D01*
X14638694Y-9659660D01*
X14638694Y-9659660D01*
X14638586Y-9658768D01*
X14638008Y-9657240D01*
X14637121Y-9654892D01*
X14632806Y-9643473D01*
X14626843Y-9634797D01*
X14624054Y-9630738D01*
X14624054Y-9630738D01*
X14623545Y-9629998D01*
X14622285Y-9628875D01*
X14618998Y-9625947D01*
X14611337Y-9619121D01*
X14596887Y-9611470D01*
X14596016Y-9611251D01*
X14596015Y-9611251D01*
X14589055Y-9609503D01*
X14581029Y-9607487D01*
X14567556Y-9607416D01*
X14565576Y-9607406D01*
X14564678Y-9607401D01*
X14563805Y-9607611D01*
X14563805Y-9607611D01*
X14549653Y-9611009D01*
X14549653Y-9611009D01*
X14548780Y-9611218D01*
X14547982Y-9611630D01*
X14547982Y-9611630D01*
X14535048Y-9618305D01*
X14535048Y-9618306D01*
X14534250Y-9618717D01*
X14521929Y-9629466D01*
X14512527Y-9642843D01*
X14506588Y-9658077D01*
X14506471Y-9658968D01*
X14506247Y-9659838D01*
X14506081Y-9659795D01*
X14503541Y-9665927D01*
X14502256Y-9667392D01*
X14457068Y-9712580D01*
X14450388Y-9716437D01*
X14442675Y-9716437D01*
X14435996Y-9712580D01*
X14432139Y-9705901D01*
X14431654Y-9702863D01*
X14431639Y-9702580D01*
X14431644Y-9702092D01*
X14430597Y-9693446D01*
X14429787Y-9686752D01*
X14429787Y-9686751D01*
X14429679Y-9685860D01*
X14423900Y-9670564D01*
X14419261Y-9663815D01*
X14415148Y-9657830D01*
X14415147Y-9657830D01*
X14414639Y-9657089D01*
X14402431Y-9646213D01*
X14387981Y-9638562D01*
X14387109Y-9638343D01*
X14387109Y-9638343D01*
X14380149Y-9636594D01*
X14372123Y-9634578D01*
X14370356Y-9634569D01*
X14356542Y-9634497D01*
X14349102Y-9632462D01*
X14343677Y-9626979D01*
X14341720Y-9619597D01*
X14341720Y-8970433D01*
X14341823Y-8968682D01*
X14342197Y-8965521D01*
X14341997Y-8964426D01*
X14341997Y-8964425D01*
X14341150Y-8959787D01*
X14341073Y-8959326D01*
X14340372Y-8954660D01*
X14340206Y-8953558D01*
X14339894Y-8952907D01*
X14339764Y-8952197D01*
X14339251Y-8951209D01*
X14339250Y-8951208D01*
X14337076Y-8947023D01*
X14336867Y-8946604D01*
X14334825Y-8942353D01*
X14334825Y-8942352D01*
X14334343Y-8941349D01*
X14333853Y-8940819D01*
X14333521Y-8940178D01*
X14333017Y-8939589D01*
X14329245Y-8935817D01*
X14328839Y-8935395D01*
X14325906Y-8932221D01*
X14325150Y-8931403D01*
X14324508Y-8931031D01*
X14324037Y-8930609D01*
X14102025Y-8708597D01*
X13865947Y-8472519D01*
X13862090Y-8465839D01*
X13862090Y-8458126D01*
X13862658Y-8456425D01*
X13863304Y-8454817D01*
X13863640Y-8453983D01*
X13865663Y-8439764D01*
X13865875Y-8438278D01*
X13865875Y-8438277D01*
X13865943Y-8437796D01*
X13865958Y-8436371D01*
X13865007Y-8428510D01*
X13864102Y-8421030D01*
X13864102Y-8421030D01*
X13863994Y-8420138D01*
X13863417Y-8418610D01*
X13858532Y-8405684D01*
X13858214Y-8404843D01*
X13848953Y-8391368D01*
X13847694Y-8390246D01*
X13844406Y-8387317D01*
X13836745Y-8380491D01*
X13822295Y-8372840D01*
X13821424Y-8372621D01*
X13821424Y-8372621D01*
X13814463Y-8370873D01*
X13806437Y-8368857D01*
X13792965Y-8368787D01*
X13790985Y-8368776D01*
X13790087Y-8368771D01*
X13789214Y-8368981D01*
X13789214Y-8368981D01*
X13775061Y-8372379D01*
X13775061Y-8372379D01*
X13774188Y-8372588D01*
X13773390Y-8373000D01*
X13773390Y-8373000D01*
X13760457Y-8379676D01*
X13760456Y-8379676D01*
X13759658Y-8380088D01*
X13747337Y-8390836D01*
X13737936Y-8404213D01*
X13731996Y-8419447D01*
X13731879Y-8420338D01*
X13731879Y-8420338D01*
X13731386Y-8424080D01*
X13728435Y-8431206D01*
X13722315Y-8435901D01*
X13720092Y-8436624D01*
X13707886Y-8439554D01*
X13707886Y-8439554D01*
X13707013Y-8439764D01*
X13706215Y-8440176D01*
X13706215Y-8440176D01*
X13693282Y-8446851D01*
X13693281Y-8446851D01*
X13692483Y-8447263D01*
X13680162Y-8458011D01*
X13670760Y-8471389D01*
X13664821Y-8486622D01*
X13662687Y-8502833D01*
X13664481Y-8519085D01*
X13664790Y-8519929D01*
X13664790Y-8519929D01*
X13669428Y-8532602D01*
X13670100Y-8534440D01*
X13670601Y-8535186D01*
X13678037Y-8546252D01*
X13679220Y-8548011D01*
X13691313Y-8559015D01*
X13705682Y-8566817D01*
X13714383Y-8569100D01*
X13720629Y-8570738D01*
X13720630Y-8570738D01*
X13721498Y-8570966D01*
X13737846Y-8571223D01*
X13753142Y-8567720D01*
X13760850Y-8568002D01*
X13767005Y-8571708D01*
X13983921Y-8788625D01*
X14197256Y-9001959D01*
X14201112Y-9008638D01*
X14201620Y-9012495D01*
X14201620Y-9684216D01*
X14201517Y-9685967D01*
X14201142Y-9689129D01*
X14201342Y-9690225D01*
X14201342Y-9690225D01*
X14202190Y-9694864D01*
X14202266Y-9695325D01*
X14203133Y-9701092D01*
X14203446Y-9701743D01*
X14203576Y-9702453D01*
X14206264Y-9707628D01*
X14206472Y-9708045D01*
X14208996Y-9713301D01*
X14209486Y-9713831D01*
X14209819Y-9714472D01*
X14210322Y-9715061D01*
X14214095Y-9718834D01*
X14214500Y-9719255D01*
X14218190Y-9723247D01*
X14218832Y-9723620D01*
X14219302Y-9724041D01*
X14228422Y-9733160D01*
X14232278Y-9739840D01*
X14232278Y-9747552D01*
X14231768Y-9749108D01*
X14230506Y-9752344D01*
X14228372Y-9768554D01*
X14228471Y-9769447D01*
X14228585Y-9770479D01*
X14230167Y-9784806D01*
X14235786Y-9800161D01*
X14236287Y-9800907D01*
X14239641Y-9805898D01*
X14244905Y-9813732D01*
X14245569Y-9814336D01*
X14245569Y-9814337D01*
X14251719Y-9819932D01*
X14256998Y-9824736D01*
X14271368Y-9832538D01*
X14280069Y-9834821D01*
X14286315Y-9836459D01*
X14286315Y-9836459D01*
X14287183Y-9836687D01*
X14288081Y-9836701D01*
X14297069Y-9836843D01*
X14304487Y-9838956D01*
X14309854Y-9844494D01*
X14311733Y-9851975D01*
X14309620Y-9859393D01*
X14307371Y-9862277D01*
X14258660Y-9910988D01*
X14251603Y-9914940D01*
X14249428Y-9915462D01*
X14247153Y-9916008D01*
X14247153Y-9916008D01*
X14246280Y-9916218D01*
X14245481Y-9916630D01*
X14244640Y-9916943D01*
X14244552Y-9916708D01*
X14238365Y-9918058D01*
X14231017Y-9915714D01*
X14228529Y-9913710D01*
X13569176Y-9254357D01*
X13565320Y-9247678D01*
X13564812Y-9243821D01*
X13564812Y-9203391D01*
X13564825Y-9202767D01*
X13564926Y-9200359D01*
X13565066Y-9197035D01*
X13564788Y-9195849D01*
X13564097Y-9192906D01*
X13563842Y-9191526D01*
X13563404Y-9188331D01*
X13563266Y-9187324D01*
X13562863Y-9186391D01*
X13562862Y-9186391D01*
X13562751Y-9186133D01*
X13561919Y-9183619D01*
X13561855Y-9183344D01*
X13561854Y-9183344D01*
X13561623Y-9182355D01*
X13559579Y-9178638D01*
X13558962Y-9177378D01*
X13557681Y-9174418D01*
X13557278Y-9173486D01*
X13556639Y-9172697D01*
X13556638Y-9172696D01*
X13556461Y-9172477D01*
X13554984Y-9170279D01*
X13554359Y-9169142D01*
X13553849Y-9168551D01*
X13553848Y-9168551D01*
X13553682Y-9168358D01*
X13553503Y-9168151D01*
X13551186Y-9165834D01*
X13550143Y-9164675D01*
X13548428Y-9162558D01*
X13547789Y-9161768D01*
X13546499Y-9160851D01*
X13544595Y-9159242D01*
X13445382Y-9060029D01*
X13343388Y-8958036D01*
X13339532Y-8951356D01*
X13339532Y-8943644D01*
X13343388Y-8936964D01*
X13558054Y-8722299D01*
X13565263Y-8718311D01*
X13572175Y-8716728D01*
X13572176Y-8716727D01*
X13573051Y-8716527D01*
X13587658Y-8709180D01*
X13593286Y-8704374D01*
X13599408Y-8699145D01*
X13599409Y-8699145D01*
X13600091Y-8698561D01*
X13600616Y-8697832D01*
X13609108Y-8686013D01*
X13609108Y-8686013D01*
X13609633Y-8685283D01*
X13612860Y-8677254D01*
X13615396Y-8670946D01*
X13615396Y-8670946D01*
X13615731Y-8670113D01*
X13616898Y-8661916D01*
X13617966Y-8654407D01*
X13617966Y-8654407D01*
X13618035Y-8653925D01*
X13618050Y-8652500D01*
X13617978Y-8651903D01*
X13616194Y-8637160D01*
X13616194Y-8637160D01*
X13616086Y-8636268D01*
X13615508Y-8634740D01*
X13613114Y-8628404D01*
X13610306Y-8620973D01*
X13609529Y-8619841D01*
X13601554Y-8608238D01*
X13601554Y-8608238D01*
X13601045Y-8607498D01*
X13599785Y-8606375D01*
X13595339Y-8602414D01*
X13588837Y-8596621D01*
X13574387Y-8588970D01*
X13573516Y-8588751D01*
X13573515Y-8588751D01*
X13566477Y-8586983D01*
X13558529Y-8584987D01*
X13545056Y-8584916D01*
X13543076Y-8584906D01*
X13542178Y-8584901D01*
X13538484Y-8585788D01*
X13527153Y-8588508D01*
X13527153Y-8588508D01*
X13526280Y-8588718D01*
X13525482Y-8589130D01*
X13525482Y-8589130D01*
X13512548Y-8595805D01*
X13512548Y-8595805D01*
X13511750Y-8596217D01*
X13499429Y-8606966D01*
X13490027Y-8620343D01*
X13484088Y-8635577D01*
X13483971Y-8636468D01*
X13483747Y-8637337D01*
X13483581Y-8637295D01*
X13481041Y-8643426D01*
X13479756Y-8644892D01*
X13251029Y-8873618D01*
X13243972Y-8877571D01*
X13228780Y-8881218D01*
X13227982Y-8881630D01*
X13227982Y-8881630D01*
X13215048Y-8888305D01*
X13215048Y-8888305D01*
X13214250Y-8888717D01*
X13201929Y-8899466D01*
X13192527Y-8912843D01*
X13186588Y-8928077D01*
X13184454Y-8944287D01*
X13184552Y-8945181D01*
X13185421Y-8953053D01*
X13186248Y-8960539D01*
X13186557Y-8961383D01*
X13186557Y-8961383D01*
X13190740Y-8972815D01*
X13191867Y-8975894D01*
X13200986Y-8989465D01*
X13201651Y-8990070D01*
X13201651Y-8990070D01*
X13203293Y-8991565D01*
X13207460Y-8998055D01*
X13207824Y-9005759D01*
X13204286Y-9012613D01*
X13197796Y-9016780D01*
X13193188Y-9017485D01*
X13178076Y-9017406D01*
X13177178Y-9017401D01*
X13176305Y-9017611D01*
X13176305Y-9017611D01*
X13162153Y-9021008D01*
X13162153Y-9021008D01*
X13161280Y-9021218D01*
X13160482Y-9021630D01*
X13160482Y-9021630D01*
X13147548Y-9028305D01*
X13147548Y-9028305D01*
X13146750Y-9028717D01*
X13134429Y-9039466D01*
X13125027Y-9052843D01*
X13119088Y-9068077D01*
X13118971Y-9068967D01*
X13118971Y-9068968D01*
X13117927Y-9076891D01*
X13116954Y-9084287D01*
X11791529Y-9084287D01*
X11796226Y-9056069D01*
X11797895Y-9046038D01*
X11799767Y-9017487D01*
X11800487Y-9006505D01*
X11800487Y-9006505D01*
X11800501Y-9006292D01*
X11800550Y-9000000D01*
X11800056Y-8990070D01*
X11798761Y-8964057D01*
X11798569Y-8960218D01*
X11793871Y-8928968D01*
X11792703Y-8921195D01*
X11792703Y-8921195D01*
X11792648Y-8920828D01*
X11790620Y-8912843D01*
X11782934Y-8882581D01*
X11782934Y-8882580D01*
X11782843Y-8882222D01*
X11769252Y-8844781D01*
X11767293Y-8840700D01*
X12553366Y-8840700D01*
X12555160Y-8856952D01*
X12560779Y-8872307D01*
X12561280Y-8873052D01*
X12566382Y-8880644D01*
X12569899Y-8885878D01*
X12581992Y-8896882D01*
X12596361Y-8904684D01*
X12604519Y-8906824D01*
X12610994Y-8908523D01*
X12617694Y-8912344D01*
X12621585Y-8919003D01*
X12622023Y-8921300D01*
X12622336Y-8924127D01*
X12622644Y-8924970D01*
X12622644Y-8924971D01*
X12627306Y-8937709D01*
X12627955Y-8939482D01*
X12628456Y-8940227D01*
X12636499Y-8952197D01*
X12637074Y-8953053D01*
X12637738Y-8953657D01*
X12637738Y-8953657D01*
X12642550Y-8958036D01*
X12649167Y-8964057D01*
X12663537Y-8971859D01*
X12672238Y-8974142D01*
X12678484Y-8975780D01*
X12678484Y-8975780D01*
X12679352Y-8976008D01*
X12695701Y-8976265D01*
X12698239Y-8975684D01*
X12710763Y-8972815D01*
X12710763Y-8972815D01*
X12711639Y-8972615D01*
X12713993Y-8971430D01*
X12725444Y-8965671D01*
X12725443Y-8965671D01*
X12726246Y-8965268D01*
X12734713Y-8958036D01*
X12737996Y-8955233D01*
X12737996Y-8955232D01*
X12738679Y-8954649D01*
X12744460Y-8946604D01*
X12747696Y-8942101D01*
X12747696Y-8942100D01*
X12748220Y-8941371D01*
X12748700Y-8940178D01*
X12753984Y-8927033D01*
X12753984Y-8927033D01*
X12754319Y-8926200D01*
X12756623Y-8910013D01*
X12756638Y-8908588D01*
X12755623Y-8900201D01*
X12754781Y-8893248D01*
X12754781Y-8893247D01*
X12754673Y-8892355D01*
X12753148Y-8888318D01*
X12752382Y-8880644D01*
X12755556Y-8873614D01*
X12756550Y-8872516D01*
X13200090Y-8428975D01*
X13649393Y-7979673D01*
X13650704Y-7978507D01*
X13652330Y-7977226D01*
X13653204Y-7976536D01*
X13653838Y-7975620D01*
X13653838Y-7975620D01*
X13656520Y-7971740D01*
X13656792Y-7971359D01*
X13659593Y-7967566D01*
X13659594Y-7967566D01*
X13660255Y-7966670D01*
X13660494Y-7965989D01*
X13660905Y-7965395D01*
X13662664Y-7959834D01*
X13662812Y-7959390D01*
X13664374Y-7954942D01*
X13664374Y-7954941D01*
X13664743Y-7953891D01*
X13664771Y-7953170D01*
X13664989Y-7952481D01*
X13665050Y-7951708D01*
X13665050Y-7946371D01*
X13665061Y-7945786D01*
X13665231Y-7941470D01*
X13665231Y-7941470D01*
X13665275Y-7940357D01*
X13665085Y-7939640D01*
X13665050Y-7939010D01*
X13665050Y-7918463D01*
X13667046Y-7911013D01*
X13672500Y-7905560D01*
X13673255Y-7905152D01*
X13679356Y-7902084D01*
X13679356Y-7902084D01*
X13680158Y-7901680D01*
X13685786Y-7896874D01*
X13691908Y-7891645D01*
X13691909Y-7891644D01*
X13692591Y-7891061D01*
X13702133Y-7877783D01*
X13705388Y-7869686D01*
X13707896Y-7863446D01*
X13707896Y-7863445D01*
X13708231Y-7862613D01*
X13709101Y-7856501D01*
X13710466Y-7846907D01*
X13710466Y-7846907D01*
X13710535Y-7846425D01*
X13710550Y-7845000D01*
X13710033Y-7840729D01*
X13708694Y-7829660D01*
X13708694Y-7829659D01*
X13708586Y-7828768D01*
X13708008Y-7827240D01*
X13703124Y-7814313D01*
X13702806Y-7813473D01*
X13693545Y-7799998D01*
X13692285Y-7798875D01*
X13682928Y-7790538D01*
X13681337Y-7789121D01*
X13666887Y-7781470D01*
X13666016Y-7781251D01*
X13666015Y-7781251D01*
X13652876Y-7777950D01*
X13651029Y-7777487D01*
X13637556Y-7777416D01*
X13635576Y-7777406D01*
X13634678Y-7777401D01*
X13633805Y-7777611D01*
X13633805Y-7777611D01*
X13619653Y-7781008D01*
X13619653Y-7781008D01*
X13618780Y-7781218D01*
X13617982Y-7781630D01*
X13617982Y-7781630D01*
X13617477Y-7781890D01*
X13604250Y-7788717D01*
X13603573Y-7789308D01*
X13603369Y-7789447D01*
X13596085Y-7791983D01*
X13588509Y-7790538D01*
X13586821Y-7789552D01*
X13586337Y-7789121D01*
X13585544Y-7788701D01*
X13585543Y-7788700D01*
X13572681Y-7781890D01*
X13571887Y-7781470D01*
X13571016Y-7781251D01*
X13571015Y-7781251D01*
X13557876Y-7777950D01*
X13556029Y-7777487D01*
X13542556Y-7777416D01*
X13540576Y-7777406D01*
X13539678Y-7777401D01*
X13538805Y-7777611D01*
X13538805Y-7777611D01*
X13524653Y-7781008D01*
X13524653Y-7781008D01*
X13523780Y-7781218D01*
X13522982Y-7781630D01*
X13522982Y-7781630D01*
X13510048Y-7788305D01*
X13510048Y-7788305D01*
X13509250Y-7788717D01*
X13496929Y-7799466D01*
X13487527Y-7812843D01*
X13481588Y-7828077D01*
X13481471Y-7828967D01*
X13481471Y-7828967D01*
X13480867Y-7833550D01*
X13479454Y-7844287D01*
X13481248Y-7860539D01*
X13486867Y-7875894D01*
X13487368Y-7876640D01*
X13495308Y-7888456D01*
X13495986Y-7889465D01*
X13496651Y-7890070D01*
X13496651Y-7890070D01*
X13508080Y-7900469D01*
X13507876Y-7900694D01*
X13511785Y-7905417D01*
X13513074Y-7913021D01*
X13510387Y-7920251D01*
X13508775Y-7922159D01*
X12657569Y-8773365D01*
X12650890Y-8777222D01*
X12643403Y-8777281D01*
X12629941Y-8773899D01*
X12616469Y-8773829D01*
X12614489Y-8773818D01*
X12613591Y-8773813D01*
X12612718Y-8774023D01*
X12612718Y-8774023D01*
X12598565Y-8777421D01*
X12598565Y-8777421D01*
X12597692Y-8777630D01*
X12596894Y-8778042D01*
X12596894Y-8778042D01*
X12583961Y-8784718D01*
X12583960Y-8784718D01*
X12583163Y-8785130D01*
X12570841Y-8795878D01*
X12561440Y-8809255D01*
X12555500Y-8824489D01*
X12553366Y-8840700D01*
X11767293Y-8840700D01*
X11752010Y-8808874D01*
X11733227Y-8778042D01*
X11731480Y-8775175D01*
X11731480Y-8775174D01*
X11731287Y-8774858D01*
X11730161Y-8773365D01*
X11707512Y-8743364D01*
X11707511Y-8743363D01*
X11707288Y-8743067D01*
X11680250Y-8713818D01*
X11650441Y-8687399D01*
X11618155Y-8664071D01*
X11583712Y-8644064D01*
X11563203Y-8634740D01*
X11547790Y-8627732D01*
X11547790Y-8627731D01*
X11547452Y-8627578D01*
X11524661Y-8619841D01*
X11510085Y-8614894D01*
X11510085Y-8614893D01*
X11509734Y-8614775D01*
X11470931Y-8605780D01*
X11431427Y-8600685D01*
X11431057Y-8600674D01*
X11431056Y-8600674D01*
X11416732Y-8600262D01*
X11391611Y-8599538D01*
X11391243Y-8599564D01*
X11391243Y-8599564D01*
X11352249Y-8602325D01*
X11352248Y-8602325D01*
X11351879Y-8602351D01*
X11351515Y-8602414D01*
X11351514Y-8602414D01*
X11312987Y-8609034D01*
X11312987Y-8609034D01*
X11312623Y-8609097D01*
X11312267Y-8609195D01*
X11312266Y-8609195D01*
X11301527Y-8612163D01*
X11274230Y-8619708D01*
X11273885Y-8619841D01*
X11273885Y-8619841D01*
X11256290Y-8626648D01*
X11237082Y-8634079D01*
X11236751Y-8634247D01*
X11236750Y-8634247D01*
X11205132Y-8650253D01*
X11201544Y-8652070D01*
X11167969Y-8673501D01*
X11167677Y-8673731D01*
X11167677Y-8673731D01*
X11154080Y-8684450D01*
X11136688Y-8698160D01*
X11108012Y-8725805D01*
X11082222Y-8756161D01*
X11059576Y-8788928D01*
X11059397Y-8789251D01*
X11059397Y-8789251D01*
X11048738Y-8808520D01*
X11040295Y-8823782D01*
X11040149Y-8824122D01*
X11040149Y-8824123D01*
X11033027Y-8840700D01*
X11024572Y-8860380D01*
X11024460Y-8860732D01*
X11024460Y-8860733D01*
X11014177Y-8893248D01*
X11012561Y-8898357D01*
X11012174Y-8900201D01*
X11004744Y-8935610D01*
X11004381Y-8937340D01*
X11004342Y-8937708D01*
X11004342Y-8937709D01*
X11000189Y-8976251D01*
X11000114Y-8976943D01*
X10999801Y-9016773D01*
X10483400Y-9016773D01*
X10483400Y-7103692D01*
X14799547Y-7103692D01*
X14800397Y-7108565D01*
X14800621Y-7109850D01*
X14800735Y-7110621D01*
X14801486Y-7116828D01*
X14801804Y-7117669D01*
X14802018Y-7118541D01*
X14802000Y-7118545D01*
X14802029Y-7118652D01*
X14802047Y-7118646D01*
X14802307Y-7119506D01*
X14802461Y-7120391D01*
X14802822Y-7121214D01*
X14804973Y-7126114D01*
X14805268Y-7126836D01*
X14807478Y-7132685D01*
X14807987Y-7133425D01*
X14808403Y-7134222D01*
X14808386Y-7134230D01*
X14808440Y-7134327D01*
X14808456Y-7134317D01*
X14808914Y-7135090D01*
X14809275Y-7135913D01*
X14809822Y-7136625D01*
X14813080Y-7140871D01*
X14813537Y-7141501D01*
X14817080Y-7146655D01*
X14817750Y-7147253D01*
X14821440Y-7150540D01*
X14822064Y-7151129D01*
X14860889Y-7189954D01*
X14860889Y-7189955D01*
X14860890Y-7189955D01*
X15438349Y-7767415D01*
X15442205Y-7774094D01*
X15442713Y-7777950D01*
X15442713Y-8322269D01*
X15442678Y-8323283D01*
X15442310Y-8328692D01*
X15443384Y-8334850D01*
X15443498Y-8335621D01*
X15444249Y-8341828D01*
X15444567Y-8342669D01*
X15444781Y-8343541D01*
X15444763Y-8343545D01*
X15444792Y-8343652D01*
X15444810Y-8343646D01*
X15445070Y-8344506D01*
X15445224Y-8345391D01*
X15445585Y-8346214D01*
X15447736Y-8351114D01*
X15448031Y-8351836D01*
X15450241Y-8357685D01*
X15450750Y-8358425D01*
X15451166Y-8359222D01*
X15451149Y-8359230D01*
X15451203Y-8359327D01*
X15451219Y-8359317D01*
X15451677Y-8360090D01*
X15452038Y-8360913D01*
X15452585Y-8361625D01*
X15455843Y-8365871D01*
X15456300Y-8366501D01*
X15459843Y-8371655D01*
X15460513Y-8372253D01*
X15464203Y-8375540D01*
X15464827Y-8376129D01*
X15621299Y-8532602D01*
X15621991Y-8533343D01*
X15625556Y-8537429D01*
X15630675Y-8541027D01*
X15631297Y-8541489D01*
X15636216Y-8545346D01*
X15637034Y-8545715D01*
X15637803Y-8546181D01*
X15637793Y-8546197D01*
X15637889Y-8546252D01*
X15637898Y-8546235D01*
X15638690Y-8546660D01*
X15639424Y-8547176D01*
X15640262Y-8547502D01*
X15645249Y-8549447D01*
X15645968Y-8549749D01*
X15650847Y-8551952D01*
X15650847Y-8551952D01*
X15651666Y-8552322D01*
X15652548Y-8552485D01*
X15653406Y-8552754D01*
X15653400Y-8552772D01*
X15653506Y-8552802D01*
X15653511Y-8552784D01*
X15654381Y-8553007D01*
X15655218Y-8553334D01*
X15656109Y-8553451D01*
X15656109Y-8553451D01*
X15661416Y-8554150D01*
X15662186Y-8554272D01*
X15666386Y-8555050D01*
X15668333Y-8555411D01*
X15669230Y-8555359D01*
X15669230Y-8555359D01*
X15674162Y-8555075D01*
X15675020Y-8555050D01*
X16229813Y-8555050D01*
X16237263Y-8557046D01*
X16240349Y-8559414D01*
X16758389Y-9077454D01*
X16758389Y-9077455D01*
X16758389Y-9077455D01*
X16861800Y-9180866D01*
X16861855Y-9180921D01*
X16866178Y-9185290D01*
X16866943Y-9185758D01*
X16866943Y-9185759D01*
X16869229Y-9187159D01*
X16870638Y-9188138D01*
X16873453Y-9190346D01*
X16876308Y-9191635D01*
X16877961Y-9192510D01*
X16880632Y-9194147D01*
X16881487Y-9194420D01*
X16881487Y-9194420D01*
X16884040Y-9195235D01*
X16885642Y-9195849D01*
X16888084Y-9196952D01*
X16888084Y-9196952D01*
X16888903Y-9197322D01*
X16889786Y-9197485D01*
X16889786Y-9197485D01*
X16891450Y-9197794D01*
X16891982Y-9197892D01*
X16893796Y-9198348D01*
X16896780Y-9199300D01*
X16897676Y-9199361D01*
X16897676Y-9199361D01*
X16900350Y-9199544D01*
X16902052Y-9199759D01*
X16904687Y-9200247D01*
X16904687Y-9200247D01*
X16905570Y-9200411D01*
X16906467Y-9200359D01*
X16906467Y-9200359D01*
X16908696Y-9200231D01*
X16910567Y-9200240D01*
X16912796Y-9200392D01*
X16912796Y-9200392D01*
X16913692Y-9200453D01*
X16917218Y-9199838D01*
X16918921Y-9199641D01*
X16920237Y-9199565D01*
X16922493Y-9199435D01*
X16925487Y-9198514D01*
X16927304Y-9198078D01*
X16930391Y-9197539D01*
X16931214Y-9197178D01*
X16931214Y-9197178D01*
X16933667Y-9196101D01*
X16935275Y-9195503D01*
X16937836Y-9194715D01*
X16937836Y-9194715D01*
X16938695Y-9194451D01*
X16941382Y-9192843D01*
X16943045Y-9191984D01*
X16945090Y-9191087D01*
X16945090Y-9191087D01*
X16945913Y-9190725D01*
X16948751Y-9188548D01*
X16950170Y-9187583D01*
X16952470Y-9186206D01*
X16952471Y-9186206D01*
X16953241Y-9185745D01*
X16953879Y-9185114D01*
X16953879Y-9185114D01*
X16955984Y-9183031D01*
X16956186Y-9182842D01*
X16956346Y-9182720D01*
X16960857Y-9178209D01*
X16960912Y-9178154D01*
X16965053Y-9174056D01*
X16965290Y-9173822D01*
X16965351Y-9173722D01*
X16965408Y-9173657D01*
X17022454Y-9116611D01*
X17022455Y-9116611D01*
X17122292Y-9016773D01*
X18199801Y-9016773D01*
X18199835Y-9017141D01*
X18199835Y-9017142D01*
X18203412Y-9056069D01*
X18203446Y-9056438D01*
X18211012Y-9095545D01*
X18222425Y-9133706D01*
X18225382Y-9140898D01*
X18237275Y-9169826D01*
X18237572Y-9170546D01*
X18256302Y-9205699D01*
X18278432Y-9238818D01*
X18303741Y-9269575D01*
X18304003Y-9269836D01*
X18304004Y-9269837D01*
X18325066Y-9290789D01*
X18331980Y-9297667D01*
X18362869Y-9322815D01*
X18363178Y-9323019D01*
X18363178Y-9323019D01*
X18380416Y-9334407D01*
X18396104Y-9344770D01*
X18396430Y-9344942D01*
X18396431Y-9344943D01*
X18422383Y-9358596D01*
X18431354Y-9363317D01*
X18468273Y-9378270D01*
X18506494Y-9389483D01*
X18506858Y-9389551D01*
X18545274Y-9396775D01*
X18545275Y-9396775D01*
X18545639Y-9396844D01*
X18559595Y-9398053D01*
X18584953Y-9400249D01*
X18584953Y-9400249D01*
X18585322Y-9400281D01*
X18603253Y-9400046D01*
X18624780Y-9399765D01*
X18624781Y-9399764D01*
X18625151Y-9399760D01*
X18664730Y-9395285D01*
X18691681Y-9389483D01*
X18703307Y-9386980D01*
X18703308Y-9386980D01*
X18703670Y-9386902D01*
X18741584Y-9374692D01*
X18778099Y-9358777D01*
X18812852Y-9339315D01*
X18845500Y-9316497D01*
X18875720Y-9290549D01*
X18903214Y-9261728D01*
X18927710Y-9230318D01*
X18948965Y-9196632D01*
X18949356Y-9195849D01*
X18960925Y-9172696D01*
X18966769Y-9161000D01*
X18977033Y-9134050D01*
X18980814Y-9124124D01*
X18980814Y-9124123D01*
X18980946Y-9123777D01*
X18991356Y-9085329D01*
X18991529Y-9084287D01*
X18996226Y-9056069D01*
X18997896Y-9046038D01*
X18999767Y-9017487D01*
X19000487Y-9006505D01*
X19000487Y-9006505D01*
X19000501Y-9006292D01*
X19000550Y-9000000D01*
X19000056Y-8990070D01*
X18998761Y-8964057D01*
X18998570Y-8960218D01*
X18993871Y-8928968D01*
X18992703Y-8921195D01*
X18992703Y-8921195D01*
X18992648Y-8920828D01*
X18990620Y-8912843D01*
X18982934Y-8882581D01*
X18982934Y-8882580D01*
X18982843Y-8882222D01*
X18969252Y-8844781D01*
X18952010Y-8808874D01*
X18933227Y-8778042D01*
X18931481Y-8775175D01*
X18931480Y-8775174D01*
X18931287Y-8774858D01*
X18930161Y-8773365D01*
X18907512Y-8743364D01*
X18907511Y-8743363D01*
X18907288Y-8743067D01*
X18880250Y-8713818D01*
X18850441Y-8687399D01*
X18818155Y-8664071D01*
X18787466Y-8646245D01*
X18782027Y-8640777D01*
X18780050Y-8633361D01*
X18780050Y-8003272D01*
X18778567Y-7983313D01*
X18774801Y-7966670D01*
X18772783Y-7957752D01*
X18772783Y-7957751D01*
X18772661Y-7957212D01*
X18762962Y-7932271D01*
X18757182Y-7922159D01*
X18749957Y-7909517D01*
X18749957Y-7909517D01*
X18749683Y-7909038D01*
X18749114Y-7908316D01*
X18733458Y-7888456D01*
X18733115Y-7888022D01*
X18713624Y-7869686D01*
X18701655Y-7861383D01*
X18692091Y-7854748D01*
X18692091Y-7854748D01*
X18691636Y-7854433D01*
X18667635Y-7842597D01*
X18667109Y-7842429D01*
X18667109Y-7842428D01*
X18642675Y-7834607D01*
X18642149Y-7834439D01*
X18615736Y-7830137D01*
X18601255Y-7829947D01*
X18589531Y-7829794D01*
X18589530Y-7829794D01*
X18588978Y-7829787D01*
X18588431Y-7829861D01*
X18588430Y-7829861D01*
X18566812Y-7832803D01*
X18562462Y-7833395D01*
X18561931Y-7833550D01*
X18561931Y-7833550D01*
X18537301Y-7840729D01*
X18537300Y-7840729D01*
X18536770Y-7840884D01*
X18512468Y-7852087D01*
X18508409Y-7854748D01*
X18490551Y-7866456D01*
X18490551Y-7866457D01*
X18490088Y-7866760D01*
X18470123Y-7884579D01*
X18453012Y-7905154D01*
X18452725Y-7905627D01*
X18439416Y-7927559D01*
X18439415Y-7927560D01*
X18439129Y-7928032D01*
X18438915Y-7928542D01*
X18438915Y-7928542D01*
X18431439Y-7946371D01*
X18428780Y-7952711D01*
X18428644Y-7953246D01*
X18428644Y-7953247D01*
X18422329Y-7978112D01*
X18422193Y-7978648D01*
X18419950Y-8000923D01*
X18419950Y-8106726D01*
X18419950Y-8106731D01*
X18419950Y-8633594D01*
X18417954Y-8641044D01*
X18412500Y-8646498D01*
X18411780Y-8646888D01*
X18411005Y-8647280D01*
X18401544Y-8652070D01*
X18367969Y-8673501D01*
X18367677Y-8673731D01*
X18367677Y-8673731D01*
X18354080Y-8684450D01*
X18336688Y-8698160D01*
X18308012Y-8725805D01*
X18282222Y-8756161D01*
X18259576Y-8788928D01*
X18259397Y-8789251D01*
X18259397Y-8789251D01*
X18248738Y-8808520D01*
X18240295Y-8823782D01*
X18240149Y-8824122D01*
X18240149Y-8824123D01*
X18233027Y-8840700D01*
X18224572Y-8860380D01*
X18224460Y-8860732D01*
X18224460Y-8860733D01*
X18214177Y-8893248D01*
X18212561Y-8898357D01*
X18212174Y-8900201D01*
X18204744Y-8935610D01*
X18204381Y-8937340D01*
X18204342Y-8937708D01*
X18204342Y-8937709D01*
X18200189Y-8976251D01*
X18200114Y-8976943D01*
X18199801Y-9016773D01*
X17122292Y-9016773D01*
X17392454Y-8746611D01*
X17392455Y-8746611D01*
X17452137Y-8686928D01*
X17452454Y-8686611D01*
X17460346Y-8676547D01*
X17462875Y-8670946D01*
X17466952Y-8661916D01*
X17467322Y-8661097D01*
X17470411Y-8644430D01*
X17470314Y-8642752D01*
X17469892Y-8635427D01*
X17469435Y-8627507D01*
X17464451Y-8611305D01*
X17463129Y-8609097D01*
X17456207Y-8597530D01*
X17456207Y-8597530D01*
X17455745Y-8596760D01*
X17455114Y-8596121D01*
X17444454Y-8585349D01*
X17444454Y-8585349D01*
X17443822Y-8584711D01*
X17429369Y-8575854D01*
X17428513Y-8575580D01*
X17414076Y-8570973D01*
X17414075Y-8570973D01*
X17413220Y-8570700D01*
X17412324Y-8570639D01*
X17412324Y-8570639D01*
X17397204Y-8569608D01*
X17397204Y-8569608D01*
X17396308Y-8569547D01*
X17395422Y-8569701D01*
X17395422Y-8569701D01*
X17380494Y-8572307D01*
X17380494Y-8572307D01*
X17379609Y-8572461D01*
X17372503Y-8575580D01*
X17364910Y-8578914D01*
X17364909Y-8578914D01*
X17364087Y-8579275D01*
X17363375Y-8579821D01*
X17363375Y-8579821D01*
X17356171Y-8585349D01*
X17353654Y-8587280D01*
X17353309Y-8587625D01*
X17293656Y-8647279D01*
X17293655Y-8647280D01*
X17293654Y-8647280D01*
X17293653Y-8647282D01*
X16923656Y-9017279D01*
X16923655Y-9017280D01*
X16923654Y-9017280D01*
X16920536Y-9020398D01*
X16913857Y-9024255D01*
X16906144Y-9024255D01*
X16899464Y-9020399D01*
X16857721Y-8978656D01*
X16857720Y-8978655D01*
X16857720Y-8978654D01*
X16316465Y-8437399D01*
X16315772Y-8436658D01*
X16312798Y-8433248D01*
X16312798Y-8433248D01*
X16312207Y-8432571D01*
X16307091Y-8428975D01*
X16306465Y-8428510D01*
X16302254Y-8425208D01*
X16302254Y-8425208D01*
X16301547Y-8424654D01*
X16300728Y-8424285D01*
X16299959Y-8423819D01*
X16299969Y-8423803D01*
X16299874Y-8423748D01*
X16299865Y-8423765D01*
X16299074Y-8423341D01*
X16298338Y-8422824D01*
X16292510Y-8420552D01*
X16291795Y-8420251D01*
X16286097Y-8417678D01*
X16285214Y-8417515D01*
X16284357Y-8417246D01*
X16284363Y-8417228D01*
X16284257Y-8417198D01*
X16284252Y-8417216D01*
X16283382Y-8416993D01*
X16282545Y-8416667D01*
X16281654Y-8416549D01*
X16276347Y-8415851D01*
X16275576Y-8415729D01*
X16270313Y-8414753D01*
X16270313Y-8414753D01*
X16269430Y-8414589D01*
X16268533Y-8414641D01*
X16263603Y-8414925D01*
X16262745Y-8414950D01*
X15707950Y-8414950D01*
X15700500Y-8412954D01*
X15697414Y-8410586D01*
X15587177Y-8300349D01*
X15583321Y-8293669D01*
X15582813Y-8289813D01*
X15582813Y-7745494D01*
X15582847Y-7744480D01*
X15583155Y-7739967D01*
X15583155Y-7739967D01*
X15583216Y-7739071D01*
X15582141Y-7732911D01*
X15582028Y-7732142D01*
X15581384Y-7726826D01*
X15581276Y-7725934D01*
X15580959Y-7725094D01*
X15580745Y-7724222D01*
X15580763Y-7724218D01*
X15580734Y-7724111D01*
X15580716Y-7724117D01*
X15580456Y-7723257D01*
X15580302Y-7722372D01*
X15577790Y-7716648D01*
X15577495Y-7715926D01*
X15575602Y-7710917D01*
X15575285Y-7710077D01*
X15574776Y-7709337D01*
X15574360Y-7708541D01*
X15574377Y-7708532D01*
X15574323Y-7708436D01*
X15574307Y-7708446D01*
X15573849Y-7707673D01*
X15573488Y-7706850D01*
X15569683Y-7701891D01*
X15569225Y-7701260D01*
X15565683Y-7696107D01*
X15561324Y-7692223D01*
X15560700Y-7691634D01*
X14977631Y-7108565D01*
X14973774Y-7101886D01*
X14973774Y-7094173D01*
X14977631Y-7087494D01*
X14978489Y-7086700D01*
X14985091Y-7081061D01*
X14989714Y-7074628D01*
X14991278Y-7072787D01*
X15308679Y-6755386D01*
X15310144Y-6754188D01*
X15310158Y-6754180D01*
X15322591Y-6743561D01*
X15327213Y-6737129D01*
X15328778Y-6735288D01*
X15382139Y-6681927D01*
X15382456Y-6681610D01*
X15390347Y-6671545D01*
X15397323Y-6656096D01*
X15400412Y-6639428D01*
X15399436Y-6622505D01*
X15394452Y-6606303D01*
X15385747Y-6591758D01*
X15373823Y-6579709D01*
X15373058Y-6579240D01*
X15373058Y-6579240D01*
X15360136Y-6571321D01*
X15360136Y-6571321D01*
X15359370Y-6570852D01*
X15358515Y-6570579D01*
X15344077Y-6565971D01*
X15344077Y-6565971D01*
X15343221Y-6565698D01*
X15342325Y-6565637D01*
X15342325Y-6565637D01*
X15327206Y-6564606D01*
X15327205Y-6564606D01*
X15326309Y-6564545D01*
X15325424Y-6564700D01*
X15325424Y-6564700D01*
X15320053Y-6565637D01*
X15309610Y-6567459D01*
X15308788Y-6567820D01*
X15308788Y-6567820D01*
X15294910Y-6573912D01*
X15294910Y-6573912D01*
X15294089Y-6574273D01*
X15283656Y-6582279D01*
X15283310Y-6582624D01*
X14822399Y-7043535D01*
X14821658Y-7044227D01*
X14818248Y-7047202D01*
X14818248Y-7047202D01*
X14817571Y-7047793D01*
X14813975Y-7052909D01*
X14813510Y-7053535D01*
X14809654Y-7058453D01*
X14809284Y-7059272D01*
X14808819Y-7060040D01*
X14808803Y-7060031D01*
X14808748Y-7060126D01*
X14808765Y-7060135D01*
X14808341Y-7060926D01*
X14807824Y-7061661D01*
X14805552Y-7067490D01*
X14805251Y-7068205D01*
X14802678Y-7073903D01*
X14802515Y-7074786D01*
X14802246Y-7075643D01*
X14802228Y-7075637D01*
X14802198Y-7075743D01*
X14802216Y-7075748D01*
X14801993Y-7076617D01*
X14801666Y-7077455D01*
X14801549Y-7078346D01*
X14800850Y-7083653D01*
X14800728Y-7084424D01*
X14799589Y-7090570D01*
X14799641Y-7091467D01*
X14799925Y-7096397D01*
X14799950Y-7097255D01*
X14799950Y-7097269D01*
X14799915Y-7098283D01*
X14799547Y-7103692D01*
X10483400Y-7103692D01*
X10483400Y-6299287D01*
X11929454Y-6299287D01*
X11931248Y-6315539D01*
X11936867Y-6330894D01*
X11945986Y-6344465D01*
X11958080Y-6355469D01*
X11972449Y-6363271D01*
X11981150Y-6365554D01*
X11987396Y-6367193D01*
X11987396Y-6367193D01*
X11988265Y-6367420D01*
X12004613Y-6367677D01*
X12007151Y-6367096D01*
X12019675Y-6364227D01*
X12019676Y-6364227D01*
X12020551Y-6364027D01*
X12022905Y-6362843D01*
X12035158Y-6356680D01*
X12035313Y-6356987D01*
X12040979Y-6355079D01*
X12041916Y-6355050D01*
X12161026Y-6355050D01*
X12168476Y-6357046D01*
X12171562Y-6359414D01*
X12666155Y-6854007D01*
X12666155Y-6854007D01*
X12669685Y-6857537D01*
X12673651Y-6864664D01*
X12673748Y-6865539D01*
X12679367Y-6880894D01*
X12688486Y-6894465D01*
X12689151Y-6895070D01*
X12689151Y-6895070D01*
X12695300Y-6900665D01*
X12700580Y-6905469D01*
X12714949Y-6913271D01*
X12723650Y-6915554D01*
X12729896Y-6917193D01*
X12729896Y-6917193D01*
X12730765Y-6917420D01*
X12747113Y-6917677D01*
X12749651Y-6917096D01*
X12762175Y-6914227D01*
X12762176Y-6914227D01*
X12763051Y-6914027D01*
X12765405Y-6912843D01*
X12776856Y-6907084D01*
X12776856Y-6907084D01*
X12777658Y-6906680D01*
X12783286Y-6901874D01*
X12789408Y-6896645D01*
X12789409Y-6896644D01*
X12790091Y-6896061D01*
X12799633Y-6882783D01*
X12805731Y-6867613D01*
X12806656Y-6861112D01*
X12807966Y-6851907D01*
X12807966Y-6851907D01*
X12808035Y-6851425D01*
X12808050Y-6850000D01*
X12806086Y-6833768D01*
X12800306Y-6818473D01*
X12791045Y-6804998D01*
X12778837Y-6794121D01*
X12764387Y-6786470D01*
X12763516Y-6786251D01*
X12763515Y-6786251D01*
X12754940Y-6784097D01*
X12748034Y-6780182D01*
X12746241Y-6778389D01*
X12746241Y-6778388D01*
X12229727Y-6261874D01*
X12229295Y-6261424D01*
X12226097Y-6257946D01*
X12225409Y-6257198D01*
X12221803Y-6254963D01*
X12220648Y-6254169D01*
X12217270Y-6251604D01*
X12216064Y-6251127D01*
X12213697Y-6249936D01*
X12213458Y-6249788D01*
X12213457Y-6249788D01*
X12212594Y-6249252D01*
X12210348Y-6248600D01*
X12208521Y-6248069D01*
X12207193Y-6247614D01*
X12204195Y-6246427D01*
X12204194Y-6246427D01*
X12203250Y-6246053D01*
X12202241Y-6245947D01*
X12202241Y-6245947D01*
X12201960Y-6245918D01*
X12199361Y-6245408D01*
X12198115Y-6245046D01*
X12197337Y-6244989D01*
X12197336Y-6244989D01*
X12197188Y-6244978D01*
X12196809Y-6244950D01*
X12193532Y-6244950D01*
X12191974Y-6244868D01*
X12189265Y-6244584D01*
X12189265Y-6244584D01*
X12188255Y-6244477D01*
X12186804Y-6244723D01*
X12186695Y-6244741D01*
X12184211Y-6244950D01*
X12041604Y-6244950D01*
X12034632Y-6243218D01*
X12022681Y-6236890D01*
X12022681Y-6236890D01*
X12021887Y-6236470D01*
X12021016Y-6236251D01*
X12021015Y-6236251D01*
X12014055Y-6234503D01*
X12006029Y-6232487D01*
X11992556Y-6232416D01*
X11990576Y-6232406D01*
X11989678Y-6232401D01*
X11988805Y-6232611D01*
X11988805Y-6232611D01*
X11974653Y-6236008D01*
X11974653Y-6236008D01*
X11973780Y-6236218D01*
X11972982Y-6236630D01*
X11972982Y-6236630D01*
X11960048Y-6243305D01*
X11960048Y-6243305D01*
X11959250Y-6243717D01*
X11946929Y-6254466D01*
X11937527Y-6267843D01*
X11931588Y-6283077D01*
X11929454Y-6299287D01*
X10483400Y-6299287D01*
X10483400Y-5416773D01*
X14599801Y-5416773D01*
X14599835Y-5417141D01*
X14599835Y-5417142D01*
X14603412Y-5456069D01*
X14603446Y-5456438D01*
X14611012Y-5495545D01*
X14622425Y-5533706D01*
X14637571Y-5570546D01*
X14656302Y-5605699D01*
X14678431Y-5638818D01*
X14703741Y-5669575D01*
X14704003Y-5669836D01*
X14704004Y-5669837D01*
X14725066Y-5690789D01*
X14731980Y-5697667D01*
X14762869Y-5722815D01*
X14763178Y-5723019D01*
X14763178Y-5723019D01*
X14780416Y-5734407D01*
X14796103Y-5744770D01*
X14796430Y-5744942D01*
X14796431Y-5744942D01*
X14822383Y-5758596D01*
X14831354Y-5763316D01*
X14868272Y-5778270D01*
X14906493Y-5789483D01*
X14906858Y-5789551D01*
X14945274Y-5796775D01*
X14945275Y-5796775D01*
X14945639Y-5796844D01*
X14959595Y-5798053D01*
X14984952Y-5800249D01*
X14984953Y-5800249D01*
X14985322Y-5800281D01*
X15003253Y-5800046D01*
X15024780Y-5799764D01*
X15024781Y-5799764D01*
X15025151Y-5799760D01*
X15064730Y-5795285D01*
X15091681Y-5789483D01*
X15103307Y-5786980D01*
X15103307Y-5786980D01*
X15103670Y-5786902D01*
X15141584Y-5774692D01*
X15178099Y-5758777D01*
X15212852Y-5739315D01*
X15245500Y-5716497D01*
X15275720Y-5690549D01*
X15303214Y-5661728D01*
X15327710Y-5630318D01*
X15348965Y-5596631D01*
X15366769Y-5561000D01*
X15377033Y-5534050D01*
X15380814Y-5524124D01*
X15380814Y-5524123D01*
X15380946Y-5523777D01*
X15391356Y-5485329D01*
X15397895Y-5446038D01*
X15400501Y-5406292D01*
X15400550Y-5400000D01*
X15398569Y-5360218D01*
X15392648Y-5320828D01*
X15392556Y-5320469D01*
X15382934Y-5282581D01*
X15382934Y-5282580D01*
X15382843Y-5282222D01*
X15369252Y-5244781D01*
X15352010Y-5208874D01*
X15331287Y-5174858D01*
X15331063Y-5174561D01*
X15307512Y-5143364D01*
X15307511Y-5143363D01*
X15307288Y-5143067D01*
X15280250Y-5113818D01*
X15250441Y-5087399D01*
X15218155Y-5064071D01*
X15183712Y-5044064D01*
X15168277Y-5037047D01*
X15147790Y-5027732D01*
X15147790Y-5027731D01*
X15147452Y-5027578D01*
X15124661Y-5019841D01*
X15110085Y-5014894D01*
X15110085Y-5014893D01*
X15109734Y-5014775D01*
X15070931Y-5005780D01*
X15031427Y-5000685D01*
X15031057Y-5000674D01*
X15031056Y-5000674D01*
X15016732Y-5000262D01*
X14991611Y-4999538D01*
X14991243Y-4999564D01*
X14991243Y-4999564D01*
X14952249Y-5002325D01*
X14952248Y-5002325D01*
X14951879Y-5002351D01*
X14951515Y-5002414D01*
X14951514Y-5002414D01*
X14912987Y-5009034D01*
X14912987Y-5009034D01*
X14912623Y-5009097D01*
X14912267Y-5009195D01*
X14912266Y-5009195D01*
X14896137Y-5013653D01*
X14874230Y-5019708D01*
X14873885Y-5019841D01*
X14873885Y-5019841D01*
X14854195Y-5027459D01*
X14837082Y-5034079D01*
X14836751Y-5034247D01*
X14836750Y-5034247D01*
X14805132Y-5050253D01*
X14801544Y-5052070D01*
X14767969Y-5073501D01*
X14736688Y-5098160D01*
X14708012Y-5125805D01*
X14682222Y-5156161D01*
X14659575Y-5188928D01*
X14640295Y-5223782D01*
X14624572Y-5260380D01*
X14624460Y-5260732D01*
X14624460Y-5260733D01*
X14617664Y-5282222D01*
X14612561Y-5298357D01*
X14604381Y-5337340D01*
X14604342Y-5337708D01*
X14604342Y-5337709D01*
X14601876Y-5360588D01*
X14600114Y-5376943D01*
X14599801Y-5416773D01*
X10483400Y-5416773D01*
X10483400Y-4498300D01*
X10485396Y-4490850D01*
X10490850Y-4485396D01*
X10498300Y-4483400D01*
X19501700Y-4483400D01*
X19509150Y-4485396D01*
G37*
G04 #@! TD.AperFunction*
G04 #@! TA.AperFunction,Conductor*
G36*
X16135266Y-10565876D02*
G01*
X16139772Y-10568772D01*
X16235090Y-10664091D01*
X16238493Y-10670322D01*
X16237987Y-10677403D01*
X16235090Y-10681910D01*
X16102579Y-10814421D01*
X16102579Y-10870990D01*
X16157309Y-10925720D01*
X16160711Y-10931951D01*
X16160205Y-10939033D01*
X16157309Y-10943539D01*
X15745857Y-11354991D01*
X15739002Y-11358513D01*
X15529138Y-11393193D01*
X15522091Y-11392331D01*
X15518174Y-11389672D01*
X15420961Y-11292459D01*
X15417558Y-11286227D01*
X15417346Y-11282172D01*
X15441409Y-11063234D01*
X15444142Y-11056682D01*
X15445024Y-11055701D01*
X15857248Y-10643478D01*
X15863479Y-10640076D01*
X15870560Y-10640582D01*
X15875067Y-10643478D01*
X15931592Y-10700003D01*
X15931592Y-10700003D01*
X15932873Y-10701284D01*
X15989441Y-10701284D01*
X16121953Y-10568772D01*
X16128185Y-10565370D01*
X16135266Y-10565876D01*
G37*
G04 #@! TD.AperFunction*
G04 #@! TA.AperFunction,Conductor*
G36*
X16684403Y-11126013D02*
G01*
X16688909Y-11128910D01*
X16784228Y-11224228D01*
X16787630Y-11230459D01*
X16787124Y-11237540D01*
X16784228Y-11242047D01*
X16651716Y-11374558D01*
X16651716Y-11431127D01*
X16706446Y-11485857D01*
X16709848Y-11492088D01*
X16709342Y-11499170D01*
X16706446Y-11503676D01*
X16325542Y-11884579D01*
X16319311Y-11887982D01*
X16316633Y-11888270D01*
X16267399Y-11888270D01*
X16260587Y-11886270D01*
X16258520Y-11884610D01*
X16000002Y-11627879D01*
X15996577Y-11621660D01*
X15997059Y-11614576D01*
X15999971Y-11610029D01*
X16406385Y-11203615D01*
X16412616Y-11200213D01*
X16419697Y-11200719D01*
X16424204Y-11203615D01*
X16480729Y-11260140D01*
X16480729Y-11260140D01*
X16482010Y-11261421D01*
X16538579Y-11261421D01*
X16671090Y-11128910D01*
X16677322Y-11125507D01*
X16684403Y-11126013D01*
G37*
G04 #@! TD.AperFunction*
M02*
