%TF.GenerationSoftware,KiCad,Pcbnew,6.0.4-6f826c9f35~116~ubuntu20.04.1*%
%TF.CreationDate,2022-07-18T16:45:45+00:00*%
%TF.ProjectId,QFHMIX01D,5146484d-4958-4303-9144-2e6b69636164,REV 0.2*%
%TF.SameCoordinates,Original*%
%TF.FileFunction,Legend,Bot*%
%TF.FilePolarity,Positive*%
%FSLAX46Y46*%
G04 Gerber Fmt 4.6, Leading zero omitted, Abs format (unit mm)*
G04 Created by KiCad (PCBNEW 6.0.4-6f826c9f35~116~ubuntu20.04.1) date 2022-07-18 16:45:45*
%MOMM*%
%LPD*%
G01*
G04 APERTURE LIST*
%ADD10C,0.150000*%
%ADD11C,0.100000*%
%ADD12C,0.304800*%
%ADD13C,0.120000*%
%ADD14C,0.200000*%
%ADD15C,0.500000*%
G04 APERTURE END LIST*
D10*
%TO.C,C1*%
X128950026Y-70548324D02*
X129017369Y-70548324D01*
X129152056Y-70480980D01*
X129219400Y-70413637D01*
X129286743Y-70278949D01*
X129286743Y-70144262D01*
X129253072Y-70043247D01*
X129152056Y-69874888D01*
X129051041Y-69773873D01*
X128882682Y-69672858D01*
X128781667Y-69639186D01*
X128646980Y-69639186D01*
X128512293Y-69706530D01*
X128444949Y-69773873D01*
X128377606Y-69908560D01*
X128377606Y-69975904D01*
X128343934Y-71289102D02*
X128747995Y-70885041D01*
X128545965Y-71087072D02*
X127838858Y-70379965D01*
X128007217Y-70413637D01*
X128141904Y-70413637D01*
X128242919Y-70379965D01*
%TO.C,M4*%
X149190476Y-126047619D02*
X149190476Y-127047619D01*
X149523809Y-126333333D01*
X149857142Y-127047619D01*
X149857142Y-126047619D01*
X150761904Y-126714285D02*
X150761904Y-126047619D01*
X150523809Y-127095238D02*
X150285714Y-126380952D01*
X150904761Y-126380952D01*
%TO.C,M3*%
X149190476Y-54047619D02*
X149190476Y-55047619D01*
X149523809Y-54333333D01*
X149857142Y-55047619D01*
X149857142Y-54047619D01*
X150238095Y-55047619D02*
X150857142Y-55047619D01*
X150523809Y-54666666D01*
X150666666Y-54666666D01*
X150761904Y-54619047D01*
X150809523Y-54571428D01*
X150857142Y-54476190D01*
X150857142Y-54238095D01*
X150809523Y-54142857D01*
X150761904Y-54095238D01*
X150666666Y-54047619D01*
X150380952Y-54047619D01*
X150285714Y-54095238D01*
X150238095Y-54142857D01*
%TO.C,M1*%
X185190476Y-90047619D02*
X185190476Y-91047619D01*
X185523809Y-90333333D01*
X185857142Y-91047619D01*
X185857142Y-90047619D01*
X186857142Y-90047619D02*
X186285714Y-90047619D01*
X186571428Y-90047619D02*
X186571428Y-91047619D01*
X186476190Y-90904761D01*
X186380952Y-90809523D01*
X186285714Y-90761904D01*
%TO.C,M2*%
X113190476Y-90047619D02*
X113190476Y-91047619D01*
X113523809Y-90333333D01*
X113857142Y-91047619D01*
X113857142Y-90047619D01*
X114285714Y-90952380D02*
X114333333Y-91000000D01*
X114428571Y-91047619D01*
X114666666Y-91047619D01*
X114761904Y-91000000D01*
X114809523Y-90952380D01*
X114857142Y-90857142D01*
X114857142Y-90761904D01*
X114809523Y-90619047D01*
X114238095Y-90047619D01*
X114857142Y-90047619D01*
%TO.C,C11*%
X133178206Y-82955656D02*
X133178206Y-82888312D01*
X133110862Y-82753625D01*
X133043519Y-82686282D01*
X132908832Y-82618938D01*
X132774145Y-82618938D01*
X132673130Y-82652610D01*
X132504771Y-82753625D01*
X132403756Y-82854640D01*
X132302740Y-83022999D01*
X132269069Y-83124014D01*
X132269069Y-83258701D01*
X132336412Y-83393388D01*
X132403756Y-83460732D01*
X132538443Y-83528075D01*
X132605786Y-83528075D01*
X133918985Y-83561747D02*
X133514924Y-83157686D01*
X133716954Y-83359717D02*
X133009847Y-84066824D01*
X133043519Y-83898465D01*
X133043519Y-83763778D01*
X133009847Y-83662763D01*
X134592420Y-84235182D02*
X134188359Y-83831121D01*
X134390389Y-84033152D02*
X133683282Y-84740259D01*
X133716954Y-84571900D01*
X133716954Y-84437213D01*
X133683282Y-84336198D01*
%TO.C,C22*%
X124748338Y-106078127D02*
X124748338Y-106010783D01*
X124680994Y-105876096D01*
X124613651Y-105808753D01*
X124478964Y-105741409D01*
X124344277Y-105741409D01*
X124243262Y-105775081D01*
X124074903Y-105876096D01*
X123973888Y-105977111D01*
X123872872Y-106145470D01*
X123839201Y-106246485D01*
X123839201Y-106381172D01*
X123906544Y-106515859D01*
X123973888Y-106583203D01*
X124108575Y-106650546D01*
X124175918Y-106650546D01*
X124445292Y-106919921D02*
X124445292Y-106987264D01*
X124478964Y-107088279D01*
X124647323Y-107256638D01*
X124748338Y-107290310D01*
X124815681Y-107290310D01*
X124916697Y-107256638D01*
X124984040Y-107189295D01*
X125051384Y-107054608D01*
X125051384Y-106246485D01*
X125489117Y-106684218D01*
X125118727Y-107593356D02*
X125118727Y-107660699D01*
X125152399Y-107761714D01*
X125320758Y-107930073D01*
X125421773Y-107963745D01*
X125489117Y-107963745D01*
X125590132Y-107930073D01*
X125657475Y-107862730D01*
X125724819Y-107728043D01*
X125724819Y-106919921D01*
X126162552Y-107357653D01*
%TO.C,L8*%
X131535304Y-95028993D02*
X131198586Y-94692275D01*
X130491480Y-95399382D01*
X131467961Y-95769771D02*
X131366945Y-95736100D01*
X131299602Y-95736100D01*
X131198586Y-95769771D01*
X131164915Y-95803443D01*
X131131243Y-95904458D01*
X131131243Y-95971802D01*
X131164915Y-96072817D01*
X131299602Y-96207504D01*
X131400617Y-96241176D01*
X131467961Y-96241176D01*
X131568976Y-96207504D01*
X131602648Y-96173832D01*
X131636319Y-96072817D01*
X131636319Y-96005474D01*
X131602648Y-95904458D01*
X131467961Y-95769771D01*
X131434289Y-95668756D01*
X131434289Y-95601413D01*
X131467961Y-95500397D01*
X131602648Y-95365710D01*
X131703663Y-95332038D01*
X131771006Y-95332038D01*
X131872022Y-95365710D01*
X132006709Y-95500397D01*
X132040380Y-95601413D01*
X132040380Y-95668756D01*
X132006709Y-95769771D01*
X131872022Y-95904458D01*
X131771006Y-95938130D01*
X131703663Y-95938130D01*
X131602648Y-95904458D01*
%TO.C,L12*%
X136439438Y-95544023D02*
X136102721Y-95207306D01*
X135395614Y-95914412D01*
X137045530Y-96150115D02*
X136641469Y-95746054D01*
X136843500Y-95948084D02*
X136136393Y-96655191D01*
X136170064Y-96486832D01*
X136170064Y-96352145D01*
X136136393Y-96251130D01*
X136675141Y-97059252D02*
X136675141Y-97126596D01*
X136708813Y-97227611D01*
X136877171Y-97395970D01*
X136978187Y-97429641D01*
X137045530Y-97429641D01*
X137146545Y-97395970D01*
X137213889Y-97328626D01*
X137281232Y-97193939D01*
X137281232Y-96385817D01*
X137718965Y-96823550D01*
%TO.C,L31*%
X145100838Y-67756423D02*
X144764121Y-67419706D01*
X144057014Y-68126812D01*
X144562090Y-68631889D02*
X144999823Y-69069622D01*
X145033495Y-68564545D01*
X145134510Y-68665561D01*
X145235526Y-68699232D01*
X145302869Y-68699232D01*
X145403884Y-68665561D01*
X145572243Y-68497202D01*
X145605915Y-68396186D01*
X145605915Y-68328843D01*
X145572243Y-68227828D01*
X145370213Y-68025797D01*
X145269197Y-67992125D01*
X145201854Y-67992125D01*
X146380365Y-69035950D02*
X145976304Y-68631889D01*
X146178335Y-68833919D02*
X145471228Y-69541026D01*
X145504900Y-69372667D01*
X145504900Y-69237980D01*
X145471228Y-69136965D01*
%TO.C,L35*%
X154067038Y-58510823D02*
X153730321Y-58174106D01*
X153023214Y-58881212D01*
X153528290Y-59386289D02*
X153966023Y-59824022D01*
X153999695Y-59318945D01*
X154100710Y-59419961D01*
X154201726Y-59453632D01*
X154269069Y-59453632D01*
X154370084Y-59419961D01*
X154538443Y-59251602D01*
X154572115Y-59150586D01*
X154572115Y-59083243D01*
X154538443Y-58982228D01*
X154336413Y-58780197D01*
X154235397Y-58746525D01*
X154168054Y-58746525D01*
X154605787Y-60463785D02*
X154269069Y-60127067D01*
X154572115Y-59756678D01*
X154572115Y-59824022D01*
X154605787Y-59925037D01*
X154774145Y-60093396D01*
X154875161Y-60127067D01*
X154942504Y-60127067D01*
X155043519Y-60093396D01*
X155211878Y-59925037D01*
X155245550Y-59824022D01*
X155245550Y-59756678D01*
X155211878Y-59655663D01*
X155043519Y-59487304D01*
X154942504Y-59453632D01*
X154875161Y-59453632D01*
%TO.C,L59*%
X140907724Y-78098586D02*
X141244441Y-77761869D01*
X140537335Y-77054762D01*
X139628197Y-77963899D02*
X139964915Y-77627182D01*
X140335304Y-77930228D01*
X140267961Y-77930228D01*
X140166945Y-77963899D01*
X139998586Y-78132258D01*
X139964915Y-78233274D01*
X139964915Y-78300617D01*
X139998586Y-78401632D01*
X140166945Y-78569991D01*
X140267961Y-78603663D01*
X140335304Y-78603663D01*
X140436319Y-78569991D01*
X140604678Y-78401632D01*
X140638350Y-78300617D01*
X140638350Y-78233274D01*
X139964915Y-79041396D02*
X139830228Y-79176083D01*
X139729212Y-79209754D01*
X139661869Y-79209754D01*
X139493510Y-79176083D01*
X139325151Y-79075067D01*
X139055777Y-78805693D01*
X139022106Y-78704678D01*
X139022106Y-78637335D01*
X139055777Y-78536319D01*
X139190464Y-78401632D01*
X139291480Y-78367961D01*
X139358823Y-78367961D01*
X139459838Y-78401632D01*
X139628197Y-78569991D01*
X139661869Y-78671006D01*
X139661869Y-78738350D01*
X139628197Y-78839365D01*
X139493510Y-78974052D01*
X139392495Y-79007724D01*
X139325151Y-79007724D01*
X139224136Y-78974052D01*
%TO.C,L63*%
X149848724Y-87090586D02*
X150185441Y-86753869D01*
X149478335Y-86046762D01*
X148602869Y-86922228D02*
X148737556Y-86787541D01*
X148838571Y-86753869D01*
X148905915Y-86753869D01*
X149074274Y-86787541D01*
X149242632Y-86888556D01*
X149512006Y-87157930D01*
X149545678Y-87258945D01*
X149545678Y-87326289D01*
X149512006Y-87427304D01*
X149377319Y-87561991D01*
X149276304Y-87595663D01*
X149208961Y-87595663D01*
X149107945Y-87561991D01*
X148939586Y-87393632D01*
X148905915Y-87292617D01*
X148905915Y-87225274D01*
X148939586Y-87124258D01*
X149074274Y-86989571D01*
X149175289Y-86955899D01*
X149242632Y-86955899D01*
X149343648Y-86989571D01*
X148299823Y-87225274D02*
X147862090Y-87663006D01*
X148367167Y-87696678D01*
X148266151Y-87797693D01*
X148232480Y-87898709D01*
X148232480Y-87966052D01*
X148266151Y-88067067D01*
X148434510Y-88235426D01*
X148535525Y-88269098D01*
X148602869Y-88269098D01*
X148703884Y-88235426D01*
X148905915Y-88033396D01*
X148939586Y-87932380D01*
X148939586Y-87865037D01*
%TO.C,L32*%
X144663776Y-68113438D02*
X145000493Y-67776721D01*
X144293387Y-67069614D01*
X143788310Y-67574690D02*
X143350577Y-68012423D01*
X143855654Y-68046095D01*
X143754638Y-68147110D01*
X143720967Y-68248126D01*
X143720967Y-68315469D01*
X143754638Y-68416484D01*
X143922997Y-68584843D01*
X144024013Y-68618515D01*
X144091356Y-68618515D01*
X144192371Y-68584843D01*
X144394402Y-68382813D01*
X144428074Y-68281797D01*
X144428074Y-68214454D01*
X143148547Y-68349141D02*
X143081203Y-68349141D01*
X142980188Y-68382813D01*
X142811829Y-68551171D01*
X142778158Y-68652187D01*
X142778158Y-68719530D01*
X142811829Y-68820545D01*
X142879173Y-68887889D01*
X143013860Y-68955232D01*
X143821982Y-68955232D01*
X143384249Y-69392965D01*
%TO.C,L36*%
X149315324Y-58794986D02*
X149652041Y-58458269D01*
X148944935Y-57751162D01*
X148439858Y-58256238D02*
X148002125Y-58693971D01*
X148507202Y-58727643D01*
X148406186Y-58828658D01*
X148372515Y-58929674D01*
X148372515Y-58997017D01*
X148406186Y-59098032D01*
X148574545Y-59266391D01*
X148675561Y-59300063D01*
X148742904Y-59300063D01*
X148843919Y-59266391D01*
X149045950Y-59064361D01*
X149079622Y-58963345D01*
X149079622Y-58896002D01*
X147396034Y-59300063D02*
X147530721Y-59165376D01*
X147631736Y-59131704D01*
X147699080Y-59131704D01*
X147867438Y-59165376D01*
X148035797Y-59266391D01*
X148305171Y-59535765D01*
X148338843Y-59636780D01*
X148338843Y-59704124D01*
X148305171Y-59805139D01*
X148170484Y-59939826D01*
X148069469Y-59973498D01*
X148002125Y-59973498D01*
X147901110Y-59939826D01*
X147732751Y-59771467D01*
X147699080Y-59670452D01*
X147699080Y-59603109D01*
X147732751Y-59502093D01*
X147867438Y-59367406D01*
X147968454Y-59333735D01*
X148035797Y-59333735D01*
X148136812Y-59367406D01*
%TO.C,L60*%
X138982786Y-82815275D02*
X138646069Y-82478558D01*
X137938962Y-83185664D01*
X138814428Y-84061130D02*
X138679741Y-83926443D01*
X138646069Y-83825428D01*
X138646069Y-83758084D01*
X138679741Y-83589726D01*
X138780756Y-83421367D01*
X139050130Y-83151993D01*
X139151145Y-83118321D01*
X139218489Y-83118321D01*
X139319504Y-83151993D01*
X139454191Y-83286680D01*
X139487863Y-83387695D01*
X139487863Y-83455038D01*
X139454191Y-83556054D01*
X139285832Y-83724413D01*
X139184817Y-83758084D01*
X139117474Y-83758084D01*
X139016458Y-83724413D01*
X138881771Y-83589726D01*
X138848099Y-83488710D01*
X138848099Y-83421367D01*
X138881771Y-83320351D01*
X139319504Y-84566206D02*
X139386848Y-84633550D01*
X139487863Y-84667222D01*
X139555206Y-84667222D01*
X139656222Y-84633550D01*
X139824580Y-84532535D01*
X139992939Y-84364176D01*
X140093954Y-84195817D01*
X140127626Y-84094802D01*
X140127626Y-84027458D01*
X140093954Y-83926443D01*
X140026611Y-83859100D01*
X139925596Y-83825428D01*
X139858252Y-83825428D01*
X139757237Y-83859100D01*
X139588878Y-83960115D01*
X139420519Y-84128474D01*
X139319504Y-84296832D01*
X139285832Y-84397848D01*
X139285832Y-84465191D01*
X139319504Y-84566206D01*
%TO.C,L64*%
X148377438Y-87822423D02*
X148040721Y-87485706D01*
X147333614Y-88192812D01*
X148209080Y-89068278D02*
X148074393Y-88933591D01*
X148040721Y-88832576D01*
X148040721Y-88765232D01*
X148074393Y-88596874D01*
X148175408Y-88428515D01*
X148444782Y-88159141D01*
X148545797Y-88125469D01*
X148613141Y-88125469D01*
X148714156Y-88159141D01*
X148848843Y-88293828D01*
X148882515Y-88394843D01*
X148882515Y-88462186D01*
X148848843Y-88563202D01*
X148680484Y-88731561D01*
X148579469Y-88765232D01*
X148512126Y-88765232D01*
X148411110Y-88731561D01*
X148276423Y-88596874D01*
X148242751Y-88495858D01*
X148242751Y-88428515D01*
X148276423Y-88327499D01*
X149118217Y-89506011D02*
X149589622Y-89034606D01*
X148680484Y-89607026D02*
X149017202Y-88933591D01*
X149454935Y-89371324D01*
%TO.C,L39*%
X147288586Y-67829275D02*
X146951869Y-67492558D01*
X146244762Y-68199664D01*
X146749838Y-68704741D02*
X147187571Y-69142474D01*
X147221243Y-68637397D01*
X147322258Y-68738413D01*
X147423274Y-68772084D01*
X147490617Y-68772084D01*
X147591632Y-68738413D01*
X147759991Y-68570054D01*
X147793663Y-68469038D01*
X147793663Y-68401695D01*
X147759991Y-68300680D01*
X147557961Y-68098649D01*
X147456945Y-68064977D01*
X147389602Y-68064977D01*
X148231396Y-68772084D02*
X148366083Y-68906771D01*
X148399754Y-69007787D01*
X148399754Y-69075130D01*
X148366083Y-69243489D01*
X148265067Y-69411848D01*
X147995693Y-69681222D01*
X147894678Y-69714893D01*
X147827335Y-69714893D01*
X147726319Y-69681222D01*
X147591632Y-69546535D01*
X147557961Y-69445519D01*
X147557961Y-69378176D01*
X147591632Y-69277161D01*
X147759991Y-69108802D01*
X147861006Y-69075130D01*
X147928350Y-69075130D01*
X148029365Y-69108802D01*
X148164052Y-69243489D01*
X148197724Y-69344504D01*
X148197724Y-69411848D01*
X148164052Y-69512863D01*
%TO.C,L57*%
X148959724Y-76041586D02*
X149296441Y-75704869D01*
X148589335Y-74997762D01*
X147680197Y-75906899D02*
X148016915Y-75570182D01*
X148387304Y-75873228D01*
X148319961Y-75873228D01*
X148218945Y-75906899D01*
X148050586Y-76075258D01*
X148016915Y-76176274D01*
X148016915Y-76243617D01*
X148050586Y-76344632D01*
X148218945Y-76512991D01*
X148319961Y-76546663D01*
X148387304Y-76546663D01*
X148488319Y-76512991D01*
X148656678Y-76344632D01*
X148690350Y-76243617D01*
X148690350Y-76176274D01*
X147410823Y-76176274D02*
X146939419Y-76647678D01*
X147949571Y-77051739D01*
%TO.C,L17*%
X136383376Y-52670238D02*
X136720093Y-52333521D01*
X136012987Y-51626414D01*
X135777284Y-53276330D02*
X136181345Y-52872269D01*
X135979315Y-53074300D02*
X135272208Y-52367193D01*
X135440567Y-52400864D01*
X135575254Y-52400864D01*
X135676269Y-52367193D01*
X134834475Y-52804926D02*
X134363071Y-53276330D01*
X135373223Y-53680391D01*
%TO.C,L23*%
X140015576Y-56505638D02*
X140352293Y-56168921D01*
X139645187Y-55461814D01*
X139173782Y-56067906D02*
X139106438Y-56067906D01*
X139005423Y-56101577D01*
X138837064Y-56269936D01*
X138803393Y-56370951D01*
X138803393Y-56438295D01*
X138837064Y-56539310D01*
X138904408Y-56606654D01*
X139039095Y-56673997D01*
X139847217Y-56673997D01*
X139409484Y-57111730D01*
X138466675Y-56640326D02*
X138028942Y-57078058D01*
X138534019Y-57111730D01*
X138433003Y-57212745D01*
X138399332Y-57313761D01*
X138399332Y-57381104D01*
X138433003Y-57482119D01*
X138601362Y-57650478D01*
X138702377Y-57684150D01*
X138769721Y-57684150D01*
X138870736Y-57650478D01*
X139072767Y-57448448D01*
X139106438Y-57347432D01*
X139106438Y-57280089D01*
%TO.C,L42*%
X155153976Y-68900838D02*
X155490693Y-68564121D01*
X154783587Y-67857014D01*
X154143823Y-68968182D02*
X154615228Y-69439587D01*
X154042808Y-68530449D02*
X154716243Y-68867167D01*
X154278510Y-69304900D01*
X153638747Y-69136541D02*
X153571403Y-69136541D01*
X153470388Y-69170213D01*
X153302029Y-69338571D01*
X153268358Y-69439587D01*
X153268358Y-69506930D01*
X153302029Y-69607945D01*
X153369373Y-69675289D01*
X153504060Y-69742632D01*
X154312182Y-69742632D01*
X153874449Y-70180365D01*
%TO.C,L48*%
X160341176Y-72132038D02*
X160677893Y-71795321D01*
X159970787Y-71088214D01*
X159331023Y-72199382D02*
X159802428Y-72670787D01*
X159230008Y-71761649D02*
X159903443Y-72098367D01*
X159465710Y-72536100D01*
X158926962Y-72738130D02*
X158960634Y-72637115D01*
X158960634Y-72569771D01*
X158926962Y-72468756D01*
X158893290Y-72435084D01*
X158792275Y-72401413D01*
X158724932Y-72401413D01*
X158623916Y-72435084D01*
X158489229Y-72569771D01*
X158455558Y-72670787D01*
X158455558Y-72738130D01*
X158489229Y-72839145D01*
X158522901Y-72872817D01*
X158623916Y-72906489D01*
X158691260Y-72906489D01*
X158792275Y-72872817D01*
X158926962Y-72738130D01*
X159027977Y-72704458D01*
X159095321Y-72704458D01*
X159196336Y-72738130D01*
X159331023Y-72872817D01*
X159364695Y-72973832D01*
X159364695Y-73041176D01*
X159331023Y-73142191D01*
X159196336Y-73276878D01*
X159095321Y-73310550D01*
X159027977Y-73310550D01*
X158926962Y-73276878D01*
X158792275Y-73142191D01*
X158758603Y-73041176D01*
X158758603Y-72973832D01*
X158792275Y-72872817D01*
%TO.C,L54*%
X151555786Y-77532075D02*
X151219069Y-77195358D01*
X150511962Y-77902464D01*
X151421099Y-78811602D02*
X151084382Y-78474884D01*
X151387428Y-78104495D01*
X151387428Y-78171838D01*
X151421099Y-78272854D01*
X151589458Y-78441213D01*
X151690474Y-78474884D01*
X151757817Y-78474884D01*
X151858832Y-78441213D01*
X152027191Y-78272854D01*
X152060863Y-78171838D01*
X152060863Y-78104495D01*
X152027191Y-78003480D01*
X151858832Y-77835121D01*
X151757817Y-77801449D01*
X151690474Y-77801449D01*
X152296565Y-79215663D02*
X152767970Y-78744258D01*
X151858832Y-79316678D02*
X152195550Y-78643243D01*
X152633283Y-79080976D01*
%TO.C,L40*%
X153432038Y-62158823D02*
X153095321Y-61822106D01*
X152388214Y-62529212D01*
X153499382Y-63168976D02*
X153970787Y-62697571D01*
X153061649Y-63269991D02*
X153398367Y-62596556D01*
X153836100Y-63034289D01*
X153768756Y-63909754D02*
X153836100Y-63977098D01*
X153937115Y-64010770D01*
X154004458Y-64010770D01*
X154105474Y-63977098D01*
X154273832Y-63876083D01*
X154442191Y-63707724D01*
X154543206Y-63539365D01*
X154576878Y-63438350D01*
X154576878Y-63371006D01*
X154543206Y-63269991D01*
X154475863Y-63202648D01*
X154374848Y-63168976D01*
X154307504Y-63168976D01*
X154206489Y-63202648D01*
X154038130Y-63303663D01*
X153869771Y-63472022D01*
X153768756Y-63640380D01*
X153735084Y-63741396D01*
X153735084Y-63808739D01*
X153768756Y-63909754D01*
%TO.C,L58*%
X155763576Y-81016638D02*
X156100293Y-80679921D01*
X155393187Y-79972814D01*
X154484049Y-80881951D02*
X154820767Y-80545234D01*
X155191156Y-80848280D01*
X155123813Y-80848280D01*
X155022797Y-80881951D01*
X154854438Y-81050310D01*
X154820767Y-81151326D01*
X154820767Y-81218669D01*
X154854438Y-81319684D01*
X155022797Y-81488043D01*
X155123813Y-81521715D01*
X155191156Y-81521715D01*
X155292171Y-81488043D01*
X155460530Y-81319684D01*
X155494202Y-81218669D01*
X155494202Y-81151326D01*
X154349362Y-81622730D02*
X154383034Y-81521715D01*
X154383034Y-81454371D01*
X154349362Y-81353356D01*
X154315690Y-81319684D01*
X154214675Y-81286013D01*
X154147332Y-81286013D01*
X154046316Y-81319684D01*
X153911629Y-81454371D01*
X153877958Y-81555387D01*
X153877958Y-81622730D01*
X153911629Y-81723745D01*
X153945301Y-81757417D01*
X154046316Y-81791089D01*
X154113660Y-81791089D01*
X154214675Y-81757417D01*
X154349362Y-81622730D01*
X154450377Y-81589058D01*
X154517721Y-81589058D01*
X154618736Y-81622730D01*
X154753423Y-81757417D01*
X154787095Y-81858432D01*
X154787095Y-81925776D01*
X154753423Y-82026791D01*
X154618736Y-82161478D01*
X154517721Y-82195150D01*
X154450377Y-82195150D01*
X154349362Y-82161478D01*
X154214675Y-82026791D01*
X154181003Y-81925776D01*
X154181003Y-81858432D01*
X154214675Y-81757417D01*
%TO.C,L33*%
X181646176Y-92141838D02*
X181982893Y-91805121D01*
X181275787Y-91098014D01*
X180770710Y-91603090D02*
X180332977Y-92040823D01*
X180838054Y-92074495D01*
X180737038Y-92175510D01*
X180703367Y-92276526D01*
X180703367Y-92343869D01*
X180737038Y-92444884D01*
X180905397Y-92613243D01*
X181006413Y-92646915D01*
X181073756Y-92646915D01*
X181174771Y-92613243D01*
X181376802Y-92411213D01*
X181410474Y-92310197D01*
X181410474Y-92242854D01*
X180097275Y-92276526D02*
X179659542Y-92714258D01*
X180164619Y-92747930D01*
X180063603Y-92848945D01*
X180029932Y-92949961D01*
X180029932Y-93017304D01*
X180063603Y-93118319D01*
X180231962Y-93286678D01*
X180332977Y-93320350D01*
X180400321Y-93320350D01*
X180501336Y-93286678D01*
X180703367Y-93084648D01*
X180737038Y-92983632D01*
X180737038Y-92916289D01*
%TO.C,L61*%
X156298586Y-99892275D02*
X155961869Y-99555558D01*
X155254762Y-100262664D01*
X156130228Y-101138130D02*
X155995541Y-101003443D01*
X155961869Y-100902428D01*
X155961869Y-100835084D01*
X155995541Y-100666726D01*
X156096556Y-100498367D01*
X156365930Y-100228993D01*
X156466945Y-100195321D01*
X156534289Y-100195321D01*
X156635304Y-100228993D01*
X156769991Y-100363680D01*
X156803663Y-100464695D01*
X156803663Y-100532038D01*
X156769991Y-100633054D01*
X156601632Y-100801413D01*
X156500617Y-100835084D01*
X156433274Y-100835084D01*
X156332258Y-100801413D01*
X156197571Y-100666726D01*
X156163899Y-100565710D01*
X156163899Y-100498367D01*
X156197571Y-100397351D01*
X157578113Y-101171802D02*
X157174052Y-100767741D01*
X157376083Y-100969771D02*
X156668976Y-101676878D01*
X156702648Y-101508519D01*
X156702648Y-101373832D01*
X156668976Y-101272817D01*
D11*
%TO.C,L65*%
X149692250Y-93380439D02*
X149422876Y-93111065D01*
X148857190Y-93676751D01*
X149557563Y-94377123D02*
X149449813Y-94269374D01*
X149422876Y-94188561D01*
X149422876Y-94134687D01*
X149449813Y-94000000D01*
X149530625Y-93865312D01*
X149746125Y-93649813D01*
X149826937Y-93622876D01*
X149880812Y-93622876D01*
X149961624Y-93649813D01*
X150069374Y-93757563D01*
X150096311Y-93838375D01*
X150096311Y-93892250D01*
X150069374Y-93973062D01*
X149934687Y-94107749D01*
X149853874Y-94134687D01*
X149800000Y-94134687D01*
X149719187Y-94107749D01*
X149611438Y-94000000D01*
X149584500Y-93919187D01*
X149584500Y-93865312D01*
X149611438Y-93784500D01*
X150123248Y-94942809D02*
X149853874Y-94673435D01*
X150096311Y-94377123D01*
X150096311Y-94430998D01*
X150123248Y-94511810D01*
X150257935Y-94646497D01*
X150338748Y-94673435D01*
X150392622Y-94673435D01*
X150473435Y-94646497D01*
X150608122Y-94511810D01*
X150635059Y-94430998D01*
X150635059Y-94377123D01*
X150608122Y-94296311D01*
X150473435Y-94161624D01*
X150392622Y-94134687D01*
X150338748Y-94134687D01*
D10*
%TO.C,L34*%
X180874737Y-85343922D02*
X180538020Y-85007205D01*
X179830913Y-85714311D01*
X180335989Y-86219388D02*
X180773722Y-86657121D01*
X180807394Y-86152044D01*
X180908409Y-86253060D01*
X181009425Y-86286731D01*
X181076768Y-86286731D01*
X181177783Y-86253060D01*
X181346142Y-86084701D01*
X181379814Y-85983685D01*
X181379814Y-85916342D01*
X181346142Y-85815327D01*
X181144112Y-85613296D01*
X181043096Y-85579624D01*
X180975753Y-85579624D01*
X181615516Y-87027510D02*
X182086921Y-86556105D01*
X181177783Y-87128525D02*
X181514501Y-86455090D01*
X181952234Y-86892823D01*
%TO.C,L62*%
X162541176Y-99732038D02*
X162877893Y-99395321D01*
X162170787Y-98688214D01*
X161295321Y-99563680D02*
X161430008Y-99428993D01*
X161531023Y-99395321D01*
X161598367Y-99395321D01*
X161766726Y-99428993D01*
X161935084Y-99530008D01*
X162204458Y-99799382D01*
X162238130Y-99900397D01*
X162238130Y-99967741D01*
X162204458Y-100068756D01*
X162069771Y-100203443D01*
X161968756Y-100237115D01*
X161901413Y-100237115D01*
X161800397Y-100203443D01*
X161632038Y-100035084D01*
X161598367Y-99934069D01*
X161598367Y-99866726D01*
X161632038Y-99765710D01*
X161766726Y-99631023D01*
X161867741Y-99597351D01*
X161935084Y-99597351D01*
X162036100Y-99631023D01*
X161025947Y-99967741D02*
X160958603Y-99967741D01*
X160857588Y-100001413D01*
X160689229Y-100169771D01*
X160655558Y-100270787D01*
X160655558Y-100338130D01*
X160689229Y-100439145D01*
X160756573Y-100506489D01*
X160891260Y-100573832D01*
X161699382Y-100573832D01*
X161261649Y-101011565D01*
%TO.C,L66*%
X153579176Y-90821038D02*
X153915893Y-90484321D01*
X153208787Y-89777214D01*
X152333321Y-90652680D02*
X152468008Y-90517993D01*
X152569023Y-90484321D01*
X152636367Y-90484321D01*
X152804726Y-90517993D01*
X152973084Y-90619008D01*
X153242458Y-90888382D01*
X153276130Y-90989397D01*
X153276130Y-91056741D01*
X153242458Y-91157756D01*
X153107771Y-91292443D01*
X153006756Y-91326115D01*
X152939413Y-91326115D01*
X152838397Y-91292443D01*
X152670038Y-91124084D01*
X152636367Y-91023069D01*
X152636367Y-90955726D01*
X152670038Y-90854710D01*
X152804726Y-90720023D01*
X152905741Y-90686351D01*
X152973084Y-90686351D01*
X153074100Y-90720023D01*
X151659886Y-91326115D02*
X151794573Y-91191428D01*
X151895588Y-91157756D01*
X151962932Y-91157756D01*
X152131290Y-91191428D01*
X152299649Y-91292443D01*
X152569023Y-91561817D01*
X152602695Y-91662832D01*
X152602695Y-91730176D01*
X152569023Y-91831191D01*
X152434336Y-91965878D01*
X152333321Y-91999550D01*
X152265977Y-91999550D01*
X152164962Y-91965878D01*
X151996603Y-91797519D01*
X151962932Y-91696504D01*
X151962932Y-91629161D01*
X151996603Y-91528145D01*
X152131290Y-91393458D01*
X152232306Y-91359787D01*
X152299649Y-91359787D01*
X152400664Y-91393458D01*
%TO.C,L29*%
X172353124Y-96945786D02*
X172689841Y-96609069D01*
X171982735Y-95901962D01*
X171511330Y-96508054D02*
X171443986Y-96508054D01*
X171342971Y-96541725D01*
X171174612Y-96710084D01*
X171140941Y-96811099D01*
X171140941Y-96878443D01*
X171174612Y-96979458D01*
X171241956Y-97046802D01*
X171376643Y-97114145D01*
X172184765Y-97114145D01*
X171747032Y-97551878D01*
X171410315Y-97888596D02*
X171275628Y-98023283D01*
X171174612Y-98056954D01*
X171107269Y-98056954D01*
X170938910Y-98023283D01*
X170770551Y-97922267D01*
X170501177Y-97652893D01*
X170467506Y-97551878D01*
X170467506Y-97484535D01*
X170501177Y-97383519D01*
X170635864Y-97248832D01*
X170736880Y-97215161D01*
X170804223Y-97215161D01*
X170905238Y-97248832D01*
X171073597Y-97417191D01*
X171107269Y-97518206D01*
X171107269Y-97585550D01*
X171073597Y-97686565D01*
X170938910Y-97821252D01*
X170837895Y-97854924D01*
X170770551Y-97854924D01*
X170669536Y-97821252D01*
%TO.C,L30*%
X171019537Y-94894322D02*
X170682820Y-94557605D01*
X169975713Y-95264711D01*
X170480789Y-95769788D02*
X170918522Y-96207521D01*
X170952194Y-95702444D01*
X171053209Y-95803460D01*
X171154225Y-95837131D01*
X171221568Y-95837131D01*
X171322583Y-95803460D01*
X171490942Y-95635101D01*
X171524614Y-95534085D01*
X171524614Y-95466742D01*
X171490942Y-95365727D01*
X171288912Y-95163696D01*
X171187896Y-95130024D01*
X171120553Y-95130024D01*
X171356255Y-96645253D02*
X171423599Y-96712597D01*
X171524614Y-96746269D01*
X171591957Y-96746269D01*
X171692973Y-96712597D01*
X171861331Y-96611582D01*
X172029690Y-96443223D01*
X172130705Y-96274864D01*
X172164377Y-96173849D01*
X172164377Y-96106505D01*
X172130705Y-96005490D01*
X172063362Y-95938147D01*
X171962347Y-95904475D01*
X171895003Y-95904475D01*
X171793988Y-95938147D01*
X171625629Y-96039162D01*
X171457270Y-96207521D01*
X171356255Y-96375879D01*
X171322583Y-96476895D01*
X171322583Y-96544238D01*
X171356255Y-96645253D01*
%TO.C,L7*%
X131004458Y-97168756D02*
X131341176Y-96832038D01*
X130634069Y-96124932D01*
X130128993Y-96630008D02*
X129657588Y-97101413D01*
X130667741Y-97505474D01*
%TO.C,L9*%
X141554704Y-105427793D02*
X141217986Y-105091075D01*
X140510880Y-105798182D01*
X141824078Y-105697167D02*
X141958765Y-105831854D01*
X141992437Y-105932869D01*
X141992437Y-106000213D01*
X141958765Y-106168571D01*
X141857750Y-106336930D01*
X141588376Y-106606304D01*
X141487361Y-106639976D01*
X141420017Y-106639976D01*
X141319002Y-106606304D01*
X141184315Y-106471617D01*
X141150643Y-106370602D01*
X141150643Y-106303258D01*
X141184315Y-106202243D01*
X141352674Y-106033884D01*
X141453689Y-106000213D01*
X141521032Y-106000213D01*
X141622048Y-106033884D01*
X141756735Y-106168571D01*
X141790406Y-106269587D01*
X141790406Y-106336930D01*
X141756735Y-106437945D01*
%TO.C,R18*%
X138193287Y-103502149D02*
X138092272Y-102929730D01*
X138597348Y-103098088D02*
X137890241Y-102390982D01*
X137620867Y-102660356D01*
X137587195Y-102761371D01*
X137587195Y-102828714D01*
X137620867Y-102929730D01*
X137721882Y-103030745D01*
X137822898Y-103064417D01*
X137890241Y-103064417D01*
X137991256Y-103030745D01*
X138260630Y-102761371D01*
X137519852Y-104175585D02*
X137923913Y-103771524D01*
X137721882Y-103973554D02*
X137014775Y-103266447D01*
X137183134Y-103300119D01*
X137317821Y-103300119D01*
X137418837Y-103266447D01*
X136711730Y-104175585D02*
X136745401Y-104074569D01*
X136745401Y-104007226D01*
X136711730Y-103906211D01*
X136678058Y-103872539D01*
X136577043Y-103838867D01*
X136509699Y-103838867D01*
X136408684Y-103872539D01*
X136273997Y-104007226D01*
X136240325Y-104108241D01*
X136240325Y-104175585D01*
X136273997Y-104276600D01*
X136307669Y-104310272D01*
X136408684Y-104343943D01*
X136476027Y-104343943D01*
X136577043Y-104310272D01*
X136711730Y-104175585D01*
X136812745Y-104141913D01*
X136880088Y-104141913D01*
X136981104Y-104175585D01*
X137115791Y-104310272D01*
X137149462Y-104411287D01*
X137149462Y-104478630D01*
X137115791Y-104579646D01*
X136981104Y-104714333D01*
X136880088Y-104748004D01*
X136812745Y-104748004D01*
X136711730Y-104714333D01*
X136577043Y-104579646D01*
X136543371Y-104478630D01*
X136543371Y-104411287D01*
X136577043Y-104310272D01*
%TO.C,C42*%
X174605606Y-91896456D02*
X174605606Y-91829112D01*
X174538262Y-91694425D01*
X174470919Y-91627082D01*
X174336232Y-91559738D01*
X174201545Y-91559738D01*
X174100530Y-91593410D01*
X173932171Y-91694425D01*
X173831156Y-91795440D01*
X173730140Y-91963799D01*
X173696469Y-92064814D01*
X173696469Y-92199501D01*
X173763812Y-92334188D01*
X173831156Y-92401532D01*
X173965843Y-92468875D01*
X174033186Y-92468875D01*
X174807637Y-92906608D02*
X175279041Y-92435204D01*
X174369904Y-93007624D02*
X174706621Y-92334188D01*
X175144354Y-92771921D01*
X174975995Y-93411685D02*
X174975995Y-93479028D01*
X175009667Y-93580043D01*
X175178026Y-93748402D01*
X175279041Y-93782074D01*
X175346385Y-93782074D01*
X175447400Y-93748402D01*
X175514743Y-93681059D01*
X175582087Y-93546372D01*
X175582087Y-92738250D01*
X176019820Y-93175982D01*
%TO.C,L51*%
X155307724Y-72398586D02*
X155644441Y-72061869D01*
X154937335Y-71354762D01*
X154028197Y-72263899D02*
X154364915Y-71927182D01*
X154735304Y-72230228D01*
X154667961Y-72230228D01*
X154566945Y-72263899D01*
X154398586Y-72432258D01*
X154364915Y-72533274D01*
X154364915Y-72600617D01*
X154398586Y-72701632D01*
X154566945Y-72869991D01*
X154667961Y-72903663D01*
X154735304Y-72903663D01*
X154836319Y-72869991D01*
X155004678Y-72701632D01*
X155038350Y-72600617D01*
X155038350Y-72533274D01*
X154028197Y-73678113D02*
X154432258Y-73274052D01*
X154230228Y-73476083D02*
X153523121Y-72768976D01*
X153691480Y-72802648D01*
X153826167Y-72802648D01*
X153927182Y-72768976D01*
%TO.C,L14*%
X134606757Y-46681380D02*
X135082947Y-46681380D01*
X135082947Y-45681380D01*
X133749614Y-46681380D02*
X134321042Y-46681380D01*
X134035328Y-46681380D02*
X134035328Y-45681380D01*
X134130566Y-45824238D01*
X134225804Y-45919476D01*
X134321042Y-45967095D01*
X132892471Y-46014714D02*
X132892471Y-46681380D01*
X133130566Y-45633761D02*
X133368661Y-46348047D01*
X132749614Y-46348047D01*
%TO.C,L6*%
X145952658Y-111833356D02*
X146289376Y-111496638D01*
X145582269Y-110789532D01*
X144706803Y-111664997D02*
X144841490Y-111530310D01*
X144942506Y-111496638D01*
X145009849Y-111496638D01*
X145178208Y-111530310D01*
X145346567Y-111631326D01*
X145615941Y-111900700D01*
X145649613Y-112001715D01*
X145649613Y-112069058D01*
X145615941Y-112170074D01*
X145481254Y-112304761D01*
X145380238Y-112338432D01*
X145312895Y-112338432D01*
X145211880Y-112304761D01*
X145043521Y-112136402D01*
X145009849Y-112035387D01*
X145009849Y-111968043D01*
X145043521Y-111867028D01*
X145178208Y-111732341D01*
X145279223Y-111698669D01*
X145346567Y-111698669D01*
X145447582Y-111732341D01*
%TO.C,L41*%
X171006924Y-85439586D02*
X171343641Y-85102869D01*
X170636535Y-84395762D01*
X169996771Y-85506930D02*
X170468176Y-85978335D01*
X169895756Y-85069197D02*
X170569191Y-85405915D01*
X170131458Y-85843648D01*
X169727397Y-86719113D02*
X170131458Y-86315052D01*
X169929428Y-86517083D02*
X169222321Y-85809976D01*
X169390680Y-85843648D01*
X169525367Y-85843648D01*
X169626382Y-85809976D01*
%TO.C,L49*%
X164529924Y-80537386D02*
X164866641Y-80200669D01*
X164159535Y-79493562D01*
X163519771Y-80604730D02*
X163991176Y-81076135D01*
X163418756Y-80166997D02*
X164092191Y-80503715D01*
X163654458Y-80941448D01*
X163587115Y-81480196D02*
X163452428Y-81614883D01*
X163351412Y-81648554D01*
X163284069Y-81648554D01*
X163115710Y-81614883D01*
X162947351Y-81513867D01*
X162677977Y-81244493D01*
X162644306Y-81143478D01*
X162644306Y-81076135D01*
X162677977Y-80975119D01*
X162812664Y-80840432D01*
X162913680Y-80806761D01*
X162981023Y-80806761D01*
X163082038Y-80840432D01*
X163250397Y-81008791D01*
X163284069Y-81109806D01*
X163284069Y-81177150D01*
X163250397Y-81278165D01*
X163115710Y-81412852D01*
X163014695Y-81446524D01*
X162947351Y-81446524D01*
X162846336Y-81412852D01*
%TO.C,L20*%
X136518986Y-51392275D02*
X136182269Y-51055558D01*
X135475162Y-51762664D01*
X136081254Y-52234069D02*
X136081254Y-52301413D01*
X136114925Y-52402428D01*
X136283284Y-52570787D01*
X136384299Y-52604458D01*
X136451643Y-52604458D01*
X136552658Y-52570787D01*
X136620002Y-52503443D01*
X136687345Y-52368756D01*
X136687345Y-51560634D01*
X137125078Y-51998367D01*
X136855704Y-53143206D02*
X136923048Y-53210550D01*
X137024063Y-53244222D01*
X137091406Y-53244222D01*
X137192422Y-53210550D01*
X137360780Y-53109535D01*
X137529139Y-52941176D01*
X137630154Y-52772817D01*
X137663826Y-52671802D01*
X137663826Y-52604458D01*
X137630154Y-52503443D01*
X137562811Y-52436100D01*
X137461796Y-52402428D01*
X137394452Y-52402428D01*
X137293437Y-52436100D01*
X137125078Y-52537115D01*
X136956719Y-52705474D01*
X136855704Y-52873832D01*
X136822032Y-52974848D01*
X136822032Y-53042191D01*
X136855704Y-53143206D01*
%TO.C,L15*%
X191207380Y-103116142D02*
X191207380Y-102639952D01*
X190207380Y-102639952D01*
X191207380Y-103973285D02*
X191207380Y-103401857D01*
X191207380Y-103687571D02*
X190207380Y-103687571D01*
X190350238Y-103592333D01*
X190445476Y-103497095D01*
X190493095Y-103401857D01*
X190207380Y-104878047D02*
X190207380Y-104401857D01*
X190683571Y-104354238D01*
X190635952Y-104401857D01*
X190588333Y-104497095D01*
X190588333Y-104735190D01*
X190635952Y-104830428D01*
X190683571Y-104878047D01*
X190778809Y-104925666D01*
X191016904Y-104925666D01*
X191112142Y-104878047D01*
X191159761Y-104830428D01*
X191207380Y-104735190D01*
X191207380Y-104497095D01*
X191159761Y-104401857D01*
X191112142Y-104354238D01*
%TO.C,L44*%
X167354586Y-88149275D02*
X167017869Y-87812558D01*
X166310762Y-88519664D01*
X167421930Y-89159428D02*
X167893335Y-88688023D01*
X166984197Y-89260443D02*
X167320915Y-88587008D01*
X167758648Y-89024741D01*
X168095365Y-89832863D02*
X168566770Y-89361458D01*
X167657632Y-89933878D02*
X167994350Y-89260443D01*
X168432083Y-89698176D01*
%TO.C,R17*%
X127963287Y-93154149D02*
X127862272Y-92581730D01*
X128367348Y-92750088D02*
X127660241Y-92042982D01*
X127390867Y-92312356D01*
X127357195Y-92413371D01*
X127357195Y-92480714D01*
X127390867Y-92581730D01*
X127491882Y-92682745D01*
X127592898Y-92716417D01*
X127660241Y-92716417D01*
X127761256Y-92682745D01*
X128030630Y-92413371D01*
X127289852Y-93827585D02*
X127693913Y-93423524D01*
X127491882Y-93625554D02*
X126784775Y-92918447D01*
X126953134Y-92952119D01*
X127087821Y-92952119D01*
X127188837Y-92918447D01*
X126347043Y-93356180D02*
X125875638Y-93827585D01*
X126885791Y-94231646D01*
%TO.C,L18*%
X186678724Y-104438786D02*
X187015441Y-104102069D01*
X186308335Y-103394962D01*
X186072632Y-105044878D02*
X186476693Y-104640817D01*
X186274663Y-104842848D02*
X185567556Y-104135741D01*
X185735915Y-104169412D01*
X185870602Y-104169412D01*
X185971617Y-104135741D01*
X185264510Y-105044878D02*
X185298182Y-104943863D01*
X185298182Y-104876519D01*
X185264510Y-104775504D01*
X185230838Y-104741832D01*
X185129823Y-104708161D01*
X185062480Y-104708161D01*
X184961464Y-104741832D01*
X184826777Y-104876519D01*
X184793106Y-104977535D01*
X184793106Y-105044878D01*
X184826777Y-105145893D01*
X184860449Y-105179565D01*
X184961464Y-105213237D01*
X185028808Y-105213237D01*
X185129823Y-105179565D01*
X185264510Y-105044878D01*
X185365525Y-105011206D01*
X185432869Y-105011206D01*
X185533884Y-105044878D01*
X185668571Y-105179565D01*
X185702243Y-105280580D01*
X185702243Y-105347924D01*
X185668571Y-105448939D01*
X185533884Y-105583626D01*
X185432869Y-105617298D01*
X185365525Y-105617298D01*
X185264510Y-105583626D01*
X185129823Y-105448939D01*
X185096151Y-105347924D01*
X185096151Y-105280580D01*
X185129823Y-105179565D01*
%TO.C,L72*%
X160510457Y-102789980D02*
X160986647Y-102789980D01*
X160986647Y-101789980D01*
X160272361Y-101789980D02*
X159605695Y-101789980D01*
X160034266Y-102789980D01*
X159272361Y-101885219D02*
X159224742Y-101837600D01*
X159129504Y-101789980D01*
X158891409Y-101789980D01*
X158796171Y-101837600D01*
X158748552Y-101885219D01*
X158700933Y-101980457D01*
X158700933Y-102075695D01*
X158748552Y-102218552D01*
X159319980Y-102789980D01*
X158700933Y-102789980D01*
%TO.C,C74*%
X212629047Y-106227142D02*
X212676666Y-106274761D01*
X212819523Y-106322380D01*
X212914761Y-106322380D01*
X213057618Y-106274761D01*
X213152856Y-106179523D01*
X213200475Y-106084285D01*
X213248094Y-105893809D01*
X213248094Y-105750952D01*
X213200475Y-105560476D01*
X213152856Y-105465238D01*
X213057618Y-105370000D01*
X212914761Y-105322380D01*
X212819523Y-105322380D01*
X212676666Y-105370000D01*
X212629047Y-105417619D01*
X212295713Y-105322380D02*
X211629047Y-105322380D01*
X212057618Y-106322380D01*
X210819523Y-105655714D02*
X210819523Y-106322380D01*
X211057618Y-105274761D02*
X211295713Y-105989047D01*
X210676666Y-105989047D01*
%TO.C,L13*%
X128498586Y-50892275D02*
X128161869Y-50555558D01*
X127454762Y-51262664D01*
X129104678Y-51498367D02*
X128700617Y-51094306D01*
X128902648Y-51296336D02*
X128195541Y-52003443D01*
X128229212Y-51835084D01*
X128229212Y-51700397D01*
X128195541Y-51599382D01*
X128633274Y-52441176D02*
X129071006Y-52878909D01*
X129104678Y-52373832D01*
X129205693Y-52474848D01*
X129306709Y-52508519D01*
X129374052Y-52508519D01*
X129475067Y-52474848D01*
X129643426Y-52306489D01*
X129677098Y-52205474D01*
X129677098Y-52138130D01*
X129643426Y-52037115D01*
X129441396Y-51835084D01*
X129340380Y-51801413D01*
X129273037Y-51801413D01*
%TO.C,U9*%
X217378094Y-96912380D02*
X217378094Y-97721904D01*
X217330475Y-97817142D01*
X217282856Y-97864761D01*
X217187618Y-97912380D01*
X216997142Y-97912380D01*
X216901904Y-97864761D01*
X216854285Y-97817142D01*
X216806666Y-97721904D01*
X216806666Y-96912380D01*
X216282856Y-97912380D02*
X216092380Y-97912380D01*
X215997142Y-97864761D01*
X215949523Y-97817142D01*
X215854285Y-97674285D01*
X215806666Y-97483809D01*
X215806666Y-97102857D01*
X215854285Y-97007619D01*
X215901904Y-96960000D01*
X215997142Y-96912380D01*
X216187618Y-96912380D01*
X216282856Y-96960000D01*
X216330475Y-97007619D01*
X216378094Y-97102857D01*
X216378094Y-97340952D01*
X216330475Y-97436190D01*
X216282856Y-97483809D01*
X216187618Y-97531428D01*
X215997142Y-97531428D01*
X215901904Y-97483809D01*
X215854285Y-97436190D01*
X215806666Y-97340952D01*
%TO.C,L26*%
X139759487Y-54661376D02*
X139422770Y-54324659D01*
X138715663Y-55031765D01*
X139321755Y-55503170D02*
X139321755Y-55570514D01*
X139355426Y-55671529D01*
X139523785Y-55839888D01*
X139624800Y-55873559D01*
X139692144Y-55873559D01*
X139793159Y-55839888D01*
X139860503Y-55772544D01*
X139927846Y-55637857D01*
X139927846Y-54829735D01*
X140365579Y-55267468D01*
X140264564Y-56580666D02*
X140129877Y-56445979D01*
X140096205Y-56344964D01*
X140096205Y-56277620D01*
X140129877Y-56109262D01*
X140230892Y-55940903D01*
X140500266Y-55671529D01*
X140601281Y-55637857D01*
X140668625Y-55637857D01*
X140769640Y-55671529D01*
X140904327Y-55806216D01*
X140937999Y-55907231D01*
X140937999Y-55974575D01*
X140904327Y-56075590D01*
X140735968Y-56243949D01*
X140634953Y-56277620D01*
X140567610Y-56277620D01*
X140466594Y-56243949D01*
X140331907Y-56109262D01*
X140298236Y-56008246D01*
X140298236Y-55940903D01*
X140331907Y-55839888D01*
%TO.C,R45*%
X214079047Y-88462380D02*
X214412380Y-87986190D01*
X214650475Y-88462380D02*
X214650475Y-87462380D01*
X214269523Y-87462380D01*
X214174285Y-87510000D01*
X214126666Y-87557619D01*
X214079047Y-87652857D01*
X214079047Y-87795714D01*
X214126666Y-87890952D01*
X214174285Y-87938571D01*
X214269523Y-87986190D01*
X214650475Y-87986190D01*
X213221904Y-87795714D02*
X213221904Y-88462380D01*
X213459999Y-87414761D02*
X213698094Y-88129047D01*
X213079047Y-88129047D01*
X212221904Y-87462380D02*
X212698094Y-87462380D01*
X212745713Y-87938571D01*
X212698094Y-87890952D01*
X212602856Y-87843333D01*
X212364761Y-87843333D01*
X212269523Y-87890952D01*
X212221904Y-87938571D01*
X212174285Y-88033809D01*
X212174285Y-88271904D01*
X212221904Y-88367142D01*
X212269523Y-88414761D01*
X212364761Y-88462380D01*
X212602856Y-88462380D01*
X212698094Y-88414761D01*
X212745713Y-88367142D01*
%TO.C,L11*%
X135941176Y-101532038D02*
X136277893Y-101195321D01*
X135570787Y-100488214D01*
X135335084Y-102138130D02*
X135739145Y-101734069D01*
X135537115Y-101936100D02*
X134830008Y-101228993D01*
X134998367Y-101262664D01*
X135133054Y-101262664D01*
X135234069Y-101228993D01*
X134661649Y-102811565D02*
X135065710Y-102407504D01*
X134863680Y-102609535D02*
X134156573Y-101902428D01*
X134324932Y-101936100D01*
X134459619Y-101936100D01*
X134560634Y-101902428D01*
%TO.C,L19*%
X132632786Y-55561075D02*
X132296069Y-55224358D01*
X131588962Y-55931464D01*
X133238878Y-56167167D02*
X132834817Y-55763106D01*
X133036848Y-55965136D02*
X132329741Y-56672243D01*
X132363412Y-56503884D01*
X132363412Y-56369197D01*
X132329741Y-56268182D01*
X133575596Y-56503884D02*
X133710283Y-56638571D01*
X133743954Y-56739587D01*
X133743954Y-56806930D01*
X133710283Y-56975289D01*
X133609267Y-57143648D01*
X133339893Y-57413022D01*
X133238878Y-57446693D01*
X133171535Y-57446693D01*
X133070519Y-57413022D01*
X132935832Y-57278335D01*
X132902161Y-57177319D01*
X132902161Y-57109976D01*
X132935832Y-57008961D01*
X133104191Y-56840602D01*
X133205206Y-56806930D01*
X133272550Y-56806930D01*
X133373565Y-56840602D01*
X133508252Y-56975289D01*
X133541924Y-57076304D01*
X133541924Y-57143648D01*
X133508252Y-57244663D01*
%TO.C,L25*%
X135604586Y-58812275D02*
X135267869Y-58475558D01*
X134560762Y-59182664D01*
X135166854Y-59654069D02*
X135166854Y-59721413D01*
X135200525Y-59822428D01*
X135368884Y-59990787D01*
X135469899Y-60024458D01*
X135537243Y-60024458D01*
X135638258Y-59990787D01*
X135705602Y-59923443D01*
X135772945Y-59788756D01*
X135772945Y-58980634D01*
X136210678Y-59418367D01*
X136143335Y-60765237D02*
X135806617Y-60428519D01*
X136109663Y-60058130D01*
X136109663Y-60125474D01*
X136143335Y-60226489D01*
X136311693Y-60394848D01*
X136412709Y-60428519D01*
X136480052Y-60428519D01*
X136581067Y-60394848D01*
X136749426Y-60226489D01*
X136783098Y-60125474D01*
X136783098Y-60058130D01*
X136749426Y-59957115D01*
X136581067Y-59788756D01*
X136480052Y-59755084D01*
X136412709Y-59755084D01*
%TO.C,L3*%
X149022304Y-97756993D02*
X148685586Y-97420275D01*
X147978480Y-98127382D01*
X148483556Y-98632458D02*
X148921289Y-99070191D01*
X148954961Y-98565115D01*
X149055976Y-98666130D01*
X149156991Y-98699802D01*
X149224335Y-98699802D01*
X149325350Y-98666130D01*
X149493709Y-98497771D01*
X149527380Y-98396756D01*
X149527380Y-98329413D01*
X149493709Y-98228397D01*
X149291678Y-98026367D01*
X149190663Y-97992695D01*
X149123319Y-97992695D01*
%TO.C,L16*%
X190109638Y-107939223D02*
X189772921Y-107602506D01*
X189065814Y-108309612D01*
X190715730Y-108545315D02*
X190311669Y-108141254D01*
X190513700Y-108343284D02*
X189806593Y-109050391D01*
X189840264Y-108882032D01*
X189840264Y-108747345D01*
X189806593Y-108646330D01*
X190614715Y-109858513D02*
X190480028Y-109723826D01*
X190446356Y-109622811D01*
X190446356Y-109555467D01*
X190480028Y-109387109D01*
X190581043Y-109218750D01*
X190850417Y-108949376D01*
X190951432Y-108915704D01*
X191018776Y-108915704D01*
X191119791Y-108949376D01*
X191254478Y-109084063D01*
X191288150Y-109185078D01*
X191288150Y-109252422D01*
X191254478Y-109353437D01*
X191086119Y-109521796D01*
X190985104Y-109555467D01*
X190917761Y-109555467D01*
X190816745Y-109521796D01*
X190682058Y-109387109D01*
X190648387Y-109286093D01*
X190648387Y-109218750D01*
X190682058Y-109117735D01*
%TO.C,L24*%
X183630724Y-101416186D02*
X183967441Y-101079469D01*
X183260335Y-100372362D01*
X182788930Y-100978454D02*
X182721586Y-100978454D01*
X182620571Y-101012125D01*
X182452212Y-101180484D01*
X182418541Y-101281499D01*
X182418541Y-101348843D01*
X182452212Y-101449858D01*
X182519556Y-101517202D01*
X182654243Y-101584545D01*
X183462365Y-101584545D01*
X183024632Y-102022278D01*
X181947136Y-102156965D02*
X182418541Y-102628370D01*
X181846121Y-101719232D02*
X182519556Y-102055950D01*
X182081823Y-102493683D01*
%TO.C,L21*%
X189373038Y-100573223D02*
X189036321Y-100236506D01*
X188329214Y-100943612D01*
X188935306Y-101415017D02*
X188935306Y-101482361D01*
X188968977Y-101583376D01*
X189137336Y-101751735D01*
X189238351Y-101785406D01*
X189305695Y-101785406D01*
X189406710Y-101751735D01*
X189474054Y-101684391D01*
X189541397Y-101549704D01*
X189541397Y-100741582D01*
X189979130Y-101179315D01*
X190652565Y-101852750D02*
X190248504Y-101448689D01*
X190450535Y-101650719D02*
X189743428Y-102357826D01*
X189777100Y-102189467D01*
X189777100Y-102054780D01*
X189743428Y-101953765D01*
%TO.C,L5*%
X146783756Y-106040741D02*
X146447038Y-105704023D01*
X145739932Y-106411130D01*
X146649069Y-107320267D02*
X146312351Y-106983550D01*
X146615397Y-106613161D01*
X146615397Y-106680504D01*
X146649069Y-106781519D01*
X146817428Y-106949878D01*
X146918443Y-106983550D01*
X146985787Y-106983550D01*
X147086802Y-106949878D01*
X147255161Y-106781519D01*
X147288832Y-106680504D01*
X147288832Y-106613161D01*
X147255161Y-106512145D01*
X147086802Y-106343786D01*
X146985787Y-106310115D01*
X146918443Y-106310115D01*
%TO.C,L50*%
X168031776Y-84318638D02*
X168368493Y-83981921D01*
X167661387Y-83274814D01*
X166752249Y-84183951D02*
X167088967Y-83847234D01*
X167459356Y-84150280D01*
X167392013Y-84150280D01*
X167290997Y-84183951D01*
X167122638Y-84352310D01*
X167088967Y-84453326D01*
X167088967Y-84520669D01*
X167122638Y-84621684D01*
X167290997Y-84790043D01*
X167392013Y-84823715D01*
X167459356Y-84823715D01*
X167560371Y-84790043D01*
X167728730Y-84621684D01*
X167762402Y-84520669D01*
X167762402Y-84453326D01*
X166280845Y-84655356D02*
X166213501Y-84722700D01*
X166179829Y-84823715D01*
X166179829Y-84891058D01*
X166213501Y-84992074D01*
X166314516Y-85160432D01*
X166482875Y-85328791D01*
X166651234Y-85429806D01*
X166752249Y-85463478D01*
X166819593Y-85463478D01*
X166920608Y-85429806D01*
X166987951Y-85362463D01*
X167021623Y-85261448D01*
X167021623Y-85194104D01*
X166987951Y-85093089D01*
X166886936Y-84924730D01*
X166718577Y-84756371D01*
X166550219Y-84655356D01*
X166449203Y-84621684D01*
X166381860Y-84621684D01*
X166280845Y-84655356D01*
%TO.C,U3*%
X146510963Y-99426709D02*
X147083383Y-99999129D01*
X147117055Y-100100144D01*
X147117055Y-100167488D01*
X147083383Y-100268503D01*
X146948696Y-100403190D01*
X146847681Y-100436862D01*
X146780337Y-100436862D01*
X146679322Y-100403190D01*
X146106902Y-99830770D01*
X145837528Y-100100144D02*
X145399796Y-100537877D01*
X145904872Y-100571549D01*
X145803857Y-100672564D01*
X145770185Y-100773579D01*
X145770185Y-100840923D01*
X145803857Y-100941938D01*
X145972215Y-101110297D01*
X146073231Y-101143969D01*
X146140574Y-101143969D01*
X146241589Y-101110297D01*
X146443620Y-100908266D01*
X146477292Y-100807251D01*
X146477292Y-100739908D01*
%TO.C,C87*%
X212429047Y-97817142D02*
X212476666Y-97864761D01*
X212619523Y-97912380D01*
X212714761Y-97912380D01*
X212857618Y-97864761D01*
X212952856Y-97769523D01*
X213000475Y-97674285D01*
X213048094Y-97483809D01*
X213048094Y-97340952D01*
X213000475Y-97150476D01*
X212952856Y-97055238D01*
X212857618Y-96960000D01*
X212714761Y-96912380D01*
X212619523Y-96912380D01*
X212476666Y-96960000D01*
X212429047Y-97007619D01*
X211857618Y-97340952D02*
X211952856Y-97293333D01*
X212000475Y-97245714D01*
X212048094Y-97150476D01*
X212048094Y-97102857D01*
X212000475Y-97007619D01*
X211952856Y-96960000D01*
X211857618Y-96912380D01*
X211667142Y-96912380D01*
X211571904Y-96960000D01*
X211524285Y-97007619D01*
X211476666Y-97102857D01*
X211476666Y-97150476D01*
X211524285Y-97245714D01*
X211571904Y-97293333D01*
X211667142Y-97340952D01*
X211857618Y-97340952D01*
X211952856Y-97388571D01*
X212000475Y-97436190D01*
X212048094Y-97531428D01*
X212048094Y-97721904D01*
X212000475Y-97817142D01*
X211952856Y-97864761D01*
X211857618Y-97912380D01*
X211667142Y-97912380D01*
X211571904Y-97864761D01*
X211524285Y-97817142D01*
X211476666Y-97721904D01*
X211476666Y-97531428D01*
X211524285Y-97436190D01*
X211571904Y-97388571D01*
X211667142Y-97340952D01*
X211143332Y-96912380D02*
X210476666Y-96912380D01*
X210905237Y-97912380D01*
%TO.C,L46*%
X158004038Y-64860823D02*
X157667321Y-64524106D01*
X156960214Y-65231212D01*
X158071382Y-65870976D02*
X158542787Y-65399571D01*
X157633649Y-65971991D02*
X157970367Y-65298556D01*
X158408100Y-65736289D01*
X158509115Y-66780113D02*
X158374428Y-66645426D01*
X158340756Y-66544411D01*
X158340756Y-66477067D01*
X158374428Y-66308709D01*
X158475443Y-66140350D01*
X158744817Y-65870976D01*
X158845832Y-65837304D01*
X158913176Y-65837304D01*
X159014191Y-65870976D01*
X159148878Y-66005663D01*
X159182550Y-66106678D01*
X159182550Y-66174022D01*
X159148878Y-66275037D01*
X158980519Y-66443396D01*
X158879504Y-66477067D01*
X158812161Y-66477067D01*
X158711145Y-66443396D01*
X158576458Y-66308709D01*
X158542787Y-66207693D01*
X158542787Y-66140350D01*
X158576458Y-66039335D01*
%TO.C,TH1*%
X140403637Y-96678087D02*
X140807698Y-97082148D01*
X141312774Y-96173011D02*
X140605668Y-96880118D01*
X141750507Y-96610744D02*
X141043400Y-97317851D01*
X141380118Y-96981133D02*
X141784179Y-97385194D01*
X142154568Y-97014805D02*
X141447461Y-97721912D01*
X142861675Y-97721912D02*
X142457614Y-97317851D01*
X142659644Y-97519881D02*
X141952538Y-98226988D01*
X141986209Y-98058629D01*
X141986209Y-97923942D01*
X141952538Y-97822927D01*
%TO.C,L38*%
X169462786Y-91756075D02*
X169126069Y-91419358D01*
X168418962Y-92126464D01*
X168924038Y-92631541D02*
X169361771Y-93069274D01*
X169395443Y-92564197D01*
X169496458Y-92665213D01*
X169597474Y-92698884D01*
X169664817Y-92698884D01*
X169765832Y-92665213D01*
X169934191Y-92496854D01*
X169967863Y-92395838D01*
X169967863Y-92328495D01*
X169934191Y-92227480D01*
X169732161Y-92025449D01*
X169631145Y-91991777D01*
X169563802Y-91991777D01*
X170068878Y-93170289D02*
X169967863Y-93136617D01*
X169900519Y-93136617D01*
X169799504Y-93170289D01*
X169765832Y-93203961D01*
X169732161Y-93304976D01*
X169732161Y-93372319D01*
X169765832Y-93473335D01*
X169900519Y-93608022D01*
X170001535Y-93641693D01*
X170068878Y-93641693D01*
X170169893Y-93608022D01*
X170203565Y-93574350D01*
X170237237Y-93473335D01*
X170237237Y-93405991D01*
X170203565Y-93304976D01*
X170068878Y-93170289D01*
X170035206Y-93069274D01*
X170035206Y-93001930D01*
X170068878Y-92900915D01*
X170203565Y-92766228D01*
X170304580Y-92732556D01*
X170371924Y-92732556D01*
X170472939Y-92766228D01*
X170607626Y-92900915D01*
X170641298Y-93001930D01*
X170641298Y-93069274D01*
X170607626Y-93170289D01*
X170472939Y-93304976D01*
X170371924Y-93338648D01*
X170304580Y-93338648D01*
X170203565Y-93304976D01*
%TO.C,L4*%
X144468756Y-88286141D02*
X144132038Y-87949423D01*
X143424932Y-88656530D01*
X144536100Y-89296293D02*
X145007504Y-88824889D01*
X144098367Y-89397309D02*
X144435084Y-88723874D01*
X144872817Y-89161606D01*
%TO.C,C91*%
X143609542Y-118203742D02*
X143657161Y-118156123D01*
X143704780Y-118013266D01*
X143704780Y-117918028D01*
X143657161Y-117775171D01*
X143561923Y-117679933D01*
X143466685Y-117632314D01*
X143276209Y-117584695D01*
X143133352Y-117584695D01*
X142942876Y-117632314D01*
X142847638Y-117679933D01*
X142752400Y-117775171D01*
X142704780Y-117918028D01*
X142704780Y-118013266D01*
X142752400Y-118156123D01*
X142800019Y-118203742D01*
X143704780Y-118679933D02*
X143704780Y-118870409D01*
X143657161Y-118965647D01*
X143609542Y-119013266D01*
X143466685Y-119108504D01*
X143276209Y-119156123D01*
X142895257Y-119156123D01*
X142800019Y-119108504D01*
X142752400Y-119060885D01*
X142704780Y-118965647D01*
X142704780Y-118775171D01*
X142752400Y-118679933D01*
X142800019Y-118632314D01*
X142895257Y-118584695D01*
X143133352Y-118584695D01*
X143228590Y-118632314D01*
X143276209Y-118679933D01*
X143323828Y-118775171D01*
X143323828Y-118965647D01*
X143276209Y-119060885D01*
X143228590Y-119108504D01*
X143133352Y-119156123D01*
X143704780Y-120108504D02*
X143704780Y-119537076D01*
X143704780Y-119822790D02*
X142704780Y-119822790D01*
X142847638Y-119727552D01*
X142942876Y-119632314D01*
X142990495Y-119537076D01*
%TO.C,L2*%
X138935304Y-87828993D02*
X138598586Y-87492275D01*
X137891480Y-88199382D01*
X138497571Y-88670787D02*
X138497571Y-88738130D01*
X138531243Y-88839145D01*
X138699602Y-89007504D01*
X138800617Y-89041176D01*
X138867961Y-89041176D01*
X138968976Y-89007504D01*
X139036319Y-88940161D01*
X139103663Y-88805474D01*
X139103663Y-87997351D01*
X139541396Y-88435084D01*
%TO.C,C76*%
X208019047Y-97817142D02*
X208066666Y-97864761D01*
X208209523Y-97912380D01*
X208304761Y-97912380D01*
X208447618Y-97864761D01*
X208542856Y-97769523D01*
X208590475Y-97674285D01*
X208638094Y-97483809D01*
X208638094Y-97340952D01*
X208590475Y-97150476D01*
X208542856Y-97055238D01*
X208447618Y-96960000D01*
X208304761Y-96912380D01*
X208209523Y-96912380D01*
X208066666Y-96960000D01*
X208019047Y-97007619D01*
X207685713Y-96912380D02*
X207019047Y-96912380D01*
X207447618Y-97912380D01*
X206209523Y-96912380D02*
X206399999Y-96912380D01*
X206495237Y-96960000D01*
X206542856Y-97007619D01*
X206638094Y-97150476D01*
X206685713Y-97340952D01*
X206685713Y-97721904D01*
X206638094Y-97817142D01*
X206590475Y-97864761D01*
X206495237Y-97912380D01*
X206304761Y-97912380D01*
X206209523Y-97864761D01*
X206161904Y-97817142D01*
X206114285Y-97721904D01*
X206114285Y-97483809D01*
X206161904Y-97388571D01*
X206209523Y-97340952D01*
X206304761Y-97293333D01*
X206495237Y-97293333D01*
X206590475Y-97340952D01*
X206638094Y-97388571D01*
X206685713Y-97483809D01*
%TO.C,L45*%
X152698586Y-71392275D02*
X152361869Y-71055558D01*
X151654762Y-71762664D01*
X152765930Y-72402428D02*
X153237335Y-71931023D01*
X152328197Y-72503443D02*
X152664915Y-71830008D01*
X153102648Y-72267741D01*
X153237335Y-73345237D02*
X152900617Y-73008519D01*
X153203663Y-72638130D01*
X153203663Y-72705474D01*
X153237335Y-72806489D01*
X153405693Y-72974848D01*
X153506709Y-73008519D01*
X153574052Y-73008519D01*
X153675067Y-72974848D01*
X153843426Y-72806489D01*
X153877098Y-72705474D01*
X153877098Y-72638130D01*
X153843426Y-72537115D01*
X153675067Y-72368756D01*
X153574052Y-72335084D01*
X153506709Y-72335084D01*
%TO.C,L28*%
X182362638Y-102300423D02*
X182025921Y-101963706D01*
X181318814Y-102670812D01*
X181924906Y-103142217D02*
X181924906Y-103209561D01*
X181958577Y-103310576D01*
X182126936Y-103478935D01*
X182227951Y-103512606D01*
X182295295Y-103512606D01*
X182396310Y-103478935D01*
X182463654Y-103411591D01*
X182530997Y-103276904D01*
X182530997Y-102468782D01*
X182968730Y-102906515D01*
X182968730Y-103714637D02*
X182867715Y-103680965D01*
X182800371Y-103680965D01*
X182699356Y-103714637D01*
X182665684Y-103748309D01*
X182632013Y-103849324D01*
X182632013Y-103916667D01*
X182665684Y-104017683D01*
X182800371Y-104152370D01*
X182901387Y-104186041D01*
X182968730Y-104186041D01*
X183069745Y-104152370D01*
X183103417Y-104118698D01*
X183137089Y-104017683D01*
X183137089Y-103950339D01*
X183103417Y-103849324D01*
X182968730Y-103714637D01*
X182935058Y-103613622D01*
X182935058Y-103546278D01*
X182968730Y-103445263D01*
X183103417Y-103310576D01*
X183204432Y-103276904D01*
X183271776Y-103276904D01*
X183372791Y-103310576D01*
X183507478Y-103445263D01*
X183541150Y-103546278D01*
X183541150Y-103613622D01*
X183507478Y-103714637D01*
X183372791Y-103849324D01*
X183271776Y-103882996D01*
X183204432Y-103882996D01*
X183103417Y-103849324D01*
%TO.C,R36*%
X166198586Y-117892275D02*
X165626167Y-117993290D01*
X165794525Y-117488214D02*
X165087419Y-118195321D01*
X165356793Y-118464695D01*
X165457808Y-118498367D01*
X165525151Y-118498367D01*
X165626167Y-118464695D01*
X165727182Y-118363680D01*
X165760854Y-118262664D01*
X165760854Y-118195321D01*
X165727182Y-118094306D01*
X165457808Y-117824932D01*
X165727182Y-118835084D02*
X166164915Y-119272817D01*
X166198586Y-118767741D01*
X166299602Y-118868756D01*
X166400617Y-118902428D01*
X166467961Y-118902428D01*
X166568976Y-118868756D01*
X166737335Y-118700397D01*
X166771006Y-118599382D01*
X166771006Y-118532038D01*
X166737335Y-118431023D01*
X166535304Y-118228993D01*
X166434289Y-118195321D01*
X166366945Y-118195321D01*
X166771006Y-119878909D02*
X166636319Y-119744222D01*
X166602648Y-119643206D01*
X166602648Y-119575863D01*
X166636319Y-119407504D01*
X166737335Y-119239145D01*
X167006709Y-118969771D01*
X167107724Y-118936100D01*
X167175067Y-118936100D01*
X167276083Y-118969771D01*
X167410770Y-119104458D01*
X167444441Y-119205474D01*
X167444441Y-119272817D01*
X167410770Y-119373832D01*
X167242411Y-119542191D01*
X167141396Y-119575863D01*
X167074052Y-119575863D01*
X166973037Y-119542191D01*
X166838350Y-119407504D01*
X166804678Y-119306489D01*
X166804678Y-119239145D01*
X166838350Y-119138130D01*
%TO.C,C75*%
X176246932Y-109305130D02*
X176246932Y-109237786D01*
X176179588Y-109103099D01*
X176112245Y-109035756D01*
X175977558Y-108968412D01*
X175842871Y-108968412D01*
X175741856Y-109002084D01*
X175573497Y-109103099D01*
X175472482Y-109204114D01*
X175371466Y-109372473D01*
X175337795Y-109473488D01*
X175337795Y-109608175D01*
X175405138Y-109742862D01*
X175472482Y-109810206D01*
X175607169Y-109877549D01*
X175674512Y-109877549D01*
X175842871Y-110180595D02*
X176314275Y-110652000D01*
X176718337Y-109641847D01*
X176920367Y-111258091D02*
X176583650Y-110921374D01*
X176886695Y-110550985D01*
X176886695Y-110618328D01*
X176920367Y-110719343D01*
X177088726Y-110887702D01*
X177189741Y-110921374D01*
X177257085Y-110921374D01*
X177358100Y-110887702D01*
X177526459Y-110719343D01*
X177560130Y-110618328D01*
X177560130Y-110550985D01*
X177526459Y-110449969D01*
X177358100Y-110281611D01*
X177257085Y-110247939D01*
X177189741Y-110247939D01*
%TO.C,C48*%
X173777869Y-89709132D02*
X173845213Y-89709132D01*
X173979900Y-89641788D01*
X174047243Y-89574445D01*
X174114587Y-89439758D01*
X174114587Y-89305071D01*
X174080915Y-89204056D01*
X173979900Y-89035697D01*
X173878885Y-88934682D01*
X173710526Y-88833666D01*
X173609511Y-88799995D01*
X173474824Y-88799995D01*
X173340137Y-88867338D01*
X173272793Y-88934682D01*
X173205450Y-89069369D01*
X173205450Y-89136712D01*
X172767717Y-89911163D02*
X173239121Y-90382567D01*
X172666701Y-89473430D02*
X173340137Y-89810147D01*
X172902404Y-90247880D01*
X172363656Y-90449911D02*
X172397327Y-90348895D01*
X172397327Y-90281552D01*
X172363656Y-90180537D01*
X172329984Y-90146865D01*
X172228969Y-90113193D01*
X172161625Y-90113193D01*
X172060610Y-90146865D01*
X171925923Y-90281552D01*
X171892251Y-90382567D01*
X171892251Y-90449911D01*
X171925923Y-90550926D01*
X171959595Y-90584598D01*
X172060610Y-90618269D01*
X172127953Y-90618269D01*
X172228969Y-90584598D01*
X172363656Y-90449911D01*
X172464671Y-90416239D01*
X172532014Y-90416239D01*
X172633030Y-90449911D01*
X172767717Y-90584598D01*
X172801388Y-90685613D01*
X172801388Y-90752956D01*
X172767717Y-90853972D01*
X172633030Y-90988659D01*
X172532014Y-91022330D01*
X172464671Y-91022330D01*
X172363656Y-90988659D01*
X172228969Y-90853972D01*
X172195297Y-90752956D01*
X172195297Y-90685613D01*
X172228969Y-90584598D01*
%TO.C,L43*%
X174133038Y-81574023D02*
X173796321Y-81237306D01*
X173089214Y-81944412D01*
X174200382Y-82584176D02*
X174671787Y-82112771D01*
X173762649Y-82685191D02*
X174099367Y-82011756D01*
X174537100Y-82449489D01*
X174267726Y-83122924D02*
X174705458Y-83560657D01*
X174739130Y-83055580D01*
X174840145Y-83156596D01*
X174941161Y-83190267D01*
X175008504Y-83190267D01*
X175109519Y-83156596D01*
X175277878Y-82988237D01*
X175311550Y-82887222D01*
X175311550Y-82819878D01*
X175277878Y-82718863D01*
X175075848Y-82516832D01*
X174974832Y-82483161D01*
X174907489Y-82483161D01*
%TO.C,C88*%
X208219047Y-100767142D02*
X208266666Y-100814761D01*
X208409523Y-100862380D01*
X208504761Y-100862380D01*
X208647618Y-100814761D01*
X208742856Y-100719523D01*
X208790475Y-100624285D01*
X208838094Y-100433809D01*
X208838094Y-100290952D01*
X208790475Y-100100476D01*
X208742856Y-100005238D01*
X208647618Y-99910000D01*
X208504761Y-99862380D01*
X208409523Y-99862380D01*
X208266666Y-99910000D01*
X208219047Y-99957619D01*
X207647618Y-100290952D02*
X207742856Y-100243333D01*
X207790475Y-100195714D01*
X207838094Y-100100476D01*
X207838094Y-100052857D01*
X207790475Y-99957619D01*
X207742856Y-99910000D01*
X207647618Y-99862380D01*
X207457142Y-99862380D01*
X207361904Y-99910000D01*
X207314285Y-99957619D01*
X207266666Y-100052857D01*
X207266666Y-100100476D01*
X207314285Y-100195714D01*
X207361904Y-100243333D01*
X207457142Y-100290952D01*
X207647618Y-100290952D01*
X207742856Y-100338571D01*
X207790475Y-100386190D01*
X207838094Y-100481428D01*
X207838094Y-100671904D01*
X207790475Y-100767142D01*
X207742856Y-100814761D01*
X207647618Y-100862380D01*
X207457142Y-100862380D01*
X207361904Y-100814761D01*
X207314285Y-100767142D01*
X207266666Y-100671904D01*
X207266666Y-100481428D01*
X207314285Y-100386190D01*
X207361904Y-100338571D01*
X207457142Y-100290952D01*
X206695237Y-100290952D02*
X206790475Y-100243333D01*
X206838094Y-100195714D01*
X206885713Y-100100476D01*
X206885713Y-100052857D01*
X206838094Y-99957619D01*
X206790475Y-99910000D01*
X206695237Y-99862380D01*
X206504761Y-99862380D01*
X206409523Y-99910000D01*
X206361904Y-99957619D01*
X206314285Y-100052857D01*
X206314285Y-100100476D01*
X206361904Y-100195714D01*
X206409523Y-100243333D01*
X206504761Y-100290952D01*
X206695237Y-100290952D01*
X206790475Y-100338571D01*
X206838094Y-100386190D01*
X206885713Y-100481428D01*
X206885713Y-100671904D01*
X206838094Y-100767142D01*
X206790475Y-100814761D01*
X206695237Y-100862380D01*
X206504761Y-100862380D01*
X206409523Y-100814761D01*
X206361904Y-100767142D01*
X206314285Y-100671904D01*
X206314285Y-100481428D01*
X206361904Y-100386190D01*
X206409523Y-100338571D01*
X206504761Y-100290952D01*
%TO.C,C73*%
X212429047Y-100767142D02*
X212476666Y-100814761D01*
X212619523Y-100862380D01*
X212714761Y-100862380D01*
X212857618Y-100814761D01*
X212952856Y-100719523D01*
X213000475Y-100624285D01*
X213048094Y-100433809D01*
X213048094Y-100290952D01*
X213000475Y-100100476D01*
X212952856Y-100005238D01*
X212857618Y-99910000D01*
X212714761Y-99862380D01*
X212619523Y-99862380D01*
X212476666Y-99910000D01*
X212429047Y-99957619D01*
X212095713Y-99862380D02*
X211429047Y-99862380D01*
X211857618Y-100862380D01*
X211143332Y-99862380D02*
X210524285Y-99862380D01*
X210857618Y-100243333D01*
X210714761Y-100243333D01*
X210619523Y-100290952D01*
X210571904Y-100338571D01*
X210524285Y-100433809D01*
X210524285Y-100671904D01*
X210571904Y-100767142D01*
X210619523Y-100814761D01*
X210714761Y-100862380D01*
X211000475Y-100862380D01*
X211095713Y-100814761D01*
X211143332Y-100767142D01*
%TO.C,L1*%
X154468756Y-98595541D02*
X154132038Y-98258823D01*
X153424932Y-98965930D01*
X155074848Y-99201632D02*
X154670787Y-98797571D01*
X154872817Y-98999602D02*
X154165710Y-99706709D01*
X154199382Y-99538350D01*
X154199382Y-99403663D01*
X154165710Y-99302648D01*
%TO.C,C77*%
X212629047Y-103717142D02*
X212676666Y-103764761D01*
X212819523Y-103812380D01*
X212914761Y-103812380D01*
X213057618Y-103764761D01*
X213152856Y-103669523D01*
X213200475Y-103574285D01*
X213248094Y-103383809D01*
X213248094Y-103240952D01*
X213200475Y-103050476D01*
X213152856Y-102955238D01*
X213057618Y-102860000D01*
X212914761Y-102812380D01*
X212819523Y-102812380D01*
X212676666Y-102860000D01*
X212629047Y-102907619D01*
X212295713Y-102812380D02*
X211629047Y-102812380D01*
X212057618Y-103812380D01*
X211343332Y-102812380D02*
X210676666Y-102812380D01*
X211105237Y-103812380D01*
%TO.C,U11*%
X217854285Y-102162380D02*
X217854285Y-102971904D01*
X217806666Y-103067142D01*
X217759047Y-103114761D01*
X217663809Y-103162380D01*
X217473332Y-103162380D01*
X217378094Y-103114761D01*
X217330475Y-103067142D01*
X217282856Y-102971904D01*
X217282856Y-102162380D01*
X216282856Y-103162380D02*
X216854285Y-103162380D01*
X216568570Y-103162380D02*
X216568570Y-102162380D01*
X216663809Y-102305238D01*
X216759047Y-102400476D01*
X216854285Y-102448095D01*
X215330475Y-103162380D02*
X215901904Y-103162380D01*
X215616190Y-103162380D02*
X215616190Y-102162380D01*
X215711428Y-102305238D01*
X215806666Y-102400476D01*
X215901904Y-102448095D01*
%TO.C,L52*%
X160141176Y-75632038D02*
X160477893Y-75295321D01*
X159770787Y-74588214D01*
X158861649Y-75497351D02*
X159198367Y-75160634D01*
X159568756Y-75463680D01*
X159501413Y-75463680D01*
X159400397Y-75497351D01*
X159232038Y-75665710D01*
X159198367Y-75766726D01*
X159198367Y-75834069D01*
X159232038Y-75935084D01*
X159400397Y-76103443D01*
X159501413Y-76137115D01*
X159568756Y-76137115D01*
X159669771Y-76103443D01*
X159838130Y-75935084D01*
X159871802Y-75834069D01*
X159871802Y-75766726D01*
X158625947Y-75867741D02*
X158558603Y-75867741D01*
X158457588Y-75901413D01*
X158289229Y-76069771D01*
X158255558Y-76170787D01*
X158255558Y-76238130D01*
X158289229Y-76339145D01*
X158356573Y-76406489D01*
X158491260Y-76473832D01*
X159299382Y-76473832D01*
X158861649Y-76911565D01*
%TO.C,L69*%
X139042857Y-116702380D02*
X139519047Y-116702380D01*
X139519047Y-115702380D01*
X138280952Y-115702380D02*
X138471428Y-115702380D01*
X138566666Y-115750000D01*
X138614285Y-115797619D01*
X138709523Y-115940476D01*
X138757142Y-116130952D01*
X138757142Y-116511904D01*
X138709523Y-116607142D01*
X138661904Y-116654761D01*
X138566666Y-116702380D01*
X138376190Y-116702380D01*
X138280952Y-116654761D01*
X138233333Y-116607142D01*
X138185714Y-116511904D01*
X138185714Y-116273809D01*
X138233333Y-116178571D01*
X138280952Y-116130952D01*
X138376190Y-116083333D01*
X138566666Y-116083333D01*
X138661904Y-116130952D01*
X138709523Y-116178571D01*
X138757142Y-116273809D01*
X137709523Y-116702380D02*
X137519047Y-116702380D01*
X137423809Y-116654761D01*
X137376190Y-116607142D01*
X137280952Y-116464285D01*
X137233333Y-116273809D01*
X137233333Y-115892857D01*
X137280952Y-115797619D01*
X137328571Y-115750000D01*
X137423809Y-115702380D01*
X137614285Y-115702380D01*
X137709523Y-115750000D01*
X137757142Y-115797619D01*
X137804761Y-115892857D01*
X137804761Y-116130952D01*
X137757142Y-116226190D01*
X137709523Y-116273809D01*
X137614285Y-116321428D01*
X137423809Y-116321428D01*
X137328571Y-116273809D01*
X137280952Y-116226190D01*
X137233333Y-116130952D01*
%TO.C,U1*%
X122842271Y-78249922D02*
X123414691Y-77677502D01*
X123515706Y-77643830D01*
X123583050Y-77643830D01*
X123684065Y-77677502D01*
X123818752Y-77812189D01*
X123852424Y-77913204D01*
X123852424Y-77980548D01*
X123818752Y-78081563D01*
X123246332Y-78653983D01*
X124660546Y-78653983D02*
X124256485Y-78249922D01*
X124458515Y-78451952D02*
X123751409Y-79159059D01*
X123785080Y-78990700D01*
X123785080Y-78856013D01*
X123751409Y-78754998D01*
%TO.C,R42*%
X175298275Y-104716586D02*
X174725856Y-104817601D01*
X174894214Y-104312525D02*
X174187108Y-105019632D01*
X174456482Y-105289006D01*
X174557497Y-105322678D01*
X174624840Y-105322678D01*
X174725856Y-105289006D01*
X174826871Y-105187991D01*
X174860543Y-105086975D01*
X174860543Y-105019632D01*
X174826871Y-104918617D01*
X174557497Y-104649243D01*
X175432963Y-105794082D02*
X175904367Y-105322678D01*
X174995230Y-105895098D02*
X175331947Y-105221662D01*
X175769680Y-105659395D01*
X175601321Y-106299159D02*
X175601321Y-106366502D01*
X175634993Y-106467517D01*
X175803352Y-106635876D01*
X175904367Y-106669548D01*
X175971711Y-106669548D01*
X176072726Y-106635876D01*
X176140069Y-106568533D01*
X176207413Y-106433846D01*
X176207413Y-105625724D01*
X176645146Y-106063456D01*
%TO.C,L37*%
X175504638Y-85993623D02*
X175167921Y-85656906D01*
X174460814Y-86364012D01*
X174965890Y-86869089D02*
X175403623Y-87306822D01*
X175437295Y-86801745D01*
X175538310Y-86902761D01*
X175639326Y-86936432D01*
X175706669Y-86936432D01*
X175807684Y-86902761D01*
X175976043Y-86734402D01*
X176009715Y-86633386D01*
X176009715Y-86566043D01*
X175976043Y-86465028D01*
X175774013Y-86262997D01*
X175672997Y-86229325D01*
X175605654Y-86229325D01*
X175639326Y-87542524D02*
X176110730Y-88013928D01*
X176514791Y-87003776D01*
%TO.C,U4*%
X129439221Y-106458781D02*
X129897157Y-106000845D01*
X129977969Y-105973908D01*
X130031844Y-105973908D01*
X130112656Y-106000845D01*
X130220406Y-106108595D01*
X130247343Y-106189407D01*
X130247343Y-106243282D01*
X130220406Y-106324094D01*
X129762470Y-106782030D01*
X130462842Y-107105279D02*
X130839966Y-106728155D01*
X130112656Y-107186091D02*
X130382030Y-106647343D01*
X130732216Y-106997529D01*
%TO.C,D2*%
X171327579Y-115683755D02*
X170620473Y-114976648D01*
X170452114Y-115145007D01*
X170384770Y-115279694D01*
X170384770Y-115414381D01*
X170418442Y-115515396D01*
X170519457Y-115683755D01*
X170620473Y-115784770D01*
X170788831Y-115885786D01*
X170889847Y-115919457D01*
X171024534Y-115919457D01*
X171159221Y-115852114D01*
X171327579Y-115683755D01*
X170014381Y-115717427D02*
X169947037Y-115717427D01*
X169846022Y-115751098D01*
X169677663Y-115919457D01*
X169643992Y-116020473D01*
X169643992Y-116087816D01*
X169677663Y-116188831D01*
X169745007Y-116256175D01*
X169879694Y-116323518D01*
X170687816Y-116323518D01*
X170250083Y-116761251D01*
%TO.C,L56*%
X164388877Y-91415937D02*
X164725594Y-91079220D01*
X164018488Y-90372113D01*
X163109350Y-91281250D02*
X163446068Y-90944533D01*
X163816457Y-91247579D01*
X163749114Y-91247579D01*
X163648098Y-91281250D01*
X163479739Y-91449609D01*
X163446068Y-91550625D01*
X163446068Y-91617968D01*
X163479739Y-91718983D01*
X163648098Y-91887342D01*
X163749114Y-91921014D01*
X163816457Y-91921014D01*
X163917472Y-91887342D01*
X164085831Y-91718983D01*
X164119503Y-91617968D01*
X164119503Y-91550625D01*
X162469587Y-91921014D02*
X162604274Y-91786327D01*
X162705289Y-91752655D01*
X162772633Y-91752655D01*
X162940991Y-91786327D01*
X163109350Y-91887342D01*
X163378724Y-92156716D01*
X163412396Y-92257731D01*
X163412396Y-92325075D01*
X163378724Y-92426090D01*
X163244037Y-92560777D01*
X163143022Y-92594449D01*
X163075678Y-92594449D01*
X162974663Y-92560777D01*
X162806304Y-92392418D01*
X162772633Y-92291403D01*
X162772633Y-92224060D01*
X162806304Y-92123044D01*
X162940991Y-91988357D01*
X163042007Y-91954686D01*
X163109350Y-91954686D01*
X163210365Y-91988357D01*
%TO.C,L73*%
X223679047Y-105892380D02*
X224155237Y-105892380D01*
X224155237Y-104892380D01*
X223440951Y-104892380D02*
X222774285Y-104892380D01*
X223202856Y-105892380D01*
X222488570Y-104892380D02*
X221869523Y-104892380D01*
X222202856Y-105273333D01*
X222059999Y-105273333D01*
X221964761Y-105320952D01*
X221917142Y-105368571D01*
X221869523Y-105463809D01*
X221869523Y-105701904D01*
X221917142Y-105797142D01*
X221964761Y-105844761D01*
X222059999Y-105892380D01*
X222345713Y-105892380D01*
X222440951Y-105844761D01*
X222488570Y-105797142D01*
%TO.C,L55*%
X159221324Y-86531786D02*
X159558041Y-86195069D01*
X158850935Y-85487962D01*
X157941797Y-86397099D02*
X158278515Y-86060382D01*
X158648904Y-86363428D01*
X158581561Y-86363428D01*
X158480545Y-86397099D01*
X158312186Y-86565458D01*
X158278515Y-86666474D01*
X158278515Y-86733817D01*
X158312186Y-86834832D01*
X158480545Y-87003191D01*
X158581561Y-87036863D01*
X158648904Y-87036863D01*
X158749919Y-87003191D01*
X158918278Y-86834832D01*
X158951950Y-86733817D01*
X158951950Y-86666474D01*
X157268362Y-87070535D02*
X157605080Y-86733817D01*
X157975469Y-87036863D01*
X157908125Y-87036863D01*
X157807110Y-87070535D01*
X157638751Y-87238893D01*
X157605080Y-87339909D01*
X157605080Y-87407252D01*
X157638751Y-87508267D01*
X157807110Y-87676626D01*
X157908125Y-87710298D01*
X157975469Y-87710298D01*
X158076484Y-87676626D01*
X158244843Y-87508267D01*
X158278515Y-87407252D01*
X158278515Y-87339909D01*
%TO.C,L10*%
X141793576Y-106746838D02*
X142130293Y-106410121D01*
X141423187Y-105703014D01*
X141187484Y-107352930D02*
X141591545Y-106948869D01*
X141389515Y-107150900D02*
X140682408Y-106443793D01*
X140850767Y-106477464D01*
X140985454Y-106477464D01*
X141086469Y-106443793D01*
X140042645Y-107083556D02*
X139975301Y-107150900D01*
X139941629Y-107251915D01*
X139941629Y-107319258D01*
X139975301Y-107420274D01*
X140076316Y-107588632D01*
X140244675Y-107756991D01*
X140413034Y-107858006D01*
X140514049Y-107891678D01*
X140581393Y-107891678D01*
X140682408Y-107858006D01*
X140749751Y-107790663D01*
X140783423Y-107689648D01*
X140783423Y-107622304D01*
X140749751Y-107521289D01*
X140648736Y-107352930D01*
X140480377Y-107184571D01*
X140312019Y-107083556D01*
X140211003Y-107049884D01*
X140143660Y-107049884D01*
X140042645Y-107083556D01*
%TO.C,L47*%
X169279724Y-81299386D02*
X169616441Y-80962669D01*
X168909335Y-80255562D01*
X168269571Y-81366730D02*
X168740976Y-81838135D01*
X168168556Y-80928997D02*
X168841991Y-81265715D01*
X168404258Y-81703448D01*
X167730823Y-81434074D02*
X167259419Y-81905478D01*
X168269571Y-82309539D01*
%TO.C,L22*%
X185004238Y-105018223D02*
X184667521Y-104681506D01*
X183960414Y-105388612D01*
X184566506Y-105860017D02*
X184566506Y-105927361D01*
X184600177Y-106028376D01*
X184768536Y-106196735D01*
X184869551Y-106230406D01*
X184936895Y-106230406D01*
X185037910Y-106196735D01*
X185105254Y-106129391D01*
X185172597Y-105994704D01*
X185172597Y-105186582D01*
X185610330Y-105624315D01*
X185239941Y-106533452D02*
X185239941Y-106600796D01*
X185273613Y-106701811D01*
X185441971Y-106870170D01*
X185542987Y-106903841D01*
X185610330Y-106903841D01*
X185711345Y-106870170D01*
X185778689Y-106802826D01*
X185846032Y-106668139D01*
X185846032Y-105860017D01*
X186283765Y-106297750D01*
%TO.C,L27*%
X186680638Y-97931623D02*
X186343921Y-97594906D01*
X185636814Y-98302012D01*
X186242906Y-98773417D02*
X186242906Y-98840761D01*
X186276577Y-98941776D01*
X186444936Y-99110135D01*
X186545951Y-99143806D01*
X186613295Y-99143806D01*
X186714310Y-99110135D01*
X186781654Y-99042791D01*
X186848997Y-98908104D01*
X186848997Y-98099982D01*
X187286730Y-98537715D01*
X186815326Y-99480524D02*
X187286730Y-99951928D01*
X187690791Y-98941776D01*
%TO.C,R44*%
X218089047Y-88462380D02*
X218422380Y-87986190D01*
X218660475Y-88462380D02*
X218660475Y-87462380D01*
X218279523Y-87462380D01*
X218184285Y-87510000D01*
X218136666Y-87557619D01*
X218089047Y-87652857D01*
X218089047Y-87795714D01*
X218136666Y-87890952D01*
X218184285Y-87938571D01*
X218279523Y-87986190D01*
X218660475Y-87986190D01*
X217231904Y-87795714D02*
X217231904Y-88462380D01*
X217469999Y-87414761D02*
X217708094Y-88129047D01*
X217089047Y-88129047D01*
X216279523Y-87795714D02*
X216279523Y-88462380D01*
X216517618Y-87414761D02*
X216755713Y-88129047D01*
X216136666Y-88129047D01*
D12*
%TO.C,C80*%
X162452507Y-104680839D02*
X161631455Y-105501891D01*
X162452507Y-105501891D02*
X161631455Y-104680839D01*
D10*
%TO.C,L53*%
X161451087Y-87147976D02*
X161114370Y-86811259D01*
X160407263Y-87518365D01*
X161316400Y-88427503D02*
X160979683Y-88090785D01*
X161282729Y-87720396D01*
X161282729Y-87787739D01*
X161316400Y-87888755D01*
X161484759Y-88057114D01*
X161585775Y-88090785D01*
X161653118Y-88090785D01*
X161754133Y-88057114D01*
X161922492Y-87888755D01*
X161956164Y-87787739D01*
X161956164Y-87720396D01*
X161922492Y-87619381D01*
X161754133Y-87451022D01*
X161653118Y-87417350D01*
X161585775Y-87417350D01*
X161585775Y-88696877D02*
X162023507Y-89134610D01*
X162057179Y-88629533D01*
X162158194Y-88730549D01*
X162259210Y-88764220D01*
X162326553Y-88764220D01*
X162427568Y-88730549D01*
X162595927Y-88562190D01*
X162629599Y-88461175D01*
X162629599Y-88393831D01*
X162595927Y-88292816D01*
X162393897Y-88090785D01*
X162292881Y-88057114D01*
X162225538Y-88057114D01*
D13*
%TO.C,R15*%
X130325897Y-82045830D02*
X130661430Y-81710297D01*
X129586970Y-81306903D02*
X129922503Y-80971370D01*
%TO.C,R11*%
X128324630Y-83894697D02*
X127989097Y-84230230D01*
X127585703Y-83155770D02*
X127250170Y-83491303D01*
%TO.C,C19*%
X132239970Y-98138781D02*
X132438781Y-97939970D01*
X132961219Y-98860030D02*
X133160030Y-98661219D01*
%TO.C,C18*%
X131719093Y-97405872D02*
X131917904Y-97207061D01*
X130997844Y-96684623D02*
X131196655Y-96485812D01*
%TO.C,D1*%
X127758400Y-131977400D02*
X122358400Y-131977400D01*
X127758400Y-128677400D02*
X122358400Y-128677400D01*
X127758400Y-128677400D02*
X127758400Y-131977400D01*
%TO.C,C13*%
X130003427Y-84950801D02*
X130202238Y-85149612D01*
X129282178Y-85672050D02*
X129480989Y-85870861D01*
%TO.C,C2*%
X130421781Y-72031570D02*
X130222970Y-72230381D01*
X131143030Y-72752819D02*
X130944219Y-72951630D01*
%TO.C,C12*%
X130425178Y-84656050D02*
X130623989Y-84854861D01*
X131146427Y-83934801D02*
X131345238Y-84133612D01*
%TO.C,C1*%
X130050830Y-71686019D02*
X129852019Y-71884830D01*
X129329581Y-70964770D02*
X129130770Y-71163581D01*
%TO.C,R6*%
X130329740Y-78262067D02*
X129994207Y-77926534D01*
X131068667Y-77523140D02*
X130733134Y-77187607D01*
%TO.C,R14*%
X131720570Y-81408503D02*
X132056103Y-81072970D01*
X132459497Y-82147430D02*
X132795030Y-81811897D01*
%TO.C,R10*%
X134215103Y-78913970D02*
X133879570Y-79249503D01*
X134954030Y-79652897D02*
X134618497Y-79988430D01*
%TO.C,C26*%
X140034990Y-120961543D02*
X140404457Y-121331010D01*
X138995543Y-122000990D02*
X139365010Y-122370457D01*
%TO.C,C21*%
X143136219Y-109172030D02*
X143335030Y-108973219D01*
X142414970Y-108450781D02*
X142613781Y-108251970D01*
%TO.C,C20*%
X141761219Y-107660030D02*
X141960030Y-107461219D01*
X141039970Y-106938781D02*
X141238781Y-106739970D01*
%TO.C,R26*%
X127905399Y-115560964D02*
X128240932Y-115225431D01*
X127166472Y-114822037D02*
X127502005Y-114486504D01*
%TO.C,R21*%
X130581940Y-101434384D02*
X130917473Y-101098851D01*
X129843013Y-100695457D02*
X130178546Y-100359924D01*
%TO.C,R25*%
X125211322Y-112795047D02*
X125546855Y-112459514D01*
X124472395Y-112056120D02*
X124807928Y-111720587D01*
%TO.C,R24*%
X124043888Y-111627613D02*
X124379421Y-111292080D01*
X123304961Y-110888686D02*
X123640494Y-110553153D01*
%TO.C,R20*%
X128406173Y-99258616D02*
X128741706Y-98923083D01*
X129145100Y-99997543D02*
X129480633Y-99662010D01*
%TO.C,R23*%
X140738822Y-111591266D02*
X141074355Y-111255733D01*
X139999895Y-110852339D02*
X140335428Y-110516806D01*
%TO.C,R27*%
X128333905Y-115989472D02*
X128669438Y-115653939D01*
X129072832Y-116728399D02*
X129408365Y-116392866D01*
%TO.C,C11*%
X133931370Y-82912819D02*
X134130181Y-83111630D01*
X134652619Y-82191570D02*
X134851430Y-82390381D01*
%TO.C,C10*%
X135708627Y-81139378D02*
X135907438Y-81338189D01*
X134987378Y-81860627D02*
X135186189Y-82059438D01*
%TO.C,C27*%
X140739970Y-120403219D02*
X140938781Y-120602030D01*
X141461219Y-119681970D02*
X141660030Y-119880781D01*
%TO.C,C16*%
X130561219Y-92660030D02*
X130760030Y-92461219D01*
X129839970Y-91938781D02*
X130038781Y-91739970D01*
%TO.C,C17*%
X137080970Y-99332181D02*
X137279781Y-99133370D01*
X137802219Y-100053430D02*
X138001030Y-99854619D01*
%TO.C,C24*%
X132557863Y-115854112D02*
X132756674Y-116052923D01*
X133279112Y-115132863D02*
X133477923Y-115331674D01*
%TO.C,C25*%
X125722781Y-113052570D02*
X125523970Y-113251381D01*
X126444030Y-113773819D02*
X126245219Y-113972630D01*
%TO.C,C22*%
X125501502Y-106035290D02*
X125700313Y-106234101D01*
X126222751Y-105314041D02*
X126421562Y-105512852D01*
%TO.C,C8*%
X137139970Y-87761219D02*
X137338781Y-87960030D01*
X137861219Y-87039970D02*
X138060030Y-87238781D01*
%TO.C,C23*%
X134032863Y-114404112D02*
X134231674Y-114602923D01*
X134754112Y-113682863D02*
X134952923Y-113881674D01*
%TO.C,C3*%
X126118219Y-72469030D02*
X126317030Y-72270219D01*
X125396970Y-71747781D02*
X125595781Y-71548970D01*
%TO.C,R22*%
X138563052Y-109415499D02*
X138898585Y-109079966D01*
X139301979Y-110154426D02*
X139637512Y-109818893D01*
%TO.C,L8*%
X132817313Y-93613221D02*
X133186779Y-93982687D01*
X131813221Y-94617313D02*
X132182687Y-94986779D01*
%TO.C,L12*%
X136094179Y-97167887D02*
X135724713Y-96798421D01*
X135090087Y-98171979D02*
X134720621Y-97802513D01*
%TO.C,C41*%
X145838781Y-72960030D02*
X145639970Y-72761219D01*
X146560030Y-72238781D02*
X146361219Y-72039970D01*
%TO.C,C44*%
X156192562Y-61790811D02*
X156391373Y-61989622D01*
X156913811Y-61069562D02*
X157112622Y-61268373D01*
%TO.C,C58*%
X142038781Y-75539970D02*
X141839970Y-75738781D01*
X142760030Y-76261219D02*
X142561219Y-76460030D01*
%TO.C,C61*%
X155323830Y-84055819D02*
X155125019Y-84254630D01*
X154602581Y-83334570D02*
X154403770Y-83533381D01*
%TO.C,C28*%
X127362852Y-47042400D02*
X126840348Y-47042400D01*
X127362852Y-48512400D02*
X126840348Y-48512400D01*
%TO.C,C32*%
X132737570Y-50157781D02*
X132936381Y-49958970D01*
X133458819Y-50879030D02*
X133657630Y-50680219D01*
%TO.C,C36*%
X139880630Y-58234981D02*
X139681819Y-58036170D01*
X139159381Y-58956230D02*
X138960570Y-58757419D01*
%TO.C,C45*%
X145788781Y-67770030D02*
X145589970Y-67571219D01*
X146510030Y-67048781D02*
X146311219Y-66849970D01*
%TO.C,C56*%
X146819219Y-77803030D02*
X147018030Y-77604219D01*
X146097970Y-77081781D02*
X146296781Y-76882970D01*
%TO.C,C62*%
X142147110Y-85441297D02*
X141948299Y-85640108D01*
X141425861Y-84720048D02*
X141227050Y-84918859D01*
%TO.C,C49*%
X151960030Y-67161219D02*
X151761219Y-67360030D01*
X151238781Y-66439970D02*
X151039970Y-66638781D01*
%TO.C,C51*%
X156558381Y-69643970D02*
X156359570Y-69842781D01*
X157279630Y-70365219D02*
X157080819Y-70564030D01*
%TO.C,C53*%
X155160030Y-76138781D02*
X154961219Y-75939970D01*
X154438781Y-76860030D02*
X154239970Y-76661219D01*
%TO.C,C29*%
X137776852Y-47067800D02*
X137254348Y-47067800D01*
X137776852Y-48537800D02*
X137254348Y-48537800D01*
%TO.C,C34*%
X137116419Y-54587430D02*
X137315230Y-54388619D01*
X136395170Y-53866181D02*
X136593981Y-53667370D01*
%TO.C,C37*%
X141383619Y-56283570D02*
X141582430Y-56482381D01*
X140662370Y-57004819D02*
X140861181Y-57203630D01*
%TO.C,C46*%
X149939030Y-63619781D02*
X149740219Y-63420970D01*
X149217781Y-64341030D02*
X149018970Y-64142219D01*
%TO.C,C63*%
X144264781Y-87639970D02*
X144065970Y-87838781D01*
X144986030Y-88361219D02*
X144787219Y-88560030D01*
%TO.C,C64*%
X152349161Y-95597868D02*
X152150350Y-95796679D01*
X151627912Y-94876619D02*
X151429101Y-95075430D01*
%TO.C,C65*%
X155222230Y-98432219D02*
X155023419Y-98631030D01*
X154500981Y-97710970D02*
X154302170Y-97909781D01*
%TO.C,C47*%
X178630811Y-83065962D02*
X178829622Y-83264773D01*
X177909562Y-83787211D02*
X178108373Y-83986022D01*
%TO.C,C59*%
X164421419Y-97945230D02*
X164620230Y-97746419D01*
X163700170Y-97223981D02*
X163898981Y-97025170D01*
%TO.C,C60*%
X156445819Y-85499230D02*
X156644630Y-85300419D01*
X155724570Y-84777981D02*
X155923381Y-84579170D01*
%TO.C,L31*%
X143751487Y-70384379D02*
X143382021Y-70014913D01*
X144755579Y-69380287D02*
X144386113Y-69010821D01*
%TO.C,L35*%
X152717687Y-61138779D02*
X152348221Y-60769313D01*
X153721779Y-60134687D02*
X153352313Y-59765221D01*
%TO.C,L59*%
X140982687Y-78713221D02*
X140613221Y-79082687D01*
X141986779Y-79717313D02*
X141617313Y-80086779D01*
%TO.C,L63*%
X149923687Y-87705221D02*
X149554221Y-88074687D01*
X150927779Y-88709313D02*
X150558313Y-89078779D01*
%TO.C,L32*%
X142035821Y-66764087D02*
X142405287Y-66394621D01*
X143039913Y-67768179D02*
X143409379Y-67398713D01*
%TO.C,L36*%
X149390287Y-59409621D02*
X149020821Y-59779087D01*
X150394379Y-60413713D02*
X150024913Y-60783179D01*
%TO.C,L60*%
X139597421Y-82740313D02*
X139966887Y-83109779D01*
X140601513Y-81736221D02*
X140970979Y-82105687D01*
%TO.C,L64*%
X147028087Y-90450379D02*
X146658621Y-90080913D01*
X148032179Y-89446287D02*
X147662713Y-89076821D01*
%TO.C,L39*%
X148907313Y-66750221D02*
X149276779Y-67119687D01*
X147903221Y-67754313D02*
X148272687Y-68123779D01*
%TO.C,L57*%
X150038779Y-77660313D02*
X149669313Y-78029779D01*
X149034687Y-76656221D02*
X148665221Y-77025687D01*
%TO.C,L17*%
X133755421Y-51320887D02*
X134124887Y-50951421D01*
X134759513Y-52324979D02*
X135128979Y-51955513D01*
%TO.C,L23*%
X137387621Y-55156287D02*
X137757087Y-54786821D01*
X138391713Y-56160379D02*
X138761179Y-55790913D01*
%TO.C,L42*%
X153530113Y-68555579D02*
X153899579Y-68186113D01*
X152526021Y-67551487D02*
X152895487Y-67182021D01*
%TO.C,L48*%
X158717313Y-71786779D02*
X159086779Y-71417313D01*
X157713221Y-70782687D02*
X158082687Y-70413221D01*
%TO.C,L54*%
X153174513Y-76453021D02*
X153543979Y-76822487D01*
X152170421Y-77457113D02*
X152539887Y-77826579D01*
%TO.C,L40*%
X152082687Y-64786779D02*
X151713221Y-64417313D01*
X153086779Y-63782687D02*
X152717313Y-63413221D01*
%TO.C,L58*%
X153135621Y-79667287D02*
X153505087Y-79297821D01*
X154139713Y-80671379D02*
X154509179Y-80301913D01*
%TO.C,L33*%
X179018221Y-90792487D02*
X179387687Y-90423021D01*
X180022313Y-91796579D02*
X180391779Y-91427113D01*
%TO.C,L61*%
X157917313Y-98813221D02*
X158286779Y-99182687D01*
X156913221Y-99817313D02*
X157282687Y-100186779D01*
%TO.C,L65*%
X151308779Y-92519687D02*
X150939313Y-92150221D01*
X150304687Y-93523779D02*
X149935221Y-93154313D01*
%TO.C,L34*%
X180529478Y-86967786D02*
X180160012Y-86598320D01*
X179525386Y-87971878D02*
X179155920Y-87602412D01*
%TO.C,L62*%
X160917313Y-99386779D02*
X161286779Y-99017313D01*
X159913221Y-98382687D02*
X160282687Y-98013221D01*
%TO.C,L66*%
X151955313Y-90475779D02*
X152324779Y-90106313D01*
X150951221Y-89471687D02*
X151320687Y-89102221D01*
%TO.C,R29*%
X147837230Y-71098303D02*
X147501697Y-70762770D01*
X147098303Y-71837230D02*
X146762770Y-71501697D01*
%TO.C,R31*%
X155802097Y-62048370D02*
X156137630Y-62383903D01*
X155063170Y-62787297D02*
X155398703Y-63122830D01*
%TO.C,R32*%
X144174230Y-77290697D02*
X143838697Y-77626230D01*
X143435303Y-76551770D02*
X143099770Y-76887303D01*
%TO.C,R34*%
X152801697Y-86637230D02*
X153137230Y-86301697D01*
X152062770Y-85898303D02*
X152398303Y-85562770D01*
%TO.C,R30*%
X177418334Y-84223407D02*
X177753867Y-84558940D01*
X176679407Y-84962334D02*
X177014940Y-85297867D01*
%TO.C,R33*%
X162403770Y-96191303D02*
X162739303Y-95855770D01*
X163142697Y-96930230D02*
X163478230Y-96594697D01*
%TO.C,R35*%
X153698303Y-86862770D02*
X153362770Y-87198303D01*
X154437230Y-87601697D02*
X154101697Y-87937230D01*
D14*
%TO.C,U7*%
X142488063Y-83019296D02*
X143052334Y-82455025D01*
X146200374Y-79239103D02*
X146764645Y-78674832D01*
X151075168Y-82985355D02*
X150510897Y-83549626D01*
X147328916Y-86731607D02*
X146764645Y-87295878D01*
D15*
X146170117Y-78389161D02*
G75*
G03*
X146170117Y-78389161I-254000J0D01*
G01*
D14*
%TO.C,U8*%
X161325168Y-93135355D02*
X160760897Y-93699626D01*
X157578916Y-96881607D02*
X157014645Y-97445878D01*
X156450374Y-89389103D02*
X157014645Y-88824832D01*
X152738063Y-93169296D02*
X153302334Y-92605025D01*
D15*
X156420117Y-88539161D02*
G75*
G03*
X156420117Y-88539161I-254000J0D01*
G01*
D13*
%TO.C,R28*%
X167695467Y-93956940D02*
X167359934Y-93621407D01*
X166956540Y-94695867D02*
X166621007Y-94360334D01*
%TO.C,C40*%
X167835981Y-93424030D02*
X167637170Y-93225219D01*
X168557230Y-92702781D02*
X168358419Y-92503970D01*
%TO.C,L29*%
X172428087Y-97560421D02*
X172058621Y-97929887D01*
X173432179Y-98564513D02*
X173062713Y-98933979D01*
%TO.C,L30*%
X169670186Y-97522278D02*
X169300720Y-97152812D01*
X170674278Y-96518186D02*
X170304812Y-96148720D01*
%TO.C,L7*%
X128713221Y-95482687D02*
X129082687Y-95113221D01*
X129717313Y-96486779D02*
X130086779Y-96117313D01*
%TO.C,L9*%
X141832621Y-105016113D02*
X142202087Y-105385579D01*
X142836713Y-104012021D02*
X143206179Y-104381487D01*
%TO.C,R18*%
X138967230Y-104849697D02*
X138631697Y-105185230D01*
X138228303Y-104110770D02*
X137892770Y-104446303D01*
%TO.C,R4*%
X146598303Y-96662770D02*
X146262770Y-96998303D01*
X147337230Y-97401697D02*
X147001697Y-97737230D01*
%TO.C,C42*%
X175358770Y-91853619D02*
X175557581Y-92052430D01*
X176080019Y-91132370D02*
X176278830Y-91331181D01*
%TO.C,L51*%
X156386779Y-74017313D02*
X156017313Y-74386779D01*
X155382687Y-73013221D02*
X155013221Y-73382687D01*
%TO.C,C30*%
X191670000Y-100398252D02*
X191670000Y-99875748D01*
X193140000Y-100398252D02*
X193140000Y-99875748D01*
%TO.C,C52*%
X164431638Y-85224389D02*
X164232827Y-85025578D01*
X163710389Y-85945638D02*
X163511578Y-85746827D01*
%TO.C,L14*%
X134225152Y-47169000D02*
X133702648Y-47169000D01*
X134225152Y-48589000D02*
X133702648Y-48589000D01*
%TO.C,L6*%
X143661421Y-110147287D02*
X144030887Y-109777821D01*
X144665513Y-111151379D02*
X145034979Y-110781913D01*
%TO.C,L41*%
X171081887Y-86054221D02*
X170712421Y-86423687D01*
X172085979Y-87058313D02*
X171716513Y-87427779D01*
%TO.C,L49*%
X164604887Y-81152021D02*
X164235421Y-81521487D01*
X165608979Y-82156113D02*
X165239513Y-82525579D01*
%TO.C,L20*%
X137133621Y-51317313D02*
X137503087Y-51686779D01*
X138137713Y-50313221D02*
X138507179Y-50682687D01*
%TO.C,L15*%
X193115000Y-103497748D02*
X193115000Y-104020252D01*
X191695000Y-103497748D02*
X191695000Y-104020252D01*
%TO.C,L44*%
X167969221Y-88074313D02*
X168338687Y-88443779D01*
X168973313Y-87070221D02*
X169342779Y-87439687D01*
%TO.C,R17*%
X128737230Y-94501697D02*
X128401697Y-94837230D01*
X127998303Y-93762770D02*
X127662770Y-94098303D01*
%TO.C,R43*%
X172413697Y-103729770D02*
X172749230Y-104065303D01*
X171674770Y-104468697D02*
X172010303Y-104804230D01*
%TO.C,C7*%
X153757978Y-104314227D02*
X153956789Y-104513038D01*
X154479227Y-103592978D02*
X154678038Y-103791789D01*
%TO.C,C9*%
X148267019Y-98808830D02*
X148465830Y-98610019D01*
X147545770Y-98087581D02*
X147744581Y-97888770D01*
%TO.C,C89*%
X147403419Y-114252030D02*
X147602230Y-114053219D01*
X146682170Y-113530781D02*
X146880981Y-113331970D01*
%TO.C,L18*%
X186753687Y-105053421D02*
X186384221Y-105422887D01*
X187757779Y-106057513D02*
X187388313Y-106426979D01*
%TO.C,C78*%
X165665361Y-104897392D02*
X165295894Y-105266859D01*
X166704808Y-105936839D02*
X166335341Y-106306306D01*
%TO.C,C86*%
X157483573Y-106058622D02*
X157284762Y-105859811D01*
X158204822Y-105337373D02*
X158006011Y-105138562D01*
%TO.C,L72*%
X160128852Y-103277600D02*
X159606348Y-103277600D01*
X160128852Y-104697600D02*
X159606348Y-104697600D01*
%TO.C,C74*%
X212148969Y-107810000D02*
X211823411Y-107810000D01*
X212148969Y-106790000D02*
X211823411Y-106790000D01*
%TO.C,L13*%
X129113221Y-50817313D02*
X129482687Y-51186779D01*
X130117313Y-49813221D02*
X130486779Y-50182687D01*
%TO.C,U12*%
X156917872Y-115303924D02*
X156026918Y-114412970D01*
X152095404Y-110481456D02*
X152986358Y-111372410D01*
X152668160Y-119553636D02*
X156917872Y-115303924D01*
X149436682Y-113140177D02*
X152095404Y-110481456D01*
%TO.C,U9*%
X215006190Y-98650000D02*
X215006190Y-99125000D01*
X217751190Y-101870000D02*
X218226190Y-101870000D01*
X215006190Y-101870000D02*
X215006190Y-101395000D01*
X215481190Y-98650000D02*
X215006190Y-98650000D01*
X217751190Y-98650000D02*
X218226190Y-98650000D01*
X218226190Y-101870000D02*
X218226190Y-101395000D01*
X215481190Y-101870000D02*
X215006190Y-101870000D01*
%TO.C,C84*%
X156205210Y-107714657D02*
X155835743Y-107345190D01*
X157244657Y-106675210D02*
X156875190Y-106305743D01*
%TO.C,L26*%
X141378214Y-53582322D02*
X141747680Y-53951788D01*
X140374122Y-54586414D02*
X140743588Y-54955880D01*
%TO.C,R45*%
X213598969Y-88930000D02*
X213273411Y-88930000D01*
X213598969Y-89950000D02*
X213273411Y-89950000D01*
%TO.C,L11*%
X133313221Y-100182687D02*
X133682687Y-99813221D01*
X134317313Y-101186779D02*
X134686779Y-100817313D01*
%TO.C,R1*%
X128751097Y-73173570D02*
X129086630Y-73509103D01*
X128012170Y-73912497D02*
X128347703Y-74248030D01*
%TO.C,R3*%
X138555497Y-84839830D02*
X138891030Y-84504297D01*
X137816570Y-84100903D02*
X138152103Y-83765370D01*
%TO.C,R2*%
X155291770Y-102512897D02*
X155627303Y-102848430D01*
X156030697Y-101773970D02*
X156366230Y-102109503D01*
%TO.C,C5*%
X153499419Y-106835230D02*
X153698230Y-106636419D01*
X152778170Y-106113981D02*
X152976981Y-105915170D01*
%TO.C,C55*%
X162125370Y-93083781D02*
X162324181Y-92884970D01*
X162846619Y-93805030D02*
X163045430Y-93606219D01*
%TO.C,L19*%
X133247421Y-55486113D02*
X133616887Y-55855579D01*
X134251513Y-54482021D02*
X134620979Y-54851487D01*
%TO.C,C68*%
X168422610Y-105873943D02*
X168053143Y-106243410D01*
X169462057Y-106913390D02*
X169092590Y-107282857D01*
%TO.C,L25*%
X136219221Y-58737313D02*
X136588687Y-59106779D01*
X137223313Y-57733221D02*
X137592779Y-58102687D01*
%TO.C,L3*%
X150304313Y-96341221D02*
X150673779Y-96710687D01*
X149300221Y-97345313D02*
X149669687Y-97714779D01*
%TO.C,L16*%
X188760287Y-110567179D02*
X188390821Y-110197713D01*
X189764379Y-109563087D02*
X189394913Y-109193621D01*
%TO.C,L24*%
X183705687Y-102030821D02*
X183336221Y-102400287D01*
X184709779Y-103034913D02*
X184340313Y-103404379D01*
%TO.C,L21*%
X188023687Y-103201179D02*
X187654221Y-102831713D01*
X189027779Y-102197087D02*
X188658313Y-101827621D01*
%TO.C,C79*%
X164104610Y-103384743D02*
X163735143Y-103754210D01*
X165144057Y-104424190D02*
X164774590Y-104793657D01*
%TO.C,C50*%
X169948570Y-83990581D02*
X170147381Y-83791770D01*
X170669819Y-84711830D02*
X170868630Y-84513019D01*
%TO.C,L5*%
X145097687Y-108331979D02*
X144728221Y-107962513D01*
X146101779Y-107327887D02*
X145732313Y-106958421D01*
%TO.C,L50*%
X165403821Y-82969287D02*
X165773287Y-82599821D01*
X166407913Y-83973379D02*
X166777379Y-83603913D01*
%TO.C,C33*%
X188928030Y-107119019D02*
X188729219Y-107317830D01*
X188206781Y-106397770D02*
X188007970Y-106596581D01*
%TO.C,R9*%
X127461030Y-80925903D02*
X127125497Y-80590370D01*
X126722103Y-81664830D02*
X126386570Y-81329297D01*
%TO.C,U3*%
X146953410Y-100946652D02*
X145397775Y-102502287D01*
X150644508Y-104637750D02*
X152200143Y-103082115D01*
X150644508Y-104637750D02*
X149088873Y-106193385D01*
X146953410Y-100946652D02*
X149498995Y-98401068D01*
%TO.C,C87*%
X212044768Y-98400000D02*
X211527612Y-98400000D01*
X212044768Y-99820000D02*
X211527612Y-99820000D01*
%TO.C,R16*%
X145264103Y-111273570D02*
X144928570Y-111609103D01*
X146003030Y-112012497D02*
X145667497Y-112348030D01*
%TO.C,L46*%
X156654687Y-67488779D02*
X156285221Y-67119313D01*
X157658779Y-66484687D02*
X157289313Y-66115221D01*
%TO.C,TH1*%
X141180282Y-98040835D02*
X140859165Y-97719718D01*
X140140835Y-99080282D02*
X139819718Y-98759165D01*
%TO.C,C35*%
X185133381Y-103527570D02*
X184934570Y-103726381D01*
X185854630Y-104248819D02*
X185655819Y-104447630D01*
%TO.C,L38*%
X170077421Y-91681113D02*
X170446887Y-92050579D01*
X171081513Y-90677021D02*
X171450979Y-91046487D01*
%TO.C,L4*%
X143786779Y-89573287D02*
X143417313Y-89203821D01*
X142782687Y-90577379D02*
X142413221Y-90207913D01*
%TO.C,C91*%
X144197400Y-118585348D02*
X144197400Y-119107852D01*
X145667400Y-118585348D02*
X145667400Y-119107852D01*
%TO.C,C38*%
X183344419Y-99260370D02*
X183543230Y-99459181D01*
X182623170Y-99981619D02*
X182821981Y-100180430D01*
%TO.C,R19*%
X135970030Y-102301697D02*
X135634497Y-102637230D01*
X135231103Y-101562770D02*
X134895570Y-101898303D01*
D14*
%TO.C,U5*%
X147916652Y-61056129D02*
X148480923Y-61620400D01*
X144170400Y-57309877D02*
X144734671Y-57874148D01*
X140424148Y-62184671D02*
X139859877Y-61620400D01*
X144204341Y-65896982D02*
X143640070Y-65332711D01*
D15*
X139828206Y-62468928D02*
G75*
G03*
X139828206Y-62468928I-254000J0D01*
G01*
D13*
%TO.C,L2*%
X140217313Y-86413221D02*
X140586779Y-86782687D01*
X139213221Y-87417313D02*
X139582687Y-87786779D01*
%TO.C,R7*%
X129262103Y-79328030D02*
X128926570Y-78992497D01*
X130001030Y-78589103D02*
X129665497Y-78253570D01*
%TO.C,R8*%
X128629430Y-79859103D02*
X128293897Y-79523570D01*
X127890503Y-80598030D02*
X127554970Y-80262497D01*
%TO.C,U10*%
X171013521Y-108251105D02*
X170447836Y-108816791D01*
X171013521Y-108251105D02*
X171579207Y-107685420D01*
X173219695Y-110457279D02*
X171946902Y-111730071D01*
X173219695Y-110457279D02*
X173785380Y-109891593D01*
%TO.C,C76*%
X207634768Y-99820000D02*
X207117612Y-99820000D01*
X207634768Y-98400000D02*
X207117612Y-98400000D01*
%TO.C,L45*%
X153313221Y-71317313D02*
X153682687Y-71686779D01*
X154317313Y-70313221D02*
X154686779Y-70682687D01*
%TO.C,L28*%
X182017379Y-103924287D02*
X181647913Y-103554821D01*
X181013287Y-104928379D02*
X180643821Y-104558913D01*
%TO.C,C54*%
X156257970Y-87622781D02*
X156456781Y-87423970D01*
X156979219Y-88344030D02*
X157178030Y-88145219D01*
%TO.C,R47*%
X144306058Y-114568500D02*
X143831542Y-114568500D01*
X144306058Y-113523500D02*
X143831542Y-113523500D01*
%TO.C,C43*%
X173286019Y-93570770D02*
X173484830Y-93769581D01*
X172564770Y-94292019D02*
X172763581Y-94490830D01*
%TO.C,R36*%
X166819718Y-117859165D02*
X167140835Y-118180282D01*
X167859165Y-116819718D02*
X168180282Y-117140835D01*
%TO.C,R12*%
X143463030Y-93724497D02*
X143127497Y-94060030D01*
X142724103Y-92985570D02*
X142388570Y-93321103D01*
%TO.C,C6*%
X144243027Y-95287178D02*
X144441838Y-95485989D01*
X143521778Y-96008427D02*
X143720589Y-96207238D01*
%TO.C,C75*%
X175176581Y-111483430D02*
X174977770Y-111284619D01*
X175897830Y-110762181D02*
X175699019Y-110563370D01*
%TO.C,C48*%
X171599570Y-88638781D02*
X171798381Y-88439970D01*
X172320819Y-89360030D02*
X172519630Y-89161219D01*
%TO.C,C14*%
X140128970Y-102100781D02*
X140327781Y-101901970D01*
X140850219Y-102822030D02*
X141049030Y-102623219D01*
%TO.C,R13*%
X152296897Y-105744030D02*
X152632430Y-105408497D01*
X151557970Y-105005103D02*
X151893503Y-104669570D01*
%TO.C,L43*%
X173787779Y-83197887D02*
X173418313Y-82828421D01*
X172783687Y-84201979D02*
X172414221Y-83832513D01*
%TO.C,C88*%
X207738969Y-102350000D02*
X207413411Y-102350000D01*
X207738969Y-101330000D02*
X207413411Y-101330000D01*
%TO.C,C73*%
X212044768Y-102770000D02*
X211527612Y-102770000D01*
X212044768Y-101350000D02*
X211527612Y-101350000D01*
%TO.C,C90*%
X146859970Y-117228219D02*
X147058781Y-117427030D01*
X147581219Y-116506970D02*
X147780030Y-116705781D01*
%TO.C,L1*%
X152782687Y-100886779D02*
X152413221Y-100517313D01*
X153786779Y-99882687D02*
X153417313Y-99513221D01*
%TO.C,C77*%
X212148969Y-104280000D02*
X211823411Y-104280000D01*
X212148969Y-105300000D02*
X211823411Y-105300000D01*
%TO.C,C31*%
X191568400Y-110598852D02*
X191568400Y-110076348D01*
X193038400Y-110598852D02*
X193038400Y-110076348D01*
%TO.C,U11*%
X215006190Y-107120000D02*
X215006190Y-106645000D01*
X217751190Y-107120000D02*
X218226190Y-107120000D01*
X215481190Y-107120000D02*
X215006190Y-107120000D01*
X215006190Y-103900000D02*
X215006190Y-104375000D01*
X217751190Y-103900000D02*
X218226190Y-103900000D01*
X218226190Y-107120000D02*
X218226190Y-106645000D01*
X215481190Y-103900000D02*
X215006190Y-103900000D01*
D14*
%TO.C,U6*%
X178194993Y-92395818D02*
X178759264Y-92960089D01*
X178228934Y-100982923D02*
X177664663Y-100418652D01*
X181975186Y-96108129D02*
X182539457Y-96672400D01*
X174482682Y-97236671D02*
X173918411Y-96672400D01*
D15*
X183079128Y-95823872D02*
G75*
G03*
X183079128Y-95823872I-254000J0D01*
G01*
D13*
%TO.C,L52*%
X158517313Y-75286779D02*
X158886779Y-74917313D01*
X157513221Y-74282687D02*
X157882687Y-73913221D01*
%TO.C,L69*%
X138661252Y-118610000D02*
X138138748Y-118610000D01*
X138661252Y-117190000D02*
X138138748Y-117190000D01*
%TO.C,C70*%
X170447622Y-108149627D02*
X170248811Y-108348438D01*
X169726373Y-107428378D02*
X169527562Y-107627189D01*
%TO.C,C39*%
X181638230Y-101414981D02*
X181439419Y-101216170D01*
X180916981Y-102136230D02*
X180718170Y-101937419D01*
%TO.C,U1*%
X125748144Y-78698430D02*
X126084020Y-78362554D01*
X125412268Y-78362554D02*
X125748144Y-78698430D01*
X128025028Y-76421546D02*
X127689152Y-76757422D01*
X123807136Y-76757422D02*
X123471260Y-76421546D01*
X127689152Y-76085670D02*
X128025028Y-76421546D01*
X126084020Y-74480538D02*
X125748144Y-74144662D01*
X125748144Y-74144662D02*
X125412268Y-74480538D01*
%TO.C,R42*%
X174959030Y-106300503D02*
X174623497Y-105964970D01*
X174220103Y-107039430D02*
X173884570Y-106703897D01*
%TO.C,C4*%
X145473019Y-94053370D02*
X145671830Y-94252181D01*
X144751770Y-94774619D02*
X144950581Y-94973430D01*
%TO.C,U2*%
X140487627Y-94480869D02*
X138931992Y-96036504D01*
X140487627Y-94480869D02*
X142043262Y-92925234D01*
X136796529Y-90789771D02*
X135240894Y-92345406D01*
X136796529Y-90789771D02*
X139342114Y-88244187D01*
%TO.C,L37*%
X174155287Y-88621579D02*
X173785821Y-88252113D01*
X175159379Y-87617487D02*
X174789913Y-87248021D01*
D11*
%TO.C,U4*%
X128296397Y-106672096D02*
X128476002Y-106672096D01*
X127847384Y-107121109D02*
X128296397Y-106672096D01*
X131259882Y-113766499D02*
X130721066Y-114305314D01*
X130721066Y-114305314D02*
X130631264Y-114215512D01*
X132876328Y-112150053D02*
X133415143Y-111611237D01*
X125692123Y-109276371D02*
X125781925Y-109366173D01*
X133415143Y-111611237D02*
X133325341Y-111521435D01*
X126230938Y-108737555D02*
X125692123Y-109276371D01*
D13*
%TO.C,D2*%
X169955456Y-117830330D02*
X172996016Y-114789771D01*
X172996016Y-114789771D02*
X174410229Y-116203984D01*
X174410229Y-116203984D02*
X171369670Y-119244544D01*
%TO.C,L56*%
X161760922Y-90066586D02*
X162130388Y-89697120D01*
X162765014Y-91070678D02*
X163134480Y-90701212D01*
%TO.C,L73*%
X223297442Y-106380000D02*
X222774938Y-106380000D01*
X223297442Y-107800000D02*
X222774938Y-107800000D01*
%TO.C,L55*%
X159296287Y-87146421D02*
X158926821Y-87515887D01*
X160300379Y-88150513D02*
X159930913Y-88519979D01*
%TO.C,L10*%
X140169713Y-106401579D02*
X140539179Y-106032113D01*
X139165621Y-105397487D02*
X139535087Y-105028021D01*
%TO.C,L47*%
X169354687Y-81914021D02*
X168985221Y-82283487D01*
X170358779Y-82918113D02*
X169989313Y-83287579D01*
%TO.C,R5*%
X145601697Y-91837230D02*
X145937230Y-91501697D01*
X144862770Y-91098303D02*
X145198303Y-90762770D01*
%TO.C,L22*%
X184658979Y-106642087D02*
X184289513Y-106272621D01*
X183654887Y-107646179D02*
X183285421Y-107276713D01*
%TO.C,L27*%
X186335379Y-99555487D02*
X185965913Y-99186021D01*
X185331287Y-100559579D02*
X184961821Y-100190113D01*
%TO.C,R44*%
X217608969Y-89950000D02*
X217283411Y-89950000D01*
X217608969Y-88930000D02*
X217283411Y-88930000D01*
%TO.C,C57*%
X152559619Y-83873630D02*
X152758430Y-83674819D01*
X151838370Y-83152381D02*
X152037181Y-82953570D01*
D10*
%TO.C,L70*%
X166967785Y-107753681D02*
X170503319Y-111289215D01*
X163078697Y-111642769D02*
X163891870Y-110829596D01*
X167427404Y-114365130D02*
X166614231Y-115178303D01*
X166013191Y-108708276D02*
X166967785Y-107753681D01*
X166614231Y-115178303D02*
X163078697Y-111642769D01*
X169548724Y-112243809D02*
X170503319Y-111289215D01*
%TO.C,C80*%
X162875669Y-103567068D02*
X162027933Y-104414804D01*
X162559564Y-105090119D02*
X164962681Y-107493236D01*
X157412082Y-110234010D02*
X161654355Y-105991737D01*
X162570341Y-105075751D02*
X164973457Y-107478867D01*
X159800830Y-112655087D02*
X164043103Y-108412814D01*
X162097979Y-103637114D02*
X162875669Y-104414804D01*
D13*
%TO.C,C15*%
X147911419Y-110061030D02*
X148110230Y-109862219D01*
X147190170Y-109339781D02*
X147388981Y-109140970D01*
%TO.C,L53*%
X162065722Y-87073014D02*
X162435188Y-87442480D01*
X163069814Y-86068922D02*
X163439280Y-86438388D01*
%TD*%
M02*
