M48
; DRILL file {KiCad (5.99.0-10394-g2e15de97e0)} date Tue Jun 29 10:31:40 2021
; FORMAT={3:3/ absolute / metric / suppress leading zeros}
; #@! TF.CreationDate,2021-06-29T10:31:40+02:00
; #@! TF.GenerationSoftware,Kicad,Pcbnew,(5.99.0-10394-g2e15de97e0)
; #@! TF.FileFunction,Plated,1,2,PTH
FMAT,2
METRIC,TZ
; #@! TA.AperFunction,Plated,PTH,ComponentDrill
T1C0.300
; #@! TA.AperFunction,Plated,PTH,ViaDrill
T2C0.400
; #@! TA.AperFunction,Plated,PTH,ViaDrill
T3C0.500
; #@! TA.AperFunction,Plated,PTH,ComponentDrill
T4C0.500
; #@! TA.AperFunction,Plated,PTH,ComponentDrill
T5C0.889
; #@! TA.AperFunction,Plated,PTH,ComponentDrill
T6C1.400
; #@! TA.AperFunction,Plated,PTH,ComponentDrill
T7C3.000
%
G90
G05
T1
X124970Y-76422
X125359Y-76033
X125359Y-76810
X125748Y-75644
X125748Y-76422
X125748Y-77199
X126137Y-76033
X126137Y-76810
X126526Y-76422
T2
X105500Y-99500
X105500Y-105000
X105500Y-110000
X105500Y-115000
X105500Y-120000
X105500Y-125000
X105500Y-130000
X105500Y-134500
X110000Y-105000
X110000Y-134500
X110500Y-99500
X111633Y-107442
X112190Y-54440
X112190Y-125560
X112840Y-52840
X112840Y-56040
X112840Y-123960
X112840Y-127160
X113411Y-106553
X114440Y-56690
X114440Y-123310
X114440Y-127810
X114500Y-52250
X115000Y-99500
X115000Y-134500
X116040Y-52840
X116040Y-56040
X116040Y-123960
X116040Y-127160
X116459Y-112014
X116690Y-54440
X116690Y-125560
X117221Y-104267
X117348Y-109855
X118364Y-111379
X118491Y-107696
X118500Y-59500
X119126Y-74549
X119253Y-79121
X119253Y-83693
X119253Y-92120
X119380Y-87836
X119380Y-99441
X119507Y-97155
X120000Y-134500
X120650Y-71882
X121000Y-57000
X121500Y-111700
X121920Y-103886
X121979Y-81556
X122555Y-74168
X122730Y-84139
X122764Y-110115
X122936Y-69469
X123000Y-60000
X123179Y-89047
X123546Y-76276
X123571Y-73101
X124028Y-108814
X124028Y-108001
X124250Y-57000
X124600Y-115400
X125000Y-134500
X125095Y-106807
X125349Y-67437
X125476Y-94234
X125512Y-86200
X125730Y-103759
X126111Y-50927
X126200Y-107800
X126539Y-88008
X126577Y-82889
X126746Y-99441
X126800Y-60250
X126800Y-104400
X126909Y-96061
X126909Y-102083
X127197Y-112056
X127254Y-70612
X127400Y-57000
X127635Y-52324
X127737Y-106324
X127746Y-109602
X127762Y-71755
X127762Y-98552
X128270Y-85954
X128300Y-118500
X128397Y-70866
X128734Y-108615
X128905Y-92075
X129032Y-67437
X129127Y-110018
X129159Y-53721
X129300Y-89600
X129500Y-63000
X129667Y-47371
X129900Y-117120
X130000Y-134500
X130025Y-110916
X130300Y-90500
X130302Y-120675
X130351Y-112207
X130556Y-86995
X130591Y-74627
X130600Y-60250
X130810Y-48768
X130810Y-55118
X130900Y-102500
X131166Y-107823
X131338Y-111219
X131350Y-116200
X131572Y-47371
X131572Y-49784
X131572Y-88138
X131699Y-76454
X131900Y-105200
X131925Y-116775
X132080Y-119228
X132100Y-65500
X132207Y-68580
X132232Y-108788
X132334Y-88900
X132410Y-83464
X132461Y-73279
X132588Y-56642
X132700Y-107300
X132766Y-84379
X133096Y-70758
X133096Y-89662
X133198Y-85649
X133350Y-77470
X133960Y-112243
X134000Y-63500
X134200Y-116800
X134239Y-58420
X134700Y-108100
X135000Y-130000
X135000Y-134500
X135128Y-53213
X135128Y-76835
X135200Y-62100
X135700Y-115300
X135763Y-59690
X136129Y-92155
X136144Y-52197
X136144Y-96647
X136271Y-61214
X136525Y-80264
X137033Y-77978
X137489Y-93499
X137500Y-109200
X137541Y-98120
X137836Y-82964
X138049Y-62738
X138176Y-61341
X138303Y-80391
X138811Y-78740
X138836Y-59842
X138989Y-99543
X138989Y-99543
X139014Y-56388
X139100Y-95200
X139200Y-68400
X139294Y-63449
X139446Y-61976
X139827Y-50800
X139827Y-70485
X140000Y-125000
X140000Y-130000
X140000Y-134500
X140233Y-57582
X140310Y-64211
X140335Y-76835
X140564Y-99619
X140767Y-63094
X141097Y-77597
X141173Y-65024
X141173Y-66650
X141224Y-72009
X141351Y-51943
X141376Y-123292
X141478Y-118897
X141478Y-118897
X141580Y-63856
X141900Y-74300
X142011Y-102591
X142088Y-65786
X142291Y-64516
X142392Y-56185
X143129Y-73787
X143256Y-53467
X143307Y-96774
X143331Y-91838
X143331Y-91838
X143739Y-71755
X144094Y-93447
X144399Y-55753
X144551Y-73457
X144780Y-101981
X145415Y-98476
X145644Y-58166
X145669Y-69088
X145725Y-96750
X145923Y-106172
X146406Y-58877
X146558Y-57252
X146558Y-121371
X146685Y-65405
X146939Y-75184
X147015Y-94361
X147168Y-59690
X147193Y-69342
X147218Y-91948
X147371Y-58166
X147574Y-107975
X147650Y-93548
X147955Y-64516
X147955Y-74676
X148184Y-58979
X148700Y-71000
X148844Y-73279
X148971Y-65405
X148971Y-111887
X149352Y-108382
X149479Y-121371
X149682Y-102387
X149733Y-66167
X149800Y-94450
X150114Y-74168
X150368Y-110744
X150368Y-113411
X150622Y-70866
X151003Y-65659
X151130Y-75184
X151257Y-112522
X151384Y-114300
X151511Y-69977
X152019Y-61722
X152019Y-111633
X152146Y-71501
X152146Y-113411
X152432Y-114967
X152654Y-110871
X152806Y-122479
X152908Y-112522
X153131Y-114269
X153162Y-57531
X153162Y-62738
X153289Y-72898
X153289Y-116078
X153314Y-119888
X153416Y-110236
X153670Y-84988
X153670Y-102108
X153893Y-113507
X154051Y-63627
X154178Y-115189
X154305Y-116967
X154381Y-118872
X154813Y-58674
X154940Y-114300
X154965Y-86284
X155042Y-60198
X155194Y-116205
X155575Y-56642
X155677Y-118085
X155956Y-108915
X155956Y-115316
X155981Y-122504
X156210Y-82220
X156845Y-128143
X156972Y-65024
X156972Y-80518
X157099Y-114173
X157226Y-59893
X157251Y-116764
X157353Y-78740
X157709Y-83668
X158369Y-63881
X158394Y-61316
X158496Y-56896
X158496Y-120523
X158623Y-77724
X158902Y-101498
X159258Y-66802
X159309Y-114681
X159385Y-62611
X159715Y-105715
X159893Y-129794
X159969Y-108788
X160045Y-102083
X160528Y-58420
X160528Y-68834
X160782Y-76327
X160985Y-113386
X161036Y-83058
X161036Y-119380
X161163Y-71628
X161290Y-73914
X161366Y-109931
X162179Y-60198
X162306Y-81661
X162357Y-111735
X162382Y-102489
X162814Y-117348
X163805Y-102057
X163830Y-61849
X163830Y-80391
X163875Y-77277
X164135Y-114783
X164338Y-93726
X164465Y-91186
X164744Y-99873
X164973Y-79756
X165100Y-70485
X165227Y-88900
X165354Y-55245
X165354Y-63246
X165623Y-129859
X165735Y-102057
X165735Y-116967
X165862Y-113106
X166116Y-90170
X166548Y-99873
X166751Y-96266
X167132Y-79629
X167208Y-111608
X167462Y-102184
X167513Y-91059
X167716Y-103734
X167894Y-97790
X167894Y-105969
X168021Y-122174
X168300Y-58191
X168351Y-116713
X168554Y-91872
X168580Y-99949
X168783Y-110338
X169012Y-102743
X169037Y-49276
X169037Y-66802
X169037Y-79883
X169418Y-129794
X169926Y-115291
X170053Y-75565
X170085Y-111386
X170307Y-94361
X170561Y-68326
X170688Y-100686
X170815Y-80137
X171323Y-113843
X171856Y-61392
X172085Y-69850
X172085Y-95758
X172542Y-102362
X172720Y-80391
X172974Y-92075
X173101Y-129794
X173482Y-71120
X173609Y-91059
X173609Y-114173
X173863Y-53721
X173863Y-92837
X173888Y-107594
X173888Y-107594
X173888Y-111379
X173914Y-103480
X173990Y-90043
X174371Y-99060
X174625Y-92202
X174752Y-93726
X175006Y-72644
X175133Y-80645
X175133Y-98298
X175133Y-99822
X175336Y-112243
X175514Y-48006
X175514Y-85471
X175641Y-93091
X175895Y-99060
X175895Y-100584
X175895Y-105791
X176124Y-82499
X176530Y-74168
X176530Y-80772
X176530Y-121539
X176657Y-99822
X176784Y-86741
X176784Y-101473
X176784Y-129794
X177546Y-100711
X177673Y-90805
X177800Y-108204
X177927Y-103632
X177927Y-112395
X177952Y-67691
X178054Y-88138
X178181Y-75946
X178181Y-81534
X178562Y-48133
X178562Y-89535
X179197Y-58928
X179578Y-93472
X179959Y-106426
X180086Y-77851
X180213Y-85344
X180340Y-110871
X180467Y-92710
X180467Y-94234
X180863Y-129986
X180975Y-85979
X181229Y-93472
X181229Y-99822
X181356Y-95123
X181483Y-116840
X181864Y-48006
X181966Y-100432
X181991Y-86868
X182118Y-94234
X182118Y-96012
X182118Y-108331
X182880Y-95123
X183134Y-72898
X183310Y-54440
X183310Y-125560
X183388Y-81280
X183960Y-52840
X183960Y-56040
X183960Y-123960
X183960Y-127160
X184023Y-96012
X184277Y-97917
X184912Y-48133
X184912Y-96774
X185100Y-70917
X185420Y-108839
X185560Y-52190
X185560Y-56690
X185560Y-123310
X185560Y-127810
X186000Y-70017
X186000Y-70917
X186000Y-71817
X186055Y-97714
X186817Y-104013
X186900Y-70917
X187071Y-98806
X187160Y-52840
X187160Y-56040
X187160Y-123960
X187160Y-127160
X187198Y-109982
X187579Y-103251
X187810Y-54440
X187810Y-125560
X188087Y-99822
X188087Y-112522
X188468Y-48387
X188468Y-115189
X188468Y-118618
X188976Y-76454
X189230Y-100838
X189865Y-107442
X189992Y-108712
X190500Y-101727
X190627Y-99949
X190627Y-106553
X191008Y-50165
X191262Y-107823
X191897Y-106172
X192659Y-107823
X193167Y-81915
X193294Y-75819
X193421Y-70231
X193421Y-73406
X193421Y-79121
X193548Y-52197
X193548Y-54991
X193548Y-66421
X193675Y-58420
X193675Y-62230
T3
X142240Y-86741
X142345Y-80687
X143129Y-87503
X143256Y-86487
X143406Y-79627
X143441Y-85460
X143583Y-81925
X144290Y-86309
X144467Y-78566
X144643Y-80864
X144643Y-82278
X145350Y-81571
X145350Y-82985
X145704Y-79803
X146058Y-80864
X146058Y-82278
X146058Y-83692
X146765Y-81571
X146765Y-82985
X146765Y-84400
X147472Y-82278
X147472Y-83692
X147472Y-85107
X147825Y-86167
X148179Y-82985
X148179Y-84400
X148886Y-83692
X148886Y-85107
X149063Y-87405
X149479Y-79502
X149947Y-84046
X150123Y-86344
X150368Y-80391
X150495Y-79375
X150622Y-78359
X151184Y-85283
X151511Y-79502
X152400Y-96901
X152629Y-91008
X153289Y-97663
X153416Y-96647
X153656Y-89777
X153691Y-95610
X153833Y-92075
X154540Y-96459
X154717Y-88716
X154893Y-91014
X154893Y-92428
X155448Y-99847
X155600Y-91721
X155600Y-93135
X155954Y-89953
X156308Y-91014
X156308Y-92428
X156308Y-93842
X156515Y-100863
X157015Y-91721
X157015Y-93135
X157015Y-94550
X157480Y-101905
X157722Y-92428
X157722Y-93842
X157722Y-95257
X158075Y-96317
X158429Y-93135
X158429Y-94550
X159136Y-93842
X159136Y-95257
X159313Y-97555
X159639Y-89789
X160197Y-94196
X160373Y-96494
X160401Y-90551
X160655Y-89535
X160782Y-88519
X161290Y-100762
X161434Y-95433
X161671Y-89281
X162839Y-99670
T4
X142049Y-62328
X142756Y-61620
X142756Y-63035
X143463Y-60913
X143463Y-62328
X143463Y-63742
X144170Y-60206
X144170Y-61620
X144170Y-63035
X144643Y-82278
X144878Y-59499
X144878Y-60913
X144878Y-62328
X145350Y-81571
X145350Y-82985
X145585Y-60206
X145585Y-61620
X146058Y-80864
X146058Y-82278
X146058Y-83692
X146292Y-60913
X146765Y-81571
X146765Y-82985
X146765Y-84400
X147472Y-82278
X147472Y-83692
X147472Y-85107
X148179Y-82985
X148179Y-84400
X148886Y-83692
X154893Y-92428
X155600Y-91721
X155600Y-93135
X156308Y-91014
X156308Y-92428
X156308Y-93842
X157015Y-91721
X157015Y-93135
X157015Y-94550
X157722Y-92428
X157722Y-93842
X157722Y-95257
X158429Y-93135
X158429Y-94550
X159136Y-93842
X176108Y-97380
X176815Y-96672
X176815Y-98087
X177522Y-95965
X177522Y-97380
X177522Y-98794
X178229Y-95258
X178229Y-96672
X178229Y-98087
X178936Y-94551
X178936Y-95965
X178936Y-97380
X179643Y-95258
X179643Y-96672
X180350Y-95965
T5
X132993Y-122114
X134789Y-120318
X134789Y-123910
X136585Y-122114
X136585Y-125706
X138381Y-123910
T6
X111071Y-110071
X113765Y-112765
X116459Y-115459
X119153Y-118153
X121847Y-120847
X124541Y-123541
X127235Y-126235
X129929Y-128929
T7
X114000Y-90000
X114440Y-54440
X114440Y-125560
X150000Y-54000
X150000Y-126000
X185560Y-54440
X185560Y-125560
X186000Y-90000
T0
M30
