%TF.GenerationSoftware,KiCad,Pcbnew,6.0.4-6f826c9f35~116~ubuntu20.04.1*%
%TF.CreationDate,2022-08-02T10:51:49+00:00*%
%TF.ProjectId,QFHMIX01E,5146484d-4958-4303-9145-2e6b69636164,REV 0.2*%
%TF.SameCoordinates,Original*%
%TF.FileFunction,Copper,L1,Top*%
%TF.FilePolarity,Positive*%
%FSLAX46Y46*%
G04 Gerber Fmt 4.6, Leading zero omitted, Abs format (unit mm)*
G04 Created by KiCad (PCBNEW 6.0.4-6f826c9f35~116~ubuntu20.04.1) date 2022-08-02 10:51:49*
%MOMM*%
%LPD*%
G01*
G04 APERTURE LIST*
G04 Aperture macros list*
%AMRoundRect*
0 Rectangle with rounded corners*
0 $1 Rounding radius*
0 $2 $3 $4 $5 $6 $7 $8 $9 X,Y pos of 4 corners*
0 Add a 4 corners polygon primitive as box body*
4,1,4,$2,$3,$4,$5,$6,$7,$8,$9,$2,$3,0*
0 Add four circle primitives for the rounded corners*
1,1,$1+$1,$2,$3*
1,1,$1+$1,$4,$5*
1,1,$1+$1,$6,$7*
1,1,$1+$1,$8,$9*
0 Add four rect primitives between the rounded corners*
20,1,$1+$1,$2,$3,$4,$5,0*
20,1,$1+$1,$4,$5,$6,$7,0*
20,1,$1+$1,$6,$7,$8,$9,0*
20,1,$1+$1,$8,$9,$2,$3,0*%
%AMRotRect*
0 Rectangle, with rotation*
0 The origin of the aperture is its center*
0 $1 length*
0 $2 width*
0 $3 Rotation angle, in degrees counterclockwise*
0 Add horizontal line*
21,1,$1,$2,0,0,$3*%
G04 Aperture macros list end*
%TA.AperFunction,ComponentPad*%
%ADD10C,2.500000*%
%TD*%
%TA.AperFunction,ComponentPad*%
%ADD11RotRect,1.524000X1.524000X225.000000*%
%TD*%
%TA.AperFunction,SMDPad,CuDef*%
%ADD12RoundRect,0.218750X-0.218750X-0.256250X0.218750X-0.256250X0.218750X0.256250X-0.218750X0.256250X0*%
%TD*%
%TA.AperFunction,ComponentPad*%
%ADD13C,6.000000*%
%TD*%
%TA.AperFunction,WasherPad*%
%ADD14C,7.400000*%
%TD*%
%TA.AperFunction,ComponentPad*%
%ADD15C,0.500000*%
%TD*%
%TA.AperFunction,ComponentPad*%
%ADD16C,0.600000*%
%TD*%
%TA.AperFunction,SMDPad,CuDef*%
%ADD17RoundRect,0.250000X0.600000X0.600000X-0.600000X0.600000X-0.600000X-0.600000X0.600000X-0.600000X0*%
%TD*%
%TA.AperFunction,SMDPad,CuDef*%
%ADD18RoundRect,0.250000X-0.848528X0.000000X0.000000X-0.848528X0.848528X0.000000X0.000000X0.848528X0*%
%TD*%
%TA.AperFunction,ViaPad*%
%ADD19C,0.750000*%
%TD*%
%TA.AperFunction,ViaPad*%
%ADD20C,1.000000*%
%TD*%
%TA.AperFunction,Conductor*%
%ADD21C,0.500000*%
%TD*%
%TA.AperFunction,Conductor*%
%ADD22C,0.800000*%
%TD*%
%TA.AperFunction,Conductor*%
%ADD23C,0.300000*%
%TD*%
%TA.AperFunction,Conductor*%
%ADD24C,0.600000*%
%TD*%
%TA.AperFunction,Conductor*%
%ADD25C,0.400000*%
%TD*%
%TA.AperFunction,Conductor*%
%ADD26C,0.250000*%
%TD*%
%TA.AperFunction,Conductor*%
%ADD27C,3.000000*%
%TD*%
G04 APERTURE END LIST*
D10*
%TO.P,J1,1*%
%TO.N,CLK_IN_N*%
X111070731Y-110070731D03*
%TO.P,J1,2*%
%TO.N,CLK_IN_P*%
X113764808Y-112764808D03*
%TO.P,J1,3*%
%TO.N,DEM_OUTA_N*%
X116458885Y-115458885D03*
%TO.P,J1,4*%
%TO.N,DEM_OUTA_P*%
X119152962Y-118152962D03*
%TO.P,J1,5*%
%TO.N,DEM_OUTB_N*%
X121847038Y-120847038D03*
%TO.P,J1,6*%
%TO.N,DEM_OUTB_P*%
X124541115Y-123541115D03*
%TO.P,J1,7*%
%TO.N,GND*%
X127235192Y-126235192D03*
%TO.P,J1,8*%
%TO.N,VCC*%
X129929269Y-128929269D03*
%TD*%
D11*
%TO.P,J2,1*%
%TO.N,GND*%
X138380877Y-123910226D03*
%TO.P,J2,2*%
X136584826Y-125706277D03*
%TO.P,J2,3*%
%TO.N,VCC*%
X136584826Y-122114174D03*
%TO.P,J2,4*%
X134788774Y-123910226D03*
%TO.P,J2,5*%
%TO.N,GND*%
X134788774Y-120318123D03*
%TO.P,J2,6*%
X132992723Y-122114174D03*
%TD*%
D12*
%TO.P,C72,1*%
%TO.N,GND*%
X215512500Y-111550000D03*
%TO.P,C72,2*%
%TO.N,+3V3*%
X217087500Y-111550000D03*
%TD*%
D13*
%TO.P,M7,1*%
%TO.N,GND*%
X185560000Y-125560000D03*
%TD*%
%TO.P,M6,1*%
%TO.N,GND*%
X185560000Y-54440000D03*
%TD*%
%TO.P,M5,1*%
%TO.N,GND*%
X114440000Y-125560000D03*
%TD*%
D14*
%TO.P,M4,*%
%TO.N,*%
X150000000Y-126000000D03*
D15*
%TO.P,M4,1*%
%TO.N,N/C*%
X153000000Y-126000000D03*
X152598076Y-127500000D03*
X150000000Y-123000000D03*
X152598076Y-124500000D03*
X147401924Y-127500000D03*
X150000000Y-129000000D03*
X147000000Y-126000000D03*
X148500000Y-123401924D03*
X151500000Y-128598076D03*
X151500000Y-123401924D03*
X147401924Y-124500000D03*
X148500000Y-128598076D03*
%TD*%
D14*
%TO.P,M3,*%
%TO.N,*%
X150000000Y-54000000D03*
D15*
%TO.P,M3,1*%
%TO.N,N/C*%
X151500000Y-51401924D03*
X152598076Y-55500000D03*
X148500000Y-51401924D03*
X153000000Y-54000000D03*
X147401924Y-55500000D03*
X150000000Y-57000000D03*
X147000000Y-54000000D03*
X151500000Y-56598076D03*
X148500000Y-56598076D03*
X150000000Y-51000000D03*
X152598076Y-52500000D03*
X147401924Y-52500000D03*
%TD*%
D14*
%TO.P,M1,*%
%TO.N,*%
X186000000Y-90000000D03*
D15*
%TO.P,M1,1*%
%TO.N,N/C*%
X187500000Y-92598076D03*
X183401924Y-88500000D03*
X188598076Y-88500000D03*
X183401924Y-91500000D03*
X186000000Y-87000000D03*
X188598076Y-91500000D03*
X184500000Y-92598076D03*
X189000000Y-90000000D03*
X187500000Y-87401924D03*
X186000000Y-93000000D03*
X183000000Y-90000000D03*
X184500000Y-87401924D03*
%TD*%
D14*
%TO.P,M2,*%
%TO.N,*%
X114000000Y-90000000D03*
D15*
%TO.P,M2,1*%
%TO.N,N/C*%
X112500000Y-87401924D03*
X117000000Y-90000000D03*
X111401924Y-88500000D03*
X116598076Y-91500000D03*
X115500000Y-87401924D03*
X112500000Y-92598076D03*
X114000000Y-93000000D03*
X111000000Y-90000000D03*
X114000000Y-87000000D03*
X111401924Y-91500000D03*
X116598076Y-88500000D03*
X115500000Y-92598076D03*
%TD*%
D13*
%TO.P,M8,1*%
%TO.N,GND*%
X114440000Y-54440000D03*
%TD*%
D15*
%TO.P,U7,2,GND*%
%TO.N,GND*%
X146057538Y-82278248D03*
X145350431Y-81571141D03*
X144643325Y-82278248D03*
X147471752Y-82278248D03*
X146057538Y-83692462D03*
X148178859Y-84399569D03*
X147471752Y-83692462D03*
X145350431Y-82985355D03*
X148178859Y-82985355D03*
X147471752Y-85106675D03*
X146764645Y-82985355D03*
X146057538Y-80864035D03*
X148885965Y-83692462D03*
X146764645Y-81571141D03*
X146764645Y-84399569D03*
%TD*%
%TO.P,U8,2,GND*%
%TO.N,GND*%
X157721752Y-95256675D03*
X158428859Y-93135355D03*
X157721752Y-93842462D03*
X156307538Y-93842462D03*
X155600431Y-91721141D03*
X157014645Y-91721141D03*
X157721752Y-92428248D03*
X156307538Y-91014035D03*
X158428859Y-94549569D03*
X157014645Y-93135355D03*
X155600431Y-93135355D03*
X156307538Y-92428248D03*
X157014645Y-94549569D03*
X154893325Y-92428248D03*
X159135965Y-93842462D03*
%TD*%
D16*
%TO.P,U9,17,PGND*%
%TO.N,GND*%
X216066190Y-100260000D03*
X216616190Y-100810000D03*
X217166190Y-100810000D03*
X216066190Y-100810000D03*
X216616190Y-99710000D03*
X217166190Y-99710000D03*
X216616190Y-100260000D03*
X216066190Y-99710000D03*
D17*
X216616190Y-100260000D03*
D16*
X217166190Y-100260000D03*
%TD*%
D15*
%TO.P,U5,2,GND*%
%TO.N,GND*%
X145584614Y-61620400D03*
X142049080Y-62327507D03*
X143463293Y-60913293D03*
X144170400Y-63034614D03*
X144877507Y-62327507D03*
X143463293Y-63741720D03*
X144170400Y-61620400D03*
X143463293Y-62327507D03*
X146291720Y-60913293D03*
X145584614Y-60206186D03*
X144877507Y-59499080D03*
X144877507Y-60913293D03*
X142756186Y-63034614D03*
X142756186Y-61620400D03*
X144170400Y-60206186D03*
%TD*%
D16*
%TO.P,U11,17,PGND*%
%TO.N,GND*%
X216616190Y-104960000D03*
X217166190Y-104960000D03*
X216616190Y-106060000D03*
X217166190Y-105510000D03*
X216616190Y-105510000D03*
D17*
X216616190Y-105510000D03*
D16*
X216066190Y-106060000D03*
X216066190Y-105510000D03*
X217166190Y-106060000D03*
X216066190Y-104960000D03*
%TD*%
D15*
%TO.P,U6,2,GND*%
%TO.N,GND*%
X176107614Y-97379507D03*
X177521827Y-95965293D03*
X178936041Y-97379507D03*
X178936041Y-94551080D03*
X180350254Y-95965293D03*
X176814720Y-96672400D03*
X177521827Y-97379507D03*
X178228934Y-98086614D03*
X177521827Y-98793720D03*
X179643148Y-95258186D03*
X179643148Y-96672400D03*
X176814720Y-98086614D03*
X178228934Y-95258186D03*
X178228934Y-96672400D03*
X178936041Y-95965293D03*
%TD*%
D16*
%TO.P,U1,17,GND*%
%TO.N,GND*%
X125359235Y-76810455D03*
X125359235Y-76032637D03*
X125748144Y-75643729D03*
X124970327Y-76421546D03*
X125748144Y-77199363D03*
D18*
X125748144Y-76421546D03*
D16*
X126525961Y-76421546D03*
X126137053Y-76810455D03*
X126137053Y-76032637D03*
X125748144Y-76421546D03*
%TD*%
D19*
%TO.N,GND*%
X137500000Y-109200000D03*
X126909300Y-102082732D03*
X127762000Y-98552000D03*
X130900000Y-102500000D03*
X132700000Y-107300000D03*
X129900388Y-117120427D03*
X126800000Y-104400000D03*
X122763604Y-110115076D03*
X128300000Y-118500000D03*
X128734206Y-108614665D03*
X127746377Y-109602494D03*
X129127375Y-110017547D03*
X131338481Y-111218940D03*
X130350652Y-112206767D03*
X130025402Y-110915571D03*
X149682200Y-102387400D03*
X136128565Y-92155227D03*
X137488879Y-93498721D03*
X124250000Y-57000000D03*
X170688000Y-100685600D03*
X160985200Y-113385600D03*
X138303000Y-80391000D03*
X133350000Y-77470000D03*
X125476000Y-94234000D03*
X132100000Y-65500000D03*
X134000000Y-63500000D03*
X125512300Y-86200000D03*
X125095000Y-106807000D03*
X137836299Y-82963701D03*
X132334000Y-88900000D03*
X146200000Y-106800000D03*
X123545600Y-76276200D03*
X122555000Y-74168000D03*
X126200000Y-107800000D03*
X121500000Y-111700000D03*
X132080000Y-119227600D03*
X130302000Y-120675400D03*
X161163000Y-71628000D03*
X113411000Y-106553000D03*
X121920000Y-103886000D03*
X118364000Y-111379000D03*
X122729538Y-84139069D03*
X126746000Y-99441000D03*
X126539200Y-88007823D03*
D20*
X145350431Y-81571142D03*
X144643324Y-82278249D03*
X145350431Y-82985355D03*
X146057538Y-82278249D03*
X146764645Y-81571142D03*
X147471751Y-82278249D03*
X146764645Y-82985355D03*
X146057538Y-83692462D03*
X146764645Y-84399569D03*
X147471751Y-83692462D03*
X148178858Y-82985355D03*
X148885965Y-83692462D03*
X148178858Y-84399569D03*
X147471751Y-85106676D03*
X148885965Y-85106676D03*
X144643324Y-80864035D03*
X145703984Y-79803375D03*
X143582664Y-81924695D03*
X143405887Y-79626598D03*
X144466548Y-78565938D03*
X142345227Y-80687258D03*
X149946625Y-84046016D03*
X147825305Y-86167336D03*
X150123402Y-86344113D03*
X151184062Y-85283452D03*
X149062742Y-87404773D03*
X150495000Y-79375000D03*
X149479000Y-79502000D03*
X150622000Y-78359000D03*
X151511000Y-79502000D03*
X150368000Y-80391000D03*
X143256000Y-86487000D03*
X142240000Y-86741000D03*
X143129000Y-87503000D03*
X144289771Y-86308757D03*
X143441243Y-85460229D03*
X157014645Y-93135355D03*
X156307538Y-92428249D03*
X157721751Y-92428249D03*
X157014645Y-91721142D03*
X155600431Y-93135355D03*
X156307538Y-93842462D03*
X157014645Y-94549569D03*
X157721751Y-93842462D03*
X158428858Y-93135355D03*
X158428858Y-94549569D03*
X157721751Y-95256676D03*
X159135965Y-93842462D03*
X160196625Y-94196016D03*
X159135965Y-95256676D03*
X158075305Y-96317336D03*
X159312742Y-97554773D03*
X160373402Y-96494113D03*
X161434062Y-95433452D03*
X155600431Y-91721142D03*
X154893324Y-92428249D03*
X156307538Y-91014035D03*
X155953984Y-89953375D03*
X154716548Y-88715938D03*
X153655887Y-89776598D03*
X154893324Y-91014035D03*
X153832664Y-92074695D03*
X153416000Y-96647000D03*
X153691243Y-95610229D03*
X152400000Y-96901000D03*
X153289000Y-97663000D03*
X154539771Y-96458757D03*
X160655000Y-89535000D03*
X159639000Y-89789000D03*
X160782000Y-88519000D03*
X161671000Y-89281000D03*
X160401000Y-90551000D03*
D19*
X155041600Y-60198000D03*
X176530000Y-74168000D03*
X175006000Y-72644000D03*
X147218400Y-91948000D03*
X145415000Y-98475800D03*
X130300000Y-90500000D03*
X129300000Y-89600000D03*
X166547800Y-99872800D03*
X163804600Y-102057200D03*
X123571000Y-73101200D03*
X140000000Y-130000000D03*
X140000000Y-125000000D03*
X110000000Y-105000000D03*
X135000000Y-130000000D03*
X119126000Y-74549000D03*
X120650000Y-71882000D03*
X125349000Y-67437000D03*
X121000000Y-57000000D03*
X118500000Y-59500000D03*
X123000000Y-60000000D03*
X119253000Y-92119896D03*
X114500000Y-52250000D03*
X114440000Y-123310000D03*
X114440000Y-127810000D03*
X116690000Y-125560000D03*
X112190000Y-125560000D03*
X112840000Y-123960000D03*
X116040000Y-123960000D03*
X116040000Y-127160000D03*
X112840000Y-127160000D03*
X116040000Y-52840000D03*
X112190000Y-54440000D03*
X114440000Y-56690000D03*
X112840000Y-52840000D03*
X112840000Y-56040000D03*
X116690000Y-54440000D03*
X116040000Y-56040000D03*
X187160000Y-52840000D03*
X183310000Y-54440000D03*
X185560000Y-56690000D03*
X183960000Y-56040000D03*
X185560000Y-52190000D03*
X187810000Y-54440000D03*
X187160000Y-56040000D03*
X187160000Y-127160000D03*
X187810000Y-125560000D03*
X187160000Y-123960000D03*
X183310000Y-125560000D03*
X185560000Y-123310000D03*
X183960000Y-123960000D03*
X185560000Y-127810000D03*
X183960000Y-127160000D03*
X183960000Y-52840000D03*
X121978900Y-81555581D03*
X173482000Y-71120000D03*
X176784000Y-129794000D03*
X173101000Y-129794000D03*
X169418000Y-129794000D03*
X144551400Y-73456800D03*
X143738600Y-71755000D03*
X141097000Y-77597000D03*
X140335000Y-76835000D03*
X159308800Y-114681000D03*
X173913800Y-103479600D03*
X159969200Y-108788200D03*
X161366200Y-109931200D03*
X164744400Y-99872800D03*
X169011600Y-102743000D03*
X147574000Y-107975400D03*
X157226000Y-59893200D03*
X168579800Y-99949000D03*
X149800000Y-94450000D03*
X119253000Y-83693000D03*
X152146000Y-71501000D03*
X165862000Y-113106200D03*
X141173200Y-66649600D03*
D20*
X152628600Y-91008200D03*
D19*
X153289000Y-72898000D03*
X127635000Y-52324000D03*
X154051000Y-63627000D03*
X147370800Y-58166000D03*
X127762000Y-71755000D03*
X164338000Y-93726000D03*
X146685000Y-65405000D03*
X186817000Y-104013000D03*
X191262000Y-107823000D03*
X173609000Y-91059000D03*
X132410200Y-83464400D03*
X193421000Y-73406000D03*
X176530000Y-121539000D03*
X136525000Y-80264000D03*
X178054000Y-88138000D03*
X127254000Y-70612000D03*
X144399000Y-55753000D03*
X156845000Y-128143000D03*
X169037000Y-79883000D03*
X170815000Y-80137000D03*
X169037000Y-49276000D03*
X157353000Y-78740000D03*
X128397000Y-70866000D03*
X155575000Y-56642000D03*
X130556000Y-86995000D03*
X150114000Y-74168000D03*
X153314400Y-119888000D03*
X181483000Y-116840000D03*
X162179000Y-60198000D03*
X140500000Y-101000000D03*
X152806400Y-122478800D03*
X177673000Y-90805000D03*
X167208200Y-111607600D03*
X161290000Y-73914000D03*
X181991000Y-86868000D03*
X162382200Y-102489000D03*
X169000000Y-116500000D03*
X176530000Y-80772000D03*
X181965600Y-100431600D03*
X192659000Y-107823000D03*
X177927000Y-103632000D03*
X119380000Y-87836379D03*
X138988800Y-99542800D03*
X143129000Y-73787000D03*
X131699000Y-76454000D03*
X117221000Y-104267000D03*
X117348000Y-109855000D03*
X133096000Y-89662000D03*
X143256000Y-53467000D03*
X164465000Y-91186000D03*
X111633000Y-107442000D03*
X147167600Y-59690000D03*
X182880000Y-95123000D03*
D20*
X156514800Y-100863400D03*
D19*
X153162000Y-57531000D03*
X174752000Y-93726000D03*
X167132000Y-79629000D03*
X167894000Y-97790000D03*
X131572000Y-88138000D03*
X167513000Y-91059000D03*
X105500000Y-110000000D03*
X131572000Y-49784000D03*
X162356800Y-111734600D03*
X172720000Y-80391000D03*
X173863000Y-53721000D03*
X119507000Y-97155000D03*
X126800000Y-60250000D03*
X140000000Y-134500000D03*
X161500000Y-51100000D03*
X163875400Y-77277410D03*
X162306000Y-81661000D03*
X176784000Y-101473000D03*
X105500000Y-115000000D03*
X163830000Y-61849000D03*
X159258000Y-66802000D03*
X130600000Y-60250000D03*
X193548000Y-54991000D03*
X160528000Y-58420000D03*
X149733000Y-66167000D03*
X175133000Y-98298000D03*
X146939000Y-75184000D03*
X130810000Y-48768000D03*
X135200000Y-62100000D03*
X171856400Y-61391800D03*
X141900000Y-74300000D03*
X180975000Y-85979000D03*
X147900000Y-94700000D03*
X189230000Y-100838000D03*
D20*
X155448000Y-99847400D03*
D19*
X138049000Y-62738000D03*
X150622000Y-70866000D03*
X105500000Y-120000000D03*
X182118000Y-108331000D03*
X135700000Y-115300000D03*
X128270000Y-85953600D03*
X161036000Y-83058000D03*
X137033000Y-77978000D03*
X159385000Y-62611000D03*
X105500000Y-99500000D03*
X139400000Y-96500000D03*
X180863400Y-129986000D03*
X173990000Y-90043000D03*
X145725000Y-96750002D03*
X105500000Y-134500000D03*
X193294000Y-75819000D03*
X155956000Y-108915200D03*
D20*
X157480000Y-101904800D03*
D19*
X182118000Y-96012000D03*
X190627000Y-106553000D03*
X126909300Y-96061434D03*
X153670000Y-102108000D03*
X187071000Y-98806000D03*
X153162000Y-62738000D03*
X119253000Y-79121000D03*
X159893000Y-129794000D03*
X188468000Y-48387000D03*
X159715200Y-105714800D03*
X180340000Y-110871000D03*
X168021000Y-122174000D03*
X193675000Y-58420000D03*
X164973000Y-79756000D03*
X110500000Y-99500000D03*
X193167000Y-81915000D03*
X179578000Y-93472000D03*
X105500000Y-130000000D03*
X143100000Y-91900000D03*
X181229000Y-99822000D03*
X175895000Y-100584000D03*
X132461000Y-73279000D03*
X134239000Y-58420000D03*
X127400000Y-57000000D03*
X165354000Y-55245000D03*
X129032000Y-67437000D03*
X138836400Y-59842400D03*
X157708600Y-83667600D03*
X146558000Y-57251600D03*
X166116000Y-90170000D03*
X184277000Y-97917000D03*
X140233400Y-57581800D03*
X188468000Y-118618000D03*
X169037000Y-66802000D03*
X174625000Y-92202000D03*
X132588000Y-56642000D03*
X151511000Y-69977000D03*
X136144000Y-52197000D03*
X131572000Y-47371000D03*
X137541000Y-98120200D03*
X169926000Y-115290600D03*
X139014200Y-56388000D03*
X156972000Y-65024000D03*
X139200000Y-68400000D03*
X105500000Y-125000000D03*
X178181000Y-75946000D03*
X162814000Y-117348000D03*
X129500000Y-63000000D03*
X158623000Y-77724000D03*
X148844000Y-73279000D03*
X132765800Y-84378800D03*
X177800000Y-108204000D03*
X184912000Y-96774000D03*
X115000000Y-99500000D03*
X138400000Y-101800000D03*
X147955000Y-74676000D03*
X135000000Y-134500000D03*
D20*
X161290000Y-100761800D03*
D19*
X154381200Y-118872000D03*
X181864000Y-48006000D03*
X182118000Y-94234000D03*
X184912000Y-48133000D03*
X148971000Y-65405000D03*
X105500000Y-105000000D03*
X146558000Y-121371300D03*
X141351000Y-51943000D03*
X123179100Y-89046783D03*
X179959000Y-106426000D03*
X165735000Y-102057200D03*
X168783000Y-110337600D03*
X152019000Y-61722000D03*
D20*
X146057538Y-80864035D03*
D19*
X175514000Y-48006000D03*
X187579000Y-103251000D03*
X135128000Y-76835000D03*
X115000000Y-134500000D03*
X178562000Y-89535000D03*
X181229000Y-93472000D03*
X172085000Y-95758000D03*
X180213000Y-85344000D03*
X189865000Y-107442000D03*
X175641000Y-93091000D03*
X183134000Y-72898000D03*
X173888400Y-111379000D03*
X125730000Y-103759000D03*
X145643600Y-58166000D03*
X190627000Y-99949000D03*
X126576965Y-82888965D03*
X120000000Y-134500000D03*
X140766800Y-63093600D03*
X155981400Y-122504200D03*
X160782000Y-76327000D03*
X165227000Y-88900000D03*
X147955000Y-64516000D03*
X119380000Y-99441000D03*
X163830000Y-80391000D03*
X151130000Y-75184000D03*
X175895000Y-105791000D03*
X129667000Y-47371000D03*
X191008000Y-50165000D03*
X189992000Y-108712000D03*
X142087600Y-65786000D03*
X174371000Y-99060000D03*
X134700000Y-108100000D03*
X175895000Y-99060000D03*
X181356000Y-95123000D03*
X138811000Y-78740000D03*
X132207000Y-68580000D03*
X130000000Y-134500000D03*
X143306800Y-96774000D03*
X116459000Y-112014000D03*
X176784000Y-86741000D03*
X187198000Y-109982000D03*
X170307000Y-94361000D03*
X161036000Y-119380000D03*
X171323000Y-113842800D03*
X177546000Y-100711000D03*
X139293600Y-63449200D03*
X150100000Y-105200000D03*
X160528000Y-68834000D03*
X170053000Y-75565000D03*
X180467000Y-92710000D03*
X156210000Y-82219800D03*
X125000000Y-134500000D03*
X118491000Y-107696000D03*
X130810000Y-55118000D03*
X131900000Y-105200000D03*
X188468000Y-115189000D03*
X138988800Y-99542798D03*
X175133000Y-80645000D03*
X158496000Y-56896000D03*
X150368000Y-110744000D03*
X186055000Y-97713800D03*
X146405600Y-58877200D03*
X167400000Y-65200000D03*
X133197600Y-85648800D03*
X126111000Y-50927000D03*
X184023000Y-96012000D03*
X142290800Y-64516000D03*
X172085000Y-69850000D03*
X180467000Y-94234000D03*
X167716200Y-103733600D03*
X165100000Y-70485000D03*
X136271000Y-61214000D03*
X141224000Y-72009000D03*
X193675000Y-62230000D03*
X183388000Y-81280000D03*
X148183600Y-58978800D03*
X110000000Y-134500000D03*
X146800000Y-93400000D03*
X129159000Y-53721000D03*
X140309600Y-64211200D03*
X158496000Y-120523000D03*
X172542200Y-102362000D03*
X122936000Y-69469000D03*
X142392400Y-56184800D03*
X149479000Y-121371300D03*
X193548000Y-66421000D03*
X134200000Y-116800000D03*
X166751000Y-96266000D03*
X142011400Y-102500000D03*
X139827000Y-70485000D03*
X130591200Y-74626623D03*
X151003000Y-65659000D03*
X139827000Y-50800000D03*
X178562000Y-48133000D03*
X135763000Y-59690000D03*
X172974000Y-92075000D03*
X170561000Y-68326000D03*
X188087000Y-112522000D03*
X141173200Y-65024000D03*
X155676600Y-118084600D03*
X175514000Y-85471000D03*
X176657000Y-99822000D03*
X177952400Y-67691000D03*
X179197000Y-58928000D03*
X154813000Y-58674000D03*
X141579600Y-63855600D03*
X133096000Y-70757823D03*
X190500000Y-101727000D03*
X167462200Y-102184200D03*
X124600000Y-115400000D03*
X141376400Y-123291600D03*
X139446000Y-61976000D03*
X193548000Y-52197000D03*
X191897000Y-106172000D03*
X148971000Y-111887000D03*
X193421000Y-79121000D03*
X160045400Y-102082600D03*
X180086000Y-77851000D03*
X175133000Y-99822000D03*
X145669000Y-69088000D03*
X193421000Y-70231000D03*
X173863000Y-92837000D03*
X156972000Y-80518000D03*
X138176000Y-61341000D03*
X177927000Y-112395000D03*
X135128000Y-53213000D03*
X158369000Y-63881000D03*
D20*
X162839400Y-99669600D03*
D19*
X173609000Y-114173000D03*
X188087000Y-99822000D03*
X165623400Y-129859000D03*
X139100000Y-95200000D03*
X178181000Y-81534000D03*
X147193000Y-69342000D03*
X157251400Y-116763800D03*
X185420000Y-108839000D03*
X136144000Y-96647000D03*
X188976000Y-76454000D03*
%TO.N,VCC*%
X167894000Y-105968800D03*
X164200000Y-114200000D03*
X141478000Y-118897400D03*
X141478000Y-118897400D03*
%TO.N,+5V*%
X158394400Y-61315600D03*
X154965400Y-86283800D03*
X144094200Y-93446600D03*
X128905000Y-92075000D03*
X148700000Y-71000000D03*
X176123600Y-82499200D03*
X168554400Y-91871800D03*
X158902400Y-101498400D03*
X149352000Y-108381800D03*
X139395200Y-100787200D03*
X153670000Y-84988400D03*
%TO.N,+3V3*%
X124028199Y-108813599D03*
X127196814Y-112055871D03*
X124028200Y-108000800D03*
X152019000Y-111633000D03*
X152654000Y-110871000D03*
X150368000Y-113411000D03*
X153289000Y-116078000D03*
X154305000Y-116967000D03*
X151384000Y-114300000D03*
X152908000Y-112522000D03*
X131925000Y-116775000D03*
X151257000Y-112522000D03*
X154940000Y-114300000D03*
X157099000Y-114173000D03*
X154178000Y-115189000D03*
X152146000Y-113411000D03*
X131350000Y-116200000D03*
X153416000Y-110236000D03*
X155956000Y-115316000D03*
X155194000Y-116205000D03*
%TO.N,Net-(C23-Pad1)*%
X132232400Y-108788200D03*
X133959600Y-112242600D03*
%TO.N,Net-(C22-Pad2)*%
X131165600Y-107823000D03*
X127736600Y-106324400D03*
%TO.N,Net-(C75-Pad1)*%
X170085100Y-111385700D03*
X175336200Y-112242600D03*
%TO.N,/LNA/QFH_IN_1_N*%
X185100000Y-70916800D03*
X186000000Y-70016800D03*
X186000000Y-70916800D03*
X186900000Y-70916800D03*
X186000000Y-71816800D03*
%TO.N,Net-(C90-Pad2)*%
X153892664Y-113506664D03*
X152432164Y-114967164D03*
X153130664Y-114268664D03*
%TO.N,/Power/PWR_EN*%
X162000000Y-112900000D03*
X168800000Y-118500000D03*
X173888400Y-107594400D03*
X171800000Y-115800000D03*
X173888400Y-107594400D03*
X142092669Y-99538546D03*
%TD*%
D21*
%TO.N,GND*%
X125041037Y-76421546D02*
X125748144Y-76421546D01*
X125748144Y-77128653D02*
X125748144Y-76421546D01*
X126455251Y-76421546D02*
X125748144Y-76421546D01*
X125748144Y-75714439D02*
X125748144Y-76421546D01*
X132575000Y-89450000D02*
X132525000Y-89450000D01*
D22*
%TO.N,VCC*%
X163517300Y-113317300D02*
X167894000Y-108940600D01*
X167894000Y-108940600D02*
X167894000Y-105968800D01*
X141478000Y-118897400D02*
X149428200Y-118897400D01*
X155651200Y-121183400D02*
X163517300Y-113317300D01*
X151714200Y-121183400D02*
X155651200Y-121183400D01*
D23*
X164200000Y-114200000D02*
X163517300Y-113517300D01*
X163517300Y-113517300D02*
X163517300Y-113317300D01*
D22*
X149428200Y-118897400D02*
X151714200Y-121183400D01*
%TO.N,+5V*%
X169037000Y-89636600D02*
X176123600Y-82550000D01*
X155016200Y-83642200D02*
X153670000Y-84988400D01*
D24*
X133045200Y-92075000D02*
X149352000Y-108381800D01*
D22*
X158902400Y-101498400D02*
X168529000Y-91871800D01*
D24*
X128905000Y-92075000D02*
X133045200Y-92075000D01*
D22*
X168986200Y-91440000D02*
X168554400Y-91871800D01*
X176123600Y-82550000D02*
X176123600Y-82499200D01*
X155016200Y-77316200D02*
X155016200Y-83642200D01*
X154965400Y-86283800D02*
X153670000Y-84988400D01*
X148700000Y-71000000D02*
X155016200Y-77316200D01*
X156362400Y-84886800D02*
X154965400Y-86283800D01*
X168986200Y-89636600D02*
X169037000Y-89636600D01*
X168986200Y-89636600D02*
X164236400Y-84886800D01*
X164236400Y-84886800D02*
X156362400Y-84886800D01*
X168529000Y-91871800D02*
X168554400Y-91871800D01*
D25*
X139395200Y-100787200D02*
X139412800Y-100787200D01*
D24*
X139257900Y-98282900D02*
X144094200Y-93446600D01*
D22*
X148710000Y-71000000D02*
X158394400Y-61315600D01*
X168986200Y-89636600D02*
X168986200Y-91440000D01*
D25*
X139412800Y-100787200D02*
X140587500Y-99612500D01*
D24*
%TO.N,+3V3*%
X131925000Y-116775000D02*
X127205871Y-112055871D01*
X124028200Y-108000800D02*
X124028199Y-108813599D01*
X127205871Y-112055871D02*
X127196814Y-112055871D01*
X127196814Y-111982214D02*
X124028199Y-108813599D01*
X127196814Y-112055871D02*
X127196814Y-111982214D01*
D26*
%TO.N,Net-(C23-Pad1)*%
X132232400Y-108788200D02*
X132232400Y-109372400D01*
X133959600Y-111099600D02*
X133959600Y-112242600D01*
X132232400Y-109372400D02*
X133959600Y-111099600D01*
D23*
%TO.N,Net-(C22-Pad2)*%
X131165600Y-107823000D02*
X130632200Y-107823000D01*
X129133600Y-106324400D02*
X127736600Y-106324400D01*
X130632200Y-107823000D02*
X129133600Y-106324400D01*
D25*
%TO.N,Net-(C75-Pad1)*%
X170942000Y-112242600D02*
X170085100Y-111385700D01*
X175336200Y-112242600D02*
X170942000Y-112242600D01*
D27*
%TO.N,/LNA/QFH_IN_1_N*%
X186000000Y-71816800D02*
X186000000Y-70916800D01*
X186000000Y-71816800D02*
X186000000Y-90000000D01*
D23*
%TO.N,/Power/PWR_EN*%
X162000000Y-113000000D02*
X162000000Y-112900000D01*
X142092669Y-99538546D02*
X142092669Y-99692669D01*
X156600000Y-107600000D02*
X162000000Y-113000000D01*
X150000000Y-107600000D02*
X156600000Y-107600000D01*
X171800000Y-115800000D02*
X169100000Y-118500000D01*
X142092669Y-99692669D02*
X150000000Y-107600000D01*
X169100000Y-118500000D02*
X168800000Y-118500000D01*
%TD*%
%TA.AperFunction,Conductor*%
%TO.N,GND*%
G36*
X194907621Y-45054502D02*
G01*
X194954114Y-45108158D01*
X194965500Y-45160500D01*
X194965500Y-134839500D01*
X194945498Y-134907621D01*
X194891842Y-134954114D01*
X194839500Y-134965500D01*
X105160500Y-134965500D01*
X105092379Y-134945498D01*
X105045886Y-134891842D01*
X105034500Y-134839500D01*
X105034500Y-128929269D01*
X128373975Y-128929269D01*
X128393123Y-129172571D01*
X128394278Y-129177380D01*
X128442933Y-129380040D01*
X128450097Y-129409881D01*
X128451987Y-129414444D01*
X128451989Y-129414450D01*
X128519047Y-129576343D01*
X128543492Y-129635358D01*
X128671010Y-129843448D01*
X128829510Y-130029028D01*
X129015090Y-130187528D01*
X129223180Y-130315046D01*
X129227750Y-130316939D01*
X129227754Y-130316941D01*
X129444088Y-130406549D01*
X129444094Y-130406551D01*
X129448657Y-130408441D01*
X129453457Y-130409593D01*
X129453462Y-130409595D01*
X129561971Y-130435646D01*
X129685967Y-130465415D01*
X129929269Y-130484563D01*
X130172571Y-130465415D01*
X130296567Y-130435646D01*
X130405076Y-130409595D01*
X130405081Y-130409593D01*
X130409881Y-130408441D01*
X130414444Y-130406551D01*
X130414450Y-130406549D01*
X130630784Y-130316941D01*
X130630788Y-130316939D01*
X130635358Y-130315046D01*
X130843448Y-130187528D01*
X131029028Y-130029028D01*
X131187528Y-129843448D01*
X131315046Y-129635358D01*
X131339491Y-129576343D01*
X131406549Y-129414450D01*
X131406551Y-129414444D01*
X131408441Y-129409881D01*
X131415606Y-129380040D01*
X131464260Y-129177380D01*
X131465415Y-129172571D01*
X131484563Y-128929269D01*
X131465415Y-128685967D01*
X131418419Y-128490217D01*
X131409595Y-128453462D01*
X131409593Y-128453457D01*
X131408441Y-128448657D01*
X131406551Y-128444094D01*
X131406549Y-128444088D01*
X131316941Y-128227754D01*
X131316939Y-128227750D01*
X131315046Y-128223180D01*
X131187528Y-128015090D01*
X131029028Y-127829510D01*
X130843448Y-127671010D01*
X130635358Y-127543492D01*
X130630788Y-127541599D01*
X130630784Y-127541597D01*
X130414450Y-127451989D01*
X130414444Y-127451987D01*
X130409881Y-127450097D01*
X130405081Y-127448945D01*
X130405076Y-127448943D01*
X130254201Y-127412721D01*
X130172571Y-127393123D01*
X129929269Y-127373975D01*
X129685967Y-127393123D01*
X129604337Y-127412721D01*
X129453462Y-127448943D01*
X129453457Y-127448945D01*
X129448657Y-127450097D01*
X129444094Y-127451987D01*
X129444088Y-127451989D01*
X129227754Y-127541597D01*
X129227750Y-127541599D01*
X129223180Y-127543492D01*
X129015090Y-127671010D01*
X128829510Y-127829510D01*
X128671010Y-128015090D01*
X128543492Y-128223180D01*
X128541599Y-128227750D01*
X128541597Y-128227754D01*
X128451989Y-128444088D01*
X128451987Y-128444094D01*
X128450097Y-128448657D01*
X128448945Y-128453457D01*
X128448943Y-128453462D01*
X128440119Y-128490217D01*
X128393123Y-128685967D01*
X128373975Y-128929269D01*
X105034500Y-128929269D01*
X105034500Y-127096891D01*
X122521226Y-127096891D01*
X122530935Y-127306662D01*
X122532339Y-127312487D01*
X122532339Y-127312488D01*
X122572052Y-127477268D01*
X122580136Y-127510813D01*
X122582618Y-127516271D01*
X122582619Y-127516275D01*
X122625732Y-127611096D01*
X122667052Y-127701976D01*
X122788549Y-127873255D01*
X122940243Y-128018470D01*
X122945278Y-128021721D01*
X123111621Y-128129128D01*
X123111624Y-128129129D01*
X123116658Y-128132380D01*
X123122221Y-128134622D01*
X123305867Y-128208634D01*
X123305870Y-128208635D01*
X123311431Y-128210876D01*
X123317312Y-128212024D01*
X123317317Y-128212026D01*
X123513088Y-128250257D01*
X123513091Y-128250257D01*
X123517534Y-128251125D01*
X123523055Y-128251395D01*
X123677881Y-128251395D01*
X123834458Y-128236456D01*
X123840214Y-128234767D01*
X123840216Y-128234767D01*
X123929295Y-128208634D01*
X124035961Y-128177342D01*
X124136359Y-128125634D01*
X124217320Y-128083936D01*
X124217323Y-128083934D01*
X124222651Y-128081190D01*
X124301432Y-128019307D01*
X124383074Y-127955177D01*
X124383079Y-127955173D01*
X124387791Y-127951471D01*
X124391723Y-127946940D01*
X124521491Y-127797397D01*
X124521495Y-127797392D01*
X124525422Y-127792866D01*
X124630578Y-127611096D01*
X124699465Y-127412721D01*
X124714843Y-127306662D01*
X124728737Y-127210839D01*
X124728737Y-127210836D01*
X124729598Y-127204899D01*
X124719889Y-126995128D01*
X124670688Y-126790977D01*
X124641161Y-126726034D01*
X124586252Y-126605269D01*
X124583772Y-126599814D01*
X124462275Y-126428535D01*
X124310581Y-126283320D01*
X124213445Y-126220600D01*
X124139203Y-126172662D01*
X124139200Y-126172661D01*
X124134166Y-126169410D01*
X124128603Y-126167168D01*
X123944957Y-126093156D01*
X123944954Y-126093155D01*
X123939393Y-126090914D01*
X123933512Y-126089766D01*
X123933507Y-126089764D01*
X123737736Y-126051533D01*
X123737733Y-126051533D01*
X123733290Y-126050665D01*
X123727769Y-126050395D01*
X123572943Y-126050395D01*
X123416366Y-126065334D01*
X123410610Y-126067023D01*
X123410608Y-126067023D01*
X123333091Y-126089764D01*
X123214863Y-126124448D01*
X123131917Y-126167168D01*
X123033504Y-126217854D01*
X123033501Y-126217856D01*
X123028173Y-126220600D01*
X122991020Y-126249784D01*
X122867750Y-126346613D01*
X122867745Y-126346617D01*
X122863033Y-126350319D01*
X122859102Y-126354849D01*
X122859101Y-126354850D01*
X122729333Y-126504393D01*
X122729329Y-126504398D01*
X122725402Y-126508924D01*
X122620246Y-126690694D01*
X122551359Y-126889069D01*
X122550498Y-126895004D01*
X122550498Y-126895006D01*
X122535113Y-127001118D01*
X122521226Y-127096891D01*
X105034500Y-127096891D01*
X105034500Y-125265485D01*
X129740786Y-125265485D01*
X129750495Y-125475256D01*
X129751899Y-125481081D01*
X129751899Y-125481082D01*
X129782764Y-125609149D01*
X129799696Y-125679407D01*
X129802178Y-125684865D01*
X129802179Y-125684869D01*
X129845292Y-125779690D01*
X129886612Y-125870570D01*
X130008109Y-126041849D01*
X130159803Y-126187064D01*
X130164838Y-126190315D01*
X130331181Y-126297722D01*
X130331184Y-126297723D01*
X130336218Y-126300974D01*
X130341781Y-126303216D01*
X130525427Y-126377228D01*
X130525430Y-126377229D01*
X130530991Y-126379470D01*
X130536872Y-126380618D01*
X130536877Y-126380620D01*
X130732648Y-126418851D01*
X130732651Y-126418851D01*
X130737094Y-126419719D01*
X130742615Y-126419989D01*
X130897441Y-126419989D01*
X131054018Y-126405050D01*
X131059774Y-126403361D01*
X131059776Y-126403361D01*
X131148855Y-126377228D01*
X131255521Y-126345936D01*
X131383409Y-126280069D01*
X131436880Y-126252530D01*
X131436883Y-126252528D01*
X131442211Y-126249784D01*
X131517919Y-126190315D01*
X131602634Y-126123771D01*
X131602639Y-126123767D01*
X131607351Y-126120065D01*
X131614493Y-126111835D01*
X131741051Y-125965991D01*
X131741055Y-125965986D01*
X131744982Y-125961460D01*
X131755038Y-125944077D01*
X145995065Y-125944077D01*
X146008722Y-126335157D01*
X146009129Y-126338206D01*
X146009129Y-126338208D01*
X146014635Y-126379470D01*
X146060477Y-126723038D01*
X146149834Y-127104017D01*
X146150823Y-127106923D01*
X146150825Y-127106929D01*
X146274950Y-127471543D01*
X146274955Y-127471555D01*
X146275943Y-127474458D01*
X146437598Y-127830826D01*
X146633258Y-128169717D01*
X146635047Y-128172216D01*
X146635049Y-128172219D01*
X146836399Y-128453462D01*
X146861053Y-128487899D01*
X147118810Y-128782333D01*
X147404069Y-129050208D01*
X147714107Y-129288969D01*
X147716710Y-129290596D01*
X147716715Y-129290599D01*
X147835687Y-129364941D01*
X148045964Y-129496337D01*
X148396472Y-129670331D01*
X148762287Y-129809290D01*
X149139915Y-129911890D01*
X149142958Y-129912405D01*
X149142964Y-129912406D01*
X149522713Y-129976636D01*
X149522720Y-129976637D01*
X149525754Y-129977150D01*
X149528825Y-129977365D01*
X149528827Y-129977365D01*
X149913053Y-130004233D01*
X149913061Y-130004233D01*
X149916119Y-130004447D01*
X150169704Y-129997363D01*
X150304211Y-129993606D01*
X150304214Y-129993606D01*
X150307285Y-129993520D01*
X150310338Y-129993134D01*
X150310342Y-129993134D01*
X150496145Y-129969662D01*
X150695517Y-129944475D01*
X150698521Y-129943793D01*
X150698524Y-129943792D01*
X151074115Y-129858460D01*
X151074121Y-129858458D01*
X151077111Y-129857779D01*
X151222875Y-129809290D01*
X151445500Y-129735233D01*
X151445506Y-129735231D01*
X151448424Y-129734260D01*
X151589551Y-129671426D01*
X151803111Y-129576343D01*
X151803117Y-129576340D01*
X151805911Y-129575096D01*
X151808580Y-129573580D01*
X152143492Y-129383324D01*
X152143498Y-129383320D01*
X152146160Y-129381808D01*
X152465924Y-129156239D01*
X152762150Y-128900544D01*
X152764271Y-128898317D01*
X152764277Y-128898311D01*
X153029894Y-128619385D01*
X153032011Y-128617162D01*
X153131192Y-128490217D01*
X153271021Y-128311244D01*
X153271023Y-128311241D01*
X153272931Y-128308799D01*
X153274587Y-128306189D01*
X153274593Y-128306181D01*
X153480957Y-127981003D01*
X153480959Y-127981000D01*
X153482610Y-127978398D01*
X153498501Y-127946940D01*
X153576328Y-127792866D01*
X153659046Y-127629112D01*
X153800557Y-127264277D01*
X153905790Y-126887374D01*
X153957504Y-126594090D01*
X153973210Y-126505018D01*
X153973210Y-126505015D01*
X153973742Y-126502000D01*
X153986580Y-126335157D01*
X154003613Y-126113789D01*
X154003613Y-126113778D01*
X154003763Y-126111835D01*
X154005325Y-126000000D01*
X153986209Y-125609149D01*
X153929044Y-125222028D01*
X153834376Y-124842334D01*
X153817934Y-124796158D01*
X153720824Y-124523444D01*
X153703107Y-124473689D01*
X153536492Y-124119614D01*
X153519520Y-124091142D01*
X153378149Y-123853991D01*
X153336120Y-123783487D01*
X153121498Y-123492380D01*
X153105727Y-123470988D01*
X153105725Y-123470985D01*
X153103905Y-123468517D01*
X152842061Y-123177711D01*
X152553090Y-122913844D01*
X152239749Y-122679435D01*
X152094033Y-122591186D01*
X151907658Y-122478313D01*
X151907649Y-122478308D01*
X151905030Y-122476722D01*
X151552126Y-122307638D01*
X151549237Y-122306586D01*
X151549231Y-122306584D01*
X151187306Y-122174855D01*
X151187303Y-122174854D01*
X151184407Y-122173800D01*
X150905080Y-122102081D01*
X150808366Y-122077249D01*
X150808363Y-122077248D01*
X150805382Y-122076483D01*
X150418670Y-122016617D01*
X150415613Y-122016446D01*
X150415612Y-122016446D01*
X150385120Y-122014741D01*
X150027962Y-121994773D01*
X150024883Y-121994902D01*
X150024880Y-121994902D01*
X149793940Y-122004581D01*
X149636987Y-122011159D01*
X149633943Y-122011587D01*
X149633941Y-122011587D01*
X149599368Y-122016446D01*
X149249477Y-122065620D01*
X148869131Y-122157636D01*
X148499579Y-122286327D01*
X148486843Y-122292212D01*
X148147146Y-122449174D01*
X148147136Y-122449179D01*
X148144349Y-122450467D01*
X148035829Y-122514135D01*
X147809486Y-122646929D01*
X147809481Y-122646932D01*
X147806831Y-122648487D01*
X147766433Y-122677838D01*
X147492730Y-122876694D01*
X147492721Y-122876701D01*
X147490248Y-122878498D01*
X147487958Y-122880531D01*
X147487952Y-122880536D01*
X147290397Y-123055934D01*
X147197621Y-123138305D01*
X146931743Y-123425427D01*
X146929888Y-123427871D01*
X146698855Y-123732246D01*
X146695152Y-123737124D01*
X146623255Y-123853991D01*
X146547709Y-123976790D01*
X146490107Y-124070420D01*
X146318564Y-124422135D01*
X146317493Y-124425016D01*
X146317490Y-124425022D01*
X146251667Y-124602015D01*
X146182162Y-124788910D01*
X146082201Y-125167246D01*
X146071359Y-125234189D01*
X146032315Y-125475256D01*
X146019637Y-125553531D01*
X146019443Y-125556611D01*
X146019443Y-125556613D01*
X146011374Y-125684869D01*
X145995065Y-125944077D01*
X131755038Y-125944077D01*
X131850138Y-125779690D01*
X131908292Y-125612222D01*
X131917058Y-125586980D01*
X131917058Y-125586978D01*
X131919025Y-125581315D01*
X131934403Y-125475256D01*
X131948297Y-125379433D01*
X131948297Y-125379430D01*
X131949158Y-125373493D01*
X131939449Y-125163722D01*
X131890248Y-124959571D01*
X131876252Y-124928787D01*
X131814006Y-124791885D01*
X131803332Y-124768408D01*
X131681835Y-124597129D01*
X131530141Y-124451914D01*
X131433005Y-124389194D01*
X131358763Y-124341256D01*
X131358760Y-124341255D01*
X131353726Y-124338004D01*
X131348163Y-124335762D01*
X131164517Y-124261750D01*
X131164514Y-124261749D01*
X131158953Y-124259508D01*
X131153072Y-124258360D01*
X131153067Y-124258358D01*
X130957296Y-124220127D01*
X130957293Y-124220127D01*
X130952850Y-124219259D01*
X130947329Y-124218989D01*
X130792503Y-124218989D01*
X130635926Y-124233928D01*
X130630170Y-124235617D01*
X130630168Y-124235617D01*
X130606263Y-124242630D01*
X130434423Y-124293042D01*
X130351477Y-124335762D01*
X130253064Y-124386448D01*
X130253061Y-124386450D01*
X130247733Y-124389194D01*
X130243018Y-124392898D01*
X130087310Y-124515207D01*
X130087305Y-124515211D01*
X130082593Y-124518913D01*
X130078662Y-124523443D01*
X130078661Y-124523444D01*
X129948893Y-124672987D01*
X129948889Y-124672992D01*
X129944962Y-124677518D01*
X129839806Y-124859288D01*
X129770919Y-125057663D01*
X129770058Y-125063598D01*
X129770058Y-125063600D01*
X129745319Y-125234224D01*
X129740786Y-125265485D01*
X105034500Y-125265485D01*
X105034500Y-123541115D01*
X122985821Y-123541115D01*
X123004969Y-123784417D01*
X123019193Y-123843662D01*
X123048675Y-123966461D01*
X123061943Y-124021727D01*
X123063833Y-124026290D01*
X123063835Y-124026296D01*
X123153443Y-124242630D01*
X123155338Y-124247204D01*
X123282856Y-124455294D01*
X123441356Y-124640874D01*
X123626936Y-124799374D01*
X123835026Y-124926892D01*
X123839596Y-124928785D01*
X123839600Y-124928787D01*
X124055934Y-125018395D01*
X124055940Y-125018397D01*
X124060503Y-125020287D01*
X124065303Y-125021439D01*
X124065308Y-125021441D01*
X124173817Y-125047492D01*
X124297813Y-125077261D01*
X124541115Y-125096409D01*
X124784417Y-125077261D01*
X124908413Y-125047492D01*
X125016922Y-125021441D01*
X125016927Y-125021439D01*
X125021727Y-125020287D01*
X125026290Y-125018397D01*
X125026296Y-125018395D01*
X125242630Y-124928787D01*
X125242634Y-124928785D01*
X125247204Y-124926892D01*
X125455294Y-124799374D01*
X125640874Y-124640874D01*
X125799374Y-124455294D01*
X125926892Y-124247204D01*
X125928787Y-124242630D01*
X126018395Y-124026296D01*
X126018397Y-124026290D01*
X126020287Y-124021727D01*
X126033556Y-123966461D01*
X126060431Y-123854516D01*
X133410558Y-123854516D01*
X133410655Y-123966461D01*
X133414851Y-123977306D01*
X133414851Y-123977308D01*
X133432036Y-124021727D01*
X133451046Y-124070866D01*
X133467088Y-124091142D01*
X134607858Y-125231912D01*
X134610788Y-125234219D01*
X134610794Y-125234224D01*
X134620768Y-125242076D01*
X134628589Y-125248233D01*
X134637410Y-125251628D01*
X134722210Y-125284265D01*
X134722212Y-125284265D01*
X134733064Y-125288442D01*
X134744695Y-125288432D01*
X134788792Y-125288394D01*
X134845009Y-125288345D01*
X134855854Y-125284149D01*
X134855856Y-125284149D01*
X134940580Y-125251372D01*
X134940582Y-125251371D01*
X134949414Y-125247954D01*
X134956842Y-125242077D01*
X134956844Y-125242076D01*
X134966812Y-125234189D01*
X134969690Y-125231912D01*
X136110460Y-124091142D01*
X136112767Y-124088212D01*
X136112772Y-124088206D01*
X136120934Y-124077838D01*
X136126781Y-124070411D01*
X136130176Y-124061590D01*
X136162813Y-123976790D01*
X136162813Y-123976788D01*
X136166990Y-123965936D01*
X136166893Y-123853991D01*
X136162697Y-123843144D01*
X136129920Y-123758420D01*
X136129919Y-123758418D01*
X136126502Y-123749586D01*
X136118719Y-123739748D01*
X136112737Y-123732188D01*
X136110460Y-123729310D01*
X134969690Y-122588540D01*
X134966760Y-122586233D01*
X134966754Y-122586228D01*
X134956386Y-122578066D01*
X134948959Y-122572219D01*
X134940138Y-122568824D01*
X134855338Y-122536187D01*
X134855336Y-122536187D01*
X134844484Y-122532010D01*
X134832853Y-122532020D01*
X134788756Y-122532058D01*
X134732539Y-122532107D01*
X134721694Y-122536303D01*
X134721692Y-122536303D01*
X134636968Y-122569080D01*
X134636966Y-122569081D01*
X134628134Y-122572498D01*
X134620706Y-122578375D01*
X134620704Y-122578376D01*
X134611152Y-122585934D01*
X134607858Y-122588540D01*
X133467088Y-123729310D01*
X133464781Y-123732240D01*
X133464776Y-123732246D01*
X133460936Y-123737124D01*
X133450767Y-123750041D01*
X133447372Y-123758862D01*
X133414935Y-123843144D01*
X133410558Y-123854516D01*
X126060431Y-123854516D01*
X126063037Y-123843662D01*
X126077261Y-123784417D01*
X126096409Y-123541115D01*
X126077261Y-123297813D01*
X126020287Y-123060503D01*
X126018397Y-123055940D01*
X126018395Y-123055934D01*
X125928787Y-122839600D01*
X125928785Y-122839596D01*
X125926892Y-122835026D01*
X125799374Y-122626936D01*
X125640874Y-122441356D01*
X125455294Y-122282856D01*
X125247204Y-122155338D01*
X125242634Y-122153445D01*
X125242630Y-122153443D01*
X125026296Y-122063835D01*
X125026290Y-122063833D01*
X125021727Y-122061943D01*
X125016927Y-122060791D01*
X125016922Y-122060789D01*
X125007238Y-122058464D01*
X135206610Y-122058464D01*
X135206707Y-122170409D01*
X135247098Y-122274814D01*
X135252975Y-122282242D01*
X135252976Y-122282244D01*
X135256005Y-122286072D01*
X135263140Y-122295090D01*
X136403910Y-123435860D01*
X136406840Y-123438167D01*
X136406846Y-123438172D01*
X136416820Y-123446024D01*
X136424641Y-123452181D01*
X136433462Y-123455576D01*
X136518262Y-123488213D01*
X136518264Y-123488213D01*
X136529116Y-123492390D01*
X136540747Y-123492380D01*
X136584844Y-123492342D01*
X136641061Y-123492293D01*
X136651906Y-123488097D01*
X136651908Y-123488097D01*
X136736632Y-123455320D01*
X136736634Y-123455319D01*
X136745466Y-123451902D01*
X136752894Y-123446025D01*
X136752896Y-123446024D01*
X136762864Y-123438137D01*
X136765742Y-123435860D01*
X137906512Y-122295090D01*
X137908819Y-122292160D01*
X137908824Y-122292154D01*
X137916986Y-122281786D01*
X137922833Y-122274359D01*
X137939817Y-122230229D01*
X137958865Y-122180738D01*
X137958865Y-122180736D01*
X137963042Y-122169884D01*
X137962945Y-122057939D01*
X137958749Y-122047092D01*
X137925972Y-121962368D01*
X137925971Y-121962366D01*
X137922554Y-121953534D01*
X137914248Y-121943035D01*
X137908789Y-121936136D01*
X137906512Y-121933258D01*
X136765742Y-120792488D01*
X136762812Y-120790181D01*
X136762806Y-120790176D01*
X136752438Y-120782014D01*
X136745011Y-120776167D01*
X136736190Y-120772772D01*
X136651390Y-120740135D01*
X136651388Y-120740135D01*
X136640536Y-120735958D01*
X136628905Y-120735968D01*
X136584808Y-120736006D01*
X136528591Y-120736055D01*
X136517746Y-120740251D01*
X136517744Y-120740251D01*
X136433020Y-120773028D01*
X136433018Y-120773029D01*
X136424186Y-120776446D01*
X136416758Y-120782323D01*
X136416756Y-120782324D01*
X136407204Y-120789882D01*
X136403910Y-120792488D01*
X135263140Y-121933258D01*
X135260833Y-121936188D01*
X135260828Y-121936194D01*
X135255443Y-121943035D01*
X135246819Y-121953989D01*
X135243424Y-121962810D01*
X135210987Y-122047092D01*
X135206610Y-122058464D01*
X125007238Y-122058464D01*
X124908413Y-122034738D01*
X124784417Y-122004969D01*
X124541115Y-121985821D01*
X124297813Y-122004969D01*
X124173817Y-122034738D01*
X124065308Y-122060789D01*
X124065303Y-122060791D01*
X124060503Y-122061943D01*
X124055940Y-122063833D01*
X124055934Y-122063835D01*
X123839600Y-122153443D01*
X123839596Y-122153445D01*
X123835026Y-122155338D01*
X123626936Y-122282856D01*
X123441356Y-122441356D01*
X123282856Y-122626936D01*
X123155338Y-122835026D01*
X123153445Y-122839596D01*
X123153443Y-122839600D01*
X123063835Y-123055934D01*
X123063833Y-123055940D01*
X123061943Y-123060503D01*
X123004969Y-123297813D01*
X122985821Y-123541115D01*
X105034500Y-123541115D01*
X105034500Y-120847038D01*
X120291744Y-120847038D01*
X120310892Y-121090340D01*
X120367866Y-121327650D01*
X120369756Y-121332213D01*
X120369758Y-121332219D01*
X120459366Y-121548553D01*
X120461261Y-121553127D01*
X120588779Y-121761217D01*
X120747279Y-121946797D01*
X120932859Y-122105297D01*
X121140949Y-122232815D01*
X121145519Y-122234708D01*
X121145523Y-122234710D01*
X121361857Y-122324318D01*
X121361863Y-122324320D01*
X121366426Y-122326210D01*
X121371226Y-122327362D01*
X121371231Y-122327364D01*
X121479740Y-122353415D01*
X121603736Y-122383184D01*
X121847038Y-122402332D01*
X122090340Y-122383184D01*
X122214336Y-122353415D01*
X122322845Y-122327364D01*
X122322850Y-122327362D01*
X122327650Y-122326210D01*
X122332213Y-122324320D01*
X122332219Y-122324318D01*
X122548553Y-122234710D01*
X122548557Y-122234708D01*
X122553127Y-122232815D01*
X122761217Y-122105297D01*
X122946797Y-121946797D01*
X123105297Y-121761217D01*
X123232815Y-121553127D01*
X123234710Y-121548553D01*
X123324318Y-121332219D01*
X123324320Y-121332213D01*
X123326210Y-121327650D01*
X123383184Y-121090340D01*
X123402332Y-120847038D01*
X123383184Y-120603736D01*
X123333486Y-120396732D01*
X123327364Y-120371231D01*
X123327362Y-120371226D01*
X123326210Y-120366426D01*
X123324320Y-120361863D01*
X123324318Y-120361857D01*
X123234710Y-120145523D01*
X123234708Y-120145519D01*
X123232815Y-120140949D01*
X123105297Y-119932859D01*
X123057872Y-119877331D01*
X124352633Y-119877331D01*
X124362342Y-120087102D01*
X124363746Y-120092927D01*
X124363746Y-120092928D01*
X124387903Y-120193161D01*
X124411543Y-120291253D01*
X124414025Y-120296711D01*
X124414026Y-120296715D01*
X124457139Y-120391536D01*
X124498459Y-120482416D01*
X124619956Y-120653695D01*
X124771650Y-120798910D01*
X124776685Y-120802161D01*
X124943028Y-120909568D01*
X124943031Y-120909569D01*
X124948065Y-120912820D01*
X124953628Y-120915062D01*
X125137274Y-120989074D01*
X125137277Y-120989075D01*
X125142838Y-120991316D01*
X125148719Y-120992464D01*
X125148724Y-120992466D01*
X125344495Y-121030697D01*
X125344498Y-121030697D01*
X125348941Y-121031565D01*
X125354462Y-121031835D01*
X125509288Y-121031835D01*
X125665865Y-121016896D01*
X125671621Y-121015207D01*
X125671623Y-121015207D01*
X125760702Y-120989074D01*
X125867368Y-120957782D01*
X125967766Y-120906074D01*
X126048727Y-120864376D01*
X126048730Y-120864374D01*
X126054058Y-120861630D01*
X126129766Y-120802161D01*
X126214481Y-120735617D01*
X126214486Y-120735613D01*
X126219198Y-120731911D01*
X126223130Y-120727380D01*
X126352898Y-120577837D01*
X126352902Y-120577832D01*
X126356829Y-120573306D01*
X126461985Y-120391536D01*
X126530872Y-120193161D01*
X126537779Y-120145523D01*
X126560144Y-119991279D01*
X126560144Y-119991276D01*
X126561005Y-119985339D01*
X126551296Y-119775568D01*
X126513298Y-119617902D01*
X126503501Y-119577250D01*
X126503500Y-119577248D01*
X126502095Y-119571417D01*
X126487238Y-119538739D01*
X126431464Y-119416071D01*
X126415179Y-119380254D01*
X126293682Y-119208975D01*
X126141988Y-119063760D01*
X126044852Y-119001040D01*
X125970610Y-118953102D01*
X125970607Y-118953101D01*
X125965573Y-118949850D01*
X125936981Y-118938327D01*
X125776364Y-118873596D01*
X125776361Y-118873595D01*
X125770800Y-118871354D01*
X125764919Y-118870206D01*
X125764914Y-118870204D01*
X125569143Y-118831973D01*
X125569140Y-118831973D01*
X125564697Y-118831105D01*
X125559176Y-118830835D01*
X125404350Y-118830835D01*
X125247773Y-118845774D01*
X125242017Y-118847463D01*
X125242015Y-118847463D01*
X125184708Y-118864275D01*
X125046270Y-118904888D01*
X124958971Y-118949850D01*
X124864911Y-118998294D01*
X124864908Y-118998296D01*
X124859580Y-119001040D01*
X124854865Y-119004744D01*
X124699157Y-119127053D01*
X124699152Y-119127057D01*
X124694440Y-119130759D01*
X124690509Y-119135289D01*
X124690508Y-119135290D01*
X124560740Y-119284833D01*
X124560736Y-119284838D01*
X124556809Y-119289364D01*
X124451653Y-119471134D01*
X124449685Y-119476802D01*
X124407820Y-119597362D01*
X124382766Y-119669509D01*
X124381905Y-119675444D01*
X124381905Y-119675446D01*
X124366520Y-119781558D01*
X124352633Y-119877331D01*
X123057872Y-119877331D01*
X122946797Y-119747279D01*
X122761217Y-119588779D01*
X122553127Y-119461261D01*
X122548557Y-119459368D01*
X122548553Y-119459366D01*
X122332219Y-119369758D01*
X122332213Y-119369756D01*
X122327650Y-119367866D01*
X122322850Y-119366714D01*
X122322845Y-119366712D01*
X122214336Y-119340661D01*
X122090340Y-119310892D01*
X121847038Y-119291744D01*
X121603736Y-119310892D01*
X121479740Y-119340661D01*
X121371231Y-119366712D01*
X121371226Y-119366714D01*
X121366426Y-119367866D01*
X121361863Y-119369756D01*
X121361857Y-119369758D01*
X121145523Y-119459366D01*
X121145519Y-119459368D01*
X121140949Y-119461261D01*
X120932859Y-119588779D01*
X120747279Y-119747279D01*
X120588779Y-119932859D01*
X120461261Y-120140949D01*
X120459368Y-120145519D01*
X120459366Y-120145523D01*
X120369758Y-120361857D01*
X120369756Y-120361863D01*
X120367866Y-120366426D01*
X120366714Y-120371226D01*
X120366712Y-120371231D01*
X120360590Y-120396732D01*
X120310892Y-120603736D01*
X120291744Y-120847038D01*
X105034500Y-120847038D01*
X105034500Y-118152962D01*
X117597668Y-118152962D01*
X117616816Y-118396264D01*
X117673790Y-118633574D01*
X117675680Y-118638137D01*
X117675682Y-118638143D01*
X117762385Y-118847463D01*
X117767185Y-118859051D01*
X117894703Y-119067141D01*
X118053203Y-119252721D01*
X118238783Y-119411221D01*
X118446873Y-119538739D01*
X118451443Y-119540632D01*
X118451447Y-119540634D01*
X118667781Y-119630242D01*
X118667787Y-119630244D01*
X118672350Y-119632134D01*
X118677150Y-119633286D01*
X118677155Y-119633288D01*
X118785664Y-119659339D01*
X118909660Y-119689108D01*
X119152962Y-119708256D01*
X119396264Y-119689108D01*
X119520260Y-119659339D01*
X119628769Y-119633288D01*
X119628774Y-119633286D01*
X119633574Y-119632134D01*
X119638137Y-119630244D01*
X119638143Y-119630242D01*
X119854477Y-119540634D01*
X119854481Y-119540632D01*
X119859051Y-119538739D01*
X120067141Y-119411221D01*
X120252721Y-119252721D01*
X120411221Y-119067141D01*
X120538739Y-118859051D01*
X120543539Y-118847463D01*
X120630242Y-118638143D01*
X120630244Y-118638137D01*
X120632134Y-118633574D01*
X120689108Y-118396264D01*
X120708256Y-118152962D01*
X120689108Y-117909660D01*
X120632134Y-117672350D01*
X120630244Y-117667787D01*
X120630242Y-117667781D01*
X120540634Y-117451447D01*
X120540632Y-117451443D01*
X120538739Y-117446873D01*
X120411221Y-117238783D01*
X120252721Y-117053203D01*
X120067141Y-116894703D01*
X119859051Y-116767185D01*
X119854481Y-116765292D01*
X119854477Y-116765290D01*
X119638143Y-116675682D01*
X119638137Y-116675680D01*
X119633574Y-116673790D01*
X119628774Y-116672638D01*
X119628769Y-116672636D01*
X119477894Y-116636414D01*
X119396264Y-116616816D01*
X119152962Y-116597668D01*
X118909660Y-116616816D01*
X118828030Y-116636414D01*
X118677155Y-116672636D01*
X118677150Y-116672638D01*
X118672350Y-116673790D01*
X118667787Y-116675680D01*
X118667781Y-116675682D01*
X118451447Y-116765290D01*
X118451443Y-116765292D01*
X118446873Y-116767185D01*
X118238783Y-116894703D01*
X118053203Y-117053203D01*
X117894703Y-117238783D01*
X117767185Y-117446873D01*
X117765292Y-117451443D01*
X117765290Y-117451447D01*
X117675682Y-117667781D01*
X117675680Y-117667787D01*
X117673790Y-117672350D01*
X117616816Y-117909660D01*
X117597668Y-118152962D01*
X105034500Y-118152962D01*
X105034500Y-116320584D01*
X111744919Y-116320584D01*
X111754628Y-116530355D01*
X111756032Y-116536180D01*
X111756032Y-116536181D01*
X111799645Y-116717144D01*
X111803829Y-116734506D01*
X111806311Y-116739964D01*
X111806312Y-116739968D01*
X111848464Y-116832677D01*
X111890745Y-116925669D01*
X112012242Y-117096948D01*
X112016569Y-117101090D01*
X112140395Y-117219627D01*
X112163936Y-117242163D01*
X112168971Y-117245414D01*
X112335314Y-117352821D01*
X112335317Y-117352822D01*
X112340351Y-117356073D01*
X112345914Y-117358315D01*
X112529560Y-117432327D01*
X112529563Y-117432328D01*
X112535124Y-117434569D01*
X112541005Y-117435717D01*
X112541010Y-117435719D01*
X112736781Y-117473950D01*
X112736784Y-117473950D01*
X112741227Y-117474818D01*
X112746748Y-117475088D01*
X112901574Y-117475088D01*
X113058151Y-117460149D01*
X113063907Y-117458460D01*
X113063909Y-117458460D01*
X113205479Y-117416928D01*
X113259654Y-117401035D01*
X113374724Y-117341770D01*
X113441013Y-117307629D01*
X113441016Y-117307627D01*
X113446344Y-117304883D01*
X113525125Y-117243000D01*
X113606767Y-117178870D01*
X113606772Y-117178866D01*
X113611484Y-117175164D01*
X113615416Y-117170633D01*
X113745184Y-117021090D01*
X113745188Y-117021085D01*
X113749115Y-117016559D01*
X113854271Y-116834789D01*
X113923158Y-116636414D01*
X113928776Y-116597668D01*
X113952430Y-116434532D01*
X113952430Y-116434529D01*
X113953291Y-116428592D01*
X113943582Y-116218821D01*
X113894381Y-116014670D01*
X113858018Y-115934692D01*
X113809945Y-115828962D01*
X113807465Y-115823507D01*
X113685968Y-115652228D01*
X113534274Y-115507013D01*
X113486587Y-115476222D01*
X113459737Y-115458885D01*
X114903591Y-115458885D01*
X114922739Y-115702187D01*
X114942703Y-115785343D01*
X114973685Y-115914387D01*
X114979713Y-115939497D01*
X114981603Y-115944060D01*
X114981605Y-115944066D01*
X115064125Y-116143287D01*
X115073108Y-116164974D01*
X115200626Y-116373064D01*
X115359126Y-116558644D01*
X115544706Y-116717144D01*
X115752796Y-116844662D01*
X115757366Y-116846555D01*
X115757370Y-116846557D01*
X115973704Y-116936165D01*
X115973710Y-116936167D01*
X115978273Y-116938057D01*
X115983073Y-116939209D01*
X115983078Y-116939211D01*
X116070445Y-116960186D01*
X116215583Y-116995031D01*
X116458885Y-117014179D01*
X116702187Y-116995031D01*
X116847325Y-116960186D01*
X116934692Y-116939211D01*
X116934697Y-116939209D01*
X116939497Y-116938057D01*
X116944060Y-116936167D01*
X116944066Y-116936165D01*
X117160400Y-116846557D01*
X117160404Y-116846555D01*
X117164974Y-116844662D01*
X117373064Y-116717144D01*
X117558644Y-116558644D01*
X117717144Y-116373064D01*
X117844662Y-116164974D01*
X117853645Y-116143287D01*
X117936165Y-115944066D01*
X117936167Y-115944060D01*
X117938057Y-115939497D01*
X117944086Y-115914387D01*
X117975067Y-115785343D01*
X117995031Y-115702187D01*
X118014179Y-115458885D01*
X117995031Y-115215583D01*
X117948329Y-115021057D01*
X117939211Y-114983078D01*
X117939209Y-114983073D01*
X117938057Y-114978273D01*
X117936167Y-114973710D01*
X117936165Y-114973704D01*
X117846557Y-114757370D01*
X117846555Y-114757366D01*
X117844662Y-114752796D01*
X117717144Y-114544706D01*
X117669718Y-114489177D01*
X118964479Y-114489177D01*
X118974188Y-114698948D01*
X118975592Y-114704773D01*
X118975592Y-114704774D01*
X119018811Y-114884102D01*
X119023389Y-114903099D01*
X119025871Y-114908557D01*
X119025872Y-114908561D01*
X119068985Y-115003382D01*
X119110305Y-115094262D01*
X119171094Y-115179959D01*
X119223906Y-115254409D01*
X119231802Y-115265541D01*
X119383496Y-115410756D01*
X119403182Y-115423467D01*
X119554874Y-115521414D01*
X119554877Y-115521415D01*
X119559911Y-115524666D01*
X119565474Y-115526908D01*
X119749120Y-115600920D01*
X119749123Y-115600921D01*
X119754684Y-115603162D01*
X119760565Y-115604310D01*
X119760570Y-115604312D01*
X119956341Y-115642543D01*
X119956344Y-115642543D01*
X119960787Y-115643411D01*
X119966308Y-115643681D01*
X120121134Y-115643681D01*
X120277711Y-115628742D01*
X120283467Y-115627053D01*
X120283469Y-115627053D01*
X120448825Y-115578543D01*
X120479214Y-115569628D01*
X120600788Y-115507013D01*
X120660573Y-115476222D01*
X120660576Y-115476220D01*
X120665904Y-115473476D01*
X120724985Y-115427067D01*
X120826327Y-115347463D01*
X120826332Y-115347459D01*
X120831044Y-115343757D01*
X120877071Y-115290716D01*
X120964744Y-115189683D01*
X120964748Y-115189678D01*
X120968675Y-115185152D01*
X121073831Y-115003382D01*
X121130486Y-114840233D01*
X121140751Y-114810672D01*
X121140751Y-114810670D01*
X121142718Y-114805007D01*
X121158096Y-114698948D01*
X121171990Y-114603125D01*
X121171990Y-114603122D01*
X121172851Y-114597185D01*
X121163142Y-114387414D01*
X121113941Y-114183263D01*
X121099084Y-114150585D01*
X121047752Y-114037687D01*
X121027025Y-113992100D01*
X120905528Y-113820821D01*
X120753834Y-113675606D01*
X120656698Y-113612886D01*
X120582456Y-113564948D01*
X120582453Y-113564947D01*
X120577419Y-113561696D01*
X120502593Y-113531540D01*
X120388210Y-113485442D01*
X120388207Y-113485441D01*
X120382646Y-113483200D01*
X120376765Y-113482052D01*
X120376760Y-113482050D01*
X120180989Y-113443819D01*
X120180986Y-113443819D01*
X120176543Y-113442951D01*
X120171022Y-113442681D01*
X120016196Y-113442681D01*
X119859619Y-113457620D01*
X119853863Y-113459309D01*
X119853861Y-113459309D01*
X119776344Y-113482050D01*
X119658116Y-113516734D01*
X119612490Y-113540233D01*
X119476757Y-113610140D01*
X119476754Y-113610142D01*
X119471426Y-113612886D01*
X119466711Y-113616590D01*
X119311003Y-113738899D01*
X119310998Y-113738903D01*
X119306286Y-113742605D01*
X119302355Y-113747135D01*
X119302354Y-113747136D01*
X119172586Y-113896679D01*
X119172582Y-113896684D01*
X119168655Y-113901210D01*
X119063499Y-114082980D01*
X118994612Y-114281355D01*
X118993751Y-114287290D01*
X118993751Y-114287292D01*
X118973669Y-114425798D01*
X118964479Y-114489177D01*
X117669718Y-114489177D01*
X117558644Y-114359126D01*
X117373064Y-114200626D01*
X117164974Y-114073108D01*
X117160404Y-114071215D01*
X117160400Y-114071213D01*
X116944066Y-113981605D01*
X116944060Y-113981603D01*
X116939497Y-113979713D01*
X116934697Y-113978561D01*
X116934692Y-113978559D01*
X116826183Y-113952508D01*
X116702187Y-113922739D01*
X116458885Y-113903591D01*
X116215583Y-113922739D01*
X116091587Y-113952508D01*
X115983078Y-113978559D01*
X115983073Y-113978561D01*
X115978273Y-113979713D01*
X115973710Y-113981603D01*
X115973704Y-113981605D01*
X115757370Y-114071213D01*
X115757366Y-114071215D01*
X115752796Y-114073108D01*
X115544706Y-114200626D01*
X115359126Y-114359126D01*
X115200626Y-114544706D01*
X115073108Y-114752796D01*
X115071215Y-114757366D01*
X115071213Y-114757370D01*
X114981605Y-114973704D01*
X114981603Y-114973710D01*
X114979713Y-114978273D01*
X114978561Y-114983073D01*
X114978559Y-114983078D01*
X114969441Y-115021057D01*
X114922739Y-115215583D01*
X114903591Y-115458885D01*
X113459737Y-115458885D01*
X113362896Y-115396355D01*
X113362893Y-115396354D01*
X113357859Y-115393103D01*
X113266445Y-115356262D01*
X113168650Y-115316849D01*
X113168647Y-115316848D01*
X113163086Y-115314607D01*
X113157205Y-115313459D01*
X113157200Y-115313457D01*
X112961429Y-115275226D01*
X112961426Y-115275226D01*
X112956983Y-115274358D01*
X112951462Y-115274088D01*
X112796636Y-115274088D01*
X112640059Y-115289027D01*
X112634303Y-115290716D01*
X112634301Y-115290716D01*
X112556784Y-115313457D01*
X112438556Y-115348141D01*
X112355610Y-115390861D01*
X112257197Y-115441547D01*
X112257194Y-115441549D01*
X112251866Y-115444293D01*
X112208385Y-115478448D01*
X112091443Y-115570306D01*
X112091438Y-115570310D01*
X112086726Y-115574012D01*
X112082795Y-115578542D01*
X112082794Y-115578543D01*
X111953026Y-115728086D01*
X111953022Y-115728091D01*
X111949095Y-115732617D01*
X111843939Y-115914387D01*
X111775052Y-116112762D01*
X111774191Y-116118697D01*
X111774191Y-116118699D01*
X111754513Y-116254418D01*
X111744919Y-116320584D01*
X105034500Y-116320584D01*
X105034500Y-112764808D01*
X112209514Y-112764808D01*
X112228662Y-113008110D01*
X112229817Y-113012919D01*
X112276874Y-113208923D01*
X112285636Y-113245420D01*
X112287526Y-113249983D01*
X112287528Y-113249989D01*
X112377136Y-113466323D01*
X112379031Y-113470897D01*
X112506549Y-113678987D01*
X112665049Y-113864567D01*
X112850629Y-114023067D01*
X113058719Y-114150585D01*
X113063289Y-114152478D01*
X113063293Y-114152480D01*
X113279627Y-114242088D01*
X113279633Y-114242090D01*
X113284196Y-114243980D01*
X113288996Y-114245132D01*
X113289001Y-114245134D01*
X113397510Y-114271185D01*
X113521506Y-114300954D01*
X113764808Y-114320102D01*
X114008110Y-114300954D01*
X114132106Y-114271185D01*
X114240615Y-114245134D01*
X114240620Y-114245132D01*
X114245420Y-114243980D01*
X114249983Y-114242090D01*
X114249989Y-114242088D01*
X114466323Y-114152480D01*
X114466327Y-114152478D01*
X114470897Y-114150585D01*
X114678987Y-114023067D01*
X114864567Y-113864567D01*
X115023067Y-113678987D01*
X115150585Y-113470897D01*
X115152480Y-113466323D01*
X115242088Y-113249989D01*
X115242090Y-113249983D01*
X115243980Y-113245420D01*
X115252743Y-113208923D01*
X115299799Y-113012919D01*
X115300954Y-113008110D01*
X115320102Y-112764808D01*
X115300954Y-112521506D01*
X115263330Y-112364794D01*
X115245134Y-112289001D01*
X115245132Y-112288996D01*
X115243980Y-112284196D01*
X115242090Y-112279633D01*
X115242088Y-112279627D01*
X115152480Y-112063293D01*
X115152478Y-112063289D01*
X115150585Y-112058719D01*
X115023067Y-111850629D01*
X114864567Y-111665049D01*
X114678987Y-111506549D01*
X114470897Y-111379031D01*
X114466327Y-111377138D01*
X114466323Y-111377136D01*
X114249989Y-111287528D01*
X114249983Y-111287526D01*
X114245420Y-111285636D01*
X114240620Y-111284484D01*
X114240615Y-111284482D01*
X114132106Y-111258431D01*
X114008110Y-111228662D01*
X113764808Y-111209514D01*
X113521506Y-111228662D01*
X113397510Y-111258431D01*
X113289001Y-111284482D01*
X113288996Y-111284484D01*
X113284196Y-111285636D01*
X113279633Y-111287526D01*
X113279627Y-111287528D01*
X113063293Y-111377136D01*
X113063289Y-111377138D01*
X113058719Y-111379031D01*
X112850629Y-111506549D01*
X112665049Y-111665049D01*
X112506549Y-111850629D01*
X112379031Y-112058719D01*
X112377138Y-112063289D01*
X112377136Y-112063293D01*
X112287528Y-112279627D01*
X112287526Y-112279633D01*
X112285636Y-112284196D01*
X112284484Y-112288996D01*
X112284482Y-112289001D01*
X112266286Y-112364794D01*
X112228662Y-112521506D01*
X112209514Y-112764808D01*
X105034500Y-112764808D01*
X105034500Y-110070731D01*
X109515437Y-110070731D01*
X109534585Y-110314033D01*
X109591559Y-110551343D01*
X109593449Y-110555906D01*
X109593451Y-110555912D01*
X109683059Y-110772246D01*
X109684954Y-110776820D01*
X109812472Y-110984910D01*
X109970972Y-111170490D01*
X110156552Y-111328990D01*
X110364642Y-111456508D01*
X110369212Y-111458401D01*
X110369216Y-111458403D01*
X110585550Y-111548011D01*
X110585556Y-111548013D01*
X110590119Y-111549903D01*
X110594919Y-111551055D01*
X110594924Y-111551057D01*
X110671145Y-111569356D01*
X110827429Y-111606877D01*
X111070731Y-111626025D01*
X111314033Y-111606877D01*
X111470317Y-111569356D01*
X111546538Y-111551057D01*
X111546543Y-111551055D01*
X111551343Y-111549903D01*
X111555906Y-111548013D01*
X111555912Y-111548011D01*
X111772246Y-111458403D01*
X111772250Y-111458401D01*
X111776820Y-111456508D01*
X111984910Y-111328990D01*
X112170490Y-111170490D01*
X112328990Y-110984910D01*
X112456508Y-110776820D01*
X112458403Y-110772246D01*
X112548011Y-110555912D01*
X112548013Y-110555906D01*
X112549903Y-110551343D01*
X112606877Y-110314033D01*
X112626025Y-110070731D01*
X112606877Y-109827429D01*
X112557179Y-109620425D01*
X112551057Y-109594924D01*
X112551055Y-109594919D01*
X112549903Y-109590119D01*
X112548013Y-109585556D01*
X112548011Y-109585550D01*
X112458403Y-109369216D01*
X112458401Y-109369212D01*
X112456508Y-109364642D01*
X112328990Y-109156552D01*
X112281565Y-109101024D01*
X113576325Y-109101024D01*
X113586034Y-109310795D01*
X113587438Y-109316620D01*
X113587438Y-109316621D01*
X113632190Y-109502310D01*
X113635235Y-109514946D01*
X113637717Y-109520404D01*
X113637718Y-109520408D01*
X113683193Y-109620425D01*
X113722151Y-109706109D01*
X113843648Y-109877388D01*
X113995342Y-110022603D01*
X114000377Y-110025854D01*
X114166720Y-110133261D01*
X114166723Y-110133262D01*
X114171757Y-110136513D01*
X114177320Y-110138755D01*
X114360966Y-110212767D01*
X114360969Y-110212768D01*
X114366530Y-110215009D01*
X114372411Y-110216157D01*
X114372416Y-110216159D01*
X114568187Y-110254390D01*
X114568190Y-110254390D01*
X114572633Y-110255258D01*
X114578154Y-110255528D01*
X114732980Y-110255528D01*
X114889557Y-110240589D01*
X114895313Y-110238900D01*
X114895315Y-110238900D01*
X114984394Y-110212767D01*
X115091060Y-110181475D01*
X115191458Y-110129767D01*
X115272419Y-110088069D01*
X115272422Y-110088067D01*
X115277750Y-110085323D01*
X115353458Y-110025854D01*
X115438173Y-109959310D01*
X115438178Y-109959306D01*
X115442890Y-109955604D01*
X115446822Y-109951073D01*
X115576590Y-109801530D01*
X115576594Y-109801525D01*
X115580521Y-109796999D01*
X115685677Y-109615229D01*
X115735401Y-109472038D01*
X115752597Y-109422519D01*
X115752597Y-109422517D01*
X115754564Y-109416854D01*
X115761610Y-109368262D01*
X115783836Y-109214972D01*
X115783836Y-109214969D01*
X115784697Y-109209032D01*
X115774988Y-108999261D01*
X115734566Y-108831535D01*
X115728526Y-108806473D01*
X123347775Y-108806473D01*
X123349978Y-108826427D01*
X123364372Y-108956797D01*
X123365717Y-108968983D01*
X123368326Y-108976114D01*
X123368327Y-108976116D01*
X123416792Y-109108552D01*
X123421904Y-109122522D01*
X123426140Y-109128825D01*
X123426140Y-109128826D01*
X123508859Y-109251926D01*
X123508862Y-109251929D01*
X123513093Y-109258226D01*
X123547169Y-109289233D01*
X123620339Y-109355812D01*
X123634021Y-109368262D01*
X123640696Y-109371886D01*
X123771028Y-109442651D01*
X123771030Y-109442652D01*
X123777705Y-109446276D01*
X123785055Y-109448204D01*
X123785057Y-109448205D01*
X123790710Y-109449688D01*
X123847834Y-109482469D01*
X126497795Y-112132430D01*
X126531821Y-112194742D01*
X126532799Y-112200721D01*
X126533498Y-112203702D01*
X126534332Y-112211255D01*
X126536942Y-112218387D01*
X126583749Y-112346293D01*
X126590519Y-112364794D01*
X126594755Y-112371097D01*
X126594755Y-112371098D01*
X126677474Y-112494198D01*
X126677477Y-112494201D01*
X126681708Y-112500498D01*
X126802636Y-112610534D01*
X126840481Y-112631082D01*
X126939643Y-112684923D01*
X126939645Y-112684924D01*
X126946320Y-112688548D01*
X126971604Y-112695181D01*
X127028727Y-112727962D01*
X130685951Y-116385186D01*
X130715182Y-116430980D01*
X130732653Y-116478721D01*
X130743705Y-116508923D01*
X130747941Y-116515226D01*
X130747941Y-116515227D01*
X130830660Y-116638327D01*
X130830663Y-116638330D01*
X130834894Y-116644627D01*
X130955822Y-116754663D01*
X130985740Y-116770907D01*
X131092829Y-116829052D01*
X131092831Y-116829053D01*
X131099506Y-116832677D01*
X131106856Y-116834605D01*
X131106858Y-116834606D01*
X131112511Y-116836089D01*
X131169635Y-116868870D01*
X131260951Y-116960186D01*
X131290182Y-117005980D01*
X131295712Y-117021090D01*
X131318705Y-117083923D01*
X131322941Y-117090226D01*
X131322941Y-117090227D01*
X131405660Y-117213327D01*
X131405663Y-117213330D01*
X131409894Y-117219627D01*
X131530822Y-117329663D01*
X131592299Y-117363042D01*
X131667829Y-117404052D01*
X131667831Y-117404053D01*
X131674506Y-117407677D01*
X131681855Y-117409605D01*
X131825301Y-117447237D01*
X131825303Y-117447237D01*
X131832651Y-117449165D01*
X131915932Y-117450473D01*
X131988529Y-117451614D01*
X131988532Y-117451614D01*
X131996128Y-117451733D01*
X132003533Y-117450037D01*
X132003534Y-117450037D01*
X132148097Y-117416928D01*
X132155498Y-117415233D01*
X132301561Y-117341770D01*
X132425885Y-117235588D01*
X132437355Y-117219627D01*
X132516861Y-117108983D01*
X132516862Y-117108982D01*
X132521293Y-117102815D01*
X132582275Y-116951116D01*
X132605312Y-116789250D01*
X132605461Y-116775000D01*
X132604829Y-116769771D01*
X132593213Y-116673790D01*
X132585819Y-116612687D01*
X132528027Y-116459745D01*
X132435421Y-116325003D01*
X132423795Y-116314644D01*
X132319019Y-116221293D01*
X132313348Y-116216240D01*
X132168855Y-116139735D01*
X132161491Y-116137885D01*
X132154397Y-116135162D01*
X132154929Y-116133776D01*
X132104320Y-116105085D01*
X132014148Y-116014913D01*
X131985377Y-115970356D01*
X131955711Y-115891848D01*
X131953027Y-115884745D01*
X131910939Y-115823507D01*
X131864723Y-115756262D01*
X131864722Y-115756261D01*
X131860421Y-115750003D01*
X131840908Y-115732617D01*
X131799385Y-115695622D01*
X131738348Y-115641240D01*
X131718223Y-115630584D01*
X131662197Y-115600920D01*
X131593855Y-115564735D01*
X131586491Y-115562885D01*
X131579397Y-115560162D01*
X131579929Y-115558776D01*
X131529320Y-115530085D01*
X129918235Y-113919000D01*
X139085796Y-113919000D01*
X139106179Y-114177994D01*
X139107333Y-114182801D01*
X139107334Y-114182807D01*
X139122021Y-114243980D01*
X139166827Y-114430610D01*
X139168720Y-114435181D01*
X139168721Y-114435183D01*
X139264132Y-114665524D01*
X139266246Y-114670628D01*
X139401988Y-114892140D01*
X139570711Y-115089689D01*
X139768260Y-115258412D01*
X139989772Y-115394154D01*
X139994342Y-115396047D01*
X139994346Y-115396049D01*
X140219889Y-115489472D01*
X140229790Y-115493573D01*
X140318124Y-115514780D01*
X140477593Y-115553066D01*
X140477599Y-115553067D01*
X140482406Y-115554221D01*
X140557895Y-115560162D01*
X140674090Y-115569307D01*
X140674099Y-115569307D01*
X140676547Y-115569500D01*
X140806253Y-115569500D01*
X140808701Y-115569307D01*
X140808710Y-115569307D01*
X140924905Y-115560162D01*
X141000394Y-115554221D01*
X141005201Y-115553067D01*
X141005207Y-115553066D01*
X141164676Y-115514780D01*
X141253010Y-115493573D01*
X141262911Y-115489472D01*
X141488454Y-115396049D01*
X141488458Y-115396047D01*
X141493028Y-115394154D01*
X141714540Y-115258412D01*
X141791191Y-115192946D01*
X147450305Y-115192946D01*
X147450398Y-115196109D01*
X147450398Y-115196111D01*
X147451726Y-115241240D01*
X147452113Y-115254409D01*
X147486898Y-115361155D01*
X147520924Y-115423467D01*
X147523619Y-115427067D01*
X147570335Y-115489472D01*
X147570339Y-115489477D01*
X147573032Y-115493074D01*
X151967884Y-119887926D01*
X152018736Y-119928906D01*
X152021565Y-119930724D01*
X152021569Y-119930727D01*
X152036051Y-119940034D01*
X152063799Y-119957867D01*
X152065578Y-119958853D01*
X152065583Y-119958856D01*
X152091674Y-119973317D01*
X152091677Y-119973318D01*
X152098567Y-119977137D01*
X152207173Y-120005588D01*
X152256415Y-120009110D01*
X152274826Y-120010427D01*
X152274829Y-120010427D01*
X152277988Y-120010653D01*
X152281151Y-120010560D01*
X152281153Y-120010560D01*
X152330447Y-120009110D01*
X152330448Y-120009110D01*
X152339451Y-120008845D01*
X152348173Y-120006003D01*
X152440658Y-119975865D01*
X152446197Y-119974060D01*
X152508509Y-119940034D01*
X152518094Y-119932859D01*
X152574514Y-119890623D01*
X152574519Y-119890619D01*
X152578116Y-119887926D01*
X157786116Y-114679926D01*
X157787248Y-114678666D01*
X157806847Y-114656848D01*
X157806855Y-114656838D01*
X157807964Y-114655604D01*
X157824867Y-114634630D01*
X157880123Y-114529000D01*
X157900125Y-114460879D01*
X157902345Y-114445444D01*
X157907357Y-114410582D01*
X157912500Y-114374810D01*
X157912500Y-112701190D01*
X157910750Y-112668539D01*
X157907871Y-112641756D01*
X157872250Y-112527993D01*
X157860026Y-112505606D01*
X157840380Y-112469629D01*
X157840379Y-112469627D01*
X157838224Y-112465681D01*
X157803066Y-112418716D01*
X157788813Y-112399676D01*
X157788809Y-112399671D01*
X157786116Y-112396074D01*
X154938926Y-109548884D01*
X154934784Y-109545163D01*
X154915848Y-109528153D01*
X154915838Y-109528145D01*
X154914604Y-109527036D01*
X154893630Y-109510133D01*
X154820806Y-109472038D01*
X154793485Y-109457746D01*
X154793483Y-109457745D01*
X154788000Y-109454877D01*
X154782062Y-109453134D01*
X154782061Y-109453133D01*
X154758707Y-109446276D01*
X154719879Y-109434875D01*
X154715423Y-109434234D01*
X154715417Y-109434233D01*
X154664711Y-109426943D01*
X154633810Y-109422500D01*
X153088061Y-109422500D01*
X153077098Y-109423120D01*
X153055384Y-109424348D01*
X153055376Y-109424349D01*
X153053620Y-109424448D01*
X153025390Y-109427651D01*
X153019415Y-109429580D01*
X153019410Y-109429581D01*
X152916254Y-109462883D01*
X152910276Y-109464813D01*
X152904796Y-109467890D01*
X152904795Y-109467890D01*
X152852300Y-109497361D01*
X152852295Y-109497365D01*
X152848368Y-109499569D01*
X152844795Y-109502310D01*
X152782946Y-109549755D01*
X152782943Y-109549758D01*
X152779376Y-109552494D01*
X148211172Y-114229466D01*
X147569464Y-114886452D01*
X147530042Y-114936264D01*
X147528287Y-114939030D01*
X147528283Y-114939036D01*
X147503182Y-114978603D01*
X147502123Y-114980273D01*
X147501177Y-114981992D01*
X147501168Y-114982007D01*
X147500579Y-114983078D01*
X147483821Y-115013525D01*
X147455370Y-115122131D01*
X147450305Y-115192946D01*
X141791191Y-115192946D01*
X141912089Y-115089689D01*
X142080812Y-114892140D01*
X142216554Y-114670628D01*
X142218669Y-114665524D01*
X142314079Y-114435183D01*
X142314080Y-114435181D01*
X142315973Y-114430610D01*
X142360779Y-114243980D01*
X142375466Y-114182807D01*
X142375467Y-114182801D01*
X142376621Y-114177994D01*
X142397004Y-113919000D01*
X142376621Y-113660006D01*
X142375467Y-113655199D01*
X142375466Y-113655193D01*
X142324510Y-113442951D01*
X142315973Y-113407390D01*
X142304894Y-113380643D01*
X142218449Y-113171946D01*
X142218447Y-113171942D01*
X142216554Y-113167372D01*
X142080812Y-112945860D01*
X141912089Y-112748311D01*
X141714540Y-112579588D01*
X141493028Y-112443846D01*
X141488458Y-112441953D01*
X141488454Y-112441951D01*
X141257583Y-112346321D01*
X141257581Y-112346320D01*
X141253010Y-112344427D01*
X141164676Y-112323220D01*
X141005207Y-112284934D01*
X141005201Y-112284933D01*
X141000394Y-112283779D01*
X140910209Y-112276681D01*
X140808710Y-112268693D01*
X140808701Y-112268693D01*
X140806253Y-112268500D01*
X140676547Y-112268500D01*
X140674099Y-112268693D01*
X140674090Y-112268693D01*
X140572591Y-112276681D01*
X140482406Y-112283779D01*
X140477599Y-112284933D01*
X140477593Y-112284934D01*
X140318124Y-112323220D01*
X140229790Y-112344427D01*
X140225219Y-112346320D01*
X140225217Y-112346321D01*
X139994346Y-112441951D01*
X139994342Y-112441953D01*
X139989772Y-112443846D01*
X139768260Y-112579588D01*
X139570711Y-112748311D01*
X139401988Y-112945860D01*
X139266246Y-113167372D01*
X139264353Y-113171942D01*
X139264351Y-113171946D01*
X139177906Y-113380643D01*
X139166827Y-113407390D01*
X139158290Y-113442951D01*
X139107334Y-113655193D01*
X139107333Y-113655199D01*
X139106179Y-113660006D01*
X139085796Y-113919000D01*
X129918235Y-113919000D01*
X127855461Y-111856226D01*
X127826690Y-111811669D01*
X127802525Y-111747719D01*
X127799841Y-111740616D01*
X127744467Y-111660047D01*
X127711537Y-111612133D01*
X127711536Y-111612132D01*
X127707235Y-111605874D01*
X127701564Y-111600821D01*
X127590834Y-111502164D01*
X127590831Y-111502162D01*
X127585162Y-111497111D01*
X127550437Y-111478725D01*
X127520301Y-111456466D01*
X124692347Y-108628512D01*
X124663576Y-108583956D01*
X124636832Y-108513181D01*
X124628699Y-108468644D01*
X124628700Y-108342529D01*
X124637792Y-108295534D01*
X124682643Y-108183962D01*
X124682644Y-108183959D01*
X124685475Y-108176916D01*
X124708512Y-108015050D01*
X124708661Y-108000800D01*
X124706888Y-107986143D01*
X124699151Y-107922215D01*
X124689019Y-107838487D01*
X124631227Y-107685545D01*
X124619325Y-107668227D01*
X124542923Y-107557062D01*
X124542922Y-107557061D01*
X124538621Y-107550803D01*
X124416548Y-107442040D01*
X124409838Y-107438487D01*
X124278766Y-107369088D01*
X124278764Y-107369087D01*
X124272055Y-107365535D01*
X124220985Y-107352707D01*
X124120855Y-107327556D01*
X124120851Y-107327556D01*
X124113484Y-107325705D01*
X124105885Y-107325665D01*
X124105883Y-107325665D01*
X124037853Y-107325309D01*
X123949990Y-107324849D01*
X123942610Y-107326621D01*
X123942608Y-107326621D01*
X123798389Y-107361244D01*
X123798385Y-107361245D01*
X123791010Y-107363016D01*
X123645724Y-107438004D01*
X123640002Y-107442996D01*
X123640000Y-107442997D01*
X123528244Y-107540488D01*
X123528241Y-107540491D01*
X123522519Y-107545483D01*
X123428507Y-107679248D01*
X123369117Y-107831576D01*
X123368126Y-107839103D01*
X123358112Y-107915169D01*
X123347776Y-107993674D01*
X123354620Y-108055666D01*
X123364368Y-108143953D01*
X123365718Y-108156184D01*
X123368327Y-108163315D01*
X123368328Y-108163317D01*
X123393544Y-108232223D01*
X123407163Y-108269437D01*
X123420026Y-108304588D01*
X123427700Y-108347890D01*
X123427699Y-108470424D01*
X123419092Y-108516192D01*
X123375301Y-108628512D01*
X123369116Y-108644375D01*
X123368125Y-108651904D01*
X123350125Y-108788624D01*
X123347775Y-108806473D01*
X115728526Y-108806473D01*
X115727193Y-108800943D01*
X115727192Y-108800941D01*
X115725787Y-108795110D01*
X115722646Y-108788200D01*
X115641351Y-108609402D01*
X115638871Y-108603947D01*
X115534809Y-108457247D01*
X115520840Y-108437554D01*
X115520839Y-108437553D01*
X115517374Y-108432668D01*
X115365680Y-108287453D01*
X115286502Y-108236328D01*
X115194302Y-108176795D01*
X115194299Y-108176794D01*
X115189265Y-108173543D01*
X115183702Y-108171301D01*
X115000056Y-108097289D01*
X115000053Y-108097288D01*
X114994492Y-108095047D01*
X114988611Y-108093899D01*
X114988606Y-108093897D01*
X114792835Y-108055666D01*
X114792832Y-108055666D01*
X114788389Y-108054798D01*
X114782868Y-108054528D01*
X114628042Y-108054528D01*
X114471465Y-108069467D01*
X114465709Y-108071156D01*
X114465707Y-108071156D01*
X114410319Y-108087405D01*
X114269962Y-108128581D01*
X114209500Y-108159721D01*
X114088603Y-108221987D01*
X114088600Y-108221989D01*
X114083272Y-108224733D01*
X114073854Y-108232131D01*
X113922849Y-108350746D01*
X113922844Y-108350750D01*
X113918132Y-108354452D01*
X113914201Y-108358982D01*
X113914200Y-108358983D01*
X113784432Y-108508526D01*
X113784428Y-108508531D01*
X113780501Y-108513057D01*
X113675345Y-108694827D01*
X113606458Y-108893202D01*
X113605597Y-108899137D01*
X113605597Y-108899139D01*
X113583217Y-109053494D01*
X113576325Y-109101024D01*
X112281565Y-109101024D01*
X112170490Y-108970972D01*
X111984910Y-108812472D01*
X111776820Y-108684954D01*
X111772250Y-108683061D01*
X111772246Y-108683059D01*
X111555912Y-108593451D01*
X111555906Y-108593449D01*
X111551343Y-108591559D01*
X111546543Y-108590407D01*
X111546538Y-108590405D01*
X111411212Y-108557916D01*
X111314033Y-108534585D01*
X111070731Y-108515437D01*
X110827429Y-108534585D01*
X110730250Y-108557916D01*
X110594924Y-108590405D01*
X110594919Y-108590407D01*
X110590119Y-108591559D01*
X110585556Y-108593449D01*
X110585550Y-108593451D01*
X110369216Y-108683059D01*
X110369212Y-108683061D01*
X110364642Y-108684954D01*
X110156552Y-108812472D01*
X109970972Y-108970972D01*
X109812472Y-109156552D01*
X109684954Y-109364642D01*
X109683061Y-109369212D01*
X109683059Y-109369216D01*
X109593451Y-109585550D01*
X109593449Y-109585556D01*
X109591559Y-109590119D01*
X109590407Y-109594919D01*
X109590405Y-109594924D01*
X109584283Y-109620425D01*
X109534585Y-109827429D01*
X109515437Y-110070731D01*
X105034500Y-110070731D01*
X105034500Y-106317274D01*
X127056176Y-106317274D01*
X127074118Y-106479784D01*
X127130305Y-106633323D01*
X127134541Y-106639626D01*
X127134541Y-106639627D01*
X127217260Y-106762727D01*
X127217263Y-106762730D01*
X127221494Y-106769027D01*
X127342422Y-106879063D01*
X127371010Y-106894585D01*
X127479429Y-106953452D01*
X127479431Y-106953453D01*
X127486106Y-106957077D01*
X127493455Y-106959005D01*
X127636901Y-106996637D01*
X127636903Y-106996637D01*
X127644251Y-106998565D01*
X127727532Y-106999873D01*
X127800129Y-107001014D01*
X127800132Y-107001014D01*
X127807728Y-107001133D01*
X127815133Y-106999437D01*
X127815134Y-106999437D01*
X127959697Y-106966328D01*
X127967098Y-106964633D01*
X128113161Y-106891170D01*
X128213952Y-106805087D01*
X128278740Y-106776058D01*
X128295780Y-106774900D01*
X128894807Y-106774900D01*
X128962928Y-106794902D01*
X128983902Y-106811805D01*
X130289447Y-108117350D01*
X130299301Y-108128439D01*
X130311532Y-108143953D01*
X130320328Y-108155110D01*
X130328075Y-108160465D01*
X130328077Y-108160466D01*
X130368575Y-108188455D01*
X130371797Y-108190757D01*
X130410694Y-108219487D01*
X130419016Y-108225634D01*
X130425832Y-108228027D01*
X130431769Y-108232131D01*
X130440749Y-108234971D01*
X130440751Y-108234972D01*
X130460917Y-108241350D01*
X130487719Y-108249826D01*
X130491450Y-108251071D01*
X130537937Y-108267396D01*
X130537939Y-108267396D01*
X130546831Y-108270519D01*
X130554019Y-108270801D01*
X130554078Y-108270812D01*
X130560930Y-108272980D01*
X130567537Y-108273500D01*
X130608202Y-108273500D01*
X130676323Y-108293502D01*
X130693001Y-108306306D01*
X130728056Y-108338203D01*
X130771422Y-108377663D01*
X130786630Y-108385920D01*
X130908429Y-108452052D01*
X130908431Y-108452053D01*
X130915106Y-108455677D01*
X130922455Y-108457605D01*
X131065901Y-108495237D01*
X131065903Y-108495237D01*
X131073251Y-108497165D01*
X131156532Y-108498473D01*
X131229129Y-108499614D01*
X131229132Y-108499614D01*
X131236728Y-108499733D01*
X131244133Y-108498037D01*
X131244134Y-108498037D01*
X131388697Y-108464928D01*
X131396098Y-108463233D01*
X131402882Y-108459821D01*
X131410031Y-108457247D01*
X131410878Y-108459599D01*
X131468870Y-108449024D01*
X131534513Y-108476070D01*
X131575113Y-108534312D01*
X131577678Y-108605662D01*
X131576078Y-108611896D01*
X131573317Y-108618976D01*
X131572325Y-108626511D01*
X131562312Y-108702569D01*
X131551976Y-108781074D01*
X131559290Y-108847324D01*
X131568568Y-108931353D01*
X131569918Y-108943584D01*
X131572527Y-108950715D01*
X131572528Y-108950717D01*
X131611940Y-109058414D01*
X131626105Y-109097123D01*
X131630341Y-109103426D01*
X131630341Y-109103427D01*
X131697275Y-109203035D01*
X131717294Y-109232827D01*
X131722913Y-109237940D01*
X131722914Y-109237941D01*
X131765699Y-109276872D01*
X131802622Y-109337513D01*
X131806900Y-109370066D01*
X131806900Y-109439793D01*
X131814314Y-109462610D01*
X131818928Y-109481829D01*
X131822681Y-109505526D01*
X131827184Y-109514363D01*
X131827184Y-109514364D01*
X131833572Y-109526902D01*
X131841136Y-109545163D01*
X131845485Y-109558547D01*
X131845487Y-109558550D01*
X131848551Y-109567981D01*
X131854380Y-109576004D01*
X131862653Y-109587391D01*
X131872977Y-109604237D01*
X131883872Y-109625620D01*
X133497195Y-111238943D01*
X133531221Y-111301255D01*
X133534100Y-111328038D01*
X133534100Y-111660047D01*
X133514098Y-111728168D01*
X133490930Y-111754996D01*
X133453919Y-111787283D01*
X133359907Y-111921048D01*
X133307877Y-112054499D01*
X133306232Y-112058719D01*
X133300517Y-112073376D01*
X133299526Y-112080903D01*
X133280324Y-112226756D01*
X133279176Y-112235474D01*
X133282844Y-112268693D01*
X133294150Y-112371098D01*
X133297118Y-112397984D01*
X133299727Y-112405115D01*
X133299728Y-112405117D01*
X133346858Y-112533905D01*
X133353305Y-112551523D01*
X133357541Y-112557826D01*
X133357541Y-112557827D01*
X133440260Y-112680927D01*
X133440263Y-112680930D01*
X133444494Y-112687227D01*
X133565422Y-112797263D01*
X133594010Y-112812785D01*
X133702429Y-112871652D01*
X133702431Y-112871653D01*
X133709106Y-112875277D01*
X133716455Y-112877205D01*
X133859901Y-112914837D01*
X133859903Y-112914837D01*
X133867251Y-112916765D01*
X133950532Y-112918073D01*
X134023129Y-112919214D01*
X134023132Y-112919214D01*
X134030728Y-112919333D01*
X134038133Y-112917637D01*
X134038134Y-112917637D01*
X134182697Y-112884528D01*
X134190098Y-112882833D01*
X134336161Y-112809370D01*
X134414631Y-112742351D01*
X134454706Y-112708124D01*
X134454707Y-112708123D01*
X134460485Y-112703188D01*
X134471955Y-112687227D01*
X134551461Y-112576583D01*
X134551462Y-112576582D01*
X134555893Y-112570415D01*
X134616875Y-112418716D01*
X134639912Y-112256850D01*
X134640061Y-112242600D01*
X134638288Y-112227943D01*
X134621331Y-112087827D01*
X134620419Y-112080287D01*
X134613998Y-112063293D01*
X134565311Y-111934448D01*
X134562627Y-111927345D01*
X134512800Y-111854846D01*
X134474323Y-111798862D01*
X134474322Y-111798861D01*
X134470021Y-111792603D01*
X134427281Y-111754523D01*
X134389725Y-111694273D01*
X134385100Y-111660447D01*
X134385100Y-111032207D01*
X134382037Y-111022780D01*
X134382036Y-111022773D01*
X134377687Y-111009388D01*
X134373073Y-110990169D01*
X134370872Y-110976272D01*
X134370870Y-110976265D01*
X134369319Y-110966474D01*
X134358427Y-110945098D01*
X134350864Y-110926837D01*
X134346514Y-110913450D01*
X134343450Y-110904019D01*
X134329349Y-110884611D01*
X134319017Y-110867752D01*
X134312631Y-110855218D01*
X134308128Y-110846380D01*
X132799466Y-109337718D01*
X132765440Y-109275406D01*
X132770505Y-109204591D01*
X132786238Y-109175097D01*
X132824262Y-109122181D01*
X132828693Y-109116015D01*
X132884445Y-108977327D01*
X132886843Y-108971361D01*
X132889675Y-108964316D01*
X132912712Y-108802450D01*
X132912861Y-108788200D01*
X132911088Y-108773543D01*
X132903351Y-108709615D01*
X132893219Y-108625887D01*
X132835427Y-108472945D01*
X132821068Y-108452052D01*
X132747123Y-108344462D01*
X132747122Y-108344461D01*
X132742821Y-108338203D01*
X132620748Y-108229440D01*
X132613560Y-108225634D01*
X132482966Y-108156488D01*
X132482964Y-108156487D01*
X132476255Y-108152935D01*
X132425185Y-108140107D01*
X132325055Y-108114956D01*
X132325051Y-108114956D01*
X132317684Y-108113105D01*
X132310085Y-108113065D01*
X132310083Y-108113065D01*
X132242053Y-108112709D01*
X132154190Y-108112249D01*
X132146810Y-108114021D01*
X132146808Y-108114021D01*
X132086161Y-108128581D01*
X131995210Y-108150416D01*
X131988462Y-108153899D01*
X131986246Y-108154723D01*
X131915426Y-108159721D01*
X131853145Y-108125637D01*
X131819179Y-108063293D01*
X131820599Y-108004779D01*
X131822875Y-107999116D01*
X131845912Y-107837250D01*
X131846061Y-107823000D01*
X131826419Y-107660687D01*
X131768627Y-107507745D01*
X131717052Y-107432703D01*
X131680323Y-107379262D01*
X131680322Y-107379261D01*
X131676021Y-107373003D01*
X131553948Y-107264240D01*
X131547238Y-107260687D01*
X131416166Y-107191288D01*
X131416164Y-107191287D01*
X131409455Y-107187735D01*
X131346528Y-107171929D01*
X131258255Y-107149756D01*
X131258251Y-107149756D01*
X131250884Y-107147905D01*
X131243285Y-107147865D01*
X131243283Y-107147865D01*
X131175253Y-107147509D01*
X131087390Y-107147049D01*
X131080010Y-107148821D01*
X131080008Y-107148821D01*
X130935789Y-107183444D01*
X130935785Y-107183445D01*
X130928410Y-107185216D01*
X130921669Y-107188695D01*
X130921659Y-107188699D01*
X130814386Y-107244068D01*
X130744679Y-107257538D01*
X130678756Y-107231183D01*
X130667501Y-107221198D01*
X129476353Y-106030050D01*
X129466499Y-106018961D01*
X129451307Y-105999691D01*
X129451305Y-105999689D01*
X129445472Y-105992290D01*
X129437725Y-105986935D01*
X129437723Y-105986934D01*
X129397225Y-105958945D01*
X129394003Y-105956643D01*
X129354358Y-105927360D01*
X129354357Y-105927359D01*
X129346784Y-105921766D01*
X129339968Y-105919373D01*
X129334031Y-105915269D01*
X129325051Y-105912429D01*
X129325049Y-105912428D01*
X129304883Y-105906050D01*
X129278081Y-105897574D01*
X129274350Y-105896329D01*
X129227863Y-105880004D01*
X129227861Y-105880004D01*
X129218969Y-105876881D01*
X129211781Y-105876599D01*
X129211722Y-105876588D01*
X129204870Y-105874420D01*
X129198263Y-105873900D01*
X129145584Y-105873900D01*
X129140637Y-105873803D01*
X129083606Y-105871562D01*
X129076500Y-105873446D01*
X129068253Y-105873900D01*
X128294444Y-105873900D01*
X128226323Y-105853898D01*
X128210625Y-105841976D01*
X128130619Y-105770692D01*
X128130615Y-105770690D01*
X128124948Y-105765640D01*
X128118238Y-105762087D01*
X127987166Y-105692688D01*
X127987164Y-105692687D01*
X127980455Y-105689135D01*
X127929385Y-105676307D01*
X127829255Y-105651156D01*
X127829251Y-105651156D01*
X127821884Y-105649305D01*
X127814285Y-105649265D01*
X127814283Y-105649265D01*
X127746253Y-105648909D01*
X127658390Y-105648449D01*
X127651010Y-105650221D01*
X127651008Y-105650221D01*
X127506789Y-105684844D01*
X127506785Y-105684845D01*
X127499410Y-105686616D01*
X127354124Y-105761604D01*
X127348402Y-105766596D01*
X127348400Y-105766597D01*
X127236644Y-105864088D01*
X127236641Y-105864091D01*
X127230919Y-105869083D01*
X127136907Y-106002848D01*
X127077517Y-106155176D01*
X127056176Y-106317274D01*
X105034500Y-106317274D01*
X105034500Y-89944077D01*
X109995065Y-89944077D01*
X110008722Y-90335157D01*
X110060477Y-90723038D01*
X110149834Y-91104017D01*
X110150823Y-91106923D01*
X110150825Y-91106929D01*
X110274950Y-91471543D01*
X110274955Y-91471555D01*
X110275943Y-91474458D01*
X110437598Y-91830826D01*
X110633258Y-92169717D01*
X110635047Y-92172216D01*
X110635049Y-92172219D01*
X110855553Y-92480216D01*
X110861053Y-92487899D01*
X110863080Y-92490214D01*
X110863082Y-92490217D01*
X111092022Y-92751733D01*
X111118810Y-92782333D01*
X111404069Y-93050208D01*
X111714107Y-93288969D01*
X111716710Y-93290596D01*
X111716715Y-93290599D01*
X111835687Y-93364941D01*
X112045964Y-93496337D01*
X112396472Y-93670331D01*
X112762287Y-93809290D01*
X113139915Y-93911890D01*
X113142958Y-93912405D01*
X113142964Y-93912406D01*
X113522713Y-93976636D01*
X113522720Y-93976637D01*
X113525754Y-93977150D01*
X113528825Y-93977365D01*
X113528827Y-93977365D01*
X113913053Y-94004233D01*
X113913061Y-94004233D01*
X113916119Y-94004447D01*
X114169704Y-93997363D01*
X114304211Y-93993606D01*
X114304214Y-93993606D01*
X114307285Y-93993520D01*
X114310338Y-93993134D01*
X114310342Y-93993134D01*
X114496145Y-93969662D01*
X114695517Y-93944475D01*
X114698521Y-93943793D01*
X114698524Y-93943792D01*
X115074115Y-93858460D01*
X115074121Y-93858458D01*
X115077111Y-93857779D01*
X115222875Y-93809290D01*
X115445500Y-93735233D01*
X115445506Y-93735231D01*
X115448424Y-93734260D01*
X115589551Y-93671426D01*
X115803111Y-93576343D01*
X115803117Y-93576340D01*
X115805911Y-93575096D01*
X115808580Y-93573580D01*
X116143492Y-93383324D01*
X116143498Y-93383320D01*
X116146160Y-93381808D01*
X116465924Y-93156239D01*
X116762150Y-92900544D01*
X116764271Y-92898317D01*
X116764277Y-92898311D01*
X117029894Y-92619385D01*
X117032011Y-92617162D01*
X117131192Y-92490217D01*
X117271021Y-92311244D01*
X117271023Y-92311241D01*
X117272931Y-92308799D01*
X117274587Y-92306189D01*
X117274593Y-92306181D01*
X117425827Y-92067874D01*
X128224576Y-92067874D01*
X128242518Y-92230384D01*
X128245127Y-92237515D01*
X128245128Y-92237517D01*
X128287183Y-92352437D01*
X128298705Y-92383923D01*
X128302941Y-92390226D01*
X128302941Y-92390227D01*
X128385660Y-92513327D01*
X128385663Y-92513330D01*
X128389894Y-92519627D01*
X128395508Y-92524735D01*
X128499527Y-92619385D01*
X128510822Y-92629663D01*
X128517497Y-92633287D01*
X128647829Y-92704052D01*
X128647831Y-92704053D01*
X128654506Y-92707677D01*
X128661855Y-92709605D01*
X128805301Y-92747237D01*
X128805303Y-92747237D01*
X128812651Y-92749165D01*
X128895932Y-92750473D01*
X128968529Y-92751614D01*
X128968532Y-92751614D01*
X128976128Y-92751733D01*
X128983533Y-92750037D01*
X128983534Y-92750037D01*
X129128097Y-92716928D01*
X129135498Y-92715233D01*
X129187783Y-92688936D01*
X129244398Y-92675500D01*
X132744275Y-92675500D01*
X132812396Y-92695502D01*
X132833370Y-92712405D01*
X138815436Y-98694471D01*
X138822603Y-98702643D01*
X138824592Y-98704632D01*
X138829618Y-98711182D01*
X138836168Y-98716208D01*
X138838157Y-98718197D01*
X138846329Y-98725364D01*
X139717480Y-99596515D01*
X139751506Y-99658827D01*
X139746441Y-99729642D01*
X139717480Y-99774705D01*
X139417781Y-100074404D01*
X139355469Y-100108430D01*
X139328026Y-100111307D01*
X139316990Y-100111249D01*
X139309610Y-100113021D01*
X139309608Y-100113021D01*
X139165389Y-100147644D01*
X139165385Y-100147645D01*
X139158010Y-100149416D01*
X139012724Y-100224404D01*
X139007002Y-100229396D01*
X139007000Y-100229397D01*
X138895244Y-100326888D01*
X138895241Y-100326891D01*
X138889519Y-100331883D01*
X138795507Y-100465648D01*
X138736117Y-100617976D01*
X138714776Y-100780074D01*
X138732718Y-100942584D01*
X138735327Y-100949715D01*
X138735328Y-100949717D01*
X138765855Y-101033135D01*
X138788905Y-101096123D01*
X138793141Y-101102426D01*
X138793141Y-101102427D01*
X138875860Y-101225527D01*
X138875863Y-101225530D01*
X138880094Y-101231827D01*
X139001022Y-101341863D01*
X139029610Y-101357385D01*
X139138029Y-101416252D01*
X139138031Y-101416253D01*
X139144706Y-101419877D01*
X139152055Y-101421805D01*
X139295501Y-101459437D01*
X139295503Y-101459437D01*
X139302851Y-101461365D01*
X139386132Y-101462673D01*
X139458729Y-101463814D01*
X139458732Y-101463814D01*
X139466328Y-101463933D01*
X139473733Y-101462237D01*
X139473734Y-101462237D01*
X139618297Y-101429128D01*
X139625698Y-101427433D01*
X139771761Y-101353970D01*
X139896085Y-101247788D01*
X139907555Y-101231827D01*
X139987061Y-101121183D01*
X139987062Y-101121182D01*
X139991493Y-101115015D01*
X140052475Y-100963316D01*
X140064469Y-100879040D01*
X140093870Y-100814417D01*
X140100117Y-100807698D01*
X140425295Y-100482520D01*
X140487607Y-100448494D01*
X140558422Y-100453559D01*
X140603485Y-100482520D01*
X148687951Y-108566986D01*
X148717182Y-108612780D01*
X148736795Y-108666374D01*
X148745705Y-108690723D01*
X148749941Y-108697026D01*
X148749941Y-108697027D01*
X148832660Y-108820127D01*
X148832663Y-108820130D01*
X148836894Y-108826427D01*
X148957822Y-108936463D01*
X148984075Y-108950717D01*
X149094829Y-109010852D01*
X149094831Y-109010853D01*
X149101506Y-109014477D01*
X149108855Y-109016405D01*
X149252301Y-109054037D01*
X149252303Y-109054037D01*
X149259651Y-109055965D01*
X149342932Y-109057273D01*
X149415529Y-109058414D01*
X149415532Y-109058414D01*
X149423128Y-109058533D01*
X149430533Y-109056837D01*
X149430534Y-109056837D01*
X149575097Y-109023728D01*
X149582498Y-109022033D01*
X149728561Y-108948570D01*
X149852885Y-108842388D01*
X149864355Y-108826427D01*
X149943861Y-108715783D01*
X149943862Y-108715782D01*
X149948293Y-108709615D01*
X150009275Y-108557916D01*
X150032312Y-108396050D01*
X150032461Y-108381800D01*
X150031961Y-108377663D01*
X150020576Y-108283588D01*
X150012819Y-108219487D01*
X150010132Y-108212376D01*
X150008702Y-108206553D01*
X150011880Y-108135627D01*
X150052897Y-108077679D01*
X150118733Y-108051105D01*
X150131066Y-108050500D01*
X156361207Y-108050500D01*
X156429328Y-108070502D01*
X156450302Y-108087405D01*
X161296206Y-112933309D01*
X161330232Y-112995621D01*
X161332350Y-113008576D01*
X161337518Y-113055384D01*
X161340127Y-113062515D01*
X161340128Y-113062517D01*
X161378500Y-113167372D01*
X161393705Y-113208923D01*
X161397941Y-113215226D01*
X161397941Y-113215227D01*
X161480660Y-113338327D01*
X161480663Y-113338330D01*
X161484894Y-113344627D01*
X161490508Y-113349735D01*
X161593905Y-113443819D01*
X161605822Y-113454663D01*
X161643494Y-113475117D01*
X161742829Y-113529052D01*
X161742831Y-113529053D01*
X161749506Y-113532677D01*
X161756855Y-113534605D01*
X161900301Y-113572237D01*
X161900303Y-113572237D01*
X161907651Y-113574165D01*
X161955426Y-113574915D01*
X161966656Y-113575092D01*
X162034454Y-113596161D01*
X162080099Y-113650541D01*
X162089097Y-113720965D01*
X162053772Y-113790171D01*
X155397948Y-120445995D01*
X155335636Y-120480021D01*
X155308853Y-120482900D01*
X152056546Y-120482900D01*
X151988425Y-120462898D01*
X151967451Y-120445995D01*
X149943783Y-118422326D01*
X149937929Y-118416060D01*
X149905365Y-118378731D01*
X149900369Y-118373004D01*
X149848727Y-118336710D01*
X149843442Y-118332784D01*
X149799724Y-118298505D01*
X149799720Y-118298503D01*
X149793743Y-118293816D01*
X149786820Y-118290690D01*
X149783872Y-118288905D01*
X149770912Y-118281513D01*
X149767866Y-118279880D01*
X149761653Y-118275513D01*
X149702833Y-118252580D01*
X149696754Y-118250024D01*
X149639216Y-118224045D01*
X149631745Y-118222660D01*
X149628477Y-118221636D01*
X149614036Y-118217523D01*
X149610763Y-118216683D01*
X149603687Y-118213924D01*
X149559017Y-118208044D01*
X149541094Y-118205684D01*
X149534577Y-118204652D01*
X149479975Y-118194532D01*
X149472508Y-118193148D01*
X149464928Y-118193585D01*
X149464927Y-118193585D01*
X149411056Y-118196691D01*
X149403804Y-118196900D01*
X141435484Y-118196900D01*
X141309680Y-118212124D01*
X141151077Y-118272055D01*
X141144819Y-118276356D01*
X141059766Y-118334812D01*
X141011349Y-118368088D01*
X141006297Y-118373758D01*
X141006296Y-118373759D01*
X140903612Y-118489008D01*
X140903610Y-118489012D01*
X140898560Y-118494679D01*
X140819224Y-118644519D01*
X140777919Y-118808959D01*
X140777879Y-118816557D01*
X140777879Y-118816559D01*
X140777629Y-118864275D01*
X140777031Y-118978505D01*
X140778805Y-118985892D01*
X140778805Y-118985896D01*
X140799042Y-119070185D01*
X140816612Y-119143368D01*
X140820093Y-119150112D01*
X140820094Y-119150115D01*
X140890892Y-119287283D01*
X140894375Y-119294031D01*
X140899367Y-119299753D01*
X140899368Y-119299755D01*
X140910091Y-119312047D01*
X141005831Y-119421796D01*
X141012045Y-119426163D01*
X141138330Y-119514918D01*
X141138332Y-119514919D01*
X141144547Y-119519287D01*
X141302513Y-119580876D01*
X141310046Y-119581868D01*
X141310047Y-119581868D01*
X141427739Y-119597362D01*
X141431826Y-119597900D01*
X149085854Y-119597900D01*
X149153975Y-119617902D01*
X149174949Y-119634805D01*
X151198617Y-121658474D01*
X151204470Y-121664739D01*
X151242031Y-121707796D01*
X151293690Y-121744102D01*
X151298974Y-121748027D01*
X151348657Y-121786983D01*
X151355584Y-121790111D01*
X151358515Y-121791886D01*
X151371518Y-121799303D01*
X151374532Y-121800919D01*
X151380747Y-121805287D01*
X151387823Y-121808046D01*
X151387827Y-121808048D01*
X151439564Y-121828219D01*
X151445645Y-121830775D01*
X151448863Y-121832228D01*
X151503184Y-121856755D01*
X151510650Y-121858139D01*
X151513899Y-121859157D01*
X151528364Y-121863277D01*
X151531637Y-121864117D01*
X151538713Y-121866876D01*
X151583383Y-121872756D01*
X151601306Y-121875116D01*
X151607823Y-121876148D01*
X151613618Y-121877222D01*
X151669892Y-121887652D01*
X151677472Y-121887215D01*
X151677473Y-121887215D01*
X151731344Y-121884109D01*
X151738596Y-121883900D01*
X155622559Y-121883900D01*
X155631129Y-121884192D01*
X155680554Y-121887562D01*
X155680558Y-121887562D01*
X155688130Y-121888078D01*
X155695606Y-121886773D01*
X155695609Y-121886773D01*
X155750332Y-121877222D01*
X155756858Y-121876259D01*
X155797296Y-121871365D01*
X155819520Y-121868676D01*
X155826627Y-121865991D01*
X155829920Y-121865182D01*
X155844391Y-121861223D01*
X155847667Y-121860234D01*
X155855154Y-121858927D01*
X155867219Y-121853631D01*
X155912960Y-121833553D01*
X155919066Y-121831061D01*
X155971018Y-121811430D01*
X155971020Y-121811429D01*
X155978123Y-121808745D01*
X155984378Y-121804446D01*
X155987403Y-121802865D01*
X156000499Y-121795575D01*
X156003443Y-121793834D01*
X156010402Y-121790779D01*
X156060473Y-121752358D01*
X156065809Y-121748481D01*
X156111586Y-121717019D01*
X156111592Y-121717014D01*
X156117851Y-121712712D01*
X156158809Y-121666742D01*
X156163789Y-121661467D01*
X159332382Y-118492874D01*
X168119576Y-118492874D01*
X168128547Y-118574129D01*
X168135578Y-118637811D01*
X168137518Y-118655384D01*
X168140127Y-118662515D01*
X168140128Y-118662517D01*
X168191022Y-118801590D01*
X168193705Y-118808923D01*
X168197941Y-118815226D01*
X168197941Y-118815227D01*
X168280660Y-118938327D01*
X168280663Y-118938330D01*
X168284894Y-118944627D01*
X168405822Y-119054663D01*
X168428804Y-119067141D01*
X168542829Y-119129052D01*
X168542831Y-119129053D01*
X168549506Y-119132677D01*
X168556855Y-119134605D01*
X168700301Y-119172237D01*
X168700303Y-119172237D01*
X168707651Y-119174165D01*
X168790932Y-119175473D01*
X168863529Y-119176614D01*
X168863532Y-119176614D01*
X168871128Y-119176733D01*
X168878533Y-119175037D01*
X168878534Y-119175037D01*
X169023097Y-119141928D01*
X169030498Y-119140233D01*
X169176561Y-119066770D01*
X169300885Y-118960588D01*
X169357536Y-118881750D01*
X169372911Y-118864358D01*
X169372828Y-118864275D01*
X169410055Y-118827048D01*
X169413621Y-118823618D01*
X169448641Y-118791246D01*
X169455556Y-118784854D01*
X169459249Y-118778495D01*
X169464766Y-118772337D01*
X171724356Y-116512747D01*
X171786668Y-116478721D01*
X171815430Y-116475858D01*
X171819597Y-116475923D01*
X171863530Y-116476614D01*
X171863533Y-116476614D01*
X171871128Y-116476733D01*
X171878533Y-116475037D01*
X171878534Y-116475037D01*
X172023097Y-116441928D01*
X172030498Y-116440233D01*
X172176561Y-116366770D01*
X172300885Y-116260588D01*
X172369592Y-116164974D01*
X172391861Y-116133983D01*
X172391862Y-116133982D01*
X172396293Y-116127815D01*
X172457275Y-115976116D01*
X172480312Y-115814250D01*
X172480461Y-115800000D01*
X172478688Y-115785343D01*
X172468624Y-115702187D01*
X172460819Y-115637687D01*
X172403027Y-115484745D01*
X172310421Y-115350003D01*
X172270694Y-115314607D01*
X172215623Y-115265541D01*
X172188348Y-115241240D01*
X172181638Y-115237687D01*
X172050566Y-115168288D01*
X172050564Y-115168287D01*
X172043855Y-115164735D01*
X171992785Y-115151907D01*
X171892655Y-115126756D01*
X171892651Y-115126756D01*
X171885284Y-115124905D01*
X171877685Y-115124865D01*
X171877683Y-115124865D01*
X171809653Y-115124509D01*
X171721790Y-115124049D01*
X171714410Y-115125821D01*
X171714408Y-115125821D01*
X171570189Y-115160444D01*
X171570185Y-115160445D01*
X171562810Y-115162216D01*
X171417524Y-115237204D01*
X171411802Y-115242196D01*
X171411800Y-115242197D01*
X171300044Y-115339688D01*
X171300041Y-115339691D01*
X171294319Y-115344683D01*
X171200307Y-115478448D01*
X171140917Y-115630776D01*
X171119576Y-115792874D01*
X171119712Y-115794107D01*
X171099790Y-115859422D01*
X171083605Y-115879291D01*
X169137770Y-117825127D01*
X169075458Y-117859152D01*
X169017981Y-117858236D01*
X168885284Y-117824905D01*
X168877685Y-117824865D01*
X168877683Y-117824865D01*
X168809653Y-117824509D01*
X168721790Y-117824049D01*
X168714410Y-117825821D01*
X168714408Y-117825821D01*
X168570189Y-117860444D01*
X168570185Y-117860445D01*
X168562810Y-117862216D01*
X168417524Y-117937204D01*
X168411802Y-117942196D01*
X168411800Y-117942197D01*
X168300044Y-118039688D01*
X168300041Y-118039691D01*
X168294319Y-118044683D01*
X168200307Y-118178448D01*
X168140917Y-118330776D01*
X168119576Y-118492874D01*
X159332382Y-118492874D01*
X163379812Y-114445444D01*
X163442124Y-114411418D01*
X163512939Y-114416483D01*
X163569775Y-114459030D01*
X163587232Y-114491237D01*
X163591092Y-114501784D01*
X163591094Y-114501788D01*
X163593705Y-114508923D01*
X163597941Y-114515226D01*
X163597941Y-114515227D01*
X163680660Y-114638327D01*
X163680663Y-114638330D01*
X163684894Y-114644627D01*
X163805822Y-114754663D01*
X163834410Y-114770185D01*
X163942829Y-114829052D01*
X163942831Y-114829053D01*
X163949506Y-114832677D01*
X163956855Y-114834605D01*
X164100301Y-114872237D01*
X164100303Y-114872237D01*
X164107651Y-114874165D01*
X164190932Y-114875473D01*
X164263529Y-114876614D01*
X164263532Y-114876614D01*
X164271128Y-114876733D01*
X164278533Y-114875037D01*
X164278534Y-114875037D01*
X164423097Y-114841928D01*
X164430498Y-114840233D01*
X164576561Y-114766770D01*
X164662984Y-114692958D01*
X164695106Y-114665524D01*
X164695107Y-114665523D01*
X164700885Y-114660588D01*
X164712355Y-114644627D01*
X164791861Y-114533983D01*
X164791862Y-114533982D01*
X164796293Y-114527815D01*
X164857275Y-114376116D01*
X164880312Y-114214250D01*
X164880461Y-114200000D01*
X164879142Y-114189096D01*
X164861731Y-114045227D01*
X164860819Y-114037687D01*
X164803027Y-113884745D01*
X164710421Y-113750003D01*
X164677830Y-113720965D01*
X164630714Y-113678987D01*
X164588348Y-113641240D01*
X164474748Y-113581092D01*
X164423906Y-113531540D01*
X164407924Y-113462366D01*
X164431877Y-113395532D01*
X164444613Y-113380643D01*
X166446682Y-111378574D01*
X169404676Y-111378574D01*
X169405510Y-111386124D01*
X169417371Y-111493556D01*
X169422618Y-111541084D01*
X169425227Y-111548215D01*
X169425228Y-111548217D01*
X169473559Y-111680287D01*
X169478805Y-111694623D01*
X169483041Y-111700926D01*
X169483041Y-111700927D01*
X169565760Y-111824027D01*
X169565763Y-111824030D01*
X169569994Y-111830327D01*
X169690922Y-111940363D01*
X169697597Y-111943987D01*
X169827929Y-112014752D01*
X169827931Y-112014753D01*
X169834606Y-112018377D01*
X169841955Y-112020305D01*
X169985401Y-112057937D01*
X169985403Y-112057937D01*
X169992751Y-112059865D01*
X170001360Y-112060000D01*
X170002064Y-112060219D01*
X170007869Y-112061014D01*
X170007736Y-112061982D01*
X170069155Y-112081067D01*
X170088475Y-112096889D01*
X170538466Y-112546880D01*
X170545932Y-112556224D01*
X170546322Y-112555892D01*
X170552140Y-112562728D01*
X170556930Y-112570320D01*
X170563658Y-112576262D01*
X170563659Y-112576263D01*
X170596600Y-112605355D01*
X170602288Y-112610702D01*
X170613507Y-112621921D01*
X170617095Y-112624610D01*
X170617096Y-112624611D01*
X170621684Y-112628050D01*
X170629523Y-112634432D01*
X170664388Y-112665223D01*
X170672506Y-112669034D01*
X170675659Y-112671106D01*
X170688680Y-112678929D01*
X170691989Y-112680741D01*
X170699176Y-112686127D01*
X170707581Y-112689278D01*
X170707583Y-112689279D01*
X170742737Y-112702457D01*
X170752057Y-112706384D01*
X170794163Y-112726153D01*
X170803035Y-112727534D01*
X170806658Y-112728642D01*
X170821317Y-112732488D01*
X170825014Y-112733301D01*
X170833420Y-112736452D01*
X170879843Y-112739902D01*
X170889856Y-112741052D01*
X170903009Y-112743100D01*
X170918204Y-112743100D01*
X170927542Y-112743446D01*
X170976392Y-112747076D01*
X170985168Y-112745203D01*
X170994125Y-112744592D01*
X170994125Y-112744598D01*
X171008318Y-112743100D01*
X174833752Y-112743100D01*
X174901873Y-112763102D01*
X174918551Y-112775906D01*
X174942022Y-112797263D01*
X174948697Y-112800887D01*
X174948700Y-112800889D01*
X175079029Y-112871652D01*
X175079031Y-112871653D01*
X175085706Y-112875277D01*
X175093055Y-112877205D01*
X175236501Y-112914837D01*
X175236503Y-112914837D01*
X175243851Y-112916765D01*
X175327132Y-112918073D01*
X175399729Y-112919214D01*
X175399732Y-112919214D01*
X175407328Y-112919333D01*
X175414733Y-112917637D01*
X175414734Y-112917637D01*
X175559297Y-112884528D01*
X175566698Y-112882833D01*
X175712761Y-112809370D01*
X175791231Y-112742351D01*
X175831306Y-112708124D01*
X175831307Y-112708123D01*
X175837085Y-112703188D01*
X175848555Y-112687227D01*
X175928061Y-112576583D01*
X175928062Y-112576582D01*
X175932493Y-112570415D01*
X175993475Y-112418716D01*
X176016512Y-112256850D01*
X176016661Y-112242600D01*
X176014888Y-112227943D01*
X175997931Y-112087827D01*
X175997019Y-112080287D01*
X175990598Y-112063293D01*
X175941911Y-111934448D01*
X175939227Y-111927345D01*
X175889400Y-111854846D01*
X175850923Y-111798862D01*
X175850922Y-111798861D01*
X175846621Y-111792603D01*
X175724548Y-111683840D01*
X175717838Y-111680287D01*
X175586766Y-111610888D01*
X175586764Y-111610887D01*
X175580055Y-111607335D01*
X175528985Y-111594507D01*
X175428855Y-111569356D01*
X175428851Y-111569356D01*
X175421484Y-111567505D01*
X175413885Y-111567465D01*
X175413883Y-111567465D01*
X175345853Y-111567109D01*
X175257990Y-111566649D01*
X175250610Y-111568421D01*
X175250608Y-111568421D01*
X175106389Y-111603044D01*
X175106385Y-111603045D01*
X175099010Y-111604816D01*
X174953724Y-111679804D01*
X174948002Y-111684796D01*
X174948000Y-111684797D01*
X174917907Y-111711049D01*
X174853425Y-111740757D01*
X174835078Y-111742100D01*
X171201504Y-111742100D01*
X171133383Y-111722098D01*
X171112409Y-111705195D01*
X170792560Y-111385346D01*
X170758534Y-111323034D01*
X170756568Y-111311388D01*
X170746831Y-111230927D01*
X170745919Y-111223387D01*
X170688127Y-111070445D01*
X170646164Y-111009388D01*
X170599823Y-110941962D01*
X170599822Y-110941961D01*
X170595521Y-110935703D01*
X170473448Y-110826940D01*
X170466738Y-110823387D01*
X170335666Y-110753988D01*
X170335664Y-110753987D01*
X170328955Y-110750435D01*
X170277885Y-110737607D01*
X170177755Y-110712456D01*
X170177751Y-110712456D01*
X170170384Y-110710605D01*
X170162785Y-110710565D01*
X170162783Y-110710565D01*
X170094753Y-110710209D01*
X170006890Y-110709749D01*
X169999510Y-110711521D01*
X169999508Y-110711521D01*
X169855289Y-110746144D01*
X169855285Y-110746145D01*
X169847910Y-110747916D01*
X169702624Y-110822904D01*
X169696902Y-110827896D01*
X169696900Y-110827897D01*
X169585144Y-110925388D01*
X169585141Y-110925391D01*
X169579419Y-110930383D01*
X169485407Y-111064148D01*
X169426017Y-111216476D01*
X169425026Y-111224003D01*
X169407835Y-111354581D01*
X169404676Y-111378574D01*
X166446682Y-111378574D01*
X168369067Y-109456189D01*
X168375333Y-109450335D01*
X168405008Y-109424448D01*
X168418396Y-109412769D01*
X168422761Y-109406558D01*
X168422764Y-109406555D01*
X168454705Y-109361107D01*
X168458638Y-109355812D01*
X168492896Y-109312121D01*
X168492897Y-109312119D01*
X168497583Y-109306143D01*
X168500708Y-109299221D01*
X168502481Y-109296294D01*
X168509906Y-109283275D01*
X168511517Y-109280271D01*
X168515887Y-109274053D01*
X168538820Y-109215233D01*
X168541375Y-109209155D01*
X168564228Y-109158543D01*
X168564229Y-109158541D01*
X168567355Y-109151617D01*
X168568740Y-109144145D01*
X168569767Y-109140867D01*
X168573863Y-109126486D01*
X168574715Y-109123170D01*
X168577476Y-109116087D01*
X168585717Y-109053489D01*
X168586748Y-109046977D01*
X168593444Y-109010852D01*
X168598252Y-108984908D01*
X168597449Y-108970972D01*
X168594709Y-108923462D01*
X168594500Y-108916209D01*
X168594500Y-107587274D01*
X173207976Y-107587274D01*
X173225918Y-107749784D01*
X173228527Y-107756915D01*
X173228528Y-107756917D01*
X173261138Y-107846027D01*
X173282105Y-107903323D01*
X173286341Y-107909626D01*
X173286341Y-107909627D01*
X173369060Y-108032727D01*
X173369063Y-108032730D01*
X173373294Y-108039027D01*
X173415772Y-108077679D01*
X173471713Y-108128581D01*
X173494222Y-108149063D01*
X173520475Y-108163317D01*
X173631229Y-108223452D01*
X173631231Y-108223453D01*
X173637906Y-108227077D01*
X173645255Y-108229005D01*
X173788701Y-108266637D01*
X173788703Y-108266637D01*
X173796051Y-108268565D01*
X173878808Y-108269865D01*
X173951929Y-108271014D01*
X173951932Y-108271014D01*
X173959528Y-108271133D01*
X173966933Y-108269437D01*
X173966934Y-108269437D01*
X174111497Y-108236328D01*
X174118898Y-108234633D01*
X174264961Y-108161170D01*
X174370355Y-108071156D01*
X174383506Y-108059924D01*
X174383507Y-108059923D01*
X174389285Y-108054988D01*
X174400755Y-108039027D01*
X174480261Y-107928383D01*
X174480262Y-107928382D01*
X174484693Y-107922215D01*
X174545675Y-107770516D01*
X174568712Y-107608650D01*
X174568861Y-107594400D01*
X174567088Y-107579743D01*
X174550131Y-107439627D01*
X174549219Y-107432087D01*
X174491427Y-107279145D01*
X174460774Y-107234545D01*
X174403123Y-107150662D01*
X174403122Y-107150661D01*
X174398821Y-107144403D01*
X174363121Y-107112595D01*
X174282419Y-107040693D01*
X174276748Y-107035640D01*
X174270038Y-107032087D01*
X174138966Y-106962688D01*
X174138964Y-106962687D01*
X174132255Y-106959135D01*
X174081185Y-106946307D01*
X173981055Y-106921156D01*
X173981051Y-106921156D01*
X173973684Y-106919305D01*
X173966085Y-106919265D01*
X173966083Y-106919265D01*
X173898053Y-106918909D01*
X173810190Y-106918449D01*
X173802810Y-106920221D01*
X173802808Y-106920221D01*
X173658589Y-106954844D01*
X173658585Y-106954845D01*
X173651210Y-106956616D01*
X173505924Y-107031604D01*
X173500202Y-107036596D01*
X173500200Y-107036597D01*
X173388444Y-107134088D01*
X173388441Y-107134091D01*
X173382719Y-107139083D01*
X173288707Y-107272848D01*
X173229317Y-107425176D01*
X173228326Y-107432703D01*
X173211954Y-107557062D01*
X173207976Y-107587274D01*
X168594500Y-107587274D01*
X168594500Y-105926284D01*
X168579276Y-105800480D01*
X168519345Y-105641877D01*
X168423312Y-105502149D01*
X168411514Y-105491637D01*
X168302392Y-105394412D01*
X168302388Y-105394410D01*
X168296721Y-105389360D01*
X168146881Y-105310024D01*
X167982441Y-105268719D01*
X167974843Y-105268679D01*
X167974841Y-105268679D01*
X167897668Y-105268275D01*
X167812895Y-105267831D01*
X167805508Y-105269605D01*
X167805504Y-105269605D01*
X167662162Y-105304020D01*
X167648032Y-105307412D01*
X167641288Y-105310893D01*
X167641285Y-105310894D01*
X167636089Y-105313576D01*
X167497369Y-105385175D01*
X167369604Y-105496631D01*
X167272113Y-105635347D01*
X167210524Y-105793313D01*
X167209532Y-105800846D01*
X167209532Y-105800847D01*
X167194300Y-105916549D01*
X167193500Y-105922626D01*
X167193500Y-108598253D01*
X167173498Y-108666374D01*
X167156595Y-108687348D01*
X162891981Y-112951962D01*
X162829669Y-112985988D01*
X162758854Y-112980923D01*
X162702018Y-112938376D01*
X162677799Y-112878004D01*
X162660819Y-112737687D01*
X162603027Y-112584745D01*
X162575291Y-112544389D01*
X162514723Y-112456262D01*
X162514722Y-112456261D01*
X162510421Y-112450003D01*
X162483213Y-112425761D01*
X162406777Y-112357660D01*
X162388348Y-112341240D01*
X162289686Y-112289001D01*
X162250566Y-112268288D01*
X162250564Y-112268287D01*
X162243855Y-112264735D01*
X162172134Y-112246720D01*
X162092655Y-112226756D01*
X162092651Y-112226756D01*
X162085284Y-112224905D01*
X162077685Y-112224865D01*
X162077683Y-112224865D01*
X162006288Y-112224491D01*
X161928313Y-112224083D01*
X161928312Y-112224083D01*
X161921790Y-112224049D01*
X161921796Y-112222962D01*
X161858797Y-112212118D01*
X161825193Y-112188090D01*
X156942753Y-107305650D01*
X156932899Y-107294561D01*
X156917707Y-107275291D01*
X156917705Y-107275289D01*
X156911872Y-107267890D01*
X156904125Y-107262535D01*
X156904123Y-107262534D01*
X156863625Y-107234545D01*
X156860403Y-107232243D01*
X156820758Y-107202960D01*
X156820757Y-107202959D01*
X156813184Y-107197366D01*
X156806368Y-107194973D01*
X156800431Y-107190869D01*
X156791451Y-107188029D01*
X156791449Y-107188028D01*
X156771283Y-107181650D01*
X156744481Y-107173174D01*
X156740750Y-107171929D01*
X156694263Y-107155604D01*
X156694261Y-107155604D01*
X156685369Y-107152481D01*
X156678181Y-107152199D01*
X156678122Y-107152188D01*
X156671270Y-107150020D01*
X156664663Y-107149500D01*
X156611984Y-107149500D01*
X156607037Y-107149403D01*
X156550006Y-107147162D01*
X156542900Y-107149046D01*
X156534653Y-107149500D01*
X150238793Y-107149500D01*
X150170672Y-107129498D01*
X150149698Y-107112595D01*
X142794690Y-99757587D01*
X142760664Y-99695275D01*
X142759042Y-99650739D01*
X142772400Y-99556878D01*
X142772981Y-99552796D01*
X142773130Y-99538546D01*
X142753488Y-99376233D01*
X142695696Y-99223291D01*
X142603090Y-99088549D01*
X142481017Y-98979786D01*
X142474307Y-98976233D01*
X142343235Y-98906834D01*
X142343233Y-98906833D01*
X142336524Y-98903281D01*
X142285454Y-98890453D01*
X142185324Y-98865302D01*
X142185320Y-98865302D01*
X142177953Y-98863451D01*
X142170354Y-98863411D01*
X142170352Y-98863411D01*
X142102322Y-98863055D01*
X142014459Y-98862595D01*
X142007079Y-98864367D01*
X142007077Y-98864367D01*
X141862858Y-98898990D01*
X141862854Y-98898991D01*
X141855479Y-98900762D01*
X141710193Y-98975750D01*
X141704471Y-98980742D01*
X141704469Y-98980743D01*
X141592713Y-99078234D01*
X141592710Y-99078237D01*
X141586988Y-99083229D01*
X141492976Y-99216994D01*
X141490216Y-99224074D01*
X141434984Y-99365736D01*
X141391603Y-99421937D01*
X141324724Y-99445764D01*
X141255580Y-99429651D01*
X141228496Y-99409061D01*
X140193830Y-98374395D01*
X140159804Y-98312083D01*
X140164869Y-98241268D01*
X140193830Y-98196205D01*
X144272709Y-94117326D01*
X144318531Y-94088245D01*
X144324698Y-94086833D01*
X144331481Y-94083421D01*
X144331485Y-94083420D01*
X144397024Y-94050456D01*
X144470761Y-94013370D01*
X144552227Y-93943792D01*
X144589306Y-93912124D01*
X144589307Y-93912123D01*
X144595085Y-93907188D01*
X144630590Y-93857779D01*
X144686061Y-93780583D01*
X144686062Y-93780582D01*
X144690493Y-93774415D01*
X144751475Y-93622716D01*
X144774512Y-93460850D01*
X144774661Y-93446600D01*
X144755019Y-93284287D01*
X144697227Y-93131345D01*
X144604621Y-92996603D01*
X144482548Y-92887840D01*
X144475838Y-92884287D01*
X144344766Y-92814888D01*
X144344764Y-92814887D01*
X144338055Y-92811335D01*
X144286985Y-92798507D01*
X144186855Y-92773356D01*
X144186851Y-92773356D01*
X144179484Y-92771505D01*
X144171885Y-92771465D01*
X144171883Y-92771465D01*
X144103853Y-92771109D01*
X144015990Y-92770649D01*
X144008610Y-92772421D01*
X144008608Y-92772421D01*
X143864389Y-92807044D01*
X143864385Y-92807045D01*
X143857010Y-92808816D01*
X143711724Y-92883804D01*
X143706002Y-92888796D01*
X143706000Y-92888797D01*
X143594244Y-92986288D01*
X143594241Y-92986291D01*
X143588519Y-92991283D01*
X143494507Y-93125048D01*
X143491746Y-93132130D01*
X143458094Y-93218443D01*
X143429796Y-93261769D01*
X139344595Y-97346970D01*
X139282283Y-97380996D01*
X139211468Y-97375931D01*
X139166405Y-97346970D01*
X133503497Y-91684062D01*
X133492629Y-91671671D01*
X133478505Y-91653264D01*
X133473482Y-91646718D01*
X133446348Y-91625897D01*
X133354592Y-91555491D01*
X133348041Y-91550464D01*
X133201962Y-91489956D01*
X133084561Y-91474500D01*
X133045200Y-91469318D01*
X133037012Y-91470396D01*
X133014027Y-91473422D01*
X132997581Y-91474500D01*
X129245814Y-91474500D01*
X129186855Y-91459854D01*
X129155572Y-91443291D01*
X129155569Y-91443290D01*
X129148855Y-91439735D01*
X129097785Y-91426907D01*
X128997655Y-91401756D01*
X128997651Y-91401756D01*
X128990284Y-91399905D01*
X128982685Y-91399865D01*
X128982683Y-91399865D01*
X128914653Y-91399509D01*
X128826790Y-91399049D01*
X128819410Y-91400821D01*
X128819408Y-91400821D01*
X128675189Y-91435444D01*
X128675185Y-91435445D01*
X128667810Y-91437216D01*
X128595655Y-91474458D01*
X128565629Y-91489956D01*
X128522524Y-91512204D01*
X128516802Y-91517196D01*
X128516800Y-91517197D01*
X128405044Y-91614688D01*
X128405041Y-91614691D01*
X128399319Y-91619683D01*
X128305307Y-91753448D01*
X128245917Y-91905776D01*
X128244926Y-91913303D01*
X128240130Y-91949735D01*
X128224576Y-92067874D01*
X117425827Y-92067874D01*
X117480957Y-91981003D01*
X117480959Y-91981000D01*
X117482610Y-91978398D01*
X117495667Y-91952551D01*
X117581476Y-91782675D01*
X117659046Y-91629112D01*
X117800557Y-91264277D01*
X117905790Y-90887374D01*
X117973742Y-90502000D01*
X117986580Y-90335157D01*
X118003613Y-90113789D01*
X118003613Y-90113778D01*
X118003763Y-90111835D01*
X118005325Y-90000000D01*
X118004296Y-89978947D01*
X117986359Y-89612222D01*
X117986209Y-89609149D01*
X117929044Y-89222028D01*
X117834376Y-88842334D01*
X117703107Y-88473689D01*
X117536492Y-88119614D01*
X117507167Y-88070420D01*
X117337700Y-87786138D01*
X117336120Y-87783487D01*
X117103905Y-87468517D01*
X116842061Y-87177711D01*
X116553090Y-86913844D01*
X116239749Y-86679435D01*
X116186075Y-86646929D01*
X115907658Y-86478313D01*
X115907649Y-86478308D01*
X115905030Y-86476722D01*
X115552126Y-86307638D01*
X115549237Y-86306586D01*
X115549231Y-86306584D01*
X115187306Y-86174855D01*
X115187303Y-86174854D01*
X115184407Y-86173800D01*
X114907326Y-86102658D01*
X114808366Y-86077249D01*
X114808363Y-86077248D01*
X114805382Y-86076483D01*
X114418670Y-86016617D01*
X114415613Y-86016446D01*
X114415612Y-86016446D01*
X114385120Y-86014741D01*
X114027962Y-85994773D01*
X114024883Y-85994902D01*
X114024880Y-85994902D01*
X113768770Y-86005636D01*
X113636987Y-86011159D01*
X113633943Y-86011587D01*
X113633941Y-86011587D01*
X113599368Y-86016446D01*
X113249477Y-86065620D01*
X112869131Y-86157636D01*
X112499579Y-86286327D01*
X112496781Y-86287620D01*
X112147146Y-86449174D01*
X112147136Y-86449179D01*
X112144349Y-86450467D01*
X112035829Y-86514135D01*
X111809486Y-86646929D01*
X111809481Y-86646932D01*
X111806831Y-86648487D01*
X111766433Y-86677838D01*
X111492730Y-86876694D01*
X111492721Y-86876701D01*
X111490248Y-86878498D01*
X111487958Y-86880531D01*
X111487952Y-86880536D01*
X111199924Y-87136260D01*
X111197621Y-87138305D01*
X110931743Y-87425427D01*
X110695152Y-87737124D01*
X110490107Y-88070420D01*
X110318564Y-88422135D01*
X110182162Y-88788910D01*
X110082201Y-89167246D01*
X110019637Y-89553531D01*
X110019443Y-89556611D01*
X110019443Y-89556613D01*
X109995281Y-89940651D01*
X109995065Y-89944077D01*
X105034500Y-89944077D01*
X105034500Y-71036930D01*
X147995322Y-71036930D01*
X148024473Y-71203954D01*
X148092621Y-71359202D01*
X148172022Y-71462678D01*
X148174943Y-71465599D01*
X154278795Y-77569452D01*
X154312821Y-77631764D01*
X154315700Y-77658547D01*
X154315700Y-83299853D01*
X154295698Y-83367974D01*
X154278795Y-83388948D01*
X153180977Y-84486766D01*
X153180510Y-84487232D01*
X153116990Y-84550090D01*
X153113023Y-84556564D01*
X153113021Y-84556566D01*
X153097595Y-84581739D01*
X153089318Y-84593648D01*
X153071104Y-84616877D01*
X153071101Y-84616881D01*
X153066416Y-84622857D01*
X153052924Y-84652738D01*
X153045529Y-84666705D01*
X153028402Y-84694654D01*
X153017118Y-84730013D01*
X153011919Y-84743556D01*
X152996645Y-84777384D01*
X152995261Y-84784851D01*
X152990673Y-84809605D01*
X152986818Y-84824952D01*
X152976854Y-84856175D01*
X152976337Y-84863755D01*
X152976337Y-84863756D01*
X152974329Y-84893210D01*
X152972511Y-84907599D01*
X152965748Y-84944092D01*
X152966185Y-84951674D01*
X152967634Y-84976809D01*
X152967551Y-84992629D01*
X152966014Y-85015183D01*
X152965322Y-85025330D01*
X152966627Y-85032806D01*
X152966627Y-85032811D01*
X152971703Y-85061895D01*
X152973370Y-85076303D01*
X152975507Y-85113359D01*
X152985148Y-85144698D01*
X152988838Y-85160068D01*
X152994473Y-85192354D01*
X153009393Y-85226343D01*
X153014445Y-85239929D01*
X153025361Y-85275411D01*
X153029260Y-85281926D01*
X153042192Y-85303534D01*
X153049445Y-85317586D01*
X153062621Y-85347602D01*
X153067241Y-85353623D01*
X153067243Y-85353626D01*
X153085219Y-85377052D01*
X153093370Y-85389046D01*
X153112431Y-85420895D01*
X153117773Y-85426293D01*
X153117775Y-85426296D01*
X153130060Y-85438710D01*
X153140364Y-85449123D01*
X153141256Y-85450080D01*
X153142022Y-85451078D01*
X153168271Y-85477327D01*
X153168737Y-85477794D01*
X153231690Y-85541410D01*
X153233007Y-85542217D01*
X153234420Y-85543476D01*
X154463671Y-86772727D01*
X154464137Y-86773194D01*
X154527090Y-86836810D01*
X154533569Y-86840780D01*
X154558739Y-86856204D01*
X154570652Y-86864484D01*
X154593878Y-86882696D01*
X154593884Y-86882700D01*
X154599857Y-86887383D01*
X154629726Y-86900869D01*
X154643701Y-86908268D01*
X154671654Y-86925398D01*
X154707023Y-86936686D01*
X154720553Y-86941880D01*
X154747462Y-86954030D01*
X154747465Y-86954031D01*
X154754384Y-86957155D01*
X154773144Y-86960632D01*
X154786605Y-86963127D01*
X154801953Y-86966982D01*
X154825936Y-86974636D01*
X154825937Y-86974636D01*
X154833175Y-86976946D01*
X154840755Y-86977463D01*
X154840756Y-86977463D01*
X154870210Y-86979471D01*
X154884599Y-86981289D01*
X154913622Y-86986668D01*
X154913626Y-86986668D01*
X154921092Y-86988052D01*
X154928674Y-86987615D01*
X154939066Y-86987016D01*
X154953810Y-86986166D01*
X154969629Y-86986249D01*
X154994753Y-86987962D01*
X154994757Y-86987962D01*
X155002330Y-86988478D01*
X155009806Y-86987173D01*
X155009811Y-86987173D01*
X155038895Y-86982097D01*
X155053303Y-86980430D01*
X155082771Y-86978731D01*
X155082775Y-86978730D01*
X155090359Y-86978293D01*
X155121698Y-86968652D01*
X155137069Y-86964962D01*
X155169354Y-86959327D01*
X155203343Y-86944407D01*
X155216929Y-86939355D01*
X155245153Y-86930672D01*
X155245154Y-86930672D01*
X155252411Y-86928439D01*
X155280535Y-86911608D01*
X155294586Y-86904355D01*
X155324602Y-86891179D01*
X155330623Y-86886559D01*
X155330626Y-86886557D01*
X155354052Y-86868581D01*
X155366049Y-86860428D01*
X155397895Y-86841369D01*
X155403293Y-86836027D01*
X155403296Y-86836025D01*
X155415710Y-86823740D01*
X155426123Y-86813436D01*
X155427080Y-86812544D01*
X155428078Y-86811778D01*
X155454327Y-86785529D01*
X155454794Y-86785063D01*
X155515313Y-86725175D01*
X155515315Y-86725173D01*
X155518410Y-86722110D01*
X155519217Y-86720793D01*
X155520476Y-86719380D01*
X156615651Y-85624205D01*
X156677963Y-85590179D01*
X156704746Y-85587300D01*
X163894054Y-85587300D01*
X163962175Y-85607302D01*
X163983149Y-85624205D01*
X168248795Y-89889852D01*
X168282821Y-89952164D01*
X168285700Y-89978947D01*
X168285700Y-91097653D01*
X168265698Y-91165774D01*
X168248795Y-91186748D01*
X168181333Y-91254210D01*
X168168942Y-91265077D01*
X168119700Y-91302862D01*
X168114381Y-91306727D01*
X168062349Y-91342488D01*
X168057292Y-91348164D01*
X168021400Y-91388448D01*
X168016419Y-91393724D01*
X158377008Y-101033135D01*
X158374666Y-101036122D01*
X158374665Y-101036123D01*
X158307970Y-101121183D01*
X158298816Y-101132857D01*
X158229045Y-101287384D01*
X158198148Y-101454092D01*
X158198585Y-101461672D01*
X158198585Y-101461673D01*
X158198715Y-101463933D01*
X158207907Y-101623359D01*
X158257761Y-101785411D01*
X158344831Y-101930895D01*
X158350168Y-101936288D01*
X158350171Y-101936292D01*
X158405610Y-101992314D01*
X158464090Y-102051410D01*
X158608654Y-102139998D01*
X158694921Y-102167529D01*
X158762936Y-102189236D01*
X158762938Y-102189236D01*
X158770175Y-102191546D01*
X158777755Y-102192063D01*
X158777756Y-102192063D01*
X158931754Y-102202562D01*
X158931758Y-102202562D01*
X158939330Y-102203078D01*
X158946807Y-102201773D01*
X158946808Y-102201773D01*
X159098877Y-102175232D01*
X159106354Y-102173927D01*
X159113303Y-102170876D01*
X159113305Y-102170876D01*
X159254649Y-102108831D01*
X159254648Y-102108831D01*
X159261602Y-102105779D01*
X159327283Y-102055380D01*
X159361807Y-102028888D01*
X159365078Y-102026378D01*
X168902066Y-92489390D01*
X168914457Y-92478523D01*
X168963673Y-92440758D01*
X168969009Y-92436881D01*
X169014786Y-92405419D01*
X169014792Y-92405414D01*
X169021051Y-92401112D01*
X169062009Y-92355142D01*
X169066989Y-92349867D01*
X169461267Y-91955589D01*
X169467533Y-91949735D01*
X169504871Y-91917163D01*
X169510596Y-91912169D01*
X169514961Y-91905958D01*
X169514964Y-91905955D01*
X169546905Y-91860507D01*
X169550838Y-91855212D01*
X169585096Y-91811521D01*
X169585097Y-91811519D01*
X169589783Y-91805543D01*
X169592908Y-91798621D01*
X169594681Y-91795694D01*
X169602106Y-91782675D01*
X169603717Y-91779671D01*
X169608087Y-91773453D01*
X169631020Y-91714633D01*
X169633575Y-91708555D01*
X169656428Y-91657943D01*
X169656429Y-91657941D01*
X169659555Y-91651017D01*
X169660940Y-91643545D01*
X169661967Y-91640267D01*
X169666063Y-91625886D01*
X169666915Y-91622570D01*
X169669676Y-91615487D01*
X169677917Y-91552889D01*
X169678948Y-91546377D01*
X169688820Y-91493116D01*
X169690452Y-91484308D01*
X169689887Y-91474500D01*
X169686909Y-91422862D01*
X169686700Y-91415609D01*
X169686700Y-90029746D01*
X169706702Y-89961625D01*
X169720844Y-89944077D01*
X181995065Y-89944077D01*
X182008722Y-90335157D01*
X182060477Y-90723038D01*
X182149834Y-91104017D01*
X182150823Y-91106923D01*
X182150825Y-91106929D01*
X182274950Y-91471543D01*
X182274955Y-91471555D01*
X182275943Y-91474458D01*
X182437598Y-91830826D01*
X182633258Y-92169717D01*
X182635047Y-92172216D01*
X182635049Y-92172219D01*
X182855553Y-92480216D01*
X182861053Y-92487899D01*
X182863080Y-92490214D01*
X182863082Y-92490217D01*
X183092022Y-92751733D01*
X183118810Y-92782333D01*
X183404069Y-93050208D01*
X183714107Y-93288969D01*
X183716710Y-93290596D01*
X183716715Y-93290599D01*
X183835687Y-93364941D01*
X184045964Y-93496337D01*
X184396472Y-93670331D01*
X184762287Y-93809290D01*
X185139915Y-93911890D01*
X185142958Y-93912405D01*
X185142964Y-93912406D01*
X185522713Y-93976636D01*
X185522720Y-93976637D01*
X185525754Y-93977150D01*
X185528825Y-93977365D01*
X185528827Y-93977365D01*
X185913053Y-94004233D01*
X185913061Y-94004233D01*
X185916119Y-94004447D01*
X186169704Y-93997363D01*
X186304211Y-93993606D01*
X186304214Y-93993606D01*
X186307285Y-93993520D01*
X186310338Y-93993134D01*
X186310342Y-93993134D01*
X186496145Y-93969662D01*
X186695517Y-93944475D01*
X186698521Y-93943793D01*
X186698524Y-93943792D01*
X187074115Y-93858460D01*
X187074121Y-93858458D01*
X187077111Y-93857779D01*
X187222875Y-93809290D01*
X187445500Y-93735233D01*
X187445506Y-93735231D01*
X187448424Y-93734260D01*
X187589551Y-93671426D01*
X187803111Y-93576343D01*
X187803117Y-93576340D01*
X187805911Y-93575096D01*
X187808580Y-93573580D01*
X188143492Y-93383324D01*
X188143498Y-93383320D01*
X188146160Y-93381808D01*
X188465924Y-93156239D01*
X188762150Y-92900544D01*
X188764271Y-92898317D01*
X188764277Y-92898311D01*
X189029894Y-92619385D01*
X189032011Y-92617162D01*
X189131192Y-92490217D01*
X189271021Y-92311244D01*
X189271023Y-92311241D01*
X189272931Y-92308799D01*
X189274587Y-92306189D01*
X189274593Y-92306181D01*
X189480957Y-91981003D01*
X189480959Y-91981000D01*
X189482610Y-91978398D01*
X189495667Y-91952551D01*
X189581476Y-91782675D01*
X189659046Y-91629112D01*
X189800557Y-91264277D01*
X189905790Y-90887374D01*
X189973742Y-90502000D01*
X189986580Y-90335157D01*
X190003613Y-90113789D01*
X190003613Y-90113778D01*
X190003763Y-90111835D01*
X190005325Y-90000000D01*
X190004296Y-89978947D01*
X189986359Y-89612222D01*
X189986209Y-89609149D01*
X189929044Y-89222028D01*
X189834376Y-88842334D01*
X189703107Y-88473689D01*
X189536492Y-88119614D01*
X189507167Y-88070420D01*
X189337700Y-87786138D01*
X189336120Y-87783487D01*
X189103905Y-87468517D01*
X188842061Y-87177711D01*
X188553090Y-86913844D01*
X188239749Y-86679435D01*
X188186075Y-86646929D01*
X187907658Y-86478313D01*
X187907649Y-86478308D01*
X187905030Y-86476722D01*
X187872057Y-86460924D01*
X187819266Y-86413451D01*
X187800500Y-86347293D01*
X187800500Y-70848856D01*
X187798768Y-70825541D01*
X187786064Y-70654588D01*
X187786063Y-70654584D01*
X187785717Y-70649923D01*
X187775161Y-70603270D01*
X187727686Y-70393466D01*
X187726655Y-70388909D01*
X187629662Y-70139491D01*
X187496868Y-69907150D01*
X187331190Y-69696989D01*
X187136269Y-69513625D01*
X186916385Y-69361086D01*
X186912194Y-69359019D01*
X186680559Y-69244789D01*
X186680556Y-69244788D01*
X186676371Y-69242724D01*
X186421497Y-69161138D01*
X186276134Y-69137465D01*
X186161976Y-69118873D01*
X186161975Y-69118873D01*
X186157364Y-69118122D01*
X186023569Y-69116371D01*
X185894451Y-69114680D01*
X185894448Y-69114680D01*
X185889774Y-69114619D01*
X185624605Y-69150707D01*
X185620118Y-69152015D01*
X185620117Y-69152015D01*
X185588817Y-69161138D01*
X185367683Y-69225592D01*
X185363430Y-69227552D01*
X185363429Y-69227553D01*
X185311512Y-69251487D01*
X185124652Y-69337631D01*
X185120743Y-69340194D01*
X184904764Y-69481796D01*
X184904759Y-69481800D01*
X184900851Y-69484362D01*
X184701197Y-69662560D01*
X184530075Y-69868312D01*
X184391244Y-70097098D01*
X184287755Y-70343891D01*
X184286604Y-70348423D01*
X184286603Y-70348426D01*
X184223033Y-70598733D01*
X184221881Y-70603270D01*
X184199500Y-70825541D01*
X184199500Y-86345949D01*
X184179498Y-86414070D01*
X184137260Y-86454626D01*
X183809486Y-86646929D01*
X183809481Y-86646932D01*
X183806831Y-86648487D01*
X183766433Y-86677838D01*
X183492730Y-86876694D01*
X183492721Y-86876701D01*
X183490248Y-86878498D01*
X183487958Y-86880531D01*
X183487952Y-86880536D01*
X183199924Y-87136260D01*
X183197621Y-87138305D01*
X182931743Y-87425427D01*
X182695152Y-87737124D01*
X182490107Y-88070420D01*
X182318564Y-88422135D01*
X182182162Y-88788910D01*
X182082201Y-89167246D01*
X182019637Y-89553531D01*
X182019443Y-89556611D01*
X182019443Y-89556613D01*
X181995281Y-89940651D01*
X181995065Y-89944077D01*
X169720844Y-89944077D01*
X169723605Y-89940651D01*
X176598675Y-83065582D01*
X176604941Y-83059728D01*
X176642269Y-83027165D01*
X176647996Y-83022169D01*
X176684290Y-82970527D01*
X176688216Y-82965242D01*
X176722495Y-82921524D01*
X176722497Y-82921520D01*
X176727184Y-82915543D01*
X176730310Y-82908620D01*
X176732095Y-82905672D01*
X176739487Y-82892712D01*
X176741120Y-82889666D01*
X176745487Y-82883453D01*
X176768420Y-82824633D01*
X176770976Y-82818554D01*
X176793828Y-82767941D01*
X176796955Y-82761016D01*
X176798340Y-82753545D01*
X176799364Y-82750277D01*
X176803477Y-82735836D01*
X176804317Y-82732563D01*
X176807076Y-82725487D01*
X176815316Y-82662894D01*
X176816348Y-82656377D01*
X176826468Y-82601775D01*
X176827852Y-82594308D01*
X176824309Y-82532856D01*
X176824100Y-82525604D01*
X176824100Y-82456684D01*
X176808876Y-82330880D01*
X176748945Y-82172277D01*
X176652912Y-82032549D01*
X176641114Y-82022037D01*
X176531992Y-81924812D01*
X176531988Y-81924810D01*
X176526321Y-81919760D01*
X176376481Y-81840424D01*
X176212041Y-81799119D01*
X176204443Y-81799079D01*
X176204441Y-81799079D01*
X176127268Y-81798675D01*
X176042495Y-81798231D01*
X176035108Y-81800005D01*
X176035104Y-81800005D01*
X175891762Y-81834420D01*
X175877632Y-81837812D01*
X175870888Y-81841293D01*
X175870885Y-81841294D01*
X175865689Y-81843976D01*
X175726969Y-81915575D01*
X175599204Y-82027031D01*
X175501713Y-82165747D01*
X175498953Y-82172827D01*
X175495365Y-82179518D01*
X175493550Y-82178545D01*
X175473123Y-82209821D01*
X169100695Y-88582248D01*
X169038383Y-88616274D01*
X168967568Y-88611209D01*
X168922505Y-88582248D01*
X164751982Y-84411725D01*
X164746128Y-84405459D01*
X164713565Y-84368131D01*
X164708569Y-84362404D01*
X164656927Y-84326110D01*
X164651642Y-84322184D01*
X164607924Y-84287905D01*
X164607920Y-84287903D01*
X164601943Y-84283216D01*
X164595020Y-84280090D01*
X164592072Y-84278305D01*
X164579112Y-84270913D01*
X164576066Y-84269280D01*
X164569853Y-84264913D01*
X164511033Y-84241980D01*
X164504954Y-84239424D01*
X164498801Y-84236646D01*
X164447416Y-84213445D01*
X164439945Y-84212060D01*
X164436677Y-84211036D01*
X164422236Y-84206923D01*
X164418963Y-84206083D01*
X164411887Y-84203324D01*
X164367217Y-84197444D01*
X164349294Y-84195084D01*
X164342777Y-84194052D01*
X164288175Y-84183932D01*
X164280708Y-84182548D01*
X164273128Y-84182985D01*
X164273127Y-84182985D01*
X164219256Y-84186091D01*
X164212004Y-84186300D01*
X156391037Y-84186300D01*
X156382466Y-84186008D01*
X156325470Y-84182122D01*
X156317994Y-84183427D01*
X156317990Y-84183427D01*
X156263268Y-84192978D01*
X156256742Y-84193941D01*
X156216304Y-84198835D01*
X156194080Y-84201524D01*
X156186973Y-84204209D01*
X156183680Y-84205018D01*
X156169209Y-84208977D01*
X156165933Y-84209966D01*
X156158446Y-84211273D01*
X156151488Y-84214328D01*
X156151486Y-84214328D01*
X156100642Y-84236646D01*
X156094537Y-84239138D01*
X156090184Y-84240783D01*
X156035477Y-84261455D01*
X156029224Y-84265753D01*
X156026193Y-84267337D01*
X156013116Y-84274617D01*
X156010157Y-84276367D01*
X156003197Y-84279422D01*
X155997170Y-84284047D01*
X155997166Y-84284049D01*
X155953100Y-84317862D01*
X155947781Y-84321727D01*
X155895749Y-84357488D01*
X155854800Y-84403448D01*
X155849819Y-84408724D01*
X155054495Y-85204048D01*
X154992183Y-85238074D01*
X154921368Y-85233009D01*
X154876305Y-85204048D01*
X154749752Y-85077495D01*
X154715726Y-85015183D01*
X154720791Y-84944368D01*
X154749752Y-84899305D01*
X155491274Y-84157783D01*
X155497540Y-84151929D01*
X155534871Y-84119363D01*
X155540596Y-84114369D01*
X155544961Y-84108158D01*
X155544964Y-84108155D01*
X155576905Y-84062707D01*
X155580838Y-84057412D01*
X155615093Y-84013724D01*
X155619783Y-84007743D01*
X155622911Y-84000816D01*
X155624686Y-83997885D01*
X155632103Y-83984882D01*
X155633719Y-83981868D01*
X155638087Y-83975653D01*
X155640846Y-83968577D01*
X155640848Y-83968573D01*
X155661019Y-83916836D01*
X155663575Y-83910755D01*
X155686431Y-83860135D01*
X155686431Y-83860134D01*
X155689555Y-83853216D01*
X155690939Y-83845750D01*
X155691957Y-83842501D01*
X155696077Y-83828036D01*
X155696917Y-83824763D01*
X155699676Y-83817687D01*
X155707916Y-83755094D01*
X155708948Y-83748577D01*
X155719068Y-83693975D01*
X155720452Y-83686508D01*
X155716909Y-83625061D01*
X155716700Y-83617809D01*
X155716700Y-77344841D01*
X155716992Y-77336271D01*
X155717051Y-77335411D01*
X155720878Y-77279270D01*
X155710023Y-77217070D01*
X155709060Y-77210546D01*
X155702389Y-77155421D01*
X155702388Y-77155418D01*
X155701476Y-77147880D01*
X155698792Y-77140778D01*
X155697973Y-77137442D01*
X155694017Y-77122985D01*
X155693034Y-77119728D01*
X155691728Y-77112247D01*
X155688676Y-77105294D01*
X155666351Y-77054433D01*
X155663860Y-77048328D01*
X155644233Y-76996389D01*
X155644231Y-76996385D01*
X155641545Y-76989277D01*
X155637240Y-76983013D01*
X155635651Y-76979974D01*
X155628376Y-76966901D01*
X155626631Y-76963950D01*
X155623579Y-76956998D01*
X155585158Y-76906927D01*
X155581281Y-76901591D01*
X155549819Y-76855814D01*
X155549814Y-76855808D01*
X155545512Y-76849549D01*
X155499542Y-76808591D01*
X155494267Y-76803611D01*
X149784751Y-71094095D01*
X149750725Y-71031783D01*
X149755790Y-70960968D01*
X149784751Y-70915905D01*
X158917105Y-61783552D01*
X158919792Y-61780865D01*
X158997984Y-61681143D01*
X159067755Y-61526616D01*
X159098652Y-61359908D01*
X159088893Y-61190641D01*
X159039039Y-61028589D01*
X158951969Y-60883105D01*
X158946632Y-60877712D01*
X158946629Y-60877708D01*
X158891190Y-60821686D01*
X158832710Y-60762590D01*
X158688146Y-60674002D01*
X158591386Y-60643122D01*
X158533864Y-60624764D01*
X158533862Y-60624764D01*
X158526625Y-60622454D01*
X158519045Y-60621937D01*
X158519044Y-60621937D01*
X158365046Y-60611438D01*
X158365042Y-60611438D01*
X158357470Y-60610922D01*
X158349993Y-60612227D01*
X158349991Y-60612227D01*
X158197923Y-60638767D01*
X158190446Y-60640072D01*
X158183500Y-60643121D01*
X158183497Y-60643122D01*
X158126866Y-60667982D01*
X158035198Y-60708221D01*
X158029174Y-60712843D01*
X158029173Y-60712844D01*
X157934993Y-60785112D01*
X157931722Y-60787622D01*
X157928801Y-60790543D01*
X148301954Y-70417389D01*
X148277567Y-70436409D01*
X148267505Y-70442431D01*
X148262112Y-70447768D01*
X148262108Y-70447771D01*
X148206086Y-70503210D01*
X148146990Y-70561690D01*
X148058402Y-70706254D01*
X148056093Y-70713490D01*
X148020333Y-70825541D01*
X148006854Y-70867775D01*
X148006337Y-70875355D01*
X148006337Y-70875356D01*
X147997499Y-71005000D01*
X147995322Y-71036930D01*
X105034500Y-71036930D01*
X105034500Y-53944077D01*
X145995065Y-53944077D01*
X146008722Y-54335157D01*
X146060477Y-54723038D01*
X146149834Y-55104017D01*
X146150823Y-55106923D01*
X146150825Y-55106929D01*
X146274950Y-55471543D01*
X146274955Y-55471555D01*
X146275943Y-55474458D01*
X146437598Y-55830826D01*
X146633258Y-56169717D01*
X146635047Y-56172216D01*
X146635049Y-56172219D01*
X146732831Y-56308799D01*
X146861053Y-56487899D01*
X147118810Y-56782333D01*
X147404069Y-57050208D01*
X147714107Y-57288969D01*
X147716710Y-57290596D01*
X147716715Y-57290599D01*
X147835687Y-57364941D01*
X148045964Y-57496337D01*
X148396472Y-57670331D01*
X148762287Y-57809290D01*
X149139915Y-57911890D01*
X149142958Y-57912405D01*
X149142964Y-57912406D01*
X149522713Y-57976636D01*
X149522720Y-57976637D01*
X149525754Y-57977150D01*
X149528825Y-57977365D01*
X149528827Y-57977365D01*
X149913053Y-58004233D01*
X149913061Y-58004233D01*
X149916119Y-58004447D01*
X150169704Y-57997363D01*
X150304211Y-57993606D01*
X150304214Y-57993606D01*
X150307285Y-57993520D01*
X150310338Y-57993134D01*
X150310342Y-57993134D01*
X150496145Y-57969662D01*
X150695517Y-57944475D01*
X150698521Y-57943793D01*
X150698524Y-57943792D01*
X151074115Y-57858460D01*
X151074121Y-57858458D01*
X151077111Y-57857779D01*
X151222875Y-57809290D01*
X151445500Y-57735233D01*
X151445506Y-57735231D01*
X151448424Y-57734260D01*
X151589551Y-57671426D01*
X151803111Y-57576343D01*
X151803117Y-57576340D01*
X151805911Y-57575096D01*
X151808580Y-57573580D01*
X152143492Y-57383324D01*
X152143498Y-57383320D01*
X152146160Y-57381808D01*
X152465924Y-57156239D01*
X152762150Y-56900544D01*
X152764271Y-56898317D01*
X152764277Y-56898311D01*
X153029894Y-56619385D01*
X153032011Y-56617162D01*
X153131192Y-56490217D01*
X153271021Y-56311244D01*
X153271023Y-56311241D01*
X153272931Y-56308799D01*
X153274587Y-56306189D01*
X153274593Y-56306181D01*
X153480957Y-55981003D01*
X153480959Y-55981000D01*
X153482610Y-55978398D01*
X153659046Y-55629112D01*
X153800557Y-55264277D01*
X153905790Y-54887374D01*
X153973742Y-54502000D01*
X153986580Y-54335157D01*
X154003613Y-54113789D01*
X154003613Y-54113778D01*
X154003763Y-54111835D01*
X154005325Y-54000000D01*
X153986209Y-53609149D01*
X153929044Y-53222028D01*
X153834376Y-52842334D01*
X153703107Y-52473689D01*
X153536492Y-52119614D01*
X153507167Y-52070420D01*
X153337700Y-51786138D01*
X153336120Y-51783487D01*
X153103905Y-51468517D01*
X152842061Y-51177711D01*
X152553090Y-50913844D01*
X152239749Y-50679435D01*
X152186075Y-50646929D01*
X151907658Y-50478313D01*
X151907649Y-50478308D01*
X151905030Y-50476722D01*
X151552126Y-50307638D01*
X151549237Y-50306586D01*
X151549231Y-50306584D01*
X151187306Y-50174855D01*
X151187303Y-50174854D01*
X151184407Y-50173800D01*
X150907326Y-50102658D01*
X150808366Y-50077249D01*
X150808363Y-50077248D01*
X150805382Y-50076483D01*
X150418670Y-50016617D01*
X150415613Y-50016446D01*
X150415612Y-50016446D01*
X150385120Y-50014741D01*
X150027962Y-49994773D01*
X150024883Y-49994902D01*
X150024880Y-49994902D01*
X149768770Y-50005636D01*
X149636987Y-50011159D01*
X149633943Y-50011587D01*
X149633941Y-50011587D01*
X149599368Y-50016446D01*
X149249477Y-50065620D01*
X148869131Y-50157636D01*
X148499579Y-50286327D01*
X148496781Y-50287620D01*
X148147146Y-50449174D01*
X148147136Y-50449179D01*
X148144349Y-50450467D01*
X148035829Y-50514135D01*
X147809486Y-50646929D01*
X147809481Y-50646932D01*
X147806831Y-50648487D01*
X147766433Y-50677838D01*
X147492730Y-50876694D01*
X147492721Y-50876701D01*
X147490248Y-50878498D01*
X147487958Y-50880531D01*
X147487952Y-50880536D01*
X147199924Y-51136260D01*
X147197621Y-51138305D01*
X146931743Y-51425427D01*
X146695152Y-51737124D01*
X146490107Y-52070420D01*
X146318564Y-52422135D01*
X146182162Y-52788910D01*
X146082201Y-53167246D01*
X146019637Y-53553531D01*
X145995065Y-53944077D01*
X105034500Y-53944077D01*
X105034500Y-45160500D01*
X105054502Y-45092379D01*
X105108158Y-45045886D01*
X105160500Y-45034500D01*
X194839500Y-45034500D01*
X194907621Y-45054502D01*
G37*
%TD.AperFunction*%
%TD*%
%TA.AperFunction,Conductor*%
%TO.N,+3V3*%
G36*
X154701931Y-109748002D02*
G01*
X154722905Y-109764905D01*
X157570095Y-112612095D01*
X157604121Y-112674407D01*
X157607000Y-112701190D01*
X157607000Y-114374810D01*
X157586998Y-114442931D01*
X157570095Y-114463905D01*
X152362095Y-119671905D01*
X152299783Y-119705931D01*
X152228968Y-119700866D01*
X152183905Y-119671905D01*
X147789053Y-115277053D01*
X147755027Y-115214741D01*
X147760092Y-115143926D01*
X147788011Y-115099917D01*
X148429719Y-114442931D01*
X152997923Y-109765959D01*
X153059831Y-109731203D01*
X153088061Y-109728000D01*
X154633810Y-109728000D01*
X154701931Y-109748002D01*
G37*
%TD.AperFunction*%
%TD*%
M02*
