M48
; DRILL file {KiCad 6.0.4-6f826c9f35~116~ubuntu20.04.1} date Sun Aug  7 14:02:13 2022
; FORMAT={-:-/ absolute / metric / decimal}
; #@! TF.CreationDate,2022-08-07T14:02:13+00:00
; #@! TF.GenerationSoftware,Kicad,Pcbnew,6.0.4-6f826c9f35~116~ubuntu20.04.1
; #@! TF.FileFunction,Plated,1,2,PTH
FMAT,2
METRIC
; #@! TA.AperFunction,Plated,PTH,ComponentDrill
T1C0.300
; #@! TA.AperFunction,Plated,PTH,ViaDrill
T2C0.400
; #@! TA.AperFunction,Plated,PTH,ComponentDrill
T3C0.400
; #@! TA.AperFunction,Plated,PTH,ViaDrill
T4C0.500
; #@! TA.AperFunction,Plated,PTH,ComponentDrill
T5C0.500
; #@! TA.AperFunction,Plated,PTH,ComponentDrill
T6C0.889
; #@! TA.AperFunction,Plated,PTH,ComponentDrill
T7C1.400
; #@! TA.AperFunction,Plated,PTH,ComponentDrill
T8C3.000
%
G90
G05
T1
X123.047Y-61.595
X123.436Y-61.206
X123.436Y-61.984
X123.825Y-60.817
X123.825Y-61.595
X123.825Y-62.373
X124.214Y-61.206
X124.214Y-61.984
X124.603Y-61.595
X124.97Y-76.422
X125.359Y-76.033
X125.359Y-76.81
X125.748Y-75.644
X125.748Y-76.422
X125.748Y-77.199
X126.137Y-76.033
X126.137Y-76.81
X126.526Y-76.422
X161.846Y-116.857
X162.235Y-116.469
X162.235Y-117.246
X162.624Y-116.08
X162.624Y-116.857
X162.624Y-117.635
X163.013Y-116.469
X163.013Y-117.246
X163.402Y-116.857
T2
X71.46Y-64.385
X73.06Y-63.735
X75.52Y-67.195
X78.02Y-64.695
X79.956Y-77.164
X80.02Y-67.695
X81.27Y-64.695
X82.369Y-75.132
X83.82Y-67.945
X84.42Y-64.695
X86.052Y-75.132
X86.52Y-70.695
X87.62Y-67.945
X87.83Y-62.813
X89.12Y-73.195
X89.227Y-76.275
X89.608Y-64.337
X91.02Y-71.195
X91.259Y-66.115
X92.22Y-69.795
X92.783Y-67.385
X93.291Y-68.909
X105.5Y-99.5
X105.5Y-105.0
X105.5Y-110.0
X105.5Y-115.0
X105.5Y-120.0
X105.5Y-125.0
X105.5Y-130.0
X105.5Y-134.5
X110.0Y-105.0
X110.0Y-134.5
X110.5Y-99.5
X111.633Y-107.442
X112.19Y-54.44
X112.19Y-125.56
X112.84Y-52.84
X112.84Y-56.04
X112.84Y-123.96
X112.84Y-127.16
X113.411Y-106.553
X114.44Y-123.31
X114.44Y-127.81
X114.5Y-52.25
X115.0Y-99.5
X115.0Y-134.5
X116.04Y-52.84
X116.04Y-123.96
X116.04Y-127.16
X116.459Y-112.014
X116.69Y-54.44
X116.69Y-125.56
X117.221Y-104.267
X117.348Y-109.855
X118.364Y-111.379
X118.491Y-107.696
X119.126Y-74.549
X119.253Y-79.121
X119.253Y-83.693
X119.253Y-92.12
X119.38Y-87.836
X119.38Y-99.441
X119.507Y-97.155
X120.0Y-134.5
X120.015Y-142.193
X120.015Y-147.193
X120.65Y-71.628
X121.391Y-140.485
X121.5Y-111.7
X121.92Y-103.886
X121.979Y-81.556
X122.047Y-59.563
X122.047Y-70.739
X122.34Y-74.696
X122.428Y-64.008
X122.73Y-84.139
X122.764Y-110.115
X123.33Y-57.671
X123.403Y-68.031
X123.546Y-76.276
X123.698Y-74.676
X123.772Y-73.175
X124.028Y-108.814
X124.028Y-108.001
X124.6Y-115.4
X125.0Y-134.5
X125.095Y-106.807
X125.349Y-102.235
X125.476Y-94.234
X125.73Y-103.759
X126.111Y-50.927
X126.2Y-107.8
X126.577Y-82.889
X126.599Y-99.476
X126.619Y-60.452
X126.8Y-104.4
X126.909Y-96.061
X127.197Y-112.056
X127.254Y-70.612
X127.508Y-86.995
X127.508Y-89.154
X127.635Y-52.324
X127.737Y-106.324
X127.746Y-109.602
X127.762Y-71.755
X128.27Y-85.954
X128.3Y-118.5
X128.397Y-70.866
X128.444Y-97.83
X128.734Y-108.615
X128.905Y-92.075
X129.127Y-110.018
X129.159Y-53.721
X129.286Y-63.5
X129.3Y-89.6
X129.667Y-47.371
X129.9Y-117.12
X130.0Y-134.5
X130.025Y-110.916
X130.3Y-90.5
X130.351Y-112.207
X130.556Y-86.995
X130.568Y-57.646
X130.591Y-74.627
X130.81Y-48.768
X130.9Y-102.5
X131.064Y-118.11
X131.166Y-107.823
X131.338Y-111.219
X131.35Y-116.2
X131.572Y-47.371
X131.572Y-49.784
X131.572Y-88.138
X131.9Y-105.2
X131.925Y-116.775
X132.08Y-119.228
X132.219Y-75.055
X132.232Y-108.788
X132.334Y-88.9
X132.41Y-83.464
X132.461Y-73.279
X132.7Y-107.3
X132.766Y-84.379
X133.096Y-70.758
X133.096Y-89.662
X133.198Y-85.649
X133.35Y-77.47
X133.96Y-112.243
X134.2Y-116.8
X134.7Y-108.1
X134.747Y-127.635
X135.0Y-130.0
X135.0Y-134.5
X135.128Y-53.213
X135.128Y-76.835
X135.7Y-115.3
X136.129Y-92.155
X136.144Y-52.197
X136.144Y-96.647
X136.525Y-80.264
X137.033Y-77.978
X137.489Y-93.499
X137.5Y-109.2
X137.541Y-98.12
X137.836Y-82.964
X138.049Y-62.738
X138.176Y-61.341
X138.303Y-80.391
X138.4Y-101.8
X138.811Y-78.74
X138.836Y-59.842
X138.989Y-99.543
X138.989Y-99.543
X139.014Y-56.388
X139.1Y-95.2
X139.2Y-68.4
X139.294Y-63.449
X139.395Y-100.787
X139.4Y-96.5
X139.446Y-61.976
X139.827Y-50.8
X139.827Y-70.485
X140.0Y-134.5
X140.233Y-57.582
X140.31Y-64.211
X140.335Y-76.835
X140.5Y-101.0
X140.767Y-63.094
X141.097Y-77.597
X141.173Y-65.024
X141.173Y-66.65
X141.224Y-72.009
X141.351Y-51.943
X141.58Y-63.856
X141.9Y-74.3
X142.011Y-102.5
X142.088Y-65.786
X142.291Y-64.516
X142.392Y-56.185
X143.1Y-91.9
X143.129Y-73.787
X143.256Y-53.467
X143.307Y-96.774
X143.739Y-71.755
X144.094Y-93.447
X144.399Y-55.753
X144.551Y-73.457
X144.78Y-125.095
X145.034Y-127.508
X145.415Y-98.476
X145.644Y-58.166
X145.669Y-69.088
X145.725Y-96.75
X146.2Y-106.8
X146.406Y-58.877
X146.431Y-122.555
X146.558Y-57.252
X146.685Y-65.405
X146.685Y-129.921
X146.8Y-93.4
X146.939Y-75.184
X147.168Y-59.69
X147.193Y-69.342
X147.218Y-91.948
X147.371Y-58.166
X147.574Y-107.975
X147.9Y-94.7
X147.955Y-64.516
X147.955Y-74.676
X148.184Y-58.979
X148.7Y-71.0
X148.844Y-73.279
X148.971Y-65.405
X149.225Y-108.331
X149.682Y-102.387
X149.733Y-66.167
X149.8Y-94.45
X150.1Y-105.2
X150.114Y-74.168
X150.114Y-121.285
X150.368Y-110.744
X150.622Y-70.866
X151.003Y-65.659
X151.13Y-75.184
X151.155Y-178.105
X151.384Y-112.649
X151.511Y-69.977
X152.019Y-61.722
X152.146Y-71.501
X152.273Y-115.189
X152.4Y-181.864
X153.035Y-113.919
X153.162Y-57.531
X153.162Y-62.738
X153.162Y-122.428
X153.213Y-176.022
X153.289Y-72.898
X153.67Y-84.988
X153.67Y-102.108
X153.873Y-170.129
X154.051Y-63.627
X154.813Y-58.674
X154.889Y-174.727
X154.94Y-180.721
X154.965Y-86.284
X155.042Y-60.198
X155.27Y-171.272
X155.575Y-56.642
X155.956Y-108.915
X156.21Y-82.22
X156.261Y-173.076
X156.718Y-178.689
X156.845Y-128.143
X156.972Y-65.024
X156.972Y-80.518
X157.226Y-59.893
X157.353Y-78.74
X157.709Y-83.668
X158.369Y-63.881
X158.394Y-61.316
X158.496Y-56.896
X158.623Y-77.724
X158.902Y-101.498
X159.258Y-66.802
X159.385Y-62.611
X159.715Y-105.715
X159.766Y-174.447
X159.893Y-129.794
X160.02Y-118.11
X160.045Y-102.083
X160.401Y-164.084
X160.528Y-58.42
X160.528Y-68.834
X160.528Y-115.316
X160.782Y-76.327
X161.036Y-83.058
X161.112Y-172.949
X161.163Y-71.628
X161.29Y-73.914
X161.5Y-51.1
X161.925Y-183.515
X162.179Y-60.198
X162.306Y-81.661
X162.687Y-171.679
X162.904Y-177.841
X162.941Y-102.362
X163.83Y-61.849
X163.83Y-80.391
X163.83Y-176.632
X163.875Y-77.277
X164.084Y-118.999
X164.338Y-93.726
X164.465Y-91.186
X164.744Y-99.873
X164.973Y-79.756
X165.1Y-70.485
X165.227Y-88.9
X165.227Y-175.184
X165.354Y-55.245
X165.623Y-129.859
X166.116Y-90.17
X166.751Y-96.266
X167.005Y-159.766
X167.132Y-79.629
X167.386Y-162.433
X167.386Y-165.862
X167.4Y-65.2
X167.513Y-91.059
X167.513Y-175.514
X167.792Y-172.72
X167.894Y-97.79
X168.554Y-91.872
X168.58Y-99.949
X169.037Y-49.276
X169.037Y-66.802
X169.037Y-79.883
X169.418Y-129.794
X170.053Y-75.565
X170.307Y-94.361
X170.434Y-182.88
X170.561Y-68.326
X170.688Y-100.686
X170.815Y-80.137
X171.45Y-165.506
X171.704Y-169.545
X171.831Y-173.736
X171.856Y-61.392
X172.085Y-69.85
X172.085Y-95.758
X172.72Y-80.391
X172.872Y-165.075
X172.974Y-92.075
X173.101Y-129.794
X173.482Y-71.12
X173.609Y-91.059
X173.863Y-53.721
X173.863Y-92.837
X173.99Y-90.043
X174.244Y-172.212
X174.371Y-99.06
X174.625Y-92.202
X174.752Y-93.726
X174.803Y-165.075
X175.006Y-72.644
X175.133Y-80.645
X175.133Y-98.298
X175.133Y-99.822
X175.514Y-48.006
X175.514Y-85.471
X175.641Y-93.091
X175.895Y-99.06
X175.895Y-100.584
X176.124Y-82.499
X176.53Y-74.168
X176.53Y-80.772
X176.53Y-165.202
X176.657Y-99.822
X176.784Y-86.741
X176.784Y-101.473
X176.784Y-129.794
X176.784Y-166.751
X177.546Y-100.711
X177.673Y-90.805
X177.927Y-103.632
X177.952Y-67.691
X178.054Y-88.138
X178.079Y-165.76
X178.181Y-75.946
X178.181Y-81.534
X178.562Y-48.133
X178.562Y-89.535
X179.197Y-58.928
X179.578Y-93.472
X179.959Y-106.426
X180.086Y-77.851
X180.213Y-85.344
X180.467Y-92.71
X180.467Y-94.234
X180.863Y-129.986
X180.975Y-85.979
X181.229Y-93.472
X181.229Y-99.822
X181.356Y-95.123
X181.61Y-165.379
X181.864Y-48.006
X181.966Y-100.432
X181.991Y-86.868
X182.118Y-94.234
X182.118Y-96.012
X182.118Y-108.331
X182.88Y-95.123
X182.982Y-166.497
X183.134Y-72.898
X183.31Y-54.44
X183.31Y-125.56
X183.388Y-81.28
X183.96Y-52.84
X183.96Y-56.04
X183.96Y-123.96
X183.96Y-127.16
X184.023Y-96.012
X184.277Y-97.917
X184.912Y-48.133
X184.912Y-96.774
X185.1Y-70.917
X185.42Y-108.839
X185.56Y-52.19
X185.56Y-56.69
X185.56Y-123.31
X185.56Y-127.81
X186.0Y-70.017
X186.0Y-70.917
X186.0Y-71.817
X186.055Y-97.714
X186.817Y-104.013
X186.9Y-70.917
X187.071Y-98.806
X187.16Y-52.84
X187.16Y-56.04
X187.16Y-123.96
X187.16Y-127.16
X187.198Y-109.982
X187.579Y-103.251
X187.81Y-54.44
X187.81Y-125.56
X188.087Y-99.822
X188.468Y-48.387
X188.976Y-76.454
X189.23Y-100.838
X189.23Y-115.443
X189.865Y-107.442
X189.992Y-108.712
X190.5Y-101.727
X190.627Y-99.949
X190.627Y-106.553
X191.008Y-50.165
X191.262Y-107.823
X191.897Y-106.172
X192.659Y-107.823
X193.167Y-81.915
X193.294Y-75.819
X193.421Y-70.231
X193.421Y-73.406
X193.421Y-79.121
X193.548Y-52.197
X193.548Y-54.991
X193.548Y-66.421
X193.675Y-58.42
X193.675Y-62.23
T3
X111.0Y-90.0
X111.402Y-88.5
X111.402Y-91.5
X112.5Y-87.402
X112.5Y-92.598
X114.0Y-87.0
X114.0Y-93.0
X115.5Y-87.402
X115.5Y-92.598
X116.598Y-88.5
X116.598Y-91.5
X117.0Y-90.0
X147.0Y-54.0
X147.0Y-126.0
X147.402Y-52.5
X147.402Y-55.5
X147.402Y-124.5
X147.402Y-127.5
X148.5Y-51.402
X148.5Y-56.598
X148.5Y-123.402
X148.5Y-128.598
X150.0Y-51.0
X150.0Y-57.0
X150.0Y-123.0
X150.0Y-129.0
X151.5Y-51.402
X151.5Y-56.598
X151.5Y-123.402
X151.5Y-128.598
X152.598Y-52.5
X152.598Y-55.5
X152.598Y-124.5
X152.598Y-127.5
X153.0Y-54.0
X153.0Y-126.0
X183.0Y-90.0
X183.402Y-88.5
X183.402Y-91.5
X184.5Y-87.402
X184.5Y-92.598
X186.0Y-87.0
X186.0Y-93.0
X187.5Y-87.402
X187.5Y-92.598
X188.598Y-88.5
X188.598Y-91.5
X189.0Y-90.0
T4
X142.24Y-86.741
X142.345Y-80.687
X143.129Y-87.503
X143.256Y-86.487
X143.406Y-79.627
X143.441Y-85.46
X143.583Y-81.925
X144.29Y-86.309
X144.467Y-78.566
X144.643Y-80.864
X144.643Y-82.278
X145.35Y-81.571
X145.35Y-82.985
X145.704Y-79.803
X146.058Y-80.864
X146.058Y-82.278
X146.058Y-83.692
X146.765Y-81.571
X146.765Y-82.985
X146.765Y-84.4
X147.472Y-82.278
X147.472Y-83.692
X147.472Y-85.107
X147.825Y-86.167
X148.179Y-82.985
X148.179Y-84.4
X148.886Y-83.692
X148.886Y-85.107
X149.063Y-87.405
X149.479Y-79.502
X149.947Y-84.046
X150.123Y-86.344
X150.368Y-80.518
X150.622Y-79.375
X150.749Y-78.232
X151.184Y-85.283
X151.765Y-79.248
X152.4Y-96.901
X152.629Y-91.008
X153.289Y-97.663
X153.416Y-96.647
X153.656Y-89.777
X153.691Y-95.61
X153.833Y-92.075
X154.54Y-96.459
X154.717Y-88.716
X154.893Y-91.014
X154.893Y-92.428
X155.448Y-99.847
X155.6Y-91.721
X155.6Y-93.135
X155.954Y-89.953
X156.308Y-91.014
X156.308Y-92.428
X156.308Y-93.842
X156.515Y-100.863
X157.015Y-91.721
X157.015Y-93.135
X157.015Y-94.55
X157.48Y-101.905
X157.722Y-92.428
X157.722Y-93.842
X157.722Y-95.257
X158.075Y-96.317
X158.429Y-93.135
X158.429Y-94.55
X159.136Y-93.842
X159.136Y-95.257
X159.313Y-97.555
X159.639Y-89.789
X160.197Y-94.196
X160.373Y-96.494
X160.401Y-90.551
X160.655Y-89.535
X160.782Y-88.519
X161.29Y-100.762
X161.434Y-95.433
X161.671Y-89.281
X162.839Y-99.67
T5
X142.049Y-62.328
X142.756Y-61.62
X142.756Y-63.035
X143.463Y-60.913
X143.463Y-62.328
X143.463Y-63.742
X144.17Y-60.206
X144.17Y-61.62
X144.17Y-63.035
X144.643Y-82.278
X144.878Y-59.499
X144.878Y-60.913
X144.878Y-62.328
X145.35Y-81.571
X145.35Y-82.985
X145.585Y-60.206
X145.585Y-61.62
X146.058Y-80.864
X146.058Y-82.278
X146.058Y-83.692
X146.292Y-60.913
X146.765Y-81.571
X146.765Y-82.985
X146.765Y-84.4
X147.472Y-82.278
X147.472Y-83.692
X147.472Y-85.107
X148.179Y-82.985
X148.179Y-84.4
X148.886Y-83.692
X154.893Y-92.428
X155.6Y-91.721
X155.6Y-93.135
X156.308Y-91.014
X156.308Y-92.428
X156.308Y-93.842
X157.015Y-91.721
X157.015Y-93.135
X157.015Y-94.55
X157.722Y-92.428
X157.722Y-93.842
X157.722Y-95.257
X158.429Y-93.135
X158.429Y-94.55
X159.136Y-93.842
X176.108Y-97.38
X176.815Y-96.672
X176.815Y-98.087
X177.522Y-95.965
X177.522Y-97.38
X177.522Y-98.794
X178.229Y-95.258
X178.229Y-96.672
X178.229Y-98.087
X178.936Y-94.551
X178.936Y-95.965
X178.936Y-97.38
X179.643Y-95.258
X179.643Y-96.672
X180.35Y-95.965
T6
X134.584Y-121.031
X136.38Y-119.235
X136.38Y-122.827
X138.176Y-121.031
X138.176Y-124.623
X139.972Y-122.827
T7
X111.071Y-110.071
X113.765Y-112.765
X116.459Y-115.459
X119.153Y-118.153
X121.847Y-120.847
X124.541Y-123.541
X127.235Y-126.235
X129.929Y-128.929
T8
X114.44Y-54.44
X114.44Y-125.56
X185.56Y-54.44
X185.56Y-125.56
T0
M30
