%TF.GenerationSoftware,KiCad,Pcbnew,6.0.4-6f826c9f35~116~ubuntu20.04.1*%
%TF.CreationDate,2022-05-26T09:50:00+00:00*%
%TF.ProjectId,QFHMIX01D,5146484d-4958-4303-9144-2e6b69636164,REV 0.2*%
%TF.SameCoordinates,Original*%
%TF.FileFunction,Soldermask,Bot*%
%TF.FilePolarity,Negative*%
%FSLAX46Y46*%
G04 Gerber Fmt 4.6, Leading zero omitted, Abs format (unit mm)*
G04 Created by KiCad (PCBNEW 6.0.4-6f826c9f35~116~ubuntu20.04.1) date 2022-05-26 09:50:00*
%MOMM*%
%LPD*%
G01*
G04 APERTURE LIST*
G04 Aperture macros list*
%AMRoundRect*
0 Rectangle with rounded corners*
0 $1 Rounding radius*
0 $2 $3 $4 $5 $6 $7 $8 $9 X,Y pos of 4 corners*
0 Add a 4 corners polygon primitive as box body*
4,1,4,$2,$3,$4,$5,$6,$7,$8,$9,$2,$3,0*
0 Add four circle primitives for the rounded corners*
1,1,$1+$1,$2,$3*
1,1,$1+$1,$4,$5*
1,1,$1+$1,$6,$7*
1,1,$1+$1,$8,$9*
0 Add four rect primitives between the rounded corners*
20,1,$1+$1,$2,$3,$4,$5,0*
20,1,$1+$1,$4,$5,$6,$7,0*
20,1,$1+$1,$6,$7,$8,$9,0*
20,1,$1+$1,$8,$9,$2,$3,0*%
G04 Aperture macros list end*
%ADD10C,2.000000*%
%ADD11C,2.900000*%
%ADD12RoundRect,0.200000X0.000000X1.077631X-1.077631X0.000000X0.000000X-1.077631X1.077631X0.000000X0*%
%ADD13RoundRect,0.400000X0.053033X-0.335876X0.335876X-0.053033X-0.053033X0.335876X-0.335876X0.053033X0*%
%ADD14RoundRect,0.400000X-0.053033X0.335876X-0.335876X0.053033X0.053033X-0.335876X0.335876X-0.053033X0*%
%ADD15RoundRect,0.425000X0.017678X-0.335876X0.335876X-0.017678X-0.017678X0.335876X-0.335876X0.017678X0*%
%ADD16C,6.400000*%
%ADD17RoundRect,0.200000X1.250000X0.900000X-1.250000X0.900000X-1.250000X-0.900000X1.250000X-0.900000X0*%
%ADD18RoundRect,0.425000X-0.335876X-0.017678X-0.017678X-0.335876X0.335876X0.017678X0.017678X0.335876X0*%
%ADD19RoundRect,0.425000X-0.017678X0.335876X-0.335876X0.017678X0.017678X-0.335876X0.335876X-0.017678X0*%
%ADD20RoundRect,0.400000X0.335876X0.053033X0.053033X0.335876X-0.335876X-0.053033X-0.053033X-0.335876X0*%
%ADD21RoundRect,0.450000X-0.512652X-0.159099X-0.159099X-0.512652X0.512652X0.159099X0.159099X0.512652X0*%
%ADD22RoundRect,0.425000X0.335876X0.017678X0.017678X0.335876X-0.335876X-0.017678X-0.017678X-0.335876X0*%
%ADD23RoundRect,0.418750X-0.424264X-0.114905X-0.114905X-0.424264X0.424264X0.114905X0.114905X0.424264X0*%
%ADD24RoundRect,0.418750X0.424264X0.114905X0.114905X0.424264X-0.424264X-0.114905X-0.114905X-0.424264X0*%
%ADD25RoundRect,0.450000X0.250000X0.475000X-0.250000X0.475000X-0.250000X-0.475000X0.250000X-0.475000X0*%
%ADD26RoundRect,0.418750X-0.114905X0.424264X-0.424264X0.114905X0.114905X-0.424264X0.424264X-0.114905X0*%
%ADD27RoundRect,0.418750X0.114905X-0.424264X0.424264X-0.114905X-0.114905X0.424264X-0.424264X0.114905X0*%
%ADD28RoundRect,0.400000X-0.335876X-0.053033X-0.053033X-0.335876X0.335876X0.053033X0.053033X0.335876X0*%
%ADD29RoundRect,0.200000X-0.717713X-0.180312X-0.180312X-0.717713X0.717713X0.180312X0.180312X0.717713X0*%
%ADD30C,0.900000*%
%ADD31RoundRect,0.200000X-2.828427X0.565685X0.565685X-2.828427X2.828427X-0.565685X-0.565685X2.828427X0*%
%ADD32RoundRect,0.450000X0.475000X-0.250000X0.475000X0.250000X-0.475000X0.250000X-0.475000X-0.250000X0*%
%ADD33RoundRect,0.418750X0.218750X0.381250X-0.218750X0.381250X-0.218750X-0.381250X0.218750X-0.381250X0*%
%ADD34RoundRect,0.418750X-0.381250X0.218750X-0.381250X-0.218750X0.381250X-0.218750X0.381250X0.218750X0*%
%ADD35RoundRect,0.450000X-0.159099X0.512652X-0.512652X0.159099X0.159099X-0.512652X0.512652X-0.159099X0*%
%ADD36RoundRect,0.200000X0.444500X0.698500X-0.444500X0.698500X-0.444500X-0.698500X0.444500X-0.698500X0*%
%ADD37RoundRect,0.200000X-0.176777X-1.237437X1.237437X0.176777X0.176777X1.237437X-1.237437X-0.176777X0*%
%ADD38RoundRect,0.200000X0.636396X-2.050610X2.050610X-0.636396X-0.636396X2.050610X-2.050610X0.636396X0*%
%ADD39RoundRect,0.450000X0.512652X0.159099X0.159099X0.512652X-0.512652X-0.159099X-0.159099X-0.512652X0*%
%ADD40RoundRect,0.300000X0.380070X0.521491X-0.521491X-0.380070X-0.380070X-0.521491X0.521491X0.380070X0*%
%ADD41RoundRect,0.450000X-0.475000X0.250000X-0.475000X-0.250000X0.475000X-0.250000X0.475000X0.250000X0*%
%ADD42C,2.700000*%
%ADD43RoundRect,0.200000X-0.194454X0.866206X-0.866206X0.194454X0.194454X-0.866206X0.866206X-0.194454X0*%
%ADD44RoundRect,0.200000X0.180312X-0.717713X0.717713X-0.180312X-0.180312X0.717713X-0.717713X0.180312X0*%
%ADD45RoundRect,0.200000X-0.565685X-2.828427X2.828427X0.565685X0.565685X2.828427X-2.828427X-0.565685X0*%
%ADD46RoundRect,0.350000X-0.256326X-0.468458X0.468458X0.256326X0.256326X0.468458X-0.468458X-0.256326X0*%
%ADD47RoundRect,0.400000X0.200000X0.275000X-0.200000X0.275000X-0.200000X-0.275000X0.200000X-0.275000X0*%
%ADD48RoundRect,0.200000X-0.180312X0.717713X-0.717713X0.180312X0.180312X-0.717713X0.717713X-0.180312X0*%
%ADD49RoundRect,0.200000X0.565685X2.828427X-2.828427X-0.565685X-0.565685X-2.828427X2.828427X0.565685X0*%
%ADD50RoundRect,0.262500X-0.282843X0.194454X0.194454X-0.282843X0.282843X-0.194454X-0.194454X0.282843X0*%
%ADD51RoundRect,0.262500X-0.282843X-0.194454X-0.194454X-0.282843X0.282843X0.194454X0.194454X0.282843X0*%
%ADD52RoundRect,0.450000X-0.848528X0.000000X0.000000X-0.848528X0.848528X0.000000X0.000000X0.848528X0*%
%ADD53RoundRect,0.200000X0.106066X0.318198X-0.318198X-0.106066X-0.106066X-0.318198X0.318198X0.106066X0*%
%ADD54RoundRect,0.200000X0.353553X0.565685X-0.565685X-0.353553X-0.353553X-0.565685X0.565685X0.353553X0*%
%ADD55RoundRect,0.200000X0.318198X-0.106066X-0.106066X0.318198X-0.318198X0.106066X0.106066X-0.318198X0*%
%ADD56RoundRect,0.200000X-0.194454X1.219759X-1.219759X0.194454X0.194454X-1.219759X1.219759X-0.194454X0*%
%ADD57RoundRect,0.385000X0.279307X1.325825X-1.325825X-0.279307X-0.279307X-1.325825X1.325825X0.279307X0*%
%ADD58RoundRect,0.200000X1.622810X0.350018X0.350018X1.622810X-1.622810X-0.350018X-0.350018X-1.622810X0*%
%ADD59RoundRect,0.200000X-1.622810X-0.350018X-0.350018X-1.622810X1.622810X0.350018X0.350018X1.622810X0*%
%ADD60RoundRect,0.200000X0.017961X1.785275X-1.785275X-0.017961X-0.017961X-1.785275X1.785275X0.017961X0*%
G04 APERTURE END LIST*
D10*
%TO.C,J1*%
X114680511Y-109155028D03*
X123625412Y-127150895D03*
X130844972Y-125319489D03*
X125456819Y-119931335D03*
X120068665Y-114543181D03*
X112849105Y-116374588D03*
D11*
X111070731Y-110070731D03*
X113764808Y-112764808D03*
X116458885Y-115458885D03*
X119152962Y-118152962D03*
X121847038Y-120847038D03*
X124541115Y-123541115D03*
X127235192Y-126235192D03*
X129929269Y-128929269D03*
%TD*%
D12*
%TO.C,J2*%
X138380877Y-123910226D03*
X136584826Y-125706277D03*
X136584826Y-122114174D03*
X134788774Y-123910226D03*
X134788774Y-120318123D03*
X132992723Y-122114174D03*
%TD*%
D13*
%TO.C,R8*%
X129540837Y-82091963D03*
X130707563Y-80925237D03*
%TD*%
D14*
%TO.C,R5*%
X128370763Y-83109637D03*
X127204037Y-84276363D03*
%TD*%
D15*
%TO.C,C20*%
X132346706Y-98930691D03*
X133442722Y-97834675D03*
%TD*%
%TO.C,C19*%
X130909866Y-97493850D03*
X132005882Y-96397834D03*
%TD*%
D16*
%TO.C,M7*%
X185560000Y-125560000D03*
%TD*%
%TO.C,M6*%
X185560000Y-54440000D03*
%TD*%
%TO.C,M5*%
X114440000Y-125560000D03*
%TD*%
D17*
%TO.C,D1*%
X126358400Y-130327400D03*
X122358400Y-130327400D03*
%TD*%
D18*
%TO.C,C7*%
X129194200Y-84862823D03*
X130290216Y-85958839D03*
%TD*%
D19*
%TO.C,C1*%
X131231008Y-71943592D03*
X130134992Y-73039608D03*
%TD*%
D18*
%TO.C,C6*%
X130337200Y-83846823D03*
X131433216Y-84942839D03*
%TD*%
D19*
%TO.C,C2*%
X130138808Y-70876792D03*
X129042792Y-71972808D03*
%TD*%
D20*
%TO.C,R11*%
X131114800Y-78308200D03*
X129948074Y-77141474D03*
%TD*%
D13*
%TO.C,R7*%
X131674437Y-82193563D03*
X132841163Y-81026837D03*
%TD*%
D14*
%TO.C,R4*%
X135000163Y-78867837D03*
X133833437Y-80034563D03*
%TD*%
D21*
%TO.C,C27*%
X139028249Y-120994249D03*
X140371751Y-122337751D03*
%TD*%
D16*
%TO.C,M4*%
X150000000Y-126000000D03*
%TD*%
%TO.C,M3*%
X150000000Y-54000000D03*
%TD*%
%TO.C,M2*%
X186000000Y-90000000D03*
%TD*%
%TO.C,M1*%
X114000000Y-90000000D03*
%TD*%
D15*
%TO.C,C22*%
X142326992Y-109260008D03*
X143423008Y-108163992D03*
%TD*%
%TO.C,C21*%
X141055432Y-107662046D03*
X142151448Y-106566030D03*
%TD*%
D13*
%TO.C,R33*%
X127120339Y-115607097D03*
X128287065Y-114440371D03*
%TD*%
%TO.C,R28*%
X129796880Y-101480517D03*
X130963606Y-100313791D03*
%TD*%
%TO.C,R32*%
X124426262Y-112841180D03*
X125592988Y-111674454D03*
%TD*%
%TO.C,R31*%
X123258828Y-111673746D03*
X124425554Y-110507020D03*
%TD*%
%TO.C,R27*%
X128360040Y-100043676D03*
X129526766Y-98876950D03*
%TD*%
%TO.C,R30*%
X139953762Y-111637399D03*
X141120488Y-110470673D03*
%TD*%
%TO.C,R34*%
X128287772Y-116774532D03*
X129454498Y-115607806D03*
%TD*%
D16*
%TO.C,M8*%
X114440000Y-54440000D03*
%TD*%
D18*
%TO.C,C5*%
X133843392Y-82103592D03*
X134939408Y-83199608D03*
%TD*%
%TO.C,C4*%
X134899400Y-81051400D03*
X135995416Y-82147416D03*
%TD*%
%TO.C,C28*%
X140599792Y-119593992D03*
X141695808Y-120690008D03*
%TD*%
D15*
%TO.C,C17*%
X129957192Y-92927808D03*
X131053208Y-91831792D03*
%TD*%
%TO.C,C18*%
X136992992Y-100141408D03*
X138089008Y-99045392D03*
%TD*%
D18*
%TO.C,C25*%
X132469885Y-115044885D03*
X133565901Y-116140901D03*
%TD*%
D19*
%TO.C,C26*%
X126532008Y-112964592D03*
X125435992Y-114060608D03*
%TD*%
D18*
%TO.C,C23*%
X125413524Y-105226063D03*
X126509540Y-106322079D03*
%TD*%
D22*
%TO.C,C12*%
X138332216Y-87887816D03*
X137236200Y-86791800D03*
%TD*%
D18*
%TO.C,C24*%
X133944885Y-113594885D03*
X135040901Y-114690901D03*
%TD*%
D15*
%TO.C,C3*%
X125308992Y-72557008D03*
X126405008Y-71460992D03*
%TD*%
D13*
%TO.C,R29*%
X138516919Y-110200559D03*
X139683645Y-109033833D03*
%TD*%
D23*
%TO.C,L9*%
X131760499Y-93736699D03*
X133263101Y-95239301D03*
%TD*%
D24*
%TO.C,L13*%
X136158701Y-98236501D03*
X134656099Y-96733899D03*
%TD*%
D22*
%TO.C,C41*%
X146648008Y-73048008D03*
X145551992Y-71951992D03*
%TD*%
D18*
%TO.C,C43*%
X156104584Y-60981584D03*
X157200600Y-62077600D03*
%TD*%
D19*
%TO.C,C59*%
X142848008Y-75451992D03*
X141751992Y-76548008D03*
%TD*%
%TO.C,C62*%
X155411808Y-83246592D03*
X154315792Y-84342608D03*
%TD*%
D25*
%TO.C,C14*%
X128051600Y-47777400D03*
X126151600Y-47777400D03*
%TD*%
D15*
%TO.C,C32*%
X132649592Y-50967008D03*
X133745608Y-49870992D03*
%TD*%
D22*
%TO.C,C47*%
X139968608Y-59044208D03*
X138872592Y-57948192D03*
%TD*%
%TO.C,C49*%
X146598008Y-67858008D03*
X145501992Y-66761992D03*
%TD*%
D15*
%TO.C,C29*%
X146009992Y-77891008D03*
X147106008Y-76794992D03*
%TD*%
D19*
%TO.C,C35*%
X142235088Y-84632070D03*
X141139072Y-85728086D03*
%TD*%
%TO.C,C58*%
X152236808Y-66533392D03*
X151140792Y-67629408D03*
%TD*%
%TO.C,C63*%
X157367608Y-69555992D03*
X156271592Y-70652008D03*
%TD*%
D22*
%TO.C,C65*%
X155107008Y-77002008D03*
X154010992Y-75905992D03*
%TD*%
D25*
%TO.C,C31*%
X138465600Y-47802800D03*
X136565600Y-47802800D03*
%TD*%
D15*
%TO.C,C45*%
X136307192Y-54675408D03*
X137403208Y-53579392D03*
%TD*%
D18*
%TO.C,C33*%
X140574392Y-56195592D03*
X141670408Y-57291608D03*
%TD*%
D22*
%TO.C,C50*%
X150027008Y-64429008D03*
X148930992Y-63332992D03*
%TD*%
D19*
%TO.C,C36*%
X145074008Y-87335992D03*
X143977992Y-88432008D03*
%TD*%
%TO.C,C37*%
X152437139Y-94788641D03*
X151341123Y-95884657D03*
%TD*%
%TO.C,C38*%
X155310208Y-97622992D03*
X154214192Y-98719008D03*
%TD*%
D18*
%TO.C,C44*%
X177821584Y-82977984D03*
X178917600Y-84074000D03*
%TD*%
D15*
%TO.C,C60*%
X163612192Y-98033208D03*
X164708208Y-96937192D03*
%TD*%
%TO.C,C61*%
X155636592Y-85587208D03*
X156732608Y-84491192D03*
%TD*%
D24*
%TO.C,L18*%
X144820101Y-70448901D03*
X143317499Y-68946299D03*
%TD*%
%TO.C,L22*%
X153786301Y-61203301D03*
X152283699Y-59700699D03*
%TD*%
D26*
%TO.C,L40*%
X142051301Y-78648699D03*
X140548699Y-80151301D03*
%TD*%
%TO.C,L44*%
X150992301Y-87640699D03*
X149489699Y-89143301D03*
%TD*%
D27*
%TO.C,L19*%
X141971299Y-67832701D03*
X143473901Y-66330099D03*
%TD*%
D26*
%TO.C,L23*%
X150458901Y-59345099D03*
X148956299Y-60847701D03*
%TD*%
D23*
%TO.C,L41*%
X139532899Y-81671699D03*
X141035501Y-83174301D03*
%TD*%
D24*
%TO.C,L45*%
X148096701Y-90514901D03*
X146594099Y-89012299D03*
%TD*%
D23*
%TO.C,L58*%
X147838699Y-66685699D03*
X149341301Y-68188301D03*
%TD*%
D26*
%TO.C,L69*%
X150103301Y-76591699D03*
X148600699Y-78094301D03*
%TD*%
D27*
%TO.C,L17*%
X133690899Y-52389501D03*
X135193501Y-50886899D03*
%TD*%
%TO.C,L54*%
X137323099Y-56224901D03*
X138825701Y-54722299D03*
%TD*%
%TO.C,L30*%
X152461499Y-68620101D03*
X153964101Y-67117499D03*
%TD*%
%TO.C,L36*%
X157262099Y-72023701D03*
X158764701Y-70521099D03*
%TD*%
D23*
%TO.C,L67*%
X152105899Y-76388499D03*
X153608501Y-77891101D03*
%TD*%
D24*
%TO.C,L59*%
X152948101Y-64937101D03*
X151445499Y-63434499D03*
%TD*%
D27*
%TO.C,L63*%
X153071099Y-80735901D03*
X154573701Y-79233299D03*
%TD*%
%TO.C,L24*%
X178953699Y-91861101D03*
X180456301Y-90358499D03*
%TD*%
D23*
%TO.C,L42*%
X156848699Y-98748699D03*
X158351301Y-100251301D03*
%TD*%
D24*
%TO.C,L46*%
X151373301Y-93588301D03*
X149870699Y-92085699D03*
%TD*%
%TO.C,L25*%
X180594000Y-88036400D03*
X179091398Y-86533798D03*
%TD*%
D27*
%TO.C,L43*%
X159848699Y-99451301D03*
X161351301Y-97948699D03*
%TD*%
%TO.C,L47*%
X150886699Y-90540301D03*
X152389301Y-89037699D03*
%TD*%
D20*
%TO.C,R35*%
X147883363Y-71883363D03*
X146716637Y-70716637D03*
%TD*%
D28*
%TO.C,R37*%
X155017037Y-62002237D03*
X156183763Y-63168963D03*
%TD*%
D14*
%TO.C,R39*%
X144220363Y-76505637D03*
X143053637Y-77672363D03*
%TD*%
D13*
%TO.C,R41*%
X152016637Y-86683363D03*
X153183363Y-85516637D03*
%TD*%
D28*
%TO.C,R38*%
X176633274Y-84177274D03*
X177800000Y-85344000D03*
%TD*%
D13*
%TO.C,R40*%
X162357637Y-96976363D03*
X163524363Y-95809637D03*
%TD*%
D14*
%TO.C,R42*%
X154483363Y-86816637D03*
X153316637Y-87983363D03*
%TD*%
D29*
%TO.C,U8*%
X147393263Y-79662660D03*
D30*
X146057538Y-82278248D03*
X145350431Y-81571141D03*
X144643325Y-82278248D03*
X147471752Y-82278248D03*
X146057538Y-83692462D03*
X148178859Y-84399569D03*
X147471752Y-83692462D03*
X145350431Y-82985355D03*
X148178859Y-82985355D03*
X147471752Y-85106675D03*
X146764645Y-82985355D03*
X146057538Y-80864035D03*
D31*
X146764645Y-82985355D03*
D30*
X148885965Y-83692462D03*
X146764645Y-81571141D03*
D29*
X148291289Y-80560686D03*
D30*
X146764645Y-84399569D03*
D29*
X149189314Y-81458711D03*
X150087340Y-82356737D03*
X146136027Y-86308050D03*
X145238001Y-85410024D03*
X144339976Y-84511999D03*
X143441950Y-83613973D03*
%TD*%
%TO.C,U9*%
X157643263Y-89812660D03*
D30*
X157721752Y-95256675D03*
X158428859Y-93135355D03*
X157721752Y-93842462D03*
X156307538Y-93842462D03*
X155600431Y-91721141D03*
X157014645Y-91721141D03*
X157721752Y-92428248D03*
X156307538Y-91014035D03*
X158428859Y-94549569D03*
X157014645Y-93135355D03*
X155600431Y-93135355D03*
D31*
X157014645Y-93135355D03*
D30*
X156307538Y-92428248D03*
D29*
X158541289Y-90710686D03*
D30*
X157014645Y-94549569D03*
X154893325Y-92428248D03*
X159135965Y-93842462D03*
D29*
X159439314Y-91608711D03*
X160337340Y-92506737D03*
X156386027Y-96458050D03*
X155488001Y-95560024D03*
X154589976Y-94661999D03*
X153691950Y-93763973D03*
%TD*%
D20*
%TO.C,R36*%
X167741600Y-94742000D03*
X166574874Y-93575274D03*
%TD*%
D22*
%TO.C,C42*%
X168645208Y-93512008D03*
X167549192Y-92415992D03*
%TD*%
D26*
%TO.C,L20*%
X173496701Y-97495899D03*
X171994099Y-98998501D03*
%TD*%
D24*
%TO.C,L21*%
X170738800Y-97586800D03*
X169236198Y-96084198D03*
%TD*%
D27*
%TO.C,L8*%
X128941099Y-96179101D03*
X130443701Y-94676499D03*
%TD*%
D23*
%TO.C,L10*%
X141768099Y-103947499D03*
X143270701Y-105450101D03*
%TD*%
D14*
%TO.C,R25*%
X139013363Y-104064637D03*
X137846637Y-105231363D03*
%TD*%
%TO.C,R3*%
X148284363Y-95047637D03*
X147117637Y-96214363D03*
%TD*%
D18*
%TO.C,C56*%
X175270792Y-91044392D03*
X176366808Y-92140408D03*
%TD*%
D26*
%TO.C,L39*%
X156529501Y-73340499D03*
X155026899Y-74843101D03*
%TD*%
D32*
%TO.C,C34*%
X192405000Y-101087000D03*
X192405000Y-99187000D03*
%TD*%
D22*
%TO.C,C64*%
X164519616Y-86033616D03*
X163423600Y-84937600D03*
%TD*%
D33*
%TO.C,L14*%
X135026400Y-47879000D03*
X132901400Y-47879000D03*
%TD*%
D27*
%TO.C,L7*%
X143596899Y-111215901D03*
X145099501Y-109713299D03*
%TD*%
D26*
%TO.C,L29*%
X172150501Y-85989699D03*
X170647899Y-87492301D03*
%TD*%
%TO.C,L37*%
X165673501Y-81087499D03*
X164170899Y-82590101D03*
%TD*%
D23*
%TO.C,L53*%
X137069099Y-50429699D03*
X138571701Y-51932301D03*
%TD*%
D34*
%TO.C,L15*%
X192405000Y-102696500D03*
X192405000Y-104821500D03*
%TD*%
D23*
%TO.C,L32*%
X167904699Y-87005699D03*
X169407301Y-88508301D03*
%TD*%
D14*
%TO.C,R24*%
X128954963Y-93904637D03*
X127788237Y-95071363D03*
%TD*%
D28*
%TO.C,R52*%
X171628637Y-103683637D03*
X172795363Y-104850363D03*
%TD*%
D18*
%TO.C,C11*%
X153670000Y-103505000D03*
X154766016Y-104601016D03*
%TD*%
D15*
%TO.C,C13*%
X147457792Y-98896808D03*
X148553808Y-97800792D03*
%TD*%
%TO.C,C66*%
X146594192Y-114340008D03*
X147690208Y-113243992D03*
%TD*%
D26*
%TO.C,L62*%
X187822301Y-104988899D03*
X186319699Y-106491501D03*
%TD*%
D35*
%TO.C,C74*%
X166672102Y-104930098D03*
X165328600Y-106273600D03*
%TD*%
D22*
%TO.C,C82*%
X158292800Y-106146600D03*
X157196784Y-105050584D03*
%TD*%
D36*
%TO.C,L51*%
X160820100Y-103987600D03*
X158915100Y-103987600D03*
%TD*%
D23*
%TO.C,L5*%
X129423699Y-50074099D03*
X130926301Y-51576701D03*
%TD*%
D37*
%TO.C,U1*%
X152555023Y-118096996D03*
X150928678Y-116470650D03*
D38*
X155383450Y-112015878D03*
D37*
X149302332Y-114844305D03*
%TD*%
D39*
%TO.C,C80*%
X157211951Y-107681951D03*
X155868449Y-106338449D03*
%TD*%
D23*
%TO.C,L56*%
X140309600Y-53517800D03*
X141812202Y-55020402D03*
%TD*%
D27*
%TO.C,L12*%
X133690899Y-101030501D03*
X135193501Y-99527899D03*
%TD*%
D28*
%TO.C,R12*%
X127966037Y-73127437D03*
X129132763Y-74294163D03*
%TD*%
D13*
%TO.C,R2*%
X137770437Y-84885963D03*
X138937163Y-83719237D03*
%TD*%
D28*
%TO.C,R1*%
X155245637Y-101727837D03*
X156412363Y-102894563D03*
%TD*%
D15*
%TO.C,C9*%
X152690192Y-106923208D03*
X153786208Y-105827192D03*
%TD*%
%TO.C,C53*%
X162037392Y-93893008D03*
X163133408Y-92796992D03*
%TD*%
D23*
%TO.C,L52*%
X133182899Y-54417499D03*
X134685501Y-55920101D03*
%TD*%
D35*
%TO.C,C68*%
X169429351Y-105906649D03*
X168085849Y-107250151D03*
%TD*%
D23*
%TO.C,L55*%
X136154699Y-57668699D03*
X137657301Y-59171301D03*
%TD*%
%TO.C,L3*%
X149235699Y-96276699D03*
X150738301Y-97779301D03*
%TD*%
D24*
%TO.C,L16*%
X189828901Y-110631701D03*
X188326299Y-109129099D03*
%TD*%
D26*
%TO.C,L33*%
X184774301Y-101966299D03*
X183271699Y-103468901D03*
%TD*%
D24*
%TO.C,L27*%
X189092301Y-103265701D03*
X187589699Y-101763099D03*
%TD*%
D35*
%TO.C,C76*%
X165111351Y-103417449D03*
X163767849Y-104760951D03*
%TD*%
D15*
%TO.C,C52*%
X169860592Y-84799808D03*
X170956608Y-83703792D03*
%TD*%
D24*
%TO.C,L6*%
X146166301Y-108396501D03*
X144663699Y-106893899D03*
%TD*%
D27*
%TO.C,L38*%
X165339299Y-84037901D03*
X166841901Y-82535299D03*
%TD*%
D19*
%TO.C,C40*%
X189016008Y-106309792D03*
X187919992Y-107405808D03*
%TD*%
D20*
%TO.C,R15*%
X127507163Y-81710963D03*
X126340437Y-80544237D03*
%TD*%
D40*
%TO.C,U3*%
X149444194Y-99389250D03*
X149903813Y-99848869D03*
X150363433Y-100308488D03*
X150823052Y-100768108D03*
X151282672Y-101227727D03*
X151742291Y-101687347D03*
X152201910Y-102146966D03*
X148153724Y-106195152D03*
X147694105Y-105735533D03*
X147234485Y-105275914D03*
X146774866Y-104816294D03*
X146315246Y-104356675D03*
X145855627Y-103897055D03*
X145396008Y-103437436D03*
%TD*%
D14*
%TO.C,R23*%
X146049163Y-111227437D03*
X144882437Y-112394163D03*
%TD*%
D24*
%TO.C,L61*%
X157723301Y-67553301D03*
X156220699Y-66050699D03*
%TD*%
D19*
%TO.C,C46*%
X185942608Y-103439592D03*
X184846592Y-104535608D03*
%TD*%
D23*
%TO.C,L26*%
X170012899Y-90612499D03*
X171515501Y-92115101D03*
%TD*%
D24*
%TO.C,L4*%
X143778701Y-90641901D03*
X142276099Y-89139299D03*
%TD*%
D41*
%TO.C,C69*%
X144932400Y-117896600D03*
X144932400Y-119796600D03*
%TD*%
D18*
%TO.C,C55*%
X182535192Y-99172392D03*
X183631208Y-100268408D03*
%TD*%
D42*
%TO.C,D3*%
X140741400Y-113919000D03*
D43*
X139274153Y-115386247D03*
X142208647Y-112451753D03*
%TD*%
D14*
%TO.C,R26*%
X136016163Y-101219837D03*
X134849437Y-102386563D03*
%TD*%
D44*
%TO.C,U6*%
X140847705Y-60991782D03*
D30*
X145584614Y-61620400D03*
X142049080Y-62327507D03*
D44*
X141745731Y-60093756D03*
D30*
X143463293Y-60913293D03*
X144170400Y-63034614D03*
X144877507Y-62327507D03*
X143463293Y-63741720D03*
X144170400Y-61620400D03*
X143463293Y-62327507D03*
X146291720Y-60913293D03*
D45*
X144170400Y-61620400D03*
D30*
X145584614Y-60206186D03*
X144877507Y-59499080D03*
X144877507Y-60913293D03*
X142756186Y-63034614D03*
X142756186Y-61620400D03*
X144170400Y-60206186D03*
D44*
X142643756Y-59195731D03*
X143541782Y-58297705D03*
X147493095Y-62249018D03*
X146595069Y-63147044D03*
X145697044Y-64045069D03*
X144799018Y-64943095D03*
%TD*%
D23*
%TO.C,L2*%
X139242800Y-86055200D03*
X140745402Y-87557802D03*
%TD*%
D20*
%TO.C,R13*%
X130047163Y-79374163D03*
X128880437Y-78207437D03*
%TD*%
%TO.C,R14*%
X128675563Y-80644163D03*
X127508837Y-79477437D03*
%TD*%
D46*
%TO.C,U11*%
X171984025Y-110830277D03*
X171312274Y-110158526D03*
X170640523Y-109486775D03*
X172249191Y-107878107D03*
X172920942Y-108549858D03*
X173592693Y-109221609D03*
%TD*%
D23*
%TO.C,L60*%
X153299699Y-70114699D03*
X154802301Y-71617301D03*
%TD*%
D24*
%TO.C,L57*%
X182081901Y-104992901D03*
X180579299Y-103490299D03*
%TD*%
D15*
%TO.C,C54*%
X156169992Y-88432008D03*
X157266008Y-87335992D03*
%TD*%
D47*
%TO.C,R54*%
X144893800Y-114046000D03*
X143243800Y-114046000D03*
%TD*%
D18*
%TO.C,C57*%
X172476792Y-93482792D03*
X173572808Y-94578808D03*
%TD*%
D14*
%TO.C,R9*%
X143509163Y-92939437D03*
X142342437Y-94106163D03*
%TD*%
D18*
%TO.C,C10*%
X143433800Y-95199200D03*
X144529816Y-96295216D03*
%TD*%
D22*
%TO.C,C72*%
X175985808Y-111571408D03*
X174889792Y-110475392D03*
%TD*%
D15*
%TO.C,C51*%
X171511592Y-89448008D03*
X172607608Y-88351992D03*
%TD*%
%TO.C,C15*%
X140040992Y-102910008D03*
X141137008Y-101813992D03*
%TD*%
D13*
%TO.C,R10*%
X151511837Y-105790163D03*
X152678563Y-104623437D03*
%TD*%
D24*
%TO.C,L31*%
X173852301Y-84266501D03*
X172349699Y-82763899D03*
%TD*%
D18*
%TO.C,C67*%
X146771992Y-116418992D03*
X147868008Y-117515008D03*
%TD*%
D24*
%TO.C,L1*%
X154029602Y-100816602D03*
X152527000Y-99314000D03*
%TD*%
D32*
%TO.C,C39*%
X192303400Y-111287600D03*
X192303400Y-109387600D03*
%TD*%
D48*
%TO.C,U7*%
X181551629Y-97301018D03*
D30*
X176107614Y-97379507D03*
X177521827Y-95965293D03*
X178936041Y-97379507D03*
X178936041Y-94551080D03*
X180350254Y-95965293D03*
D48*
X180653603Y-98199044D03*
D30*
X176814720Y-96672400D03*
X177521827Y-97379507D03*
X178228934Y-98086614D03*
X177521827Y-98793720D03*
X179643148Y-95258186D03*
X179643148Y-96672400D03*
X176814720Y-98086614D03*
X178228934Y-95258186D03*
X178228934Y-96672400D03*
D49*
X178228934Y-96672400D03*
D30*
X178936041Y-95965293D03*
D48*
X179755578Y-99097069D03*
X178857552Y-99995095D03*
X174906239Y-96043782D03*
X175804265Y-95145756D03*
X176702290Y-94247731D03*
X177600316Y-93349705D03*
%TD*%
D27*
%TO.C,L65*%
X157287499Y-75224101D03*
X158790101Y-73721499D03*
%TD*%
D36*
%TO.C,L48*%
X139560300Y-117932200D03*
X137655300Y-117932200D03*
%TD*%
D19*
%TO.C,C70*%
X170535600Y-107340400D03*
X169439584Y-108436416D03*
%TD*%
D22*
%TO.C,C48*%
X181726208Y-102224208D03*
X180630192Y-101128192D03*
%TD*%
D50*
%TO.C,U12*%
X124192509Y-75926571D03*
X124546062Y-75573018D03*
X124899616Y-75219464D03*
X125253169Y-74865911D03*
D51*
X126243119Y-74865911D03*
X126596672Y-75219464D03*
X126950226Y-75573018D03*
X127303779Y-75926571D03*
D50*
X127303779Y-76916521D03*
X126950226Y-77270074D03*
X126596672Y-77623628D03*
X126243119Y-77977181D03*
D51*
X125253169Y-77977181D03*
X124899616Y-77623628D03*
X124546062Y-77270074D03*
X124192509Y-76916521D03*
D52*
X125748144Y-76421546D03*
%TD*%
D20*
%TO.C,R48*%
X175005163Y-107085563D03*
X173838437Y-105918837D03*
%TD*%
D18*
%TO.C,C8*%
X144663792Y-93965392D03*
X145759808Y-95061408D03*
%TD*%
D40*
%TO.C,U2*%
X139287313Y-89232369D03*
X139746932Y-89691988D03*
X140206552Y-90151607D03*
X140666171Y-90611227D03*
X141125791Y-91070846D03*
X141585410Y-91530466D03*
X142045029Y-91990085D03*
X137996843Y-96038271D03*
X137537224Y-95578652D03*
X137077604Y-95119033D03*
X136617985Y-94659413D03*
X136158365Y-94199794D03*
X135698746Y-93740174D03*
X135239127Y-93280555D03*
%TD*%
D24*
%TO.C,L64*%
X175223901Y-88686101D03*
X173721299Y-87183499D03*
%TD*%
D53*
%TO.C,U5*%
X128740460Y-107014336D03*
X129094014Y-107367890D03*
X129447567Y-107721443D03*
X129801120Y-108074996D03*
X130154674Y-108428550D03*
D54*
X130260740Y-109029590D03*
X130614293Y-109383144D03*
X130967847Y-109736697D03*
D53*
X131568887Y-109842763D03*
X131922441Y-110196317D03*
X132275994Y-110549870D03*
X132629547Y-110903423D03*
X132983101Y-111256977D03*
D55*
X132452771Y-112282282D03*
X132099217Y-112635835D03*
X131745664Y-112989388D03*
X131392111Y-113342942D03*
D53*
X130366806Y-113873272D03*
X130013252Y-113519718D03*
X129659699Y-113166165D03*
X129306146Y-112812612D03*
X128952592Y-112459058D03*
D54*
X128846526Y-111858018D03*
X128492973Y-111504464D03*
X128139419Y-111150911D03*
D53*
X127538379Y-111044845D03*
X127184825Y-110691291D03*
X126831272Y-110337738D03*
X126477719Y-109984185D03*
X126124165Y-109630631D03*
D55*
X126654495Y-108605326D03*
X127008049Y-108251773D03*
X127361602Y-107898220D03*
X127715155Y-107544666D03*
D56*
X129553633Y-110443804D03*
D57*
X130900671Y-111790842D03*
X128206595Y-109096766D03*
%TD*%
D27*
%TO.C,L70*%
X161696400Y-91135200D03*
X163199002Y-89632598D03*
%TD*%
D26*
%TO.C,L68*%
X160364901Y-87081899D03*
X158862299Y-88584501D03*
%TD*%
D27*
%TO.C,L11*%
X139101099Y-106466101D03*
X140603701Y-104963499D03*
%TD*%
D26*
%TO.C,L35*%
X170423301Y-81849499D03*
X168920699Y-83352101D03*
%TD*%
D28*
%TO.C,R6*%
X144958637Y-91694837D03*
X146125363Y-92861563D03*
%TD*%
D24*
%TO.C,L28*%
X184723501Y-107710701D03*
X183220899Y-106208099D03*
%TD*%
%TO.C,L34*%
X186399901Y-100624101D03*
X184897299Y-99121499D03*
%TD*%
D15*
%TO.C,C30*%
X151750392Y-83961608D03*
X152846408Y-82865592D03*
%TD*%
D58*
%TO.C,L49*%
X168468972Y-113143956D03*
D59*
X165113751Y-109788735D03*
%TD*%
D60*
%TO.C,C78*%
X162505683Y-107547117D03*
X158935133Y-111117667D03*
%TD*%
D15*
%TO.C,C16*%
X147102192Y-110149008D03*
X148198208Y-109052992D03*
%TD*%
D23*
%TO.C,L66*%
X162001200Y-86004400D03*
X163503802Y-87507002D03*
%TD*%
G36*
X139436161Y-114236204D02*
G01*
X139474702Y-114380040D01*
X139574006Y-114592999D01*
X139708778Y-114785473D01*
X139874927Y-114951622D01*
X140067401Y-115086394D01*
X140280360Y-115185698D01*
X140436330Y-115227490D01*
X140437744Y-115228904D01*
X140437226Y-115230836D01*
X140435413Y-115231382D01*
X140385851Y-115221298D01*
X140316544Y-115227196D01*
X140261664Y-115269445D01*
X140238339Y-115334657D01*
X140254007Y-115402282D01*
X140274252Y-115428950D01*
X140274503Y-115430934D01*
X140272910Y-115432143D01*
X140271245Y-115431573D01*
X139230872Y-114391200D01*
X139230354Y-114389268D01*
X139231768Y-114387854D01*
X139233244Y-114388031D01*
X139294542Y-114421501D01*
X139363624Y-114416561D01*
X139419068Y-114375056D01*
X139443324Y-114310024D01*
X139440628Y-114274215D01*
X139432278Y-114237162D01*
X139432873Y-114235252D01*
X139434824Y-114234812D01*
X139436161Y-114236204D01*
G37*
G36*
X125049049Y-113173156D02*
G01*
X125049080Y-113174711D01*
X125024220Y-113237063D01*
X125037423Y-113305049D01*
X125085288Y-113355107D01*
X125152727Y-113371367D01*
X125195608Y-113361384D01*
X125208813Y-113355670D01*
X125210799Y-113355900D01*
X125211594Y-113357736D01*
X125210783Y-113359124D01*
X125119094Y-113425740D01*
X124819646Y-113725188D01*
X124817714Y-113725706D01*
X124816300Y-113724292D01*
X124816477Y-113722816D01*
X124849947Y-113661518D01*
X124845007Y-113592436D01*
X124803502Y-113536992D01*
X124738564Y-113512771D01*
X124680770Y-113522603D01*
X124676771Y-113524334D01*
X124674785Y-113524105D01*
X124673990Y-113522269D01*
X124674801Y-113520881D01*
X124760838Y-113458370D01*
X125043452Y-113175756D01*
X125045604Y-113172794D01*
X125047431Y-113171981D01*
X125049049Y-113173156D01*
G37*
G36*
X142833195Y-113172122D02*
G01*
X142833018Y-113173598D01*
X142799548Y-113234896D01*
X142804488Y-113303978D01*
X142845993Y-113359422D01*
X142911074Y-113383696D01*
X142934514Y-113383122D01*
X143019136Y-113372882D01*
X143020975Y-113373667D01*
X143021216Y-113375653D01*
X143019689Y-113376843D01*
X142920820Y-113392502D01*
X142809875Y-113449032D01*
X142721832Y-113537075D01*
X142669125Y-113640518D01*
X142667448Y-113641607D01*
X142665666Y-113640699D01*
X142665351Y-113639427D01*
X142670673Y-113581347D01*
X142638705Y-113519911D01*
X142578601Y-113485513D01*
X142507723Y-113489589D01*
X142496927Y-113493519D01*
X142494957Y-113493172D01*
X142494273Y-113491293D01*
X142495132Y-113489977D01*
X142543249Y-113457826D01*
X142829849Y-113171226D01*
X142831781Y-113170708D01*
X142833195Y-113172122D01*
G37*
G36*
X130922825Y-113360230D02*
G01*
X130934046Y-113377023D01*
X131001237Y-113444214D01*
X131001755Y-113446146D01*
X131000341Y-113447560D01*
X130998865Y-113447383D01*
X130937563Y-113413911D01*
X130868481Y-113418851D01*
X130812871Y-113460481D01*
X130801531Y-113478846D01*
X130789229Y-113547212D01*
X130815855Y-113611411D01*
X130820694Y-113616796D01*
X130820793Y-113616915D01*
X130822221Y-113618776D01*
X130822482Y-113620759D01*
X130820895Y-113621977D01*
X130819220Y-113621408D01*
X130692515Y-113494703D01*
X130691997Y-113492771D01*
X130693280Y-113491397D01*
X130803534Y-113453542D01*
X130892291Y-113387384D01*
X130919748Y-113359927D01*
X130921680Y-113359409D01*
X130922825Y-113360230D01*
G37*
G36*
X141208414Y-112403286D02*
G01*
X142250490Y-113445362D01*
X142251008Y-113447294D01*
X142249594Y-113448708D01*
X142248118Y-113448531D01*
X142186820Y-113415061D01*
X142117738Y-113420001D01*
X142062294Y-113461506D01*
X142038042Y-113526526D01*
X142041437Y-113565281D01*
X142048040Y-113591569D01*
X142047492Y-113593492D01*
X142045552Y-113593979D01*
X142044168Y-113592574D01*
X142008098Y-113457960D01*
X141908794Y-113245001D01*
X141774022Y-113052527D01*
X141607873Y-112886378D01*
X141415399Y-112751606D01*
X141202440Y-112652302D01*
X141031364Y-112606462D01*
X141029950Y-112605048D01*
X141030468Y-112603116D01*
X141032233Y-112602561D01*
X141094643Y-112613678D01*
X141094999Y-112611676D01*
X141096287Y-112610146D01*
X141097076Y-112610029D01*
X141146803Y-112612726D01*
X141207010Y-112578492D01*
X141239150Y-112517142D01*
X141233012Y-112448072D01*
X141209685Y-112412450D01*
X141209630Y-112411471D01*
X141205668Y-112406308D01*
X141205581Y-112406184D01*
X141205326Y-112405794D01*
X141205215Y-112403798D01*
X141206889Y-112402703D01*
X141208414Y-112403286D01*
G37*
G36*
X126162574Y-112060876D02*
G01*
X126162397Y-112062352D01*
X126128927Y-112123650D01*
X126133867Y-112192732D01*
X126175372Y-112248176D01*
X126240310Y-112272397D01*
X126298106Y-112262564D01*
X126304830Y-112259654D01*
X126306816Y-112259883D01*
X126307611Y-112261719D01*
X126306800Y-112263107D01*
X126215110Y-112329724D01*
X125986369Y-112558465D01*
X125984437Y-112558983D01*
X125983023Y-112557569D01*
X125983200Y-112556092D01*
X126016673Y-112494791D01*
X126011732Y-112425710D01*
X125970227Y-112370266D01*
X125905289Y-112346045D01*
X125847495Y-112355877D01*
X125843498Y-112357607D01*
X125841512Y-112357378D01*
X125840717Y-112355542D01*
X125841528Y-112354154D01*
X125927564Y-112291644D01*
X126159228Y-112059980D01*
X126161160Y-112059462D01*
X126162574Y-112060876D01*
G37*
G36*
X132604459Y-111582613D02*
G01*
X132731235Y-111709389D01*
X132731753Y-111711321D01*
X132730339Y-111712735D01*
X132728603Y-111712390D01*
X132723691Y-111708621D01*
X132723539Y-111708819D01*
X132721691Y-111709584D01*
X132720994Y-111709356D01*
X132669975Y-111681499D01*
X132600922Y-111686437D01*
X132541566Y-111733453D01*
X132520948Y-111799542D01*
X132539388Y-111866486D01*
X132557021Y-111888748D01*
X132557312Y-111890727D01*
X132555745Y-111891969D01*
X132554039Y-111891404D01*
X132486852Y-111824217D01*
X132470059Y-111812996D01*
X132469174Y-111811202D01*
X132469756Y-111809919D01*
X132497211Y-111782464D01*
X132563689Y-111693116D01*
X132601152Y-111583381D01*
X132602658Y-111582065D01*
X132604459Y-111582613D01*
G37*
G36*
X145452677Y-108811420D02*
G01*
X145756133Y-109114876D01*
X145756651Y-109116808D01*
X145755237Y-109118222D01*
X145753978Y-109118148D01*
X145691769Y-109093345D01*
X145623783Y-109106548D01*
X145573725Y-109154413D01*
X145557492Y-109221742D01*
X145580307Y-109287361D01*
X145593397Y-109302815D01*
X145593754Y-109304783D01*
X145592227Y-109306076D01*
X145590457Y-109305522D01*
X145280508Y-108995573D01*
X145279990Y-108993641D01*
X145281404Y-108992227D01*
X145282663Y-108992301D01*
X145345239Y-109017251D01*
X145413225Y-109004047D01*
X145463284Y-108956182D01*
X145479510Y-108888878D01*
X145453350Y-108818738D01*
X145449689Y-108814068D01*
X145449407Y-108812088D01*
X145450981Y-108810854D01*
X145452677Y-108811420D01*
G37*
G36*
X126553227Y-108996204D02*
G01*
X126620414Y-109063391D01*
X126637207Y-109074612D01*
X126638092Y-109076406D01*
X126637510Y-109077689D01*
X126610055Y-109105144D01*
X126543577Y-109194492D01*
X126506114Y-109304227D01*
X126504608Y-109305543D01*
X126502807Y-109304995D01*
X126376031Y-109178219D01*
X126375513Y-109176287D01*
X126376927Y-109174873D01*
X126378663Y-109175218D01*
X126383575Y-109178987D01*
X126383727Y-109178789D01*
X126385575Y-109178024D01*
X126386272Y-109178252D01*
X126437291Y-109206109D01*
X126506344Y-109201171D01*
X126565700Y-109154155D01*
X126586318Y-109088066D01*
X126567878Y-109021122D01*
X126550245Y-108998860D01*
X126549954Y-108996881D01*
X126551521Y-108995639D01*
X126553227Y-108996204D01*
G37*
G36*
X169007236Y-107588387D02*
G01*
X169007433Y-107590280D01*
X169004337Y-107597752D01*
X168996902Y-107666915D01*
X169027901Y-107728845D01*
X169087464Y-107764186D01*
X169156800Y-107761711D01*
X169193895Y-107741775D01*
X169200199Y-107736832D01*
X169200639Y-107736570D01*
X169212404Y-107731479D01*
X169214390Y-107731709D01*
X169215185Y-107733545D01*
X169214374Y-107734933D01*
X169122686Y-107801548D01*
X168804716Y-108119518D01*
X168726835Y-108226712D01*
X168718480Y-108252425D01*
X168716994Y-108253763D01*
X168715092Y-108253145D01*
X168714593Y-108251562D01*
X168722421Y-108188141D01*
X168692398Y-108125730D01*
X168633398Y-108089459D01*
X168564033Y-108090846D01*
X168537810Y-108104500D01*
X168535812Y-108104413D01*
X168534888Y-108102639D01*
X168535611Y-108101185D01*
X168561802Y-108079517D01*
X168915215Y-107726104D01*
X168968991Y-107661101D01*
X169003782Y-107588649D01*
X169005433Y-107587521D01*
X169007236Y-107588387D01*
G37*
G36*
X128288046Y-107266200D02*
G01*
X128414751Y-107392905D01*
X128415269Y-107394837D01*
X128413986Y-107396211D01*
X128303732Y-107434066D01*
X128214975Y-107500224D01*
X128187518Y-107527681D01*
X128185586Y-107528199D01*
X128184441Y-107527378D01*
X128173220Y-107510585D01*
X128106029Y-107443394D01*
X128105511Y-107441462D01*
X128106925Y-107440048D01*
X128108401Y-107440225D01*
X128169703Y-107473697D01*
X128238785Y-107468757D01*
X128294395Y-107427127D01*
X128305735Y-107408762D01*
X128318037Y-107340396D01*
X128291411Y-107276197D01*
X128286572Y-107270812D01*
X128286473Y-107270693D01*
X128285045Y-107268832D01*
X128284784Y-107266849D01*
X128286371Y-107265631D01*
X128288046Y-107266200D01*
G37*
G36*
X170241463Y-106404098D02*
G01*
X170241286Y-106405574D01*
X170207815Y-106466874D01*
X170212755Y-106535956D01*
X170254260Y-106591400D01*
X170319198Y-106615621D01*
X170376990Y-106605789D01*
X170403148Y-106594469D01*
X170403671Y-106594324D01*
X170424339Y-106591493D01*
X170426190Y-106592248D01*
X170426462Y-106594230D01*
X170425228Y-106595376D01*
X170325896Y-106627651D01*
X170218702Y-106705532D01*
X169900729Y-107023505D01*
X169899797Y-107024788D01*
X169897970Y-107025602D01*
X169896352Y-107024427D01*
X169896321Y-107022872D01*
X169921081Y-106960769D01*
X169907877Y-106892781D01*
X169860012Y-106842726D01*
X169792563Y-106826464D01*
X169755911Y-106834694D01*
X169754002Y-106834098D01*
X169753564Y-106832147D01*
X169754607Y-106830940D01*
X169840301Y-106789791D01*
X169905304Y-106736015D01*
X170238117Y-106403202D01*
X170240049Y-106402684D01*
X170241463Y-106404098D01*
G37*
G36*
X142443363Y-105656420D02*
G01*
X142475132Y-105754194D01*
X142551864Y-105859807D01*
X142860995Y-106168938D01*
X142966608Y-106245670D01*
X143064384Y-106277440D01*
X143065722Y-106278926D01*
X143065104Y-106280828D01*
X143063495Y-106281323D01*
X143028084Y-106276472D01*
X143027059Y-106277795D01*
X143026058Y-106277928D01*
X142978787Y-106272092D01*
X142916375Y-106302114D01*
X142880103Y-106361114D01*
X142881490Y-106430607D01*
X142885849Y-106442292D01*
X142897379Y-106468935D01*
X142897526Y-106469458D01*
X142900357Y-106490128D01*
X142899601Y-106491979D01*
X142897619Y-106492251D01*
X142896473Y-106491017D01*
X142864197Y-106391682D01*
X142786316Y-106284487D01*
X142432991Y-105931162D01*
X142325796Y-105853281D01*
X142226461Y-105821005D01*
X142225123Y-105819519D01*
X142225741Y-105817617D01*
X142227350Y-105817121D01*
X142248020Y-105819952D01*
X142248543Y-105820099D01*
X142277300Y-105832544D01*
X142346337Y-105841065D01*
X142408749Y-105811042D01*
X142445020Y-105752042D01*
X142443868Y-105694401D01*
X142444422Y-105693395D01*
X142443766Y-105688605D01*
X142443747Y-105688373D01*
X142443631Y-105682549D01*
X142442611Y-105679814D01*
X142442504Y-105679386D01*
X142439480Y-105657309D01*
X142440235Y-105655458D01*
X142442217Y-105655186D01*
X142443363Y-105656420D01*
G37*
G36*
X156567132Y-105372698D02*
G01*
X156874666Y-105680232D01*
X156875184Y-105682164D01*
X156873770Y-105683578D01*
X156872018Y-105683220D01*
X156867668Y-105679809D01*
X156867350Y-105680214D01*
X156865494Y-105680960D01*
X156864818Y-105680735D01*
X156814115Y-105653050D01*
X156745033Y-105657990D01*
X156689589Y-105699495D01*
X156665385Y-105764387D01*
X156680154Y-105832277D01*
X156690447Y-105848085D01*
X156695094Y-105854142D01*
X156695355Y-105856125D01*
X156693768Y-105857343D01*
X156692093Y-105856774D01*
X156363723Y-105528404D01*
X156363205Y-105526472D01*
X156364619Y-105525058D01*
X156366551Y-105525576D01*
X156384491Y-105543515D01*
X156445539Y-105576849D01*
X156514621Y-105571907D01*
X156570065Y-105530402D01*
X156594268Y-105465510D01*
X156579499Y-105397625D01*
X156568410Y-105380786D01*
X156564144Y-105375346D01*
X156563862Y-105373366D01*
X156565436Y-105372132D01*
X156567132Y-105372698D01*
G37*
G36*
X154148118Y-104934884D02*
G01*
X154449118Y-105235884D01*
X154540807Y-105302500D01*
X154541620Y-105304327D01*
X154540444Y-105305945D01*
X154538837Y-105305954D01*
X154514108Y-105295253D01*
X154513606Y-105296414D01*
X154512001Y-105297607D01*
X154511030Y-105297478D01*
X154470059Y-105281141D01*
X154402073Y-105294342D01*
X154352013Y-105342205D01*
X154335778Y-105409533D01*
X154358591Y-105475153D01*
X154371677Y-105490603D01*
X154372034Y-105492571D01*
X154370507Y-105493864D01*
X154368737Y-105493310D01*
X154067751Y-105192324D01*
X153976059Y-105125707D01*
X153975246Y-105123880D01*
X153976422Y-105122262D01*
X153978029Y-105122253D01*
X154002759Y-105132955D01*
X154003262Y-105131793D01*
X154004868Y-105130600D01*
X154005838Y-105130729D01*
X154046821Y-105147064D01*
X154114808Y-105133853D01*
X154164859Y-105085984D01*
X154181085Y-105018654D01*
X154158263Y-104953036D01*
X154145178Y-104937591D01*
X154144821Y-104935623D01*
X154146347Y-104934330D01*
X154148118Y-104934884D01*
G37*
G36*
X140931466Y-104031703D02*
G01*
X140932240Y-104033283D01*
X140932240Y-104094819D01*
X140932031Y-104095181D01*
X140932240Y-104095669D01*
X140932240Y-104127595D01*
X140972530Y-104251592D01*
X141049262Y-104357205D01*
X141358393Y-104666336D01*
X141464006Y-104743068D01*
X141561782Y-104774838D01*
X141563120Y-104776324D01*
X141562502Y-104778226D01*
X141560893Y-104778721D01*
X141554603Y-104777859D01*
X141485817Y-104788217D01*
X141433778Y-104833918D01*
X141414684Y-104900588D01*
X141424818Y-104948714D01*
X141432002Y-104965315D01*
X141432147Y-104965838D01*
X141434923Y-104986103D01*
X141434168Y-104987954D01*
X141432186Y-104988226D01*
X141431040Y-104986992D01*
X141399270Y-104889215D01*
X141322538Y-104783603D01*
X140783597Y-104244662D01*
X140693322Y-104179073D01*
X140692509Y-104177246D01*
X140693685Y-104175628D01*
X140695292Y-104175619D01*
X140706823Y-104180609D01*
X140707263Y-104180871D01*
X140729324Y-104198170D01*
X140793937Y-104223932D01*
X140861923Y-104210729D01*
X140911982Y-104162864D01*
X140928296Y-104095200D01*
X140928343Y-104095151D01*
X140928249Y-104095004D01*
X140927304Y-104084819D01*
X140924270Y-104062673D01*
X140924270Y-104062131D01*
X140928259Y-104033012D01*
X140929484Y-104031431D01*
X140931466Y-104031703D01*
G37*
G36*
X152968517Y-103730210D02*
G01*
X153035132Y-103821898D01*
X153353102Y-104139868D01*
X153449047Y-104209576D01*
X153449860Y-104211403D01*
X153448684Y-104213021D01*
X153447626Y-104213179D01*
X153382349Y-104205121D01*
X153319938Y-104235145D01*
X153283667Y-104294144D01*
X153285053Y-104363504D01*
X153304140Y-104399699D01*
X153304063Y-104401698D01*
X153302294Y-104402631D01*
X153300753Y-104401808D01*
X153295753Y-104394927D01*
X152907073Y-104006247D01*
X152821036Y-103943736D01*
X152820223Y-103941909D01*
X152821399Y-103940291D01*
X152823006Y-103940283D01*
X152833868Y-103944984D01*
X152902905Y-103953504D01*
X152965316Y-103923480D01*
X153001586Y-103864479D01*
X153000198Y-103795120D01*
X152979663Y-103756179D01*
X152970416Y-103744385D01*
X152970154Y-103743945D01*
X152965063Y-103732180D01*
X152965293Y-103730194D01*
X152967129Y-103729399D01*
X152968517Y-103730210D01*
G37*
G36*
X181081738Y-102527890D02*
G01*
X181091340Y-102541106D01*
X181409310Y-102859076D01*
X181500999Y-102925692D01*
X181501812Y-102927519D01*
X181500636Y-102929137D01*
X181499029Y-102929146D01*
X181473684Y-102918178D01*
X181473158Y-102918569D01*
X181472187Y-102918440D01*
X181423461Y-102899013D01*
X181355474Y-102912217D01*
X181305419Y-102960082D01*
X181289192Y-103027388D01*
X181315415Y-103097694D01*
X181315382Y-103097887D01*
X181315760Y-103098047D01*
X181361925Y-103156924D01*
X181362187Y-103157364D01*
X181367178Y-103168898D01*
X181366948Y-103170884D01*
X181365112Y-103171679D01*
X181363724Y-103170868D01*
X181312568Y-103100457D01*
X181312513Y-103099934D01*
X181311923Y-103099569D01*
X181298136Y-103080593D01*
X180989005Y-102771462D01*
X180898729Y-102705873D01*
X180897916Y-102704046D01*
X180899092Y-102702428D01*
X180900699Y-102702419D01*
X180925197Y-102713020D01*
X180925607Y-102712072D01*
X180927212Y-102710879D01*
X180928183Y-102711008D01*
X180969898Y-102727640D01*
X181037884Y-102714436D01*
X181087942Y-102666571D01*
X181104168Y-102599266D01*
X181078246Y-102529765D01*
X181078578Y-102527793D01*
X181080452Y-102527094D01*
X181081738Y-102527890D01*
G37*
G36*
X136291507Y-100331260D02*
G01*
X136358124Y-100422951D01*
X136711449Y-100776276D01*
X136815643Y-100851976D01*
X136816456Y-100853803D01*
X136815280Y-100855421D01*
X136814222Y-100855579D01*
X136756776Y-100848489D01*
X136694364Y-100878512D01*
X136658093Y-100937512D01*
X136659480Y-101006871D01*
X136680017Y-101045815D01*
X136694363Y-101064112D01*
X136694625Y-101064552D01*
X136699316Y-101075392D01*
X136699086Y-101077378D01*
X136697250Y-101078173D01*
X136695862Y-101077362D01*
X136633353Y-100991327D01*
X136244673Y-100602647D01*
X136150172Y-100533987D01*
X136149359Y-100532160D01*
X136150535Y-100530542D01*
X136151593Y-100530384D01*
X136212873Y-100537947D01*
X136275284Y-100507923D01*
X136311554Y-100448922D01*
X136310166Y-100379563D01*
X136298704Y-100357826D01*
X136298638Y-100357687D01*
X136288054Y-100333230D01*
X136288283Y-100331244D01*
X136290119Y-100330449D01*
X136291507Y-100331260D01*
G37*
G36*
X178844764Y-98941189D02*
G01*
X178854973Y-98992514D01*
X178897997Y-99056904D01*
X179795743Y-99954650D01*
X179860133Y-99997674D01*
X179911458Y-100007883D01*
X179912962Y-100009202D01*
X179912572Y-100011164D01*
X179911068Y-100011845D01*
X179895614Y-100011845D01*
X179828875Y-100031441D01*
X179783469Y-100083844D01*
X179772328Y-100135058D01*
X179772328Y-100150585D01*
X179771328Y-100152317D01*
X179769328Y-100152317D01*
X179768366Y-100150975D01*
X179758157Y-100099650D01*
X179715133Y-100035260D01*
X178817387Y-99137514D01*
X178752997Y-99094490D01*
X178701672Y-99084281D01*
X178700168Y-99082962D01*
X178700558Y-99081000D01*
X178702062Y-99080319D01*
X178717516Y-99080319D01*
X178784255Y-99060723D01*
X178829661Y-99008320D01*
X178840802Y-98957106D01*
X178840802Y-98941579D01*
X178841802Y-98939847D01*
X178843802Y-98939847D01*
X178844764Y-98941189D01*
G37*
G36*
X159021360Y-99427808D02*
G01*
X159053130Y-99525585D01*
X159129862Y-99631197D01*
X159381495Y-99882830D01*
X159382013Y-99884762D01*
X159380599Y-99886176D01*
X159379123Y-99885999D01*
X159317822Y-99852527D01*
X159248740Y-99857467D01*
X159193296Y-99898972D01*
X159169075Y-99963910D01*
X159178907Y-100021703D01*
X159179602Y-100023308D01*
X159179747Y-100023831D01*
X159182523Y-100044095D01*
X159181768Y-100045946D01*
X159179786Y-100046218D01*
X159178640Y-100044984D01*
X159146870Y-99947208D01*
X159070138Y-99841595D01*
X158818511Y-99589968D01*
X158817993Y-99588036D01*
X158819407Y-99586622D01*
X158820883Y-99586799D01*
X158882178Y-99620267D01*
X158951260Y-99615327D01*
X159006704Y-99573822D01*
X159030925Y-99508884D01*
X159021094Y-99451093D01*
X159020398Y-99449486D01*
X159020253Y-99448963D01*
X159017477Y-99428697D01*
X159018232Y-99426846D01*
X159020214Y-99426574D01*
X159021360Y-99427808D01*
G37*
G36*
X184112873Y-99440929D02*
G01*
X184178462Y-99531205D01*
X184487593Y-99840336D01*
X184506552Y-99854111D01*
X184506816Y-99854703D01*
X184507482Y-99854786D01*
X184577868Y-99905924D01*
X184578681Y-99907751D01*
X184577505Y-99909369D01*
X184575898Y-99909378D01*
X184564364Y-99904387D01*
X184563924Y-99904125D01*
X184505072Y-99857978D01*
X184504913Y-99857581D01*
X184504635Y-99857587D01*
X184439895Y-99831774D01*
X184371909Y-99844978D01*
X184321850Y-99892843D01*
X184305624Y-99960147D01*
X184325812Y-100014275D01*
X184325480Y-100016247D01*
X184325371Y-100016329D01*
X184336146Y-100041229D01*
X184335916Y-100043215D01*
X184334080Y-100044010D01*
X184332692Y-100043199D01*
X184266076Y-99951510D01*
X183948106Y-99633540D01*
X183934968Y-99623995D01*
X183934155Y-99622168D01*
X183935330Y-99620550D01*
X183936885Y-99620519D01*
X184000760Y-99645985D01*
X184068747Y-99632781D01*
X184118802Y-99584916D01*
X184135029Y-99517610D01*
X184117479Y-99470563D01*
X184117811Y-99468591D01*
X184118559Y-99468029D01*
X184120020Y-99467397D01*
X184109419Y-99442899D01*
X184109649Y-99440913D01*
X184111485Y-99440118D01*
X184112873Y-99440929D01*
G37*
G36*
X178579918Y-98868414D02*
G01*
X178579741Y-98869890D01*
X178546269Y-98931192D01*
X178551209Y-99000274D01*
X178592714Y-99055718D01*
X178656960Y-99079681D01*
X178658233Y-99081223D01*
X178657534Y-99083097D01*
X178656651Y-99083517D01*
X178601482Y-99094490D01*
X178537092Y-99137514D01*
X177999971Y-99674635D01*
X177956947Y-99739025D01*
X177946738Y-99790351D01*
X177945419Y-99791855D01*
X177943457Y-99791465D01*
X177942776Y-99789961D01*
X177942776Y-99784745D01*
X177923180Y-99718006D01*
X177870837Y-99672651D01*
X177802093Y-99662767D01*
X177777607Y-99668913D01*
X177757075Y-99676386D01*
X177755105Y-99676039D01*
X177754421Y-99674160D01*
X177755280Y-99672844D01*
X177803396Y-99640694D01*
X178576572Y-98867518D01*
X178578504Y-98867000D01*
X178579918Y-98868414D01*
G37*
G36*
X135372114Y-98552957D02*
G01*
X135439864Y-98646207D01*
X135748995Y-98955338D01*
X135854608Y-99032070D01*
X135952383Y-99063840D01*
X135953721Y-99065326D01*
X135953103Y-99067228D01*
X135951493Y-99067723D01*
X135950301Y-99067559D01*
X135881517Y-99077917D01*
X135829478Y-99123618D01*
X135810408Y-99190200D01*
X135830417Y-99256705D01*
X135846485Y-99276509D01*
X135846800Y-99278484D01*
X135845247Y-99279744D01*
X135843518Y-99279183D01*
X135373397Y-98809062D01*
X135267785Y-98732330D01*
X135170008Y-98700560D01*
X135168670Y-98699074D01*
X135169288Y-98697172D01*
X135170897Y-98696677D01*
X135191163Y-98699453D01*
X135191686Y-98699599D01*
X135202165Y-98704134D01*
X135271202Y-98712655D01*
X135333614Y-98682632D01*
X135369885Y-98623632D01*
X135368496Y-98554173D01*
X135369462Y-98552421D01*
X135371461Y-98552381D01*
X135372114Y-98552957D01*
G37*
G36*
X179742789Y-98043164D02*
G01*
X179752998Y-98094489D01*
X179796022Y-98158879D01*
X180693768Y-99056625D01*
X180758158Y-99099649D01*
X180809483Y-99109858D01*
X180810987Y-99111177D01*
X180810597Y-99113139D01*
X180809093Y-99113820D01*
X180793640Y-99113820D01*
X180726901Y-99133416D01*
X180681495Y-99185819D01*
X180670354Y-99237033D01*
X180670354Y-99252559D01*
X180669354Y-99254291D01*
X180667354Y-99254291D01*
X180666392Y-99252949D01*
X180656183Y-99201624D01*
X180613159Y-99137234D01*
X179715413Y-98239488D01*
X179651023Y-98196464D01*
X179599698Y-98186255D01*
X179598194Y-98184936D01*
X179598584Y-98182974D01*
X179600088Y-98182293D01*
X179615541Y-98182293D01*
X179682280Y-98162697D01*
X179727686Y-98110294D01*
X179738827Y-98059080D01*
X179738827Y-98043554D01*
X179739827Y-98041822D01*
X179741827Y-98041822D01*
X179742789Y-98043164D01*
G37*
G36*
X153469167Y-98794023D02*
G01*
X153501443Y-98893356D01*
X153576098Y-98996111D01*
X153576307Y-98998100D01*
X153574689Y-98999276D01*
X153573318Y-98998914D01*
X153518502Y-98959761D01*
X153449325Y-98956366D01*
X153389296Y-98990909D01*
X153357412Y-99052538D01*
X153356294Y-99092715D01*
X153358222Y-99106794D01*
X153357467Y-99108645D01*
X153355485Y-99108917D01*
X153354339Y-99107683D01*
X153322569Y-99009907D01*
X153247805Y-98907002D01*
X153247596Y-98905013D01*
X153249214Y-98903837D01*
X153250585Y-98904199D01*
X153305175Y-98943191D01*
X153374352Y-98946585D01*
X153434381Y-98912042D01*
X153466264Y-98850413D01*
X153467383Y-98810237D01*
X153465284Y-98794912D01*
X153466039Y-98793061D01*
X153468021Y-98792789D01*
X153469167Y-98794023D01*
G37*
G36*
X179506655Y-97941677D02*
G01*
X179506137Y-97943609D01*
X179477629Y-97972118D01*
X179444294Y-98033167D01*
X179449236Y-98102249D01*
X179490741Y-98157693D01*
X179554986Y-98181655D01*
X179556259Y-98183197D01*
X179555560Y-98185071D01*
X179554677Y-98185491D01*
X179499508Y-98196464D01*
X179435118Y-98239488D01*
X178897997Y-98776609D01*
X178854973Y-98840999D01*
X178843109Y-98900645D01*
X178841790Y-98902149D01*
X178839828Y-98901759D01*
X178839228Y-98900818D01*
X178821206Y-98839439D01*
X178768863Y-98794084D01*
X178700310Y-98784227D01*
X178637073Y-98813107D01*
X178630778Y-98818967D01*
X178628829Y-98819415D01*
X178627466Y-98817951D01*
X178628001Y-98816089D01*
X179503309Y-97940781D01*
X179505241Y-97940263D01*
X179506655Y-97941677D01*
G37*
G36*
X180640815Y-97145138D02*
G01*
X180651024Y-97196463D01*
X180694048Y-97260853D01*
X181591794Y-98158599D01*
X181656184Y-98201623D01*
X181707509Y-98211832D01*
X181709013Y-98213151D01*
X181708623Y-98215113D01*
X181707119Y-98215794D01*
X181691665Y-98215794D01*
X181624926Y-98235390D01*
X181579520Y-98287793D01*
X181568379Y-98339007D01*
X181568379Y-98354534D01*
X181567379Y-98356266D01*
X181565379Y-98356266D01*
X181564417Y-98354924D01*
X181554208Y-98303599D01*
X181511184Y-98239209D01*
X180613438Y-97341463D01*
X180549048Y-97298439D01*
X180497723Y-97288230D01*
X180496219Y-97286911D01*
X180496609Y-97284949D01*
X180498113Y-97284268D01*
X180513567Y-97284268D01*
X180580306Y-97264672D01*
X180625712Y-97212269D01*
X180636853Y-97161055D01*
X180636853Y-97145528D01*
X180637853Y-97143796D01*
X180639853Y-97143796D01*
X180640815Y-97145138D01*
G37*
G36*
X180375967Y-97072365D02*
G01*
X180375790Y-97073841D01*
X180342319Y-97135141D01*
X180347259Y-97204223D01*
X180388764Y-97259667D01*
X180453010Y-97283630D01*
X180454283Y-97285172D01*
X180453584Y-97287046D01*
X180452701Y-97287466D01*
X180397533Y-97298439D01*
X180333143Y-97341463D01*
X179796022Y-97878584D01*
X179752998Y-97942974D01*
X179741134Y-98002620D01*
X179739815Y-98004124D01*
X179737853Y-98003734D01*
X179737253Y-98002793D01*
X179719231Y-97941413D01*
X179666888Y-97896058D01*
X179598335Y-97886201D01*
X179535098Y-97915081D01*
X179528803Y-97920942D01*
X179526854Y-97921390D01*
X179525491Y-97919926D01*
X179526026Y-97918064D01*
X180372621Y-97071469D01*
X180374553Y-97070951D01*
X180375967Y-97072365D01*
G37*
G36*
X161636911Y-97010903D02*
G01*
X161667162Y-97104006D01*
X161740447Y-97204873D01*
X162129127Y-97593553D01*
X162229994Y-97666838D01*
X162323094Y-97697088D01*
X162324432Y-97698574D01*
X162323814Y-97700476D01*
X162322205Y-97700971D01*
X162303146Y-97698360D01*
X162302622Y-97698214D01*
X162302296Y-97698073D01*
X162289659Y-97696513D01*
X162289632Y-97696509D01*
X162286373Y-97696063D01*
X162286201Y-97696086D01*
X162233261Y-97689551D01*
X162170850Y-97719574D01*
X162134578Y-97778573D01*
X162135966Y-97848067D01*
X162139537Y-97857641D01*
X162139205Y-97859613D01*
X162137331Y-97860312D01*
X162136045Y-97859516D01*
X162070138Y-97768803D01*
X161531197Y-97229862D01*
X161440923Y-97164274D01*
X161440110Y-97162447D01*
X161441286Y-97160829D01*
X161442893Y-97160820D01*
X161466111Y-97170867D01*
X161535145Y-97179388D01*
X161597556Y-97149365D01*
X161633875Y-97090287D01*
X161637057Y-97041203D01*
X161633028Y-97011792D01*
X161633783Y-97009941D01*
X161635765Y-97009669D01*
X161636911Y-97010903D01*
G37*
G36*
X133828760Y-96940216D02*
G01*
X133860530Y-97037992D01*
X133937262Y-97143605D01*
X134246393Y-97452736D01*
X134336668Y-97518325D01*
X134337481Y-97520152D01*
X134336305Y-97521770D01*
X134334698Y-97521778D01*
X134325477Y-97517787D01*
X134256440Y-97509266D01*
X134194028Y-97539289D01*
X134157757Y-97598289D01*
X134158970Y-97658947D01*
X134158004Y-97660699D01*
X134156005Y-97660739D01*
X134155352Y-97660163D01*
X134077590Y-97553132D01*
X133724265Y-97199807D01*
X133632575Y-97133191D01*
X133631762Y-97131364D01*
X133632938Y-97129746D01*
X133634545Y-97129737D01*
X133646314Y-97134830D01*
X133646754Y-97135092D01*
X133652874Y-97139890D01*
X133717487Y-97165651D01*
X133785475Y-97152446D01*
X133835530Y-97104581D01*
X133851789Y-97037141D01*
X133841806Y-96994263D01*
X133827798Y-96961892D01*
X133827653Y-96961369D01*
X133824877Y-96941105D01*
X133825632Y-96939254D01*
X133827614Y-96938982D01*
X133828760Y-96940216D01*
G37*
G36*
X155489521Y-96720255D02*
G01*
X155528446Y-96778510D01*
X156065567Y-97315631D01*
X156129957Y-97358655D01*
X156181283Y-97368864D01*
X156182787Y-97370183D01*
X156182397Y-97372145D01*
X156180893Y-97372826D01*
X156176529Y-97372826D01*
X156109790Y-97392422D01*
X156064433Y-97444768D01*
X156054419Y-97512802D01*
X156059115Y-97547087D01*
X156058360Y-97548938D01*
X156056378Y-97549210D01*
X156055232Y-97547976D01*
X156022957Y-97448644D01*
X155945076Y-97341449D01*
X155591751Y-96988124D01*
X155484556Y-96910243D01*
X155363804Y-96871008D01*
X155362466Y-96869522D01*
X155363084Y-96867620D01*
X155364124Y-96867128D01*
X155419191Y-96858834D01*
X155471230Y-96813133D01*
X155490332Y-96746433D01*
X155485890Y-96721720D01*
X155486567Y-96719838D01*
X155488536Y-96719484D01*
X155489521Y-96720255D01*
G37*
G36*
X148660282Y-96829825D02*
G01*
X148825993Y-96995536D01*
X148931606Y-97072268D01*
X149055603Y-97112558D01*
X149149913Y-97112558D01*
X149151645Y-97113558D01*
X149151645Y-97115558D01*
X149150184Y-97116539D01*
X149121065Y-97120528D01*
X149120523Y-97120528D01*
X149106430Y-97118597D01*
X149037644Y-97128955D01*
X148985605Y-97174656D01*
X148966536Y-97241238D01*
X148986546Y-97307743D01*
X149002610Y-97327542D01*
X149002925Y-97329517D01*
X149001372Y-97330777D01*
X148999643Y-97330216D01*
X148835351Y-97165924D01*
X148728156Y-97088043D01*
X148602299Y-97047149D01*
X148506450Y-97047149D01*
X148504718Y-97046149D01*
X148504718Y-97044149D01*
X148506179Y-97043168D01*
X148535862Y-97039102D01*
X148536404Y-97039102D01*
X148553497Y-97041444D01*
X148622281Y-97031086D01*
X148674320Y-96985384D01*
X148693389Y-96918802D01*
X148673379Y-96852297D01*
X148657315Y-96832499D01*
X148657000Y-96830524D01*
X148658553Y-96829264D01*
X148660282Y-96829825D01*
G37*
G36*
X175821989Y-96239092D02*
G01*
X175822589Y-96240033D01*
X175840611Y-96301413D01*
X175892954Y-96346768D01*
X175961507Y-96356625D01*
X176024744Y-96327745D01*
X176031025Y-96321898D01*
X176032974Y-96321450D01*
X176034337Y-96322914D01*
X176033802Y-96324776D01*
X175260640Y-97097938D01*
X175228490Y-97146054D01*
X175226696Y-97146939D01*
X175225033Y-97145828D01*
X175224948Y-97144259D01*
X175232359Y-97123897D01*
X175236771Y-97054478D01*
X175203098Y-96993957D01*
X175141878Y-96961156D01*
X175116776Y-96958558D01*
X175111373Y-96958558D01*
X175109641Y-96957558D01*
X175109641Y-96955558D01*
X175110983Y-96954596D01*
X175162309Y-96944387D01*
X175226699Y-96901363D01*
X175763820Y-96364242D01*
X175806844Y-96299852D01*
X175818708Y-96240206D01*
X175820027Y-96238702D01*
X175821989Y-96239092D01*
G37*
G36*
X181232835Y-96198972D02*
G01*
X181232920Y-96200541D01*
X181225509Y-96220903D01*
X181221097Y-96290322D01*
X181254770Y-96350843D01*
X181315990Y-96383644D01*
X181341092Y-96386242D01*
X181346495Y-96386242D01*
X181348227Y-96387242D01*
X181348227Y-96389242D01*
X181346885Y-96390204D01*
X181295559Y-96400413D01*
X181231169Y-96443437D01*
X180694048Y-96980558D01*
X180651024Y-97044948D01*
X180639160Y-97104594D01*
X180637841Y-97106098D01*
X180635879Y-97105708D01*
X180635279Y-97104767D01*
X180617257Y-97043387D01*
X180564914Y-96998032D01*
X180496361Y-96988175D01*
X180433124Y-97017055D01*
X180426843Y-97022902D01*
X180424894Y-97023350D01*
X180423531Y-97021886D01*
X180424066Y-97020024D01*
X181197228Y-96246862D01*
X181229378Y-96198746D01*
X181231172Y-96197861D01*
X181232835Y-96198972D01*
G37*
G36*
X156402096Y-95403030D02*
G01*
X156402777Y-95404534D01*
X156402777Y-95419988D01*
X156422373Y-95486727D01*
X156474776Y-95532133D01*
X156525990Y-95543274D01*
X156541517Y-95543274D01*
X156543249Y-95544274D01*
X156543249Y-95546274D01*
X156541907Y-95547236D01*
X156490582Y-95557445D01*
X156426192Y-95600469D01*
X155528446Y-96498215D01*
X155485422Y-96562605D01*
X155475213Y-96613930D01*
X155473894Y-96615434D01*
X155471932Y-96615044D01*
X155471251Y-96613540D01*
X155471251Y-96598086D01*
X155451655Y-96531347D01*
X155399252Y-96485941D01*
X155348038Y-96474800D01*
X155332511Y-96474800D01*
X155330779Y-96473800D01*
X155330779Y-96471800D01*
X155332121Y-96470838D01*
X155383446Y-96460629D01*
X155447836Y-96417605D01*
X156345582Y-95519859D01*
X156388606Y-95455469D01*
X156398815Y-95404144D01*
X156400134Y-95402640D01*
X156402096Y-95403030D01*
G37*
G36*
X176720015Y-95341066D02*
G01*
X176720615Y-95342007D01*
X176738637Y-95403387D01*
X176790980Y-95448742D01*
X176859533Y-95458599D01*
X176922770Y-95429719D01*
X176929065Y-95423858D01*
X176931014Y-95423410D01*
X176932377Y-95424874D01*
X176931842Y-95426736D01*
X176085247Y-96273331D01*
X176083315Y-96273849D01*
X176081901Y-96272435D01*
X176082078Y-96270959D01*
X176115549Y-96209659D01*
X176110609Y-96140577D01*
X176069104Y-96085133D01*
X176004858Y-96061170D01*
X176003585Y-96059628D01*
X176004284Y-96057754D01*
X176005167Y-96057334D01*
X176060335Y-96046361D01*
X176124725Y-96003337D01*
X176661846Y-95466216D01*
X176704870Y-95401826D01*
X176716734Y-95342180D01*
X176718053Y-95340676D01*
X176720015Y-95341066D01*
G37*
G36*
X156667021Y-95330487D02*
G01*
X157440183Y-96103649D01*
X157488299Y-96135799D01*
X157489184Y-96137593D01*
X157488073Y-96139256D01*
X157486504Y-96139341D01*
X157466142Y-96131930D01*
X157396723Y-96127518D01*
X157336202Y-96161191D01*
X157303401Y-96222411D01*
X157300803Y-96247513D01*
X157300803Y-96252916D01*
X157299803Y-96254648D01*
X157297803Y-96254648D01*
X157296841Y-96253306D01*
X157286632Y-96201980D01*
X157243608Y-96137590D01*
X156706487Y-95600469D01*
X156642097Y-95557445D01*
X156582451Y-95545581D01*
X156580947Y-95544262D01*
X156581337Y-95542300D01*
X156582278Y-95541700D01*
X156643658Y-95523678D01*
X156689013Y-95471335D01*
X156698870Y-95402782D01*
X156669990Y-95339545D01*
X156664143Y-95333264D01*
X156663695Y-95331315D01*
X156665159Y-95329952D01*
X156667021Y-95330487D01*
G37*
G36*
X174893451Y-94989876D02*
G01*
X174903660Y-95041201D01*
X174946684Y-95105591D01*
X175844430Y-96003337D01*
X175908820Y-96046361D01*
X175960145Y-96056570D01*
X175961649Y-96057889D01*
X175961259Y-96059851D01*
X175959755Y-96060532D01*
X175944301Y-96060532D01*
X175877562Y-96080128D01*
X175832156Y-96132531D01*
X175821015Y-96183745D01*
X175821015Y-96199272D01*
X175820015Y-96201004D01*
X175818015Y-96201004D01*
X175817053Y-96199662D01*
X175806844Y-96148337D01*
X175763820Y-96083947D01*
X174866074Y-95186201D01*
X174801684Y-95143177D01*
X174750359Y-95132968D01*
X174748855Y-95131649D01*
X174749245Y-95129687D01*
X174750749Y-95129006D01*
X174766203Y-95129006D01*
X174832942Y-95109410D01*
X174878348Y-95057007D01*
X174889489Y-95005793D01*
X174889489Y-94990266D01*
X174890489Y-94988534D01*
X174892489Y-94988534D01*
X174893451Y-94989876D01*
G37*
G36*
X128512350Y-95211252D02*
G01*
X128512845Y-95212861D01*
X128509804Y-95235057D01*
X128520164Y-95303843D01*
X128565865Y-95355881D01*
X128632536Y-95374975D01*
X128680660Y-95364841D01*
X128713106Y-95350800D01*
X128713629Y-95350655D01*
X128733893Y-95347879D01*
X128735744Y-95348634D01*
X128736016Y-95350616D01*
X128734782Y-95351762D01*
X128637006Y-95383532D01*
X128531393Y-95460264D01*
X128222262Y-95769395D01*
X128145530Y-95875008D01*
X128113760Y-95972784D01*
X128112274Y-95974122D01*
X128110372Y-95973504D01*
X128109877Y-95971895D01*
X128114753Y-95936299D01*
X128113726Y-95935503D01*
X128113593Y-95934502D01*
X128119563Y-95886127D01*
X128089538Y-95823716D01*
X128030538Y-95787447D01*
X127961044Y-95788837D01*
X127949384Y-95793187D01*
X127949328Y-95793211D01*
X127948796Y-95793360D01*
X127929734Y-95795971D01*
X127927883Y-95795216D01*
X127927611Y-95793234D01*
X127928845Y-95792088D01*
X128021946Y-95761838D01*
X128122813Y-95688553D01*
X128405427Y-95405939D01*
X128478712Y-95305072D01*
X128508962Y-95211972D01*
X128510448Y-95210634D01*
X128512350Y-95211252D01*
G37*
G36*
X148967507Y-95296541D02*
G01*
X148967516Y-95298148D01*
X148962825Y-95308988D01*
X148962563Y-95309428D01*
X148943374Y-95333901D01*
X148917612Y-95398515D01*
X148930816Y-95466501D01*
X148978681Y-95516559D01*
X149045986Y-95532785D01*
X149116126Y-95506624D01*
X149132134Y-95494073D01*
X149132574Y-95493811D01*
X149144106Y-95488821D01*
X149146092Y-95489051D01*
X149146887Y-95490887D01*
X149146076Y-95492275D01*
X149055803Y-95557862D01*
X148685277Y-95928388D01*
X148683345Y-95928906D01*
X148681931Y-95927492D01*
X148682108Y-95926016D01*
X148715580Y-95864715D01*
X148710640Y-95795633D01*
X148669135Y-95740189D01*
X148604197Y-95715968D01*
X148546406Y-95725799D01*
X148534874Y-95730790D01*
X148532888Y-95730560D01*
X148532093Y-95728724D01*
X148532904Y-95727336D01*
X148618939Y-95664827D01*
X148901553Y-95382213D01*
X148964062Y-95296178D01*
X148965889Y-95295365D01*
X148967507Y-95296541D01*
G37*
G36*
X155504071Y-94505005D02*
G01*
X155504752Y-94506509D01*
X155504752Y-94521962D01*
X155524348Y-94588701D01*
X155576751Y-94634107D01*
X155627965Y-94645248D01*
X155643491Y-94645248D01*
X155645223Y-94646248D01*
X155645223Y-94648248D01*
X155643881Y-94649210D01*
X155592556Y-94659419D01*
X155528166Y-94702443D01*
X154630420Y-95600189D01*
X154587396Y-95664579D01*
X154577187Y-95715904D01*
X154575868Y-95717408D01*
X154573906Y-95717018D01*
X154573225Y-95715514D01*
X154573225Y-95700061D01*
X154553629Y-95633322D01*
X154501226Y-95587916D01*
X154450012Y-95576775D01*
X154434486Y-95576775D01*
X154432754Y-95575775D01*
X154432754Y-95573775D01*
X154434096Y-95572813D01*
X154485421Y-95562604D01*
X154549811Y-95519580D01*
X155447557Y-94621834D01*
X155490581Y-94557444D01*
X155500790Y-94506119D01*
X155502109Y-94504615D01*
X155504071Y-94505005D01*
G37*
G36*
X177618040Y-94443041D02*
G01*
X177618640Y-94443982D01*
X177636662Y-94505361D01*
X177689005Y-94550716D01*
X177757558Y-94560573D01*
X177820795Y-94531693D01*
X177827090Y-94525833D01*
X177829039Y-94525385D01*
X177830402Y-94526849D01*
X177829867Y-94528711D01*
X176955168Y-95403410D01*
X176953236Y-95403928D01*
X176951822Y-95402514D01*
X176952340Y-95400582D01*
X176980239Y-95372682D01*
X177013574Y-95311633D01*
X177008632Y-95242551D01*
X176967127Y-95187107D01*
X176902882Y-95163145D01*
X176901609Y-95161603D01*
X176902308Y-95159729D01*
X176903191Y-95159309D01*
X176958360Y-95148336D01*
X177022750Y-95105312D01*
X177559871Y-94568191D01*
X177602895Y-94503801D01*
X177614759Y-94444155D01*
X177616078Y-94442651D01*
X177618040Y-94443041D01*
G37*
G36*
X155768981Y-94432447D02*
G01*
X156615576Y-95279042D01*
X156616094Y-95280974D01*
X156614680Y-95282388D01*
X156613204Y-95282211D01*
X156551904Y-95248740D01*
X156482822Y-95253680D01*
X156427378Y-95295185D01*
X156403415Y-95359431D01*
X156401873Y-95360704D01*
X156399999Y-95360005D01*
X156399579Y-95359122D01*
X156388606Y-95303954D01*
X156345582Y-95239564D01*
X155808461Y-94702443D01*
X155744071Y-94659419D01*
X155684425Y-94647555D01*
X155682921Y-94646236D01*
X155683311Y-94644274D01*
X155684252Y-94643674D01*
X155745632Y-94625652D01*
X155790987Y-94573309D01*
X155800844Y-94504756D01*
X155771964Y-94441519D01*
X155766103Y-94435224D01*
X155765655Y-94433275D01*
X155767119Y-94431912D01*
X155768981Y-94432447D01*
G37*
G36*
X175791476Y-94091851D02*
G01*
X175801685Y-94143176D01*
X175844709Y-94207566D01*
X176742455Y-95105312D01*
X176806845Y-95148336D01*
X176858170Y-95158545D01*
X176859674Y-95159864D01*
X176859284Y-95161826D01*
X176857780Y-95162507D01*
X176842327Y-95162507D01*
X176775588Y-95182103D01*
X176730182Y-95234506D01*
X176719041Y-95285720D01*
X176719041Y-95301246D01*
X176718041Y-95302978D01*
X176716041Y-95302978D01*
X176715079Y-95301636D01*
X176704870Y-95250311D01*
X176661846Y-95185921D01*
X175764100Y-94288175D01*
X175699710Y-94245151D01*
X175648385Y-94234942D01*
X175646881Y-94233623D01*
X175647271Y-94231661D01*
X175648775Y-94230980D01*
X175664228Y-94230980D01*
X175730967Y-94211384D01*
X175776373Y-94158981D01*
X175787514Y-94107767D01*
X175787514Y-94092241D01*
X175788514Y-94090509D01*
X175790514Y-94090509D01*
X175791476Y-94091851D01*
G37*
G36*
X143025582Y-94355066D02*
G01*
X143025590Y-94356673D01*
X143019562Y-94370602D01*
X143011042Y-94439639D01*
X143041066Y-94502050D01*
X143100066Y-94538320D01*
X143169426Y-94536932D01*
X143208366Y-94516398D01*
X143229770Y-94499616D01*
X143230210Y-94499354D01*
X143241977Y-94494262D01*
X143243963Y-94494492D01*
X143244758Y-94496328D01*
X143243947Y-94497716D01*
X143152257Y-94564332D01*
X142798932Y-94917657D01*
X142732316Y-95009347D01*
X142730489Y-95010160D01*
X142728871Y-95008984D01*
X142728862Y-95007377D01*
X142733954Y-94995610D01*
X142734216Y-94995170D01*
X142752058Y-94972415D01*
X142777819Y-94907802D01*
X142764615Y-94839814D01*
X142716750Y-94789759D01*
X142649310Y-94773499D01*
X142606433Y-94783481D01*
X142592947Y-94789316D01*
X142590961Y-94789086D01*
X142590166Y-94787250D01*
X142590977Y-94785862D01*
X142677013Y-94723353D01*
X142959627Y-94440739D01*
X143022137Y-94354703D01*
X143023964Y-94353890D01*
X143025582Y-94355066D01*
G37*
G36*
X154606045Y-93606979D02*
G01*
X154606726Y-93608483D01*
X154606726Y-93623937D01*
X154626322Y-93690676D01*
X154678725Y-93736082D01*
X154729939Y-93747223D01*
X154745466Y-93747223D01*
X154747198Y-93748223D01*
X154747198Y-93750223D01*
X154745856Y-93751185D01*
X154694531Y-93761394D01*
X154630141Y-93804418D01*
X153732395Y-94702164D01*
X153689371Y-94766554D01*
X153679162Y-94817879D01*
X153677843Y-94819383D01*
X153675881Y-94818993D01*
X153675200Y-94817489D01*
X153675200Y-94802035D01*
X153655604Y-94735296D01*
X153603201Y-94689890D01*
X153551987Y-94678749D01*
X153536460Y-94678749D01*
X153534728Y-94677749D01*
X153534728Y-94675749D01*
X153536070Y-94674787D01*
X153587395Y-94664578D01*
X153651785Y-94621554D01*
X154549531Y-93723808D01*
X154592555Y-93659418D01*
X154602764Y-93608093D01*
X154604083Y-93606589D01*
X154606045Y-93606979D01*
G37*
G36*
X152779714Y-93964101D02*
G01*
X152780455Y-93965295D01*
X152791345Y-94020043D01*
X152834369Y-94084433D01*
X153371490Y-94621554D01*
X153419603Y-94653702D01*
X153420488Y-94655496D01*
X153419377Y-94657159D01*
X153417808Y-94657244D01*
X153409285Y-94654142D01*
X153408751Y-94653850D01*
X153388441Y-94638265D01*
X153323566Y-94613184D01*
X153255720Y-94627098D01*
X153206167Y-94675484D01*
X153192699Y-94734028D01*
X153191336Y-94735492D01*
X153189387Y-94735044D01*
X153188848Y-94734198D01*
X153149888Y-94614293D01*
X153072007Y-94507098D01*
X152718682Y-94153773D01*
X152614869Y-94078349D01*
X152614056Y-94076522D01*
X152615232Y-94074904D01*
X152616290Y-94074746D01*
X152674096Y-94081882D01*
X152736507Y-94051858D01*
X152772864Y-93992719D01*
X152776511Y-93965420D01*
X152777731Y-93963836D01*
X152779714Y-93964101D01*
G37*
G36*
X130933160Y-93943015D02*
G01*
X130964930Y-94040792D01*
X131041662Y-94146405D01*
X131350793Y-94455536D01*
X131441068Y-94521125D01*
X131441881Y-94522952D01*
X131440705Y-94524570D01*
X131439097Y-94524578D01*
X131437020Y-94523679D01*
X131367985Y-94515158D01*
X131305573Y-94545181D01*
X131269302Y-94604181D01*
X131270458Y-94662019D01*
X131269966Y-94662911D01*
X131270547Y-94667153D01*
X131270565Y-94667384D01*
X131270691Y-94673674D01*
X131271798Y-94676641D01*
X131271906Y-94677069D01*
X131274924Y-94699104D01*
X131274168Y-94700955D01*
X131272186Y-94701227D01*
X131271040Y-94699993D01*
X131239270Y-94602215D01*
X131162538Y-94496603D01*
X130717821Y-94051886D01*
X130717303Y-94049954D01*
X130718717Y-94048540D01*
X130720193Y-94048717D01*
X130781491Y-94082187D01*
X130850573Y-94077247D01*
X130906017Y-94035742D01*
X130930288Y-93970669D01*
X130929465Y-93945289D01*
X130929276Y-93943904D01*
X130930032Y-93942052D01*
X130932014Y-93941781D01*
X130933160Y-93943015D01*
G37*
G36*
X129687895Y-93929978D02*
G01*
X129691651Y-93957400D01*
X129691652Y-93957942D01*
X129687897Y-93985360D01*
X129698256Y-94054141D01*
X129743958Y-94106180D01*
X129810540Y-94125248D01*
X129877045Y-94105237D01*
X129896842Y-94089174D01*
X129898817Y-94088859D01*
X129900077Y-94090412D01*
X129899516Y-94092141D01*
X129724864Y-94266793D01*
X129648132Y-94372406D01*
X129607842Y-94496403D01*
X129607842Y-94517995D01*
X129606842Y-94519727D01*
X129604842Y-94519727D01*
X129603864Y-94518293D01*
X129594501Y-94456126D01*
X129548800Y-94404087D01*
X129482218Y-94385018D01*
X129415713Y-94405028D01*
X129395915Y-94421092D01*
X129393940Y-94421407D01*
X129392680Y-94419854D01*
X129393241Y-94418125D01*
X129572153Y-94239213D01*
X129645438Y-94138346D01*
X129683914Y-94019928D01*
X129683914Y-93985625D01*
X129684054Y-93985382D01*
X129683914Y-93985096D01*
X129683914Y-93930249D01*
X129684914Y-93928517D01*
X129686914Y-93928517D01*
X129687895Y-93929978D01*
G37*
G36*
X168009251Y-93827408D02*
G01*
X168010337Y-93828903D01*
X168328310Y-94146876D01*
X168435504Y-94224757D01*
X168534837Y-94257032D01*
X168536175Y-94258518D01*
X168535557Y-94260420D01*
X168533948Y-94260916D01*
X168514570Y-94258262D01*
X168445789Y-94268621D01*
X168393750Y-94314322D01*
X168374681Y-94380904D01*
X168394709Y-94447469D01*
X168400824Y-94456008D01*
X168419801Y-94480209D01*
X168420063Y-94480649D01*
X168424755Y-94491492D01*
X168424525Y-94493478D01*
X168422689Y-94494273D01*
X168421301Y-94493462D01*
X168358790Y-94407424D01*
X168076176Y-94124810D01*
X167975309Y-94051525D01*
X167882212Y-94021276D01*
X167880874Y-94019790D01*
X167881492Y-94017888D01*
X167883102Y-94017393D01*
X167885667Y-94017745D01*
X167954451Y-94007385D01*
X168006490Y-93961684D01*
X168025559Y-93895102D01*
X168005718Y-93829159D01*
X168006176Y-93827213D01*
X168008092Y-93826636D01*
X168009251Y-93827408D01*
G37*
G36*
X178514411Y-93553335D02*
G01*
X178515092Y-93554839D01*
X178515092Y-93560055D01*
X178534688Y-93626794D01*
X178587031Y-93672149D01*
X178655775Y-93682033D01*
X178680261Y-93675887D01*
X178700793Y-93668414D01*
X178702763Y-93668761D01*
X178703447Y-93670640D01*
X178702588Y-93671956D01*
X178654472Y-93704106D01*
X177881296Y-94477282D01*
X177879364Y-94477800D01*
X177877950Y-94476386D01*
X177878127Y-94474910D01*
X177911599Y-94413608D01*
X177906659Y-94344526D01*
X177865154Y-94289082D01*
X177800908Y-94265119D01*
X177799635Y-94263577D01*
X177800334Y-94261703D01*
X177801217Y-94261283D01*
X177856386Y-94250310D01*
X177920776Y-94207286D01*
X178457897Y-93670165D01*
X178500921Y-93605775D01*
X178511130Y-93554449D01*
X178512449Y-93552945D01*
X178514411Y-93553335D01*
G37*
G36*
X154870956Y-93534422D02*
G01*
X155747956Y-94411422D01*
X155748474Y-94413354D01*
X155747060Y-94414768D01*
X155745128Y-94414250D01*
X155714927Y-94384050D01*
X155653878Y-94350715D01*
X155584796Y-94355657D01*
X155529352Y-94397162D01*
X155505390Y-94461407D01*
X155503848Y-94462680D01*
X155501974Y-94461981D01*
X155501554Y-94461098D01*
X155490581Y-94405929D01*
X155447557Y-94341539D01*
X154910436Y-93804418D01*
X154846046Y-93761394D01*
X154786400Y-93749530D01*
X154784896Y-93748211D01*
X154785286Y-93746249D01*
X154786227Y-93745649D01*
X154847606Y-93727627D01*
X154892961Y-93675284D01*
X154902818Y-93606731D01*
X154873938Y-93543494D01*
X154868078Y-93537199D01*
X154867630Y-93535250D01*
X154869094Y-93533887D01*
X154870956Y-93534422D01*
G37*
G36*
X176689502Y-93193825D02*
G01*
X176699711Y-93245150D01*
X176742735Y-93309540D01*
X177640481Y-94207286D01*
X177704871Y-94250310D01*
X177756196Y-94260519D01*
X177757700Y-94261838D01*
X177757310Y-94263800D01*
X177755806Y-94264481D01*
X177740352Y-94264481D01*
X177673613Y-94284077D01*
X177628207Y-94336480D01*
X177617066Y-94387694D01*
X177617066Y-94403221D01*
X177616066Y-94404953D01*
X177614066Y-94404953D01*
X177613104Y-94403611D01*
X177602895Y-94352286D01*
X177559871Y-94287896D01*
X176662125Y-93390150D01*
X176597735Y-93347126D01*
X176546410Y-93336917D01*
X176544906Y-93335598D01*
X176545296Y-93333636D01*
X176546800Y-93332955D01*
X176562254Y-93332955D01*
X176628993Y-93313359D01*
X176674399Y-93260956D01*
X176685540Y-93209742D01*
X176685540Y-93194215D01*
X176686540Y-93192483D01*
X176688540Y-93192483D01*
X176689502Y-93193825D01*
G37*
G36*
X130257404Y-93578507D02*
G01*
X130256649Y-93580290D01*
X130209139Y-93617543D01*
X130168713Y-93674142D01*
X130165320Y-93743319D01*
X130199863Y-93803348D01*
X130261492Y-93835231D01*
X130301669Y-93836349D01*
X130328526Y-93832670D01*
X130329068Y-93832670D01*
X130358187Y-93836659D01*
X130359768Y-93837884D01*
X130359496Y-93839866D01*
X130357916Y-93840640D01*
X130263605Y-93840640D01*
X130139608Y-93880930D01*
X130053850Y-93943236D01*
X130051861Y-93943445D01*
X130050685Y-93941827D01*
X130051440Y-93940044D01*
X130097053Y-93904280D01*
X130137479Y-93847681D01*
X130140874Y-93778504D01*
X130106331Y-93718476D01*
X130044702Y-93686592D01*
X130004533Y-93685473D01*
X129975142Y-93689498D01*
X129974600Y-93689497D01*
X129944922Y-93685432D01*
X129943341Y-93684207D01*
X129943613Y-93682225D01*
X129945193Y-93681451D01*
X130041038Y-93681451D01*
X130166896Y-93640557D01*
X130254239Y-93577098D01*
X130256228Y-93576889D01*
X130257404Y-93578507D01*
G37*
G36*
X129212167Y-93002823D02*
G01*
X129244443Y-93102156D01*
X129322324Y-93209351D01*
X129675649Y-93562676D01*
X129782844Y-93640557D01*
X129882179Y-93672833D01*
X129883517Y-93674319D01*
X129882899Y-93676221D01*
X129881290Y-93676717D01*
X129860620Y-93673886D01*
X129860097Y-93673739D01*
X129826314Y-93659119D01*
X129757277Y-93650598D01*
X129694865Y-93680621D01*
X129658594Y-93739621D01*
X129659983Y-93809091D01*
X129659473Y-93810015D01*
X129660720Y-93811090D01*
X129664334Y-93820778D01*
X129676815Y-93849621D01*
X129676960Y-93850144D01*
X129679571Y-93869206D01*
X129678816Y-93871057D01*
X129676834Y-93871329D01*
X129675688Y-93870095D01*
X129656944Y-93812407D01*
X129657269Y-93810878D01*
X129657018Y-93810883D01*
X129656081Y-93809749D01*
X129645438Y-93776994D01*
X129572153Y-93676127D01*
X129183473Y-93287447D01*
X129082606Y-93214162D01*
X129062347Y-93207580D01*
X129061009Y-93206094D01*
X129061627Y-93204192D01*
X129063210Y-93203693D01*
X129125363Y-93211363D01*
X129187774Y-93181340D01*
X129224045Y-93122339D01*
X129222656Y-93052846D01*
X129218305Y-93041182D01*
X129211260Y-93024901D01*
X129211115Y-93024378D01*
X129208284Y-93003712D01*
X129209039Y-93001861D01*
X129211021Y-93001589D01*
X129212167Y-93002823D01*
G37*
G36*
X144196873Y-93182056D02*
G01*
X144197031Y-93183114D01*
X144189213Y-93246464D01*
X144219237Y-93308875D01*
X144278237Y-93345145D01*
X144347597Y-93343757D01*
X144382854Y-93325165D01*
X144384853Y-93325242D01*
X144385786Y-93327011D01*
X144384963Y-93328552D01*
X144382249Y-93330524D01*
X144028924Y-93683849D01*
X143962308Y-93775539D01*
X143960481Y-93776352D01*
X143958863Y-93775176D01*
X143958854Y-93773569D01*
X143965029Y-93759299D01*
X143973551Y-93690265D01*
X143943527Y-93627854D01*
X143884528Y-93591583D01*
X143815168Y-93592969D01*
X143776225Y-93613505D01*
X143770954Y-93617637D01*
X143770514Y-93617899D01*
X143759674Y-93622590D01*
X143757688Y-93622360D01*
X143756893Y-93620524D01*
X143757704Y-93619136D01*
X143843739Y-93556627D01*
X144126353Y-93274013D01*
X144193428Y-93181693D01*
X144195255Y-93180880D01*
X144196873Y-93182056D01*
G37*
G36*
X159425342Y-92706755D02*
G01*
X159425762Y-92707638D01*
X159436735Y-92762807D01*
X159479759Y-92827197D01*
X160016880Y-93364318D01*
X160081270Y-93407342D01*
X160132596Y-93417551D01*
X160134100Y-93418870D01*
X160133710Y-93420832D01*
X160132206Y-93421513D01*
X160126990Y-93421513D01*
X160060251Y-93441109D01*
X160014896Y-93493452D01*
X160005012Y-93562196D01*
X160011158Y-93586682D01*
X160018631Y-93607214D01*
X160018284Y-93609184D01*
X160016405Y-93609868D01*
X160015089Y-93609009D01*
X159982939Y-93560893D01*
X159209763Y-92787717D01*
X159209245Y-92785785D01*
X159210659Y-92784371D01*
X159212135Y-92784548D01*
X159273437Y-92818020D01*
X159342519Y-92813080D01*
X159397963Y-92771575D01*
X159421926Y-92707329D01*
X159423468Y-92706056D01*
X159425342Y-92706755D01*
G37*
G36*
X154014201Y-92661701D02*
G01*
X154046351Y-92709817D01*
X154819527Y-93482993D01*
X154820045Y-93484925D01*
X154818631Y-93486339D01*
X154817155Y-93486162D01*
X154755853Y-93452690D01*
X154686771Y-93457630D01*
X154631327Y-93499135D01*
X154607364Y-93563381D01*
X154605822Y-93564654D01*
X154603948Y-93563955D01*
X154603528Y-93563072D01*
X154592555Y-93507903D01*
X154549531Y-93443513D01*
X154012410Y-92906392D01*
X153948020Y-92863368D01*
X153896694Y-92853159D01*
X153895190Y-92851840D01*
X153895580Y-92849878D01*
X153897084Y-92849197D01*
X153902300Y-92849197D01*
X153969039Y-92829601D01*
X154014394Y-92777258D01*
X154024278Y-92708514D01*
X154018132Y-92684028D01*
X154010659Y-92663496D01*
X154011006Y-92661526D01*
X154012885Y-92660842D01*
X154014201Y-92661701D01*
G37*
G36*
X166847709Y-92641202D02*
G01*
X166914324Y-92732890D01*
X167232294Y-93050860D01*
X167339488Y-93128741D01*
X167438821Y-93161017D01*
X167440159Y-93162503D01*
X167439541Y-93164405D01*
X167437932Y-93164900D01*
X167401819Y-93159953D01*
X167401168Y-93160792D01*
X167400167Y-93160925D01*
X167351094Y-93154868D01*
X167288683Y-93184891D01*
X167252412Y-93243891D01*
X167253800Y-93313384D01*
X167258095Y-93324900D01*
X167257763Y-93326872D01*
X167255889Y-93327571D01*
X167254603Y-93326775D01*
X167192064Y-93240698D01*
X166909450Y-92958084D01*
X166808583Y-92884799D01*
X166715480Y-92854548D01*
X166714142Y-92853062D01*
X166714760Y-92851160D01*
X166716369Y-92850665D01*
X166736045Y-92853361D01*
X166804829Y-92843003D01*
X166856868Y-92797301D01*
X166875937Y-92730719D01*
X166855909Y-92664154D01*
X166849797Y-92655619D01*
X166849607Y-92655376D01*
X166849346Y-92654937D01*
X166844255Y-92643172D01*
X166844485Y-92641186D01*
X166846321Y-92640391D01*
X166847709Y-92641202D01*
G37*
G36*
X177071737Y-92330624D02*
G01*
X177071746Y-92332231D01*
X177066654Y-92343998D01*
X177066392Y-92344438D01*
X177034386Y-92385256D01*
X177008624Y-92449869D01*
X177021828Y-92517855D01*
X177069693Y-92567914D01*
X177137020Y-92584146D01*
X177202640Y-92561331D01*
X177218081Y-92548252D01*
X177220049Y-92547895D01*
X177221342Y-92549422D01*
X177220788Y-92551192D01*
X176777584Y-92994396D01*
X176775652Y-92994914D01*
X176774238Y-92993500D01*
X176774415Y-92992024D01*
X176807883Y-92930729D01*
X176802943Y-92861647D01*
X176761438Y-92806203D01*
X176696546Y-92781999D01*
X176628661Y-92796767D01*
X176611821Y-92807857D01*
X176570838Y-92839992D01*
X176570398Y-92840254D01*
X176558631Y-92845346D01*
X176556645Y-92845116D01*
X176555850Y-92843280D01*
X176556661Y-92841892D01*
X176648351Y-92775276D01*
X177001676Y-92421951D01*
X177068292Y-92330261D01*
X177070119Y-92329448D01*
X177071737Y-92330624D01*
G37*
G36*
X158527316Y-91808729D02*
G01*
X158527736Y-91809612D01*
X158538709Y-91864781D01*
X158581733Y-91929171D01*
X159118854Y-92466292D01*
X159183244Y-92509316D01*
X159242890Y-92521180D01*
X159244394Y-92522499D01*
X159244004Y-92524461D01*
X159243063Y-92525061D01*
X159181684Y-92543083D01*
X159136329Y-92595426D01*
X159126472Y-92663979D01*
X159155352Y-92727216D01*
X159161212Y-92733511D01*
X159161660Y-92735460D01*
X159160196Y-92736823D01*
X159158334Y-92736288D01*
X158281959Y-91859913D01*
X158281441Y-91857981D01*
X158282855Y-91856567D01*
X158284787Y-91857085D01*
X158314363Y-91886660D01*
X158375412Y-91919995D01*
X158444494Y-91915053D01*
X158499938Y-91873548D01*
X158523900Y-91809303D01*
X158525442Y-91808030D01*
X158527316Y-91808729D01*
G37*
G36*
X160353409Y-91451717D02*
G01*
X160354090Y-91453221D01*
X160354090Y-91468675D01*
X160373686Y-91535414D01*
X160426089Y-91580820D01*
X160477303Y-91591961D01*
X160492830Y-91591961D01*
X160494562Y-91592961D01*
X160494562Y-91594961D01*
X160493220Y-91595923D01*
X160441895Y-91606132D01*
X160377505Y-91649156D01*
X159479759Y-92546902D01*
X159436735Y-92611292D01*
X159426526Y-92662617D01*
X159425207Y-92664121D01*
X159423245Y-92663731D01*
X159422564Y-92662227D01*
X159422564Y-92646773D01*
X159402968Y-92580034D01*
X159350565Y-92534628D01*
X159299351Y-92523487D01*
X159283824Y-92523487D01*
X159282092Y-92522487D01*
X159282092Y-92520487D01*
X159283434Y-92519525D01*
X159334759Y-92509316D01*
X159399149Y-92466292D01*
X160296895Y-91568546D01*
X160339919Y-91504156D01*
X160350128Y-91452831D01*
X160351447Y-91451327D01*
X160353409Y-91451717D01*
G37*
G36*
X157629291Y-90910705D02*
G01*
X157629711Y-90911588D01*
X157640684Y-90966756D01*
X157683708Y-91031146D01*
X158220829Y-91568267D01*
X158285219Y-91611291D01*
X158344865Y-91623155D01*
X158346369Y-91624474D01*
X158345979Y-91626436D01*
X158345038Y-91627036D01*
X158283658Y-91645058D01*
X158238303Y-91697401D01*
X158228446Y-91765954D01*
X158257326Y-91829191D01*
X158263187Y-91835486D01*
X158263635Y-91837435D01*
X158262171Y-91838798D01*
X158260309Y-91838263D01*
X157413714Y-90991668D01*
X157413196Y-90989736D01*
X157414610Y-90988322D01*
X157416086Y-90988499D01*
X157477386Y-91021970D01*
X157546468Y-91017030D01*
X157601912Y-90975525D01*
X157625875Y-90911279D01*
X157627417Y-90910006D01*
X157629291Y-90910705D01*
G37*
G36*
X159455384Y-90553692D02*
G01*
X159456065Y-90555196D01*
X159456065Y-90570649D01*
X159475661Y-90637388D01*
X159528064Y-90682794D01*
X159579278Y-90693935D01*
X159594804Y-90693935D01*
X159596536Y-90694935D01*
X159596536Y-90696935D01*
X159595194Y-90697897D01*
X159543869Y-90708106D01*
X159479479Y-90751130D01*
X158581733Y-91648876D01*
X158538709Y-91713266D01*
X158528500Y-91764591D01*
X158527181Y-91766095D01*
X158525219Y-91765705D01*
X158524538Y-91764201D01*
X158524538Y-91748748D01*
X158504942Y-91682009D01*
X158452539Y-91636603D01*
X158401325Y-91625462D01*
X158385799Y-91625462D01*
X158384067Y-91624462D01*
X158384067Y-91622462D01*
X158385409Y-91621500D01*
X158436734Y-91611291D01*
X158501124Y-91568267D01*
X159398870Y-90670521D01*
X159441894Y-90606131D01*
X159452103Y-90554806D01*
X159453422Y-90553302D01*
X159455384Y-90553692D01*
G37*
G36*
X156732449Y-90017404D02*
G01*
X156742658Y-90068730D01*
X156785682Y-90133120D01*
X157322803Y-90670241D01*
X157387193Y-90713265D01*
X157446839Y-90725129D01*
X157448343Y-90726448D01*
X157447953Y-90728410D01*
X157447012Y-90729010D01*
X157385632Y-90747032D01*
X157340277Y-90799375D01*
X157330420Y-90867928D01*
X157359300Y-90931165D01*
X157365147Y-90937446D01*
X157365595Y-90939395D01*
X157364131Y-90940758D01*
X157362269Y-90940223D01*
X156589107Y-90167061D01*
X156540991Y-90134911D01*
X156540106Y-90133117D01*
X156541217Y-90131454D01*
X156542786Y-90131369D01*
X156563148Y-90138780D01*
X156632567Y-90143192D01*
X156693088Y-90109519D01*
X156725889Y-90048299D01*
X156728487Y-90023197D01*
X156728487Y-90017794D01*
X156729487Y-90016062D01*
X156731487Y-90016062D01*
X156732449Y-90017404D01*
G37*
G36*
X158557358Y-89655666D02*
G01*
X158558039Y-89657170D01*
X158558039Y-89672624D01*
X158577635Y-89739363D01*
X158630038Y-89784769D01*
X158681252Y-89795910D01*
X158696779Y-89795910D01*
X158698511Y-89796910D01*
X158698511Y-89798910D01*
X158697169Y-89799872D01*
X158645844Y-89810081D01*
X158581454Y-89853105D01*
X157683708Y-90750851D01*
X157640684Y-90815241D01*
X157630475Y-90866566D01*
X157629156Y-90868070D01*
X157627194Y-90867680D01*
X157626513Y-90866176D01*
X157626513Y-90850722D01*
X157606917Y-90783983D01*
X157554514Y-90738577D01*
X157503300Y-90727436D01*
X157487773Y-90727436D01*
X157486041Y-90726436D01*
X157486041Y-90724436D01*
X157487383Y-90723474D01*
X157538708Y-90713265D01*
X157603098Y-90670241D01*
X158500844Y-89772495D01*
X158543868Y-89708105D01*
X158554077Y-89656780D01*
X158555396Y-89655276D01*
X158557358Y-89655666D01*
G37*
G36*
X152618512Y-88087463D02*
G01*
X152626162Y-88111006D01*
X152699447Y-88211873D01*
X153088127Y-88600553D01*
X153188994Y-88673838D01*
X153282093Y-88704087D01*
X153283431Y-88705573D01*
X153282813Y-88707475D01*
X153281204Y-88707971D01*
X153261249Y-88705238D01*
X153192468Y-88715597D01*
X153140429Y-88761298D01*
X153121360Y-88827880D01*
X153141388Y-88894445D01*
X153147502Y-88902983D01*
X153171927Y-88934134D01*
X153172189Y-88934574D01*
X153177179Y-88946106D01*
X153176949Y-88948092D01*
X153175113Y-88948887D01*
X153173725Y-88948076D01*
X153108138Y-88857803D01*
X152569197Y-88318862D01*
X152463585Y-88242130D01*
X152460836Y-88241237D01*
X152459498Y-88239751D01*
X152460116Y-88237849D01*
X152461699Y-88237350D01*
X152517268Y-88244209D01*
X152579679Y-88214186D01*
X152615950Y-88155186D01*
X152614610Y-88088121D01*
X152615576Y-88086369D01*
X152617575Y-88086329D01*
X152618512Y-88087463D01*
G37*
G36*
X169847935Y-87553058D02*
G01*
X169852330Y-87566585D01*
X169929062Y-87672197D01*
X170449979Y-88193114D01*
X170450497Y-88195046D01*
X170449083Y-88196460D01*
X170447607Y-88196283D01*
X170386309Y-88162813D01*
X170317227Y-88167753D01*
X170261783Y-88209258D01*
X170237512Y-88274331D01*
X170238335Y-88299711D01*
X170238524Y-88301096D01*
X170237768Y-88302948D01*
X170235786Y-88303219D01*
X170234640Y-88301985D01*
X170202870Y-88204208D01*
X170126138Y-88098595D01*
X169817007Y-87789464D01*
X169711394Y-87712732D01*
X169680324Y-87702636D01*
X169678986Y-87701150D01*
X169679604Y-87699248D01*
X169681187Y-87698749D01*
X169746631Y-87706827D01*
X169809042Y-87676804D01*
X169845313Y-87617804D01*
X169844033Y-87553716D01*
X169844999Y-87551964D01*
X169846998Y-87551924D01*
X169847935Y-87553058D01*
G37*
G36*
X172925004Y-87485357D02*
G01*
X172925730Y-87487592D01*
X173002462Y-87593205D01*
X173311593Y-87902336D01*
X173417206Y-87979068D01*
X173514981Y-88010838D01*
X173516319Y-88012324D01*
X173515701Y-88014226D01*
X173514092Y-88014721D01*
X173493830Y-88011945D01*
X173493307Y-88011800D01*
X173477274Y-88004862D01*
X173408239Y-87996340D01*
X173345828Y-88026363D01*
X173309557Y-88085363D01*
X173310945Y-88154856D01*
X173313362Y-88161334D01*
X173313030Y-88163306D01*
X173311156Y-88164005D01*
X173309870Y-88163209D01*
X173242476Y-88070449D01*
X172889151Y-87717124D01*
X172781956Y-87639243D01*
X172761025Y-87632442D01*
X172759687Y-87630956D01*
X172760305Y-87629054D01*
X172761888Y-87628555D01*
X172823641Y-87636177D01*
X172886053Y-87606154D01*
X172922324Y-87547154D01*
X172921102Y-87486015D01*
X172922068Y-87484263D01*
X172924067Y-87484223D01*
X172925004Y-87485357D01*
G37*
G36*
X151295913Y-86717907D02*
G01*
X151326162Y-86811006D01*
X151399447Y-86911873D01*
X151788127Y-87300553D01*
X151888994Y-87373838D01*
X151982092Y-87404087D01*
X151983430Y-87405573D01*
X151982812Y-87407475D01*
X151981203Y-87407970D01*
X151962142Y-87405359D01*
X151961619Y-87405214D01*
X151947130Y-87398945D01*
X151878096Y-87390425D01*
X151815685Y-87420450D01*
X151779416Y-87479451D01*
X151780806Y-87548943D01*
X151781625Y-87551138D01*
X151781293Y-87553110D01*
X151779420Y-87553809D01*
X151778133Y-87553013D01*
X151711138Y-87460803D01*
X151172197Y-86921862D01*
X151081922Y-86856273D01*
X151081109Y-86854446D01*
X151082285Y-86852828D01*
X151083892Y-86852819D01*
X151095423Y-86857809D01*
X151095863Y-86858071D01*
X151097810Y-86859598D01*
X151162423Y-86885360D01*
X151230409Y-86872157D01*
X151280468Y-86824292D01*
X151296761Y-86756716D01*
X151295792Y-86746269D01*
X151292029Y-86718796D01*
X151292785Y-86716945D01*
X151294767Y-86716673D01*
X151295913Y-86717907D01*
G37*
G36*
X145738776Y-87088840D02*
G01*
X145815567Y-87165631D01*
X145879957Y-87208655D01*
X145947925Y-87222174D01*
X145949429Y-87223493D01*
X145949039Y-87225455D01*
X145948098Y-87226055D01*
X145892356Y-87242422D01*
X145846999Y-87294768D01*
X145840730Y-87337368D01*
X145839488Y-87338936D01*
X145838480Y-87339059D01*
X145837750Y-87338959D01*
X145831632Y-87383620D01*
X145830407Y-87385201D01*
X145828425Y-87384929D01*
X145827651Y-87383349D01*
X145827651Y-87287501D01*
X145786757Y-87161644D01*
X145735744Y-87091430D01*
X145735535Y-87089441D01*
X145737153Y-87088265D01*
X145738776Y-87088840D01*
G37*
G36*
X146152096Y-85253030D02*
G01*
X146152777Y-85254534D01*
X146152777Y-85269988D01*
X146172373Y-85336727D01*
X146224776Y-85382133D01*
X146275990Y-85393274D01*
X146291517Y-85393274D01*
X146293249Y-85394274D01*
X146293249Y-85396274D01*
X146291907Y-85397236D01*
X146240582Y-85407445D01*
X146176192Y-85450469D01*
X145278446Y-86348215D01*
X145235422Y-86412605D01*
X145220354Y-86488362D01*
X145235422Y-86564120D01*
X145278446Y-86628510D01*
X145321160Y-86671224D01*
X145321678Y-86673156D01*
X145320264Y-86674570D01*
X145318570Y-86674256D01*
X145248356Y-86623243D01*
X145122499Y-86582349D01*
X145026654Y-86582349D01*
X145024922Y-86581349D01*
X145024922Y-86579349D01*
X145026383Y-86578368D01*
X145056060Y-86574303D01*
X145056602Y-86574302D01*
X145081276Y-86577681D01*
X145150058Y-86567322D01*
X145202099Y-86521617D01*
X145221251Y-86455574D01*
X145221251Y-86448086D01*
X145201655Y-86381347D01*
X145149252Y-86335941D01*
X145098038Y-86324800D01*
X145082511Y-86324800D01*
X145080779Y-86323800D01*
X145080779Y-86321800D01*
X145082121Y-86320838D01*
X145133446Y-86310629D01*
X145197836Y-86267605D01*
X146095582Y-85369859D01*
X146138606Y-85305469D01*
X146148815Y-85254144D01*
X146150134Y-85252640D01*
X146152096Y-85253030D01*
G37*
G36*
X146417021Y-85180487D02*
G01*
X147190183Y-85953649D01*
X147238299Y-85985799D01*
X147239184Y-85987593D01*
X147238073Y-85989256D01*
X147236504Y-85989341D01*
X147216142Y-85981930D01*
X147146723Y-85977518D01*
X147086202Y-86011191D01*
X147053401Y-86072411D01*
X147050803Y-86097513D01*
X147050803Y-86102916D01*
X147049803Y-86104648D01*
X147047803Y-86104648D01*
X147046841Y-86103306D01*
X147036632Y-86051980D01*
X146993608Y-85987590D01*
X146456487Y-85450469D01*
X146392097Y-85407445D01*
X146332451Y-85395581D01*
X146330947Y-85394262D01*
X146331337Y-85392300D01*
X146332278Y-85391700D01*
X146393658Y-85373678D01*
X146439013Y-85321335D01*
X146448870Y-85252782D01*
X146419990Y-85189545D01*
X146414143Y-85183264D01*
X146413695Y-85181315D01*
X146415159Y-85179952D01*
X146417021Y-85180487D01*
G37*
G36*
X130688191Y-85053208D02*
G01*
X130720467Y-85152543D01*
X130798348Y-85259737D01*
X131116318Y-85577707D01*
X131208007Y-85644323D01*
X131208820Y-85646150D01*
X131207644Y-85647768D01*
X131206037Y-85647777D01*
X131187275Y-85639658D01*
X131118241Y-85631137D01*
X131055829Y-85661160D01*
X131019559Y-85720160D01*
X131020947Y-85789653D01*
X131025305Y-85801336D01*
X131036147Y-85826389D01*
X131036293Y-85826912D01*
X131039124Y-85847581D01*
X131038369Y-85849432D01*
X131036387Y-85849704D01*
X131035241Y-85848470D01*
X131002965Y-85749135D01*
X130925084Y-85641941D01*
X130607114Y-85323971D01*
X130515425Y-85257355D01*
X130514612Y-85255528D01*
X130515788Y-85253910D01*
X130517395Y-85253901D01*
X130536157Y-85262020D01*
X130605191Y-85270541D01*
X130667603Y-85240518D01*
X130703873Y-85181518D01*
X130702485Y-85112025D01*
X130698127Y-85100342D01*
X130687285Y-85075289D01*
X130687139Y-85074766D01*
X130684308Y-85054097D01*
X130685063Y-85052246D01*
X130687045Y-85051974D01*
X130688191Y-85053208D01*
G37*
G36*
X145254071Y-84355005D02*
G01*
X145254752Y-84356509D01*
X145254752Y-84371962D01*
X145274348Y-84438701D01*
X145326751Y-84484107D01*
X145377965Y-84495248D01*
X145393491Y-84495248D01*
X145395223Y-84496248D01*
X145395223Y-84498248D01*
X145393881Y-84499210D01*
X145342556Y-84509419D01*
X145278166Y-84552443D01*
X144380420Y-85450189D01*
X144337396Y-85514579D01*
X144327187Y-85565904D01*
X144325868Y-85567408D01*
X144323906Y-85567018D01*
X144323225Y-85565514D01*
X144323225Y-85550061D01*
X144303629Y-85483322D01*
X144251226Y-85437916D01*
X144200012Y-85426775D01*
X144184486Y-85426775D01*
X144182754Y-85425775D01*
X144182754Y-85423775D01*
X144184096Y-85422813D01*
X144235421Y-85412604D01*
X144299811Y-85369580D01*
X145197557Y-84471834D01*
X145240581Y-84407444D01*
X145250790Y-84356119D01*
X145252109Y-84354615D01*
X145254071Y-84355005D01*
G37*
G36*
X145518981Y-84282447D02*
G01*
X146365576Y-85129042D01*
X146366094Y-85130974D01*
X146364680Y-85132388D01*
X146363204Y-85132211D01*
X146301904Y-85098740D01*
X146232822Y-85103680D01*
X146177378Y-85145185D01*
X146153415Y-85209431D01*
X146151873Y-85210704D01*
X146149999Y-85210005D01*
X146149579Y-85209122D01*
X146138606Y-85153954D01*
X146095582Y-85089564D01*
X145558461Y-84552443D01*
X145494071Y-84509419D01*
X145434425Y-84497555D01*
X145432921Y-84496236D01*
X145433311Y-84494274D01*
X145434252Y-84493674D01*
X145495632Y-84475652D01*
X145540987Y-84423309D01*
X145550844Y-84354756D01*
X145521964Y-84291519D01*
X145516103Y-84285224D01*
X145515655Y-84283275D01*
X145517119Y-84281912D01*
X145518981Y-84282447D01*
G37*
G36*
X129592175Y-83957192D02*
G01*
X129624451Y-84056527D01*
X129702332Y-84163721D01*
X130020302Y-84481691D01*
X130111991Y-84548307D01*
X130112804Y-84550134D01*
X130111628Y-84551752D01*
X130110021Y-84551761D01*
X130091259Y-84543642D01*
X130022225Y-84535121D01*
X129959813Y-84565144D01*
X129923543Y-84624144D01*
X129924931Y-84693637D01*
X129929289Y-84705320D01*
X129940131Y-84730373D01*
X129940277Y-84730896D01*
X129943108Y-84751565D01*
X129942353Y-84753416D01*
X129940371Y-84753688D01*
X129939225Y-84752454D01*
X129906949Y-84653119D01*
X129829068Y-84545925D01*
X129511098Y-84227955D01*
X129419409Y-84161339D01*
X129418596Y-84159512D01*
X129419772Y-84157894D01*
X129421379Y-84157885D01*
X129440141Y-84166004D01*
X129509175Y-84174525D01*
X129571587Y-84144502D01*
X129607857Y-84085502D01*
X129606469Y-84016009D01*
X129602111Y-84004326D01*
X129591269Y-83979273D01*
X129591123Y-83978750D01*
X129588292Y-83958081D01*
X129589047Y-83956230D01*
X129591029Y-83955958D01*
X129592175Y-83957192D01*
G37*
G36*
X142527530Y-83803125D02*
G01*
X142528272Y-83804319D01*
X142541345Y-83870043D01*
X142584369Y-83934433D01*
X143121490Y-84471554D01*
X143169604Y-84503703D01*
X143170489Y-84505497D01*
X143169378Y-84507160D01*
X143167809Y-84507245D01*
X143159171Y-84504101D01*
X143089751Y-84499689D01*
X143029231Y-84533363D01*
X142996465Y-84594519D01*
X142994994Y-84636451D01*
X142996778Y-84649474D01*
X142996778Y-84650016D01*
X142992712Y-84679699D01*
X142991487Y-84681280D01*
X142989505Y-84681008D01*
X142988731Y-84679428D01*
X142988731Y-84583579D01*
X142947837Y-84457722D01*
X142869956Y-84350527D01*
X142516631Y-83997202D01*
X142409436Y-83919321D01*
X142310101Y-83887045D01*
X142308763Y-83885559D01*
X142309381Y-83883657D01*
X142310990Y-83883161D01*
X142331660Y-83885992D01*
X142332183Y-83886139D01*
X142355059Y-83896039D01*
X142424096Y-83904560D01*
X142486508Y-83874537D01*
X142522865Y-83815397D01*
X142524328Y-83804444D01*
X142525548Y-83802860D01*
X142527530Y-83803125D01*
G37*
G36*
X144356045Y-83456979D02*
G01*
X144356726Y-83458483D01*
X144356726Y-83473937D01*
X144376322Y-83540676D01*
X144428725Y-83586082D01*
X144479939Y-83597223D01*
X144495466Y-83597223D01*
X144497198Y-83598223D01*
X144497198Y-83600223D01*
X144495856Y-83601185D01*
X144444531Y-83611394D01*
X144380141Y-83654418D01*
X143482395Y-84552164D01*
X143439371Y-84616554D01*
X143429162Y-84667879D01*
X143427843Y-84669383D01*
X143425881Y-84668993D01*
X143425200Y-84667489D01*
X143425200Y-84652035D01*
X143405604Y-84585296D01*
X143353201Y-84539890D01*
X143301987Y-84528749D01*
X143286460Y-84528749D01*
X143284728Y-84527749D01*
X143284728Y-84525749D01*
X143286070Y-84524787D01*
X143337395Y-84514578D01*
X143401785Y-84471554D01*
X144299531Y-83573808D01*
X144342555Y-83509418D01*
X144352764Y-83458093D01*
X144354083Y-83456589D01*
X144356045Y-83456979D01*
G37*
G36*
X169523477Y-83882108D02*
G01*
X169523300Y-83883584D01*
X169489832Y-83944879D01*
X169494772Y-84013961D01*
X169536277Y-84069405D01*
X169601215Y-84093626D01*
X169645849Y-84086032D01*
X169647724Y-84086728D01*
X169648059Y-84088699D01*
X169647360Y-84089622D01*
X169543694Y-84164940D01*
X169354694Y-84353940D01*
X169352762Y-84354458D01*
X169351348Y-84353044D01*
X169351525Y-84351568D01*
X169384997Y-84290267D01*
X169380057Y-84221185D01*
X169338552Y-84165741D01*
X169273614Y-84141520D01*
X169229342Y-84149052D01*
X169227467Y-84148356D01*
X169227132Y-84146385D01*
X169227831Y-84145462D01*
X169330405Y-84070938D01*
X169520131Y-83881212D01*
X169522063Y-83880694D01*
X169523477Y-83882108D01*
G37*
G36*
X144620956Y-83384422D02*
G01*
X145493566Y-84257032D01*
X145494084Y-84258964D01*
X145492670Y-84260378D01*
X145490738Y-84259860D01*
X145464927Y-84234050D01*
X145403878Y-84200715D01*
X145334796Y-84205657D01*
X145279352Y-84247162D01*
X145255390Y-84311407D01*
X145253848Y-84312680D01*
X145251974Y-84311981D01*
X145251554Y-84311098D01*
X145240581Y-84255929D01*
X145197557Y-84191539D01*
X144660436Y-83654418D01*
X144596046Y-83611394D01*
X144536400Y-83599530D01*
X144534896Y-83598211D01*
X144535286Y-83596249D01*
X144536227Y-83595649D01*
X144597606Y-83577627D01*
X144642961Y-83525284D01*
X144652818Y-83456731D01*
X144623938Y-83393494D01*
X144618078Y-83387199D01*
X144617630Y-83385250D01*
X144619094Y-83383887D01*
X144620956Y-83384422D01*
G37*
G36*
X171522360Y-82970217D02*
G01*
X171554130Y-83067992D01*
X171630862Y-83173605D01*
X171889897Y-83432640D01*
X171890415Y-83434572D01*
X171889001Y-83435986D01*
X171887525Y-83435809D01*
X171826230Y-83402341D01*
X171757148Y-83407281D01*
X171701704Y-83448786D01*
X171677483Y-83513724D01*
X171687316Y-83571520D01*
X171702539Y-83606697D01*
X171702686Y-83607220D01*
X171705517Y-83627890D01*
X171704761Y-83629741D01*
X171702779Y-83630013D01*
X171701633Y-83628779D01*
X171669357Y-83529444D01*
X171591476Y-83422249D01*
X171333173Y-83163946D01*
X171332655Y-83162014D01*
X171334069Y-83160600D01*
X171335545Y-83160777D01*
X171396840Y-83194245D01*
X171465922Y-83189305D01*
X171521366Y-83147800D01*
X171545587Y-83082862D01*
X171535756Y-83025070D01*
X171521398Y-82991891D01*
X171521253Y-82991368D01*
X171518477Y-82971106D01*
X171519232Y-82969255D01*
X171521214Y-82968983D01*
X171522360Y-82970217D01*
G37*
G36*
X149175342Y-82556755D02*
G01*
X149175762Y-82557638D01*
X149186735Y-82612807D01*
X149229759Y-82677197D01*
X149766880Y-83214318D01*
X149831270Y-83257342D01*
X149882596Y-83267551D01*
X149884100Y-83268870D01*
X149883710Y-83270832D01*
X149882206Y-83271513D01*
X149876990Y-83271513D01*
X149810251Y-83291109D01*
X149764896Y-83343452D01*
X149755012Y-83412196D01*
X149761158Y-83436682D01*
X149768631Y-83457214D01*
X149768284Y-83459184D01*
X149766405Y-83459868D01*
X149765089Y-83459009D01*
X149732939Y-83410893D01*
X148959763Y-82637717D01*
X148959245Y-82635785D01*
X148960659Y-82634371D01*
X148962135Y-82634548D01*
X149023437Y-82668020D01*
X149092519Y-82663080D01*
X149147963Y-82621575D01*
X149171926Y-82557329D01*
X149173468Y-82556056D01*
X149175342Y-82556755D01*
G37*
G36*
X143764201Y-82511701D02*
G01*
X143796351Y-82559817D01*
X144569527Y-83332993D01*
X144570045Y-83334925D01*
X144568631Y-83336339D01*
X144567155Y-83336162D01*
X144505853Y-83302690D01*
X144436771Y-83307630D01*
X144381327Y-83349135D01*
X144357364Y-83413381D01*
X144355822Y-83414654D01*
X144353948Y-83413955D01*
X144353528Y-83413072D01*
X144342555Y-83357903D01*
X144299531Y-83293513D01*
X143762410Y-82756392D01*
X143698020Y-82713368D01*
X143646694Y-82703159D01*
X143645190Y-82701840D01*
X143645580Y-82699878D01*
X143647084Y-82699197D01*
X143652300Y-82699197D01*
X143719039Y-82679601D01*
X143764394Y-82627258D01*
X143774278Y-82558514D01*
X143768132Y-82534028D01*
X143760659Y-82513496D01*
X143761006Y-82511526D01*
X143762885Y-82510842D01*
X143764201Y-82511701D01*
G37*
G36*
X135250392Y-82257788D02*
G01*
X135282667Y-82357120D01*
X135360548Y-82464314D01*
X135678518Y-82782284D01*
X135785712Y-82860165D01*
X135885046Y-82892441D01*
X135886384Y-82893927D01*
X135885766Y-82895829D01*
X135884157Y-82896324D01*
X135863491Y-82893493D01*
X135862968Y-82893347D01*
X135837245Y-82882215D01*
X135768208Y-82873693D01*
X135705796Y-82903716D01*
X135669525Y-82962716D01*
X135670913Y-83032209D01*
X135675265Y-83043875D01*
X135685339Y-83067156D01*
X135685484Y-83067679D01*
X135688315Y-83088347D01*
X135687560Y-83090198D01*
X135685578Y-83090470D01*
X135684432Y-83089236D01*
X135652157Y-82989904D01*
X135574276Y-82882710D01*
X135256306Y-82564740D01*
X135149112Y-82486859D01*
X135049778Y-82454583D01*
X135048440Y-82453097D01*
X135049058Y-82451195D01*
X135050667Y-82450700D01*
X135071333Y-82453531D01*
X135071856Y-82453677D01*
X135097579Y-82464809D01*
X135166616Y-82473331D01*
X135229028Y-82443308D01*
X135265299Y-82384308D01*
X135263911Y-82314815D01*
X135259559Y-82303149D01*
X135249485Y-82279868D01*
X135249340Y-82279345D01*
X135246509Y-82258677D01*
X135247264Y-82256826D01*
X135249246Y-82256554D01*
X135250392Y-82257788D01*
G37*
G36*
X148277316Y-81658729D02*
G01*
X148277736Y-81659612D01*
X148288709Y-81714781D01*
X148331733Y-81779171D01*
X148868854Y-82316292D01*
X148933244Y-82359316D01*
X148992890Y-82371180D01*
X148994394Y-82372499D01*
X148994004Y-82374461D01*
X148993063Y-82375061D01*
X148931684Y-82393083D01*
X148886329Y-82445426D01*
X148876472Y-82513979D01*
X148905352Y-82577216D01*
X148911212Y-82583511D01*
X148911660Y-82585460D01*
X148910196Y-82586823D01*
X148908334Y-82586288D01*
X148032294Y-81710248D01*
X148031776Y-81708316D01*
X148033190Y-81706902D01*
X148035122Y-81707420D01*
X148064363Y-81736660D01*
X148125412Y-81769995D01*
X148194494Y-81765053D01*
X148249938Y-81723548D01*
X148273900Y-81659303D01*
X148275442Y-81658030D01*
X148277316Y-81658729D01*
G37*
G36*
X150103409Y-81301717D02*
G01*
X150104090Y-81303221D01*
X150104090Y-81318675D01*
X150123686Y-81385414D01*
X150176089Y-81430820D01*
X150227303Y-81441961D01*
X150242830Y-81441961D01*
X150244562Y-81442961D01*
X150244562Y-81444961D01*
X150243220Y-81445923D01*
X150191895Y-81456132D01*
X150127505Y-81499156D01*
X149229759Y-82396902D01*
X149186735Y-82461292D01*
X149176526Y-82512617D01*
X149175207Y-82514121D01*
X149173245Y-82513731D01*
X149172564Y-82512227D01*
X149172564Y-82496773D01*
X149152968Y-82430034D01*
X149100565Y-82384628D01*
X149049351Y-82373487D01*
X149033824Y-82373487D01*
X149032092Y-82372487D01*
X149032092Y-82370487D01*
X149033434Y-82369525D01*
X149084759Y-82359316D01*
X149149149Y-82316292D01*
X150046895Y-81418546D01*
X150089919Y-81354156D01*
X150100128Y-81302831D01*
X150101447Y-81301327D01*
X150103409Y-81301717D01*
G37*
G36*
X134154376Y-81161772D02*
G01*
X134186651Y-81261104D01*
X134264532Y-81368298D01*
X134582502Y-81686268D01*
X134689696Y-81764149D01*
X134789030Y-81796425D01*
X134790368Y-81797911D01*
X134789750Y-81799813D01*
X134788141Y-81800308D01*
X134767475Y-81797477D01*
X134766952Y-81797331D01*
X134741229Y-81786199D01*
X134672192Y-81777677D01*
X134609780Y-81807700D01*
X134573509Y-81866700D01*
X134574897Y-81936193D01*
X134579249Y-81947859D01*
X134589323Y-81971140D01*
X134589468Y-81971663D01*
X134592299Y-81992331D01*
X134591544Y-81994182D01*
X134589562Y-81994454D01*
X134588416Y-81993220D01*
X134556141Y-81893888D01*
X134478260Y-81786694D01*
X134160290Y-81468724D01*
X134053096Y-81390843D01*
X133953762Y-81358567D01*
X133952424Y-81357081D01*
X133953042Y-81355179D01*
X133954651Y-81354684D01*
X133975317Y-81357515D01*
X133975840Y-81357661D01*
X134001563Y-81368793D01*
X134070600Y-81377315D01*
X134133012Y-81347292D01*
X134169283Y-81288292D01*
X134167895Y-81218799D01*
X134163543Y-81207133D01*
X134153469Y-81183852D01*
X134153324Y-81183329D01*
X134150493Y-81162661D01*
X134151248Y-81160810D01*
X134153230Y-81160538D01*
X134154376Y-81161772D01*
G37*
G36*
X133565276Y-81166725D02*
G01*
X133565771Y-81168334D01*
X133563160Y-81187396D01*
X133563015Y-81187919D01*
X133553898Y-81208987D01*
X133545378Y-81278021D01*
X133575402Y-81340432D01*
X133634402Y-81376702D01*
X133703894Y-81375312D01*
X133715559Y-81370961D01*
X133746295Y-81357661D01*
X133746818Y-81357516D01*
X133767487Y-81354685D01*
X133769338Y-81355440D01*
X133769610Y-81357422D01*
X133768376Y-81358568D01*
X133705141Y-81379114D01*
X133705002Y-81379085D01*
X133704853Y-81379208D01*
X133669044Y-81390843D01*
X133561849Y-81468724D01*
X133208524Y-81822049D01*
X133139215Y-81917445D01*
X133137388Y-81918258D01*
X133135770Y-81917082D01*
X133135612Y-81916024D01*
X133143734Y-81850223D01*
X133113711Y-81787811D01*
X133054633Y-81751493D01*
X133005555Y-81748310D01*
X132982659Y-81751446D01*
X132980808Y-81750690D01*
X132980536Y-81748708D01*
X132981770Y-81747562D01*
X133074872Y-81717312D01*
X133175739Y-81644027D01*
X133458353Y-81361413D01*
X133531638Y-81260546D01*
X133561888Y-81167445D01*
X133563374Y-81166107D01*
X133565276Y-81166725D01*
G37*
G36*
X131273748Y-81315060D02*
G01*
X131273571Y-81316536D01*
X131240101Y-81377834D01*
X131245041Y-81446916D01*
X131286546Y-81502360D01*
X131351484Y-81526581D01*
X131409278Y-81516749D01*
X131423928Y-81510409D01*
X131425914Y-81510638D01*
X131426709Y-81512474D01*
X131425898Y-81513862D01*
X131339861Y-81576373D01*
X131111598Y-81804636D01*
X131109666Y-81805154D01*
X131108252Y-81803740D01*
X131108429Y-81802264D01*
X131141899Y-81740966D01*
X131136959Y-81671884D01*
X131095454Y-81616440D01*
X131030516Y-81592219D01*
X130972722Y-81602051D01*
X130958072Y-81608391D01*
X130956086Y-81608162D01*
X130955291Y-81606326D01*
X130956102Y-81604938D01*
X131042139Y-81542427D01*
X131270402Y-81314164D01*
X131272334Y-81313646D01*
X131273748Y-81315060D01*
G37*
G36*
X147379291Y-80760705D02*
G01*
X147379711Y-80761588D01*
X147390684Y-80816756D01*
X147433708Y-80881146D01*
X147970829Y-81418267D01*
X148035219Y-81461291D01*
X148094865Y-81473155D01*
X148096369Y-81474474D01*
X148095979Y-81476436D01*
X148095038Y-81477036D01*
X148033658Y-81495058D01*
X147988303Y-81547401D01*
X147978446Y-81615954D01*
X148007326Y-81679191D01*
X148013187Y-81685486D01*
X148013635Y-81687435D01*
X148012171Y-81688798D01*
X148010309Y-81688263D01*
X147163714Y-80841668D01*
X147163196Y-80839736D01*
X147164610Y-80838322D01*
X147166086Y-80838499D01*
X147227386Y-80871970D01*
X147296468Y-80867030D01*
X147351912Y-80825525D01*
X147375875Y-80761279D01*
X147377417Y-80760006D01*
X147379291Y-80760705D01*
G37*
G36*
X149205384Y-80403692D02*
G01*
X149206065Y-80405196D01*
X149206065Y-80420649D01*
X149225661Y-80487388D01*
X149278064Y-80532794D01*
X149329278Y-80543935D01*
X149344804Y-80543935D01*
X149346536Y-80544935D01*
X149346536Y-80546935D01*
X149345194Y-80547897D01*
X149293869Y-80558106D01*
X149229479Y-80601130D01*
X148331733Y-81498876D01*
X148288709Y-81563266D01*
X148278500Y-81614591D01*
X148277181Y-81616095D01*
X148275219Y-81615705D01*
X148274538Y-81614201D01*
X148274538Y-81598748D01*
X148254942Y-81532009D01*
X148202539Y-81486603D01*
X148151325Y-81475462D01*
X148135799Y-81475462D01*
X148134067Y-81474462D01*
X148134067Y-81472462D01*
X148135409Y-81471500D01*
X148186734Y-81461291D01*
X148251124Y-81418267D01*
X149148870Y-80520521D01*
X149191894Y-80456131D01*
X149202103Y-80404806D01*
X149203422Y-80403302D01*
X149205384Y-80403692D01*
G37*
G36*
X127995863Y-80892702D02*
G01*
X128058373Y-80978739D01*
X128340987Y-81261353D01*
X128427022Y-81323862D01*
X128427835Y-81325689D01*
X128426659Y-81327307D01*
X128425052Y-81327316D01*
X128414212Y-81322625D01*
X128413772Y-81322363D01*
X128362729Y-81282339D01*
X128298116Y-81256576D01*
X128230130Y-81269779D01*
X128180071Y-81317644D01*
X128163844Y-81384948D01*
X128182030Y-81433711D01*
X128181698Y-81435683D01*
X128180950Y-81436246D01*
X128180016Y-81436650D01*
X128190317Y-81460454D01*
X128190087Y-81462440D01*
X128188251Y-81463235D01*
X128186863Y-81462424D01*
X128124353Y-81376387D01*
X127841739Y-81093773D01*
X127755704Y-81031264D01*
X127754891Y-81029437D01*
X127756067Y-81027819D01*
X127757674Y-81027810D01*
X127768514Y-81032501D01*
X127768954Y-81032763D01*
X127819997Y-81072787D01*
X127884610Y-81098550D01*
X127952596Y-81085347D01*
X128002655Y-81037482D01*
X128018882Y-80970178D01*
X128000696Y-80921415D01*
X128001028Y-80919443D01*
X128001776Y-80918880D01*
X128002710Y-80918476D01*
X127992409Y-80894672D01*
X127992639Y-80892686D01*
X127994475Y-80891891D01*
X127995863Y-80892702D01*
G37*
G36*
X134557551Y-80174449D02*
G01*
X134558046Y-80176058D01*
X134553474Y-80209428D01*
X134563832Y-80278213D01*
X134609534Y-80330252D01*
X134676204Y-80349346D01*
X134715095Y-80341156D01*
X134716996Y-80341778D01*
X134717408Y-80343735D01*
X134716683Y-80344731D01*
X134617857Y-80416532D01*
X134264532Y-80769857D01*
X134186651Y-80877052D01*
X134176279Y-80908972D01*
X134174793Y-80910310D01*
X134172891Y-80909692D01*
X134172392Y-80908109D01*
X134180487Y-80842526D01*
X134150464Y-80780115D01*
X134091464Y-80743844D01*
X134021971Y-80745232D01*
X134010289Y-80749589D01*
X133994518Y-80756414D01*
X133993995Y-80756560D01*
X133974935Y-80759171D01*
X133973084Y-80758416D01*
X133972812Y-80756434D01*
X133974046Y-80755288D01*
X134067146Y-80725038D01*
X134168013Y-80651753D01*
X134450627Y-80369139D01*
X134523912Y-80268272D01*
X134554163Y-80175169D01*
X134555649Y-80173831D01*
X134557551Y-80174449D01*
G37*
G36*
X133153737Y-80177036D02*
G01*
X133216247Y-80263073D01*
X133604927Y-80651753D01*
X133690964Y-80714263D01*
X133691777Y-80716090D01*
X133690601Y-80717708D01*
X133688994Y-80717717D01*
X133684064Y-80715584D01*
X133615030Y-80707064D01*
X133552619Y-80737088D01*
X133516349Y-80796088D01*
X133517739Y-80865582D01*
X133522089Y-80877244D01*
X133524317Y-80882394D01*
X133524087Y-80884381D01*
X133522251Y-80885175D01*
X133520863Y-80884364D01*
X133458353Y-80798327D01*
X133069673Y-80409647D01*
X132983636Y-80347137D01*
X132982823Y-80345310D01*
X132983999Y-80343692D01*
X132985606Y-80343683D01*
X132990536Y-80345816D01*
X133059570Y-80354336D01*
X133121981Y-80324312D01*
X133158251Y-80265312D01*
X133156861Y-80195818D01*
X133152511Y-80184156D01*
X133150283Y-80179006D01*
X133150513Y-80177019D01*
X133152349Y-80176225D01*
X133153737Y-80177036D01*
G37*
G36*
X146482449Y-79867404D02*
G01*
X146492658Y-79918730D01*
X146535682Y-79983120D01*
X147072803Y-80520241D01*
X147137193Y-80563265D01*
X147196839Y-80575129D01*
X147198343Y-80576448D01*
X147197953Y-80578410D01*
X147197012Y-80579010D01*
X147135632Y-80597032D01*
X147090277Y-80649375D01*
X147080420Y-80717928D01*
X147109300Y-80781165D01*
X147115147Y-80787446D01*
X147115595Y-80789395D01*
X147114131Y-80790758D01*
X147112269Y-80790223D01*
X146339107Y-80017061D01*
X146290991Y-79984911D01*
X146290106Y-79983117D01*
X146291217Y-79981454D01*
X146292786Y-79981369D01*
X146313148Y-79988780D01*
X146382567Y-79993192D01*
X146443088Y-79959519D01*
X146475889Y-79898299D01*
X146478487Y-79873197D01*
X146478487Y-79867794D01*
X146479487Y-79866062D01*
X146481487Y-79866062D01*
X146482449Y-79867404D01*
G37*
G36*
X148307358Y-79505666D02*
G01*
X148308039Y-79507170D01*
X148308039Y-79522624D01*
X148327635Y-79589363D01*
X148380038Y-79634769D01*
X148431252Y-79645910D01*
X148446779Y-79645910D01*
X148448511Y-79646910D01*
X148448511Y-79648910D01*
X148447169Y-79649872D01*
X148395844Y-79660081D01*
X148331454Y-79703105D01*
X147433708Y-80600851D01*
X147390684Y-80665241D01*
X147380475Y-80716566D01*
X147379156Y-80718070D01*
X147377194Y-80717680D01*
X147376513Y-80716176D01*
X147376513Y-80700722D01*
X147356917Y-80633983D01*
X147304514Y-80588577D01*
X147253300Y-80577436D01*
X147237773Y-80577436D01*
X147236041Y-80576436D01*
X147236041Y-80574436D01*
X147237383Y-80573474D01*
X147288708Y-80563265D01*
X147353098Y-80520241D01*
X148250844Y-79622495D01*
X148293868Y-79558105D01*
X148304077Y-79506780D01*
X148305396Y-79505276D01*
X148307358Y-79505666D01*
G37*
G36*
X126829137Y-79725976D02*
G01*
X126891647Y-79812013D01*
X127174261Y-80094627D01*
X127260296Y-80157136D01*
X127261109Y-80158963D01*
X127259933Y-80160581D01*
X127258326Y-80160590D01*
X127247486Y-80155899D01*
X127247046Y-80155637D01*
X127196003Y-80115613D01*
X127131390Y-80089850D01*
X127063404Y-80103053D01*
X127013345Y-80150918D01*
X126997118Y-80218222D01*
X127015304Y-80266985D01*
X127014972Y-80268957D01*
X127014224Y-80269520D01*
X127013290Y-80269924D01*
X127023591Y-80293728D01*
X127023361Y-80295714D01*
X127021525Y-80296509D01*
X127020137Y-80295698D01*
X126957627Y-80209661D01*
X126675013Y-79927047D01*
X126588978Y-79864538D01*
X126588165Y-79862711D01*
X126589341Y-79861093D01*
X126590948Y-79861084D01*
X126601788Y-79865775D01*
X126602228Y-79866037D01*
X126653271Y-79906061D01*
X126717884Y-79931824D01*
X126785870Y-79918621D01*
X126835929Y-79870756D01*
X126852156Y-79803452D01*
X126833970Y-79754689D01*
X126834302Y-79752717D01*
X126835050Y-79752154D01*
X126835984Y-79751750D01*
X126825683Y-79727946D01*
X126825913Y-79725960D01*
X126827749Y-79725165D01*
X126829137Y-79725976D01*
G37*
G36*
X130417882Y-78522079D02*
G01*
X130424325Y-78541909D01*
X130497610Y-78642776D01*
X130780224Y-78925390D01*
X130881091Y-78998675D01*
X130912115Y-79008755D01*
X130913453Y-79010241D01*
X130912835Y-79012143D01*
X130911252Y-79012642D01*
X130845341Y-79004508D01*
X130782930Y-79034533D01*
X130746661Y-79093533D01*
X130747983Y-79159626D01*
X130747017Y-79161378D01*
X130745018Y-79161418D01*
X130744081Y-79160284D01*
X130737638Y-79140454D01*
X130664353Y-79039587D01*
X130381739Y-78756973D01*
X130280872Y-78683688D01*
X130249848Y-78673608D01*
X130248510Y-78672122D01*
X130249128Y-78670220D01*
X130250711Y-78669721D01*
X130316622Y-78677855D01*
X130379033Y-78647830D01*
X130415302Y-78588830D01*
X130413980Y-78522737D01*
X130414946Y-78520985D01*
X130416945Y-78520945D01*
X130417882Y-78522079D01*
G37*
G36*
X154190947Y-78211630D02*
G01*
X154190770Y-78213106D01*
X154157298Y-78274407D01*
X154162238Y-78343489D01*
X154203743Y-78398933D01*
X154268681Y-78423154D01*
X154326474Y-78413322D01*
X154345708Y-78404998D01*
X154346231Y-78404853D01*
X154366495Y-78402077D01*
X154368346Y-78402832D01*
X154368618Y-78404814D01*
X154367384Y-78405960D01*
X154269608Y-78437730D01*
X154163995Y-78514462D01*
X153854864Y-78823593D01*
X153789276Y-78913868D01*
X153787449Y-78914681D01*
X153785831Y-78913505D01*
X153785822Y-78911898D01*
X153790813Y-78900364D01*
X153791075Y-78899924D01*
X153801000Y-78887266D01*
X153826761Y-78822653D01*
X153813557Y-78754665D01*
X153765692Y-78704610D01*
X153698253Y-78688350D01*
X153671029Y-78694688D01*
X153669116Y-78694107D01*
X153668662Y-78692159D01*
X153669958Y-78690838D01*
X153682785Y-78686670D01*
X153788397Y-78609938D01*
X154187601Y-78210734D01*
X154189533Y-78210216D01*
X154190947Y-78211630D01*
G37*
G36*
X142332913Y-77706907D02*
G01*
X142363162Y-77800006D01*
X142436447Y-77900873D01*
X142825127Y-78289553D01*
X142925994Y-78362838D01*
X143019093Y-78393087D01*
X143020431Y-78394573D01*
X143019813Y-78396475D01*
X143018204Y-78396970D01*
X142983535Y-78392221D01*
X142983084Y-78392802D01*
X142982084Y-78392935D01*
X142932051Y-78386760D01*
X142869640Y-78416783D01*
X142833369Y-78475783D01*
X142834757Y-78545276D01*
X142839112Y-78556952D01*
X142839178Y-78557103D01*
X142838952Y-78559090D01*
X142837118Y-78559887D01*
X142835726Y-78559076D01*
X142770138Y-78468803D01*
X142231197Y-77929862D01*
X142140923Y-77864274D01*
X142140110Y-77862447D01*
X142141286Y-77860829D01*
X142142893Y-77860820D01*
X142162441Y-77869279D01*
X142231475Y-77877800D01*
X142293886Y-77847777D01*
X142330205Y-77788700D01*
X142333388Y-77739615D01*
X142329030Y-77707796D01*
X142329785Y-77705945D01*
X142331767Y-77705673D01*
X142332913Y-77706907D01*
G37*
G36*
X129251156Y-77355353D02*
G01*
X129257599Y-77375183D01*
X129330884Y-77476050D01*
X129613498Y-77758664D01*
X129714365Y-77831949D01*
X129745389Y-77842029D01*
X129746727Y-77843515D01*
X129746109Y-77845417D01*
X129744526Y-77845916D01*
X129678615Y-77837782D01*
X129616204Y-77867807D01*
X129579935Y-77926807D01*
X129581257Y-77992900D01*
X129580291Y-77994652D01*
X129578292Y-77994692D01*
X129577355Y-77993558D01*
X129570912Y-77973728D01*
X129497627Y-77872861D01*
X129215013Y-77590247D01*
X129114146Y-77516962D01*
X129083122Y-77506882D01*
X129081784Y-77505396D01*
X129082402Y-77503494D01*
X129083985Y-77502995D01*
X129149896Y-77511129D01*
X129212307Y-77481104D01*
X129248576Y-77422104D01*
X129247254Y-77356011D01*
X129248220Y-77354259D01*
X129250219Y-77354219D01*
X129251156Y-77355353D01*
G37*
G36*
X154396822Y-77215240D02*
G01*
X154472140Y-77318906D01*
X154610340Y-77457106D01*
X154610858Y-77459038D01*
X154609444Y-77460452D01*
X154607968Y-77460275D01*
X154546667Y-77426803D01*
X154477585Y-77431743D01*
X154422141Y-77473248D01*
X154397920Y-77538186D01*
X154405452Y-77582458D01*
X154404756Y-77584333D01*
X154402785Y-77584668D01*
X154401862Y-77583969D01*
X154327338Y-77481395D01*
X154188408Y-77342465D01*
X154187890Y-77340533D01*
X154189304Y-77339119D01*
X154190780Y-77339296D01*
X154252079Y-77372767D01*
X154321161Y-77367827D01*
X154376605Y-77326322D01*
X154400826Y-77261384D01*
X154393232Y-77216751D01*
X154393928Y-77214876D01*
X154395899Y-77214541D01*
X154396822Y-77215240D01*
G37*
G36*
X154242475Y-74932724D02*
G01*
X154308062Y-75022997D01*
X154847003Y-75561938D01*
X154937276Y-75627526D01*
X154938089Y-75629353D01*
X154936913Y-75630971D01*
X154935306Y-75630979D01*
X154925292Y-75626645D01*
X154856255Y-75618123D01*
X154793844Y-75648147D01*
X154757573Y-75707146D01*
X154758565Y-75756812D01*
X154757599Y-75758564D01*
X154756837Y-75758833D01*
X154755016Y-75759083D01*
X154759900Y-75794732D01*
X154759145Y-75796583D01*
X154757163Y-75796855D01*
X154756017Y-75795621D01*
X154723741Y-75696288D01*
X154645860Y-75589094D01*
X154327890Y-75271124D01*
X154220696Y-75193243D01*
X154121363Y-75160968D01*
X154120025Y-75159482D01*
X154120643Y-75157580D01*
X154122252Y-75157084D01*
X154142653Y-75159878D01*
X154211434Y-75149519D01*
X154263473Y-75103818D01*
X154282542Y-75037236D01*
X154262514Y-74970671D01*
X154256401Y-74962134D01*
X154244273Y-74946666D01*
X154244011Y-74946226D01*
X154239021Y-74934694D01*
X154239251Y-74932708D01*
X154241087Y-74931913D01*
X154242475Y-74932724D01*
G37*
G36*
X156641070Y-72301405D02*
G01*
X157082203Y-72742538D01*
X157187815Y-72819270D01*
X157285595Y-72851041D01*
X157286933Y-72852527D01*
X157286315Y-72854429D01*
X157284706Y-72854924D01*
X157257312Y-72851171D01*
X157188527Y-72861529D01*
X157136488Y-72907231D01*
X157117419Y-72973813D01*
X157137429Y-73040318D01*
X157153497Y-73060121D01*
X157153812Y-73062096D01*
X157152259Y-73063356D01*
X157150530Y-73062795D01*
X156709397Y-72621662D01*
X156603785Y-72544930D01*
X156506005Y-72513159D01*
X156504667Y-72511673D01*
X156505285Y-72509771D01*
X156506894Y-72509276D01*
X156534288Y-72513029D01*
X156603073Y-72502671D01*
X156655112Y-72456969D01*
X156674181Y-72390387D01*
X156654171Y-72323882D01*
X156638103Y-72304079D01*
X156637788Y-72302104D01*
X156639341Y-72300844D01*
X156641070Y-72301405D01*
G37*
G36*
X129760540Y-72176834D02*
G01*
X129761039Y-72178417D01*
X129754104Y-72234598D01*
X129784127Y-72297009D01*
X129843127Y-72333280D01*
X129912152Y-72331901D01*
X129913904Y-72332867D01*
X129913944Y-72334866D01*
X129913368Y-72335519D01*
X129818094Y-72404740D01*
X129500124Y-72722710D01*
X129422243Y-72829904D01*
X129420632Y-72834862D01*
X129419146Y-72836200D01*
X129417244Y-72835582D01*
X129416745Y-72833999D01*
X129423680Y-72777818D01*
X129393657Y-72715407D01*
X129334657Y-72679136D01*
X129265632Y-72680515D01*
X129263880Y-72679549D01*
X129263840Y-72677550D01*
X129264416Y-72676897D01*
X129359690Y-72607676D01*
X129677660Y-72289706D01*
X129755541Y-72182512D01*
X129757152Y-72177554D01*
X129758638Y-72176216D01*
X129760540Y-72176834D01*
G37*
G36*
X130856556Y-71080818D02*
G01*
X130857055Y-71082401D01*
X130850120Y-71138582D01*
X130880143Y-71200993D01*
X130939143Y-71237264D01*
X131008168Y-71235885D01*
X131009920Y-71236851D01*
X131009960Y-71238850D01*
X131009384Y-71239503D01*
X130914110Y-71308724D01*
X130596140Y-71626694D01*
X130518259Y-71733888D01*
X130516648Y-71738846D01*
X130515162Y-71740184D01*
X130513260Y-71739566D01*
X130512761Y-71737983D01*
X130519696Y-71681802D01*
X130489673Y-71619391D01*
X130430673Y-71583120D01*
X130361648Y-71584499D01*
X130359896Y-71583533D01*
X130359856Y-71581534D01*
X130360432Y-71580881D01*
X130455706Y-71511660D01*
X130773676Y-71193690D01*
X130851557Y-71086496D01*
X130853168Y-71081538D01*
X130854654Y-71080200D01*
X130856556Y-71080818D01*
G37*
G36*
X156876225Y-71003383D02*
G01*
X156876048Y-71004859D01*
X156842576Y-71066160D01*
X156847518Y-71135242D01*
X156889023Y-71190686D01*
X156953962Y-71214906D01*
X157011754Y-71205074D01*
X157034108Y-71195400D01*
X157034631Y-71195255D01*
X157054891Y-71192480D01*
X157056742Y-71193235D01*
X157057014Y-71195217D01*
X157055780Y-71196363D01*
X156958006Y-71228132D01*
X156852393Y-71304864D01*
X156567277Y-71589980D01*
X156565345Y-71590498D01*
X156563931Y-71589084D01*
X156564108Y-71587608D01*
X156597576Y-71526313D01*
X156592636Y-71457231D01*
X156551131Y-71401787D01*
X156486193Y-71377566D01*
X156428397Y-71387399D01*
X156404042Y-71397939D01*
X156403519Y-71398085D01*
X156382850Y-71400916D01*
X156380999Y-71400161D01*
X156380727Y-71398179D01*
X156381961Y-71397033D01*
X156481296Y-71364757D01*
X156588490Y-71286876D01*
X156872879Y-71002487D01*
X156874811Y-71001969D01*
X156876225Y-71003383D01*
G37*
G36*
X158116021Y-69665642D02*
G01*
X158116516Y-69667251D01*
X158113685Y-69687917D01*
X158113539Y-69688440D01*
X158103018Y-69712751D01*
X158094496Y-69781788D01*
X158124519Y-69844200D01*
X158183519Y-69880471D01*
X158252813Y-69879087D01*
X158303133Y-69848548D01*
X158305133Y-69848504D01*
X158306171Y-69850214D01*
X158305585Y-69851672D01*
X158045864Y-70111393D01*
X157969132Y-70217006D01*
X157937362Y-70314781D01*
X157935876Y-70316119D01*
X157933974Y-70315501D01*
X157933479Y-70313892D01*
X157936255Y-70293630D01*
X157936400Y-70293107D01*
X157946054Y-70270798D01*
X157954576Y-70201764D01*
X157924553Y-70139352D01*
X157865553Y-70103081D01*
X157796259Y-70104465D01*
X157745936Y-70135006D01*
X157743936Y-70135050D01*
X157742898Y-70133340D01*
X157743484Y-70131882D01*
X158002476Y-69872890D01*
X158080357Y-69765696D01*
X158112633Y-69666362D01*
X158114119Y-69665024D01*
X158116021Y-69665642D01*
G37*
G36*
X153101972Y-69112413D02*
G01*
X153101795Y-69113889D01*
X153068327Y-69175184D01*
X153073267Y-69244266D01*
X153114772Y-69299710D01*
X153179710Y-69323931D01*
X153222337Y-69316679D01*
X153224212Y-69317375D01*
X153224547Y-69319346D01*
X153223848Y-69320269D01*
X153119803Y-69395862D01*
X152892375Y-69623290D01*
X152890443Y-69623808D01*
X152889029Y-69622394D01*
X152889206Y-69620918D01*
X152922678Y-69559617D01*
X152917738Y-69490535D01*
X152876233Y-69435091D01*
X152811295Y-69410870D01*
X152768669Y-69418122D01*
X152766794Y-69417426D01*
X152766459Y-69415455D01*
X152767158Y-69414532D01*
X152871205Y-69338938D01*
X153098626Y-69111517D01*
X153100558Y-69110999D01*
X153101972Y-69112413D01*
G37*
G36*
X151889205Y-67739056D02*
G01*
X151889701Y-67740665D01*
X151887406Y-67757423D01*
X151897765Y-67826205D01*
X151943466Y-67878243D01*
X152010049Y-67897312D01*
X152076613Y-67877284D01*
X152085151Y-67871170D01*
X152128124Y-67837475D01*
X152128564Y-67837213D01*
X152140098Y-67832222D01*
X152142084Y-67832452D01*
X152142879Y-67834288D01*
X152142068Y-67835676D01*
X152051793Y-67901264D01*
X151742662Y-68210395D01*
X151665930Y-68316008D01*
X151634161Y-68413782D01*
X151632675Y-68415120D01*
X151630773Y-68414502D01*
X151630277Y-68412893D01*
X151631996Y-68400341D01*
X151621639Y-68331560D01*
X151575938Y-68279521D01*
X151509356Y-68260451D01*
X151442791Y-68280478D01*
X151434258Y-68286588D01*
X151380177Y-68328992D01*
X151379737Y-68329254D01*
X151367972Y-68334345D01*
X151365986Y-68334115D01*
X151365191Y-68332279D01*
X151366002Y-68330891D01*
X151457690Y-68264276D01*
X151775661Y-67946305D01*
X151853541Y-67839112D01*
X151885817Y-67739776D01*
X151887303Y-67738438D01*
X151889205Y-67739056D01*
G37*
G36*
X147054273Y-67005129D02*
G01*
X147119862Y-67095405D01*
X147428993Y-67404536D01*
X147519268Y-67470124D01*
X147520081Y-67471951D01*
X147518905Y-67473569D01*
X147517298Y-67473578D01*
X147505764Y-67468587D01*
X147505324Y-67468325D01*
X147460146Y-67432900D01*
X147395533Y-67407138D01*
X147327547Y-67420341D01*
X147277489Y-67468206D01*
X147261262Y-67535511D01*
X147287422Y-67605651D01*
X147297592Y-67618623D01*
X147297854Y-67619063D01*
X147302945Y-67630828D01*
X147302715Y-67632814D01*
X147300879Y-67633609D01*
X147299491Y-67632798D01*
X147232876Y-67541110D01*
X146914906Y-67223140D01*
X146823218Y-67156525D01*
X146822405Y-67154698D01*
X146823581Y-67153080D01*
X146825188Y-67153071D01*
X146836953Y-67158162D01*
X146837393Y-67158424D01*
X146888707Y-67198660D01*
X146953320Y-67224422D01*
X147021306Y-67211218D01*
X147071365Y-67163353D01*
X147087591Y-67096049D01*
X147061431Y-67025909D01*
X147056074Y-67019077D01*
X147055812Y-67018637D01*
X147050819Y-67007099D01*
X147051049Y-67005113D01*
X147052885Y-67004318D01*
X147054273Y-67005129D01*
G37*
G36*
X152463179Y-65580722D02*
G01*
X152538395Y-65655938D01*
X152644008Y-65732670D01*
X152741784Y-65764440D01*
X152743122Y-65765926D01*
X152742504Y-65767828D01*
X152740895Y-65768323D01*
X152705647Y-65763494D01*
X152705413Y-65765201D01*
X152704187Y-65766782D01*
X152703186Y-65766915D01*
X152662727Y-65761917D01*
X152600314Y-65791934D01*
X152564037Y-65850932D01*
X152565415Y-65920225D01*
X152595958Y-65970555D01*
X152596001Y-65972555D01*
X152594292Y-65973593D01*
X152592834Y-65973007D01*
X152518351Y-65898524D01*
X152411156Y-65820643D01*
X152311823Y-65788367D01*
X152310485Y-65786881D01*
X152311103Y-65784979D01*
X152312712Y-65784484D01*
X152348363Y-65789368D01*
X152348513Y-65788270D01*
X152349739Y-65786690D01*
X152350739Y-65786557D01*
X152393291Y-65791812D01*
X152455703Y-65761792D01*
X152491978Y-65702792D01*
X152490597Y-65633499D01*
X152460055Y-65583174D01*
X152460011Y-65581174D01*
X152461721Y-65580136D01*
X152463179Y-65580722D01*
G37*
G36*
X144786230Y-63889189D02*
G01*
X144796439Y-63940514D01*
X144839463Y-64004904D01*
X145737209Y-64902650D01*
X145801599Y-64945674D01*
X145852924Y-64955883D01*
X145854428Y-64957202D01*
X145854038Y-64959164D01*
X145852534Y-64959845D01*
X145837080Y-64959845D01*
X145770341Y-64979441D01*
X145724935Y-65031844D01*
X145713794Y-65083058D01*
X145713794Y-65098585D01*
X145712794Y-65100317D01*
X145710794Y-65100317D01*
X145709832Y-65098975D01*
X145699623Y-65047650D01*
X145656599Y-64983260D01*
X144758853Y-64085514D01*
X144694463Y-64042490D01*
X144643138Y-64032281D01*
X144641634Y-64030962D01*
X144642024Y-64029000D01*
X144643528Y-64028319D01*
X144658982Y-64028319D01*
X144725721Y-64008723D01*
X144771127Y-63956320D01*
X144782268Y-63905106D01*
X144782268Y-63889579D01*
X144783268Y-63887847D01*
X144785268Y-63887847D01*
X144786230Y-63889189D01*
G37*
G36*
X144521384Y-63816414D02*
G01*
X144521207Y-63817890D01*
X144487735Y-63879192D01*
X144492675Y-63948274D01*
X144534180Y-64003718D01*
X144598426Y-64027681D01*
X144599699Y-64029223D01*
X144599000Y-64031097D01*
X144598117Y-64031517D01*
X144542948Y-64042490D01*
X144478558Y-64085514D01*
X143941437Y-64622635D01*
X143898413Y-64687025D01*
X143888204Y-64738351D01*
X143886885Y-64739855D01*
X143884923Y-64739465D01*
X143884242Y-64737961D01*
X143884242Y-64732745D01*
X143864646Y-64666006D01*
X143812303Y-64620651D01*
X143743559Y-64610767D01*
X143719073Y-64616913D01*
X143698541Y-64624386D01*
X143696571Y-64624039D01*
X143695887Y-64622160D01*
X143696746Y-64620844D01*
X143744862Y-64588694D01*
X144518038Y-63815518D01*
X144519970Y-63815000D01*
X144521384Y-63816414D01*
G37*
G36*
X150661073Y-63753929D02*
G01*
X150726662Y-63844205D01*
X150926227Y-64043770D01*
X150926745Y-64045702D01*
X150925331Y-64047116D01*
X150923855Y-64046939D01*
X150862560Y-64013471D01*
X150793478Y-64018411D01*
X150738034Y-64059916D01*
X150713813Y-64124854D01*
X150723645Y-64182646D01*
X150731948Y-64201832D01*
X150731718Y-64203818D01*
X150729882Y-64204613D01*
X150728494Y-64203802D01*
X150661876Y-64112110D01*
X150463037Y-63913271D01*
X150462519Y-63911339D01*
X150463933Y-63909925D01*
X150465409Y-63910102D01*
X150526710Y-63943574D01*
X150595792Y-63938634D01*
X150651236Y-63897129D01*
X150675457Y-63832191D01*
X150665625Y-63774398D01*
X150657619Y-63755899D01*
X150657849Y-63753913D01*
X150659685Y-63753118D01*
X150661073Y-63753929D01*
G37*
G36*
X145684255Y-62991164D02*
G01*
X145694464Y-63042489D01*
X145737488Y-63106879D01*
X146635234Y-64004625D01*
X146699624Y-64047649D01*
X146750949Y-64057858D01*
X146752453Y-64059177D01*
X146752063Y-64061139D01*
X146750559Y-64061820D01*
X146735106Y-64061820D01*
X146668367Y-64081416D01*
X146622961Y-64133819D01*
X146611820Y-64185033D01*
X146611820Y-64200559D01*
X146610820Y-64202291D01*
X146608820Y-64202291D01*
X146607858Y-64200949D01*
X146597649Y-64149624D01*
X146554625Y-64085234D01*
X145656879Y-63187488D01*
X145592489Y-63144464D01*
X145541164Y-63134255D01*
X145539660Y-63132936D01*
X145540050Y-63130974D01*
X145541554Y-63130293D01*
X145557007Y-63130293D01*
X145623746Y-63110697D01*
X145669152Y-63058294D01*
X145680293Y-63007080D01*
X145680293Y-62991554D01*
X145681293Y-62989822D01*
X145683293Y-62989822D01*
X145684255Y-62991164D01*
G37*
G36*
X145448121Y-62889677D02*
G01*
X145447603Y-62891609D01*
X145419095Y-62920118D01*
X145385760Y-62981167D01*
X145390702Y-63050249D01*
X145432207Y-63105693D01*
X145496452Y-63129655D01*
X145497725Y-63131197D01*
X145497026Y-63133071D01*
X145496143Y-63133491D01*
X145440974Y-63144464D01*
X145376584Y-63187488D01*
X144839463Y-63724609D01*
X144796439Y-63788999D01*
X144784575Y-63848645D01*
X144783256Y-63850149D01*
X144781294Y-63849759D01*
X144780694Y-63848818D01*
X144762672Y-63787439D01*
X144710329Y-63742084D01*
X144641776Y-63732227D01*
X144578539Y-63761107D01*
X144572244Y-63766967D01*
X144570295Y-63767415D01*
X144568932Y-63765951D01*
X144569467Y-63764089D01*
X145444775Y-62888781D01*
X145446707Y-62888263D01*
X145448121Y-62889677D01*
G37*
G36*
X146582281Y-62093138D02*
G01*
X146592490Y-62144463D01*
X146635514Y-62208853D01*
X147533260Y-63106599D01*
X147597650Y-63149623D01*
X147648975Y-63159832D01*
X147650479Y-63161151D01*
X147650089Y-63163113D01*
X147648585Y-63163794D01*
X147633131Y-63163794D01*
X147566392Y-63183390D01*
X147520986Y-63235793D01*
X147509845Y-63287007D01*
X147509845Y-63302534D01*
X147508845Y-63304266D01*
X147506845Y-63304266D01*
X147505883Y-63302924D01*
X147495674Y-63251599D01*
X147452650Y-63187209D01*
X146554904Y-62289463D01*
X146490514Y-62246439D01*
X146439189Y-62236230D01*
X146437685Y-62234911D01*
X146438075Y-62232949D01*
X146439579Y-62232268D01*
X146455033Y-62232268D01*
X146521772Y-62212672D01*
X146567178Y-62160269D01*
X146578319Y-62109055D01*
X146578319Y-62093528D01*
X146579319Y-62091796D01*
X146581319Y-62091796D01*
X146582281Y-62093138D01*
G37*
G36*
X156490622Y-62291118D02*
G01*
X156565732Y-62394498D01*
X156883702Y-62712468D01*
X156990896Y-62790349D01*
X157090228Y-62822624D01*
X157091566Y-62824110D01*
X157090948Y-62826012D01*
X157089339Y-62826507D01*
X157068671Y-62823676D01*
X157068148Y-62823531D01*
X157055382Y-62818007D01*
X156986348Y-62809486D01*
X156923937Y-62839509D01*
X156887666Y-62898509D01*
X156889059Y-62968202D01*
X156888988Y-62968330D01*
X156889267Y-62968570D01*
X156893406Y-62979665D01*
X156905614Y-63007879D01*
X156905759Y-63008402D01*
X156908370Y-63027463D01*
X156907615Y-63029314D01*
X156905633Y-63029586D01*
X156904487Y-63028352D01*
X156885491Y-62969887D01*
X156885596Y-62969392D01*
X156885157Y-62968860D01*
X156874238Y-62935254D01*
X156800953Y-62834387D01*
X156518339Y-62551773D01*
X156417472Y-62478488D01*
X156324372Y-62448238D01*
X156323034Y-62446752D01*
X156323652Y-62444850D01*
X156325261Y-62444355D01*
X156354049Y-62448299D01*
X156422835Y-62437939D01*
X156474873Y-62392238D01*
X156493967Y-62325567D01*
X156487047Y-62292706D01*
X156487669Y-62290805D01*
X156489626Y-62290393D01*
X156490622Y-62291118D01*
G37*
G36*
X146317433Y-62020365D02*
G01*
X146317256Y-62021841D01*
X146283785Y-62083141D01*
X146288725Y-62152223D01*
X146330230Y-62207667D01*
X146394476Y-62231630D01*
X146395749Y-62233172D01*
X146395050Y-62235046D01*
X146394167Y-62235466D01*
X146338999Y-62246439D01*
X146274609Y-62289463D01*
X145737488Y-62826584D01*
X145694464Y-62890974D01*
X145682600Y-62950620D01*
X145681281Y-62952124D01*
X145679319Y-62951734D01*
X145678719Y-62950793D01*
X145660697Y-62889413D01*
X145608354Y-62844058D01*
X145539801Y-62834201D01*
X145476564Y-62863081D01*
X145470269Y-62868942D01*
X145468320Y-62869390D01*
X145466957Y-62867926D01*
X145467492Y-62866064D01*
X146314087Y-62019469D01*
X146316019Y-62018951D01*
X146317433Y-62020365D01*
G37*
G36*
X141763455Y-61187092D02*
G01*
X141764055Y-61188033D01*
X141782077Y-61249413D01*
X141834420Y-61294768D01*
X141902973Y-61304625D01*
X141966210Y-61275745D01*
X141972491Y-61269898D01*
X141974440Y-61269450D01*
X141975803Y-61270914D01*
X141975268Y-61272776D01*
X141202106Y-62045938D01*
X141169956Y-62094054D01*
X141168162Y-62094939D01*
X141166499Y-62093828D01*
X141166414Y-62092259D01*
X141173825Y-62071897D01*
X141178237Y-62002478D01*
X141144564Y-61941957D01*
X141083344Y-61909156D01*
X141058242Y-61906558D01*
X141052839Y-61906558D01*
X141051107Y-61905558D01*
X141051107Y-61903558D01*
X141052449Y-61902596D01*
X141103775Y-61892387D01*
X141168165Y-61849363D01*
X141705286Y-61312242D01*
X141748310Y-61247852D01*
X141760174Y-61188206D01*
X141761493Y-61186702D01*
X141763455Y-61187092D01*
G37*
G36*
X147174301Y-61146972D02*
G01*
X147174386Y-61148541D01*
X147166975Y-61168903D01*
X147162563Y-61238322D01*
X147196236Y-61298843D01*
X147257456Y-61331644D01*
X147282558Y-61334242D01*
X147287961Y-61334242D01*
X147289693Y-61335242D01*
X147289693Y-61337242D01*
X147288351Y-61338204D01*
X147237025Y-61348413D01*
X147172635Y-61391437D01*
X146635514Y-61928558D01*
X146592490Y-61992948D01*
X146580626Y-62052594D01*
X146579307Y-62054098D01*
X146577345Y-62053708D01*
X146576745Y-62052767D01*
X146558723Y-61991387D01*
X146506380Y-61946032D01*
X146437827Y-61936175D01*
X146374590Y-61965055D01*
X146368309Y-61970902D01*
X146366360Y-61971350D01*
X146364997Y-61969886D01*
X146365532Y-61968024D01*
X147138694Y-61194862D01*
X147170844Y-61146746D01*
X147172638Y-61145861D01*
X147174301Y-61146972D01*
G37*
G36*
X154617028Y-61179089D02*
G01*
X154617523Y-61180698D01*
X154614747Y-61200961D01*
X154614602Y-61201484D01*
X154600086Y-61235028D01*
X154591564Y-61304062D01*
X154621587Y-61366474D01*
X154680587Y-61402745D01*
X154749946Y-61401359D01*
X154785357Y-61382687D01*
X154787356Y-61382764D01*
X154788289Y-61384533D01*
X154787704Y-61385870D01*
X154399847Y-61773727D01*
X154326562Y-61874594D01*
X154296313Y-61967692D01*
X154294827Y-61969030D01*
X154292925Y-61968412D01*
X154292430Y-61966803D01*
X154295041Y-61947742D01*
X154295186Y-61947219D01*
X154304787Y-61925030D01*
X154313307Y-61855996D01*
X154283282Y-61793585D01*
X154224282Y-61757316D01*
X154154987Y-61758702D01*
X154104668Y-61789243D01*
X154102668Y-61789287D01*
X154101630Y-61787577D01*
X154102216Y-61786119D01*
X154505138Y-61383197D01*
X154581870Y-61277585D01*
X154613640Y-61179809D01*
X154615126Y-61178471D01*
X154617028Y-61179089D01*
G37*
G36*
X155359559Y-61091953D02*
G01*
X155391835Y-61191288D01*
X155469716Y-61298482D01*
X155787686Y-61616452D01*
X155895095Y-61694490D01*
X155895908Y-61696317D01*
X155894732Y-61697935D01*
X155893674Y-61698093D01*
X155839288Y-61691379D01*
X155776877Y-61721402D01*
X155740558Y-61780480D01*
X155737375Y-61829564D01*
X155741645Y-61860740D01*
X155740890Y-61862591D01*
X155738908Y-61862863D01*
X155737762Y-61861629D01*
X155707512Y-61768528D01*
X155634227Y-61667661D01*
X155351613Y-61385047D01*
X155250746Y-61311762D01*
X155157645Y-61281512D01*
X155156307Y-61280026D01*
X155156925Y-61278124D01*
X155158534Y-61277629D01*
X155177596Y-61280240D01*
X155178119Y-61280385D01*
X155203451Y-61291347D01*
X155272485Y-61299867D01*
X155334896Y-61269843D01*
X155371166Y-61210843D01*
X155369776Y-61141349D01*
X155365419Y-61129668D01*
X155358653Y-61114034D01*
X155358507Y-61113511D01*
X155355676Y-61092842D01*
X155356431Y-61090991D01*
X155358413Y-61090719D01*
X155359559Y-61091953D01*
G37*
G36*
X142661481Y-60289066D02*
G01*
X142662081Y-60290007D01*
X142680103Y-60351387D01*
X142732446Y-60396742D01*
X142800999Y-60406599D01*
X142864236Y-60377719D01*
X142870531Y-60371858D01*
X142872480Y-60371410D01*
X142873843Y-60372874D01*
X142873308Y-60374736D01*
X142026713Y-61221331D01*
X142024781Y-61221849D01*
X142023367Y-61220435D01*
X142023544Y-61218959D01*
X142057015Y-61157659D01*
X142052075Y-61088577D01*
X142010570Y-61033133D01*
X141946324Y-61009170D01*
X141945051Y-61007628D01*
X141945750Y-61005754D01*
X141946633Y-61005334D01*
X142001801Y-60994361D01*
X142066191Y-60951337D01*
X142603312Y-60414216D01*
X142646336Y-60349826D01*
X142658200Y-60290180D01*
X142659519Y-60288676D01*
X142661481Y-60289066D01*
G37*
G36*
X140834917Y-59937876D02*
G01*
X140845126Y-59989201D01*
X140888150Y-60053591D01*
X141785896Y-60951337D01*
X141850286Y-60994361D01*
X141901611Y-61004570D01*
X141903115Y-61005889D01*
X141902725Y-61007851D01*
X141901221Y-61008532D01*
X141885767Y-61008532D01*
X141819028Y-61028128D01*
X141773622Y-61080531D01*
X141762481Y-61131745D01*
X141762481Y-61147272D01*
X141761481Y-61149004D01*
X141759481Y-61149004D01*
X141758519Y-61147662D01*
X141748310Y-61096337D01*
X141705286Y-61031947D01*
X140807540Y-60134201D01*
X140743150Y-60091177D01*
X140691825Y-60080968D01*
X140690321Y-60079649D01*
X140690711Y-60077687D01*
X140692215Y-60077006D01*
X140707669Y-60077006D01*
X140774408Y-60057410D01*
X140819814Y-60005007D01*
X140830955Y-59953793D01*
X140830955Y-59938266D01*
X140831955Y-59936534D01*
X140833955Y-59936534D01*
X140834917Y-59937876D01*
G37*
G36*
X143559506Y-59391041D02*
G01*
X143560106Y-59391982D01*
X143578128Y-59453361D01*
X143630471Y-59498716D01*
X143699024Y-59508573D01*
X143762261Y-59479693D01*
X143768556Y-59473833D01*
X143770505Y-59473385D01*
X143771868Y-59474849D01*
X143771333Y-59476711D01*
X142896113Y-60351931D01*
X142894181Y-60352449D01*
X142892767Y-60351035D01*
X142893285Y-60349103D01*
X142921705Y-60320682D01*
X142955040Y-60259633D01*
X142950098Y-60190551D01*
X142908593Y-60135107D01*
X142844348Y-60111145D01*
X142843075Y-60109603D01*
X142843774Y-60107729D01*
X142844657Y-60107309D01*
X142899826Y-60096336D01*
X142964216Y-60053312D01*
X143501337Y-59516191D01*
X143544361Y-59451801D01*
X143556225Y-59392155D01*
X143557544Y-59390651D01*
X143559506Y-59391041D01*
G37*
G36*
X141732942Y-59039851D02*
G01*
X141743151Y-59091176D01*
X141786175Y-59155566D01*
X142683921Y-60053312D01*
X142748311Y-60096336D01*
X142799636Y-60106545D01*
X142801140Y-60107864D01*
X142800750Y-60109826D01*
X142799246Y-60110507D01*
X142783793Y-60110507D01*
X142717054Y-60130103D01*
X142671648Y-60182506D01*
X142660507Y-60233720D01*
X142660507Y-60249246D01*
X142659507Y-60250978D01*
X142657507Y-60250978D01*
X142656545Y-60249636D01*
X142646336Y-60198311D01*
X142603312Y-60133921D01*
X141705566Y-59236175D01*
X141641176Y-59193151D01*
X141589851Y-59182942D01*
X141588347Y-59181623D01*
X141588737Y-59179661D01*
X141590241Y-59178980D01*
X141605694Y-59178980D01*
X141672433Y-59159384D01*
X141717839Y-59106981D01*
X141728980Y-59055767D01*
X141728980Y-59040241D01*
X141729980Y-59038509D01*
X141731980Y-59038509D01*
X141732942Y-59039851D01*
G37*
G36*
X151298741Y-59430613D02*
G01*
X151302730Y-59459732D01*
X151302730Y-59460274D01*
X151299720Y-59482243D01*
X151310078Y-59551028D01*
X151355779Y-59603067D01*
X151422361Y-59622137D01*
X151488807Y-59602146D01*
X151518432Y-59574994D01*
X151547228Y-59538270D01*
X151549084Y-59537524D01*
X151550658Y-59538758D01*
X151550420Y-59540680D01*
X151488130Y-59626415D01*
X151447840Y-59750413D01*
X151447840Y-59844723D01*
X151446840Y-59846455D01*
X151444840Y-59846455D01*
X151443859Y-59844994D01*
X151439870Y-59815875D01*
X151439870Y-59815333D01*
X151442880Y-59793365D01*
X151432522Y-59724580D01*
X151386821Y-59672541D01*
X151320239Y-59653471D01*
X151253793Y-59673462D01*
X151224168Y-59700614D01*
X151195376Y-59737332D01*
X151193520Y-59738078D01*
X151191946Y-59736844D01*
X151192184Y-59734922D01*
X151254470Y-59649192D01*
X151294760Y-59525195D01*
X151294760Y-59430884D01*
X151295760Y-59429152D01*
X151297760Y-59429152D01*
X151298741Y-59430613D01*
G37*
G36*
X144455877Y-58501335D02*
G01*
X144456558Y-58502839D01*
X144456558Y-58508055D01*
X144476154Y-58574794D01*
X144528497Y-58620149D01*
X144597241Y-58630033D01*
X144621727Y-58623887D01*
X144642259Y-58616414D01*
X144644229Y-58616761D01*
X144644913Y-58618640D01*
X144644054Y-58619956D01*
X144595938Y-58652106D01*
X143822762Y-59425282D01*
X143820830Y-59425800D01*
X143819416Y-59424386D01*
X143819593Y-59422910D01*
X143853065Y-59361608D01*
X143848125Y-59292526D01*
X143806620Y-59237082D01*
X143742374Y-59213119D01*
X143741101Y-59211577D01*
X143741800Y-59209703D01*
X143742683Y-59209283D01*
X143797852Y-59198310D01*
X143862242Y-59155286D01*
X144399363Y-58618165D01*
X144442387Y-58553775D01*
X144452596Y-58502449D01*
X144453915Y-58500945D01*
X144455877Y-58501335D01*
G37*
G36*
X142630968Y-58141825D02*
G01*
X142641177Y-58193150D01*
X142684201Y-58257540D01*
X143581947Y-59155286D01*
X143646337Y-59198310D01*
X143697662Y-59208519D01*
X143699166Y-59209838D01*
X143698776Y-59211800D01*
X143697272Y-59212481D01*
X143681818Y-59212481D01*
X143615079Y-59232077D01*
X143569673Y-59284480D01*
X143558532Y-59335694D01*
X143558532Y-59351221D01*
X143557532Y-59352953D01*
X143555532Y-59352953D01*
X143554570Y-59351611D01*
X143544361Y-59300286D01*
X143501337Y-59235896D01*
X142603591Y-58338150D01*
X142539201Y-58295126D01*
X142487876Y-58284917D01*
X142486372Y-58283598D01*
X142486762Y-58281636D01*
X142488266Y-58280955D01*
X142503720Y-58280955D01*
X142570459Y-58261359D01*
X142615865Y-58208956D01*
X142627006Y-58157742D01*
X142627006Y-58142215D01*
X142628006Y-58140483D01*
X142630006Y-58140483D01*
X142630968Y-58141825D01*
G37*
G36*
X138242933Y-58270299D02*
G01*
X138550472Y-58577838D01*
X138550990Y-58579770D01*
X138549576Y-58581184D01*
X138547824Y-58580826D01*
X138544424Y-58578160D01*
X138479811Y-58552398D01*
X138411825Y-58565602D01*
X138361766Y-58613467D01*
X138345540Y-58680772D01*
X138371701Y-58750911D01*
X138373917Y-58753738D01*
X138374199Y-58755718D01*
X138372625Y-58756952D01*
X138370929Y-58756386D01*
X138072230Y-58457687D01*
X138071712Y-58455755D01*
X138073126Y-58454341D01*
X138074878Y-58454699D01*
X138075411Y-58455117D01*
X138140024Y-58480879D01*
X138208010Y-58467675D01*
X138258069Y-58419810D01*
X138274301Y-58352482D01*
X138251485Y-58286862D01*
X138243033Y-58276883D01*
X138242985Y-58276824D01*
X138239945Y-58272947D01*
X138239663Y-58270967D01*
X138241237Y-58269733D01*
X138242933Y-58270299D01*
G37*
G36*
X141027777Y-55339833D02*
G01*
X141093365Y-55430108D01*
X141402496Y-55739239D01*
X141492771Y-55804827D01*
X141493584Y-55806654D01*
X141492408Y-55808272D01*
X141490801Y-55808281D01*
X141479267Y-55803290D01*
X141478827Y-55803028D01*
X141435264Y-55768870D01*
X141370650Y-55743108D01*
X141302665Y-55756312D01*
X141252606Y-55804177D01*
X141236380Y-55871482D01*
X141262541Y-55941622D01*
X141273976Y-55956207D01*
X141274238Y-55956647D01*
X141279329Y-55968412D01*
X141279099Y-55970398D01*
X141277263Y-55971193D01*
X141275875Y-55970382D01*
X141209260Y-55878694D01*
X140891290Y-55560724D01*
X140799602Y-55494109D01*
X140798789Y-55492282D01*
X140799965Y-55490664D01*
X140801572Y-55490655D01*
X140813337Y-55495746D01*
X140813777Y-55496008D01*
X140863477Y-55534978D01*
X140928091Y-55560740D01*
X140996077Y-55547536D01*
X141046135Y-55499671D01*
X141062361Y-55432366D01*
X141036200Y-55362226D01*
X141029576Y-55353777D01*
X141029314Y-55353337D01*
X141024323Y-55341803D01*
X141024553Y-55339817D01*
X141026389Y-55339022D01*
X141027777Y-55339833D01*
G37*
G36*
X135867813Y-47318632D02*
G01*
X135868330Y-47320171D01*
X135867600Y-47327893D01*
X135867600Y-48277707D01*
X135875539Y-48361689D01*
X135902171Y-48437527D01*
X135901801Y-48439493D01*
X135899914Y-48440156D01*
X135898436Y-48438955D01*
X135874596Y-48381399D01*
X135872548Y-48382247D01*
X135870565Y-48381986D01*
X135869954Y-48381208D01*
X135853652Y-48344369D01*
X135795833Y-48306241D01*
X135726579Y-48305425D01*
X135667780Y-48342241D01*
X135647583Y-48375081D01*
X135645823Y-48376032D01*
X135644120Y-48374984D01*
X135643904Y-48373720D01*
X135661900Y-48260095D01*
X135661900Y-47497905D01*
X135641480Y-47368976D01*
X135631236Y-47348872D01*
X135631341Y-47346875D01*
X135633123Y-47345967D01*
X135634595Y-47346734D01*
X135673082Y-47396061D01*
X135738443Y-47418962D01*
X135805810Y-47402890D01*
X135853878Y-47352861D01*
X135864432Y-47319382D01*
X135865906Y-47318030D01*
X135867813Y-47318632D01*
G37*
M02*
