G04 #@! TF.GenerationSoftware,KiCad,Pcbnew,(5.99.0-10394-g2e15de97e0)*
G04 #@! TF.CreationDate,2021-06-29T10:31:27+02:00*
G04 #@! TF.ProjectId,QFHMIX01D,5146484d-4958-4303-9144-2e6b69636164,REV 0.2*
G04 #@! TF.SameCoordinates,Original*
G04 #@! TF.FileFunction,Soldermask,Top*
G04 #@! TF.FilePolarity,Negative*
%FSLAX45Y45*%
G04 Gerber Fmt 4.5, Leading zero omitted, Abs format (unit mm)*
G04 Created by KiCad (PCBNEW (5.99.0-10394-g2e15de97e0)) date 2021-06-29 10:31:27*
%MOMM*%
%LPD*%
G01*
G04 APERTURE LIST*
G04 Aperture macros list*
%AMRoundRect*
0 Rectangle with rounded corners*
0 $1 Rounding radius*
0 $2 $3 $4 $5 $6 $7 $8 $9 X,Y pos of 4 corners*
0 Add a 4 corners polygon primitive as box body*
4,1,4,$2,$3,$4,$5,$6,$7,$8,$9,$2,$3,0*
0 Add four circle primitives for the rounded corners*
1,1,$1+$1,$2,$3*
1,1,$1+$1,$4,$5*
1,1,$1+$1,$6,$7*
1,1,$1+$1,$8,$9*
0 Add four rect primitives between the rounded corners*
20,1,$1+$1,$2,$3,$4,$5,0*
20,1,$1+$1,$4,$5,$6,$7,0*
20,1,$1+$1,$6,$7,$8,$9,0*
20,1,$1+$1,$8,$9,$2,$3,0*%
G04 Aperture macros list end*
%ADD10C,2.000000*%
%ADD11C,2.900000*%
%ADD12RoundRect,0.200000X0.000000X1.077631X-1.077631X0.000000X0.000000X-1.077631X1.077631X0.000000X0*%
%ADD13C,6.400000*%
%ADD14C,0.900000*%
%ADD15C,2.700000*%
G04 APERTURE END LIST*
D10*
X11468051Y-10915503D03*
X12362541Y-12715089D03*
X13084497Y-12531949D03*
X12545682Y-11993133D03*
X12006866Y-11454318D03*
X11284910Y-11637459D03*
D11*
X11107073Y-11007073D03*
X11376481Y-11276481D03*
X11645888Y-11545888D03*
X11915296Y-11815296D03*
X12184704Y-12084704D03*
X12454111Y-12354111D03*
X12723519Y-12623519D03*
X12992927Y-12892927D03*
D12*
X13838088Y-12391023D03*
X13658483Y-12570628D03*
X13658483Y-12211417D03*
X13478877Y-12391023D03*
X13478877Y-12031812D03*
X13299272Y-12211417D03*
D13*
X18556000Y-12556000D03*
X18556000Y-5444000D03*
X11444000Y-12556000D03*
X15000000Y-12600000D03*
X15000000Y-5400000D03*
X18600000Y-9000000D03*
X11400000Y-9000000D03*
X11444000Y-5444000D03*
D14*
X14605754Y-8227825D03*
X14535043Y-8157114D03*
X14464332Y-8227825D03*
X14747175Y-8227825D03*
X14605754Y-8369246D03*
X14817886Y-8439957D03*
X14747175Y-8369246D03*
X14535043Y-8298535D03*
X14817886Y-8298535D03*
X14747175Y-8510668D03*
X14676464Y-8298535D03*
X14605754Y-8086403D03*
X14888596Y-8369246D03*
X14676464Y-8157114D03*
X14676464Y-8439957D03*
X15772175Y-9525668D03*
X15842886Y-9313536D03*
X15772175Y-9384246D03*
X15630754Y-9384246D03*
X15560043Y-9172114D03*
X15701464Y-9172114D03*
X15772175Y-9242825D03*
X15630754Y-9101404D03*
X15842886Y-9454957D03*
X15701464Y-9313536D03*
X15560043Y-9313536D03*
X15630754Y-9242825D03*
X15701464Y-9454957D03*
X15489332Y-9242825D03*
X15913596Y-9384246D03*
D15*
X14074140Y-11391900D03*
D14*
X14558461Y-6162040D03*
X14204908Y-6232751D03*
X14346329Y-6091329D03*
X14417040Y-6303461D03*
X14487751Y-6232751D03*
X14346329Y-6374172D03*
X14417040Y-6162040D03*
X14346329Y-6232751D03*
X14629172Y-6091329D03*
X14558461Y-6020619D03*
X14487751Y-5949908D03*
X14487751Y-6091329D03*
X14275619Y-6303461D03*
X14275619Y-6162040D03*
X14417040Y-6020619D03*
X17610761Y-9737951D03*
X17752183Y-9596529D03*
X17893604Y-9737951D03*
X17893604Y-9455108D03*
X18035025Y-9596529D03*
X17681472Y-9667240D03*
X17752183Y-9737951D03*
X17822893Y-9808661D03*
X17752183Y-9879372D03*
X17964315Y-9525819D03*
X17964315Y-9667240D03*
X17681472Y-9808661D03*
X17822893Y-9525819D03*
X17822893Y-9667240D03*
X17893604Y-9596529D03*
G36*
X17873033Y-8917400D02*
G01*
X17875131Y-8919091D01*
X18557179Y-9601139D01*
X18560581Y-9607370D01*
X18560869Y-9610048D01*
X18560869Y-9741031D01*
X18558869Y-9747844D01*
X18557179Y-9749941D01*
X17963519Y-10343601D01*
X17957288Y-10347003D01*
X17954609Y-10347291D01*
X17823626Y-10347291D01*
X17816814Y-10345291D01*
X17814716Y-10343601D01*
X17132668Y-9661553D01*
X17129266Y-9655321D01*
X17128978Y-9652643D01*
X17128978Y-9521660D01*
X17130978Y-9514848D01*
X17132668Y-9512750D01*
X17726328Y-8919091D01*
X17732559Y-8915688D01*
X17735238Y-8915400D01*
X17866221Y-8915400D01*
X17873033Y-8917400D01*
G37*
G36*
X15825552Y-8600959D02*
G01*
X15827650Y-8602650D01*
X16421309Y-9196310D01*
X16424712Y-9202541D01*
X16425000Y-9205219D01*
X16425000Y-9336202D01*
X16423000Y-9343015D01*
X16421309Y-9345112D01*
X15739261Y-10027160D01*
X15733030Y-10030563D01*
X15730352Y-10030851D01*
X15599369Y-10030851D01*
X15592556Y-10028850D01*
X15590459Y-10027160D01*
X14996799Y-9433500D01*
X14993397Y-9427269D01*
X14993109Y-9424591D01*
X14993109Y-9293607D01*
X14995109Y-9286795D01*
X14996799Y-9284698D01*
X15678847Y-8602650D01*
X15685079Y-8599247D01*
X15687757Y-8598959D01*
X15818740Y-8598959D01*
X15825552Y-8600959D01*
G37*
G36*
X14800552Y-7575959D02*
G01*
X14802650Y-7577650D01*
X15396309Y-8171309D01*
X15399712Y-8177541D01*
X15400000Y-8180219D01*
X15400000Y-8311202D01*
X15398000Y-8318014D01*
X15396309Y-8320112D01*
X14714261Y-9002160D01*
X14708030Y-9005563D01*
X14705352Y-9005851D01*
X14574369Y-9005851D01*
X14567556Y-9003850D01*
X14565459Y-9002160D01*
X13971799Y-8408500D01*
X13968397Y-8402269D01*
X13968109Y-8399591D01*
X13968109Y-8268607D01*
X13970109Y-8261795D01*
X13971799Y-8259698D01*
X14653847Y-7577650D01*
X14660079Y-7574247D01*
X14662757Y-7573959D01*
X14793740Y-7573959D01*
X14800552Y-7575959D01*
G37*
G36*
X12647315Y-7238163D02*
G01*
X12649412Y-7239853D01*
X12960229Y-7550670D01*
X12963632Y-7556902D01*
X12963920Y-7559580D01*
X12963920Y-7690563D01*
X12961920Y-7697375D01*
X12960229Y-7699473D01*
X12649412Y-8010290D01*
X12643181Y-8013692D01*
X12640503Y-8013980D01*
X12509520Y-8013980D01*
X12502707Y-8011980D01*
X12500610Y-8010290D01*
X12189793Y-7699473D01*
X12186390Y-7693242D01*
X12186102Y-7690563D01*
X12186102Y-7559580D01*
X12188103Y-7552768D01*
X12189793Y-7550670D01*
X12500610Y-7239853D01*
X12506841Y-7236451D01*
X12509520Y-7236163D01*
X12640503Y-7236163D01*
X12647315Y-7238163D01*
G37*
G36*
X14438953Y-5452840D02*
G01*
X14441050Y-5454531D01*
X15123099Y-6136579D01*
X15126501Y-6142810D01*
X15126789Y-6145488D01*
X15126789Y-6276471D01*
X15124789Y-6283283D01*
X15123099Y-6285381D01*
X14529439Y-6879041D01*
X14523208Y-6882443D01*
X14520529Y-6882731D01*
X14389546Y-6882731D01*
X14382734Y-6880731D01*
X14380636Y-6879041D01*
X13698588Y-6196992D01*
X13695186Y-6190761D01*
X13694898Y-6188083D01*
X13694898Y-6057100D01*
X13696898Y-6050288D01*
X13698588Y-6048190D01*
X14292248Y-5454531D01*
X14298479Y-5451128D01*
X14301158Y-5450840D01*
X14432141Y-5450840D01*
X14438953Y-5452840D01*
G37*
M02*
