%TF.GenerationSoftware,KiCad,Pcbnew,6.0.4-6f826c9f35~116~ubuntu20.04.1*%
%TF.CreationDate,2022-08-25T10:03:06+00:00*%
%TF.ProjectId,QFHMIX01E,5146484d-4958-4303-9145-2e6b69636164,rev?*%
%TF.SameCoordinates,Original*%
%TF.FileFunction,Legend,Top*%
%TF.FilePolarity,Positive*%
%FSLAX46Y46*%
G04 Gerber Fmt 4.6, Leading zero omitted, Abs format (unit mm)*
G04 Created by KiCad (PCBNEW 6.0.4-6f826c9f35~116~ubuntu20.04.1) date 2022-08-25 10:03:06*
%MOMM*%
%LPD*%
G01*
G04 APERTURE LIST*
%ADD10C,0.300000*%
%ADD11C,0.200000*%
%ADD12C,0.150000*%
G04 APERTURE END LIST*
D10*
X139602931Y-119653991D02*
X140411053Y-118845869D01*
X140411053Y-119653991D02*
X139602931Y-118845869D01*
X140108008Y-117835716D02*
X141522221Y-118542823D01*
X140815114Y-117128609D01*
X141536547Y-120521391D02*
X141385024Y-120571899D01*
X141233502Y-120723422D01*
X141132486Y-120925452D01*
X141132486Y-121127483D01*
X141182994Y-121279006D01*
X141334517Y-121531544D01*
X141486040Y-121683067D01*
X141738578Y-121834590D01*
X141890101Y-121885097D01*
X142092131Y-121885097D01*
X142294162Y-121784082D01*
X142395177Y-121683067D01*
X142496192Y-121481036D01*
X142496192Y-121380021D01*
X142142639Y-121026468D01*
X141940608Y-121228498D01*
X143051776Y-121026468D02*
X141991116Y-119965808D01*
X143657868Y-120420376D01*
X142597208Y-119359716D01*
X144162944Y-119915300D02*
X143102284Y-118854640D01*
X143354822Y-118602102D01*
X143556852Y-118501086D01*
X143758883Y-118501086D01*
X143910406Y-118551594D01*
X144162944Y-118703117D01*
X144314467Y-118854640D01*
X144465990Y-119107178D01*
X144516497Y-119258701D01*
X144516497Y-119460731D01*
X144415482Y-119662762D01*
X144162944Y-119915300D01*
X120454547Y-131595791D02*
X120303024Y-131646299D01*
X120151502Y-131797822D01*
X120050486Y-131999852D01*
X120050486Y-132201883D01*
X120100994Y-132353406D01*
X120252517Y-132605944D01*
X120404040Y-132757467D01*
X120656578Y-132908990D01*
X120808101Y-132959497D01*
X121010131Y-132959497D01*
X121212162Y-132858482D01*
X121313177Y-132757467D01*
X121414192Y-132555436D01*
X121414192Y-132454421D01*
X121060639Y-132100868D01*
X120858608Y-132302898D01*
X121969776Y-132100868D02*
X120909116Y-131040208D01*
X122575868Y-131494776D01*
X121515208Y-130434116D01*
X123080944Y-130989700D02*
X122020284Y-129929040D01*
X122272822Y-129676502D01*
X122474852Y-129575486D01*
X122676883Y-129575486D01*
X122828406Y-129625994D01*
X123080944Y-129777517D01*
X123232467Y-129929040D01*
X123383990Y-130181578D01*
X123434497Y-130333101D01*
X123434497Y-130535131D01*
X123333482Y-130737162D01*
X123080944Y-130989700D01*
X123677131Y-134030391D02*
X124485253Y-133222269D01*
X124485253Y-134030391D02*
X123677131Y-133222269D01*
X124182208Y-132212116D02*
X125596421Y-132919223D01*
X124889314Y-131505009D01*
X116497461Y-107760152D02*
X116497461Y-107861167D01*
X116396446Y-108063198D01*
X116295431Y-108164213D01*
X116093400Y-108265228D01*
X115891370Y-108265228D01*
X115739847Y-108214721D01*
X115487309Y-108063198D01*
X115335786Y-107911675D01*
X115184263Y-107659137D01*
X115133755Y-107507614D01*
X115133755Y-107305583D01*
X115234771Y-107103553D01*
X115335786Y-107002538D01*
X115537816Y-106901522D01*
X115638832Y-106901522D01*
X117558122Y-106901522D02*
X117053045Y-107406599D01*
X115992385Y-106345938D01*
X117911675Y-106547969D02*
X116851015Y-105487309D01*
X118517766Y-105941877D02*
X117457106Y-105790355D01*
X117457106Y-104881217D02*
X117457106Y-106093400D01*
X126424111Y-117664213D02*
X126626141Y-117462183D01*
X126777664Y-117411675D01*
X126979694Y-117411675D01*
X127232233Y-117563198D01*
X127585786Y-117916751D01*
X127737309Y-118169289D01*
X127737309Y-118371320D01*
X127686801Y-118522843D01*
X127484771Y-118724873D01*
X127333248Y-118775381D01*
X127131217Y-118775381D01*
X126878679Y-118623858D01*
X126525126Y-118270305D01*
X126373603Y-118017766D01*
X126373603Y-117815736D01*
X126424111Y-117664213D01*
X127333248Y-116755076D02*
X128191877Y-117613705D01*
X128343400Y-117664213D01*
X128444416Y-117664213D01*
X128595938Y-117613705D01*
X128797969Y-117411675D01*
X128848477Y-117260152D01*
X128848477Y-117159137D01*
X128797969Y-117007614D01*
X127939339Y-116148984D01*
X128292893Y-115795431D02*
X128898984Y-115189339D01*
X129656599Y-116553045D02*
X128595938Y-115492385D01*
X130161675Y-116250000D02*
X130969797Y-115441877D01*
X130919289Y-114179187D02*
X131121320Y-114078172D01*
X131222335Y-114078172D01*
X131373858Y-114128679D01*
X131525381Y-114280202D01*
X131575888Y-114431725D01*
X131575888Y-114532740D01*
X131525381Y-114684263D01*
X131121320Y-115088324D01*
X130060660Y-114027664D01*
X130414213Y-113674111D01*
X130565736Y-113623603D01*
X130666751Y-113623603D01*
X130818274Y-113674111D01*
X130919289Y-113775126D01*
X130969797Y-113926649D01*
X130969797Y-114027664D01*
X130919289Y-114179187D01*
X130565736Y-114532740D01*
X165454761Y-63930952D02*
X165292857Y-63850000D01*
X165130952Y-63688095D01*
X164888095Y-63445238D01*
X164726190Y-63364285D01*
X164564285Y-63364285D01*
X164645238Y-63769047D02*
X164483333Y-63688095D01*
X164321428Y-63526190D01*
X164240476Y-63202380D01*
X164240476Y-62635714D01*
X164321428Y-62311904D01*
X164483333Y-62150000D01*
X164645238Y-62069047D01*
X164969047Y-62069047D01*
X165130952Y-62150000D01*
X165292857Y-62311904D01*
X165373809Y-62635714D01*
X165373809Y-63202380D01*
X165292857Y-63526190D01*
X165130952Y-63688095D01*
X164969047Y-63769047D01*
X164645238Y-63769047D01*
X166669047Y-62878571D02*
X166102380Y-62878571D01*
X166102380Y-63769047D02*
X166102380Y-62069047D01*
X166911904Y-62069047D01*
X167559523Y-63769047D02*
X167559523Y-62069047D01*
X167559523Y-62878571D02*
X168530952Y-62878571D01*
X168530952Y-63769047D02*
X168530952Y-62069047D01*
X169340476Y-63769047D02*
X169340476Y-62069047D01*
X169907142Y-63283333D01*
X170473809Y-62069047D01*
X170473809Y-63769047D01*
X171283333Y-63769047D02*
X171283333Y-62069047D01*
X171930952Y-62069047D02*
X173064285Y-63769047D01*
X173064285Y-62069047D02*
X171930952Y-63769047D01*
X174035714Y-62069047D02*
X174197619Y-62069047D01*
X174359523Y-62150000D01*
X174440476Y-62230952D01*
X174521428Y-62392857D01*
X174602380Y-62716666D01*
X174602380Y-63121428D01*
X174521428Y-63445238D01*
X174440476Y-63607142D01*
X174359523Y-63688095D01*
X174197619Y-63769047D01*
X174035714Y-63769047D01*
X173873809Y-63688095D01*
X173792857Y-63607142D01*
X173711904Y-63445238D01*
X173630952Y-63121428D01*
X173630952Y-62716666D01*
X173711904Y-62392857D01*
X173792857Y-62230952D01*
X173873809Y-62150000D01*
X174035714Y-62069047D01*
X176221428Y-63769047D02*
X175250000Y-63769047D01*
X175735714Y-63769047D02*
X175735714Y-62069047D01*
X175573809Y-62311904D01*
X175411904Y-62473809D01*
X175250000Y-62554761D01*
X176950000Y-62878571D02*
X177516666Y-62878571D01*
X177759523Y-63769047D02*
X176950000Y-63769047D01*
X176950000Y-62069047D01*
X177759523Y-62069047D01*
X121249872Y-113088452D02*
X121451902Y-112886421D01*
X121603425Y-112835913D01*
X121805456Y-112835913D01*
X122057994Y-112987436D01*
X122411547Y-113340990D01*
X122563070Y-113593528D01*
X122563070Y-113795558D01*
X122512563Y-113947081D01*
X122310532Y-114149112D01*
X122159009Y-114199619D01*
X121956979Y-114199619D01*
X121704441Y-114048097D01*
X121350887Y-113694543D01*
X121199364Y-113442005D01*
X121199364Y-113239975D01*
X121249872Y-113088452D01*
X122159009Y-112179314D02*
X123017639Y-113037944D01*
X123169162Y-113088452D01*
X123270177Y-113088452D01*
X123421700Y-113037944D01*
X123623730Y-112835913D01*
X123674238Y-112684391D01*
X123674238Y-112583375D01*
X123623730Y-112431852D01*
X122765101Y-111573223D01*
X123118654Y-111219669D02*
X123724746Y-110613578D01*
X124482360Y-111977284D02*
X123421700Y-110916624D01*
X124987436Y-111674238D02*
X125795558Y-110866116D01*
X125593528Y-110260024D02*
X126098604Y-109754948D01*
X125795558Y-110664086D02*
X125088452Y-109249872D01*
X126502665Y-109956979D01*
D11*
X186678571Y-84400000D02*
X186678571Y-85114285D01*
X185178571Y-85114285D01*
X185178571Y-83614285D02*
X185178571Y-83328571D01*
X185250000Y-83185714D01*
X185392857Y-83042857D01*
X185678571Y-82971428D01*
X186178571Y-82971428D01*
X186464285Y-83042857D01*
X186607142Y-83185714D01*
X186678571Y-83328571D01*
X186678571Y-83614285D01*
X186607142Y-83757142D01*
X186464285Y-83900000D01*
X186178571Y-83971428D01*
X185678571Y-83971428D01*
X185392857Y-83900000D01*
X185250000Y-83757142D01*
X185178571Y-83614285D01*
X185178571Y-82042857D02*
X185178571Y-81757142D01*
X185250000Y-81614285D01*
X185392857Y-81471428D01*
X185678571Y-81400000D01*
X186178571Y-81400000D01*
X186464285Y-81471428D01*
X186607142Y-81614285D01*
X186678571Y-81757142D01*
X186678571Y-82042857D01*
X186607142Y-82185714D01*
X186464285Y-82328571D01*
X186178571Y-82400000D01*
X185678571Y-82400000D01*
X185392857Y-82328571D01*
X185250000Y-82185714D01*
X185178571Y-82042857D01*
X186678571Y-80757142D02*
X185178571Y-80757142D01*
X185178571Y-80185714D01*
X185250000Y-80042857D01*
X185321428Y-79971428D01*
X185464285Y-79900000D01*
X185678571Y-79900000D01*
X185821428Y-79971428D01*
X185892857Y-80042857D01*
X185964285Y-80185714D01*
X185964285Y-80757142D01*
X186250000Y-78185714D02*
X186250000Y-77471428D01*
X186678571Y-78328571D02*
X185178571Y-77828571D01*
X186678571Y-77328571D01*
X186107142Y-76828571D02*
X186107142Y-75685714D01*
X155492857Y-126678571D02*
X154778571Y-126678571D01*
X154778571Y-125178571D01*
X156278571Y-125178571D02*
X156564285Y-125178571D01*
X156707142Y-125250000D01*
X156850000Y-125392857D01*
X156921428Y-125678571D01*
X156921428Y-126178571D01*
X156850000Y-126464285D01*
X156707142Y-126607142D01*
X156564285Y-126678571D01*
X156278571Y-126678571D01*
X156135714Y-126607142D01*
X155992857Y-126464285D01*
X155921428Y-126178571D01*
X155921428Y-125678571D01*
X155992857Y-125392857D01*
X156135714Y-125250000D01*
X156278571Y-125178571D01*
X157850000Y-125178571D02*
X158135714Y-125178571D01*
X158278571Y-125250000D01*
X158421428Y-125392857D01*
X158492857Y-125678571D01*
X158492857Y-126178571D01*
X158421428Y-126464285D01*
X158278571Y-126607142D01*
X158135714Y-126678571D01*
X157850000Y-126678571D01*
X157707142Y-126607142D01*
X157564285Y-126464285D01*
X157492857Y-126178571D01*
X157492857Y-125678571D01*
X157564285Y-125392857D01*
X157707142Y-125250000D01*
X157850000Y-125178571D01*
X159135714Y-126678571D02*
X159135714Y-125178571D01*
X159707142Y-125178571D01*
X159850000Y-125250000D01*
X159921428Y-125321428D01*
X159992857Y-125464285D01*
X159992857Y-125678571D01*
X159921428Y-125821428D01*
X159850000Y-125892857D01*
X159707142Y-125964285D01*
X159135714Y-125964285D01*
X162278571Y-125892857D02*
X162492857Y-125964285D01*
X162564285Y-126035714D01*
X162635714Y-126178571D01*
X162635714Y-126392857D01*
X162564285Y-126535714D01*
X162492857Y-126607142D01*
X162350000Y-126678571D01*
X161778571Y-126678571D01*
X161778571Y-125178571D01*
X162278571Y-125178571D01*
X162421428Y-125250000D01*
X162492857Y-125321428D01*
X162564285Y-125464285D01*
X162564285Y-125607142D01*
X162492857Y-125750000D01*
X162421428Y-125821428D01*
X162278571Y-125892857D01*
X161778571Y-125892857D01*
X163278571Y-126107142D02*
X164421428Y-126107142D01*
X163850000Y-126678571D02*
X163850000Y-125535714D01*
X155492857Y-54578571D02*
X154778571Y-54578571D01*
X154778571Y-53078571D01*
X156278571Y-53078571D02*
X156564285Y-53078571D01*
X156707142Y-53150000D01*
X156850000Y-53292857D01*
X156921428Y-53578571D01*
X156921428Y-54078571D01*
X156850000Y-54364285D01*
X156707142Y-54507142D01*
X156564285Y-54578571D01*
X156278571Y-54578571D01*
X156135714Y-54507142D01*
X155992857Y-54364285D01*
X155921428Y-54078571D01*
X155921428Y-53578571D01*
X155992857Y-53292857D01*
X156135714Y-53150000D01*
X156278571Y-53078571D01*
X157850000Y-53078571D02*
X158135714Y-53078571D01*
X158278571Y-53150000D01*
X158421428Y-53292857D01*
X158492857Y-53578571D01*
X158492857Y-54078571D01*
X158421428Y-54364285D01*
X158278571Y-54507142D01*
X158135714Y-54578571D01*
X157850000Y-54578571D01*
X157707142Y-54507142D01*
X157564285Y-54364285D01*
X157492857Y-54078571D01*
X157492857Y-53578571D01*
X157564285Y-53292857D01*
X157707142Y-53150000D01*
X157850000Y-53078571D01*
X159135714Y-54578571D02*
X159135714Y-53078571D01*
X159707142Y-53078571D01*
X159850000Y-53150000D01*
X159921428Y-53221428D01*
X159992857Y-53364285D01*
X159992857Y-53578571D01*
X159921428Y-53721428D01*
X159850000Y-53792857D01*
X159707142Y-53864285D01*
X159135714Y-53864285D01*
X162278571Y-53792857D02*
X162492857Y-53864285D01*
X162564285Y-53935714D01*
X162635714Y-54078571D01*
X162635714Y-54292857D01*
X162564285Y-54435714D01*
X162492857Y-54507142D01*
X162350000Y-54578571D01*
X161778571Y-54578571D01*
X161778571Y-53078571D01*
X162278571Y-53078571D01*
X162421428Y-53150000D01*
X162492857Y-53221428D01*
X162564285Y-53364285D01*
X162564285Y-53507142D01*
X162492857Y-53650000D01*
X162421428Y-53721428D01*
X162278571Y-53792857D01*
X161778571Y-53792857D01*
X163278571Y-54007142D02*
X164421428Y-54007142D01*
X114778571Y-84300000D02*
X114778571Y-85014285D01*
X113278571Y-85014285D01*
X113278571Y-83514285D02*
X113278571Y-83228571D01*
X113350000Y-83085714D01*
X113492857Y-82942857D01*
X113778571Y-82871428D01*
X114278571Y-82871428D01*
X114564285Y-82942857D01*
X114707142Y-83085714D01*
X114778571Y-83228571D01*
X114778571Y-83514285D01*
X114707142Y-83657142D01*
X114564285Y-83800000D01*
X114278571Y-83871428D01*
X113778571Y-83871428D01*
X113492857Y-83800000D01*
X113350000Y-83657142D01*
X113278571Y-83514285D01*
X113278571Y-81942857D02*
X113278571Y-81657142D01*
X113350000Y-81514285D01*
X113492857Y-81371428D01*
X113778571Y-81300000D01*
X114278571Y-81300000D01*
X114564285Y-81371428D01*
X114707142Y-81514285D01*
X114778571Y-81657142D01*
X114778571Y-81942857D01*
X114707142Y-82085714D01*
X114564285Y-82228571D01*
X114278571Y-82300000D01*
X113778571Y-82300000D01*
X113492857Y-82228571D01*
X113350000Y-82085714D01*
X113278571Y-81942857D01*
X114778571Y-80657142D02*
X113278571Y-80657142D01*
X113278571Y-80085714D01*
X113350000Y-79942857D01*
X113421428Y-79871428D01*
X113564285Y-79800000D01*
X113778571Y-79800000D01*
X113921428Y-79871428D01*
X113992857Y-79942857D01*
X114064285Y-80085714D01*
X114064285Y-80657142D01*
X114350000Y-78085714D02*
X114350000Y-77371428D01*
X114778571Y-78228571D02*
X113278571Y-77728571D01*
X114778571Y-77228571D01*
X114207142Y-76728571D02*
X114207142Y-75585714D01*
X114778571Y-76157142D02*
X113635714Y-76157142D01*
D10*
X166900000Y-57871071D02*
X166900000Y-56871071D01*
X166900000Y-57013928D02*
X166971428Y-56942500D01*
X167114285Y-56871071D01*
X167328571Y-56871071D01*
X167471428Y-56942500D01*
X167542857Y-57085357D01*
X167542857Y-57871071D01*
X167542857Y-57085357D02*
X167614285Y-56942500D01*
X167757142Y-56871071D01*
X167971428Y-56871071D01*
X168114285Y-56942500D01*
X168185714Y-57085357D01*
X168185714Y-57871071D01*
X169114285Y-57871071D02*
X168971428Y-57799642D01*
X168900000Y-57656785D01*
X168900000Y-56371071D01*
X170328571Y-57871071D02*
X170328571Y-57085357D01*
X170257142Y-56942500D01*
X170114285Y-56871071D01*
X169828571Y-56871071D01*
X169685714Y-56942500D01*
X170328571Y-57799642D02*
X170185714Y-57871071D01*
X169828571Y-57871071D01*
X169685714Y-57799642D01*
X169614285Y-57656785D01*
X169614285Y-57513928D01*
X169685714Y-57371071D01*
X169828571Y-57299642D01*
X170185714Y-57299642D01*
X170328571Y-57228214D01*
X171042857Y-57871071D02*
X171042857Y-56371071D01*
X171042857Y-56942500D02*
X171185714Y-56871071D01*
X171471428Y-56871071D01*
X171614285Y-56942500D01*
X171685714Y-57013928D01*
X171757142Y-57156785D01*
X171757142Y-57585357D01*
X171685714Y-57728214D01*
X171614285Y-57799642D01*
X171471428Y-57871071D01*
X171185714Y-57871071D01*
X171042857Y-57799642D01*
X172400000Y-57728214D02*
X172471428Y-57799642D01*
X172400000Y-57871071D01*
X172328571Y-57799642D01*
X172400000Y-57728214D01*
X172400000Y-57871071D01*
X173757142Y-57799642D02*
X173614285Y-57871071D01*
X173328571Y-57871071D01*
X173185714Y-57799642D01*
X173114285Y-57728214D01*
X173042857Y-57585357D01*
X173042857Y-57156785D01*
X173114285Y-57013928D01*
X173185714Y-56942500D01*
X173328571Y-56871071D01*
X173614285Y-56871071D01*
X173757142Y-56942500D01*
X174257142Y-56871071D02*
X175042857Y-56871071D01*
X174257142Y-57871071D01*
X175042857Y-57871071D01*
X168328571Y-58928928D02*
X168400000Y-58857500D01*
X168542857Y-58786071D01*
X168900000Y-58786071D01*
X169042857Y-58857500D01*
X169114285Y-58928928D01*
X169185714Y-59071785D01*
X169185714Y-59214642D01*
X169114285Y-59428928D01*
X168257142Y-60286071D01*
X169185714Y-60286071D01*
X170114285Y-58786071D02*
X170257142Y-58786071D01*
X170400000Y-58857500D01*
X170471428Y-58928928D01*
X170542857Y-59071785D01*
X170614285Y-59357500D01*
X170614285Y-59714642D01*
X170542857Y-60000357D01*
X170471428Y-60143214D01*
X170400000Y-60214642D01*
X170257142Y-60286071D01*
X170114285Y-60286071D01*
X169971428Y-60214642D01*
X169900000Y-60143214D01*
X169828571Y-60000357D01*
X169757142Y-59714642D01*
X169757142Y-59357500D01*
X169828571Y-59071785D01*
X169900000Y-58928928D01*
X169971428Y-58857500D01*
X170114285Y-58786071D01*
X171185714Y-58928928D02*
X171257142Y-58857500D01*
X171400000Y-58786071D01*
X171757142Y-58786071D01*
X171900000Y-58857500D01*
X171971428Y-58928928D01*
X172042857Y-59071785D01*
X172042857Y-59214642D01*
X171971428Y-59428928D01*
X171114285Y-60286071D01*
X172042857Y-60286071D01*
X172614285Y-58928928D02*
X172685714Y-58857500D01*
X172828571Y-58786071D01*
X173185714Y-58786071D01*
X173328571Y-58857500D01*
X173400000Y-58928928D01*
X173471428Y-59071785D01*
X173471428Y-59214642D01*
X173400000Y-59428928D01*
X172542857Y-60286071D01*
X173471428Y-60286071D01*
X137802747Y-116787591D02*
X137651224Y-116838099D01*
X137499702Y-116989622D01*
X137398686Y-117191652D01*
X137398686Y-117393683D01*
X137449194Y-117545206D01*
X137600717Y-117797744D01*
X137752240Y-117949267D01*
X138004778Y-118100790D01*
X138156301Y-118151297D01*
X138358331Y-118151297D01*
X138560362Y-118050282D01*
X138661377Y-117949267D01*
X138762392Y-117747236D01*
X138762392Y-117646221D01*
X138408839Y-117292668D01*
X138206808Y-117494698D01*
X139317976Y-117292668D02*
X138257316Y-116232008D01*
X139924068Y-116686576D01*
X138863408Y-115625916D01*
X140429144Y-116181500D02*
X139368484Y-115120840D01*
X139621022Y-114868302D01*
X139823052Y-114767286D01*
X140025083Y-114767286D01*
X140176606Y-114817794D01*
X140429144Y-114969317D01*
X140580667Y-115120840D01*
X140732190Y-115373378D01*
X140782697Y-115524901D01*
X140782697Y-115726931D01*
X140681682Y-115928962D01*
X140429144Y-116181500D01*
D12*
%TO.C,J1*%
X130783567Y-134252216D02*
X131288643Y-133747140D01*
X131423330Y-133679796D01*
X131558017Y-133679796D01*
X131692704Y-133747140D01*
X131760047Y-133814483D01*
X130783567Y-132838002D02*
X131187628Y-133242063D01*
X130985597Y-133040033D02*
X130278490Y-133747140D01*
X130446849Y-133713468D01*
X130581536Y-133713468D01*
X130682551Y-133747140D01*
X112028861Y-105343722D02*
X134656278Y-127971139D01*
X128971139Y-133656278D02*
X106343722Y-111028861D01*
X134656278Y-127971139D02*
X128971139Y-133656278D01*
X112028861Y-105343722D02*
X106343722Y-111028861D01*
%TO.C,J2*%
X141768102Y-122827052D02*
X138176000Y-126419154D01*
X136379948Y-117438898D02*
X141768102Y-122827052D01*
X132787846Y-121031000D02*
X136379948Y-117438898D01*
X138176000Y-126419154D02*
X132787846Y-121031000D01*
%TD*%
M02*
