G04 #@! TF.GenerationSoftware,KiCad,Pcbnew,5.99.0-unknown-43001cae3~104~ubuntu18.04.1*
G04 #@! TF.CreationDate,2020-11-12T23:28:15+01:00*
G04 #@! TF.ProjectId,QFHMIX01C,5146484d-4958-4303-9143-2e6b69636164,REV 0.2*
G04 #@! TF.SameCoordinates,Original*
G04 #@! TF.FileFunction,Legend,Top*
G04 #@! TF.FilePolarity,Positive*
%FSLAX45Y45*%
G04 Gerber Fmt 4.5, Leading zero omitted, Abs format (unit mm)*
G04 Created by KiCad (PCBNEW 5.99.0-unknown-43001cae3~104~ubuntu18.04.1) date 2020-11-12 23:28:15*
%MOMM*%
%LPD*%
G01*
G04 APERTURE LIST*
%ADD10C,0.300000*%
%ADD11C,0.200000*%
%ADD12C,0.150000*%
%ADD13C,0.050000*%
G04 APERTURE END LIST*
D10*
X16991713Y-10933439D02*
X17072525Y-10852627D01*
X17072525Y-10933439D02*
X16991713Y-10852627D01*
X17042221Y-10751612D02*
X17183642Y-10822322D01*
X17112931Y-10680901D01*
X17076155Y-11067779D02*
X17061002Y-11072830D01*
X17045850Y-11087982D01*
X17035749Y-11108185D01*
X17035749Y-11128388D01*
X17040799Y-11143541D01*
X17055952Y-11168794D01*
X17071104Y-11183947D01*
X17096358Y-11199099D01*
X17111510Y-11204150D01*
X17131713Y-11204150D01*
X17151916Y-11194048D01*
X17162018Y-11183947D01*
X17172119Y-11163744D01*
X17172119Y-11153642D01*
X17136764Y-11118287D01*
X17116561Y-11138490D01*
X17227678Y-11118287D02*
X17121612Y-11012221D01*
X17288287Y-11057678D01*
X17182221Y-10951612D01*
X17338794Y-11007170D02*
X17232728Y-10901104D01*
X17257982Y-10875850D01*
X17278185Y-10865749D01*
X17298388Y-10865749D01*
X17313541Y-10870799D01*
X17338794Y-10885952D01*
X17353947Y-10901104D01*
X17369099Y-10926358D01*
X17374150Y-10941510D01*
X17374150Y-10961713D01*
X17364048Y-10981916D01*
X17338794Y-11007170D01*
X16706155Y-10707779D02*
X16691002Y-10712830D01*
X16675850Y-10727982D01*
X16665749Y-10748185D01*
X16665749Y-10768388D01*
X16670799Y-10783541D01*
X16685952Y-10808794D01*
X16701104Y-10823947D01*
X16726358Y-10839099D01*
X16741510Y-10844150D01*
X16761713Y-10844150D01*
X16781916Y-10834048D01*
X16792018Y-10823947D01*
X16802119Y-10803744D01*
X16802119Y-10793642D01*
X16766764Y-10758287D01*
X16746561Y-10778490D01*
X16857678Y-10758287D02*
X16751612Y-10652221D01*
X16918287Y-10697678D01*
X16812221Y-10591612D01*
X16968794Y-10647170D02*
X16862728Y-10541104D01*
X16887982Y-10515850D01*
X16908185Y-10505749D01*
X16928388Y-10505749D01*
X16943541Y-10510799D01*
X16968794Y-10525952D01*
X16983947Y-10541104D01*
X16999099Y-10566358D01*
X17004150Y-10581510D01*
X17004150Y-10601713D01*
X16994048Y-10621916D01*
X16968794Y-10647170D01*
X13091155Y-12202779D02*
X13076002Y-12207830D01*
X13060850Y-12222982D01*
X13050749Y-12243185D01*
X13050749Y-12263388D01*
X13055799Y-12278541D01*
X13070952Y-12303794D01*
X13086104Y-12318947D01*
X13111358Y-12334099D01*
X13126510Y-12339150D01*
X13146713Y-12339150D01*
X13166916Y-12329048D01*
X13177018Y-12318947D01*
X13187119Y-12298744D01*
X13187119Y-12288642D01*
X13151764Y-12253287D01*
X13131561Y-12273490D01*
X13242678Y-12253287D02*
X13136612Y-12147221D01*
X13303287Y-12192678D01*
X13197221Y-12086612D01*
X13353794Y-12142170D02*
X13247728Y-12036104D01*
X13272982Y-12010850D01*
X13293185Y-12000749D01*
X13313388Y-12000749D01*
X13328541Y-12005799D01*
X13353794Y-12020952D01*
X13368947Y-12036104D01*
X13384099Y-12061358D01*
X13389150Y-12076510D01*
X13389150Y-12096713D01*
X13379048Y-12116916D01*
X13353794Y-12142170D01*
X13346713Y-12568439D02*
X13427525Y-12487627D01*
X13427525Y-12568439D02*
X13346713Y-12487627D01*
X13397221Y-12386612D02*
X13538642Y-12457322D01*
X13467931Y-12315901D01*
X11649746Y-10776015D02*
X11649746Y-10786117D01*
X11639645Y-10806320D01*
X11629543Y-10816421D01*
X11609340Y-10826523D01*
X11589137Y-10826523D01*
X11573985Y-10821472D01*
X11548731Y-10806320D01*
X11533579Y-10791168D01*
X11518426Y-10765914D01*
X11513375Y-10750761D01*
X11513375Y-10730558D01*
X11523477Y-10710355D01*
X11533579Y-10700254D01*
X11553782Y-10690152D01*
X11563883Y-10690152D01*
X11755812Y-10690152D02*
X11705304Y-10740660D01*
X11599238Y-10634594D01*
X11791167Y-10654797D02*
X11685101Y-10548731D01*
X11851777Y-10594188D02*
X11745711Y-10579036D01*
X11745711Y-10488122D02*
X11745711Y-10609340D01*
X12642411Y-11766421D02*
X12662614Y-11746218D01*
X12677766Y-11741167D01*
X12697969Y-11741167D01*
X12723223Y-11756320D01*
X12758579Y-11791675D01*
X12773731Y-11816929D01*
X12773731Y-11837132D01*
X12768680Y-11852284D01*
X12748477Y-11872487D01*
X12733325Y-11877538D01*
X12713122Y-11877538D01*
X12687868Y-11862386D01*
X12652513Y-11827030D01*
X12637360Y-11801777D01*
X12637360Y-11781574D01*
X12642411Y-11766421D01*
X12733325Y-11675508D02*
X12819188Y-11761370D01*
X12834340Y-11766421D01*
X12844442Y-11766421D01*
X12859594Y-11761370D01*
X12879797Y-11741167D01*
X12884848Y-11726015D01*
X12884848Y-11715914D01*
X12879797Y-11700761D01*
X12793934Y-11614898D01*
X12829289Y-11579543D02*
X12889898Y-11518934D01*
X12965660Y-11655304D02*
X12859594Y-11549238D01*
X13016167Y-11625000D02*
X13096980Y-11544188D01*
X13091929Y-11417919D02*
X13112132Y-11407817D01*
X13122233Y-11407817D01*
X13137386Y-11412868D01*
X13152538Y-11428020D01*
X13157589Y-11443172D01*
X13157589Y-11453274D01*
X13152538Y-11468426D01*
X13112132Y-11508832D01*
X13006066Y-11402766D01*
X13041421Y-11367411D01*
X13056574Y-11362360D01*
X13066675Y-11362360D01*
X13081827Y-11367411D01*
X13091929Y-11377513D01*
X13096980Y-11392665D01*
X13096980Y-11402766D01*
X13091929Y-11417919D01*
X13056574Y-11453274D01*
X16563571Y-7192143D02*
X16549286Y-7185000D01*
X16535000Y-7170714D01*
X16513571Y-7149286D01*
X16499286Y-7142143D01*
X16485000Y-7142143D01*
X16492143Y-7177857D02*
X16477857Y-7170714D01*
X16463571Y-7156428D01*
X16456428Y-7127857D01*
X16456428Y-7077857D01*
X16463571Y-7049286D01*
X16477857Y-7035000D01*
X16492143Y-7027857D01*
X16520714Y-7027857D01*
X16535000Y-7035000D01*
X16549286Y-7049286D01*
X16556428Y-7077857D01*
X16556428Y-7127857D01*
X16549286Y-7156428D01*
X16535000Y-7170714D01*
X16520714Y-7177857D01*
X16492143Y-7177857D01*
X16670714Y-7099286D02*
X16620714Y-7099286D01*
X16620714Y-7177857D02*
X16620714Y-7027857D01*
X16692143Y-7027857D01*
X16749286Y-7177857D02*
X16749286Y-7027857D01*
X16749286Y-7099286D02*
X16835000Y-7099286D01*
X16835000Y-7177857D02*
X16835000Y-7027857D01*
X16906429Y-7177857D02*
X16906429Y-7027857D01*
X16956429Y-7135000D01*
X17006429Y-7027857D01*
X17006429Y-7177857D01*
X17077857Y-7177857D02*
X17077857Y-7027857D01*
X17135000Y-7027857D02*
X17235000Y-7177857D01*
X17235000Y-7027857D02*
X17135000Y-7177857D01*
X17320714Y-7027857D02*
X17335000Y-7027857D01*
X17349286Y-7035000D01*
X17356429Y-7042143D01*
X17363571Y-7056428D01*
X17370714Y-7085000D01*
X17370714Y-7120714D01*
X17363571Y-7149286D01*
X17356429Y-7163571D01*
X17349286Y-7170714D01*
X17335000Y-7177857D01*
X17320714Y-7177857D01*
X17306429Y-7170714D01*
X17299286Y-7163571D01*
X17292143Y-7149286D01*
X17285000Y-7120714D01*
X17285000Y-7085000D01*
X17292143Y-7056428D01*
X17299286Y-7042143D01*
X17306429Y-7035000D01*
X17320714Y-7027857D01*
X17513571Y-7177857D02*
X17427857Y-7177857D01*
X17470714Y-7177857D02*
X17470714Y-7027857D01*
X17456429Y-7049286D01*
X17442143Y-7063571D01*
X17427857Y-7070714D01*
X12124987Y-11308845D02*
X12145190Y-11288642D01*
X12160342Y-11283591D01*
X12180546Y-11283591D01*
X12205799Y-11298744D01*
X12241155Y-11334099D01*
X12256307Y-11359353D01*
X12256307Y-11379556D01*
X12251256Y-11394708D01*
X12231053Y-11414911D01*
X12215901Y-11419962D01*
X12195698Y-11419962D01*
X12170444Y-11404810D01*
X12135089Y-11369454D01*
X12119936Y-11344200D01*
X12119936Y-11323997D01*
X12124987Y-11308845D01*
X12215901Y-11217931D02*
X12301764Y-11303794D01*
X12316916Y-11308845D01*
X12327018Y-11308845D01*
X12342170Y-11303794D01*
X12362373Y-11283591D01*
X12367424Y-11268439D01*
X12367424Y-11258337D01*
X12362373Y-11243185D01*
X12276510Y-11157322D01*
X12311865Y-11121967D02*
X12372475Y-11061358D01*
X12448236Y-11197728D02*
X12342170Y-11091662D01*
X12498744Y-11167424D02*
X12579556Y-11086612D01*
X12559353Y-11026002D02*
X12609860Y-10975495D01*
X12579556Y-11066409D02*
X12508845Y-10924987D01*
X12650266Y-10995698D01*
D11*
X14660000Y-4937857D02*
X14588571Y-4937857D01*
X14588571Y-4787857D01*
X14738571Y-4787857D02*
X14767143Y-4787857D01*
X14781428Y-4795000D01*
X14795714Y-4809286D01*
X14802857Y-4837857D01*
X14802857Y-4887857D01*
X14795714Y-4916429D01*
X14781428Y-4930714D01*
X14767143Y-4937857D01*
X14738571Y-4937857D01*
X14724286Y-4930714D01*
X14710000Y-4916429D01*
X14702857Y-4887857D01*
X14702857Y-4837857D01*
X14710000Y-4809286D01*
X14724286Y-4795000D01*
X14738571Y-4787857D01*
X14895714Y-4787857D02*
X14924286Y-4787857D01*
X14938571Y-4795000D01*
X14952857Y-4809286D01*
X14960000Y-4837857D01*
X14960000Y-4887857D01*
X14952857Y-4916429D01*
X14938571Y-4930714D01*
X14924286Y-4937857D01*
X14895714Y-4937857D01*
X14881428Y-4930714D01*
X14867143Y-4916429D01*
X14860000Y-4887857D01*
X14860000Y-4837857D01*
X14867143Y-4809286D01*
X14881428Y-4795000D01*
X14895714Y-4787857D01*
X15024286Y-4937857D02*
X15024286Y-4787857D01*
X15081428Y-4787857D01*
X15095714Y-4795000D01*
X15102857Y-4802143D01*
X15110000Y-4816429D01*
X15110000Y-4837857D01*
X15102857Y-4852143D01*
X15095714Y-4859286D01*
X15081428Y-4866429D01*
X15024286Y-4866429D01*
X15138571Y-4952143D02*
X15252857Y-4952143D01*
X15281428Y-4895000D02*
X15352857Y-4895000D01*
X15267143Y-4937857D02*
X15317143Y-4787857D01*
X15367143Y-4937857D01*
X15417143Y-4880714D02*
X15531428Y-4880714D01*
X10927857Y-9375714D02*
X10927857Y-9447143D01*
X10777857Y-9447143D01*
X10777857Y-9297143D02*
X10777857Y-9268571D01*
X10785000Y-9254286D01*
X10799286Y-9240000D01*
X10827857Y-9232857D01*
X10877857Y-9232857D01*
X10906429Y-9240000D01*
X10920714Y-9254286D01*
X10927857Y-9268571D01*
X10927857Y-9297143D01*
X10920714Y-9311429D01*
X10906429Y-9325714D01*
X10877857Y-9332857D01*
X10827857Y-9332857D01*
X10799286Y-9325714D01*
X10785000Y-9311429D01*
X10777857Y-9297143D01*
X10777857Y-9140000D02*
X10777857Y-9111429D01*
X10785000Y-9097143D01*
X10799286Y-9082857D01*
X10827857Y-9075714D01*
X10877857Y-9075714D01*
X10906429Y-9082857D01*
X10920714Y-9097143D01*
X10927857Y-9111429D01*
X10927857Y-9140000D01*
X10920714Y-9154286D01*
X10906429Y-9168571D01*
X10877857Y-9175714D01*
X10827857Y-9175714D01*
X10799286Y-9168571D01*
X10785000Y-9154286D01*
X10777857Y-9140000D01*
X10927857Y-9011429D02*
X10777857Y-9011429D01*
X10777857Y-8954286D01*
X10785000Y-8940000D01*
X10792143Y-8932857D01*
X10806429Y-8925714D01*
X10827857Y-8925714D01*
X10842143Y-8932857D01*
X10849286Y-8940000D01*
X10856429Y-8954286D01*
X10856429Y-9011429D01*
X10942143Y-8897143D02*
X10942143Y-8782857D01*
X10849286Y-8697143D02*
X10856429Y-8675714D01*
X10863571Y-8668571D01*
X10877857Y-8661429D01*
X10899286Y-8661429D01*
X10913571Y-8668571D01*
X10920714Y-8675714D01*
X10927857Y-8690000D01*
X10927857Y-8747143D01*
X10777857Y-8747143D01*
X10777857Y-8697143D01*
X10785000Y-8682857D01*
X10792143Y-8675714D01*
X10806429Y-8668571D01*
X10820714Y-8668571D01*
X10835000Y-8675714D01*
X10842143Y-8682857D01*
X10849286Y-8697143D01*
X10849286Y-8747143D01*
X10870714Y-8597143D02*
X10870714Y-8482857D01*
X10927857Y-8540000D02*
X10813571Y-8540000D01*
X19247857Y-9410714D02*
X19247857Y-9482143D01*
X19097857Y-9482143D01*
X19097857Y-9332143D02*
X19097857Y-9303571D01*
X19105000Y-9289286D01*
X19119286Y-9275000D01*
X19147857Y-9267857D01*
X19197857Y-9267857D01*
X19226429Y-9275000D01*
X19240714Y-9289286D01*
X19247857Y-9303571D01*
X19247857Y-9332143D01*
X19240714Y-9346429D01*
X19226429Y-9360714D01*
X19197857Y-9367857D01*
X19147857Y-9367857D01*
X19119286Y-9360714D01*
X19105000Y-9346429D01*
X19097857Y-9332143D01*
X19097857Y-9175000D02*
X19097857Y-9146429D01*
X19105000Y-9132143D01*
X19119286Y-9117857D01*
X19147857Y-9110714D01*
X19197857Y-9110714D01*
X19226429Y-9117857D01*
X19240714Y-9132143D01*
X19247857Y-9146429D01*
X19247857Y-9175000D01*
X19240714Y-9189286D01*
X19226429Y-9203571D01*
X19197857Y-9210714D01*
X19147857Y-9210714D01*
X19119286Y-9203571D01*
X19105000Y-9189286D01*
X19097857Y-9175000D01*
X19247857Y-9046429D02*
X19097857Y-9046429D01*
X19097857Y-8989286D01*
X19105000Y-8975000D01*
X19112143Y-8967857D01*
X19126429Y-8960714D01*
X19147857Y-8960714D01*
X19162143Y-8967857D01*
X19169286Y-8975000D01*
X19176429Y-8989286D01*
X19176429Y-9046429D01*
X19262143Y-8932143D02*
X19262143Y-8817857D01*
X19169286Y-8732143D02*
X19176429Y-8710714D01*
X19183571Y-8703571D01*
X19197857Y-8696429D01*
X19219286Y-8696429D01*
X19233571Y-8703571D01*
X19240714Y-8710714D01*
X19247857Y-8725000D01*
X19247857Y-8782143D01*
X19097857Y-8782143D01*
X19097857Y-8732143D01*
X19105000Y-8717857D01*
X19112143Y-8710714D01*
X19126429Y-8703571D01*
X19140714Y-8703571D01*
X19155000Y-8710714D01*
X19162143Y-8717857D01*
X19169286Y-8732143D01*
X19169286Y-8782143D01*
X19190714Y-8632143D02*
X19190714Y-8517857D01*
X14630000Y-13217857D02*
X14558571Y-13217857D01*
X14558571Y-13067857D01*
X14708571Y-13067857D02*
X14737143Y-13067857D01*
X14751428Y-13075000D01*
X14765714Y-13089286D01*
X14772857Y-13117857D01*
X14772857Y-13167857D01*
X14765714Y-13196428D01*
X14751428Y-13210714D01*
X14737143Y-13217857D01*
X14708571Y-13217857D01*
X14694286Y-13210714D01*
X14680000Y-13196428D01*
X14672857Y-13167857D01*
X14672857Y-13117857D01*
X14680000Y-13089286D01*
X14694286Y-13075000D01*
X14708571Y-13067857D01*
X14865714Y-13067857D02*
X14894286Y-13067857D01*
X14908571Y-13075000D01*
X14922857Y-13089286D01*
X14930000Y-13117857D01*
X14930000Y-13167857D01*
X14922857Y-13196428D01*
X14908571Y-13210714D01*
X14894286Y-13217857D01*
X14865714Y-13217857D01*
X14851428Y-13210714D01*
X14837143Y-13196428D01*
X14830000Y-13167857D01*
X14830000Y-13117857D01*
X14837143Y-13089286D01*
X14851428Y-13075000D01*
X14865714Y-13067857D01*
X14994286Y-13217857D02*
X14994286Y-13067857D01*
X15051428Y-13067857D01*
X15065714Y-13075000D01*
X15072857Y-13082143D01*
X15080000Y-13096428D01*
X15080000Y-13117857D01*
X15072857Y-13132143D01*
X15065714Y-13139286D01*
X15051428Y-13146428D01*
X14994286Y-13146428D01*
X15108571Y-13232143D02*
X15222857Y-13232143D01*
X15251428Y-13175000D02*
X15322857Y-13175000D01*
X15237143Y-13217857D02*
X15287143Y-13067857D01*
X15337143Y-13217857D01*
X15387143Y-13160714D02*
X15501428Y-13160714D01*
X15444286Y-13217857D02*
X15444286Y-13103571D01*
D12*
X10991339Y-10599364D02*
X11041846Y-10548856D01*
X11055315Y-10542122D01*
X11068784Y-10542122D01*
X11082252Y-10548856D01*
X11088987Y-10555591D01*
X10967768Y-10562325D02*
X10961034Y-10562325D01*
X10950933Y-10558958D01*
X10934097Y-10542122D01*
X10930730Y-10532020D01*
X10930730Y-10525286D01*
X10934097Y-10515184D01*
X10940831Y-10508450D01*
X10954300Y-10501716D01*
X11035112Y-10501716D01*
X10991339Y-10457942D01*
X17587221Y-11041438D02*
X17637729Y-10990930D01*
X17651198Y-10984196D01*
X17664666Y-10984196D01*
X17678135Y-10990930D01*
X17684869Y-10997664D01*
X17587221Y-10900016D02*
X17627628Y-10940422D01*
X17607424Y-10920219D02*
X17536714Y-10990930D01*
X17553550Y-10987563D01*
X17567018Y-10987563D01*
X17577120Y-10990930D01*
D13*
X17782247Y-10478952D02*
X17762044Y-10499155D01*
X17772145Y-10489053D02*
X17736790Y-10453698D01*
X17738473Y-10462116D01*
X17738473Y-10468850D01*
X17736790Y-10473901D01*
D12*
X11202886Y-10534372D02*
X13465628Y-12797114D01*
X10634372Y-11102886D02*
X11202886Y-10534372D01*
X12897114Y-13365628D02*
X10634372Y-11102886D01*
X12897114Y-13365628D02*
X13465628Y-12797114D01*
X17280197Y-10050987D02*
X17819013Y-10589803D01*
X17459803Y-10949013D02*
X16920987Y-10410197D01*
X16920987Y-10410197D02*
X17280197Y-10050987D01*
X17819013Y-10589803D02*
X17459803Y-10949013D01*
M02*
