%TF.GenerationSoftware,KiCad,Pcbnew,6.0.4-6f826c9f35~116~ubuntu20.04.1*%
%TF.CreationDate,2022-08-15T11:16:41+00:00*%
%TF.ProjectId,QFHMIX01E,5146484d-4958-4303-9145-2e6b69636164,rev?*%
%TF.SameCoordinates,Original*%
%TF.FileFunction,Soldermask,Bot*%
%TF.FilePolarity,Negative*%
%FSLAX46Y46*%
G04 Gerber Fmt 4.6, Leading zero omitted, Abs format (unit mm)*
G04 Created by KiCad (PCBNEW 6.0.4-6f826c9f35~116~ubuntu20.04.1) date 2022-08-15 11:16:41*
%MOMM*%
%LPD*%
G01*
G04 APERTURE LIST*
G04 Aperture macros list*
%AMRoundRect*
0 Rectangle with rounded corners*
0 $1 Rounding radius*
0 $2 $3 $4 $5 $6 $7 $8 $9 X,Y pos of 4 corners*
0 Add a 4 corners polygon primitive as box body*
4,1,4,$2,$3,$4,$5,$6,$7,$8,$9,$2,$3,0*
0 Add four circle primitives for the rounded corners*
1,1,$1+$1,$2,$3*
1,1,$1+$1,$4,$5*
1,1,$1+$1,$6,$7*
1,1,$1+$1,$8,$9*
0 Add four rect primitives between the rounded corners*
20,1,$1+$1,$2,$3,$4,$5,0*
20,1,$1+$1,$4,$5,$6,$7,0*
20,1,$1+$1,$6,$7,$8,$9,0*
20,1,$1+$1,$8,$9,$2,$3,0*%
%AMFreePoly0*
4,1,41,0.491777,0.930194,0.493575,0.928761,0.495344,0.928539,0.578945,0.898133,0.653689,0.849896,0.715836,0.786243,0.762270,0.710363,0.790665,0.626057,0.799599,0.537547,0.788625,0.449267,0.774419,0.410101,0.776271,0.409575,0.730029,0.246661,0.707165,0.081162,0.707497,-0.085922,0.731021,-0.251337,0.778018,-0.414436,0.776187,-0.414963,0.790748,-0.455051,0.801765,-0.543326,
0.792874,-0.631839,0.764520,-0.716160,0.718121,-0.792065,0.656006,-0.855747,0.581284,-0.904019,0.497696,-0.934465,0.462046,-0.938946,0.449504,-0.944986,0.405000,-0.950000,-0.644999,-0.950000,-0.731777,-0.930194,-0.801366,-0.874698,-0.839986,-0.794504,-0.845000,-0.750000,-0.845000,0.750000,-0.825194,0.836777,-0.769698,0.906366,-0.689504,0.944986,-0.644999,0.950000,0.405000,0.950000,
0.491777,0.930194,0.491777,0.930194,$1*%
G04 Aperture macros list end*
%ADD10C,2.000000*%
%ADD11C,2.900000*%
%ADD12RoundRect,0.200000X0.000000X-1.077631X1.077631X0.000000X0.000000X1.077631X-1.077631X0.000000X0*%
%ADD13RoundRect,0.400000X0.053033X-0.335876X0.335876X-0.053033X-0.053033X0.335876X-0.335876X0.053033X0*%
%ADD14RoundRect,0.400000X-0.053033X0.335876X-0.335876X0.053033X0.053033X-0.335876X0.335876X-0.053033X0*%
%ADD15RoundRect,0.425000X0.017678X-0.335876X0.335876X-0.017678X-0.017678X0.335876X-0.335876X0.017678X0*%
%ADD16C,6.400000*%
%ADD17RoundRect,0.425000X-0.335876X-0.017678X-0.017678X-0.335876X0.335876X0.017678X0.017678X0.335876X0*%
%ADD18RoundRect,0.425000X-0.017678X0.335876X-0.335876X0.017678X0.017678X-0.335876X0.335876X-0.017678X0*%
%ADD19RoundRect,0.400000X0.335876X0.053033X0.053033X0.335876X-0.335876X-0.053033X-0.053033X-0.335876X0*%
%ADD20C,7.800000*%
%ADD21C,0.900000*%
%ADD22RoundRect,0.450000X-0.548008X-0.088388X-0.088388X-0.548008X0.548008X0.088388X0.088388X0.548008X0*%
%ADD23RoundRect,0.450000X0.548008X0.088388X0.088388X0.548008X-0.548008X-0.088388X-0.088388X-0.548008X0*%
%ADD24RoundRect,0.425000X0.335876X0.017678X0.017678X0.335876X-0.335876X-0.017678X-0.017678X-0.335876X0*%
%ADD25RoundRect,0.450000X0.250000X0.475000X-0.250000X0.475000X-0.250000X-0.475000X0.250000X-0.475000X0*%
%ADD26RoundRect,0.450000X0.159099X-0.512652X0.512652X-0.159099X-0.159099X0.512652X-0.512652X0.159099X0*%
%ADD27RoundRect,0.450000X-0.020994X0.536362X-0.454006X0.286362X0.020994X-0.536362X0.454006X-0.286362X0*%
%ADD28RoundRect,0.450000X0.454006X0.286362X0.020994X0.536362X-0.454006X-0.286362X-0.020994X-0.536362X0*%
%ADD29RoundRect,0.425000X0.319856X0.104006X-0.069856X0.329006X-0.319856X-0.104006X0.069856X-0.329006X0*%
%ADD30RoundRect,0.450000X0.430394X0.350550X-0.197457X0.518783X-0.430394X-0.350550X0.197457X-0.518783X0*%
%ADD31RoundRect,0.450000X-0.088388X0.548008X-0.548008X0.088388X0.088388X-0.548008X0.548008X-0.088388X0*%
%ADD32RoundRect,0.450000X0.088388X-0.548008X0.548008X-0.088388X-0.088388X0.548008X-0.548008X0.088388X0*%
%ADD33RoundRect,0.450000X0.056458X0.552211X-0.506458X0.227211X-0.056458X-0.552211X0.506458X-0.227211X0*%
%ADD34RoundRect,0.450000X-0.380956X-0.403729X0.263483X-0.488571X0.380956X0.403729X-0.263483X0.488571X0*%
%ADD35RoundRect,0.450000X0.263483X0.488571X-0.380956X0.403729X-0.263483X-0.488571X0.380956X-0.403729X0*%
%ADD36RoundRect,0.450000X0.020994X-0.536362X0.454006X-0.286362X-0.020994X0.536362X-0.454006X0.286362X0*%
%ADD37RoundRect,0.450000X-0.250000X-0.475000X0.250000X-0.475000X0.250000X0.475000X-0.250000X0.475000X0*%
%ADD38RoundRect,0.450000X-0.454006X-0.286362X-0.020994X-0.536362X0.454006X0.286362X0.020994X0.536362X0*%
%ADD39RoundRect,0.450000X0.380956X0.403729X-0.263483X0.488571X-0.380956X-0.403729X0.263483X-0.488571X0*%
%ADD40RoundRect,0.450000X0.227211X-0.506458X0.552211X0.056458X-0.227211X0.506458X-0.552211X-0.056458X0*%
%ADD41RoundRect,0.400000X-0.335876X-0.053033X-0.053033X-0.335876X0.335876X0.053033X0.053033X0.335876X0*%
%ADD42RoundRect,0.200000X-0.717713X-0.180312X-0.180312X-0.717713X0.717713X0.180312X0.180312X0.717713X0*%
%ADD43RoundRect,0.200000X-2.828427X0.565685X0.565685X-2.828427X2.828427X-0.565685X-0.565685X2.828427X0*%
%ADD44RoundRect,0.450000X0.552211X-0.056458X0.227211X0.506458X-0.552211X0.056458X-0.227211X-0.506458X0*%
%ADD45RoundRect,0.425000X-0.250000X0.225000X-0.250000X-0.225000X0.250000X-0.225000X0.250000X0.225000X0*%
%ADD46RoundRect,0.450000X-0.450000X0.325000X-0.450000X-0.325000X0.450000X-0.325000X0.450000X0.325000X0*%
%ADD47RoundRect,0.450000X0.475000X-0.250000X0.475000X0.250000X-0.475000X0.250000X-0.475000X-0.250000X0*%
%ADD48RoundRect,0.450000X0.536362X0.020994X0.286362X0.454006X-0.536362X-0.020994X-0.286362X-0.454006X0*%
%ADD49RoundRect,0.450000X-0.350550X0.430394X-0.518783X-0.197457X0.350550X-0.430394X0.518783X0.197457X0*%
%ADD50RoundRect,0.450000X-0.512652X-0.159099X-0.159099X-0.512652X0.512652X0.159099X0.159099X0.512652X0*%
%ADD51RoundRect,0.450000X-0.159099X0.512652X-0.512652X0.159099X0.159099X-0.512652X0.512652X-0.159099X0*%
%ADD52RoundRect,0.450000X0.325000X0.450000X-0.325000X0.450000X-0.325000X-0.450000X0.325000X-0.450000X0*%
%ADD53RoundRect,0.200000X-0.247487X-1.520280X1.520280X0.247487X0.247487X1.520280X-1.520280X-0.247487X0*%
%ADD54RoundRect,0.200000X1.622810X0.350018X0.350018X1.622810X-1.622810X-0.350018X-0.350018X-1.622810X0*%
%ADD55RoundRect,0.200000X-1.622810X-0.350018X-0.350018X-1.622810X1.622810X0.350018X0.350018X1.622810X0*%
%ADD56RoundRect,0.450000X0.450000X-0.325000X0.450000X0.325000X-0.450000X0.325000X-0.450000X-0.325000X0*%
%ADD57RoundRect,0.418750X0.335876X0.026517X0.026517X0.335876X-0.335876X-0.026517X-0.026517X-0.335876X0*%
%ADD58RoundRect,0.450000X-0.552211X0.056458X-0.227211X-0.506458X0.552211X-0.056458X0.227211X0.506458X0*%
%ADD59C,2.700000*%
%ADD60FreePoly0,315.000000*%
%ADD61FreePoly0,135.000000*%
%ADD62RoundRect,0.262500X-0.194454X-0.282843X0.282843X0.194454X0.194454X0.282843X-0.282843X-0.194454X0*%
%ADD63RoundRect,0.262500X0.194454X-0.282843X0.282843X-0.194454X-0.194454X0.282843X-0.282843X0.194454X0*%
%ADD64RoundRect,0.450000X0.000000X-0.848528X0.848528X0.000000X0.000000X0.848528X-0.848528X0.000000X0*%
%ADD65RoundRect,0.418750X-0.026517X0.335876X-0.335876X0.026517X0.026517X-0.335876X0.335876X-0.026517X0*%
%ADD66RoundRect,0.450000X0.512652X0.159099X0.159099X0.512652X-0.512652X-0.159099X-0.159099X-0.512652X0*%
%ADD67RoundRect,0.425000X0.225000X0.250000X-0.225000X0.250000X-0.225000X-0.250000X0.225000X-0.250000X0*%
%ADD68RoundRect,0.450000X0.394110X-0.364421X0.523520X0.118542X-0.394110X0.364421X-0.523520X-0.118542X0*%
%ADD69RoundRect,0.450000X-0.325000X-0.450000X0.325000X-0.450000X0.325000X0.450000X-0.325000X0.450000X0*%
%ADD70RoundRect,0.300000X0.380070X0.521491X-0.521491X-0.380070X-0.380070X-0.521491X0.521491X0.380070X0*%
%ADD71RoundRect,0.443750X0.494975X0.150260X0.150260X0.494975X-0.494975X-0.150260X-0.150260X-0.494975X0*%
%ADD72RoundRect,0.450000X0.518783X-0.197457X0.350550X0.430394X-0.518783X0.197457X-0.350550X-0.430394X0*%
%ADD73RoundRect,0.450000X-0.132583X0.503814X-0.503814X0.132583X0.132583X-0.503814X0.503814X-0.132583X0*%
%ADD74RoundRect,0.200000X0.180312X-0.717713X0.717713X-0.180312X-0.180312X0.717713X-0.717713X0.180312X0*%
%ADD75RoundRect,0.200000X-0.565685X-2.828427X2.828427X0.565685X0.565685X2.828427X-2.828427X-0.565685X0*%
%ADD76RoundRect,0.443750X-0.150260X0.494975X-0.494975X0.150260X0.150260X-0.494975X0.494975X-0.150260X0*%
%ADD77RoundRect,0.450000X0.506458X0.227211X-0.056458X0.552211X-0.506458X-0.227211X0.056458X-0.552211X0*%
%ADD78RoundRect,0.418750X0.026517X-0.335876X0.335876X-0.026517X-0.026517X0.335876X-0.335876X0.026517X0*%
%ADD79RoundRect,0.418750X-0.335876X-0.026517X-0.026517X-0.335876X0.335876X0.026517X0.026517X0.335876X0*%
%ADD80RoundRect,0.262500X0.194454X0.282843X-0.282843X-0.194454X-0.194454X-0.282843X0.282843X0.194454X0*%
%ADD81RoundRect,0.262500X-0.194454X0.282843X-0.282843X0.194454X0.194454X-0.282843X0.282843X-0.194454X0*%
%ADD82RoundRect,0.450000X0.000000X0.848528X-0.848528X0.000000X0.000000X-0.848528X0.848528X0.000000X0*%
%ADD83RoundRect,0.200000X-0.180312X0.717713X-0.717713X0.180312X0.180312X-0.717713X0.717713X-0.180312X0*%
%ADD84RoundRect,0.200000X0.565685X2.828427X-2.828427X-0.565685X-0.565685X-2.828427X2.828427X0.565685X0*%
%ADD85RoundRect,0.450000X0.350550X-0.430394X0.518783X0.197457X-0.350550X0.430394X-0.518783X-0.197457X0*%
%ADD86RoundRect,0.262500X-0.282843X0.194454X0.194454X-0.282843X0.282843X-0.194454X-0.194454X0.282843X0*%
%ADD87RoundRect,0.262500X-0.282843X-0.194454X-0.194454X-0.282843X0.282843X0.194454X0.194454X0.282843X0*%
%ADD88RoundRect,0.450000X-0.848528X0.000000X0.000000X-0.848528X0.848528X0.000000X0.000000X0.848528X0*%
%ADD89RoundRect,0.200000X0.106066X0.318198X-0.318198X-0.106066X-0.106066X-0.318198X0.318198X0.106066X0*%
%ADD90RoundRect,0.200000X0.353553X0.565685X-0.565685X-0.353553X-0.353553X-0.565685X0.565685X0.353553X0*%
%ADD91RoundRect,0.200000X0.318198X-0.106066X-0.106066X0.318198X-0.318198X0.106066X0.106066X-0.318198X0*%
%ADD92RoundRect,0.200000X-0.194454X1.219759X-1.219759X0.194454X0.194454X-1.219759X1.219759X-0.194454X0*%
%ADD93RoundRect,0.385000X0.279307X1.325825X-1.325825X-0.279307X-0.279307X-1.325825X1.325825X0.279307X0*%
%ADD94RoundRect,0.200000X-0.141421X1.060660X-1.060660X0.141421X0.141421X-1.060660X1.060660X-0.141421X0*%
%ADD95FreePoly0,225.000000*%
%ADD96FreePoly0,45.000000*%
%ADD97RoundRect,0.450000X-0.394110X0.364421X-0.523520X-0.118542X0.394110X-0.364421X0.523520X0.118542X0*%
%ADD98RoundRect,0.450000X-0.536362X-0.020994X-0.286362X-0.454006X0.536362X0.020994X0.286362X0.454006X0*%
G04 APERTURE END LIST*
D10*
%TO.C,J1*%
X114680511Y-109155028D03*
X123625412Y-127150895D03*
X130844972Y-125319489D03*
X125456819Y-119931335D03*
X120068665Y-114543181D03*
X112849105Y-116374588D03*
D11*
X111070731Y-110070731D03*
X113764808Y-112764808D03*
X116458885Y-115458885D03*
X119152962Y-118152962D03*
X121847038Y-120847038D03*
X124541115Y-123541115D03*
X127235192Y-126235192D03*
X129929269Y-128929269D03*
%TD*%
D12*
%TO.C,J2*%
X134583897Y-121031000D03*
X136379948Y-119234949D03*
X136379948Y-122827052D03*
X138176000Y-121031000D03*
X138176000Y-124623103D03*
X139972051Y-122827052D03*
%TD*%
D13*
%TO.C,R15*%
X129540837Y-82091963D03*
X130707563Y-80925237D03*
%TD*%
D14*
%TO.C,R11*%
X128370763Y-83109637D03*
X127204037Y-84276363D03*
%TD*%
D15*
%TO.C,C19*%
X132151992Y-98948008D03*
X133248008Y-97851992D03*
%TD*%
%TO.C,C18*%
X130769992Y-97576008D03*
X131866008Y-96479992D03*
%TD*%
D16*
%TO.C,M7*%
X185560000Y-125560000D03*
%TD*%
%TO.C,M6*%
X185560000Y-54440000D03*
%TD*%
%TO.C,M5*%
X114440000Y-125560000D03*
%TD*%
D17*
%TO.C,C13*%
X129194200Y-84862823D03*
X130290216Y-85958839D03*
%TD*%
D18*
%TO.C,C2*%
X131231008Y-71943592D03*
X130134992Y-73039608D03*
%TD*%
D17*
%TO.C,C12*%
X130337200Y-83846823D03*
X131433216Y-84942839D03*
%TD*%
D18*
%TO.C,C1*%
X130138808Y-70876792D03*
X129042792Y-71972808D03*
%TD*%
D19*
%TO.C,R6*%
X131114800Y-78308200D03*
X129948074Y-77141474D03*
%TD*%
D13*
%TO.C,R14*%
X131674437Y-82193563D03*
X132841163Y-81026837D03*
%TD*%
D14*
%TO.C,R10*%
X135000163Y-78867837D03*
X133833437Y-80034563D03*
%TD*%
D20*
%TO.C,M4*%
X150000000Y-126000000D03*
D21*
X153000000Y-126000000D03*
X152598076Y-127500000D03*
X150000000Y-123000000D03*
X152598076Y-124500000D03*
X147401924Y-127500000D03*
X150000000Y-129000000D03*
X147000000Y-126000000D03*
X148500000Y-123401924D03*
X151500000Y-128598076D03*
X151500000Y-123401924D03*
X147401924Y-124500000D03*
X148500000Y-128598076D03*
%TD*%
D20*
%TO.C,M3*%
X150000000Y-54000000D03*
D21*
X151500000Y-51401924D03*
X152598076Y-55500000D03*
X148500000Y-51401924D03*
X153000000Y-54000000D03*
X147401924Y-55500000D03*
X150000000Y-57000000D03*
X147000000Y-54000000D03*
X151500000Y-56598076D03*
X148500000Y-56598076D03*
X150000000Y-51000000D03*
X152598076Y-52500000D03*
X147401924Y-52500000D03*
%TD*%
D20*
%TO.C,M1*%
X186000000Y-90000000D03*
D21*
X187500000Y-92598076D03*
X183401924Y-88500000D03*
X188598076Y-88500000D03*
X183401924Y-91500000D03*
X186000000Y-87000000D03*
X188598076Y-91500000D03*
X184500000Y-92598076D03*
X189000000Y-90000000D03*
X187500000Y-87401924D03*
X186000000Y-93000000D03*
X183000000Y-90000000D03*
X184500000Y-87401924D03*
%TD*%
D20*
%TO.C,M2*%
X114000000Y-90000000D03*
D21*
X112500000Y-87401924D03*
X117000000Y-90000000D03*
X111401924Y-88500000D03*
X116598076Y-91500000D03*
X115500000Y-87401924D03*
X112500000Y-92598076D03*
X114000000Y-93000000D03*
X111000000Y-90000000D03*
X114000000Y-87000000D03*
X111401924Y-91500000D03*
X116598076Y-88500000D03*
X115500000Y-92598076D03*
%TD*%
D15*
%TO.C,C21*%
X142326992Y-109260008D03*
X143423008Y-108163992D03*
%TD*%
%TO.C,C20*%
X140929992Y-107812208D03*
X142026008Y-106716192D03*
%TD*%
D13*
%TO.C,R26*%
X127120339Y-115607097D03*
X128287065Y-114440371D03*
%TD*%
%TO.C,R21*%
X129796880Y-101480517D03*
X130963606Y-100313791D03*
%TD*%
%TO.C,R25*%
X124426262Y-112841180D03*
X125592988Y-111674454D03*
%TD*%
%TO.C,R24*%
X123258828Y-111673746D03*
X124425554Y-110507020D03*
%TD*%
%TO.C,R20*%
X128360040Y-100043676D03*
X129526766Y-98876950D03*
%TD*%
%TO.C,R23*%
X139953762Y-111637399D03*
X141120488Y-110470673D03*
%TD*%
%TO.C,R27*%
X128287772Y-116774532D03*
X129454498Y-115607806D03*
%TD*%
D16*
%TO.C,M8*%
X114440000Y-54440000D03*
%TD*%
D17*
%TO.C,C11*%
X133843392Y-82103592D03*
X134939408Y-83199608D03*
%TD*%
%TO.C,C10*%
X134899400Y-81051400D03*
X135995416Y-82147416D03*
%TD*%
D15*
%TO.C,C16*%
X129804792Y-92699208D03*
X130900808Y-91603192D03*
%TD*%
%TO.C,C17*%
X136992992Y-100141408D03*
X138089008Y-99045392D03*
%TD*%
D17*
%TO.C,C24*%
X132469885Y-115044885D03*
X133565901Y-116140901D03*
%TD*%
D18*
%TO.C,C25*%
X126532008Y-112964592D03*
X125435992Y-114060608D03*
%TD*%
D17*
%TO.C,C22*%
X125413524Y-105226063D03*
X126509540Y-106322079D03*
%TD*%
%TO.C,C8*%
X137051992Y-86951992D03*
X138148008Y-88048008D03*
%TD*%
%TO.C,C23*%
X133944885Y-113594885D03*
X135040901Y-114690901D03*
%TD*%
D15*
%TO.C,C3*%
X125308992Y-72557008D03*
X126405008Y-71460992D03*
%TD*%
D13*
%TO.C,R22*%
X138516919Y-110200559D03*
X139683645Y-109033833D03*
%TD*%
D22*
%TO.C,L8*%
X131660016Y-93661616D03*
X133109584Y-95111184D03*
%TD*%
D23*
%TO.C,L12*%
X136132184Y-98209984D03*
X134682616Y-96760416D03*
%TD*%
D24*
%TO.C,C41*%
X145683608Y-74182608D03*
X144587592Y-73086592D03*
%TD*%
D17*
%TO.C,C44*%
X156423992Y-61199392D03*
X157520008Y-62295408D03*
%TD*%
D18*
%TO.C,C58*%
X142813408Y-75143992D03*
X141717392Y-76240008D03*
%TD*%
%TO.C,C61*%
X155411808Y-83246592D03*
X154315792Y-84342608D03*
%TD*%
D25*
%TO.C,C28*%
X128127800Y-47752000D03*
X126227800Y-47752000D03*
%TD*%
D26*
%TO.C,C32*%
X133897449Y-52792551D03*
X135240951Y-51449049D03*
%TD*%
D24*
%TO.C,C36*%
X138368408Y-61787408D03*
X137272392Y-60691392D03*
%TD*%
%TO.C,C45*%
X143727808Y-67045208D03*
X142631792Y-65949192D03*
%TD*%
D15*
%TO.C,C56*%
X146009992Y-77891008D03*
X147106008Y-76794992D03*
%TD*%
D18*
%TO.C,C62*%
X142235088Y-84632070D03*
X141139072Y-85728086D03*
%TD*%
D27*
%TO.C,C49*%
X153248124Y-66809600D03*
X151602676Y-67759600D03*
%TD*%
D25*
%TO.C,C51*%
X156271000Y-70993000D03*
X154371000Y-70993000D03*
%TD*%
D28*
%TO.C,C53*%
X154238724Y-77310000D03*
X152593276Y-76360000D03*
%TD*%
D25*
%TO.C,C29*%
X138465600Y-47802800D03*
X136565600Y-47802800D03*
%TD*%
D26*
%TO.C,C34*%
X136920049Y-55942151D03*
X138263551Y-54598649D03*
%TD*%
D17*
%TO.C,C37*%
X142961992Y-54900192D03*
X144058008Y-55996208D03*
%TD*%
D29*
%TO.C,C46*%
X149972370Y-63735100D03*
X148630030Y-62960100D03*
%TD*%
D18*
%TO.C,C63*%
X145074008Y-87551992D03*
X143977992Y-88648008D03*
%TD*%
%TO.C,C64*%
X152437139Y-94788641D03*
X151341123Y-95884657D03*
%TD*%
%TO.C,C65*%
X155310208Y-97622992D03*
X154214192Y-98719008D03*
%TD*%
D17*
%TO.C,C47*%
X177821584Y-82977984D03*
X178917600Y-84074000D03*
%TD*%
D15*
%TO.C,C59*%
X163612192Y-98033208D03*
X164708208Y-96937192D03*
%TD*%
%TO.C,C60*%
X155636592Y-85587208D03*
X156732608Y-84491192D03*
%TD*%
D30*
%TO.C,L31*%
X144068274Y-70470890D03*
X142088126Y-69940310D03*
%TD*%
D23*
%TO.C,L35*%
X154293184Y-60998984D03*
X152843616Y-59549416D03*
%TD*%
D31*
%TO.C,L59*%
X142024784Y-78675216D03*
X140575216Y-80124784D03*
%TD*%
%TO.C,L63*%
X150965784Y-87667216D03*
X149516216Y-89116784D03*
%TD*%
D32*
%TO.C,L32*%
X139940416Y-68618984D03*
X141389984Y-67169416D03*
%TD*%
D33*
%TO.C,L36*%
X150392076Y-59507700D03*
X148616724Y-60532700D03*
%TD*%
D22*
%TO.C,L60*%
X139559416Y-81698216D03*
X141008984Y-83147784D03*
%TD*%
D23*
%TO.C,L64*%
X148070184Y-90488384D03*
X146620616Y-89038816D03*
%TD*%
D34*
%TO.C,L39*%
X145617969Y-67582611D03*
X147650431Y-67850189D03*
%TD*%
D35*
%TO.C,L57*%
X150495231Y-74974011D03*
X148462769Y-75241589D03*
%TD*%
D26*
%TO.C,L17*%
X133897449Y-52792551D03*
X135240951Y-51449049D03*
%TD*%
%TO.C,L23*%
X136920049Y-55942151D03*
X138263551Y-54598649D03*
%TD*%
D36*
%TO.C,L42*%
X151602676Y-67759600D03*
X153248124Y-66809600D03*
%TD*%
D37*
%TO.C,L48*%
X154371000Y-70993000D03*
X156271000Y-70993000D03*
%TD*%
D38*
%TO.C,L54*%
X152593276Y-76360000D03*
X154238724Y-77310000D03*
%TD*%
D39*
%TO.C,L40*%
X153949631Y-64548189D03*
X151917169Y-64280611D03*
%TD*%
D40*
%TO.C,L58*%
X154325900Y-81126276D03*
X155350900Y-79350924D03*
%TD*%
D32*
%TO.C,L33*%
X178980216Y-91834584D03*
X180429784Y-90385016D03*
%TD*%
D22*
%TO.C,L61*%
X156875216Y-98775216D03*
X158324784Y-100224784D03*
%TD*%
D23*
%TO.C,L65*%
X151346784Y-93561784D03*
X149897216Y-92112216D03*
%TD*%
%TO.C,L34*%
X180567483Y-88009883D03*
X179117915Y-86560315D03*
%TD*%
D32*
%TO.C,L62*%
X159875216Y-99424784D03*
X161324784Y-97975216D03*
%TD*%
%TO.C,L66*%
X150913216Y-90513784D03*
X152362784Y-89064216D03*
%TD*%
D19*
%TO.C,R29*%
X147115963Y-72770163D03*
X145949237Y-71603437D03*
%TD*%
D41*
%TO.C,R31*%
X155245637Y-62332437D03*
X156412363Y-63499163D03*
%TD*%
D14*
%TO.C,R32*%
X144220363Y-76505637D03*
X143053637Y-77672363D03*
%TD*%
D13*
%TO.C,R34*%
X152016637Y-86683363D03*
X153183363Y-85516637D03*
%TD*%
D41*
%TO.C,R30*%
X176633274Y-84177274D03*
X177800000Y-85344000D03*
%TD*%
D13*
%TO.C,R33*%
X162357637Y-96976363D03*
X163524363Y-95809637D03*
%TD*%
D14*
%TO.C,R35*%
X154483363Y-86816637D03*
X153316637Y-87983363D03*
%TD*%
D42*
%TO.C,U7*%
X147393263Y-79662660D03*
D21*
X148885965Y-83692462D03*
X148178859Y-82985355D03*
X147471752Y-83692462D03*
X146764645Y-82985355D03*
X147471752Y-82278248D03*
X144643325Y-82278248D03*
X148178859Y-84399569D03*
D42*
X148291289Y-80560686D03*
D21*
X146057538Y-83692462D03*
X146764645Y-81571141D03*
X146764645Y-84399569D03*
X147471752Y-85106675D03*
X145350431Y-82985355D03*
X145350431Y-81571141D03*
X146057538Y-80864035D03*
X146057538Y-82278248D03*
D43*
X146764645Y-82985355D03*
D42*
X149189314Y-81458711D03*
X150087340Y-82356737D03*
X146136027Y-86308050D03*
X145238001Y-85410024D03*
X144339976Y-84511999D03*
X143441950Y-83613973D03*
%TD*%
%TO.C,U8*%
X157643263Y-89812660D03*
D21*
X158428859Y-94549569D03*
X159135965Y-93842462D03*
X157721752Y-92428248D03*
X158428859Y-93135355D03*
D43*
X157014645Y-93135355D03*
D21*
X156307538Y-92428248D03*
X157014645Y-91721141D03*
X156307538Y-93842462D03*
X157014645Y-94549569D03*
X157721752Y-93842462D03*
X157014645Y-93135355D03*
D42*
X158541289Y-90710686D03*
D21*
X155600431Y-91721141D03*
X155600431Y-93135355D03*
X157721752Y-95256675D03*
X156307538Y-91014035D03*
X154893325Y-92428248D03*
D42*
X159439314Y-91608711D03*
X160337340Y-92506737D03*
X156386027Y-96458050D03*
X155488001Y-95560024D03*
X154589976Y-94661999D03*
X153691950Y-93763973D03*
%TD*%
D19*
%TO.C,R28*%
X167562963Y-94817363D03*
X166396237Y-93650637D03*
%TD*%
D24*
%TO.C,C40*%
X168772208Y-93613608D03*
X167676192Y-92517592D03*
%TD*%
D31*
%TO.C,L29*%
X172250984Y-98665416D03*
X170801416Y-100114984D03*
%TD*%
D44*
%TO.C,L30*%
X169320900Y-98245876D03*
X168295900Y-96470524D03*
%TD*%
D32*
%TO.C,L7*%
X128815216Y-96482784D03*
X130264784Y-95033216D03*
%TD*%
D22*
%TO.C,L9*%
X141794616Y-103974016D03*
X143244184Y-105423584D03*
%TD*%
D24*
%TO.C,C27*%
X156885008Y-113959008D03*
X155788992Y-112862992D03*
%TD*%
D14*
%TO.C,R18*%
X138937163Y-104039237D03*
X137770437Y-105205963D03*
%TD*%
%TO.C,R4*%
X147383363Y-96616637D03*
X146216637Y-97783363D03*
%TD*%
D45*
%TO.C,C42*%
X176911000Y-89395000D03*
X176911000Y-90945000D03*
%TD*%
D46*
%TO.C,L51*%
X152476200Y-72025400D03*
X152476200Y-74075400D03*
%TD*%
D47*
%TO.C,C30*%
X192405000Y-101087000D03*
X192405000Y-99187000D03*
%TD*%
D48*
%TO.C,C52*%
X164076400Y-86268324D03*
X163126400Y-84622876D03*
%TD*%
D49*
%TO.C,L14*%
X134199490Y-47600126D03*
X133668910Y-49580274D03*
%TD*%
D50*
%TO.C,C89*%
X173445249Y-113120249D03*
X174788751Y-114463751D03*
%TD*%
D32*
%TO.C,L6*%
X143445616Y-111265584D03*
X144895184Y-109816016D03*
%TD*%
D51*
%TO.C,L41*%
X173391751Y-87542449D03*
X172048249Y-88885951D03*
%TD*%
D52*
%TO.C,L49*%
X167598200Y-83489800D03*
X165548200Y-83489800D03*
%TD*%
D22*
%TO.C,L20*%
X136714616Y-50176816D03*
X138164184Y-51626384D03*
%TD*%
D37*
%TO.C,C84*%
X112080000Y-67310000D03*
X113980000Y-67310000D03*
%TD*%
D53*
%TO.C,D1*%
X141968786Y-120413214D03*
X144797214Y-117584786D03*
%TD*%
D54*
%TO.C,L67*%
X119305364Y-65736764D03*
D55*
X115950143Y-62381543D03*
%TD*%
D13*
%TO.C,R41*%
X119380837Y-70179363D03*
X120547563Y-69012637D03*
%TD*%
D33*
%TO.C,L15*%
X192683076Y-103348100D03*
X190907724Y-104373100D03*
%TD*%
D22*
%TO.C,L44*%
X169607616Y-89165816D03*
X171057184Y-90615384D03*
%TD*%
D14*
%TO.C,R17*%
X128783363Y-93716637D03*
X127616637Y-94883363D03*
%TD*%
D17*
%TO.C,C7*%
X153670000Y-103505000D03*
X154766016Y-104601016D03*
%TD*%
D15*
%TO.C,C9*%
X147457792Y-98896808D03*
X148553808Y-97800792D03*
%TD*%
D51*
%TO.C,L18*%
X187641151Y-104890649D03*
X186297649Y-106234151D03*
%TD*%
D56*
%TO.C,L74*%
X156337000Y-53349000D03*
X156337000Y-51299000D03*
%TD*%
D25*
%TO.C,C79*%
X125664000Y-97790000D03*
X123764000Y-97790000D03*
%TD*%
D24*
%TO.C,C67*%
X121833008Y-58206008D03*
X120736992Y-57109992D03*
%TD*%
D57*
%TO.C,C74*%
X132916247Y-128445847D03*
X131802553Y-127332153D03*
%TD*%
D58*
%TO.C,L13*%
X129256100Y-49937724D03*
X130281100Y-51713076D03*
%TD*%
D59*
%TO.C,D3*%
X164338000Y-110236000D03*
D60*
X162990962Y-108888962D03*
D61*
X165685038Y-111583038D03*
%TD*%
D62*
%TO.C,U9*%
X123330025Y-63150635D03*
X122976472Y-62797082D03*
X122622918Y-62443528D03*
X122269365Y-62089975D03*
D63*
X122269365Y-61100025D03*
X122622918Y-60746472D03*
X122976472Y-60392918D03*
X123330025Y-60039365D03*
D62*
X124319975Y-60039365D03*
X124673528Y-60392918D03*
X125027082Y-60746472D03*
X125380635Y-61100025D03*
D63*
X125380635Y-62089975D03*
X125027082Y-62443528D03*
X124673528Y-62797082D03*
X124319975Y-63150635D03*
D64*
X123825000Y-61595000D03*
%TD*%
D22*
%TO.C,L26*%
X139508616Y-52996216D03*
X140958184Y-54445784D03*
%TD*%
D14*
%TO.C,R46*%
X160032183Y-120187709D03*
X158865457Y-121354435D03*
%TD*%
D15*
%TO.C,C86*%
X158074992Y-116245008D03*
X159171008Y-115148992D03*
%TD*%
D18*
%TO.C,C91*%
X173903008Y-107274992D03*
X172806992Y-108371008D03*
%TD*%
D65*
%TO.C,R45*%
X158735667Y-118967563D03*
X157621973Y-120081257D03*
%TD*%
D32*
%TO.C,L11*%
X133275216Y-101224784D03*
X134724784Y-99775216D03*
%TD*%
D41*
%TO.C,R1*%
X127966037Y-73127437D03*
X129132763Y-74294163D03*
%TD*%
D13*
%TO.C,R3*%
X137770437Y-84885963D03*
X138937163Y-83719237D03*
%TD*%
D46*
%TO.C,L73*%
X112649000Y-96765000D03*
X112649000Y-98815000D03*
%TD*%
D41*
%TO.C,R2*%
X155245637Y-101727837D03*
X156412363Y-102894563D03*
%TD*%
D66*
%TO.C,C70*%
X131583351Y-66508551D03*
X130239849Y-65165049D03*
%TD*%
D15*
%TO.C,C5*%
X152690192Y-106923208D03*
X153786208Y-105827192D03*
%TD*%
%TO.C,C55*%
X162037392Y-93893008D03*
X163133408Y-92796992D03*
%TD*%
D22*
%TO.C,L19*%
X132345816Y-54240816D03*
X133795384Y-55690384D03*
%TD*%
D51*
%TO.C,C78*%
X161834751Y-112231249D03*
X160491249Y-113574751D03*
%TD*%
D22*
%TO.C,L25*%
X135393816Y-57212616D03*
X136843384Y-58662184D03*
%TD*%
%TO.C,L3*%
X149262216Y-96303216D03*
X150711784Y-97752784D03*
%TD*%
D52*
%TO.C,L16*%
X189797800Y-108864400D03*
X187747800Y-108864400D03*
%TD*%
D51*
%TO.C,L24*%
X184720151Y-102122049D03*
X183376649Y-103465551D03*
%TD*%
D67*
%TO.C,C80*%
X125489000Y-100330000D03*
X123939000Y-100330000D03*
%TD*%
D13*
%TO.C,R37*%
X124918037Y-57377763D03*
X126084763Y-56211037D03*
%TD*%
D23*
%TO.C,L21*%
X189014984Y-103340784D03*
X187565416Y-101891216D03*
%TD*%
D68*
%TO.C,C50*%
X169375322Y-85550430D03*
X169867078Y-83715170D03*
%TD*%
D23*
%TO.C,L5*%
X146139784Y-108369984D03*
X144690216Y-106920416D03*
%TD*%
D69*
%TO.C,L50*%
X166183200Y-87426800D03*
X168233200Y-87426800D03*
%TD*%
D55*
%TO.C,L68*%
X168519633Y-114333572D03*
D54*
X171874854Y-117688793D03*
%TD*%
D51*
%TO.C,C33*%
X187641151Y-104890649D03*
X186297649Y-106234151D03*
%TD*%
D19*
%TO.C,R9*%
X127507163Y-81710963D03*
X126340437Y-80544237D03*
%TD*%
D46*
%TO.C,L69*%
X123952000Y-91939000D03*
X123952000Y-93989000D03*
%TD*%
D70*
%TO.C,U3*%
X149444194Y-99389250D03*
X149903813Y-99848869D03*
X150363433Y-100308488D03*
X150823052Y-100768108D03*
X151282672Y-101227727D03*
X151742291Y-101687347D03*
X152201910Y-102146966D03*
X148153724Y-106195152D03*
X147694105Y-105735533D03*
X147234485Y-105275914D03*
X146774866Y-104816294D03*
X146315246Y-104356675D03*
X145855627Y-103897055D03*
X145396008Y-103437436D03*
%TD*%
D71*
%TO.C,C87*%
X177827913Y-114327913D03*
X176502087Y-113002087D03*
%TD*%
D14*
%TO.C,R16*%
X146049163Y-111227437D03*
X144882437Y-112394163D03*
%TD*%
D72*
%TO.C,L46*%
X156018090Y-68528674D03*
X155487510Y-66548526D03*
%TD*%
D73*
%TO.C,TH1*%
X136916235Y-103367765D03*
X135625765Y-104658235D03*
%TD*%
D51*
%TO.C,C35*%
X184720151Y-102122049D03*
X183376649Y-103465551D03*
%TD*%
D15*
%TO.C,C69*%
X123861192Y-56123208D03*
X124957208Y-55027192D03*
%TD*%
D46*
%TO.C,L38*%
X172262800Y-92548600D03*
X172262800Y-94598600D03*
%TD*%
D23*
%TO.C,L4*%
X143824784Y-90615384D03*
X142375216Y-89165816D03*
%TD*%
D17*
%TO.C,C38*%
X183195592Y-95921192D03*
X184291608Y-97017208D03*
%TD*%
D22*
%TO.C,L72*%
X186473216Y-71411216D03*
X187922784Y-72860784D03*
%TD*%
D14*
%TO.C,R19*%
X136016163Y-101516637D03*
X134849437Y-102683363D03*
%TD*%
D74*
%TO.C,U5*%
X139857105Y-60204382D03*
D21*
X144594014Y-60833000D03*
X143179800Y-60833000D03*
X141765586Y-62247214D03*
X141058480Y-61540107D03*
X145301120Y-60125893D03*
X142472693Y-62954320D03*
X142472693Y-60125893D03*
X141765586Y-60833000D03*
X142472693Y-61540107D03*
X143179800Y-59418786D03*
X143886907Y-58711680D03*
X143886907Y-60125893D03*
D75*
X143179800Y-60833000D03*
D21*
X143886907Y-61540107D03*
D74*
X140755131Y-59306356D03*
D21*
X144594014Y-59418786D03*
X143179800Y-62247214D03*
D74*
X141653156Y-58408331D03*
X142551182Y-57510305D03*
X146502495Y-61461618D03*
X145604469Y-62359644D03*
X144706444Y-63257669D03*
X143808418Y-64155695D03*
%TD*%
D22*
%TO.C,L2*%
X139175216Y-86375216D03*
X140624784Y-87824784D03*
%TD*%
D19*
%TO.C,R7*%
X130047163Y-79374163D03*
X128880437Y-78207437D03*
%TD*%
%TO.C,R8*%
X128675563Y-80644163D03*
X127508837Y-79477437D03*
%TD*%
D18*
%TO.C,C66*%
X120563008Y-59522992D03*
X119466992Y-60619008D03*
%TD*%
D50*
%TO.C,C26*%
X136107249Y-126074249D03*
X137450751Y-127417751D03*
%TD*%
D14*
%TO.C,R40*%
X168350363Y-109144637D03*
X167183637Y-110311363D03*
%TD*%
D17*
%TO.C,C68*%
X164261436Y-120133261D03*
X165357452Y-121229277D03*
%TD*%
D76*
%TO.C,C76*%
X147601913Y-119098087D03*
X146276087Y-120423913D03*
%TD*%
D22*
%TO.C,L45*%
X149694016Y-68871216D03*
X151143584Y-70320784D03*
%TD*%
D23*
%TO.C,L28*%
X181877584Y-104940984D03*
X180428016Y-103491416D03*
%TD*%
D15*
%TO.C,C54*%
X156169992Y-88432008D03*
X157266008Y-87335992D03*
%TD*%
D13*
%TO.C,R38*%
X128474037Y-58800163D03*
X129640763Y-57633437D03*
%TD*%
D23*
%TO.C,L70*%
X175476784Y-111214784D03*
X174027216Y-109765216D03*
%TD*%
D17*
%TO.C,C43*%
X172425992Y-96505392D03*
X173522008Y-97601408D03*
%TD*%
D13*
%TO.C,R36*%
X139370637Y-118439363D03*
X140537363Y-117272637D03*
%TD*%
D14*
%TO.C,R12*%
X143509163Y-92939437D03*
X142342437Y-94106163D03*
%TD*%
D17*
%TO.C,C6*%
X143433800Y-95199200D03*
X144529816Y-96295216D03*
%TD*%
D26*
%TO.C,C48*%
X172048249Y-88885951D03*
X173391751Y-87542449D03*
%TD*%
D18*
%TO.C,C82*%
X129046608Y-61427992D03*
X127950592Y-62524008D03*
%TD*%
D15*
%TO.C,C14*%
X140040992Y-102910008D03*
X141137008Y-101813992D03*
%TD*%
D51*
%TO.C,C90*%
X172248751Y-105246249D03*
X170905249Y-106589751D03*
%TD*%
D13*
%TO.C,R13*%
X151511837Y-105790163D03*
X152678563Y-104623437D03*
%TD*%
D77*
%TO.C,L43*%
X174115676Y-83672100D03*
X172340324Y-82647100D03*
%TD*%
D78*
%TO.C,C72*%
X113489153Y-62151847D03*
X114602847Y-61038153D03*
%TD*%
%TO.C,C88*%
X172417153Y-120444847D03*
X173530847Y-119331153D03*
%TD*%
D31*
%TO.C,L75*%
X153759784Y-130720216D03*
X152310216Y-132169784D03*
%TD*%
D71*
%TO.C,C73*%
X128932913Y-132488913D03*
X127607087Y-131163087D03*
%TD*%
D23*
%TO.C,L1*%
X153824784Y-100924784D03*
X152375216Y-99475216D03*
%TD*%
D79*
%TO.C,C77*%
X132285153Y-121998153D03*
X133398847Y-123111847D03*
%TD*%
D47*
%TO.C,C31*%
X192303400Y-111287600D03*
X192303400Y-109387600D03*
%TD*%
D80*
%TO.C,U11*%
X163118795Y-115301775D03*
X163472348Y-115655328D03*
X163825902Y-116008882D03*
X164179455Y-116362435D03*
D81*
X164179455Y-117352385D03*
X163825902Y-117705938D03*
X163472348Y-118059492D03*
X163118795Y-118413045D03*
D80*
X162128845Y-118413045D03*
X161775292Y-118059492D03*
X161421738Y-117705938D03*
X161068185Y-117352385D03*
D81*
X161068185Y-116362435D03*
X161421738Y-116008882D03*
X161775292Y-115655328D03*
X162128845Y-115301775D03*
D82*
X162623820Y-116857410D03*
%TD*%
D83*
%TO.C,U6*%
X181630695Y-97402618D03*
D21*
X176893786Y-96774000D03*
X179722214Y-96774000D03*
X179015107Y-96066893D03*
X178308000Y-96774000D03*
X177600893Y-98895320D03*
X179722214Y-95359786D03*
X178308000Y-98188214D03*
D83*
X180732669Y-98300644D03*
D21*
X176893786Y-98188214D03*
X176186680Y-97481107D03*
X179015107Y-97481107D03*
X180429320Y-96066893D03*
D84*
X178308000Y-96774000D03*
D21*
X177600893Y-96066893D03*
X179015107Y-94652680D03*
X177600893Y-97481107D03*
X178308000Y-95359786D03*
D83*
X179834644Y-99198669D03*
X178936618Y-100096695D03*
X174985305Y-96145382D03*
X175883331Y-95247356D03*
X176781356Y-94349331D03*
X177679382Y-93451305D03*
%TD*%
D50*
%TO.C,C75*%
X157189249Y-111088249D03*
X158532751Y-112431751D03*
%TD*%
D85*
%TO.C,L52*%
X155462110Y-75234274D03*
X155992690Y-73254126D03*
%TD*%
D24*
%TO.C,C39*%
X178576608Y-102808408D03*
X177480592Y-101712392D03*
%TD*%
D25*
%TO.C,C85*%
X116266000Y-69723000D03*
X114366000Y-69723000D03*
%TD*%
D13*
%TO.C,R39*%
X126848437Y-58190563D03*
X128015163Y-57023837D03*
%TD*%
D15*
%TO.C,C81*%
X165788079Y-119343424D03*
X166884095Y-118247408D03*
%TD*%
D86*
%TO.C,U1*%
X124192509Y-75926571D03*
X124546062Y-75573018D03*
X124899616Y-75219464D03*
X125253169Y-74865911D03*
D87*
X126243119Y-74865911D03*
X126596672Y-75219464D03*
X126950226Y-75573018D03*
X127303779Y-75926571D03*
D86*
X127303779Y-76916521D03*
X126950226Y-77270074D03*
X126596672Y-77623628D03*
X126243119Y-77977181D03*
D87*
X125253169Y-77977181D03*
X124899616Y-77623628D03*
X124546062Y-77270074D03*
X124192509Y-76916521D03*
D88*
X125748144Y-76421546D03*
%TD*%
D32*
%TO.C,L71*%
X133260216Y-125946784D03*
X134709784Y-124497216D03*
%TD*%
D17*
%TO.C,C4*%
X144663792Y-93965392D03*
X145759808Y-95061408D03*
%TD*%
D70*
%TO.C,U2*%
X139287313Y-89232369D03*
X139746932Y-89691988D03*
X140206552Y-90151607D03*
X140666171Y-90611227D03*
X141125791Y-91070846D03*
X141585410Y-91530466D03*
X142045029Y-91990085D03*
X137996843Y-96038271D03*
X137537224Y-95578652D03*
X137077604Y-95119033D03*
X136617985Y-94659413D03*
X136158365Y-94199794D03*
X135698746Y-93740174D03*
X135239127Y-93280555D03*
%TD*%
D23*
%TO.C,L37*%
X176289584Y-87313384D03*
X174840016Y-85863816D03*
%TD*%
D66*
%TO.C,C71*%
X128687751Y-66457751D03*
X127344249Y-65114249D03*
%TD*%
D89*
%TO.C,U4*%
X128740460Y-107014336D03*
X129094014Y-107367890D03*
X129447567Y-107721443D03*
X129801120Y-108074996D03*
X130154674Y-108428550D03*
D90*
X130260740Y-109029590D03*
X130614293Y-109383144D03*
X130967847Y-109736697D03*
D89*
X131568887Y-109842763D03*
X131922441Y-110196317D03*
X132275994Y-110549870D03*
X132629547Y-110903423D03*
X132983101Y-111256977D03*
D91*
X132452771Y-112282282D03*
X132099217Y-112635835D03*
X131745664Y-112989388D03*
X131392111Y-113342942D03*
D89*
X130366806Y-113873272D03*
X130013252Y-113519718D03*
X129659699Y-113166165D03*
X129306146Y-112812612D03*
X128952592Y-112459058D03*
D90*
X128846526Y-111858018D03*
X128492973Y-111504464D03*
X128139419Y-111150911D03*
D89*
X127538379Y-111044845D03*
X127184825Y-110691291D03*
X126831272Y-110337738D03*
X126477719Y-109984185D03*
X126124165Y-109630631D03*
D91*
X126654495Y-108605326D03*
X127008049Y-108251773D03*
X127361602Y-107898220D03*
X127715155Y-107544666D03*
D92*
X129553633Y-110443804D03*
D93*
X130900671Y-111790842D03*
X128206595Y-109096766D03*
%TD*%
D94*
%TO.C,D2*%
X140175437Y-114713563D03*
X137700563Y-117188437D03*
%TD*%
D40*
%TO.C,L56*%
X163495300Y-90879876D03*
X164520300Y-89104524D03*
%TD*%
D59*
%TO.C,D4*%
X123748800Y-67183000D03*
D95*
X125095838Y-65835962D03*
D96*
X122401762Y-68530038D03*
%TD*%
D33*
%TO.C,L55*%
X160704476Y-85060100D03*
X158929124Y-86085100D03*
%TD*%
D32*
%TO.C,L10*%
X139026016Y-106769784D03*
X140475584Y-105320216D03*
%TD*%
D97*
%TO.C,L47*%
X169867078Y-83715170D03*
X169375322Y-85550430D03*
%TD*%
D13*
%TO.C,R5*%
X144816637Y-91883363D03*
X145983363Y-90716637D03*
%TD*%
D23*
%TO.C,L22*%
X184696984Y-107684184D03*
X183247416Y-106234616D03*
%TD*%
D18*
%TO.C,C83*%
X163032064Y-122265638D03*
X161936048Y-123361654D03*
%TD*%
D23*
%TO.C,L27*%
X186195584Y-100495984D03*
X184746016Y-99046416D03*
%TD*%
D65*
%TO.C,R44*%
X161783667Y-120999563D03*
X160669973Y-122113257D03*
%TD*%
D15*
%TO.C,C57*%
X151902792Y-83631408D03*
X152998808Y-82535392D03*
%TD*%
D17*
%TO.C,C15*%
X147279992Y-110195992D03*
X148376008Y-111292008D03*
%TD*%
D98*
%TO.C,L53*%
X163126400Y-84622876D03*
X164076400Y-86268324D03*
%TD*%
M02*
