G04 #@! TF.GenerationSoftware,KiCad,Pcbnew,5.99.0-unknown-43001cae3~104~ubuntu18.04.1*
G04 #@! TF.CreationDate,2020-11-12T23:28:15+01:00*
G04 #@! TF.ProjectId,QFHMIX01C,5146484d-4958-4303-9143-2e6b69636164,REV 0.2*
G04 #@! TF.SameCoordinates,Original*
G04 #@! TF.FileFunction,OtherDrawing,Comment*
%FSLAX45Y45*%
G04 Gerber Fmt 4.5, Leading zero omitted, Abs format (unit mm)*
G04 Created by KiCad (PCBNEW 5.99.0-unknown-43001cae3~104~ubuntu18.04.1) date 2020-11-12 23:28:15*
%MOMM*%
%LPD*%
G01*
G04 APERTURE LIST*
%ADD10C,0.150000*%
%ADD11C,0.300000*%
G04 APERTURE END LIST*
D10*
X14533333Y-14728738D02*
X14600000Y-14728738D01*
X14557143Y-14828738D01*
X14633333Y-14738262D02*
X14638095Y-14733500D01*
X14647619Y-14728738D01*
X14671428Y-14728738D01*
X14680952Y-14733500D01*
X14685714Y-14738262D01*
X14690476Y-14747786D01*
X14690476Y-14757309D01*
X14685714Y-14771595D01*
X14628571Y-14828738D01*
X14690476Y-14828738D01*
X14733333Y-14819214D02*
X14738095Y-14823976D01*
X14733333Y-14828738D01*
X14728571Y-14823976D01*
X14733333Y-14819214D01*
X14733333Y-14828738D01*
X14800000Y-14728738D02*
X14809524Y-14728738D01*
X14819048Y-14733500D01*
X14823809Y-14738262D01*
X14828571Y-14747786D01*
X14833333Y-14766833D01*
X14833333Y-14790643D01*
X14828571Y-14809690D01*
X14823809Y-14819214D01*
X14819048Y-14823976D01*
X14809524Y-14828738D01*
X14800000Y-14828738D01*
X14790476Y-14823976D01*
X14785714Y-14819214D01*
X14780952Y-14809690D01*
X14776190Y-14790643D01*
X14776190Y-14766833D01*
X14780952Y-14747786D01*
X14785714Y-14738262D01*
X14790476Y-14733500D01*
X14800000Y-14728738D01*
X14895238Y-14728738D02*
X14904762Y-14728738D01*
X14914286Y-14733500D01*
X14919048Y-14738262D01*
X14923809Y-14747786D01*
X14928571Y-14766833D01*
X14928571Y-14790643D01*
X14923809Y-14809690D01*
X14919048Y-14819214D01*
X14914286Y-14823976D01*
X14904762Y-14828738D01*
X14895238Y-14828738D01*
X14885714Y-14823976D01*
X14880952Y-14819214D01*
X14876190Y-14809690D01*
X14871428Y-14790643D01*
X14871428Y-14766833D01*
X14876190Y-14747786D01*
X14880952Y-14738262D01*
X14885714Y-14733500D01*
X14895238Y-14728738D01*
X14990476Y-14728738D02*
X15000000Y-14728738D01*
X15009524Y-14733500D01*
X15014286Y-14738262D01*
X15019048Y-14747786D01*
X15023809Y-14766833D01*
X15023809Y-14790643D01*
X15019048Y-14809690D01*
X15014286Y-14819214D01*
X15009524Y-14823976D01*
X15000000Y-14828738D01*
X14990476Y-14828738D01*
X14980952Y-14823976D01*
X14976190Y-14819214D01*
X14971428Y-14809690D01*
X14966667Y-14790643D01*
X14966667Y-14766833D01*
X14971428Y-14747786D01*
X14976190Y-14738262D01*
X14980952Y-14733500D01*
X14990476Y-14728738D01*
X15085714Y-14728738D02*
X15095238Y-14728738D01*
X15104762Y-14733500D01*
X15109524Y-14738262D01*
X15114286Y-14747786D01*
X15119048Y-14766833D01*
X15119048Y-14790643D01*
X15114286Y-14809690D01*
X15109524Y-14819214D01*
X15104762Y-14823976D01*
X15095238Y-14828738D01*
X15085714Y-14828738D01*
X15076190Y-14823976D01*
X15071428Y-14819214D01*
X15066667Y-14809690D01*
X15061905Y-14790643D01*
X15061905Y-14766833D01*
X15066667Y-14747786D01*
X15071428Y-14738262D01*
X15076190Y-14733500D01*
X15085714Y-14728738D01*
X15238095Y-14828738D02*
X15238095Y-14762071D01*
X15238095Y-14771595D02*
X15242857Y-14766833D01*
X15252381Y-14762071D01*
X15266667Y-14762071D01*
X15276190Y-14766833D01*
X15280952Y-14776357D01*
X15280952Y-14828738D01*
X15280952Y-14776357D02*
X15285714Y-14766833D01*
X15295238Y-14762071D01*
X15309524Y-14762071D01*
X15319048Y-14766833D01*
X15323809Y-14776357D01*
X15323809Y-14828738D01*
X15371428Y-14828738D02*
X15371428Y-14762071D01*
X15371428Y-14771595D02*
X15376190Y-14766833D01*
X15385714Y-14762071D01*
X15400000Y-14762071D01*
X15409524Y-14766833D01*
X15414286Y-14776357D01*
X15414286Y-14828738D01*
X15414286Y-14776357D02*
X15419048Y-14766833D01*
X15428571Y-14762071D01*
X15442857Y-14762071D01*
X15452381Y-14766833D01*
X15457143Y-14776357D01*
X15457143Y-14828738D01*
X18600000Y-9000000D02*
X18600000Y-14727142D01*
X11400000Y-9000000D02*
X11400000Y-14727142D01*
X18600000Y-14668500D02*
X11400000Y-14668500D01*
X18600000Y-14668500D02*
X11400000Y-14668500D01*
X18600000Y-14668500D02*
X18487350Y-14609858D01*
X18600000Y-14668500D02*
X18487350Y-14727142D01*
X11400000Y-14668500D02*
X11512650Y-14727142D01*
X11400000Y-14668500D02*
X11512650Y-14609858D01*
D11*
X14321428Y-15644457D02*
X14350000Y-15644457D01*
X14364286Y-15637314D01*
X14371428Y-15630171D01*
X14385714Y-15608743D01*
X14392857Y-15580171D01*
X14392857Y-15523028D01*
X14385714Y-15508743D01*
X14378571Y-15501600D01*
X14364286Y-15494457D01*
X14335714Y-15494457D01*
X14321428Y-15501600D01*
X14314286Y-15508743D01*
X14307143Y-15523028D01*
X14307143Y-15558743D01*
X14314286Y-15573028D01*
X14321428Y-15580171D01*
X14335714Y-15587314D01*
X14364286Y-15587314D01*
X14378571Y-15580171D01*
X14385714Y-15573028D01*
X14392857Y-15558743D01*
X14485714Y-15494457D02*
X14500000Y-15494457D01*
X14514286Y-15501600D01*
X14521428Y-15508743D01*
X14528571Y-15523028D01*
X14535714Y-15551600D01*
X14535714Y-15587314D01*
X14528571Y-15615886D01*
X14521428Y-15630171D01*
X14514286Y-15637314D01*
X14500000Y-15644457D01*
X14485714Y-15644457D01*
X14471428Y-15637314D01*
X14464286Y-15630171D01*
X14457143Y-15615886D01*
X14450000Y-15587314D01*
X14450000Y-15551600D01*
X14457143Y-15523028D01*
X14464286Y-15508743D01*
X14471428Y-15501600D01*
X14485714Y-15494457D01*
X14600000Y-15630171D02*
X14607143Y-15637314D01*
X14600000Y-15644457D01*
X14592857Y-15637314D01*
X14600000Y-15630171D01*
X14600000Y-15644457D01*
X14678571Y-15644457D02*
X14707143Y-15644457D01*
X14721428Y-15637314D01*
X14728571Y-15630171D01*
X14742857Y-15608743D01*
X14750000Y-15580171D01*
X14750000Y-15523028D01*
X14742857Y-15508743D01*
X14735714Y-15501600D01*
X14721428Y-15494457D01*
X14692857Y-15494457D01*
X14678571Y-15501600D01*
X14671428Y-15508743D01*
X14664286Y-15523028D01*
X14664286Y-15558743D01*
X14671428Y-15573028D01*
X14678571Y-15580171D01*
X14692857Y-15587314D01*
X14721428Y-15587314D01*
X14735714Y-15580171D01*
X14742857Y-15573028D01*
X14750000Y-15558743D01*
X14800000Y-15494457D02*
X14892857Y-15494457D01*
X14842857Y-15551600D01*
X14864286Y-15551600D01*
X14878571Y-15558743D01*
X14885714Y-15565886D01*
X14892857Y-15580171D01*
X14892857Y-15615886D01*
X14885714Y-15630171D01*
X14878571Y-15637314D01*
X14864286Y-15644457D01*
X14821428Y-15644457D01*
X14807143Y-15637314D01*
X14800000Y-15630171D01*
X14950000Y-15508743D02*
X14957143Y-15501600D01*
X14971428Y-15494457D01*
X15007143Y-15494457D01*
X15021428Y-15501600D01*
X15028571Y-15508743D01*
X15035714Y-15523028D01*
X15035714Y-15537314D01*
X15028571Y-15558743D01*
X14942857Y-15644457D01*
X15035714Y-15644457D01*
X15128571Y-15494457D02*
X15142857Y-15494457D01*
X15157143Y-15501600D01*
X15164286Y-15508743D01*
X15171428Y-15523028D01*
X15178571Y-15551600D01*
X15178571Y-15587314D01*
X15171428Y-15615886D01*
X15164286Y-15630171D01*
X15157143Y-15637314D01*
X15142857Y-15644457D01*
X15128571Y-15644457D01*
X15114286Y-15637314D01*
X15107143Y-15630171D01*
X15100000Y-15615886D01*
X15092857Y-15587314D01*
X15092857Y-15551600D01*
X15100000Y-15523028D01*
X15107143Y-15508743D01*
X15114286Y-15501600D01*
X15128571Y-15494457D01*
X15357143Y-15644457D02*
X15357143Y-15544457D01*
X15357143Y-15558743D02*
X15364286Y-15551600D01*
X15378571Y-15544457D01*
X15400000Y-15544457D01*
X15414286Y-15551600D01*
X15421428Y-15565886D01*
X15421428Y-15644457D01*
X15421428Y-15565886D02*
X15428571Y-15551600D01*
X15442857Y-15544457D01*
X15464286Y-15544457D01*
X15478571Y-15551600D01*
X15485714Y-15565886D01*
X15485714Y-15644457D01*
X15557143Y-15644457D02*
X15557143Y-15544457D01*
X15557143Y-15558743D02*
X15564286Y-15551600D01*
X15578571Y-15544457D01*
X15600000Y-15544457D01*
X15614286Y-15551600D01*
X15621428Y-15565886D01*
X15621428Y-15644457D01*
X15621428Y-15565886D02*
X15628571Y-15551600D01*
X15642857Y-15544457D01*
X15664286Y-15544457D01*
X15678571Y-15551600D01*
X15685714Y-15565886D01*
X15685714Y-15644457D01*
X19546600Y-13546600D02*
X19546600Y-15455242D01*
X10453400Y-13546600D02*
X10453400Y-15455242D01*
X19546600Y-15396600D02*
X10453400Y-15396600D01*
X19546600Y-15396600D02*
X10453400Y-15396600D01*
X19546600Y-15396600D02*
X19433950Y-15337958D01*
X19546600Y-15396600D02*
X19433950Y-15455242D01*
X10453400Y-15396600D02*
X10566050Y-15455242D01*
X10453400Y-15396600D02*
X10566050Y-15337958D01*
X7505543Y-8321428D02*
X7505543Y-8350000D01*
X7512686Y-8364286D01*
X7519828Y-8371428D01*
X7541257Y-8385714D01*
X7569828Y-8392857D01*
X7626971Y-8392857D01*
X7641257Y-8385714D01*
X7648400Y-8378571D01*
X7655543Y-8364286D01*
X7655543Y-8335714D01*
X7648400Y-8321428D01*
X7641257Y-8314286D01*
X7626971Y-8307143D01*
X7591257Y-8307143D01*
X7576971Y-8314286D01*
X7569828Y-8321428D01*
X7562686Y-8335714D01*
X7562686Y-8364286D01*
X7569828Y-8378571D01*
X7576971Y-8385714D01*
X7591257Y-8392857D01*
X7655543Y-8485714D02*
X7655543Y-8500000D01*
X7648400Y-8514286D01*
X7641257Y-8521429D01*
X7626971Y-8528571D01*
X7598400Y-8535714D01*
X7562686Y-8535714D01*
X7534114Y-8528571D01*
X7519828Y-8521429D01*
X7512686Y-8514286D01*
X7505543Y-8500000D01*
X7505543Y-8485714D01*
X7512686Y-8471429D01*
X7519828Y-8464286D01*
X7534114Y-8457143D01*
X7562686Y-8450000D01*
X7598400Y-8450000D01*
X7626971Y-8457143D01*
X7641257Y-8464286D01*
X7648400Y-8471429D01*
X7655543Y-8485714D01*
X7519828Y-8600000D02*
X7512686Y-8607143D01*
X7505543Y-8600000D01*
X7512686Y-8592857D01*
X7519828Y-8600000D01*
X7505543Y-8600000D01*
X7505543Y-8678571D02*
X7505543Y-8707143D01*
X7512686Y-8721429D01*
X7519828Y-8728571D01*
X7541257Y-8742857D01*
X7569828Y-8750000D01*
X7626971Y-8750000D01*
X7641257Y-8742857D01*
X7648400Y-8735714D01*
X7655543Y-8721429D01*
X7655543Y-8692857D01*
X7648400Y-8678571D01*
X7641257Y-8671429D01*
X7626971Y-8664286D01*
X7591257Y-8664286D01*
X7576971Y-8671429D01*
X7569828Y-8678571D01*
X7562686Y-8692857D01*
X7562686Y-8721429D01*
X7569828Y-8735714D01*
X7576971Y-8742857D01*
X7591257Y-8750000D01*
X7655543Y-8800000D02*
X7655543Y-8892857D01*
X7598400Y-8842857D01*
X7598400Y-8864286D01*
X7591257Y-8878571D01*
X7584114Y-8885714D01*
X7569828Y-8892857D01*
X7534114Y-8892857D01*
X7519828Y-8885714D01*
X7512686Y-8878571D01*
X7505543Y-8864286D01*
X7505543Y-8821429D01*
X7512686Y-8807143D01*
X7519828Y-8800000D01*
X7641257Y-8950000D02*
X7648400Y-8957143D01*
X7655543Y-8971429D01*
X7655543Y-9007143D01*
X7648400Y-9021429D01*
X7641257Y-9028571D01*
X7626971Y-9035714D01*
X7612686Y-9035714D01*
X7591257Y-9028571D01*
X7505543Y-8942857D01*
X7505543Y-9035714D01*
X7655543Y-9128571D02*
X7655543Y-9142857D01*
X7648400Y-9157143D01*
X7641257Y-9164286D01*
X7626971Y-9171429D01*
X7598400Y-9178571D01*
X7562686Y-9178571D01*
X7534114Y-9171429D01*
X7519828Y-9164286D01*
X7512686Y-9157143D01*
X7505543Y-9142857D01*
X7505543Y-9128571D01*
X7512686Y-9114286D01*
X7519828Y-9107143D01*
X7534114Y-9100000D01*
X7562686Y-9092857D01*
X7598400Y-9092857D01*
X7626971Y-9100000D01*
X7641257Y-9107143D01*
X7648400Y-9114286D01*
X7655543Y-9128571D01*
X7505543Y-9357143D02*
X7605543Y-9357143D01*
X7591257Y-9357143D02*
X7598400Y-9364286D01*
X7605543Y-9378571D01*
X7605543Y-9400000D01*
X7598400Y-9414286D01*
X7584114Y-9421429D01*
X7505543Y-9421429D01*
X7584114Y-9421429D02*
X7598400Y-9428571D01*
X7605543Y-9442857D01*
X7605543Y-9464286D01*
X7598400Y-9478571D01*
X7584114Y-9485714D01*
X7505543Y-9485714D01*
X7505543Y-9557143D02*
X7605543Y-9557143D01*
X7591257Y-9557143D02*
X7598400Y-9564286D01*
X7605543Y-9578571D01*
X7605543Y-9600000D01*
X7598400Y-9614286D01*
X7584114Y-9621429D01*
X7505543Y-9621429D01*
X7584114Y-9621429D02*
X7598400Y-9628571D01*
X7605543Y-9642857D01*
X7605543Y-9664286D01*
X7598400Y-9678571D01*
X7584114Y-9685714D01*
X7505543Y-9685714D01*
X10453400Y-4453400D02*
X7694758Y-4453400D01*
X10453400Y-13546600D02*
X7694758Y-13546600D01*
X7753400Y-4453400D02*
X7753400Y-13546600D01*
X7753400Y-4453400D02*
X7753400Y-13546600D01*
X7753400Y-4453400D02*
X7694758Y-4566050D01*
X7753400Y-4453400D02*
X7812042Y-4566050D01*
X7753400Y-13546600D02*
X7812042Y-13433950D01*
X7753400Y-13546600D02*
X7694758Y-13433950D01*
X8842657Y-8475000D02*
X8849800Y-8482143D01*
X8856943Y-8496429D01*
X8856943Y-8532143D01*
X8849800Y-8546429D01*
X8842657Y-8553571D01*
X8828371Y-8560714D01*
X8814086Y-8560714D01*
X8792657Y-8553571D01*
X8706943Y-8467857D01*
X8706943Y-8560714D01*
X8721229Y-8625000D02*
X8714086Y-8632143D01*
X8706943Y-8625000D01*
X8714086Y-8617857D01*
X8721229Y-8625000D01*
X8706943Y-8625000D01*
X8792657Y-8717857D02*
X8799800Y-8703571D01*
X8806943Y-8696429D01*
X8821229Y-8689286D01*
X8828371Y-8689286D01*
X8842657Y-8696429D01*
X8849800Y-8703571D01*
X8856943Y-8717857D01*
X8856943Y-8746429D01*
X8849800Y-8760714D01*
X8842657Y-8767857D01*
X8828371Y-8775000D01*
X8821229Y-8775000D01*
X8806943Y-8767857D01*
X8799800Y-8760714D01*
X8792657Y-8746429D01*
X8792657Y-8717857D01*
X8785514Y-8703571D01*
X8778371Y-8696429D01*
X8764086Y-8689286D01*
X8735514Y-8689286D01*
X8721229Y-8696429D01*
X8714086Y-8703571D01*
X8706943Y-8717857D01*
X8706943Y-8746429D01*
X8714086Y-8760714D01*
X8721229Y-8767857D01*
X8735514Y-8775000D01*
X8764086Y-8775000D01*
X8778371Y-8767857D01*
X8785514Y-8760714D01*
X8792657Y-8746429D01*
X8856943Y-8867857D02*
X8856943Y-8882143D01*
X8849800Y-8896429D01*
X8842657Y-8903571D01*
X8828371Y-8910714D01*
X8799800Y-8917857D01*
X8764086Y-8917857D01*
X8735514Y-8910714D01*
X8721229Y-8903571D01*
X8714086Y-8896429D01*
X8706943Y-8882143D01*
X8706943Y-8867857D01*
X8714086Y-8853571D01*
X8721229Y-8846429D01*
X8735514Y-8839286D01*
X8764086Y-8832143D01*
X8799800Y-8832143D01*
X8828371Y-8839286D01*
X8842657Y-8846429D01*
X8849800Y-8853571D01*
X8856943Y-8867857D01*
X8856943Y-9010714D02*
X8856943Y-9025000D01*
X8849800Y-9039286D01*
X8842657Y-9046429D01*
X8828371Y-9053571D01*
X8799800Y-9060714D01*
X8764086Y-9060714D01*
X8735514Y-9053571D01*
X8721229Y-9046429D01*
X8714086Y-9039286D01*
X8706943Y-9025000D01*
X8706943Y-9010714D01*
X8714086Y-8996429D01*
X8721229Y-8989286D01*
X8735514Y-8982143D01*
X8764086Y-8975000D01*
X8799800Y-8975000D01*
X8828371Y-8982143D01*
X8842657Y-8989286D01*
X8849800Y-8996429D01*
X8856943Y-9010714D01*
X8856943Y-9153571D02*
X8856943Y-9167857D01*
X8849800Y-9182143D01*
X8842657Y-9189286D01*
X8828371Y-9196429D01*
X8799800Y-9203571D01*
X8764086Y-9203571D01*
X8735514Y-9196429D01*
X8721229Y-9189286D01*
X8714086Y-9182143D01*
X8706943Y-9167857D01*
X8706943Y-9153571D01*
X8714086Y-9139286D01*
X8721229Y-9132143D01*
X8735514Y-9125000D01*
X8764086Y-9117857D01*
X8799800Y-9117857D01*
X8828371Y-9125000D01*
X8842657Y-9132143D01*
X8849800Y-9139286D01*
X8856943Y-9153571D01*
X8706943Y-9382143D02*
X8806943Y-9382143D01*
X8856943Y-9382143D02*
X8849800Y-9375000D01*
X8842657Y-9382143D01*
X8849800Y-9389286D01*
X8856943Y-9382143D01*
X8842657Y-9382143D01*
X8806943Y-9453571D02*
X8706943Y-9453571D01*
X8792657Y-9453571D02*
X8799800Y-9460714D01*
X8806943Y-9475000D01*
X8806943Y-9496429D01*
X8799800Y-9510714D01*
X8785514Y-9517857D01*
X8706943Y-9517857D01*
X11444000Y-5444000D02*
X8896158Y-5444000D01*
X11444000Y-12556000D02*
X8896158Y-12556000D01*
X8954800Y-5444000D02*
X8954800Y-12556000D01*
X8954800Y-5444000D02*
X8954800Y-12556000D01*
X8954800Y-5444000D02*
X8896158Y-5556650D01*
X8954800Y-5444000D02*
X9013442Y-5556650D01*
X8954800Y-12556000D02*
X9013442Y-12443350D01*
X8954800Y-12556000D02*
X8896158Y-12443350D01*
M02*
