%TF.GenerationSoftware,KiCad,Pcbnew,6.0.4-6f826c9f35~116~ubuntu20.04.1*%
%TF.CreationDate,2022-08-08T15:26:27+00:00*%
%TF.ProjectId,QFHMIX01E,5146484d-4958-4303-9145-2e6b69636164,rev?*%
%TF.SameCoordinates,Original*%
%TF.FileFunction,Legend,Bot*%
%TF.FilePolarity,Positive*%
%FSLAX46Y46*%
G04 Gerber Fmt 4.6, Leading zero omitted, Abs format (unit mm)*
G04 Created by KiCad (PCBNEW 6.0.4-6f826c9f35~116~ubuntu20.04.1) date 2022-08-08 15:26:27*
%MOMM*%
%LPD*%
G01*
G04 APERTURE LIST*
%ADD10C,0.150000*%
%ADD11C,0.100000*%
%ADD12C,0.304800*%
%ADD13C,0.120000*%
%ADD14C,0.200000*%
%ADD15C,0.500000*%
G04 APERTURE END LIST*
D10*
%TO.C,C1*%
X128950026Y-70548324D02*
X129017369Y-70548324D01*
X129152056Y-70480980D01*
X129219400Y-70413637D01*
X129286743Y-70278949D01*
X129286743Y-70144262D01*
X129253072Y-70043247D01*
X129152056Y-69874888D01*
X129051041Y-69773873D01*
X128882682Y-69672858D01*
X128781667Y-69639186D01*
X128646980Y-69639186D01*
X128512293Y-69706530D01*
X128444949Y-69773873D01*
X128377606Y-69908560D01*
X128377606Y-69975904D01*
X128343934Y-71289102D02*
X128747995Y-70885041D01*
X128545965Y-71087072D02*
X127838858Y-70379965D01*
X128007217Y-70413637D01*
X128141904Y-70413637D01*
X128242919Y-70379965D01*
%TO.C,M4*%
X149190476Y-126047619D02*
X149190476Y-127047619D01*
X149523809Y-126333333D01*
X149857142Y-127047619D01*
X149857142Y-126047619D01*
X150761904Y-126714285D02*
X150761904Y-126047619D01*
X150523809Y-127095238D02*
X150285714Y-126380952D01*
X150904761Y-126380952D01*
%TO.C,M3*%
X149190476Y-54047619D02*
X149190476Y-55047619D01*
X149523809Y-54333333D01*
X149857142Y-55047619D01*
X149857142Y-54047619D01*
X150238095Y-55047619D02*
X150857142Y-55047619D01*
X150523809Y-54666666D01*
X150666666Y-54666666D01*
X150761904Y-54619047D01*
X150809523Y-54571428D01*
X150857142Y-54476190D01*
X150857142Y-54238095D01*
X150809523Y-54142857D01*
X150761904Y-54095238D01*
X150666666Y-54047619D01*
X150380952Y-54047619D01*
X150285714Y-54095238D01*
X150238095Y-54142857D01*
%TO.C,M1*%
X185190476Y-90047619D02*
X185190476Y-91047619D01*
X185523809Y-90333333D01*
X185857142Y-91047619D01*
X185857142Y-90047619D01*
X186857142Y-90047619D02*
X186285714Y-90047619D01*
X186571428Y-90047619D02*
X186571428Y-91047619D01*
X186476190Y-90904761D01*
X186380952Y-90809523D01*
X186285714Y-90761904D01*
%TO.C,M2*%
X113190476Y-90047619D02*
X113190476Y-91047619D01*
X113523809Y-90333333D01*
X113857142Y-91047619D01*
X113857142Y-90047619D01*
X114285714Y-90952380D02*
X114333333Y-91000000D01*
X114428571Y-91047619D01*
X114666666Y-91047619D01*
X114761904Y-91000000D01*
X114809523Y-90952380D01*
X114857142Y-90857142D01*
X114857142Y-90761904D01*
X114809523Y-90619047D01*
X114238095Y-90047619D01*
X114857142Y-90047619D01*
%TO.C,C11*%
X133178206Y-82955656D02*
X133178206Y-82888312D01*
X133110862Y-82753625D01*
X133043519Y-82686282D01*
X132908832Y-82618938D01*
X132774145Y-82618938D01*
X132673130Y-82652610D01*
X132504771Y-82753625D01*
X132403756Y-82854640D01*
X132302740Y-83022999D01*
X132269069Y-83124014D01*
X132269069Y-83258701D01*
X132336412Y-83393388D01*
X132403756Y-83460732D01*
X132538443Y-83528075D01*
X132605786Y-83528075D01*
X133918985Y-83561747D02*
X133514924Y-83157686D01*
X133716954Y-83359717D02*
X133009847Y-84066824D01*
X133043519Y-83898465D01*
X133043519Y-83763778D01*
X133009847Y-83662763D01*
X134592420Y-84235182D02*
X134188359Y-83831121D01*
X134390389Y-84033152D02*
X133683282Y-84740259D01*
X133716954Y-84571900D01*
X133716954Y-84437213D01*
X133683282Y-84336198D01*
%TO.C,C22*%
X124748338Y-106078127D02*
X124748338Y-106010783D01*
X124680994Y-105876096D01*
X124613651Y-105808753D01*
X124478964Y-105741409D01*
X124344277Y-105741409D01*
X124243262Y-105775081D01*
X124074903Y-105876096D01*
X123973888Y-105977111D01*
X123872872Y-106145470D01*
X123839201Y-106246485D01*
X123839201Y-106381172D01*
X123906544Y-106515859D01*
X123973888Y-106583203D01*
X124108575Y-106650546D01*
X124175918Y-106650546D01*
X124445292Y-106919921D02*
X124445292Y-106987264D01*
X124478964Y-107088279D01*
X124647323Y-107256638D01*
X124748338Y-107290310D01*
X124815681Y-107290310D01*
X124916697Y-107256638D01*
X124984040Y-107189295D01*
X125051384Y-107054608D01*
X125051384Y-106246485D01*
X125489117Y-106684218D01*
X125118727Y-107593356D02*
X125118727Y-107660699D01*
X125152399Y-107761714D01*
X125320758Y-107930073D01*
X125421773Y-107963745D01*
X125489117Y-107963745D01*
X125590132Y-107930073D01*
X125657475Y-107862730D01*
X125724819Y-107728043D01*
X125724819Y-106919921D01*
X126162552Y-107357653D01*
%TO.C,L8*%
X131535304Y-95028993D02*
X131198586Y-94692275D01*
X130491480Y-95399382D01*
X131467961Y-95769771D02*
X131366945Y-95736100D01*
X131299602Y-95736100D01*
X131198586Y-95769771D01*
X131164915Y-95803443D01*
X131131243Y-95904458D01*
X131131243Y-95971802D01*
X131164915Y-96072817D01*
X131299602Y-96207504D01*
X131400617Y-96241176D01*
X131467961Y-96241176D01*
X131568976Y-96207504D01*
X131602648Y-96173832D01*
X131636319Y-96072817D01*
X131636319Y-96005474D01*
X131602648Y-95904458D01*
X131467961Y-95769771D01*
X131434289Y-95668756D01*
X131434289Y-95601413D01*
X131467961Y-95500397D01*
X131602648Y-95365710D01*
X131703663Y-95332038D01*
X131771006Y-95332038D01*
X131872022Y-95365710D01*
X132006709Y-95500397D01*
X132040380Y-95601413D01*
X132040380Y-95668756D01*
X132006709Y-95769771D01*
X131872022Y-95904458D01*
X131771006Y-95938130D01*
X131703663Y-95938130D01*
X131602648Y-95904458D01*
%TO.C,L12*%
X136439438Y-95544023D02*
X136102721Y-95207306D01*
X135395614Y-95914412D01*
X137045530Y-96150115D02*
X136641469Y-95746054D01*
X136843500Y-95948084D02*
X136136393Y-96655191D01*
X136170064Y-96486832D01*
X136170064Y-96352145D01*
X136136393Y-96251130D01*
X136675141Y-97059252D02*
X136675141Y-97126596D01*
X136708813Y-97227611D01*
X136877171Y-97395970D01*
X136978187Y-97429641D01*
X137045530Y-97429641D01*
X137146545Y-97395970D01*
X137213889Y-97328626D01*
X137281232Y-97193939D01*
X137281232Y-96385817D01*
X137718965Y-96823550D01*
%TO.C,L31*%
X145100838Y-67756423D02*
X144764121Y-67419706D01*
X144057014Y-68126812D01*
X144562090Y-68631889D02*
X144999823Y-69069622D01*
X145033495Y-68564545D01*
X145134510Y-68665561D01*
X145235526Y-68699232D01*
X145302869Y-68699232D01*
X145403884Y-68665561D01*
X145572243Y-68497202D01*
X145605915Y-68396186D01*
X145605915Y-68328843D01*
X145572243Y-68227828D01*
X145370213Y-68025797D01*
X145269197Y-67992125D01*
X145201854Y-67992125D01*
X146380365Y-69035950D02*
X145976304Y-68631889D01*
X146178335Y-68833919D02*
X145471228Y-69541026D01*
X145504900Y-69372667D01*
X145504900Y-69237980D01*
X145471228Y-69136965D01*
%TO.C,L35*%
X154067038Y-58510823D02*
X153730321Y-58174106D01*
X153023214Y-58881212D01*
X153528290Y-59386289D02*
X153966023Y-59824022D01*
X153999695Y-59318945D01*
X154100710Y-59419961D01*
X154201726Y-59453632D01*
X154269069Y-59453632D01*
X154370084Y-59419961D01*
X154538443Y-59251602D01*
X154572115Y-59150586D01*
X154572115Y-59083243D01*
X154538443Y-58982228D01*
X154336413Y-58780197D01*
X154235397Y-58746525D01*
X154168054Y-58746525D01*
X154605787Y-60463785D02*
X154269069Y-60127067D01*
X154572115Y-59756678D01*
X154572115Y-59824022D01*
X154605787Y-59925037D01*
X154774145Y-60093396D01*
X154875161Y-60127067D01*
X154942504Y-60127067D01*
X155043519Y-60093396D01*
X155211878Y-59925037D01*
X155245550Y-59824022D01*
X155245550Y-59756678D01*
X155211878Y-59655663D01*
X155043519Y-59487304D01*
X154942504Y-59453632D01*
X154875161Y-59453632D01*
%TO.C,L59*%
X140907724Y-78098586D02*
X141244441Y-77761869D01*
X140537335Y-77054762D01*
X139628197Y-77963899D02*
X139964915Y-77627182D01*
X140335304Y-77930228D01*
X140267961Y-77930228D01*
X140166945Y-77963899D01*
X139998586Y-78132258D01*
X139964915Y-78233274D01*
X139964915Y-78300617D01*
X139998586Y-78401632D01*
X140166945Y-78569991D01*
X140267961Y-78603663D01*
X140335304Y-78603663D01*
X140436319Y-78569991D01*
X140604678Y-78401632D01*
X140638350Y-78300617D01*
X140638350Y-78233274D01*
X139964915Y-79041396D02*
X139830228Y-79176083D01*
X139729212Y-79209754D01*
X139661869Y-79209754D01*
X139493510Y-79176083D01*
X139325151Y-79075067D01*
X139055777Y-78805693D01*
X139022106Y-78704678D01*
X139022106Y-78637335D01*
X139055777Y-78536319D01*
X139190464Y-78401632D01*
X139291480Y-78367961D01*
X139358823Y-78367961D01*
X139459838Y-78401632D01*
X139628197Y-78569991D01*
X139661869Y-78671006D01*
X139661869Y-78738350D01*
X139628197Y-78839365D01*
X139493510Y-78974052D01*
X139392495Y-79007724D01*
X139325151Y-79007724D01*
X139224136Y-78974052D01*
%TO.C,L63*%
X149848724Y-87090586D02*
X150185441Y-86753869D01*
X149478335Y-86046762D01*
X148602869Y-86922228D02*
X148737556Y-86787541D01*
X148838571Y-86753869D01*
X148905915Y-86753869D01*
X149074274Y-86787541D01*
X149242632Y-86888556D01*
X149512006Y-87157930D01*
X149545678Y-87258945D01*
X149545678Y-87326289D01*
X149512006Y-87427304D01*
X149377319Y-87561991D01*
X149276304Y-87595663D01*
X149208961Y-87595663D01*
X149107945Y-87561991D01*
X148939586Y-87393632D01*
X148905915Y-87292617D01*
X148905915Y-87225274D01*
X148939586Y-87124258D01*
X149074274Y-86989571D01*
X149175289Y-86955899D01*
X149242632Y-86955899D01*
X149343648Y-86989571D01*
X148299823Y-87225274D02*
X147862090Y-87663006D01*
X148367167Y-87696678D01*
X148266151Y-87797693D01*
X148232480Y-87898709D01*
X148232480Y-87966052D01*
X148266151Y-88067067D01*
X148434510Y-88235426D01*
X148535525Y-88269098D01*
X148602869Y-88269098D01*
X148703884Y-88235426D01*
X148905915Y-88033396D01*
X148939586Y-87932380D01*
X148939586Y-87865037D01*
%TO.C,L32*%
X144663776Y-68113438D02*
X145000493Y-67776721D01*
X144293387Y-67069614D01*
X143788310Y-67574690D02*
X143350577Y-68012423D01*
X143855654Y-68046095D01*
X143754638Y-68147110D01*
X143720967Y-68248126D01*
X143720967Y-68315469D01*
X143754638Y-68416484D01*
X143922997Y-68584843D01*
X144024013Y-68618515D01*
X144091356Y-68618515D01*
X144192371Y-68584843D01*
X144394402Y-68382813D01*
X144428074Y-68281797D01*
X144428074Y-68214454D01*
X143148547Y-68349141D02*
X143081203Y-68349141D01*
X142980188Y-68382813D01*
X142811829Y-68551171D01*
X142778158Y-68652187D01*
X142778158Y-68719530D01*
X142811829Y-68820545D01*
X142879173Y-68887889D01*
X143013860Y-68955232D01*
X143821982Y-68955232D01*
X143384249Y-69392965D01*
%TO.C,L36*%
X149315324Y-58794986D02*
X149652041Y-58458269D01*
X148944935Y-57751162D01*
X148439858Y-58256238D02*
X148002125Y-58693971D01*
X148507202Y-58727643D01*
X148406186Y-58828658D01*
X148372515Y-58929674D01*
X148372515Y-58997017D01*
X148406186Y-59098032D01*
X148574545Y-59266391D01*
X148675561Y-59300063D01*
X148742904Y-59300063D01*
X148843919Y-59266391D01*
X149045950Y-59064361D01*
X149079622Y-58963345D01*
X149079622Y-58896002D01*
X147396034Y-59300063D02*
X147530721Y-59165376D01*
X147631736Y-59131704D01*
X147699080Y-59131704D01*
X147867438Y-59165376D01*
X148035797Y-59266391D01*
X148305171Y-59535765D01*
X148338843Y-59636780D01*
X148338843Y-59704124D01*
X148305171Y-59805139D01*
X148170484Y-59939826D01*
X148069469Y-59973498D01*
X148002125Y-59973498D01*
X147901110Y-59939826D01*
X147732751Y-59771467D01*
X147699080Y-59670452D01*
X147699080Y-59603109D01*
X147732751Y-59502093D01*
X147867438Y-59367406D01*
X147968454Y-59333735D01*
X148035797Y-59333735D01*
X148136812Y-59367406D01*
%TO.C,L60*%
X138982786Y-82815275D02*
X138646069Y-82478558D01*
X137938962Y-83185664D01*
X138814428Y-84061130D02*
X138679741Y-83926443D01*
X138646069Y-83825428D01*
X138646069Y-83758084D01*
X138679741Y-83589726D01*
X138780756Y-83421367D01*
X139050130Y-83151993D01*
X139151145Y-83118321D01*
X139218489Y-83118321D01*
X139319504Y-83151993D01*
X139454191Y-83286680D01*
X139487863Y-83387695D01*
X139487863Y-83455038D01*
X139454191Y-83556054D01*
X139285832Y-83724413D01*
X139184817Y-83758084D01*
X139117474Y-83758084D01*
X139016458Y-83724413D01*
X138881771Y-83589726D01*
X138848099Y-83488710D01*
X138848099Y-83421367D01*
X138881771Y-83320351D01*
X139319504Y-84566206D02*
X139386848Y-84633550D01*
X139487863Y-84667222D01*
X139555206Y-84667222D01*
X139656222Y-84633550D01*
X139824580Y-84532535D01*
X139992939Y-84364176D01*
X140093954Y-84195817D01*
X140127626Y-84094802D01*
X140127626Y-84027458D01*
X140093954Y-83926443D01*
X140026611Y-83859100D01*
X139925596Y-83825428D01*
X139858252Y-83825428D01*
X139757237Y-83859100D01*
X139588878Y-83960115D01*
X139420519Y-84128474D01*
X139319504Y-84296832D01*
X139285832Y-84397848D01*
X139285832Y-84465191D01*
X139319504Y-84566206D01*
%TO.C,L64*%
X148377438Y-87822423D02*
X148040721Y-87485706D01*
X147333614Y-88192812D01*
X148209080Y-89068278D02*
X148074393Y-88933591D01*
X148040721Y-88832576D01*
X148040721Y-88765232D01*
X148074393Y-88596874D01*
X148175408Y-88428515D01*
X148444782Y-88159141D01*
X148545797Y-88125469D01*
X148613141Y-88125469D01*
X148714156Y-88159141D01*
X148848843Y-88293828D01*
X148882515Y-88394843D01*
X148882515Y-88462186D01*
X148848843Y-88563202D01*
X148680484Y-88731561D01*
X148579469Y-88765232D01*
X148512126Y-88765232D01*
X148411110Y-88731561D01*
X148276423Y-88596874D01*
X148242751Y-88495858D01*
X148242751Y-88428515D01*
X148276423Y-88327499D01*
X149118217Y-89506011D02*
X149589622Y-89034606D01*
X148680484Y-89607026D02*
X149017202Y-88933591D01*
X149454935Y-89371324D01*
%TO.C,L39*%
X147288586Y-67829275D02*
X146951869Y-67492558D01*
X146244762Y-68199664D01*
X146749838Y-68704741D02*
X147187571Y-69142474D01*
X147221243Y-68637397D01*
X147322258Y-68738413D01*
X147423274Y-68772084D01*
X147490617Y-68772084D01*
X147591632Y-68738413D01*
X147759991Y-68570054D01*
X147793663Y-68469038D01*
X147793663Y-68401695D01*
X147759991Y-68300680D01*
X147557961Y-68098649D01*
X147456945Y-68064977D01*
X147389602Y-68064977D01*
X148231396Y-68772084D02*
X148366083Y-68906771D01*
X148399754Y-69007787D01*
X148399754Y-69075130D01*
X148366083Y-69243489D01*
X148265067Y-69411848D01*
X147995693Y-69681222D01*
X147894678Y-69714893D01*
X147827335Y-69714893D01*
X147726319Y-69681222D01*
X147591632Y-69546535D01*
X147557961Y-69445519D01*
X147557961Y-69378176D01*
X147591632Y-69277161D01*
X147759991Y-69108802D01*
X147861006Y-69075130D01*
X147928350Y-69075130D01*
X148029365Y-69108802D01*
X148164052Y-69243489D01*
X148197724Y-69344504D01*
X148197724Y-69411848D01*
X148164052Y-69512863D01*
%TO.C,L57*%
X148959724Y-76041586D02*
X149296441Y-75704869D01*
X148589335Y-74997762D01*
X147680197Y-75906899D02*
X148016915Y-75570182D01*
X148387304Y-75873228D01*
X148319961Y-75873228D01*
X148218945Y-75906899D01*
X148050586Y-76075258D01*
X148016915Y-76176274D01*
X148016915Y-76243617D01*
X148050586Y-76344632D01*
X148218945Y-76512991D01*
X148319961Y-76546663D01*
X148387304Y-76546663D01*
X148488319Y-76512991D01*
X148656678Y-76344632D01*
X148690350Y-76243617D01*
X148690350Y-76176274D01*
X147410823Y-76176274D02*
X146939419Y-76647678D01*
X147949571Y-77051739D01*
%TO.C,L17*%
X136383376Y-52670238D02*
X136720093Y-52333521D01*
X136012987Y-51626414D01*
X135777284Y-53276330D02*
X136181345Y-52872269D01*
X135979315Y-53074300D02*
X135272208Y-52367193D01*
X135440567Y-52400864D01*
X135575254Y-52400864D01*
X135676269Y-52367193D01*
X134834475Y-52804926D02*
X134363071Y-53276330D01*
X135373223Y-53680391D01*
%TO.C,L23*%
X140015576Y-56505638D02*
X140352293Y-56168921D01*
X139645187Y-55461814D01*
X139173782Y-56067906D02*
X139106438Y-56067906D01*
X139005423Y-56101577D01*
X138837064Y-56269936D01*
X138803393Y-56370951D01*
X138803393Y-56438295D01*
X138837064Y-56539310D01*
X138904408Y-56606654D01*
X139039095Y-56673997D01*
X139847217Y-56673997D01*
X139409484Y-57111730D01*
X138466675Y-56640326D02*
X138028942Y-57078058D01*
X138534019Y-57111730D01*
X138433003Y-57212745D01*
X138399332Y-57313761D01*
X138399332Y-57381104D01*
X138433003Y-57482119D01*
X138601362Y-57650478D01*
X138702377Y-57684150D01*
X138769721Y-57684150D01*
X138870736Y-57650478D01*
X139072767Y-57448448D01*
X139106438Y-57347432D01*
X139106438Y-57280089D01*
%TO.C,L42*%
X155153976Y-68900838D02*
X155490693Y-68564121D01*
X154783587Y-67857014D01*
X154143823Y-68968182D02*
X154615228Y-69439587D01*
X154042808Y-68530449D02*
X154716243Y-68867167D01*
X154278510Y-69304900D01*
X153638747Y-69136541D02*
X153571403Y-69136541D01*
X153470388Y-69170213D01*
X153302029Y-69338571D01*
X153268358Y-69439587D01*
X153268358Y-69506930D01*
X153302029Y-69607945D01*
X153369373Y-69675289D01*
X153504060Y-69742632D01*
X154312182Y-69742632D01*
X153874449Y-70180365D01*
%TO.C,L48*%
X160341176Y-72132038D02*
X160677893Y-71795321D01*
X159970787Y-71088214D01*
X159331023Y-72199382D02*
X159802428Y-72670787D01*
X159230008Y-71761649D02*
X159903443Y-72098367D01*
X159465710Y-72536100D01*
X158926962Y-72738130D02*
X158960634Y-72637115D01*
X158960634Y-72569771D01*
X158926962Y-72468756D01*
X158893290Y-72435084D01*
X158792275Y-72401413D01*
X158724932Y-72401413D01*
X158623916Y-72435084D01*
X158489229Y-72569771D01*
X158455558Y-72670787D01*
X158455558Y-72738130D01*
X158489229Y-72839145D01*
X158522901Y-72872817D01*
X158623916Y-72906489D01*
X158691260Y-72906489D01*
X158792275Y-72872817D01*
X158926962Y-72738130D01*
X159027977Y-72704458D01*
X159095321Y-72704458D01*
X159196336Y-72738130D01*
X159331023Y-72872817D01*
X159364695Y-72973832D01*
X159364695Y-73041176D01*
X159331023Y-73142191D01*
X159196336Y-73276878D01*
X159095321Y-73310550D01*
X159027977Y-73310550D01*
X158926962Y-73276878D01*
X158792275Y-73142191D01*
X158758603Y-73041176D01*
X158758603Y-72973832D01*
X158792275Y-72872817D01*
%TO.C,L54*%
X151555786Y-77532075D02*
X151219069Y-77195358D01*
X150511962Y-77902464D01*
X151421099Y-78811602D02*
X151084382Y-78474884D01*
X151387428Y-78104495D01*
X151387428Y-78171838D01*
X151421099Y-78272854D01*
X151589458Y-78441213D01*
X151690474Y-78474884D01*
X151757817Y-78474884D01*
X151858832Y-78441213D01*
X152027191Y-78272854D01*
X152060863Y-78171838D01*
X152060863Y-78104495D01*
X152027191Y-78003480D01*
X151858832Y-77835121D01*
X151757817Y-77801449D01*
X151690474Y-77801449D01*
X152296565Y-79215663D02*
X152767970Y-78744258D01*
X151858832Y-79316678D02*
X152195550Y-78643243D01*
X152633283Y-79080976D01*
%TO.C,L40*%
X153432038Y-62158823D02*
X153095321Y-61822106D01*
X152388214Y-62529212D01*
X153499382Y-63168976D02*
X153970787Y-62697571D01*
X153061649Y-63269991D02*
X153398367Y-62596556D01*
X153836100Y-63034289D01*
X153768756Y-63909754D02*
X153836100Y-63977098D01*
X153937115Y-64010770D01*
X154004458Y-64010770D01*
X154105474Y-63977098D01*
X154273832Y-63876083D01*
X154442191Y-63707724D01*
X154543206Y-63539365D01*
X154576878Y-63438350D01*
X154576878Y-63371006D01*
X154543206Y-63269991D01*
X154475863Y-63202648D01*
X154374848Y-63168976D01*
X154307504Y-63168976D01*
X154206489Y-63202648D01*
X154038130Y-63303663D01*
X153869771Y-63472022D01*
X153768756Y-63640380D01*
X153735084Y-63741396D01*
X153735084Y-63808739D01*
X153768756Y-63909754D01*
%TO.C,L58*%
X155763576Y-81016638D02*
X156100293Y-80679921D01*
X155393187Y-79972814D01*
X154484049Y-80881951D02*
X154820767Y-80545234D01*
X155191156Y-80848280D01*
X155123813Y-80848280D01*
X155022797Y-80881951D01*
X154854438Y-81050310D01*
X154820767Y-81151326D01*
X154820767Y-81218669D01*
X154854438Y-81319684D01*
X155022797Y-81488043D01*
X155123813Y-81521715D01*
X155191156Y-81521715D01*
X155292171Y-81488043D01*
X155460530Y-81319684D01*
X155494202Y-81218669D01*
X155494202Y-81151326D01*
X154349362Y-81622730D02*
X154383034Y-81521715D01*
X154383034Y-81454371D01*
X154349362Y-81353356D01*
X154315690Y-81319684D01*
X154214675Y-81286013D01*
X154147332Y-81286013D01*
X154046316Y-81319684D01*
X153911629Y-81454371D01*
X153877958Y-81555387D01*
X153877958Y-81622730D01*
X153911629Y-81723745D01*
X153945301Y-81757417D01*
X154046316Y-81791089D01*
X154113660Y-81791089D01*
X154214675Y-81757417D01*
X154349362Y-81622730D01*
X154450377Y-81589058D01*
X154517721Y-81589058D01*
X154618736Y-81622730D01*
X154753423Y-81757417D01*
X154787095Y-81858432D01*
X154787095Y-81925776D01*
X154753423Y-82026791D01*
X154618736Y-82161478D01*
X154517721Y-82195150D01*
X154450377Y-82195150D01*
X154349362Y-82161478D01*
X154214675Y-82026791D01*
X154181003Y-81925776D01*
X154181003Y-81858432D01*
X154214675Y-81757417D01*
%TO.C,L33*%
X181646176Y-92141838D02*
X181982893Y-91805121D01*
X181275787Y-91098014D01*
X180770710Y-91603090D02*
X180332977Y-92040823D01*
X180838054Y-92074495D01*
X180737038Y-92175510D01*
X180703367Y-92276526D01*
X180703367Y-92343869D01*
X180737038Y-92444884D01*
X180905397Y-92613243D01*
X181006413Y-92646915D01*
X181073756Y-92646915D01*
X181174771Y-92613243D01*
X181376802Y-92411213D01*
X181410474Y-92310197D01*
X181410474Y-92242854D01*
X180097275Y-92276526D02*
X179659542Y-92714258D01*
X180164619Y-92747930D01*
X180063603Y-92848945D01*
X180029932Y-92949961D01*
X180029932Y-93017304D01*
X180063603Y-93118319D01*
X180231962Y-93286678D01*
X180332977Y-93320350D01*
X180400321Y-93320350D01*
X180501336Y-93286678D01*
X180703367Y-93084648D01*
X180737038Y-92983632D01*
X180737038Y-92916289D01*
%TO.C,L61*%
X156298586Y-99892275D02*
X155961869Y-99555558D01*
X155254762Y-100262664D01*
X156130228Y-101138130D02*
X155995541Y-101003443D01*
X155961869Y-100902428D01*
X155961869Y-100835084D01*
X155995541Y-100666726D01*
X156096556Y-100498367D01*
X156365930Y-100228993D01*
X156466945Y-100195321D01*
X156534289Y-100195321D01*
X156635304Y-100228993D01*
X156769991Y-100363680D01*
X156803663Y-100464695D01*
X156803663Y-100532038D01*
X156769991Y-100633054D01*
X156601632Y-100801413D01*
X156500617Y-100835084D01*
X156433274Y-100835084D01*
X156332258Y-100801413D01*
X156197571Y-100666726D01*
X156163899Y-100565710D01*
X156163899Y-100498367D01*
X156197571Y-100397351D01*
X157578113Y-101171802D02*
X157174052Y-100767741D01*
X157376083Y-100969771D02*
X156668976Y-101676878D01*
X156702648Y-101508519D01*
X156702648Y-101373832D01*
X156668976Y-101272817D01*
D11*
%TO.C,L65*%
X149692250Y-93380439D02*
X149422876Y-93111065D01*
X148857190Y-93676751D01*
X149557563Y-94377123D02*
X149449813Y-94269374D01*
X149422876Y-94188561D01*
X149422876Y-94134687D01*
X149449813Y-94000000D01*
X149530625Y-93865312D01*
X149746125Y-93649813D01*
X149826937Y-93622876D01*
X149880812Y-93622876D01*
X149961624Y-93649813D01*
X150069374Y-93757563D01*
X150096311Y-93838375D01*
X150096311Y-93892250D01*
X150069374Y-93973062D01*
X149934687Y-94107749D01*
X149853874Y-94134687D01*
X149800000Y-94134687D01*
X149719187Y-94107749D01*
X149611438Y-94000000D01*
X149584500Y-93919187D01*
X149584500Y-93865312D01*
X149611438Y-93784500D01*
X150123248Y-94942809D02*
X149853874Y-94673435D01*
X150096311Y-94377123D01*
X150096311Y-94430998D01*
X150123248Y-94511810D01*
X150257935Y-94646497D01*
X150338748Y-94673435D01*
X150392622Y-94673435D01*
X150473435Y-94646497D01*
X150608122Y-94511810D01*
X150635059Y-94430998D01*
X150635059Y-94377123D01*
X150608122Y-94296311D01*
X150473435Y-94161624D01*
X150392622Y-94134687D01*
X150338748Y-94134687D01*
D10*
%TO.C,L34*%
X180874737Y-85343922D02*
X180538020Y-85007205D01*
X179830913Y-85714311D01*
X180335989Y-86219388D02*
X180773722Y-86657121D01*
X180807394Y-86152044D01*
X180908409Y-86253060D01*
X181009425Y-86286731D01*
X181076768Y-86286731D01*
X181177783Y-86253060D01*
X181346142Y-86084701D01*
X181379814Y-85983685D01*
X181379814Y-85916342D01*
X181346142Y-85815327D01*
X181144112Y-85613296D01*
X181043096Y-85579624D01*
X180975753Y-85579624D01*
X181615516Y-87027510D02*
X182086921Y-86556105D01*
X181177783Y-87128525D02*
X181514501Y-86455090D01*
X181952234Y-86892823D01*
%TO.C,L62*%
X162541176Y-99732038D02*
X162877893Y-99395321D01*
X162170787Y-98688214D01*
X161295321Y-99563680D02*
X161430008Y-99428993D01*
X161531023Y-99395321D01*
X161598367Y-99395321D01*
X161766726Y-99428993D01*
X161935084Y-99530008D01*
X162204458Y-99799382D01*
X162238130Y-99900397D01*
X162238130Y-99967741D01*
X162204458Y-100068756D01*
X162069771Y-100203443D01*
X161968756Y-100237115D01*
X161901413Y-100237115D01*
X161800397Y-100203443D01*
X161632038Y-100035084D01*
X161598367Y-99934069D01*
X161598367Y-99866726D01*
X161632038Y-99765710D01*
X161766726Y-99631023D01*
X161867741Y-99597351D01*
X161935084Y-99597351D01*
X162036100Y-99631023D01*
X161025947Y-99967741D02*
X160958603Y-99967741D01*
X160857588Y-100001413D01*
X160689229Y-100169771D01*
X160655558Y-100270787D01*
X160655558Y-100338130D01*
X160689229Y-100439145D01*
X160756573Y-100506489D01*
X160891260Y-100573832D01*
X161699382Y-100573832D01*
X161261649Y-101011565D01*
%TO.C,L66*%
X153579176Y-90821038D02*
X153915893Y-90484321D01*
X153208787Y-89777214D01*
X152333321Y-90652680D02*
X152468008Y-90517993D01*
X152569023Y-90484321D01*
X152636367Y-90484321D01*
X152804726Y-90517993D01*
X152973084Y-90619008D01*
X153242458Y-90888382D01*
X153276130Y-90989397D01*
X153276130Y-91056741D01*
X153242458Y-91157756D01*
X153107771Y-91292443D01*
X153006756Y-91326115D01*
X152939413Y-91326115D01*
X152838397Y-91292443D01*
X152670038Y-91124084D01*
X152636367Y-91023069D01*
X152636367Y-90955726D01*
X152670038Y-90854710D01*
X152804726Y-90720023D01*
X152905741Y-90686351D01*
X152973084Y-90686351D01*
X153074100Y-90720023D01*
X151659886Y-91326115D02*
X151794573Y-91191428D01*
X151895588Y-91157756D01*
X151962932Y-91157756D01*
X152131290Y-91191428D01*
X152299649Y-91292443D01*
X152569023Y-91561817D01*
X152602695Y-91662832D01*
X152602695Y-91730176D01*
X152569023Y-91831191D01*
X152434336Y-91965878D01*
X152333321Y-91999550D01*
X152265977Y-91999550D01*
X152164962Y-91965878D01*
X151996603Y-91797519D01*
X151962932Y-91696504D01*
X151962932Y-91629161D01*
X151996603Y-91528145D01*
X152131290Y-91393458D01*
X152232306Y-91359787D01*
X152299649Y-91359787D01*
X152400664Y-91393458D01*
%TO.C,L29*%
X172353124Y-96945786D02*
X172689841Y-96609069D01*
X171982735Y-95901962D01*
X171511330Y-96508054D02*
X171443986Y-96508054D01*
X171342971Y-96541725D01*
X171174612Y-96710084D01*
X171140941Y-96811099D01*
X171140941Y-96878443D01*
X171174612Y-96979458D01*
X171241956Y-97046802D01*
X171376643Y-97114145D01*
X172184765Y-97114145D01*
X171747032Y-97551878D01*
X171410315Y-97888596D02*
X171275628Y-98023283D01*
X171174612Y-98056954D01*
X171107269Y-98056954D01*
X170938910Y-98023283D01*
X170770551Y-97922267D01*
X170501177Y-97652893D01*
X170467506Y-97551878D01*
X170467506Y-97484535D01*
X170501177Y-97383519D01*
X170635864Y-97248832D01*
X170736880Y-97215161D01*
X170804223Y-97215161D01*
X170905238Y-97248832D01*
X171073597Y-97417191D01*
X171107269Y-97518206D01*
X171107269Y-97585550D01*
X171073597Y-97686565D01*
X170938910Y-97821252D01*
X170837895Y-97854924D01*
X170770551Y-97854924D01*
X170669536Y-97821252D01*
%TO.C,L30*%
X171019537Y-94894322D02*
X170682820Y-94557605D01*
X169975713Y-95264711D01*
X170480789Y-95769788D02*
X170918522Y-96207521D01*
X170952194Y-95702444D01*
X171053209Y-95803460D01*
X171154225Y-95837131D01*
X171221568Y-95837131D01*
X171322583Y-95803460D01*
X171490942Y-95635101D01*
X171524614Y-95534085D01*
X171524614Y-95466742D01*
X171490942Y-95365727D01*
X171288912Y-95163696D01*
X171187896Y-95130024D01*
X171120553Y-95130024D01*
X171356255Y-96645253D02*
X171423599Y-96712597D01*
X171524614Y-96746269D01*
X171591957Y-96746269D01*
X171692973Y-96712597D01*
X171861331Y-96611582D01*
X172029690Y-96443223D01*
X172130705Y-96274864D01*
X172164377Y-96173849D01*
X172164377Y-96106505D01*
X172130705Y-96005490D01*
X172063362Y-95938147D01*
X171962347Y-95904475D01*
X171895003Y-95904475D01*
X171793988Y-95938147D01*
X171625629Y-96039162D01*
X171457270Y-96207521D01*
X171356255Y-96375879D01*
X171322583Y-96476895D01*
X171322583Y-96544238D01*
X171356255Y-96645253D01*
%TO.C,L7*%
X131004458Y-97168756D02*
X131341176Y-96832038D01*
X130634069Y-96124932D01*
X130128993Y-96630008D02*
X129657588Y-97101413D01*
X130667741Y-97505474D01*
%TO.C,L9*%
X141554704Y-105427793D02*
X141217986Y-105091075D01*
X140510880Y-105798182D01*
X141824078Y-105697167D02*
X141958765Y-105831854D01*
X141992437Y-105932869D01*
X141992437Y-106000213D01*
X141958765Y-106168571D01*
X141857750Y-106336930D01*
X141588376Y-106606304D01*
X141487361Y-106639976D01*
X141420017Y-106639976D01*
X141319002Y-106606304D01*
X141184315Y-106471617D01*
X141150643Y-106370602D01*
X141150643Y-106303258D01*
X141184315Y-106202243D01*
X141352674Y-106033884D01*
X141453689Y-106000213D01*
X141521032Y-106000213D01*
X141622048Y-106033884D01*
X141756735Y-106168571D01*
X141790406Y-106269587D01*
X141790406Y-106336930D01*
X141756735Y-106437945D01*
%TO.C,C27*%
X157146132Y-111692730D02*
X157146132Y-111625386D01*
X157078788Y-111490699D01*
X157011445Y-111423356D01*
X156876758Y-111356012D01*
X156742071Y-111356012D01*
X156641056Y-111389684D01*
X156472697Y-111490699D01*
X156371682Y-111591714D01*
X156270666Y-111760073D01*
X156236995Y-111861088D01*
X156236995Y-111995775D01*
X156304338Y-112130462D01*
X156371682Y-112197806D01*
X156506369Y-112265149D01*
X156573712Y-112265149D01*
X156843086Y-112534524D02*
X156843086Y-112601867D01*
X156876758Y-112702882D01*
X157045117Y-112871241D01*
X157146132Y-112904913D01*
X157213475Y-112904913D01*
X157314491Y-112871241D01*
X157381834Y-112803898D01*
X157449178Y-112669211D01*
X157449178Y-111861088D01*
X157886911Y-112298821D01*
X157415506Y-113241630D02*
X157886911Y-113713035D01*
X158290972Y-112702882D01*
%TO.C,R18*%
X138193287Y-103502149D02*
X138092272Y-102929730D01*
X138597348Y-103098088D02*
X137890241Y-102390982D01*
X137620867Y-102660356D01*
X137587195Y-102761371D01*
X137587195Y-102828714D01*
X137620867Y-102929730D01*
X137721882Y-103030745D01*
X137822898Y-103064417D01*
X137890241Y-103064417D01*
X137991256Y-103030745D01*
X138260630Y-102761371D01*
X137519852Y-104175585D02*
X137923913Y-103771524D01*
X137721882Y-103973554D02*
X137014775Y-103266447D01*
X137183134Y-103300119D01*
X137317821Y-103300119D01*
X137418837Y-103266447D01*
X136711730Y-104175585D02*
X136745401Y-104074569D01*
X136745401Y-104007226D01*
X136711730Y-103906211D01*
X136678058Y-103872539D01*
X136577043Y-103838867D01*
X136509699Y-103838867D01*
X136408684Y-103872539D01*
X136273997Y-104007226D01*
X136240325Y-104108241D01*
X136240325Y-104175585D01*
X136273997Y-104276600D01*
X136307669Y-104310272D01*
X136408684Y-104343943D01*
X136476027Y-104343943D01*
X136577043Y-104310272D01*
X136711730Y-104175585D01*
X136812745Y-104141913D01*
X136880088Y-104141913D01*
X136981104Y-104175585D01*
X137115791Y-104310272D01*
X137149462Y-104411287D01*
X137149462Y-104478630D01*
X137115791Y-104579646D01*
X136981104Y-104714333D01*
X136880088Y-104748004D01*
X136812745Y-104748004D01*
X136711730Y-104714333D01*
X136577043Y-104579646D01*
X136543371Y-104478630D01*
X136543371Y-104411287D01*
X136577043Y-104310272D01*
%TO.C,C42*%
X174605606Y-91896456D02*
X174605606Y-91829112D01*
X174538262Y-91694425D01*
X174470919Y-91627082D01*
X174336232Y-91559738D01*
X174201545Y-91559738D01*
X174100530Y-91593410D01*
X173932171Y-91694425D01*
X173831156Y-91795440D01*
X173730140Y-91963799D01*
X173696469Y-92064814D01*
X173696469Y-92199501D01*
X173763812Y-92334188D01*
X173831156Y-92401532D01*
X173965843Y-92468875D01*
X174033186Y-92468875D01*
X174807637Y-92906608D02*
X175279041Y-92435204D01*
X174369904Y-93007624D02*
X174706621Y-92334188D01*
X175144354Y-92771921D01*
X174975995Y-93411685D02*
X174975995Y-93479028D01*
X175009667Y-93580043D01*
X175178026Y-93748402D01*
X175279041Y-93782074D01*
X175346385Y-93782074D01*
X175447400Y-93748402D01*
X175514743Y-93681059D01*
X175582087Y-93546372D01*
X175582087Y-92738250D01*
X176019820Y-93175982D01*
%TO.C,L51*%
X155307724Y-72398586D02*
X155644441Y-72061869D01*
X154937335Y-71354762D01*
X154028197Y-72263899D02*
X154364915Y-71927182D01*
X154735304Y-72230228D01*
X154667961Y-72230228D01*
X154566945Y-72263899D01*
X154398586Y-72432258D01*
X154364915Y-72533274D01*
X154364915Y-72600617D01*
X154398586Y-72701632D01*
X154566945Y-72869991D01*
X154667961Y-72903663D01*
X154735304Y-72903663D01*
X154836319Y-72869991D01*
X155004678Y-72701632D01*
X155038350Y-72600617D01*
X155038350Y-72533274D01*
X154028197Y-73678113D02*
X154432258Y-73274052D01*
X154230228Y-73476083D02*
X153523121Y-72768976D01*
X153691480Y-72802648D01*
X153826167Y-72802648D01*
X153927182Y-72768976D01*
%TO.C,L14*%
X134606757Y-46681380D02*
X135082947Y-46681380D01*
X135082947Y-45681380D01*
X133749614Y-46681380D02*
X134321042Y-46681380D01*
X134035328Y-46681380D02*
X134035328Y-45681380D01*
X134130566Y-45824238D01*
X134225804Y-45919476D01*
X134321042Y-45967095D01*
X132892471Y-46014714D02*
X132892471Y-46681380D01*
X133130566Y-45633761D02*
X133368661Y-46348047D01*
X132749614Y-46348047D01*
%TO.C,C89*%
X172727030Y-114272832D02*
X172727030Y-114205488D01*
X172659686Y-114070801D01*
X172592343Y-114003458D01*
X172457656Y-113936114D01*
X172322969Y-113936114D01*
X172221954Y-113969786D01*
X172053595Y-114070801D01*
X171952580Y-114171816D01*
X171851564Y-114340175D01*
X171817893Y-114441190D01*
X171817893Y-114575877D01*
X171885236Y-114710564D01*
X171952580Y-114777908D01*
X172087267Y-114845251D01*
X172154610Y-114845251D01*
X172794373Y-115013610D02*
X172693358Y-114979939D01*
X172626015Y-114979939D01*
X172524999Y-115013610D01*
X172491328Y-115047282D01*
X172457656Y-115148297D01*
X172457656Y-115215641D01*
X172491328Y-115316656D01*
X172626015Y-115451343D01*
X172727030Y-115485015D01*
X172794373Y-115485015D01*
X172895389Y-115451343D01*
X172929061Y-115417671D01*
X172962732Y-115316656D01*
X172962732Y-115249313D01*
X172929061Y-115148297D01*
X172794373Y-115013610D01*
X172760702Y-114912595D01*
X172760702Y-114845251D01*
X172794373Y-114744236D01*
X172929061Y-114609549D01*
X173030076Y-114575877D01*
X173097419Y-114575877D01*
X173198435Y-114609549D01*
X173333122Y-114744236D01*
X173366793Y-114845251D01*
X173366793Y-114912595D01*
X173333122Y-115013610D01*
X173198435Y-115148297D01*
X173097419Y-115181969D01*
X173030076Y-115181969D01*
X172929061Y-115148297D01*
X173804526Y-115215641D02*
X173939213Y-115350328D01*
X173972885Y-115451343D01*
X173972885Y-115518687D01*
X173939213Y-115687045D01*
X173838198Y-115855404D01*
X173568824Y-116124778D01*
X173467809Y-116158450D01*
X173400465Y-116158450D01*
X173299450Y-116124778D01*
X173164763Y-115990091D01*
X173131091Y-115889076D01*
X173131091Y-115821732D01*
X173164763Y-115720717D01*
X173333122Y-115552358D01*
X173434137Y-115518687D01*
X173501480Y-115518687D01*
X173602496Y-115552358D01*
X173737183Y-115687045D01*
X173770854Y-115788061D01*
X173770854Y-115855404D01*
X173737183Y-115956419D01*
%TO.C,L6*%
X145952658Y-111833356D02*
X146289376Y-111496638D01*
X145582269Y-110789532D01*
X144706803Y-111664997D02*
X144841490Y-111530310D01*
X144942506Y-111496638D01*
X145009849Y-111496638D01*
X145178208Y-111530310D01*
X145346567Y-111631326D01*
X145615941Y-111900700D01*
X145649613Y-112001715D01*
X145649613Y-112069058D01*
X145615941Y-112170074D01*
X145481254Y-112304761D01*
X145380238Y-112338432D01*
X145312895Y-112338432D01*
X145211880Y-112304761D01*
X145043521Y-112136402D01*
X145009849Y-112035387D01*
X145009849Y-111968043D01*
X145043521Y-111867028D01*
X145178208Y-111732341D01*
X145279223Y-111698669D01*
X145346567Y-111698669D01*
X145447582Y-111732341D01*
%TO.C,L41*%
X171006924Y-85439586D02*
X171343641Y-85102869D01*
X170636535Y-84395762D01*
X169996771Y-85506930D02*
X170468176Y-85978335D01*
X169895756Y-85069197D02*
X170569191Y-85405915D01*
X170131458Y-85843648D01*
X169727397Y-86719113D02*
X170131458Y-86315052D01*
X169929428Y-86517083D02*
X169222321Y-85809976D01*
X169390680Y-85843648D01*
X169525367Y-85843648D01*
X169626382Y-85809976D01*
%TO.C,L49*%
X164529924Y-80537386D02*
X164866641Y-80200669D01*
X164159535Y-79493562D01*
X163519771Y-80604730D02*
X163991176Y-81076135D01*
X163418756Y-80166997D02*
X164092191Y-80503715D01*
X163654458Y-80941448D01*
X163587115Y-81480196D02*
X163452428Y-81614883D01*
X163351412Y-81648554D01*
X163284069Y-81648554D01*
X163115710Y-81614883D01*
X162947351Y-81513867D01*
X162677977Y-81244493D01*
X162644306Y-81143478D01*
X162644306Y-81076135D01*
X162677977Y-80975119D01*
X162812664Y-80840432D01*
X162913680Y-80806761D01*
X162981023Y-80806761D01*
X163082038Y-80840432D01*
X163250397Y-81008791D01*
X163284069Y-81109806D01*
X163284069Y-81177150D01*
X163250397Y-81278165D01*
X163115710Y-81412852D01*
X163014695Y-81446524D01*
X162947351Y-81446524D01*
X162846336Y-81412852D01*
%TO.C,L20*%
X136518986Y-51392275D02*
X136182269Y-51055558D01*
X135475162Y-51762664D01*
X136081254Y-52234069D02*
X136081254Y-52301413D01*
X136114925Y-52402428D01*
X136283284Y-52570787D01*
X136384299Y-52604458D01*
X136451643Y-52604458D01*
X136552658Y-52570787D01*
X136620002Y-52503443D01*
X136687345Y-52368756D01*
X136687345Y-51560634D01*
X137125078Y-51998367D01*
X136855704Y-53143206D02*
X136923048Y-53210550D01*
X137024063Y-53244222D01*
X137091406Y-53244222D01*
X137192422Y-53210550D01*
X137360780Y-53109535D01*
X137529139Y-52941176D01*
X137630154Y-52772817D01*
X137663826Y-52671802D01*
X137663826Y-52604458D01*
X137630154Y-52503443D01*
X137562811Y-52436100D01*
X137461796Y-52402428D01*
X137394452Y-52402428D01*
X137293437Y-52436100D01*
X137125078Y-52537115D01*
X136956719Y-52705474D01*
X136855704Y-52873832D01*
X136822032Y-52974848D01*
X136822032Y-53042191D01*
X136855704Y-53143206D01*
%TO.C,C84*%
X113672857Y-69347142D02*
X113720476Y-69394761D01*
X113863333Y-69442380D01*
X113958571Y-69442380D01*
X114101428Y-69394761D01*
X114196666Y-69299523D01*
X114244285Y-69204285D01*
X114291904Y-69013809D01*
X114291904Y-68870952D01*
X114244285Y-68680476D01*
X114196666Y-68585238D01*
X114101428Y-68490000D01*
X113958571Y-68442380D01*
X113863333Y-68442380D01*
X113720476Y-68490000D01*
X113672857Y-68537619D01*
X113101428Y-68870952D02*
X113196666Y-68823333D01*
X113244285Y-68775714D01*
X113291904Y-68680476D01*
X113291904Y-68632857D01*
X113244285Y-68537619D01*
X113196666Y-68490000D01*
X113101428Y-68442380D01*
X112910952Y-68442380D01*
X112815714Y-68490000D01*
X112768095Y-68537619D01*
X112720476Y-68632857D01*
X112720476Y-68680476D01*
X112768095Y-68775714D01*
X112815714Y-68823333D01*
X112910952Y-68870952D01*
X113101428Y-68870952D01*
X113196666Y-68918571D01*
X113244285Y-68966190D01*
X113291904Y-69061428D01*
X113291904Y-69251904D01*
X113244285Y-69347142D01*
X113196666Y-69394761D01*
X113101428Y-69442380D01*
X112910952Y-69442380D01*
X112815714Y-69394761D01*
X112768095Y-69347142D01*
X112720476Y-69251904D01*
X112720476Y-69061428D01*
X112768095Y-68966190D01*
X112815714Y-68918571D01*
X112910952Y-68870952D01*
X111863333Y-68775714D02*
X111863333Y-69442380D01*
X112101428Y-68394761D02*
X112339523Y-69109047D01*
X111720476Y-69109047D01*
%TO.C,D1*%
X145992560Y-120564736D02*
X145285454Y-119857629D01*
X145117095Y-120025988D01*
X145049751Y-120160675D01*
X145049751Y-120295362D01*
X145083423Y-120396377D01*
X145184438Y-120564736D01*
X145285454Y-120665751D01*
X145453812Y-120766767D01*
X145554828Y-120800438D01*
X145689515Y-120800438D01*
X145824202Y-120733095D01*
X145992560Y-120564736D01*
X144915064Y-121642232D02*
X145319125Y-121238171D01*
X145117095Y-121440202D02*
X144409988Y-120733095D01*
X144578347Y-120766767D01*
X144713034Y-120766767D01*
X144814049Y-120733095D01*
D12*
%TO.C,L67*%
X117422137Y-62878537D02*
X116908979Y-62365380D01*
X115831348Y-63443011D01*
X117165558Y-64777220D02*
X116960295Y-64571957D01*
X116908979Y-64418010D01*
X116908979Y-64315378D01*
X116960295Y-64058800D01*
X117114242Y-63802221D01*
X117524768Y-63391695D01*
X117678715Y-63340379D01*
X117781347Y-63340379D01*
X117935294Y-63391695D01*
X118140557Y-63596958D01*
X118191873Y-63750905D01*
X118191873Y-63853537D01*
X118140557Y-64007484D01*
X117883978Y-64264062D01*
X117730031Y-64315378D01*
X117627400Y-64315378D01*
X117473452Y-64264062D01*
X117268189Y-64058800D01*
X117216874Y-63904852D01*
X117216874Y-63802221D01*
X117268189Y-63648274D01*
X117627400Y-65239062D02*
X118345820Y-65957482D01*
X118961609Y-64418010D01*
D10*
%TO.C,R41*%
X121749813Y-70472475D02*
X121648798Y-69900056D01*
X122153874Y-70068414D02*
X121446767Y-69361308D01*
X121177393Y-69630682D01*
X121143721Y-69731697D01*
X121143721Y-69799040D01*
X121177393Y-69900056D01*
X121278408Y-70001071D01*
X121379424Y-70034743D01*
X121446767Y-70034743D01*
X121547782Y-70001071D01*
X121817156Y-69731697D01*
X120672317Y-70607163D02*
X121143721Y-71078567D01*
X120571301Y-70169430D02*
X121244737Y-70506147D01*
X120807004Y-70943880D01*
X120402943Y-71819346D02*
X120807004Y-71415285D01*
X120604973Y-71617315D02*
X119897866Y-70910208D01*
X120066225Y-70943880D01*
X120200912Y-70943880D01*
X120301927Y-70910208D01*
%TO.C,L15*%
X191207380Y-103116142D02*
X191207380Y-102639952D01*
X190207380Y-102639952D01*
X191207380Y-103973285D02*
X191207380Y-103401857D01*
X191207380Y-103687571D02*
X190207380Y-103687571D01*
X190350238Y-103592333D01*
X190445476Y-103497095D01*
X190493095Y-103401857D01*
X190207380Y-104878047D02*
X190207380Y-104401857D01*
X190683571Y-104354238D01*
X190635952Y-104401857D01*
X190588333Y-104497095D01*
X190588333Y-104735190D01*
X190635952Y-104830428D01*
X190683571Y-104878047D01*
X190778809Y-104925666D01*
X191016904Y-104925666D01*
X191112142Y-104878047D01*
X191159761Y-104830428D01*
X191207380Y-104735190D01*
X191207380Y-104497095D01*
X191159761Y-104401857D01*
X191112142Y-104354238D01*
%TO.C,L44*%
X167354586Y-88149275D02*
X167017869Y-87812558D01*
X166310762Y-88519664D01*
X167421930Y-89159428D02*
X167893335Y-88688023D01*
X166984197Y-89260443D02*
X167320915Y-88587008D01*
X167758648Y-89024741D01*
X168095365Y-89832863D02*
X168566770Y-89361458D01*
X167657632Y-89933878D02*
X167994350Y-89260443D01*
X168432083Y-89698176D01*
%TO.C,R17*%
X127963287Y-93154149D02*
X127862272Y-92581730D01*
X128367348Y-92750088D02*
X127660241Y-92042982D01*
X127390867Y-92312356D01*
X127357195Y-92413371D01*
X127357195Y-92480714D01*
X127390867Y-92581730D01*
X127491882Y-92682745D01*
X127592898Y-92716417D01*
X127660241Y-92716417D01*
X127761256Y-92682745D01*
X128030630Y-92413371D01*
X127289852Y-93827585D02*
X127693913Y-93423524D01*
X127491882Y-93625554D02*
X126784775Y-92918447D01*
X126953134Y-92952119D01*
X127087821Y-92952119D01*
X127188837Y-92918447D01*
X126347043Y-93356180D02*
X125875638Y-93827585D01*
X126885791Y-94231646D01*
%TO.C,L18*%
X186678724Y-104438786D02*
X187015441Y-104102069D01*
X186308335Y-103394962D01*
X186072632Y-105044878D02*
X186476693Y-104640817D01*
X186274663Y-104842848D02*
X185567556Y-104135741D01*
X185735915Y-104169412D01*
X185870602Y-104169412D01*
X185971617Y-104135741D01*
X185264510Y-105044878D02*
X185298182Y-104943863D01*
X185298182Y-104876519D01*
X185264510Y-104775504D01*
X185230838Y-104741832D01*
X185129823Y-104708161D01*
X185062480Y-104708161D01*
X184961464Y-104741832D01*
X184826777Y-104876519D01*
X184793106Y-104977535D01*
X184793106Y-105044878D01*
X184826777Y-105145893D01*
X184860449Y-105179565D01*
X184961464Y-105213237D01*
X185028808Y-105213237D01*
X185129823Y-105179565D01*
X185264510Y-105044878D01*
X185365525Y-105011206D01*
X185432869Y-105011206D01*
X185533884Y-105044878D01*
X185668571Y-105179565D01*
X185702243Y-105280580D01*
X185702243Y-105347924D01*
X185668571Y-105448939D01*
X185533884Y-105583626D01*
X185432869Y-105617298D01*
X185365525Y-105617298D01*
X185264510Y-105583626D01*
X185129823Y-105448939D01*
X185096151Y-105347924D01*
X185096151Y-105280580D01*
X185129823Y-105179565D01*
%TO.C,L74*%
X158439380Y-51681142D02*
X158439380Y-51204952D01*
X157439380Y-51204952D01*
X157439380Y-51919238D02*
X157439380Y-52585904D01*
X158439380Y-52157333D01*
X157772714Y-53395428D02*
X158439380Y-53395428D01*
X157391761Y-53157333D02*
X158106047Y-52919238D01*
X158106047Y-53538285D01*
%TO.C,C79*%
X125356857Y-96467142D02*
X125404476Y-96514761D01*
X125547333Y-96562380D01*
X125642571Y-96562380D01*
X125785428Y-96514761D01*
X125880666Y-96419523D01*
X125928285Y-96324285D01*
X125975904Y-96133809D01*
X125975904Y-95990952D01*
X125928285Y-95800476D01*
X125880666Y-95705238D01*
X125785428Y-95610000D01*
X125642571Y-95562380D01*
X125547333Y-95562380D01*
X125404476Y-95610000D01*
X125356857Y-95657619D01*
X125023523Y-95562380D02*
X124356857Y-95562380D01*
X124785428Y-96562380D01*
X123928285Y-96562380D02*
X123737809Y-96562380D01*
X123642571Y-96514761D01*
X123594952Y-96467142D01*
X123499714Y-96324285D01*
X123452095Y-96133809D01*
X123452095Y-95752857D01*
X123499714Y-95657619D01*
X123547333Y-95610000D01*
X123642571Y-95562380D01*
X123833047Y-95562380D01*
X123928285Y-95610000D01*
X123975904Y-95657619D01*
X124023523Y-95752857D01*
X124023523Y-95990952D01*
X123975904Y-96086190D01*
X123928285Y-96133809D01*
X123833047Y-96181428D01*
X123642571Y-96181428D01*
X123547333Y-96133809D01*
X123499714Y-96086190D01*
X123452095Y-95990952D01*
%TO.C,C67*%
X122094132Y-55939730D02*
X122094132Y-55872386D01*
X122026788Y-55737699D01*
X121959445Y-55670356D01*
X121824758Y-55603012D01*
X121690071Y-55603012D01*
X121589056Y-55636684D01*
X121420697Y-55737699D01*
X121319682Y-55838714D01*
X121218666Y-56007073D01*
X121184995Y-56108088D01*
X121184995Y-56242775D01*
X121252338Y-56377462D01*
X121319682Y-56444806D01*
X121454369Y-56512149D01*
X121521712Y-56512149D01*
X122060460Y-57185585D02*
X121925773Y-57050898D01*
X121892101Y-56949882D01*
X121892101Y-56882539D01*
X121925773Y-56714180D01*
X122026788Y-56545821D01*
X122296163Y-56276447D01*
X122397178Y-56242775D01*
X122464521Y-56242775D01*
X122565537Y-56276447D01*
X122700224Y-56411134D01*
X122733895Y-56512149D01*
X122733895Y-56579493D01*
X122700224Y-56680508D01*
X122531865Y-56848867D01*
X122430850Y-56882539D01*
X122363506Y-56882539D01*
X122262491Y-56848867D01*
X122127804Y-56714180D01*
X122094132Y-56613165D01*
X122094132Y-56545821D01*
X122127804Y-56444806D01*
X122363506Y-57488630D02*
X122834911Y-57960035D01*
X123238972Y-56949882D01*
%TO.C,C74*%
X133143132Y-125916730D02*
X133143132Y-125849386D01*
X133075788Y-125714699D01*
X133008445Y-125647356D01*
X132873758Y-125580012D01*
X132739071Y-125580012D01*
X132638056Y-125613684D01*
X132469697Y-125714699D01*
X132368682Y-125815714D01*
X132267666Y-125984073D01*
X132233995Y-126085088D01*
X132233995Y-126219775D01*
X132301338Y-126354462D01*
X132368682Y-126421806D01*
X132503369Y-126489149D01*
X132570712Y-126489149D01*
X132739071Y-126792195D02*
X133210475Y-127263600D01*
X133614537Y-126253447D01*
X134018598Y-127600317D02*
X134490002Y-127128913D01*
X133580865Y-127701333D02*
X133917582Y-127027898D01*
X134355315Y-127465630D01*
%TO.C,L13*%
X128498586Y-50892275D02*
X128161869Y-50555558D01*
X127454762Y-51262664D01*
X129104678Y-51498367D02*
X128700617Y-51094306D01*
X128902648Y-51296336D02*
X128195541Y-52003443D01*
X128229212Y-51835084D01*
X128229212Y-51700397D01*
X128195541Y-51599382D01*
X128633274Y-52441176D02*
X129071006Y-52878909D01*
X129104678Y-52373832D01*
X129205693Y-52474848D01*
X129306709Y-52508519D01*
X129374052Y-52508519D01*
X129475067Y-52474848D01*
X129643426Y-52306489D01*
X129677098Y-52205474D01*
X129677098Y-52138130D01*
X129643426Y-52037115D01*
X129441396Y-51835084D01*
X129340380Y-51801413D01*
X129273037Y-51801413D01*
%TO.C,U9*%
X125956421Y-62648925D02*
X126528841Y-63221345D01*
X126562513Y-63322360D01*
X126562513Y-63389704D01*
X126528841Y-63490719D01*
X126394154Y-63625406D01*
X126293139Y-63659078D01*
X126225795Y-63659078D01*
X126124780Y-63625406D01*
X125552360Y-63052986D01*
X125889078Y-64130482D02*
X125754391Y-64265169D01*
X125653376Y-64298841D01*
X125586032Y-64298841D01*
X125417673Y-64265169D01*
X125249315Y-64164154D01*
X124979941Y-63894780D01*
X124946269Y-63793765D01*
X124946269Y-63726421D01*
X124979941Y-63625406D01*
X125114628Y-63490719D01*
X125215643Y-63457047D01*
X125282986Y-63457047D01*
X125384002Y-63490719D01*
X125552360Y-63659078D01*
X125586032Y-63760093D01*
X125586032Y-63827437D01*
X125552360Y-63928452D01*
X125417673Y-64063139D01*
X125316658Y-64096811D01*
X125249315Y-64096811D01*
X125148299Y-64063139D01*
%TO.C,L26*%
X139759487Y-54661376D02*
X139422770Y-54324659D01*
X138715663Y-55031765D01*
X139321755Y-55503170D02*
X139321755Y-55570514D01*
X139355426Y-55671529D01*
X139523785Y-55839888D01*
X139624800Y-55873559D01*
X139692144Y-55873559D01*
X139793159Y-55839888D01*
X139860503Y-55772544D01*
X139927846Y-55637857D01*
X139927846Y-54829735D01*
X140365579Y-55267468D01*
X140264564Y-56580666D02*
X140129877Y-56445979D01*
X140096205Y-56344964D01*
X140096205Y-56277620D01*
X140129877Y-56109262D01*
X140230892Y-55940903D01*
X140500266Y-55671529D01*
X140601281Y-55637857D01*
X140668625Y-55637857D01*
X140769640Y-55671529D01*
X140904327Y-55806216D01*
X140937999Y-55907231D01*
X140937999Y-55974575D01*
X140904327Y-56075590D01*
X140735968Y-56243949D01*
X140634953Y-56277620D01*
X140567610Y-56277620D01*
X140466594Y-56243949D01*
X140331907Y-56109262D01*
X140298236Y-56008246D01*
X140298236Y-55940903D01*
X140331907Y-55839888D01*
%TO.C,R46*%
X159212107Y-119625221D02*
X159111092Y-119052802D01*
X159616168Y-119221160D02*
X158909061Y-118514054D01*
X158639687Y-118783428D01*
X158606015Y-118884443D01*
X158606015Y-118951786D01*
X158639687Y-119052802D01*
X158740702Y-119153817D01*
X158841718Y-119187489D01*
X158909061Y-119187489D01*
X159010076Y-119153817D01*
X159279450Y-118884443D01*
X158134611Y-119759909D02*
X158606015Y-120231313D01*
X158033595Y-119322176D02*
X158707031Y-119658893D01*
X158269298Y-120096626D01*
X157225473Y-120197641D02*
X157360160Y-120062954D01*
X157461176Y-120029283D01*
X157528519Y-120029283D01*
X157696878Y-120062954D01*
X157865237Y-120163970D01*
X158134611Y-120433344D01*
X158168282Y-120534359D01*
X158168282Y-120601702D01*
X158134611Y-120702718D01*
X157999924Y-120837405D01*
X157898908Y-120871076D01*
X157831565Y-120871076D01*
X157730550Y-120837405D01*
X157562191Y-120669046D01*
X157528519Y-120568031D01*
X157528519Y-120500687D01*
X157562191Y-120399672D01*
X157696878Y-120264985D01*
X157797893Y-120231313D01*
X157865237Y-120231313D01*
X157966252Y-120264985D01*
%TO.C,C86*%
X160341269Y-116506132D02*
X160408613Y-116506132D01*
X160543300Y-116438788D01*
X160610643Y-116371445D01*
X160677987Y-116236758D01*
X160677987Y-116102071D01*
X160644315Y-116001056D01*
X160543300Y-115832697D01*
X160442285Y-115731682D01*
X160273926Y-115630666D01*
X160172911Y-115596995D01*
X160038224Y-115596995D01*
X159903537Y-115664338D01*
X159836193Y-115731682D01*
X159768850Y-115866369D01*
X159768850Y-115933712D01*
X159600491Y-116573475D02*
X159634163Y-116472460D01*
X159634163Y-116405117D01*
X159600491Y-116304101D01*
X159566819Y-116270430D01*
X159465804Y-116236758D01*
X159398460Y-116236758D01*
X159297445Y-116270430D01*
X159162758Y-116405117D01*
X159129086Y-116506132D01*
X159129086Y-116573475D01*
X159162758Y-116674491D01*
X159196430Y-116708163D01*
X159297445Y-116741834D01*
X159364788Y-116741834D01*
X159465804Y-116708163D01*
X159600491Y-116573475D01*
X159701506Y-116539804D01*
X159768850Y-116539804D01*
X159869865Y-116573475D01*
X160004552Y-116708163D01*
X160038224Y-116809178D01*
X160038224Y-116876521D01*
X160004552Y-116977537D01*
X159869865Y-117112224D01*
X159768850Y-117145895D01*
X159701506Y-117145895D01*
X159600491Y-117112224D01*
X159465804Y-116977537D01*
X159432132Y-116876521D01*
X159432132Y-116809178D01*
X159465804Y-116708163D01*
X158421979Y-117145895D02*
X158556666Y-117011208D01*
X158657682Y-116977537D01*
X158725025Y-116977537D01*
X158893384Y-117011208D01*
X159061743Y-117112224D01*
X159331117Y-117381598D01*
X159364788Y-117482613D01*
X159364788Y-117549956D01*
X159331117Y-117650972D01*
X159196430Y-117785659D01*
X159095414Y-117819330D01*
X159028071Y-117819330D01*
X158927056Y-117785659D01*
X158758697Y-117617300D01*
X158725025Y-117516285D01*
X158725025Y-117448941D01*
X158758697Y-117347926D01*
X158893384Y-117213239D01*
X158994399Y-117179567D01*
X159061743Y-117179567D01*
X159162758Y-117213239D01*
%TO.C,C91*%
X173050943Y-106609806D02*
X173118287Y-106609806D01*
X173252974Y-106542462D01*
X173320317Y-106475119D01*
X173387661Y-106340432D01*
X173387661Y-106205745D01*
X173353989Y-106104730D01*
X173252974Y-105936371D01*
X173151959Y-105835356D01*
X172983600Y-105734340D01*
X172882585Y-105700669D01*
X172747898Y-105700669D01*
X172613211Y-105768012D01*
X172545867Y-105835356D01*
X172478524Y-105970043D01*
X172478524Y-106037386D01*
X172781569Y-107013867D02*
X172646882Y-107148554D01*
X172545867Y-107182226D01*
X172478524Y-107182226D01*
X172310165Y-107148554D01*
X172141806Y-107047539D01*
X171872432Y-106778165D01*
X171838760Y-106677149D01*
X171838760Y-106609806D01*
X171872432Y-106508791D01*
X172007119Y-106374104D01*
X172108134Y-106340432D01*
X172175478Y-106340432D01*
X172276493Y-106374104D01*
X172444852Y-106542462D01*
X172478524Y-106643478D01*
X172478524Y-106710821D01*
X172444852Y-106811837D01*
X172310165Y-106946524D01*
X172209149Y-106980195D01*
X172141806Y-106980195D01*
X172040791Y-106946524D01*
X171771417Y-108024020D02*
X172175478Y-107619959D01*
X171973447Y-107821989D02*
X171266340Y-107114882D01*
X171434699Y-107148554D01*
X171569386Y-107148554D01*
X171670401Y-107114882D01*
%TO.C,R45*%
X157942107Y-118378559D02*
X157841092Y-117806140D01*
X158346168Y-117974498D02*
X157639061Y-117267392D01*
X157369687Y-117536766D01*
X157336015Y-117637781D01*
X157336015Y-117705124D01*
X157369687Y-117806140D01*
X157470702Y-117907155D01*
X157571718Y-117940827D01*
X157639061Y-117940827D01*
X157740076Y-117907155D01*
X158009450Y-117637781D01*
X156864611Y-118513247D02*
X157336015Y-118984651D01*
X156763595Y-118075514D02*
X157437031Y-118412231D01*
X156999298Y-118849964D01*
X155921802Y-118984651D02*
X156258519Y-118647934D01*
X156628908Y-118950979D01*
X156561565Y-118950979D01*
X156460550Y-118984651D01*
X156292191Y-119153010D01*
X156258519Y-119254025D01*
X156258519Y-119321369D01*
X156292191Y-119422384D01*
X156460550Y-119590743D01*
X156561565Y-119624414D01*
X156628908Y-119624414D01*
X156729924Y-119590743D01*
X156898282Y-119422384D01*
X156931954Y-119321369D01*
X156931954Y-119254025D01*
%TO.C,L11*%
X135941176Y-101532038D02*
X136277893Y-101195321D01*
X135570787Y-100488214D01*
X135335084Y-102138130D02*
X135739145Y-101734069D01*
X135537115Y-101936100D02*
X134830008Y-101228993D01*
X134998367Y-101262664D01*
X135133054Y-101262664D01*
X135234069Y-101228993D01*
X134661649Y-102811565D02*
X135065710Y-102407504D01*
X134863680Y-102609535D02*
X134156573Y-101902428D01*
X134324932Y-101936100D01*
X134459619Y-101936100D01*
X134560634Y-101902428D01*
%TO.C,L73*%
X111451380Y-97147142D02*
X111451380Y-96670952D01*
X110451380Y-96670952D01*
X110451380Y-97385238D02*
X110451380Y-98051904D01*
X111451380Y-97623333D01*
X110451380Y-98337619D02*
X110451380Y-98956666D01*
X110832333Y-98623333D01*
X110832333Y-98766190D01*
X110879952Y-98861428D01*
X110927571Y-98909047D01*
X111022809Y-98956666D01*
X111260904Y-98956666D01*
X111356142Y-98909047D01*
X111403761Y-98861428D01*
X111451380Y-98766190D01*
X111451380Y-98480476D01*
X111403761Y-98385238D01*
X111356142Y-98337619D01*
%TO.C,C70*%
X131897508Y-63941754D02*
X131897508Y-63874410D01*
X131830164Y-63739723D01*
X131762821Y-63672380D01*
X131628134Y-63605036D01*
X131493447Y-63605036D01*
X131392432Y-63638708D01*
X131224073Y-63739723D01*
X131123058Y-63840738D01*
X131022042Y-64009097D01*
X130988371Y-64110112D01*
X130988371Y-64244799D01*
X131055714Y-64379486D01*
X131123058Y-64446830D01*
X131257745Y-64514173D01*
X131325088Y-64514173D01*
X131493447Y-64817219D02*
X131964851Y-65288624D01*
X132368913Y-64278471D01*
X132368913Y-65692685D02*
X132436256Y-65760028D01*
X132537271Y-65793700D01*
X132604615Y-65793700D01*
X132705630Y-65760028D01*
X132873989Y-65659013D01*
X133042348Y-65490654D01*
X133143363Y-65322296D01*
X133177035Y-65221280D01*
X133177035Y-65153937D01*
X133143363Y-65052922D01*
X133076019Y-64985578D01*
X132975004Y-64951906D01*
X132907661Y-64951906D01*
X132806645Y-64985578D01*
X132638287Y-65086593D01*
X132469928Y-65254952D01*
X132368913Y-65423311D01*
X132335241Y-65524326D01*
X132335241Y-65591670D01*
X132368913Y-65692685D01*
%TO.C,L19*%
X132632786Y-55561075D02*
X132296069Y-55224358D01*
X131588962Y-55931464D01*
X133238878Y-56167167D02*
X132834817Y-55763106D01*
X133036848Y-55965136D02*
X132329741Y-56672243D01*
X132363412Y-56503884D01*
X132363412Y-56369197D01*
X132329741Y-56268182D01*
X133575596Y-56503884D02*
X133710283Y-56638571D01*
X133743954Y-56739587D01*
X133743954Y-56806930D01*
X133710283Y-56975289D01*
X133609267Y-57143648D01*
X133339893Y-57413022D01*
X133238878Y-57446693D01*
X133171535Y-57446693D01*
X133070519Y-57413022D01*
X132935832Y-57278335D01*
X132902161Y-57177319D01*
X132902161Y-57109976D01*
X132935832Y-57008961D01*
X133104191Y-56840602D01*
X133205206Y-56806930D01*
X133272550Y-56806930D01*
X133373565Y-56840602D01*
X133508252Y-56975289D01*
X133541924Y-57076304D01*
X133541924Y-57143648D01*
X133508252Y-57244663D01*
%TO.C,C78*%
X160682167Y-111513030D02*
X160749511Y-111513030D01*
X160884198Y-111445686D01*
X160951541Y-111378343D01*
X161018885Y-111243656D01*
X161018885Y-111108969D01*
X160985213Y-111007954D01*
X160884198Y-110839595D01*
X160783183Y-110738580D01*
X160614824Y-110637564D01*
X160513809Y-110603893D01*
X160379122Y-110603893D01*
X160244435Y-110671236D01*
X160177091Y-110738580D01*
X160109748Y-110873267D01*
X160109748Y-110940610D01*
X159806702Y-111108969D02*
X159335297Y-111580373D01*
X160345450Y-111984435D01*
X159267954Y-112253809D02*
X159301625Y-112152793D01*
X159301625Y-112085450D01*
X159267954Y-111984435D01*
X159234282Y-111950763D01*
X159133267Y-111917091D01*
X159065923Y-111917091D01*
X158964908Y-111950763D01*
X158830221Y-112085450D01*
X158796549Y-112186465D01*
X158796549Y-112253809D01*
X158830221Y-112354824D01*
X158863893Y-112388496D01*
X158964908Y-112422167D01*
X159032251Y-112422167D01*
X159133267Y-112388496D01*
X159267954Y-112253809D01*
X159368969Y-112220137D01*
X159436312Y-112220137D01*
X159537328Y-112253809D01*
X159672015Y-112388496D01*
X159705686Y-112489511D01*
X159705686Y-112556854D01*
X159672015Y-112657870D01*
X159537328Y-112792557D01*
X159436312Y-112826228D01*
X159368969Y-112826228D01*
X159267954Y-112792557D01*
X159133267Y-112657870D01*
X159099595Y-112556854D01*
X159099595Y-112489511D01*
X159133267Y-112388496D01*
%TO.C,L25*%
X135604586Y-58812275D02*
X135267869Y-58475558D01*
X134560762Y-59182664D01*
X135166854Y-59654069D02*
X135166854Y-59721413D01*
X135200525Y-59822428D01*
X135368884Y-59990787D01*
X135469899Y-60024458D01*
X135537243Y-60024458D01*
X135638258Y-59990787D01*
X135705602Y-59923443D01*
X135772945Y-59788756D01*
X135772945Y-58980634D01*
X136210678Y-59418367D01*
X136143335Y-60765237D02*
X135806617Y-60428519D01*
X136109663Y-60058130D01*
X136109663Y-60125474D01*
X136143335Y-60226489D01*
X136311693Y-60394848D01*
X136412709Y-60428519D01*
X136480052Y-60428519D01*
X136581067Y-60394848D01*
X136749426Y-60226489D01*
X136783098Y-60125474D01*
X136783098Y-60058130D01*
X136749426Y-59957115D01*
X136581067Y-59788756D01*
X136480052Y-59755084D01*
X136412709Y-59755084D01*
%TO.C,L3*%
X149022304Y-97756993D02*
X148685586Y-97420275D01*
X147978480Y-98127382D01*
X148483556Y-98632458D02*
X148921289Y-99070191D01*
X148954961Y-98565115D01*
X149055976Y-98666130D01*
X149156991Y-98699802D01*
X149224335Y-98699802D01*
X149325350Y-98666130D01*
X149493709Y-98497771D01*
X149527380Y-98396756D01*
X149527380Y-98329413D01*
X149493709Y-98228397D01*
X149291678Y-98026367D01*
X149190663Y-97992695D01*
X149123319Y-97992695D01*
%TO.C,L16*%
X190109638Y-107939223D02*
X189772921Y-107602506D01*
X189065814Y-108309612D01*
X190715730Y-108545315D02*
X190311669Y-108141254D01*
X190513700Y-108343284D02*
X189806593Y-109050391D01*
X189840264Y-108882032D01*
X189840264Y-108747345D01*
X189806593Y-108646330D01*
X190614715Y-109858513D02*
X190480028Y-109723826D01*
X190446356Y-109622811D01*
X190446356Y-109555467D01*
X190480028Y-109387109D01*
X190581043Y-109218750D01*
X190850417Y-108949376D01*
X190951432Y-108915704D01*
X191018776Y-108915704D01*
X191119791Y-108949376D01*
X191254478Y-109084063D01*
X191288150Y-109185078D01*
X191288150Y-109252422D01*
X191254478Y-109353437D01*
X191086119Y-109521796D01*
X190985104Y-109555467D01*
X190917761Y-109555467D01*
X190816745Y-109521796D01*
X190682058Y-109387109D01*
X190648387Y-109286093D01*
X190648387Y-109218750D01*
X190682058Y-109117735D01*
%TO.C,L24*%
X183630724Y-101416186D02*
X183967441Y-101079469D01*
X183260335Y-100372362D01*
X182788930Y-100978454D02*
X182721586Y-100978454D01*
X182620571Y-101012125D01*
X182452212Y-101180484D01*
X182418541Y-101281499D01*
X182418541Y-101348843D01*
X182452212Y-101449858D01*
X182519556Y-101517202D01*
X182654243Y-101584545D01*
X183462365Y-101584545D01*
X183024632Y-102022278D01*
X181947136Y-102156965D02*
X182418541Y-102628370D01*
X181846121Y-101719232D02*
X182519556Y-102055950D01*
X182081823Y-102493683D01*
%TO.C,C80*%
X125356857Y-99257142D02*
X125404476Y-99304761D01*
X125547333Y-99352380D01*
X125642571Y-99352380D01*
X125785428Y-99304761D01*
X125880666Y-99209523D01*
X125928285Y-99114285D01*
X125975904Y-98923809D01*
X125975904Y-98780952D01*
X125928285Y-98590476D01*
X125880666Y-98495238D01*
X125785428Y-98400000D01*
X125642571Y-98352380D01*
X125547333Y-98352380D01*
X125404476Y-98400000D01*
X125356857Y-98447619D01*
X124785428Y-98780952D02*
X124880666Y-98733333D01*
X124928285Y-98685714D01*
X124975904Y-98590476D01*
X124975904Y-98542857D01*
X124928285Y-98447619D01*
X124880666Y-98400000D01*
X124785428Y-98352380D01*
X124594952Y-98352380D01*
X124499714Y-98400000D01*
X124452095Y-98447619D01*
X124404476Y-98542857D01*
X124404476Y-98590476D01*
X124452095Y-98685714D01*
X124499714Y-98733333D01*
X124594952Y-98780952D01*
X124785428Y-98780952D01*
X124880666Y-98828571D01*
X124928285Y-98876190D01*
X124975904Y-98971428D01*
X124975904Y-99161904D01*
X124928285Y-99257142D01*
X124880666Y-99304761D01*
X124785428Y-99352380D01*
X124594952Y-99352380D01*
X124499714Y-99304761D01*
X124452095Y-99257142D01*
X124404476Y-99161904D01*
X124404476Y-98971428D01*
X124452095Y-98876190D01*
X124499714Y-98828571D01*
X124594952Y-98780952D01*
X123785428Y-98352380D02*
X123690190Y-98352380D01*
X123594952Y-98400000D01*
X123547333Y-98447619D01*
X123499714Y-98542857D01*
X123452095Y-98733333D01*
X123452095Y-98971428D01*
X123499714Y-99161904D01*
X123547333Y-99257142D01*
X123594952Y-99304761D01*
X123690190Y-99352380D01*
X123785428Y-99352380D01*
X123880666Y-99304761D01*
X123928285Y-99257142D01*
X123975904Y-99161904D01*
X124023523Y-98971428D01*
X124023523Y-98733333D01*
X123975904Y-98542857D01*
X123928285Y-98447619D01*
X123880666Y-98400000D01*
X123785428Y-98352380D01*
%TO.C,R37*%
X127287013Y-57670875D02*
X127185998Y-57098456D01*
X127691074Y-57266814D02*
X126983967Y-56559708D01*
X126714593Y-56829082D01*
X126680921Y-56930097D01*
X126680921Y-56997440D01*
X126714593Y-57098456D01*
X126815608Y-57199471D01*
X126916624Y-57233143D01*
X126983967Y-57233143D01*
X127084982Y-57199471D01*
X127354356Y-56930097D01*
X126344204Y-57199471D02*
X125906471Y-57637204D01*
X126411547Y-57670875D01*
X126310532Y-57771891D01*
X126276860Y-57872906D01*
X126276860Y-57940250D01*
X126310532Y-58041265D01*
X126478891Y-58209624D01*
X126579906Y-58243295D01*
X126647250Y-58243295D01*
X126748265Y-58209624D01*
X126950295Y-58007593D01*
X126983967Y-57906578D01*
X126983967Y-57839234D01*
X125670769Y-57872906D02*
X125199364Y-58344311D01*
X126209517Y-58748372D01*
%TO.C,L21*%
X189373038Y-100573223D02*
X189036321Y-100236506D01*
X188329214Y-100943612D01*
X188935306Y-101415017D02*
X188935306Y-101482361D01*
X188968977Y-101583376D01*
X189137336Y-101751735D01*
X189238351Y-101785406D01*
X189305695Y-101785406D01*
X189406710Y-101751735D01*
X189474054Y-101684391D01*
X189541397Y-101549704D01*
X189541397Y-100741582D01*
X189979130Y-101179315D01*
X190652565Y-101852750D02*
X190248504Y-101448689D01*
X190450535Y-101650719D02*
X189743428Y-102357826D01*
X189777100Y-102189467D01*
X189777100Y-102054780D01*
X189743428Y-101953765D01*
%TO.C,L5*%
X146783756Y-106040741D02*
X146447038Y-105704023D01*
X145739932Y-106411130D01*
X146649069Y-107320267D02*
X146312351Y-106983550D01*
X146615397Y-106613161D01*
X146615397Y-106680504D01*
X146649069Y-106781519D01*
X146817428Y-106949878D01*
X146918443Y-106983550D01*
X146985787Y-106983550D01*
X147086802Y-106949878D01*
X147255161Y-106781519D01*
X147288832Y-106680504D01*
X147288832Y-106613161D01*
X147255161Y-106512145D01*
X147086802Y-106343786D01*
X146985787Y-106310115D01*
X146918443Y-106310115D01*
%TO.C,L50*%
X168031776Y-84318638D02*
X168368493Y-83981921D01*
X167661387Y-83274814D01*
X166752249Y-84183951D02*
X167088967Y-83847234D01*
X167459356Y-84150280D01*
X167392013Y-84150280D01*
X167290997Y-84183951D01*
X167122638Y-84352310D01*
X167088967Y-84453326D01*
X167088967Y-84520669D01*
X167122638Y-84621684D01*
X167290997Y-84790043D01*
X167392013Y-84823715D01*
X167459356Y-84823715D01*
X167560371Y-84790043D01*
X167728730Y-84621684D01*
X167762402Y-84520669D01*
X167762402Y-84453326D01*
X166280845Y-84655356D02*
X166213501Y-84722700D01*
X166179829Y-84823715D01*
X166179829Y-84891058D01*
X166213501Y-84992074D01*
X166314516Y-85160432D01*
X166482875Y-85328791D01*
X166651234Y-85429806D01*
X166752249Y-85463478D01*
X166819593Y-85463478D01*
X166920608Y-85429806D01*
X166987951Y-85362463D01*
X167021623Y-85261448D01*
X167021623Y-85194104D01*
X166987951Y-85093089D01*
X166886936Y-84924730D01*
X166718577Y-84756371D01*
X166550219Y-84655356D01*
X166449203Y-84621684D01*
X166381860Y-84621684D01*
X166280845Y-84655356D01*
D12*
%TO.C,L68*%
X169992334Y-114831273D02*
X169479176Y-114318116D01*
X168401545Y-115395747D01*
X169735755Y-116729956D02*
X169530492Y-116524693D01*
X169479176Y-116370746D01*
X169479176Y-116268114D01*
X169530492Y-116011535D01*
X169684439Y-115754957D01*
X170094965Y-115344431D01*
X170248912Y-115293115D01*
X170351544Y-115293115D01*
X170505491Y-115344431D01*
X170710754Y-115549694D01*
X170762070Y-115703641D01*
X170762070Y-115806273D01*
X170710754Y-115960220D01*
X170454175Y-116216798D01*
X170300228Y-116268114D01*
X170197597Y-116268114D01*
X170043649Y-116216798D01*
X169838386Y-116011536D01*
X169787071Y-115857588D01*
X169787071Y-115754957D01*
X169838386Y-115601010D01*
X170916017Y-116986535D02*
X170762070Y-116935219D01*
X170659438Y-116935219D01*
X170505491Y-116986535D01*
X170454175Y-117037850D01*
X170402859Y-117191798D01*
X170402859Y-117294429D01*
X170454175Y-117448376D01*
X170659438Y-117653639D01*
X170813385Y-117704955D01*
X170916017Y-117704955D01*
X171069964Y-117653639D01*
X171121280Y-117602324D01*
X171172596Y-117448376D01*
X171172596Y-117345745D01*
X171121280Y-117191798D01*
X170916017Y-116986535D01*
X170864701Y-116832587D01*
X170864701Y-116729956D01*
X170916017Y-116576009D01*
X171121280Y-116370746D01*
X171275227Y-116319430D01*
X171377859Y-116319430D01*
X171531806Y-116370746D01*
X171737069Y-116576009D01*
X171788385Y-116729956D01*
X171788385Y-116832587D01*
X171737069Y-116986535D01*
X171531806Y-117191798D01*
X171377859Y-117243113D01*
X171275227Y-117243113D01*
X171121280Y-117191798D01*
D10*
%TO.C,L69*%
X122754380Y-92321142D02*
X122754380Y-91844952D01*
X121754380Y-91844952D01*
X121754380Y-93083047D02*
X121754380Y-92892571D01*
X121802000Y-92797333D01*
X121849619Y-92749714D01*
X121992476Y-92654476D01*
X122182952Y-92606857D01*
X122563904Y-92606857D01*
X122659142Y-92654476D01*
X122706761Y-92702095D01*
X122754380Y-92797333D01*
X122754380Y-92987809D01*
X122706761Y-93083047D01*
X122659142Y-93130666D01*
X122563904Y-93178285D01*
X122325809Y-93178285D01*
X122230571Y-93130666D01*
X122182952Y-93083047D01*
X122135333Y-92987809D01*
X122135333Y-92797333D01*
X122182952Y-92702095D01*
X122230571Y-92654476D01*
X122325809Y-92606857D01*
X122754380Y-93654476D02*
X122754380Y-93844952D01*
X122706761Y-93940190D01*
X122659142Y-93987809D01*
X122516285Y-94083047D01*
X122325809Y-94130666D01*
X121944857Y-94130666D01*
X121849619Y-94083047D01*
X121802000Y-94035428D01*
X121754380Y-93940190D01*
X121754380Y-93749714D01*
X121802000Y-93654476D01*
X121849619Y-93606857D01*
X121944857Y-93559238D01*
X122182952Y-93559238D01*
X122278190Y-93606857D01*
X122325809Y-93654476D01*
X122373428Y-93749714D01*
X122373428Y-93940190D01*
X122325809Y-94035428D01*
X122278190Y-94083047D01*
X122182952Y-94130666D01*
%TO.C,U3*%
X146510963Y-99426709D02*
X147083383Y-99999129D01*
X147117055Y-100100144D01*
X147117055Y-100167488D01*
X147083383Y-100268503D01*
X146948696Y-100403190D01*
X146847681Y-100436862D01*
X146780337Y-100436862D01*
X146679322Y-100403190D01*
X146106902Y-99830770D01*
X145837528Y-100100144D02*
X145399796Y-100537877D01*
X145904872Y-100571549D01*
X145803857Y-100672564D01*
X145770185Y-100773579D01*
X145770185Y-100840923D01*
X145803857Y-100941938D01*
X145972215Y-101110297D01*
X146073231Y-101143969D01*
X146140574Y-101143969D01*
X146241589Y-101110297D01*
X146443620Y-100908266D01*
X146477292Y-100807251D01*
X146477292Y-100739908D01*
%TO.C,C87*%
X178129695Y-111791167D02*
X178129695Y-111723823D01*
X178062351Y-111589136D01*
X177995008Y-111521793D01*
X177860321Y-111454449D01*
X177725634Y-111454449D01*
X177624619Y-111488121D01*
X177456260Y-111589136D01*
X177355245Y-111690151D01*
X177254229Y-111858510D01*
X177220558Y-111959525D01*
X177220558Y-112094212D01*
X177287901Y-112228899D01*
X177355245Y-112296243D01*
X177489932Y-112363586D01*
X177557275Y-112363586D01*
X178197038Y-112531945D02*
X178096023Y-112498274D01*
X178028680Y-112498274D01*
X177927664Y-112531945D01*
X177893993Y-112565617D01*
X177860321Y-112666632D01*
X177860321Y-112733976D01*
X177893993Y-112834991D01*
X178028680Y-112969678D01*
X178129695Y-113003350D01*
X178197038Y-113003350D01*
X178298054Y-112969678D01*
X178331726Y-112936006D01*
X178365397Y-112834991D01*
X178365397Y-112767648D01*
X178331726Y-112666632D01*
X178197038Y-112531945D01*
X178163367Y-112430930D01*
X178163367Y-112363586D01*
X178197038Y-112262571D01*
X178331726Y-112127884D01*
X178432741Y-112094212D01*
X178500084Y-112094212D01*
X178601100Y-112127884D01*
X178735787Y-112262571D01*
X178769458Y-112363586D01*
X178769458Y-112430930D01*
X178735787Y-112531945D01*
X178601100Y-112666632D01*
X178500084Y-112700304D01*
X178432741Y-112700304D01*
X178331726Y-112666632D01*
X178399069Y-113340067D02*
X178870474Y-113811472D01*
X179274535Y-112801319D01*
%TO.C,L46*%
X158004038Y-64860823D02*
X157667321Y-64524106D01*
X156960214Y-65231212D01*
X158071382Y-65870976D02*
X158542787Y-65399571D01*
X157633649Y-65971991D02*
X157970367Y-65298556D01*
X158408100Y-65736289D01*
X158509115Y-66780113D02*
X158374428Y-66645426D01*
X158340756Y-66544411D01*
X158340756Y-66477067D01*
X158374428Y-66308709D01*
X158475443Y-66140350D01*
X158744817Y-65870976D01*
X158845832Y-65837304D01*
X158913176Y-65837304D01*
X159014191Y-65870976D01*
X159148878Y-66005663D01*
X159182550Y-66106678D01*
X159182550Y-66174022D01*
X159148878Y-66275037D01*
X158980519Y-66443396D01*
X158879504Y-66477067D01*
X158812161Y-66477067D01*
X158711145Y-66443396D01*
X158576458Y-66308709D01*
X158542787Y-66207693D01*
X158542787Y-66140350D01*
X158576458Y-66039335D01*
%TO.C,TH1*%
X135592912Y-101516637D02*
X135188851Y-101920698D01*
X136097988Y-102425774D02*
X135390881Y-101718668D01*
X135660255Y-102863507D02*
X134953148Y-102156400D01*
X135289866Y-102493118D02*
X134885805Y-102897179D01*
X135256194Y-103267568D02*
X134549087Y-102560461D01*
X134549087Y-103974675D02*
X134953148Y-103570614D01*
X134751118Y-103772644D02*
X134044011Y-103065538D01*
X134212370Y-103099209D01*
X134347057Y-103099209D01*
X134448072Y-103065538D01*
%TO.C,C69*%
X126127469Y-56384332D02*
X126194813Y-56384332D01*
X126329500Y-56316988D01*
X126396843Y-56249645D01*
X126464187Y-56114958D01*
X126464187Y-55980271D01*
X126430515Y-55879256D01*
X126329500Y-55710897D01*
X126228485Y-55609882D01*
X126060126Y-55508866D01*
X125959111Y-55475195D01*
X125824424Y-55475195D01*
X125689737Y-55542538D01*
X125622393Y-55609882D01*
X125555050Y-55744569D01*
X125555050Y-55811912D01*
X124881614Y-56350660D02*
X125016301Y-56215973D01*
X125117317Y-56182301D01*
X125184660Y-56182301D01*
X125353019Y-56215973D01*
X125521378Y-56316988D01*
X125790752Y-56586363D01*
X125824424Y-56687378D01*
X125824424Y-56754721D01*
X125790752Y-56855737D01*
X125656065Y-56990424D01*
X125555050Y-57024095D01*
X125487706Y-57024095D01*
X125386691Y-56990424D01*
X125218332Y-56822065D01*
X125184660Y-56721050D01*
X125184660Y-56653706D01*
X125218332Y-56552691D01*
X125353019Y-56418004D01*
X125454034Y-56384332D01*
X125521378Y-56384332D01*
X125622393Y-56418004D01*
X125184660Y-57461828D02*
X125049973Y-57596515D01*
X124948958Y-57630187D01*
X124881614Y-57630187D01*
X124713256Y-57596515D01*
X124544897Y-57495500D01*
X124275523Y-57226126D01*
X124241851Y-57125111D01*
X124241851Y-57057767D01*
X124275523Y-56956752D01*
X124410210Y-56822065D01*
X124511225Y-56788393D01*
X124578569Y-56788393D01*
X124679584Y-56822065D01*
X124847943Y-56990424D01*
X124881614Y-57091439D01*
X124881614Y-57158782D01*
X124847943Y-57259798D01*
X124713256Y-57394485D01*
X124612240Y-57428156D01*
X124544897Y-57428156D01*
X124443882Y-57394485D01*
%TO.C,L38*%
X169462786Y-91756075D02*
X169126069Y-91419358D01*
X168418962Y-92126464D01*
X168924038Y-92631541D02*
X169361771Y-93069274D01*
X169395443Y-92564197D01*
X169496458Y-92665213D01*
X169597474Y-92698884D01*
X169664817Y-92698884D01*
X169765832Y-92665213D01*
X169934191Y-92496854D01*
X169967863Y-92395838D01*
X169967863Y-92328495D01*
X169934191Y-92227480D01*
X169732161Y-92025449D01*
X169631145Y-91991777D01*
X169563802Y-91991777D01*
X170068878Y-93170289D02*
X169967863Y-93136617D01*
X169900519Y-93136617D01*
X169799504Y-93170289D01*
X169765832Y-93203961D01*
X169732161Y-93304976D01*
X169732161Y-93372319D01*
X169765832Y-93473335D01*
X169900519Y-93608022D01*
X170001535Y-93641693D01*
X170068878Y-93641693D01*
X170169893Y-93608022D01*
X170203565Y-93574350D01*
X170237237Y-93473335D01*
X170237237Y-93405991D01*
X170203565Y-93304976D01*
X170068878Y-93170289D01*
X170035206Y-93069274D01*
X170035206Y-93001930D01*
X170068878Y-92900915D01*
X170203565Y-92766228D01*
X170304580Y-92732556D01*
X170371924Y-92732556D01*
X170472939Y-92766228D01*
X170607626Y-92900915D01*
X170641298Y-93001930D01*
X170641298Y-93069274D01*
X170607626Y-93170289D01*
X170472939Y-93304976D01*
X170371924Y-93338648D01*
X170304580Y-93338648D01*
X170203565Y-93304976D01*
%TO.C,L4*%
X144468756Y-88286141D02*
X144132038Y-87949423D01*
X143424932Y-88656530D01*
X144536100Y-89296293D02*
X145007504Y-88824889D01*
X144098367Y-89397309D02*
X144435084Y-88723874D01*
X144872817Y-89161606D01*
%TO.C,L72*%
X185896586Y-72528275D02*
X185559869Y-72191558D01*
X184852762Y-72898664D01*
X185357838Y-73403741D02*
X185829243Y-73875145D01*
X186233304Y-72864993D01*
X186132289Y-74043504D02*
X186132289Y-74110848D01*
X186165961Y-74211863D01*
X186334319Y-74380222D01*
X186435335Y-74413893D01*
X186502678Y-74413893D01*
X186603693Y-74380222D01*
X186671037Y-74312878D01*
X186738380Y-74178191D01*
X186738380Y-73370069D01*
X187176113Y-73807802D01*
%TO.C,L2*%
X138935304Y-87828993D02*
X138598586Y-87492275D01*
X137891480Y-88199382D01*
X138497571Y-88670787D02*
X138497571Y-88738130D01*
X138531243Y-88839145D01*
X138699602Y-89007504D01*
X138800617Y-89041176D01*
X138867961Y-89041176D01*
X138968976Y-89007504D01*
X139036319Y-88940161D01*
X139103663Y-88805474D01*
X139103663Y-87997351D01*
X139541396Y-88435084D01*
%TO.C,C66*%
X119710943Y-58857806D02*
X119778287Y-58857806D01*
X119912974Y-58790462D01*
X119980317Y-58723119D01*
X120047661Y-58588432D01*
X120047661Y-58453745D01*
X120013989Y-58352730D01*
X119912974Y-58184371D01*
X119811959Y-58083356D01*
X119643600Y-57982340D01*
X119542585Y-57948669D01*
X119407898Y-57948669D01*
X119273211Y-58016012D01*
X119205867Y-58083356D01*
X119138524Y-58218043D01*
X119138524Y-58285386D01*
X118465088Y-58824134D02*
X118599775Y-58689447D01*
X118700791Y-58655775D01*
X118768134Y-58655775D01*
X118936493Y-58689447D01*
X119104852Y-58790462D01*
X119374226Y-59059837D01*
X119407898Y-59160852D01*
X119407898Y-59228195D01*
X119374226Y-59329211D01*
X119239539Y-59463898D01*
X119138524Y-59497569D01*
X119071180Y-59497569D01*
X118970165Y-59463898D01*
X118801806Y-59295539D01*
X118768134Y-59194524D01*
X118768134Y-59127180D01*
X118801806Y-59026165D01*
X118936493Y-58891478D01*
X119037508Y-58857806D01*
X119104852Y-58857806D01*
X119205867Y-58891478D01*
X117791653Y-59497569D02*
X117926340Y-59362882D01*
X118027356Y-59329211D01*
X118094699Y-59329211D01*
X118263058Y-59362882D01*
X118431417Y-59463898D01*
X118700791Y-59733272D01*
X118734462Y-59834287D01*
X118734462Y-59901630D01*
X118700791Y-60002646D01*
X118566104Y-60137333D01*
X118465088Y-60171004D01*
X118397745Y-60171004D01*
X118296730Y-60137333D01*
X118128371Y-59968974D01*
X118094699Y-59867959D01*
X118094699Y-59800615D01*
X118128371Y-59699600D01*
X118263058Y-59564913D01*
X118364073Y-59531241D01*
X118431417Y-59531241D01*
X118532432Y-59564913D01*
%TO.C,C26*%
X135389030Y-127226832D02*
X135389030Y-127159488D01*
X135321686Y-127024801D01*
X135254343Y-126957458D01*
X135119656Y-126890114D01*
X134984969Y-126890114D01*
X134883954Y-126923786D01*
X134715595Y-127024801D01*
X134614580Y-127125816D01*
X134513564Y-127294175D01*
X134479893Y-127395190D01*
X134479893Y-127529877D01*
X134547236Y-127664564D01*
X134614580Y-127731908D01*
X134749267Y-127799251D01*
X134816610Y-127799251D01*
X135085984Y-128068626D02*
X135085984Y-128135969D01*
X135119656Y-128236984D01*
X135288015Y-128405343D01*
X135389030Y-128439015D01*
X135456373Y-128439015D01*
X135557389Y-128405343D01*
X135624732Y-128338000D01*
X135692076Y-128203313D01*
X135692076Y-127395190D01*
X136129809Y-127832923D01*
X136028793Y-129146122D02*
X135894106Y-129011435D01*
X135860435Y-128910419D01*
X135860435Y-128843076D01*
X135894106Y-128674717D01*
X135995122Y-128506358D01*
X136264496Y-128236984D01*
X136365511Y-128203313D01*
X136432854Y-128203313D01*
X136533870Y-128236984D01*
X136668557Y-128371671D01*
X136702228Y-128472687D01*
X136702228Y-128540030D01*
X136668557Y-128641045D01*
X136500198Y-128809404D01*
X136399183Y-128843076D01*
X136331839Y-128843076D01*
X136230824Y-128809404D01*
X136096137Y-128674717D01*
X136062465Y-128573702D01*
X136062465Y-128506358D01*
X136096137Y-128405343D01*
%TO.C,R40*%
X167530287Y-108582149D02*
X167429272Y-108009730D01*
X167934348Y-108178088D02*
X167227241Y-107470982D01*
X166957867Y-107740356D01*
X166924195Y-107841371D01*
X166924195Y-107908714D01*
X166957867Y-108009730D01*
X167058882Y-108110745D01*
X167159898Y-108144417D01*
X167227241Y-108144417D01*
X167328256Y-108110745D01*
X167597630Y-107841371D01*
X166452791Y-108716837D02*
X166924195Y-109188241D01*
X166351775Y-108279104D02*
X167025211Y-108615821D01*
X166587478Y-109053554D01*
X165712012Y-108986211D02*
X165644669Y-109053554D01*
X165610997Y-109154569D01*
X165610997Y-109221913D01*
X165644669Y-109322928D01*
X165745684Y-109491287D01*
X165914043Y-109659646D01*
X166082401Y-109760661D01*
X166183417Y-109794333D01*
X166250760Y-109794333D01*
X166351775Y-109760661D01*
X166419119Y-109693317D01*
X166452791Y-109592302D01*
X166452791Y-109524959D01*
X166419119Y-109423943D01*
X166318104Y-109255585D01*
X166149745Y-109087226D01*
X165981386Y-108986211D01*
X165880371Y-108952539D01*
X165813027Y-108952539D01*
X165712012Y-108986211D01*
%TO.C,C68*%
X163596250Y-120985325D02*
X163596250Y-120917981D01*
X163528906Y-120783294D01*
X163461563Y-120715951D01*
X163326876Y-120648607D01*
X163192189Y-120648607D01*
X163091174Y-120682279D01*
X162922815Y-120783294D01*
X162821800Y-120884309D01*
X162720784Y-121052668D01*
X162687113Y-121153683D01*
X162687113Y-121288370D01*
X162754456Y-121423057D01*
X162821800Y-121490401D01*
X162956487Y-121557744D01*
X163023830Y-121557744D01*
X163562578Y-122231180D02*
X163427891Y-122096493D01*
X163394219Y-121995477D01*
X163394219Y-121928134D01*
X163427891Y-121759775D01*
X163528906Y-121591416D01*
X163798281Y-121322042D01*
X163899296Y-121288370D01*
X163966639Y-121288370D01*
X164067655Y-121322042D01*
X164202342Y-121456729D01*
X164236013Y-121557744D01*
X164236013Y-121625088D01*
X164202342Y-121726103D01*
X164033983Y-121894462D01*
X163932968Y-121928134D01*
X163865624Y-121928134D01*
X163764609Y-121894462D01*
X163629922Y-121759775D01*
X163596250Y-121658760D01*
X163596250Y-121591416D01*
X163629922Y-121490401D01*
X164337029Y-122399538D02*
X164236013Y-122365867D01*
X164168670Y-122365867D01*
X164067655Y-122399538D01*
X164033983Y-122433210D01*
X164000311Y-122534225D01*
X164000311Y-122601569D01*
X164033983Y-122702584D01*
X164168670Y-122837271D01*
X164269685Y-122870943D01*
X164337029Y-122870943D01*
X164438044Y-122837271D01*
X164471716Y-122803599D01*
X164505387Y-122702584D01*
X164505387Y-122635241D01*
X164471716Y-122534225D01*
X164337029Y-122399538D01*
X164303357Y-122298523D01*
X164303357Y-122231180D01*
X164337029Y-122130164D01*
X164471716Y-121995477D01*
X164572731Y-121961806D01*
X164640074Y-121961806D01*
X164741090Y-121995477D01*
X164875777Y-122130164D01*
X164909448Y-122231180D01*
X164909448Y-122298523D01*
X164875777Y-122399538D01*
X164741090Y-122534225D01*
X164640074Y-122567897D01*
X164572731Y-122567897D01*
X164471716Y-122534225D01*
%TO.C,C76*%
X146479380Y-118392243D02*
X146546724Y-118392243D01*
X146681411Y-118324899D01*
X146748754Y-118257556D01*
X146816098Y-118122869D01*
X146816098Y-117988182D01*
X146782426Y-117887167D01*
X146681411Y-117718808D01*
X146580396Y-117617793D01*
X146412037Y-117516777D01*
X146311022Y-117483106D01*
X146176335Y-117483106D01*
X146041648Y-117550449D01*
X145974304Y-117617793D01*
X145906961Y-117752480D01*
X145906961Y-117819823D01*
X145603915Y-117988182D02*
X145132510Y-118459586D01*
X146142663Y-118863648D01*
X144560090Y-119032006D02*
X144694777Y-118897319D01*
X144795793Y-118863648D01*
X144863136Y-118863648D01*
X145031495Y-118897319D01*
X145199854Y-118998335D01*
X145469228Y-119267709D01*
X145502899Y-119368724D01*
X145502899Y-119436067D01*
X145469228Y-119537083D01*
X145334541Y-119671770D01*
X145233525Y-119705441D01*
X145166182Y-119705441D01*
X145065167Y-119671770D01*
X144896808Y-119503411D01*
X144863136Y-119402396D01*
X144863136Y-119335052D01*
X144896808Y-119234037D01*
X145031495Y-119099350D01*
X145132510Y-119065678D01*
X145199854Y-119065678D01*
X145300869Y-119099350D01*
%TO.C,L45*%
X152698586Y-71392275D02*
X152361869Y-71055558D01*
X151654762Y-71762664D01*
X152765930Y-72402428D02*
X153237335Y-71931023D01*
X152328197Y-72503443D02*
X152664915Y-71830008D01*
X153102648Y-72267741D01*
X153237335Y-73345237D02*
X152900617Y-73008519D01*
X153203663Y-72638130D01*
X153203663Y-72705474D01*
X153237335Y-72806489D01*
X153405693Y-72974848D01*
X153506709Y-73008519D01*
X153574052Y-73008519D01*
X153675067Y-72974848D01*
X153843426Y-72806489D01*
X153877098Y-72705474D01*
X153877098Y-72638130D01*
X153843426Y-72537115D01*
X153675067Y-72368756D01*
X153574052Y-72335084D01*
X153506709Y-72335084D01*
%TO.C,L28*%
X182362638Y-102300423D02*
X182025921Y-101963706D01*
X181318814Y-102670812D01*
X181924906Y-103142217D02*
X181924906Y-103209561D01*
X181958577Y-103310576D01*
X182126936Y-103478935D01*
X182227951Y-103512606D01*
X182295295Y-103512606D01*
X182396310Y-103478935D01*
X182463654Y-103411591D01*
X182530997Y-103276904D01*
X182530997Y-102468782D01*
X182968730Y-102906515D01*
X182968730Y-103714637D02*
X182867715Y-103680965D01*
X182800371Y-103680965D01*
X182699356Y-103714637D01*
X182665684Y-103748309D01*
X182632013Y-103849324D01*
X182632013Y-103916667D01*
X182665684Y-104017683D01*
X182800371Y-104152370D01*
X182901387Y-104186041D01*
X182968730Y-104186041D01*
X183069745Y-104152370D01*
X183103417Y-104118698D01*
X183137089Y-104017683D01*
X183137089Y-103950339D01*
X183103417Y-103849324D01*
X182968730Y-103714637D01*
X182935058Y-103613622D01*
X182935058Y-103546278D01*
X182968730Y-103445263D01*
X183103417Y-103310576D01*
X183204432Y-103276904D01*
X183271776Y-103276904D01*
X183372791Y-103310576D01*
X183507478Y-103445263D01*
X183541150Y-103546278D01*
X183541150Y-103613622D01*
X183507478Y-103714637D01*
X183372791Y-103849324D01*
X183271776Y-103882996D01*
X183204432Y-103882996D01*
X183103417Y-103849324D01*
%TO.C,R38*%
X130843013Y-59093275D02*
X130741998Y-58520856D01*
X131247074Y-58689214D02*
X130539967Y-57982108D01*
X130270593Y-58251482D01*
X130236921Y-58352497D01*
X130236921Y-58419840D01*
X130270593Y-58520856D01*
X130371608Y-58621871D01*
X130472624Y-58655543D01*
X130539967Y-58655543D01*
X130640982Y-58621871D01*
X130910356Y-58352497D01*
X129900204Y-58621871D02*
X129462471Y-59059604D01*
X129967547Y-59093275D01*
X129866532Y-59194291D01*
X129832860Y-59295306D01*
X129832860Y-59362650D01*
X129866532Y-59463665D01*
X130034891Y-59632024D01*
X130135906Y-59665695D01*
X130203250Y-59665695D01*
X130304265Y-59632024D01*
X130506295Y-59429993D01*
X130539967Y-59328978D01*
X130539967Y-59261634D01*
X129361456Y-59766711D02*
X129395127Y-59665695D01*
X129395127Y-59598352D01*
X129361456Y-59497337D01*
X129327784Y-59463665D01*
X129226769Y-59429993D01*
X129159425Y-59429993D01*
X129058410Y-59463665D01*
X128923723Y-59598352D01*
X128890051Y-59699367D01*
X128890051Y-59766711D01*
X128923723Y-59867726D01*
X128957395Y-59901398D01*
X129058410Y-59935069D01*
X129125753Y-59935069D01*
X129226769Y-59901398D01*
X129361456Y-59766711D01*
X129462471Y-59733039D01*
X129529814Y-59733039D01*
X129630830Y-59766711D01*
X129765517Y-59901398D01*
X129799188Y-60002413D01*
X129799188Y-60069756D01*
X129765517Y-60170772D01*
X129630830Y-60305459D01*
X129529814Y-60339130D01*
X129462471Y-60339130D01*
X129361456Y-60305459D01*
X129226769Y-60170772D01*
X129193097Y-60069756D01*
X129193097Y-60002413D01*
X129226769Y-59901398D01*
%TO.C,L70*%
X175784038Y-108548823D02*
X175447321Y-108212106D01*
X174740214Y-108919212D01*
X175245290Y-109424289D02*
X175716695Y-109895693D01*
X176120756Y-108885541D01*
X176120756Y-110299754D02*
X176188100Y-110367098D01*
X176289115Y-110400770D01*
X176356458Y-110400770D01*
X176457474Y-110367098D01*
X176625832Y-110266083D01*
X176794191Y-110097724D01*
X176895206Y-109929365D01*
X176928878Y-109828350D01*
X176928878Y-109761006D01*
X176895206Y-109659991D01*
X176827863Y-109592648D01*
X176726848Y-109558976D01*
X176659504Y-109558976D01*
X176558489Y-109592648D01*
X176390130Y-109693663D01*
X176221771Y-109862022D01*
X176120756Y-110030380D01*
X176087084Y-110131396D01*
X176087084Y-110198739D01*
X176120756Y-110299754D01*
%TO.C,R36*%
X141739613Y-118732475D02*
X141638598Y-118160056D01*
X142143674Y-118328414D02*
X141436567Y-117621308D01*
X141167193Y-117890682D01*
X141133521Y-117991697D01*
X141133521Y-118059040D01*
X141167193Y-118160056D01*
X141268208Y-118261071D01*
X141369224Y-118294743D01*
X141436567Y-118294743D01*
X141537582Y-118261071D01*
X141806956Y-117991697D01*
X140796804Y-118261071D02*
X140359071Y-118698804D01*
X140864147Y-118732475D01*
X140763132Y-118833491D01*
X140729460Y-118934506D01*
X140729460Y-119001850D01*
X140763132Y-119102865D01*
X140931491Y-119271224D01*
X141032506Y-119304895D01*
X141099850Y-119304895D01*
X141200865Y-119271224D01*
X141402895Y-119069193D01*
X141436567Y-118968178D01*
X141436567Y-118900834D01*
X139752979Y-119304895D02*
X139887666Y-119170208D01*
X139988682Y-119136537D01*
X140056025Y-119136537D01*
X140224384Y-119170208D01*
X140392743Y-119271224D01*
X140662117Y-119540598D01*
X140695788Y-119641613D01*
X140695788Y-119708956D01*
X140662117Y-119809972D01*
X140527430Y-119944659D01*
X140426414Y-119978330D01*
X140359071Y-119978330D01*
X140258056Y-119944659D01*
X140089697Y-119776300D01*
X140056025Y-119675285D01*
X140056025Y-119607941D01*
X140089697Y-119506926D01*
X140224384Y-119372239D01*
X140325399Y-119338567D01*
X140392743Y-119338567D01*
X140493758Y-119372239D01*
%TO.C,C48*%
X173777869Y-89709132D02*
X173845213Y-89709132D01*
X173979900Y-89641788D01*
X174047243Y-89574445D01*
X174114587Y-89439758D01*
X174114587Y-89305071D01*
X174080915Y-89204056D01*
X173979900Y-89035697D01*
X173878885Y-88934682D01*
X173710526Y-88833666D01*
X173609511Y-88799995D01*
X173474824Y-88799995D01*
X173340137Y-88867338D01*
X173272793Y-88934682D01*
X173205450Y-89069369D01*
X173205450Y-89136712D01*
X172767717Y-89911163D02*
X173239121Y-90382567D01*
X172666701Y-89473430D02*
X173340137Y-89810147D01*
X172902404Y-90247880D01*
X172363656Y-90449911D02*
X172397327Y-90348895D01*
X172397327Y-90281552D01*
X172363656Y-90180537D01*
X172329984Y-90146865D01*
X172228969Y-90113193D01*
X172161625Y-90113193D01*
X172060610Y-90146865D01*
X171925923Y-90281552D01*
X171892251Y-90382567D01*
X171892251Y-90449911D01*
X171925923Y-90550926D01*
X171959595Y-90584598D01*
X172060610Y-90618269D01*
X172127953Y-90618269D01*
X172228969Y-90584598D01*
X172363656Y-90449911D01*
X172464671Y-90416239D01*
X172532014Y-90416239D01*
X172633030Y-90449911D01*
X172767717Y-90584598D01*
X172801388Y-90685613D01*
X172801388Y-90752956D01*
X172767717Y-90853972D01*
X172633030Y-90988659D01*
X172532014Y-91022330D01*
X172464671Y-91022330D01*
X172363656Y-90988659D01*
X172228969Y-90853972D01*
X172195297Y-90752956D01*
X172195297Y-90685613D01*
X172228969Y-90584598D01*
%TO.C,C82*%
X128194543Y-60762806D02*
X128261887Y-60762806D01*
X128396574Y-60695462D01*
X128463917Y-60628119D01*
X128531261Y-60493432D01*
X128531261Y-60358745D01*
X128497589Y-60257730D01*
X128396574Y-60089371D01*
X128295559Y-59988356D01*
X128127200Y-59887340D01*
X128026185Y-59853669D01*
X127891498Y-59853669D01*
X127756811Y-59921012D01*
X127689467Y-59988356D01*
X127622124Y-60123043D01*
X127622124Y-60190386D01*
X127453765Y-60830149D02*
X127487437Y-60729134D01*
X127487437Y-60661791D01*
X127453765Y-60560775D01*
X127420093Y-60527104D01*
X127319078Y-60493432D01*
X127251734Y-60493432D01*
X127150719Y-60527104D01*
X127016032Y-60661791D01*
X126982360Y-60762806D01*
X126982360Y-60830149D01*
X127016032Y-60931165D01*
X127049704Y-60964837D01*
X127150719Y-60998508D01*
X127218062Y-60998508D01*
X127319078Y-60964837D01*
X127453765Y-60830149D01*
X127554780Y-60796478D01*
X127622124Y-60796478D01*
X127723139Y-60830149D01*
X127857826Y-60964837D01*
X127891498Y-61065852D01*
X127891498Y-61133195D01*
X127857826Y-61234211D01*
X127723139Y-61368898D01*
X127622124Y-61402569D01*
X127554780Y-61402569D01*
X127453765Y-61368898D01*
X127319078Y-61234211D01*
X127285406Y-61133195D01*
X127285406Y-61065852D01*
X127319078Y-60964837D01*
X126679314Y-61133195D02*
X126611971Y-61133195D01*
X126510956Y-61166867D01*
X126342597Y-61335226D01*
X126308925Y-61436241D01*
X126308925Y-61503585D01*
X126342597Y-61604600D01*
X126409940Y-61671943D01*
X126544627Y-61739287D01*
X127352749Y-61739287D01*
X126915017Y-62177020D01*
%TO.C,C90*%
X171096167Y-104528030D02*
X171163511Y-104528030D01*
X171298198Y-104460686D01*
X171365541Y-104393343D01*
X171432885Y-104258656D01*
X171432885Y-104123969D01*
X171399213Y-104022954D01*
X171298198Y-103854595D01*
X171197183Y-103753580D01*
X171028824Y-103652564D01*
X170927809Y-103618893D01*
X170793122Y-103618893D01*
X170658435Y-103686236D01*
X170591091Y-103753580D01*
X170523748Y-103888267D01*
X170523748Y-103955610D01*
X170826793Y-104932091D02*
X170692106Y-105066778D01*
X170591091Y-105100450D01*
X170523748Y-105100450D01*
X170355389Y-105066778D01*
X170187030Y-104965763D01*
X169917656Y-104696389D01*
X169883984Y-104595373D01*
X169883984Y-104528030D01*
X169917656Y-104427015D01*
X170052343Y-104292328D01*
X170153358Y-104258656D01*
X170220702Y-104258656D01*
X170321717Y-104292328D01*
X170490076Y-104460686D01*
X170523748Y-104561702D01*
X170523748Y-104629045D01*
X170490076Y-104730061D01*
X170355389Y-104864748D01*
X170254373Y-104898419D01*
X170187030Y-104898419D01*
X170086015Y-104864748D01*
X169345236Y-104999435D02*
X169277893Y-105066778D01*
X169244221Y-105167793D01*
X169244221Y-105235137D01*
X169277893Y-105336152D01*
X169378908Y-105504511D01*
X169547267Y-105672870D01*
X169715625Y-105773885D01*
X169816641Y-105807557D01*
X169883984Y-105807557D01*
X169984999Y-105773885D01*
X170052343Y-105706541D01*
X170086015Y-105605526D01*
X170086015Y-105538183D01*
X170052343Y-105437167D01*
X169951328Y-105268809D01*
X169782969Y-105100450D01*
X169614610Y-104999435D01*
X169513595Y-104965763D01*
X169446251Y-104965763D01*
X169345236Y-104999435D01*
%TO.C,L43*%
X174133038Y-81574023D02*
X173796321Y-81237306D01*
X173089214Y-81944412D01*
X174200382Y-82584176D02*
X174671787Y-82112771D01*
X173762649Y-82685191D02*
X174099367Y-82011756D01*
X174537100Y-82449489D01*
X174267726Y-83122924D02*
X174705458Y-83560657D01*
X174739130Y-83055580D01*
X174840145Y-83156596D01*
X174941161Y-83190267D01*
X175008504Y-83190267D01*
X175109519Y-83156596D01*
X175277878Y-82988237D01*
X175311550Y-82887222D01*
X175311550Y-82819878D01*
X175277878Y-82718863D01*
X175075848Y-82516832D01*
X174974832Y-82483161D01*
X174907489Y-82483161D01*
%TO.C,C72*%
X115764269Y-62404132D02*
X115831613Y-62404132D01*
X115966300Y-62336788D01*
X116033643Y-62269445D01*
X116100987Y-62134758D01*
X116100987Y-62000071D01*
X116067315Y-61899056D01*
X115966300Y-61730697D01*
X115865285Y-61629682D01*
X115696926Y-61528666D01*
X115595911Y-61494995D01*
X115461224Y-61494995D01*
X115326537Y-61562338D01*
X115259193Y-61629682D01*
X115191850Y-61764369D01*
X115191850Y-61831712D01*
X114888804Y-62000071D02*
X114417399Y-62471475D01*
X115427552Y-62875537D01*
X114249040Y-62774521D02*
X114181697Y-62774521D01*
X114080682Y-62808193D01*
X113912323Y-62976552D01*
X113878651Y-63077567D01*
X113878651Y-63144911D01*
X113912323Y-63245926D01*
X113979666Y-63313269D01*
X114114353Y-63380613D01*
X114922475Y-63380613D01*
X114484743Y-63818346D01*
%TO.C,C88*%
X174692269Y-120697132D02*
X174759613Y-120697132D01*
X174894300Y-120629788D01*
X174961643Y-120562445D01*
X175028987Y-120427758D01*
X175028987Y-120293071D01*
X174995315Y-120192056D01*
X174894300Y-120023697D01*
X174793285Y-119922682D01*
X174624926Y-119821666D01*
X174523911Y-119787995D01*
X174389224Y-119787995D01*
X174254537Y-119855338D01*
X174187193Y-119922682D01*
X174119850Y-120057369D01*
X174119850Y-120124712D01*
X173951491Y-120764475D02*
X173985163Y-120663460D01*
X173985163Y-120596117D01*
X173951491Y-120495101D01*
X173917819Y-120461430D01*
X173816804Y-120427758D01*
X173749460Y-120427758D01*
X173648445Y-120461430D01*
X173513758Y-120596117D01*
X173480086Y-120697132D01*
X173480086Y-120764475D01*
X173513758Y-120865491D01*
X173547430Y-120899163D01*
X173648445Y-120932834D01*
X173715788Y-120932834D01*
X173816804Y-120899163D01*
X173951491Y-120764475D01*
X174052506Y-120730804D01*
X174119850Y-120730804D01*
X174220865Y-120764475D01*
X174355552Y-120899163D01*
X174389224Y-121000178D01*
X174389224Y-121067521D01*
X174355552Y-121168537D01*
X174220865Y-121303224D01*
X174119850Y-121336895D01*
X174052506Y-121336895D01*
X173951491Y-121303224D01*
X173816804Y-121168537D01*
X173783132Y-121067521D01*
X173783132Y-121000178D01*
X173816804Y-120899163D01*
X173278056Y-121437911D02*
X173311727Y-121336895D01*
X173311727Y-121269552D01*
X173278056Y-121168537D01*
X173244384Y-121134865D01*
X173143369Y-121101193D01*
X173076025Y-121101193D01*
X172975010Y-121134865D01*
X172840323Y-121269552D01*
X172806651Y-121370567D01*
X172806651Y-121437911D01*
X172840323Y-121538926D01*
X172873995Y-121572598D01*
X172975010Y-121606269D01*
X173042353Y-121606269D01*
X173143369Y-121572598D01*
X173278056Y-121437911D01*
X173379071Y-121404239D01*
X173446414Y-121404239D01*
X173547430Y-121437911D01*
X173682117Y-121572598D01*
X173715788Y-121673613D01*
X173715788Y-121740956D01*
X173682117Y-121841972D01*
X173547430Y-121976659D01*
X173446414Y-122010330D01*
X173379071Y-122010330D01*
X173278056Y-121976659D01*
X173143369Y-121841972D01*
X173109697Y-121740956D01*
X173109697Y-121673613D01*
X173143369Y-121572598D01*
%TO.C,L75*%
X152642724Y-130143586D02*
X152979441Y-129806869D01*
X152272335Y-129099762D01*
X151767258Y-129604838D02*
X151295854Y-130076243D01*
X152306006Y-130480304D01*
X150689762Y-130682335D02*
X151026480Y-130345617D01*
X151396869Y-130648663D01*
X151329525Y-130648663D01*
X151228510Y-130682335D01*
X151060151Y-130850693D01*
X151026480Y-130951709D01*
X151026480Y-131019052D01*
X151060151Y-131120067D01*
X151228510Y-131288426D01*
X151329525Y-131322098D01*
X151396869Y-131322098D01*
X151497884Y-131288426D01*
X151666243Y-131120067D01*
X151699915Y-131019052D01*
X151699915Y-130951709D01*
%TO.C,C73*%
X129234695Y-129952167D02*
X129234695Y-129884823D01*
X129167351Y-129750136D01*
X129100008Y-129682793D01*
X128965321Y-129615449D01*
X128830634Y-129615449D01*
X128729619Y-129649121D01*
X128561260Y-129750136D01*
X128460245Y-129851151D01*
X128359229Y-130019510D01*
X128325558Y-130120525D01*
X128325558Y-130255212D01*
X128392901Y-130389899D01*
X128460245Y-130457243D01*
X128594932Y-130524586D01*
X128662275Y-130524586D01*
X128830634Y-130827632D02*
X129302038Y-131299037D01*
X129706100Y-130288884D01*
X129504069Y-131501067D02*
X129941802Y-131938800D01*
X129975474Y-131433724D01*
X130076489Y-131534739D01*
X130177504Y-131568411D01*
X130244848Y-131568411D01*
X130345863Y-131534739D01*
X130514222Y-131366380D01*
X130547893Y-131265365D01*
X130547893Y-131198022D01*
X130514222Y-131097006D01*
X130312191Y-130894976D01*
X130211176Y-130861304D01*
X130143832Y-130861304D01*
%TO.C,L1*%
X154468756Y-98595541D02*
X154132038Y-98258823D01*
X153424932Y-98965930D01*
X155074848Y-99201632D02*
X154670787Y-98797571D01*
X154872817Y-98999602D02*
X154165710Y-99706709D01*
X154199382Y-99538350D01*
X154199382Y-99403663D01*
X154165710Y-99302648D01*
%TO.C,C77*%
X131628806Y-122859056D02*
X131628806Y-122791712D01*
X131561462Y-122657025D01*
X131494119Y-122589682D01*
X131359432Y-122522338D01*
X131224745Y-122522338D01*
X131123730Y-122556010D01*
X130955371Y-122657025D01*
X130854356Y-122758040D01*
X130753340Y-122926399D01*
X130719669Y-123027414D01*
X130719669Y-123162101D01*
X130787012Y-123296788D01*
X130854356Y-123364132D01*
X130989043Y-123431475D01*
X131056386Y-123431475D01*
X131224745Y-123734521D02*
X131696149Y-124205926D01*
X132100211Y-123195773D01*
X131898180Y-124407956D02*
X132369585Y-124879361D01*
X132773646Y-123869208D01*
%TO.C,U11*%
X161132161Y-113614820D02*
X161704581Y-114187240D01*
X161738252Y-114288255D01*
X161738252Y-114355598D01*
X161704581Y-114456614D01*
X161569894Y-114591301D01*
X161468878Y-114624972D01*
X161401535Y-114624972D01*
X161300520Y-114591301D01*
X160728100Y-114018881D01*
X160728100Y-115433094D02*
X161132161Y-115029033D01*
X160930130Y-115231064D02*
X160223024Y-114523957D01*
X160391382Y-114557629D01*
X160526069Y-114557629D01*
X160627085Y-114523957D01*
X160054665Y-116106529D02*
X160458726Y-115702468D01*
X160256695Y-115904499D02*
X159549589Y-115197392D01*
X159717947Y-115231064D01*
X159852634Y-115231064D01*
X159953650Y-115197392D01*
%TO.C,C75*%
X156471030Y-112240832D02*
X156471030Y-112173488D01*
X156403686Y-112038801D01*
X156336343Y-111971458D01*
X156201656Y-111904114D01*
X156066969Y-111904114D01*
X155965954Y-111937786D01*
X155797595Y-112038801D01*
X155696580Y-112139816D01*
X155595564Y-112308175D01*
X155561893Y-112409190D01*
X155561893Y-112543877D01*
X155629236Y-112678564D01*
X155696580Y-112745908D01*
X155831267Y-112813251D01*
X155898610Y-112813251D01*
X156066969Y-113116297D02*
X156538373Y-113587702D01*
X156942435Y-112577549D01*
X157144465Y-114193793D02*
X156807748Y-113857076D01*
X157110793Y-113486687D01*
X157110793Y-113554030D01*
X157144465Y-113655045D01*
X157312824Y-113823404D01*
X157413839Y-113857076D01*
X157481183Y-113857076D01*
X157582198Y-113823404D01*
X157750557Y-113655045D01*
X157784228Y-113554030D01*
X157784228Y-113486687D01*
X157750557Y-113385671D01*
X157582198Y-113217313D01*
X157481183Y-113183641D01*
X157413839Y-113183641D01*
%TO.C,L52*%
X160141176Y-75632038D02*
X160477893Y-75295321D01*
X159770787Y-74588214D01*
X158861649Y-75497351D02*
X159198367Y-75160634D01*
X159568756Y-75463680D01*
X159501413Y-75463680D01*
X159400397Y-75497351D01*
X159232038Y-75665710D01*
X159198367Y-75766726D01*
X159198367Y-75834069D01*
X159232038Y-75935084D01*
X159400397Y-76103443D01*
X159501413Y-76137115D01*
X159568756Y-76137115D01*
X159669771Y-76103443D01*
X159838130Y-75935084D01*
X159871802Y-75834069D01*
X159871802Y-75766726D01*
X158625947Y-75867741D02*
X158558603Y-75867741D01*
X158457588Y-75901413D01*
X158289229Y-76069771D01*
X158255558Y-76170787D01*
X158255558Y-76238130D01*
X158289229Y-76339145D01*
X158356573Y-76406489D01*
X158491260Y-76473832D01*
X159299382Y-76473832D01*
X158861649Y-76911565D01*
%TO.C,C85*%
X115958857Y-68400142D02*
X116006476Y-68447761D01*
X116149333Y-68495380D01*
X116244571Y-68495380D01*
X116387428Y-68447761D01*
X116482666Y-68352523D01*
X116530285Y-68257285D01*
X116577904Y-68066809D01*
X116577904Y-67923952D01*
X116530285Y-67733476D01*
X116482666Y-67638238D01*
X116387428Y-67543000D01*
X116244571Y-67495380D01*
X116149333Y-67495380D01*
X116006476Y-67543000D01*
X115958857Y-67590619D01*
X115387428Y-67923952D02*
X115482666Y-67876333D01*
X115530285Y-67828714D01*
X115577904Y-67733476D01*
X115577904Y-67685857D01*
X115530285Y-67590619D01*
X115482666Y-67543000D01*
X115387428Y-67495380D01*
X115196952Y-67495380D01*
X115101714Y-67543000D01*
X115054095Y-67590619D01*
X115006476Y-67685857D01*
X115006476Y-67733476D01*
X115054095Y-67828714D01*
X115101714Y-67876333D01*
X115196952Y-67923952D01*
X115387428Y-67923952D01*
X115482666Y-67971571D01*
X115530285Y-68019190D01*
X115577904Y-68114428D01*
X115577904Y-68304904D01*
X115530285Y-68400142D01*
X115482666Y-68447761D01*
X115387428Y-68495380D01*
X115196952Y-68495380D01*
X115101714Y-68447761D01*
X115054095Y-68400142D01*
X115006476Y-68304904D01*
X115006476Y-68114428D01*
X115054095Y-68019190D01*
X115101714Y-67971571D01*
X115196952Y-67923952D01*
X114101714Y-67495380D02*
X114577904Y-67495380D01*
X114625523Y-67971571D01*
X114577904Y-67923952D01*
X114482666Y-67876333D01*
X114244571Y-67876333D01*
X114149333Y-67923952D01*
X114101714Y-67971571D01*
X114054095Y-68066809D01*
X114054095Y-68304904D01*
X114101714Y-68400142D01*
X114149333Y-68447761D01*
X114244571Y-68495380D01*
X114482666Y-68495380D01*
X114577904Y-68447761D01*
X114625523Y-68400142D01*
%TO.C,R39*%
X129217413Y-58483675D02*
X129116398Y-57911256D01*
X129621474Y-58079614D02*
X128914367Y-57372508D01*
X128644993Y-57641882D01*
X128611321Y-57742897D01*
X128611321Y-57810240D01*
X128644993Y-57911256D01*
X128746008Y-58012271D01*
X128847024Y-58045943D01*
X128914367Y-58045943D01*
X129015382Y-58012271D01*
X129284756Y-57742897D01*
X128274604Y-58012271D02*
X127836871Y-58450004D01*
X128341947Y-58483675D01*
X128240932Y-58584691D01*
X128207260Y-58685706D01*
X128207260Y-58753050D01*
X128240932Y-58854065D01*
X128409291Y-59022424D01*
X128510306Y-59056095D01*
X128577650Y-59056095D01*
X128678665Y-59022424D01*
X128880695Y-58820393D01*
X128914367Y-58719378D01*
X128914367Y-58652034D01*
X128207260Y-59493828D02*
X128072573Y-59628515D01*
X127971558Y-59662187D01*
X127904214Y-59662187D01*
X127735856Y-59628515D01*
X127567497Y-59527500D01*
X127298123Y-59258126D01*
X127264451Y-59157111D01*
X127264451Y-59089767D01*
X127298123Y-58988752D01*
X127432810Y-58854065D01*
X127533825Y-58820393D01*
X127601169Y-58820393D01*
X127702184Y-58854065D01*
X127870543Y-59022424D01*
X127904214Y-59123439D01*
X127904214Y-59190782D01*
X127870543Y-59291798D01*
X127735856Y-59426485D01*
X127634840Y-59460156D01*
X127567497Y-59460156D01*
X127466482Y-59426485D01*
%TO.C,C81*%
X168054356Y-119604548D02*
X168121700Y-119604548D01*
X168256387Y-119537204D01*
X168323730Y-119469861D01*
X168391074Y-119335174D01*
X168391074Y-119200487D01*
X168357402Y-119099472D01*
X168256387Y-118931113D01*
X168155372Y-118830098D01*
X167987013Y-118729082D01*
X167885998Y-118695411D01*
X167751311Y-118695411D01*
X167616624Y-118762754D01*
X167549280Y-118830098D01*
X167481937Y-118964785D01*
X167481937Y-119032128D01*
X167313578Y-119671891D02*
X167347250Y-119570876D01*
X167347250Y-119503533D01*
X167313578Y-119402517D01*
X167279906Y-119368846D01*
X167178891Y-119335174D01*
X167111547Y-119335174D01*
X167010532Y-119368846D01*
X166875845Y-119503533D01*
X166842173Y-119604548D01*
X166842173Y-119671891D01*
X166875845Y-119772907D01*
X166909517Y-119806579D01*
X167010532Y-119840250D01*
X167077875Y-119840250D01*
X167178891Y-119806579D01*
X167313578Y-119671891D01*
X167414593Y-119638220D01*
X167481937Y-119638220D01*
X167582952Y-119671891D01*
X167717639Y-119806579D01*
X167751311Y-119907594D01*
X167751311Y-119974937D01*
X167717639Y-120075953D01*
X167582952Y-120210640D01*
X167481937Y-120244311D01*
X167414593Y-120244311D01*
X167313578Y-120210640D01*
X167178891Y-120075953D01*
X167145219Y-119974937D01*
X167145219Y-119907594D01*
X167178891Y-119806579D01*
X166774830Y-121018762D02*
X167178891Y-120614701D01*
X166976860Y-120816731D02*
X166269753Y-120109624D01*
X166438112Y-120143296D01*
X166572799Y-120143296D01*
X166673814Y-120109624D01*
%TO.C,U1*%
X122842271Y-78249922D02*
X123414691Y-77677502D01*
X123515706Y-77643830D01*
X123583050Y-77643830D01*
X123684065Y-77677502D01*
X123818752Y-77812189D01*
X123852424Y-77913204D01*
X123852424Y-77980548D01*
X123818752Y-78081563D01*
X123246332Y-78653983D01*
X124660546Y-78653983D02*
X124256485Y-78249922D01*
X124458515Y-78451952D02*
X123751409Y-79159059D01*
X123785080Y-78990700D01*
X123785080Y-78856013D01*
X123751409Y-78754998D01*
%TO.C,L71*%
X135926176Y-126254038D02*
X136262893Y-125917321D01*
X135555787Y-125210214D01*
X135050710Y-125715290D02*
X134579306Y-126186695D01*
X135589458Y-126590756D01*
X134646649Y-127533565D02*
X135050710Y-127129504D01*
X134848680Y-127331535D02*
X134141573Y-126624428D01*
X134309932Y-126658100D01*
X134444619Y-126658100D01*
X134545634Y-126624428D01*
%TO.C,L37*%
X175504638Y-85993623D02*
X175167921Y-85656906D01*
X174460814Y-86364012D01*
X174965890Y-86869089D02*
X175403623Y-87306822D01*
X175437295Y-86801745D01*
X175538310Y-86902761D01*
X175639326Y-86936432D01*
X175706669Y-86936432D01*
X175807684Y-86902761D01*
X175976043Y-86734402D01*
X176009715Y-86633386D01*
X176009715Y-86566043D01*
X175976043Y-86465028D01*
X175774013Y-86262997D01*
X175672997Y-86229325D01*
X175605654Y-86229325D01*
X175639326Y-87542524D02*
X176110730Y-88013928D01*
X176514791Y-87003776D01*
%TO.C,C71*%
X129433708Y-64449754D02*
X129433708Y-64382410D01*
X129366364Y-64247723D01*
X129299021Y-64180380D01*
X129164334Y-64113036D01*
X129029647Y-64113036D01*
X128928632Y-64146708D01*
X128760273Y-64247723D01*
X128659258Y-64348738D01*
X128558242Y-64517097D01*
X128524571Y-64618112D01*
X128524571Y-64752799D01*
X128591914Y-64887486D01*
X128659258Y-64954830D01*
X128793945Y-65022173D01*
X128861288Y-65022173D01*
X129029647Y-65325219D02*
X129501051Y-65796624D01*
X129905113Y-64786471D01*
X130847922Y-65729280D02*
X130443861Y-65325219D01*
X130645891Y-65527250D02*
X129938784Y-66234357D01*
X129972456Y-66065998D01*
X129972456Y-65931311D01*
X129938784Y-65830296D01*
%TO.C,U4*%
X129439221Y-106458781D02*
X129897157Y-106000845D01*
X129977969Y-105973908D01*
X130031844Y-105973908D01*
X130112656Y-106000845D01*
X130220406Y-106108595D01*
X130247343Y-106189407D01*
X130247343Y-106243282D01*
X130220406Y-106324094D01*
X129762470Y-106782030D01*
X130462842Y-107105279D02*
X130839966Y-106728155D01*
X130112656Y-107186091D02*
X130382030Y-106647343D01*
X130732216Y-106997529D01*
%TO.C,D2*%
X138365579Y-114334755D02*
X137658473Y-113627648D01*
X137490114Y-113796007D01*
X137422770Y-113930694D01*
X137422770Y-114065381D01*
X137456442Y-114166396D01*
X137557457Y-114334755D01*
X137658473Y-114435770D01*
X137826831Y-114536786D01*
X137927847Y-114570457D01*
X138062534Y-114570457D01*
X138197221Y-114503114D01*
X138365579Y-114334755D01*
X137052381Y-114368427D02*
X136985037Y-114368427D01*
X136884022Y-114402098D01*
X136715663Y-114570457D01*
X136681992Y-114671473D01*
X136681992Y-114738816D01*
X136715663Y-114839831D01*
X136783007Y-114907175D01*
X136917694Y-114974518D01*
X137725816Y-114974518D01*
X137288083Y-115412251D01*
%TO.C,L56*%
X164388877Y-91415937D02*
X164725594Y-91079220D01*
X164018488Y-90372113D01*
X163109350Y-91281250D02*
X163446068Y-90944533D01*
X163816457Y-91247579D01*
X163749114Y-91247579D01*
X163648098Y-91281250D01*
X163479739Y-91449609D01*
X163446068Y-91550625D01*
X163446068Y-91617968D01*
X163479739Y-91718983D01*
X163648098Y-91887342D01*
X163749114Y-91921014D01*
X163816457Y-91921014D01*
X163917472Y-91887342D01*
X164085831Y-91718983D01*
X164119503Y-91617968D01*
X164119503Y-91550625D01*
X162469587Y-91921014D02*
X162604274Y-91786327D01*
X162705289Y-91752655D01*
X162772633Y-91752655D01*
X162940991Y-91786327D01*
X163109350Y-91887342D01*
X163378724Y-92156716D01*
X163412396Y-92257731D01*
X163412396Y-92325075D01*
X163378724Y-92426090D01*
X163244037Y-92560777D01*
X163143022Y-92594449D01*
X163075678Y-92594449D01*
X162974663Y-92560777D01*
X162806304Y-92392418D01*
X162772633Y-92291403D01*
X162772633Y-92224060D01*
X162806304Y-92123044D01*
X162940991Y-91988357D01*
X163042007Y-91954686D01*
X163109350Y-91954686D01*
X163210365Y-91988357D01*
%TO.C,L55*%
X159221324Y-86531786D02*
X159558041Y-86195069D01*
X158850935Y-85487962D01*
X157941797Y-86397099D02*
X158278515Y-86060382D01*
X158648904Y-86363428D01*
X158581561Y-86363428D01*
X158480545Y-86397099D01*
X158312186Y-86565458D01*
X158278515Y-86666474D01*
X158278515Y-86733817D01*
X158312186Y-86834832D01*
X158480545Y-87003191D01*
X158581561Y-87036863D01*
X158648904Y-87036863D01*
X158749919Y-87003191D01*
X158918278Y-86834832D01*
X158951950Y-86733817D01*
X158951950Y-86666474D01*
X157268362Y-87070535D02*
X157605080Y-86733817D01*
X157975469Y-87036863D01*
X157908125Y-87036863D01*
X157807110Y-87070535D01*
X157638751Y-87238893D01*
X157605080Y-87339909D01*
X157605080Y-87407252D01*
X157638751Y-87508267D01*
X157807110Y-87676626D01*
X157908125Y-87710298D01*
X157975469Y-87710298D01*
X158076484Y-87676626D01*
X158244843Y-87508267D01*
X158278515Y-87407252D01*
X158278515Y-87339909D01*
%TO.C,L10*%
X141793576Y-106746838D02*
X142130293Y-106410121D01*
X141423187Y-105703014D01*
X141187484Y-107352930D02*
X141591545Y-106948869D01*
X141389515Y-107150900D02*
X140682408Y-106443793D01*
X140850767Y-106477464D01*
X140985454Y-106477464D01*
X141086469Y-106443793D01*
X140042645Y-107083556D02*
X139975301Y-107150900D01*
X139941629Y-107251915D01*
X139941629Y-107319258D01*
X139975301Y-107420274D01*
X140076316Y-107588632D01*
X140244675Y-107756991D01*
X140413034Y-107858006D01*
X140514049Y-107891678D01*
X140581393Y-107891678D01*
X140682408Y-107858006D01*
X140749751Y-107790663D01*
X140783423Y-107689648D01*
X140783423Y-107622304D01*
X140749751Y-107521289D01*
X140648736Y-107352930D01*
X140480377Y-107184571D01*
X140312019Y-107083556D01*
X140211003Y-107049884D01*
X140143660Y-107049884D01*
X140042645Y-107083556D01*
%TO.C,L47*%
X169279724Y-81299386D02*
X169616441Y-80962669D01*
X168909335Y-80255562D01*
X168269571Y-81366730D02*
X168740976Y-81838135D01*
X168168556Y-80928997D02*
X168841991Y-81265715D01*
X168404258Y-81703448D01*
X167730823Y-81434074D02*
X167259419Y-81905478D01*
X168269571Y-82309539D01*
%TO.C,L22*%
X185004238Y-105018223D02*
X184667521Y-104681506D01*
X183960414Y-105388612D01*
X184566506Y-105860017D02*
X184566506Y-105927361D01*
X184600177Y-106028376D01*
X184768536Y-106196735D01*
X184869551Y-106230406D01*
X184936895Y-106230406D01*
X185037910Y-106196735D01*
X185105254Y-106129391D01*
X185172597Y-105994704D01*
X185172597Y-105186582D01*
X185610330Y-105624315D01*
X185239941Y-106533452D02*
X185239941Y-106600796D01*
X185273613Y-106701811D01*
X185441971Y-106870170D01*
X185542987Y-106903841D01*
X185610330Y-106903841D01*
X185711345Y-106870170D01*
X185778689Y-106802826D01*
X185846032Y-106668139D01*
X185846032Y-105860017D01*
X186283765Y-106297750D01*
%TO.C,C83*%
X162179999Y-121600452D02*
X162247343Y-121600452D01*
X162382030Y-121533108D01*
X162449373Y-121465765D01*
X162516717Y-121331078D01*
X162516717Y-121196391D01*
X162483045Y-121095376D01*
X162382030Y-120927017D01*
X162281015Y-120826002D01*
X162112656Y-120724986D01*
X162011641Y-120691315D01*
X161876954Y-120691315D01*
X161742267Y-120758658D01*
X161674923Y-120826002D01*
X161607580Y-120960689D01*
X161607580Y-121028032D01*
X161439221Y-121667795D02*
X161472893Y-121566780D01*
X161472893Y-121499437D01*
X161439221Y-121398421D01*
X161405549Y-121364750D01*
X161304534Y-121331078D01*
X161237190Y-121331078D01*
X161136175Y-121364750D01*
X161001488Y-121499437D01*
X160967816Y-121600452D01*
X160967816Y-121667795D01*
X161001488Y-121768811D01*
X161035160Y-121802483D01*
X161136175Y-121836154D01*
X161203518Y-121836154D01*
X161304534Y-121802483D01*
X161439221Y-121667795D01*
X161540236Y-121634124D01*
X161607580Y-121634124D01*
X161708595Y-121667795D01*
X161843282Y-121802483D01*
X161876954Y-121903498D01*
X161876954Y-121970841D01*
X161843282Y-122071857D01*
X161708595Y-122206544D01*
X161607580Y-122240215D01*
X161540236Y-122240215D01*
X161439221Y-122206544D01*
X161304534Y-122071857D01*
X161270862Y-121970841D01*
X161270862Y-121903498D01*
X161304534Y-121802483D01*
X160631099Y-121869826D02*
X160193366Y-122307559D01*
X160698442Y-122341231D01*
X160597427Y-122442246D01*
X160563755Y-122543261D01*
X160563755Y-122610605D01*
X160597427Y-122711620D01*
X160765786Y-122879979D01*
X160866801Y-122913650D01*
X160934144Y-122913650D01*
X161035160Y-122879979D01*
X161237190Y-122677948D01*
X161270862Y-122576933D01*
X161270862Y-122509589D01*
%TO.C,L27*%
X186680638Y-97931623D02*
X186343921Y-97594906D01*
X185636814Y-98302012D01*
X186242906Y-98773417D02*
X186242906Y-98840761D01*
X186276577Y-98941776D01*
X186444936Y-99110135D01*
X186545951Y-99143806D01*
X186613295Y-99143806D01*
X186714310Y-99110135D01*
X186781654Y-99042791D01*
X186848997Y-98908104D01*
X186848997Y-98099982D01*
X187286730Y-98537715D01*
X186815326Y-99480524D02*
X187286730Y-99951928D01*
X187690791Y-98941776D01*
%TO.C,R44*%
X160990107Y-120410559D02*
X160889092Y-119838140D01*
X161394168Y-120006498D02*
X160687061Y-119299392D01*
X160417687Y-119568766D01*
X160384015Y-119669781D01*
X160384015Y-119737124D01*
X160417687Y-119838140D01*
X160518702Y-119939155D01*
X160619718Y-119972827D01*
X160687061Y-119972827D01*
X160788076Y-119939155D01*
X161057450Y-119669781D01*
X159912611Y-120545247D02*
X160384015Y-121016651D01*
X159811595Y-120107514D02*
X160485031Y-120444231D01*
X160047298Y-120881964D01*
X159239176Y-121218682D02*
X159710580Y-121690086D01*
X159138160Y-120780949D02*
X159811595Y-121117666D01*
X159373863Y-121555399D01*
%TO.C,L53*%
X161451087Y-87147976D02*
X161114370Y-86811259D01*
X160407263Y-87518365D01*
X161316400Y-88427503D02*
X160979683Y-88090785D01*
X161282729Y-87720396D01*
X161282729Y-87787739D01*
X161316400Y-87888755D01*
X161484759Y-88057114D01*
X161585775Y-88090785D01*
X161653118Y-88090785D01*
X161754133Y-88057114D01*
X161922492Y-87888755D01*
X161956164Y-87787739D01*
X161956164Y-87720396D01*
X161922492Y-87619381D01*
X161754133Y-87451022D01*
X161653118Y-87417350D01*
X161585775Y-87417350D01*
X161585775Y-88696877D02*
X162023507Y-89134610D01*
X162057179Y-88629533D01*
X162158194Y-88730549D01*
X162259210Y-88764220D01*
X162326553Y-88764220D01*
X162427568Y-88730549D01*
X162595927Y-88562190D01*
X162629599Y-88461175D01*
X162629599Y-88393831D01*
X162595927Y-88292816D01*
X162393897Y-88090785D01*
X162292881Y-88057114D01*
X162225538Y-88057114D01*
D13*
%TO.C,R15*%
X130325897Y-82045830D02*
X130661430Y-81710297D01*
X129586970Y-81306903D02*
X129922503Y-80971370D01*
%TO.C,R11*%
X128324630Y-83894697D02*
X127989097Y-84230230D01*
X127585703Y-83155770D02*
X127250170Y-83491303D01*
%TO.C,C19*%
X132239970Y-98138781D02*
X132438781Y-97939970D01*
X132961219Y-98860030D02*
X133160030Y-98661219D01*
%TO.C,C18*%
X131579219Y-97488030D02*
X131778030Y-97289219D01*
X130857970Y-96766781D02*
X131056781Y-96567970D01*
%TO.C,C13*%
X130003427Y-84950801D02*
X130202238Y-85149612D01*
X129282178Y-85672050D02*
X129480989Y-85870861D01*
%TO.C,C2*%
X130421781Y-72031570D02*
X130222970Y-72230381D01*
X131143030Y-72752819D02*
X130944219Y-72951630D01*
%TO.C,C12*%
X130425178Y-84656050D02*
X130623989Y-84854861D01*
X131146427Y-83934801D02*
X131345238Y-84133612D01*
%TO.C,C1*%
X130050830Y-71686019D02*
X129852019Y-71884830D01*
X129329581Y-70964770D02*
X129130770Y-71163581D01*
%TO.C,R6*%
X130329740Y-78262067D02*
X129994207Y-77926534D01*
X131068667Y-77523140D02*
X130733134Y-77187607D01*
%TO.C,R14*%
X131720570Y-81408503D02*
X132056103Y-81072970D01*
X132459497Y-82147430D02*
X132795030Y-81811897D01*
%TO.C,R10*%
X134215103Y-78913970D02*
X133879570Y-79249503D01*
X134954030Y-79652897D02*
X134618497Y-79988430D01*
%TO.C,C21*%
X143136219Y-109172030D02*
X143335030Y-108973219D01*
X142414970Y-108450781D02*
X142613781Y-108251970D01*
%TO.C,C20*%
X141739219Y-107724230D02*
X141938030Y-107525419D01*
X141017970Y-107002981D02*
X141216781Y-106804170D01*
%TO.C,R26*%
X127905399Y-115560964D02*
X128240932Y-115225431D01*
X127166472Y-114822037D02*
X127502005Y-114486504D01*
%TO.C,R21*%
X130581940Y-101434384D02*
X130917473Y-101098851D01*
X129843013Y-100695457D02*
X130178546Y-100359924D01*
%TO.C,R25*%
X125211322Y-112795047D02*
X125546855Y-112459514D01*
X124472395Y-112056120D02*
X124807928Y-111720587D01*
%TO.C,R24*%
X124043888Y-111627613D02*
X124379421Y-111292080D01*
X123304961Y-110888686D02*
X123640494Y-110553153D01*
%TO.C,R20*%
X128406173Y-99258616D02*
X128741706Y-98923083D01*
X129145100Y-99997543D02*
X129480633Y-99662010D01*
%TO.C,R23*%
X140738822Y-111591266D02*
X141074355Y-111255733D01*
X139999895Y-110852339D02*
X140335428Y-110516806D01*
%TO.C,R27*%
X128333905Y-115989472D02*
X128669438Y-115653939D01*
X129072832Y-116728399D02*
X129408365Y-116392866D01*
%TO.C,C11*%
X133931370Y-82912819D02*
X134130181Y-83111630D01*
X134652619Y-82191570D02*
X134851430Y-82390381D01*
%TO.C,C10*%
X135708627Y-81139378D02*
X135907438Y-81338189D01*
X134987378Y-81860627D02*
X135186189Y-82059438D01*
%TO.C,C16*%
X130561219Y-92660030D02*
X130760030Y-92461219D01*
X129839970Y-91938781D02*
X130038781Y-91739970D01*
%TO.C,C17*%
X137080970Y-99332181D02*
X137279781Y-99133370D01*
X137802219Y-100053430D02*
X138001030Y-99854619D01*
%TO.C,C24*%
X132557863Y-115854112D02*
X132756674Y-116052923D01*
X133279112Y-115132863D02*
X133477923Y-115331674D01*
%TO.C,C25*%
X125722781Y-113052570D02*
X125523970Y-113251381D01*
X126444030Y-113773819D02*
X126245219Y-113972630D01*
%TO.C,C22*%
X125501502Y-106035290D02*
X125700313Y-106234101D01*
X126222751Y-105314041D02*
X126421562Y-105512852D01*
%TO.C,C8*%
X137139970Y-87761219D02*
X137338781Y-87960030D01*
X137861219Y-87039970D02*
X138060030Y-87238781D01*
%TO.C,C23*%
X134032863Y-114404112D02*
X134231674Y-114602923D01*
X134754112Y-113682863D02*
X134952923Y-113881674D01*
%TO.C,C3*%
X126118219Y-72469030D02*
X126317030Y-72270219D01*
X125396970Y-71747781D02*
X125595781Y-71548970D01*
%TO.C,R22*%
X138563052Y-109415499D02*
X138898585Y-109079966D01*
X139301979Y-110154426D02*
X139637512Y-109818893D01*
%TO.C,L8*%
X132817313Y-93613221D02*
X133186779Y-93982687D01*
X131813221Y-94617313D02*
X132182687Y-94986779D01*
%TO.C,L12*%
X136094179Y-97167887D02*
X135724713Y-96798421D01*
X135090087Y-98171979D02*
X134720621Y-97802513D01*
%TO.C,C41*%
X145838781Y-72960030D02*
X145639970Y-72761219D01*
X146560030Y-72238781D02*
X146361219Y-72039970D01*
%TO.C,C44*%
X156192562Y-61790811D02*
X156391373Y-61989622D01*
X156913811Y-61069562D02*
X157112622Y-61268373D01*
%TO.C,C58*%
X142038781Y-75539970D02*
X141839970Y-75738781D01*
X142760030Y-76261219D02*
X142561219Y-76460030D01*
%TO.C,C61*%
X155323830Y-84055819D02*
X155125019Y-84254630D01*
X154602581Y-83334570D02*
X154403770Y-83533381D01*
%TO.C,C28*%
X127362852Y-47042400D02*
X126840348Y-47042400D01*
X127362852Y-48512400D02*
X126840348Y-48512400D01*
%TO.C,C32*%
X132737570Y-50157781D02*
X132936381Y-49958970D01*
X133458819Y-50879030D02*
X133657630Y-50680219D01*
%TO.C,C36*%
X139880630Y-58234981D02*
X139681819Y-58036170D01*
X139159381Y-58956230D02*
X138960570Y-58757419D01*
%TO.C,C45*%
X145788781Y-67770030D02*
X145589970Y-67571219D01*
X146510030Y-67048781D02*
X146311219Y-66849970D01*
%TO.C,C56*%
X146819219Y-77803030D02*
X147018030Y-77604219D01*
X146097970Y-77081781D02*
X146296781Y-76882970D01*
%TO.C,C62*%
X142147110Y-85441297D02*
X141948299Y-85640108D01*
X141425861Y-84720048D02*
X141227050Y-84918859D01*
%TO.C,C49*%
X151960030Y-67161219D02*
X151761219Y-67360030D01*
X151238781Y-66439970D02*
X151039970Y-66638781D01*
%TO.C,C51*%
X156558381Y-69643970D02*
X156359570Y-69842781D01*
X157279630Y-70365219D02*
X157080819Y-70564030D01*
%TO.C,C53*%
X155160030Y-76138781D02*
X154961219Y-75939970D01*
X154438781Y-76860030D02*
X154239970Y-76661219D01*
%TO.C,C29*%
X137776852Y-47067800D02*
X137254348Y-47067800D01*
X137776852Y-48537800D02*
X137254348Y-48537800D01*
%TO.C,C34*%
X137116419Y-54587430D02*
X137315230Y-54388619D01*
X136395170Y-53866181D02*
X136593981Y-53667370D01*
%TO.C,C37*%
X141383619Y-56283570D02*
X141582430Y-56482381D01*
X140662370Y-57004819D02*
X140861181Y-57203630D01*
%TO.C,C46*%
X149939030Y-63619781D02*
X149740219Y-63420970D01*
X149217781Y-64341030D02*
X149018970Y-64142219D01*
%TO.C,C63*%
X144264781Y-87639970D02*
X144065970Y-87838781D01*
X144986030Y-88361219D02*
X144787219Y-88560030D01*
%TO.C,C64*%
X152349161Y-95597868D02*
X152150350Y-95796679D01*
X151627912Y-94876619D02*
X151429101Y-95075430D01*
%TO.C,C65*%
X155222230Y-98432219D02*
X155023419Y-98631030D01*
X154500981Y-97710970D02*
X154302170Y-97909781D01*
%TO.C,C47*%
X178630811Y-83065962D02*
X178829622Y-83264773D01*
X177909562Y-83787211D02*
X178108373Y-83986022D01*
%TO.C,C59*%
X164421419Y-97945230D02*
X164620230Y-97746419D01*
X163700170Y-97223981D02*
X163898981Y-97025170D01*
%TO.C,C60*%
X156445819Y-85499230D02*
X156644630Y-85300419D01*
X155724570Y-84777981D02*
X155923381Y-84579170D01*
%TO.C,L31*%
X143751487Y-70384379D02*
X143382021Y-70014913D01*
X144755579Y-69380287D02*
X144386113Y-69010821D01*
%TO.C,L35*%
X152717687Y-61138779D02*
X152348221Y-60769313D01*
X153721779Y-60134687D02*
X153352313Y-59765221D01*
%TO.C,L59*%
X140982687Y-78713221D02*
X140613221Y-79082687D01*
X141986779Y-79717313D02*
X141617313Y-80086779D01*
%TO.C,L63*%
X149923687Y-87705221D02*
X149554221Y-88074687D01*
X150927779Y-88709313D02*
X150558313Y-89078779D01*
%TO.C,L32*%
X142035821Y-66764087D02*
X142405287Y-66394621D01*
X143039913Y-67768179D02*
X143409379Y-67398713D01*
%TO.C,L36*%
X149390287Y-59409621D02*
X149020821Y-59779087D01*
X150394379Y-60413713D02*
X150024913Y-60783179D01*
%TO.C,L60*%
X139597421Y-82740313D02*
X139966887Y-83109779D01*
X140601513Y-81736221D02*
X140970979Y-82105687D01*
%TO.C,L64*%
X147028087Y-90450379D02*
X146658621Y-90080913D01*
X148032179Y-89446287D02*
X147662713Y-89076821D01*
%TO.C,L39*%
X148907313Y-66750221D02*
X149276779Y-67119687D01*
X147903221Y-67754313D02*
X148272687Y-68123779D01*
%TO.C,L57*%
X150038779Y-77660313D02*
X149669313Y-78029779D01*
X149034687Y-76656221D02*
X148665221Y-77025687D01*
%TO.C,L17*%
X133755421Y-51320887D02*
X134124887Y-50951421D01*
X134759513Y-52324979D02*
X135128979Y-51955513D01*
%TO.C,L23*%
X137387621Y-55156287D02*
X137757087Y-54786821D01*
X138391713Y-56160379D02*
X138761179Y-55790913D01*
%TO.C,L42*%
X153530113Y-68555579D02*
X153899579Y-68186113D01*
X152526021Y-67551487D02*
X152895487Y-67182021D01*
%TO.C,L48*%
X158717313Y-71786779D02*
X159086779Y-71417313D01*
X157713221Y-70782687D02*
X158082687Y-70413221D01*
%TO.C,L54*%
X153174513Y-76453021D02*
X153543979Y-76822487D01*
X152170421Y-77457113D02*
X152539887Y-77826579D01*
%TO.C,L40*%
X152082687Y-64786779D02*
X151713221Y-64417313D01*
X153086779Y-63782687D02*
X152717313Y-63413221D01*
%TO.C,L58*%
X153135621Y-79667287D02*
X153505087Y-79297821D01*
X154139713Y-80671379D02*
X154509179Y-80301913D01*
%TO.C,L33*%
X179018221Y-90792487D02*
X179387687Y-90423021D01*
X180022313Y-91796579D02*
X180391779Y-91427113D01*
%TO.C,L61*%
X157917313Y-98813221D02*
X158286779Y-99182687D01*
X156913221Y-99817313D02*
X157282687Y-100186779D01*
%TO.C,L65*%
X151308779Y-92519687D02*
X150939313Y-92150221D01*
X150304687Y-93523779D02*
X149935221Y-93154313D01*
%TO.C,L34*%
X180529478Y-86967786D02*
X180160012Y-86598320D01*
X179525386Y-87971878D02*
X179155920Y-87602412D01*
%TO.C,L62*%
X160917313Y-99386779D02*
X161286779Y-99017313D01*
X159913221Y-98382687D02*
X160282687Y-98013221D01*
%TO.C,L66*%
X151955313Y-90475779D02*
X152324779Y-90106313D01*
X150951221Y-89471687D02*
X151320687Y-89102221D01*
%TO.C,R29*%
X147837230Y-71098303D02*
X147501697Y-70762770D01*
X147098303Y-71837230D02*
X146762770Y-71501697D01*
%TO.C,R31*%
X155802097Y-62048370D02*
X156137630Y-62383903D01*
X155063170Y-62787297D02*
X155398703Y-63122830D01*
%TO.C,R32*%
X144174230Y-77290697D02*
X143838697Y-77626230D01*
X143435303Y-76551770D02*
X143099770Y-76887303D01*
%TO.C,R34*%
X152801697Y-86637230D02*
X153137230Y-86301697D01*
X152062770Y-85898303D02*
X152398303Y-85562770D01*
%TO.C,R30*%
X177418334Y-84223407D02*
X177753867Y-84558940D01*
X176679407Y-84962334D02*
X177014940Y-85297867D01*
%TO.C,R33*%
X162403770Y-96191303D02*
X162739303Y-95855770D01*
X163142697Y-96930230D02*
X163478230Y-96594697D01*
%TO.C,R35*%
X153698303Y-86862770D02*
X153362770Y-87198303D01*
X154437230Y-87601697D02*
X154101697Y-87937230D01*
D14*
%TO.C,U7*%
X142488063Y-83019296D02*
X143052334Y-82455025D01*
X146200374Y-79239103D02*
X146764645Y-78674832D01*
X151075168Y-82985355D02*
X150510897Y-83549626D01*
X147328916Y-86731607D02*
X146764645Y-87295878D01*
D15*
X146170117Y-78389161D02*
G75*
G03*
X146170117Y-78389161I-254000J0D01*
G01*
D14*
%TO.C,U8*%
X161325168Y-93135355D02*
X160760897Y-93699626D01*
X157578916Y-96881607D02*
X157014645Y-97445878D01*
X156450374Y-89389103D02*
X157014645Y-88824832D01*
X152738063Y-93169296D02*
X153302334Y-92605025D01*
D15*
X156420117Y-88539161D02*
G75*
G03*
X156420117Y-88539161I-254000J0D01*
G01*
D13*
%TO.C,R28*%
X167695467Y-93956940D02*
X167359934Y-93621407D01*
X166956540Y-94695867D02*
X166621007Y-94360334D01*
%TO.C,C40*%
X167835981Y-93424030D02*
X167637170Y-93225219D01*
X168557230Y-92702781D02*
X168358419Y-92503970D01*
%TO.C,L29*%
X172428087Y-97560421D02*
X172058621Y-97929887D01*
X173432179Y-98564513D02*
X173062713Y-98933979D01*
%TO.C,L30*%
X169670186Y-97522278D02*
X169300720Y-97152812D01*
X170674278Y-96518186D02*
X170304812Y-96148720D01*
%TO.C,L7*%
X128713221Y-95482687D02*
X129082687Y-95113221D01*
X129717313Y-96486779D02*
X130086779Y-96117313D01*
%TO.C,L9*%
X141832621Y-105016113D02*
X142202087Y-105385579D01*
X142836713Y-104012021D02*
X143206179Y-104381487D01*
%TO.C,C27*%
X156797030Y-113149781D02*
X156598219Y-112950970D01*
X156075781Y-113871030D02*
X155876970Y-113672219D01*
%TO.C,R18*%
X138967230Y-104849697D02*
X138631697Y-105185230D01*
X138228303Y-104110770D02*
X137892770Y-104446303D01*
%TO.C,R4*%
X146598303Y-96662770D02*
X146262770Y-96998303D01*
X147337230Y-97401697D02*
X147001697Y-97737230D01*
%TO.C,C42*%
X175358770Y-91853619D02*
X175557581Y-92052430D01*
X176080019Y-91132370D02*
X176278830Y-91331181D01*
%TO.C,L51*%
X156386779Y-74017313D02*
X156017313Y-74386779D01*
X155382687Y-73013221D02*
X155013221Y-73382687D01*
%TO.C,C30*%
X191670000Y-100398252D02*
X191670000Y-99875748D01*
X193140000Y-100398252D02*
X193140000Y-99875748D01*
%TO.C,C52*%
X164431638Y-85224389D02*
X164232827Y-85025578D01*
X163710389Y-85945638D02*
X163511578Y-85746827D01*
%TO.C,L14*%
X134225152Y-47169000D02*
X133702648Y-47169000D01*
X134225152Y-48589000D02*
X133702648Y-48589000D01*
%TO.C,C89*%
X173412543Y-114126990D02*
X173782010Y-114496457D01*
X174451990Y-113087543D02*
X174821457Y-113457010D01*
%TO.C,L6*%
X143661421Y-110147287D02*
X144030887Y-109777821D01*
X144665513Y-111151379D02*
X145034979Y-110781913D01*
%TO.C,L41*%
X171081887Y-86054221D02*
X170712421Y-86423687D01*
X172085979Y-87058313D02*
X171716513Y-87427779D01*
%TO.C,L49*%
X164604887Y-81152021D02*
X164235421Y-81521487D01*
X165608979Y-82156113D02*
X165239513Y-82525579D01*
%TO.C,L20*%
X137133621Y-51317313D02*
X137503087Y-51686779D01*
X138137713Y-50313221D02*
X138507179Y-50682687D01*
%TO.C,C84*%
X112768748Y-68045000D02*
X113291252Y-68045000D01*
X112768748Y-66575000D02*
X113291252Y-66575000D01*
%TO.C,D1*%
X142145563Y-122569889D02*
X139812111Y-120236437D01*
X139812111Y-120236437D02*
X143630487Y-116418060D01*
X142145563Y-122569889D02*
X145963940Y-118751513D01*
D10*
%TO.C,L67*%
X120385116Y-64836617D02*
X121339711Y-63882023D01*
X116849583Y-61301084D02*
X117804177Y-60346489D01*
X118263796Y-66957938D02*
X117450623Y-67771111D01*
X113915089Y-64235577D02*
X114728262Y-63422404D01*
X117804177Y-60346489D02*
X121339711Y-63882023D01*
X117450623Y-67771111D02*
X113915089Y-64235577D01*
D13*
%TO.C,R41*%
X119426970Y-69394303D02*
X119762503Y-69058770D01*
X120165897Y-70133230D02*
X120501430Y-69797697D01*
%TO.C,L15*%
X193115000Y-103497748D02*
X193115000Y-104020252D01*
X191695000Y-103497748D02*
X191695000Y-104020252D01*
%TO.C,L44*%
X167969221Y-88074313D02*
X168338687Y-88443779D01*
X168973313Y-87070221D02*
X169342779Y-87439687D01*
%TO.C,R17*%
X128737230Y-94501697D02*
X128401697Y-94837230D01*
X127998303Y-93762770D02*
X127662770Y-94098303D01*
%TO.C,C7*%
X153757978Y-104314227D02*
X153956789Y-104513038D01*
X154479227Y-103592978D02*
X154678038Y-103791789D01*
%TO.C,C9*%
X148267019Y-98808830D02*
X148465830Y-98610019D01*
X147545770Y-98087581D02*
X147744581Y-97888770D01*
%TO.C,L18*%
X186753687Y-105053421D02*
X186384221Y-105422887D01*
X187757779Y-106057513D02*
X187388313Y-106426979D01*
%TO.C,L74*%
X155627000Y-52585252D02*
X155627000Y-52062748D01*
X157047000Y-52585252D02*
X157047000Y-52062748D01*
%TO.C,C79*%
X124975252Y-97055000D02*
X124452748Y-97055000D01*
X124975252Y-98525000D02*
X124452748Y-98525000D01*
%TO.C,C67*%
X121023781Y-58118030D02*
X120824970Y-57919219D01*
X121745030Y-57396781D02*
X121546219Y-57197970D01*
%TO.C,C74*%
X132088478Y-128110727D02*
X131858273Y-127880522D01*
X132809727Y-127389478D02*
X132579522Y-127159273D01*
%TO.C,L13*%
X129113221Y-50817313D02*
X129482687Y-51186779D01*
X130117313Y-49813221D02*
X130486779Y-50182687D01*
%TO.C,U9*%
X126101884Y-61595000D02*
X125766008Y-61259124D01*
X121883992Y-61259124D02*
X121548116Y-61595000D01*
X123825000Y-59318116D02*
X124160876Y-59653992D01*
X125766008Y-61930876D02*
X126101884Y-61595000D01*
X124160876Y-63536008D02*
X123825000Y-63871884D01*
X121548116Y-61595000D02*
X121883992Y-61930876D01*
X123489124Y-59653992D02*
X123825000Y-59318116D01*
%TO.C,L26*%
X141378214Y-53582322D02*
X141747680Y-53951788D01*
X140374122Y-54586414D02*
X140743588Y-54955880D01*
%TO.C,R46*%
X159247123Y-120233842D02*
X158911590Y-120569375D01*
X159986050Y-120972769D02*
X159650517Y-121308302D01*
%TO.C,C86*%
X158884219Y-116157030D02*
X159083030Y-115958219D01*
X158162970Y-115435781D02*
X158361781Y-115236970D01*
%TO.C,C91*%
X173815030Y-108084219D02*
X173616219Y-108283030D01*
X173093781Y-107362970D02*
X172894970Y-107561781D01*
%TO.C,R45*%
X157933298Y-119048683D02*
X157703093Y-119278888D01*
X158654547Y-119769932D02*
X158424342Y-120000137D01*
%TO.C,L11*%
X133313221Y-100182687D02*
X133682687Y-99813221D01*
X134317313Y-101186779D02*
X134686779Y-100817313D01*
%TO.C,R1*%
X128751097Y-73173570D02*
X129086630Y-73509103D01*
X128012170Y-73912497D02*
X128347703Y-74248030D01*
%TO.C,R3*%
X138555497Y-84839830D02*
X138891030Y-84504297D01*
X137816570Y-84100903D02*
X138152103Y-83765370D01*
%TO.C,L73*%
X113359000Y-97528748D02*
X113359000Y-98051252D01*
X111939000Y-97528748D02*
X111939000Y-98051252D01*
%TO.C,R2*%
X155291770Y-102512897D02*
X155627303Y-102848430D01*
X156030697Y-101773970D02*
X156366230Y-102109503D01*
%TO.C,C70*%
X131616057Y-65501810D02*
X131246590Y-65132343D01*
X130576610Y-66541257D02*
X130207143Y-66171790D01*
%TO.C,C5*%
X153499419Y-106835230D02*
X153698230Y-106636419D01*
X152778170Y-106113981D02*
X152976981Y-105915170D01*
%TO.C,C55*%
X162125370Y-93083781D02*
X162324181Y-92884970D01*
X162846619Y-93805030D02*
X163045430Y-93606219D01*
%TO.C,L19*%
X133247421Y-55486113D02*
X133616887Y-55855579D01*
X134251513Y-54482021D02*
X134620979Y-54851487D01*
%TO.C,C78*%
X160828010Y-112198543D02*
X160458543Y-112568010D01*
X161867457Y-113237990D02*
X161497990Y-113607457D01*
%TO.C,L25*%
X136219221Y-58737313D02*
X136588687Y-59106779D01*
X137223313Y-57733221D02*
X137592779Y-58102687D01*
%TO.C,L3*%
X150304313Y-96341221D02*
X150673779Y-96710687D01*
X149300221Y-97345313D02*
X149669687Y-97714779D01*
%TO.C,L16*%
X188760287Y-110567179D02*
X188390821Y-110197713D01*
X189764379Y-109563087D02*
X189394913Y-109193621D01*
%TO.C,L24*%
X183705687Y-102030821D02*
X183336221Y-102400287D01*
X184709779Y-103034913D02*
X184340313Y-103404379D01*
%TO.C,C80*%
X124854580Y-99820000D02*
X124573420Y-99820000D01*
X124854580Y-100840000D02*
X124573420Y-100840000D01*
%TO.C,R37*%
X125703097Y-57331630D02*
X126038630Y-56996097D01*
X124964170Y-56592703D02*
X125299703Y-56257170D01*
%TO.C,L21*%
X188023687Y-103201179D02*
X187654221Y-102831713D01*
X189027779Y-102197087D02*
X188658313Y-101827621D01*
%TO.C,C50*%
X169948570Y-83990581D02*
X170147381Y-83791770D01*
X170669819Y-84711830D02*
X170868630Y-84513019D01*
%TO.C,L5*%
X145097687Y-108331979D02*
X144728221Y-107962513D01*
X146101779Y-107327887D02*
X145732313Y-106958421D01*
%TO.C,L50*%
X165403821Y-82969287D02*
X165773287Y-82599821D01*
X166407913Y-83973379D02*
X166777379Y-83603913D01*
D10*
%TO.C,L68*%
X173909908Y-115834759D02*
X173096735Y-116647932D01*
X170374374Y-112299225D02*
X173909908Y-115834759D01*
X169561201Y-113112398D02*
X170374374Y-112299225D01*
X167439881Y-115233719D02*
X166485286Y-116188313D01*
X170975414Y-118769252D02*
X170020820Y-119723847D01*
X170020820Y-119723847D02*
X166485286Y-116188313D01*
D13*
%TO.C,C33*%
X188928030Y-107119019D02*
X188729219Y-107317830D01*
X188206781Y-106397770D02*
X188007970Y-106596581D01*
%TO.C,R9*%
X127461030Y-80925903D02*
X127125497Y-80590370D01*
X126722103Y-81664830D02*
X126386570Y-81329297D01*
%TO.C,L69*%
X123242000Y-92702748D02*
X123242000Y-93225252D01*
X124662000Y-92702748D02*
X124662000Y-93225252D01*
%TO.C,U3*%
X146953410Y-100946652D02*
X145397775Y-102502287D01*
X150644508Y-104637750D02*
X152200143Y-103082115D01*
X150644508Y-104637750D02*
X149088873Y-106193385D01*
X146953410Y-100946652D02*
X149498995Y-98401068D01*
%TO.C,C87*%
X177849888Y-113345796D02*
X177484204Y-112980112D01*
X176845796Y-114349888D02*
X176480112Y-113984204D01*
%TO.C,R16*%
X145264103Y-111273570D02*
X144928570Y-111609103D01*
X146003030Y-112012497D02*
X145667497Y-112348030D01*
%TO.C,L46*%
X156654687Y-67488779D02*
X156285221Y-67119313D01*
X157658779Y-66484687D02*
X157289313Y-66115221D01*
%TO.C,TH1*%
X135911835Y-103332718D02*
X135590718Y-103653835D01*
X136951282Y-104372165D02*
X136630165Y-104693282D01*
%TO.C,C35*%
X185133381Y-103527570D02*
X184934570Y-103726381D01*
X185854630Y-104248819D02*
X185655819Y-104447630D01*
%TO.C,C69*%
X123949170Y-55313981D02*
X124147981Y-55115170D01*
X124670419Y-56035230D02*
X124869230Y-55836419D01*
%TO.C,L38*%
X170077421Y-91681113D02*
X170446887Y-92050579D01*
X171081513Y-90677021D02*
X171450979Y-91046487D01*
%TO.C,L4*%
X143786779Y-89573287D02*
X143417313Y-89203821D01*
X142782687Y-90577379D02*
X142413221Y-90207913D01*
%TO.C,C38*%
X183344419Y-99260370D02*
X183543230Y-99459181D01*
X182623170Y-99981619D02*
X182821981Y-100180430D01*
%TO.C,L72*%
X186511221Y-72453313D02*
X186880687Y-72822779D01*
X187515313Y-71449221D02*
X187884779Y-71818687D01*
%TO.C,R19*%
X135970030Y-102301697D02*
X135634497Y-102637230D01*
X135231103Y-101562770D02*
X134895570Y-101898303D01*
D14*
%TO.C,U5*%
X147916652Y-61056129D02*
X148480923Y-61620400D01*
X144170400Y-57309877D02*
X144734671Y-57874148D01*
X140424148Y-62184671D02*
X139859877Y-61620400D01*
X144204341Y-65896982D02*
X143640070Y-65332711D01*
D15*
X139828206Y-62468928D02*
G75*
G03*
X139828206Y-62468928I-254000J0D01*
G01*
D13*
%TO.C,L2*%
X140217313Y-86413221D02*
X140586779Y-86782687D01*
X139213221Y-87417313D02*
X139582687Y-87786779D01*
%TO.C,R7*%
X129262103Y-79328030D02*
X128926570Y-78992497D01*
X130001030Y-78589103D02*
X129665497Y-78253570D01*
%TO.C,R8*%
X128629430Y-79859103D02*
X128293897Y-79523570D01*
X127890503Y-80598030D02*
X127554970Y-80262497D01*
%TO.C,C66*%
X119753781Y-59610970D02*
X119554970Y-59809781D01*
X120475030Y-60332219D02*
X120276219Y-60531030D01*
%TO.C,C26*%
X137113990Y-126041543D02*
X137483457Y-126411010D01*
X136074543Y-127080990D02*
X136444010Y-127450457D01*
%TO.C,R40*%
X167565303Y-109190770D02*
X167229770Y-109526303D01*
X168304230Y-109929697D02*
X167968697Y-110265230D01*
%TO.C,C68*%
X164349414Y-120942488D02*
X164548225Y-121141299D01*
X165070663Y-120221239D02*
X165269474Y-120420050D01*
%TO.C,C76*%
X147623888Y-120080204D02*
X147258204Y-120445888D01*
X146619796Y-119076112D02*
X146254112Y-119441796D01*
%TO.C,L45*%
X153313221Y-71317313D02*
X153682687Y-71686779D01*
X154317313Y-70313221D02*
X154686779Y-70682687D01*
%TO.C,L28*%
X182017379Y-103924287D02*
X181647913Y-103554821D01*
X181013287Y-104928379D02*
X180643821Y-104558913D01*
%TO.C,C54*%
X156257970Y-87622781D02*
X156456781Y-87423970D01*
X156979219Y-88344030D02*
X157178030Y-88145219D01*
%TO.C,R38*%
X128520170Y-58015103D02*
X128855703Y-57679570D01*
X129259097Y-58754030D02*
X129594630Y-58418497D01*
%TO.C,L70*%
X175438779Y-110172687D02*
X175069313Y-109803221D01*
X174434687Y-111176779D02*
X174065221Y-110807313D01*
%TO.C,C43*%
X173286019Y-93570770D02*
X173484830Y-93769581D01*
X172564770Y-94292019D02*
X172763581Y-94490830D01*
%TO.C,R36*%
X140155697Y-118393230D02*
X140491230Y-118057697D01*
X139416770Y-117654303D02*
X139752303Y-117318770D01*
%TO.C,R12*%
X143463030Y-93724497D02*
X143127497Y-94060030D01*
X142724103Y-92985570D02*
X142388570Y-93321103D01*
%TO.C,C6*%
X144243027Y-95287178D02*
X144441838Y-95485989D01*
X143521778Y-96008427D02*
X143720589Y-96207238D01*
%TO.C,C48*%
X171599570Y-88638781D02*
X171798381Y-88439970D01*
X172320819Y-89360030D02*
X172519630Y-89161219D01*
%TO.C,C82*%
X128237381Y-61515970D02*
X128038570Y-61714781D01*
X128958630Y-62237219D02*
X128759819Y-62436030D01*
%TO.C,C14*%
X140128970Y-102100781D02*
X140327781Y-101901970D01*
X140850219Y-102822030D02*
X141049030Y-102623219D01*
%TO.C,C90*%
X172281457Y-106252990D02*
X171911990Y-106622457D01*
X171242010Y-105213543D02*
X170872543Y-105583010D01*
%TO.C,R13*%
X152296897Y-105744030D02*
X152632430Y-105408497D01*
X151557970Y-105005103D02*
X151893503Y-104669570D01*
%TO.C,L43*%
X173787779Y-83197887D02*
X173418313Y-82828421D01*
X172783687Y-84201979D02*
X172414221Y-83832513D01*
%TO.C,C72*%
X114291522Y-62070727D02*
X114521727Y-61840522D01*
X113570273Y-61349478D02*
X113800478Y-61119273D01*
%TO.C,C88*%
X172498273Y-119642478D02*
X172728478Y-119412273D01*
X173219522Y-120363727D02*
X173449727Y-120133522D01*
%TO.C,L75*%
X153721779Y-131762313D02*
X153352313Y-132131779D01*
X152717687Y-130758221D02*
X152348221Y-131127687D01*
%TO.C,C73*%
X127950796Y-132510888D02*
X127585112Y-132145204D01*
X128954888Y-131506796D02*
X128589204Y-131141112D01*
%TO.C,L1*%
X152782687Y-100886779D02*
X152413221Y-100517313D01*
X153786779Y-99882687D02*
X153417313Y-99513221D01*
%TO.C,C77*%
X132366273Y-122800522D02*
X132596478Y-123030727D01*
X133087522Y-122079273D02*
X133317727Y-122309478D01*
%TO.C,C31*%
X191568400Y-110598852D02*
X191568400Y-110076348D01*
X193038400Y-110598852D02*
X193038400Y-110076348D01*
%TO.C,U11*%
X162623820Y-119134294D02*
X162287944Y-118798418D01*
X164564828Y-117193286D02*
X164900704Y-116857410D01*
X162959696Y-118798418D02*
X162623820Y-119134294D01*
X160346936Y-116857410D02*
X160682812Y-117193286D01*
X162287944Y-114916402D02*
X162623820Y-114580526D01*
X164900704Y-116857410D02*
X164564828Y-116521534D01*
X160682812Y-116521534D02*
X160346936Y-116857410D01*
D14*
%TO.C,U6*%
X178194993Y-92395818D02*
X178759264Y-92960089D01*
X178228934Y-100982923D02*
X177664663Y-100418652D01*
X181975186Y-96108129D02*
X182539457Y-96672400D01*
X174482682Y-97236671D02*
X173918411Y-96672400D01*
D15*
X183079128Y-95823872D02*
G75*
G03*
X183079128Y-95823872I-254000J0D01*
G01*
D13*
%TO.C,C75*%
X157156543Y-112094990D02*
X157526010Y-112464457D01*
X158195990Y-111055543D02*
X158565457Y-111425010D01*
%TO.C,L52*%
X158517313Y-75286779D02*
X158886779Y-74917313D01*
X157513221Y-74282687D02*
X157882687Y-73913221D01*
%TO.C,C39*%
X181638230Y-101414981D02*
X181439419Y-101216170D01*
X180916981Y-102136230D02*
X180718170Y-101937419D01*
%TO.C,C85*%
X115577252Y-68988000D02*
X115054748Y-68988000D01*
X115577252Y-70458000D02*
X115054748Y-70458000D01*
%TO.C,R39*%
X127633497Y-58144430D02*
X127969030Y-57808897D01*
X126894570Y-57405503D02*
X127230103Y-57069970D01*
%TO.C,C81*%
X165876057Y-118534197D02*
X166074868Y-118335386D01*
X166597306Y-119255446D02*
X166796117Y-119056635D01*
%TO.C,U1*%
X125748144Y-78698430D02*
X126084020Y-78362554D01*
X125412268Y-78362554D02*
X125748144Y-78698430D01*
X128025028Y-76421546D02*
X127689152Y-76757422D01*
X123807136Y-76757422D02*
X123471260Y-76421546D01*
X127689152Y-76085670D02*
X128025028Y-76421546D01*
X126084020Y-74480538D02*
X125748144Y-74144662D01*
X125748144Y-74144662D02*
X125412268Y-74480538D01*
%TO.C,L71*%
X133298221Y-124904687D02*
X133667687Y-124535221D01*
X134302313Y-125908779D02*
X134671779Y-125539313D01*
%TO.C,C4*%
X145473019Y-94053370D02*
X145671830Y-94252181D01*
X144751770Y-94774619D02*
X144950581Y-94973430D01*
%TO.C,U2*%
X140487627Y-94480869D02*
X138931992Y-96036504D01*
X140487627Y-94480869D02*
X142043262Y-92925234D01*
X136796529Y-90789771D02*
X135240894Y-92345406D01*
X136796529Y-90789771D02*
X139342114Y-88244187D01*
%TO.C,L37*%
X174155287Y-88621579D02*
X173785821Y-88252113D01*
X175159379Y-87617487D02*
X174789913Y-87248021D01*
%TO.C,C71*%
X128112810Y-67049257D02*
X127743343Y-66679790D01*
X129152257Y-66009810D02*
X128782790Y-65640343D01*
D11*
%TO.C,U4*%
X128296397Y-106672096D02*
X128476002Y-106672096D01*
X127847384Y-107121109D02*
X128296397Y-106672096D01*
X131259882Y-113766499D02*
X130721066Y-114305314D01*
X130721066Y-114305314D02*
X130631264Y-114215512D01*
X132876328Y-112150053D02*
X133415143Y-111611237D01*
X125692123Y-109276371D02*
X125781925Y-109366173D01*
X133415143Y-111611237D02*
X133325341Y-111521435D01*
X126230938Y-108737555D02*
X125692123Y-109276371D01*
D13*
%TO.C,D2*%
X136993456Y-116481330D02*
X140034016Y-113440771D01*
X140034016Y-113440771D02*
X141448229Y-114854984D01*
X141448229Y-114854984D02*
X138407670Y-117895544D01*
%TO.C,L56*%
X161760922Y-90066586D02*
X162130388Y-89697120D01*
X162765014Y-91070678D02*
X163134480Y-90701212D01*
%TO.C,L55*%
X159296287Y-87146421D02*
X158926821Y-87515887D01*
X160300379Y-88150513D02*
X159930913Y-88519979D01*
%TO.C,L10*%
X140169713Y-106401579D02*
X140539179Y-106032113D01*
X139165621Y-105397487D02*
X139535087Y-105028021D01*
%TO.C,L47*%
X169354687Y-81914021D02*
X168985221Y-82283487D01*
X170358779Y-82918113D02*
X169989313Y-83287579D01*
%TO.C,R5*%
X145601697Y-91837230D02*
X145937230Y-91501697D01*
X144862770Y-91098303D02*
X145198303Y-90762770D01*
%TO.C,L22*%
X184658979Y-106642087D02*
X184289513Y-106272621D01*
X183654887Y-107646179D02*
X183285421Y-107276713D01*
%TO.C,C83*%
X162222837Y-122353616D02*
X162024026Y-122552427D01*
X162944086Y-123074865D02*
X162745275Y-123273676D01*
%TO.C,L27*%
X186335379Y-99555487D02*
X185965913Y-99186021D01*
X185331287Y-100559579D02*
X184961821Y-100190113D01*
%TO.C,R44*%
X161702547Y-121801932D02*
X161472342Y-122032137D01*
X160981298Y-121080683D02*
X160751093Y-121310888D01*
%TO.C,C57*%
X152559619Y-83873630D02*
X152758430Y-83674819D01*
X151838370Y-83152381D02*
X152037181Y-82953570D01*
%TO.C,C15*%
X147367970Y-111005219D02*
X147566781Y-111204030D01*
X148089219Y-110283970D02*
X148288030Y-110482781D01*
%TO.C,L53*%
X162065722Y-87073014D02*
X162435188Y-87442480D01*
X163069814Y-86068922D02*
X163439280Y-86438388D01*
%TD*%
M02*
