M48
; DRILL file {KiCad 5.99.0-unknown-43001cae3~104~ubuntu18.04.1} date Thu Nov 12 23:28:30 2020
; FORMAT={-:-/ absolute / inch / decimal}
; #@! TF.CreationDate,2020-11-12T23:28:30+01:00
; #@! TF.GenerationSoftware,Kicad,Pcbnew,5.99.0-unknown-43001cae3~104~ubuntu18.04.1
; #@! TF.FileFunction,Plated,1,2,PTH
FMAT,2
INCH
T1C0.0118
T2C0.0157
T3C0.0197
T4C0.0350
T5C0.0551
T6C0.1181
%
G90
G05
T1
X4.6615Y-2.7427
X4.6893Y-2.7148
X4.6893Y-2.7427
X4.6893Y-2.7705
X4.7172Y-2.7427
T2
X4.1535Y-3.9173
X4.1535Y-4.1339
X4.1535Y-4.3307
X4.1535Y-4.5276
X4.1535Y-4.7244
X4.1535Y-4.9213
X4.1535Y-5.1181
X4.1535Y-5.2953
X4.3307Y-4.1339
X4.3307Y-5.2953
X4.3504Y-3.9173
X4.4169Y-2.1433
X4.4169Y-4.9433
X4.4425Y-2.0803
X4.4425Y-2.2063
X4.4425Y-4.8803
X4.4425Y-5.0063
X4.4685Y-2.5394
X4.4685Y-2.7638
X4.4685Y-2.9724
X4.4866Y-3.2496
X4.4866Y-3.3362
X4.498Y-4.2421
X4.5055Y-2.2319
X4.5055Y-4.8547
X4.5055Y-5.0319
X4.5079Y-2.0571
X4.5276Y-2.6378
X4.5276Y-3.9173
X4.5276Y-5.2953
X4.5659Y-2.7402
X4.5669Y-2.4409
X4.5669Y-4.315
X4.5685Y-2.0803
X4.5685Y-2.2063
X4.5685Y-4.8803
X4.5685Y-5.0063
X4.5748Y-2.8976
X4.5768Y-4.1634
X4.5866Y-3.0906
X4.5941Y-2.1433
X4.5941Y-4.9433
X4.6025Y-2.6979
X4.6457Y-3.8386
X4.6457Y-4.2362
X4.6555Y-4.0846
X4.6654Y-2.3425
X4.6949Y-3.0315
X4.7146Y-3.6319
X4.7205Y-3.1988
X4.7234Y-2.4803
X4.7244Y-4.1535
X4.7244Y-5.2953
X4.7283Y-3.4154
X4.7343Y-4.0059
X4.752Y-2.5512
X4.7638Y-2.2441
X4.7736Y-2.8268
X4.7736Y-3.6811
X4.7736Y-3.8091
X4.7736Y-3.9173
X4.7835Y-4.3976
X4.7854Y-3.128
X4.7923Y-2.7293
X4.8031Y-4.0787
X4.8031Y-4.6457
X4.813Y-3.5925
X4.8332Y-4.3352
X4.8386Y-2.8937
X4.8425Y-2.3622
X4.8425Y-3.3051
X4.8487Y-4.2537
X4.8622Y-2.6575
X4.8706Y-4.2756
X4.8819Y-3.8091
X4.8819Y-3.9173
X4.8898Y-3.6811
X4.8917Y-2.2441
X4.8917Y-3.5039
X4.9055Y-4.5433
X4.9134Y-4.1181
X4.9213Y-2.4213
X4.9213Y-5.2953
X4.9252Y-3.3937
X4.9263Y-2.9755
X4.937Y-3.2126
X4.9685Y-4.2441
X4.9691Y-3.4809
X4.9803Y-2.7461
X4.982Y-4.0195
X4.9921Y-2.372
X4.9921Y-3.3307
X4.9921Y-4.1102
X4.9955Y-3.5073
X5.0Y-3.6457
X5.0039Y-3.7559
X5.0077Y-4.4116
X5.0118Y-4.1535
X5.0118Y-2.5197
X5.0157Y-2.2441
X5.0157Y-2.6969
X5.0186Y-3.9044
X5.0236Y-3.0787
X5.0276Y-2.4764
X5.0294Y-4.3151
X5.0512Y-4.6654
X5.0551Y-3.7008
X5.065Y-2.6526
X5.0683Y-4.2762
X5.0827Y-2.8553
X5.0838Y-4.3314
X5.0866Y-3.0729
X5.0906Y-3.5276
X5.0984Y-2.4803
X5.1142Y-4.611
X5.1181Y-3.1417
X5.1181Y-5.2953
X5.1191Y-4.3668
X5.1299Y-3.563
X5.1319Y-4.4176
X5.1417Y-2.372
X5.1496Y-3.1339
X5.1535Y-4.0354
X5.1575Y-3.0
X5.1708Y-4.3787
X5.1713Y-4.5748
X5.1748Y-4.2461
X5.1768Y-2.6971
X5.1909Y-3.5768
X5.1929Y-4.1417
X5.1939Y-4.5974
X5.2008Y-2.5787
X5.2031Y-4.2739
X5.2126Y-3.1969
X5.2126Y-3.5984
X5.2165Y-3.3307
X5.2175Y-3.5217
X5.2205Y-3.063
X5.2205Y-3.7205
X5.2244Y-4.2244
X5.2756Y-2.5
X5.2756Y-3.2677
X5.2835Y-3.126
X5.2835Y-3.3937
X5.2835Y-4.5984
X5.2953Y-4.0472
X5.2981Y-4.7865
X5.2992Y-2.8661
X5.2992Y-3.0472
X5.3012Y-2.6791
X5.3031Y-4.2559
X5.3071Y-4.4409
X5.315Y-5.1181
X5.315Y-5.2953
X5.3228Y-2.4449
X5.3337Y-3.0886
X5.3346Y-3.4065
X5.3425Y-4.5394
X5.3465Y-3.3386
X5.3504Y-3.9921
X5.3543Y-3.189
X5.3661Y-3.622
X5.3661Y-4.0787
X5.3711Y-3.0886
X5.3965Y-4.8849
X5.4016Y-4.1535
X5.4035Y-2.6181
X5.4055Y-3.1142
X5.4055Y-3.2165
X5.4058Y-3.3479
X5.4094Y-2.8661
X5.4094Y-3.0472
X5.4094Y-3.6693
X5.4134Y-4.2992
X5.4252Y-3.2677
X5.4322Y-3.3214
X5.4409Y-3.4557
X5.4528Y-3.8386
X5.4606Y-4.0984
X5.4685Y-2.5945
X5.4744Y-3.8602
X5.4764Y-3.748
X5.4803Y-2.6929
X5.4803Y-3.5984
X5.4921Y-3.0157
X5.502Y-4.6063
X5.5039Y-4.4646
X5.5118Y-4.9213
X5.5118Y-5.1181
X5.5118Y-5.2953
X5.5472Y-3.0276
X5.5591Y-3.6693
X5.5669Y-3.0472
X5.5684Y-4.7867
X5.5817Y-3.8612
X5.5846Y-3.9734
X5.5866Y-2.7913
X5.5866Y-2.9252
X5.6088Y-3.9956
X5.6181Y-3.9291
X5.6285Y-3.8462
X5.6496Y-4.6063
X5.655Y-3.8197
X5.6969Y-2.8189
X5.7087Y-4.3189
X5.7165Y-2.7992
X5.7205Y-3.6496
X5.7244Y-4.4646
X5.7372Y-3.8091
X5.7441Y-3.626
X5.7559Y-3.5748
X5.7638Y-4.0157
X5.7756Y-3.7047
X5.7992Y-4.6063
X5.7992Y-4.7444
X5.8189Y-4.0748
X5.8228Y-3.8307
X5.8287Y-3.6516
X5.8543Y-2.7953
X5.874Y-4.2608
X5.8799Y-2.7697
X5.8819Y-4.0
X5.8858Y-4.1421
X5.8898Y-4.315
X5.8962Y-4.2387
X5.8976Y-3.7185
X5.8976Y-4.4646
X5.9449Y-4.6063
X5.9567Y-4.3819
X5.9646Y-4.0748
X5.9685Y-4.2283
X5.9961Y-3.3031
X6.0039Y-4.7444
X6.0128Y-2.6368
X6.0354Y-2.6122
X6.0472Y-2.4685
X6.0472Y-3.252
X6.0669Y-2.4488
X6.0827Y-4.6063
X6.0945Y-4.1654
X6.1074Y-3.243
X6.1074Y-3.2776
X6.1075Y-4.9602
X6.1106Y-2.3791
X6.1142Y-3.937
X6.128Y-4.0492
X6.1457Y-3.4528
X6.1496Y-4.0276
X6.1575Y-4.126
X6.1693Y-3.9961
X6.1713Y-3.3406
X6.1823Y-4.9602
X6.1835Y-2.3791
X6.1969Y-3.4016
X6.2008Y-4.2717
X6.2008Y-4.7444
X6.2067Y-3.3406
X6.2205Y-4.3307
X6.2323Y-4.0512
X6.2402Y-4.2323
X6.2598Y-4.2913
X6.2795Y-4.3504
X6.2992Y-4.252
X6.3189Y-4.311
X6.3268Y-4.0512
X6.378Y-4.7444
X6.3976Y-4.4291
X6.4016Y-3.8819
X6.4055Y-3.9764
X6.4173Y-4.4882
X6.4213Y-3.9016
X6.4295Y-4.3949
X6.437Y-4.5472
X6.4567Y-4.4488
X6.4764Y-4.5079
X6.4843Y-3.8976
X6.4961Y-4.5669
X6.5157Y-4.4685
X6.5354Y-4.5276
X6.5354Y-4.2874
X6.5433Y-3.9646
X6.5433Y-4.0669
X6.5433Y-4.6339
X6.5591Y-4.2638
X6.5709Y-4.2126
X6.5709Y-4.6063
X6.5748Y-4.7441
X6.5787Y-3.8543
X6.5945Y-4.189
X6.5984Y-4.5787
X6.6417Y-3.7559
X6.6496Y-3.8543
X6.6575Y-3.5945
X6.6614Y-3.7362
X6.6811Y-3.5709
X6.7165Y-4.3346
X6.7283Y-3.9331
X6.7638Y-4.7441
X6.7992Y-4.374
X6.8268Y-3.4252
X6.8504Y-3.4016
X6.8504Y-3.9724
X6.874Y-4.6339
X6.9921Y-3.4055
X6.9921Y-4.5157
X7.0039Y-4.122
X7.0039Y-4.1969
X7.0118Y-3.3858
X7.1024Y-4.2953
X7.1024Y-4.4055
X7.2169Y-2.1433
X7.2169Y-4.9433
X7.2425Y-2.0803
X7.2425Y-2.2063
X7.2425Y-4.8803
X7.2425Y-5.0063
X7.2874Y-3.1535
X7.3055Y-2.0547
X7.3055Y-2.2319
X7.3055Y-4.8547
X7.3055Y-5.0319
X7.3228Y-3.1181
X7.3228Y-3.1535
X7.3228Y-3.189
X7.3583Y-3.1535
X7.3685Y-2.0803
X7.3685Y-2.2063
X7.3685Y-4.8803
X7.3685Y-5.0063
X7.3941Y-2.1433
X7.3941Y-4.9433
X7.585Y-3.0799
X7.5859Y-3.0091
T3
X5.4087Y-2.4251
X5.4198Y-2.2052
X5.4504Y-2.4669
X5.4532Y-2.1718
X5.4532Y-2.2052
X5.4532Y-2.2386
X5.4574Y-2.3764
X5.4866Y-2.2052
X5.4922Y-2.5086
X5.4992Y-2.3625
X5.4992Y-2.4182
X5.527Y-2.3346
X5.527Y-2.3903
X5.5409Y-2.4599
X5.5548Y-2.3068
X5.5548Y-2.3625
X5.5548Y-2.4182
X5.5827Y-2.279
X5.5827Y-2.3346
X5.5827Y-2.3903
X5.6041Y-3.1767
X5.6105Y-2.2511
X5.6105Y-2.3068
X5.6105Y-2.3625
X5.6139Y-3.398
X5.6244Y-2.2094
X5.6384Y-2.279
X5.6384Y-2.3346
X5.6459Y-3.1349
X5.6473Y-3.3646
X5.6473Y-3.398
X5.6473Y-3.4314
X5.6529Y-3.2254
X5.6662Y-2.2511
X5.6662Y-2.3068
X5.6732Y-2.1607
X5.6801Y-2.4655
X5.6807Y-3.398
X5.6877Y-3.0931
X5.6946Y-3.1836
X5.6946Y-3.2393
X5.708Y-2.2929
X5.7135Y-2.4321
X5.7135Y-2.4655
X5.7135Y-2.4989
X5.7149Y-2.2024
X5.7225Y-3.2115
X5.7225Y-3.2671
X5.7364Y-3.1419
X5.7469Y-2.4655
X5.7503Y-3.1836
X5.7503Y-3.2393
X5.7503Y-3.295
X5.7567Y-2.2442
X5.7781Y-3.2115
X5.7781Y-3.2671
X5.7781Y-3.3228
X5.806Y-3.2393
X5.806Y-3.295
X5.806Y-3.3507
X5.8199Y-3.3924
X5.8338Y-3.2671
X5.8338Y-3.3228
X5.8617Y-3.295
X5.8617Y-3.3507
X5.8686Y-3.4411
X5.8742Y-3.1377
X5.9034Y-3.3089
X5.9076Y-3.1043
X5.9076Y-3.1377
X5.9076Y-3.1711
X5.9104Y-3.3994
X5.941Y-3.1377
X5.9521Y-3.3576
X6.0077Y-3.5763
X6.0174Y-3.7976
X6.0494Y-3.5345
X6.0508Y-3.7642
X6.0508Y-3.7976
X6.0508Y-3.831
X6.0564Y-3.625
X6.0842Y-3.7976
X6.0912Y-3.4928
X6.0982Y-3.5832
X6.0982Y-3.6389
X6.126Y-3.6111
X6.126Y-3.6667
X6.1399Y-3.5415
X6.1538Y-3.5832
X6.1538Y-3.6389
X6.1538Y-3.6946
X6.1817Y-3.6111
X6.1817Y-3.6667
X6.1817Y-3.7224
X6.2095Y-3.6389
X6.2095Y-3.6946
X6.2095Y-3.7503
X6.2234Y-3.792
X6.2374Y-3.6667
X6.2374Y-3.7224
X6.2652Y-3.6946
X6.2652Y-3.7503
X6.2722Y-3.8407
X6.2777Y-3.5373
X6.307Y-3.7085
X6.3111Y-3.5039
X6.3111Y-3.5373
X6.3111Y-3.5707
X6.3139Y-3.799
X6.3445Y-3.5373
X6.3557Y-3.7572
X6.9412Y-3.9527
X6.9509Y-3.7314
X6.9829Y-3.9944
X6.9843Y-3.698
X6.9843Y-3.7314
X6.9843Y-3.7648
X6.9899Y-3.904
X7.0177Y-3.7314
X7.0247Y-4.0362
X7.0316Y-3.89
X7.0316Y-3.9457
X7.0595Y-3.8622
X7.0595Y-3.9179
X7.0734Y-3.9875
X7.0873Y-3.8344
X7.0873Y-3.89
X7.0873Y-3.9457
X7.1152Y-3.8065
X7.1152Y-3.8622
X7.1152Y-3.9179
X7.143Y-3.7787
X7.143Y-3.8344
X7.143Y-3.89
X7.1569Y-3.7369
X7.1708Y-3.8065
X7.1728Y-3.8661
X7.1987Y-3.7787
X7.1987Y-3.8344
X7.2056Y-3.6882
X7.2112Y-3.9917
X7.2404Y-3.8204
X7.2446Y-3.9582
X7.2446Y-3.9917
X7.2446Y-4.0251
X7.2474Y-3.73
X7.278Y-3.9917
X7.2892Y-3.7717
T4
X6.7325Y-4.0985
X6.8032Y-4.0278
X6.8032Y-4.1692
X6.8739Y-4.0985
X6.8739Y-4.2399
X6.9446Y-4.1692
T5
X4.3729Y-4.3335
X4.4789Y-4.4396
X4.585Y-4.5456
X4.6911Y-4.6517
X4.7971Y-4.7578
X4.9032Y-4.8638
X5.0093Y-4.9699
X5.1153Y-5.076
T6
X7.3055Y-4.9433
X7.3055Y-2.1433
X4.5055Y-4.9433
X5.9055Y-4.9606
X7.3228Y-3.5433
X5.9055Y-2.126
X4.4882Y-3.5433
X4.5055Y-2.1433
T0
M30
