%TF.GenerationSoftware,KiCad,Pcbnew,6.0.4-6f826c9f35~116~ubuntu20.04.1*%
%TF.CreationDate,2022-04-04T15:56:57+00:00*%
%TF.ProjectId,QFHMIX01D,5146484d-4958-4303-9144-2e6b69636164,REV 0.2*%
%TF.SameCoordinates,Original*%
%TF.FileFunction,Paste,Bot*%
%TF.FilePolarity,Positive*%
%FSLAX46Y46*%
G04 Gerber Fmt 4.6, Leading zero omitted, Abs format (unit mm)*
G04 Created by KiCad (PCBNEW 6.0.4-6f826c9f35~116~ubuntu20.04.1) date 2022-04-04 15:56:57*
%MOMM*%
%LPD*%
G01*
G04 APERTURE LIST*
G04 Aperture macros list*
%AMRoundRect*
0 Rectangle with rounded corners*
0 $1 Rounding radius*
0 $2 $3 $4 $5 $6 $7 $8 $9 X,Y pos of 4 corners*
0 Add a 4 corners polygon primitive as box body*
4,1,4,$2,$3,$4,$5,$6,$7,$8,$9,$2,$3,0*
0 Add four circle primitives for the rounded corners*
1,1,$1+$1,$2,$3*
1,1,$1+$1,$4,$5*
1,1,$1+$1,$6,$7*
1,1,$1+$1,$8,$9*
0 Add four rect primitives between the rounded corners*
20,1,$1+$1,$2,$3,$4,$5,0*
20,1,$1+$1,$4,$5,$6,$7,0*
20,1,$1+$1,$6,$7,$8,$9,0*
20,1,$1+$1,$8,$9,$2,$3,0*%
%AMRotRect*
0 Rectangle, with rotation*
0 The origin of the aperture is its center*
0 $1 length*
0 $2 width*
0 $3 Rotation angle, in degrees counterclockwise*
0 Add horizontal line*
21,1,$1,$2,0,0,$3*%
G04 Aperture macros list end*
%ADD10RoundRect,0.200000X0.053033X-0.335876X0.335876X-0.053033X-0.053033X0.335876X-0.335876X0.053033X0*%
%ADD11RoundRect,0.200000X-0.053033X0.335876X-0.335876X0.053033X0.053033X-0.335876X0.335876X-0.053033X0*%
%ADD12RoundRect,0.225000X0.017678X-0.335876X0.335876X-0.017678X-0.017678X0.335876X-0.335876X0.017678X0*%
%ADD13R,2.500000X1.800000*%
%ADD14RoundRect,0.225000X-0.335876X-0.017678X-0.017678X-0.335876X0.335876X0.017678X0.017678X0.335876X0*%
%ADD15RoundRect,0.225000X-0.017678X0.335876X-0.335876X0.017678X0.017678X-0.335876X0.335876X-0.017678X0*%
%ADD16RoundRect,0.200000X0.335876X0.053033X0.053033X0.335876X-0.335876X-0.053033X-0.053033X-0.335876X0*%
%ADD17RoundRect,0.250000X-0.512652X-0.159099X-0.159099X-0.512652X0.512652X0.159099X0.159099X0.512652X0*%
%ADD18RoundRect,0.225000X0.335876X0.017678X0.017678X0.335876X-0.335876X-0.017678X-0.017678X-0.335876X0*%
%ADD19RoundRect,0.218750X-0.424264X-0.114905X-0.114905X-0.424264X0.424264X0.114905X0.114905X0.424264X0*%
%ADD20RoundRect,0.218750X0.424264X0.114905X0.114905X0.424264X-0.424264X-0.114905X-0.114905X-0.424264X0*%
%ADD21RoundRect,0.250000X0.250000X0.475000X-0.250000X0.475000X-0.250000X-0.475000X0.250000X-0.475000X0*%
%ADD22RoundRect,0.218750X-0.114905X0.424264X-0.424264X0.114905X0.114905X-0.424264X0.424264X-0.114905X0*%
%ADD23RoundRect,0.218750X0.114905X-0.424264X0.424264X-0.114905X-0.114905X0.424264X-0.424264X0.114905X0*%
%ADD24RoundRect,0.200000X-0.335876X-0.053033X-0.053033X-0.335876X0.335876X0.053033X0.053033X0.335876X0*%
%ADD25RotRect,0.760000X1.270000X315.000000*%
%ADD26RotRect,4.800000X3.200000X315.000000*%
%ADD27RoundRect,0.250000X0.475000X-0.250000X0.475000X0.250000X-0.475000X0.250000X-0.475000X-0.250000X0*%
%ADD28RoundRect,0.218750X0.218750X0.381250X-0.218750X0.381250X-0.218750X-0.381250X0.218750X-0.381250X0*%
%ADD29RoundRect,0.218750X-0.381250X0.218750X-0.381250X-0.218750X0.381250X-0.218750X0.381250X0.218750X0*%
%ADD30RoundRect,0.250000X-0.159099X0.512652X-0.512652X0.159099X0.159099X-0.512652X0.512652X-0.159099X0*%
%ADD31R,0.889000X1.397000*%
%ADD32RotRect,2.000000X1.500000X45.000000*%
%ADD33RotRect,2.000000X3.800000X45.000000*%
%ADD34RoundRect,0.250000X0.512652X0.159099X0.159099X0.512652X-0.512652X-0.159099X-0.159099X-0.512652X0*%
%ADD35RoundRect,0.100000X0.380070X0.521491X-0.521491X-0.380070X-0.380070X-0.521491X0.521491X0.380070X0*%
%ADD36RoundRect,0.250000X-0.475000X0.250000X-0.475000X-0.250000X0.475000X-0.250000X0.475000X0.250000X0*%
%ADD37RotRect,0.950000X1.500000X225.000000*%
%ADD38RotRect,0.760000X1.270000X45.000000*%
%ADD39RotRect,4.800000X3.200000X45.000000*%
%ADD40RoundRect,0.150000X-0.256326X-0.468458X0.468458X0.256326X0.256326X0.468458X-0.468458X-0.256326X0*%
%ADD41RoundRect,0.200000X0.200000X0.275000X-0.200000X0.275000X-0.200000X-0.275000X0.200000X-0.275000X0*%
%ADD42RotRect,0.760000X1.270000X225.000000*%
%ADD43RotRect,4.800000X3.200000X225.000000*%
%ADD44RoundRect,0.185000X-0.261630X0.000000X0.000000X-0.261630X0.261630X0.000000X0.000000X0.261630X0*%
%ADD45RoundRect,0.062500X-0.282843X0.194454X0.194454X-0.282843X0.282843X-0.194454X-0.194454X0.282843X0*%
%ADD46RoundRect,0.062500X-0.282843X-0.194454X-0.194454X-0.282843X0.282843X0.194454X0.194454X0.282843X0*%
%ADD47RotRect,0.600000X0.300000X225.000000*%
%ADD48RotRect,1.300000X0.300000X225.000000*%
%ADD49RotRect,0.600000X0.300000X135.000000*%
%ADD50RotRect,1.450000X2.000000X225.000000*%
%ADD51RoundRect,0.185000X0.279307X1.325825X-1.325825X-0.279307X-0.279307X-1.325825X1.325825X0.279307X0*%
%ADD52RotRect,1.800000X2.790000X135.000000*%
%ADD53RotRect,1.800000X2.790000X315.000000*%
%ADD54RotRect,2.550160X2.499360X225.000000*%
G04 APERTURE END LIST*
D10*
%TO.C,R8*%
X129540837Y-82091963D03*
X130707563Y-80925237D03*
%TD*%
D11*
%TO.C,R5*%
X128370763Y-83109637D03*
X127204037Y-84276363D03*
%TD*%
D12*
%TO.C,C20*%
X132346706Y-98930691D03*
X133442722Y-97834675D03*
%TD*%
%TO.C,C19*%
X130909866Y-97493850D03*
X132005882Y-96397834D03*
%TD*%
D13*
%TO.C,D1*%
X126358400Y-130327400D03*
X122358400Y-130327400D03*
%TD*%
D14*
%TO.C,C7*%
X129194200Y-84862823D03*
X130290216Y-85958839D03*
%TD*%
D15*
%TO.C,C1*%
X131231008Y-71943592D03*
X130134992Y-73039608D03*
%TD*%
D14*
%TO.C,C6*%
X130337200Y-83846823D03*
X131433216Y-84942839D03*
%TD*%
D15*
%TO.C,C2*%
X130138808Y-70876792D03*
X129042792Y-71972808D03*
%TD*%
D16*
%TO.C,R11*%
X131114800Y-78308200D03*
X129948074Y-77141474D03*
%TD*%
D10*
%TO.C,R7*%
X131674437Y-82193563D03*
X132841163Y-81026837D03*
%TD*%
D11*
%TO.C,R4*%
X135000163Y-78867837D03*
X133833437Y-80034563D03*
%TD*%
D17*
%TO.C,C27*%
X139028249Y-120994249D03*
X140371751Y-122337751D03*
%TD*%
D12*
%TO.C,C22*%
X142326992Y-109260008D03*
X143423008Y-108163992D03*
%TD*%
%TO.C,C21*%
X141055432Y-107662046D03*
X142151448Y-106566030D03*
%TD*%
D10*
%TO.C,R33*%
X127120339Y-115607097D03*
X128287065Y-114440371D03*
%TD*%
%TO.C,R28*%
X129796880Y-101480517D03*
X130963606Y-100313791D03*
%TD*%
%TO.C,R32*%
X124426262Y-112841180D03*
X125592988Y-111674454D03*
%TD*%
%TO.C,R31*%
X123258828Y-111673746D03*
X124425554Y-110507020D03*
%TD*%
%TO.C,R27*%
X128360040Y-100043676D03*
X129526766Y-98876950D03*
%TD*%
%TO.C,R30*%
X139953762Y-111637399D03*
X141120488Y-110470673D03*
%TD*%
%TO.C,R34*%
X128287772Y-116774532D03*
X129454498Y-115607806D03*
%TD*%
D14*
%TO.C,C5*%
X133843392Y-82103592D03*
X134939408Y-83199608D03*
%TD*%
%TO.C,C4*%
X134899400Y-81051400D03*
X135995416Y-82147416D03*
%TD*%
%TO.C,C28*%
X140599792Y-119593992D03*
X141695808Y-120690008D03*
%TD*%
D12*
%TO.C,C17*%
X129957192Y-92927808D03*
X131053208Y-91831792D03*
%TD*%
%TO.C,C18*%
X136992992Y-100141408D03*
X138089008Y-99045392D03*
%TD*%
D14*
%TO.C,C25*%
X132469885Y-115044885D03*
X133565901Y-116140901D03*
%TD*%
D15*
%TO.C,C26*%
X126532008Y-112964592D03*
X125435992Y-114060608D03*
%TD*%
D14*
%TO.C,C23*%
X125413524Y-105226063D03*
X126509540Y-106322079D03*
%TD*%
D18*
%TO.C,C12*%
X138332216Y-87887816D03*
X137236200Y-86791800D03*
%TD*%
D14*
%TO.C,C24*%
X133944885Y-113594885D03*
X135040901Y-114690901D03*
%TD*%
D12*
%TO.C,C3*%
X125308992Y-72557008D03*
X126405008Y-71460992D03*
%TD*%
D10*
%TO.C,R29*%
X138516919Y-110200559D03*
X139683645Y-109033833D03*
%TD*%
D19*
%TO.C,L9*%
X131760499Y-93736699D03*
X133263101Y-95239301D03*
%TD*%
D20*
%TO.C,L13*%
X136158701Y-98236501D03*
X134656099Y-96733899D03*
%TD*%
D18*
%TO.C,C41*%
X146648008Y-73048008D03*
X145551992Y-71951992D03*
%TD*%
D14*
%TO.C,C43*%
X156104584Y-60981584D03*
X157200600Y-62077600D03*
%TD*%
D15*
%TO.C,C59*%
X142848008Y-75451992D03*
X141751992Y-76548008D03*
%TD*%
%TO.C,C62*%
X155411808Y-83246592D03*
X154315792Y-84342608D03*
%TD*%
D21*
%TO.C,C14*%
X128051600Y-47777400D03*
X126151600Y-47777400D03*
%TD*%
D12*
%TO.C,C32*%
X132649592Y-50967008D03*
X133745608Y-49870992D03*
%TD*%
D18*
%TO.C,C47*%
X139968608Y-59044208D03*
X138872592Y-57948192D03*
%TD*%
%TO.C,C49*%
X146598008Y-67858008D03*
X145501992Y-66761992D03*
%TD*%
D12*
%TO.C,C29*%
X146009992Y-77891008D03*
X147106008Y-76794992D03*
%TD*%
D15*
%TO.C,C35*%
X142235088Y-84632070D03*
X141139072Y-85728086D03*
%TD*%
%TO.C,C58*%
X152236808Y-66533392D03*
X151140792Y-67629408D03*
%TD*%
%TO.C,C63*%
X157367608Y-69555992D03*
X156271592Y-70652008D03*
%TD*%
D18*
%TO.C,C65*%
X155107008Y-77002008D03*
X154010992Y-75905992D03*
%TD*%
D21*
%TO.C,C31*%
X138465600Y-47802800D03*
X136565600Y-47802800D03*
%TD*%
D12*
%TO.C,C45*%
X136307192Y-54675408D03*
X137403208Y-53579392D03*
%TD*%
D14*
%TO.C,C33*%
X140574392Y-56195592D03*
X141670408Y-57291608D03*
%TD*%
D18*
%TO.C,C50*%
X150027008Y-64429008D03*
X148930992Y-63332992D03*
%TD*%
D15*
%TO.C,C36*%
X145074008Y-87335992D03*
X143977992Y-88432008D03*
%TD*%
%TO.C,C37*%
X152437139Y-94788641D03*
X151341123Y-95884657D03*
%TD*%
%TO.C,C38*%
X155310208Y-97622992D03*
X154214192Y-98719008D03*
%TD*%
D14*
%TO.C,C44*%
X177821584Y-82977984D03*
X178917600Y-84074000D03*
%TD*%
D12*
%TO.C,C60*%
X163612192Y-98033208D03*
X164708208Y-96937192D03*
%TD*%
%TO.C,C61*%
X155636592Y-85587208D03*
X156732608Y-84491192D03*
%TD*%
D20*
%TO.C,L18*%
X144820101Y-70448901D03*
X143317499Y-68946299D03*
%TD*%
%TO.C,L22*%
X153786301Y-61203301D03*
X152283699Y-59700699D03*
%TD*%
D22*
%TO.C,L40*%
X142051301Y-78648699D03*
X140548699Y-80151301D03*
%TD*%
%TO.C,L44*%
X150992301Y-87640699D03*
X149489699Y-89143301D03*
%TD*%
D23*
%TO.C,L19*%
X141971299Y-67832701D03*
X143473901Y-66330099D03*
%TD*%
D22*
%TO.C,L23*%
X150458901Y-59345099D03*
X148956299Y-60847701D03*
%TD*%
D19*
%TO.C,L41*%
X139532899Y-81671699D03*
X141035501Y-83174301D03*
%TD*%
D20*
%TO.C,L45*%
X148096701Y-90514901D03*
X146594099Y-89012299D03*
%TD*%
D19*
%TO.C,L58*%
X147838699Y-66685699D03*
X149341301Y-68188301D03*
%TD*%
D22*
%TO.C,L69*%
X150103301Y-76591699D03*
X148600699Y-78094301D03*
%TD*%
D23*
%TO.C,L17*%
X133690899Y-52389501D03*
X135193501Y-50886899D03*
%TD*%
%TO.C,L54*%
X137323099Y-56224901D03*
X138825701Y-54722299D03*
%TD*%
%TO.C,L30*%
X152461499Y-68620101D03*
X153964101Y-67117499D03*
%TD*%
%TO.C,L36*%
X157262099Y-72023701D03*
X158764701Y-70521099D03*
%TD*%
D19*
%TO.C,L67*%
X152105899Y-76388499D03*
X153608501Y-77891101D03*
%TD*%
D20*
%TO.C,L59*%
X152948101Y-64937101D03*
X151445499Y-63434499D03*
%TD*%
D23*
%TO.C,L63*%
X153071099Y-80735901D03*
X154573701Y-79233299D03*
%TD*%
%TO.C,L24*%
X178953699Y-91861101D03*
X180456301Y-90358499D03*
%TD*%
D19*
%TO.C,L42*%
X156848699Y-98748699D03*
X158351301Y-100251301D03*
%TD*%
D20*
%TO.C,L46*%
X151373301Y-93588301D03*
X149870699Y-92085699D03*
%TD*%
%TO.C,L25*%
X180594000Y-88036400D03*
X179091398Y-86533798D03*
%TD*%
D23*
%TO.C,L43*%
X159848699Y-99451301D03*
X161351301Y-97948699D03*
%TD*%
%TO.C,L47*%
X150886699Y-90540301D03*
X152389301Y-89037699D03*
%TD*%
D16*
%TO.C,R35*%
X147883363Y-71883363D03*
X146716637Y-70716637D03*
%TD*%
D24*
%TO.C,R37*%
X155017037Y-62002237D03*
X156183763Y-63168963D03*
%TD*%
D11*
%TO.C,R39*%
X144220363Y-76505637D03*
X143053637Y-77672363D03*
%TD*%
D10*
%TO.C,R41*%
X152016637Y-86683363D03*
X153183363Y-85516637D03*
%TD*%
D24*
%TO.C,R38*%
X176633274Y-84177274D03*
X177800000Y-85344000D03*
%TD*%
D10*
%TO.C,R40*%
X162357637Y-96976363D03*
X163524363Y-95809637D03*
%TD*%
D11*
%TO.C,R42*%
X154483363Y-86816637D03*
X153316637Y-87983363D03*
%TD*%
D25*
%TO.C,U8*%
X147393263Y-79662660D03*
D26*
X146764645Y-82985355D03*
D25*
X148291289Y-80560686D03*
X149189314Y-81458711D03*
X150087340Y-82356737D03*
X146136027Y-86308050D03*
X145238001Y-85410024D03*
X144339976Y-84511999D03*
X143441950Y-83613973D03*
%TD*%
%TO.C,U9*%
X157643263Y-89812660D03*
D26*
X157014645Y-93135355D03*
D25*
X158541289Y-90710686D03*
X159439314Y-91608711D03*
X160337340Y-92506737D03*
X156386027Y-96458050D03*
X155488001Y-95560024D03*
X154589976Y-94661999D03*
X153691950Y-93763973D03*
%TD*%
D16*
%TO.C,R36*%
X167741600Y-94742000D03*
X166574874Y-93575274D03*
%TD*%
D18*
%TO.C,C42*%
X168645208Y-93512008D03*
X167549192Y-92415992D03*
%TD*%
D22*
%TO.C,L20*%
X173496701Y-97495899D03*
X171994099Y-98998501D03*
%TD*%
D20*
%TO.C,L21*%
X170738800Y-97586800D03*
X169236198Y-96084198D03*
%TD*%
D23*
%TO.C,L8*%
X128941099Y-96179101D03*
X130443701Y-94676499D03*
%TD*%
D19*
%TO.C,L10*%
X141768099Y-103947499D03*
X143270701Y-105450101D03*
%TD*%
D11*
%TO.C,R25*%
X139013363Y-104064637D03*
X137846637Y-105231363D03*
%TD*%
%TO.C,R3*%
X148284363Y-95047637D03*
X147117637Y-96214363D03*
%TD*%
D14*
%TO.C,C56*%
X175270792Y-91044392D03*
X176366808Y-92140408D03*
%TD*%
D22*
%TO.C,L39*%
X156529501Y-73340499D03*
X155026899Y-74843101D03*
%TD*%
D27*
%TO.C,C34*%
X192405000Y-101087000D03*
X192405000Y-99187000D03*
%TD*%
D18*
%TO.C,C64*%
X164519616Y-86033616D03*
X163423600Y-84937600D03*
%TD*%
D28*
%TO.C,L14*%
X135026400Y-47879000D03*
X132901400Y-47879000D03*
%TD*%
D23*
%TO.C,L7*%
X143596899Y-111215901D03*
X145099501Y-109713299D03*
%TD*%
D22*
%TO.C,L29*%
X172150501Y-85989699D03*
X170647899Y-87492301D03*
%TD*%
%TO.C,L37*%
X165673501Y-81087499D03*
X164170899Y-82590101D03*
%TD*%
D19*
%TO.C,L53*%
X137069099Y-50429699D03*
X138571701Y-51932301D03*
%TD*%
D29*
%TO.C,L15*%
X192405000Y-102696500D03*
X192405000Y-104821500D03*
%TD*%
D19*
%TO.C,L32*%
X167904699Y-87005699D03*
X169407301Y-88508301D03*
%TD*%
D11*
%TO.C,R24*%
X128954963Y-93904637D03*
X127788237Y-95071363D03*
%TD*%
D24*
%TO.C,R52*%
X171628637Y-103683637D03*
X172795363Y-104850363D03*
%TD*%
D14*
%TO.C,C11*%
X153670000Y-103505000D03*
X154766016Y-104601016D03*
%TD*%
D12*
%TO.C,C13*%
X147457792Y-98896808D03*
X148553808Y-97800792D03*
%TD*%
%TO.C,C66*%
X146594192Y-114340008D03*
X147690208Y-113243992D03*
%TD*%
D22*
%TO.C,L62*%
X187822301Y-104988899D03*
X186319699Y-106491501D03*
%TD*%
D30*
%TO.C,C74*%
X166672102Y-104930098D03*
X165328600Y-106273600D03*
%TD*%
D18*
%TO.C,C82*%
X158292800Y-106146600D03*
X157196784Y-105050584D03*
%TD*%
D31*
%TO.C,L51*%
X160820100Y-103987600D03*
X158915100Y-103987600D03*
%TD*%
D19*
%TO.C,L5*%
X129423699Y-50074099D03*
X130926301Y-51576701D03*
%TD*%
D32*
%TO.C,U1*%
X152555023Y-118096996D03*
X150928678Y-116470650D03*
D33*
X155383450Y-112015878D03*
D32*
X149302332Y-114844305D03*
%TD*%
D34*
%TO.C,C80*%
X157211951Y-107681951D03*
X155868449Y-106338449D03*
%TD*%
D19*
%TO.C,L56*%
X140309600Y-53517800D03*
X141812202Y-55020402D03*
%TD*%
D23*
%TO.C,L12*%
X133690899Y-101030501D03*
X135193501Y-99527899D03*
%TD*%
D24*
%TO.C,R12*%
X127966037Y-73127437D03*
X129132763Y-74294163D03*
%TD*%
D10*
%TO.C,R2*%
X137770437Y-84885963D03*
X138937163Y-83719237D03*
%TD*%
D24*
%TO.C,R1*%
X155245637Y-101727837D03*
X156412363Y-102894563D03*
%TD*%
D12*
%TO.C,C9*%
X152690192Y-106923208D03*
X153786208Y-105827192D03*
%TD*%
%TO.C,C53*%
X162037392Y-93893008D03*
X163133408Y-92796992D03*
%TD*%
D19*
%TO.C,L52*%
X133182899Y-54417499D03*
X134685501Y-55920101D03*
%TD*%
D30*
%TO.C,C68*%
X169429351Y-105906649D03*
X168085849Y-107250151D03*
%TD*%
D19*
%TO.C,L55*%
X136154699Y-57668699D03*
X137657301Y-59171301D03*
%TD*%
%TO.C,L3*%
X149235699Y-96276699D03*
X150738301Y-97779301D03*
%TD*%
D20*
%TO.C,L16*%
X189828901Y-110631701D03*
X188326299Y-109129099D03*
%TD*%
D22*
%TO.C,L33*%
X184774301Y-101966299D03*
X183271699Y-103468901D03*
%TD*%
D20*
%TO.C,L27*%
X189092301Y-103265701D03*
X187589699Y-101763099D03*
%TD*%
D30*
%TO.C,C76*%
X165111351Y-103417449D03*
X163767849Y-104760951D03*
%TD*%
D12*
%TO.C,C52*%
X169860592Y-84799808D03*
X170956608Y-83703792D03*
%TD*%
D20*
%TO.C,L6*%
X146166301Y-108396501D03*
X144663699Y-106893899D03*
%TD*%
D23*
%TO.C,L38*%
X165339299Y-84037901D03*
X166841901Y-82535299D03*
%TD*%
D15*
%TO.C,C40*%
X189016008Y-106309792D03*
X187919992Y-107405808D03*
%TD*%
D16*
%TO.C,R15*%
X127507163Y-81710963D03*
X126340437Y-80544237D03*
%TD*%
D35*
%TO.C,U3*%
X149444194Y-99389250D03*
X149903813Y-99848869D03*
X150363433Y-100308488D03*
X150823052Y-100768108D03*
X151282672Y-101227727D03*
X151742291Y-101687347D03*
X152201910Y-102146966D03*
X148153724Y-106195152D03*
X147694105Y-105735533D03*
X147234485Y-105275914D03*
X146774866Y-104816294D03*
X146315246Y-104356675D03*
X145855627Y-103897055D03*
X145396008Y-103437436D03*
%TD*%
D11*
%TO.C,R23*%
X146049163Y-111227437D03*
X144882437Y-112394163D03*
%TD*%
D20*
%TO.C,L61*%
X157723301Y-67553301D03*
X156220699Y-66050699D03*
%TD*%
D15*
%TO.C,C46*%
X185942608Y-103439592D03*
X184846592Y-104535608D03*
%TD*%
D19*
%TO.C,L26*%
X170012899Y-90612499D03*
X171515501Y-92115101D03*
%TD*%
D20*
%TO.C,L4*%
X143778701Y-90641901D03*
X142276099Y-89139299D03*
%TD*%
D36*
%TO.C,C69*%
X144932400Y-117896600D03*
X144932400Y-119796600D03*
%TD*%
D14*
%TO.C,C55*%
X182535192Y-99172392D03*
X183631208Y-100268408D03*
%TD*%
D37*
%TO.C,D3*%
X139274153Y-115386247D03*
X142208647Y-112451753D03*
%TD*%
D11*
%TO.C,R26*%
X136016163Y-101219837D03*
X134849437Y-102386563D03*
%TD*%
D38*
%TO.C,U6*%
X140847705Y-60991782D03*
X141745731Y-60093756D03*
D39*
X144170400Y-61620400D03*
D38*
X142643756Y-59195731D03*
X143541782Y-58297705D03*
X147493095Y-62249018D03*
X146595069Y-63147044D03*
X145697044Y-64045069D03*
X144799018Y-64943095D03*
%TD*%
D19*
%TO.C,L2*%
X139242800Y-86055200D03*
X140745402Y-87557802D03*
%TD*%
D16*
%TO.C,R13*%
X130047163Y-79374163D03*
X128880437Y-78207437D03*
%TD*%
%TO.C,R14*%
X128675563Y-80644163D03*
X127508837Y-79477437D03*
%TD*%
D40*
%TO.C,U11*%
X171984025Y-110830277D03*
X171312274Y-110158526D03*
X170640523Y-109486775D03*
X172249191Y-107878107D03*
X172920942Y-108549858D03*
X173592693Y-109221609D03*
%TD*%
D19*
%TO.C,L60*%
X153299699Y-70114699D03*
X154802301Y-71617301D03*
%TD*%
D20*
%TO.C,L57*%
X182081901Y-104992901D03*
X180579299Y-103490299D03*
%TD*%
D12*
%TO.C,C54*%
X156169992Y-88432008D03*
X157266008Y-87335992D03*
%TD*%
D41*
%TO.C,R54*%
X144893800Y-114046000D03*
X143243800Y-114046000D03*
%TD*%
D14*
%TO.C,C57*%
X172476792Y-93482792D03*
X173572808Y-94578808D03*
%TD*%
D11*
%TO.C,R9*%
X143509163Y-92939437D03*
X142342437Y-94106163D03*
%TD*%
D14*
%TO.C,C10*%
X143433800Y-95199200D03*
X144529816Y-96295216D03*
%TD*%
D18*
%TO.C,C72*%
X175985808Y-111571408D03*
X174889792Y-110475392D03*
%TD*%
D12*
%TO.C,C51*%
X171511592Y-89448008D03*
X172607608Y-88351992D03*
%TD*%
%TO.C,C15*%
X140040992Y-102910008D03*
X141137008Y-101813992D03*
%TD*%
D10*
%TO.C,R10*%
X151511837Y-105790163D03*
X152678563Y-104623437D03*
%TD*%
D20*
%TO.C,L31*%
X173852301Y-84266501D03*
X172349699Y-82763899D03*
%TD*%
D14*
%TO.C,C67*%
X146771992Y-116418992D03*
X147868008Y-117515008D03*
%TD*%
D20*
%TO.C,L1*%
X154029602Y-100816602D03*
X152527000Y-99314000D03*
%TD*%
D27*
%TO.C,C39*%
X192303400Y-111287600D03*
X192303400Y-109387600D03*
%TD*%
D42*
%TO.C,U7*%
X181551629Y-97301018D03*
X180653603Y-98199044D03*
D43*
X178228934Y-96672400D03*
D42*
X179755578Y-99097069D03*
X178857552Y-99995095D03*
X174906239Y-96043782D03*
X175804265Y-95145756D03*
X176702290Y-94247731D03*
X177600316Y-93349705D03*
%TD*%
D23*
%TO.C,L65*%
X157287499Y-75224101D03*
X158790101Y-73721499D03*
%TD*%
D31*
%TO.C,L48*%
X139560300Y-117932200D03*
X137655300Y-117932200D03*
%TD*%
D15*
%TO.C,C70*%
X170535600Y-107340400D03*
X169439584Y-108436416D03*
%TD*%
D18*
%TO.C,C48*%
X181726208Y-102224208D03*
X180630192Y-101128192D03*
%TD*%
D44*
%TO.C,U12*%
X125748144Y-75820505D03*
X126349185Y-76421546D03*
X125748144Y-77022587D03*
X125147103Y-76421546D03*
D45*
X124192509Y-75926571D03*
X124546062Y-75573018D03*
X124899616Y-75219464D03*
X125253169Y-74865911D03*
D46*
X126243119Y-74865911D03*
X126596672Y-75219464D03*
X126950226Y-75573018D03*
X127303779Y-75926571D03*
D45*
X127303779Y-76916521D03*
X126950226Y-77270074D03*
X126596672Y-77623628D03*
X126243119Y-77977181D03*
D46*
X125253169Y-77977181D03*
X124899616Y-77623628D03*
X124546062Y-77270074D03*
X124192509Y-76916521D03*
%TD*%
D16*
%TO.C,R48*%
X175005163Y-107085563D03*
X173838437Y-105918837D03*
%TD*%
D14*
%TO.C,C8*%
X144663792Y-93965392D03*
X145759808Y-95061408D03*
%TD*%
D35*
%TO.C,U2*%
X139287313Y-89232369D03*
X139746932Y-89691988D03*
X140206552Y-90151607D03*
X140666171Y-90611227D03*
X141125791Y-91070846D03*
X141585410Y-91530466D03*
X142045029Y-91990085D03*
X137996843Y-96038271D03*
X137537224Y-95578652D03*
X137077604Y-95119033D03*
X136617985Y-94659413D03*
X136158365Y-94199794D03*
X135698746Y-93740174D03*
X135239127Y-93280555D03*
%TD*%
D20*
%TO.C,L64*%
X175223901Y-88686101D03*
X173721299Y-87183499D03*
%TD*%
D47*
%TO.C,U5*%
X128740460Y-107014336D03*
X129094014Y-107367890D03*
X129447567Y-107721443D03*
X129801120Y-108074996D03*
X130154674Y-108428550D03*
D48*
X130260740Y-109029590D03*
X130614293Y-109383144D03*
X130967847Y-109736697D03*
D47*
X131568887Y-109842763D03*
X131922441Y-110196317D03*
X132275994Y-110549870D03*
X132629547Y-110903423D03*
X132983101Y-111256977D03*
D49*
X132452771Y-112282282D03*
X132099217Y-112635835D03*
X131745664Y-112989388D03*
X131392111Y-113342942D03*
D47*
X130366806Y-113873272D03*
X130013252Y-113519718D03*
X129659699Y-113166165D03*
X129306146Y-112812612D03*
X128952592Y-112459058D03*
D48*
X128846526Y-111858018D03*
X128492973Y-111504464D03*
X128139419Y-111150911D03*
D47*
X127538379Y-111044845D03*
X127184825Y-110691291D03*
X126831272Y-110337738D03*
X126477719Y-109984185D03*
X126124165Y-109630631D03*
D49*
X126654495Y-108605326D03*
X127008049Y-108251773D03*
X127361602Y-107898220D03*
X127715155Y-107544666D03*
D50*
X129553633Y-110443804D03*
D51*
X130900671Y-111790842D03*
X128206595Y-109096766D03*
%TD*%
D23*
%TO.C,L70*%
X161696400Y-91135200D03*
X163199002Y-89632598D03*
%TD*%
D22*
%TO.C,L68*%
X160364901Y-87081899D03*
X158862299Y-88584501D03*
%TD*%
D23*
%TO.C,L11*%
X139101099Y-106466101D03*
X140603701Y-104963499D03*
%TD*%
D22*
%TO.C,L35*%
X170423301Y-81849499D03*
X168920699Y-83352101D03*
%TD*%
D24*
%TO.C,R6*%
X144958637Y-91694837D03*
X146125363Y-92861563D03*
%TD*%
D20*
%TO.C,L28*%
X184723501Y-107710701D03*
X183220899Y-106208099D03*
%TD*%
%TO.C,L34*%
X186399901Y-100624101D03*
X184897299Y-99121499D03*
%TD*%
D12*
%TO.C,C30*%
X151750392Y-83961608D03*
X152846408Y-82865592D03*
%TD*%
D52*
%TO.C,L49*%
X168468972Y-113143956D03*
D53*
X165113751Y-109788735D03*
%TD*%
D54*
%TO.C,C78*%
X162505683Y-107547117D03*
X158935133Y-111117667D03*
%TD*%
D12*
%TO.C,C16*%
X147102192Y-110149008D03*
X148198208Y-109052992D03*
%TD*%
D19*
%TO.C,L66*%
X162001200Y-86004400D03*
X163503802Y-87507002D03*
%TD*%
M02*
