M48
; DRILL file {KiCad 6.0.10+dfsg-1~bpo11+1} date Tue Feb 14 13:36:45 2023
; FORMAT={-:-/ absolute / metric / decimal}
; #@! TF.CreationDate,2023-02-14T13:36:45+00:00
; #@! TF.GenerationSoftware,Kicad,Pcbnew,6.0.10+dfsg-1~bpo11+1
; #@! TF.FileFunction,Plated,1,2,PTH
FMAT,2
METRIC
; #@! TA.AperFunction,Plated,PTH,ComponentDrill
T1C0.300
; #@! TA.AperFunction,Plated,PTH,ViaDrill
T2C0.400
; #@! TA.AperFunction,Plated,PTH,ComponentDrill
T3C0.400
; #@! TA.AperFunction,Plated,PTH,ViaDrill
T4C0.500
; #@! TA.AperFunction,Plated,PTH,ComponentDrill
T5C0.500
; #@! TA.AperFunction,Plated,PTH,ComponentDrill
T6C0.889
; #@! TA.AperFunction,Plated,PTH,ComponentDrill
T7C1.400
; #@! TA.AperFunction,Plated,PTH,ComponentDrill
T8C3.000
%
G90
G05
T1
X123.047Y-61.595
X123.436Y-61.206
X123.436Y-61.984
X123.825Y-60.817
X123.825Y-61.595
X123.825Y-62.373
X124.214Y-61.206
X124.214Y-61.984
X124.603Y-61.595
X124.97Y-76.422
X125.359Y-76.033
X125.359Y-76.81
X125.748Y-75.644
X125.748Y-76.422
X125.748Y-77.199
X126.137Y-76.033
X126.137Y-76.81
X126.526Y-76.422
X161.846Y-116.857
X162.235Y-116.469
X162.235Y-117.246
X162.624Y-116.08
X162.624Y-116.857
X162.624Y-117.635
X163.013Y-116.469
X163.013Y-117.246
X163.402Y-116.857
T2
X105.5Y-99.5
X105.5Y-105.0
X105.5Y-110.0
X105.5Y-115.0
X105.5Y-120.0
X105.5Y-125.0
X105.5Y-130.0
X105.5Y-134.5
X109.957Y-72.06
X110.0Y-105.0
X110.0Y-134.5
X110.007Y-62.84
X110.007Y-77.648
X110.033Y-56.896
X110.058Y-67.259
X110.185Y-84.379
X110.5Y-99.5
X111.633Y-107.442
X111.938Y-69.19
X112.039Y-65.71
X112.19Y-54.44
X112.19Y-125.56
X112.522Y-60.96
X112.522Y-63.246
X112.84Y-52.84
X112.84Y-56.04
X112.84Y-123.96
X112.84Y-127.16
X114.44Y-123.31
X114.44Y-127.81
X114.5Y-52.25
X115.0Y-99.5
X115.0Y-134.5
X115.138Y-106.477
X115.57Y-67.818
X116.04Y-52.84
X116.04Y-123.96
X116.04Y-127.16
X116.459Y-112.014
X116.69Y-54.44
X116.69Y-125.56
X117.221Y-60.452
X117.348Y-109.855
X117.754Y-103.911
X118.034Y-69.723
X118.11Y-59.563
X118.364Y-111.379
X118.491Y-107.696
X118.872Y-58.801
X119.126Y-74.549
X119.253Y-79.121
X119.253Y-83.693
X119.253Y-92.12
X119.253Y-96.926
X119.304Y-101.143
X119.38Y-87.836
X119.761Y-58.039
X120.0Y-134.5
X120.625Y-67.335
X120.65Y-71.628
X121.031Y-60.96
X121.5Y-111.7
X121.92Y-103.886
X122.047Y-70.739
X122.047Y-74.676
X122.174Y-56.896
X122.301Y-92.862
X122.301Y-96.952
X122.428Y-59.309
X122.453Y-101.117
X122.504Y-88.087
X122.555Y-81.204
X122.606Y-84.328
X122.764Y-110.115
X122.809Y-73.787
X123.393Y-64.948
X123.546Y-76.276
X123.698Y-73.152
X124.028Y-108.001
X124.6Y-115.4
X125.0Y-134.5
X125.095Y-106.807
X125.286Y-94.234
X125.349Y-102.235
X125.628Y-58.318
X125.73Y-103.759
X126.111Y-57.379
X126.2Y-107.8
X126.599Y-99.476
X126.619Y-60.452
X126.8Y-104.4
X126.924Y-49.962
X127.189Y-82.889
X127.189Y-96.061
X127.197Y-112.056
X127.223Y-89.053
X127.254Y-70.612
X127.432Y-86.69
X127.457Y-106.324
X127.635Y-52.324
X127.746Y-109.602
X127.762Y-67.564
X127.762Y-71.755
X128.245Y-85.877
X128.3Y-118.5
X128.397Y-70.866
X128.452Y-97.822
X128.734Y-108.615
X128.905Y-92.075
X128.93Y-65.049
X128.956Y-56.032
X129.127Y-110.018
X129.159Y-53.721
X129.3Y-89.6
X129.54Y-67.31
X129.54Y-87.249
X129.667Y-47.371
X129.9Y-117.12
X129.921Y-60.503
X130.0Y-134.5
X130.025Y-110.916
X130.3Y-90.5
X130.302Y-62.662
X130.351Y-112.207
X130.429Y-75.438
X130.556Y-56.794
X130.607Y-48.92
X130.849Y-102.551
X130.978Y-107.863
X131.064Y-82.804
X131.064Y-118.11
X131.338Y-111.219
X131.35Y-116.2
X131.572Y-47.371
X131.572Y-88.138
X131.9Y-105.2
X131.953Y-74.549
X132.08Y-119.228
X132.155Y-109.01
X132.258Y-52.273
X132.334Y-88.9
X132.436Y-57.785
X132.461Y-73.279
X132.664Y-67.437
X132.7Y-107.3
X132.766Y-84.379
X132.969Y-71.247
X133.096Y-89.662
X133.147Y-60.477
X133.198Y-85.649
X133.325Y-64.237
X133.35Y-77.47
X133.883Y-106.045
X133.96Y-112.598
X133.985Y-61.976
X134.2Y-116.8
X134.7Y-108.1
X134.849Y-60.477
X135.0Y-130.0
X135.0Y-134.5
X135.357Y-54.661
X135.534Y-65.176
X135.7Y-115.3
X135.738Y-62.306
X135.89Y-77.851
X135.941Y-66.954
X136.129Y-92.155
X136.144Y-96.647
X136.195Y-72.085
X136.398Y-75.819
X136.931Y-52.934
X137.008Y-65.71
X137.033Y-81.153
X137.185Y-64.414
X137.489Y-93.499
X137.499Y-109.201
X137.541Y-98.12
X137.836Y-82.964
X138.049Y-66.904
X138.303Y-80.391
X138.4Y-101.8
X138.811Y-78.74
X138.989Y-99.543
X139.1Y-95.2
X139.192Y-65.557
X139.395Y-100.787
X139.4Y-96.5
X139.827Y-50.8
X139.827Y-70.485
X139.852Y-74.828
X140.0Y-134.5
X140.335Y-76.835
X140.5Y-101.0
X141.097Y-77.597
X141.224Y-72.009
X141.351Y-51.943
X141.376Y-73.101
X141.9Y-74.3
X141.91Y-52.883
X142.011Y-102.5
X142.367Y-71.984
X142.621Y-68.428
X142.646Y-73.203
X143.002Y-51.003
X143.1Y-91.9
X143.256Y-53.467
X143.307Y-96.774
X144.094Y-93.447
X144.45Y-53.315
X144.78Y-125.095
X145.034Y-127.508
X145.415Y-98.476
X145.669Y-69.088
X145.725Y-96.75
X146.2Y-106.8
X146.38Y-73.482
X146.431Y-122.555
X146.685Y-129.921
X146.8Y-93.4
X146.939Y-75.184
X147.218Y-91.948
X147.574Y-107.975
X147.599Y-112.319
X147.9Y-94.7
X148.107Y-73.838
X148.158Y-69.774
X148.996Y-66.675
X149.2Y-65.532
X149.225Y-108.331
X149.352Y-112.243
X149.682Y-102.387
X149.758Y-62.205
X149.8Y-94.45
X149.86Y-67.158
X150.1Y-105.2
X150.114Y-121.285
X150.368Y-72.06
X150.368Y-110.744
X150.368Y-131.699
X150.52Y-65.329
X151.079Y-62.535
X151.13Y-133.604
X151.384Y-112.649
X152.019Y-61.722
X152.07Y-65.761
X152.273Y-115.189
X152.832Y-69.977
X153.035Y-113.919
X153.162Y-57.531
X153.162Y-62.738
X153.162Y-122.428
X153.213Y-102.337
X153.67Y-84.988
X154.178Y-73.685
X154.28Y-68.072
X154.813Y-58.674
X154.94Y-111.76
X154.965Y-86.284
X155.067Y-126.365
X155.575Y-56.642
X155.727Y-60.173
X156.032Y-77.343
X156.21Y-82.22
X156.21Y-109.982
X156.693Y-121.006
X156.845Y-128.143
X156.947Y-62.89
X157.099Y-117.272
X157.226Y-59.893
X157.404Y-78.664
X157.455Y-75.209
X157.709Y-83.668
X157.81Y-81.585
X157.886Y-72.441
X157.963Y-69.748
X158.064Y-122.25
X158.267Y-110.007
X158.496Y-56.896
X158.496Y-114.046
X158.902Y-101.498
X159.258Y-66.802
X159.385Y-62.611
X159.563Y-74.778
X159.715Y-105.715
X159.893Y-69.545
X159.893Y-129.794
X160.02Y-118.11
X160.045Y-71.628
X160.045Y-102.083
X160.223Y-77.572
X160.528Y-58.42
X160.528Y-115.316
X160.782Y-111.252
X161.036Y-83.058
X161.138Y-119.939
X161.5Y-51.1
X161.519Y-80.086
X162.001Y-107.95
X162.179Y-60.198
X162.306Y-105.613
X162.306Y-110.998
X162.484Y-83.058
X162.941Y-102.362
X163.093Y-66.624
X163.195Y-120.904
X163.322Y-72.263
X163.652Y-82.017
X163.83Y-61.849
X164.084Y-118.999
X164.084Y-121.666
X164.338Y-93.726
X164.617Y-80.874
X164.744Y-99.873
X164.846Y-124.841
X164.871Y-122.555
X164.948Y-92.075
X165.125Y-77.775
X165.608Y-117.602
X165.623Y-129.859
X166.116Y-90.17
X166.243Y-122.936
X166.345Y-64.44
X166.37Y-120.523
X166.421Y-80.874
X166.446Y-97.257
X166.472Y-95.656
X166.522Y-85.268
X166.548Y-55.956
X166.624Y-91.694
X166.954Y-75.26
X167.005Y-93.091
X167.259Y-119.634
X167.386Y-120.777
X167.538Y-98.374
X167.64Y-65.634
X167.64Y-90.424
X168.275Y-118.745
X168.351Y-80.899
X168.402Y-119.888
X168.478Y-111.404
X168.656Y-72.085
X168.935Y-106.68
X169.037Y-49.276
X169.037Y-124.841
X169.164Y-122.936
X169.342Y-81.813
X169.418Y-129.794
X169.469Y-67.615
X169.799Y-91.973
X169.85Y-87.071
X170.002Y-101.016
X170.256Y-102.692
X170.282Y-78.257
X170.307Y-94.361
X170.891Y-108.737
X170.942Y-97.841
X170.967Y-110.719
X171.044Y-81.559
X171.069Y-120.015
X171.45Y-121.412
X171.653Y-87.224
X171.729Y-75.54
X171.729Y-84.633
X171.755Y-69.748
X171.856Y-61.392
X171.958Y-122.936
X172.187Y-101.981
X172.212Y-112.395
X172.593Y-80.874
X172.593Y-124.841
X172.771Y-90.551
X172.974Y-111.633
X173.101Y-129.794
X173.152Y-85.242
X173.355Y-121.539
X173.482Y-104.521
X173.685Y-71.628
X173.736Y-100.94
X173.863Y-53.721
X174.117Y-117.983
X174.142Y-81.559
X174.828Y-88.646
X174.879Y-106.299
X175.006Y-116.205
X175.133Y-90.119
X175.133Y-122.555
X175.412Y-103.683
X175.514Y-48.006
X175.641Y-119.126
X175.768Y-82.906
X175.895Y-73.914
X175.997Y-109.372
X176.784Y-129.794
X176.936Y-81.991
X177.165Y-120.396
X177.19Y-104.8
X177.241Y-83.566
X177.368Y-110.82
X177.673Y-117.348
X177.952Y-67.691
X178.054Y-88.138
X178.486Y-76.378
X178.562Y-48.133
X178.562Y-89.535
X178.689Y-125.857
X178.816Y-115.316
X178.918Y-104.648
X179.07Y-113.157
X179.197Y-58.928
X179.959Y-82.982
X180.137Y-106.096
X180.442Y-85.623
X180.863Y-129.986
X181.102Y-119.761
X181.458Y-107.264
X181.559Y-91.923
X181.686Y-79.604
X181.864Y-48.006
X181.991Y-86.868
X182.931Y-81.61
X183.007Y-108.788
X183.058Y-84.404
X183.134Y-72.898
X183.31Y-54.44
X183.31Y-125.56
X183.591Y-94.361
X183.96Y-52.84
X183.96Y-56.04
X183.96Y-123.96
X183.96Y-127.16
X184.531Y-113.411
X184.556Y-105.308
X184.912Y-48.133
X185.1Y-70.917
X185.115Y-95.504
X185.42Y-108.839
X185.496Y-110.439
X185.547Y-117.856
X185.56Y-52.19
X185.56Y-56.69
X185.56Y-123.31
X185.56Y-127.81
X185.979Y-97.206
X186.0Y-70.017
X186.0Y-70.917
X186.0Y-71.817
X186.309Y-102.743
X186.9Y-70.917
X187.071Y-98.806
X187.16Y-52.84
X187.16Y-56.04
X187.16Y-123.96
X187.16Y-127.16
X187.427Y-111.1
X187.81Y-54.44
X187.81Y-125.56
X188.087Y-99.822
X188.468Y-48.387
X188.468Y-85.827
X188.544Y-106.274
X188.976Y-76.454
X189.23Y-100.838
X189.23Y-115.443
X189.484Y-120.396
X189.636Y-105.461
X190.5Y-101.727
X190.627Y-99.949
X190.906Y-107.34
X191.008Y-50.165
X191.643Y-133.604
X192.532Y-107.671
X192.583Y-105.486
X193.167Y-81.915
X193.294Y-75.819
X193.421Y-70.231
X193.421Y-73.406
X193.421Y-79.121
X193.548Y-52.197
X193.548Y-54.991
X193.548Y-66.421
X193.675Y-58.42
X193.675Y-62.23
X193.802Y-131.445
T3
X111.0Y-90.0
X111.402Y-88.5
X111.402Y-91.5
X112.5Y-87.402
X112.5Y-92.598
X114.0Y-87.0
X114.0Y-93.0
X115.5Y-87.402
X115.5Y-92.598
X116.598Y-88.5
X116.598Y-91.5
X117.0Y-90.0
X147.0Y-54.0
X147.0Y-126.0
X147.402Y-52.5
X147.402Y-55.5
X147.402Y-124.5
X147.402Y-127.5
X148.5Y-51.402
X148.5Y-56.598
X148.5Y-123.402
X148.5Y-128.598
X150.0Y-51.0
X150.0Y-57.0
X150.0Y-123.0
X150.0Y-129.0
X151.5Y-51.402
X151.5Y-56.598
X151.5Y-123.402
X151.5Y-128.598
X152.598Y-52.5
X152.598Y-55.5
X152.598Y-124.5
X152.598Y-127.5
X153.0Y-54.0
X153.0Y-126.0
X183.0Y-90.0
X183.402Y-88.5
X183.402Y-91.5
X184.5Y-87.402
X184.5Y-92.598
X186.0Y-87.0
X186.0Y-93.0
X187.5Y-87.402
X187.5Y-92.598
X188.598Y-88.5
X188.598Y-91.5
X189.0Y-90.0
T4
X138.532Y-57.48
X138.684Y-58.953
X139.353Y-63.271
X139.573Y-56.337
X139.573Y-72.898
X139.852Y-57.836
X140.06Y-62.564
X140.06Y-63.979
X140.767Y-64.686
X140.767Y-63.271
X141.072Y-56.642
X141.474Y-63.979
X141.478Y-81.407
X142.24Y-86.741
X142.469Y-80.543
X142.57Y-82.575
X143.129Y-87.503
X143.256Y-86.487
X143.406Y-79.627
X143.441Y-85.46
X143.535Y-81.585
X144.29Y-86.309
X144.467Y-78.566
X144.475Y-80.67
X144.628Y-65.71
X144.966Y-57.76
X145.491Y-79.629
X145.673Y-57.052
X145.673Y-58.467
X145.974Y-64.44
X146.025Y-65.862
X146.38Y-57.76
X146.38Y-59.174
X146.99Y-63.221
X147.087Y-58.467
X147.218Y-87.274
X147.345Y-65.456
X147.777Y-64.186
X148.133Y-86.309
X148.133Y-88.29
X148.311Y-77.851
X149.073Y-87.274
X149.225Y-85.369
X149.428Y-79.07
X149.784Y-76.987
X149.947Y-84.046
X150.123Y-86.344
X150.444Y-80.213
X150.622Y-78.13
X151.184Y-85.283
X151.613Y-81.28
X151.663Y-79.223
X151.79Y-91.872
X152.4Y-96.901
X152.806Y-80.213
X152.857Y-90.729
X152.883Y-92.812
X153.289Y-97.663
X153.416Y-96.647
X153.691Y-95.61
X153.848Y-91.643
X154.026Y-89.662
X154.54Y-96.459
X154.737Y-88.29
X154.788Y-90.703
X155.448Y-99.847
X155.702Y-89.865
X156.515Y-100.863
X157.48Y-101.905
X157.709Y-97.079
X158.445Y-88.341
X158.648Y-98.222
X158.801Y-96.672
X159.182Y-95.58
X159.588Y-89.332
X159.868Y-97.028
X160.325Y-94.31
X160.401Y-90.551
X160.604Y-88.443
X160.63Y-95.758
X161.29Y-100.762
X161.569Y-87.224
X161.569Y-89.51
X161.773Y-91.719
X161.976Y-95.453
X162.789Y-88.773
X162.839Y-99.67
X173.888Y-93.269
X174.041Y-94.742
X174.481Y-99.162
X174.93Y-92.126
X175.188Y-98.454
X175.188Y-99.869
X175.209Y-93.624
X175.895Y-99.162
X175.895Y-100.576
X176.428Y-92.431
X176.602Y-99.869
X179.963Y-93.747
X180.365Y-101.219
X180.67Y-94.454
X180.67Y-93.04
X181.377Y-93.747
X181.377Y-95.162
X181.585Y-100.025
X181.864Y-101.524
X182.084Y-94.454
X182.753Y-98.908
X182.905Y-100.381
T5
X141.058Y-61.54
X141.766Y-60.833
X141.766Y-62.247
X142.473Y-60.126
X142.473Y-61.54
X142.473Y-62.954
X143.18Y-59.419
X143.18Y-60.833
X143.18Y-62.247
X143.887Y-58.712
X143.887Y-60.126
X143.887Y-61.54
X144.594Y-59.419
X144.594Y-60.833
X144.643Y-82.278
X145.301Y-60.126
X145.35Y-81.571
X145.35Y-82.985
X146.058Y-80.864
X146.058Y-82.278
X146.058Y-83.692
X146.765Y-81.571
X146.765Y-82.985
X146.765Y-84.4
X147.472Y-82.278
X147.472Y-83.692
X147.472Y-85.107
X148.179Y-82.985
X148.179Y-84.4
X148.886Y-83.692
X154.893Y-92.428
X155.6Y-91.721
X155.6Y-93.135
X156.308Y-91.014
X156.308Y-92.428
X156.308Y-93.842
X157.015Y-91.721
X157.015Y-93.135
X157.015Y-94.55
X157.722Y-92.428
X157.722Y-93.842
X157.722Y-95.257
X158.429Y-93.135
X158.429Y-94.55
X159.136Y-93.842
X176.187Y-97.481
X176.894Y-96.774
X176.894Y-98.188
X177.601Y-96.067
X177.601Y-97.481
X177.601Y-98.895
X178.308Y-95.36
X178.308Y-96.774
X178.308Y-98.188
X179.015Y-94.653
X179.015Y-96.067
X179.015Y-97.481
X179.722Y-95.36
X179.722Y-96.774
X180.429Y-96.067
T6
X134.584Y-121.031
X136.38Y-119.235
X136.38Y-122.827
X138.176Y-121.031
X138.176Y-124.623
X139.972Y-122.827
T7
X111.071Y-110.071
X113.765Y-112.765
X116.459Y-115.459
X119.153Y-118.153
X121.847Y-120.847
X124.541Y-123.541
X127.235Y-126.235
X129.929Y-128.929
T8
X114.44Y-54.44
X114.44Y-125.56
X185.56Y-54.44
X185.56Y-125.56
T0
M30
