%TF.GenerationSoftware,KiCad,Pcbnew,6.0.4-6f826c9f35~116~ubuntu20.04.1*%
%TF.CreationDate,2022-08-08T15:26:26+00:00*%
%TF.ProjectId,QFHMIX01E,5146484d-4958-4303-9145-2e6b69636164,rev?*%
%TF.SameCoordinates,Original*%
%TF.FileFunction,Copper,L1,Top*%
%TF.FilePolarity,Positive*%
%FSLAX46Y46*%
G04 Gerber Fmt 4.6, Leading zero omitted, Abs format (unit mm)*
G04 Created by KiCad (PCBNEW 6.0.4-6f826c9f35~116~ubuntu20.04.1) date 2022-08-08 15:26:26*
%MOMM*%
%LPD*%
G01*
G04 APERTURE LIST*
G04 Aperture macros list*
%AMRoundRect*
0 Rectangle with rounded corners*
0 $1 Rounding radius*
0 $2 $3 $4 $5 $6 $7 $8 $9 X,Y pos of 4 corners*
0 Add a 4 corners polygon primitive as box body*
4,1,4,$2,$3,$4,$5,$6,$7,$8,$9,$2,$3,0*
0 Add four circle primitives for the rounded corners*
1,1,$1+$1,$2,$3*
1,1,$1+$1,$4,$5*
1,1,$1+$1,$6,$7*
1,1,$1+$1,$8,$9*
0 Add four rect primitives between the rounded corners*
20,1,$1+$1,$2,$3,$4,$5,0*
20,1,$1+$1,$4,$5,$6,$7,0*
20,1,$1+$1,$6,$7,$8,$9,0*
20,1,$1+$1,$8,$9,$2,$3,0*%
%AMRotRect*
0 Rectangle, with rotation*
0 The origin of the aperture is its center*
0 $1 length*
0 $2 width*
0 $3 Rotation angle, in degrees counterclockwise*
0 Add horizontal line*
21,1,$1,$2,0,0,$3*%
G04 Aperture macros list end*
%TA.AperFunction,ComponentPad*%
%ADD10C,2.500000*%
%TD*%
%TA.AperFunction,ComponentPad*%
%ADD11RotRect,1.524000X1.524000X45.000000*%
%TD*%
%TA.AperFunction,ComponentPad*%
%ADD12C,6.000000*%
%TD*%
%TA.AperFunction,WasherPad*%
%ADD13C,7.400000*%
%TD*%
%TA.AperFunction,ComponentPad*%
%ADD14C,0.500000*%
%TD*%
%TA.AperFunction,ComponentPad*%
%ADD15C,0.600000*%
%TD*%
%TA.AperFunction,SMDPad,CuDef*%
%ADD16RoundRect,0.250000X0.000000X-0.848528X0.848528X0.000000X0.000000X0.848528X-0.848528X0.000000X0*%
%TD*%
%TA.AperFunction,SMDPad,CuDef*%
%ADD17RoundRect,0.250000X0.000000X0.848528X-0.848528X0.000000X0.000000X-0.848528X0.848528X0.000000X0*%
%TD*%
%TA.AperFunction,SMDPad,CuDef*%
%ADD18RoundRect,0.250000X-0.848528X0.000000X0.000000X-0.848528X0.848528X0.000000X0.000000X0.848528X0*%
%TD*%
%TA.AperFunction,ViaPad*%
%ADD19C,0.750000*%
%TD*%
%TA.AperFunction,ViaPad*%
%ADD20C,1.000000*%
%TD*%
%TA.AperFunction,Conductor*%
%ADD21C,0.500000*%
%TD*%
%TA.AperFunction,Conductor*%
%ADD22C,0.300000*%
%TD*%
%TA.AperFunction,Conductor*%
%ADD23C,0.800000*%
%TD*%
%TA.AperFunction,Conductor*%
%ADD24C,0.600000*%
%TD*%
%TA.AperFunction,Conductor*%
%ADD25C,0.400000*%
%TD*%
%TA.AperFunction,Conductor*%
%ADD26C,0.250000*%
%TD*%
%TA.AperFunction,Conductor*%
%ADD27C,0.200000*%
%TD*%
%TA.AperFunction,Conductor*%
%ADD28C,3.000000*%
%TD*%
G04 APERTURE END LIST*
D10*
%TO.P,J1,1*%
%TO.N,CLK_IN_N*%
X111070731Y-110070731D03*
%TO.P,J1,2*%
%TO.N,CLK_IN_P*%
X113764808Y-112764808D03*
%TO.P,J1,3*%
%TO.N,DEM_OUTA_N*%
X116458885Y-115458885D03*
%TO.P,J1,4*%
%TO.N,DEM_OUTA_P*%
X119152962Y-118152962D03*
%TO.P,J1,5*%
%TO.N,DEM_OUTB_N*%
X121847038Y-120847038D03*
%TO.P,J1,6*%
%TO.N,DEM_OUTB_P*%
X124541115Y-123541115D03*
%TO.P,J1,7*%
%TO.N,GND*%
X127235192Y-126235192D03*
%TO.P,J1,8*%
%TO.N,VCC*%
X129929269Y-128929269D03*
%TD*%
D11*
%TO.P,J2,1*%
%TO.N,GND*%
X134583897Y-121031000D03*
%TO.P,J2,2*%
X136379948Y-119234949D03*
%TO.P,J2,3*%
%TO.N,VDDA*%
X136379948Y-122827052D03*
%TO.P,J2,4*%
X138176000Y-121031000D03*
%TO.P,J2,5*%
%TO.N,GND*%
X138176000Y-124623103D03*
%TO.P,J2,6*%
X139972051Y-122827052D03*
%TD*%
D12*
%TO.P,M7,1*%
%TO.N,GND*%
X185560000Y-125560000D03*
%TD*%
%TO.P,M6,1*%
%TO.N,GND*%
X185560000Y-54440000D03*
%TD*%
%TO.P,M5,1*%
%TO.N,GND*%
X114440000Y-125560000D03*
%TD*%
D13*
%TO.P,M4,*%
%TO.N,*%
X150000000Y-126000000D03*
D14*
%TO.P,M4,1*%
%TO.N,/LNA/QFH_IN_2_N*%
X153000000Y-126000000D03*
X152598076Y-127500000D03*
X150000000Y-123000000D03*
X152598076Y-124500000D03*
X147401924Y-127500000D03*
X150000000Y-129000000D03*
X147000000Y-126000000D03*
X148500000Y-123401924D03*
X151500000Y-128598076D03*
X151500000Y-123401924D03*
X147401924Y-124500000D03*
X148500000Y-128598076D03*
%TD*%
D13*
%TO.P,M3,*%
%TO.N,*%
X150000000Y-54000000D03*
D14*
%TO.P,M3,1*%
%TO.N,/LNA/QFH_IN_2_P*%
X151500000Y-51401924D03*
X152598076Y-55500000D03*
X148500000Y-51401924D03*
X153000000Y-54000000D03*
X147401924Y-55500000D03*
X150000000Y-57000000D03*
X147000000Y-54000000D03*
X151500000Y-56598076D03*
X148500000Y-56598076D03*
X150000000Y-51000000D03*
X152598076Y-52500000D03*
X147401924Y-52500000D03*
%TD*%
D13*
%TO.P,M1,*%
%TO.N,*%
X186000000Y-90000000D03*
D14*
%TO.P,M1,1*%
%TO.N,/LNA/QFH_IN_1_N*%
X187500000Y-92598076D03*
X183401924Y-88500000D03*
X188598076Y-88500000D03*
X183401924Y-91500000D03*
X186000000Y-87000000D03*
X188598076Y-91500000D03*
X184500000Y-92598076D03*
X189000000Y-90000000D03*
X187500000Y-87401924D03*
X186000000Y-93000000D03*
X183000000Y-90000000D03*
X184500000Y-87401924D03*
%TD*%
D13*
%TO.P,M2,*%
%TO.N,*%
X114000000Y-90000000D03*
D14*
%TO.P,M2,1*%
%TO.N,/LNA/QFH_IN_1_P*%
X112500000Y-87401924D03*
X117000000Y-90000000D03*
X111401924Y-88500000D03*
X116598076Y-91500000D03*
X115500000Y-87401924D03*
X112500000Y-92598076D03*
X114000000Y-93000000D03*
X111000000Y-90000000D03*
X114000000Y-87000000D03*
X111401924Y-91500000D03*
X116598076Y-88500000D03*
X115500000Y-92598076D03*
%TD*%
D12*
%TO.P,M8,1*%
%TO.N,GND*%
X114440000Y-54440000D03*
%TD*%
D14*
%TO.P,U7,2,GND*%
%TO.N,GND*%
X146057538Y-82278248D03*
X145350431Y-81571141D03*
X144643325Y-82278248D03*
X147471752Y-82278248D03*
X146057538Y-83692462D03*
X148178859Y-84399569D03*
X147471752Y-83692462D03*
X145350431Y-82985355D03*
X148178859Y-82985355D03*
X147471752Y-85106675D03*
X146764645Y-82985355D03*
X146057538Y-80864035D03*
X148885965Y-83692462D03*
X146764645Y-81571141D03*
X146764645Y-84399569D03*
%TD*%
%TO.P,U8,2,GND*%
%TO.N,GND*%
X157721752Y-95256675D03*
X158428859Y-93135355D03*
X157721752Y-93842462D03*
X156307538Y-93842462D03*
X155600431Y-91721141D03*
X157014645Y-91721141D03*
X157721752Y-92428248D03*
X156307538Y-91014035D03*
X158428859Y-94549569D03*
X157014645Y-93135355D03*
X155600431Y-93135355D03*
X156307538Y-92428248D03*
X157014645Y-94549569D03*
X154893325Y-92428248D03*
X159135965Y-93842462D03*
%TD*%
D15*
%TO.P,U9,17,PGND*%
%TO.N,GND*%
X124213909Y-61206091D03*
X123436091Y-61206091D03*
X123047183Y-61595000D03*
X123825000Y-60817183D03*
X124213909Y-61983909D03*
X123825000Y-62372817D03*
X123825000Y-61595000D03*
X124602817Y-61595000D03*
D16*
X123825000Y-61595000D03*
D15*
X123436091Y-61983909D03*
%TD*%
D14*
%TO.P,U5,2,GND*%
%TO.N,GND*%
X145584614Y-61620400D03*
X142049080Y-62327507D03*
X143463293Y-60913293D03*
X144170400Y-63034614D03*
X144877507Y-62327507D03*
X143463293Y-63741720D03*
X144170400Y-61620400D03*
X143463293Y-62327507D03*
X146291720Y-60913293D03*
X145584614Y-60206186D03*
X144877507Y-59499080D03*
X144877507Y-60913293D03*
X142756186Y-63034614D03*
X142756186Y-61620400D03*
X144170400Y-60206186D03*
%TD*%
D15*
%TO.P,U11,17,PGND*%
%TO.N,GND*%
X162234911Y-116468501D03*
X162623820Y-116079593D03*
X163012729Y-117246319D03*
X163012729Y-116468501D03*
X162623820Y-116857410D03*
D17*
X162623820Y-116857410D03*
D15*
X162623820Y-117635227D03*
X162234911Y-117246319D03*
X163401637Y-116857410D03*
X161846003Y-116857410D03*
%TD*%
D14*
%TO.P,U6,2,GND*%
%TO.N,GND*%
X176107614Y-97379507D03*
X177521827Y-95965293D03*
X178936041Y-97379507D03*
X178936041Y-94551080D03*
X180350254Y-95965293D03*
X176814720Y-96672400D03*
X177521827Y-97379507D03*
X178228934Y-98086614D03*
X177521827Y-98793720D03*
X179643148Y-95258186D03*
X179643148Y-96672400D03*
X176814720Y-98086614D03*
X178228934Y-95258186D03*
X178228934Y-96672400D03*
X178936041Y-95965293D03*
%TD*%
D15*
%TO.P,U1,17,GND*%
%TO.N,GND*%
X125359235Y-76810455D03*
X125359235Y-76032637D03*
X125748144Y-75643729D03*
X124970327Y-76421546D03*
X125748144Y-77199363D03*
D18*
X125748144Y-76421546D03*
D15*
X126525961Y-76421546D03*
X126137053Y-76810455D03*
X126137053Y-76032637D03*
X125748144Y-76421546D03*
%TD*%
D19*
%TO.N,GND*%
X137498990Y-109201010D03*
X125349000Y-102235000D03*
X128451993Y-97821972D03*
X130848990Y-102551010D03*
X132700000Y-107300000D03*
X129900388Y-117120427D03*
X126800000Y-104400000D03*
X122763604Y-110115076D03*
X128300000Y-118500000D03*
X128734206Y-108614665D03*
X127746377Y-109602494D03*
X129127375Y-110017547D03*
X131338481Y-111218940D03*
X130350652Y-112206767D03*
X130025402Y-110915571D03*
X149682200Y-102387400D03*
X136128565Y-92155227D03*
X137488879Y-93498721D03*
X112649000Y-63601600D03*
X170688000Y-100685600D03*
X189484000Y-120396000D03*
X138303000Y-80391000D03*
X133350000Y-77470000D03*
X125286500Y-94234000D03*
X110185200Y-84378800D03*
X117221000Y-60452000D03*
X127404621Y-86909967D03*
X125095000Y-106807000D03*
X137836299Y-82963701D03*
X132334000Y-88900000D03*
X146200000Y-106800000D03*
X123545600Y-76276200D03*
X122047000Y-74676000D03*
X126200000Y-107800000D03*
X121500000Y-111700000D03*
X132080000Y-119227600D03*
X131064000Y-118110000D03*
X161163000Y-71628000D03*
X113411000Y-106553000D03*
X121920000Y-103886000D03*
X118364000Y-111379000D03*
X122729538Y-84139069D03*
X126599259Y-99476067D03*
X127222987Y-89052771D03*
D20*
X145350431Y-81571142D03*
X144643324Y-82278249D03*
X145350431Y-82985355D03*
X146057538Y-82278249D03*
X146764645Y-81571142D03*
X147471751Y-82278249D03*
X146764645Y-82985355D03*
X146057538Y-83692462D03*
X146764645Y-84399569D03*
X147471751Y-83692462D03*
X148178858Y-82985355D03*
X148885965Y-83692462D03*
X148178858Y-84399569D03*
X147471751Y-85106676D03*
X148885965Y-85106676D03*
X144643324Y-80864035D03*
X145703984Y-79803375D03*
X143582664Y-81924695D03*
X143405887Y-79626598D03*
X144466548Y-78565938D03*
X142345227Y-80687258D03*
X149946625Y-84046016D03*
X147825305Y-86167336D03*
X150123402Y-86344113D03*
X151184062Y-85283452D03*
X149062742Y-87404773D03*
X150622000Y-79375000D03*
X149479000Y-79502000D03*
X150749000Y-78232000D03*
X151765000Y-79248000D03*
X150368000Y-80518000D03*
X143256000Y-86487000D03*
X142240000Y-86741000D03*
X143129000Y-87503000D03*
X144289771Y-86308757D03*
X143441243Y-85460229D03*
X157014645Y-93135355D03*
X156307538Y-92428249D03*
X157721751Y-92428249D03*
X157014645Y-91721142D03*
X155600431Y-93135355D03*
X156307538Y-93842462D03*
X157014645Y-94549569D03*
X157721751Y-93842462D03*
X158428858Y-93135355D03*
X158428858Y-94549569D03*
X157721751Y-95256676D03*
X159135965Y-93842462D03*
X160196625Y-94196016D03*
X159135965Y-95256676D03*
X158075305Y-96317336D03*
X159312742Y-97554773D03*
X160373402Y-96494113D03*
X161434062Y-95433452D03*
X155600431Y-91721142D03*
X154893324Y-92428249D03*
X156307538Y-91014035D03*
X155953984Y-89953375D03*
X154716548Y-88715938D03*
X153655887Y-89776598D03*
X154893324Y-91014035D03*
X153832664Y-92074695D03*
X153416000Y-96647000D03*
X153691243Y-95610229D03*
X152400000Y-96901000D03*
X153289000Y-97663000D03*
X154539771Y-96458757D03*
X160655000Y-89535000D03*
X159639000Y-89789000D03*
X160782000Y-88519000D03*
X161671000Y-89281000D03*
X160401000Y-90551000D03*
D19*
X155041600Y-60198000D03*
X178485800Y-76377800D03*
X175895000Y-73914000D03*
X147218400Y-91948000D03*
X145415000Y-98475800D03*
X130300000Y-90500000D03*
X129300000Y-89600000D03*
X162941000Y-102362000D03*
X166370000Y-120523000D03*
X123698000Y-73152000D03*
X151130000Y-133604000D03*
X150368000Y-131699000D03*
X110000000Y-105000000D03*
X135000000Y-130000000D03*
X119126000Y-74549000D03*
X122047000Y-70739000D03*
X161163000Y-119634000D03*
X110032800Y-56896000D03*
X109956600Y-72059800D03*
X118033800Y-69723000D03*
X119253000Y-92119896D03*
X114500000Y-52250000D03*
X114440000Y-123310000D03*
X114440000Y-127810000D03*
X116690000Y-125560000D03*
X112190000Y-125560000D03*
X112840000Y-123960000D03*
X116040000Y-123960000D03*
X116040000Y-127160000D03*
X112840000Y-127160000D03*
X116040000Y-52840000D03*
X112190000Y-54440000D03*
X112039400Y-65709800D03*
X112840000Y-52840000D03*
X112840000Y-56040000D03*
X116690000Y-54440000D03*
X111937800Y-69189600D03*
X187160000Y-52840000D03*
X183310000Y-54440000D03*
X185560000Y-56690000D03*
X183960000Y-56040000D03*
X185560000Y-52190000D03*
X187810000Y-54440000D03*
X187160000Y-56040000D03*
X187160000Y-127160000D03*
X187810000Y-125560000D03*
X187160000Y-123960000D03*
X183310000Y-125560000D03*
X185560000Y-123310000D03*
X183960000Y-123960000D03*
X185560000Y-127810000D03*
X183960000Y-127160000D03*
X183960000Y-52840000D03*
X121978900Y-81555581D03*
X173685200Y-71628000D03*
X176784000Y-129794000D03*
X173101000Y-129794000D03*
X169418000Y-129794000D03*
X144551400Y-73456800D03*
X143738600Y-71755000D03*
X141097000Y-77597000D03*
X140335000Y-76835000D03*
X164846000Y-124841000D03*
X191643000Y-133604000D03*
X175641000Y-119126000D03*
X178689000Y-125857000D03*
X164744400Y-99872800D03*
X173355000Y-121539000D03*
X147574000Y-107975400D03*
X157226000Y-59893200D03*
X168579800Y-99949000D03*
X149800000Y-94450000D03*
X119253000Y-83693000D03*
X152146000Y-71501000D03*
X177673000Y-117348000D03*
X141173200Y-66649600D03*
D20*
X152628600Y-91008200D03*
D19*
X153289000Y-72898000D03*
X127635000Y-52324000D03*
X154051000Y-63627000D03*
X147370800Y-58166000D03*
X127762000Y-71755000D03*
X164338000Y-93726000D03*
X146685000Y-65405000D03*
X186817000Y-104013000D03*
X191262000Y-107823000D03*
X173609000Y-91059000D03*
X131064000Y-82804000D03*
X193421000Y-73406000D03*
X172593000Y-124841000D03*
X137033000Y-81153000D03*
X178054000Y-88138000D03*
X127254000Y-70612000D03*
X144399000Y-55753000D03*
X156845000Y-128143000D03*
X169037000Y-79883000D03*
X170815000Y-80137000D03*
X169037000Y-49276000D03*
X157353000Y-78740000D03*
X128397000Y-70866000D03*
X155575000Y-56642000D03*
X129540000Y-87249000D03*
X150114000Y-74168000D03*
X144780000Y-125095000D03*
X168402000Y-119888000D03*
X162179000Y-60198000D03*
X140500000Y-101000000D03*
X153162000Y-122428000D03*
X177673000Y-90805000D03*
X169037000Y-124841000D03*
X161290000Y-73914000D03*
X181991000Y-86868000D03*
X167259000Y-119634000D03*
X181102000Y-119761000D03*
X176530000Y-80772000D03*
X181965600Y-100431600D03*
X192659000Y-107823000D03*
X177927000Y-103632000D03*
X119380000Y-87836379D03*
X138988800Y-99542800D03*
X143129000Y-73787000D03*
X131953000Y-74549000D03*
X117221000Y-104267000D03*
X117348000Y-109855000D03*
X133096000Y-89662000D03*
X143256000Y-53467000D03*
X164465000Y-91186000D03*
X111633000Y-107442000D03*
X147167600Y-59690000D03*
X182880000Y-95123000D03*
D20*
X156514800Y-100863400D03*
D19*
X153162000Y-57531000D03*
X133324600Y-64236600D03*
X174752000Y-93726000D03*
X167132000Y-79629000D03*
X167894000Y-97790000D03*
X131572000Y-88138000D03*
X167513000Y-91059000D03*
X105500000Y-110000000D03*
X131572000Y-49784000D03*
X185547000Y-117856000D03*
X172720000Y-80391000D03*
X173863000Y-53721000D03*
X119507000Y-97155000D03*
X110058200Y-67259200D03*
X140000000Y-134500000D03*
X161500000Y-51100000D03*
X163875400Y-77277410D03*
X162306000Y-81661000D03*
X176784000Y-101473000D03*
X105500000Y-115000000D03*
X163830000Y-61849000D03*
X159258000Y-66802000D03*
X193548000Y-54991000D03*
X160528000Y-58420000D03*
X149733000Y-66167000D03*
X175133000Y-98298000D03*
X146939000Y-75184000D03*
X130810000Y-48768000D03*
X118110000Y-59563000D03*
X171856400Y-61391800D03*
X141900000Y-74300000D03*
X180975000Y-85979000D03*
X147900000Y-94700000D03*
X189230000Y-100838000D03*
D20*
X155448000Y-99847400D03*
D19*
X138049000Y-62738000D03*
X150622000Y-70866000D03*
X105500000Y-120000000D03*
X182118000Y-108331000D03*
X135700000Y-115300000D03*
X128270000Y-85953600D03*
X161036000Y-83058000D03*
X136398000Y-75819000D03*
X159385000Y-62611000D03*
X105500000Y-99500000D03*
X139400000Y-96500000D03*
X180863400Y-129986000D03*
X173990000Y-90043000D03*
X145725000Y-96750002D03*
X105500000Y-134500000D03*
X193294000Y-75819000D03*
X155956000Y-108915200D03*
D20*
X157480000Y-101904800D03*
D19*
X182118000Y-96012000D03*
X190627000Y-106553000D03*
X127189500Y-96061434D03*
X153670000Y-102108000D03*
X187071000Y-98806000D03*
X153162000Y-62738000D03*
X119253000Y-79121000D03*
X159893000Y-129794000D03*
X188468000Y-48387000D03*
X159715200Y-105714800D03*
X175006000Y-116205000D03*
X174879000Y-106299000D03*
X193675000Y-58420000D03*
X164973000Y-79756000D03*
X110500000Y-99500000D03*
X193167000Y-81915000D03*
X179578000Y-93472000D03*
X105500000Y-130000000D03*
X143100000Y-91900000D03*
X181229000Y-99822000D03*
X175895000Y-100584000D03*
X132461000Y-73279000D03*
X119761000Y-58039000D03*
X166547800Y-55956200D03*
X110007400Y-77647800D03*
X138836400Y-59842400D03*
X157708600Y-83667600D03*
X146558000Y-57251600D03*
X166116000Y-90170000D03*
X184277000Y-97917000D03*
X140233400Y-57581800D03*
X168275000Y-118745000D03*
X167640000Y-65633600D03*
X174625000Y-92202000D03*
X130556000Y-56794400D03*
X151511000Y-69977000D03*
X136144000Y-52197000D03*
X131572000Y-47371000D03*
X137541000Y-98120200D03*
X172212000Y-112395000D03*
X139014200Y-56388000D03*
X156972000Y-65024000D03*
X139200000Y-68400000D03*
X105500000Y-125000000D03*
X181686200Y-79603600D03*
X173482000Y-104521000D03*
X121031000Y-60960000D03*
X158623000Y-77724000D03*
X148844000Y-73279000D03*
X132765800Y-84378800D03*
X167386000Y-120777000D03*
X184912000Y-96774000D03*
X115000000Y-99500000D03*
X138400000Y-101800000D03*
X147955000Y-74676000D03*
X135000000Y-134500000D03*
D20*
X161290000Y-100761800D03*
D19*
X145034000Y-127508000D03*
X181864000Y-48006000D03*
X182118000Y-94234000D03*
X184912000Y-48133000D03*
X148971000Y-65405000D03*
X105500000Y-105000000D03*
X146431000Y-122555000D03*
X141351000Y-51943000D03*
X179959000Y-106426000D03*
X171958000Y-122936000D03*
X175133000Y-122555000D03*
X152019000Y-61722000D03*
D20*
X146057538Y-80864035D03*
D19*
X175514000Y-48006000D03*
X187579000Y-103251000D03*
X135890000Y-77851000D03*
X115000000Y-134500000D03*
X178562000Y-89535000D03*
X181229000Y-93472000D03*
X172085000Y-95758000D03*
X180213000Y-85344000D03*
X189865000Y-107442000D03*
X175641000Y-93091000D03*
X183134000Y-72898000D03*
X169164000Y-122936000D03*
X125730000Y-103759000D03*
X145643600Y-58166000D03*
X190627000Y-99949000D03*
X127189500Y-82888965D03*
X120000000Y-134500000D03*
X140766800Y-63093600D03*
X146685000Y-129921000D03*
X160782000Y-76327000D03*
X165227000Y-88900000D03*
X147955000Y-64516000D03*
X119380000Y-99441000D03*
X163830000Y-80391000D03*
X151130000Y-75184000D03*
X189230000Y-115443000D03*
X129667000Y-47371000D03*
X191008000Y-50165000D03*
X189992000Y-108712000D03*
X142087600Y-65786000D03*
X174371000Y-99060000D03*
X134700000Y-108100000D03*
X175895000Y-99060000D03*
X181356000Y-95123000D03*
X138811000Y-78740000D03*
X165608000Y-117602000D03*
X135940800Y-66954400D03*
X130000000Y-134500000D03*
X143306800Y-96774000D03*
X116459000Y-112014000D03*
X176784000Y-86741000D03*
X187198000Y-109982000D03*
X170307000Y-94361000D03*
X172974000Y-111633000D03*
X179070000Y-113157000D03*
X177546000Y-100711000D03*
X139293600Y-63449200D03*
X150100000Y-105200000D03*
X160528000Y-68834000D03*
X170053000Y-75565000D03*
X180467000Y-92710000D03*
X156210000Y-82219800D03*
X125000000Y-134500000D03*
X118491000Y-107696000D03*
X129921000Y-60502800D03*
X131900000Y-105200000D03*
X163195000Y-120904000D03*
X138988800Y-99542798D03*
X175133000Y-80645000D03*
X158496000Y-56896000D03*
X150368000Y-110744000D03*
X186055000Y-97713800D03*
X146405600Y-58877200D03*
X166344600Y-64439800D03*
X133197600Y-85648800D03*
X126111000Y-50927000D03*
X184023000Y-96012000D03*
X142290800Y-64516000D03*
X171754800Y-69748400D03*
X180467000Y-94234000D03*
X171450000Y-121412000D03*
X165100000Y-70485000D03*
X118872000Y-58801000D03*
X141224000Y-72009000D03*
X193675000Y-62230000D03*
X130302000Y-62661800D03*
X187274200Y-85293200D03*
X148183600Y-58978800D03*
X110000000Y-134500000D03*
X146800000Y-93400000D03*
X129159000Y-53721000D03*
X140309600Y-64211200D03*
X184531000Y-113411000D03*
X193802000Y-131445000D03*
X110007400Y-62839600D03*
X142392400Y-56184800D03*
X150114000Y-121285000D03*
X193548000Y-66421000D03*
X134200000Y-116800000D03*
X166751000Y-96266000D03*
X142011400Y-102500000D03*
X139827000Y-70485000D03*
X130429000Y-75438000D03*
X151003000Y-65659000D03*
X139827000Y-50800000D03*
X178562000Y-48133000D03*
X128955800Y-56032400D03*
X172974000Y-92075000D03*
X169468800Y-67614800D03*
X163068000Y-119761000D03*
X141173200Y-65024000D03*
X153035000Y-113919000D03*
X175514000Y-85471000D03*
X176657000Y-99822000D03*
X125145800Y-58724800D03*
X177952400Y-67691000D03*
X179197000Y-58928000D03*
X154813000Y-58674000D03*
X141579600Y-63855600D03*
X132969000Y-71247000D03*
X190500000Y-101727000D03*
X171069000Y-120015000D03*
X124600000Y-115400000D03*
X155067000Y-126365000D03*
X139446000Y-61976000D03*
X193548000Y-52197000D03*
X191897000Y-106172000D03*
X151384000Y-112649000D03*
X193421000Y-79121000D03*
X160045400Y-102082600D03*
X184505600Y-82473800D03*
X175133000Y-99822000D03*
X145669000Y-69088000D03*
X193421000Y-70231000D03*
X173863000Y-92837000D03*
X156972000Y-80518000D03*
X138176000Y-61341000D03*
X174117000Y-117983000D03*
X135128000Y-53213000D03*
X158369000Y-63881000D03*
D20*
X162839400Y-99669600D03*
D19*
X166243000Y-122936000D03*
X188087000Y-99822000D03*
X165623400Y-129859000D03*
X139100000Y-95200000D03*
X178181000Y-81534000D03*
X147193000Y-69342000D03*
X177165000Y-120396000D03*
X185420000Y-108839000D03*
X136144000Y-96647000D03*
X188976000Y-76454000D03*
%TO.N,+5V*%
X158394400Y-61315600D03*
X154965400Y-86283800D03*
X144094200Y-93446600D03*
X128905000Y-92075000D03*
X148700000Y-71000000D03*
X176123600Y-82499200D03*
X168554400Y-91871800D03*
X158902400Y-101498400D03*
X149225000Y-108331000D03*
X139395200Y-100787200D03*
X153670000Y-84988400D03*
%TO.N,+3V3*%
X120650000Y-71628000D03*
X122809000Y-73787000D03*
%TO.N,Net-(C23-Pad1)*%
X132232400Y-108788200D03*
X133959600Y-112242600D03*
%TO.N,Net-(C22-Pad2)*%
X131165600Y-107823000D03*
X127736600Y-106324400D03*
%TO.N,VDDA*%
X128930400Y-65049400D03*
%TO.N,Net-(C68-Pad1)*%
X164084000Y-118999000D03*
X160020000Y-118110000D03*
%TO.N,/LNA/QFH_IN_1_N*%
X185100000Y-70916800D03*
X186000000Y-70016800D03*
X186000000Y-70916800D03*
X186900000Y-70916800D03*
X186000000Y-71816800D03*
%TO.N,+3.3VA*%
X124028199Y-108813599D03*
X127196814Y-112055871D03*
X124028200Y-108000800D03*
X131925000Y-116775000D03*
X131350000Y-116200000D03*
%TO.N,/Power/PWR_EN*%
X160528000Y-115316000D03*
X152273000Y-115189000D03*
%TO.N,Net-(C67-Pad1)*%
X126619000Y-60452000D03*
X122428000Y-59309000D03*
%TD*%
D21*
%TO.N,GND*%
X125041037Y-76421546D02*
X125748144Y-76421546D01*
X125748144Y-77128653D02*
X125748144Y-76421546D01*
X126455251Y-76421546D02*
X125748144Y-76421546D01*
X125748144Y-75714439D02*
X125748144Y-76421546D01*
X132575000Y-89450000D02*
X132525000Y-89450000D01*
D22*
X163517300Y-113517300D02*
X163517300Y-113317300D01*
D23*
%TO.N,+5V*%
X169037000Y-89636600D02*
X176123600Y-82550000D01*
X155016200Y-83642200D02*
X153670000Y-84988400D01*
D24*
X133045200Y-92075000D02*
X149225000Y-108254800D01*
D23*
X158902400Y-101498400D02*
X168529000Y-91871800D01*
X168986200Y-91440000D02*
X168554400Y-91871800D01*
X176123600Y-82550000D02*
X176123600Y-82499200D01*
X155016200Y-77316200D02*
X155016200Y-83642200D01*
X154965400Y-86283800D02*
X153670000Y-84988400D01*
D24*
X149225000Y-108254800D02*
X149225000Y-108331000D01*
D23*
X148700000Y-71000000D02*
X155016200Y-77316200D01*
X156362400Y-84886800D02*
X154965400Y-86283800D01*
X168986200Y-89636600D02*
X169037000Y-89636600D01*
X168986200Y-89636600D02*
X164236400Y-84886800D01*
X164236400Y-84886800D02*
X156362400Y-84886800D01*
X168529000Y-91871800D02*
X168554400Y-91871800D01*
D25*
X139395200Y-100787200D02*
X139412800Y-100787200D01*
D24*
X139257900Y-98282900D02*
X144094200Y-93446600D01*
D23*
X148710000Y-71000000D02*
X158394400Y-61315600D01*
D24*
X128905000Y-92075000D02*
X133045200Y-92075000D01*
D23*
X168986200Y-89636600D02*
X168986200Y-91440000D01*
D25*
X139412800Y-100787200D02*
X140587500Y-99612500D01*
D23*
%TO.N,+3V3*%
X120650000Y-71628000D02*
X122809000Y-73787000D01*
D26*
%TO.N,Net-(C23-Pad1)*%
X132232400Y-108788200D02*
X132232400Y-109372400D01*
X133959600Y-111099600D02*
X133959600Y-112242600D01*
X132232400Y-109372400D02*
X133959600Y-111099600D01*
D22*
%TO.N,Net-(C22-Pad2)*%
X131165600Y-107823000D02*
X130632200Y-107823000D01*
X129133600Y-106324400D02*
X127736600Y-106324400D01*
X130632200Y-107823000D02*
X129133600Y-106324400D01*
D21*
%TO.N,VDDA*%
X134874000Y-71120000D02*
X131140200Y-67386200D01*
X126365000Y-96901000D02*
X126365000Y-81915000D01*
X143510000Y-114046000D02*
X126365000Y-96901000D01*
X143510000Y-115697000D02*
X143510000Y-114046000D01*
X134874000Y-73406000D02*
X134874000Y-71120000D01*
X128930400Y-65176400D02*
X128930400Y-65049400D01*
X138176000Y-121031000D02*
X143510000Y-115697000D01*
X126365000Y-81915000D02*
X134874000Y-73406000D01*
X131140200Y-67386200D02*
X128930400Y-65176400D01*
D27*
%TO.N,Net-(C68-Pad1)*%
X160909000Y-118999000D02*
X160020000Y-118110000D01*
X164084000Y-118999000D02*
X160909000Y-118999000D01*
D28*
%TO.N,/LNA/QFH_IN_1_N*%
X186000000Y-71816800D02*
X186000000Y-70916800D01*
X186000000Y-71816800D02*
X186000000Y-90000000D01*
D24*
%TO.N,+3.3VA*%
X131925000Y-116775000D02*
X127205871Y-112055871D01*
X127205871Y-112055871D02*
X127196814Y-112055871D01*
X127196814Y-111982214D02*
X124028199Y-108813599D01*
X127196814Y-112055871D02*
X127196814Y-111982214D01*
D22*
%TO.N,/Power/PWR_EN*%
X152273000Y-115189000D02*
X160401000Y-115189000D01*
X160401000Y-115189000D02*
X160528000Y-115316000D01*
D27*
%TO.N,Net-(C67-Pad1)*%
X124968000Y-58801000D02*
X122936000Y-58801000D01*
X126619000Y-60452000D02*
X124968000Y-58801000D01*
X122936000Y-58801000D02*
X122428000Y-59309000D01*
%TD*%
%TA.AperFunction,Conductor*%
%TO.N,GND*%
G36*
X194907621Y-45054502D02*
G01*
X194954114Y-45108158D01*
X194965500Y-45160500D01*
X194965500Y-134839500D01*
X194945498Y-134907621D01*
X194891842Y-134954114D01*
X194839500Y-134965500D01*
X105160500Y-134965500D01*
X105092379Y-134945498D01*
X105045886Y-134891842D01*
X105034500Y-134839500D01*
X105034500Y-128929269D01*
X128373975Y-128929269D01*
X128393123Y-129172571D01*
X128394278Y-129177380D01*
X128442933Y-129380040D01*
X128450097Y-129409881D01*
X128451987Y-129414444D01*
X128451989Y-129414450D01*
X128519047Y-129576343D01*
X128543492Y-129635358D01*
X128671010Y-129843448D01*
X128829510Y-130029028D01*
X129015090Y-130187528D01*
X129223180Y-130315046D01*
X129227750Y-130316939D01*
X129227754Y-130316941D01*
X129444088Y-130406549D01*
X129444094Y-130406551D01*
X129448657Y-130408441D01*
X129453457Y-130409593D01*
X129453462Y-130409595D01*
X129561971Y-130435646D01*
X129685967Y-130465415D01*
X129929269Y-130484563D01*
X130172571Y-130465415D01*
X130296567Y-130435646D01*
X130405076Y-130409595D01*
X130405081Y-130409593D01*
X130409881Y-130408441D01*
X130414444Y-130406551D01*
X130414450Y-130406549D01*
X130630784Y-130316941D01*
X130630788Y-130316939D01*
X130635358Y-130315046D01*
X130843448Y-130187528D01*
X131029028Y-130029028D01*
X131187528Y-129843448D01*
X131315046Y-129635358D01*
X131339491Y-129576343D01*
X131406549Y-129414450D01*
X131406551Y-129414444D01*
X131408441Y-129409881D01*
X131415606Y-129380040D01*
X131464260Y-129177380D01*
X131465415Y-129172571D01*
X131484563Y-128929269D01*
X131465415Y-128685967D01*
X131418419Y-128490217D01*
X131409595Y-128453462D01*
X131409593Y-128453457D01*
X131408441Y-128448657D01*
X131406551Y-128444094D01*
X131406549Y-128444088D01*
X131316941Y-128227754D01*
X131316939Y-128227750D01*
X131315046Y-128223180D01*
X131187528Y-128015090D01*
X131029028Y-127829510D01*
X130843448Y-127671010D01*
X130635358Y-127543492D01*
X130630788Y-127541599D01*
X130630784Y-127541597D01*
X130414450Y-127451989D01*
X130414444Y-127451987D01*
X130409881Y-127450097D01*
X130405081Y-127448945D01*
X130405076Y-127448943D01*
X130254201Y-127412721D01*
X130172571Y-127393123D01*
X129929269Y-127373975D01*
X129685967Y-127393123D01*
X129604337Y-127412721D01*
X129453462Y-127448943D01*
X129453457Y-127448945D01*
X129448657Y-127450097D01*
X129444094Y-127451987D01*
X129444088Y-127451989D01*
X129227754Y-127541597D01*
X129227750Y-127541599D01*
X129223180Y-127543492D01*
X129015090Y-127671010D01*
X128829510Y-127829510D01*
X128671010Y-128015090D01*
X128543492Y-128223180D01*
X128541599Y-128227750D01*
X128541597Y-128227754D01*
X128451989Y-128444088D01*
X128451987Y-128444094D01*
X128450097Y-128448657D01*
X128448945Y-128453457D01*
X128448943Y-128453462D01*
X128440119Y-128490217D01*
X128393123Y-128685967D01*
X128373975Y-128929269D01*
X105034500Y-128929269D01*
X105034500Y-127096891D01*
X122521226Y-127096891D01*
X122530935Y-127306662D01*
X122532339Y-127312487D01*
X122532339Y-127312488D01*
X122572052Y-127477268D01*
X122580136Y-127510813D01*
X122582618Y-127516271D01*
X122582619Y-127516275D01*
X122625732Y-127611096D01*
X122667052Y-127701976D01*
X122788549Y-127873255D01*
X122940243Y-128018470D01*
X122945278Y-128021721D01*
X123111621Y-128129128D01*
X123111624Y-128129129D01*
X123116658Y-128132380D01*
X123122221Y-128134622D01*
X123305867Y-128208634D01*
X123305870Y-128208635D01*
X123311431Y-128210876D01*
X123317312Y-128212024D01*
X123317317Y-128212026D01*
X123513088Y-128250257D01*
X123513091Y-128250257D01*
X123517534Y-128251125D01*
X123523055Y-128251395D01*
X123677881Y-128251395D01*
X123834458Y-128236456D01*
X123840214Y-128234767D01*
X123840216Y-128234767D01*
X123929295Y-128208634D01*
X124035961Y-128177342D01*
X124136359Y-128125634D01*
X124217320Y-128083936D01*
X124217323Y-128083934D01*
X124222651Y-128081190D01*
X124301432Y-128019307D01*
X124383074Y-127955177D01*
X124383079Y-127955173D01*
X124387791Y-127951471D01*
X124391723Y-127946940D01*
X124521491Y-127797397D01*
X124521495Y-127797392D01*
X124525422Y-127792866D01*
X124630578Y-127611096D01*
X124699465Y-127412721D01*
X124714843Y-127306662D01*
X124728737Y-127210839D01*
X124728737Y-127210836D01*
X124729598Y-127204899D01*
X124719889Y-126995128D01*
X124670688Y-126790977D01*
X124641161Y-126726034D01*
X124586252Y-126605269D01*
X124583772Y-126599814D01*
X124462275Y-126428535D01*
X124310581Y-126283320D01*
X124213445Y-126220600D01*
X124139203Y-126172662D01*
X124139200Y-126172661D01*
X124134166Y-126169410D01*
X124128603Y-126167168D01*
X123944957Y-126093156D01*
X123944954Y-126093155D01*
X123939393Y-126090914D01*
X123933512Y-126089766D01*
X123933507Y-126089764D01*
X123737736Y-126051533D01*
X123737733Y-126051533D01*
X123733290Y-126050665D01*
X123727769Y-126050395D01*
X123572943Y-126050395D01*
X123416366Y-126065334D01*
X123410610Y-126067023D01*
X123410608Y-126067023D01*
X123333091Y-126089764D01*
X123214863Y-126124448D01*
X123131917Y-126167168D01*
X123033504Y-126217854D01*
X123033501Y-126217856D01*
X123028173Y-126220600D01*
X122991020Y-126249784D01*
X122867750Y-126346613D01*
X122867745Y-126346617D01*
X122863033Y-126350319D01*
X122859102Y-126354849D01*
X122859101Y-126354850D01*
X122729333Y-126504393D01*
X122729329Y-126504398D01*
X122725402Y-126508924D01*
X122620246Y-126690694D01*
X122551359Y-126889069D01*
X122550498Y-126895004D01*
X122550498Y-126895006D01*
X122535113Y-127001118D01*
X122521226Y-127096891D01*
X105034500Y-127096891D01*
X105034500Y-125265485D01*
X129740786Y-125265485D01*
X129750495Y-125475256D01*
X129751899Y-125481081D01*
X129751899Y-125481082D01*
X129782764Y-125609149D01*
X129799696Y-125679407D01*
X129802178Y-125684865D01*
X129802179Y-125684869D01*
X129845292Y-125779690D01*
X129886612Y-125870570D01*
X130008109Y-126041849D01*
X130159803Y-126187064D01*
X130164838Y-126190315D01*
X130331181Y-126297722D01*
X130331184Y-126297723D01*
X130336218Y-126300974D01*
X130341781Y-126303216D01*
X130525427Y-126377228D01*
X130525430Y-126377229D01*
X130530991Y-126379470D01*
X130536872Y-126380618D01*
X130536877Y-126380620D01*
X130732648Y-126418851D01*
X130732651Y-126418851D01*
X130737094Y-126419719D01*
X130742615Y-126419989D01*
X130897441Y-126419989D01*
X131054018Y-126405050D01*
X131059774Y-126403361D01*
X131059776Y-126403361D01*
X131148855Y-126377228D01*
X131255521Y-126345936D01*
X131383409Y-126280069D01*
X131436880Y-126252530D01*
X131436883Y-126252528D01*
X131442211Y-126249784D01*
X131517919Y-126190315D01*
X131602634Y-126123771D01*
X131602639Y-126123767D01*
X131607351Y-126120065D01*
X131614493Y-126111835D01*
X131741051Y-125965991D01*
X131741055Y-125965986D01*
X131744982Y-125961460D01*
X131755038Y-125944077D01*
X145995065Y-125944077D01*
X146008722Y-126335157D01*
X146009129Y-126338206D01*
X146009129Y-126338208D01*
X146014635Y-126379470D01*
X146060477Y-126723038D01*
X146149834Y-127104017D01*
X146150823Y-127106923D01*
X146150825Y-127106929D01*
X146274950Y-127471543D01*
X146274955Y-127471555D01*
X146275943Y-127474458D01*
X146437598Y-127830826D01*
X146633258Y-128169717D01*
X146635047Y-128172216D01*
X146635049Y-128172219D01*
X146836399Y-128453462D01*
X146861053Y-128487899D01*
X147118810Y-128782333D01*
X147404069Y-129050208D01*
X147714107Y-129288969D01*
X147716710Y-129290596D01*
X147716715Y-129290599D01*
X147835687Y-129364941D01*
X148045964Y-129496337D01*
X148396472Y-129670331D01*
X148762287Y-129809290D01*
X149139915Y-129911890D01*
X149142958Y-129912405D01*
X149142964Y-129912406D01*
X149522713Y-129976636D01*
X149522720Y-129976637D01*
X149525754Y-129977150D01*
X149528825Y-129977365D01*
X149528827Y-129977365D01*
X149913053Y-130004233D01*
X149913061Y-130004233D01*
X149916119Y-130004447D01*
X150169704Y-129997363D01*
X150304211Y-129993606D01*
X150304214Y-129993606D01*
X150307285Y-129993520D01*
X150310338Y-129993134D01*
X150310342Y-129993134D01*
X150496145Y-129969662D01*
X150695517Y-129944475D01*
X150698521Y-129943793D01*
X150698524Y-129943792D01*
X151074115Y-129858460D01*
X151074121Y-129858458D01*
X151077111Y-129857779D01*
X151222875Y-129809290D01*
X151445500Y-129735233D01*
X151445506Y-129735231D01*
X151448424Y-129734260D01*
X151589551Y-129671426D01*
X151803111Y-129576343D01*
X151803117Y-129576340D01*
X151805911Y-129575096D01*
X151808580Y-129573580D01*
X152143492Y-129383324D01*
X152143498Y-129383320D01*
X152146160Y-129381808D01*
X152465924Y-129156239D01*
X152762150Y-128900544D01*
X152764271Y-128898317D01*
X152764277Y-128898311D01*
X153029894Y-128619385D01*
X153032011Y-128617162D01*
X153131192Y-128490217D01*
X153271021Y-128311244D01*
X153271023Y-128311241D01*
X153272931Y-128308799D01*
X153274587Y-128306189D01*
X153274593Y-128306181D01*
X153480957Y-127981003D01*
X153480959Y-127981000D01*
X153482610Y-127978398D01*
X153498501Y-127946940D01*
X153576328Y-127792866D01*
X153659046Y-127629112D01*
X153800557Y-127264277D01*
X153905790Y-126887374D01*
X153957504Y-126594090D01*
X153973210Y-126505018D01*
X153973210Y-126505015D01*
X153973742Y-126502000D01*
X153986580Y-126335157D01*
X154003613Y-126113789D01*
X154003613Y-126113778D01*
X154003763Y-126111835D01*
X154005325Y-126000000D01*
X153986209Y-125609149D01*
X153929044Y-125222028D01*
X153834376Y-124842334D01*
X153817934Y-124796158D01*
X153720824Y-124523444D01*
X153703107Y-124473689D01*
X153536492Y-124119614D01*
X153507167Y-124070420D01*
X153337700Y-123786138D01*
X153336120Y-123783487D01*
X153103905Y-123468517D01*
X152842061Y-123177711D01*
X152553090Y-122913844D01*
X152239749Y-122679435D01*
X152146846Y-122623171D01*
X151907658Y-122478313D01*
X151907649Y-122478308D01*
X151905030Y-122476722D01*
X151650974Y-122354998D01*
X151554898Y-122308966D01*
X151554896Y-122308965D01*
X151552126Y-122307638D01*
X151549237Y-122306586D01*
X151549231Y-122306584D01*
X151187306Y-122174855D01*
X151187303Y-122174854D01*
X151184407Y-122173800D01*
X150905080Y-122102081D01*
X150808366Y-122077249D01*
X150808363Y-122077248D01*
X150805382Y-122076483D01*
X150418670Y-122016617D01*
X150415613Y-122016446D01*
X150415612Y-122016446D01*
X150385120Y-122014741D01*
X150027962Y-121994773D01*
X150024883Y-121994902D01*
X150024880Y-121994902D01*
X149793940Y-122004581D01*
X149636987Y-122011159D01*
X149633943Y-122011587D01*
X149633941Y-122011587D01*
X149599368Y-122016446D01*
X149249477Y-122065620D01*
X148869131Y-122157636D01*
X148499579Y-122286327D01*
X148496781Y-122287620D01*
X148147146Y-122449174D01*
X148147136Y-122449179D01*
X148144349Y-122450467D01*
X148035829Y-122514135D01*
X147809486Y-122646929D01*
X147809481Y-122646932D01*
X147806831Y-122648487D01*
X147769392Y-122675688D01*
X147492730Y-122876694D01*
X147492721Y-122876701D01*
X147490248Y-122878498D01*
X147487958Y-122880531D01*
X147487952Y-122880536D01*
X147290397Y-123055934D01*
X147197621Y-123138305D01*
X146931743Y-123425427D01*
X146695152Y-123737124D01*
X146490107Y-124070420D01*
X146318564Y-124422135D01*
X146317493Y-124425016D01*
X146317490Y-124425022D01*
X146251667Y-124602015D01*
X146182162Y-124788910D01*
X146082201Y-125167246D01*
X146073328Y-125222028D01*
X146032315Y-125475256D01*
X146019637Y-125553531D01*
X146019443Y-125556611D01*
X146019443Y-125556613D01*
X146011374Y-125684869D01*
X145995065Y-125944077D01*
X131755038Y-125944077D01*
X131850138Y-125779690D01*
X131908292Y-125612222D01*
X131917058Y-125586980D01*
X131917058Y-125586978D01*
X131919025Y-125581315D01*
X131934403Y-125475256D01*
X131948297Y-125379433D01*
X131948297Y-125379430D01*
X131949158Y-125373493D01*
X131939449Y-125163722D01*
X131890248Y-124959571D01*
X131876252Y-124928787D01*
X131814006Y-124791885D01*
X131803332Y-124768408D01*
X131681835Y-124597129D01*
X131530141Y-124451914D01*
X131433005Y-124389194D01*
X131358763Y-124341256D01*
X131358760Y-124341255D01*
X131353726Y-124338004D01*
X131348163Y-124335762D01*
X131164517Y-124261750D01*
X131164514Y-124261749D01*
X131158953Y-124259508D01*
X131153072Y-124258360D01*
X131153067Y-124258358D01*
X130957296Y-124220127D01*
X130957293Y-124220127D01*
X130952850Y-124219259D01*
X130947329Y-124218989D01*
X130792503Y-124218989D01*
X130635926Y-124233928D01*
X130630170Y-124235617D01*
X130630168Y-124235617D01*
X130606263Y-124242630D01*
X130434423Y-124293042D01*
X130351477Y-124335762D01*
X130253064Y-124386448D01*
X130253061Y-124386450D01*
X130247733Y-124389194D01*
X130243018Y-124392898D01*
X130087310Y-124515207D01*
X130087305Y-124515211D01*
X130082593Y-124518913D01*
X130078662Y-124523443D01*
X130078661Y-124523444D01*
X129948893Y-124672987D01*
X129948889Y-124672992D01*
X129944962Y-124677518D01*
X129839806Y-124859288D01*
X129770919Y-125057663D01*
X129770058Y-125063598D01*
X129770058Y-125063600D01*
X129754673Y-125169712D01*
X129740786Y-125265485D01*
X105034500Y-125265485D01*
X105034500Y-123541115D01*
X122985821Y-123541115D01*
X123004969Y-123784417D01*
X123061943Y-124021727D01*
X123063833Y-124026290D01*
X123063835Y-124026296D01*
X123153443Y-124242630D01*
X123155338Y-124247204D01*
X123282856Y-124455294D01*
X123441356Y-124640874D01*
X123626936Y-124799374D01*
X123835026Y-124926892D01*
X123839596Y-124928785D01*
X123839600Y-124928787D01*
X124055934Y-125018395D01*
X124055940Y-125018397D01*
X124060503Y-125020287D01*
X124065303Y-125021439D01*
X124065308Y-125021441D01*
X124173817Y-125047492D01*
X124297813Y-125077261D01*
X124541115Y-125096409D01*
X124784417Y-125077261D01*
X124908413Y-125047492D01*
X125016922Y-125021441D01*
X125016927Y-125021439D01*
X125021727Y-125020287D01*
X125026290Y-125018397D01*
X125026296Y-125018395D01*
X125242630Y-124928787D01*
X125242634Y-124928785D01*
X125247204Y-124926892D01*
X125455294Y-124799374D01*
X125640874Y-124640874D01*
X125799374Y-124455294D01*
X125926892Y-124247204D01*
X125928787Y-124242630D01*
X126018395Y-124026296D01*
X126018397Y-124026290D01*
X126020287Y-124021727D01*
X126077261Y-123784417D01*
X126096409Y-123541115D01*
X126077261Y-123297813D01*
X126020287Y-123060503D01*
X126018397Y-123055940D01*
X126018395Y-123055934D01*
X125928787Y-122839600D01*
X125928785Y-122839596D01*
X125926892Y-122835026D01*
X125887866Y-122771342D01*
X135001732Y-122771342D01*
X135001829Y-122883287D01*
X135006025Y-122894132D01*
X135006025Y-122894134D01*
X135013651Y-122913844D01*
X135042220Y-122987692D01*
X135058262Y-123007968D01*
X136199032Y-124148738D01*
X136201962Y-124151045D01*
X136201968Y-124151050D01*
X136211942Y-124158902D01*
X136219763Y-124165059D01*
X136228584Y-124168454D01*
X136313384Y-124201091D01*
X136313386Y-124201091D01*
X136324238Y-124205268D01*
X136335869Y-124205258D01*
X136379966Y-124205220D01*
X136436183Y-124205171D01*
X136447028Y-124200975D01*
X136447030Y-124200975D01*
X136531754Y-124168198D01*
X136531756Y-124168197D01*
X136540588Y-124164780D01*
X136548016Y-124158903D01*
X136548018Y-124158902D01*
X136557986Y-124151015D01*
X136560864Y-124148738D01*
X137701634Y-123007968D01*
X137703941Y-123005038D01*
X137703946Y-123005032D01*
X137712108Y-122994664D01*
X137717955Y-122987237D01*
X137746911Y-122912001D01*
X137753987Y-122893616D01*
X137753987Y-122893614D01*
X137758164Y-122882762D01*
X137758067Y-122770817D01*
X137723429Y-122681282D01*
X137721094Y-122675246D01*
X137721093Y-122675244D01*
X137717676Y-122666412D01*
X137701634Y-122646136D01*
X136560864Y-121505366D01*
X136557934Y-121503059D01*
X136557928Y-121503054D01*
X136547560Y-121494892D01*
X136540133Y-121489045D01*
X136531312Y-121485650D01*
X136446512Y-121453013D01*
X136446510Y-121453013D01*
X136435658Y-121448836D01*
X136424027Y-121448846D01*
X136379930Y-121448884D01*
X136323713Y-121448933D01*
X136312868Y-121453129D01*
X136312866Y-121453129D01*
X136228142Y-121485906D01*
X136228140Y-121485907D01*
X136219308Y-121489324D01*
X136211880Y-121495201D01*
X136211878Y-121495202D01*
X136202326Y-121502760D01*
X136199032Y-121505366D01*
X135058262Y-122646136D01*
X135055955Y-122649066D01*
X135055950Y-122649072D01*
X135054985Y-122650298D01*
X135041941Y-122666867D01*
X135038546Y-122675688D01*
X135006109Y-122759970D01*
X135001732Y-122771342D01*
X125887866Y-122771342D01*
X125799374Y-122626936D01*
X125640874Y-122441356D01*
X125455294Y-122282856D01*
X125247204Y-122155338D01*
X125242634Y-122153445D01*
X125242630Y-122153443D01*
X125026296Y-122063835D01*
X125026290Y-122063833D01*
X125021727Y-122061943D01*
X125016927Y-122060791D01*
X125016922Y-122060789D01*
X124908413Y-122034738D01*
X124784417Y-122004969D01*
X124541115Y-121985821D01*
X124297813Y-122004969D01*
X124173817Y-122034738D01*
X124065308Y-122060789D01*
X124065303Y-122060791D01*
X124060503Y-122061943D01*
X124055940Y-122063833D01*
X124055934Y-122063835D01*
X123839600Y-122153443D01*
X123839596Y-122153445D01*
X123835026Y-122155338D01*
X123626936Y-122282856D01*
X123441356Y-122441356D01*
X123282856Y-122626936D01*
X123155338Y-122835026D01*
X123153445Y-122839596D01*
X123153443Y-122839600D01*
X123063835Y-123055934D01*
X123063833Y-123055940D01*
X123061943Y-123060503D01*
X123004969Y-123297813D01*
X122985821Y-123541115D01*
X105034500Y-123541115D01*
X105034500Y-120847038D01*
X120291744Y-120847038D01*
X120310892Y-121090340D01*
X120367866Y-121327650D01*
X120369756Y-121332213D01*
X120369758Y-121332219D01*
X120459366Y-121548553D01*
X120461261Y-121553127D01*
X120588779Y-121761217D01*
X120747279Y-121946797D01*
X120932859Y-122105297D01*
X121140949Y-122232815D01*
X121145519Y-122234708D01*
X121145523Y-122234710D01*
X121361857Y-122324318D01*
X121361863Y-122324320D01*
X121366426Y-122326210D01*
X121371226Y-122327362D01*
X121371231Y-122327364D01*
X121465883Y-122350088D01*
X121603736Y-122383184D01*
X121847038Y-122402332D01*
X122090340Y-122383184D01*
X122228193Y-122350088D01*
X122322845Y-122327364D01*
X122322850Y-122327362D01*
X122327650Y-122326210D01*
X122332213Y-122324320D01*
X122332219Y-122324318D01*
X122548553Y-122234710D01*
X122548557Y-122234708D01*
X122553127Y-122232815D01*
X122761217Y-122105297D01*
X122946797Y-121946797D01*
X123105297Y-121761217D01*
X123232815Y-121553127D01*
X123234710Y-121548553D01*
X123324318Y-121332219D01*
X123324320Y-121332213D01*
X123326210Y-121327650D01*
X123383184Y-121090340D01*
X123402332Y-120847038D01*
X123383184Y-120603736D01*
X123333486Y-120396732D01*
X123327364Y-120371231D01*
X123327362Y-120371226D01*
X123326210Y-120366426D01*
X123324320Y-120361863D01*
X123324318Y-120361857D01*
X123234710Y-120145523D01*
X123234708Y-120145519D01*
X123232815Y-120140949D01*
X123105297Y-119932859D01*
X123057872Y-119877331D01*
X124352633Y-119877331D01*
X124362342Y-120087102D01*
X124363746Y-120092927D01*
X124363746Y-120092928D01*
X124387903Y-120193161D01*
X124411543Y-120291253D01*
X124414025Y-120296711D01*
X124414026Y-120296715D01*
X124457139Y-120391536D01*
X124498459Y-120482416D01*
X124619956Y-120653695D01*
X124771650Y-120798910D01*
X124776685Y-120802161D01*
X124943028Y-120909568D01*
X124943031Y-120909569D01*
X124948065Y-120912820D01*
X124953628Y-120915062D01*
X125137274Y-120989074D01*
X125137277Y-120989075D01*
X125142838Y-120991316D01*
X125148719Y-120992464D01*
X125148724Y-120992466D01*
X125344495Y-121030697D01*
X125344498Y-121030697D01*
X125348941Y-121031565D01*
X125354462Y-121031835D01*
X125509288Y-121031835D01*
X125665865Y-121016896D01*
X125671621Y-121015207D01*
X125671623Y-121015207D01*
X125768041Y-120986921D01*
X125867368Y-120957782D01*
X125967766Y-120906074D01*
X126048727Y-120864376D01*
X126048730Y-120864374D01*
X126054058Y-120861630D01*
X126129766Y-120802161D01*
X126214481Y-120735617D01*
X126214486Y-120735613D01*
X126219198Y-120731911D01*
X126223130Y-120727380D01*
X126352898Y-120577837D01*
X126352902Y-120577832D01*
X126356829Y-120573306D01*
X126461985Y-120391536D01*
X126530872Y-120193161D01*
X126537779Y-120145523D01*
X126560144Y-119991279D01*
X126560144Y-119991276D01*
X126561005Y-119985339D01*
X126551296Y-119775568D01*
X126517617Y-119635821D01*
X126503501Y-119577250D01*
X126503500Y-119577248D01*
X126502095Y-119571417D01*
X126499528Y-119565770D01*
X126433024Y-119419502D01*
X126415179Y-119380254D01*
X126293682Y-119208975D01*
X126141988Y-119063760D01*
X126050589Y-119004744D01*
X125970610Y-118953102D01*
X125970607Y-118953101D01*
X125965573Y-118949850D01*
X125960010Y-118947608D01*
X125776364Y-118873596D01*
X125776361Y-118873595D01*
X125770800Y-118871354D01*
X125764919Y-118870206D01*
X125764914Y-118870204D01*
X125569143Y-118831973D01*
X125569140Y-118831973D01*
X125564697Y-118831105D01*
X125559176Y-118830835D01*
X125404350Y-118830835D01*
X125247773Y-118845774D01*
X125242017Y-118847463D01*
X125242015Y-118847463D01*
X125164498Y-118870204D01*
X125046270Y-118904888D01*
X124963324Y-118947608D01*
X124864911Y-118998294D01*
X124864908Y-118998296D01*
X124859580Y-119001040D01*
X124854865Y-119004744D01*
X124699157Y-119127053D01*
X124699152Y-119127057D01*
X124694440Y-119130759D01*
X124690509Y-119135289D01*
X124690508Y-119135290D01*
X124560740Y-119284833D01*
X124560736Y-119284838D01*
X124556809Y-119289364D01*
X124451653Y-119471134D01*
X124449685Y-119476802D01*
X124388544Y-119652871D01*
X124382766Y-119669509D01*
X124381905Y-119675444D01*
X124381905Y-119675446D01*
X124366520Y-119781558D01*
X124352633Y-119877331D01*
X123057872Y-119877331D01*
X122946797Y-119747279D01*
X122761217Y-119588779D01*
X122553127Y-119461261D01*
X122548557Y-119459368D01*
X122548553Y-119459366D01*
X122332219Y-119369758D01*
X122332213Y-119369756D01*
X122327650Y-119367866D01*
X122322850Y-119366714D01*
X122322845Y-119366712D01*
X122176406Y-119331555D01*
X122090340Y-119310892D01*
X121847038Y-119291744D01*
X121603736Y-119310892D01*
X121517670Y-119331555D01*
X121371231Y-119366712D01*
X121371226Y-119366714D01*
X121366426Y-119367866D01*
X121361863Y-119369756D01*
X121361857Y-119369758D01*
X121145523Y-119459366D01*
X121145519Y-119459368D01*
X121140949Y-119461261D01*
X120932859Y-119588779D01*
X120747279Y-119747279D01*
X120588779Y-119932859D01*
X120461261Y-120140949D01*
X120459368Y-120145519D01*
X120459366Y-120145523D01*
X120369758Y-120361857D01*
X120369756Y-120361863D01*
X120367866Y-120366426D01*
X120366714Y-120371226D01*
X120366712Y-120371231D01*
X120360590Y-120396732D01*
X120310892Y-120603736D01*
X120291744Y-120847038D01*
X105034500Y-120847038D01*
X105034500Y-118152962D01*
X117597668Y-118152962D01*
X117616816Y-118396264D01*
X117622256Y-118418923D01*
X117656063Y-118559735D01*
X117673790Y-118633574D01*
X117675680Y-118638137D01*
X117675682Y-118638143D01*
X117762385Y-118847463D01*
X117767185Y-118859051D01*
X117894703Y-119067141D01*
X118053203Y-119252721D01*
X118238783Y-119411221D01*
X118446873Y-119538739D01*
X118451443Y-119540632D01*
X118451447Y-119540634D01*
X118667781Y-119630242D01*
X118667787Y-119630244D01*
X118672350Y-119632134D01*
X118677150Y-119633286D01*
X118677155Y-119633288D01*
X118758724Y-119652871D01*
X118909660Y-119689108D01*
X119152962Y-119708256D01*
X119396264Y-119689108D01*
X119547200Y-119652871D01*
X119628769Y-119633288D01*
X119628774Y-119633286D01*
X119633574Y-119632134D01*
X119638137Y-119630244D01*
X119638143Y-119630242D01*
X119854477Y-119540634D01*
X119854481Y-119540632D01*
X119859051Y-119538739D01*
X120067141Y-119411221D01*
X120252721Y-119252721D01*
X120411221Y-119067141D01*
X120538739Y-118859051D01*
X120543539Y-118847463D01*
X120630242Y-118638143D01*
X120630244Y-118638137D01*
X120632134Y-118633574D01*
X120649862Y-118559735D01*
X120683668Y-118418923D01*
X120689108Y-118396264D01*
X120708256Y-118152962D01*
X120689108Y-117909660D01*
X120632134Y-117672350D01*
X120630244Y-117667787D01*
X120630242Y-117667781D01*
X120540634Y-117451447D01*
X120540632Y-117451443D01*
X120538739Y-117446873D01*
X120411221Y-117238783D01*
X120252721Y-117053203D01*
X120067141Y-116894703D01*
X119859051Y-116767185D01*
X119854481Y-116765292D01*
X119854477Y-116765290D01*
X119638143Y-116675682D01*
X119638137Y-116675680D01*
X119633574Y-116673790D01*
X119628774Y-116672638D01*
X119628769Y-116672636D01*
X119477894Y-116636414D01*
X119396264Y-116616816D01*
X119152962Y-116597668D01*
X118909660Y-116616816D01*
X118828030Y-116636414D01*
X118677155Y-116672636D01*
X118677150Y-116672638D01*
X118672350Y-116673790D01*
X118667787Y-116675680D01*
X118667781Y-116675682D01*
X118451447Y-116765290D01*
X118451443Y-116765292D01*
X118446873Y-116767185D01*
X118238783Y-116894703D01*
X118053203Y-117053203D01*
X117894703Y-117238783D01*
X117767185Y-117446873D01*
X117765292Y-117451443D01*
X117765290Y-117451447D01*
X117675682Y-117667781D01*
X117675680Y-117667787D01*
X117673790Y-117672350D01*
X117616816Y-117909660D01*
X117597668Y-118152962D01*
X105034500Y-118152962D01*
X105034500Y-116320584D01*
X111744919Y-116320584D01*
X111754628Y-116530355D01*
X111756032Y-116536180D01*
X111756032Y-116536181D01*
X111799645Y-116717144D01*
X111803829Y-116734506D01*
X111806311Y-116739964D01*
X111806312Y-116739968D01*
X111848464Y-116832677D01*
X111890745Y-116925669D01*
X112012242Y-117096948D01*
X112016569Y-117101090D01*
X112140395Y-117219627D01*
X112163936Y-117242163D01*
X112168971Y-117245414D01*
X112335314Y-117352821D01*
X112335317Y-117352822D01*
X112340351Y-117356073D01*
X112345914Y-117358315D01*
X112529560Y-117432327D01*
X112529563Y-117432328D01*
X112535124Y-117434569D01*
X112541005Y-117435717D01*
X112541010Y-117435719D01*
X112736781Y-117473950D01*
X112736784Y-117473950D01*
X112741227Y-117474818D01*
X112746748Y-117475088D01*
X112901574Y-117475088D01*
X113058151Y-117460149D01*
X113063907Y-117458460D01*
X113063909Y-117458460D01*
X113205479Y-117416928D01*
X113259654Y-117401035D01*
X113374724Y-117341770D01*
X113441013Y-117307629D01*
X113441016Y-117307627D01*
X113446344Y-117304883D01*
X113525125Y-117243000D01*
X113606767Y-117178870D01*
X113606772Y-117178866D01*
X113611484Y-117175164D01*
X113615416Y-117170633D01*
X113745184Y-117021090D01*
X113745188Y-117021085D01*
X113749115Y-117016559D01*
X113854271Y-116834789D01*
X113923158Y-116636414D01*
X113928776Y-116597668D01*
X113952430Y-116434532D01*
X113952430Y-116434529D01*
X113953291Y-116428592D01*
X113943582Y-116218821D01*
X113894381Y-116014670D01*
X113891881Y-116009170D01*
X113809945Y-115828962D01*
X113807465Y-115823507D01*
X113698353Y-115669688D01*
X113689434Y-115657114D01*
X113689433Y-115657113D01*
X113685968Y-115652228D01*
X113534274Y-115507013D01*
X113486587Y-115476222D01*
X113459737Y-115458885D01*
X114903591Y-115458885D01*
X114922739Y-115702187D01*
X114950556Y-115818052D01*
X114977509Y-115930315D01*
X114979713Y-115939497D01*
X114981603Y-115944060D01*
X114981605Y-115944066D01*
X115064125Y-116143287D01*
X115073108Y-116164974D01*
X115200626Y-116373064D01*
X115359126Y-116558644D01*
X115544706Y-116717144D01*
X115752796Y-116844662D01*
X115757366Y-116846555D01*
X115757370Y-116846557D01*
X115973704Y-116936165D01*
X115973710Y-116936167D01*
X115978273Y-116938057D01*
X115983073Y-116939209D01*
X115983078Y-116939211D01*
X116070445Y-116960186D01*
X116215583Y-116995031D01*
X116458885Y-117014179D01*
X116702187Y-116995031D01*
X116847325Y-116960186D01*
X116934692Y-116939211D01*
X116934697Y-116939209D01*
X116939497Y-116938057D01*
X116944060Y-116936167D01*
X116944066Y-116936165D01*
X117160400Y-116846557D01*
X117160404Y-116846555D01*
X117164974Y-116844662D01*
X117373064Y-116717144D01*
X117558644Y-116558644D01*
X117717144Y-116373064D01*
X117844662Y-116164974D01*
X117853645Y-116143287D01*
X117936165Y-115944066D01*
X117936167Y-115944060D01*
X117938057Y-115939497D01*
X117940262Y-115930315D01*
X117967214Y-115818052D01*
X117995031Y-115702187D01*
X118014179Y-115458885D01*
X117995031Y-115215583D01*
X117945333Y-115008578D01*
X117939211Y-114983078D01*
X117939209Y-114983073D01*
X117938057Y-114978273D01*
X117936167Y-114973710D01*
X117936165Y-114973704D01*
X117846557Y-114757370D01*
X117846555Y-114757366D01*
X117844662Y-114752796D01*
X117717144Y-114544706D01*
X117669718Y-114489177D01*
X118964479Y-114489177D01*
X118974188Y-114698948D01*
X118975592Y-114704773D01*
X118975592Y-114704774D01*
X118999749Y-114805007D01*
X119023389Y-114903099D01*
X119025871Y-114908557D01*
X119025872Y-114908561D01*
X119067786Y-115000745D01*
X119110305Y-115094262D01*
X119231802Y-115265541D01*
X119383496Y-115410756D01*
X119388531Y-115414007D01*
X119554874Y-115521414D01*
X119554877Y-115521415D01*
X119559911Y-115524666D01*
X119565474Y-115526908D01*
X119749120Y-115600920D01*
X119749123Y-115600921D01*
X119754684Y-115603162D01*
X119760565Y-115604310D01*
X119760570Y-115604312D01*
X119956341Y-115642543D01*
X119956344Y-115642543D01*
X119960787Y-115643411D01*
X119966308Y-115643681D01*
X120121134Y-115643681D01*
X120277711Y-115628742D01*
X120283467Y-115627053D01*
X120283469Y-115627053D01*
X120448825Y-115578543D01*
X120479214Y-115569628D01*
X120602988Y-115505880D01*
X120660573Y-115476222D01*
X120660576Y-115476220D01*
X120665904Y-115473476D01*
X120741612Y-115414007D01*
X120826327Y-115347463D01*
X120826332Y-115347459D01*
X120831044Y-115343757D01*
X120834976Y-115339226D01*
X120964744Y-115189683D01*
X120964748Y-115189678D01*
X120968675Y-115185152D01*
X121073831Y-115003382D01*
X121123194Y-114861232D01*
X121140751Y-114810672D01*
X121140751Y-114810670D01*
X121142718Y-114805007D01*
X121154396Y-114724466D01*
X121171990Y-114603125D01*
X121171990Y-114603122D01*
X121172851Y-114597185D01*
X121163142Y-114387414D01*
X121113941Y-114183263D01*
X121099084Y-114150585D01*
X121055950Y-114055717D01*
X121027025Y-113992100D01*
X120905528Y-113820821D01*
X120753834Y-113675606D01*
X120710473Y-113647608D01*
X120582456Y-113564948D01*
X120582453Y-113564947D01*
X120577419Y-113561696D01*
X120571856Y-113559454D01*
X120388210Y-113485442D01*
X120388207Y-113485441D01*
X120382646Y-113483200D01*
X120376765Y-113482052D01*
X120376760Y-113482050D01*
X120180989Y-113443819D01*
X120180986Y-113443819D01*
X120176543Y-113442951D01*
X120171022Y-113442681D01*
X120016196Y-113442681D01*
X119859619Y-113457620D01*
X119853863Y-113459309D01*
X119853861Y-113459309D01*
X119776344Y-113482050D01*
X119658116Y-113516734D01*
X119575170Y-113559454D01*
X119476757Y-113610140D01*
X119476754Y-113610142D01*
X119471426Y-113612886D01*
X119466711Y-113616590D01*
X119311003Y-113738899D01*
X119310998Y-113738903D01*
X119306286Y-113742605D01*
X119302355Y-113747135D01*
X119302354Y-113747136D01*
X119172586Y-113896679D01*
X119172582Y-113896684D01*
X119168655Y-113901210D01*
X119063499Y-114082980D01*
X118994612Y-114281355D01*
X118993751Y-114287290D01*
X118993751Y-114287292D01*
X118978366Y-114393404D01*
X118964479Y-114489177D01*
X117669718Y-114489177D01*
X117558644Y-114359126D01*
X117373064Y-114200626D01*
X117164974Y-114073108D01*
X117160404Y-114071215D01*
X117160400Y-114071213D01*
X116944066Y-113981605D01*
X116944060Y-113981603D01*
X116939497Y-113979713D01*
X116934697Y-113978561D01*
X116934692Y-113978559D01*
X116797225Y-113945556D01*
X116702187Y-113922739D01*
X116458885Y-113903591D01*
X116215583Y-113922739D01*
X116120545Y-113945556D01*
X115983078Y-113978559D01*
X115983073Y-113978561D01*
X115978273Y-113979713D01*
X115973710Y-113981603D01*
X115973704Y-113981605D01*
X115757370Y-114071213D01*
X115757366Y-114071215D01*
X115752796Y-114073108D01*
X115544706Y-114200626D01*
X115359126Y-114359126D01*
X115200626Y-114544706D01*
X115073108Y-114752796D01*
X115071215Y-114757366D01*
X115071213Y-114757370D01*
X114981605Y-114973704D01*
X114981603Y-114973710D01*
X114979713Y-114978273D01*
X114978561Y-114983073D01*
X114978559Y-114983078D01*
X114972437Y-115008578D01*
X114922739Y-115215583D01*
X114903591Y-115458885D01*
X113459737Y-115458885D01*
X113362896Y-115396355D01*
X113362893Y-115396354D01*
X113357859Y-115393103D01*
X113352296Y-115390861D01*
X113168650Y-115316849D01*
X113168647Y-115316848D01*
X113163086Y-115314607D01*
X113157205Y-115313459D01*
X113157200Y-115313457D01*
X112961429Y-115275226D01*
X112961426Y-115275226D01*
X112956983Y-115274358D01*
X112951462Y-115274088D01*
X112796636Y-115274088D01*
X112640059Y-115289027D01*
X112634303Y-115290716D01*
X112634301Y-115290716D01*
X112556784Y-115313457D01*
X112438556Y-115348141D01*
X112355610Y-115390861D01*
X112257197Y-115441547D01*
X112257194Y-115441549D01*
X112251866Y-115444293D01*
X112200557Y-115484597D01*
X112091443Y-115570306D01*
X112091438Y-115570310D01*
X112086726Y-115574012D01*
X112082795Y-115578542D01*
X112082794Y-115578543D01*
X111953026Y-115728086D01*
X111953022Y-115728091D01*
X111949095Y-115732617D01*
X111843939Y-115914387D01*
X111822326Y-115976627D01*
X111794411Y-116057015D01*
X111775052Y-116112762D01*
X111774191Y-116118697D01*
X111774191Y-116118699D01*
X111758806Y-116224811D01*
X111744919Y-116320584D01*
X105034500Y-116320584D01*
X105034500Y-112764808D01*
X112209514Y-112764808D01*
X112228662Y-113008110D01*
X112285636Y-113245420D01*
X112287526Y-113249983D01*
X112287528Y-113249989D01*
X112374231Y-113459309D01*
X112379031Y-113470897D01*
X112506549Y-113678987D01*
X112665049Y-113864567D01*
X112850629Y-114023067D01*
X113058719Y-114150585D01*
X113063289Y-114152478D01*
X113063293Y-114152480D01*
X113279627Y-114242088D01*
X113279633Y-114242090D01*
X113284196Y-114243980D01*
X113288996Y-114245132D01*
X113289001Y-114245134D01*
X113397510Y-114271185D01*
X113521506Y-114300954D01*
X113764808Y-114320102D01*
X114008110Y-114300954D01*
X114132106Y-114271185D01*
X114240615Y-114245134D01*
X114240620Y-114245132D01*
X114245420Y-114243980D01*
X114249983Y-114242090D01*
X114249989Y-114242088D01*
X114466323Y-114152480D01*
X114466327Y-114152478D01*
X114470897Y-114150585D01*
X114678987Y-114023067D01*
X114864567Y-113864567D01*
X115023067Y-113678987D01*
X115150585Y-113470897D01*
X115155385Y-113459309D01*
X115242088Y-113249989D01*
X115242090Y-113249983D01*
X115243980Y-113245420D01*
X115300954Y-113008110D01*
X115320102Y-112764808D01*
X115300954Y-112521506D01*
X115263330Y-112364794D01*
X115245134Y-112289001D01*
X115245132Y-112288996D01*
X115243980Y-112284196D01*
X115242090Y-112279633D01*
X115242088Y-112279627D01*
X115152480Y-112063293D01*
X115152478Y-112063289D01*
X115150585Y-112058719D01*
X115023067Y-111850629D01*
X114864567Y-111665049D01*
X114678987Y-111506549D01*
X114470897Y-111379031D01*
X114466327Y-111377138D01*
X114466323Y-111377136D01*
X114249989Y-111287528D01*
X114249983Y-111287526D01*
X114245420Y-111285636D01*
X114240620Y-111284484D01*
X114240615Y-111284482D01*
X114132106Y-111258431D01*
X114008110Y-111228662D01*
X113764808Y-111209514D01*
X113521506Y-111228662D01*
X113397510Y-111258431D01*
X113289001Y-111284482D01*
X113288996Y-111284484D01*
X113284196Y-111285636D01*
X113279633Y-111287526D01*
X113279627Y-111287528D01*
X113063293Y-111377136D01*
X113063289Y-111377138D01*
X113058719Y-111379031D01*
X112850629Y-111506549D01*
X112665049Y-111665049D01*
X112506549Y-111850629D01*
X112379031Y-112058719D01*
X112377138Y-112063289D01*
X112377136Y-112063293D01*
X112287528Y-112279627D01*
X112287526Y-112279633D01*
X112285636Y-112284196D01*
X112284484Y-112288996D01*
X112284482Y-112289001D01*
X112266286Y-112364794D01*
X112228662Y-112521506D01*
X112209514Y-112764808D01*
X105034500Y-112764808D01*
X105034500Y-110070731D01*
X109515437Y-110070731D01*
X109534585Y-110314033D01*
X109535740Y-110318842D01*
X109578031Y-110494994D01*
X109591559Y-110551343D01*
X109593449Y-110555906D01*
X109593451Y-110555912D01*
X109674749Y-110752183D01*
X109684954Y-110776820D01*
X109812472Y-110984910D01*
X109970972Y-111170490D01*
X110156552Y-111328990D01*
X110364642Y-111456508D01*
X110369212Y-111458401D01*
X110369216Y-111458403D01*
X110585550Y-111548011D01*
X110585556Y-111548013D01*
X110590119Y-111549903D01*
X110594919Y-111551055D01*
X110594924Y-111551057D01*
X110682995Y-111572201D01*
X110827429Y-111606877D01*
X111070731Y-111626025D01*
X111314033Y-111606877D01*
X111458467Y-111572201D01*
X111546538Y-111551057D01*
X111546543Y-111551055D01*
X111551343Y-111549903D01*
X111555906Y-111548013D01*
X111555912Y-111548011D01*
X111772246Y-111458403D01*
X111772250Y-111458401D01*
X111776820Y-111456508D01*
X111984910Y-111328990D01*
X112170490Y-111170490D01*
X112328990Y-110984910D01*
X112456508Y-110776820D01*
X112466713Y-110752183D01*
X112548011Y-110555912D01*
X112548013Y-110555906D01*
X112549903Y-110551343D01*
X112563432Y-110494994D01*
X112605722Y-110318842D01*
X112606877Y-110314033D01*
X112626025Y-110070731D01*
X112606877Y-109827429D01*
X112557179Y-109620425D01*
X112551057Y-109594924D01*
X112551055Y-109594919D01*
X112549903Y-109590119D01*
X112548013Y-109585556D01*
X112548011Y-109585550D01*
X112458403Y-109369216D01*
X112458401Y-109369212D01*
X112456508Y-109364642D01*
X112328990Y-109156552D01*
X112281565Y-109101024D01*
X113576325Y-109101024D01*
X113586034Y-109310795D01*
X113587438Y-109316620D01*
X113587438Y-109316621D01*
X113627867Y-109484372D01*
X113635235Y-109514946D01*
X113637717Y-109520404D01*
X113637718Y-109520408D01*
X113683193Y-109620425D01*
X113722151Y-109706109D01*
X113843648Y-109877388D01*
X113995342Y-110022603D01*
X114000377Y-110025854D01*
X114166720Y-110133261D01*
X114166723Y-110133262D01*
X114171757Y-110136513D01*
X114177320Y-110138755D01*
X114360966Y-110212767D01*
X114360969Y-110212768D01*
X114366530Y-110215009D01*
X114372411Y-110216157D01*
X114372416Y-110216159D01*
X114568187Y-110254390D01*
X114568190Y-110254390D01*
X114572633Y-110255258D01*
X114578154Y-110255528D01*
X114732980Y-110255528D01*
X114889557Y-110240589D01*
X114895313Y-110238900D01*
X114895315Y-110238900D01*
X114984394Y-110212767D01*
X115091060Y-110181475D01*
X115191458Y-110129767D01*
X115272419Y-110088069D01*
X115272422Y-110088067D01*
X115277750Y-110085323D01*
X115353458Y-110025854D01*
X115438173Y-109959310D01*
X115438178Y-109959306D01*
X115442890Y-109955604D01*
X115446822Y-109951073D01*
X115576590Y-109801530D01*
X115576594Y-109801525D01*
X115580521Y-109796999D01*
X115685677Y-109615229D01*
X115754564Y-109416854D01*
X115761610Y-109368262D01*
X115783836Y-109214972D01*
X115783836Y-109214969D01*
X115784697Y-109209032D01*
X115774988Y-108999261D01*
X115743229Y-108867481D01*
X115728526Y-108806473D01*
X123347775Y-108806473D01*
X123355954Y-108880553D01*
X123364372Y-108956797D01*
X123365717Y-108968983D01*
X123368326Y-108976114D01*
X123368327Y-108976116D01*
X123409999Y-109089989D01*
X123421904Y-109122522D01*
X123426140Y-109128825D01*
X123426140Y-109128826D01*
X123508859Y-109251926D01*
X123508862Y-109251929D01*
X123513093Y-109258226D01*
X123634021Y-109368262D01*
X123640696Y-109371886D01*
X123771028Y-109442651D01*
X123771030Y-109442652D01*
X123777705Y-109446276D01*
X123785055Y-109448204D01*
X123785057Y-109448205D01*
X123790710Y-109449688D01*
X123847834Y-109482469D01*
X126497795Y-112132430D01*
X126531821Y-112194742D01*
X126532799Y-112200721D01*
X126533498Y-112203702D01*
X126534332Y-112211255D01*
X126536942Y-112218387D01*
X126549509Y-112252727D01*
X126590519Y-112364794D01*
X126594755Y-112371097D01*
X126594755Y-112371098D01*
X126677474Y-112494198D01*
X126677477Y-112494201D01*
X126681708Y-112500498D01*
X126802636Y-112610534D01*
X126809311Y-112614158D01*
X126939643Y-112684923D01*
X126939645Y-112684924D01*
X126946320Y-112688548D01*
X126971604Y-112695181D01*
X127028727Y-112727962D01*
X130685951Y-116385186D01*
X130715182Y-116430980D01*
X130725709Y-116459745D01*
X130743705Y-116508923D01*
X130747941Y-116515226D01*
X130747941Y-116515227D01*
X130830660Y-116638327D01*
X130830663Y-116638330D01*
X130834894Y-116644627D01*
X130955822Y-116754663D01*
X130985740Y-116770907D01*
X131092829Y-116829052D01*
X131092831Y-116829053D01*
X131099506Y-116832677D01*
X131106856Y-116834605D01*
X131106858Y-116834606D01*
X131112511Y-116836089D01*
X131169635Y-116868870D01*
X131260951Y-116960186D01*
X131290182Y-117005980D01*
X131295712Y-117021090D01*
X131318705Y-117083923D01*
X131322941Y-117090226D01*
X131322941Y-117090227D01*
X131405660Y-117213327D01*
X131405663Y-117213330D01*
X131409894Y-117219627D01*
X131530822Y-117329663D01*
X131592299Y-117363042D01*
X131667829Y-117404052D01*
X131667831Y-117404053D01*
X131674506Y-117407677D01*
X131681855Y-117409605D01*
X131825301Y-117447237D01*
X131825303Y-117447237D01*
X131832651Y-117449165D01*
X131915932Y-117450473D01*
X131988529Y-117451614D01*
X131988532Y-117451614D01*
X131996128Y-117451733D01*
X132003533Y-117450037D01*
X132003534Y-117450037D01*
X132148097Y-117416928D01*
X132155498Y-117415233D01*
X132301561Y-117341770D01*
X132425885Y-117235588D01*
X132437355Y-117219627D01*
X132516861Y-117108983D01*
X132516862Y-117108982D01*
X132521293Y-117102815D01*
X132582275Y-116951116D01*
X132605312Y-116789250D01*
X132605461Y-116775000D01*
X132604829Y-116769771D01*
X132593213Y-116673790D01*
X132585819Y-116612687D01*
X132528027Y-116459745D01*
X132435421Y-116325003D01*
X132423795Y-116314644D01*
X132319019Y-116221293D01*
X132313348Y-116216240D01*
X132168855Y-116139735D01*
X132161491Y-116137885D01*
X132154397Y-116135162D01*
X132154929Y-116133776D01*
X132104320Y-116105085D01*
X132014148Y-116014913D01*
X131985377Y-115970356D01*
X131955711Y-115891848D01*
X131953027Y-115884745D01*
X131948726Y-115878487D01*
X131864723Y-115756262D01*
X131864722Y-115756261D01*
X131860421Y-115750003D01*
X131840908Y-115732617D01*
X131758845Y-115659502D01*
X131738348Y-115641240D01*
X131714744Y-115628742D01*
X131662197Y-115600920D01*
X131593855Y-115564735D01*
X131586491Y-115562885D01*
X131579397Y-115560162D01*
X131579929Y-115558776D01*
X131529320Y-115530085D01*
X127855461Y-111856226D01*
X127826690Y-111811669D01*
X127802525Y-111747719D01*
X127799841Y-111740616D01*
X127744467Y-111660047D01*
X127711537Y-111612133D01*
X127711536Y-111612132D01*
X127707235Y-111605874D01*
X127701564Y-111600821D01*
X127590834Y-111502164D01*
X127590831Y-111502162D01*
X127585162Y-111497111D01*
X127550437Y-111478725D01*
X127520301Y-111456466D01*
X124692347Y-108628512D01*
X124663576Y-108583955D01*
X124633910Y-108505447D01*
X124631226Y-108498344D01*
X124622627Y-108485833D01*
X124618468Y-108479781D01*
X124596368Y-108412312D01*
X124614253Y-108343605D01*
X124619986Y-108334887D01*
X124624493Y-108328615D01*
X124685475Y-108176916D01*
X124708512Y-108015050D01*
X124708661Y-108000800D01*
X124706888Y-107986143D01*
X124694164Y-107881003D01*
X124689019Y-107838487D01*
X124631227Y-107685545D01*
X124619325Y-107668227D01*
X124542923Y-107557062D01*
X124542922Y-107557061D01*
X124538621Y-107550803D01*
X124416548Y-107442040D01*
X124409838Y-107438487D01*
X124278766Y-107369088D01*
X124278764Y-107369087D01*
X124272055Y-107365535D01*
X124220985Y-107352707D01*
X124120855Y-107327556D01*
X124120851Y-107327556D01*
X124113484Y-107325705D01*
X124105885Y-107325665D01*
X124105883Y-107325665D01*
X124037853Y-107325309D01*
X123949990Y-107324849D01*
X123942610Y-107326621D01*
X123942608Y-107326621D01*
X123798389Y-107361244D01*
X123798385Y-107361245D01*
X123791010Y-107363016D01*
X123645724Y-107438004D01*
X123640002Y-107442996D01*
X123640000Y-107442997D01*
X123528244Y-107540488D01*
X123528241Y-107540491D01*
X123522519Y-107545483D01*
X123428507Y-107679248D01*
X123369117Y-107831576D01*
X123368126Y-107839103D01*
X123361786Y-107887262D01*
X123347776Y-107993674D01*
X123354526Y-108054813D01*
X123362655Y-108128439D01*
X123365718Y-108156184D01*
X123368327Y-108163315D01*
X123368328Y-108163317D01*
X123412566Y-108284202D01*
X123421905Y-108309723D01*
X123438815Y-108334887D01*
X123439465Y-108335855D01*
X123460857Y-108403552D01*
X123442253Y-108472068D01*
X123437978Y-108478570D01*
X123428506Y-108492047D01*
X123369116Y-108644375D01*
X123368125Y-108651902D01*
X123349085Y-108796524D01*
X123347775Y-108806473D01*
X115728526Y-108806473D01*
X115727193Y-108800943D01*
X115727192Y-108800941D01*
X115725787Y-108795110D01*
X115722646Y-108788200D01*
X115652275Y-108633427D01*
X115638871Y-108603947D01*
X115534809Y-108457247D01*
X115520840Y-108437554D01*
X115520839Y-108437553D01*
X115517374Y-108432668D01*
X115365680Y-108287453D01*
X115307394Y-108249818D01*
X115194302Y-108176795D01*
X115194299Y-108176794D01*
X115189265Y-108173543D01*
X115183702Y-108171301D01*
X115000056Y-108097289D01*
X115000053Y-108097288D01*
X114994492Y-108095047D01*
X114988611Y-108093899D01*
X114988606Y-108093897D01*
X114792835Y-108055666D01*
X114792832Y-108055666D01*
X114788389Y-108054798D01*
X114782868Y-108054528D01*
X114628042Y-108054528D01*
X114471465Y-108069467D01*
X114465709Y-108071156D01*
X114465707Y-108071156D01*
X114388190Y-108093897D01*
X114269962Y-108128581D01*
X114209500Y-108159721D01*
X114088603Y-108221987D01*
X114088600Y-108221989D01*
X114083272Y-108224733D01*
X114073854Y-108232131D01*
X113922849Y-108350746D01*
X113922844Y-108350750D01*
X113918132Y-108354452D01*
X113914201Y-108358982D01*
X113914200Y-108358983D01*
X113784432Y-108508526D01*
X113784428Y-108508531D01*
X113780501Y-108513057D01*
X113675345Y-108694827D01*
X113606458Y-108893202D01*
X113605597Y-108899137D01*
X113605597Y-108899139D01*
X113580959Y-109069067D01*
X113576325Y-109101024D01*
X112281565Y-109101024D01*
X112170490Y-108970972D01*
X111984910Y-108812472D01*
X111776820Y-108684954D01*
X111772250Y-108683061D01*
X111772246Y-108683059D01*
X111555912Y-108593451D01*
X111555906Y-108593449D01*
X111551343Y-108591559D01*
X111546543Y-108590407D01*
X111546538Y-108590405D01*
X111438029Y-108564354D01*
X111314033Y-108534585D01*
X111070731Y-108515437D01*
X110827429Y-108534585D01*
X110703433Y-108564354D01*
X110594924Y-108590405D01*
X110594919Y-108590407D01*
X110590119Y-108591559D01*
X110585556Y-108593449D01*
X110585550Y-108593451D01*
X110369216Y-108683059D01*
X110369212Y-108683061D01*
X110364642Y-108684954D01*
X110156552Y-108812472D01*
X109970972Y-108970972D01*
X109812472Y-109156552D01*
X109684954Y-109364642D01*
X109683061Y-109369212D01*
X109683059Y-109369216D01*
X109593451Y-109585550D01*
X109593449Y-109585556D01*
X109591559Y-109590119D01*
X109590407Y-109594919D01*
X109590405Y-109594924D01*
X109584283Y-109620425D01*
X109534585Y-109827429D01*
X109515437Y-110070731D01*
X105034500Y-110070731D01*
X105034500Y-106317274D01*
X127056176Y-106317274D01*
X127074118Y-106479784D01*
X127130305Y-106633323D01*
X127134541Y-106639626D01*
X127134541Y-106639627D01*
X127217260Y-106762727D01*
X127217263Y-106762730D01*
X127221494Y-106769027D01*
X127342422Y-106879063D01*
X127371010Y-106894585D01*
X127479429Y-106953452D01*
X127479431Y-106953453D01*
X127486106Y-106957077D01*
X127493455Y-106959005D01*
X127636901Y-106996637D01*
X127636903Y-106996637D01*
X127644251Y-106998565D01*
X127727532Y-106999873D01*
X127800129Y-107001014D01*
X127800132Y-107001014D01*
X127807728Y-107001133D01*
X127815133Y-106999437D01*
X127815134Y-106999437D01*
X127959697Y-106966328D01*
X127967098Y-106964633D01*
X128113161Y-106891170D01*
X128213952Y-106805087D01*
X128278740Y-106776058D01*
X128295780Y-106774900D01*
X128894807Y-106774900D01*
X128962928Y-106794902D01*
X128983902Y-106811805D01*
X130289447Y-108117350D01*
X130299301Y-108128439D01*
X130314493Y-108147709D01*
X130320328Y-108155110D01*
X130328075Y-108160465D01*
X130328077Y-108160466D01*
X130350882Y-108176227D01*
X130362073Y-108183961D01*
X130368575Y-108188455D01*
X130371787Y-108190750D01*
X130419016Y-108225634D01*
X130425832Y-108228027D01*
X130431769Y-108232131D01*
X130440749Y-108234971D01*
X130440751Y-108234972D01*
X130460917Y-108241350D01*
X130487719Y-108249826D01*
X130491450Y-108251071D01*
X130537937Y-108267396D01*
X130537939Y-108267396D01*
X130546831Y-108270519D01*
X130554019Y-108270801D01*
X130554078Y-108270812D01*
X130560930Y-108272980D01*
X130567537Y-108273500D01*
X130608202Y-108273500D01*
X130676323Y-108293502D01*
X130693001Y-108306306D01*
X130734934Y-108344462D01*
X130771422Y-108377663D01*
X130778095Y-108381286D01*
X130908429Y-108452052D01*
X130908431Y-108452053D01*
X130915106Y-108455677D01*
X130922455Y-108457605D01*
X131065901Y-108495237D01*
X131065903Y-108495237D01*
X131073251Y-108497165D01*
X131156532Y-108498473D01*
X131229129Y-108499614D01*
X131229132Y-108499614D01*
X131236728Y-108499733D01*
X131244133Y-108498037D01*
X131244134Y-108498037D01*
X131388697Y-108464928D01*
X131396098Y-108463233D01*
X131402882Y-108459821D01*
X131410031Y-108457247D01*
X131410878Y-108459599D01*
X131468870Y-108449024D01*
X131534513Y-108476070D01*
X131575113Y-108534312D01*
X131577678Y-108605662D01*
X131576078Y-108611896D01*
X131573317Y-108618976D01*
X131572325Y-108626511D01*
X131553523Y-108769327D01*
X131551976Y-108781074D01*
X131555443Y-108812472D01*
X131564356Y-108893202D01*
X131569918Y-108943584D01*
X131572527Y-108950715D01*
X131572528Y-108950717D01*
X131614464Y-109065311D01*
X131626105Y-109097123D01*
X131630341Y-109103426D01*
X131630341Y-109103427D01*
X131697275Y-109203035D01*
X131717294Y-109232827D01*
X131722913Y-109237940D01*
X131722914Y-109237941D01*
X131765699Y-109276872D01*
X131802622Y-109337513D01*
X131806900Y-109370066D01*
X131806900Y-109439793D01*
X131814314Y-109462610D01*
X131818928Y-109481829D01*
X131822681Y-109505526D01*
X131827184Y-109514363D01*
X131827184Y-109514364D01*
X131833572Y-109526902D01*
X131841136Y-109545163D01*
X131845485Y-109558547D01*
X131845487Y-109558550D01*
X131848551Y-109567981D01*
X131854380Y-109576004D01*
X131862653Y-109587391D01*
X131872977Y-109604237D01*
X131883872Y-109625620D01*
X133497195Y-111238943D01*
X133531221Y-111301255D01*
X133534100Y-111328038D01*
X133534100Y-111660047D01*
X133514098Y-111728168D01*
X133490930Y-111754996D01*
X133453919Y-111787283D01*
X133359907Y-111921048D01*
X133357147Y-111928128D01*
X133306232Y-112058719D01*
X133300517Y-112073376D01*
X133299526Y-112080903D01*
X133281426Y-112218387D01*
X133279176Y-112235474D01*
X133284051Y-112279627D01*
X133294150Y-112371098D01*
X133297118Y-112397984D01*
X133299727Y-112405115D01*
X133299728Y-112405117D01*
X133340561Y-112516697D01*
X133353305Y-112551523D01*
X133357541Y-112557826D01*
X133357541Y-112557827D01*
X133440260Y-112680927D01*
X133440263Y-112680930D01*
X133444494Y-112687227D01*
X133565422Y-112797263D01*
X133594010Y-112812785D01*
X133702429Y-112871652D01*
X133702431Y-112871653D01*
X133709106Y-112875277D01*
X133716455Y-112877205D01*
X133859901Y-112914837D01*
X133859903Y-112914837D01*
X133867251Y-112916765D01*
X133950532Y-112918073D01*
X134023129Y-112919214D01*
X134023132Y-112919214D01*
X134030728Y-112919333D01*
X134038133Y-112917637D01*
X134038134Y-112917637D01*
X134182697Y-112884528D01*
X134190098Y-112882833D01*
X134336161Y-112809370D01*
X134460485Y-112703188D01*
X134471955Y-112687227D01*
X134551461Y-112576583D01*
X134551462Y-112576582D01*
X134555893Y-112570415D01*
X134616875Y-112418716D01*
X134639912Y-112256850D01*
X134640061Y-112242600D01*
X134638288Y-112227943D01*
X134621331Y-112087827D01*
X134620419Y-112080287D01*
X134613998Y-112063293D01*
X134565311Y-111934448D01*
X134562627Y-111927345D01*
X134512800Y-111854846D01*
X134474323Y-111798862D01*
X134474322Y-111798861D01*
X134470021Y-111792603D01*
X134427281Y-111754523D01*
X134389725Y-111694273D01*
X134385100Y-111660447D01*
X134385100Y-111032207D01*
X134382037Y-111022780D01*
X134382036Y-111022773D01*
X134377687Y-111009388D01*
X134373073Y-110990169D01*
X134370872Y-110976272D01*
X134370870Y-110976265D01*
X134369319Y-110966474D01*
X134358427Y-110945098D01*
X134350864Y-110926837D01*
X134346514Y-110913450D01*
X134343450Y-110904019D01*
X134329349Y-110884611D01*
X134319017Y-110867752D01*
X134312631Y-110855218D01*
X134308128Y-110846380D01*
X132799466Y-109337718D01*
X132765440Y-109275406D01*
X132770505Y-109204591D01*
X132786238Y-109175097D01*
X132824262Y-109122181D01*
X132828693Y-109116015D01*
X132881908Y-108983638D01*
X132886843Y-108971361D01*
X132889675Y-108964316D01*
X132912712Y-108802450D01*
X132912861Y-108788200D01*
X132911088Y-108773543D01*
X132904865Y-108722125D01*
X132893219Y-108625887D01*
X132835427Y-108472945D01*
X132821068Y-108452052D01*
X132747123Y-108344462D01*
X132747122Y-108344461D01*
X132742821Y-108338203D01*
X132724152Y-108321569D01*
X132626419Y-108234493D01*
X132620748Y-108229440D01*
X132613560Y-108225634D01*
X132482966Y-108156488D01*
X132482964Y-108156487D01*
X132476255Y-108152935D01*
X132425185Y-108140107D01*
X132325055Y-108114956D01*
X132325051Y-108114956D01*
X132317684Y-108113105D01*
X132310085Y-108113065D01*
X132310083Y-108113065D01*
X132242053Y-108112709D01*
X132154190Y-108112249D01*
X132146810Y-108114021D01*
X132146808Y-108114021D01*
X132086161Y-108128581D01*
X131995210Y-108150416D01*
X131988462Y-108153899D01*
X131986246Y-108154723D01*
X131915426Y-108159721D01*
X131853145Y-108125637D01*
X131819179Y-108063293D01*
X131820599Y-108004779D01*
X131822875Y-107999116D01*
X131845912Y-107837250D01*
X131846061Y-107823000D01*
X131826419Y-107660687D01*
X131768627Y-107507745D01*
X131676021Y-107373003D01*
X131553948Y-107264240D01*
X131547238Y-107260687D01*
X131416166Y-107191288D01*
X131416164Y-107191287D01*
X131409455Y-107187735D01*
X131358385Y-107174907D01*
X131258255Y-107149756D01*
X131258251Y-107149756D01*
X131250884Y-107147905D01*
X131243285Y-107147865D01*
X131243283Y-107147865D01*
X131175253Y-107147509D01*
X131087390Y-107147049D01*
X131080010Y-107148821D01*
X131080008Y-107148821D01*
X130935789Y-107183444D01*
X130935785Y-107183445D01*
X130928410Y-107185216D01*
X130921669Y-107188695D01*
X130921659Y-107188699D01*
X130814386Y-107244068D01*
X130744679Y-107257538D01*
X130678756Y-107231183D01*
X130667501Y-107221198D01*
X129476353Y-106030050D01*
X129466499Y-106018961D01*
X129451307Y-105999691D01*
X129451305Y-105999689D01*
X129445472Y-105992290D01*
X129437725Y-105986935D01*
X129437723Y-105986934D01*
X129397225Y-105958945D01*
X129394003Y-105956643D01*
X129354358Y-105927360D01*
X129354357Y-105927359D01*
X129346784Y-105921766D01*
X129339968Y-105919373D01*
X129334031Y-105915269D01*
X129325051Y-105912429D01*
X129325049Y-105912428D01*
X129304883Y-105906050D01*
X129278081Y-105897574D01*
X129274350Y-105896329D01*
X129227863Y-105880004D01*
X129227861Y-105880004D01*
X129218969Y-105876881D01*
X129211781Y-105876599D01*
X129211722Y-105876588D01*
X129204870Y-105874420D01*
X129198263Y-105873900D01*
X129145584Y-105873900D01*
X129140637Y-105873803D01*
X129083606Y-105871562D01*
X129076500Y-105873446D01*
X129068253Y-105873900D01*
X128294444Y-105873900D01*
X128226323Y-105853898D01*
X128210625Y-105841976D01*
X128130619Y-105770692D01*
X128130615Y-105770690D01*
X128124948Y-105765640D01*
X128118238Y-105762087D01*
X127987166Y-105692688D01*
X127987164Y-105692687D01*
X127980455Y-105689135D01*
X127929385Y-105676307D01*
X127829255Y-105651156D01*
X127829251Y-105651156D01*
X127821884Y-105649305D01*
X127814285Y-105649265D01*
X127814283Y-105649265D01*
X127746253Y-105648909D01*
X127658390Y-105648449D01*
X127651010Y-105650221D01*
X127651008Y-105650221D01*
X127506789Y-105684844D01*
X127506785Y-105684845D01*
X127499410Y-105686616D01*
X127354124Y-105761604D01*
X127348402Y-105766596D01*
X127348400Y-105766597D01*
X127236644Y-105864088D01*
X127236641Y-105864091D01*
X127230919Y-105869083D01*
X127136907Y-106002848D01*
X127077517Y-106155176D01*
X127056176Y-106317274D01*
X105034500Y-106317274D01*
X105034500Y-89944077D01*
X109995065Y-89944077D01*
X110008722Y-90335157D01*
X110060477Y-90723038D01*
X110149834Y-91104017D01*
X110150823Y-91106923D01*
X110150825Y-91106929D01*
X110274950Y-91471543D01*
X110274955Y-91471555D01*
X110275943Y-91474458D01*
X110437598Y-91830826D01*
X110633258Y-92169717D01*
X110635047Y-92172216D01*
X110635049Y-92172219D01*
X110855553Y-92480216D01*
X110861053Y-92487899D01*
X110863080Y-92490214D01*
X110863082Y-92490217D01*
X111092022Y-92751733D01*
X111118810Y-92782333D01*
X111404069Y-93050208D01*
X111714107Y-93288969D01*
X111716710Y-93290596D01*
X111716715Y-93290599D01*
X111835687Y-93364941D01*
X112045964Y-93496337D01*
X112396472Y-93670331D01*
X112762287Y-93809290D01*
X113139915Y-93911890D01*
X113142958Y-93912405D01*
X113142964Y-93912406D01*
X113522713Y-93976636D01*
X113522720Y-93976637D01*
X113525754Y-93977150D01*
X113528825Y-93977365D01*
X113528827Y-93977365D01*
X113913053Y-94004233D01*
X113913061Y-94004233D01*
X113916119Y-94004447D01*
X114169704Y-93997363D01*
X114304211Y-93993606D01*
X114304214Y-93993606D01*
X114307285Y-93993520D01*
X114310338Y-93993134D01*
X114310342Y-93993134D01*
X114496145Y-93969662D01*
X114695517Y-93944475D01*
X114698521Y-93943793D01*
X114698524Y-93943792D01*
X115074115Y-93858460D01*
X115074121Y-93858458D01*
X115077111Y-93857779D01*
X115222875Y-93809290D01*
X115445500Y-93735233D01*
X115445506Y-93735231D01*
X115448424Y-93734260D01*
X115589551Y-93671426D01*
X115803111Y-93576343D01*
X115803117Y-93576340D01*
X115805911Y-93575096D01*
X115808580Y-93573580D01*
X116143492Y-93383324D01*
X116143498Y-93383320D01*
X116146160Y-93381808D01*
X116465924Y-93156239D01*
X116762150Y-92900544D01*
X116764271Y-92898317D01*
X116764277Y-92898311D01*
X117029894Y-92619385D01*
X117032011Y-92617162D01*
X117131192Y-92490217D01*
X117271021Y-92311244D01*
X117271023Y-92311241D01*
X117272931Y-92308799D01*
X117274587Y-92306189D01*
X117274593Y-92306181D01*
X117480957Y-91981003D01*
X117480959Y-91981000D01*
X117482610Y-91978398D01*
X117495667Y-91952551D01*
X117581476Y-91782675D01*
X117659046Y-91629112D01*
X117800557Y-91264277D01*
X117905790Y-90887374D01*
X117973742Y-90502000D01*
X117986580Y-90335157D01*
X118003613Y-90113789D01*
X118003613Y-90113778D01*
X118003763Y-90111835D01*
X118005325Y-90000000D01*
X118004296Y-89978947D01*
X117986359Y-89612222D01*
X117986209Y-89609149D01*
X117929044Y-89222028D01*
X117834376Y-88842334D01*
X117703107Y-88473689D01*
X117536492Y-88119614D01*
X117507167Y-88070420D01*
X117337700Y-87786138D01*
X117336120Y-87783487D01*
X117103905Y-87468517D01*
X116842061Y-87177711D01*
X116553090Y-86913844D01*
X116239749Y-86679435D01*
X116186075Y-86646929D01*
X115907658Y-86478313D01*
X115907649Y-86478308D01*
X115905030Y-86476722D01*
X115552126Y-86307638D01*
X115549237Y-86306586D01*
X115549231Y-86306584D01*
X115187306Y-86174855D01*
X115187303Y-86174854D01*
X115184407Y-86173800D01*
X114907326Y-86102658D01*
X114808366Y-86077249D01*
X114808363Y-86077248D01*
X114805382Y-86076483D01*
X114418670Y-86016617D01*
X114415613Y-86016446D01*
X114415612Y-86016446D01*
X114385120Y-86014741D01*
X114027962Y-85994773D01*
X114024883Y-85994902D01*
X114024880Y-85994902D01*
X113768770Y-86005636D01*
X113636987Y-86011159D01*
X113633943Y-86011587D01*
X113633941Y-86011587D01*
X113599368Y-86016446D01*
X113249477Y-86065620D01*
X112869131Y-86157636D01*
X112499579Y-86286327D01*
X112496781Y-86287620D01*
X112147146Y-86449174D01*
X112147136Y-86449179D01*
X112144349Y-86450467D01*
X112035829Y-86514135D01*
X111809486Y-86646929D01*
X111809481Y-86646932D01*
X111806831Y-86648487D01*
X111766433Y-86677838D01*
X111492730Y-86876694D01*
X111492721Y-86876701D01*
X111490248Y-86878498D01*
X111487958Y-86880531D01*
X111487952Y-86880536D01*
X111199924Y-87136260D01*
X111197621Y-87138305D01*
X110931743Y-87425427D01*
X110695152Y-87737124D01*
X110490107Y-88070420D01*
X110318564Y-88422135D01*
X110182162Y-88788910D01*
X110082201Y-89167246D01*
X110019637Y-89553531D01*
X110019443Y-89556611D01*
X110019443Y-89556613D01*
X109995281Y-89940651D01*
X109995065Y-89944077D01*
X105034500Y-89944077D01*
X105034500Y-81932454D01*
X125809599Y-81932454D01*
X125811031Y-81940919D01*
X125811031Y-81940928D01*
X125812735Y-81951000D01*
X125814500Y-81972013D01*
X125814500Y-96886007D01*
X125814389Y-96891283D01*
X125811790Y-96953294D01*
X125813752Y-96961659D01*
X125821727Y-96995662D01*
X125823890Y-97007333D01*
X125829794Y-97050432D01*
X125833206Y-97058316D01*
X125833206Y-97058317D01*
X125835765Y-97064230D01*
X125842799Y-97085499D01*
X125846232Y-97100136D01*
X125850369Y-97107661D01*
X125850370Y-97107664D01*
X125867195Y-97138268D01*
X125872411Y-97148913D01*
X125889695Y-97188855D01*
X125899158Y-97200541D01*
X125911645Y-97219125D01*
X125918893Y-97232308D01*
X125925897Y-97240422D01*
X125950433Y-97264958D01*
X125959258Y-97274759D01*
X125979206Y-97299392D01*
X125984614Y-97306070D01*
X125991612Y-97311043D01*
X125991617Y-97311048D01*
X125999948Y-97316968D01*
X126016054Y-97330579D01*
X142922595Y-114237120D01*
X142956621Y-114299432D01*
X142959500Y-114326215D01*
X142959500Y-115416785D01*
X142939498Y-115484906D01*
X142922595Y-115505880D01*
X140751321Y-117677155D01*
X138627134Y-119801342D01*
X138564822Y-119835368D01*
X138494007Y-119830303D01*
X138448944Y-119801342D01*
X138356916Y-119709314D01*
X138353986Y-119707007D01*
X138353980Y-119707002D01*
X138343612Y-119698840D01*
X138336185Y-119692993D01*
X138323090Y-119687953D01*
X138242564Y-119656961D01*
X138242562Y-119656961D01*
X138231710Y-119652784D01*
X138220079Y-119652794D01*
X138175982Y-119652832D01*
X138119765Y-119652881D01*
X138108920Y-119657077D01*
X138108918Y-119657077D01*
X138024194Y-119689854D01*
X138024192Y-119689855D01*
X138015360Y-119693272D01*
X138007932Y-119699149D01*
X138007930Y-119699150D01*
X137998378Y-119706708D01*
X137995084Y-119709314D01*
X136854314Y-120850084D01*
X136852007Y-120853014D01*
X136852002Y-120853020D01*
X136848140Y-120857926D01*
X136837993Y-120870815D01*
X136834598Y-120879636D01*
X136802161Y-120963918D01*
X136797784Y-120975290D01*
X136797881Y-121087235D01*
X136838272Y-121191640D01*
X136854314Y-121211916D01*
X137995084Y-122352686D01*
X137998014Y-122354993D01*
X137998020Y-122354998D01*
X138007994Y-122362850D01*
X138015815Y-122369007D01*
X138024636Y-122372402D01*
X138109436Y-122405039D01*
X138109438Y-122405039D01*
X138120290Y-122409216D01*
X138131921Y-122409206D01*
X138176018Y-122409168D01*
X138232235Y-122409119D01*
X138243080Y-122404923D01*
X138243082Y-122404923D01*
X138327806Y-122372146D01*
X138327808Y-122372145D01*
X138336640Y-122368728D01*
X138344068Y-122362851D01*
X138344070Y-122362850D01*
X138354038Y-122354963D01*
X138356916Y-122352686D01*
X139497686Y-121211916D01*
X139499993Y-121208986D01*
X139499998Y-121208980D01*
X139508160Y-121198612D01*
X139514007Y-121191185D01*
X139517402Y-121182364D01*
X139550039Y-121097564D01*
X139550039Y-121097562D01*
X139554216Y-121086710D01*
X139554119Y-120974765D01*
X139547549Y-120957782D01*
X139517146Y-120879194D01*
X139517145Y-120879192D01*
X139513728Y-120870360D01*
X139503891Y-120857926D01*
X139499963Y-120852962D01*
X139497686Y-120850084D01*
X139405658Y-120758056D01*
X139371632Y-120695744D01*
X139376697Y-120624929D01*
X139405658Y-120579866D01*
X141882650Y-118102874D01*
X159339576Y-118102874D01*
X159357518Y-118265384D01*
X159360127Y-118272515D01*
X159360128Y-118272517D01*
X159403609Y-118391333D01*
X159413705Y-118418923D01*
X159417941Y-118425226D01*
X159417941Y-118425227D01*
X159500660Y-118548327D01*
X159500663Y-118548330D01*
X159504894Y-118554627D01*
X159625822Y-118664663D01*
X159632497Y-118668287D01*
X159762829Y-118739052D01*
X159762831Y-118739053D01*
X159769506Y-118742677D01*
X159776855Y-118744605D01*
X159920301Y-118782237D01*
X159920303Y-118782237D01*
X159927651Y-118784165D01*
X160079938Y-118786557D01*
X160147735Y-118807626D01*
X160167053Y-118823446D01*
X160648091Y-119304484D01*
X160648095Y-119304487D01*
X160670658Y-119327050D01*
X160679497Y-119331554D01*
X160679499Y-119331555D01*
X160690258Y-119337037D01*
X160707114Y-119347365D01*
X160724911Y-119360296D01*
X160745832Y-119367094D01*
X160764092Y-119374658D01*
X160774859Y-119380144D01*
X160774863Y-119380145D01*
X160783696Y-119384646D01*
X160793487Y-119386197D01*
X160793488Y-119386197D01*
X160805422Y-119388087D01*
X160824647Y-119392703D01*
X160836132Y-119396435D01*
X160836136Y-119396436D01*
X160845567Y-119399500D01*
X163474322Y-119399500D01*
X163542443Y-119419502D01*
X163567022Y-119440842D01*
X163568894Y-119443627D01*
X163689822Y-119553663D01*
X163712461Y-119565955D01*
X163826829Y-119628052D01*
X163826831Y-119628053D01*
X163833506Y-119631677D01*
X163840855Y-119633605D01*
X163984301Y-119671237D01*
X163984303Y-119671237D01*
X163991651Y-119673165D01*
X164074932Y-119674473D01*
X164147529Y-119675614D01*
X164147532Y-119675614D01*
X164155128Y-119675733D01*
X164162533Y-119674037D01*
X164162534Y-119674037D01*
X164307097Y-119640928D01*
X164314498Y-119639233D01*
X164460561Y-119565770D01*
X164564730Y-119476802D01*
X164579106Y-119464524D01*
X164579107Y-119464523D01*
X164584885Y-119459588D01*
X164592685Y-119448734D01*
X164675861Y-119332983D01*
X164675862Y-119332982D01*
X164680293Y-119326815D01*
X164741275Y-119175116D01*
X164764312Y-119013250D01*
X164764461Y-118999000D01*
X164744819Y-118836687D01*
X164687027Y-118683745D01*
X164670400Y-118659553D01*
X164598723Y-118555262D01*
X164598722Y-118555261D01*
X164594421Y-118549003D01*
X164472348Y-118440240D01*
X164465638Y-118436687D01*
X164334566Y-118367288D01*
X164334564Y-118367287D01*
X164327855Y-118363735D01*
X164276785Y-118350907D01*
X164176655Y-118325756D01*
X164176651Y-118325756D01*
X164169284Y-118323905D01*
X164161685Y-118323865D01*
X164161683Y-118323865D01*
X164093653Y-118323509D01*
X164005790Y-118323049D01*
X163998410Y-118324821D01*
X163998408Y-118324821D01*
X163854189Y-118359444D01*
X163854185Y-118359445D01*
X163846810Y-118361216D01*
X163701524Y-118436204D01*
X163695802Y-118441196D01*
X163695800Y-118441197D01*
X163584044Y-118538688D01*
X163584041Y-118538691D01*
X163578319Y-118543683D01*
X163573953Y-118549896D01*
X163568867Y-118555544D01*
X163566641Y-118553540D01*
X163521904Y-118589178D01*
X163474341Y-118598500D01*
X161127083Y-118598500D01*
X161058962Y-118578498D01*
X161037988Y-118561595D01*
X160732413Y-118256020D01*
X160698387Y-118193708D01*
X160696765Y-118149170D01*
X160699732Y-118128328D01*
X160699732Y-118128322D01*
X160700312Y-118124250D01*
X160700461Y-118110000D01*
X160698688Y-118095343D01*
X160681731Y-117955227D01*
X160680819Y-117947687D01*
X160623027Y-117794745D01*
X160614427Y-117782232D01*
X160534723Y-117666262D01*
X160534722Y-117666261D01*
X160530421Y-117660003D01*
X160408348Y-117551240D01*
X160401638Y-117547687D01*
X160270566Y-117478288D01*
X160270564Y-117478287D01*
X160263855Y-117474735D01*
X160172280Y-117451733D01*
X160112655Y-117436756D01*
X160112651Y-117436756D01*
X160105284Y-117434905D01*
X160097685Y-117434865D01*
X160097683Y-117434865D01*
X160029653Y-117434509D01*
X159941790Y-117434049D01*
X159934410Y-117435821D01*
X159934408Y-117435821D01*
X159790189Y-117470444D01*
X159790185Y-117470445D01*
X159782810Y-117472216D01*
X159637524Y-117547204D01*
X159631802Y-117552196D01*
X159631800Y-117552197D01*
X159520044Y-117649688D01*
X159520041Y-117649691D01*
X159514319Y-117654683D01*
X159420307Y-117788448D01*
X159360917Y-117940776D01*
X159339576Y-118102874D01*
X141882650Y-118102874D01*
X143888642Y-116096882D01*
X143892451Y-116093229D01*
X143931833Y-116057015D01*
X143938156Y-116051201D01*
X143957190Y-116020503D01*
X143961087Y-116014217D01*
X143967801Y-116004447D01*
X143994112Y-115969784D01*
X143999649Y-115955799D01*
X144009713Y-115935791D01*
X144013108Y-115930315D01*
X144017635Y-115923014D01*
X144020142Y-115914387D01*
X144029773Y-115881235D01*
X144033613Y-115870015D01*
X144049636Y-115829547D01*
X144051208Y-115814592D01*
X144055520Y-115792617D01*
X144059715Y-115778175D01*
X144060500Y-115767485D01*
X144060500Y-115732783D01*
X144061190Y-115719613D01*
X144064503Y-115688088D01*
X144065401Y-115679546D01*
X144063969Y-115671081D01*
X144063969Y-115671072D01*
X144062265Y-115661000D01*
X144060500Y-115639987D01*
X144060500Y-115181874D01*
X151592576Y-115181874D01*
X151595767Y-115210774D01*
X151608958Y-115330250D01*
X151610518Y-115344384D01*
X151613127Y-115351515D01*
X151613128Y-115351517D01*
X151658764Y-115476222D01*
X151666705Y-115497923D01*
X151670941Y-115504226D01*
X151670941Y-115504227D01*
X151753660Y-115627327D01*
X151753663Y-115627330D01*
X151757894Y-115633627D01*
X151787977Y-115661000D01*
X151872390Y-115737810D01*
X151878822Y-115743663D01*
X151907410Y-115759185D01*
X152015829Y-115818052D01*
X152015831Y-115818053D01*
X152022506Y-115821677D01*
X152029855Y-115823605D01*
X152173301Y-115861237D01*
X152173303Y-115861237D01*
X152180651Y-115863165D01*
X152263932Y-115864473D01*
X152336529Y-115865614D01*
X152336532Y-115865614D01*
X152344128Y-115865733D01*
X152351533Y-115864037D01*
X152351534Y-115864037D01*
X152496097Y-115830928D01*
X152503498Y-115829233D01*
X152649561Y-115755770D01*
X152750352Y-115669687D01*
X152815140Y-115640658D01*
X152832180Y-115639500D01*
X159864363Y-115639500D01*
X159932484Y-115659502D01*
X159968945Y-115695224D01*
X160008660Y-115754327D01*
X160008663Y-115754330D01*
X160012894Y-115760627D01*
X160079249Y-115821005D01*
X160125713Y-115863284D01*
X160133822Y-115870663D01*
X160159758Y-115884745D01*
X160270829Y-115945052D01*
X160270831Y-115945053D01*
X160277506Y-115948677D01*
X160284855Y-115950605D01*
X160428301Y-115988237D01*
X160428303Y-115988237D01*
X160435651Y-115990165D01*
X160518932Y-115991473D01*
X160591529Y-115992614D01*
X160591532Y-115992614D01*
X160599128Y-115992733D01*
X160606533Y-115991037D01*
X160606534Y-115991037D01*
X160751097Y-115957928D01*
X160758498Y-115956233D01*
X160904561Y-115882770D01*
X161028885Y-115776588D01*
X161033769Y-115769792D01*
X161119861Y-115649983D01*
X161119862Y-115649982D01*
X161124293Y-115643815D01*
X161185275Y-115492116D01*
X161208312Y-115330250D01*
X161208461Y-115316000D01*
X161205402Y-115290716D01*
X161193175Y-115189683D01*
X161188819Y-115153687D01*
X161131027Y-115000745D01*
X161112442Y-114973704D01*
X161042723Y-114872262D01*
X161042722Y-114872261D01*
X161038421Y-114866003D01*
X160916348Y-114757240D01*
X160883593Y-114739897D01*
X160778566Y-114684288D01*
X160778564Y-114684287D01*
X160771855Y-114680735D01*
X160720785Y-114667907D01*
X160620655Y-114642756D01*
X160620651Y-114642756D01*
X160613284Y-114640905D01*
X160605685Y-114640865D01*
X160605683Y-114640865D01*
X160537653Y-114640509D01*
X160449790Y-114640049D01*
X160442410Y-114641821D01*
X160442408Y-114641821D01*
X160298189Y-114676444D01*
X160298185Y-114676445D01*
X160290810Y-114678216D01*
X160284065Y-114681697D01*
X160284066Y-114681697D01*
X160201202Y-114724466D01*
X160143412Y-114738500D01*
X152830844Y-114738500D01*
X152762723Y-114718498D01*
X152747025Y-114706576D01*
X152667019Y-114635292D01*
X152667015Y-114635290D01*
X152661348Y-114630240D01*
X152654638Y-114626687D01*
X152523566Y-114557288D01*
X152523564Y-114557287D01*
X152516855Y-114553735D01*
X152465785Y-114540907D01*
X152365655Y-114515756D01*
X152365651Y-114515756D01*
X152358284Y-114513905D01*
X152350685Y-114513865D01*
X152350683Y-114513865D01*
X152282653Y-114513509D01*
X152194790Y-114513049D01*
X152187410Y-114514821D01*
X152187408Y-114514821D01*
X152043189Y-114549444D01*
X152043185Y-114549445D01*
X152035810Y-114551216D01*
X151890524Y-114626204D01*
X151884802Y-114631196D01*
X151884800Y-114631197D01*
X151773044Y-114728688D01*
X151773041Y-114728691D01*
X151767319Y-114733683D01*
X151673307Y-114867448D01*
X151613917Y-115019776D01*
X151612926Y-115027303D01*
X151604111Y-115094262D01*
X151592576Y-115181874D01*
X144060500Y-115181874D01*
X144060500Y-114060993D01*
X144060611Y-114055717D01*
X144062850Y-114002291D01*
X144063210Y-113993706D01*
X144053274Y-113951341D01*
X144051111Y-113939672D01*
X144046372Y-113905077D01*
X144046371Y-113905075D01*
X144045206Y-113896568D01*
X144039237Y-113882774D01*
X144032205Y-113861510D01*
X144030733Y-113855233D01*
X144030730Y-113855226D01*
X144028769Y-113846864D01*
X144007802Y-113808726D01*
X144002580Y-113798066D01*
X143985305Y-113758145D01*
X143975843Y-113746460D01*
X143963355Y-113727876D01*
X143956107Y-113714693D01*
X143949103Y-113706578D01*
X143924567Y-113682042D01*
X143915742Y-113672241D01*
X143895794Y-113647608D01*
X143895793Y-113647607D01*
X143890386Y-113640930D01*
X143883388Y-113635957D01*
X143883383Y-113635952D01*
X143875052Y-113630032D01*
X143858946Y-113616421D01*
X140478525Y-110236000D01*
X162682396Y-110236000D01*
X162702779Y-110494994D01*
X162703933Y-110499801D01*
X162703934Y-110499807D01*
X162716307Y-110551343D01*
X162763427Y-110747610D01*
X162765320Y-110752181D01*
X162765321Y-110752183D01*
X162854084Y-110966474D01*
X162862846Y-110987628D01*
X162998588Y-111209140D01*
X163167311Y-111406689D01*
X163364860Y-111575412D01*
X163586372Y-111711154D01*
X163590942Y-111713047D01*
X163590946Y-111713049D01*
X163798117Y-111798862D01*
X163826390Y-111810573D01*
X163914724Y-111831780D01*
X164074193Y-111870066D01*
X164074199Y-111870067D01*
X164079006Y-111871221D01*
X164169191Y-111878319D01*
X164270690Y-111886307D01*
X164270699Y-111886307D01*
X164273147Y-111886500D01*
X164402853Y-111886500D01*
X164405301Y-111886307D01*
X164405310Y-111886307D01*
X164506809Y-111878319D01*
X164596994Y-111871221D01*
X164601801Y-111870067D01*
X164601807Y-111870066D01*
X164761276Y-111831780D01*
X164849610Y-111810573D01*
X164877883Y-111798862D01*
X165085054Y-111713049D01*
X165085058Y-111713047D01*
X165089628Y-111711154D01*
X165311140Y-111575412D01*
X165508689Y-111406689D01*
X165677412Y-111209140D01*
X165813154Y-110987628D01*
X165821917Y-110966474D01*
X165910679Y-110752183D01*
X165910680Y-110752181D01*
X165912573Y-110747610D01*
X165959693Y-110551343D01*
X165972066Y-110499807D01*
X165972067Y-110499801D01*
X165973221Y-110494994D01*
X165993604Y-110236000D01*
X165973221Y-109977006D01*
X165972067Y-109972199D01*
X165972066Y-109972193D01*
X165913728Y-109729202D01*
X165912573Y-109724390D01*
X165902741Y-109700654D01*
X165815049Y-109488946D01*
X165815047Y-109488942D01*
X165813154Y-109484372D01*
X165677412Y-109262860D01*
X165508689Y-109065311D01*
X165311140Y-108896588D01*
X165089628Y-108760846D01*
X165085058Y-108758953D01*
X165085054Y-108758951D01*
X164854183Y-108663321D01*
X164854181Y-108663320D01*
X164849610Y-108661427D01*
X164760040Y-108639923D01*
X164601807Y-108601934D01*
X164601801Y-108601933D01*
X164596994Y-108600779D01*
X164503882Y-108593451D01*
X164405310Y-108585693D01*
X164405301Y-108585693D01*
X164402853Y-108585500D01*
X164273147Y-108585500D01*
X164270699Y-108585693D01*
X164270690Y-108585693D01*
X164172118Y-108593451D01*
X164079006Y-108600779D01*
X164074199Y-108601933D01*
X164074193Y-108601934D01*
X163915960Y-108639923D01*
X163826390Y-108661427D01*
X163821819Y-108663320D01*
X163821817Y-108663321D01*
X163590946Y-108758951D01*
X163590942Y-108758953D01*
X163586372Y-108760846D01*
X163364860Y-108896588D01*
X163167311Y-109065311D01*
X162998588Y-109262860D01*
X162862846Y-109484372D01*
X162860953Y-109488942D01*
X162860951Y-109488946D01*
X162773259Y-109700654D01*
X162763427Y-109724390D01*
X162762272Y-109729202D01*
X162703934Y-109972193D01*
X162703933Y-109972199D01*
X162702779Y-109977006D01*
X162682396Y-110236000D01*
X140478525Y-110236000D01*
X126952405Y-96709881D01*
X126918379Y-96647569D01*
X126915500Y-96620786D01*
X126915500Y-92067874D01*
X128224576Y-92067874D01*
X128242518Y-92230384D01*
X128245127Y-92237515D01*
X128245128Y-92237517D01*
X128287183Y-92352437D01*
X128298705Y-92383923D01*
X128302941Y-92390226D01*
X128302941Y-92390227D01*
X128385660Y-92513327D01*
X128385663Y-92513330D01*
X128389894Y-92519627D01*
X128395508Y-92524735D01*
X128499527Y-92619385D01*
X128510822Y-92629663D01*
X128517497Y-92633287D01*
X128647829Y-92704052D01*
X128647831Y-92704053D01*
X128654506Y-92707677D01*
X128661855Y-92709605D01*
X128805301Y-92747237D01*
X128805303Y-92747237D01*
X128812651Y-92749165D01*
X128895932Y-92750473D01*
X128968529Y-92751614D01*
X128968532Y-92751614D01*
X128976128Y-92751733D01*
X128983533Y-92750037D01*
X128983534Y-92750037D01*
X129128097Y-92716928D01*
X129135498Y-92715233D01*
X129187783Y-92688936D01*
X129244398Y-92675500D01*
X132744275Y-92675500D01*
X132812396Y-92695502D01*
X132833370Y-92712405D01*
X138815436Y-98694471D01*
X138822603Y-98702643D01*
X138824592Y-98704632D01*
X138829618Y-98711182D01*
X138836168Y-98716208D01*
X138838157Y-98718197D01*
X138846329Y-98725364D01*
X139717480Y-99596515D01*
X139751506Y-99658827D01*
X139746441Y-99729642D01*
X139717480Y-99774705D01*
X139417781Y-100074404D01*
X139355469Y-100108430D01*
X139328026Y-100111307D01*
X139316990Y-100111249D01*
X139309610Y-100113021D01*
X139309608Y-100113021D01*
X139165389Y-100147644D01*
X139165385Y-100147645D01*
X139158010Y-100149416D01*
X139012724Y-100224404D01*
X139007002Y-100229396D01*
X139007000Y-100229397D01*
X138895244Y-100326888D01*
X138895241Y-100326891D01*
X138889519Y-100331883D01*
X138795507Y-100465648D01*
X138736117Y-100617976D01*
X138714776Y-100780074D01*
X138732718Y-100942584D01*
X138735327Y-100949715D01*
X138735328Y-100949717D01*
X138765855Y-101033135D01*
X138788905Y-101096123D01*
X138793141Y-101102426D01*
X138793141Y-101102427D01*
X138875860Y-101225527D01*
X138875863Y-101225530D01*
X138880094Y-101231827D01*
X139001022Y-101341863D01*
X139029610Y-101357385D01*
X139138029Y-101416252D01*
X139138031Y-101416253D01*
X139144706Y-101419877D01*
X139152055Y-101421805D01*
X139295501Y-101459437D01*
X139295503Y-101459437D01*
X139302851Y-101461365D01*
X139386132Y-101462673D01*
X139458729Y-101463814D01*
X139458732Y-101463814D01*
X139466328Y-101463933D01*
X139473733Y-101462237D01*
X139473734Y-101462237D01*
X139618297Y-101429128D01*
X139625698Y-101427433D01*
X139771761Y-101353970D01*
X139896085Y-101247788D01*
X139907555Y-101231827D01*
X139987061Y-101121183D01*
X139987062Y-101121182D01*
X139991493Y-101115015D01*
X140052475Y-100963316D01*
X140064469Y-100879040D01*
X140093870Y-100814417D01*
X140100117Y-100807698D01*
X140425295Y-100482520D01*
X140487607Y-100448494D01*
X140558422Y-100453559D01*
X140603485Y-100482520D01*
X148525666Y-108404701D01*
X148559692Y-108467013D01*
X148561487Y-108477992D01*
X148561684Y-108478834D01*
X148562518Y-108486384D01*
X148565127Y-108493515D01*
X148565128Y-108493517D01*
X148613569Y-108625887D01*
X148618705Y-108639923D01*
X148622941Y-108646226D01*
X148622941Y-108646227D01*
X148705660Y-108769327D01*
X148705663Y-108769330D01*
X148709894Y-108775627D01*
X148830822Y-108885663D01*
X148859410Y-108901185D01*
X148967829Y-108960052D01*
X148967831Y-108960053D01*
X148974506Y-108963677D01*
X148981855Y-108965605D01*
X149125301Y-109003237D01*
X149125303Y-109003237D01*
X149132651Y-109005165D01*
X149215932Y-109006473D01*
X149288529Y-109007614D01*
X149288532Y-109007614D01*
X149296128Y-109007733D01*
X149303533Y-109006037D01*
X149303534Y-109006037D01*
X149448097Y-108972928D01*
X149455498Y-108971233D01*
X149601561Y-108897770D01*
X149674709Y-108835296D01*
X149720106Y-108796524D01*
X149720107Y-108796523D01*
X149725885Y-108791588D01*
X149733441Y-108781074D01*
X149816861Y-108664983D01*
X149816862Y-108664982D01*
X149821293Y-108658815D01*
X149882275Y-108507116D01*
X149905312Y-108345250D01*
X149905461Y-108331000D01*
X149885819Y-108168687D01*
X149828027Y-108015745D01*
X149816598Y-107999116D01*
X149739723Y-107887262D01*
X149739722Y-107887261D01*
X149735421Y-107881003D01*
X149688394Y-107839103D01*
X149619019Y-107777293D01*
X149613348Y-107772240D01*
X149584025Y-107756714D01*
X149553890Y-107734455D01*
X140193830Y-98374395D01*
X140159804Y-98312083D01*
X140164869Y-98241268D01*
X140193830Y-98196205D01*
X144272709Y-94117326D01*
X144318531Y-94088245D01*
X144324698Y-94086833D01*
X144331481Y-94083421D01*
X144331485Y-94083420D01*
X144397024Y-94050456D01*
X144470761Y-94013370D01*
X144552227Y-93943792D01*
X144589306Y-93912124D01*
X144589307Y-93912123D01*
X144595085Y-93907188D01*
X144630590Y-93857779D01*
X144686061Y-93780583D01*
X144686062Y-93780582D01*
X144690493Y-93774415D01*
X144751475Y-93622716D01*
X144774512Y-93460850D01*
X144774661Y-93446600D01*
X144755019Y-93284287D01*
X144697227Y-93131345D01*
X144604621Y-92996603D01*
X144482548Y-92887840D01*
X144475838Y-92884287D01*
X144344766Y-92814888D01*
X144344764Y-92814887D01*
X144338055Y-92811335D01*
X144286985Y-92798507D01*
X144186855Y-92773356D01*
X144186851Y-92773356D01*
X144179484Y-92771505D01*
X144171885Y-92771465D01*
X144171883Y-92771465D01*
X144103853Y-92771109D01*
X144015990Y-92770649D01*
X144008610Y-92772421D01*
X144008608Y-92772421D01*
X143864389Y-92807044D01*
X143864385Y-92807045D01*
X143857010Y-92808816D01*
X143711724Y-92883804D01*
X143706002Y-92888796D01*
X143706000Y-92888797D01*
X143594244Y-92986288D01*
X143594241Y-92986291D01*
X143588519Y-92991283D01*
X143494507Y-93125048D01*
X143491746Y-93132130D01*
X143458094Y-93218443D01*
X143429796Y-93261769D01*
X139344595Y-97346970D01*
X139282283Y-97380996D01*
X139211468Y-97375931D01*
X139166405Y-97346970D01*
X133503497Y-91684062D01*
X133492629Y-91671671D01*
X133478505Y-91653264D01*
X133473482Y-91646718D01*
X133446348Y-91625897D01*
X133354592Y-91555491D01*
X133348041Y-91550464D01*
X133201962Y-91489956D01*
X133084561Y-91474500D01*
X133045200Y-91469318D01*
X133037012Y-91470396D01*
X133014027Y-91473422D01*
X132997581Y-91474500D01*
X129245814Y-91474500D01*
X129186855Y-91459854D01*
X129155572Y-91443291D01*
X129155569Y-91443290D01*
X129148855Y-91439735D01*
X129097785Y-91426907D01*
X128997655Y-91401756D01*
X128997651Y-91401756D01*
X128990284Y-91399905D01*
X128982685Y-91399865D01*
X128982683Y-91399865D01*
X128914653Y-91399509D01*
X128826790Y-91399049D01*
X128819410Y-91400821D01*
X128819408Y-91400821D01*
X128675189Y-91435444D01*
X128675185Y-91435445D01*
X128667810Y-91437216D01*
X128595655Y-91474458D01*
X128565629Y-91489956D01*
X128522524Y-91512204D01*
X128516802Y-91517196D01*
X128516800Y-91517197D01*
X128405044Y-91614688D01*
X128405041Y-91614691D01*
X128399319Y-91619683D01*
X128305307Y-91753448D01*
X128245917Y-91905776D01*
X128244926Y-91913303D01*
X128240130Y-91949735D01*
X128224576Y-92067874D01*
X126915500Y-92067874D01*
X126915500Y-82195215D01*
X126935502Y-82127094D01*
X126952405Y-82106120D01*
X135252642Y-73805882D01*
X135256451Y-73802229D01*
X135295833Y-73766015D01*
X135302156Y-73760201D01*
X135308438Y-73750070D01*
X135325087Y-73723217D01*
X135331801Y-73713447D01*
X135358112Y-73678784D01*
X135363646Y-73664807D01*
X135373709Y-73644798D01*
X135377111Y-73639312D01*
X135377113Y-73639308D01*
X135381635Y-73632014D01*
X135384029Y-73623772D01*
X135384031Y-73623769D01*
X135393779Y-73590216D01*
X135397618Y-73579003D01*
X135413635Y-73538547D01*
X135415206Y-73523598D01*
X135419519Y-73501615D01*
X135421873Y-73493514D01*
X135423715Y-73487175D01*
X135424500Y-73476485D01*
X135424500Y-73441781D01*
X135425190Y-73428610D01*
X135428503Y-73397088D01*
X135429401Y-73388546D01*
X135427969Y-73380081D01*
X135427969Y-73380072D01*
X135426265Y-73370000D01*
X135424500Y-73348987D01*
X135424500Y-71134993D01*
X135424611Y-71129717D01*
X135424796Y-71125310D01*
X135427210Y-71067706D01*
X135425248Y-71059341D01*
X135419992Y-71036930D01*
X147995322Y-71036930D01*
X148024473Y-71203954D01*
X148092621Y-71359202D01*
X148172022Y-71462678D01*
X148174943Y-71465599D01*
X154278795Y-77569452D01*
X154312821Y-77631764D01*
X154315700Y-77658547D01*
X154315700Y-83299853D01*
X154295698Y-83367974D01*
X154278795Y-83388948D01*
X153180977Y-84486766D01*
X153180510Y-84487232D01*
X153116990Y-84550090D01*
X153113023Y-84556564D01*
X153113021Y-84556566D01*
X153097595Y-84581739D01*
X153089318Y-84593648D01*
X153071104Y-84616877D01*
X153071101Y-84616881D01*
X153066416Y-84622857D01*
X153052924Y-84652738D01*
X153045529Y-84666705D01*
X153028402Y-84694654D01*
X153017118Y-84730013D01*
X153011919Y-84743556D01*
X152996645Y-84777384D01*
X152995261Y-84784851D01*
X152990673Y-84809605D01*
X152986818Y-84824952D01*
X152976854Y-84856175D01*
X152976337Y-84863755D01*
X152976337Y-84863756D01*
X152974329Y-84893210D01*
X152972511Y-84907599D01*
X152965748Y-84944092D01*
X152966185Y-84951674D01*
X152967634Y-84976809D01*
X152967551Y-84992629D01*
X152966014Y-85015183D01*
X152965322Y-85025330D01*
X152966627Y-85032806D01*
X152966627Y-85032811D01*
X152971703Y-85061895D01*
X152973370Y-85076303D01*
X152975507Y-85113359D01*
X152985148Y-85144698D01*
X152988838Y-85160068D01*
X152994473Y-85192354D01*
X153009393Y-85226343D01*
X153014445Y-85239929D01*
X153025361Y-85275411D01*
X153029260Y-85281926D01*
X153042192Y-85303534D01*
X153049445Y-85317586D01*
X153062621Y-85347602D01*
X153067241Y-85353623D01*
X153067243Y-85353626D01*
X153085219Y-85377052D01*
X153093370Y-85389046D01*
X153112431Y-85420895D01*
X153117773Y-85426293D01*
X153117775Y-85426296D01*
X153130060Y-85438710D01*
X153140364Y-85449123D01*
X153141256Y-85450080D01*
X153142022Y-85451078D01*
X153168271Y-85477327D01*
X153168737Y-85477794D01*
X153231690Y-85541410D01*
X153233007Y-85542217D01*
X153234420Y-85543476D01*
X154463671Y-86772727D01*
X154464137Y-86773194D01*
X154527090Y-86836810D01*
X154533569Y-86840780D01*
X154558739Y-86856204D01*
X154570652Y-86864484D01*
X154593878Y-86882696D01*
X154593884Y-86882700D01*
X154599857Y-86887383D01*
X154629726Y-86900869D01*
X154643701Y-86908268D01*
X154671654Y-86925398D01*
X154707023Y-86936686D01*
X154720553Y-86941880D01*
X154747462Y-86954030D01*
X154747465Y-86954031D01*
X154754384Y-86957155D01*
X154773144Y-86960632D01*
X154786605Y-86963127D01*
X154801953Y-86966982D01*
X154825936Y-86974636D01*
X154825937Y-86974636D01*
X154833175Y-86976946D01*
X154840755Y-86977463D01*
X154840756Y-86977463D01*
X154870210Y-86979471D01*
X154884599Y-86981289D01*
X154913622Y-86986668D01*
X154913626Y-86986668D01*
X154921092Y-86988052D01*
X154928674Y-86987615D01*
X154939066Y-86987016D01*
X154953810Y-86986166D01*
X154969629Y-86986249D01*
X154994753Y-86987962D01*
X154994757Y-86987962D01*
X155002330Y-86988478D01*
X155009806Y-86987173D01*
X155009811Y-86987173D01*
X155038895Y-86982097D01*
X155053303Y-86980430D01*
X155082771Y-86978731D01*
X155082775Y-86978730D01*
X155090359Y-86978293D01*
X155121698Y-86968652D01*
X155137069Y-86964962D01*
X155169354Y-86959327D01*
X155203343Y-86944407D01*
X155216929Y-86939355D01*
X155245153Y-86930672D01*
X155245154Y-86930672D01*
X155252411Y-86928439D01*
X155280535Y-86911608D01*
X155294586Y-86904355D01*
X155324602Y-86891179D01*
X155330623Y-86886559D01*
X155330626Y-86886557D01*
X155354052Y-86868581D01*
X155366049Y-86860428D01*
X155397895Y-86841369D01*
X155403293Y-86836027D01*
X155403296Y-86836025D01*
X155415710Y-86823740D01*
X155426123Y-86813436D01*
X155427080Y-86812544D01*
X155428078Y-86811778D01*
X155454327Y-86785529D01*
X155454794Y-86785063D01*
X155515313Y-86725175D01*
X155515315Y-86725173D01*
X155518410Y-86722110D01*
X155519217Y-86720793D01*
X155520476Y-86719380D01*
X156615651Y-85624205D01*
X156677963Y-85590179D01*
X156704746Y-85587300D01*
X163894054Y-85587300D01*
X163962175Y-85607302D01*
X163983149Y-85624205D01*
X168248795Y-89889852D01*
X168282821Y-89952164D01*
X168285700Y-89978947D01*
X168285700Y-91097653D01*
X168265698Y-91165774D01*
X168248795Y-91186748D01*
X168181333Y-91254210D01*
X168168942Y-91265077D01*
X168119700Y-91302862D01*
X168114381Y-91306727D01*
X168062349Y-91342488D01*
X168057292Y-91348164D01*
X168021400Y-91388448D01*
X168016419Y-91393724D01*
X158377008Y-101033135D01*
X158374666Y-101036122D01*
X158374665Y-101036123D01*
X158307970Y-101121183D01*
X158298816Y-101132857D01*
X158229045Y-101287384D01*
X158198148Y-101454092D01*
X158198585Y-101461672D01*
X158198585Y-101461673D01*
X158198715Y-101463933D01*
X158207907Y-101623359D01*
X158257761Y-101785411D01*
X158344831Y-101930895D01*
X158350168Y-101936288D01*
X158350171Y-101936292D01*
X158405610Y-101992314D01*
X158464090Y-102051410D01*
X158608654Y-102139998D01*
X158694921Y-102167529D01*
X158762936Y-102189236D01*
X158762938Y-102189236D01*
X158770175Y-102191546D01*
X158777755Y-102192063D01*
X158777756Y-102192063D01*
X158931754Y-102202562D01*
X158931758Y-102202562D01*
X158939330Y-102203078D01*
X158946807Y-102201773D01*
X158946808Y-102201773D01*
X159098877Y-102175232D01*
X159106354Y-102173927D01*
X159113303Y-102170876D01*
X159113305Y-102170876D01*
X159254649Y-102108831D01*
X159254648Y-102108831D01*
X159261602Y-102105779D01*
X159327283Y-102055380D01*
X159361807Y-102028888D01*
X159365078Y-102026378D01*
X168902066Y-92489390D01*
X168914457Y-92478523D01*
X168963673Y-92440758D01*
X168969009Y-92436881D01*
X169014786Y-92405419D01*
X169014792Y-92405414D01*
X169021051Y-92401112D01*
X169062009Y-92355142D01*
X169066989Y-92349867D01*
X169461267Y-91955589D01*
X169467533Y-91949735D01*
X169504871Y-91917163D01*
X169510596Y-91912169D01*
X169514961Y-91905958D01*
X169514964Y-91905955D01*
X169546905Y-91860507D01*
X169550838Y-91855212D01*
X169585096Y-91811521D01*
X169585097Y-91811519D01*
X169589783Y-91805543D01*
X169592908Y-91798621D01*
X169594681Y-91795694D01*
X169602106Y-91782675D01*
X169603717Y-91779671D01*
X169608087Y-91773453D01*
X169631020Y-91714633D01*
X169633575Y-91708555D01*
X169656428Y-91657943D01*
X169656429Y-91657941D01*
X169659555Y-91651017D01*
X169660940Y-91643545D01*
X169661967Y-91640267D01*
X169666063Y-91625886D01*
X169666915Y-91622570D01*
X169669676Y-91615487D01*
X169677917Y-91552889D01*
X169678948Y-91546377D01*
X169688820Y-91493116D01*
X169690452Y-91484308D01*
X169689887Y-91474500D01*
X169686909Y-91422862D01*
X169686700Y-91415609D01*
X169686700Y-90029746D01*
X169706702Y-89961625D01*
X169720844Y-89944077D01*
X181995065Y-89944077D01*
X182008722Y-90335157D01*
X182060477Y-90723038D01*
X182149834Y-91104017D01*
X182150823Y-91106923D01*
X182150825Y-91106929D01*
X182274950Y-91471543D01*
X182274955Y-91471555D01*
X182275943Y-91474458D01*
X182437598Y-91830826D01*
X182633258Y-92169717D01*
X182635047Y-92172216D01*
X182635049Y-92172219D01*
X182855553Y-92480216D01*
X182861053Y-92487899D01*
X182863080Y-92490214D01*
X182863082Y-92490217D01*
X183092022Y-92751733D01*
X183118810Y-92782333D01*
X183404069Y-93050208D01*
X183714107Y-93288969D01*
X183716710Y-93290596D01*
X183716715Y-93290599D01*
X183835687Y-93364941D01*
X184045964Y-93496337D01*
X184396472Y-93670331D01*
X184762287Y-93809290D01*
X185139915Y-93911890D01*
X185142958Y-93912405D01*
X185142964Y-93912406D01*
X185522713Y-93976636D01*
X185522720Y-93976637D01*
X185525754Y-93977150D01*
X185528825Y-93977365D01*
X185528827Y-93977365D01*
X185913053Y-94004233D01*
X185913061Y-94004233D01*
X185916119Y-94004447D01*
X186169704Y-93997363D01*
X186304211Y-93993606D01*
X186304214Y-93993606D01*
X186307285Y-93993520D01*
X186310338Y-93993134D01*
X186310342Y-93993134D01*
X186496145Y-93969662D01*
X186695517Y-93944475D01*
X186698521Y-93943793D01*
X186698524Y-93943792D01*
X187074115Y-93858460D01*
X187074121Y-93858458D01*
X187077111Y-93857779D01*
X187222875Y-93809290D01*
X187445500Y-93735233D01*
X187445506Y-93735231D01*
X187448424Y-93734260D01*
X187589551Y-93671426D01*
X187803111Y-93576343D01*
X187803117Y-93576340D01*
X187805911Y-93575096D01*
X187808580Y-93573580D01*
X188143492Y-93383324D01*
X188143498Y-93383320D01*
X188146160Y-93381808D01*
X188465924Y-93156239D01*
X188762150Y-92900544D01*
X188764271Y-92898317D01*
X188764277Y-92898311D01*
X189029894Y-92619385D01*
X189032011Y-92617162D01*
X189131192Y-92490217D01*
X189271021Y-92311244D01*
X189271023Y-92311241D01*
X189272931Y-92308799D01*
X189274587Y-92306189D01*
X189274593Y-92306181D01*
X189480957Y-91981003D01*
X189480959Y-91981000D01*
X189482610Y-91978398D01*
X189495667Y-91952551D01*
X189581476Y-91782675D01*
X189659046Y-91629112D01*
X189800557Y-91264277D01*
X189905790Y-90887374D01*
X189973742Y-90502000D01*
X189986580Y-90335157D01*
X190003613Y-90113789D01*
X190003613Y-90113778D01*
X190003763Y-90111835D01*
X190005325Y-90000000D01*
X190004296Y-89978947D01*
X189986359Y-89612222D01*
X189986209Y-89609149D01*
X189929044Y-89222028D01*
X189834376Y-88842334D01*
X189703107Y-88473689D01*
X189536492Y-88119614D01*
X189507167Y-88070420D01*
X189337700Y-87786138D01*
X189336120Y-87783487D01*
X189103905Y-87468517D01*
X188842061Y-87177711D01*
X188553090Y-86913844D01*
X188239749Y-86679435D01*
X188186075Y-86646929D01*
X187907658Y-86478313D01*
X187907649Y-86478308D01*
X187905030Y-86476722D01*
X187872057Y-86460924D01*
X187819266Y-86413451D01*
X187800500Y-86347293D01*
X187800500Y-70848856D01*
X187799259Y-70832145D01*
X187786064Y-70654588D01*
X187786063Y-70654584D01*
X187785717Y-70649923D01*
X187775161Y-70603270D01*
X187727686Y-70393466D01*
X187726655Y-70388909D01*
X187629662Y-70139491D01*
X187496868Y-69907150D01*
X187331190Y-69696989D01*
X187136269Y-69513625D01*
X186916385Y-69361086D01*
X186912194Y-69359019D01*
X186680559Y-69244789D01*
X186680556Y-69244788D01*
X186676371Y-69242724D01*
X186421497Y-69161138D01*
X186276134Y-69137465D01*
X186161976Y-69118873D01*
X186161975Y-69118873D01*
X186157364Y-69118122D01*
X186023569Y-69116371D01*
X185894451Y-69114680D01*
X185894448Y-69114680D01*
X185889774Y-69114619D01*
X185624605Y-69150707D01*
X185620118Y-69152015D01*
X185620117Y-69152015D01*
X185588817Y-69161138D01*
X185367683Y-69225592D01*
X185363430Y-69227552D01*
X185363429Y-69227553D01*
X185311512Y-69251487D01*
X185124652Y-69337631D01*
X185120743Y-69340194D01*
X184904764Y-69481796D01*
X184904759Y-69481800D01*
X184900851Y-69484362D01*
X184701197Y-69662560D01*
X184530075Y-69868312D01*
X184391244Y-70097098D01*
X184287755Y-70343891D01*
X184286604Y-70348423D01*
X184286603Y-70348426D01*
X184223033Y-70598733D01*
X184221881Y-70603270D01*
X184221412Y-70607926D01*
X184221412Y-70607927D01*
X184212352Y-70697906D01*
X184199500Y-70825541D01*
X184199500Y-86345949D01*
X184179498Y-86414070D01*
X184137260Y-86454626D01*
X183809486Y-86646929D01*
X183809481Y-86646932D01*
X183806831Y-86648487D01*
X183766433Y-86677838D01*
X183492730Y-86876694D01*
X183492721Y-86876701D01*
X183490248Y-86878498D01*
X183487958Y-86880531D01*
X183487952Y-86880536D01*
X183199924Y-87136260D01*
X183197621Y-87138305D01*
X182931743Y-87425427D01*
X182695152Y-87737124D01*
X182490107Y-88070420D01*
X182318564Y-88422135D01*
X182182162Y-88788910D01*
X182082201Y-89167246D01*
X182019637Y-89553531D01*
X182019443Y-89556611D01*
X182019443Y-89556613D01*
X181995281Y-89940651D01*
X181995065Y-89944077D01*
X169720844Y-89944077D01*
X169723605Y-89940651D01*
X176598675Y-83065582D01*
X176604941Y-83059728D01*
X176642269Y-83027165D01*
X176647996Y-83022169D01*
X176684290Y-82970527D01*
X176688216Y-82965242D01*
X176722495Y-82921524D01*
X176722497Y-82921520D01*
X176727184Y-82915543D01*
X176730310Y-82908620D01*
X176732095Y-82905672D01*
X176739487Y-82892712D01*
X176741120Y-82889666D01*
X176745487Y-82883453D01*
X176768420Y-82824633D01*
X176770976Y-82818554D01*
X176793828Y-82767941D01*
X176796955Y-82761016D01*
X176798340Y-82753545D01*
X176799364Y-82750277D01*
X176803477Y-82735836D01*
X176804317Y-82732563D01*
X176807076Y-82725487D01*
X176815316Y-82662894D01*
X176816348Y-82656377D01*
X176826468Y-82601775D01*
X176827852Y-82594308D01*
X176824309Y-82532856D01*
X176824100Y-82525604D01*
X176824100Y-82456684D01*
X176808876Y-82330880D01*
X176748945Y-82172277D01*
X176652912Y-82032549D01*
X176641114Y-82022037D01*
X176531992Y-81924812D01*
X176531988Y-81924810D01*
X176526321Y-81919760D01*
X176376481Y-81840424D01*
X176212041Y-81799119D01*
X176204443Y-81799079D01*
X176204441Y-81799079D01*
X176127268Y-81798675D01*
X176042495Y-81798231D01*
X176035108Y-81800005D01*
X176035104Y-81800005D01*
X175894239Y-81833825D01*
X175877632Y-81837812D01*
X175870888Y-81841293D01*
X175870885Y-81841294D01*
X175797411Y-81879217D01*
X175726969Y-81915575D01*
X175599204Y-82027031D01*
X175501713Y-82165747D01*
X175498953Y-82172827D01*
X175495365Y-82179518D01*
X175493550Y-82178545D01*
X175473123Y-82209821D01*
X169100695Y-88582248D01*
X169038383Y-88616274D01*
X168967568Y-88611209D01*
X168922505Y-88582248D01*
X164751982Y-84411725D01*
X164746128Y-84405459D01*
X164713565Y-84368131D01*
X164708569Y-84362404D01*
X164656927Y-84326110D01*
X164651642Y-84322184D01*
X164607924Y-84287905D01*
X164607920Y-84287903D01*
X164601943Y-84283216D01*
X164595020Y-84280090D01*
X164592072Y-84278305D01*
X164579112Y-84270913D01*
X164576066Y-84269280D01*
X164569853Y-84264913D01*
X164511033Y-84241980D01*
X164504954Y-84239424D01*
X164498801Y-84236646D01*
X164447416Y-84213445D01*
X164439945Y-84212060D01*
X164436677Y-84211036D01*
X164422236Y-84206923D01*
X164418963Y-84206083D01*
X164411887Y-84203324D01*
X164367217Y-84197444D01*
X164349294Y-84195084D01*
X164342777Y-84194052D01*
X164288175Y-84183932D01*
X164280708Y-84182548D01*
X164273128Y-84182985D01*
X164273127Y-84182985D01*
X164219256Y-84186091D01*
X164212004Y-84186300D01*
X156391037Y-84186300D01*
X156382466Y-84186008D01*
X156325470Y-84182122D01*
X156317994Y-84183427D01*
X156317990Y-84183427D01*
X156263268Y-84192978D01*
X156256742Y-84193941D01*
X156216304Y-84198835D01*
X156194080Y-84201524D01*
X156186973Y-84204209D01*
X156183680Y-84205018D01*
X156169209Y-84208977D01*
X156165933Y-84209966D01*
X156158446Y-84211273D01*
X156151488Y-84214328D01*
X156151486Y-84214328D01*
X156100642Y-84236646D01*
X156094537Y-84239138D01*
X156090184Y-84240783D01*
X156035477Y-84261455D01*
X156029224Y-84265753D01*
X156026193Y-84267337D01*
X156013116Y-84274617D01*
X156010157Y-84276367D01*
X156003197Y-84279422D01*
X155997170Y-84284047D01*
X155997166Y-84284049D01*
X155953100Y-84317862D01*
X155947781Y-84321727D01*
X155895749Y-84357488D01*
X155854800Y-84403448D01*
X155849819Y-84408724D01*
X155054495Y-85204048D01*
X154992183Y-85238074D01*
X154921368Y-85233009D01*
X154876305Y-85204048D01*
X154749752Y-85077495D01*
X154715726Y-85015183D01*
X154720791Y-84944368D01*
X154749752Y-84899305D01*
X155491274Y-84157783D01*
X155497540Y-84151929D01*
X155534871Y-84119363D01*
X155540596Y-84114369D01*
X155544961Y-84108158D01*
X155544964Y-84108155D01*
X155576905Y-84062707D01*
X155580838Y-84057412D01*
X155615093Y-84013724D01*
X155619783Y-84007743D01*
X155622911Y-84000816D01*
X155624686Y-83997885D01*
X155632103Y-83984882D01*
X155633719Y-83981868D01*
X155638087Y-83975653D01*
X155640846Y-83968577D01*
X155640848Y-83968573D01*
X155661019Y-83916836D01*
X155663575Y-83910755D01*
X155686431Y-83860135D01*
X155686431Y-83860134D01*
X155689555Y-83853216D01*
X155690939Y-83845750D01*
X155691957Y-83842501D01*
X155696077Y-83828036D01*
X155696917Y-83824763D01*
X155699676Y-83817687D01*
X155707916Y-83755094D01*
X155708948Y-83748577D01*
X155719068Y-83693975D01*
X155720452Y-83686508D01*
X155716909Y-83625061D01*
X155716700Y-83617809D01*
X155716700Y-77344841D01*
X155716992Y-77336271D01*
X155717051Y-77335411D01*
X155720878Y-77279270D01*
X155710023Y-77217070D01*
X155709060Y-77210546D01*
X155702389Y-77155421D01*
X155702388Y-77155418D01*
X155701476Y-77147880D01*
X155698792Y-77140778D01*
X155697973Y-77137442D01*
X155694017Y-77122985D01*
X155693034Y-77119728D01*
X155691728Y-77112247D01*
X155688676Y-77105294D01*
X155666351Y-77054433D01*
X155663860Y-77048328D01*
X155644233Y-76996389D01*
X155644231Y-76996385D01*
X155641545Y-76989277D01*
X155637240Y-76983013D01*
X155635651Y-76979974D01*
X155628376Y-76966901D01*
X155626631Y-76963950D01*
X155623579Y-76956998D01*
X155585158Y-76906927D01*
X155581281Y-76901591D01*
X155549819Y-76855814D01*
X155549814Y-76855808D01*
X155545512Y-76849549D01*
X155499542Y-76808591D01*
X155494267Y-76803611D01*
X149784751Y-71094095D01*
X149750725Y-71031783D01*
X149755790Y-70960968D01*
X149784751Y-70915905D01*
X158917105Y-61783552D01*
X158919792Y-61780865D01*
X158997984Y-61681143D01*
X159067755Y-61526616D01*
X159098652Y-61359908D01*
X159088893Y-61190641D01*
X159039039Y-61028589D01*
X158951969Y-60883105D01*
X158946632Y-60877712D01*
X158946629Y-60877708D01*
X158891190Y-60821686D01*
X158832710Y-60762590D01*
X158688146Y-60674002D01*
X158591386Y-60643122D01*
X158533864Y-60624764D01*
X158533862Y-60624764D01*
X158526625Y-60622454D01*
X158519045Y-60621937D01*
X158519044Y-60621937D01*
X158365046Y-60611438D01*
X158365042Y-60611438D01*
X158357470Y-60610922D01*
X158349993Y-60612227D01*
X158349991Y-60612227D01*
X158218585Y-60635161D01*
X158190446Y-60640072D01*
X158183500Y-60643121D01*
X158183497Y-60643122D01*
X158126866Y-60667982D01*
X158035198Y-60708221D01*
X158029174Y-60712843D01*
X158029173Y-60712844D01*
X157941896Y-60779815D01*
X157931722Y-60787622D01*
X157928801Y-60790543D01*
X148301954Y-70417389D01*
X148277567Y-70436409D01*
X148267505Y-70442431D01*
X148262112Y-70447768D01*
X148262108Y-70447771D01*
X148206086Y-70503210D01*
X148146990Y-70561690D01*
X148058402Y-70706254D01*
X148056093Y-70713490D01*
X148020333Y-70825541D01*
X148006854Y-70867775D01*
X148006337Y-70875355D01*
X148006337Y-70875356D01*
X147995856Y-71029103D01*
X147995322Y-71036930D01*
X135419992Y-71036930D01*
X135417273Y-71025338D01*
X135415110Y-71013667D01*
X135410958Y-70983361D01*
X135409206Y-70970568D01*
X135403235Y-70956770D01*
X135396201Y-70935501D01*
X135394729Y-70929225D01*
X135392768Y-70920864D01*
X135388631Y-70913339D01*
X135388630Y-70913336D01*
X135371805Y-70882732D01*
X135366589Y-70872087D01*
X135349305Y-70832145D01*
X135339842Y-70820459D01*
X135327354Y-70801874D01*
X135323290Y-70794482D01*
X135320107Y-70788692D01*
X135313103Y-70780578D01*
X135288567Y-70756042D01*
X135279742Y-70746241D01*
X135259794Y-70721608D01*
X135259793Y-70721607D01*
X135254386Y-70714930D01*
X135247388Y-70709957D01*
X135247383Y-70709952D01*
X135239052Y-70704032D01*
X135222946Y-70690421D01*
X131579309Y-67046785D01*
X131579303Y-67046778D01*
X129645610Y-65113086D01*
X129611585Y-65050774D01*
X129609618Y-65039128D01*
X129592131Y-64894627D01*
X129591219Y-64887087D01*
X129533427Y-64734145D01*
X129440821Y-64599403D01*
X129318748Y-64490640D01*
X129312038Y-64487087D01*
X129180966Y-64417688D01*
X129180964Y-64417687D01*
X129174255Y-64414135D01*
X129123185Y-64401307D01*
X129023055Y-64376156D01*
X129023051Y-64376156D01*
X129015684Y-64374305D01*
X129008085Y-64374265D01*
X129008083Y-64374265D01*
X128940053Y-64373909D01*
X128852190Y-64373449D01*
X128844810Y-64375221D01*
X128844808Y-64375221D01*
X128700589Y-64409844D01*
X128700585Y-64409845D01*
X128693210Y-64411616D01*
X128547924Y-64486604D01*
X128542202Y-64491596D01*
X128542200Y-64491597D01*
X128430444Y-64589088D01*
X128430441Y-64589091D01*
X128424719Y-64594083D01*
X128330707Y-64727848D01*
X128271317Y-64880176D01*
X128249976Y-65042274D01*
X128267918Y-65204784D01*
X128324105Y-65358323D01*
X128328341Y-65364626D01*
X128328341Y-65364627D01*
X128411060Y-65487727D01*
X128411063Y-65487730D01*
X128415294Y-65494027D01*
X128536222Y-65604063D01*
X128542897Y-65607687D01*
X128614943Y-65646805D01*
X128643916Y-65668441D01*
X130701091Y-67725615D01*
X130701097Y-67725622D01*
X134286595Y-71311120D01*
X134320621Y-71373432D01*
X134323500Y-71400215D01*
X134323500Y-73125785D01*
X134303498Y-73193906D01*
X134286595Y-73214880D01*
X125986358Y-81515118D01*
X125982549Y-81518771D01*
X125936844Y-81560799D01*
X125913901Y-81597802D01*
X125907200Y-81607552D01*
X125880888Y-81642217D01*
X125875354Y-81656195D01*
X125865293Y-81676199D01*
X125857365Y-81688986D01*
X125854968Y-81697237D01*
X125854967Y-81697239D01*
X125845225Y-81730772D01*
X125841380Y-81742002D01*
X125825364Y-81782453D01*
X125824466Y-81790994D01*
X125824466Y-81790995D01*
X125823792Y-81797408D01*
X125819480Y-81819383D01*
X125815285Y-81833825D01*
X125814500Y-81844515D01*
X125814500Y-81879217D01*
X125813810Y-81892387D01*
X125809599Y-81932454D01*
X105034500Y-81932454D01*
X105034500Y-71664930D01*
X119945322Y-71664930D01*
X119974473Y-71831954D01*
X120042621Y-71987202D01*
X120122022Y-72090678D01*
X122343735Y-74312392D01*
X122443457Y-74390583D01*
X122450375Y-74393707D01*
X122450379Y-74393709D01*
X122534385Y-74431639D01*
X122597984Y-74460355D01*
X122605452Y-74461739D01*
X122605455Y-74461740D01*
X122712036Y-74481493D01*
X122764692Y-74491252D01*
X122772272Y-74490815D01*
X122772273Y-74490815D01*
X122803499Y-74489015D01*
X122933959Y-74481493D01*
X123096011Y-74431639D01*
X123241495Y-74344569D01*
X123246888Y-74339232D01*
X123246892Y-74339229D01*
X123302914Y-74283790D01*
X123362010Y-74225310D01*
X123450598Y-74080746D01*
X123502146Y-73919225D01*
X123510001Y-73804012D01*
X123513162Y-73757646D01*
X123513162Y-73757642D01*
X123513678Y-73750070D01*
X123508111Y-73718170D01*
X123485833Y-73590529D01*
X123484527Y-73583046D01*
X123416379Y-73427797D01*
X123336978Y-73324322D01*
X121115265Y-71102608D01*
X121081702Y-71076291D01*
X121021521Y-71029103D01*
X121021519Y-71029102D01*
X121015543Y-71024416D01*
X120861016Y-70954645D01*
X120694308Y-70923748D01*
X120686728Y-70924185D01*
X120686727Y-70924185D01*
X120655501Y-70925985D01*
X120525041Y-70933507D01*
X120362989Y-70983361D01*
X120217505Y-71070431D01*
X120212112Y-71075768D01*
X120212108Y-71075771D01*
X120157595Y-71129717D01*
X120096990Y-71189690D01*
X120008402Y-71334254D01*
X120006093Y-71341490D01*
X119967417Y-71462678D01*
X119956854Y-71495775D01*
X119945322Y-71664930D01*
X105034500Y-71664930D01*
X105034500Y-67183000D01*
X122093196Y-67183000D01*
X122113579Y-67441994D01*
X122114733Y-67446801D01*
X122114734Y-67446807D01*
X122153020Y-67606276D01*
X122174227Y-67694610D01*
X122176120Y-67699181D01*
X122176121Y-67699183D01*
X122187073Y-67725622D01*
X122273646Y-67934628D01*
X122409388Y-68156140D01*
X122578111Y-68353689D01*
X122775660Y-68522412D01*
X122997172Y-68658154D01*
X123001742Y-68660047D01*
X123001746Y-68660049D01*
X123232617Y-68755679D01*
X123237190Y-68757573D01*
X123325524Y-68778780D01*
X123484993Y-68817066D01*
X123484999Y-68817067D01*
X123489806Y-68818221D01*
X123579991Y-68825319D01*
X123681490Y-68833307D01*
X123681499Y-68833307D01*
X123683947Y-68833500D01*
X123813653Y-68833500D01*
X123816101Y-68833307D01*
X123816110Y-68833307D01*
X123917609Y-68825319D01*
X124007794Y-68818221D01*
X124012601Y-68817067D01*
X124012607Y-68817066D01*
X124172076Y-68778780D01*
X124260410Y-68757573D01*
X124264983Y-68755679D01*
X124495854Y-68660049D01*
X124495858Y-68660047D01*
X124500428Y-68658154D01*
X124721940Y-68522412D01*
X124919489Y-68353689D01*
X125088212Y-68156140D01*
X125223954Y-67934628D01*
X125310528Y-67725622D01*
X125321479Y-67699183D01*
X125321480Y-67699181D01*
X125323373Y-67694610D01*
X125344580Y-67606276D01*
X125382866Y-67446807D01*
X125382867Y-67446801D01*
X125384021Y-67441994D01*
X125404404Y-67183000D01*
X125384021Y-66924006D01*
X125382867Y-66919199D01*
X125382866Y-66919193D01*
X125324528Y-66676202D01*
X125323373Y-66671390D01*
X125223954Y-66431372D01*
X125088212Y-66209860D01*
X124919489Y-66012311D01*
X124721940Y-65843588D01*
X124500428Y-65707846D01*
X124495858Y-65705953D01*
X124495854Y-65705951D01*
X124264983Y-65610321D01*
X124264981Y-65610320D01*
X124260410Y-65608427D01*
X124172076Y-65587220D01*
X124012607Y-65548934D01*
X124012601Y-65548933D01*
X124007794Y-65547779D01*
X123917609Y-65540681D01*
X123816110Y-65532693D01*
X123816101Y-65532693D01*
X123813653Y-65532500D01*
X123683947Y-65532500D01*
X123681499Y-65532693D01*
X123681490Y-65532693D01*
X123579991Y-65540681D01*
X123489806Y-65547779D01*
X123484999Y-65548933D01*
X123484993Y-65548934D01*
X123325524Y-65587220D01*
X123237190Y-65608427D01*
X123232619Y-65610320D01*
X123232617Y-65610321D01*
X123001746Y-65705951D01*
X123001742Y-65705953D01*
X122997172Y-65707846D01*
X122775660Y-65843588D01*
X122578111Y-66012311D01*
X122409388Y-66209860D01*
X122273646Y-66431372D01*
X122174227Y-66671390D01*
X122173072Y-66676202D01*
X122114734Y-66919193D01*
X122114733Y-66919199D01*
X122113579Y-66924006D01*
X122093196Y-67183000D01*
X105034500Y-67183000D01*
X105034500Y-59301874D01*
X121747576Y-59301874D01*
X121765518Y-59464384D01*
X121768127Y-59471515D01*
X121768128Y-59471517D01*
X121773105Y-59485116D01*
X121821705Y-59617923D01*
X121825941Y-59624226D01*
X121825941Y-59624227D01*
X121908660Y-59747327D01*
X121908663Y-59747330D01*
X121912894Y-59753627D01*
X122033822Y-59863663D01*
X122062410Y-59879185D01*
X122170829Y-59938052D01*
X122170831Y-59938053D01*
X122177506Y-59941677D01*
X122184855Y-59943605D01*
X122328301Y-59981237D01*
X122328303Y-59981237D01*
X122335651Y-59983165D01*
X122418932Y-59984473D01*
X122491529Y-59985614D01*
X122491532Y-59985614D01*
X122499128Y-59985733D01*
X122506533Y-59984037D01*
X122506534Y-59984037D01*
X122651097Y-59950928D01*
X122658498Y-59949233D01*
X122804561Y-59875770D01*
X122928885Y-59769588D01*
X122940355Y-59753627D01*
X123019861Y-59642983D01*
X123019862Y-59642982D01*
X123024293Y-59636815D01*
X123085275Y-59485116D01*
X123108312Y-59323250D01*
X123108355Y-59319127D01*
X123108445Y-59317945D01*
X123133555Y-59251537D01*
X123190582Y-59209247D01*
X123234082Y-59201500D01*
X124749917Y-59201500D01*
X124818038Y-59221502D01*
X124839012Y-59238405D01*
X125907076Y-60306469D01*
X125941102Y-60368781D01*
X125942903Y-60412008D01*
X125938576Y-60444874D01*
X125956518Y-60607384D01*
X125959127Y-60614515D01*
X125959128Y-60614517D01*
X125995111Y-60712844D01*
X126012705Y-60760923D01*
X126016941Y-60767226D01*
X126016941Y-60767227D01*
X126099660Y-60890327D01*
X126099663Y-60890330D01*
X126103894Y-60896627D01*
X126224822Y-61006663D01*
X126253200Y-61022071D01*
X126361829Y-61081052D01*
X126361831Y-61081053D01*
X126368506Y-61084677D01*
X126375855Y-61086605D01*
X126519301Y-61124237D01*
X126519303Y-61124237D01*
X126526651Y-61126165D01*
X126609932Y-61127473D01*
X126682529Y-61128614D01*
X126682532Y-61128614D01*
X126690128Y-61128733D01*
X126697533Y-61127037D01*
X126697534Y-61127037D01*
X126842097Y-61093928D01*
X126849498Y-61092233D01*
X126995561Y-61018770D01*
X127119885Y-60912588D01*
X127131355Y-60896627D01*
X127210861Y-60785983D01*
X127210862Y-60785982D01*
X127215293Y-60779815D01*
X127276275Y-60628116D01*
X127299312Y-60466250D01*
X127299461Y-60452000D01*
X127279819Y-60289687D01*
X127222027Y-60136745D01*
X127129421Y-60002003D01*
X127111027Y-59985614D01*
X127063876Y-59943605D01*
X127007348Y-59893240D01*
X126974353Y-59875770D01*
X126869566Y-59820288D01*
X126869564Y-59820287D01*
X126862855Y-59816735D01*
X126811785Y-59803907D01*
X126711655Y-59778756D01*
X126711651Y-59778756D01*
X126704284Y-59776905D01*
X126696685Y-59776865D01*
X126696683Y-59776865D01*
X126561080Y-59776155D01*
X126493065Y-59755797D01*
X126472645Y-59739252D01*
X125228909Y-58495516D01*
X125228905Y-58495513D01*
X125206342Y-58472950D01*
X125186746Y-58462965D01*
X125169893Y-58452639D01*
X125152090Y-58439704D01*
X125131166Y-58432905D01*
X125112906Y-58425341D01*
X125102141Y-58419856D01*
X125102137Y-58419855D01*
X125093304Y-58415354D01*
X125083513Y-58413803D01*
X125083512Y-58413803D01*
X125071578Y-58411913D01*
X125052353Y-58407297D01*
X125040868Y-58403565D01*
X125040864Y-58403564D01*
X125031433Y-58400500D01*
X122904481Y-58400500D01*
X122904477Y-58400501D01*
X122872567Y-58400501D01*
X122863140Y-58403564D01*
X122863133Y-58403565D01*
X122851647Y-58407297D01*
X122832427Y-58411911D01*
X122820493Y-58413801D01*
X122820485Y-58413803D01*
X122810696Y-58415354D01*
X122801865Y-58419854D01*
X122801861Y-58419855D01*
X122791093Y-58425342D01*
X122772832Y-58432906D01*
X122751910Y-58439704D01*
X122736918Y-58450597D01*
X122734116Y-58452632D01*
X122717259Y-58462962D01*
X122706493Y-58468448D01*
X122706492Y-58468449D01*
X122697658Y-58472950D01*
X122675091Y-58495517D01*
X122573757Y-58596850D01*
X122511447Y-58630875D01*
X122484007Y-58633752D01*
X122349790Y-58633049D01*
X122342410Y-58634821D01*
X122342408Y-58634821D01*
X122198189Y-58669444D01*
X122198185Y-58669445D01*
X122190810Y-58671216D01*
X122045524Y-58746204D01*
X122039802Y-58751196D01*
X122039800Y-58751197D01*
X121928044Y-58848688D01*
X121928041Y-58848691D01*
X121922319Y-58853683D01*
X121828307Y-58987448D01*
X121768917Y-59139776D01*
X121747576Y-59301874D01*
X105034500Y-59301874D01*
X105034500Y-53944077D01*
X145995065Y-53944077D01*
X146008722Y-54335157D01*
X146060477Y-54723038D01*
X146149834Y-55104017D01*
X146150823Y-55106923D01*
X146150825Y-55106929D01*
X146274950Y-55471543D01*
X146274955Y-55471555D01*
X146275943Y-55474458D01*
X146437598Y-55830826D01*
X146633258Y-56169717D01*
X146635047Y-56172216D01*
X146635049Y-56172219D01*
X146732831Y-56308799D01*
X146861053Y-56487899D01*
X147118810Y-56782333D01*
X147404069Y-57050208D01*
X147714107Y-57288969D01*
X147716710Y-57290596D01*
X147716715Y-57290599D01*
X147835687Y-57364941D01*
X148045964Y-57496337D01*
X148396472Y-57670331D01*
X148762287Y-57809290D01*
X149139915Y-57911890D01*
X149142958Y-57912405D01*
X149142964Y-57912406D01*
X149522713Y-57976636D01*
X149522720Y-57976637D01*
X149525754Y-57977150D01*
X149528825Y-57977365D01*
X149528827Y-57977365D01*
X149913053Y-58004233D01*
X149913061Y-58004233D01*
X149916119Y-58004447D01*
X150169704Y-57997363D01*
X150304211Y-57993606D01*
X150304214Y-57993606D01*
X150307285Y-57993520D01*
X150310338Y-57993134D01*
X150310342Y-57993134D01*
X150496145Y-57969662D01*
X150695517Y-57944475D01*
X150698521Y-57943793D01*
X150698524Y-57943792D01*
X151074115Y-57858460D01*
X151074121Y-57858458D01*
X151077111Y-57857779D01*
X151222875Y-57809290D01*
X151445500Y-57735233D01*
X151445506Y-57735231D01*
X151448424Y-57734260D01*
X151589551Y-57671426D01*
X151803111Y-57576343D01*
X151803117Y-57576340D01*
X151805911Y-57575096D01*
X151808580Y-57573580D01*
X152143492Y-57383324D01*
X152143498Y-57383320D01*
X152146160Y-57381808D01*
X152465924Y-57156239D01*
X152762150Y-56900544D01*
X152764271Y-56898317D01*
X152764277Y-56898311D01*
X153029894Y-56619385D01*
X153032011Y-56617162D01*
X153131192Y-56490217D01*
X153271021Y-56311244D01*
X153271023Y-56311241D01*
X153272931Y-56308799D01*
X153274587Y-56306189D01*
X153274593Y-56306181D01*
X153480957Y-55981003D01*
X153480959Y-55981000D01*
X153482610Y-55978398D01*
X153659046Y-55629112D01*
X153800557Y-55264277D01*
X153905790Y-54887374D01*
X153973742Y-54502000D01*
X153986580Y-54335157D01*
X154003613Y-54113789D01*
X154003613Y-54113778D01*
X154003763Y-54111835D01*
X154005325Y-54000000D01*
X153986209Y-53609149D01*
X153929044Y-53222028D01*
X153834376Y-52842334D01*
X153703107Y-52473689D01*
X153536492Y-52119614D01*
X153507167Y-52070420D01*
X153337700Y-51786138D01*
X153336120Y-51783487D01*
X153103905Y-51468517D01*
X152842061Y-51177711D01*
X152553090Y-50913844D01*
X152239749Y-50679435D01*
X152186075Y-50646929D01*
X151907658Y-50478313D01*
X151907649Y-50478308D01*
X151905030Y-50476722D01*
X151552126Y-50307638D01*
X151549237Y-50306586D01*
X151549231Y-50306584D01*
X151187306Y-50174855D01*
X151187303Y-50174854D01*
X151184407Y-50173800D01*
X150907326Y-50102658D01*
X150808366Y-50077249D01*
X150808363Y-50077248D01*
X150805382Y-50076483D01*
X150418670Y-50016617D01*
X150415613Y-50016446D01*
X150415612Y-50016446D01*
X150385120Y-50014741D01*
X150027962Y-49994773D01*
X150024883Y-49994902D01*
X150024880Y-49994902D01*
X149768770Y-50005636D01*
X149636987Y-50011159D01*
X149633943Y-50011587D01*
X149633941Y-50011587D01*
X149599368Y-50016446D01*
X149249477Y-50065620D01*
X148869131Y-50157636D01*
X148499579Y-50286327D01*
X148496781Y-50287620D01*
X148147146Y-50449174D01*
X148147136Y-50449179D01*
X148144349Y-50450467D01*
X148035829Y-50514135D01*
X147809486Y-50646929D01*
X147809481Y-50646932D01*
X147806831Y-50648487D01*
X147766433Y-50677838D01*
X147492730Y-50876694D01*
X147492721Y-50876701D01*
X147490248Y-50878498D01*
X147487958Y-50880531D01*
X147487952Y-50880536D01*
X147199924Y-51136260D01*
X147197621Y-51138305D01*
X146931743Y-51425427D01*
X146695152Y-51737124D01*
X146490107Y-52070420D01*
X146318564Y-52422135D01*
X146182162Y-52788910D01*
X146082201Y-53167246D01*
X146019637Y-53553531D01*
X145995065Y-53944077D01*
X105034500Y-53944077D01*
X105034500Y-45160500D01*
X105054502Y-45092379D01*
X105108158Y-45045886D01*
X105160500Y-45034500D01*
X194839500Y-45034500D01*
X194907621Y-45054502D01*
G37*
%TD.AperFunction*%
%TD*%
M02*
