G04 #@! TF.GenerationSoftware,KiCad,Pcbnew,5.99.0-unknown-43001cae3~104~ubuntu18.04.1*
G04 #@! TF.CreationDate,2020-11-12T23:28:15+01:00*
G04 #@! TF.ProjectId,QFHMIX01C,5146484d-4958-4303-9143-2e6b69636164,REV 0.2*
G04 #@! TF.SameCoordinates,Original*
G04 #@! TF.FileFunction,AssemblyDrawing,Top*
%FSLAX45Y45*%
G04 Gerber Fmt 4.5, Leading zero omitted, Abs format (unit mm)*
G04 Created by KiCad (PCBNEW 5.99.0-unknown-43001cae3~104~ubuntu18.04.1) date 2020-11-12 23:28:15*
%MOMM*%
%LPD*%
G01*
G04 APERTURE LIST*
%ADD10C,0.300000*%
%ADD11C,0.150000*%
%ADD12C,0.100000*%
G04 APERTURE END LIST*
D10*
X12107728Y-11886561D02*
X12031967Y-11962322D01*
X12011764Y-11972424D01*
X11991561Y-11972424D01*
X11971358Y-11962322D01*
X11961256Y-11952221D01*
X12143084Y-11942119D02*
X12153185Y-11942119D01*
X12168337Y-11947170D01*
X12193591Y-11972424D01*
X12198642Y-11987576D01*
X12198642Y-11997678D01*
X12193591Y-12012830D01*
X12183490Y-12022931D01*
X12163287Y-12033033D01*
X12042068Y-12033033D01*
X12107728Y-12098693D01*
D11*
X12034848Y-11994332D02*
X12085355Y-11943825D01*
X12098824Y-11937090D01*
X12112293Y-11937090D01*
X12125761Y-11943825D01*
X12132496Y-11950559D01*
X12011277Y-11957293D02*
X12004543Y-11957293D01*
X11994442Y-11953926D01*
X11977606Y-11937090D01*
X11974238Y-11926989D01*
X11974238Y-11920254D01*
X11977606Y-11910153D01*
X11984340Y-11903418D01*
X11997809Y-11896684D01*
X12078621Y-11896684D01*
X12034848Y-11852911D01*
D12*
X10622139Y-11114836D02*
X11214836Y-10522139D01*
X11214836Y-10522139D02*
X13477861Y-12785164D01*
X12885164Y-13377861D02*
X10622139Y-11114836D01*
X13477861Y-12785164D02*
X12885164Y-13377861D01*
M02*
