  0
SECTION
  2
HEADER
  9
$ANGBASE
  50
0.0
  9
$ANGDIR
  70
1
  9
$MEASUREMENT
  70
0
  0
ENDSEC
  0
SECTION
  2
TABLES
  0
TABLE
  2
LTYPE
  70
4
  0
LTYPE
  5
40F
  2
CONTINUOUS
  70
0
  3
Solid line
  72
65
  73
0
  40
0.0
  0
LTYPE
  5
410
  2
DASHDOT
 70
0
  3
Dash Dot ____ _ ____ _
 72
65
 73
4
 40
2.0
 49
1.25
 49
-0.25
 49
0.25
 49
-0.25
  0
LTYPE
  5
411
  2
DASHED
 70
0
  3
Dashed __ __ __ __ __
 72
65
 73
2
 40
0.75
 49
0.5
 49
-0.25
  0
LTYPE
  5
43B
  2
DOTTED
 70
0
  3
Dotted .  .  .  .
 72
65
 73
2
 40
0.2
 49
0.0
 49
-0.2
  0
ENDTAB
  0
TABLE
  2
STYLE
  70
4
  0
STYLE
  2
KICAD
  70
0
  40
0
  41
1
  42
1
  50
0
  71
0
  3
isocp.shx
  0
STYLE
  2
KICADB
  70
0
  40
0
  41
1
  42
1
  50
0
  71
0
  3
isocp.shx
  0
STYLE
  2
KICADI
  70
0
  40
0
  41
1
  42
1
  50
15
  71
0
  3
isocp.shx
  0
STYLE
  2
KICADBI
  70
0
  40
0
  41
1
  42
1
  50
15
  71
0
  3
isocp.shx
  0
ENDTAB
  0
TABLE
  2
LAYER
  70
1
  0
LAYER
  2
BLACK
  70
0
  62
7
  6
CONTINUOUS
  0
ENDTAB
  0
ENDSEC
  0
SECTION
  2
ENTITIES
0
LINE
8
BLACK
6
CONTINUOUS
10
4.41668
20
-4.14118
11
5.30764
21
-5.03214
0
LINE
8
BLACK
6
CONTINUOUS
10
5.30764
20
-5.03214
11
5.30764
21
-5.03214
0
LINE
8
BLACK
6
CONTINUOUS
10
5.30764
20
-5.03214
11
5.30821
21
-5.03353
0
LINE
8
BLACK
6
CONTINUOUS
10
5.30821
20
-5.03353
11
5.30764
21
-5.03492
0
LINE
8
BLACK
6
CONTINUOUS
10
5.30764
20
-5.03492
11
5.07429
21
-5.26827
0
LINE
8
BLACK
6
CONTINUOUS
10
5.07429
20
-5.26827
11
5.0729
21
-5.26884
0
LINE
8
BLACK
6
CONTINUOUS
10
5.0729
20
-5.26884
11
5.07191
21
-5.26844
0
LINE
8
BLACK
6
CONTINUOUS
10
5.07191
20
-5.26844
11
5.07151
21
-5.26827
0
LINE
8
BLACK
6
CONTINUOUS
10
5.07151
20
-5.26827
11
4.18055
21
-4.37731
0
LINE
8
BLACK
6
CONTINUOUS
10
4.18055
20
-4.37731
11
4.17998
21
-4.37592
0
LINE
8
BLACK
6
CONTINUOUS
10
4.17998
20
-4.37592
11
4.18055
21
-4.37453
0
LINE
8
BLACK
6
CONTINUOUS
10
4.18055
20
-4.37453
11
4.4139
21
-4.14118
0
LINE
8
BLACK
6
CONTINUOUS
10
4.4139
20
-4.14118
11
4.41529
21
-4.14061
0
LINE
8
BLACK
6
CONTINUOUS
10
4.41529
20
-4.14061
11
4.41668
21
-4.14118
0
LINE
8
BLACK
6
CONTINUOUS
10
4.18473
20
-4.37592
11
5.0729
21
-5.26409
0
LINE
8
BLACK
6
CONTINUOUS
10
5.0729
20
-5.26409
11
5.30346
21
-5.03353
0
LINE
8
BLACK
6
CONTINUOUS
10
5.30346
20
-5.03353
11
4.41529
21
-4.14536
0
LINE
8
BLACK
6
CONTINUOUS
10
4.41529
20
-4.14536
11
4.18473
21
-4.37592
0
LINE
8
BLACK
6
CONTINUOUS
10
4.83553
20
-4.63921
11
4.83567
21
-4.63933
0
LINE
8
BLACK
6
CONTINUOUS
10
4.83567
20
-4.63933
11
4.83585
21
-4.63935
0
LINE
8
BLACK
6
CONTINUOUS
10
4.83585
20
-4.63935
11
4.84115
21
-4.642
0
LINE
8
BLACK
6
CONTINUOUS
10
4.84115
20
-4.642
11
4.84186
21
-4.64252
0
LINE
8
BLACK
6
CONTINUOUS
10
4.84186
20
-4.64252
11
4.84192
21
-4.64255
0
LINE
8
BLACK
6
CONTINUOUS
10
4.84192
20
-4.64255
11
4.84457
21
-4.6452
0
LINE
8
BLACK
6
CONTINUOUS
10
4.84457
20
-4.6452
11
4.84515
21
-4.64604
0
LINE
8
BLACK
6
CONTINUOUS
10
4.84515
20
-4.64604
11
4.84533
21
-4.64806
0
LINE
8
BLACK
6
CONTINUOUS
10
4.84533
20
-4.64806
11
4.84417
21
-4.64971
0
LINE
8
BLACK
6
CONTINUOUS
10
4.84417
20
-4.64971
11
4.84222
21
-4.65023
0
LINE
8
BLACK
6
CONTINUOUS
10
4.84222
20
-4.65023
11
4.84039
21
-4.64938
0
LINE
8
BLACK
6
CONTINUOUS
10
4.84039
20
-4.64938
11
4.83808
21
-4.64707
0
LINE
8
BLACK
6
CONTINUOUS
10
4.83808
20
-4.64707
11
4.83383
21
-4.64494
0
LINE
8
BLACK
6
CONTINUOUS
10
4.83383
20
-4.64494
11
4.82992
21
-4.64494
0
LINE
8
BLACK
6
CONTINUOUS
10
4.82992
20
-4.64494
11
4.82567
21
-4.64707
0
LINE
8
BLACK
6
CONTINUOUS
10
4.82567
20
-4.64707
11
4.80612
21
-4.66661
0
LINE
8
BLACK
6
CONTINUOUS
10
4.80612
20
-4.66661
11
4.80528
21
-4.6672
0
LINE
8
BLACK
6
CONTINUOUS
10
4.80528
20
-4.6672
11
4.80327
21
-4.66738
0
LINE
8
BLACK
6
CONTINUOUS
10
4.80327
20
-4.66738
11
4.80162
21
-4.66622
0
LINE
8
BLACK
6
CONTINUOUS
10
4.80162
20
-4.66622
11
4.80109
21
-4.66427
0
LINE
8
BLACK
6
CONTINUOUS
10
4.80109
20
-4.66427
11
4.80195
21
-4.66244
0
LINE
8
BLACK
6
CONTINUOUS
10
4.80195
20
-4.66244
11
4.82183
21
-4.64255
0
LINE
8
BLACK
6
CONTINUOUS
10
4.82183
20
-4.64255
11
4.82255
21
-4.64205
0
LINE
8
BLACK
6
CONTINUOUS
10
4.82255
20
-4.64205
11
4.8226
21
-4.642
0
LINE
8
BLACK
6
CONTINUOUS
10
4.8226
20
-4.642
11
4.8279
21
-4.63935
0
LINE
8
BLACK
6
CONTINUOUS
10
4.8279
20
-4.63935
11
4.82888
21
-4.63906
0
LINE
8
BLACK
6
CONTINUOUS
10
4.82888
20
-4.63906
11
4.82906
21
-4.6391
0
LINE
8
BLACK
6
CONTINUOUS
10
4.82906
20
-4.6391
11
4.82922
21
-4.63904
0
LINE
8
BLACK
6
CONTINUOUS
10
4.82922
20
-4.63904
11
4.83452
21
-4.63904
0
LINE
8
BLACK
6
CONTINUOUS
10
4.83452
20
-4.63904
11
4.83553
21
-4.63921
0
LINE
8
BLACK
6
CONTINUOUS
10
4.80612
20
-4.60676
11
4.82203
21
-4.62267
0
LINE
8
BLACK
6
CONTINUOUS
10
4.82203
20
-4.62267
11
4.82262
21
-4.62351
0
LINE
8
BLACK
6
CONTINUOUS
10
4.82262
20
-4.62351
11
4.82279
21
-4.62552
0
LINE
8
BLACK
6
CONTINUOUS
10
4.82279
20
-4.62552
11
4.82164
21
-4.62717
0
LINE
8
BLACK
6
CONTINUOUS
10
4.82164
20
-4.62717
11
4.81969
21
-4.6277
0
LINE
8
BLACK
6
CONTINUOUS
10
4.81969
20
-4.6277
11
4.81785
21
-4.62684
0
LINE
8
BLACK
6
CONTINUOUS
10
4.81785
20
-4.62684
11
4.81199
21
-4.62098
0
LINE
8
BLACK
6
CONTINUOUS
10
4.81199
20
-4.62098
11
4.7926
21
-4.64036
0
LINE
8
BLACK
6
CONTINUOUS
10
4.7926
20
-4.64036
11
4.79608
21
-4.64036
0
LINE
8
BLACK
6
CONTINUOUS
10
4.79608
20
-4.64036
11
4.79695
21
-4.64051
0
LINE
8
BLACK
6
CONTINUOUS
10
4.79695
20
-4.64051
11
4.79701
21
-4.64051
0
LINE
8
BLACK
6
CONTINUOUS
10
4.79701
20
-4.64051
11
4.80099
21
-4.64184
0
LINE
8
BLACK
6
CONTINUOUS
10
4.80099
20
-4.64184
11
4.80189
21
-4.64233
0
LINE
8
BLACK
6
CONTINUOUS
10
4.80189
20
-4.64233
11
4.80295
21
-4.64405
0
LINE
8
BLACK
6
CONTINUOUS
10
4.80295
20
-4.64405
11
4.80265
21
-4.64605
0
LINE
8
BLACK
6
CONTINUOUS
10
4.80265
20
-4.64605
11
4.80114
21
-4.64739
0
LINE
8
BLACK
6
CONTINUOUS
10
4.80114
20
-4.64739
11
4.79912
21
-4.64744
0
LINE
8
BLACK
6
CONTINUOUS
10
4.79912
20
-4.64744
11
4.7956
21
-4.64627
0
LINE
8
BLACK
6
CONTINUOUS
10
4.7956
20
-4.64627
11
4.79107
21
-4.64627
0
LINE
8
BLACK
6
CONTINUOUS
10
4.79107
20
-4.64627
11
4.78473
21
-4.64754
0
LINE
8
BLACK
6
CONTINUOUS
10
4.78473
20
-4.64754
11
4.7837
21
-4.64756
0
LINE
8
BLACK
6
CONTINUOUS
10
4.7837
20
-4.64756
11
4.78355
21
-4.64748
0
LINE
8
BLACK
6
CONTINUOUS
10
4.78355
20
-4.64748
11
4.78339
21
-4.64749
0
LINE
8
BLACK
6
CONTINUOUS
10
4.78339
20
-4.64749
11
4.78268
21
-4.647
0
LINE
8
BLACK
6
CONTINUOUS
10
4.78268
20
-4.647
11
4.78193
21
-4.64659
0
LINE
8
BLACK
6
CONTINUOUS
10
4.78193
20
-4.64659
11
4.78187
21
-4.64643
0
LINE
8
BLACK
6
CONTINUOUS
10
4.78187
20
-4.64643
11
4.78173
21
-4.64633
0
LINE
8
BLACK
6
CONTINUOUS
10
4.78173
20
-4.64633
11
4.78151
21
-4.64551
0
LINE
8
BLACK
6
CONTINUOUS
10
4.78151
20
-4.64551
11
4.7812
21
-4.64471
0
LINE
8
BLACK
6
CONTINUOUS
10
4.7812
20
-4.64471
11
4.78125
21
-4.64455
0
LINE
8
BLACK
6
CONTINUOUS
10
4.78125
20
-4.64455
11
4.78121
21
-4.64438
0
LINE
8
BLACK
6
CONTINUOUS
10
4.78121
20
-4.64438
11
4.78157
21
-4.64361
0
LINE
8
BLACK
6
CONTINUOUS
10
4.78157
20
-4.64361
11
4.78184
21
-4.64279
0
LINE
8
BLACK
6
CONTINUOUS
10
4.78184
20
-4.64279
11
4.78199
21
-4.64271
0
LINE
8
BLACK
6
CONTINUOUS
10
4.78199
20
-4.64271
11
4.78206
21
-4.64255
0
LINE
8
BLACK
6
CONTINUOUS
10
4.78206
20
-4.64255
11
4.80781
21
-4.6168
0
LINE
8
BLACK
6
CONTINUOUS
10
4.80781
20
-4.6168
11
4.80195
21
-4.61093
0
LINE
8
BLACK
6
CONTINUOUS
10
4.80195
20
-4.61093
11
4.80136
21
-4.61009
0
LINE
8
BLACK
6
CONTINUOUS
10
4.80136
20
-4.61009
11
4.80118
21
-4.60808
0
LINE
8
BLACK
6
CONTINUOUS
10
4.80118
20
-4.60808
11
4.80234
21
-4.60643
0
LINE
8
BLACK
6
CONTINUOUS
10
4.80234
20
-4.60643
11
4.80429
21
-4.60591
0
LINE
8
BLACK
6
CONTINUOUS
10
4.80429
20
-4.60591
11
4.80612
21
-4.60676
0
LINE
8
BLACK
6
CONTINUOUS
10
5.36979
20
-4.62075
11
5.37005
21
-4.62073
0
LINE
8
BLACK
6
CONTINUOUS
10
5.37005
20
-4.62073
11
5.37068
21
-4.62117
0
LINE
8
BLACK
6
CONTINUOUS
10
5.37068
20
-4.62117
11
5.37138
21
-4.62149
0
LINE
8
BLACK
6
CONTINUOUS
10
5.37138
20
-4.62149
11
5.58351
21
-4.83362
0
LINE
8
BLACK
6
CONTINUOUS
10
5.58351
20
-4.83362
11
5.58373
21
-4.83394
0
LINE
8
BLACK
6
CONTINUOUS
10
5.58373
20
-4.83394
11
5.58384
21
-4.83402
0
LINE
8
BLACK
6
CONTINUOUS
10
5.58384
20
-4.83402
11
5.58387
21
-4.83414
0
LINE
8
BLACK
6
CONTINUOUS
10
5.58387
20
-4.83414
11
5.5841
21
-4.83446
0
LINE
8
BLACK
6
CONTINUOUS
10
5.5841
20
-4.83446
11
5.58416
21
-4.83523
0
LINE
8
BLACK
6
CONTINUOUS
10
5.58416
20
-4.83523
11
5.58436
21
-4.83597
0
LINE
8
BLACK
6
CONTINUOUS
10
5.58436
20
-4.83597
11
5.58425
21
-4.83621
0
LINE
8
BLACK
6
CONTINUOUS
10
5.58425
20
-4.83621
11
5.58427
21
-4.83647
0
LINE
8
BLACK
6
CONTINUOUS
10
5.58427
20
-4.83647
11
5.58383
21
-4.8371
0
LINE
8
BLACK
6
CONTINUOUS
10
5.58383
20
-4.8371
11
5.58351
21
-4.8378
0
LINE
8
BLACK
6
CONTINUOUS
10
5.58351
20
-4.8378
11
5.44209
21
-4.97922
0
LINE
8
BLACK
6
CONTINUOUS
10
5.44209
20
-4.97922
11
5.44177
21
-4.97944
0
LINE
8
BLACK
6
CONTINUOUS
10
5.44177
20
-4.97944
11
5.44169
21
-4.97955
0
LINE
8
BLACK
6
CONTINUOUS
10
5.44169
20
-4.97955
11
5.44157
21
-4.97958
0
LINE
8
BLACK
6
CONTINUOUS
10
5.44157
20
-4.97958
11
5.44125
21
-4.97981
0
LINE
8
BLACK
6
CONTINUOUS
10
5.44125
20
-4.97981
11
5.44048
21
-4.97988
0
LINE
8
BLACK
6
CONTINUOUS
10
5.44048
20
-4.97988
11
5.43974
21
-4.98007
0
LINE
8
BLACK
6
CONTINUOUS
10
5.43974
20
-4.98007
11
5.4395
21
-4.97996
0
LINE
8
BLACK
6
CONTINUOUS
10
5.4395
20
-4.97996
11
5.43924
21
-4.97998
0
LINE
8
BLACK
6
CONTINUOUS
10
5.43924
20
-4.97998
11
5.43861
21
-4.97954
0
LINE
8
BLACK
6
CONTINUOUS
10
5.43861
20
-4.97954
11
5.43791
21
-4.97922
0
LINE
8
BLACK
6
CONTINUOUS
10
5.43791
20
-4.97922
11
5.22578
21
-4.76709
0
LINE
8
BLACK
6
CONTINUOUS
10
5.22578
20
-4.76709
11
5.22556
21
-4.76677
0
LINE
8
BLACK
6
CONTINUOUS
10
5.22556
20
-4.76677
11
5.22545
21
-4.76669
0
LINE
8
BLACK
6
CONTINUOUS
10
5.22545
20
-4.76669
11
5.22542
21
-4.76657
0
LINE
8
BLACK
6
CONTINUOUS
10
5.22542
20
-4.76657
11
5.22519
21
-4.76625
0
LINE
8
BLACK
6
CONTINUOUS
10
5.22519
20
-4.76625
11
5.22512
21
-4.76548
0
LINE
8
BLACK
6
CONTINUOUS
10
5.22512
20
-4.76548
11
5.22493
21
-4.76474
0
LINE
8
BLACK
6
CONTINUOUS
10
5.22493
20
-4.76474
11
5.22504
21
-4.7645
0
LINE
8
BLACK
6
CONTINUOUS
10
5.22504
20
-4.7645
11
5.22502
21
-4.76424
0
LINE
8
BLACK
6
CONTINUOUS
10
5.22502
20
-4.76424
11
5.22546
21
-4.76361
0
LINE
8
BLACK
6
CONTINUOUS
10
5.22546
20
-4.76361
11
5.22578
21
-4.76291
0
LINE
8
BLACK
6
CONTINUOUS
10
5.22578
20
-4.76291
11
5.3672
21
-4.62149
0
LINE
8
BLACK
6
CONTINUOUS
10
5.3672
20
-4.62149
11
5.36752
21
-4.62127
0
LINE
8
BLACK
6
CONTINUOUS
10
5.36752
20
-4.62127
11
5.3676
21
-4.62116
0
LINE
8
BLACK
6
CONTINUOUS
10
5.3676
20
-4.62116
11
5.36772
21
-4.62113
0
LINE
8
BLACK
6
CONTINUOUS
10
5.36772
20
-4.62113
11
5.36804
21
-4.6209
0
LINE
8
BLACK
6
CONTINUOUS
10
5.36804
20
-4.6209
11
5.36881
21
-4.62084
0
LINE
8
BLACK
6
CONTINUOUS
10
5.36881
20
-4.62084
11
5.36955
21
-4.62064
0
LINE
8
BLACK
6
CONTINUOUS
10
5.36955
20
-4.62064
11
5.36979
21
-4.62075
0
LINE
8
BLACK
6
CONTINUOUS
10
5.23204
20
-4.765
11
5.44
21
-4.97296
0
LINE
8
BLACK
6
CONTINUOUS
10
5.44
20
-4.97296
11
5.57725
21
-4.83571
0
LINE
8
BLACK
6
CONTINUOUS
10
5.57725
20
-4.83571
11
5.36929
21
-4.62775
0
LINE
8
BLACK
6
CONTINUOUS
10
5.36929
20
-4.62775
11
5.23204
21
-4.765
0
LINE
8
BLACK
6
CONTINUOUS
10
5.60776
20
-4.72943
11
5.60871
21
-4.72948
0
LINE
8
BLACK
6
CONTINUOUS
10
5.60871
20
-4.72948
11
5.61468
21
-4.73147
0
LINE
8
BLACK
6
CONTINUOUS
10
5.61468
20
-4.73147
11
5.61581
21
-4.73222
0
LINE
8
BLACK
6
CONTINUOUS
10
5.61581
20
-4.73222
11
5.61699
21
-4.7329
0
LINE
8
BLACK
6
CONTINUOUS
10
5.61699
20
-4.7329
11
5.62693
21
-4.74284
0
LINE
8
BLACK
6
CONTINUOUS
10
5.62693
20
-4.74284
11
5.62761
21
-4.74402
0
LINE
8
BLACK
6
CONTINUOUS
10
5.62761
20
-4.74402
11
5.62835
21
-4.74515
0
LINE
8
BLACK
6
CONTINUOUS
10
5.62835
20
-4.74515
11
5.63034
21
-4.75112
0
LINE
8
BLACK
6
CONTINUOUS
10
5.63034
20
-4.75112
11
5.6304
21
-4.75206
0
LINE
8
BLACK
6
CONTINUOUS
10
5.6304
20
-4.75206
11
5.63065
21
-4.75298
0
LINE
8
BLACK
6
CONTINUOUS
10
5.63065
20
-4.75298
11
5.63065
21
-4.75696
0
LINE
8
BLACK
6
CONTINUOUS
10
5.63065
20
-4.75696
11
5.6304
21
-4.75788
0
LINE
8
BLACK
6
CONTINUOUS
10
5.6304
20
-4.75788
11
5.63034
21
-4.75883
0
LINE
8
BLACK
6
CONTINUOUS
10
5.63034
20
-4.75883
11
5.62835
21
-4.76479
0
LINE
8
BLACK
6
CONTINUOUS
10
5.62835
20
-4.76479
11
5.62761
21
-4.76593
0
LINE
8
BLACK
6
CONTINUOUS
10
5.62761
20
-4.76593
11
5.62693
21
-4.7671
0
LINE
8
BLACK
6
CONTINUOUS
10
5.62693
20
-4.7671
11
5.62295
21
-4.77108
0
LINE
8
BLACK
6
CONTINUOUS
10
5.62295
20
-4.77108
11
5.62213
21
-4.77155
0
LINE
8
BLACK
6
CONTINUOUS
10
5.62213
20
-4.77155
11
5.62142
21
-4.77218
0
LINE
8
BLACK
6
CONTINUOUS
10
5.62142
20
-4.77218
11
5.61346
21
-4.77616
0
LINE
8
BLACK
6
CONTINUOUS
10
5.61346
20
-4.77616
11
5.61213
21
-4.77643
0
LINE
8
BLACK
6
CONTINUOUS
10
5.61213
20
-4.77643
11
5.61082
21
-4.77678
0
LINE
8
BLACK
6
CONTINUOUS
10
5.61082
20
-4.77678
11
5.57735
21
-4.77678
0
LINE
8
BLACK
6
CONTINUOUS
10
5.57735
20
-4.77678
11
5.59312
21
-4.79255
0
LINE
8
BLACK
6
CONTINUOUS
10
5.59312
20
-4.79255
11
5.59465
21
-4.7952
0
LINE
8
BLACK
6
CONTINUOUS
10
5.59465
20
-4.7952
11
5.59465
21
-4.79826
0
LINE
8
BLACK
6
CONTINUOUS
10
5.59465
20
-4.79826
11
5.59312
21
-4.80091
0
LINE
8
BLACK
6
CONTINUOUS
10
5.59312
20
-4.80091
11
5.59048
21
-4.80243
0
LINE
8
BLACK
6
CONTINUOUS
10
5.59048
20
-4.80243
11
5.58742
21
-4.80243
0
LINE
8
BLACK
6
CONTINUOUS
10
5.58742
20
-4.80243
11
5.58477
21
-4.80091
0
LINE
8
BLACK
6
CONTINUOUS
10
5.58477
20
-4.80091
11
5.55892
21
-4.77505
0
LINE
8
BLACK
6
CONTINUOUS
10
5.55892
20
-4.77505
11
5.55853
21
-4.77438
0
LINE
8
BLACK
6
CONTINUOUS
10
5.55853
20
-4.77438
11
5.55798
21
-4.77383
0
LINE
8
BLACK
6
CONTINUOUS
10
5.55798
20
-4.77383
11
5.55778
21
-4.77308
0
LINE
8
BLACK
6
CONTINUOUS
10
5.55778
20
-4.77308
11
5.55739
21
-4.77241
0
LINE
8
BLACK
6
CONTINUOUS
10
5.55739
20
-4.77241
11
5.55739
21
-4.77163
0
LINE
8
BLACK
6
CONTINUOUS
10
5.55739
20
-4.77163
11
5.55719
21
-4.77088
0
LINE
8
BLACK
6
CONTINUOUS
10
5.55719
20
-4.77088
11
5.55739
21
-4.77013
0
LINE
8
BLACK
6
CONTINUOUS
10
5.55739
20
-4.77013
11
5.55739
21
-4.76935
0
LINE
8
BLACK
6
CONTINUOUS
10
5.55739
20
-4.76935
11
5.55778
21
-4.76868
0
LINE
8
BLACK
6
CONTINUOUS
10
5.55778
20
-4.76868
11
5.55798
21
-4.76793
0
LINE
8
BLACK
6
CONTINUOUS
10
5.55798
20
-4.76793
11
5.55853
21
-4.76738
0
LINE
8
BLACK
6
CONTINUOUS
10
5.55853
20
-4.76738
11
5.55892
21
-4.7667
0
LINE
8
BLACK
6
CONTINUOUS
10
5.55892
20
-4.7667
11
5.5596
21
-4.76631
0
LINE
8
BLACK
6
CONTINUOUS
10
5.5596
20
-4.76631
11
5.56015
21
-4.76576
0
LINE
8
BLACK
6
CONTINUOUS
10
5.56015
20
-4.76576
11
5.5609
21
-4.76556
0
LINE
8
BLACK
6
CONTINUOUS
10
5.5609
20
-4.76556
11
5.56157
21
-4.76517
0
LINE
8
BLACK
6
CONTINUOUS
10
5.56157
20
-4.76517
11
5.56235
21
-4.76517
0
LINE
8
BLACK
6
CONTINUOUS
10
5.56235
20
-4.76517
11
5.5631
21
-4.76497
0
LINE
8
BLACK
6
CONTINUOUS
10
5.5631
20
-4.76497
11
5.60943
21
-4.76497
0
LINE
8
BLACK
6
CONTINUOUS
10
5.60943
20
-4.76497
11
5.61528
21
-4.76205
0
LINE
8
BLACK
6
CONTINUOUS
10
5.61528
20
-4.76205
11
5.61759
21
-4.75974
0
LINE
8
BLACK
6
CONTINUOUS
10
5.61759
20
-4.75974
11
5.61884
21
-4.756
0
LINE
8
BLACK
6
CONTINUOUS
10
5.61884
20
-4.756
11
5.61884
21
-4.75394
0
LINE
8
BLACK
6
CONTINUOUS
10
5.61884
20
-4.75394
11
5.61759
21
-4.75021
0
LINE
8
BLACK
6
CONTINUOUS
10
5.61759
20
-4.75021
11
5.60962
21
-4.74224
0
LINE
8
BLACK
6
CONTINUOUS
10
5.60962
20
-4.74224
11
5.60589
21
-4.74099
0
LINE
8
BLACK
6
CONTINUOUS
10
5.60589
20
-4.74099
11
5.60287
21
-4.74099
0
LINE
8
BLACK
6
CONTINUOUS
10
5.60287
20
-4.74099
11
5.59991
21
-4.7402
0
LINE
8
BLACK
6
CONTINUOUS
10
5.59991
20
-4.7402
11
5.59775
21
-4.73804
0
LINE
8
BLACK
6
CONTINUOUS
10
5.59775
20
-4.73804
11
5.59696
21
-4.73509
0
LINE
8
BLACK
6
CONTINUOUS
10
5.59696
20
-4.73509
11
5.59775
21
-4.73213
0
LINE
8
BLACK
6
CONTINUOUS
10
5.59775
20
-4.73213
11
5.59991
21
-4.72997
0
LINE
8
BLACK
6
CONTINUOUS
10
5.59991
20
-4.72997
11
5.60287
21
-4.72918
0
LINE
8
BLACK
6
CONTINUOUS
10
5.60287
20
-4.72918
11
5.60684
21
-4.72918
0
LINE
8
BLACK
6
CONTINUOUS
10
5.60684
20
-4.72918
11
5.60776
21
-4.72943
0
LINE
8
BLACK
6
CONTINUOUS
10
5.59312
20
-4.70904
11
5.59465
21
-4.71168
0
LINE
8
BLACK
6
CONTINUOUS
10
5.59465
20
-4.71168
11
5.59465
21
-4.71474
0
LINE
8
BLACK
6
CONTINUOUS
10
5.59465
20
-4.71474
11
5.59312
21
-4.71739
0
LINE
8
BLACK
6
CONTINUOUS
10
5.59312
20
-4.71739
11
5.5633
21
-4.74722
0
LINE
8
BLACK
6
CONTINUOUS
10
5.5633
20
-4.74722
11
5.56247
21
-4.74769
0
LINE
8
BLACK
6
CONTINUOUS
10
5.56247
20
-4.74769
11
5.56176
21
-4.74832
0
LINE
8
BLACK
6
CONTINUOUS
10
5.56176
20
-4.74832
11
5.55381
21
-4.7523
0
LINE
8
BLACK
6
CONTINUOUS
10
5.55381
20
-4.7523
11
5.55248
21
-4.75257
0
LINE
8
BLACK
6
CONTINUOUS
10
5.55248
20
-4.75257
11
5.55117
21
-4.75292
0
LINE
8
BLACK
6
CONTINUOUS
10
5.55117
20
-4.75292
11
5.54321
21
-4.75292
0
LINE
8
BLACK
6
CONTINUOUS
10
5.54321
20
-4.75292
11
5.5419
21
-4.75257
0
LINE
8
BLACK
6
CONTINUOUS
10
5.5419
20
-4.75257
11
5.54057
21
-4.7523
0
LINE
8
BLACK
6
CONTINUOUS
10
5.54057
20
-4.7523
11
5.53262
21
-4.74832
0
LINE
8
BLACK
6
CONTINUOUS
10
5.53262
20
-4.74832
11
5.53191
21
-4.74769
0
LINE
8
BLACK
6
CONTINUOUS
10
5.53191
20
-4.74769
11
5.53108
21
-4.74722
0
LINE
8
BLACK
6
CONTINUOUS
10
5.53108
20
-4.74722
11
5.52711
21
-4.74324
0
LINE
8
BLACK
6
CONTINUOUS
10
5.52711
20
-4.74324
11
5.52558
21
-4.74059
0
LINE
8
BLACK
6
CONTINUOUS
10
5.52558
20
-4.74059
11
5.52558
21
-4.73753
0
LINE
8
BLACK
6
CONTINUOUS
10
5.52558
20
-4.73753
11
5.52711
21
-4.73489
0
LINE
8
BLACK
6
CONTINUOUS
10
5.52711
20
-4.73489
11
5.52975
21
-4.73336
0
LINE
8
BLACK
6
CONTINUOUS
10
5.52975
20
-4.73336
11
5.53281
21
-4.73336
0
LINE
8
BLACK
6
CONTINUOUS
10
5.53281
20
-4.73336
11
5.53546
21
-4.73489
0
LINE
8
BLACK
6
CONTINUOUS
10
5.53546
20
-4.73489
11
5.53876
21
-4.73819
0
LINE
8
BLACK
6
CONTINUOUS
10
5.53876
20
-4.73819
11
5.54461
21
-4.74111
0
LINE
8
BLACK
6
CONTINUOUS
10
5.54461
20
-4.74111
11
5.54977
21
-4.74111
0
LINE
8
BLACK
6
CONTINUOUS
10
5.54977
20
-4.74111
11
5.55562
21
-4.73819
0
LINE
8
BLACK
6
CONTINUOUS
10
5.55562
20
-4.73819
11
5.58477
21
-4.70904
0
LINE
8
BLACK
6
CONTINUOUS
10
5.58477
20
-4.70904
11
5.58742
21
-4.70751
0
LINE
8
BLACK
6
CONTINUOUS
10
5.58742
20
-4.70751
11
5.59048
21
-4.70751
0
LINE
8
BLACK
6
CONTINUOUS
10
5.59048
20
-4.70751
11
5.59312
21
-4.70904
0
LINE
8
BLACK
6
CONTINUOUS
10
6.42239
20
-4.26062
11
6.42291
21
-4.26257
0
LINE
8
BLACK
6
CONTINUOUS
10
6.42291
20
-4.26257
11
6.42206
21
-4.2644
0
LINE
8
BLACK
6
CONTINUOUS
10
6.42206
20
-4.2644
11
6.41119
21
-4.27526
0
LINE
8
BLACK
6
CONTINUOUS
10
6.41119
20
-4.27526
11
6.43588
21
-4.27526
0
LINE
8
BLACK
6
CONTINUOUS
10
6.43588
20
-4.27526
11
6.43689
21
-4.27544
0
LINE
8
BLACK
6
CONTINUOUS
10
6.43689
20
-4.27544
11
6.43844
21
-4.27674
0
LINE
8
BLACK
6
CONTINUOUS
10
6.43844
20
-4.27674
11
6.43879
21
-4.27873
0
LINE
8
BLACK
6
CONTINUOUS
10
6.43879
20
-4.27873
11
6.43778
21
-4.28048
0
LINE
8
BLACK
6
CONTINUOUS
10
6.43778
20
-4.28048
11
6.43588
21
-4.28117
0
LINE
8
BLACK
6
CONTINUOUS
10
6.43588
20
-4.28117
11
6.41458
21
-4.28117
0
LINE
8
BLACK
6
CONTINUOUS
10
6.41458
20
-4.28117
11
6.41096
21
-4.30647
0
LINE
8
BLACK
6
CONTINUOUS
10
6.41096
20
-4.30647
11
6.41064
21
-4.30745
0
LINE
8
BLACK
6
CONTINUOUS
10
6.41064
20
-4.30745
11
6.40914
21
-4.3088
0
LINE
8
BLACK
6
CONTINUOUS
10
6.40914
20
-4.3088
11
6.40712
21
-4.30886
0
LINE
8
BLACK
6
CONTINUOUS
10
6.40712
20
-4.30886
11
6.40553
21
-4.30762
0
LINE
8
BLACK
6
CONTINUOUS
10
6.40553
20
-4.30762
11
6.40512
21
-4.30564
0
LINE
8
BLACK
6
CONTINUOUS
10
6.40512
20
-4.30564
11
6.40861
21
-4.28117
0
LINE
8
BLACK
6
CONTINUOUS
10
6.40861
20
-4.28117
11
6.40529
21
-4.28117
0
LINE
8
BLACK
6
CONTINUOUS
10
6.40529
20
-4.28117
11
6.39422
21
-4.29224
0
LINE
8
BLACK
6
CONTINUOUS
10
6.39422
20
-4.29224
11
6.39338
21
-4.29282
0
LINE
8
BLACK
6
CONTINUOUS
10
6.39338
20
-4.29282
11
6.39137
21
-4.293
0
LINE
8
BLACK
6
CONTINUOUS
10
6.39137
20
-4.293
11
6.38971
21
-4.29184
0
LINE
8
BLACK
6
CONTINUOUS
10
6.38971
20
-4.29184
11
6.38919
21
-4.28989
0
LINE
8
BLACK
6
CONTINUOUS
10
6.38919
20
-4.28989
11
6.39004
21
-4.28806
0
LINE
8
BLACK
6
CONTINUOUS
10
6.39004
20
-4.28806
11
6.41788
21
-4.26022
0
LINE
8
BLACK
6
CONTINUOUS
10
6.41788
20
-4.26022
11
6.41872
21
-4.25963
0
LINE
8
BLACK
6
CONTINUOUS
10
6.41872
20
-4.25963
11
6.42074
21
-4.25946
0
LINE
8
BLACK
6
CONTINUOUS
10
6.42074
20
-4.25946
11
6.42239
21
-4.26062
0
LINE
8
BLACK
6
CONTINUOUS
10
4.92394
20
-2.56504
11
4.95178
21
-2.59288
0
LINE
8
BLACK
6
CONTINUOUS
10
4.95178
20
-2.59288
11
4.95237
21
-2.59372
0
LINE
8
BLACK
6
CONTINUOUS
10
4.95237
20
-2.59372
11
4.95254
21
-2.59574
0
LINE
8
BLACK
6
CONTINUOUS
10
4.95254
20
-2.59574
11
4.95138
21
-2.59739
0
LINE
8
BLACK
6
CONTINUOUS
10
4.95138
20
-2.59739
11
4.94943
21
-2.59791
0
LINE
8
BLACK
6
CONTINUOUS
10
4.94943
20
-2.59791
11
4.9476
21
-2.59706
0
LINE
8
BLACK
6
CONTINUOUS
10
4.9476
20
-2.59706
11
4.93674
21
-2.58619
0
LINE
8
BLACK
6
CONTINUOUS
10
4.93674
20
-2.58619
11
4.93674
21
-2.61088
0
LINE
8
BLACK
6
CONTINUOUS
10
4.93674
20
-2.61088
11
4.93656
21
-2.61189
0
LINE
8
BLACK
6
CONTINUOUS
10
4.93656
20
-2.61189
11
4.93526
21
-2.61344
0
LINE
8
BLACK
6
CONTINUOUS
10
4.93526
20
-2.61344
11
4.93327
21
-2.61379
0
LINE
8
BLACK
6
CONTINUOUS
10
4.93327
20
-2.61379
11
4.93152
21
-2.61278
0
LINE
8
BLACK
6
CONTINUOUS
10
4.93152
20
-2.61278
11
4.93083
21
-2.61088
0
LINE
8
BLACK
6
CONTINUOUS
10
4.93083
20
-2.61088
11
4.93083
21
-2.58958
0
LINE
8
BLACK
6
CONTINUOUS
10
4.93083
20
-2.58958
11
4.90553
21
-2.58596
0
LINE
8
BLACK
6
CONTINUOUS
10
4.90553
20
-2.58596
11
4.90455
21
-2.58564
0
LINE
8
BLACK
6
CONTINUOUS
10
4.90455
20
-2.58564
11
4.9032
21
-2.58414
0
LINE
8
BLACK
6
CONTINUOUS
10
4.9032
20
-2.58414
11
4.90314
21
-2.58212
0
LINE
8
BLACK
6
CONTINUOUS
10
4.90314
20
-2.58212
11
4.90438
21
-2.58053
0
LINE
8
BLACK
6
CONTINUOUS
10
4.90438
20
-2.58053
11
4.90636
21
-2.58012
0
LINE
8
BLACK
6
CONTINUOUS
10
4.90636
20
-2.58012
11
4.93083
21
-2.58361
0
LINE
8
BLACK
6
CONTINUOUS
10
4.93083
20
-2.58361
11
4.93083
21
-2.58029
0
LINE
8
BLACK
6
CONTINUOUS
10
4.93083
20
-2.58029
11
4.91976
21
-2.56922
0
LINE
8
BLACK
6
CONTINUOUS
10
4.91976
20
-2.56922
11
4.91918
21
-2.56838
0
LINE
8
BLACK
6
CONTINUOUS
10
4.91918
20
-2.56838
11
4.919
21
-2.56637
0
LINE
8
BLACK
6
CONTINUOUS
10
4.919
20
-2.56637
11
4.92016
21
-2.56471
0
LINE
8
BLACK
6
CONTINUOUS
10
4.92016
20
-2.56471
11
4.92211
21
-2.56419
0
LINE
8
BLACK
6
CONTINUOUS
10
4.92211
20
-2.56419
11
4.92394
21
-2.56504
  0
ENDSEC
  0
EOF
