  0
SECTION
  2
HEADER
  9
$ANGBASE
  50
0.0
  9
$ANGDIR
  70
1
  9
$MEASUREMENT
  70
0
  0
ENDSEC
  0
SECTION
  2
TABLES
  0
TABLE
  2
LTYPE
  70
4
  0
LTYPE
  5
40F
  2
CONTINUOUS
  70
0
  3
Solid line
  72
65
  73
0
  40
0.0
  0
LTYPE
  5
410
  2
DASHDOT
 70
0
  3
Dash Dot ____ _ ____ _
 72
65
 73
4
 40
2.0
 49
1.25
 49
-0.25
 49
0.25
 49
-0.25
  0
LTYPE
  5
411
  2
DASHED
 70
0
  3
Dashed __ __ __ __ __
 72
65
 73
2
 40
0.75
 49
0.5
 49
-0.25
  0
LTYPE
  5
43B
  2
DOTTED
 70
0
  3
Dotted .  .  .  .
 72
65
 73
2
 40
0.2
 49
0.0
 49
-0.2
  0
ENDTAB
  0
TABLE
  2
STYLE
  70
4
  0
STYLE
  2
KICAD
  70
0
  40
0
  41
1
  42
1
  50
0
  71
0
  3
isocp.shx
  0
STYLE
  2
KICADB
  70
0
  40
0
  41
1
  42
1
  50
0
  71
0
  3
isocp.shx
  0
STYLE
  2
KICADI
  70
0
  40
0
  41
1
  42
1
  50
15
  71
0
  3
isocp.shx
  0
STYLE
  2
KICADBI
  70
0
  40
0
  41
1
  42
1
  50
15
  71
0
  3
isocp.shx
  0
ENDTAB
  0
TABLE
  2
LAYER
  70
1
  0
LAYER
  2
BLACK
  70
0
  62
7
  6
CONTINUOUS
  0
ENDTAB
  0
ENDSEC
  0
SECTION
  2
ENTITIES
0
CIRCLE
8
BLACK
10
4.51498
20
-4.29744
40
0.0393701
0
CIRCLE
8
BLACK
10
4.86714
20
-5.00594
40
0.0393701
0
CIRCLE
8
BLACK
10
5.15138
20
-4.93384
40
0.0393701
0
CIRCLE
8
BLACK
10
4.93924
20
-4.72171
40
0.0393701
0
CIRCLE
8
BLACK
10
4.72711
20
-4.50957
40
0.0393701
0
CIRCLE
8
BLACK
10
4.44288
20
-4.58168
40
0.0393701
0
CIRCLE
8
BLACK
10
4.37286
20
-4.33349
40
0.0570866
0
CIRCLE
8
BLACK
10
4.47893
20
-4.43956
40
0.0570866
0
CIRCLE
8
BLACK
10
4.585
20
-4.54563
40
0.0570866
0
CIRCLE
8
BLACK
10
4.69106
20
-4.65169
40
0.0570866
0
CIRCLE
8
BLACK
10
4.79713
20
-4.75776
40
0.0570866
0
CIRCLE
8
BLACK
10
4.90319
20
-4.86382
40
0.0570866
0
CIRCLE
8
BLACK
10
5.00926
20
-4.96989
40
0.0570866
0
CIRCLE
8
BLACK
10
5.11533
20
-5.07596
40
0.0570866
0
LINE
8
BLACK
6
CONTINUOUS
10
5.25058
20
-4.77057
11
5.24888
21
-4.76801
0
LINE
8
BLACK
6
CONTINUOUS
10
5.24888
20
-4.76801
11
5.24828
21
-4.765
0
LINE
8
BLACK
6
CONTINUOUS
10
5.24828
20
-4.765
11
5.24888
21
-4.76199
0
LINE
8
BLACK
6
CONTINUOUS
10
5.24888
20
-4.76199
11
5.25058
21
-4.75943
0
LINE
8
BLACK
6
CONTINUOUS
10
5.25058
20
-4.75943
11
5.29301
21
-4.71701
0
LINE
8
BLACK
6
CONTINUOUS
10
5.29301
20
-4.71701
11
5.29557
21
-4.7153
0
LINE
8
BLACK
6
CONTINUOUS
10
5.29557
20
-4.7153
11
5.29858
21
-4.7147
0
LINE
8
BLACK
6
CONTINUOUS
10
5.29858
20
-4.7147
11
5.30159
21
-4.7153
0
LINE
8
BLACK
6
CONTINUOUS
10
5.30159
20
-4.7153
11
5.30415
21
-4.71701
0
LINE
8
BLACK
6
CONTINUOUS
10
5.30415
20
-4.71701
11
5.34657
21
-4.75943
0
LINE
8
BLACK
6
CONTINUOUS
10
5.34657
20
-4.75943
11
5.34828
21
-4.76199
0
LINE
8
BLACK
6
CONTINUOUS
10
5.34828
20
-4.76199
11
5.34888
21
-4.765
0
LINE
8
BLACK
6
CONTINUOUS
10
5.34888
20
-4.765
11
5.34828
21
-4.76801
0
LINE
8
BLACK
6
CONTINUOUS
10
5.34828
20
-4.76801
11
5.34657
21
-4.77057
0
LINE
8
BLACK
6
CONTINUOUS
10
5.34657
20
-4.77057
11
5.30415
21
-4.81299
0
LINE
8
BLACK
6
CONTINUOUS
10
5.30415
20
-4.81299
11
5.30159
21
-4.8147
0
LINE
8
BLACK
6
CONTINUOUS
10
5.30159
20
-4.8147
11
5.29858
21
-4.8153
0
LINE
8
BLACK
6
CONTINUOUS
10
5.29858
20
-4.8153
11
5.29557
21
-4.8147
0
LINE
8
BLACK
6
CONTINUOUS
10
5.29557
20
-4.8147
11
5.29301
21
-4.81299
0
LINE
8
BLACK
6
CONTINUOUS
10
5.29301
20
-4.81299
11
5.25058
21
-4.77057
0
LINE
8
BLACK
6
CONTINUOUS
10
5.3213
20
-4.69986
11
5.31959
21
-4.6973
0
LINE
8
BLACK
6
CONTINUOUS
10
5.31959
20
-4.6973
11
5.31899
21
-4.69429
0
LINE
8
BLACK
6
CONTINUOUS
10
5.31899
20
-4.69429
11
5.31959
21
-4.69128
0
LINE
8
BLACK
6
CONTINUOUS
10
5.31959
20
-4.69128
11
5.3213
21
-4.68872
0
LINE
8
BLACK
6
CONTINUOUS
10
5.3213
20
-4.68872
11
5.36372
21
-4.6463
0
LINE
8
BLACK
6
CONTINUOUS
10
5.36372
20
-4.6463
11
5.36628
21
-4.64459
0
LINE
8
BLACK
6
CONTINUOUS
10
5.36628
20
-4.64459
11
5.36929
21
-4.64399
0
LINE
8
BLACK
6
CONTINUOUS
10
5.36929
20
-4.64399
11
5.3723
21
-4.64459
0
LINE
8
BLACK
6
CONTINUOUS
10
5.3723
20
-4.64459
11
5.37486
21
-4.6463
0
LINE
8
BLACK
6
CONTINUOUS
10
5.37486
20
-4.6463
11
5.41728
21
-4.68872
0
LINE
8
BLACK
6
CONTINUOUS
10
5.41728
20
-4.68872
11
5.41899
21
-4.69128
0
LINE
8
BLACK
6
CONTINUOUS
10
5.41899
20
-4.69128
11
5.41959
21
-4.69429
0
LINE
8
BLACK
6
CONTINUOUS
10
5.41959
20
-4.69429
11
5.41899
21
-4.6973
0
LINE
8
BLACK
6
CONTINUOUS
10
5.41899
20
-4.6973
11
5.41728
21
-4.69986
0
LINE
8
BLACK
6
CONTINUOUS
10
5.41728
20
-4.69986
11
5.37486
21
-4.74228
0
LINE
8
BLACK
6
CONTINUOUS
10
5.37486
20
-4.74228
11
5.3723
21
-4.74399
0
LINE
8
BLACK
6
CONTINUOUS
10
5.3723
20
-4.74399
11
5.36929
21
-4.74459
0
LINE
8
BLACK
6
CONTINUOUS
10
5.36929
20
-4.74459
11
5.36628
21
-4.74399
0
LINE
8
BLACK
6
CONTINUOUS
10
5.36628
20
-4.74399
11
5.36372
21
-4.74228
0
LINE
8
BLACK
6
CONTINUOUS
10
5.36372
20
-4.74228
11
5.3213
21
-4.69986
0
LINE
8
BLACK
6
CONTINUOUS
10
5.3213
20
-4.84128
11
5.31959
21
-4.83872
0
LINE
8
BLACK
6
CONTINUOUS
10
5.31959
20
-4.83872
11
5.31899
21
-4.83571
0
LINE
8
BLACK
6
CONTINUOUS
10
5.31899
20
-4.83571
11
5.31959
21
-4.8327
0
LINE
8
BLACK
6
CONTINUOUS
10
5.31959
20
-4.8327
11
5.3213
21
-4.83014
0
LINE
8
BLACK
6
CONTINUOUS
10
5.3213
20
-4.83014
11
5.36372
21
-4.78772
0
LINE
8
BLACK
6
CONTINUOUS
10
5.36372
20
-4.78772
11
5.36628
21
-4.78601
0
LINE
8
BLACK
6
CONTINUOUS
10
5.36628
20
-4.78601
11
5.36929
21
-4.78541
0
LINE
8
BLACK
6
CONTINUOUS
10
5.36929
20
-4.78541
11
5.3723
21
-4.78601
0
LINE
8
BLACK
6
CONTINUOUS
10
5.3723
20
-4.78601
11
5.37486
21
-4.78772
0
LINE
8
BLACK
6
CONTINUOUS
10
5.37486
20
-4.78772
11
5.41728
21
-4.83014
0
LINE
8
BLACK
6
CONTINUOUS
10
5.41728
20
-4.83014
11
5.41899
21
-4.8327
0
LINE
8
BLACK
6
CONTINUOUS
10
5.41899
20
-4.8327
11
5.41959
21
-4.83571
0
LINE
8
BLACK
6
CONTINUOUS
10
5.41959
20
-4.83571
11
5.41899
21
-4.83872
0
LINE
8
BLACK
6
CONTINUOUS
10
5.41899
20
-4.83872
11
5.41728
21
-4.84128
0
LINE
8
BLACK
6
CONTINUOUS
10
5.41728
20
-4.84128
11
5.37486
21
-4.8837
0
LINE
8
BLACK
6
CONTINUOUS
10
5.37486
20
-4.8837
11
5.3723
21
-4.88541
0
LINE
8
BLACK
6
CONTINUOUS
10
5.3723
20
-4.88541
11
5.36929
21
-4.88601
0
LINE
8
BLACK
6
CONTINUOUS
10
5.36929
20
-4.88601
11
5.36628
21
-4.88541
0
LINE
8
BLACK
6
CONTINUOUS
10
5.36628
20
-4.88541
11
5.36372
21
-4.8837
0
LINE
8
BLACK
6
CONTINUOUS
10
5.36372
20
-4.8837
11
5.3213
21
-4.84128
0
LINE
8
BLACK
6
CONTINUOUS
10
5.39201
20
-4.77057
11
5.3903
21
-4.76801
0
LINE
8
BLACK
6
CONTINUOUS
10
5.3903
20
-4.76801
11
5.3897
21
-4.765
0
LINE
8
BLACK
6
CONTINUOUS
10
5.3897
20
-4.765
11
5.3903
21
-4.76199
0
LINE
8
BLACK
6
CONTINUOUS
10
5.3903
20
-4.76199
11
5.39201
21
-4.75943
0
LINE
8
BLACK
6
CONTINUOUS
10
5.39201
20
-4.75943
11
5.43443
21
-4.71701
0
LINE
8
BLACK
6
CONTINUOUS
10
5.43443
20
-4.71701
11
5.43699
21
-4.7153
0
LINE
8
BLACK
6
CONTINUOUS
10
5.43699
20
-4.7153
11
5.44
21
-4.7147
0
LINE
8
BLACK
6
CONTINUOUS
10
5.44
20
-4.7147
11
5.44301
21
-4.7153
0
LINE
8
BLACK
6
CONTINUOUS
10
5.44301
20
-4.7153
11
5.44557
21
-4.71701
0
LINE
8
BLACK
6
CONTINUOUS
10
5.44557
20
-4.71701
11
5.48799
21
-4.75943
0
LINE
8
BLACK
6
CONTINUOUS
10
5.48799
20
-4.75943
11
5.4897
21
-4.76199
0
LINE
8
BLACK
6
CONTINUOUS
10
5.4897
20
-4.76199
11
5.4903
21
-4.765
0
LINE
8
BLACK
6
CONTINUOUS
10
5.4903
20
-4.765
11
5.4897
21
-4.76801
0
LINE
8
BLACK
6
CONTINUOUS
10
5.4897
20
-4.76801
11
5.48799
21
-4.77057
0
LINE
8
BLACK
6
CONTINUOUS
10
5.48799
20
-4.77057
11
5.44557
21
-4.81299
0
LINE
8
BLACK
6
CONTINUOUS
10
5.44557
20
-4.81299
11
5.44301
21
-4.8147
0
LINE
8
BLACK
6
CONTINUOUS
10
5.44301
20
-4.8147
11
5.44
21
-4.8153
0
LINE
8
BLACK
6
CONTINUOUS
10
5.44
20
-4.8153
11
5.43699
21
-4.8147
0
LINE
8
BLACK
6
CONTINUOUS
10
5.43699
20
-4.8147
11
5.43443
21
-4.81299
0
LINE
8
BLACK
6
CONTINUOUS
10
5.43443
20
-4.81299
11
5.39201
21
-4.77057
0
LINE
8
BLACK
6
CONTINUOUS
10
5.39201
20
-4.91199
11
5.3903
21
-4.90943
0
LINE
8
BLACK
6
CONTINUOUS
10
5.3903
20
-4.90943
11
5.3897
21
-4.90642
0
LINE
8
BLACK
6
CONTINUOUS
10
5.3897
20
-4.90642
11
5.3903
21
-4.90341
0
LINE
8
BLACK
6
CONTINUOUS
10
5.3903
20
-4.90341
11
5.39201
21
-4.90085
0
LINE
8
BLACK
6
CONTINUOUS
10
5.39201
20
-4.90085
11
5.43443
21
-4.85843
0
LINE
8
BLACK
6
CONTINUOUS
10
5.43443
20
-4.85843
11
5.43699
21
-4.85672
0
LINE
8
BLACK
6
CONTINUOUS
10
5.43699
20
-4.85672
11
5.44
21
-4.85612
0
LINE
8
BLACK
6
CONTINUOUS
10
5.44
20
-4.85612
11
5.44301
21
-4.85672
0
LINE
8
BLACK
6
CONTINUOUS
10
5.44301
20
-4.85672
11
5.44557
21
-4.85843
0
LINE
8
BLACK
6
CONTINUOUS
10
5.44557
20
-4.85843
11
5.48799
21
-4.90085
0
LINE
8
BLACK
6
CONTINUOUS
10
5.48799
20
-4.90085
11
5.4897
21
-4.90341
0
LINE
8
BLACK
6
CONTINUOUS
10
5.4897
20
-4.90341
11
5.4903
21
-4.90642
0
LINE
8
BLACK
6
CONTINUOUS
10
5.4903
20
-4.90642
11
5.4897
21
-4.90943
0
LINE
8
BLACK
6
CONTINUOUS
10
5.4897
20
-4.90943
11
5.48799
21
-4.91199
0
LINE
8
BLACK
6
CONTINUOUS
10
5.48799
20
-4.91199
11
5.44557
21
-4.95442
0
LINE
8
BLACK
6
CONTINUOUS
10
5.44557
20
-4.95442
11
5.44301
21
-4.95612
0
LINE
8
BLACK
6
CONTINUOUS
10
5.44301
20
-4.95612
11
5.44
21
-4.95672
0
LINE
8
BLACK
6
CONTINUOUS
10
5.44
20
-4.95672
11
5.43699
21
-4.95612
0
LINE
8
BLACK
6
CONTINUOUS
10
5.43699
20
-4.95612
11
5.43443
21
-4.95442
0
LINE
8
BLACK
6
CONTINUOUS
10
5.43443
20
-4.95442
11
5.39201
21
-4.91199
0
LINE
8
BLACK
6
CONTINUOUS
10
5.46272
20
-4.84128
11
5.46101
21
-4.83872
0
LINE
8
BLACK
6
CONTINUOUS
10
5.46101
20
-4.83872
11
5.46041
21
-4.83571
0
LINE
8
BLACK
6
CONTINUOUS
10
5.46041
20
-4.83571
11
5.46101
21
-4.8327
0
LINE
8
BLACK
6
CONTINUOUS
10
5.46101
20
-4.8327
11
5.46272
21
-4.83014
0
LINE
8
BLACK
6
CONTINUOUS
10
5.46272
20
-4.83014
11
5.50514
21
-4.78772
0
LINE
8
BLACK
6
CONTINUOUS
10
5.50514
20
-4.78772
11
5.5077
21
-4.78601
0
LINE
8
BLACK
6
CONTINUOUS
10
5.5077
20
-4.78601
11
5.51071
21
-4.78541
0
LINE
8
BLACK
6
CONTINUOUS
10
5.51071
20
-4.78541
11
5.51372
21
-4.78601
0
LINE
8
BLACK
6
CONTINUOUS
10
5.51372
20
-4.78601
11
5.51628
21
-4.78772
0
LINE
8
BLACK
6
CONTINUOUS
10
5.51628
20
-4.78772
11
5.5587
21
-4.83014
0
LINE
8
BLACK
6
CONTINUOUS
10
5.5587
20
-4.83014
11
5.56041
21
-4.8327
0
LINE
8
BLACK
6
CONTINUOUS
10
5.56041
20
-4.8327
11
5.56101
21
-4.83571
0
LINE
8
BLACK
6
CONTINUOUS
10
5.56101
20
-4.83571
11
5.56041
21
-4.83872
0
LINE
8
BLACK
6
CONTINUOUS
10
5.56041
20
-4.83872
11
5.5587
21
-4.84128
0
LINE
8
BLACK
6
CONTINUOUS
10
5.5587
20
-4.84128
11
5.51628
21
-4.8837
0
LINE
8
BLACK
6
CONTINUOUS
10
5.51628
20
-4.8837
11
5.51372
21
-4.88541
0
LINE
8
BLACK
6
CONTINUOUS
10
5.51372
20
-4.88541
11
5.51071
21
-4.88601
0
LINE
8
BLACK
6
CONTINUOUS
10
5.51071
20
-4.88601
11
5.5077
21
-4.88541
0
LINE
8
BLACK
6
CONTINUOUS
10
5.5077
20
-4.88541
11
5.50514
21
-4.8837
0
LINE
8
BLACK
6
CONTINUOUS
10
5.50514
20
-4.8837
11
5.46272
21
-4.84128
0
CIRCLE
8
BLACK
10
7.30551
20
-4.94331
40
0.125984
0
CIRCLE
8
BLACK
10
7.30551
20
-2.14331
40
0.125984
0
CIRCLE
8
BLACK
10
4.50551
20
-4.94331
40
0.125984
0
CIRCLE
8
BLACK
10
5.90551
20
-4.96063
40
0.153543
0
CIRCLE
8
BLACK
10
6.02362
20
-4.96063
40
0.0177165
0
CIRCLE
8
BLACK
10
6.0078
20
-5.01969
40
0.0177165
0
CIRCLE
8
BLACK
10
5.90551
20
-4.84252
40
0.0177165
0
CIRCLE
8
BLACK
10
6.0078
20
-4.90157
40
0.0177165
0
CIRCLE
8
BLACK
10
5.80323
20
-5.01969
40
0.0177165
0
CIRCLE
8
BLACK
10
5.90551
20
-5.07874
40
0.0177165
0
CIRCLE
8
BLACK
10
5.7874
20
-4.96063
40
0.0177165
0
CIRCLE
8
BLACK
10
5.84646
20
-4.85834
40
0.0177165
0
CIRCLE
8
BLACK
10
5.96457
20
-5.06292
40
0.0177165
0
CIRCLE
8
BLACK
10
5.96457
20
-4.85834
40
0.0177165
0
CIRCLE
8
BLACK
10
5.80323
20
-4.90157
40
0.0177165
0
CIRCLE
8
BLACK
10
5.84646
20
-5.06292
40
0.0177165
0
CIRCLE
8
BLACK
10
5.90551
20
-2.12598
40
0.153543
0
CIRCLE
8
BLACK
10
5.96457
20
-2.0237
40
0.0177165
0
CIRCLE
8
BLACK
10
6.0078
20
-2.18504
40
0.0177165
0
CIRCLE
8
BLACK
10
5.84646
20
-2.0237
40
0.0177165
0
CIRCLE
8
BLACK
10
6.02362
20
-2.12598
40
0.0177165
0
CIRCLE
8
BLACK
10
5.80323
20
-2.18504
40
0.0177165
0
CIRCLE
8
BLACK
10
5.90551
20
-2.24409
40
0.0177165
0
CIRCLE
8
BLACK
10
5.7874
20
-2.12598
40
0.0177165
0
CIRCLE
8
BLACK
10
5.96457
20
-2.22827
40
0.0177165
0
CIRCLE
8
BLACK
10
5.84646
20
-2.22827
40
0.0177165
0
CIRCLE
8
BLACK
10
5.90551
20
-2.00787
40
0.0177165
0
CIRCLE
8
BLACK
10
6.0078
20
-2.06693
40
0.0177165
0
CIRCLE
8
BLACK
10
5.80323
20
-2.06693
40
0.0177165
0
CIRCLE
8
BLACK
10
7.32283
20
-3.54331
40
0.153543
0
CIRCLE
8
BLACK
10
7.38189
20
-3.64559
40
0.0177165
0
CIRCLE
8
BLACK
10
7.22055
20
-3.48425
40
0.0177165
0
CIRCLE
8
BLACK
10
7.42512
20
-3.48425
40
0.0177165
0
CIRCLE
8
BLACK
10
7.22055
20
-3.60236
40
0.0177165
0
CIRCLE
8
BLACK
10
7.32283
20
-3.4252
40
0.0177165
0
CIRCLE
8
BLACK
10
7.42512
20
-3.60236
40
0.0177165
0
CIRCLE
8
BLACK
10
7.26378
20
-3.64559
40
0.0177165
0
CIRCLE
8
BLACK
10
7.44094
20
-3.54331
40
0.0177165
0
CIRCLE
8
BLACK
10
7.38189
20
-3.44102
40
0.0177165
0
CIRCLE
8
BLACK
10
7.32283
20
-3.66142
40
0.0177165
0
CIRCLE
8
BLACK
10
7.20472
20
-3.54331
40
0.0177165
0
CIRCLE
8
BLACK
10
7.26378
20
-3.44102
40
0.0177165
0
CIRCLE
8
BLACK
10
4.48819
20
-3.54331
40
0.153543
0
CIRCLE
8
BLACK
10
4.42913
20
-3.44102
40
0.0177165
0
CIRCLE
8
BLACK
10
4.6063
20
-3.54331
40
0.0177165
0
CIRCLE
8
BLACK
10
4.3859
20
-3.48425
40
0.0177165
0
CIRCLE
8
BLACK
10
4.59048
20
-3.60236
40
0.0177165
0
CIRCLE
8
BLACK
10
4.54724
20
-3.44102
40
0.0177165
0
CIRCLE
8
BLACK
10
4.42913
20
-3.64559
40
0.0177165
0
CIRCLE
8
BLACK
10
4.48819
20
-3.66142
40
0.0177165
0
CIRCLE
8
BLACK
10
4.37008
20
-3.54331
40
0.0177165
0
CIRCLE
8
BLACK
10
4.48819
20
-3.4252
40
0.0177165
0
CIRCLE
8
BLACK
10
4.3859
20
-3.60236
40
0.0177165
0
CIRCLE
8
BLACK
10
4.59048
20
-3.48425
40
0.0177165
0
CIRCLE
8
BLACK
10
4.54724
20
-3.64559
40
0.0177165
0
CIRCLE
8
BLACK
10
4.50551
20
-2.14331
40
0.125984
0
CIRCLE
8
BLACK
10
5.86165
20
-3.29498
40
0.0177165
0
CIRCLE
8
BLACK
10
5.83381
20
-3.26714
40
0.0177165
0
CIRCLE
8
BLACK
10
5.80597
20
-3.29498
40
0.0177165
0
CIRCLE
8
BLACK
10
5.77814
20
-3.26714
40
0.0177165
0
CIRCLE
8
BLACK
10
5.80597
20
-3.2393
40
0.0177165
0
CIRCLE
8
BLACK
10
5.69462
20
-3.2393
40
0.0177165
0
CIRCLE
8
BLACK
10
5.83381
20
-3.32282
40
0.0177165
0
CIRCLE
8
BLACK
10
5.7503
20
-3.29498
40
0.0177165
0
CIRCLE
8
BLACK
10
5.77814
20
-3.21146
40
0.0177165
0
CIRCLE
8
BLACK
10
5.77814
20
-3.32282
40
0.0177165
0
CIRCLE
8
BLACK
10
5.80597
20
-3.35066
40
0.0177165
0
CIRCLE
8
BLACK
10
5.72246
20
-3.26714
40
0.0177165
0
CIRCLE
8
BLACK
10
5.72246
20
-3.21146
40
0.0177165
0
CIRCLE
8
BLACK
10
5.7503
20
-3.18362
40
0.0177165
0
CIRCLE
8
BLACK
10
5.7503
20
-3.2393
40
0.0177165
0
CIRCLE
8
BLACK
10
6.23736
20
-3.72242
40
0.0177165
0
CIRCLE
8
BLACK
10
6.2652
20
-3.69459
40
0.0177165
0
CIRCLE
8
BLACK
10
6.20952
20
-3.63891
40
0.0177165
0
CIRCLE
8
BLACK
10
6.23736
20
-3.66675
40
0.0177165
0
CIRCLE
8
BLACK
10
6.15384
20
-3.63891
40
0.0177165
0
CIRCLE
8
BLACK
10
6.18168
20
-3.61107
40
0.0177165
0
CIRCLE
8
BLACK
10
6.15384
20
-3.69459
40
0.0177165
0
CIRCLE
8
BLACK
10
6.18168
20
-3.72242
40
0.0177165
0
CIRCLE
8
BLACK
10
6.20952
20
-3.69459
40
0.0177165
0
CIRCLE
8
BLACK
10
6.18168
20
-3.66675
40
0.0177165
0
CIRCLE
8
BLACK
10
6.126
20
-3.61107
40
0.0177165
0
CIRCLE
8
BLACK
10
6.126
20
-3.66675
40
0.0177165
0
CIRCLE
8
BLACK
10
6.20952
20
-3.75026
40
0.0177165
0
CIRCLE
8
BLACK
10
6.15384
20
-3.58323
40
0.0177165
0
CIRCLE
8
BLACK
10
6.09816
20
-3.63891
40
0.0177165
0
CIRCLE
8
BLACK
10
6.47
20
-4.34
40
0.0531496
0
CIRCLE
8
BLACK
10
5.69268
20
-2.395
40
0.0177165
0
CIRCLE
8
BLACK
10
5.637
20
-2.395
40
0.0177165
0
CIRCLE
8
BLACK
10
5.58132
20
-2.45068
40
0.0177165
0
CIRCLE
8
BLACK
10
5.55348
20
-2.42284
40
0.0177165
0
CIRCLE
8
BLACK
10
5.72052
20
-2.36716
40
0.0177165
0
CIRCLE
8
BLACK
10
5.60916
20
-2.47852
40
0.0177165
0
CIRCLE
8
BLACK
10
5.60916
20
-2.36716
40
0.0177165
0
CIRCLE
8
BLACK
10
5.58132
20
-2.395
40
0.0177165
0
CIRCLE
8
BLACK
10
5.60916
20
-2.42284
40
0.0177165
0
CIRCLE
8
BLACK
10
5.637
20
-2.33932
40
0.0177165
0
CIRCLE
8
BLACK
10
5.66484
20
-2.31148
40
0.0177165
0
CIRCLE
8
BLACK
10
5.66484
20
-2.36716
40
0.0177165
0
CIRCLE
8
BLACK
10
5.66484
20
-2.42284
40
0.0177165
0
CIRCLE
8
BLACK
10
5.69268
20
-2.33932
40
0.0177165
0
CIRCLE
8
BLACK
10
5.637
20
-2.45068
40
0.0177165
0
CIRCLE
8
BLACK
10
6.96432
20
-3.81
40
0.0177165
0
CIRCLE
8
BLACK
10
7.07568
20
-3.81
40
0.0177165
0
CIRCLE
8
BLACK
10
7.04784
20
-3.78216
40
0.0177165
0
CIRCLE
8
BLACK
10
7.02
20
-3.81
40
0.0177165
0
CIRCLE
8
BLACK
10
6.99216
20
-3.89352
40
0.0177165
0
CIRCLE
8
BLACK
10
7.07568
20
-3.75432
40
0.0177165
0
CIRCLE
8
BLACK
10
7.02
20
-3.86568
40
0.0177165
0
CIRCLE
8
BLACK
10
6.96432
20
-3.86568
40
0.0177165
0
CIRCLE
8
BLACK
10
6.93648
20
-3.83784
40
0.0177165
0
CIRCLE
8
BLACK
10
7.04784
20
-3.83784
40
0.0177165
0
CIRCLE
8
BLACK
10
7.10352
20
-3.78216
40
0.0177165
0
CIRCLE
8
BLACK
10
6.99216
20
-3.78216
40
0.0177165
0
CIRCLE
8
BLACK
10
7.04784
20
-3.72648
40
0.0177165
0
CIRCLE
8
BLACK
10
6.99216
20
-3.83784
40
0.0177165
0
CIRCLE
8
BLACK
10
7.02
20
-3.75432
40
0.0177165
0
CIRCLE
8
BLACK
10
4.872
20
-2.645
40
0.0531496
0
LINE
8
BLACK
6
CONTINUOUS
10
6.9888
20
-3.49544
11
6.99058
21
-3.49658
0
LINE
8
BLACK
6
CONTINUOUS
10
6.99058
20
-3.49658
11
7.34049
21
-3.84649
0
LINE
8
BLACK
6
CONTINUOUS
10
7.34049
20
-3.84649
11
7.34183
21
-3.84895
0
LINE
8
BLACK
6
CONTINUOUS
10
7.34183
20
-3.84895
11
7.34163
21
-3.85173
0
LINE
8
BLACK
6
CONTINUOUS
10
7.34163
20
-3.85173
11
7.34049
21
-3.85351
0
LINE
8
BLACK
6
CONTINUOUS
10
7.34049
20
-3.85351
11
7.0552
21
-4.1388
0
LINE
8
BLACK
6
CONTINUOUS
10
7.0552
20
-4.1388
11
7.05275
21
-4.14014
0
LINE
8
BLACK
6
CONTINUOUS
10
7.05275
20
-4.14014
11
7.04996
21
-4.13994
0
LINE
8
BLACK
6
CONTINUOUS
10
7.04996
20
-4.13994
11
7.04818
21
-4.1388
0
LINE
8
BLACK
6
CONTINUOUS
10
7.04818
20
-4.1388
11
6.69827
21
-3.78889
0
LINE
8
BLACK
6
CONTINUOUS
10
6.69827
20
-3.78889
11
6.69693
21
-3.78643
0
LINE
8
BLACK
6
CONTINUOUS
10
6.69693
20
-3.78643
11
6.69713
21
-3.78365
0
LINE
8
BLACK
6
CONTINUOUS
10
6.69713
20
-3.78365
11
6.69827
21
-3.78187
0
LINE
8
BLACK
6
CONTINUOUS
10
6.69827
20
-3.78187
11
6.98356
21
-3.49658
0
LINE
8
BLACK
6
CONTINUOUS
10
6.98356
20
-3.49658
11
6.98602
21
-3.49524
0
LINE
8
BLACK
6
CONTINUOUS
10
6.98602
20
-3.49524
11
6.9888
21
-3.49544
0
LINE
8
BLACK
6
CONTINUOUS
10
6.23053
20
-3.3862
11
6.23136
21
-3.38687
0
LINE
8
BLACK
6
CONTINUOUS
10
6.23136
20
-3.38687
11
6.46508
21
-3.62059
0
LINE
8
BLACK
6
CONTINUOUS
10
6.46508
20
-3.62059
11
6.46642
21
-3.62305
0
LINE
8
BLACK
6
CONTINUOUS
10
6.46642
20
-3.62305
11
6.46654
21
-3.6241
0
LINE
8
BLACK
6
CONTINUOUS
10
6.46654
20
-3.6241
11
6.46654
21
-3.67567
0
LINE
8
BLACK
6
CONTINUOUS
10
6.46654
20
-3.67567
11
6.46575
21
-3.67835
0
LINE
8
BLACK
6
CONTINUOUS
10
6.46575
20
-3.67835
11
6.46508
21
-3.67918
0
LINE
8
BLACK
6
CONTINUOUS
10
6.46508
20
-3.67918
11
6.19656
21
-3.9477
0
LINE
8
BLACK
6
CONTINUOUS
10
6.19656
20
-3.9477
11
6.19411
21
-3.94904
0
LINE
8
BLACK
6
CONTINUOUS
10
6.19411
20
-3.94904
11
6.19305
21
-3.94915
0
LINE
8
BLACK
6
CONTINUOUS
10
6.19305
20
-3.94915
11
6.14148
21
-3.94915
0
LINE
8
BLACK
6
CONTINUOUS
10
6.14148
20
-3.94915
11
6.1388
21
-3.94837
0
LINE
8
BLACK
6
CONTINUOUS
10
6.1388
20
-3.94837
11
6.13798
21
-3.9477
0
LINE
8
BLACK
6
CONTINUOUS
10
6.13798
20
-3.9477
11
5.90425
21
-3.71398
0
LINE
8
BLACK
6
CONTINUOUS
10
5.90425
20
-3.71398
11
5.90291
21
-3.71152
0
LINE
8
BLACK
6
CONTINUOUS
10
5.90291
20
-3.71152
11
5.9028
21
-3.71047
0
LINE
8
BLACK
6
CONTINUOUS
10
5.9028
20
-3.71047
11
5.9028
21
-3.6589
0
LINE
8
BLACK
6
CONTINUOUS
10
5.9028
20
-3.6589
11
5.90359
21
-3.65622
0
LINE
8
BLACK
6
CONTINUOUS
10
5.90359
20
-3.65622
11
5.90425
21
-3.65539
0
LINE
8
BLACK
6
CONTINUOUS
10
5.90425
20
-3.65539
11
6.17277
21
-3.38687
0
LINE
8
BLACK
6
CONTINUOUS
10
6.17277
20
-3.38687
11
6.17523
21
-3.38553
0
LINE
8
BLACK
6
CONTINUOUS
10
6.17523
20
-3.38553
11
6.17628
21
-3.38542
0
LINE
8
BLACK
6
CONTINUOUS
10
6.17628
20
-3.38542
11
6.22785
21
-3.38542
0
LINE
8
BLACK
6
CONTINUOUS
10
6.22785
20
-3.38542
11
6.23053
21
-3.3862
0
LINE
8
BLACK
6
CONTINUOUS
10
5.80747
20
-2.99863
11
5.80829
21
-2.99929
0
LINE
8
BLACK
6
CONTINUOUS
10
5.80829
20
-2.99929
11
6.04202
21
-3.23302
0
LINE
8
BLACK
6
CONTINUOUS
10
6.04202
20
-3.23302
11
6.04336
21
-3.23547
0
LINE
8
BLACK
6
CONTINUOUS
10
6.04336
20
-3.23547
11
6.04347
21
-3.23652
0
LINE
8
BLACK
6
CONTINUOUS
10
6.04347
20
-3.23652
11
6.04347
21
-3.28809
0
LINE
8
BLACK
6
CONTINUOUS
10
6.04347
20
-3.28809
11
6.04268
21
-3.29077
0
LINE
8
BLACK
6
CONTINUOUS
10
6.04268
20
-3.29077
11
6.04202
21
-3.2916
0
LINE
8
BLACK
6
CONTINUOUS
10
6.04202
20
-3.2916
11
5.77349
21
-3.56012
0
LINE
8
BLACK
6
CONTINUOUS
10
5.77349
20
-3.56012
11
5.77104
21
-3.56146
0
LINE
8
BLACK
6
CONTINUOUS
10
5.77104
20
-3.56146
11
5.76999
21
-3.56158
0
LINE
8
BLACK
6
CONTINUOUS
10
5.76999
20
-3.56158
11
5.71842
21
-3.56158
0
LINE
8
BLACK
6
CONTINUOUS
10
5.71842
20
-3.56158
11
5.71574
21
-3.56079
0
LINE
8
BLACK
6
CONTINUOUS
10
5.71574
20
-3.56079
11
5.71491
21
-3.56012
0
LINE
8
BLACK
6
CONTINUOUS
10
5.71491
20
-3.56012
11
5.48119
21
-3.3264
0
LINE
8
BLACK
6
CONTINUOUS
10
5.48119
20
-3.3264
11
5.47985
21
-3.32395
0
LINE
8
BLACK
6
CONTINUOUS
10
5.47985
20
-3.32395
11
5.47973
21
-3.32289
0
LINE
8
BLACK
6
CONTINUOUS
10
5.47973
20
-3.32289
11
5.47973
21
-3.27132
0
LINE
8
BLACK
6
CONTINUOUS
10
5.47973
20
-3.27132
11
5.48052
21
-3.26864
0
LINE
8
BLACK
6
CONTINUOUS
10
5.48052
20
-3.26864
11
5.48119
21
-3.26781
0
LINE
8
BLACK
6
CONTINUOUS
10
5.48119
20
-3.26781
11
5.74971
21
-2.99929
0
LINE
8
BLACK
6
CONTINUOUS
10
5.74971
20
-2.99929
11
5.75216
21
-2.99795
0
LINE
8
BLACK
6
CONTINUOUS
10
5.75216
20
-2.99795
11
5.75322
21
-2.99784
0
LINE
8
BLACK
6
CONTINUOUS
10
5.75322
20
-2.99784
11
5.80478
21
-2.99784
0
LINE
8
BLACK
6
CONTINUOUS
10
5.80478
20
-2.99784
11
5.80747
21
-2.99863
0
LINE
8
BLACK
6
CONTINUOUS
10
4.97926
20
-2.84967
11
4.98008
21
-2.85034
0
LINE
8
BLACK
6
CONTINUOUS
10
4.98008
20
-2.85034
11
5.10245
21
-2.9727
0
LINE
8
BLACK
6
CONTINUOUS
10
5.10245
20
-2.9727
11
5.10379
21
-2.97516
0
LINE
8
BLACK
6
CONTINUOUS
10
5.10379
20
-2.97516
11
5.10391
21
-2.97621
0
LINE
8
BLACK
6
CONTINUOUS
10
5.10391
20
-2.97621
11
5.10391
21
-3.02778
0
LINE
8
BLACK
6
CONTINUOUS
10
5.10391
20
-3.02778
11
5.10312
21
-3.03046
0
LINE
8
BLACK
6
CONTINUOUS
10
5.10312
20
-3.03046
11
5.10245
21
-3.03129
0
LINE
8
BLACK
6
CONTINUOUS
10
5.10245
20
-3.03129
11
4.98008
21
-3.15366
0
LINE
8
BLACK
6
CONTINUOUS
10
4.98008
20
-3.15366
11
4.97763
21
-3.155
0
LINE
8
BLACK
6
CONTINUOUS
10
4.97763
20
-3.155
11
4.97658
21
-3.15511
0
LINE
8
BLACK
6
CONTINUOUS
10
4.97658
20
-3.15511
11
4.92501
21
-3.15511
0
LINE
8
BLACK
6
CONTINUOUS
10
4.92501
20
-3.15511
11
4.92233
21
-3.15432
0
LINE
8
BLACK
6
CONTINUOUS
10
4.92233
20
-3.15432
11
4.9215
21
-3.15366
0
LINE
8
BLACK
6
CONTINUOUS
10
4.9215
20
-3.15366
11
4.79913
21
-3.03129
0
LINE
8
BLACK
6
CONTINUOUS
10
4.79913
20
-3.03129
11
4.79779
21
-3.02884
0
LINE
8
BLACK
6
CONTINUOUS
10
4.79779
20
-3.02884
11
4.79768
21
-3.02778
0
LINE
8
BLACK
6
CONTINUOUS
10
4.79768
20
-3.02778
11
4.79768
21
-2.97621
0
LINE
8
BLACK
6
CONTINUOUS
10
4.79768
20
-2.97621
11
4.79847
21
-2.97353
0
LINE
8
BLACK
6
CONTINUOUS
10
4.79847
20
-2.97353
11
4.79913
21
-2.9727
0
LINE
8
BLACK
6
CONTINUOUS
10
4.79913
20
-2.9727
11
4.9215
21
-2.85034
0
LINE
8
BLACK
6
CONTINUOUS
10
4.9215
20
-2.85034
11
4.92395
21
-2.849
0
LINE
8
BLACK
6
CONTINUOUS
10
4.92395
20
-2.849
11
4.92501
21
-2.84888
0
LINE
8
BLACK
6
CONTINUOUS
10
4.92501
20
-2.84888
11
4.97658
21
-2.84888
0
LINE
8
BLACK
6
CONTINUOUS
10
4.97658
20
-2.84888
11
4.97926
21
-2.84967
0
LINE
8
BLACK
6
CONTINUOUS
10
6.40173
20
-4.50237
11
6.40351
21
-4.50351
0
LINE
8
BLACK
6
CONTINUOUS
10
6.40351
20
-4.50351
11
6.49649
21
-4.59649
0
LINE
8
BLACK
6
CONTINUOUS
10
6.49649
20
-4.59649
11
6.49783
21
-4.59895
0
LINE
8
BLACK
6
CONTINUOUS
10
6.49783
20
-4.59895
11
6.49763
21
-4.60173
0
LINE
8
BLACK
6
CONTINUOUS
10
6.49763
20
-4.60173
11
6.49649
21
-4.60351
0
LINE
8
BLACK
6
CONTINUOUS
10
6.49649
20
-4.60351
11
6.40351
21
-4.69649
0
LINE
8
BLACK
6
CONTINUOUS
10
6.40351
20
-4.69649
11
6.40105
21
-4.69783
0
LINE
8
BLACK
6
CONTINUOUS
10
6.40105
20
-4.69783
11
6.39827
21
-4.69763
0
LINE
8
BLACK
6
CONTINUOUS
10
6.39827
20
-4.69763
11
6.39649
21
-4.69649
0
LINE
8
BLACK
6
CONTINUOUS
10
6.39649
20
-4.69649
11
6.30351
21
-4.60351
0
LINE
8
BLACK
6
CONTINUOUS
10
6.30351
20
-4.60351
11
6.30217
21
-4.60105
0
LINE
8
BLACK
6
CONTINUOUS
10
6.30217
20
-4.60105
11
6.30237
21
-4.59827
0
LINE
8
BLACK
6
CONTINUOUS
10
6.30237
20
-4.59827
11
6.30351
21
-4.59649
0
LINE
8
BLACK
6
CONTINUOUS
10
6.30351
20
-4.59649
11
6.39649
21
-4.50351
0
LINE
8
BLACK
6
CONTINUOUS
10
6.39649
20
-4.50351
11
6.39895
21
-4.50217
0
LINE
8
BLACK
6
CONTINUOUS
10
6.39895
20
-4.50217
11
6.40173
21
-4.50237
0
LINE
8
BLACK
6
CONTINUOUS
10
5.60623
20
-2.09444
11
5.60801
21
-2.09558
0
LINE
8
BLACK
6
CONTINUOUS
10
5.60801
20
-2.09558
11
5.94592
21
-2.43349
0
LINE
8
BLACK
6
CONTINUOUS
10
5.94592
20
-2.43349
11
5.94726
21
-2.43595
0
LINE
8
BLACK
6
CONTINUOUS
10
5.94726
20
-2.43595
11
5.94706
21
-2.43873
0
LINE
8
BLACK
6
CONTINUOUS
10
5.94706
20
-2.43873
11
5.94592
21
-2.44051
0
LINE
8
BLACK
6
CONTINUOUS
10
5.94592
20
-2.44051
11
5.66063
21
-2.7258
0
LINE
8
BLACK
6
CONTINUOUS
10
5.66063
20
-2.7258
11
5.65818
21
-2.72714
0
LINE
8
BLACK
6
CONTINUOUS
10
5.65818
20
-2.72714
11
5.65539
21
-2.72694
0
LINE
8
BLACK
6
CONTINUOUS
10
5.65539
20
-2.72694
11
5.65361
21
-2.7258
0
LINE
8
BLACK
6
CONTINUOUS
10
5.65361
20
-2.7258
11
5.3157
21
-2.38789
0
LINE
8
BLACK
6
CONTINUOUS
10
5.3157
20
-2.38789
11
5.31436
21
-2.38543
0
LINE
8
BLACK
6
CONTINUOUS
10
5.31436
20
-2.38543
11
5.31456
21
-2.38265
0
LINE
8
BLACK
6
CONTINUOUS
10
5.31456
20
-2.38265
11
5.3157
21
-2.38087
0
LINE
8
BLACK
6
CONTINUOUS
10
5.3157
20
-2.38087
11
5.60099
21
-2.09558
0
LINE
8
BLACK
6
CONTINUOUS
10
5.60099
20
-2.09558
11
5.60345
21
-2.09424
0
LINE
8
BLACK
6
CONTINUOUS
10
5.60345
20
-2.09424
11
5.60623
21
-2.09444
0
LINE
8
BLACK
6
CONTINUOUS
10
4.88173
20
-2.33237
11
4.88351
21
-2.33351
0
LINE
8
BLACK
6
CONTINUOUS
10
4.88351
20
-2.33351
11
4.97649
21
-2.42649
0
LINE
8
BLACK
6
CONTINUOUS
10
4.97649
20
-2.42649
11
4.97783
21
-2.42895
0
LINE
8
BLACK
6
CONTINUOUS
10
4.97783
20
-2.42895
11
4.97763
21
-2.43173
0
LINE
8
BLACK
6
CONTINUOUS
10
4.97763
20
-2.43173
11
4.97649
21
-2.43351
0
LINE
8
BLACK
6
CONTINUOUS
10
4.97649
20
-2.43351
11
4.88351
21
-2.52649
0
LINE
8
BLACK
6
CONTINUOUS
10
4.88351
20
-2.52649
11
4.88105
21
-2.52783
0
LINE
8
BLACK
6
CONTINUOUS
10
4.88105
20
-2.52783
11
4.87827
21
-2.52763
0
LINE
8
BLACK
6
CONTINUOUS
10
4.87827
20
-2.52763
11
4.87649
21
-2.52649
0
LINE
8
BLACK
6
CONTINUOUS
10
4.87649
20
-2.52649
11
4.78351
21
-2.43351
0
LINE
8
BLACK
6
CONTINUOUS
10
4.78351
20
-2.43351
11
4.78217
21
-2.43105
0
LINE
8
BLACK
6
CONTINUOUS
10
4.78217
20
-2.43105
11
4.78237
21
-2.42827
0
LINE
8
BLACK
6
CONTINUOUS
10
4.78237
20
-2.42827
11
4.78351
21
-2.42649
0
LINE
8
BLACK
6
CONTINUOUS
10
4.78351
20
-2.42649
11
4.87649
21
-2.33351
0
LINE
8
BLACK
6
CONTINUOUS
10
4.87649
20
-2.33351
11
4.87895
21
-2.33217
0
LINE
8
BLACK
6
CONTINUOUS
10
4.87895
20
-2.33217
11
4.88173
21
-2.33237
0
LINE
8
BLACK
6
CONTINUOUS
10
6.40019
20
-4.49995
11
6.40023
21
-4.49996
0
LINE
8
BLACK
6
CONTINUOUS
10
6.40023
20
-4.49996
11
6.40056
21
-4.50017
0
LINE
8
BLACK
6
CONTINUOUS
10
6.40056
20
-4.50017
11
6.40057
21
-4.50018
0
LINE
8
BLACK
6
CONTINUOUS
10
6.40057
20
-4.50018
11
6.49969
21
-4.5993
0
LINE
8
BLACK
6
CONTINUOUS
10
6.49969
20
-4.5993
11
6.49971
21
-4.59932
0
LINE
8
BLACK
6
CONTINUOUS
10
6.49971
20
-4.59932
11
6.50004
21
-4.59994
0
LINE
8
BLACK
6
CONTINUOUS
10
6.50004
20
-4.59994
11
6.50004
21
-4.59997
0
LINE
8
BLACK
6
CONTINUOUS
10
6.50004
20
-4.59997
11
6.50006
21
-4.59999
0
LINE
8
BLACK
6
CONTINUOUS
10
6.50006
20
-4.59999
11
6.50007
21
-4.60002
0
LINE
8
BLACK
6
CONTINUOUS
10
6.50007
20
-4.60002
11
6.50005
21
-4.60019
0
LINE
8
BLACK
6
CONTINUOUS
10
6.50005
20
-4.60019
11
6.50004
21
-4.60023
0
LINE
8
BLACK
6
CONTINUOUS
10
6.50004
20
-4.60023
11
6.49983
21
-4.60056
0
LINE
8
BLACK
6
CONTINUOUS
10
6.49983
20
-4.60056
11
6.49982
21
-4.60057
0
LINE
8
BLACK
6
CONTINUOUS
10
6.49982
20
-4.60057
11
6.4007
21
-4.69969
0
LINE
8
BLACK
6
CONTINUOUS
10
6.4007
20
-4.69969
11
6.40068
21
-4.69971
0
LINE
8
BLACK
6
CONTINUOUS
10
6.40068
20
-4.69971
11
6.40006
21
-4.70004
0
LINE
8
BLACK
6
CONTINUOUS
10
6.40006
20
-4.70004
11
6.40003
21
-4.70004
0
LINE
8
BLACK
6
CONTINUOUS
10
6.40003
20
-4.70004
11
6.40001
21
-4.70006
0
LINE
8
BLACK
6
CONTINUOUS
10
6.40001
20
-4.70006
11
6.39998
21
-4.70007
0
LINE
8
BLACK
6
CONTINUOUS
10
6.39998
20
-4.70007
11
6.39981
21
-4.70005
0
LINE
8
BLACK
6
CONTINUOUS
10
6.39981
20
-4.70005
11
6.39977
21
-4.70004
0
LINE
8
BLACK
6
CONTINUOUS
10
6.39977
20
-4.70004
11
6.39944
21
-4.69983
0
LINE
8
BLACK
6
CONTINUOUS
10
6.39944
20
-4.69983
11
6.39943
21
-4.69982
0
LINE
8
BLACK
6
CONTINUOUS
10
6.39943
20
-4.69982
11
6.30031
21
-4.6007
0
LINE
8
BLACK
6
CONTINUOUS
10
6.30031
20
-4.6007
11
6.30029
21
-4.60068
0
LINE
8
BLACK
6
CONTINUOUS
10
6.30029
20
-4.60068
11
6.29996
21
-4.60006
0
LINE
8
BLACK
6
CONTINUOUS
10
6.29996
20
-4.60006
11
6.29996
21
-4.60003
0
LINE
8
BLACK
6
CONTINUOUS
10
6.29996
20
-4.60003
11
6.29994
21
-4.60001
0
LINE
8
BLACK
6
CONTINUOUS
10
6.29994
20
-4.60001
11
6.29993
21
-4.6
0
LINE
8
BLACK
6
CONTINUOUS
10
6.29993
20
-4.6
11
6.30011
21
-4.6
0
LINE
8
BLACK
6
CONTINUOUS
10
6.30011
20
-4.6
11
6.4
21
-4.69989
0
LINE
8
BLACK
6
CONTINUOUS
10
6.4
20
-4.69989
11
6.49989
21
-4.6
0
LINE
8
BLACK
6
CONTINUOUS
10
6.49989
20
-4.6
11
6.4
21
-4.50011
0
LINE
8
BLACK
6
CONTINUOUS
10
6.4
20
-4.50011
11
6.30011
21
-4.6
0
LINE
8
BLACK
6
CONTINUOUS
10
6.30011
20
-4.6
11
6.29993
21
-4.6
0
LINE
8
BLACK
6
CONTINUOUS
10
6.29993
20
-4.6
11
6.29993
21
-4.59998
0
LINE
8
BLACK
6
CONTINUOUS
10
6.29993
20
-4.59998
11
6.29995
21
-4.59981
0
LINE
8
BLACK
6
CONTINUOUS
10
6.29995
20
-4.59981
11
6.29996
21
-4.59977
0
LINE
8
BLACK
6
CONTINUOUS
10
6.29996
20
-4.59977
11
6.30017
21
-4.59944
0
LINE
8
BLACK
6
CONTINUOUS
10
6.30017
20
-4.59944
11
6.30018
21
-4.59943
0
LINE
8
BLACK
6
CONTINUOUS
10
6.30018
20
-4.59943
11
6.3993
21
-4.50031
0
LINE
8
BLACK
6
CONTINUOUS
10
6.3993
20
-4.50031
11
6.39932
21
-4.50029
0
LINE
8
BLACK
6
CONTINUOUS
10
6.39932
20
-4.50029
11
6.39994
21
-4.49996
0
LINE
8
BLACK
6
CONTINUOUS
10
6.39994
20
-4.49996
11
6.39997
21
-4.49996
0
LINE
8
BLACK
6
CONTINUOUS
10
6.39997
20
-4.49996
11
6.39999
21
-4.49994
0
LINE
8
BLACK
6
CONTINUOUS
10
6.39999
20
-4.49994
11
6.40002
21
-4.49993
0
LINE
8
BLACK
6
CONTINUOUS
10
6.40002
20
-4.49993
11
6.40019
21
-4.49995
0
LINE
8
BLACK
6
CONTINUOUS
10
6.98726
20
-3.49302
11
6.9873
21
-3.49303
0
LINE
8
BLACK
6
CONTINUOUS
10
6.9873
20
-3.49303
11
6.98763
21
-3.49324
0
LINE
8
BLACK
6
CONTINUOUS
10
6.98763
20
-3.49324
11
6.98764
21
-3.49325
0
LINE
8
BLACK
6
CONTINUOUS
10
6.98764
20
-3.49325
11
7.34369
21
-3.8493
0
LINE
8
BLACK
6
CONTINUOUS
10
7.34369
20
-3.8493
11
7.34371
21
-3.84932
0
LINE
8
BLACK
6
CONTINUOUS
10
7.34371
20
-3.84932
11
7.34404
21
-3.84994
0
LINE
8
BLACK
6
CONTINUOUS
10
7.34404
20
-3.84994
11
7.34404
21
-3.84997
0
LINE
8
BLACK
6
CONTINUOUS
10
7.34404
20
-3.84997
11
7.34406
21
-3.84999
0
LINE
8
BLACK
6
CONTINUOUS
10
7.34406
20
-3.84999
11
7.34407
21
-3.85002
0
LINE
8
BLACK
6
CONTINUOUS
10
7.34407
20
-3.85002
11
7.34405
21
-3.85019
0
LINE
8
BLACK
6
CONTINUOUS
10
7.34405
20
-3.85019
11
7.34404
21
-3.85023
0
LINE
8
BLACK
6
CONTINUOUS
10
7.34404
20
-3.85023
11
7.34383
21
-3.85056
0
LINE
8
BLACK
6
CONTINUOUS
10
7.34383
20
-3.85056
11
7.34382
21
-3.85057
0
LINE
8
BLACK
6
CONTINUOUS
10
7.34382
20
-3.85057
11
7.05239
21
-4.142
0
LINE
8
BLACK
6
CONTINUOUS
10
7.05239
20
-4.142
11
7.05237
21
-4.14202
0
LINE
8
BLACK
6
CONTINUOUS
10
7.05237
20
-4.14202
11
7.05176
21
-4.14235
0
LINE
8
BLACK
6
CONTINUOUS
10
7.05176
20
-4.14235
11
7.05172
21
-4.14235
0
LINE
8
BLACK
6
CONTINUOUS
10
7.05172
20
-4.14235
11
7.0517
21
-4.14237
0
LINE
8
BLACK
6
CONTINUOUS
10
7.0517
20
-4.14237
11
7.05168
21
-4.14238
0
LINE
8
BLACK
6
CONTINUOUS
10
7.05168
20
-4.14238
11
7.0515
21
-4.14236
0
LINE
8
BLACK
6
CONTINUOUS
10
7.0515
20
-4.14236
11
7.05146
21
-4.14235
0
LINE
8
BLACK
6
CONTINUOUS
10
7.05146
20
-4.14235
11
7.05114
21
-4.14214
0
LINE
8
BLACK
6
CONTINUOUS
10
7.05114
20
-4.14214
11
7.05112
21
-4.14213
0
LINE
8
BLACK
6
CONTINUOUS
10
7.05112
20
-4.14213
11
6.69507
21
-3.78607
0
LINE
8
BLACK
6
CONTINUOUS
10
6.69507
20
-3.78607
11
6.69506
21
-3.78606
0
LINE
8
BLACK
6
CONTINUOUS
10
6.69506
20
-3.78606
11
6.69472
21
-3.78544
0
LINE
8
BLACK
6
CONTINUOUS
10
6.69472
20
-3.78544
11
6.69472
21
-3.78541
0
LINE
8
BLACK
6
CONTINUOUS
10
6.69472
20
-3.78541
11
6.6947
21
-3.78539
0
LINE
8
BLACK
6
CONTINUOUS
10
6.6947
20
-3.78539
11
6.6947
21
-3.78538
0
LINE
8
BLACK
6
CONTINUOUS
10
6.6947
20
-3.78538
11
6.69487
21
-3.78538
0
LINE
8
BLACK
6
CONTINUOUS
10
6.69487
20
-3.78538
11
7.05169
21
-4.1422
0
LINE
8
BLACK
6
CONTINUOUS
10
7.05169
20
-4.1422
11
7.34389
21
-3.85
0
LINE
8
BLACK
6
CONTINUOUS
10
7.34389
20
-3.85
11
6.98707
21
-3.49318
0
LINE
8
BLACK
6
CONTINUOUS
10
6.98707
20
-3.49318
11
6.69487
21
-3.78538
0
LINE
8
BLACK
6
CONTINUOUS
10
6.69487
20
-3.78538
11
6.6947
21
-3.78538
0
LINE
8
BLACK
6
CONTINUOUS
10
6.6947
20
-3.78538
11
6.6947
21
-3.78536
0
LINE
8
BLACK
6
CONTINUOUS
10
6.6947
20
-3.78536
11
6.69471
21
-3.78519
0
LINE
8
BLACK
6
CONTINUOUS
10
6.69471
20
-3.78519
11
6.69472
21
-3.78515
0
LINE
8
BLACK
6
CONTINUOUS
10
6.69472
20
-3.78515
11
6.69493
21
-3.78482
0
LINE
8
BLACK
6
CONTINUOUS
10
6.69493
20
-3.78482
11
6.69494
21
-3.78481
0
LINE
8
BLACK
6
CONTINUOUS
10
6.69494
20
-3.78481
11
6.98638
21
-3.49338
0
LINE
8
BLACK
6
CONTINUOUS
10
6.98638
20
-3.49338
11
6.98639
21
-3.49336
0
LINE
8
BLACK
6
CONTINUOUS
10
6.98639
20
-3.49336
11
6.98701
21
-3.49303
0
LINE
8
BLACK
6
CONTINUOUS
10
6.98701
20
-3.49303
11
6.98704
21
-3.49303
0
LINE
8
BLACK
6
CONTINUOUS
10
6.98704
20
-3.49303
11
6.98706
21
-3.49301
0
LINE
8
BLACK
6
CONTINUOUS
10
6.98706
20
-3.49301
11
6.98709
21
-3.493
0
LINE
8
BLACK
6
CONTINUOUS
10
6.98709
20
-3.493
11
6.98726
21
-3.49302
0
LINE
8
BLACK
6
CONTINUOUS
10
6.22922
20
-3.38514
11
6.22989
21
-3.38534
0
LINE
8
BLACK
6
CONTINUOUS
10
6.22989
20
-3.38534
11
6.2299
21
-3.38536
0
LINE
8
BLACK
6
CONTINUOUS
10
6.2299
20
-3.38536
11
6.22994
21
-3.38536
0
LINE
8
BLACK
6
CONTINUOUS
10
6.22994
20
-3.38536
11
6.23034
21
-3.38547
0
LINE
8
BLACK
6
CONTINUOUS
10
6.23034
20
-3.38547
11
6.23037
21
-3.38549
0
LINE
8
BLACK
6
CONTINUOUS
10
6.23037
20
-3.38549
11
6.46623
21
-3.62135
0
LINE
8
BLACK
6
CONTINUOUS
10
6.46623
20
-3.62135
11
6.46624
21
-3.62137
0
LINE
8
BLACK
6
CONTINUOUS
10
6.46624
20
-3.62137
11
6.46658
21
-3.62198
0
LINE
8
BLACK
6
CONTINUOUS
10
6.46658
20
-3.62198
11
6.46658
21
-3.622
0
LINE
8
BLACK
6
CONTINUOUS
10
6.46658
20
-3.622
11
6.4666
21
-3.62203
0
LINE
8
BLACK
6
CONTINUOUS
10
6.4666
20
-3.62203
11
6.4668
21
-3.62239
0
LINE
8
BLACK
6
CONTINUOUS
10
6.4668
20
-3.62239
11
6.46681
21
-3.62243
0
LINE
8
BLACK
6
CONTINUOUS
10
6.46681
20
-3.62243
11
6.46681
21
-3.67702
0
LINE
8
BLACK
6
CONTINUOUS
10
6.46681
20
-3.67702
11
6.46681
21
-3.67704
0
LINE
8
BLACK
6
CONTINUOUS
10
6.46681
20
-3.67704
11
6.46661
21
-3.67771
0
LINE
8
BLACK
6
CONTINUOUS
10
6.46661
20
-3.67771
11
6.4666
21
-3.67772
0
LINE
8
BLACK
6
CONTINUOUS
10
6.4666
20
-3.67772
11
6.4666
21
-3.67776
0
LINE
8
BLACK
6
CONTINUOUS
10
6.4666
20
-3.67776
11
6.46648
21
-3.67816
0
LINE
8
BLACK
6
CONTINUOUS
10
6.46648
20
-3.67816
11
6.46646
21
-3.67819
0
LINE
8
BLACK
6
CONTINUOUS
10
6.46646
20
-3.67819
11
6.1958
21
-3.94885
0
LINE
8
BLACK
6
CONTINUOUS
10
6.1958
20
-3.94885
11
6.19578
21
-3.94886
0
LINE
8
BLACK
6
CONTINUOUS
10
6.19578
20
-3.94886
11
6.19517
21
-3.9492
0
LINE
8
BLACK
6
CONTINUOUS
10
6.19517
20
-3.9492
11
6.19515
21
-3.9492
0
LINE
8
BLACK
6
CONTINUOUS
10
6.19515
20
-3.9492
11
6.19512
21
-3.94922
0
LINE
8
BLACK
6
CONTINUOUS
10
6.19512
20
-3.94922
11
6.19476
21
-3.94942
0
LINE
8
BLACK
6
CONTINUOUS
10
6.19476
20
-3.94942
11
6.19472
21
-3.94943
0
LINE
8
BLACK
6
CONTINUOUS
10
6.19472
20
-3.94943
11
6.14014
21
-3.94943
0
LINE
8
BLACK
6
CONTINUOUS
10
6.14014
20
-3.94943
11
6.14011
21
-3.94943
0
LINE
8
BLACK
6
CONTINUOUS
10
6.14011
20
-3.94943
11
6.13944
21
-3.94923
0
LINE
8
BLACK
6
CONTINUOUS
10
6.13944
20
-3.94923
11
6.13943
21
-3.94921
0
LINE
8
BLACK
6
CONTINUOUS
10
6.13943
20
-3.94921
11
6.13939
21
-3.94921
0
LINE
8
BLACK
6
CONTINUOUS
10
6.13939
20
-3.94921
11
6.139
21
-3.9491
0
LINE
8
BLACK
6
CONTINUOUS
10
6.139
20
-3.9491
11
6.13896
21
-3.94908
0
LINE
8
BLACK
6
CONTINUOUS
10
6.13896
20
-3.94908
11
5.9031
21
-3.71322
0
LINE
8
BLACK
6
CONTINUOUS
10
5.9031
20
-3.71322
11
5.90309
21
-3.7132
0
LINE
8
BLACK
6
CONTINUOUS
10
5.90309
20
-3.7132
11
5.90276
21
-3.71259
0
LINE
8
BLACK
6
CONTINUOUS
10
5.90276
20
-3.71259
11
5.90276
21
-3.71257
0
LINE
8
BLACK
6
CONTINUOUS
10
5.90276
20
-3.71257
11
5.90273
21
-3.71254
0
LINE
8
BLACK
6
CONTINUOUS
10
5.90273
20
-3.71254
11
5.90253
21
-3.71218
0
LINE
8
BLACK
6
CONTINUOUS
10
5.90253
20
-3.71218
11
5.90252
21
-3.71214
0
LINE
8
BLACK
6
CONTINUOUS
10
5.90252
20
-3.71214
11
5.90252
21
-3.65755
0
LINE
8
BLACK
6
CONTINUOUS
10
5.90252
20
-3.65755
11
5.90253
21
-3.65753
0
LINE
8
BLACK
6
CONTINUOUS
10
5.90253
20
-3.65753
11
5.90272
21
-3.65688
0
LINE
8
BLACK
6
CONTINUOUS
10
5.90272
20
-3.65688
11
5.90288
21
-3.65688
0
LINE
8
BLACK
6
CONTINUOUS
10
5.90288
20
-3.65688
11
5.90288
21
-3.65688
0
LINE
8
BLACK
6
CONTINUOUS
10
5.90288
20
-3.65688
11
5.90288
21
-3.71249
0
LINE
8
BLACK
6
CONTINUOUS
10
5.90288
20
-3.71249
11
5.90288
21
-3.71249
0
LINE
8
BLACK
6
CONTINUOUS
10
5.90288
20
-3.71249
11
6.13946
21
-3.94908
0
LINE
8
BLACK
6
CONTINUOUS
10
6.13946
20
-3.94908
11
6.13947
21
-3.94908
0
LINE
8
BLACK
6
CONTINUOUS
10
6.13947
20
-3.94908
11
6.19508
21
-3.94908
0
LINE
8
BLACK
6
CONTINUOUS
10
6.19508
20
-3.94908
11
6.19508
21
-3.94907
0
LINE
8
BLACK
6
CONTINUOUS
10
6.19508
20
-3.94907
11
6.46646
21
-3.67769
0
LINE
8
BLACK
6
CONTINUOUS
10
6.46646
20
-3.67769
11
6.46646
21
-3.67769
0
LINE
8
BLACK
6
CONTINUOUS
10
6.46646
20
-3.67769
11
6.46646
21
-3.62208
0
LINE
8
BLACK
6
CONTINUOUS
10
6.46646
20
-3.62208
11
6.46645
21
-3.62208
0
LINE
8
BLACK
6
CONTINUOUS
10
6.46645
20
-3.62208
11
6.22987
21
-3.38549
0
LINE
8
BLACK
6
CONTINUOUS
10
6.22987
20
-3.38549
11
6.22987
21
-3.3855
0
LINE
8
BLACK
6
CONTINUOUS
10
6.22987
20
-3.3855
11
6.17426
21
-3.3855
0
LINE
8
BLACK
6
CONTINUOUS
10
6.17426
20
-3.3855
11
6.17426
21
-3.3855
0
LINE
8
BLACK
6
CONTINUOUS
10
6.17426
20
-3.3855
11
5.90288
21
-3.65688
0
LINE
8
BLACK
6
CONTINUOUS
10
5.90288
20
-3.65688
11
5.90272
21
-3.65688
0
LINE
8
BLACK
6
CONTINUOUS
10
5.90272
20
-3.65688
11
5.90272
21
-3.65686
0
LINE
8
BLACK
6
CONTINUOUS
10
5.90272
20
-3.65686
11
5.90274
21
-3.65685
0
LINE
8
BLACK
6
CONTINUOUS
10
5.90274
20
-3.65685
11
5.90274
21
-3.65681
0
LINE
8
BLACK
6
CONTINUOUS
10
5.90274
20
-3.65681
11
5.90285
21
-3.65641
0
LINE
8
BLACK
6
CONTINUOUS
10
5.90285
20
-3.65641
11
5.90287
21
-3.65638
0
LINE
8
BLACK
6
CONTINUOUS
10
5.90287
20
-3.65638
11
6.17353
21
-3.38572
0
LINE
8
BLACK
6
CONTINUOUS
10
6.17353
20
-3.38572
11
6.17355
21
-3.38571
0
LINE
8
BLACK
6
CONTINUOUS
10
6.17355
20
-3.38571
11
6.17416
21
-3.38537
0
LINE
8
BLACK
6
CONTINUOUS
10
6.17416
20
-3.38537
11
6.17418
21
-3.38537
0
LINE
8
BLACK
6
CONTINUOUS
10
6.17418
20
-3.38537
11
6.17421
21
-3.38535
0
LINE
8
BLACK
6
CONTINUOUS
10
6.17421
20
-3.38535
11
6.17457
21
-3.38515
0
LINE
8
BLACK
6
CONTINUOUS
10
6.17457
20
-3.38515
11
6.17461
21
-3.38514
0
LINE
8
BLACK
6
CONTINUOUS
10
6.17461
20
-3.38514
11
6.2292
21
-3.38514
0
LINE
8
BLACK
6
CONTINUOUS
10
6.2292
20
-3.38514
11
6.22922
21
-3.38514
0
LINE
8
BLACK
6
CONTINUOUS
10
5.80615
20
-2.99757
11
5.80682
21
-2.99776
0
LINE
8
BLACK
6
CONTINUOUS
10
5.80682
20
-2.99776
11
5.80684
21
-2.99778
0
LINE
8
BLACK
6
CONTINUOUS
10
5.80684
20
-2.99778
11
5.80688
21
-2.99778
0
LINE
8
BLACK
6
CONTINUOUS
10
5.80688
20
-2.99778
11
5.80727
21
-2.99789
0
LINE
8
BLACK
6
CONTINUOUS
10
5.80727
20
-2.99789
11
5.8073
21
-2.99791
0
LINE
8
BLACK
6
CONTINUOUS
10
5.8073
20
-2.99791
11
6.04316
21
-3.23377
0
LINE
8
BLACK
6
CONTINUOUS
10
6.04316
20
-3.23377
11
6.04318
21
-3.23379
0
LINE
8
BLACK
6
CONTINUOUS
10
6.04318
20
-3.23379
11
6.04351
21
-3.23441
0
LINE
8
BLACK
6
CONTINUOUS
10
6.04351
20
-3.23441
11
6.04351
21
-3.23443
0
LINE
8
BLACK
6
CONTINUOUS
10
6.04351
20
-3.23443
11
6.04354
21
-3.23445
0
LINE
8
BLACK
6
CONTINUOUS
10
6.04354
20
-3.23445
11
6.04374
21
-3.23481
0
LINE
8
BLACK
6
CONTINUOUS
10
6.04374
20
-3.23481
11
6.04374
21
-3.23485
0
LINE
8
BLACK
6
CONTINUOUS
10
6.04374
20
-3.23485
11
6.04374
21
-3.28944
0
LINE
8
BLACK
6
CONTINUOUS
10
6.04374
20
-3.28944
11
6.04374
21
-3.28946
0
LINE
8
BLACK
6
CONTINUOUS
10
6.04374
20
-3.28946
11
6.04354
21
-3.29013
0
LINE
8
BLACK
6
CONTINUOUS
10
6.04354
20
-3.29013
11
6.04353
21
-3.29015
0
LINE
8
BLACK
6
CONTINUOUS
10
6.04353
20
-3.29015
11
6.04353
21
-3.29018
0
LINE
8
BLACK
6
CONTINUOUS
10
6.04353
20
-3.29018
11
6.04341
21
-3.29058
0
LINE
8
BLACK
6
CONTINUOUS
10
6.04341
20
-3.29058
11
6.04339
21
-3.29061
0
LINE
8
BLACK
6
CONTINUOUS
10
6.04339
20
-3.29061
11
5.77274
21
-3.56127
0
LINE
8
BLACK
6
CONTINUOUS
10
5.77274
20
-3.56127
11
5.77272
21
-3.56128
0
LINE
8
BLACK
6
CONTINUOUS
10
5.77272
20
-3.56128
11
5.7721
21
-3.56162
0
LINE
8
BLACK
6
CONTINUOUS
10
5.7721
20
-3.56162
11
5.77208
21
-3.56162
0
LINE
8
BLACK
6
CONTINUOUS
10
5.77208
20
-3.56162
11
5.77206
21
-3.56164
0
LINE
8
BLACK
6
CONTINUOUS
10
5.77206
20
-3.56164
11
5.7717
21
-3.56184
0
LINE
8
BLACK
6
CONTINUOUS
10
5.7717
20
-3.56184
11
5.77166
21
-3.56185
0
LINE
8
BLACK
6
CONTINUOUS
10
5.77166
20
-3.56185
11
5.71707
21
-3.56185
0
LINE
8
BLACK
6
CONTINUOUS
10
5.71707
20
-3.56185
11
5.71705
21
-3.56185
0
LINE
8
BLACK
6
CONTINUOUS
10
5.71705
20
-3.56185
11
5.71638
21
-3.56165
0
LINE
8
BLACK
6
CONTINUOUS
10
5.71638
20
-3.56165
11
5.71636
21
-3.56164
0
LINE
8
BLACK
6
CONTINUOUS
10
5.71636
20
-3.56164
11
5.71632
21
-3.56164
0
LINE
8
BLACK
6
CONTINUOUS
10
5.71632
20
-3.56164
11
5.71593
21
-3.56152
0
LINE
8
BLACK
6
CONTINUOUS
10
5.71593
20
-3.56152
11
5.7159
21
-3.5615
0
LINE
8
BLACK
6
CONTINUOUS
10
5.7159
20
-3.5615
11
5.48004
21
-3.32564
0
LINE
8
BLACK
6
CONTINUOUS
10
5.48004
20
-3.32564
11
5.48002
21
-3.32562
0
LINE
8
BLACK
6
CONTINUOUS
10
5.48002
20
-3.32562
11
5.47969
21
-3.32501
0
LINE
8
BLACK
6
CONTINUOUS
10
5.47969
20
-3.32501
11
5.47969
21
-3.32499
0
LINE
8
BLACK
6
CONTINUOUS
10
5.47969
20
-3.32499
11
5.47966
21
-3.32496
0
LINE
8
BLACK
6
CONTINUOUS
10
5.47966
20
-3.32496
11
5.47947
21
-3.3246
0
LINE
8
BLACK
6
CONTINUOUS
10
5.47947
20
-3.3246
11
5.47946
21
-3.32456
0
LINE
8
BLACK
6
CONTINUOUS
10
5.47946
20
-3.32456
11
5.47946
21
-3.26998
0
LINE
8
BLACK
6
CONTINUOUS
10
5.47946
20
-3.26998
11
5.47946
21
-3.26995
0
LINE
8
BLACK
6
CONTINUOUS
10
5.47946
20
-3.26995
11
5.47965
21
-3.2693
0
LINE
8
BLACK
6
CONTINUOUS
10
5.47965
20
-3.2693
11
5.47981
21
-3.2693
0
LINE
8
BLACK
6
CONTINUOUS
10
5.47981
20
-3.2693
11
5.47981
21
-3.2693
0
LINE
8
BLACK
6
CONTINUOUS
10
5.47981
20
-3.2693
11
5.47981
21
-3.32491
0
LINE
8
BLACK
6
CONTINUOUS
10
5.47981
20
-3.32491
11
5.47981
21
-3.32492
0
LINE
8
BLACK
6
CONTINUOUS
10
5.47981
20
-3.32492
11
5.7164
21
-3.5615
0
LINE
8
BLACK
6
CONTINUOUS
10
5.7164
20
-3.5615
11
5.7164
21
-3.5615
0
LINE
8
BLACK
6
CONTINUOUS
10
5.7164
20
-3.5615
11
5.77201
21
-3.5615
0
LINE
8
BLACK
6
CONTINUOUS
10
5.77201
20
-3.5615
11
5.77201
21
-3.56149
0
LINE
8
BLACK
6
CONTINUOUS
10
5.77201
20
-3.56149
11
6.04339
21
-3.29011
0
LINE
8
BLACK
6
CONTINUOUS
10
6.04339
20
-3.29011
11
6.04339
21
-3.29011
0
LINE
8
BLACK
6
CONTINUOUS
10
6.04339
20
-3.29011
11
6.04339
21
-3.2345
0
LINE
8
BLACK
6
CONTINUOUS
10
6.04339
20
-3.2345
11
6.04339
21
-3.2345
0
LINE
8
BLACK
6
CONTINUOUS
10
6.04339
20
-3.2345
11
5.8068
21
-2.99792
0
LINE
8
BLACK
6
CONTINUOUS
10
5.8068
20
-2.99792
11
5.8068
21
-2.99792
0
LINE
8
BLACK
6
CONTINUOUS
10
5.8068
20
-2.99792
11
5.75119
21
-2.99792
0
LINE
8
BLACK
6
CONTINUOUS
10
5.75119
20
-2.99792
11
5.75119
21
-2.99792
0
LINE
8
BLACK
6
CONTINUOUS
10
5.75119
20
-2.99792
11
5.47981
21
-3.2693
0
LINE
8
BLACK
6
CONTINUOUS
10
5.47981
20
-3.2693
11
5.47965
21
-3.2693
0
LINE
8
BLACK
6
CONTINUOUS
10
5.47965
20
-3.2693
11
5.47966
21
-3.26928
0
LINE
8
BLACK
6
CONTINUOUS
10
5.47966
20
-3.26928
11
5.47967
21
-3.26927
0
LINE
8
BLACK
6
CONTINUOUS
10
5.47967
20
-3.26927
11
5.47967
21
-3.26923
0
LINE
8
BLACK
6
CONTINUOUS
10
5.47967
20
-3.26923
11
5.47979
21
-3.26884
0
LINE
8
BLACK
6
CONTINUOUS
10
5.47979
20
-3.26884
11
5.47981
21
-3.2688
0
LINE
8
BLACK
6
CONTINUOUS
10
5.47981
20
-3.2688
11
5.75047
21
-2.99814
0
LINE
8
BLACK
6
CONTINUOUS
10
5.75047
20
-2.99814
11
5.75048
21
-2.99813
0
LINE
8
BLACK
6
CONTINUOUS
10
5.75048
20
-2.99813
11
5.7511
21
-2.9978
0
LINE
8
BLACK
6
CONTINUOUS
10
5.7511
20
-2.9978
11
5.75112
21
-2.9978
0
LINE
8
BLACK
6
CONTINUOUS
10
5.75112
20
-2.9978
11
5.75115
21
-2.99777
0
LINE
8
BLACK
6
CONTINUOUS
10
5.75115
20
-2.99777
11
5.75151
21
-2.99757
0
LINE
8
BLACK
6
CONTINUOUS
10
5.75151
20
-2.99757
11
5.75154
21
-2.99756
0
LINE
8
BLACK
6
CONTINUOUS
10
5.75154
20
-2.99756
11
5.80613
21
-2.99756
0
LINE
8
BLACK
6
CONTINUOUS
10
5.80613
20
-2.99756
11
5.80615
21
-2.99757
0
LINE
8
BLACK
6
CONTINUOUS
10
4.97795
20
-2.84861
11
4.97862
21
-2.84881
0
LINE
8
BLACK
6
CONTINUOUS
10
4.97862
20
-2.84881
11
4.97863
21
-2.84882
0
LINE
8
BLACK
6
CONTINUOUS
10
4.97863
20
-2.84882
11
4.97867
21
-2.84882
0
LINE
8
BLACK
6
CONTINUOUS
10
4.97867
20
-2.84882
11
4.97906
21
-2.84894
0
LINE
8
BLACK
6
CONTINUOUS
10
4.97906
20
-2.84894
11
4.9791
21
-2.84896
0
LINE
8
BLACK
6
CONTINUOUS
10
4.9791
20
-2.84896
11
5.1036
21
-2.97346
0
LINE
8
BLACK
6
CONTINUOUS
10
5.1036
20
-2.97346
11
5.10361
21
-2.97348
0
LINE
8
BLACK
6
CONTINUOUS
10
5.10361
20
-2.97348
11
5.10395
21
-2.97409
0
LINE
8
BLACK
6
CONTINUOUS
10
5.10395
20
-2.97409
11
5.10395
21
-2.97411
0
LINE
8
BLACK
6
CONTINUOUS
10
5.10395
20
-2.97411
11
5.10397
21
-2.97414
0
LINE
8
BLACK
6
CONTINUOUS
10
5.10397
20
-2.97414
11
5.10417
21
-2.9745
0
LINE
8
BLACK
6
CONTINUOUS
10
5.10417
20
-2.9745
11
5.10418
21
-2.97454
0
LINE
8
BLACK
6
CONTINUOUS
10
5.10418
20
-2.97454
11
5.10418
21
-3.02913
0
LINE
8
BLACK
6
CONTINUOUS
10
5.10418
20
-3.02913
11
5.10418
21
-3.02915
0
LINE
8
BLACK
6
CONTINUOUS
10
5.10418
20
-3.02915
11
5.10398
21
-3.02982
0
LINE
8
BLACK
6
CONTINUOUS
10
5.10398
20
-3.02982
11
5.10397
21
-3.02983
0
LINE
8
BLACK
6
CONTINUOUS
10
5.10397
20
-3.02983
11
5.10397
21
-3.02987
0
LINE
8
BLACK
6
CONTINUOUS
10
5.10397
20
-3.02987
11
5.10385
21
-3.03027
0
LINE
8
BLACK
6
CONTINUOUS
10
5.10385
20
-3.03027
11
5.10383
21
-3.0303
0
LINE
8
BLACK
6
CONTINUOUS
10
5.10383
20
-3.0303
11
4.97933
21
-3.1548
0
LINE
8
BLACK
6
CONTINUOUS
10
4.97933
20
-3.1548
11
4.97931
21
-3.15482
0
LINE
8
BLACK
6
CONTINUOUS
10
4.97931
20
-3.15482
11
4.97869
21
-3.15515
0
LINE
8
BLACK
6
CONTINUOUS
10
4.97869
20
-3.15515
11
4.97867
21
-3.15515
0
LINE
8
BLACK
6
CONTINUOUS
10
4.97867
20
-3.15515
11
4.97865
21
-3.15518
0
LINE
8
BLACK
6
CONTINUOUS
10
4.97865
20
-3.15518
11
4.97829
21
-3.15538
0
LINE
8
BLACK
6
CONTINUOUS
10
4.97829
20
-3.15538
11
4.97825
21
-3.15539
0
LINE
8
BLACK
6
CONTINUOUS
10
4.97825
20
-3.15539
11
4.92366
21
-3.15539
0
LINE
8
BLACK
6
CONTINUOUS
10
4.92366
20
-3.15539
11
4.92364
21
-3.15538
0
LINE
8
BLACK
6
CONTINUOUS
10
4.92364
20
-3.15538
11
4.92297
21
-3.15519
0
LINE
8
BLACK
6
CONTINUOUS
10
4.92297
20
-3.15519
11
4.92295
21
-3.15517
0
LINE
8
BLACK
6
CONTINUOUS
10
4.92295
20
-3.15517
11
4.92292
21
-3.15517
0
LINE
8
BLACK
6
CONTINUOUS
10
4.92292
20
-3.15517
11
4.92252
21
-3.15505
0
LINE
8
BLACK
6
CONTINUOUS
10
4.92252
20
-3.15505
11
4.92249
21
-3.15503
0
LINE
8
BLACK
6
CONTINUOUS
10
4.92249
20
-3.15503
11
4.79798
21
-3.03053
0
LINE
8
BLACK
6
CONTINUOUS
10
4.79798
20
-3.03053
11
4.79797
21
-3.03051
0
LINE
8
BLACK
6
CONTINUOUS
10
4.79797
20
-3.03051
11
4.79764
21
-3.0299
0
LINE
8
BLACK
6
CONTINUOUS
10
4.79764
20
-3.0299
11
4.79764
21
-3.02988
0
LINE
8
BLACK
6
CONTINUOUS
10
4.79764
20
-3.02988
11
4.79761
21
-3.02985
0
LINE
8
BLACK
6
CONTINUOUS
10
4.79761
20
-3.02985
11
4.79741
21
-3.02949
0
LINE
8
BLACK
6
CONTINUOUS
10
4.79741
20
-3.02949
11
4.7974
21
-3.02945
0
LINE
8
BLACK
6
CONTINUOUS
10
4.7974
20
-3.02945
11
4.7974
21
-2.97487
0
LINE
8
BLACK
6
CONTINUOUS
10
4.7974
20
-2.97487
11
4.79741
21
-2.97484
0
LINE
8
BLACK
6
CONTINUOUS
10
4.79741
20
-2.97484
11
4.7976
21
-2.97419
0
LINE
8
BLACK
6
CONTINUOUS
10
4.7976
20
-2.97419
11
4.79776
21
-2.97419
0
LINE
8
BLACK
6
CONTINUOUS
10
4.79776
20
-2.97419
11
4.79776
21
-2.9742
0
LINE
8
BLACK
6
CONTINUOUS
10
4.79776
20
-2.9742
11
4.79776
21
-3.0298
0
LINE
8
BLACK
6
CONTINUOUS
10
4.79776
20
-3.0298
11
4.79776
21
-3.02981
0
LINE
8
BLACK
6
CONTINUOUS
10
4.79776
20
-3.02981
11
4.92299
21
-3.15503
0
LINE
8
BLACK
6
CONTINUOUS
10
4.92299
20
-3.15503
11
4.92299
21
-3.15503
0
LINE
8
BLACK
6
CONTINUOUS
10
4.92299
20
-3.15503
11
4.9786
21
-3.15503
0
LINE
8
BLACK
6
CONTINUOUS
10
4.9786
20
-3.15503
11
4.9786
21
-3.15503
0
LINE
8
BLACK
6
CONTINUOUS
10
4.9786
20
-3.15503
11
5.10383
21
-3.0298
0
LINE
8
BLACK
6
CONTINUOUS
10
5.10383
20
-3.0298
11
5.10383
21
-3.0298
0
LINE
8
BLACK
6
CONTINUOUS
10
5.10383
20
-3.0298
11
5.10383
21
-2.97419
0
LINE
8
BLACK
6
CONTINUOUS
10
5.10383
20
-2.97419
11
5.10382
21
-2.97419
0
LINE
8
BLACK
6
CONTINUOUS
10
5.10382
20
-2.97419
11
4.9786
21
-2.84896
0
LINE
8
BLACK
6
CONTINUOUS
10
4.9786
20
-2.84896
11
4.97859
21
-2.84896
0
LINE
8
BLACK
6
CONTINUOUS
10
4.97859
20
-2.84896
11
4.92298
21
-2.84896
0
LINE
8
BLACK
6
CONTINUOUS
10
4.92298
20
-2.84896
11
4.92298
21
-2.84896
0
LINE
8
BLACK
6
CONTINUOUS
10
4.92298
20
-2.84896
11
4.79776
21
-2.97419
0
LINE
8
BLACK
6
CONTINUOUS
10
4.79776
20
-2.97419
11
4.7976
21
-2.97419
0
LINE
8
BLACK
6
CONTINUOUS
10
4.7976
20
-2.97419
11
4.7976
21
-2.97417
0
LINE
8
BLACK
6
CONTINUOUS
10
4.7976
20
-2.97417
11
4.79762
21
-2.97416
0
LINE
8
BLACK
6
CONTINUOUS
10
4.79762
20
-2.97416
11
4.79762
21
-2.97412
0
LINE
8
BLACK
6
CONTINUOUS
10
4.79762
20
-2.97412
11
4.79773
21
-2.97373
0
LINE
8
BLACK
6
CONTINUOUS
10
4.79773
20
-2.97373
11
4.79775
21
-2.97369
0
LINE
8
BLACK
6
CONTINUOUS
10
4.79775
20
-2.97369
11
4.92226
21
-2.84919
0
LINE
8
BLACK
6
CONTINUOUS
10
4.92226
20
-2.84919
11
4.92228
21
-2.84918
0
LINE
8
BLACK
6
CONTINUOUS
10
4.92228
20
-2.84918
11
4.92289
21
-2.84884
0
LINE
8
BLACK
6
CONTINUOUS
10
4.92289
20
-2.84884
11
4.92291
21
-2.84884
0
LINE
8
BLACK
6
CONTINUOUS
10
4.92291
20
-2.84884
11
4.92294
21
-2.84881
0
LINE
8
BLACK
6
CONTINUOUS
10
4.92294
20
-2.84881
11
4.9233
21
-2.84862
0
LINE
8
BLACK
6
CONTINUOUS
10
4.9233
20
-2.84862
11
4.92334
21
-2.84861
0
LINE
8
BLACK
6
CONTINUOUS
10
4.92334
20
-2.84861
11
4.97792
21
-2.84861
0
LINE
8
BLACK
6
CONTINUOUS
10
4.97792
20
-2.84861
11
4.97795
21
-2.84861
0
LINE
8
BLACK
6
CONTINUOUS
10
5.60469
20
-2.09202
11
5.60473
21
-2.09203
0
LINE
8
BLACK
6
CONTINUOUS
10
5.60473
20
-2.09203
11
5.60506
21
-2.09224
0
LINE
8
BLACK
6
CONTINUOUS
10
5.60506
20
-2.09224
11
5.60507
21
-2.09225
0
LINE
8
BLACK
6
CONTINUOUS
10
5.60507
20
-2.09225
11
5.94912
21
-2.4363
0
LINE
8
BLACK
6
CONTINUOUS
10
5.94912
20
-2.4363
11
5.94914
21
-2.43632
0
LINE
8
BLACK
6
CONTINUOUS
10
5.94914
20
-2.43632
11
5.94947
21
-2.43694
0
LINE
8
BLACK
6
CONTINUOUS
10
5.94947
20
-2.43694
11
5.94947
21
-2.43697
0
LINE
8
BLACK
6
CONTINUOUS
10
5.94947
20
-2.43697
11
5.94949
21
-2.43699
0
LINE
8
BLACK
6
CONTINUOUS
10
5.94949
20
-2.43699
11
5.9495
21
-2.43702
0
LINE
8
BLACK
6
CONTINUOUS
10
5.9495
20
-2.43702
11
5.94948
21
-2.43719
0
LINE
8
BLACK
6
CONTINUOUS
10
5.94948
20
-2.43719
11
5.94947
21
-2.43723
0
LINE
8
BLACK
6
CONTINUOUS
10
5.94947
20
-2.43723
11
5.94926
21
-2.43756
0
LINE
8
BLACK
6
CONTINUOUS
10
5.94926
20
-2.43756
11
5.94925
21
-2.43757
0
LINE
8
BLACK
6
CONTINUOUS
10
5.94925
20
-2.43757
11
5.65782
21
-2.729
0
LINE
8
BLACK
6
CONTINUOUS
10
5.65782
20
-2.729
11
5.6578
21
-2.72902
0
LINE
8
BLACK
6
CONTINUOUS
10
5.6578
20
-2.72902
11
5.65718
21
-2.72935
0
LINE
8
BLACK
6
CONTINUOUS
10
5.65718
20
-2.72935
11
5.65715
21
-2.72935
0
LINE
8
BLACK
6
CONTINUOUS
10
5.65715
20
-2.72935
11
5.65713
21
-2.72937
0
LINE
8
BLACK
6
CONTINUOUS
10
5.65713
20
-2.72937
11
5.6571
21
-2.72938
0
LINE
8
BLACK
6
CONTINUOUS
10
5.6571
20
-2.72938
11
5.65693
21
-2.72936
0
LINE
8
BLACK
6
CONTINUOUS
10
5.65693
20
-2.72936
11
5.65689
21
-2.72935
0
LINE
8
BLACK
6
CONTINUOUS
10
5.65689
20
-2.72935
11
5.65657
21
-2.72914
0
LINE
8
BLACK
6
CONTINUOUS
10
5.65657
20
-2.72914
11
5.65655
21
-2.72913
0
LINE
8
BLACK
6
CONTINUOUS
10
5.65655
20
-2.72913
11
5.3125
21
-2.38507
0
LINE
8
BLACK
6
CONTINUOUS
10
5.3125
20
-2.38507
11
5.31248
21
-2.38506
0
LINE
8
BLACK
6
CONTINUOUS
10
5.31248
20
-2.38506
11
5.31215
21
-2.38444
0
LINE
8
BLACK
6
CONTINUOUS
10
5.31215
20
-2.38444
11
5.31215
21
-2.38441
0
LINE
8
BLACK
6
CONTINUOUS
10
5.31215
20
-2.38441
11
5.31213
21
-2.38439
0
LINE
8
BLACK
6
CONTINUOUS
10
5.31213
20
-2.38439
11
5.31213
21
-2.38438
0
LINE
8
BLACK
6
CONTINUOUS
10
5.31213
20
-2.38438
11
5.3123
21
-2.38438
0
LINE
8
BLACK
6
CONTINUOUS
10
5.3123
20
-2.38438
11
5.65712
21
-2.7292
0
LINE
8
BLACK
6
CONTINUOUS
10
5.65712
20
-2.7292
11
5.94932
21
-2.437
0
LINE
8
BLACK
6
CONTINUOUS
10
5.94932
20
-2.437
11
5.6045
21
-2.09218
0
LINE
8
BLACK
6
CONTINUOUS
10
5.6045
20
-2.09218
11
5.3123
21
-2.38438
0
LINE
8
BLACK
6
CONTINUOUS
10
5.3123
20
-2.38438
11
5.31213
21
-2.38438
0
LINE
8
BLACK
6
CONTINUOUS
10
5.31213
20
-2.38438
11
5.31212
21
-2.38436
0
LINE
8
BLACK
6
CONTINUOUS
10
5.31212
20
-2.38436
11
5.31214
21
-2.38419
0
LINE
8
BLACK
6
CONTINUOUS
10
5.31214
20
-2.38419
11
5.31215
21
-2.38415
0
LINE
8
BLACK
6
CONTINUOUS
10
5.31215
20
-2.38415
11
5.31236
21
-2.38382
0
LINE
8
BLACK
6
CONTINUOUS
10
5.31236
20
-2.38382
11
5.31237
21
-2.38381
0
LINE
8
BLACK
6
CONTINUOUS
10
5.31237
20
-2.38381
11
5.6038
21
-2.09238
0
LINE
8
BLACK
6
CONTINUOUS
10
5.6038
20
-2.09238
11
5.60382
21
-2.09236
0
LINE
8
BLACK
6
CONTINUOUS
10
5.60382
20
-2.09236
11
5.60444
21
-2.09203
0
LINE
8
BLACK
6
CONTINUOUS
10
5.60444
20
-2.09203
11
5.60447
21
-2.09203
0
LINE
8
BLACK
6
CONTINUOUS
10
5.60447
20
-2.09203
11
5.60449
21
-2.09201
0
LINE
8
BLACK
6
CONTINUOUS
10
5.60449
20
-2.09201
11
5.60452
21
-2.092
0
LINE
8
BLACK
6
CONTINUOUS
10
5.60452
20
-2.092
11
5.60469
21
-2.09202
0
LINE
8
BLACK
6
CONTINUOUS
10
4.88019
20
-2.32995
11
4.88023
21
-2.32996
0
LINE
8
BLACK
6
CONTINUOUS
10
4.88023
20
-2.32996
11
4.88056
21
-2.33017
0
LINE
8
BLACK
6
CONTINUOUS
10
4.88056
20
-2.33017
11
4.88057
21
-2.33018
0
LINE
8
BLACK
6
CONTINUOUS
10
4.88057
20
-2.33018
11
4.97969
21
-2.4293
0
LINE
8
BLACK
6
CONTINUOUS
10
4.97969
20
-2.4293
11
4.97971
21
-2.42932
0
LINE
8
BLACK
6
CONTINUOUS
10
4.97971
20
-2.42932
11
4.98004
21
-2.42994
0
LINE
8
BLACK
6
CONTINUOUS
10
4.98004
20
-2.42994
11
4.98004
21
-2.42997
0
LINE
8
BLACK
6
CONTINUOUS
10
4.98004
20
-2.42997
11
4.98006
21
-2.42999
0
LINE
8
BLACK
6
CONTINUOUS
10
4.98006
20
-2.42999
11
4.98007
21
-2.43002
0
LINE
8
BLACK
6
CONTINUOUS
10
4.98007
20
-2.43002
11
4.98005
21
-2.43019
0
LINE
8
BLACK
6
CONTINUOUS
10
4.98005
20
-2.43019
11
4.98004
21
-2.43023
0
LINE
8
BLACK
6
CONTINUOUS
10
4.98004
20
-2.43023
11
4.97983
21
-2.43056
0
LINE
8
BLACK
6
CONTINUOUS
10
4.97983
20
-2.43056
11
4.97982
21
-2.43057
0
LINE
8
BLACK
6
CONTINUOUS
10
4.97982
20
-2.43057
11
4.8807
21
-2.52969
0
LINE
8
BLACK
6
CONTINUOUS
10
4.8807
20
-2.52969
11
4.88068
21
-2.52971
0
LINE
8
BLACK
6
CONTINUOUS
10
4.88068
20
-2.52971
11
4.88006
21
-2.53004
0
LINE
8
BLACK
6
CONTINUOUS
10
4.88006
20
-2.53004
11
4.88003
21
-2.53004
0
LINE
8
BLACK
6
CONTINUOUS
10
4.88003
20
-2.53004
11
4.88001
21
-2.53006
0
LINE
8
BLACK
6
CONTINUOUS
10
4.88001
20
-2.53006
11
4.87998
21
-2.53007
0
LINE
8
BLACK
6
CONTINUOUS
10
4.87998
20
-2.53007
11
4.87981
21
-2.53005
0
LINE
8
BLACK
6
CONTINUOUS
10
4.87981
20
-2.53005
11
4.87977
21
-2.53004
0
LINE
8
BLACK
6
CONTINUOUS
10
4.87977
20
-2.53004
11
4.87944
21
-2.52983
0
LINE
8
BLACK
6
CONTINUOUS
10
4.87944
20
-2.52983
11
4.87943
21
-2.52982
0
LINE
8
BLACK
6
CONTINUOUS
10
4.87943
20
-2.52982
11
4.78031
21
-2.4307
0
LINE
8
BLACK
6
CONTINUOUS
10
4.78031
20
-2.4307
11
4.78029
21
-2.43068
0
LINE
8
BLACK
6
CONTINUOUS
10
4.78029
20
-2.43068
11
4.77996
21
-2.43006
0
LINE
8
BLACK
6
CONTINUOUS
10
4.77996
20
-2.43006
11
4.77996
21
-2.43003
0
LINE
8
BLACK
6
CONTINUOUS
10
4.77996
20
-2.43003
11
4.77994
21
-2.43001
0
LINE
8
BLACK
6
CONTINUOUS
10
4.77994
20
-2.43001
11
4.77993
21
-2.43
0
LINE
8
BLACK
6
CONTINUOUS
10
4.77993
20
-2.43
11
4.78011
21
-2.43
0
LINE
8
BLACK
6
CONTINUOUS
10
4.78011
20
-2.43
11
4.88
21
-2.52989
0
LINE
8
BLACK
6
CONTINUOUS
10
4.88
20
-2.52989
11
4.97989
21
-2.43
0
LINE
8
BLACK
6
CONTINUOUS
10
4.97989
20
-2.43
11
4.88
21
-2.33011
0
LINE
8
BLACK
6
CONTINUOUS
10
4.88
20
-2.33011
11
4.78011
21
-2.43
0
LINE
8
BLACK
6
CONTINUOUS
10
4.78011
20
-2.43
11
4.77993
21
-2.43
0
LINE
8
BLACK
6
CONTINUOUS
10
4.77993
20
-2.43
11
4.77993
21
-2.42998
0
LINE
8
BLACK
6
CONTINUOUS
10
4.77993
20
-2.42998
11
4.77995
21
-2.42981
0
LINE
8
BLACK
6
CONTINUOUS
10
4.77995
20
-2.42981
11
4.77996
21
-2.42977
0
LINE
8
BLACK
6
CONTINUOUS
10
4.77996
20
-2.42977
11
4.78017
21
-2.42944
0
LINE
8
BLACK
6
CONTINUOUS
10
4.78017
20
-2.42944
11
4.78018
21
-2.42943
0
LINE
8
BLACK
6
CONTINUOUS
10
4.78018
20
-2.42943
11
4.8793
21
-2.33031
0
LINE
8
BLACK
6
CONTINUOUS
10
4.8793
20
-2.33031
11
4.87932
21
-2.33029
0
LINE
8
BLACK
6
CONTINUOUS
10
4.87932
20
-2.33029
11
4.87994
21
-2.32996
0
LINE
8
BLACK
6
CONTINUOUS
10
4.87994
20
-2.32996
11
4.87997
21
-2.32996
0
LINE
8
BLACK
6
CONTINUOUS
10
4.87997
20
-2.32996
11
4.87999
21
-2.32994
0
LINE
8
BLACK
6
CONTINUOUS
10
4.87999
20
-2.32994
11
4.88002
21
-2.32993
0
LINE
8
BLACK
6
CONTINUOUS
10
4.88002
20
-2.32993
11
4.88019
21
-2.32995
  0
ENDSEC
  0
EOF
