  0
SECTION
  2
HEADER
  9
$ANGBASE
  50
0.0
  9
$ANGDIR
  70
1
  9
$MEASUREMENT
  70
0
  0
ENDSEC
  0
SECTION
  2
TABLES
  0
TABLE
  2
LTYPE
  70
4
  0
LTYPE
  5
40F
  2
CONTINUOUS
  70
0
  3
Solid line
  72
65
  73
0
  40
0.0
  0
LTYPE
  5
410
  2
DASHDOT
 70
0
  3
Dash Dot ____ _ ____ _
 72
65
 73
4
 40
2.0
 49
1.25
 49
-0.25
 49
0.25
 49
-0.25
  0
LTYPE
  5
411
  2
DASHED
 70
0
  3
Dashed __ __ __ __ __
 72
65
 73
2
 40
0.75
 49
0.5
 49
-0.25
  0
LTYPE
  5
43B
  2
DOTTED
 70
0
  3
Dotted .  .  .  .
 72
65
 73
2
 40
0.2
 49
0.0
 49
-0.2
  0
ENDTAB
  0
TABLE
  2
STYLE
  70
4
  0
STYLE
  2
KICAD
  70
0
  40
0
  41
1
  42
1
  50
0
  71
0
  3
isocp.shx
  0
STYLE
  2
KICADB
  70
0
  40
0
  41
1
  42
1
  50
0
  71
0
  3
isocp.shx
  0
STYLE
  2
KICADI
  70
0
  40
0
  41
1
  42
1
  50
15
  71
0
  3
isocp.shx
  0
STYLE
  2
KICADBI
  70
0
  40
0
  41
1
  42
1
  50
15
  71
0
  3
isocp.shx
  0
ENDTAB
  0
TABLE
  2
LAYER
  70
1
  0
LAYER
  2
BLACK
  70
0
  62
7
  6
CONTINUOUS
  0
ENDTAB
  0
ENDSEC
  0
SECTION
  2
ENTITIES
0
LINE
8
BLACK
6
CONTINUOUS
10
4.41668
20
-4.14118
11
5.30764
21
-5.03214
0
LINE
8
BLACK
6
CONTINUOUS
10
5.30764
20
-5.03214
11
5.30764
21
-5.03214
0
LINE
8
BLACK
6
CONTINUOUS
10
5.30764
20
-5.03214
11
5.30821
21
-5.03353
0
LINE
8
BLACK
6
CONTINUOUS
10
5.30821
20
-5.03353
11
5.30764
21
-5.03492
0
LINE
8
BLACK
6
CONTINUOUS
10
5.30764
20
-5.03492
11
5.07429
21
-5.26827
0
LINE
8
BLACK
6
CONTINUOUS
10
5.07429
20
-5.26827
11
5.0729
21
-5.26884
0
LINE
8
BLACK
6
CONTINUOUS
10
5.0729
20
-5.26884
11
5.07191
21
-5.26844
0
LINE
8
BLACK
6
CONTINUOUS
10
5.07191
20
-5.26844
11
5.07151
21
-5.26827
0
LINE
8
BLACK
6
CONTINUOUS
10
5.07151
20
-5.26827
11
4.18055
21
-4.37731
0
LINE
8
BLACK
6
CONTINUOUS
10
4.18055
20
-4.37731
11
4.17998
21
-4.37592
0
LINE
8
BLACK
6
CONTINUOUS
10
4.17998
20
-4.37592
11
4.18055
21
-4.37453
0
LINE
8
BLACK
6
CONTINUOUS
10
4.18055
20
-4.37453
11
4.4139
21
-4.14118
0
LINE
8
BLACK
6
CONTINUOUS
10
4.4139
20
-4.14118
11
4.41529
21
-4.14061
0
LINE
8
BLACK
6
CONTINUOUS
10
4.41529
20
-4.14061
11
4.41668
21
-4.14118
0
LINE
8
BLACK
6
CONTINUOUS
10
4.18473
20
-4.37592
11
5.0729
21
-5.26409
0
LINE
8
BLACK
6
CONTINUOUS
10
5.0729
20
-5.26409
11
5.30346
21
-5.03353
0
LINE
8
BLACK
6
CONTINUOUS
10
5.30346
20
-5.03353
11
4.41529
21
-4.14536
0
LINE
8
BLACK
6
CONTINUOUS
10
4.41529
20
-4.14536
11
4.18473
21
-4.37592
0
LINE
8
BLACK
6
CONTINUOUS
10
4.78564
20
-4.69596
11
4.78659
21
-4.69602
0
LINE
8
BLACK
6
CONTINUOUS
10
4.78659
20
-4.69602
11
4.79255
21
-4.69801
0
LINE
8
BLACK
6
CONTINUOUS
10
4.79255
20
-4.69801
11
4.79368
21
-4.69876
0
LINE
8
BLACK
6
CONTINUOUS
10
4.79368
20
-4.69876
11
4.79486
21
-4.69943
0
LINE
8
BLACK
6
CONTINUOUS
10
4.79486
20
-4.69943
11
4.8048
21
-4.70938
0
LINE
8
BLACK
6
CONTINUOUS
10
4.8048
20
-4.70938
11
4.80548
21
-4.71055
0
LINE
8
BLACK
6
CONTINUOUS
10
4.80548
20
-4.71055
11
4.80623
21
-4.71169
0
LINE
8
BLACK
6
CONTINUOUS
10
4.80623
20
-4.71169
11
4.80822
21
-4.71765
0
LINE
8
BLACK
6
CONTINUOUS
10
4.80822
20
-4.71765
11
4.80827
21
-4.7186
0
LINE
8
BLACK
6
CONTINUOUS
10
4.80827
20
-4.7186
11
4.80852
21
-4.71952
0
LINE
8
BLACK
6
CONTINUOUS
10
4.80852
20
-4.71952
11
4.80852
21
-4.7235
0
LINE
8
BLACK
6
CONTINUOUS
10
4.80852
20
-4.7235
11
4.80827
21
-4.72441
0
LINE
8
BLACK
6
CONTINUOUS
10
4.80827
20
-4.72441
11
4.80822
21
-4.72536
0
LINE
8
BLACK
6
CONTINUOUS
10
4.80822
20
-4.72536
11
4.80623
21
-4.73133
0
LINE
8
BLACK
6
CONTINUOUS
10
4.80623
20
-4.73133
11
4.80548
21
-4.73246
0
LINE
8
BLACK
6
CONTINUOUS
10
4.80548
20
-4.73246
11
4.8048
21
-4.73364
0
LINE
8
BLACK
6
CONTINUOUS
10
4.8048
20
-4.73364
11
4.80083
21
-4.73761
0
LINE
8
BLACK
6
CONTINUOUS
10
4.80083
20
-4.73761
11
4.8
21
-4.73809
0
LINE
8
BLACK
6
CONTINUOUS
10
4.8
20
-4.73809
11
4.79929
21
-4.73872
0
LINE
8
BLACK
6
CONTINUOUS
10
4.79929
20
-4.73872
11
4.79134
21
-4.7427
0
LINE
8
BLACK
6
CONTINUOUS
10
4.79134
20
-4.7427
11
4.79001
21
-4.74297
0
LINE
8
BLACK
6
CONTINUOUS
10
4.79001
20
-4.74297
11
4.7887
21
-4.74332
0
LINE
8
BLACK
6
CONTINUOUS
10
4.7887
20
-4.74332
11
4.75523
21
-4.74332
0
LINE
8
BLACK
6
CONTINUOUS
10
4.75523
20
-4.74332
11
4.771
21
-4.75909
0
LINE
8
BLACK
6
CONTINUOUS
10
4.771
20
-4.75909
11
4.77253
21
-4.76174
0
LINE
8
BLACK
6
CONTINUOUS
10
4.77253
20
-4.76174
11
4.77253
21
-4.76479
0
LINE
8
BLACK
6
CONTINUOUS
10
4.77253
20
-4.76479
11
4.771
21
-4.76744
0
LINE
8
BLACK
6
CONTINUOUS
10
4.771
20
-4.76744
11
4.76835
21
-4.76897
0
LINE
8
BLACK
6
CONTINUOUS
10
4.76835
20
-4.76897
11
4.76529
21
-4.76897
0
LINE
8
BLACK
6
CONTINUOUS
10
4.76529
20
-4.76897
11
4.76265
21
-4.76744
0
LINE
8
BLACK
6
CONTINUOUS
10
4.76265
20
-4.76744
11
4.7368
21
-4.74159
0
LINE
8
BLACK
6
CONTINUOUS
10
4.7368
20
-4.74159
11
4.73641
21
-4.74092
0
LINE
8
BLACK
6
CONTINUOUS
10
4.73641
20
-4.74092
11
4.73586
21
-4.74037
0
LINE
8
BLACK
6
CONTINUOUS
10
4.73586
20
-4.74037
11
4.73566
21
-4.73962
0
LINE
8
BLACK
6
CONTINUOUS
10
4.73566
20
-4.73962
11
4.73527
21
-4.73894
0
LINE
8
BLACK
6
CONTINUOUS
10
4.73527
20
-4.73894
11
4.73527
21
-4.73817
0
LINE
8
BLACK
6
CONTINUOUS
10
4.73527
20
-4.73817
11
4.73507
21
-4.73741
0
LINE
8
BLACK
6
CONTINUOUS
10
4.73507
20
-4.73741
11
4.73527
21
-4.73666
0
LINE
8
BLACK
6
CONTINUOUS
10
4.73527
20
-4.73666
11
4.73527
21
-4.73636
0
LINE
8
BLACK
6
CONTINUOUS
10
4.73527
20
-4.73636
11
4.73519
21
-4.73606
0
LINE
8
BLACK
6
CONTINUOUS
10
4.73519
20
-4.73606
11
4.73527
21
-4.73589
0
LINE
8
BLACK
6
CONTINUOUS
10
4.73527
20
-4.73589
11
4.73527
21
-4.73589
0
LINE
8
BLACK
6
CONTINUOUS
10
4.73527
20
-4.73589
11
4.73528
21
-4.73586
0
LINE
8
BLACK
6
CONTINUOUS
10
4.73528
20
-4.73586
11
4.73575
21
-4.73485
0
LINE
8
BLACK
6
CONTINUOUS
10
4.73575
20
-4.73485
11
4.73586
21
-4.73446
0
LINE
8
BLACK
6
CONTINUOUS
10
4.73586
20
-4.73446
11
4.736
21
-4.73432
0
LINE
8
BLACK
6
CONTINUOUS
10
4.736
20
-4.73432
11
4.73604
21
-4.73423
0
LINE
8
BLACK
6
CONTINUOUS
10
4.73604
20
-4.73423
11
4.73647
21
-4.7338
0
LINE
8
BLACK
6
CONTINUOUS
10
4.73647
20
-4.7338
11
4.7368
21
-4.73324
0
LINE
8
BLACK
6
CONTINUOUS
10
4.7368
20
-4.73324
11
4.73736
21
-4.73291
0
LINE
8
BLACK
6
CONTINUOUS
10
4.73736
20
-4.73291
11
4.75593
21
-4.71435
0
LINE
8
BLACK
6
CONTINUOUS
10
4.75593
20
-4.71435
11
4.75665
21
-4.71384
0
LINE
8
BLACK
6
CONTINUOUS
10
4.75665
20
-4.71384
11
4.75669
21
-4.71379
0
LINE
8
BLACK
6
CONTINUOUS
10
4.75669
20
-4.71379
11
4.762
21
-4.71114
0
LINE
8
BLACK
6
CONTINUOUS
10
4.762
20
-4.71114
11
4.76298
21
-4.71085
0
LINE
8
BLACK
6
CONTINUOUS
10
4.76298
20
-4.71085
11
4.76315
21
-4.71089
0
LINE
8
BLACK
6
CONTINUOUS
10
4.76315
20
-4.71089
11
4.76332
21
-4.71083
0
LINE
8
BLACK
6
CONTINUOUS
10
4.76332
20
-4.71083
11
4.76862
21
-4.71083
0
LINE
8
BLACK
6
CONTINUOUS
10
4.76862
20
-4.71083
11
4.76963
21
-4.71101
0
LINE
8
BLACK
6
CONTINUOUS
10
4.76963
20
-4.71101
11
4.76976
21
-4.71112
0
LINE
8
BLACK
6
CONTINUOUS
10
4.76976
20
-4.71112
11
4.76994
21
-4.71114
0
LINE
8
BLACK
6
CONTINUOUS
10
4.76994
20
-4.71114
11
4.77524
21
-4.71379
0
LINE
8
BLACK
6
CONTINUOUS
10
4.77524
20
-4.71379
11
4.77595
21
-4.71432
0
LINE
8
BLACK
6
CONTINUOUS
10
4.77595
20
-4.71432
11
4.77601
21
-4.71435
0
LINE
8
BLACK
6
CONTINUOUS
10
4.77601
20
-4.71435
11
4.77866
21
-4.717
0
LINE
8
BLACK
6
CONTINUOUS
10
4.77866
20
-4.717
11
4.77925
21
-4.71784
0
LINE
8
BLACK
6
CONTINUOUS
10
4.77925
20
-4.71784
11
4.77943
21
-4.71985
0
LINE
8
BLACK
6
CONTINUOUS
10
4.77943
20
-4.71985
11
4.77827
21
-4.72151
0
LINE
8
BLACK
6
CONTINUOUS
10
4.77827
20
-4.72151
11
4.77632
21
-4.72203
0
LINE
8
BLACK
6
CONTINUOUS
10
4.77632
20
-4.72203
11
4.77449
21
-4.72117
0
LINE
8
BLACK
6
CONTINUOUS
10
4.77449
20
-4.72117
11
4.77217
21
-4.71886
0
LINE
8
BLACK
6
CONTINUOUS
10
4.77217
20
-4.71886
11
4.76792
21
-4.71674
0
LINE
8
BLACK
6
CONTINUOUS
10
4.76792
20
-4.71674
11
4.76401
21
-4.71674
0
LINE
8
BLACK
6
CONTINUOUS
10
4.76401
20
-4.71674
11
4.75976
21
-4.71886
0
LINE
8
BLACK
6
CONTINUOUS
10
4.75976
20
-4.71886
11
4.74712
21
-4.73151
0
LINE
8
BLACK
6
CONTINUOUS
10
4.74712
20
-4.73151
11
4.7873
21
-4.73151
0
LINE
8
BLACK
6
CONTINUOUS
10
4.7873
20
-4.73151
11
4.79315
21
-4.72858
0
LINE
8
BLACK
6
CONTINUOUS
10
4.79315
20
-4.72858
11
4.79546
21
-4.72627
0
LINE
8
BLACK
6
CONTINUOUS
10
4.79546
20
-4.72627
11
4.79671
21
-4.72254
0
LINE
8
BLACK
6
CONTINUOUS
10
4.79671
20
-4.72254
11
4.79671
21
-4.72048
0
LINE
8
BLACK
6
CONTINUOUS
10
4.79671
20
-4.72048
11
4.79546
21
-4.71674
0
LINE
8
BLACK
6
CONTINUOUS
10
4.79546
20
-4.71674
11
4.78749
21
-4.70877
0
LINE
8
BLACK
6
CONTINUOUS
10
4.78749
20
-4.70877
11
4.78376
21
-4.70753
0
LINE
8
BLACK
6
CONTINUOUS
10
4.78376
20
-4.70753
11
4.78074
21
-4.70753
0
LINE
8
BLACK
6
CONTINUOUS
10
4.78074
20
-4.70753
11
4.77779
21
-4.70674
0
LINE
8
BLACK
6
CONTINUOUS
10
4.77779
20
-4.70674
11
4.77563
21
-4.70457
0
LINE
8
BLACK
6
CONTINUOUS
10
4.77563
20
-4.70457
11
4.77484
21
-4.70162
0
LINE
8
BLACK
6
CONTINUOUS
10
4.77484
20
-4.70162
11
4.77563
21
-4.69867
0
LINE
8
BLACK
6
CONTINUOUS
10
4.77563
20
-4.69867
11
4.77779
21
-4.69651
0
LINE
8
BLACK
6
CONTINUOUS
10
4.77779
20
-4.69651
11
4.78074
21
-4.69572
0
LINE
8
BLACK
6
CONTINUOUS
10
4.78074
20
-4.69572
11
4.78472
21
-4.69572
0
LINE
8
BLACK
6
CONTINUOUS
10
4.78472
20
-4.69572
11
4.78564
21
-4.69596
0
LINE
8
BLACK
6
CONTINUOUS
10
4.771
20
-4.67557
11
4.77253
21
-4.67822
0
LINE
8
BLACK
6
CONTINUOUS
10
4.77253
20
-4.67822
11
4.77253
21
-4.68128
0
LINE
8
BLACK
6
CONTINUOUS
10
4.77253
20
-4.68128
11
4.771
21
-4.68392
0
LINE
8
BLACK
6
CONTINUOUS
10
4.771
20
-4.68392
11
4.74117
21
-4.71375
0
LINE
8
BLACK
6
CONTINUOUS
10
4.74117
20
-4.71375
11
4.74035
21
-4.71423
0
LINE
8
BLACK
6
CONTINUOUS
10
4.74035
20
-4.71423
11
4.73964
21
-4.71486
0
LINE
8
BLACK
6
CONTINUOUS
10
4.73964
20
-4.71486
11
4.737
21
-4.71618
0
LINE
8
BLACK
6
CONTINUOUS
10
4.737
20
-4.71618
11
4.73675
21
-4.71784
0
LINE
8
BLACK
6
CONTINUOUS
10
4.73675
20
-4.71784
11
4.73524
21
-4.71918
0
LINE
8
BLACK
6
CONTINUOUS
10
4.73524
20
-4.71918
11
4.73322
21
-4.71924
0
LINE
8
BLACK
6
CONTINUOUS
10
4.73322
20
-4.71924
11
4.73181
21
-4.71877
0
LINE
8
BLACK
6
CONTINUOUS
10
4.73181
20
-4.71877
11
4.73168
21
-4.71883
0
LINE
8
BLACK
6
CONTINUOUS
10
4.73168
20
-4.71883
11
4.73035
21
-4.71911
0
LINE
8
BLACK
6
CONTINUOUS
10
4.73035
20
-4.71911
11
4.72904
21
-4.71946
0
LINE
8
BLACK
6
CONTINUOUS
10
4.72904
20
-4.71946
11
4.72109
21
-4.71946
0
LINE
8
BLACK
6
CONTINUOUS
10
4.72109
20
-4.71946
11
4.71985
21
-4.71913
0
LINE
8
BLACK
6
CONTINUOUS
10
4.71985
20
-4.71913
11
4.71882
21
-4.71933
0
LINE
8
BLACK
6
CONTINUOUS
10
4.71882
20
-4.71933
11
4.7178
21
-4.71935
0
LINE
8
BLACK
6
CONTINUOUS
10
4.7178
20
-4.71935
11
4.71765
21
-4.71927
0
LINE
8
BLACK
6
CONTINUOUS
10
4.71765
20
-4.71927
11
4.71748
21
-4.71929
0
LINE
8
BLACK
6
CONTINUOUS
10
4.71748
20
-4.71929
11
4.71678
21
-4.7188
0
LINE
8
BLACK
6
CONTINUOUS
10
4.71678
20
-4.7188
11
4.71603
21
-4.71838
0
LINE
8
BLACK
6
CONTINUOUS
10
4.71603
20
-4.71838
11
4.71596
21
-4.71823
0
LINE
8
BLACK
6
CONTINUOUS
10
4.71596
20
-4.71823
11
4.71583
21
-4.71813
0
LINE
8
BLACK
6
CONTINUOUS
10
4.71583
20
-4.71813
11
4.71564
21
-4.71743
0
LINE
8
BLACK
6
CONTINUOUS
10
4.71564
20
-4.71743
11
4.71049
21
-4.71486
0
LINE
8
BLACK
6
CONTINUOUS
10
4.71049
20
-4.71486
11
4.70978
21
-4.71423
0
LINE
8
BLACK
6
CONTINUOUS
10
4.70978
20
-4.71423
11
4.70896
21
-4.71375
0
LINE
8
BLACK
6
CONTINUOUS
10
4.70896
20
-4.71375
11
4.70498
21
-4.70977
0
LINE
8
BLACK
6
CONTINUOUS
10
4.70498
20
-4.70977
11
4.70345
21
-4.70713
0
LINE
8
BLACK
6
CONTINUOUS
10
4.70345
20
-4.70713
11
4.70345
21
-4.70407
0
LINE
8
BLACK
6
CONTINUOUS
10
4.70345
20
-4.70407
11
4.70498
21
-4.70142
0
LINE
8
BLACK
6
CONTINUOUS
10
4.70498
20
-4.70142
11
4.70763
21
-4.69989
0
LINE
8
BLACK
6
CONTINUOUS
10
4.70763
20
-4.69989
11
4.71068
21
-4.69989
0
LINE
8
BLACK
6
CONTINUOUS
10
4.71068
20
-4.69989
11
4.71333
21
-4.70142
0
LINE
8
BLACK
6
CONTINUOUS
10
4.71333
20
-4.70142
11
4.71663
21
-4.70472
0
LINE
8
BLACK
6
CONTINUOUS
10
4.71663
20
-4.70472
11
4.72248
21
-4.70765
0
LINE
8
BLACK
6
CONTINUOUS
10
4.72248
20
-4.70765
11
4.72286
21
-4.70765
0
LINE
8
BLACK
6
CONTINUOUS
10
4.72286
20
-4.70765
11
4.74191
21
-4.6886
0
LINE
8
BLACK
6
CONTINUOUS
10
4.74191
20
-4.6886
11
4.73604
21
-4.68273
0
LINE
8
BLACK
6
CONTINUOUS
10
4.73604
20
-4.68273
11
4.73545
21
-4.68189
0
LINE
8
BLACK
6
CONTINUOUS
10
4.73545
20
-4.68189
11
4.73528
21
-4.67988
0
LINE
8
BLACK
6
CONTINUOUS
10
4.73528
20
-4.67988
11
4.73644
21
-4.67822
0
LINE
8
BLACK
6
CONTINUOUS
10
4.73644
20
-4.67822
11
4.73839
21
-4.6777
0
LINE
8
BLACK
6
CONTINUOUS
10
4.73839
20
-4.6777
11
4.74022
21
-4.67855
0
LINE
8
BLACK
6
CONTINUOUS
10
4.74022
20
-4.67855
11
4.74994
21
-4.68828
0
LINE
8
BLACK
6
CONTINUOUS
10
4.74994
20
-4.68828
11
4.76265
21
-4.67557
0
LINE
8
BLACK
6
CONTINUOUS
10
4.76265
20
-4.67557
11
4.76529
21
-4.67404
0
LINE
8
BLACK
6
CONTINUOUS
10
4.76529
20
-4.67404
11
4.76835
21
-4.67404
0
LINE
8
BLACK
6
CONTINUOUS
10
4.76835
20
-4.67404
11
4.771
21
-4.67557
0
LINE
8
BLACK
6
CONTINUOUS
10
5.36979
20
-4.62075
11
5.37005
21
-4.62073
0
LINE
8
BLACK
6
CONTINUOUS
10
5.37005
20
-4.62073
11
5.37068
21
-4.62117
0
LINE
8
BLACK
6
CONTINUOUS
10
5.37068
20
-4.62117
11
5.37138
21
-4.62149
0
LINE
8
BLACK
6
CONTINUOUS
10
5.37138
20
-4.62149
11
5.58351
21
-4.83362
0
LINE
8
BLACK
6
CONTINUOUS
10
5.58351
20
-4.83362
11
5.58373
21
-4.83394
0
LINE
8
BLACK
6
CONTINUOUS
10
5.58373
20
-4.83394
11
5.58384
21
-4.83402
0
LINE
8
BLACK
6
CONTINUOUS
10
5.58384
20
-4.83402
11
5.58387
21
-4.83414
0
LINE
8
BLACK
6
CONTINUOUS
10
5.58387
20
-4.83414
11
5.5841
21
-4.83446
0
LINE
8
BLACK
6
CONTINUOUS
10
5.5841
20
-4.83446
11
5.58416
21
-4.83523
0
LINE
8
BLACK
6
CONTINUOUS
10
5.58416
20
-4.83523
11
5.58436
21
-4.83597
0
LINE
8
BLACK
6
CONTINUOUS
10
5.58436
20
-4.83597
11
5.58425
21
-4.83621
0
LINE
8
BLACK
6
CONTINUOUS
10
5.58425
20
-4.83621
11
5.58427
21
-4.83647
0
LINE
8
BLACK
6
CONTINUOUS
10
5.58427
20
-4.83647
11
5.58383
21
-4.8371
0
LINE
8
BLACK
6
CONTINUOUS
10
5.58383
20
-4.8371
11
5.58351
21
-4.8378
0
LINE
8
BLACK
6
CONTINUOUS
10
5.58351
20
-4.8378
11
5.44209
21
-4.97922
0
LINE
8
BLACK
6
CONTINUOUS
10
5.44209
20
-4.97922
11
5.44177
21
-4.97944
0
LINE
8
BLACK
6
CONTINUOUS
10
5.44177
20
-4.97944
11
5.44169
21
-4.97955
0
LINE
8
BLACK
6
CONTINUOUS
10
5.44169
20
-4.97955
11
5.44157
21
-4.97958
0
LINE
8
BLACK
6
CONTINUOUS
10
5.44157
20
-4.97958
11
5.44125
21
-4.97981
0
LINE
8
BLACK
6
CONTINUOUS
10
5.44125
20
-4.97981
11
5.44048
21
-4.97988
0
LINE
8
BLACK
6
CONTINUOUS
10
5.44048
20
-4.97988
11
5.43974
21
-4.98007
0
LINE
8
BLACK
6
CONTINUOUS
10
5.43974
20
-4.98007
11
5.4395
21
-4.97996
0
LINE
8
BLACK
6
CONTINUOUS
10
5.4395
20
-4.97996
11
5.43924
21
-4.97998
0
LINE
8
BLACK
6
CONTINUOUS
10
5.43924
20
-4.97998
11
5.43861
21
-4.97954
0
LINE
8
BLACK
6
CONTINUOUS
10
5.43861
20
-4.97954
11
5.43791
21
-4.97922
0
LINE
8
BLACK
6
CONTINUOUS
10
5.43791
20
-4.97922
11
5.22578
21
-4.76709
0
LINE
8
BLACK
6
CONTINUOUS
10
5.22578
20
-4.76709
11
5.22556
21
-4.76677
0
LINE
8
BLACK
6
CONTINUOUS
10
5.22556
20
-4.76677
11
5.22545
21
-4.76669
0
LINE
8
BLACK
6
CONTINUOUS
10
5.22545
20
-4.76669
11
5.22542
21
-4.76657
0
LINE
8
BLACK
6
CONTINUOUS
10
5.22542
20
-4.76657
11
5.22519
21
-4.76625
0
LINE
8
BLACK
6
CONTINUOUS
10
5.22519
20
-4.76625
11
5.22512
21
-4.76548
0
LINE
8
BLACK
6
CONTINUOUS
10
5.22512
20
-4.76548
11
5.22493
21
-4.76474
0
LINE
8
BLACK
6
CONTINUOUS
10
5.22493
20
-4.76474
11
5.22504
21
-4.7645
0
LINE
8
BLACK
6
CONTINUOUS
10
5.22504
20
-4.7645
11
5.22502
21
-4.76424
0
LINE
8
BLACK
6
CONTINUOUS
10
5.22502
20
-4.76424
11
5.22546
21
-4.76361
0
LINE
8
BLACK
6
CONTINUOUS
10
5.22546
20
-4.76361
11
5.22578
21
-4.76291
0
LINE
8
BLACK
6
CONTINUOUS
10
5.22578
20
-4.76291
11
5.3672
21
-4.62149
0
LINE
8
BLACK
6
CONTINUOUS
10
5.3672
20
-4.62149
11
5.36752
21
-4.62127
0
LINE
8
BLACK
6
CONTINUOUS
10
5.36752
20
-4.62127
11
5.3676
21
-4.62116
0
LINE
8
BLACK
6
CONTINUOUS
10
5.3676
20
-4.62116
11
5.36772
21
-4.62113
0
LINE
8
BLACK
6
CONTINUOUS
10
5.36772
20
-4.62113
11
5.36804
21
-4.6209
0
LINE
8
BLACK
6
CONTINUOUS
10
5.36804
20
-4.6209
11
5.36881
21
-4.62084
0
LINE
8
BLACK
6
CONTINUOUS
10
5.36881
20
-4.62084
11
5.36955
21
-4.62064
0
LINE
8
BLACK
6
CONTINUOUS
10
5.36955
20
-4.62064
11
5.36979
21
-4.62075
0
LINE
8
BLACK
6
CONTINUOUS
10
5.23204
20
-4.765
11
5.44
21
-4.97296
0
LINE
8
BLACK
6
CONTINUOUS
10
5.44
20
-4.97296
11
5.57725
21
-4.83571
0
LINE
8
BLACK
6
CONTINUOUS
10
5.57725
20
-4.83571
11
5.36929
21
-4.62775
0
LINE
8
BLACK
6
CONTINUOUS
10
5.36929
20
-4.62775
11
5.23204
21
-4.765
0
LINE
8
BLACK
6
CONTINUOUS
10
6.42239
20
-4.26062
11
6.42291
21
-4.26257
0
LINE
8
BLACK
6
CONTINUOUS
10
6.42291
20
-4.26257
11
6.42206
21
-4.2644
0
LINE
8
BLACK
6
CONTINUOUS
10
6.42206
20
-4.2644
11
6.41119
21
-4.27526
0
LINE
8
BLACK
6
CONTINUOUS
10
6.41119
20
-4.27526
11
6.43588
21
-4.27526
0
LINE
8
BLACK
6
CONTINUOUS
10
6.43588
20
-4.27526
11
6.43689
21
-4.27544
0
LINE
8
BLACK
6
CONTINUOUS
10
6.43689
20
-4.27544
11
6.43844
21
-4.27674
0
LINE
8
BLACK
6
CONTINUOUS
10
6.43844
20
-4.27674
11
6.43879
21
-4.27873
0
LINE
8
BLACK
6
CONTINUOUS
10
6.43879
20
-4.27873
11
6.43778
21
-4.28048
0
LINE
8
BLACK
6
CONTINUOUS
10
6.43778
20
-4.28048
11
6.43588
21
-4.28117
0
LINE
8
BLACK
6
CONTINUOUS
10
6.43588
20
-4.28117
11
6.41458
21
-4.28117
0
LINE
8
BLACK
6
CONTINUOUS
10
6.41458
20
-4.28117
11
6.41096
21
-4.30647
0
LINE
8
BLACK
6
CONTINUOUS
10
6.41096
20
-4.30647
11
6.41064
21
-4.30745
0
LINE
8
BLACK
6
CONTINUOUS
10
6.41064
20
-4.30745
11
6.40914
21
-4.3088
0
LINE
8
BLACK
6
CONTINUOUS
10
6.40914
20
-4.3088
11
6.40712
21
-4.30886
0
LINE
8
BLACK
6
CONTINUOUS
10
6.40712
20
-4.30886
11
6.40553
21
-4.30762
0
LINE
8
BLACK
6
CONTINUOUS
10
6.40553
20
-4.30762
11
6.40512
21
-4.30564
0
LINE
8
BLACK
6
CONTINUOUS
10
6.40512
20
-4.30564
11
6.40861
21
-4.28117
0
LINE
8
BLACK
6
CONTINUOUS
10
6.40861
20
-4.28117
11
6.40529
21
-4.28117
0
LINE
8
BLACK
6
CONTINUOUS
10
6.40529
20
-4.28117
11
6.39422
21
-4.29224
0
LINE
8
BLACK
6
CONTINUOUS
10
6.39422
20
-4.29224
11
6.39338
21
-4.29282
0
LINE
8
BLACK
6
CONTINUOUS
10
6.39338
20
-4.29282
11
6.39137
21
-4.293
0
LINE
8
BLACK
6
CONTINUOUS
10
6.39137
20
-4.293
11
6.38971
21
-4.29184
0
LINE
8
BLACK
6
CONTINUOUS
10
6.38971
20
-4.29184
11
6.38919
21
-4.28989
0
LINE
8
BLACK
6
CONTINUOUS
10
6.38919
20
-4.28989
11
6.39004
21
-4.28806
0
LINE
8
BLACK
6
CONTINUOUS
10
6.39004
20
-4.28806
11
6.41788
21
-4.26022
0
LINE
8
BLACK
6
CONTINUOUS
10
6.41788
20
-4.26022
11
6.41872
21
-4.25963
0
LINE
8
BLACK
6
CONTINUOUS
10
6.41872
20
-4.25963
11
6.42074
21
-4.25946
0
LINE
8
BLACK
6
CONTINUOUS
10
6.42074
20
-4.25946
11
6.42239
21
-4.26062
0
LINE
8
BLACK
6
CONTINUOUS
10
4.92394
20
-2.56504
11
4.95178
21
-2.59288
0
LINE
8
BLACK
6
CONTINUOUS
10
4.95178
20
-2.59288
11
4.95237
21
-2.59372
0
LINE
8
BLACK
6
CONTINUOUS
10
4.95237
20
-2.59372
11
4.95254
21
-2.59574
0
LINE
8
BLACK
6
CONTINUOUS
10
4.95254
20
-2.59574
11
4.95138
21
-2.59739
0
LINE
8
BLACK
6
CONTINUOUS
10
4.95138
20
-2.59739
11
4.94943
21
-2.59791
0
LINE
8
BLACK
6
CONTINUOUS
10
4.94943
20
-2.59791
11
4.9476
21
-2.59706
0
LINE
8
BLACK
6
CONTINUOUS
10
4.9476
20
-2.59706
11
4.93674
21
-2.58619
0
LINE
8
BLACK
6
CONTINUOUS
10
4.93674
20
-2.58619
11
4.93674
21
-2.61088
0
LINE
8
BLACK
6
CONTINUOUS
10
4.93674
20
-2.61088
11
4.93656
21
-2.61189
0
LINE
8
BLACK
6
CONTINUOUS
10
4.93656
20
-2.61189
11
4.93526
21
-2.61344
0
LINE
8
BLACK
6
CONTINUOUS
10
4.93526
20
-2.61344
11
4.93327
21
-2.61379
0
LINE
8
BLACK
6
CONTINUOUS
10
4.93327
20
-2.61379
11
4.93152
21
-2.61278
0
LINE
8
BLACK
6
CONTINUOUS
10
4.93152
20
-2.61278
11
4.93083
21
-2.61088
0
LINE
8
BLACK
6
CONTINUOUS
10
4.93083
20
-2.61088
11
4.93083
21
-2.58958
0
LINE
8
BLACK
6
CONTINUOUS
10
4.93083
20
-2.58958
11
4.90553
21
-2.58596
0
LINE
8
BLACK
6
CONTINUOUS
10
4.90553
20
-2.58596
11
4.90455
21
-2.58564
0
LINE
8
BLACK
6
CONTINUOUS
10
4.90455
20
-2.58564
11
4.9032
21
-2.58414
0
LINE
8
BLACK
6
CONTINUOUS
10
4.9032
20
-2.58414
11
4.90314
21
-2.58212
0
LINE
8
BLACK
6
CONTINUOUS
10
4.90314
20
-2.58212
11
4.90438
21
-2.58053
0
LINE
8
BLACK
6
CONTINUOUS
10
4.90438
20
-2.58053
11
4.90636
21
-2.58012
0
LINE
8
BLACK
6
CONTINUOUS
10
4.90636
20
-2.58012
11
4.93083
21
-2.58361
0
LINE
8
BLACK
6
CONTINUOUS
10
4.93083
20
-2.58361
11
4.93083
21
-2.58029
0
LINE
8
BLACK
6
CONTINUOUS
10
4.93083
20
-2.58029
11
4.91976
21
-2.56922
0
LINE
8
BLACK
6
CONTINUOUS
10
4.91976
20
-2.56922
11
4.91918
21
-2.56838
0
LINE
8
BLACK
6
CONTINUOUS
10
4.91918
20
-2.56838
11
4.919
21
-2.56637
0
LINE
8
BLACK
6
CONTINUOUS
10
4.919
20
-2.56637
11
4.92016
21
-2.56471
0
LINE
8
BLACK
6
CONTINUOUS
10
4.92016
20
-2.56471
11
4.92211
21
-2.56419
0
LINE
8
BLACK
6
CONTINUOUS
10
4.92211
20
-2.56419
11
4.92394
21
-2.56504
  0
ENDSEC
  0
EOF
