  0
SECTION
  2
HEADER
  9
$ANGBASE
  50
0.0
  9
$ANGDIR
  70
1
  9
$MEASUREMENT
  70
0
  0
ENDSEC
  0
SECTION
  2
TABLES
  0
TABLE
  2
LTYPE
  70
4
  0
LTYPE
  5
40F
  2
CONTINUOUS
  70
0
  3
Solid line
  72
65
  73
0
  40
0.0
  0
LTYPE
  5
410
  2
DASHDOT
 70
0
  3
Dash Dot ____ _ ____ _
 72
65
 73
4
 40
2.0
 49
1.25
 49
-0.25
 49
0.25
 49
-0.25
  0
LTYPE
  5
411
  2
DASHED
 70
0
  3
Dashed __ __ __ __ __
 72
65
 73
2
 40
0.75
 49
0.5
 49
-0.25
  0
LTYPE
  5
43B
  2
DOTTED
 70
0
  3
Dotted .  .  .  .
 72
65
 73
2
 40
0.2
 49
0.0
 49
-0.2
  0
ENDTAB
  0
TABLE
  2
STYLE
  70
4
  0
STYLE
  2
KICAD
  70
0
  40
0
  41
1
  42
1
  50
0
  71
0
  3
isocp.shx
  0
STYLE
  2
KICADB
  70
0
  40
0
  41
1
  42
1
  50
0
  71
0
  3
isocp.shx
  0
STYLE
  2
KICADI
  70
0
  40
0
  41
1
  42
1
  50
15
  71
0
  3
isocp.shx
  0
STYLE
  2
KICADBI
  70
0
  40
0
  41
1
  42
1
  50
15
  71
0
  3
isocp.shx
  0
ENDTAB
  0
TABLE
  2
LAYER
  70
1
  0
LAYER
  2
BLACK
  70
0
  62
7
  6
CONTINUOUS
  0
ENDTAB
  0
ENDSEC
  0
SECTION
  2
ENTITIES
0
LINE
8
BLACK
6
CONTINUOUS
10
8.49665
20
-4.37369
11
8.49945
21
-4.37555
0
LINE
8
BLACK
6
CONTINUOUS
10
8.49945
20
-4.37555
11
8.50131
21
-4.37835
0
LINE
8
BLACK
6
CONTINUOUS
10
8.50131
20
-4.37835
11
8.50197
21
-4.38164
0
LINE
8
BLACK
6
CONTINUOUS
10
8.50197
20
-4.38164
11
8.50197
21
-4.40182
0
LINE
8
BLACK
6
CONTINUOUS
10
8.50197
20
-4.40182
11
8.50131
21
-4.40512
0
LINE
8
BLACK
6
CONTINUOUS
10
8.50131
20
-4.40512
11
8.49945
21
-4.40791
0
LINE
8
BLACK
6
CONTINUOUS
10
8.49945
20
-4.40791
11
8.49665
21
-4.40978
0
LINE
8
BLACK
6
CONTINUOUS
10
8.49665
20
-4.40978
11
8.49336
21
-4.41043
0
LINE
8
BLACK
6
CONTINUOUS
10
8.49336
20
-4.41043
11
8.47613
21
-4.41043
0
LINE
8
BLACK
6
CONTINUOUS
10
8.47613
20
-4.41043
11
8.47284
21
-4.40978
0
LINE
8
BLACK
6
CONTINUOUS
10
8.47284
20
-4.40978
11
8.47004
21
-4.40791
0
LINE
8
BLACK
6
CONTINUOUS
10
8.47004
20
-4.40791
11
8.46818
21
-4.40512
0
LINE
8
BLACK
6
CONTINUOUS
10
8.46818
20
-4.40512
11
8.46752
21
-4.40182
0
LINE
8
BLACK
6
CONTINUOUS
10
8.46752
20
-4.40182
11
8.46752
21
-4.38164
0
LINE
8
BLACK
6
CONTINUOUS
10
8.46752
20
-4.38164
11
8.46818
21
-4.37835
0
LINE
8
BLACK
6
CONTINUOUS
10
8.46818
20
-4.37835
11
8.47004
21
-4.37555
0
LINE
8
BLACK
6
CONTINUOUS
10
8.47004
20
-4.37555
11
8.47284
21
-4.37369
0
LINE
8
BLACK
6
CONTINUOUS
10
8.47284
20
-4.37369
11
8.47613
21
-4.37303
0
LINE
8
BLACK
6
CONTINUOUS
10
8.47613
20
-4.37303
11
8.49336
21
-4.37303
0
LINE
8
BLACK
6
CONTINUOUS
10
8.49336
20
-4.37303
11
8.49665
21
-4.37369
0
LINE
8
BLACK
6
CONTINUOUS
10
8.55866
20
-4.37369
11
8.56145
21
-4.37555
0
LINE
8
BLACK
6
CONTINUOUS
10
8.56145
20
-4.37555
11
8.56332
21
-4.37835
0
LINE
8
BLACK
6
CONTINUOUS
10
8.56332
20
-4.37835
11
8.56398
21
-4.38164
0
LINE
8
BLACK
6
CONTINUOUS
10
8.56398
20
-4.38164
11
8.56398
21
-4.40182
0
LINE
8
BLACK
6
CONTINUOUS
10
8.56398
20
-4.40182
11
8.56332
21
-4.40512
0
LINE
8
BLACK
6
CONTINUOUS
10
8.56332
20
-4.40512
11
8.56145
21
-4.40791
0
LINE
8
BLACK
6
CONTINUOUS
10
8.56145
20
-4.40791
11
8.55866
21
-4.40978
0
LINE
8
BLACK
6
CONTINUOUS
10
8.55866
20
-4.40978
11
8.55536
21
-4.41043
0
LINE
8
BLACK
6
CONTINUOUS
10
8.55536
20
-4.41043
11
8.53814
21
-4.41043
0
LINE
8
BLACK
6
CONTINUOUS
10
8.53814
20
-4.41043
11
8.53484
21
-4.40978
0
LINE
8
BLACK
6
CONTINUOUS
10
8.53484
20
-4.40978
11
8.53205
21
-4.40791
0
LINE
8
BLACK
6
CONTINUOUS
10
8.53205
20
-4.40791
11
8.53018
21
-4.40512
0
LINE
8
BLACK
6
CONTINUOUS
10
8.53018
20
-4.40512
11
8.52953
21
-4.40182
0
LINE
8
BLACK
6
CONTINUOUS
10
8.52953
20
-4.40182
11
8.52953
21
-4.38164
0
LINE
8
BLACK
6
CONTINUOUS
10
8.52953
20
-4.38164
11
8.53018
21
-4.37835
0
LINE
8
BLACK
6
CONTINUOUS
10
8.53018
20
-4.37835
11
8.53205
21
-4.37555
0
LINE
8
BLACK
6
CONTINUOUS
10
8.53205
20
-4.37555
11
8.53484
21
-4.37369
0
LINE
8
BLACK
6
CONTINUOUS
10
8.53484
20
-4.37369
11
8.53814
21
-4.37303
0
LINE
8
BLACK
6
CONTINUOUS
10
8.53814
20
-4.37303
11
8.55536
21
-4.37303
0
LINE
8
BLACK
6
CONTINUOUS
10
8.55536
20
-4.37303
11
8.55866
21
-4.37369
  0
ENDSEC
  0
EOF
