  0
SECTION
  2
HEADER
  9
$ANGBASE
  50
0.0
  9
$ANGDIR
  70
1
  9
$MEASUREMENT
  70
0
  0
ENDSEC
  0
SECTION
  2
TABLES
  0
TABLE
  2
LTYPE
  70
4
  0
LTYPE
  5
40F
  2
CONTINUOUS
  70
0
  3
Solid line
  72
65
  73
0
  40
0.0
  0
LTYPE
  5
410
  2
DASHDOT
 70
0
  3
Dash Dot ____ _ ____ _
 72
65
 73
4
 40
2.0
 49
1.25
 49
-0.25
 49
0.25
 49
-0.25
  0
LTYPE
  5
411
  2
DASHED
 70
0
  3
Dashed __ __ __ __ __
 72
65
 73
2
 40
0.75
 49
0.5
 49
-0.25
  0
LTYPE
  5
43B
  2
DOTTED
 70
0
  3
Dotted .  .  .  .
 72
65
 73
2
 40
0.2
 49
0.0
 49
-0.2
  0
ENDTAB
  0
TABLE
  2
STYLE
  70
4
  0
STYLE
  2
KICAD
  70
0
  40
0
  41
1
  42
1
  50
0
  71
0
  3
isocp.shx
  0
STYLE
  2
KICADB
  70
0
  40
0
  41
1
  42
1
  50
0
  71
0
  3
isocp.shx
  0
STYLE
  2
KICADI
  70
0
  40
0
  41
1
  42
1
  50
15
  71
0
  3
isocp.shx
  0
STYLE
  2
KICADBI
  70
0
  40
0
  41
1
  42
1
  50
15
  71
0
  3
isocp.shx
  0
ENDTAB
  0
TABLE
  2
LAYER
  70
1
  0
LAYER
  2
BLACK
  70
0
  62
7
  6
CONTINUOUS
  0
ENDTAB
  0
ENDSEC
  0
SECTION
  2
ENTITIES
0
CIRCLE
8
BLACK
10
4.51498
20
-4.29744
40
0.0393701
0
CIRCLE
8
BLACK
10
4.86714
20
-5.00594
40
0.0393701
0
CIRCLE
8
BLACK
10
5.15138
20
-4.93384
40
0.0393701
0
CIRCLE
8
BLACK
10
4.93924
20
-4.72171
40
0.0393701
0
CIRCLE
8
BLACK
10
4.72711
20
-4.50957
40
0.0393701
0
CIRCLE
8
BLACK
10
4.44288
20
-4.58168
40
0.0393701
0
CIRCLE
8
BLACK
10
4.37286
20
-4.33349
40
0.0570866
0
CIRCLE
8
BLACK
10
4.47893
20
-4.43956
40
0.0570866
0
CIRCLE
8
BLACK
10
4.585
20
-4.54563
40
0.0570866
0
CIRCLE
8
BLACK
10
4.69106
20
-4.65169
40
0.0570866
0
CIRCLE
8
BLACK
10
4.79713
20
-4.75776
40
0.0570866
0
CIRCLE
8
BLACK
10
4.90319
20
-4.86382
40
0.0570866
0
CIRCLE
8
BLACK
10
5.00926
20
-4.96989
40
0.0570866
0
CIRCLE
8
BLACK
10
5.11533
20
-5.07596
40
0.0570866
0
LINE
8
BLACK
6
CONTINUOUS
10
5.57943
20
-4.77201
11
5.58199
21
-4.7703
0
LINE
8
BLACK
6
CONTINUOUS
10
5.58199
20
-4.7703
11
5.585
21
-4.7697
0
LINE
8
BLACK
6
CONTINUOUS
10
5.585
20
-4.7697
11
5.58801
21
-4.7703
0
LINE
8
BLACK
6
CONTINUOUS
10
5.58801
20
-4.7703
11
5.59057
21
-4.77201
0
LINE
8
BLACK
6
CONTINUOUS
10
5.59057
20
-4.77201
11
5.63299
21
-4.81443
0
LINE
8
BLACK
6
CONTINUOUS
10
5.63299
20
-4.81443
11
5.6347
21
-4.81699
0
LINE
8
BLACK
6
CONTINUOUS
10
5.6347
20
-4.81699
11
5.6353
21
-4.82
0
LINE
8
BLACK
6
CONTINUOUS
10
5.6353
20
-4.82
11
5.6347
21
-4.82301
0
LINE
8
BLACK
6
CONTINUOUS
10
5.6347
20
-4.82301
11
5.63299
21
-4.82557
0
LINE
8
BLACK
6
CONTINUOUS
10
5.63299
20
-4.82557
11
5.59057
21
-4.86799
0
LINE
8
BLACK
6
CONTINUOUS
10
5.59057
20
-4.86799
11
5.58801
21
-4.8697
0
LINE
8
BLACK
6
CONTINUOUS
10
5.58801
20
-4.8697
11
5.585
21
-4.8703
0
LINE
8
BLACK
6
CONTINUOUS
10
5.585
20
-4.8703
11
5.58199
21
-4.8697
0
LINE
8
BLACK
6
CONTINUOUS
10
5.58199
20
-4.8697
11
5.57943
21
-4.86799
0
LINE
8
BLACK
6
CONTINUOUS
10
5.57943
20
-4.86799
11
5.53701
21
-4.82557
0
LINE
8
BLACK
6
CONTINUOUS
10
5.53701
20
-4.82557
11
5.5353
21
-4.82301
0
LINE
8
BLACK
6
CONTINUOUS
10
5.5353
20
-4.82301
11
5.5347
21
-4.82
0
LINE
8
BLACK
6
CONTINUOUS
10
5.5347
20
-4.82
11
5.5353
21
-4.81699
0
LINE
8
BLACK
6
CONTINUOUS
10
5.5353
20
-4.81699
11
5.53701
21
-4.81443
0
LINE
8
BLACK
6
CONTINUOUS
10
5.53701
20
-4.81443
11
5.57943
21
-4.77201
0
LINE
8
BLACK
6
CONTINUOUS
10
5.65014
20
-4.84272
11
5.6527
21
-4.84101
0
LINE
8
BLACK
6
CONTINUOUS
10
5.6527
20
-4.84101
11
5.65571
21
-4.84041
0
LINE
8
BLACK
6
CONTINUOUS
10
5.65571
20
-4.84041
11
5.65872
21
-4.84101
0
LINE
8
BLACK
6
CONTINUOUS
10
5.65872
20
-4.84101
11
5.66128
21
-4.84272
0
LINE
8
BLACK
6
CONTINUOUS
10
5.66128
20
-4.84272
11
5.7037
21
-4.88514
0
LINE
8
BLACK
6
CONTINUOUS
10
5.7037
20
-4.88514
11
5.70541
21
-4.8877
0
LINE
8
BLACK
6
CONTINUOUS
10
5.70541
20
-4.8877
11
5.70601
21
-4.89071
0
LINE
8
BLACK
6
CONTINUOUS
10
5.70601
20
-4.89071
11
5.70541
21
-4.89372
0
LINE
8
BLACK
6
CONTINUOUS
10
5.70541
20
-4.89372
11
5.7037
21
-4.89628
0
LINE
8
BLACK
6
CONTINUOUS
10
5.7037
20
-4.89628
11
5.66128
21
-4.9387
0
LINE
8
BLACK
6
CONTINUOUS
10
5.66128
20
-4.9387
11
5.65872
21
-4.94041
0
LINE
8
BLACK
6
CONTINUOUS
10
5.65872
20
-4.94041
11
5.65571
21
-4.94101
0
LINE
8
BLACK
6
CONTINUOUS
10
5.65571
20
-4.94101
11
5.6527
21
-4.94041
0
LINE
8
BLACK
6
CONTINUOUS
10
5.6527
20
-4.94041
11
5.65014
21
-4.9387
0
LINE
8
BLACK
6
CONTINUOUS
10
5.65014
20
-4.9387
11
5.60772
21
-4.89628
0
LINE
8
BLACK
6
CONTINUOUS
10
5.60772
20
-4.89628
11
5.60601
21
-4.89372
0
LINE
8
BLACK
6
CONTINUOUS
10
5.60601
20
-4.89372
11
5.60541
21
-4.89071
0
LINE
8
BLACK
6
CONTINUOUS
10
5.60541
20
-4.89071
11
5.60601
21
-4.8877
0
LINE
8
BLACK
6
CONTINUOUS
10
5.60601
20
-4.8877
11
5.60772
21
-4.88514
0
LINE
8
BLACK
6
CONTINUOUS
10
5.60772
20
-4.88514
11
5.65014
21
-4.84272
0
LINE
8
BLACK
6
CONTINUOUS
10
5.50872
20
-4.84272
11
5.51128
21
-4.84101
0
LINE
8
BLACK
6
CONTINUOUS
10
5.51128
20
-4.84101
11
5.51429
21
-4.84041
0
LINE
8
BLACK
6
CONTINUOUS
10
5.51429
20
-4.84041
11
5.5173
21
-4.84101
0
LINE
8
BLACK
6
CONTINUOUS
10
5.5173
20
-4.84101
11
5.51986
21
-4.84272
0
LINE
8
BLACK
6
CONTINUOUS
10
5.51986
20
-4.84272
11
5.56228
21
-4.88514
0
LINE
8
BLACK
6
CONTINUOUS
10
5.56228
20
-4.88514
11
5.56399
21
-4.8877
0
LINE
8
BLACK
6
CONTINUOUS
10
5.56399
20
-4.8877
11
5.56459
21
-4.89071
0
LINE
8
BLACK
6
CONTINUOUS
10
5.56459
20
-4.89071
11
5.56399
21
-4.89372
0
LINE
8
BLACK
6
CONTINUOUS
10
5.56399
20
-4.89372
11
5.56228
21
-4.89628
0
LINE
8
BLACK
6
CONTINUOUS
10
5.56228
20
-4.89628
11
5.51986
21
-4.9387
0
LINE
8
BLACK
6
CONTINUOUS
10
5.51986
20
-4.9387
11
5.5173
21
-4.94041
0
LINE
8
BLACK
6
CONTINUOUS
10
5.5173
20
-4.94041
11
5.51429
21
-4.94101
0
LINE
8
BLACK
6
CONTINUOUS
10
5.51429
20
-4.94101
11
5.51128
21
-4.94041
0
LINE
8
BLACK
6
CONTINUOUS
10
5.51128
20
-4.94041
11
5.50872
21
-4.9387
0
LINE
8
BLACK
6
CONTINUOUS
10
5.50872
20
-4.9387
11
5.4663
21
-4.89628
0
LINE
8
BLACK
6
CONTINUOUS
10
5.4663
20
-4.89628
11
5.46459
21
-4.89372
0
LINE
8
BLACK
6
CONTINUOUS
10
5.46459
20
-4.89372
11
5.46399
21
-4.89071
0
LINE
8
BLACK
6
CONTINUOUS
10
5.46399
20
-4.89071
11
5.46459
21
-4.8877
0
LINE
8
BLACK
6
CONTINUOUS
10
5.46459
20
-4.8877
11
5.4663
21
-4.88514
0
LINE
8
BLACK
6
CONTINUOUS
10
5.4663
20
-4.88514
11
5.50872
21
-4.84272
0
LINE
8
BLACK
6
CONTINUOUS
10
5.57943
20
-4.91343
11
5.58199
21
-4.91172
0
LINE
8
BLACK
6
CONTINUOUS
10
5.58199
20
-4.91172
11
5.585
21
-4.91112
0
LINE
8
BLACK
6
CONTINUOUS
10
5.585
20
-4.91112
11
5.58801
21
-4.91172
0
LINE
8
BLACK
6
CONTINUOUS
10
5.58801
20
-4.91172
11
5.59057
21
-4.91343
0
LINE
8
BLACK
6
CONTINUOUS
10
5.59057
20
-4.91343
11
5.63299
21
-4.95585
0
LINE
8
BLACK
6
CONTINUOUS
10
5.63299
20
-4.95585
11
5.6347
21
-4.95841
0
LINE
8
BLACK
6
CONTINUOUS
10
5.6347
20
-4.95841
11
5.6353
21
-4.96142
0
LINE
8
BLACK
6
CONTINUOUS
10
5.6353
20
-4.96142
11
5.6347
21
-4.96443
0
LINE
8
BLACK
6
CONTINUOUS
10
5.6347
20
-4.96443
11
5.63299
21
-4.96699
0
LINE
8
BLACK
6
CONTINUOUS
10
5.63299
20
-4.96699
11
5.59057
21
-5.00942
0
LINE
8
BLACK
6
CONTINUOUS
10
5.59057
20
-5.00942
11
5.58801
21
-5.01112
0
LINE
8
BLACK
6
CONTINUOUS
10
5.58801
20
-5.01112
11
5.585
21
-5.01172
0
LINE
8
BLACK
6
CONTINUOUS
10
5.585
20
-5.01172
11
5.58199
21
-5.01112
0
LINE
8
BLACK
6
CONTINUOUS
10
5.58199
20
-5.01112
11
5.57943
21
-5.00942
0
LINE
8
BLACK
6
CONTINUOUS
10
5.57943
20
-5.00942
11
5.53701
21
-4.96699
0
LINE
8
BLACK
6
CONTINUOUS
10
5.53701
20
-4.96699
11
5.5353
21
-4.96443
0
LINE
8
BLACK
6
CONTINUOUS
10
5.5353
20
-4.96443
11
5.5347
21
-4.96142
0
LINE
8
BLACK
6
CONTINUOUS
10
5.5347
20
-4.96142
11
5.5353
21
-4.95841
0
LINE
8
BLACK
6
CONTINUOUS
10
5.5353
20
-4.95841
11
5.53701
21
-4.95585
0
LINE
8
BLACK
6
CONTINUOUS
10
5.53701
20
-4.95585
11
5.57943
21
-4.91343
0
LINE
8
BLACK
6
CONTINUOUS
10
5.43801
20
-4.91343
11
5.44057
21
-4.91172
0
LINE
8
BLACK
6
CONTINUOUS
10
5.44057
20
-4.91172
11
5.44358
21
-4.91112
0
LINE
8
BLACK
6
CONTINUOUS
10
5.44358
20
-4.91112
11
5.44659
21
-4.91172
0
LINE
8
BLACK
6
CONTINUOUS
10
5.44659
20
-4.91172
11
5.44915
21
-4.91343
0
LINE
8
BLACK
6
CONTINUOUS
10
5.44915
20
-4.91343
11
5.49157
21
-4.95585
0
LINE
8
BLACK
6
CONTINUOUS
10
5.49157
20
-4.95585
11
5.49328
21
-4.95841
0
LINE
8
BLACK
6
CONTINUOUS
10
5.49328
20
-4.95841
11
5.49388
21
-4.96142
0
LINE
8
BLACK
6
CONTINUOUS
10
5.49388
20
-4.96142
11
5.49328
21
-4.96443
0
LINE
8
BLACK
6
CONTINUOUS
10
5.49328
20
-4.96443
11
5.49157
21
-4.96699
0
LINE
8
BLACK
6
CONTINUOUS
10
5.49157
20
-4.96699
11
5.44915
21
-5.00942
0
LINE
8
BLACK
6
CONTINUOUS
10
5.44915
20
-5.00942
11
5.44659
21
-5.01112
0
LINE
8
BLACK
6
CONTINUOUS
10
5.44659
20
-5.01112
11
5.44358
21
-5.01172
0
LINE
8
BLACK
6
CONTINUOUS
10
5.44358
20
-5.01172
11
5.44057
21
-5.01112
0
LINE
8
BLACK
6
CONTINUOUS
10
5.44057
20
-5.01112
11
5.43801
21
-5.00942
0
LINE
8
BLACK
6
CONTINUOUS
10
5.43801
20
-5.00942
11
5.39558
21
-4.96699
0
LINE
8
BLACK
6
CONTINUOUS
10
5.39558
20
-4.96699
11
5.39388
21
-4.96443
0
LINE
8
BLACK
6
CONTINUOUS
10
5.39388
20
-4.96443
11
5.39328
21
-4.96142
0
LINE
8
BLACK
6
CONTINUOUS
10
5.39328
20
-4.96142
11
5.39388
21
-4.95841
0
LINE
8
BLACK
6
CONTINUOUS
10
5.39388
20
-4.95841
11
5.39558
21
-4.95585
0
LINE
8
BLACK
6
CONTINUOUS
10
5.39558
20
-4.95585
11
5.43801
21
-4.91343
0
LINE
8
BLACK
6
CONTINUOUS
10
5.50872
20
-4.98414
11
5.51128
21
-4.98243
0
LINE
8
BLACK
6
CONTINUOUS
10
5.51128
20
-4.98243
11
5.51429
21
-4.98183
0
LINE
8
BLACK
6
CONTINUOUS
10
5.51429
20
-4.98183
11
5.5173
21
-4.98243
0
LINE
8
BLACK
6
CONTINUOUS
10
5.5173
20
-4.98243
11
5.51986
21
-4.98414
0
LINE
8
BLACK
6
CONTINUOUS
10
5.51986
20
-4.98414
11
5.56228
21
-5.02656
0
LINE
8
BLACK
6
CONTINUOUS
10
5.56228
20
-5.02656
11
5.56399
21
-5.02912
0
LINE
8
BLACK
6
CONTINUOUS
10
5.56399
20
-5.02912
11
5.56459
21
-5.03213
0
LINE
8
BLACK
6
CONTINUOUS
10
5.56459
20
-5.03213
11
5.56399
21
-5.03515
0
LINE
8
BLACK
6
CONTINUOUS
10
5.56399
20
-5.03515
11
5.56228
21
-5.0377
0
LINE
8
BLACK
6
CONTINUOUS
10
5.56228
20
-5.0377
11
5.51986
21
-5.08013
0
LINE
8
BLACK
6
CONTINUOUS
10
5.51986
20
-5.08013
11
5.5173
21
-5.08183
0
LINE
8
BLACK
6
CONTINUOUS
10
5.5173
20
-5.08183
11
5.51429
21
-5.08243
0
LINE
8
BLACK
6
CONTINUOUS
10
5.51429
20
-5.08243
11
5.51128
21
-5.08183
0
LINE
8
BLACK
6
CONTINUOUS
10
5.51128
20
-5.08183
11
5.50872
21
-5.08013
0
LINE
8
BLACK
6
CONTINUOUS
10
5.50872
20
-5.08013
11
5.4663
21
-5.0377
0
LINE
8
BLACK
6
CONTINUOUS
10
5.4663
20
-5.0377
11
5.46459
21
-5.03515
0
LINE
8
BLACK
6
CONTINUOUS
10
5.46459
20
-5.03515
11
5.46399
21
-5.03213
0
LINE
8
BLACK
6
CONTINUOUS
10
5.46399
20
-5.03213
11
5.46459
21
-5.02912
0
LINE
8
BLACK
6
CONTINUOUS
10
5.46459
20
-5.02912
11
5.4663
21
-5.02656
0
LINE
8
BLACK
6
CONTINUOUS
10
5.4663
20
-5.02656
11
5.50872
21
-4.98414
0
CIRCLE
8
BLACK
10
7.30551
20
-4.94331
40
0.125984
0
CIRCLE
8
BLACK
10
7.30551
20
-2.14331
40
0.125984
0
CIRCLE
8
BLACK
10
4.50551
20
-4.94331
40
0.125984
0
CIRCLE
8
BLACK
10
5.90551
20
-4.96063
40
0.153543
0
CIRCLE
8
BLACK
10
6.02362
20
-4.96063
40
0.0177165
0
CIRCLE
8
BLACK
10
6.0078
20
-5.01969
40
0.0177165
0
CIRCLE
8
BLACK
10
5.90551
20
-4.84252
40
0.0177165
0
CIRCLE
8
BLACK
10
6.0078
20
-4.90157
40
0.0177165
0
CIRCLE
8
BLACK
10
5.80323
20
-5.01969
40
0.0177165
0
CIRCLE
8
BLACK
10
5.90551
20
-5.07874
40
0.0177165
0
CIRCLE
8
BLACK
10
5.7874
20
-4.96063
40
0.0177165
0
CIRCLE
8
BLACK
10
5.84646
20
-4.85834
40
0.0177165
0
CIRCLE
8
BLACK
10
5.96457
20
-5.06292
40
0.0177165
0
CIRCLE
8
BLACK
10
5.96457
20
-4.85834
40
0.0177165
0
CIRCLE
8
BLACK
10
5.80323
20
-4.90157
40
0.0177165
0
CIRCLE
8
BLACK
10
5.84646
20
-5.06292
40
0.0177165
0
CIRCLE
8
BLACK
10
5.90551
20
-2.12598
40
0.153543
0
CIRCLE
8
BLACK
10
5.96457
20
-2.0237
40
0.0177165
0
CIRCLE
8
BLACK
10
6.0078
20
-2.18504
40
0.0177165
0
CIRCLE
8
BLACK
10
5.84646
20
-2.0237
40
0.0177165
0
CIRCLE
8
BLACK
10
6.02362
20
-2.12598
40
0.0177165
0
CIRCLE
8
BLACK
10
5.80323
20
-2.18504
40
0.0177165
0
CIRCLE
8
BLACK
10
5.90551
20
-2.24409
40
0.0177165
0
CIRCLE
8
BLACK
10
5.7874
20
-2.12598
40
0.0177165
0
CIRCLE
8
BLACK
10
5.96457
20
-2.22827
40
0.0177165
0
CIRCLE
8
BLACK
10
5.84646
20
-2.22827
40
0.0177165
0
CIRCLE
8
BLACK
10
5.90551
20
-2.00787
40
0.0177165
0
CIRCLE
8
BLACK
10
6.0078
20
-2.06693
40
0.0177165
0
CIRCLE
8
BLACK
10
5.80323
20
-2.06693
40
0.0177165
0
CIRCLE
8
BLACK
10
7.32283
20
-3.54331
40
0.153543
0
CIRCLE
8
BLACK
10
7.38189
20
-3.64559
40
0.0177165
0
CIRCLE
8
BLACK
10
7.22055
20
-3.48425
40
0.0177165
0
CIRCLE
8
BLACK
10
7.42512
20
-3.48425
40
0.0177165
0
CIRCLE
8
BLACK
10
7.22055
20
-3.60236
40
0.0177165
0
CIRCLE
8
BLACK
10
7.32283
20
-3.4252
40
0.0177165
0
CIRCLE
8
BLACK
10
7.42512
20
-3.60236
40
0.0177165
0
CIRCLE
8
BLACK
10
7.26378
20
-3.64559
40
0.0177165
0
CIRCLE
8
BLACK
10
7.44094
20
-3.54331
40
0.0177165
0
CIRCLE
8
BLACK
10
7.38189
20
-3.44102
40
0.0177165
0
CIRCLE
8
BLACK
10
7.32283
20
-3.66142
40
0.0177165
0
CIRCLE
8
BLACK
10
7.20472
20
-3.54331
40
0.0177165
0
CIRCLE
8
BLACK
10
7.26378
20
-3.44102
40
0.0177165
0
CIRCLE
8
BLACK
10
4.48819
20
-3.54331
40
0.153543
0
CIRCLE
8
BLACK
10
4.42913
20
-3.44102
40
0.0177165
0
CIRCLE
8
BLACK
10
4.6063
20
-3.54331
40
0.0177165
0
CIRCLE
8
BLACK
10
4.3859
20
-3.48425
40
0.0177165
0
CIRCLE
8
BLACK
10
4.59048
20
-3.60236
40
0.0177165
0
CIRCLE
8
BLACK
10
4.54724
20
-3.44102
40
0.0177165
0
CIRCLE
8
BLACK
10
4.42913
20
-3.64559
40
0.0177165
0
CIRCLE
8
BLACK
10
4.48819
20
-3.66142
40
0.0177165
0
CIRCLE
8
BLACK
10
4.37008
20
-3.54331
40
0.0177165
0
CIRCLE
8
BLACK
10
4.48819
20
-3.4252
40
0.0177165
0
CIRCLE
8
BLACK
10
4.3859
20
-3.60236
40
0.0177165
0
CIRCLE
8
BLACK
10
4.59048
20
-3.48425
40
0.0177165
0
CIRCLE
8
BLACK
10
4.54724
20
-3.64559
40
0.0177165
0
CIRCLE
8
BLACK
10
4.50551
20
-2.14331
40
0.125984
0
CIRCLE
8
BLACK
10
5.7503
20
-3.2393
40
0.0177165
0
CIRCLE
8
BLACK
10
5.72246
20
-3.21146
40
0.0177165
0
CIRCLE
8
BLACK
10
5.69462
20
-3.2393
40
0.0177165
0
CIRCLE
8
BLACK
10
5.80597
20
-3.2393
40
0.0177165
0
CIRCLE
8
BLACK
10
5.7503
20
-3.29498
40
0.0177165
0
CIRCLE
8
BLACK
10
5.83381
20
-3.32282
40
0.0177165
0
CIRCLE
8
BLACK
10
5.80597
20
-3.29498
40
0.0177165
0
CIRCLE
8
BLACK
10
5.72246
20
-3.26714
40
0.0177165
0
CIRCLE
8
BLACK
10
5.83381
20
-3.26714
40
0.0177165
0
CIRCLE
8
BLACK
10
5.80597
20
-3.35066
40
0.0177165
0
CIRCLE
8
BLACK
10
5.77814
20
-3.26714
40
0.0177165
0
CIRCLE
8
BLACK
10
5.7503
20
-3.18362
40
0.0177165
0
CIRCLE
8
BLACK
10
5.86165
20
-3.29498
40
0.0177165
0
CIRCLE
8
BLACK
10
5.77814
20
-3.21146
40
0.0177165
0
CIRCLE
8
BLACK
10
5.77814
20
-3.32282
40
0.0177165
0
CIRCLE
8
BLACK
10
6.20952
20
-3.75026
40
0.0177165
0
CIRCLE
8
BLACK
10
6.23736
20
-3.66675
40
0.0177165
0
CIRCLE
8
BLACK
10
6.20952
20
-3.69459
40
0.0177165
0
CIRCLE
8
BLACK
10
6.15384
20
-3.69459
40
0.0177165
0
CIRCLE
8
BLACK
10
6.126
20
-3.61107
40
0.0177165
0
CIRCLE
8
BLACK
10
6.18168
20
-3.61107
40
0.0177165
0
CIRCLE
8
BLACK
10
6.20952
20
-3.63891
40
0.0177165
0
CIRCLE
8
BLACK
10
6.15384
20
-3.58323
40
0.0177165
0
CIRCLE
8
BLACK
10
6.23736
20
-3.72242
40
0.0177165
0
CIRCLE
8
BLACK
10
6.18168
20
-3.66675
40
0.0177165
0
CIRCLE
8
BLACK
10
6.126
20
-3.66675
40
0.0177165
0
CIRCLE
8
BLACK
10
6.15384
20
-3.63891
40
0.0177165
0
CIRCLE
8
BLACK
10
6.18168
20
-3.72242
40
0.0177165
0
CIRCLE
8
BLACK
10
6.09816
20
-3.63891
40
0.0177165
0
CIRCLE
8
BLACK
10
6.2652
20
-3.69459
40
0.0177165
0
CIRCLE
8
BLACK
10
6.53751
20
-4.31569
40
0.0531496
0
CIRCLE
8
BLACK
10
5.73168
20
-2.426
40
0.0177165
0
CIRCLE
8
BLACK
10
5.59248
20
-2.45384
40
0.0177165
0
CIRCLE
8
BLACK
10
5.64816
20
-2.39816
40
0.0177165
0
CIRCLE
8
BLACK
10
5.676
20
-2.48168
40
0.0177165
0
CIRCLE
8
BLACK
10
5.70384
20
-2.45384
40
0.0177165
0
CIRCLE
8
BLACK
10
5.64816
20
-2.50952
40
0.0177165
0
CIRCLE
8
BLACK
10
5.676
20
-2.426
40
0.0177165
0
CIRCLE
8
BLACK
10
5.64816
20
-2.45384
40
0.0177165
0
CIRCLE
8
BLACK
10
5.75952
20
-2.39816
40
0.0177165
0
CIRCLE
8
BLACK
10
5.73168
20
-2.37032
40
0.0177165
0
CIRCLE
8
BLACK
10
5.70384
20
-2.34248
40
0.0177165
0
CIRCLE
8
BLACK
10
5.70384
20
-2.39816
40
0.0177165
0
CIRCLE
8
BLACK
10
5.62032
20
-2.48168
40
0.0177165
0
CIRCLE
8
BLACK
10
5.62032
20
-2.426
40
0.0177165
0
CIRCLE
8
BLACK
10
5.676
20
-2.37032
40
0.0177165
0
CIRCLE
8
BLACK
10
6.93337
20
-3.83384
40
0.0177165
0
CIRCLE
8
BLACK
10
6.98905
20
-3.77816
40
0.0177165
0
CIRCLE
8
BLACK
10
7.04473
20
-3.83384
40
0.0177165
0
CIRCLE
8
BLACK
10
7.04473
20
-3.72248
40
0.0177165
0
CIRCLE
8
BLACK
10
7.1004
20
-3.77816
40
0.0177165
0
CIRCLE
8
BLACK
10
6.96121
20
-3.806
40
0.0177165
0
CIRCLE
8
BLACK
10
6.98905
20
-3.83384
40
0.0177165
0
CIRCLE
8
BLACK
10
7.01689
20
-3.86168
40
0.0177165
0
CIRCLE
8
BLACK
10
6.98905
20
-3.88952
40
0.0177165
0
CIRCLE
8
BLACK
10
7.07256
20
-3.75032
40
0.0177165
0
CIRCLE
8
BLACK
10
7.07256
20
-3.806
40
0.0177165
0
CIRCLE
8
BLACK
10
6.96121
20
-3.86168
40
0.0177165
0
CIRCLE
8
BLACK
10
7.01689
20
-3.75032
40
0.0177165
0
CIRCLE
8
BLACK
10
7.01689
20
-3.806
40
0.0177165
0
CIRCLE
8
BLACK
10
7.04473
20
-3.77816
40
0.0177165
0
CIRCLE
8
BLACK
10
5.23
20
-2.465
40
0.0531496
0
LINE
8
BLACK
6
CONTINUOUS
10
7.03663
20
-3.51079
11
7.03745
21
-3.51145
0
LINE
8
BLACK
6
CONTINUOUS
10
7.03745
20
-3.51145
11
7.30598
21
-3.77998
0
LINE
8
BLACK
6
CONTINUOUS
10
7.30598
20
-3.77998
11
7.30732
21
-3.78243
0
LINE
8
BLACK
6
CONTINUOUS
10
7.30732
20
-3.78243
11
7.30743
21
-3.78348
0
LINE
8
BLACK
6
CONTINUOUS
10
7.30743
20
-3.78348
11
7.30743
21
-3.83505
0
LINE
8
BLACK
6
CONTINUOUS
10
7.30743
20
-3.83505
11
7.30664
21
-3.83773
0
LINE
8
BLACK
6
CONTINUOUS
10
7.30664
20
-3.83773
11
7.30598
21
-3.83856
0
LINE
8
BLACK
6
CONTINUOUS
10
7.30598
20
-3.83856
11
7.07225
21
-4.07228
0
LINE
8
BLACK
6
CONTINUOUS
10
7.07225
20
-4.07228
11
7.0698
21
-4.07362
0
LINE
8
BLACK
6
CONTINUOUS
10
7.0698
20
-4.07362
11
7.06874
21
-4.07374
0
LINE
8
BLACK
6
CONTINUOUS
10
7.06874
20
-4.07374
11
7.01718
21
-4.07374
0
LINE
8
BLACK
6
CONTINUOUS
10
7.01718
20
-4.07374
11
7.01449
21
-4.07295
0
LINE
8
BLACK
6
CONTINUOUS
10
7.01449
20
-4.07295
11
7.01367
21
-4.07228
0
LINE
8
BLACK
6
CONTINUOUS
10
7.01367
20
-4.07228
11
6.74514
21
-3.80376
0
LINE
8
BLACK
6
CONTINUOUS
10
6.74514
20
-3.80376
11
6.74381
21
-3.80131
0
LINE
8
BLACK
6
CONTINUOUS
10
6.74381
20
-3.80131
11
6.74369
21
-3.80025
0
LINE
8
BLACK
6
CONTINUOUS
10
6.74369
20
-3.80025
11
6.74369
21
-3.74868
0
LINE
8
BLACK
6
CONTINUOUS
10
6.74369
20
-3.74868
11
6.74448
21
-3.746
0
LINE
8
BLACK
6
CONTINUOUS
10
6.74448
20
-3.746
11
6.74514
21
-3.74518
0
LINE
8
BLACK
6
CONTINUOUS
10
6.74514
20
-3.74518
11
6.97887
21
-3.51145
0
LINE
8
BLACK
6
CONTINUOUS
10
6.97887
20
-3.51145
11
6.98132
21
-3.51011
0
LINE
8
BLACK
6
CONTINUOUS
10
6.98132
20
-3.51011
11
6.98238
21
-3.51
0
LINE
8
BLACK
6
CONTINUOUS
10
6.98238
20
-3.51
11
7.03395
21
-3.51
0
LINE
8
BLACK
6
CONTINUOUS
10
7.03395
20
-3.51
11
7.03663
21
-3.51079
0
LINE
8
BLACK
6
CONTINUOUS
10
6.23053
20
-3.3862
11
6.23136
21
-3.38687
0
LINE
8
BLACK
6
CONTINUOUS
10
6.23136
20
-3.38687
11
6.46508
21
-3.62059
0
LINE
8
BLACK
6
CONTINUOUS
10
6.46508
20
-3.62059
11
6.46642
21
-3.62305
0
LINE
8
BLACK
6
CONTINUOUS
10
6.46642
20
-3.62305
11
6.46654
21
-3.6241
0
LINE
8
BLACK
6
CONTINUOUS
10
6.46654
20
-3.6241
11
6.46654
21
-3.67567
0
LINE
8
BLACK
6
CONTINUOUS
10
6.46654
20
-3.67567
11
6.46575
21
-3.67835
0
LINE
8
BLACK
6
CONTINUOUS
10
6.46575
20
-3.67835
11
6.46508
21
-3.67918
0
LINE
8
BLACK
6
CONTINUOUS
10
6.46508
20
-3.67918
11
6.19656
21
-3.9477
0
LINE
8
BLACK
6
CONTINUOUS
10
6.19656
20
-3.9477
11
6.19411
21
-3.94904
0
LINE
8
BLACK
6
CONTINUOUS
10
6.19411
20
-3.94904
11
6.19305
21
-3.94915
0
LINE
8
BLACK
6
CONTINUOUS
10
6.19305
20
-3.94915
11
6.14148
21
-3.94915
0
LINE
8
BLACK
6
CONTINUOUS
10
6.14148
20
-3.94915
11
6.1388
21
-3.94837
0
LINE
8
BLACK
6
CONTINUOUS
10
6.1388
20
-3.94837
11
6.13798
21
-3.9477
0
LINE
8
BLACK
6
CONTINUOUS
10
6.13798
20
-3.9477
11
5.90425
21
-3.71398
0
LINE
8
BLACK
6
CONTINUOUS
10
5.90425
20
-3.71398
11
5.90291
21
-3.71152
0
LINE
8
BLACK
6
CONTINUOUS
10
5.90291
20
-3.71152
11
5.9028
21
-3.71047
0
LINE
8
BLACK
6
CONTINUOUS
10
5.9028
20
-3.71047
11
5.9028
21
-3.6589
0
LINE
8
BLACK
6
CONTINUOUS
10
5.9028
20
-3.6589
11
5.90359
21
-3.65622
0
LINE
8
BLACK
6
CONTINUOUS
10
5.90359
20
-3.65622
11
5.90425
21
-3.65539
0
LINE
8
BLACK
6
CONTINUOUS
10
5.90425
20
-3.65539
11
6.17277
21
-3.38687
0
LINE
8
BLACK
6
CONTINUOUS
10
6.17277
20
-3.38687
11
6.17523
21
-3.38553
0
LINE
8
BLACK
6
CONTINUOUS
10
6.17523
20
-3.38553
11
6.17628
21
-3.38542
0
LINE
8
BLACK
6
CONTINUOUS
10
6.17628
20
-3.38542
11
6.22785
21
-3.38542
0
LINE
8
BLACK
6
CONTINUOUS
10
6.22785
20
-3.38542
11
6.23053
21
-3.3862
0
LINE
8
BLACK
6
CONTINUOUS
10
5.82699
20
-2.98266
11
5.82781
21
-2.98333
0
LINE
8
BLACK
6
CONTINUOUS
10
5.82781
20
-2.98333
11
6.06154
21
-3.21705
0
LINE
8
BLACK
6
CONTINUOUS
10
6.06154
20
-3.21705
11
6.06288
21
-3.2195
0
LINE
8
BLACK
6
CONTINUOUS
10
6.06288
20
-3.2195
11
6.06299
21
-3.22056
0
LINE
8
BLACK
6
CONTINUOUS
10
6.06299
20
-3.22056
11
6.06299
21
-3.27213
0
LINE
8
BLACK
6
CONTINUOUS
10
6.06299
20
-3.27213
11
6.0622
21
-3.27481
0
LINE
8
BLACK
6
CONTINUOUS
10
6.0622
20
-3.27481
11
6.06154
21
-3.27563
0
LINE
8
BLACK
6
CONTINUOUS
10
6.06154
20
-3.27563
11
5.79302
21
-3.54416
0
LINE
8
BLACK
6
CONTINUOUS
10
5.79302
20
-3.54416
11
5.79056
21
-3.5455
0
LINE
8
BLACK
6
CONTINUOUS
10
5.79056
20
-3.5455
11
5.78951
21
-3.54561
0
LINE
8
BLACK
6
CONTINUOUS
10
5.78951
20
-3.54561
11
5.73794
21
-3.54561
0
LINE
8
BLACK
6
CONTINUOUS
10
5.73794
20
-3.54561
11
5.73526
21
-3.54482
0
LINE
8
BLACK
6
CONTINUOUS
10
5.73526
20
-3.54482
11
5.73443
21
-3.54416
0
LINE
8
BLACK
6
CONTINUOUS
10
5.73443
20
-3.54416
11
5.50071
21
-3.31043
0
LINE
8
BLACK
6
CONTINUOUS
10
5.50071
20
-3.31043
11
5.49937
21
-3.30798
0
LINE
8
BLACK
6
CONTINUOUS
10
5.49937
20
-3.30798
11
5.49926
21
-3.30693
0
LINE
8
BLACK
6
CONTINUOUS
10
5.49926
20
-3.30693
11
5.49926
21
-3.25536
0
LINE
8
BLACK
6
CONTINUOUS
10
5.49926
20
-3.25536
11
5.50004
21
-3.25268
0
LINE
8
BLACK
6
CONTINUOUS
10
5.50004
20
-3.25268
11
5.50071
21
-3.25185
0
LINE
8
BLACK
6
CONTINUOUS
10
5.50071
20
-3.25185
11
5.76923
21
-2.98333
0
LINE
8
BLACK
6
CONTINUOUS
10
5.76923
20
-2.98333
11
5.77168
21
-2.98199
0
LINE
8
BLACK
6
CONTINUOUS
10
5.77168
20
-2.98199
11
5.77274
21
-2.98187
0
LINE
8
BLACK
6
CONTINUOUS
10
5.77274
20
-2.98187
11
5.82431
21
-2.98187
0
LINE
8
BLACK
6
CONTINUOUS
10
5.82431
20
-2.98187
11
5.82699
21
-2.98266
0
LINE
8
BLACK
6
CONTINUOUS
10
4.97926
20
-2.84967
11
4.98008
21
-2.85034
0
LINE
8
BLACK
6
CONTINUOUS
10
4.98008
20
-2.85034
11
5.10245
21
-2.9727
0
LINE
8
BLACK
6
CONTINUOUS
10
5.10245
20
-2.9727
11
5.10379
21
-2.97516
0
LINE
8
BLACK
6
CONTINUOUS
10
5.10379
20
-2.97516
11
5.10391
21
-2.97621
0
LINE
8
BLACK
6
CONTINUOUS
10
5.10391
20
-2.97621
11
5.10391
21
-3.02778
0
LINE
8
BLACK
6
CONTINUOUS
10
5.10391
20
-3.02778
11
5.10312
21
-3.03046
0
LINE
8
BLACK
6
CONTINUOUS
10
5.10312
20
-3.03046
11
5.10245
21
-3.03129
0
LINE
8
BLACK
6
CONTINUOUS
10
5.10245
20
-3.03129
11
4.98008
21
-3.15366
0
LINE
8
BLACK
6
CONTINUOUS
10
4.98008
20
-3.15366
11
4.97763
21
-3.155
0
LINE
8
BLACK
6
CONTINUOUS
10
4.97763
20
-3.155
11
4.97658
21
-3.15511
0
LINE
8
BLACK
6
CONTINUOUS
10
4.97658
20
-3.15511
11
4.92501
21
-3.15511
0
LINE
8
BLACK
6
CONTINUOUS
10
4.92501
20
-3.15511
11
4.92233
21
-3.15432
0
LINE
8
BLACK
6
CONTINUOUS
10
4.92233
20
-3.15432
11
4.9215
21
-3.15366
0
LINE
8
BLACK
6
CONTINUOUS
10
4.9215
20
-3.15366
11
4.79913
21
-3.03129
0
LINE
8
BLACK
6
CONTINUOUS
10
4.79913
20
-3.03129
11
4.79779
21
-3.02884
0
LINE
8
BLACK
6
CONTINUOUS
10
4.79779
20
-3.02884
11
4.79768
21
-3.02778
0
LINE
8
BLACK
6
CONTINUOUS
10
4.79768
20
-3.02778
11
4.79768
21
-2.97621
0
LINE
8
BLACK
6
CONTINUOUS
10
4.79768
20
-2.97621
11
4.79847
21
-2.97353
0
LINE
8
BLACK
6
CONTINUOUS
10
4.79847
20
-2.97353
11
4.79913
21
-2.9727
0
LINE
8
BLACK
6
CONTINUOUS
10
4.79913
20
-2.9727
11
4.9215
21
-2.85034
0
LINE
8
BLACK
6
CONTINUOUS
10
4.9215
20
-2.85034
11
4.92395
21
-2.849
0
LINE
8
BLACK
6
CONTINUOUS
10
4.92395
20
-2.849
11
4.92501
21
-2.84888
0
LINE
8
BLACK
6
CONTINUOUS
10
4.92501
20
-2.84888
11
4.97658
21
-2.84888
0
LINE
8
BLACK
6
CONTINUOUS
10
4.97658
20
-2.84888
11
4.97926
21
-2.84967
0
LINE
8
BLACK
6
CONTINUOUS
10
5.68463
20
-2.14679
11
5.68545
21
-2.14745
0
LINE
8
BLACK
6
CONTINUOUS
10
5.68545
20
-2.14745
11
5.95398
21
-2.41598
0
LINE
8
BLACK
6
CONTINUOUS
10
5.95398
20
-2.41598
11
5.95532
21
-2.41843
0
LINE
8
BLACK
6
CONTINUOUS
10
5.95532
20
-2.41843
11
5.95543
21
-2.41948
0
LINE
8
BLACK
6
CONTINUOUS
10
5.95543
20
-2.41948
11
5.95543
21
-2.47105
0
LINE
8
BLACK
6
CONTINUOUS
10
5.95543
20
-2.47105
11
5.95464
21
-2.47373
0
LINE
8
BLACK
6
CONTINUOUS
10
5.95464
20
-2.47373
11
5.95398
21
-2.47456
0
LINE
8
BLACK
6
CONTINUOUS
10
5.95398
20
-2.47456
11
5.72025
21
-2.70828
0
LINE
8
BLACK
6
CONTINUOUS
10
5.72025
20
-2.70828
11
5.7178
21
-2.70962
0
LINE
8
BLACK
6
CONTINUOUS
10
5.7178
20
-2.70962
11
5.71674
21
-2.70974
0
LINE
8
BLACK
6
CONTINUOUS
10
5.71674
20
-2.70974
11
5.66518
21
-2.70974
0
LINE
8
BLACK
6
CONTINUOUS
10
5.66518
20
-2.70974
11
5.66249
21
-2.70895
0
LINE
8
BLACK
6
CONTINUOUS
10
5.66249
20
-2.70895
11
5.66167
21
-2.70828
0
LINE
8
BLACK
6
CONTINUOUS
10
5.66167
20
-2.70828
11
5.39314
21
-2.43976
0
LINE
8
BLACK
6
CONTINUOUS
10
5.39314
20
-2.43976
11
5.39181
21
-2.43731
0
LINE
8
BLACK
6
CONTINUOUS
10
5.39181
20
-2.43731
11
5.39169
21
-2.43625
0
LINE
8
BLACK
6
CONTINUOUS
10
5.39169
20
-2.43625
11
5.39169
21
-2.38468
0
LINE
8
BLACK
6
CONTINUOUS
10
5.39169
20
-2.38468
11
5.39248
21
-2.382
0
LINE
8
BLACK
6
CONTINUOUS
10
5.39248
20
-2.382
11
5.39314
21
-2.38118
0
LINE
8
BLACK
6
CONTINUOUS
10
5.39314
20
-2.38118
11
5.62687
21
-2.14745
0
LINE
8
BLACK
6
CONTINUOUS
10
5.62687
20
-2.14745
11
5.62932
21
-2.14611
0
LINE
8
BLACK
6
CONTINUOUS
10
5.62932
20
-2.14611
11
5.63038
21
-2.146
0
LINE
8
BLACK
6
CONTINUOUS
10
5.63038
20
-2.146
11
5.68195
21
-2.146
0
LINE
8
BLACK
6
CONTINUOUS
10
5.68195
20
-2.146
11
5.68463
21
-2.14679
0
LINE
8
BLACK
6
CONTINUOUS
10
7.03531
20
-3.50973
11
7.03598
21
-3.50992
0
LINE
8
BLACK
6
CONTINUOUS
10
7.03598
20
-3.50992
11
7.036
21
-3.50994
0
LINE
8
BLACK
6
CONTINUOUS
10
7.036
20
-3.50994
11
7.03604
21
-3.50994
0
LINE
8
BLACK
6
CONTINUOUS
10
7.03604
20
-3.50994
11
7.03643
21
-3.51006
0
LINE
8
BLACK
6
CONTINUOUS
10
7.03643
20
-3.51006
11
7.03647
21
-3.51008
0
LINE
8
BLACK
6
CONTINUOUS
10
7.03647
20
-3.51008
11
7.30712
21
-3.78073
0
LINE
8
BLACK
6
CONTINUOUS
10
7.30712
20
-3.78073
11
7.30714
21
-3.78075
0
LINE
8
BLACK
6
CONTINUOUS
10
7.30714
20
-3.78075
11
7.30747
21
-3.78136
0
LINE
8
BLACK
6
CONTINUOUS
10
7.30747
20
-3.78136
11
7.30747
21
-3.78139
0
LINE
8
BLACK
6
CONTINUOUS
10
7.30747
20
-3.78139
11
7.3075
21
-3.78141
0
LINE
8
BLACK
6
CONTINUOUS
10
7.3075
20
-3.78141
11
7.30769
21
-3.78177
0
LINE
8
BLACK
6
CONTINUOUS
10
7.30769
20
-3.78177
11
7.3077
21
-3.78181
0
LINE
8
BLACK
6
CONTINUOUS
10
7.3077
20
-3.78181
11
7.3077
21
-3.8364
0
LINE
8
BLACK
6
CONTINUOUS
10
7.3077
20
-3.8364
11
7.3077
21
-3.83642
0
LINE
8
BLACK
6
CONTINUOUS
10
7.3077
20
-3.83642
11
7.3075
21
-3.83709
0
LINE
8
BLACK
6
CONTINUOUS
10
7.3075
20
-3.83709
11
7.30749
21
-3.83711
0
LINE
8
BLACK
6
CONTINUOUS
10
7.30749
20
-3.83711
11
7.30749
21
-3.83714
0
LINE
8
BLACK
6
CONTINUOUS
10
7.30749
20
-3.83714
11
7.30737
21
-3.83754
0
LINE
8
BLACK
6
CONTINUOUS
10
7.30737
20
-3.83754
11
7.30735
21
-3.83757
0
LINE
8
BLACK
6
CONTINUOUS
10
7.30735
20
-3.83757
11
7.07149
21
-4.07343
0
LINE
8
BLACK
6
CONTINUOUS
10
7.07149
20
-4.07343
11
7.07148
21
-4.07344
0
LINE
8
BLACK
6
CONTINUOUS
10
7.07148
20
-4.07344
11
7.07086
21
-4.07378
0
LINE
8
BLACK
6
CONTINUOUS
10
7.07086
20
-4.07378
11
7.07084
21
-4.07378
0
LINE
8
BLACK
6
CONTINUOUS
10
7.07084
20
-4.07378
11
7.07081
21
-4.07381
0
LINE
8
BLACK
6
CONTINUOUS
10
7.07081
20
-4.07381
11
7.07045
21
-4.074
0
LINE
8
BLACK
6
CONTINUOUS
10
7.07045
20
-4.074
11
7.07042
21
-4.07401
0
LINE
8
BLACK
6
CONTINUOUS
10
7.07042
20
-4.07401
11
7.01583
21
-4.07401
0
LINE
8
BLACK
6
CONTINUOUS
10
7.01583
20
-4.07401
11
7.01581
21
-4.07401
0
LINE
8
BLACK
6
CONTINUOUS
10
7.01581
20
-4.07401
11
7.01514
21
-4.07381
0
LINE
8
BLACK
6
CONTINUOUS
10
7.01514
20
-4.07381
11
7.01512
21
-4.0738
0
LINE
8
BLACK
6
CONTINUOUS
10
7.01512
20
-4.0738
11
7.01508
21
-4.0738
0
LINE
8
BLACK
6
CONTINUOUS
10
7.01508
20
-4.0738
11
7.01469
21
-4.07368
0
LINE
8
BLACK
6
CONTINUOUS
10
7.01469
20
-4.07368
11
7.01466
21
-4.07366
0
LINE
8
BLACK
6
CONTINUOUS
10
7.01466
20
-4.07366
11
6.744
21
-3.803
0
LINE
8
BLACK
6
CONTINUOUS
10
6.744
20
-3.803
11
6.74398
21
-3.80299
0
LINE
8
BLACK
6
CONTINUOUS
10
6.74398
20
-3.80299
11
6.74365
21
-3.80237
0
LINE
8
BLACK
6
CONTINUOUS
10
6.74365
20
-3.80237
11
6.74365
21
-3.80235
0
LINE
8
BLACK
6
CONTINUOUS
10
6.74365
20
-3.80235
11
6.74362
21
-3.80232
0
LINE
8
BLACK
6
CONTINUOUS
10
6.74362
20
-3.80232
11
6.74343
21
-3.80196
0
LINE
8
BLACK
6
CONTINUOUS
10
6.74343
20
-3.80196
11
6.74342
21
-3.80193
0
LINE
8
BLACK
6
CONTINUOUS
10
6.74342
20
-3.80193
11
6.74342
21
-3.74734
0
LINE
8
BLACK
6
CONTINUOUS
10
6.74342
20
-3.74734
11
6.74342
21
-3.74732
0
LINE
8
BLACK
6
CONTINUOUS
10
6.74342
20
-3.74732
11
6.74361
21
-3.74666
0
LINE
8
BLACK
6
CONTINUOUS
10
6.74361
20
-3.74666
11
6.74377
21
-3.74666
0
LINE
8
BLACK
6
CONTINUOUS
10
6.74377
20
-3.74666
11
6.74377
21
-3.74667
0
LINE
8
BLACK
6
CONTINUOUS
10
6.74377
20
-3.74667
11
6.74377
21
-3.80228
0
LINE
8
BLACK
6
CONTINUOUS
10
6.74377
20
-3.80228
11
6.74377
21
-3.80228
0
LINE
8
BLACK
6
CONTINUOUS
10
6.74377
20
-3.80228
11
7.01515
21
-4.07366
0
LINE
8
BLACK
6
CONTINUOUS
10
7.01515
20
-4.07366
11
7.01516
21
-4.07366
0
LINE
8
BLACK
6
CONTINUOUS
10
7.01516
20
-4.07366
11
7.07077
21
-4.07366
0
LINE
8
BLACK
6
CONTINUOUS
10
7.07077
20
-4.07366
11
7.07077
21
-4.07365
0
LINE
8
BLACK
6
CONTINUOUS
10
7.07077
20
-4.07365
11
7.30735
21
-3.83707
0
LINE
8
BLACK
6
CONTINUOUS
10
7.30735
20
-3.83707
11
7.30735
21
-3.83707
0
LINE
8
BLACK
6
CONTINUOUS
10
7.30735
20
-3.83707
11
7.30735
21
-3.78146
0
LINE
8
BLACK
6
CONTINUOUS
10
7.30735
20
-3.78146
11
7.30735
21
-3.78146
0
LINE
8
BLACK
6
CONTINUOUS
10
7.30735
20
-3.78146
11
7.03597
21
-3.51008
0
LINE
8
BLACK
6
CONTINUOUS
10
7.03597
20
-3.51008
11
7.03596
21
-3.51008
0
LINE
8
BLACK
6
CONTINUOUS
10
7.03596
20
-3.51008
11
6.98035
21
-3.51008
0
LINE
8
BLACK
6
CONTINUOUS
10
6.98035
20
-3.51008
11
6.98035
21
-3.51008
0
LINE
8
BLACK
6
CONTINUOUS
10
6.98035
20
-3.51008
11
6.74377
21
-3.74666
0
LINE
8
BLACK
6
CONTINUOUS
10
6.74377
20
-3.74666
11
6.74361
21
-3.74666
0
LINE
8
BLACK
6
CONTINUOUS
10
6.74361
20
-3.74666
11
6.74362
21
-3.74665
0
LINE
8
BLACK
6
CONTINUOUS
10
6.74362
20
-3.74665
11
6.74363
21
-3.74663
0
LINE
8
BLACK
6
CONTINUOUS
10
6.74363
20
-3.74663
11
6.74363
21
-3.74659
0
LINE
8
BLACK
6
CONTINUOUS
10
6.74363
20
-3.74659
11
6.74375
21
-3.7462
0
LINE
8
BLACK
6
CONTINUOUS
10
6.74375
20
-3.7462
11
6.74377
21
-3.74617
0
LINE
8
BLACK
6
CONTINUOUS
10
6.74377
20
-3.74617
11
6.97963
21
-3.51031
0
LINE
8
BLACK
6
CONTINUOUS
10
6.97963
20
-3.51031
11
6.97965
21
-3.51029
0
LINE
8
BLACK
6
CONTINUOUS
10
6.97965
20
-3.51029
11
6.98026
21
-3.50996
0
LINE
8
BLACK
6
CONTINUOUS
10
6.98026
20
-3.50996
11
6.98028
21
-3.50996
0
LINE
8
BLACK
6
CONTINUOUS
10
6.98028
20
-3.50996
11
6.98031
21
-3.50993
0
LINE
8
BLACK
6
CONTINUOUS
10
6.98031
20
-3.50993
11
6.98067
21
-3.50973
0
LINE
8
BLACK
6
CONTINUOUS
10
6.98067
20
-3.50973
11
6.9807
21
-3.50972
0
LINE
8
BLACK
6
CONTINUOUS
10
6.9807
20
-3.50972
11
7.03529
21
-3.50972
0
LINE
8
BLACK
6
CONTINUOUS
10
7.03529
20
-3.50972
11
7.03531
21
-3.50973
0
LINE
8
BLACK
6
CONTINUOUS
10
6.22922
20
-3.38514
11
6.22989
21
-3.38534
0
LINE
8
BLACK
6
CONTINUOUS
10
6.22989
20
-3.38534
11
6.2299
21
-3.38536
0
LINE
8
BLACK
6
CONTINUOUS
10
6.2299
20
-3.38536
11
6.22994
21
-3.38536
0
LINE
8
BLACK
6
CONTINUOUS
10
6.22994
20
-3.38536
11
6.23034
21
-3.38547
0
LINE
8
BLACK
6
CONTINUOUS
10
6.23034
20
-3.38547
11
6.23037
21
-3.38549
0
LINE
8
BLACK
6
CONTINUOUS
10
6.23037
20
-3.38549
11
6.46623
21
-3.62135
0
LINE
8
BLACK
6
CONTINUOUS
10
6.46623
20
-3.62135
11
6.46624
21
-3.62137
0
LINE
8
BLACK
6
CONTINUOUS
10
6.46624
20
-3.62137
11
6.46658
21
-3.62198
0
LINE
8
BLACK
6
CONTINUOUS
10
6.46658
20
-3.62198
11
6.46658
21
-3.622
0
LINE
8
BLACK
6
CONTINUOUS
10
6.46658
20
-3.622
11
6.4666
21
-3.62203
0
LINE
8
BLACK
6
CONTINUOUS
10
6.4666
20
-3.62203
11
6.4668
21
-3.62239
0
LINE
8
BLACK
6
CONTINUOUS
10
6.4668
20
-3.62239
11
6.46681
21
-3.62243
0
LINE
8
BLACK
6
CONTINUOUS
10
6.46681
20
-3.62243
11
6.46681
21
-3.67702
0
LINE
8
BLACK
6
CONTINUOUS
10
6.46681
20
-3.67702
11
6.46681
21
-3.67704
0
LINE
8
BLACK
6
CONTINUOUS
10
6.46681
20
-3.67704
11
6.46661
21
-3.67771
0
LINE
8
BLACK
6
CONTINUOUS
10
6.46661
20
-3.67771
11
6.4666
21
-3.67772
0
LINE
8
BLACK
6
CONTINUOUS
10
6.4666
20
-3.67772
11
6.4666
21
-3.67776
0
LINE
8
BLACK
6
CONTINUOUS
10
6.4666
20
-3.67776
11
6.46648
21
-3.67816
0
LINE
8
BLACK
6
CONTINUOUS
10
6.46648
20
-3.67816
11
6.46646
21
-3.67819
0
LINE
8
BLACK
6
CONTINUOUS
10
6.46646
20
-3.67819
11
6.1958
21
-3.94885
0
LINE
8
BLACK
6
CONTINUOUS
10
6.1958
20
-3.94885
11
6.19578
21
-3.94886
0
LINE
8
BLACK
6
CONTINUOUS
10
6.19578
20
-3.94886
11
6.19517
21
-3.9492
0
LINE
8
BLACK
6
CONTINUOUS
10
6.19517
20
-3.9492
11
6.19515
21
-3.9492
0
LINE
8
BLACK
6
CONTINUOUS
10
6.19515
20
-3.9492
11
6.19512
21
-3.94922
0
LINE
8
BLACK
6
CONTINUOUS
10
6.19512
20
-3.94922
11
6.19476
21
-3.94942
0
LINE
8
BLACK
6
CONTINUOUS
10
6.19476
20
-3.94942
11
6.19472
21
-3.94943
0
LINE
8
BLACK
6
CONTINUOUS
10
6.19472
20
-3.94943
11
6.14014
21
-3.94943
0
LINE
8
BLACK
6
CONTINUOUS
10
6.14014
20
-3.94943
11
6.14011
21
-3.94943
0
LINE
8
BLACK
6
CONTINUOUS
10
6.14011
20
-3.94943
11
6.13944
21
-3.94923
0
LINE
8
BLACK
6
CONTINUOUS
10
6.13944
20
-3.94923
11
6.13943
21
-3.94921
0
LINE
8
BLACK
6
CONTINUOUS
10
6.13943
20
-3.94921
11
6.13939
21
-3.94921
0
LINE
8
BLACK
6
CONTINUOUS
10
6.13939
20
-3.94921
11
6.139
21
-3.9491
0
LINE
8
BLACK
6
CONTINUOUS
10
6.139
20
-3.9491
11
6.13896
21
-3.94908
0
LINE
8
BLACK
6
CONTINUOUS
10
6.13896
20
-3.94908
11
5.9031
21
-3.71322
0
LINE
8
BLACK
6
CONTINUOUS
10
5.9031
20
-3.71322
11
5.90309
21
-3.7132
0
LINE
8
BLACK
6
CONTINUOUS
10
5.90309
20
-3.7132
11
5.90276
21
-3.71259
0
LINE
8
BLACK
6
CONTINUOUS
10
5.90276
20
-3.71259
11
5.90276
21
-3.71257
0
LINE
8
BLACK
6
CONTINUOUS
10
5.90276
20
-3.71257
11
5.90273
21
-3.71254
0
LINE
8
BLACK
6
CONTINUOUS
10
5.90273
20
-3.71254
11
5.90253
21
-3.71218
0
LINE
8
BLACK
6
CONTINUOUS
10
5.90253
20
-3.71218
11
5.90252
21
-3.71214
0
LINE
8
BLACK
6
CONTINUOUS
10
5.90252
20
-3.71214
11
5.90252
21
-3.65755
0
LINE
8
BLACK
6
CONTINUOUS
10
5.90252
20
-3.65755
11
5.90253
21
-3.65753
0
LINE
8
BLACK
6
CONTINUOUS
10
5.90253
20
-3.65753
11
5.90272
21
-3.65688
0
LINE
8
BLACK
6
CONTINUOUS
10
5.90272
20
-3.65688
11
5.90288
21
-3.65688
0
LINE
8
BLACK
6
CONTINUOUS
10
5.90288
20
-3.65688
11
5.90288
21
-3.65688
0
LINE
8
BLACK
6
CONTINUOUS
10
5.90288
20
-3.65688
11
5.90288
21
-3.71249
0
LINE
8
BLACK
6
CONTINUOUS
10
5.90288
20
-3.71249
11
5.90288
21
-3.71249
0
LINE
8
BLACK
6
CONTINUOUS
10
5.90288
20
-3.71249
11
6.13946
21
-3.94908
0
LINE
8
BLACK
6
CONTINUOUS
10
6.13946
20
-3.94908
11
6.13947
21
-3.94908
0
LINE
8
BLACK
6
CONTINUOUS
10
6.13947
20
-3.94908
11
6.19508
21
-3.94908
0
LINE
8
BLACK
6
CONTINUOUS
10
6.19508
20
-3.94908
11
6.19508
21
-3.94907
0
LINE
8
BLACK
6
CONTINUOUS
10
6.19508
20
-3.94907
11
6.46646
21
-3.67769
0
LINE
8
BLACK
6
CONTINUOUS
10
6.46646
20
-3.67769
11
6.46646
21
-3.67769
0
LINE
8
BLACK
6
CONTINUOUS
10
6.46646
20
-3.67769
11
6.46646
21
-3.62208
0
LINE
8
BLACK
6
CONTINUOUS
10
6.46646
20
-3.62208
11
6.46645
21
-3.62208
0
LINE
8
BLACK
6
CONTINUOUS
10
6.46645
20
-3.62208
11
6.22987
21
-3.38549
0
LINE
8
BLACK
6
CONTINUOUS
10
6.22987
20
-3.38549
11
6.22987
21
-3.3855
0
LINE
8
BLACK
6
CONTINUOUS
10
6.22987
20
-3.3855
11
6.17426
21
-3.3855
0
LINE
8
BLACK
6
CONTINUOUS
10
6.17426
20
-3.3855
11
6.17426
21
-3.3855
0
LINE
8
BLACK
6
CONTINUOUS
10
6.17426
20
-3.3855
11
5.90288
21
-3.65688
0
LINE
8
BLACK
6
CONTINUOUS
10
5.90288
20
-3.65688
11
5.90272
21
-3.65688
0
LINE
8
BLACK
6
CONTINUOUS
10
5.90272
20
-3.65688
11
5.90272
21
-3.65686
0
LINE
8
BLACK
6
CONTINUOUS
10
5.90272
20
-3.65686
11
5.90274
21
-3.65685
0
LINE
8
BLACK
6
CONTINUOUS
10
5.90274
20
-3.65685
11
5.90274
21
-3.65681
0
LINE
8
BLACK
6
CONTINUOUS
10
5.90274
20
-3.65681
11
5.90285
21
-3.65641
0
LINE
8
BLACK
6
CONTINUOUS
10
5.90285
20
-3.65641
11
5.90287
21
-3.65638
0
LINE
8
BLACK
6
CONTINUOUS
10
5.90287
20
-3.65638
11
6.17353
21
-3.38572
0
LINE
8
BLACK
6
CONTINUOUS
10
6.17353
20
-3.38572
11
6.17355
21
-3.38571
0
LINE
8
BLACK
6
CONTINUOUS
10
6.17355
20
-3.38571
11
6.17416
21
-3.38537
0
LINE
8
BLACK
6
CONTINUOUS
10
6.17416
20
-3.38537
11
6.17418
21
-3.38537
0
LINE
8
BLACK
6
CONTINUOUS
10
6.17418
20
-3.38537
11
6.17421
21
-3.38535
0
LINE
8
BLACK
6
CONTINUOUS
10
6.17421
20
-3.38535
11
6.17457
21
-3.38515
0
LINE
8
BLACK
6
CONTINUOUS
10
6.17457
20
-3.38515
11
6.17461
21
-3.38514
0
LINE
8
BLACK
6
CONTINUOUS
10
6.17461
20
-3.38514
11
6.2292
21
-3.38514
0
LINE
8
BLACK
6
CONTINUOUS
10
6.2292
20
-3.38514
11
6.22922
21
-3.38514
0
LINE
8
BLACK
6
CONTINUOUS
10
5.82568
20
-2.9816
11
5.82635
21
-2.9818
0
LINE
8
BLACK
6
CONTINUOUS
10
5.82635
20
-2.9818
11
5.82636
21
-2.98181
0
LINE
8
BLACK
6
CONTINUOUS
10
5.82636
20
-2.98181
11
5.8264
21
-2.98181
0
LINE
8
BLACK
6
CONTINUOUS
10
5.8264
20
-2.98181
11
5.82679
21
-2.98193
0
LINE
8
BLACK
6
CONTINUOUS
10
5.82679
20
-2.98193
11
5.82683
21
-2.98195
0
LINE
8
BLACK
6
CONTINUOUS
10
5.82683
20
-2.98195
11
6.06269
21
-3.21781
0
LINE
8
BLACK
6
CONTINUOUS
10
6.06269
20
-3.21781
11
6.0627
21
-3.21783
0
LINE
8
BLACK
6
CONTINUOUS
10
6.0627
20
-3.21783
11
6.06303
21
-3.21844
0
LINE
8
BLACK
6
CONTINUOUS
10
6.06303
20
-3.21844
11
6.06303
21
-3.21846
0
LINE
8
BLACK
6
CONTINUOUS
10
6.06303
20
-3.21846
11
6.06306
21
-3.21849
0
LINE
8
BLACK
6
CONTINUOUS
10
6.06306
20
-3.21849
11
6.06326
21
-3.21885
0
LINE
8
BLACK
6
CONTINUOUS
10
6.06326
20
-3.21885
11
6.06327
21
-3.21889
0
LINE
8
BLACK
6
CONTINUOUS
10
6.06327
20
-3.21889
11
6.06327
21
-3.27347
0
LINE
8
BLACK
6
CONTINUOUS
10
6.06327
20
-3.27347
11
6.06326
21
-3.2735
0
LINE
8
BLACK
6
CONTINUOUS
10
6.06326
20
-3.2735
11
6.06307
21
-3.27417
0
LINE
8
BLACK
6
CONTINUOUS
10
6.06307
20
-3.27417
11
6.06305
21
-3.27418
0
LINE
8
BLACK
6
CONTINUOUS
10
6.06305
20
-3.27418
11
6.06305
21
-3.27422
0
LINE
8
BLACK
6
CONTINUOUS
10
6.06305
20
-3.27422
11
6.06294
21
-3.27461
0
LINE
8
BLACK
6
CONTINUOUS
10
6.06294
20
-3.27461
11
6.06292
21
-3.27465
0
LINE
8
BLACK
6
CONTINUOUS
10
6.06292
20
-3.27465
11
5.79226
21
-3.5453
0
LINE
8
BLACK
6
CONTINUOUS
10
5.79226
20
-3.5453
11
5.79224
21
-3.54532
0
LINE
8
BLACK
6
CONTINUOUS
10
5.79224
20
-3.54532
11
5.79163
21
-3.54565
0
LINE
8
BLACK
6
CONTINUOUS
10
5.79163
20
-3.54565
11
5.79161
21
-3.54565
0
LINE
8
BLACK
6
CONTINUOUS
10
5.79161
20
-3.54565
11
5.79158
21
-3.54568
0
LINE
8
BLACK
6
CONTINUOUS
10
5.79158
20
-3.54568
11
5.79122
21
-3.54588
0
LINE
8
BLACK
6
CONTINUOUS
10
5.79122
20
-3.54588
11
5.79118
21
-3.54589
0
LINE
8
BLACK
6
CONTINUOUS
10
5.79118
20
-3.54589
11
5.73659
21
-3.54589
0
LINE
8
BLACK
6
CONTINUOUS
10
5.73659
20
-3.54589
11
5.73657
21
-3.54588
0
LINE
8
BLACK
6
CONTINUOUS
10
5.73657
20
-3.54588
11
5.7359
21
-3.54569
0
LINE
8
BLACK
6
CONTINUOUS
10
5.7359
20
-3.54569
11
5.73589
21
-3.54567
0
LINE
8
BLACK
6
CONTINUOUS
10
5.73589
20
-3.54567
11
5.73585
21
-3.54567
0
LINE
8
BLACK
6
CONTINUOUS
10
5.73585
20
-3.54567
11
5.73545
21
-3.54555
0
LINE
8
BLACK
6
CONTINUOUS
10
5.73545
20
-3.54555
11
5.73542
21
-3.54553
0
LINE
8
BLACK
6
CONTINUOUS
10
5.73542
20
-3.54553
11
5.49956
21
-3.30968
0
LINE
8
BLACK
6
CONTINUOUS
10
5.49956
20
-3.30968
11
5.49955
21
-3.30966
0
LINE
8
BLACK
6
CONTINUOUS
10
5.49955
20
-3.30966
11
5.49921
21
-3.30904
0
LINE
8
BLACK
6
CONTINUOUS
10
5.49921
20
-3.30904
11
5.49921
21
-3.30902
0
LINE
8
BLACK
6
CONTINUOUS
10
5.49921
20
-3.30902
11
5.49919
21
-3.309
0
LINE
8
BLACK
6
CONTINUOUS
10
5.49919
20
-3.309
11
5.49899
21
-3.30864
0
LINE
8
BLACK
6
CONTINUOUS
10
5.49899
20
-3.30864
11
5.49898
21
-3.3086
0
LINE
8
BLACK
6
CONTINUOUS
10
5.49898
20
-3.3086
11
5.49898
21
-3.25401
0
LINE
8
BLACK
6
CONTINUOUS
10
5.49898
20
-3.25401
11
5.49898
21
-3.25399
0
LINE
8
BLACK
6
CONTINUOUS
10
5.49898
20
-3.25399
11
5.49917
21
-3.25334
0
LINE
8
BLACK
6
CONTINUOUS
10
5.49917
20
-3.25334
11
5.49933
21
-3.25334
0
LINE
8
BLACK
6
CONTINUOUS
10
5.49933
20
-3.25334
11
5.49933
21
-3.25334
0
LINE
8
BLACK
6
CONTINUOUS
10
5.49933
20
-3.25334
11
5.49933
21
-3.30895
0
LINE
8
BLACK
6
CONTINUOUS
10
5.49933
20
-3.30895
11
5.49934
21
-3.30895
0
LINE
8
BLACK
6
CONTINUOUS
10
5.49934
20
-3.30895
11
5.73592
21
-3.54553
0
LINE
8
BLACK
6
CONTINUOUS
10
5.73592
20
-3.54553
11
5.73592
21
-3.54553
0
LINE
8
BLACK
6
CONTINUOUS
10
5.73592
20
-3.54553
11
5.79153
21
-3.54553
0
LINE
8
BLACK
6
CONTINUOUS
10
5.79153
20
-3.54553
11
5.79153
21
-3.54553
0
LINE
8
BLACK
6
CONTINUOUS
10
5.79153
20
-3.54553
11
6.06291
21
-3.27415
0
LINE
8
BLACK
6
CONTINUOUS
10
6.06291
20
-3.27415
11
6.06291
21
-3.27414
0
LINE
8
BLACK
6
CONTINUOUS
10
6.06291
20
-3.27414
11
6.06291
21
-3.21853
0
LINE
8
BLACK
6
CONTINUOUS
10
6.06291
20
-3.21853
11
6.06291
21
-3.21853
0
LINE
8
BLACK
6
CONTINUOUS
10
6.06291
20
-3.21853
11
5.82633
21
-2.98195
0
LINE
8
BLACK
6
CONTINUOUS
10
5.82633
20
-2.98195
11
5.82632
21
-2.98195
0
LINE
8
BLACK
6
CONTINUOUS
10
5.82632
20
-2.98195
11
5.77071
21
-2.98195
0
LINE
8
BLACK
6
CONTINUOUS
10
5.77071
20
-2.98195
11
5.77071
21
-2.98196
0
LINE
8
BLACK
6
CONTINUOUS
10
5.77071
20
-2.98196
11
5.49933
21
-3.25334
0
LINE
8
BLACK
6
CONTINUOUS
10
5.49933
20
-3.25334
11
5.49917
21
-3.25334
0
LINE
8
BLACK
6
CONTINUOUS
10
5.49917
20
-3.25334
11
5.49918
21
-3.25332
0
LINE
8
BLACK
6
CONTINUOUS
10
5.49918
20
-3.25332
11
5.49919
21
-3.2533
0
LINE
8
BLACK
6
CONTINUOUS
10
5.49919
20
-3.2533
11
5.4992
21
-3.25326
0
LINE
8
BLACK
6
CONTINUOUS
10
5.4992
20
-3.25326
11
5.49931
21
-3.25287
0
LINE
8
BLACK
6
CONTINUOUS
10
5.49931
20
-3.25287
11
5.49933
21
-3.25284
0
LINE
8
BLACK
6
CONTINUOUS
10
5.49933
20
-3.25284
11
5.76999
21
-2.98218
0
LINE
8
BLACK
6
CONTINUOUS
10
5.76999
20
-2.98218
11
5.77001
21
-2.98217
0
LINE
8
BLACK
6
CONTINUOUS
10
5.77001
20
-2.98217
11
5.77062
21
-2.98183
0
LINE
8
BLACK
6
CONTINUOUS
10
5.77062
20
-2.98183
11
5.77064
21
-2.98183
0
LINE
8
BLACK
6
CONTINUOUS
10
5.77064
20
-2.98183
11
5.77067
21
-2.9818
0
LINE
8
BLACK
6
CONTINUOUS
10
5.77067
20
-2.9818
11
5.77103
21
-2.98161
0
LINE
8
BLACK
6
CONTINUOUS
10
5.77103
20
-2.98161
11
5.77107
21
-2.9816
0
LINE
8
BLACK
6
CONTINUOUS
10
5.77107
20
-2.9816
11
5.82565
21
-2.9816
0
LINE
8
BLACK
6
CONTINUOUS
10
5.82565
20
-2.9816
11
5.82568
21
-2.9816
0
LINE
8
BLACK
6
CONTINUOUS
10
4.97795
20
-2.84861
11
4.97862
21
-2.84881
0
LINE
8
BLACK
6
CONTINUOUS
10
4.97862
20
-2.84881
11
4.97863
21
-2.84882
0
LINE
8
BLACK
6
CONTINUOUS
10
4.97863
20
-2.84882
11
4.97867
21
-2.84882
0
LINE
8
BLACK
6
CONTINUOUS
10
4.97867
20
-2.84882
11
4.97906
21
-2.84894
0
LINE
8
BLACK
6
CONTINUOUS
10
4.97906
20
-2.84894
11
4.9791
21
-2.84896
0
LINE
8
BLACK
6
CONTINUOUS
10
4.9791
20
-2.84896
11
5.1036
21
-2.97346
0
LINE
8
BLACK
6
CONTINUOUS
10
5.1036
20
-2.97346
11
5.10361
21
-2.97348
0
LINE
8
BLACK
6
CONTINUOUS
10
5.10361
20
-2.97348
11
5.10395
21
-2.97409
0
LINE
8
BLACK
6
CONTINUOUS
10
5.10395
20
-2.97409
11
5.10395
21
-2.97411
0
LINE
8
BLACK
6
CONTINUOUS
10
5.10395
20
-2.97411
11
5.10397
21
-2.97414
0
LINE
8
BLACK
6
CONTINUOUS
10
5.10397
20
-2.97414
11
5.10417
21
-2.9745
0
LINE
8
BLACK
6
CONTINUOUS
10
5.10417
20
-2.9745
11
5.10418
21
-2.97454
0
LINE
8
BLACK
6
CONTINUOUS
10
5.10418
20
-2.97454
11
5.10418
21
-3.02913
0
LINE
8
BLACK
6
CONTINUOUS
10
5.10418
20
-3.02913
11
5.10418
21
-3.02915
0
LINE
8
BLACK
6
CONTINUOUS
10
5.10418
20
-3.02915
11
5.10398
21
-3.02982
0
LINE
8
BLACK
6
CONTINUOUS
10
5.10398
20
-3.02982
11
5.10397
21
-3.02983
0
LINE
8
BLACK
6
CONTINUOUS
10
5.10397
20
-3.02983
11
5.10397
21
-3.02987
0
LINE
8
BLACK
6
CONTINUOUS
10
5.10397
20
-3.02987
11
5.10385
21
-3.03027
0
LINE
8
BLACK
6
CONTINUOUS
10
5.10385
20
-3.03027
11
5.10383
21
-3.0303
0
LINE
8
BLACK
6
CONTINUOUS
10
5.10383
20
-3.0303
11
4.97933
21
-3.1548
0
LINE
8
BLACK
6
CONTINUOUS
10
4.97933
20
-3.1548
11
4.97931
21
-3.15482
0
LINE
8
BLACK
6
CONTINUOUS
10
4.97931
20
-3.15482
11
4.97869
21
-3.15515
0
LINE
8
BLACK
6
CONTINUOUS
10
4.97869
20
-3.15515
11
4.97867
21
-3.15515
0
LINE
8
BLACK
6
CONTINUOUS
10
4.97867
20
-3.15515
11
4.97865
21
-3.15518
0
LINE
8
BLACK
6
CONTINUOUS
10
4.97865
20
-3.15518
11
4.97829
21
-3.15538
0
LINE
8
BLACK
6
CONTINUOUS
10
4.97829
20
-3.15538
11
4.97825
21
-3.15539
0
LINE
8
BLACK
6
CONTINUOUS
10
4.97825
20
-3.15539
11
4.92366
21
-3.15539
0
LINE
8
BLACK
6
CONTINUOUS
10
4.92366
20
-3.15539
11
4.92364
21
-3.15538
0
LINE
8
BLACK
6
CONTINUOUS
10
4.92364
20
-3.15538
11
4.92297
21
-3.15519
0
LINE
8
BLACK
6
CONTINUOUS
10
4.92297
20
-3.15519
11
4.92295
21
-3.15517
0
LINE
8
BLACK
6
CONTINUOUS
10
4.92295
20
-3.15517
11
4.92292
21
-3.15517
0
LINE
8
BLACK
6
CONTINUOUS
10
4.92292
20
-3.15517
11
4.92252
21
-3.15505
0
LINE
8
BLACK
6
CONTINUOUS
10
4.92252
20
-3.15505
11
4.92249
21
-3.15503
0
LINE
8
BLACK
6
CONTINUOUS
10
4.92249
20
-3.15503
11
4.79798
21
-3.03053
0
LINE
8
BLACK
6
CONTINUOUS
10
4.79798
20
-3.03053
11
4.79797
21
-3.03051
0
LINE
8
BLACK
6
CONTINUOUS
10
4.79797
20
-3.03051
11
4.79764
21
-3.0299
0
LINE
8
BLACK
6
CONTINUOUS
10
4.79764
20
-3.0299
11
4.79764
21
-3.02988
0
LINE
8
BLACK
6
CONTINUOUS
10
4.79764
20
-3.02988
11
4.79761
21
-3.02985
0
LINE
8
BLACK
6
CONTINUOUS
10
4.79761
20
-3.02985
11
4.79741
21
-3.02949
0
LINE
8
BLACK
6
CONTINUOUS
10
4.79741
20
-3.02949
11
4.7974
21
-3.02945
0
LINE
8
BLACK
6
CONTINUOUS
10
4.7974
20
-3.02945
11
4.7974
21
-2.97487
0
LINE
8
BLACK
6
CONTINUOUS
10
4.7974
20
-2.97487
11
4.79741
21
-2.97484
0
LINE
8
BLACK
6
CONTINUOUS
10
4.79741
20
-2.97484
11
4.7976
21
-2.97419
0
LINE
8
BLACK
6
CONTINUOUS
10
4.7976
20
-2.97419
11
4.79776
21
-2.97419
0
LINE
8
BLACK
6
CONTINUOUS
10
4.79776
20
-2.97419
11
4.79776
21
-2.9742
0
LINE
8
BLACK
6
CONTINUOUS
10
4.79776
20
-2.9742
11
4.79776
21
-3.0298
0
LINE
8
BLACK
6
CONTINUOUS
10
4.79776
20
-3.0298
11
4.79776
21
-3.02981
0
LINE
8
BLACK
6
CONTINUOUS
10
4.79776
20
-3.02981
11
4.92299
21
-3.15503
0
LINE
8
BLACK
6
CONTINUOUS
10
4.92299
20
-3.15503
11
4.92299
21
-3.15503
0
LINE
8
BLACK
6
CONTINUOUS
10
4.92299
20
-3.15503
11
4.9786
21
-3.15503
0
LINE
8
BLACK
6
CONTINUOUS
10
4.9786
20
-3.15503
11
4.9786
21
-3.15503
0
LINE
8
BLACK
6
CONTINUOUS
10
4.9786
20
-3.15503
11
5.10383
21
-3.0298
0
LINE
8
BLACK
6
CONTINUOUS
10
5.10383
20
-3.0298
11
5.10383
21
-3.0298
0
LINE
8
BLACK
6
CONTINUOUS
10
5.10383
20
-3.0298
11
5.10383
21
-2.97419
0
LINE
8
BLACK
6
CONTINUOUS
10
5.10383
20
-2.97419
11
5.10382
21
-2.97419
0
LINE
8
BLACK
6
CONTINUOUS
10
5.10382
20
-2.97419
11
4.9786
21
-2.84896
0
LINE
8
BLACK
6
CONTINUOUS
10
4.9786
20
-2.84896
11
4.97859
21
-2.84896
0
LINE
8
BLACK
6
CONTINUOUS
10
4.97859
20
-2.84896
11
4.92298
21
-2.84896
0
LINE
8
BLACK
6
CONTINUOUS
10
4.92298
20
-2.84896
11
4.92298
21
-2.84896
0
LINE
8
BLACK
6
CONTINUOUS
10
4.92298
20
-2.84896
11
4.79776
21
-2.97419
0
LINE
8
BLACK
6
CONTINUOUS
10
4.79776
20
-2.97419
11
4.7976
21
-2.97419
0
LINE
8
BLACK
6
CONTINUOUS
10
4.7976
20
-2.97419
11
4.7976
21
-2.97417
0
LINE
8
BLACK
6
CONTINUOUS
10
4.7976
20
-2.97417
11
4.79762
21
-2.97416
0
LINE
8
BLACK
6
CONTINUOUS
10
4.79762
20
-2.97416
11
4.79762
21
-2.97412
0
LINE
8
BLACK
6
CONTINUOUS
10
4.79762
20
-2.97412
11
4.79773
21
-2.97373
0
LINE
8
BLACK
6
CONTINUOUS
10
4.79773
20
-2.97373
11
4.79775
21
-2.97369
0
LINE
8
BLACK
6
CONTINUOUS
10
4.79775
20
-2.97369
11
4.92226
21
-2.84919
0
LINE
8
BLACK
6
CONTINUOUS
10
4.92226
20
-2.84919
11
4.92228
21
-2.84918
0
LINE
8
BLACK
6
CONTINUOUS
10
4.92228
20
-2.84918
11
4.92289
21
-2.84884
0
LINE
8
BLACK
6
CONTINUOUS
10
4.92289
20
-2.84884
11
4.92291
21
-2.84884
0
LINE
8
BLACK
6
CONTINUOUS
10
4.92291
20
-2.84884
11
4.92294
21
-2.84881
0
LINE
8
BLACK
6
CONTINUOUS
10
4.92294
20
-2.84881
11
4.9233
21
-2.84862
0
LINE
8
BLACK
6
CONTINUOUS
10
4.9233
20
-2.84862
11
4.92334
21
-2.84861
0
LINE
8
BLACK
6
CONTINUOUS
10
4.92334
20
-2.84861
11
4.97792
21
-2.84861
0
LINE
8
BLACK
6
CONTINUOUS
10
4.97792
20
-2.84861
11
4.97795
21
-2.84861
0
LINE
8
BLACK
6
CONTINUOUS
10
5.68331
20
-2.14573
11
5.68398
21
-2.14592
0
LINE
8
BLACK
6
CONTINUOUS
10
5.68398
20
-2.14592
11
5.684
21
-2.14594
0
LINE
8
BLACK
6
CONTINUOUS
10
5.684
20
-2.14594
11
5.68404
21
-2.14594
0
LINE
8
BLACK
6
CONTINUOUS
10
5.68404
20
-2.14594
11
5.68443
21
-2.14606
0
LINE
8
BLACK
6
CONTINUOUS
10
5.68443
20
-2.14606
11
5.68447
21
-2.14608
0
LINE
8
BLACK
6
CONTINUOUS
10
5.68447
20
-2.14608
11
5.95512
21
-2.41673
0
LINE
8
BLACK
6
CONTINUOUS
10
5.95512
20
-2.41673
11
5.95514
21
-2.41675
0
LINE
8
BLACK
6
CONTINUOUS
10
5.95514
20
-2.41675
11
5.95547
21
-2.41736
0
LINE
8
BLACK
6
CONTINUOUS
10
5.95547
20
-2.41736
11
5.95547
21
-2.41739
0
LINE
8
BLACK
6
CONTINUOUS
10
5.95547
20
-2.41739
11
5.9555
21
-2.41741
0
LINE
8
BLACK
6
CONTINUOUS
10
5.9555
20
-2.41741
11
5.95569
21
-2.41777
0
LINE
8
BLACK
6
CONTINUOUS
10
5.95569
20
-2.41777
11
5.9557
21
-2.41781
0
LINE
8
BLACK
6
CONTINUOUS
10
5.9557
20
-2.41781
11
5.9557
21
-2.4724
0
LINE
8
BLACK
6
CONTINUOUS
10
5.9557
20
-2.4724
11
5.9557
21
-2.47242
0
LINE
8
BLACK
6
CONTINUOUS
10
5.9557
20
-2.47242
11
5.9555
21
-2.47309
0
LINE
8
BLACK
6
CONTINUOUS
10
5.9555
20
-2.47309
11
5.95549
21
-2.47311
0
LINE
8
BLACK
6
CONTINUOUS
10
5.95549
20
-2.47311
11
5.95549
21
-2.47314
0
LINE
8
BLACK
6
CONTINUOUS
10
5.95549
20
-2.47314
11
5.95537
21
-2.47354
0
LINE
8
BLACK
6
CONTINUOUS
10
5.95537
20
-2.47354
11
5.95535
21
-2.47357
0
LINE
8
BLACK
6
CONTINUOUS
10
5.95535
20
-2.47357
11
5.71949
21
-2.70943
0
LINE
8
BLACK
6
CONTINUOUS
10
5.71949
20
-2.70943
11
5.71948
21
-2.70944
0
LINE
8
BLACK
6
CONTINUOUS
10
5.71948
20
-2.70944
11
5.71886
21
-2.70978
0
LINE
8
BLACK
6
CONTINUOUS
10
5.71886
20
-2.70978
11
5.71884
21
-2.70978
0
LINE
8
BLACK
6
CONTINUOUS
10
5.71884
20
-2.70978
11
5.71881
21
-2.70981
0
LINE
8
BLACK
6
CONTINUOUS
10
5.71881
20
-2.70981
11
5.71845
21
-2.71
0
LINE
8
BLACK
6
CONTINUOUS
10
5.71845
20
-2.71
11
5.71842
21
-2.71001
0
LINE
8
BLACK
6
CONTINUOUS
10
5.71842
20
-2.71001
11
5.66383
21
-2.71001
0
LINE
8
BLACK
6
CONTINUOUS
10
5.66383
20
-2.71001
11
5.66381
21
-2.71001
0
LINE
8
BLACK
6
CONTINUOUS
10
5.66381
20
-2.71001
11
5.66314
21
-2.70981
0
LINE
8
BLACK
6
CONTINUOUS
10
5.66314
20
-2.70981
11
5.66312
21
-2.7098
0
LINE
8
BLACK
6
CONTINUOUS
10
5.66312
20
-2.7098
11
5.66308
21
-2.7098
0
LINE
8
BLACK
6
CONTINUOUS
10
5.66308
20
-2.7098
11
5.66269
21
-2.70968
0
LINE
8
BLACK
6
CONTINUOUS
10
5.66269
20
-2.70968
11
5.66266
21
-2.70966
0
LINE
8
BLACK
6
CONTINUOUS
10
5.66266
20
-2.70966
11
5.392
21
-2.439
0
LINE
8
BLACK
6
CONTINUOUS
10
5.392
20
-2.439
11
5.39198
21
-2.43899
0
LINE
8
BLACK
6
CONTINUOUS
10
5.39198
20
-2.43899
11
5.39165
21
-2.43837
0
LINE
8
BLACK
6
CONTINUOUS
10
5.39165
20
-2.43837
11
5.39165
21
-2.43835
0
LINE
8
BLACK
6
CONTINUOUS
10
5.39165
20
-2.43835
11
5.39162
21
-2.43832
0
LINE
8
BLACK
6
CONTINUOUS
10
5.39162
20
-2.43832
11
5.39143
21
-2.43796
0
LINE
8
BLACK
6
CONTINUOUS
10
5.39143
20
-2.43796
11
5.39142
21
-2.43793
0
LINE
8
BLACK
6
CONTINUOUS
10
5.39142
20
-2.43793
11
5.39142
21
-2.38334
0
LINE
8
BLACK
6
CONTINUOUS
10
5.39142
20
-2.38334
11
5.39142
21
-2.38332
0
LINE
8
BLACK
6
CONTINUOUS
10
5.39142
20
-2.38332
11
5.39161
21
-2.38266
0
LINE
8
BLACK
6
CONTINUOUS
10
5.39161
20
-2.38266
11
5.39177
21
-2.38266
0
LINE
8
BLACK
6
CONTINUOUS
10
5.39177
20
-2.38266
11
5.39177
21
-2.38267
0
LINE
8
BLACK
6
CONTINUOUS
10
5.39177
20
-2.38267
11
5.39177
21
-2.43828
0
LINE
8
BLACK
6
CONTINUOUS
10
5.39177
20
-2.43828
11
5.39177
21
-2.43828
0
LINE
8
BLACK
6
CONTINUOUS
10
5.39177
20
-2.43828
11
5.66315
21
-2.70966
0
LINE
8
BLACK
6
CONTINUOUS
10
5.66315
20
-2.70966
11
5.66316
21
-2.70966
0
LINE
8
BLACK
6
CONTINUOUS
10
5.66316
20
-2.70966
11
5.71877
21
-2.70966
0
LINE
8
BLACK
6
CONTINUOUS
10
5.71877
20
-2.70966
11
5.71877
21
-2.70965
0
LINE
8
BLACK
6
CONTINUOUS
10
5.71877
20
-2.70965
11
5.95535
21
-2.47307
0
LINE
8
BLACK
6
CONTINUOUS
10
5.95535
20
-2.47307
11
5.95535
21
-2.47307
0
LINE
8
BLACK
6
CONTINUOUS
10
5.95535
20
-2.47307
11
5.95535
21
-2.41746
0
LINE
8
BLACK
6
CONTINUOUS
10
5.95535
20
-2.41746
11
5.95535
21
-2.41746
0
LINE
8
BLACK
6
CONTINUOUS
10
5.95535
20
-2.41746
11
5.68397
21
-2.14608
0
LINE
8
BLACK
6
CONTINUOUS
10
5.68397
20
-2.14608
11
5.68396
21
-2.14608
0
LINE
8
BLACK
6
CONTINUOUS
10
5.68396
20
-2.14608
11
5.62835
21
-2.14608
0
LINE
8
BLACK
6
CONTINUOUS
10
5.62835
20
-2.14608
11
5.62835
21
-2.14608
0
LINE
8
BLACK
6
CONTINUOUS
10
5.62835
20
-2.14608
11
5.39177
21
-2.38266
0
LINE
8
BLACK
6
CONTINUOUS
10
5.39177
20
-2.38266
11
5.39161
21
-2.38266
0
LINE
8
BLACK
6
CONTINUOUS
10
5.39161
20
-2.38266
11
5.39162
21
-2.38265
0
LINE
8
BLACK
6
CONTINUOUS
10
5.39162
20
-2.38265
11
5.39163
21
-2.38263
0
LINE
8
BLACK
6
CONTINUOUS
10
5.39163
20
-2.38263
11
5.39163
21
-2.38259
0
LINE
8
BLACK
6
CONTINUOUS
10
5.39163
20
-2.38259
11
5.39175
21
-2.3822
0
LINE
8
BLACK
6
CONTINUOUS
10
5.39175
20
-2.3822
11
5.39177
21
-2.38217
0
LINE
8
BLACK
6
CONTINUOUS
10
5.39177
20
-2.38217
11
5.62763
21
-2.14631
0
LINE
8
BLACK
6
CONTINUOUS
10
5.62763
20
-2.14631
11
5.62765
21
-2.14629
0
LINE
8
BLACK
6
CONTINUOUS
10
5.62765
20
-2.14629
11
5.62826
21
-2.14596
0
LINE
8
BLACK
6
CONTINUOUS
10
5.62826
20
-2.14596
11
5.62828
21
-2.14596
0
LINE
8
BLACK
6
CONTINUOUS
10
5.62828
20
-2.14596
11
5.62831
21
-2.14593
0
LINE
8
BLACK
6
CONTINUOUS
10
5.62831
20
-2.14593
11
5.62867
21
-2.14573
0
LINE
8
BLACK
6
CONTINUOUS
10
5.62867
20
-2.14573
11
5.6287
21
-2.14572
0
LINE
8
BLACK
6
CONTINUOUS
10
5.6287
20
-2.14572
11
5.68329
21
-2.14572
0
LINE
8
BLACK
6
CONTINUOUS
10
5.68329
20
-2.14572
11
5.68331
21
-2.14573
  0
ENDSEC
  0
EOF
