  0
SECTION
  2
HEADER
  9
$ANGBASE
  50
0.0
  9
$ANGDIR
  70
1
  9
$MEASUREMENT
  70
0
  0
ENDSEC
  0
SECTION
  2
TABLES
  0
TABLE
  2
LTYPE
  70
4
  0
LTYPE
  5
40F
  2
CONTINUOUS
  70
0
  3
Solid line
  72
65
  73
0
  40
0.0
  0
LTYPE
  5
410
  2
DASHDOT
 70
0
  3
Dash Dot ____ _ ____ _
 72
65
 73
4
 40
2.0
 49
1.25
 49
-0.25
 49
0.25
 49
-0.25
  0
LTYPE
  5
411
  2
DASHED
 70
0
  3
Dashed __ __ __ __ __
 72
65
 73
2
 40
0.75
 49
0.5
 49
-0.25
  0
LTYPE
  5
43B
  2
DOTTED
 70
0
  3
Dotted .  .  .  .
 72
65
 73
2
 40
0.2
 49
0.0
 49
-0.2
  0
ENDTAB
  0
TABLE
  2
STYLE
  70
4
  0
STYLE
  2
KICAD
  70
0
  40
0
  41
1
  42
1
  50
0
  71
0
  3
isocp.shx
  0
STYLE
  2
KICADB
  70
0
  40
0
  41
1
  42
1
  50
0
  71
0
  3
isocp.shx
  0
STYLE
  2
KICADI
  70
0
  40
0
  41
1
  42
1
  50
15
  71
0
  3
isocp.shx
  0
STYLE
  2
KICADBI
  70
0
  40
0
  41
1
  42
1
  50
15
  71
0
  3
isocp.shx
  0
ENDTAB
  0
TABLE
  2
LAYER
  70
1
  0
LAYER
  2
BLACK
  70
0
  62
7
  6
CONTINUOUS
  0
ENDTAB
  0
ENDSEC
  0
SECTION
  2
ENTITIES
0
LINE
8
BLACK
6
CONTINUOUS
10
7.6961
20
-1.74956
11
7.69673
21
-1.74956
0
LINE
8
BLACK
6
CONTINUOUS
10
7.69673
20
-1.74956
11
7.69723
21
-1.74993
0
LINE
8
BLACK
6
CONTINUOUS
10
7.69723
20
-1.74993
11
7.69783
21
-1.75012
0
LINE
8
BLACK
6
CONTINUOUS
10
7.69783
20
-1.75012
11
7.69819
21
-1.75063
0
LINE
8
BLACK
6
CONTINUOUS
10
7.69819
20
-1.75063
11
7.6987
21
-1.75099
0
LINE
8
BLACK
6
CONTINUOUS
10
7.6987
20
-1.75099
11
7.69889
21
-1.75159
0
LINE
8
BLACK
6
CONTINUOUS
10
7.69889
20
-1.75159
11
7.69926
21
-1.75209
0
LINE
8
BLACK
6
CONTINUOUS
10
7.69926
20
-1.75209
11
7.69926
21
-1.75271
0
LINE
8
BLACK
6
CONTINUOUS
10
7.69926
20
-1.75271
11
7.69945
21
-1.75331
0
LINE
8
BLACK
6
CONTINUOUS
10
7.69945
20
-1.75331
11
7.69945
21
-5.33331
0
LINE
8
BLACK
6
CONTINUOUS
10
7.69945
20
-5.33331
11
7.69926
21
-5.3339
0
LINE
8
BLACK
6
CONTINUOUS
10
7.69926
20
-5.3339
11
7.69926
21
-5.33452
0
LINE
8
BLACK
6
CONTINUOUS
10
7.69926
20
-5.33452
11
7.69889
21
-5.33503
0
LINE
8
BLACK
6
CONTINUOUS
10
7.69889
20
-5.33503
11
7.6987
21
-5.33562
0
LINE
8
BLACK
6
CONTINUOUS
10
7.6987
20
-5.33562
11
7.69819
21
-5.33599
0
LINE
8
BLACK
6
CONTINUOUS
10
7.69819
20
-5.33599
11
7.69783
21
-5.33649
0
LINE
8
BLACK
6
CONTINUOUS
10
7.69783
20
-5.33649
11
7.69723
21
-5.33668
0
LINE
8
BLACK
6
CONTINUOUS
10
7.69723
20
-5.33668
11
7.69673
21
-5.33705
0
LINE
8
BLACK
6
CONTINUOUS
10
7.69673
20
-5.33705
11
7.6961
21
-5.33705
0
LINE
8
BLACK
6
CONTINUOUS
10
7.6961
20
-5.33705
11
7.69551
21
-5.33724
0
LINE
8
BLACK
6
CONTINUOUS
10
7.69551
20
-5.33724
11
4.11551
21
-5.33724
0
LINE
8
BLACK
6
CONTINUOUS
10
4.11551
20
-5.33724
11
4.11492
21
-5.33705
0
LINE
8
BLACK
6
CONTINUOUS
10
4.11492
20
-5.33705
11
4.1143
21
-5.33705
0
LINE
8
BLACK
6
CONTINUOUS
10
4.1143
20
-5.33705
11
4.11379
21
-5.33668
0
LINE
8
BLACK
6
CONTINUOUS
10
4.11379
20
-5.33668
11
4.1132
21
-5.33649
0
LINE
8
BLACK
6
CONTINUOUS
10
4.1132
20
-5.33649
11
4.11283
21
-5.33599
0
LINE
8
BLACK
6
CONTINUOUS
10
4.11283
20
-5.33599
11
4.11233
21
-5.33562
0
LINE
8
BLACK
6
CONTINUOUS
10
4.11233
20
-5.33562
11
4.11213
21
-5.33503
0
LINE
8
BLACK
6
CONTINUOUS
10
4.11213
20
-5.33503
11
4.11177
21
-5.33452
0
LINE
8
BLACK
6
CONTINUOUS
10
4.11177
20
-5.33452
11
4.11177
21
-5.3339
0
LINE
8
BLACK
6
CONTINUOUS
10
4.11177
20
-5.3339
11
4.11157
21
-5.33331
0
LINE
8
BLACK
6
CONTINUOUS
10
4.11157
20
-5.33331
11
4.11157
21
-1.75331
0
LINE
8
BLACK
6
CONTINUOUS
10
4.11157
20
-1.75331
11
4.11177
21
-1.75271
0
LINE
8
BLACK
6
CONTINUOUS
10
4.11177
20
-1.75271
11
4.11177
21
-1.75209
0
LINE
8
BLACK
6
CONTINUOUS
10
4.11177
20
-1.75209
11
4.11213
21
-1.75159
0
LINE
8
BLACK
6
CONTINUOUS
10
4.11213
20
-1.75159
11
4.11233
21
-1.75099
0
LINE
8
BLACK
6
CONTINUOUS
10
4.11233
20
-1.75099
11
4.11283
21
-1.75063
0
LINE
8
BLACK
6
CONTINUOUS
10
4.11283
20
-1.75063
11
4.1132
21
-1.75012
0
LINE
8
BLACK
6
CONTINUOUS
10
4.1132
20
-1.75012
11
4.11379
21
-1.74993
0
LINE
8
BLACK
6
CONTINUOUS
10
4.11379
20
-1.74993
11
4.1143
21
-1.74956
0
LINE
8
BLACK
6
CONTINUOUS
10
4.1143
20
-1.74956
11
4.11492
21
-1.74956
0
LINE
8
BLACK
6
CONTINUOUS
10
4.11492
20
-1.74956
11
4.11551
21
-1.74937
0
LINE
8
BLACK
6
CONTINUOUS
10
4.11551
20
-1.74937
11
7.69551
21
-1.74937
0
LINE
8
BLACK
6
CONTINUOUS
10
7.69551
20
-1.74937
11
7.6961
21
-1.74956
0
LINE
8
BLACK
6
CONTINUOUS
10
4.11945
20
-1.75724
11
4.11945
21
-5.32937
0
LINE
8
BLACK
6
CONTINUOUS
10
4.11945
20
-5.32937
11
7.69157
21
-5.32937
0
LINE
8
BLACK
6
CONTINUOUS
10
7.69157
20
-5.32937
11
7.69157
21
-1.75724
0
LINE
8
BLACK
6
CONTINUOUS
10
7.69157
20
-1.75724
11
4.11945
21
-1.75724
  0
ENDSEC
  0
EOF
