  0
SECTION
  2
HEADER
  9
$ANGBASE
  50
0.0
  9
$ANGDIR
  70
1
  9
$MEASUREMENT
  70
0
  0
ENDSEC
  0
SECTION
  2
TABLES
  0
TABLE
  2
LTYPE
  70
4
  0
LTYPE
  5
40F
  2
CONTINUOUS
  70
0
  3
Solid line
  72
65
  73
0
  40
0.0
  0
LTYPE
  5
410
  2
DASHDOT
 70
0
  3
Dash Dot ____ _ ____ _
 72
65
 73
4
 40
2.0
 49
1.25
 49
-0.25
 49
0.25
 49
-0.25
  0
LTYPE
  5
411
  2
DASHED
 70
0
  3
Dashed __ __ __ __ __
 72
65
 73
2
 40
0.75
 49
0.5
 49
-0.25
  0
LTYPE
  5
43B
  2
DOTTED
 70
0
  3
Dotted .  .  .  .
 72
65
 73
2
 40
0.2
 49
0.0
 49
-0.2
  0
ENDTAB
  0
TABLE
  2
STYLE
  70
4
  0
STYLE
  2
KICAD
  70
0
  40
0
  41
1
  42
1
  50
0
  71
0
  3
isocp.shx
  0
STYLE
  2
KICADB
  70
0
  40
0
  41
1
  42
1
  50
0
  71
0
  3
isocp.shx
  0
STYLE
  2
KICADI
  70
0
  40
0
  41
1
  42
1
  50
15
  71
0
  3
isocp.shx
  0
STYLE
  2
KICADBI
  70
0
  40
0
  41
1
  42
1
  50
15
  71
0
  3
isocp.shx
  0
ENDTAB
  0
TABLE
  2
LAYER
  70
1
  0
LAYER
  2
BLACK
  70
0
  62
7
  6
CONTINUOUS
  0
ENDTAB
  0
ENDSEC
  0
SECTION
  2
ENTITIES
0
LINE
8
BLACK
6
CONTINUOUS
10
4.41668
20
-4.14118
11
5.30764
21
-5.03214
0
LINE
8
BLACK
6
CONTINUOUS
10
5.30764
20
-5.03214
11
5.30764
21
-5.03214
0
LINE
8
BLACK
6
CONTINUOUS
10
5.30764
20
-5.03214
11
5.30821
21
-5.03353
0
LINE
8
BLACK
6
CONTINUOUS
10
5.30821
20
-5.03353
11
5.30764
21
-5.03492
0
LINE
8
BLACK
6
CONTINUOUS
10
5.30764
20
-5.03492
11
5.07429
21
-5.26827
0
LINE
8
BLACK
6
CONTINUOUS
10
5.07429
20
-5.26827
11
5.0729
21
-5.26884
0
LINE
8
BLACK
6
CONTINUOUS
10
5.0729
20
-5.26884
11
5.07191
21
-5.26844
0
LINE
8
BLACK
6
CONTINUOUS
10
5.07191
20
-5.26844
11
5.07151
21
-5.26827
0
LINE
8
BLACK
6
CONTINUOUS
10
5.07151
20
-5.26827
11
4.18055
21
-4.37731
0
LINE
8
BLACK
6
CONTINUOUS
10
4.18055
20
-4.37731
11
4.17998
21
-4.37592
0
LINE
8
BLACK
6
CONTINUOUS
10
4.17998
20
-4.37592
11
4.18055
21
-4.37453
0
LINE
8
BLACK
6
CONTINUOUS
10
4.18055
20
-4.37453
11
4.4139
21
-4.14118
0
LINE
8
BLACK
6
CONTINUOUS
10
4.4139
20
-4.14118
11
4.41529
21
-4.14061
0
LINE
8
BLACK
6
CONTINUOUS
10
4.41529
20
-4.14061
11
4.41668
21
-4.14118
0
LINE
8
BLACK
6
CONTINUOUS
10
4.18473
20
-4.37592
11
5.0729
21
-5.26409
0
LINE
8
BLACK
6
CONTINUOUS
10
5.0729
20
-5.26409
11
5.30346
21
-5.03353
0
LINE
8
BLACK
6
CONTINUOUS
10
5.30346
20
-5.03353
11
4.41529
21
-4.14536
0
LINE
8
BLACK
6
CONTINUOUS
10
4.41529
20
-4.14536
11
4.18473
21
-4.37592
0
LINE
8
BLACK
6
CONTINUOUS
10
4.78564
20
-4.69596
11
4.78659
21
-4.69602
0
LINE
8
BLACK
6
CONTINUOUS
10
4.78659
20
-4.69602
11
4.79255
21
-4.69801
0
LINE
8
BLACK
6
CONTINUOUS
10
4.79255
20
-4.69801
11
4.79368
21
-4.69876
0
LINE
8
BLACK
6
CONTINUOUS
10
4.79368
20
-4.69876
11
4.79486
21
-4.69943
0
LINE
8
BLACK
6
CONTINUOUS
10
4.79486
20
-4.69943
11
4.8048
21
-4.70938
0
LINE
8
BLACK
6
CONTINUOUS
10
4.8048
20
-4.70938
11
4.80548
21
-4.71055
0
LINE
8
BLACK
6
CONTINUOUS
10
4.80548
20
-4.71055
11
4.80623
21
-4.71169
0
LINE
8
BLACK
6
CONTINUOUS
10
4.80623
20
-4.71169
11
4.80822
21
-4.71765
0
LINE
8
BLACK
6
CONTINUOUS
10
4.80822
20
-4.71765
11
4.80827
21
-4.7186
0
LINE
8
BLACK
6
CONTINUOUS
10
4.80827
20
-4.7186
11
4.80852
21
-4.71952
0
LINE
8
BLACK
6
CONTINUOUS
10
4.80852
20
-4.71952
11
4.80852
21
-4.7235
0
LINE
8
BLACK
6
CONTINUOUS
10
4.80852
20
-4.7235
11
4.80827
21
-4.72441
0
LINE
8
BLACK
6
CONTINUOUS
10
4.80827
20
-4.72441
11
4.80822
21
-4.72536
0
LINE
8
BLACK
6
CONTINUOUS
10
4.80822
20
-4.72536
11
4.80623
21
-4.73133
0
LINE
8
BLACK
6
CONTINUOUS
10
4.80623
20
-4.73133
11
4.80548
21
-4.73246
0
LINE
8
BLACK
6
CONTINUOUS
10
4.80548
20
-4.73246
11
4.8048
21
-4.73364
0
LINE
8
BLACK
6
CONTINUOUS
10
4.8048
20
-4.73364
11
4.80083
21
-4.73761
0
LINE
8
BLACK
6
CONTINUOUS
10
4.80083
20
-4.73761
11
4.8
21
-4.73809
0
LINE
8
BLACK
6
CONTINUOUS
10
4.8
20
-4.73809
11
4.79929
21
-4.73872
0
LINE
8
BLACK
6
CONTINUOUS
10
4.79929
20
-4.73872
11
4.79134
21
-4.7427
0
LINE
8
BLACK
6
CONTINUOUS
10
4.79134
20
-4.7427
11
4.79001
21
-4.74297
0
LINE
8
BLACK
6
CONTINUOUS
10
4.79001
20
-4.74297
11
4.7887
21
-4.74332
0
LINE
8
BLACK
6
CONTINUOUS
10
4.7887
20
-4.74332
11
4.75523
21
-4.74332
0
LINE
8
BLACK
6
CONTINUOUS
10
4.75523
20
-4.74332
11
4.771
21
-4.75909
0
LINE
8
BLACK
6
CONTINUOUS
10
4.771
20
-4.75909
11
4.77253
21
-4.76174
0
LINE
8
BLACK
6
CONTINUOUS
10
4.77253
20
-4.76174
11
4.77253
21
-4.76479
0
LINE
8
BLACK
6
CONTINUOUS
10
4.77253
20
-4.76479
11
4.771
21
-4.76744
0
LINE
8
BLACK
6
CONTINUOUS
10
4.771
20
-4.76744
11
4.76835
21
-4.76897
0
LINE
8
BLACK
6
CONTINUOUS
10
4.76835
20
-4.76897
11
4.76529
21
-4.76897
0
LINE
8
BLACK
6
CONTINUOUS
10
4.76529
20
-4.76897
11
4.76265
21
-4.76744
0
LINE
8
BLACK
6
CONTINUOUS
10
4.76265
20
-4.76744
11
4.7368
21
-4.74159
0
LINE
8
BLACK
6
CONTINUOUS
10
4.7368
20
-4.74159
11
4.73641
21
-4.74092
0
LINE
8
BLACK
6
CONTINUOUS
10
4.73641
20
-4.74092
11
4.73586
21
-4.74037
0
LINE
8
BLACK
6
CONTINUOUS
10
4.73586
20
-4.74037
11
4.73566
21
-4.73962
0
LINE
8
BLACK
6
CONTINUOUS
10
4.73566
20
-4.73962
11
4.73527
21
-4.73894
0
LINE
8
BLACK
6
CONTINUOUS
10
4.73527
20
-4.73894
11
4.73527
21
-4.73817
0
LINE
8
BLACK
6
CONTINUOUS
10
4.73527
20
-4.73817
11
4.73507
21
-4.73741
0
LINE
8
BLACK
6
CONTINUOUS
10
4.73507
20
-4.73741
11
4.73527
21
-4.73666
0
LINE
8
BLACK
6
CONTINUOUS
10
4.73527
20
-4.73666
11
4.73527
21
-4.73636
0
LINE
8
BLACK
6
CONTINUOUS
10
4.73527
20
-4.73636
11
4.73519
21
-4.73606
0
LINE
8
BLACK
6
CONTINUOUS
10
4.73519
20
-4.73606
11
4.73527
21
-4.73589
0
LINE
8
BLACK
6
CONTINUOUS
10
4.73527
20
-4.73589
11
4.73527
21
-4.73589
0
LINE
8
BLACK
6
CONTINUOUS
10
4.73527
20
-4.73589
11
4.73528
21
-4.73586
0
LINE
8
BLACK
6
CONTINUOUS
10
4.73528
20
-4.73586
11
4.73575
21
-4.73485
0
LINE
8
BLACK
6
CONTINUOUS
10
4.73575
20
-4.73485
11
4.73586
21
-4.73446
0
LINE
8
BLACK
6
CONTINUOUS
10
4.73586
20
-4.73446
11
4.736
21
-4.73432
0
LINE
8
BLACK
6
CONTINUOUS
10
4.736
20
-4.73432
11
4.73604
21
-4.73423
0
LINE
8
BLACK
6
CONTINUOUS
10
4.73604
20
-4.73423
11
4.73647
21
-4.7338
0
LINE
8
BLACK
6
CONTINUOUS
10
4.73647
20
-4.7338
11
4.7368
21
-4.73324
0
LINE
8
BLACK
6
CONTINUOUS
10
4.7368
20
-4.73324
11
4.73736
21
-4.73291
0
LINE
8
BLACK
6
CONTINUOUS
10
4.73736
20
-4.73291
11
4.75593
21
-4.71435
0
LINE
8
BLACK
6
CONTINUOUS
10
4.75593
20
-4.71435
11
4.75665
21
-4.71384
0
LINE
8
BLACK
6
CONTINUOUS
10
4.75665
20
-4.71384
11
4.75669
21
-4.71379
0
LINE
8
BLACK
6
CONTINUOUS
10
4.75669
20
-4.71379
11
4.762
21
-4.71114
0
LINE
8
BLACK
6
CONTINUOUS
10
4.762
20
-4.71114
11
4.76298
21
-4.71085
0
LINE
8
BLACK
6
CONTINUOUS
10
4.76298
20
-4.71085
11
4.76315
21
-4.71089
0
LINE
8
BLACK
6
CONTINUOUS
10
4.76315
20
-4.71089
11
4.76332
21
-4.71083
0
LINE
8
BLACK
6
CONTINUOUS
10
4.76332
20
-4.71083
11
4.76862
21
-4.71083
0
LINE
8
BLACK
6
CONTINUOUS
10
4.76862
20
-4.71083
11
4.76963
21
-4.71101
0
LINE
8
BLACK
6
CONTINUOUS
10
4.76963
20
-4.71101
11
4.76976
21
-4.71112
0
LINE
8
BLACK
6
CONTINUOUS
10
4.76976
20
-4.71112
11
4.76994
21
-4.71114
0
LINE
8
BLACK
6
CONTINUOUS
10
4.76994
20
-4.71114
11
4.77524
21
-4.71379
0
LINE
8
BLACK
6
CONTINUOUS
10
4.77524
20
-4.71379
11
4.77595
21
-4.71432
0
LINE
8
BLACK
6
CONTINUOUS
10
4.77595
20
-4.71432
11
4.77601
21
-4.71435
0
LINE
8
BLACK
6
CONTINUOUS
10
4.77601
20
-4.71435
11
4.77866
21
-4.717
0
LINE
8
BLACK
6
CONTINUOUS
10
4.77866
20
-4.717
11
4.77925
21
-4.71784
0
LINE
8
BLACK
6
CONTINUOUS
10
4.77925
20
-4.71784
11
4.77943
21
-4.71985
0
LINE
8
BLACK
6
CONTINUOUS
10
4.77943
20
-4.71985
11
4.77827
21
-4.72151
0
LINE
8
BLACK
6
CONTINUOUS
10
4.77827
20
-4.72151
11
4.77632
21
-4.72203
0
LINE
8
BLACK
6
CONTINUOUS
10
4.77632
20
-4.72203
11
4.77449
21
-4.72117
0
LINE
8
BLACK
6
CONTINUOUS
10
4.77449
20
-4.72117
11
4.77217
21
-4.71886
0
LINE
8
BLACK
6
CONTINUOUS
10
4.77217
20
-4.71886
11
4.76792
21
-4.71674
0
LINE
8
BLACK
6
CONTINUOUS
10
4.76792
20
-4.71674
11
4.76401
21
-4.71674
0
LINE
8
BLACK
6
CONTINUOUS
10
4.76401
20
-4.71674
11
4.75976
21
-4.71886
0
LINE
8
BLACK
6
CONTINUOUS
10
4.75976
20
-4.71886
11
4.74712
21
-4.73151
0
LINE
8
BLACK
6
CONTINUOUS
10
4.74712
20
-4.73151
11
4.7873
21
-4.73151
0
LINE
8
BLACK
6
CONTINUOUS
10
4.7873
20
-4.73151
11
4.79315
21
-4.72858
0
LINE
8
BLACK
6
CONTINUOUS
10
4.79315
20
-4.72858
11
4.79546
21
-4.72627
0
LINE
8
BLACK
6
CONTINUOUS
10
4.79546
20
-4.72627
11
4.79671
21
-4.72254
0
LINE
8
BLACK
6
CONTINUOUS
10
4.79671
20
-4.72254
11
4.79671
21
-4.72048
0
LINE
8
BLACK
6
CONTINUOUS
10
4.79671
20
-4.72048
11
4.79546
21
-4.71674
0
LINE
8
BLACK
6
CONTINUOUS
10
4.79546
20
-4.71674
11
4.78749
21
-4.70877
0
LINE
8
BLACK
6
CONTINUOUS
10
4.78749
20
-4.70877
11
4.78376
21
-4.70753
0
LINE
8
BLACK
6
CONTINUOUS
10
4.78376
20
-4.70753
11
4.78074
21
-4.70753
0
LINE
8
BLACK
6
CONTINUOUS
10
4.78074
20
-4.70753
11
4.77779
21
-4.70674
0
LINE
8
BLACK
6
CONTINUOUS
10
4.77779
20
-4.70674
11
4.77563
21
-4.70457
0
LINE
8
BLACK
6
CONTINUOUS
10
4.77563
20
-4.70457
11
4.77484
21
-4.70162
0
LINE
8
BLACK
6
CONTINUOUS
10
4.77484
20
-4.70162
11
4.77563
21
-4.69867
0
LINE
8
BLACK
6
CONTINUOUS
10
4.77563
20
-4.69867
11
4.77779
21
-4.69651
0
LINE
8
BLACK
6
CONTINUOUS
10
4.77779
20
-4.69651
11
4.78074
21
-4.69572
0
LINE
8
BLACK
6
CONTINUOUS
10
4.78074
20
-4.69572
11
4.78472
21
-4.69572
0
LINE
8
BLACK
6
CONTINUOUS
10
4.78472
20
-4.69572
11
4.78564
21
-4.69596
0
LINE
8
BLACK
6
CONTINUOUS
10
4.771
20
-4.67557
11
4.77253
21
-4.67822
0
LINE
8
BLACK
6
CONTINUOUS
10
4.77253
20
-4.67822
11
4.77253
21
-4.68128
0
LINE
8
BLACK
6
CONTINUOUS
10
4.77253
20
-4.68128
11
4.771
21
-4.68392
0
LINE
8
BLACK
6
CONTINUOUS
10
4.771
20
-4.68392
11
4.74117
21
-4.71375
0
LINE
8
BLACK
6
CONTINUOUS
10
4.74117
20
-4.71375
11
4.74035
21
-4.71423
0
LINE
8
BLACK
6
CONTINUOUS
10
4.74035
20
-4.71423
11
4.73964
21
-4.71486
0
LINE
8
BLACK
6
CONTINUOUS
10
4.73964
20
-4.71486
11
4.737
21
-4.71618
0
LINE
8
BLACK
6
CONTINUOUS
10
4.737
20
-4.71618
11
4.73675
21
-4.71784
0
LINE
8
BLACK
6
CONTINUOUS
10
4.73675
20
-4.71784
11
4.73524
21
-4.71918
0
LINE
8
BLACK
6
CONTINUOUS
10
4.73524
20
-4.71918
11
4.73322
21
-4.71924
0
LINE
8
BLACK
6
CONTINUOUS
10
4.73322
20
-4.71924
11
4.73181
21
-4.71877
0
LINE
8
BLACK
6
CONTINUOUS
10
4.73181
20
-4.71877
11
4.73168
21
-4.71883
0
LINE
8
BLACK
6
CONTINUOUS
10
4.73168
20
-4.71883
11
4.73035
21
-4.71911
0
LINE
8
BLACK
6
CONTINUOUS
10
4.73035
20
-4.71911
11
4.72904
21
-4.71946
0
LINE
8
BLACK
6
CONTINUOUS
10
4.72904
20
-4.71946
11
4.72109
21
-4.71946
0
LINE
8
BLACK
6
CONTINUOUS
10
4.72109
20
-4.71946
11
4.71985
21
-4.71913
0
LINE
8
BLACK
6
CONTINUOUS
10
4.71985
20
-4.71913
11
4.71882
21
-4.71933
0
LINE
8
BLACK
6
CONTINUOUS
10
4.71882
20
-4.71933
11
4.7178
21
-4.71935
0
LINE
8
BLACK
6
CONTINUOUS
10
4.7178
20
-4.71935
11
4.71765
21
-4.71927
0
LINE
8
BLACK
6
CONTINUOUS
10
4.71765
20
-4.71927
11
4.71748
21
-4.71929
0
LINE
8
BLACK
6
CONTINUOUS
10
4.71748
20
-4.71929
11
4.71678
21
-4.7188
0
LINE
8
BLACK
6
CONTINUOUS
10
4.71678
20
-4.7188
11
4.71603
21
-4.71838
0
LINE
8
BLACK
6
CONTINUOUS
10
4.71603
20
-4.71838
11
4.71596
21
-4.71823
0
LINE
8
BLACK
6
CONTINUOUS
10
4.71596
20
-4.71823
11
4.71583
21
-4.71813
0
LINE
8
BLACK
6
CONTINUOUS
10
4.71583
20
-4.71813
11
4.71564
21
-4.71743
0
LINE
8
BLACK
6
CONTINUOUS
10
4.71564
20
-4.71743
11
4.71049
21
-4.71486
0
LINE
8
BLACK
6
CONTINUOUS
10
4.71049
20
-4.71486
11
4.70978
21
-4.71423
0
LINE
8
BLACK
6
CONTINUOUS
10
4.70978
20
-4.71423
11
4.70896
21
-4.71375
0
LINE
8
BLACK
6
CONTINUOUS
10
4.70896
20
-4.71375
11
4.70498
21
-4.70977
0
LINE
8
BLACK
6
CONTINUOUS
10
4.70498
20
-4.70977
11
4.70345
21
-4.70713
0
LINE
8
BLACK
6
CONTINUOUS
10
4.70345
20
-4.70713
11
4.70345
21
-4.70407
0
LINE
8
BLACK
6
CONTINUOUS
10
4.70345
20
-4.70407
11
4.70498
21
-4.70142
0
LINE
8
BLACK
6
CONTINUOUS
10
4.70498
20
-4.70142
11
4.70763
21
-4.69989
0
LINE
8
BLACK
6
CONTINUOUS
10
4.70763
20
-4.69989
11
4.71068
21
-4.69989
0
LINE
8
BLACK
6
CONTINUOUS
10
4.71068
20
-4.69989
11
4.71333
21
-4.70142
0
LINE
8
BLACK
6
CONTINUOUS
10
4.71333
20
-4.70142
11
4.71663
21
-4.70472
0
LINE
8
BLACK
6
CONTINUOUS
10
4.71663
20
-4.70472
11
4.72248
21
-4.70765
0
LINE
8
BLACK
6
CONTINUOUS
10
4.72248
20
-4.70765
11
4.72286
21
-4.70765
0
LINE
8
BLACK
6
CONTINUOUS
10
4.72286
20
-4.70765
11
4.74191
21
-4.6886
0
LINE
8
BLACK
6
CONTINUOUS
10
4.74191
20
-4.6886
11
4.73604
21
-4.68273
0
LINE
8
BLACK
6
CONTINUOUS
10
4.73604
20
-4.68273
11
4.73545
21
-4.68189
0
LINE
8
BLACK
6
CONTINUOUS
10
4.73545
20
-4.68189
11
4.73528
21
-4.67988
0
LINE
8
BLACK
6
CONTINUOUS
10
4.73528
20
-4.67988
11
4.73644
21
-4.67822
0
LINE
8
BLACK
6
CONTINUOUS
10
4.73644
20
-4.67822
11
4.73839
21
-4.6777
0
LINE
8
BLACK
6
CONTINUOUS
10
4.73839
20
-4.6777
11
4.74022
21
-4.67855
0
LINE
8
BLACK
6
CONTINUOUS
10
4.74022
20
-4.67855
11
4.74994
21
-4.68828
0
LINE
8
BLACK
6
CONTINUOUS
10
4.74994
20
-4.68828
11
4.76265
21
-4.67557
0
LINE
8
BLACK
6
CONTINUOUS
10
4.76265
20
-4.67557
11
4.76529
21
-4.67404
0
LINE
8
BLACK
6
CONTINUOUS
10
4.76529
20
-4.67404
11
4.76835
21
-4.67404
0
LINE
8
BLACK
6
CONTINUOUS
10
4.76835
20
-4.67404
11
4.771
21
-4.67557
0
LINE
8
BLACK
6
CONTINUOUS
10
5.5855
20
-4.74646
11
5.58576
21
-4.74644
0
LINE
8
BLACK
6
CONTINUOUS
10
5.58576
20
-4.74644
11
5.58639
21
-4.74688
0
LINE
8
BLACK
6
CONTINUOUS
10
5.58639
20
-4.74688
11
5.58709
21
-4.7472
0
LINE
8
BLACK
6
CONTINUOUS
10
5.58709
20
-4.7472
11
5.72851
21
-4.88862
0
LINE
8
BLACK
6
CONTINUOUS
10
5.72851
20
-4.88862
11
5.72873
21
-4.88894
0
LINE
8
BLACK
6
CONTINUOUS
10
5.72873
20
-4.88894
11
5.72884
21
-4.88902
0
LINE
8
BLACK
6
CONTINUOUS
10
5.72884
20
-4.88902
11
5.72887
21
-4.88914
0
LINE
8
BLACK
6
CONTINUOUS
10
5.72887
20
-4.88914
11
5.7291
21
-4.88946
0
LINE
8
BLACK
6
CONTINUOUS
10
5.7291
20
-4.88946
11
5.72916
21
-4.89023
0
LINE
8
BLACK
6
CONTINUOUS
10
5.72916
20
-4.89023
11
5.72936
21
-4.89097
0
LINE
8
BLACK
6
CONTINUOUS
10
5.72936
20
-4.89097
11
5.72925
21
-4.89121
0
LINE
8
BLACK
6
CONTINUOUS
10
5.72925
20
-4.89121
11
5.72927
21
-4.89147
0
LINE
8
BLACK
6
CONTINUOUS
10
5.72927
20
-4.89147
11
5.72883
21
-4.8921
0
LINE
8
BLACK
6
CONTINUOUS
10
5.72883
20
-4.8921
11
5.72851
21
-4.8928
0
LINE
8
BLACK
6
CONTINUOUS
10
5.72851
20
-4.8928
11
5.51638
21
-5.10493
0
LINE
8
BLACK
6
CONTINUOUS
10
5.51638
20
-5.10493
11
5.51606
21
-5.10515
0
LINE
8
BLACK
6
CONTINUOUS
10
5.51606
20
-5.10515
11
5.51598
21
-5.10526
0
LINE
8
BLACK
6
CONTINUOUS
10
5.51598
20
-5.10526
11
5.51586
21
-5.1053
0
LINE
8
BLACK
6
CONTINUOUS
10
5.51586
20
-5.1053
11
5.51554
21
-5.10552
0
LINE
8
BLACK
6
CONTINUOUS
10
5.51554
20
-5.10552
11
5.51477
21
-5.10559
0
LINE
8
BLACK
6
CONTINUOUS
10
5.51477
20
-5.10559
11
5.51403
21
-5.10578
0
LINE
8
BLACK
6
CONTINUOUS
10
5.51403
20
-5.10578
11
5.51379
21
-5.10567
0
LINE
8
BLACK
6
CONTINUOUS
10
5.51379
20
-5.10567
11
5.51353
21
-5.10569
0
LINE
8
BLACK
6
CONTINUOUS
10
5.51353
20
-5.10569
11
5.5129
21
-5.10525
0
LINE
8
BLACK
6
CONTINUOUS
10
5.5129
20
-5.10525
11
5.5122
21
-5.10493
0
LINE
8
BLACK
6
CONTINUOUS
10
5.5122
20
-5.10493
11
5.37078
21
-4.96351
0
LINE
8
BLACK
6
CONTINUOUS
10
5.37078
20
-4.96351
11
5.37056
21
-4.96319
0
LINE
8
BLACK
6
CONTINUOUS
10
5.37056
20
-4.96319
11
5.37045
21
-4.96312
0
LINE
8
BLACK
6
CONTINUOUS
10
5.37045
20
-4.96312
11
5.37042
21
-4.96299
0
LINE
8
BLACK
6
CONTINUOUS
10
5.37042
20
-4.96299
11
5.37019
21
-4.96267
0
LINE
8
BLACK
6
CONTINUOUS
10
5.37019
20
-4.96267
11
5.37012
21
-4.9619
0
LINE
8
BLACK
6
CONTINUOUS
10
5.37012
20
-4.9619
11
5.36993
21
-4.96116
0
LINE
8
BLACK
6
CONTINUOUS
10
5.36993
20
-4.96116
11
5.37004
21
-4.96092
0
LINE
8
BLACK
6
CONTINUOUS
10
5.37004
20
-4.96092
11
5.37002
21
-4.96066
0
LINE
8
BLACK
6
CONTINUOUS
10
5.37002
20
-4.96066
11
5.37046
21
-4.96003
0
LINE
8
BLACK
6
CONTINUOUS
10
5.37046
20
-4.96003
11
5.37078
21
-4.95933
0
LINE
8
BLACK
6
CONTINUOUS
10
5.37078
20
-4.95933
11
5.58291
21
-4.7472
0
LINE
8
BLACK
6
CONTINUOUS
10
5.58291
20
-4.7472
11
5.58323
21
-4.74698
0
LINE
8
BLACK
6
CONTINUOUS
10
5.58323
20
-4.74698
11
5.58331
21
-4.74687
0
LINE
8
BLACK
6
CONTINUOUS
10
5.58331
20
-4.74687
11
5.58343
21
-4.74684
0
LINE
8
BLACK
6
CONTINUOUS
10
5.58343
20
-4.74684
11
5.58375
21
-4.74661
0
LINE
8
BLACK
6
CONTINUOUS
10
5.58375
20
-4.74661
11
5.58452
21
-4.74655
0
LINE
8
BLACK
6
CONTINUOUS
10
5.58452
20
-4.74655
11
5.58526
21
-4.74635
0
LINE
8
BLACK
6
CONTINUOUS
10
5.58526
20
-4.74635
11
5.5855
21
-4.74646
0
LINE
8
BLACK
6
CONTINUOUS
10
5.37704
20
-4.96142
11
5.51429
21
-5.09867
0
LINE
8
BLACK
6
CONTINUOUS
10
5.51429
20
-5.09867
11
5.72225
21
-4.89071
0
LINE
8
BLACK
6
CONTINUOUS
10
5.72225
20
-4.89071
11
5.585
21
-4.75347
0
LINE
8
BLACK
6
CONTINUOUS
10
5.585
20
-4.75347
11
5.37704
21
-4.96142
0
LINE
8
BLACK
6
CONTINUOUS
10
6.4899
20
-4.2363
11
6.49043
21
-4.23825
0
LINE
8
BLACK
6
CONTINUOUS
10
6.49043
20
-4.23825
11
6.48957
21
-4.24008
0
LINE
8
BLACK
6
CONTINUOUS
10
6.48957
20
-4.24008
11
6.4787
21
-4.25095
0
LINE
8
BLACK
6
CONTINUOUS
10
6.4787
20
-4.25095
11
6.50339
21
-4.25095
0
LINE
8
BLACK
6
CONTINUOUS
10
6.50339
20
-4.25095
11
6.5044
21
-4.25113
0
LINE
8
BLACK
6
CONTINUOUS
10
6.5044
20
-4.25113
11
6.50595
21
-4.25243
0
LINE
8
BLACK
6
CONTINUOUS
10
6.50595
20
-4.25243
11
6.5063
21
-4.25442
0
LINE
8
BLACK
6
CONTINUOUS
10
6.5063
20
-4.25442
11
6.50529
21
-4.25616
0
LINE
8
BLACK
6
CONTINUOUS
10
6.50529
20
-4.25616
11
6.50339
21
-4.25686
0
LINE
8
BLACK
6
CONTINUOUS
10
6.50339
20
-4.25686
11
6.48209
21
-4.25686
0
LINE
8
BLACK
6
CONTINUOUS
10
6.48209
20
-4.25686
11
6.47848
21
-4.28216
0
LINE
8
BLACK
6
CONTINUOUS
10
6.47848
20
-4.28216
11
6.47816
21
-4.28313
0
LINE
8
BLACK
6
CONTINUOUS
10
6.47816
20
-4.28313
11
6.47665
21
-4.28448
0
LINE
8
BLACK
6
CONTINUOUS
10
6.47665
20
-4.28448
11
6.47463
21
-4.28455
0
LINE
8
BLACK
6
CONTINUOUS
10
6.47463
20
-4.28455
11
6.47305
21
-4.2833
0
LINE
8
BLACK
6
CONTINUOUS
10
6.47305
20
-4.2833
11
6.47263
21
-4.28132
0
LINE
8
BLACK
6
CONTINUOUS
10
6.47263
20
-4.28132
11
6.47613
21
-4.25686
0
LINE
8
BLACK
6
CONTINUOUS
10
6.47613
20
-4.25686
11
6.4728
21
-4.25686
0
LINE
8
BLACK
6
CONTINUOUS
10
6.4728
20
-4.25686
11
6.46173
21
-4.26792
0
LINE
8
BLACK
6
CONTINUOUS
10
6.46173
20
-4.26792
11
6.46089
21
-4.26851
0
LINE
8
BLACK
6
CONTINUOUS
10
6.46089
20
-4.26851
11
6.45888
21
-4.26869
0
LINE
8
BLACK
6
CONTINUOUS
10
6.45888
20
-4.26869
11
6.45723
21
-4.26753
0
LINE
8
BLACK
6
CONTINUOUS
10
6.45723
20
-4.26753
11
6.4567
21
-4.26558
0
LINE
8
BLACK
6
CONTINUOUS
10
6.4567
20
-4.26558
11
6.45756
21
-4.26375
0
LINE
8
BLACK
6
CONTINUOUS
10
6.45756
20
-4.26375
11
6.4854
21
-4.23591
0
LINE
8
BLACK
6
CONTINUOUS
10
6.4854
20
-4.23591
11
6.48624
21
-4.23532
0
LINE
8
BLACK
6
CONTINUOUS
10
6.48624
20
-4.23532
11
6.48825
21
-4.23514
0
LINE
8
BLACK
6
CONTINUOUS
10
6.48825
20
-4.23514
11
6.4899
21
-4.2363
0
LINE
8
BLACK
6
CONTINUOUS
10
5.28194
20
-2.38504
11
5.30978
21
-2.41288
0
LINE
8
BLACK
6
CONTINUOUS
10
5.30978
20
-2.41288
11
5.31037
21
-2.41372
0
LINE
8
BLACK
6
CONTINUOUS
10
5.31037
20
-2.41372
11
5.31054
21
-2.41574
0
LINE
8
BLACK
6
CONTINUOUS
10
5.31054
20
-2.41574
11
5.30938
21
-2.41739
0
LINE
8
BLACK
6
CONTINUOUS
10
5.30938
20
-2.41739
11
5.30743
21
-2.41791
0
LINE
8
BLACK
6
CONTINUOUS
10
5.30743
20
-2.41791
11
5.3056
21
-2.41706
0
LINE
8
BLACK
6
CONTINUOUS
10
5.3056
20
-2.41706
11
5.29474
21
-2.40619
0
LINE
8
BLACK
6
CONTINUOUS
10
5.29474
20
-2.40619
11
5.29474
21
-2.43088
0
LINE
8
BLACK
6
CONTINUOUS
10
5.29474
20
-2.43088
11
5.29456
21
-2.43189
0
LINE
8
BLACK
6
CONTINUOUS
10
5.29456
20
-2.43189
11
5.29326
21
-2.43344
0
LINE
8
BLACK
6
CONTINUOUS
10
5.29326
20
-2.43344
11
5.29127
21
-2.43379
0
LINE
8
BLACK
6
CONTINUOUS
10
5.29127
20
-2.43379
11
5.28952
21
-2.43278
0
LINE
8
BLACK
6
CONTINUOUS
10
5.28952
20
-2.43278
11
5.28883
21
-2.43088
0
LINE
8
BLACK
6
CONTINUOUS
10
5.28883
20
-2.43088
11
5.28883
21
-2.40958
0
LINE
8
BLACK
6
CONTINUOUS
10
5.28883
20
-2.40958
11
5.26353
21
-2.40596
0
LINE
8
BLACK
6
CONTINUOUS
10
5.26353
20
-2.40596
11
5.26255
21
-2.40564
0
LINE
8
BLACK
6
CONTINUOUS
10
5.26255
20
-2.40564
11
5.2612
21
-2.40414
0
LINE
8
BLACK
6
CONTINUOUS
10
5.2612
20
-2.40414
11
5.26114
21
-2.40212
0
LINE
8
BLACK
6
CONTINUOUS
10
5.26114
20
-2.40212
11
5.26238
21
-2.40053
0
LINE
8
BLACK
6
CONTINUOUS
10
5.26238
20
-2.40053
11
5.26436
21
-2.40012
0
LINE
8
BLACK
6
CONTINUOUS
10
5.26436
20
-2.40012
11
5.28883
21
-2.40361
0
LINE
8
BLACK
6
CONTINUOUS
10
5.28883
20
-2.40361
11
5.28883
21
-2.40029
0
LINE
8
BLACK
6
CONTINUOUS
10
5.28883
20
-2.40029
11
5.27776
21
-2.38922
0
LINE
8
BLACK
6
CONTINUOUS
10
5.27776
20
-2.38922
11
5.27718
21
-2.38838
0
LINE
8
BLACK
6
CONTINUOUS
10
5.27718
20
-2.38838
11
5.277
21
-2.38637
0
LINE
8
BLACK
6
CONTINUOUS
10
5.277
20
-2.38637
11
5.27816
21
-2.38471
0
LINE
8
BLACK
6
CONTINUOUS
10
5.27816
20
-2.38471
11
5.28011
21
-2.38419
0
LINE
8
BLACK
6
CONTINUOUS
10
5.28011
20
-2.38419
11
5.28194
21
-2.38504
  0
ENDSEC
  0
EOF
