  0
SECTION
  2
HEADER
  9
$ANGBASE
  50
0.0
  9
$ANGDIR
  70
1
  9
$MEASUREMENT
  70
0
  0
ENDSEC
  0
SECTION
  2
TABLES
  0
TABLE
  2
LTYPE
  70
4
  0
LTYPE
  5
40F
  2
CONTINUOUS
  70
0
  3
Solid line
  72
65
  73
0
  40
0.0
  0
LTYPE
  5
410
  2
DASHDOT
 70
0
  3
Dash Dot ____ _ ____ _
 72
65
 73
4
 40
2.0
 49
1.25
 49
-0.25
 49
0.25
 49
-0.25
  0
LTYPE
  5
411
  2
DASHED
 70
0
  3
Dashed __ __ __ __ __
 72
65
 73
2
 40
0.75
 49
0.5
 49
-0.25
  0
LTYPE
  5
43B
  2
DOTTED
 70
0
  3
Dotted .  .  .  .
 72
65
 73
2
 40
0.2
 49
0.0
 49
-0.2
  0
ENDTAB
  0
TABLE
  2
STYLE
  70
4
  0
STYLE
  2
KICAD
  70
0
  40
0
  41
1
  42
1
  50
0
  71
0
  3
isocp.shx
  0
STYLE
  2
KICADB
  70
0
  40
0
  41
1
  42
1
  50
0
  71
0
  3
isocp.shx
  0
STYLE
  2
KICADI
  70
0
  40
0
  41
1
  42
1
  50
15
  71
0
  3
isocp.shx
  0
STYLE
  2
KICADBI
  70
0
  40
0
  41
1
  42
1
  50
15
  71
0
  3
isocp.shx
  0
ENDTAB
  0
TABLE
  2
LAYER
  70
1
  0
LAYER
  2
BLACK
  70
0
  62
7
  6
CONTINUOUS
  0
ENDTAB
  0
ENDSEC
  0
SECTION
  2
ENTITIES
0
LINE
8
BLACK
6
CONTINUOUS
10
5.1207
20
-5.01912
11
5.12991
21
-5.02076
0
LINE
8
BLACK
6
CONTINUOUS
10
5.12991
20
-5.02076
11
5.13873
21
-5.02389
0
LINE
8
BLACK
6
CONTINUOUS
10
5.13873
20
-5.02389
11
5.14692
21
-5.02841
0
LINE
8
BLACK
6
CONTINUOUS
10
5.14692
20
-5.02841
11
5.15426
21
-5.0342
0
LINE
8
BLACK
6
CONTINUOUS
10
5.15426
20
-5.0342
11
5.16055
21
-5.04112
0
LINE
8
BLACK
6
CONTINUOUS
10
5.16055
20
-5.04112
11
5.16564
21
-5.04898
0
LINE
8
BLACK
6
CONTINUOUS
10
5.16564
20
-5.04898
11
5.16937
21
-5.05756
0
LINE
8
BLACK
6
CONTINUOUS
10
5.16937
20
-5.05756
11
5.17165
21
-5.06663
0
LINE
8
BLACK
6
CONTINUOUS
10
5.17165
20
-5.06663
11
5.17241
21
-5.07596
0
LINE
8
BLACK
6
CONTINUOUS
10
5.17241
20
-5.07596
11
5.17234
21
-5.07874
0
LINE
8
BLACK
6
CONTINUOUS
10
5.17234
20
-5.07874
11
5.17112
21
-5.08802
0
LINE
8
BLACK
6
CONTINUOUS
10
5.17112
20
-5.08802
11
5.1684
21
-5.09697
0
LINE
8
BLACK
6
CONTINUOUS
10
5.1684
20
-5.09697
11
5.16426
21
-5.10536
0
LINE
8
BLACK
6
CONTINUOUS
10
5.16426
20
-5.10536
11
5.1588
21
-5.11295
0
LINE
8
BLACK
6
CONTINUOUS
10
5.1588
20
-5.11295
11
5.15217
21
-5.11956
0
LINE
8
BLACK
6
CONTINUOUS
10
5.15217
20
-5.11956
11
5.14456
21
-5.12499
0
LINE
8
BLACK
6
CONTINUOUS
10
5.14456
20
-5.12499
11
5.13616
21
-5.12911
0
LINE
8
BLACK
6
CONTINUOUS
10
5.13616
20
-5.12911
11
5.12719
21
-5.13179
0
LINE
8
BLACK
6
CONTINUOUS
10
5.12719
20
-5.13179
11
5.11792
21
-5.13298
0
LINE
8
BLACK
6
CONTINUOUS
10
5.11792
20
-5.13298
11
5.10857
21
-5.13264
0
LINE
8
BLACK
6
CONTINUOUS
10
5.10857
20
-5.13264
11
5.0994
21
-5.13078
0
LINE
8
BLACK
6
CONTINUOUS
10
5.0994
20
-5.13078
11
5.09066
21
-5.12744
0
LINE
8
BLACK
6
CONTINUOUS
10
5.09066
20
-5.12744
11
5.08258
21
-5.12272
0
LINE
8
BLACK
6
CONTINUOUS
10
5.08258
20
-5.12272
11
5.07538
21
-5.11674
0
LINE
8
BLACK
6
CONTINUOUS
10
5.07538
20
-5.11674
11
5.06926
21
-5.10967
0
LINE
8
BLACK
6
CONTINUOUS
10
5.06926
20
-5.10967
11
5.06437
21
-5.10169
0
LINE
8
BLACK
6
CONTINUOUS
10
5.06437
20
-5.10169
11
5.06085
21
-5.09303
0
LINE
8
BLACK
6
CONTINUOUS
10
5.06085
20
-5.09303
11
5.05879
21
-5.0839
0
LINE
8
BLACK
6
CONTINUOUS
10
5.05879
20
-5.0839
11
5.05826
21
-5.07456
0
LINE
8
BLACK
6
CONTINUOUS
10
5.05826
20
-5.07456
11
5.05925
21
-5.06526
0
LINE
8
BLACK
6
CONTINUOUS
10
5.05925
20
-5.06526
11
5.06175
21
-5.05624
0
LINE
8
BLACK
6
CONTINUOUS
10
5.06175
20
-5.05624
11
5.06569
21
-5.04776
0
LINE
8
BLACK
6
CONTINUOUS
10
5.06569
20
-5.04776
11
5.07096
21
-5.04003
0
LINE
8
BLACK
6
CONTINUOUS
10
5.07096
20
-5.04003
11
5.07742
21
-5.03327
0
LINE
8
BLACK
6
CONTINUOUS
10
5.07742
20
-5.03327
11
5.08491
21
-5.02765
0
LINE
8
BLACK
6
CONTINUOUS
10
5.08491
20
-5.02765
11
5.0932
21
-5.02333
0
LINE
8
BLACK
6
CONTINUOUS
10
5.0932
20
-5.02333
11
5.1021
21
-5.02042
0
LINE
8
BLACK
6
CONTINUOUS
10
5.1021
20
-5.02042
11
5.11134
21
-5.01901
0
LINE
8
BLACK
6
CONTINUOUS
10
5.11134
20
-5.01901
11
5.1207
21
-5.01912
0
LINE
8
BLACK
6
CONTINUOUS
10
5.91355
20
-4.8073
11
5.929
21
-4.80889
0
LINE
8
BLACK
6
CONTINUOUS
10
5.929
20
-4.80889
11
5.94422
21
-4.81204
0
LINE
8
BLACK
6
CONTINUOUS
10
5.94422
20
-4.81204
11
5.95903
21
-4.81672
0
LINE
8
BLACK
6
CONTINUOUS
10
5.95903
20
-4.81672
11
5.9733
21
-4.82286
0
LINE
8
BLACK
6
CONTINUOUS
10
5.9733
20
-4.82286
11
5.98688
21
-4.83042
0
LINE
8
BLACK
6
CONTINUOUS
10
5.98688
20
-4.83042
11
5.99962
21
-4.83931
0
LINE
8
BLACK
6
CONTINUOUS
10
5.99962
20
-4.83931
11
6.0114
21
-4.84944
0
LINE
8
BLACK
6
CONTINUOUS
10
6.0114
20
-4.84944
11
6.02209
21
-4.86071
0
LINE
8
BLACK
6
CONTINUOUS
10
6.02209
20
-4.86071
11
6.03159
21
-4.873
0
LINE
8
BLACK
6
CONTINUOUS
10
6.03159
20
-4.873
11
6.0398
21
-4.88619
0
LINE
8
BLACK
6
CONTINUOUS
10
6.0398
20
-4.88619
11
6.04664
21
-4.90014
0
LINE
8
BLACK
6
CONTINUOUS
10
6.04664
20
-4.90014
11
6.05203
21
-4.91471
0
LINE
8
BLACK
6
CONTINUOUS
10
6.05203
20
-4.91471
11
6.05592
21
-4.92976
0
LINE
8
BLACK
6
CONTINUOUS
10
6.05592
20
-4.92976
11
6.05827
21
-4.94511
0
LINE
8
BLACK
6
CONTINUOUS
10
6.05827
20
-4.94511
11
6.05906
21
-4.96063
0
LINE
8
BLACK
6
CONTINUOUS
10
6.05906
20
-4.96063
11
6.05905
21
-4.9617
0
LINE
8
BLACK
6
CONTINUOUS
10
6.05905
20
-4.9617
11
6.05816
21
-4.97721
0
LINE
8
BLACK
6
CONTINUOUS
10
6.05816
20
-4.97721
11
6.0557
21
-4.99255
0
LINE
8
BLACK
6
CONTINUOUS
10
6.0557
20
-4.99255
11
6.0517
21
-5.00757
0
LINE
8
BLACK
6
CONTINUOUS
10
6.0517
20
-5.00757
11
6.04621
21
-5.0221
0
LINE
8
BLACK
6
CONTINUOUS
10
6.04621
20
-5.0221
11
6.03928
21
-5.036
0
LINE
8
BLACK
6
CONTINUOUS
10
6.03928
20
-5.036
11
6.03098
21
-5.04914
0
LINE
8
BLACK
6
CONTINUOUS
10
6.03098
20
-5.04914
11
6.02139
21
-5.06136
0
LINE
8
BLACK
6
CONTINUOUS
10
6.02139
20
-5.06136
11
6.01062
21
-5.07256
0
LINE
8
BLACK
6
CONTINUOUS
10
6.01062
20
-5.07256
11
5.99877
21
-5.08261
0
LINE
8
BLACK
6
CONTINUOUS
10
5.99877
20
-5.08261
11
5.98597
21
-5.09141
0
LINE
8
BLACK
6
CONTINUOUS
10
5.98597
20
-5.09141
11
5.97234
21
-5.09887
0
LINE
8
BLACK
6
CONTINUOUS
10
5.97234
20
-5.09887
11
5.95803
21
-5.10491
0
LINE
8
BLACK
6
CONTINUOUS
10
5.95803
20
-5.10491
11
5.94318
21
-5.10948
0
LINE
8
BLACK
6
CONTINUOUS
10
5.94318
20
-5.10948
11
5.92794
21
-5.11253
0
LINE
8
BLACK
6
CONTINUOUS
10
5.92794
20
-5.11253
11
5.91248
21
-5.11402
0
LINE
8
BLACK
6
CONTINUOUS
10
5.91248
20
-5.11402
11
5.89694
21
-5.11393
0
LINE
8
BLACK
6
CONTINUOUS
10
5.89694
20
-5.11393
11
5.88149
21
-5.11228
0
LINE
8
BLACK
6
CONTINUOUS
10
5.88149
20
-5.11228
11
5.86629
21
-5.10908
0
LINE
8
BLACK
6
CONTINUOUS
10
5.86629
20
-5.10908
11
5.85149
21
-5.10436
0
LINE
8
BLACK
6
CONTINUOUS
10
5.85149
20
-5.10436
11
5.83724
21
-5.09816
0
LINE
8
BLACK
6
CONTINUOUS
10
5.83724
20
-5.09816
11
5.82369
21
-5.09056
0
LINE
8
BLACK
6
CONTINUOUS
10
5.82369
20
-5.09056
11
5.81098
21
-5.08162
0
LINE
8
BLACK
6
CONTINUOUS
10
5.81098
20
-5.08162
11
5.79924
21
-5.07145
0
LINE
8
BLACK
6
CONTINUOUS
10
5.79924
20
-5.07145
11
5.78858
21
-5.06014
0
LINE
8
BLACK
6
CONTINUOUS
10
5.78858
20
-5.06014
11
5.77912
21
-5.04782
0
LINE
8
BLACK
6
CONTINUOUS
10
5.77912
20
-5.04782
11
5.77096
21
-5.0346
0
LINE
8
BLACK
6
CONTINUOUS
10
5.77096
20
-5.0346
11
5.76417
21
-5.02062
0
LINE
8
BLACK
6
CONTINUOUS
10
5.76417
20
-5.02062
11
5.75884
21
-5.00603
0
LINE
8
BLACK
6
CONTINUOUS
10
5.75884
20
-5.00603
11
5.755
21
-4.99098
0
LINE
8
BLACK
6
CONTINUOUS
10
5.755
20
-4.99098
11
5.7527
21
-4.97561
0
LINE
8
BLACK
6
CONTINUOUS
10
5.7527
20
-4.97561
11
5.75197
21
-4.96009
0
LINE
8
BLACK
6
CONTINUOUS
10
5.75197
20
-4.96009
11
5.75281
21
-4.94458
0
LINE
8
BLACK
6
CONTINUOUS
10
5.75281
20
-4.94458
11
5.75521
21
-4.92923
0
LINE
8
BLACK
6
CONTINUOUS
10
5.75521
20
-4.92923
11
5.75916
21
-4.9142
0
LINE
8
BLACK
6
CONTINUOUS
10
5.75916
20
-4.9142
11
5.7646
21
-4.89965
0
LINE
8
BLACK
6
CONTINUOUS
10
5.7646
20
-4.89965
11
5.77148
21
-4.88572
0
LINE
8
BLACK
6
CONTINUOUS
10
5.77148
20
-4.88572
11
5.77974
21
-4.87256
0
LINE
8
BLACK
6
CONTINUOUS
10
5.77974
20
-4.87256
11
5.78928
21
-4.8603
0
LINE
8
BLACK
6
CONTINUOUS
10
5.78928
20
-4.8603
11
5.80001
21
-4.84907
0
LINE
8
BLACK
6
CONTINUOUS
10
5.80001
20
-4.84907
11
5.81183
21
-4.83898
0
LINE
8
BLACK
6
CONTINUOUS
10
5.81183
20
-4.83898
11
5.8246
21
-4.83013
0
LINE
8
BLACK
6
CONTINUOUS
10
5.8246
20
-4.83013
11
5.8382
21
-4.82263
0
LINE
8
BLACK
6
CONTINUOUS
10
5.8382
20
-4.82263
11
5.85249
21
-4.81653
0
LINE
8
BLACK
6
CONTINUOUS
10
5.85249
20
-4.81653
11
5.86733
21
-4.81191
0
LINE
8
BLACK
6
CONTINUOUS
10
5.86733
20
-4.81191
11
5.88255
21
-4.80881
0
LINE
8
BLACK
6
CONTINUOUS
10
5.88255
20
-4.80881
11
5.89801
21
-4.80727
0
LINE
8
BLACK
6
CONTINUOUS
10
5.89801
20
-4.80727
11
5.91355
21
-4.8073
0
LINE
8
BLACK
6
CONTINUOUS
10
4.52043
20
-4.81821
11
4.53428
21
-4.82065
0
LINE
8
BLACK
6
CONTINUOUS
10
4.53428
20
-4.82065
11
4.54777
21
-4.82462
0
LINE
8
BLACK
6
CONTINUOUS
10
4.54777
20
-4.82462
11
4.56074
21
-4.83007
0
LINE
8
BLACK
6
CONTINUOUS
10
4.56074
20
-4.83007
11
4.57302
21
-4.83694
0
LINE
8
BLACK
6
CONTINUOUS
10
4.57302
20
-4.83694
11
4.58445
21
-4.84512
0
LINE
8
BLACK
6
CONTINUOUS
10
4.58445
20
-4.84512
11
4.59491
21
-4.85453
0
LINE
8
BLACK
6
CONTINUOUS
10
4.59491
20
-4.85453
11
4.60424
21
-4.86505
0
LINE
8
BLACK
6
CONTINUOUS
10
4.60424
20
-4.86505
11
4.61235
21
-4.87655
0
LINE
8
BLACK
6
CONTINUOUS
10
4.61235
20
-4.87655
11
4.61913
21
-4.88887
0
LINE
8
BLACK
6
CONTINUOUS
10
4.61913
20
-4.88887
11
4.62449
21
-4.90188
0
LINE
8
BLACK
6
CONTINUOUS
10
4.62449
20
-4.90188
11
4.62837
21
-4.9154
0
LINE
8
BLACK
6
CONTINUOUS
10
4.62837
20
-4.9154
11
4.63071
21
-4.92926
0
LINE
8
BLACK
6
CONTINUOUS
10
4.63071
20
-4.92926
11
4.6315
21
-4.94331
0
LINE
8
BLACK
6
CONTINUOUS
10
4.6315
20
-4.94331
11
4.63145
21
-4.94682
0
LINE
8
BLACK
6
CONTINUOUS
10
4.63145
20
-4.94682
11
4.63027
21
-4.96084
0
LINE
8
BLACK
6
CONTINUOUS
10
4.63027
20
-4.96084
11
4.62754
21
-4.97464
0
LINE
8
BLACK
6
CONTINUOUS
10
4.62754
20
-4.97464
11
4.62329
21
-4.98804
0
LINE
8
BLACK
6
CONTINUOUS
10
4.62329
20
-4.98804
11
4.61756
21
-5.00089
0
LINE
8
BLACK
6
CONTINUOUS
10
4.61756
20
-5.00089
11
4.61045
21
-5.01303
0
LINE
8
BLACK
6
CONTINUOUS
10
4.61045
20
-5.01303
11
4.60202
21
-5.02429
0
LINE
8
BLACK
6
CONTINUOUS
10
4.60202
20
-5.02429
11
4.59239
21
-5.03454
0
LINE
8
BLACK
6
CONTINUOUS
10
4.59239
20
-5.03454
11
4.58168
21
-5.04366
0
LINE
8
BLACK
6
CONTINUOUS
10
4.58168
20
-5.04366
11
4.57002
21
-5.05152
0
LINE
8
BLACK
6
CONTINUOUS
10
4.57002
20
-5.05152
11
4.55756
21
-5.05804
0
LINE
8
BLACK
6
CONTINUOUS
10
4.55756
20
-5.05804
11
4.54444
21
-5.06313
0
LINE
8
BLACK
6
CONTINUOUS
10
4.54444
20
-5.06313
11
4.53084
21
-5.06672
0
LINE
8
BLACK
6
CONTINUOUS
10
4.53084
20
-5.06672
11
4.51693
21
-5.06877
0
LINE
8
BLACK
6
CONTINUOUS
10
4.51693
20
-5.06877
11
4.50287
21
-5.06926
0
LINE
8
BLACK
6
CONTINUOUS
10
4.50287
20
-5.06926
11
4.48885
21
-5.06818
0
LINE
8
BLACK
6
CONTINUOUS
10
4.48885
20
-5.06818
11
4.47503
21
-5.06555
0
LINE
8
BLACK
6
CONTINUOUS
10
4.47503
20
-5.06555
11
4.4616
21
-5.06139
0
LINE
8
BLACK
6
CONTINUOUS
10
4.4616
20
-5.06139
11
4.44871
21
-5.05576
0
LINE
8
BLACK
6
CONTINUOUS
10
4.44871
20
-5.05576
11
4.43653
21
-5.04873
0
LINE
8
BLACK
6
CONTINUOUS
10
4.43653
20
-5.04873
11
4.42521
21
-5.04038
0
LINE
8
BLACK
6
CONTINUOUS
10
4.42521
20
-5.04038
11
4.41489
21
-5.03082
0
LINE
8
BLACK
6
CONTINUOUS
10
4.41489
20
-5.03082
11
4.4057
21
-5.02018
0
LINE
8
BLACK
6
CONTINUOUS
10
4.4057
20
-5.02018
11
4.39775
21
-5.00857
0
LINE
8
BLACK
6
CONTINUOUS
10
4.39775
20
-5.00857
11
4.39115
21
-4.99615
0
LINE
8
BLACK
6
CONTINUOUS
10
4.39115
20
-4.99615
11
4.38597
21
-4.98307
0
LINE
8
BLACK
6
CONTINUOUS
10
4.38597
20
-4.98307
11
4.38228
21
-4.9695
0
LINE
8
BLACK
6
CONTINUOUS
10
4.38228
20
-4.9695
11
4.38013
21
-4.9556
0
LINE
8
BLACK
6
CONTINUOUS
10
4.38013
20
-4.9556
11
4.37954
21
-4.94155
0
LINE
8
BLACK
6
CONTINUOUS
10
4.37954
20
-4.94155
11
4.38052
21
-4.92752
0
LINE
8
BLACK
6
CONTINUOUS
10
4.38052
20
-4.92752
11
4.38306
21
-4.91368
0
LINE
8
BLACK
6
CONTINUOUS
10
4.38306
20
-4.91368
11
4.38713
21
-4.90022
0
LINE
8
BLACK
6
CONTINUOUS
10
4.38713
20
-4.90022
11
4.39267
21
-4.88729
0
LINE
8
BLACK
6
CONTINUOUS
10
4.39267
20
-4.88729
11
4.39961
21
-4.87506
0
LINE
8
BLACK
6
CONTINUOUS
10
4.39961
20
-4.87506
11
4.40788
21
-4.86368
0
LINE
8
BLACK
6
CONTINUOUS
10
4.40788
20
-4.86368
11
4.41737
21
-4.85329
0
LINE
8
BLACK
6
CONTINUOUS
10
4.41737
20
-4.85329
11
4.42795
21
-4.84403
0
LINE
8
BLACK
6
CONTINUOUS
10
4.42795
20
-4.84403
11
4.4395
21
-4.836
0
LINE
8
BLACK
6
CONTINUOUS
10
4.4395
20
-4.836
11
4.45187
21
-4.82931
0
LINE
8
BLACK
6
CONTINUOUS
10
4.45187
20
-4.82931
11
4.46491
21
-4.82404
0
LINE
8
BLACK
6
CONTINUOUS
10
4.46491
20
-4.82404
11
4.47846
21
-4.82026
0
LINE
8
BLACK
6
CONTINUOUS
10
4.47846
20
-4.82026
11
4.49234
21
-4.81801
0
LINE
8
BLACK
6
CONTINUOUS
10
4.49234
20
-4.81801
11
4.50639
21
-4.81733
0
LINE
8
BLACK
6
CONTINUOUS
10
4.50639
20
-4.81733
11
4.52043
21
-4.81821
0
LINE
8
BLACK
6
CONTINUOUS
10
7.32043
20
-4.81821
11
7.33428
21
-4.82065
0
LINE
8
BLACK
6
CONTINUOUS
10
7.33428
20
-4.82065
11
7.34777
21
-4.82462
0
LINE
8
BLACK
6
CONTINUOUS
10
7.34777
20
-4.82462
11
7.36074
21
-4.83007
0
LINE
8
BLACK
6
CONTINUOUS
10
7.36074
20
-4.83007
11
7.37302
21
-4.83694
0
LINE
8
BLACK
6
CONTINUOUS
10
7.37302
20
-4.83694
11
7.38445
21
-4.84512
0
LINE
8
BLACK
6
CONTINUOUS
10
7.38445
20
-4.84512
11
7.39491
21
-4.85453
0
LINE
8
BLACK
6
CONTINUOUS
10
7.39491
20
-4.85453
11
7.40424
21
-4.86505
0
LINE
8
BLACK
6
CONTINUOUS
10
7.40424
20
-4.86505
11
7.41235
21
-4.87655
0
LINE
8
BLACK
6
CONTINUOUS
10
7.41235
20
-4.87655
11
7.41913
21
-4.88887
0
LINE
8
BLACK
6
CONTINUOUS
10
7.41913
20
-4.88887
11
7.42449
21
-4.90188
0
LINE
8
BLACK
6
CONTINUOUS
10
7.42449
20
-4.90188
11
7.42837
21
-4.9154
0
LINE
8
BLACK
6
CONTINUOUS
10
7.42837
20
-4.9154
11
7.43071
21
-4.92926
0
LINE
8
BLACK
6
CONTINUOUS
10
7.43071
20
-4.92926
11
7.4315
21
-4.94331
0
LINE
8
BLACK
6
CONTINUOUS
10
7.4315
20
-4.94331
11
7.43145
21
-4.94682
0
LINE
8
BLACK
6
CONTINUOUS
10
7.43145
20
-4.94682
11
7.43027
21
-4.96084
0
LINE
8
BLACK
6
CONTINUOUS
10
7.43027
20
-4.96084
11
7.42754
21
-4.97464
0
LINE
8
BLACK
6
CONTINUOUS
10
7.42754
20
-4.97464
11
7.42329
21
-4.98804
0
LINE
8
BLACK
6
CONTINUOUS
10
7.42329
20
-4.98804
11
7.41756
21
-5.00089
0
LINE
8
BLACK
6
CONTINUOUS
10
7.41756
20
-5.00089
11
7.41045
21
-5.01303
0
LINE
8
BLACK
6
CONTINUOUS
10
7.41045
20
-5.01303
11
7.40202
21
-5.02429
0
LINE
8
BLACK
6
CONTINUOUS
10
7.40202
20
-5.02429
11
7.39239
21
-5.03454
0
LINE
8
BLACK
6
CONTINUOUS
10
7.39239
20
-5.03454
11
7.38168
21
-5.04366
0
LINE
8
BLACK
6
CONTINUOUS
10
7.38168
20
-5.04366
11
7.37002
21
-5.05152
0
LINE
8
BLACK
6
CONTINUOUS
10
7.37002
20
-5.05152
11
7.35756
21
-5.05804
0
LINE
8
BLACK
6
CONTINUOUS
10
7.35756
20
-5.05804
11
7.34444
21
-5.06313
0
LINE
8
BLACK
6
CONTINUOUS
10
7.34444
20
-5.06313
11
7.33084
21
-5.06672
0
LINE
8
BLACK
6
CONTINUOUS
10
7.33084
20
-5.06672
11
7.31693
21
-5.06877
0
LINE
8
BLACK
6
CONTINUOUS
10
7.31693
20
-5.06877
11
7.30287
21
-5.06926
0
LINE
8
BLACK
6
CONTINUOUS
10
7.30287
20
-5.06926
11
7.28885
21
-5.06818
0
LINE
8
BLACK
6
CONTINUOUS
10
7.28885
20
-5.06818
11
7.27503
21
-5.06555
0
LINE
8
BLACK
6
CONTINUOUS
10
7.27503
20
-5.06555
11
7.2616
21
-5.06139
0
LINE
8
BLACK
6
CONTINUOUS
10
7.2616
20
-5.06139
11
7.24871
21
-5.05576
0
LINE
8
BLACK
6
CONTINUOUS
10
7.24871
20
-5.05576
11
7.23653
21
-5.04873
0
LINE
8
BLACK
6
CONTINUOUS
10
7.23653
20
-5.04873
11
7.22521
21
-5.04038
0
LINE
8
BLACK
6
CONTINUOUS
10
7.22521
20
-5.04038
11
7.21489
21
-5.03082
0
LINE
8
BLACK
6
CONTINUOUS
10
7.21489
20
-5.03082
11
7.2057
21
-5.02018
0
LINE
8
BLACK
6
CONTINUOUS
10
7.2057
20
-5.02018
11
7.19775
21
-5.00857
0
LINE
8
BLACK
6
CONTINUOUS
10
7.19775
20
-5.00857
11
7.19115
21
-4.99615
0
LINE
8
BLACK
6
CONTINUOUS
10
7.19115
20
-4.99615
11
7.18597
21
-4.98307
0
LINE
8
BLACK
6
CONTINUOUS
10
7.18597
20
-4.98307
11
7.18228
21
-4.9695
0
LINE
8
BLACK
6
CONTINUOUS
10
7.18228
20
-4.9695
11
7.18013
21
-4.9556
0
LINE
8
BLACK
6
CONTINUOUS
10
7.18013
20
-4.9556
11
7.17954
21
-4.94155
0
LINE
8
BLACK
6
CONTINUOUS
10
7.17954
20
-4.94155
11
7.18052
21
-4.92752
0
LINE
8
BLACK
6
CONTINUOUS
10
7.18052
20
-4.92752
11
7.18306
21
-4.91368
0
LINE
8
BLACK
6
CONTINUOUS
10
7.18306
20
-4.91368
11
7.18713
21
-4.90022
0
LINE
8
BLACK
6
CONTINUOUS
10
7.18713
20
-4.90022
11
7.19267
21
-4.88729
0
LINE
8
BLACK
6
CONTINUOUS
10
7.19267
20
-4.88729
11
7.19961
21
-4.87506
0
LINE
8
BLACK
6
CONTINUOUS
10
7.19961
20
-4.87506
11
7.20788
21
-4.86368
0
LINE
8
BLACK
6
CONTINUOUS
10
7.20788
20
-4.86368
11
7.21737
21
-4.85329
0
LINE
8
BLACK
6
CONTINUOUS
10
7.21737
20
-4.85329
11
7.22795
21
-4.84403
0
LINE
8
BLACK
6
CONTINUOUS
10
7.22795
20
-4.84403
11
7.2395
21
-4.836
0
LINE
8
BLACK
6
CONTINUOUS
10
7.2395
20
-4.836
11
7.25187
21
-4.82931
0
LINE
8
BLACK
6
CONTINUOUS
10
7.25187
20
-4.82931
11
7.26491
21
-4.82404
0
LINE
8
BLACK
6
CONTINUOUS
10
7.26491
20
-4.82404
11
7.27846
21
-4.82026
0
LINE
8
BLACK
6
CONTINUOUS
10
7.27846
20
-4.82026
11
7.29234
21
-4.81801
0
LINE
8
BLACK
6
CONTINUOUS
10
7.29234
20
-4.81801
11
7.30639
21
-4.81733
0
LINE
8
BLACK
6
CONTINUOUS
10
7.30639
20
-4.81733
11
7.32043
21
-4.81821
0
LINE
8
BLACK
6
CONTINUOUS
10
4.87506
20
-4.96737
11
4.8824
21
-4.96965
0
LINE
8
BLACK
6
CONTINUOUS
10
4.8824
20
-4.96965
11
4.88916
21
-4.9733
0
LINE
8
BLACK
6
CONTINUOUS
10
4.88916
20
-4.9733
11
4.89508
21
-4.9782
0
LINE
8
BLACK
6
CONTINUOUS
10
4.89508
20
-4.9782
11
4.89993
21
-4.98415
0
LINE
8
BLACK
6
CONTINUOUS
10
4.89993
20
-4.98415
11
4.90354
21
-4.99094
0
LINE
8
BLACK
6
CONTINUOUS
10
4.90354
20
-4.99094
11
4.90576
21
-4.99829
0
LINE
8
BLACK
6
CONTINUOUS
10
4.90576
20
-4.99829
11
4.90651
21
-5.00594
0
LINE
8
BLACK
6
CONTINUOUS
10
4.90651
20
-5.00594
11
4.9065
21
-5.00704
0
LINE
8
BLACK
6
CONTINUOUS
10
4.9065
20
-5.00704
11
4.90553
21
-5.01466
0
LINE
8
BLACK
6
CONTINUOUS
10
4.90553
20
-5.01466
11
4.90311
21
-5.02195
0
LINE
8
BLACK
6
CONTINUOUS
10
4.90311
20
-5.02195
11
4.89931
21
-5.02863
0
LINE
8
BLACK
6
CONTINUOUS
10
4.89931
20
-5.02863
11
4.89429
21
-5.03445
0
LINE
8
BLACK
6
CONTINUOUS
10
4.89429
20
-5.03445
11
4.88824
21
-5.03918
0
LINE
8
BLACK
6
CONTINUOUS
10
4.88824
20
-5.03918
11
4.88138
21
-5.04265
0
LINE
8
BLACK
6
CONTINUOUS
10
4.88138
20
-5.04265
11
4.87398
21
-5.04471
0
LINE
8
BLACK
6
CONTINUOUS
10
4.87398
20
-5.04471
11
4.86632
21
-5.0453
0
LINE
8
BLACK
6
CONTINUOUS
10
4.86632
20
-5.0453
11
4.85869
21
-5.04439
0
LINE
8
BLACK
6
CONTINUOUS
10
4.85869
20
-5.04439
11
4.85138
21
-5.04202
0
LINE
8
BLACK
6
CONTINUOUS
10
4.85138
20
-5.04202
11
4.84467
21
-5.03827
0
LINE
8
BLACK
6
CONTINUOUS
10
4.84467
20
-5.03827
11
4.83882
21
-5.03329
0
LINE
8
BLACK
6
CONTINUOUS
10
4.83882
20
-5.03329
11
4.83405
21
-5.02727
0
LINE
8
BLACK
6
CONTINUOUS
10
4.83405
20
-5.02727
11
4.83054
21
-5.02043
0
LINE
8
BLACK
6
CONTINUOUS
10
4.83054
20
-5.02043
11
4.82842
21
-5.01305
0
LINE
8
BLACK
6
CONTINUOUS
10
4.82842
20
-5.01305
11
4.82778
21
-5.00539
0
LINE
8
BLACK
6
CONTINUOUS
10
4.82778
20
-5.00539
11
4.82863
21
-4.99776
0
LINE
8
BLACK
6
CONTINUOUS
10
4.82863
20
-4.99776
11
4.83096
21
-4.99043
0
LINE
8
BLACK
6
CONTINUOUS
10
4.83096
20
-4.99043
11
4.83466
21
-4.9837
0
LINE
8
BLACK
6
CONTINUOUS
10
4.83466
20
-4.9837
11
4.8396
21
-4.97781
0
LINE
8
BLACK
6
CONTINUOUS
10
4.8396
20
-4.97781
11
4.84558
21
-4.973
0
LINE
8
BLACK
6
CONTINUOUS
10
4.84558
20
-4.973
11
4.85239
21
-4.96944
0
LINE
8
BLACK
6
CONTINUOUS
10
4.85239
20
-4.96944
11
4.85976
21
-4.96727
0
LINE
8
BLACK
6
CONTINUOUS
10
4.85976
20
-4.96727
11
4.86742
21
-4.96657
0
LINE
8
BLACK
6
CONTINUOUS
10
4.86742
20
-4.96657
11
4.87506
21
-4.96737
0
LINE
8
BLACK
6
CONTINUOUS
10
5.01463
20
-4.91306
11
5.02384
21
-4.9147
0
LINE
8
BLACK
6
CONTINUOUS
10
5.02384
20
-4.9147
11
5.03266
21
-4.91782
0
LINE
8
BLACK
6
CONTINUOUS
10
5.03266
20
-4.91782
11
5.04085
21
-4.92234
0
LINE
8
BLACK
6
CONTINUOUS
10
5.04085
20
-4.92234
11
5.04819
21
-4.92814
0
LINE
8
BLACK
6
CONTINUOUS
10
5.04819
20
-4.92814
11
5.05449
21
-4.93506
0
LINE
8
BLACK
6
CONTINUOUS
10
5.05449
20
-4.93506
11
5.05957
21
-4.94291
0
LINE
8
BLACK
6
CONTINUOUS
10
5.05957
20
-4.94291
11
5.0633
21
-4.95149
0
LINE
8
BLACK
6
CONTINUOUS
10
5.0633
20
-4.95149
11
5.06558
21
-4.96057
0
LINE
8
BLACK
6
CONTINUOUS
10
5.06558
20
-4.96057
11
5.06635
21
-4.96989
0
LINE
8
BLACK
6
CONTINUOUS
10
5.06635
20
-4.96989
11
5.06628
21
-4.97268
0
LINE
8
BLACK
6
CONTINUOUS
10
5.06628
20
-4.97268
11
5.06506
21
-4.98195
0
LINE
8
BLACK
6
CONTINUOUS
10
5.06506
20
-4.98195
11
5.06234
21
-4.9909
0
LINE
8
BLACK
6
CONTINUOUS
10
5.06234
20
-4.9909
11
5.05819
21
-4.99929
0
LINE
8
BLACK
6
CONTINUOUS
10
5.05819
20
-4.99929
11
5.05273
21
-5.00689
0
LINE
8
BLACK
6
CONTINUOUS
10
5.05273
20
-5.00689
11
5.04611
21
-5.01349
0
LINE
8
BLACK
6
CONTINUOUS
10
5.04611
20
-5.01349
11
5.03849
21
-5.01892
0
LINE
8
BLACK
6
CONTINUOUS
10
5.03849
20
-5.01892
11
5.03009
21
-5.02304
0
LINE
8
BLACK
6
CONTINUOUS
10
5.03009
20
-5.02304
11
5.02113
21
-5.02573
0
LINE
8
BLACK
6
CONTINUOUS
10
5.02113
20
-5.02573
11
5.01185
21
-5.02692
0
LINE
8
BLACK
6
CONTINUOUS
10
5.01185
20
-5.02692
11
5.0025
21
-5.02657
0
LINE
8
BLACK
6
CONTINUOUS
10
5.0025
20
-5.02657
11
4.99333
21
-5.02471
0
LINE
8
BLACK
6
CONTINUOUS
10
4.99333
20
-5.02471
11
4.98459
21
-5.02137
0
LINE
8
BLACK
6
CONTINUOUS
10
4.98459
20
-5.02137
11
4.97652
21
-5.01665
0
LINE
8
BLACK
6
CONTINUOUS
10
4.97652
20
-5.01665
11
4.96932
21
-5.01068
0
LINE
8
BLACK
6
CONTINUOUS
10
4.96932
20
-5.01068
11
4.96319
21
-5.00361
0
LINE
8
BLACK
6
CONTINUOUS
10
4.96319
20
-5.00361
11
4.9583
21
-4.99563
0
LINE
8
BLACK
6
CONTINUOUS
10
4.9583
20
-4.99563
11
4.95479
21
-4.98696
0
LINE
8
BLACK
6
CONTINUOUS
10
4.95479
20
-4.98696
11
4.95273
21
-4.97783
0
LINE
8
BLACK
6
CONTINUOUS
10
4.95273
20
-4.97783
11
4.95219
21
-4.96849
0
LINE
8
BLACK
6
CONTINUOUS
10
4.95219
20
-4.96849
11
4.95318
21
-4.95919
0
LINE
8
BLACK
6
CONTINUOUS
10
4.95318
20
-4.95919
11
4.95568
21
-4.95018
0
LINE
8
BLACK
6
CONTINUOUS
10
4.95568
20
-4.95018
11
4.95962
21
-4.94169
0
LINE
8
BLACK
6
CONTINUOUS
10
4.95962
20
-4.94169
11
4.96489
21
-4.93396
0
LINE
8
BLACK
6
CONTINUOUS
10
4.96489
20
-4.93396
11
4.97136
21
-4.9272
0
LINE
8
BLACK
6
CONTINUOUS
10
4.97136
20
-4.9272
11
4.97884
21
-4.92158
0
LINE
8
BLACK
6
CONTINUOUS
10
4.97884
20
-4.92158
11
4.98714
21
-4.91726
0
LINE
8
BLACK
6
CONTINUOUS
10
4.98714
20
-4.91726
11
4.99603
21
-4.91436
0
LINE
8
BLACK
6
CONTINUOUS
10
4.99603
20
-4.91436
11
5.00528
21
-4.91294
0
LINE
8
BLACK
6
CONTINUOUS
10
5.00528
20
-4.91294
11
5.01463
21
-4.91306
0
LINE
8
BLACK
6
CONTINUOUS
10
5.15929
20
-4.89527
11
5.16663
21
-4.89754
0
LINE
8
BLACK
6
CONTINUOUS
10
5.16663
20
-4.89754
11
5.17339
21
-4.9012
0
LINE
8
BLACK
6
CONTINUOUS
10
5.17339
20
-4.9012
11
5.17931
21
-4.9061
0
LINE
8
BLACK
6
CONTINUOUS
10
5.17931
20
-4.9061
11
5.18417
21
-4.91205
0
LINE
8
BLACK
6
CONTINUOUS
10
5.18417
20
-4.91205
11
5.18778
21
-4.91884
0
LINE
8
BLACK
6
CONTINUOUS
10
5.18778
20
-4.91884
11
5.19
21
-4.92619
0
LINE
8
BLACK
6
CONTINUOUS
10
5.19
20
-4.92619
11
5.19075
21
-4.93384
0
LINE
8
BLACK
6
CONTINUOUS
10
5.19075
20
-4.93384
11
5.19073
21
-4.93494
0
LINE
8
BLACK
6
CONTINUOUS
10
5.19073
20
-4.93494
11
5.18977
21
-4.94256
0
LINE
8
BLACK
6
CONTINUOUS
10
5.18977
20
-4.94256
11
5.18734
21
-4.94985
0
LINE
8
BLACK
6
CONTINUOUS
10
5.18734
20
-4.94985
11
5.18355
21
-4.95653
0
LINE
8
BLACK
6
CONTINUOUS
10
5.18355
20
-4.95653
11
5.17853
21
-4.96235
0
LINE
8
BLACK
6
CONTINUOUS
10
5.17853
20
-4.96235
11
5.17247
21
-4.96708
0
LINE
8
BLACK
6
CONTINUOUS
10
5.17247
20
-4.96708
11
5.16561
21
-4.97054
0
LINE
8
BLACK
6
CONTINUOUS
10
5.16561
20
-4.97054
11
5.15821
21
-4.97261
0
LINE
8
BLACK
6
CONTINUOUS
10
5.15821
20
-4.97261
11
5.15055
21
-4.9732
0
LINE
8
BLACK
6
CONTINUOUS
10
5.15055
20
-4.9732
11
5.14292
21
-4.97229
0
LINE
8
BLACK
6
CONTINUOUS
10
5.14292
20
-4.97229
11
5.13562
21
-4.96992
0
LINE
8
BLACK
6
CONTINUOUS
10
5.13562
20
-4.96992
11
5.12891
21
-4.96617
0
LINE
8
BLACK
6
CONTINUOUS
10
5.12891
20
-4.96617
11
5.12306
21
-4.96119
0
LINE
8
BLACK
6
CONTINUOUS
10
5.12306
20
-4.96119
11
5.11828
21
-4.95517
0
LINE
8
BLACK
6
CONTINUOUS
10
5.11828
20
-4.95517
11
5.11477
21
-4.94833
0
LINE
8
BLACK
6
CONTINUOUS
10
5.11477
20
-4.94833
11
5.11265
21
-4.94095
0
LINE
8
BLACK
6
CONTINUOUS
10
5.11265
20
-4.94095
11
5.11201
21
-4.93329
0
LINE
8
BLACK
6
CONTINUOUS
10
5.11201
20
-4.93329
11
5.11287
21
-4.92565
0
LINE
8
BLACK
6
CONTINUOUS
10
5.11287
20
-4.92565
11
5.11519
21
-4.91833
0
LINE
8
BLACK
6
CONTINUOUS
10
5.11519
20
-4.91833
11
5.11889
21
-4.9116
0
LINE
8
BLACK
6
CONTINUOUS
10
5.11889
20
-4.9116
11
5.12383
21
-4.90571
0
LINE
8
BLACK
6
CONTINUOUS
10
5.12383
20
-4.90571
11
5.12982
21
-4.90089
0
LINE
8
BLACK
6
CONTINUOUS
10
5.12982
20
-4.90089
11
5.13663
21
-4.89733
0
LINE
8
BLACK
6
CONTINUOUS
10
5.13663
20
-4.89733
11
5.144
21
-4.89517
0
LINE
8
BLACK
6
CONTINUOUS
10
5.144
20
-4.89517
11
5.15165
21
-4.89447
0
LINE
8
BLACK
6
CONTINUOUS
10
5.15165
20
-4.89447
11
5.15929
21
-4.89527
0
LINE
8
BLACK
6
CONTINUOUS
10
5.44301
20
-4.85672
11
5.44557
21
-4.85843
0
LINE
8
BLACK
6
CONTINUOUS
10
5.44557
20
-4.85843
11
5.48799
21
-4.90085
0
LINE
8
BLACK
6
CONTINUOUS
10
5.48799
20
-4.90085
11
5.4897
21
-4.90341
0
LINE
8
BLACK
6
CONTINUOUS
10
5.4897
20
-4.90341
11
5.4903
21
-4.90642
0
LINE
8
BLACK
6
CONTINUOUS
10
5.4903
20
-4.90642
11
5.4897
21
-4.90943
0
LINE
8
BLACK
6
CONTINUOUS
10
5.4897
20
-4.90943
11
5.48799
21
-4.91199
0
LINE
8
BLACK
6
CONTINUOUS
10
5.48799
20
-4.91199
11
5.44557
21
-4.95442
0
LINE
8
BLACK
6
CONTINUOUS
10
5.44557
20
-4.95442
11
5.44301
21
-4.95612
0
LINE
8
BLACK
6
CONTINUOUS
10
5.44301
20
-4.95612
11
5.44
21
-4.95672
0
LINE
8
BLACK
6
CONTINUOUS
10
5.44
20
-4.95672
11
5.43699
21
-4.95612
0
LINE
8
BLACK
6
CONTINUOUS
10
5.43699
20
-4.95612
11
5.43443
21
-4.95442
0
LINE
8
BLACK
6
CONTINUOUS
10
5.43443
20
-4.95442
11
5.39201
21
-4.91199
0
LINE
8
BLACK
6
CONTINUOUS
10
5.39201
20
-4.91199
11
5.3903
21
-4.90943
0
LINE
8
BLACK
6
CONTINUOUS
10
5.3903
20
-4.90943
11
5.3897
21
-4.90642
0
LINE
8
BLACK
6
CONTINUOUS
10
5.3897
20
-4.90642
11
5.3903
21
-4.90341
0
LINE
8
BLACK
6
CONTINUOUS
10
5.3903
20
-4.90341
11
5.39201
21
-4.90085
0
LINE
8
BLACK
6
CONTINUOUS
10
5.39201
20
-4.90085
11
5.43443
21
-4.85843
0
LINE
8
BLACK
6
CONTINUOUS
10
5.43443
20
-4.85843
11
5.43699
21
-4.85672
0
LINE
8
BLACK
6
CONTINUOUS
10
5.43699
20
-4.85672
11
5.44
21
-4.85612
0
LINE
8
BLACK
6
CONTINUOUS
10
5.44
20
-4.85612
11
5.44301
21
-4.85672
0
LINE
8
BLACK
6
CONTINUOUS
10
4.90857
20
-4.80699
11
4.91778
21
-4.80863
0
LINE
8
BLACK
6
CONTINUOUS
10
4.91778
20
-4.80863
11
4.92659
21
-4.81175
0
LINE
8
BLACK
6
CONTINUOUS
10
4.92659
20
-4.81175
11
4.93478
21
-4.81627
0
LINE
8
BLACK
6
CONTINUOUS
10
4.93478
20
-4.81627
11
4.94213
21
-4.82207
0
LINE
8
BLACK
6
CONTINUOUS
10
4.94213
20
-4.82207
11
4.94842
21
-4.82899
0
LINE
8
BLACK
6
CONTINUOUS
10
4.94842
20
-4.82899
11
4.9535
21
-4.83685
0
LINE
8
BLACK
6
CONTINUOUS
10
4.9535
20
-4.83685
11
4.95723
21
-4.84543
0
LINE
8
BLACK
6
CONTINUOUS
10
4.95723
20
-4.84543
11
4.95951
21
-4.8545
0
LINE
8
BLACK
6
CONTINUOUS
10
4.95951
20
-4.8545
11
4.96028
21
-4.86382
0
LINE
8
BLACK
6
CONTINUOUS
10
4.96028
20
-4.86382
11
4.96021
21
-4.86661
0
LINE
8
BLACK
6
CONTINUOUS
10
4.96021
20
-4.86661
11
4.95899
21
-4.87589
0
LINE
8
BLACK
6
CONTINUOUS
10
4.95899
20
-4.87589
11
4.95627
21
-4.88484
0
LINE
8
BLACK
6
CONTINUOUS
10
4.95627
20
-4.88484
11
4.95213
21
-4.89323
0
LINE
8
BLACK
6
CONTINUOUS
10
4.95213
20
-4.89323
11
4.94667
21
-4.90082
0
LINE
8
BLACK
6
CONTINUOUS
10
4.94667
20
-4.90082
11
4.94004
21
-4.90743
0
LINE
8
BLACK
6
CONTINUOUS
10
4.94004
20
-4.90743
11
4.93242
21
-4.91286
0
LINE
8
BLACK
6
CONTINUOUS
10
4.93242
20
-4.91286
11
4.92402
21
-4.91697
0
LINE
8
BLACK
6
CONTINUOUS
10
4.92402
20
-4.91697
11
4.91506
21
-4.91966
0
LINE
8
BLACK
6
CONTINUOUS
10
4.91506
20
-4.91966
11
4.90578
21
-4.92085
0
LINE
8
BLACK
6
CONTINUOUS
10
4.90578
20
-4.92085
11
4.89643
21
-4.92051
0
LINE
8
BLACK
6
CONTINUOUS
10
4.89643
20
-4.92051
11
4.88727
21
-4.91864
0
LINE
8
BLACK
6
CONTINUOUS
10
4.88727
20
-4.91864
11
4.87853
21
-4.91531
0
LINE
8
BLACK
6
CONTINUOUS
10
4.87853
20
-4.91531
11
4.87045
21
-4.91059
0
LINE
8
BLACK
6
CONTINUOUS
10
4.87045
20
-4.91059
11
4.86325
21
-4.90461
0
LINE
8
BLACK
6
CONTINUOUS
10
4.86325
20
-4.90461
11
4.85713
21
-4.89754
0
LINE
8
BLACK
6
CONTINUOUS
10
4.85713
20
-4.89754
11
4.85224
21
-4.88956
0
LINE
8
BLACK
6
CONTINUOUS
10
4.85224
20
-4.88956
11
4.84872
21
-4.88089
0
LINE
8
BLACK
6
CONTINUOUS
10
4.84872
20
-4.88089
11
4.84666
21
-4.87177
0
LINE
8
BLACK
6
CONTINUOUS
10
4.84666
20
-4.87177
11
4.84612
21
-4.86243
0
LINE
8
BLACK
6
CONTINUOUS
10
4.84612
20
-4.86243
11
4.84712
21
-4.85313
0
LINE
8
BLACK
6
CONTINUOUS
10
4.84712
20
-4.85313
11
4.84962
21
-4.84411
0
LINE
8
BLACK
6
CONTINUOUS
10
4.84962
20
-4.84411
11
4.85356
21
-4.83563
0
LINE
8
BLACK
6
CONTINUOUS
10
4.85356
20
-4.83563
11
4.85883
21
-4.8279
0
LINE
8
BLACK
6
CONTINUOUS
10
4.85883
20
-4.8279
11
4.86529
21
-4.82113
0
LINE
8
BLACK
6
CONTINUOUS
10
4.86529
20
-4.82113
11
4.87277
21
-4.81552
0
LINE
8
BLACK
6
CONTINUOUS
10
4.87277
20
-4.81552
11
4.88107
21
-4.8112
0
LINE
8
BLACK
6
CONTINUOUS
10
4.88107
20
-4.8112
11
4.88996
21
-4.80829
0
LINE
8
BLACK
6
CONTINUOUS
10
4.88996
20
-4.80829
11
4.89921
21
-4.80688
0
LINE
8
BLACK
6
CONTINUOUS
10
4.89921
20
-4.80688
11
4.90857
21
-4.80699
0
LINE
8
BLACK
6
CONTINUOUS
10
5.3723
20
-4.78601
11
5.37486
21
-4.78772
0
LINE
8
BLACK
6
CONTINUOUS
10
5.37486
20
-4.78772
11
5.41728
21
-4.83014
0
LINE
8
BLACK
6
CONTINUOUS
10
5.41728
20
-4.83014
11
5.41899
21
-4.8327
0
LINE
8
BLACK
6
CONTINUOUS
10
5.41899
20
-4.8327
11
5.41959
21
-4.83571
0
LINE
8
BLACK
6
CONTINUOUS
10
5.41959
20
-4.83571
11
5.41899
21
-4.83872
0
LINE
8
BLACK
6
CONTINUOUS
10
5.41899
20
-4.83872
11
5.41728
21
-4.84128
0
LINE
8
BLACK
6
CONTINUOUS
10
5.41728
20
-4.84128
11
5.37486
21
-4.8837
0
LINE
8
BLACK
6
CONTINUOUS
10
5.37486
20
-4.8837
11
5.3723
21
-4.88541
0
LINE
8
BLACK
6
CONTINUOUS
10
5.3723
20
-4.88541
11
5.36929
21
-4.88601
0
LINE
8
BLACK
6
CONTINUOUS
10
5.36929
20
-4.88601
11
5.36628
21
-4.88541
0
LINE
8
BLACK
6
CONTINUOUS
10
5.36628
20
-4.88541
11
5.36372
21
-4.8837
0
LINE
8
BLACK
6
CONTINUOUS
10
5.36372
20
-4.8837
11
5.3213
21
-4.84128
0
LINE
8
BLACK
6
CONTINUOUS
10
5.3213
20
-4.84128
11
5.31959
21
-4.83872
0
LINE
8
BLACK
6
CONTINUOUS
10
5.31959
20
-4.83872
11
5.31899
21
-4.83571
0
LINE
8
BLACK
6
CONTINUOUS
10
5.31899
20
-4.83571
11
5.31959
21
-4.8327
0
LINE
8
BLACK
6
CONTINUOUS
10
5.31959
20
-4.8327
11
5.3213
21
-4.83014
0
LINE
8
BLACK
6
CONTINUOUS
10
5.3213
20
-4.83014
11
5.36372
21
-4.78772
0
LINE
8
BLACK
6
CONTINUOUS
10
5.36372
20
-4.78772
11
5.36628
21
-4.78601
0
LINE
8
BLACK
6
CONTINUOUS
10
5.36628
20
-4.78601
11
5.36929
21
-4.78541
0
LINE
8
BLACK
6
CONTINUOUS
10
5.36929
20
-4.78541
11
5.3723
21
-4.78601
0
LINE
8
BLACK
6
CONTINUOUS
10
5.51372
20
-4.78601
11
5.51628
21
-4.78772
0
LINE
8
BLACK
6
CONTINUOUS
10
5.51628
20
-4.78772
11
5.5587
21
-4.83014
0
LINE
8
BLACK
6
CONTINUOUS
10
5.5587
20
-4.83014
11
5.56041
21
-4.8327
0
LINE
8
BLACK
6
CONTINUOUS
10
5.56041
20
-4.8327
11
5.56101
21
-4.83571
0
LINE
8
BLACK
6
CONTINUOUS
10
5.56101
20
-4.83571
11
5.56041
21
-4.83872
0
LINE
8
BLACK
6
CONTINUOUS
10
5.56041
20
-4.83872
11
5.5587
21
-4.84128
0
LINE
8
BLACK
6
CONTINUOUS
10
5.5587
20
-4.84128
11
5.51628
21
-4.8837
0
LINE
8
BLACK
6
CONTINUOUS
10
5.51628
20
-4.8837
11
5.51372
21
-4.88541
0
LINE
8
BLACK
6
CONTINUOUS
10
5.51372
20
-4.88541
11
5.51071
21
-4.88601
0
LINE
8
BLACK
6
CONTINUOUS
10
5.51071
20
-4.88601
11
5.5077
21
-4.88541
0
LINE
8
BLACK
6
CONTINUOUS
10
5.5077
20
-4.88541
11
5.50514
21
-4.8837
0
LINE
8
BLACK
6
CONTINUOUS
10
5.50514
20
-4.8837
11
5.46272
21
-4.84128
0
LINE
8
BLACK
6
CONTINUOUS
10
5.46272
20
-4.84128
11
5.46101
21
-4.83872
0
LINE
8
BLACK
6
CONTINUOUS
10
5.46101
20
-4.83872
11
5.46041
21
-4.83571
0
LINE
8
BLACK
6
CONTINUOUS
10
5.46041
20
-4.83571
11
5.46101
21
-4.8327
0
LINE
8
BLACK
6
CONTINUOUS
10
5.46101
20
-4.8327
11
5.46272
21
-4.83014
0
LINE
8
BLACK
6
CONTINUOUS
10
5.46272
20
-4.83014
11
5.50514
21
-4.78772
0
LINE
8
BLACK
6
CONTINUOUS
10
5.50514
20
-4.78772
11
5.5077
21
-4.78601
0
LINE
8
BLACK
6
CONTINUOUS
10
5.5077
20
-4.78601
11
5.51071
21
-4.78541
0
LINE
8
BLACK
6
CONTINUOUS
10
5.51071
20
-4.78541
11
5.51372
21
-4.78601
0
LINE
8
BLACK
6
CONTINUOUS
10
5.44301
20
-4.7153
11
5.44557
21
-4.71701
0
LINE
8
BLACK
6
CONTINUOUS
10
5.44557
20
-4.71701
11
5.48799
21
-4.75943
0
LINE
8
BLACK
6
CONTINUOUS
10
5.48799
20
-4.75943
11
5.4897
21
-4.76199
0
LINE
8
BLACK
6
CONTINUOUS
10
5.4897
20
-4.76199
11
5.4903
21
-4.765
0
LINE
8
BLACK
6
CONTINUOUS
10
5.4903
20
-4.765
11
5.4897
21
-4.76801
0
LINE
8
BLACK
6
CONTINUOUS
10
5.4897
20
-4.76801
11
5.48799
21
-4.77057
0
LINE
8
BLACK
6
CONTINUOUS
10
5.48799
20
-4.77057
11
5.44557
21
-4.81299
0
LINE
8
BLACK
6
CONTINUOUS
10
5.44557
20
-4.81299
11
5.44301
21
-4.8147
0
LINE
8
BLACK
6
CONTINUOUS
10
5.44301
20
-4.8147
11
5.44
21
-4.8153
0
LINE
8
BLACK
6
CONTINUOUS
10
5.44
20
-4.8153
11
5.43699
21
-4.8147
0
LINE
8
BLACK
6
CONTINUOUS
10
5.43699
20
-4.8147
11
5.43443
21
-4.81299
0
LINE
8
BLACK
6
CONTINUOUS
10
5.43443
20
-4.81299
11
5.39201
21
-4.77057
0
LINE
8
BLACK
6
CONTINUOUS
10
5.39201
20
-4.77057
11
5.3903
21
-4.76801
0
LINE
8
BLACK
6
CONTINUOUS
10
5.3903
20
-4.76801
11
5.3897
21
-4.765
0
LINE
8
BLACK
6
CONTINUOUS
10
5.3897
20
-4.765
11
5.3903
21
-4.76199
0
LINE
8
BLACK
6
CONTINUOUS
10
5.3903
20
-4.76199
11
5.39201
21
-4.75943
0
LINE
8
BLACK
6
CONTINUOUS
10
5.39201
20
-4.75943
11
5.43443
21
-4.71701
0
LINE
8
BLACK
6
CONTINUOUS
10
5.43443
20
-4.71701
11
5.43699
21
-4.7153
0
LINE
8
BLACK
6
CONTINUOUS
10
5.43699
20
-4.7153
11
5.44
21
-4.7147
0
LINE
8
BLACK
6
CONTINUOUS
10
5.44
20
-4.7147
11
5.44301
21
-4.7153
0
LINE
8
BLACK
6
CONTINUOUS
10
5.30159
20
-4.7153
11
5.30415
21
-4.71701
0
LINE
8
BLACK
6
CONTINUOUS
10
5.30415
20
-4.71701
11
5.34657
21
-4.75943
0
LINE
8
BLACK
6
CONTINUOUS
10
5.34657
20
-4.75943
11
5.34828
21
-4.76199
0
LINE
8
BLACK
6
CONTINUOUS
10
5.34828
20
-4.76199
11
5.34888
21
-4.765
0
LINE
8
BLACK
6
CONTINUOUS
10
5.34888
20
-4.765
11
5.34828
21
-4.76801
0
LINE
8
BLACK
6
CONTINUOUS
10
5.34828
20
-4.76801
11
5.34657
21
-4.77057
0
LINE
8
BLACK
6
CONTINUOUS
10
5.34657
20
-4.77057
11
5.30415
21
-4.81299
0
LINE
8
BLACK
6
CONTINUOUS
10
5.30415
20
-4.81299
11
5.30159
21
-4.8147
0
LINE
8
BLACK
6
CONTINUOUS
10
5.30159
20
-4.8147
11
5.29858
21
-4.8153
0
LINE
8
BLACK
6
CONTINUOUS
10
5.29858
20
-4.8153
11
5.29557
21
-4.8147
0
LINE
8
BLACK
6
CONTINUOUS
10
5.29557
20
-4.8147
11
5.29301
21
-4.81299
0
LINE
8
BLACK
6
CONTINUOUS
10
5.29301
20
-4.81299
11
5.25058
21
-4.77057
0
LINE
8
BLACK
6
CONTINUOUS
10
5.25058
20
-4.77057
11
5.24888
21
-4.76801
0
LINE
8
BLACK
6
CONTINUOUS
10
5.24888
20
-4.76801
11
5.24828
21
-4.765
0
LINE
8
BLACK
6
CONTINUOUS
10
5.24828
20
-4.765
11
5.24888
21
-4.76199
0
LINE
8
BLACK
6
CONTINUOUS
10
5.24888
20
-4.76199
11
5.25058
21
-4.75943
0
LINE
8
BLACK
6
CONTINUOUS
10
5.25058
20
-4.75943
11
5.29301
21
-4.71701
0
LINE
8
BLACK
6
CONTINUOUS
10
5.29301
20
-4.71701
11
5.29557
21
-4.7153
0
LINE
8
BLACK
6
CONTINUOUS
10
5.29557
20
-4.7153
11
5.29858
21
-4.7147
0
LINE
8
BLACK
6
CONTINUOUS
10
5.29858
20
-4.7147
11
5.30159
21
-4.7153
0
LINE
8
BLACK
6
CONTINUOUS
10
4.8025
20
-4.70092
11
4.81171
21
-4.70256
0
LINE
8
BLACK
6
CONTINUOUS
10
4.81171
20
-4.70256
11
4.82053
21
-4.70569
0
LINE
8
BLACK
6
CONTINUOUS
10
4.82053
20
-4.70569
11
4.82872
21
-4.71021
0
LINE
8
BLACK
6
CONTINUOUS
10
4.82872
20
-4.71021
11
4.83606
21
-4.71601
0
LINE
8
BLACK
6
CONTINUOUS
10
4.83606
20
-4.71601
11
4.84236
21
-4.72293
0
LINE
8
BLACK
6
CONTINUOUS
10
4.84236
20
-4.72293
11
4.84744
21
-4.73078
0
LINE
8
BLACK
6
CONTINUOUS
10
4.84744
20
-4.73078
11
4.85117
21
-4.73936
0
LINE
8
BLACK
6
CONTINUOUS
10
4.85117
20
-4.73936
11
4.85345
21
-4.74843
0
LINE
8
BLACK
6
CONTINUOUS
10
4.85345
20
-4.74843
11
4.85421
21
-4.75776
0
LINE
8
BLACK
6
CONTINUOUS
10
4.85421
20
-4.75776
11
4.85415
21
-4.76055
0
LINE
8
BLACK
6
CONTINUOUS
10
4.85415
20
-4.76055
11
4.85292
21
-4.76982
0
LINE
8
BLACK
6
CONTINUOUS
10
4.85292
20
-4.76982
11
4.85021
21
-4.77877
0
LINE
8
BLACK
6
CONTINUOUS
10
4.85021
20
-4.77877
11
4.84606
21
-4.78716
0
LINE
8
BLACK
6
CONTINUOUS
10
4.84606
20
-4.78716
11
4.8406
21
-4.79476
0
LINE
8
BLACK
6
CONTINUOUS
10
4.8406
20
-4.79476
11
4.83397
21
-4.80136
0
LINE
8
BLACK
6
CONTINUOUS
10
4.83397
20
-4.80136
11
4.82636
21
-4.80679
0
LINE
8
BLACK
6
CONTINUOUS
10
4.82636
20
-4.80679
11
4.81796
21
-4.81091
0
LINE
8
BLACK
6
CONTINUOUS
10
4.81796
20
-4.81091
11
4.809
21
-4.8136
0
LINE
8
BLACK
6
CONTINUOUS
10
4.809
20
-4.8136
11
4.79972
21
-4.81479
0
LINE
8
BLACK
6
CONTINUOUS
10
4.79972
20
-4.81479
11
4.79037
21
-4.81444
0
LINE
8
BLACK
6
CONTINUOUS
10
4.79037
20
-4.81444
11
4.7812
21
-4.81258
0
LINE
8
BLACK
6
CONTINUOUS
10
4.7812
20
-4.81258
11
4.77246
21
-4.80924
0
LINE
8
BLACK
6
CONTINUOUS
10
4.77246
20
-4.80924
11
4.76438
21
-4.80452
0
LINE
8
BLACK
6
CONTINUOUS
10
4.76438
20
-4.80452
11
4.75719
21
-4.79854
0
LINE
8
BLACK
6
CONTINUOUS
10
4.75719
20
-4.79854
11
4.75106
21
-4.79147
0
LINE
8
BLACK
6
CONTINUOUS
10
4.75106
20
-4.79147
11
4.74617
21
-4.7835
0
LINE
8
BLACK
6
CONTINUOUS
10
4.74617
20
-4.7835
11
4.74265
21
-4.77483
0
LINE
8
BLACK
6
CONTINUOUS
10
4.74265
20
-4.77483
11
4.7406
21
-4.7657
0
LINE
8
BLACK
6
CONTINUOUS
10
4.7406
20
-4.7657
11
4.74006
21
-4.75636
0
LINE
8
BLACK
6
CONTINUOUS
10
4.74006
20
-4.75636
11
4.74105
21
-4.74706
0
LINE
8
BLACK
6
CONTINUOUS
10
4.74105
20
-4.74706
11
4.74355
21
-4.73805
0
LINE
8
BLACK
6
CONTINUOUS
10
4.74355
20
-4.73805
11
4.74749
21
-4.72956
0
LINE
8
BLACK
6
CONTINUOUS
10
4.74749
20
-4.72956
11
4.75276
21
-4.72183
0
LINE
8
BLACK
6
CONTINUOUS
10
4.75276
20
-4.72183
11
4.75923
21
-4.71507
0
LINE
8
BLACK
6
CONTINUOUS
10
4.75923
20
-4.71507
11
4.76671
21
-4.70945
0
LINE
8
BLACK
6
CONTINUOUS
10
4.76671
20
-4.70945
11
4.77501
21
-4.70513
0
LINE
8
BLACK
6
CONTINUOUS
10
4.77501
20
-4.70513
11
4.7839
21
-4.70222
0
LINE
8
BLACK
6
CONTINUOUS
10
4.7839
20
-4.70222
11
4.79315
21
-4.70081
0
LINE
8
BLACK
6
CONTINUOUS
10
4.79315
20
-4.70081
11
4.8025
21
-4.70092
0
LINE
8
BLACK
6
CONTINUOUS
10
4.94716
20
-4.68314
11
4.9545
21
-4.68541
0
LINE
8
BLACK
6
CONTINUOUS
10
4.9545
20
-4.68541
11
4.96126
21
-4.68907
0
LINE
8
BLACK
6
CONTINUOUS
10
4.96126
20
-4.68907
11
4.96718
21
-4.69396
0
LINE
8
BLACK
6
CONTINUOUS
10
4.96718
20
-4.69396
11
4.97204
21
-4.69992
0
LINE
8
BLACK
6
CONTINUOUS
10
4.97204
20
-4.69992
11
4.97564
21
-4.7067
0
LINE
8
BLACK
6
CONTINUOUS
10
4.97564
20
-4.7067
11
4.97787
21
-4.71406
0
LINE
8
BLACK
6
CONTINUOUS
10
4.97787
20
-4.71406
11
4.97861
21
-4.72171
0
LINE
8
BLACK
6
CONTINUOUS
10
4.97861
20
-4.72171
11
4.9786
21
-4.72281
0
LINE
8
BLACK
6
CONTINUOUS
10
4.9786
20
-4.72281
11
4.97764
21
-4.73043
0
LINE
8
BLACK
6
CONTINUOUS
10
4.97764
20
-4.73043
11
4.97521
21
-4.73772
0
LINE
8
BLACK
6
CONTINUOUS
10
4.97521
20
-4.73772
11
4.97142
21
-4.7444
0
LINE
8
BLACK
6
CONTINUOUS
10
4.97142
20
-4.7444
11
4.9664
21
-4.75022
0
LINE
8
BLACK
6
CONTINUOUS
10
4.9664
20
-4.75022
11
4.96034
21
-4.75495
0
LINE
8
BLACK
6
CONTINUOUS
10
4.96034
20
-4.75495
11
4.95348
21
-4.75841
0
LINE
8
BLACK
6
CONTINUOUS
10
4.95348
20
-4.75841
11
4.94608
21
-4.76048
0
LINE
8
BLACK
6
CONTINUOUS
10
4.94608
20
-4.76048
11
4.93842
21
-4.76107
0
LINE
8
BLACK
6
CONTINUOUS
10
4.93842
20
-4.76107
11
4.93079
21
-4.76016
0
LINE
8
BLACK
6
CONTINUOUS
10
4.93079
20
-4.76016
11
4.92348
21
-4.75778
0
LINE
8
BLACK
6
CONTINUOUS
10
4.92348
20
-4.75778
11
4.91678
21
-4.75403
0
LINE
8
BLACK
6
CONTINUOUS
10
4.91678
20
-4.75403
11
4.91092
21
-4.74905
0
LINE
8
BLACK
6
CONTINUOUS
10
4.91092
20
-4.74905
11
4.90615
21
-4.74303
0
LINE
8
BLACK
6
CONTINUOUS
10
4.90615
20
-4.74303
11
4.90264
21
-4.7362
0
LINE
8
BLACK
6
CONTINUOUS
10
4.90264
20
-4.7362
11
4.90052
21
-4.72881
0
LINE
8
BLACK
6
CONTINUOUS
10
4.90052
20
-4.72881
11
4.89988
21
-4.72116
0
LINE
8
BLACK
6
CONTINUOUS
10
4.89988
20
-4.72116
11
4.90074
21
-4.71352
0
LINE
8
BLACK
6
CONTINUOUS
10
4.90074
20
-4.71352
11
4.90306
21
-4.7062
0
LINE
8
BLACK
6
CONTINUOUS
10
4.90306
20
-4.7062
11
4.90676
21
-4.69946
0
LINE
8
BLACK
6
CONTINUOUS
10
4.90676
20
-4.69946
11
4.9117
21
-4.69358
0
LINE
8
BLACK
6
CONTINUOUS
10
4.9117
20
-4.69358
11
4.91769
21
-4.68876
0
LINE
8
BLACK
6
CONTINUOUS
10
4.91769
20
-4.68876
11
4.9245
21
-4.6852
0
LINE
8
BLACK
6
CONTINUOUS
10
4.9245
20
-4.6852
11
4.93187
21
-4.68303
0
LINE
8
BLACK
6
CONTINUOUS
10
4.93187
20
-4.68303
11
4.93952
21
-4.68234
0
LINE
8
BLACK
6
CONTINUOUS
10
4.93952
20
-4.68234
11
4.94716
21
-4.68314
0
LINE
8
BLACK
6
CONTINUOUS
10
5.3723
20
-4.64459
11
5.37486
21
-4.6463
0
LINE
8
BLACK
6
CONTINUOUS
10
5.37486
20
-4.6463
11
5.41728
21
-4.68872
0
LINE
8
BLACK
6
CONTINUOUS
10
5.41728
20
-4.68872
11
5.41899
21
-4.69128
0
LINE
8
BLACK
6
CONTINUOUS
10
5.41899
20
-4.69128
11
5.41959
21
-4.69429
0
LINE
8
BLACK
6
CONTINUOUS
10
5.41959
20
-4.69429
11
5.41899
21
-4.6973
0
LINE
8
BLACK
6
CONTINUOUS
10
5.41899
20
-4.6973
11
5.41728
21
-4.69986
0
LINE
8
BLACK
6
CONTINUOUS
10
5.41728
20
-4.69986
11
5.37486
21
-4.74228
0
LINE
8
BLACK
6
CONTINUOUS
10
5.37486
20
-4.74228
11
5.3723
21
-4.74399
0
LINE
8
BLACK
6
CONTINUOUS
10
5.3723
20
-4.74399
11
5.36929
21
-4.74459
0
LINE
8
BLACK
6
CONTINUOUS
10
5.36929
20
-4.74459
11
5.36628
21
-4.74399
0
LINE
8
BLACK
6
CONTINUOUS
10
5.36628
20
-4.74399
11
5.36372
21
-4.74228
0
LINE
8
BLACK
6
CONTINUOUS
10
5.36372
20
-4.74228
11
5.3213
21
-4.69986
0
LINE
8
BLACK
6
CONTINUOUS
10
5.3213
20
-4.69986
11
5.31959
21
-4.6973
0
LINE
8
BLACK
6
CONTINUOUS
10
5.31959
20
-4.6973
11
5.31899
21
-4.69429
0
LINE
8
BLACK
6
CONTINUOUS
10
5.31899
20
-4.69429
11
5.31959
21
-4.69128
0
LINE
8
BLACK
6
CONTINUOUS
10
5.31959
20
-4.69128
11
5.3213
21
-4.68872
0
LINE
8
BLACK
6
CONTINUOUS
10
5.3213
20
-4.68872
11
5.36372
21
-4.6463
0
LINE
8
BLACK
6
CONTINUOUS
10
5.36372
20
-4.6463
11
5.36628
21
-4.64459
0
LINE
8
BLACK
6
CONTINUOUS
10
5.36628
20
-4.64459
11
5.36929
21
-4.64399
0
LINE
8
BLACK
6
CONTINUOUS
10
5.36929
20
-4.64399
11
5.3723
21
-4.64459
0
LINE
8
BLACK
6
CONTINUOUS
10
4.69643
20
-4.59486
11
4.70564
21
-4.5965
0
LINE
8
BLACK
6
CONTINUOUS
10
4.70564
20
-4.5965
11
4.71446
21
-4.59962
0
LINE
8
BLACK
6
CONTINUOUS
10
4.71446
20
-4.59962
11
4.72265
21
-4.60414
0
LINE
8
BLACK
6
CONTINUOUS
10
4.72265
20
-4.60414
11
4.72999
21
-4.60994
0
LINE
8
BLACK
6
CONTINUOUS
10
4.72999
20
-4.60994
11
4.73629
21
-4.61686
0
LINE
8
BLACK
6
CONTINUOUS
10
4.73629
20
-4.61686
11
4.74137
21
-4.62472
0
LINE
8
BLACK
6
CONTINUOUS
10
4.74137
20
-4.62472
11
4.7451
21
-4.63329
0
LINE
8
BLACK
6
CONTINUOUS
10
4.7451
20
-4.63329
11
4.74738
21
-4.64237
0
LINE
8
BLACK
6
CONTINUOUS
10
4.74738
20
-4.64237
11
4.74815
21
-4.65169
0
LINE
8
BLACK
6
CONTINUOUS
10
4.74815
20
-4.65169
11
4.74808
21
-4.65448
0
LINE
8
BLACK
6
CONTINUOUS
10
4.74808
20
-4.65448
11
4.74686
21
-4.66376
0
LINE
8
BLACK
6
CONTINUOUS
10
4.74686
20
-4.66376
11
4.74414
21
-4.67271
0
LINE
8
BLACK
6
CONTINUOUS
10
4.74414
20
-4.67271
11
4.73999
21
-4.68109
0
LINE
8
BLACK
6
CONTINUOUS
10
4.73999
20
-4.68109
11
4.73454
21
-4.68869
0
LINE
8
BLACK
6
CONTINUOUS
10
4.73454
20
-4.68869
11
4.72791
21
-4.69529
0
LINE
8
BLACK
6
CONTINUOUS
10
4.72791
20
-4.69529
11
4.72029
21
-4.70073
0
LINE
8
BLACK
6
CONTINUOUS
10
4.72029
20
-4.70073
11
4.71189
21
-4.70484
0
LINE
8
BLACK
6
CONTINUOUS
10
4.71189
20
-4.70484
11
4.70293
21
-4.70753
0
LINE
8
BLACK
6
CONTINUOUS
10
4.70293
20
-4.70753
11
4.69365
21
-4.70872
0
LINE
8
BLACK
6
CONTINUOUS
10
4.69365
20
-4.70872
11
4.6843
21
-4.70838
0
LINE
8
BLACK
6
CONTINUOUS
10
4.6843
20
-4.70838
11
4.67513
21
-4.70651
0
LINE
8
BLACK
6
CONTINUOUS
10
4.67513
20
-4.70651
11
4.6664
21
-4.70317
0
LINE
8
BLACK
6
CONTINUOUS
10
4.6664
20
-4.70317
11
4.65832
21
-4.69845
0
LINE
8
BLACK
6
CONTINUOUS
10
4.65832
20
-4.69845
11
4.65112
21
-4.69248
0
LINE
8
BLACK
6
CONTINUOUS
10
4.65112
20
-4.69248
11
4.64499
21
-4.68541
0
LINE
8
BLACK
6
CONTINUOUS
10
4.64499
20
-4.68541
11
4.64011
21
-4.67743
0
LINE
8
BLACK
6
CONTINUOUS
10
4.64011
20
-4.67743
11
4.63659
21
-4.66876
0
LINE
8
BLACK
6
CONTINUOUS
10
4.63659
20
-4.66876
11
4.63453
21
-4.65964
0
LINE
8
BLACK
6
CONTINUOUS
10
4.63453
20
-4.65964
11
4.63399
21
-4.6503
0
LINE
8
BLACK
6
CONTINUOUS
10
4.63399
20
-4.6503
11
4.63499
21
-4.64099
0
LINE
8
BLACK
6
CONTINUOUS
10
4.63499
20
-4.64099
11
4.63749
21
-4.63198
0
LINE
8
BLACK
6
CONTINUOUS
10
4.63749
20
-4.63198
11
4.64142
21
-4.62349
0
LINE
8
BLACK
6
CONTINUOUS
10
4.64142
20
-4.62349
11
4.6467
21
-4.61577
0
LINE
8
BLACK
6
CONTINUOUS
10
4.6467
20
-4.61577
11
4.65316
21
-4.609
0
LINE
8
BLACK
6
CONTINUOUS
10
4.65316
20
-4.609
11
4.66064
21
-4.60339
0
LINE
8
BLACK
6
CONTINUOUS
10
4.66064
20
-4.60339
11
4.66894
21
-4.59907
0
LINE
8
BLACK
6
CONTINUOUS
10
4.66894
20
-4.59907
11
4.67783
21
-4.59616
0
LINE
8
BLACK
6
CONTINUOUS
10
4.67783
20
-4.59616
11
4.68708
21
-4.59474
0
LINE
8
BLACK
6
CONTINUOUS
10
4.68708
20
-4.59474
11
4.69643
21
-4.59486
0
LINE
8
BLACK
6
CONTINUOUS
10
6.40173
20
-4.50237
11
6.40351
21
-4.50351
0
LINE
8
BLACK
6
CONTINUOUS
10
6.40351
20
-4.50351
11
6.49649
21
-4.59649
0
LINE
8
BLACK
6
CONTINUOUS
10
6.49649
20
-4.59649
11
6.49783
21
-4.59895
0
LINE
8
BLACK
6
CONTINUOUS
10
6.49783
20
-4.59895
11
6.49763
21
-4.60173
0
LINE
8
BLACK
6
CONTINUOUS
10
6.49763
20
-4.60173
11
6.49649
21
-4.60351
0
LINE
8
BLACK
6
CONTINUOUS
10
6.49649
20
-4.60351
11
6.40351
21
-4.69649
0
LINE
8
BLACK
6
CONTINUOUS
10
6.40351
20
-4.69649
11
6.40105
21
-4.69783
0
LINE
8
BLACK
6
CONTINUOUS
10
6.40105
20
-4.69783
11
6.39827
21
-4.69763
0
LINE
8
BLACK
6
CONTINUOUS
10
6.39827
20
-4.69763
11
6.39649
21
-4.69649
0
LINE
8
BLACK
6
CONTINUOUS
10
6.39649
20
-4.69649
11
6.30351
21
-4.60351
0
LINE
8
BLACK
6
CONTINUOUS
10
6.30351
20
-4.60351
11
6.30217
21
-4.60105
0
LINE
8
BLACK
6
CONTINUOUS
10
6.30217
20
-4.60105
11
6.30237
21
-4.59827
0
LINE
8
BLACK
6
CONTINUOUS
10
6.30237
20
-4.59827
11
6.30351
21
-4.59649
0
LINE
8
BLACK
6
CONTINUOUS
10
6.30351
20
-4.59649
11
6.39649
21
-4.50351
0
LINE
8
BLACK
6
CONTINUOUS
10
6.39649
20
-4.50351
11
6.39895
21
-4.50217
0
LINE
8
BLACK
6
CONTINUOUS
10
6.39895
20
-4.50217
11
6.40173
21
-4.50237
0
LINE
8
BLACK
6
CONTINUOUS
10
4.45079
20
-4.54311
11
4.45813
21
-4.54538
0
LINE
8
BLACK
6
CONTINUOUS
10
4.45813
20
-4.54538
11
4.46489
21
-4.54904
0
LINE
8
BLACK
6
CONTINUOUS
10
4.46489
20
-4.54904
11
4.47081
21
-4.55394
0
LINE
8
BLACK
6
CONTINUOUS
10
4.47081
20
-4.55394
11
4.47567
21
-4.55989
0
LINE
8
BLACK
6
CONTINUOUS
10
4.47567
20
-4.55989
11
4.47928
21
-4.56667
0
LINE
8
BLACK
6
CONTINUOUS
10
4.47928
20
-4.56667
11
4.4815
21
-4.57403
0
LINE
8
BLACK
6
CONTINUOUS
10
4.4815
20
-4.57403
11
4.48225
21
-4.58168
0
LINE
8
BLACK
6
CONTINUOUS
10
4.48225
20
-4.58168
11
4.48223
21
-4.58278
0
LINE
8
BLACK
6
CONTINUOUS
10
4.48223
20
-4.58278
11
4.48127
21
-4.5904
0
LINE
8
BLACK
6
CONTINUOUS
10
4.48127
20
-4.5904
11
4.47884
21
-4.59769
0
LINE
8
BLACK
6
CONTINUOUS
10
4.47884
20
-4.59769
11
4.47505
21
-4.60437
0
LINE
8
BLACK
6
CONTINUOUS
10
4.47505
20
-4.60437
11
4.47003
21
-4.61019
0
LINE
8
BLACK
6
CONTINUOUS
10
4.47003
20
-4.61019
11
4.46397
21
-4.61492
0
LINE
8
BLACK
6
CONTINUOUS
10
4.46397
20
-4.61492
11
4.45712
21
-4.61838
0
LINE
8
BLACK
6
CONTINUOUS
10
4.45712
20
-4.61838
11
4.44971
21
-4.62045
0
LINE
8
BLACK
6
CONTINUOUS
10
4.44971
20
-4.62045
11
4.44205
21
-4.62104
0
LINE
8
BLACK
6
CONTINUOUS
10
4.44205
20
-4.62104
11
4.43442
21
-4.62013
0
LINE
8
BLACK
6
CONTINUOUS
10
4.43442
20
-4.62013
11
4.42712
21
-4.61775
0
LINE
8
BLACK
6
CONTINUOUS
10
4.42712
20
-4.61775
11
4.42041
21
-4.61401
0
LINE
8
BLACK
6
CONTINUOUS
10
4.42041
20
-4.61401
11
4.41456
21
-4.60903
0
LINE
8
BLACK
6
CONTINUOUS
10
4.41456
20
-4.60903
11
4.40978
21
-4.603
0
LINE
8
BLACK
6
CONTINUOUS
10
4.40978
20
-4.603
11
4.40627
21
-4.59617
0
LINE
8
BLACK
6
CONTINUOUS
10
4.40627
20
-4.59617
11
4.40415
21
-4.58878
0
LINE
8
BLACK
6
CONTINUOUS
10
4.40415
20
-4.58878
11
4.40351
21
-4.58113
0
LINE
8
BLACK
6
CONTINUOUS
10
4.40351
20
-4.58113
11
4.40437
21
-4.57349
0
LINE
8
BLACK
6
CONTINUOUS
10
4.40437
20
-4.57349
11
4.40669
21
-4.56617
0
LINE
8
BLACK
6
CONTINUOUS
10
4.40669
20
-4.56617
11
4.41039
21
-4.55943
0
LINE
8
BLACK
6
CONTINUOUS
10
4.41039
20
-4.55943
11
4.41533
21
-4.55355
0
LINE
8
BLACK
6
CONTINUOUS
10
4.41533
20
-4.55355
11
4.42132
21
-4.54873
0
LINE
8
BLACK
6
CONTINUOUS
10
4.42132
20
-4.54873
11
4.42813
21
-4.54517
0
LINE
8
BLACK
6
CONTINUOUS
10
4.42813
20
-4.54517
11
4.4355
21
-4.543
0
LINE
8
BLACK
6
CONTINUOUS
10
4.4355
20
-4.543
11
4.44315
21
-4.54231
0
LINE
8
BLACK
6
CONTINUOUS
10
4.44315
20
-4.54231
11
4.45079
21
-4.54311
0
LINE
8
BLACK
6
CONTINUOUS
10
4.59037
20
-4.48879
11
4.59958
21
-4.49043
0
LINE
8
BLACK
6
CONTINUOUS
10
4.59958
20
-4.49043
11
4.6084
21
-4.49356
0
LINE
8
BLACK
6
CONTINUOUS
10
4.6084
20
-4.49356
11
4.61659
21
-4.49808
0
LINE
8
BLACK
6
CONTINUOUS
10
4.61659
20
-4.49808
11
4.62393
21
-4.50387
0
LINE
8
BLACK
6
CONTINUOUS
10
4.62393
20
-4.50387
11
4.63022
21
-4.51079
0
LINE
8
BLACK
6
CONTINUOUS
10
4.63022
20
-4.51079
11
4.63531
21
-4.51865
0
LINE
8
BLACK
6
CONTINUOUS
10
4.63531
20
-4.51865
11
4.63904
21
-4.52723
0
LINE
8
BLACK
6
CONTINUOUS
10
4.63904
20
-4.52723
11
4.64132
21
-4.5363
0
LINE
8
BLACK
6
CONTINUOUS
10
4.64132
20
-4.5363
11
4.64208
21
-4.54563
0
LINE
8
BLACK
6
CONTINUOUS
10
4.64208
20
-4.54563
11
4.64201
21
-4.54841
0
LINE
8
BLACK
6
CONTINUOUS
10
4.64201
20
-4.54841
11
4.64079
21
-4.55769
0
LINE
8
BLACK
6
CONTINUOUS
10
4.64079
20
-4.55769
11
4.63807
21
-4.56664
0
LINE
8
BLACK
6
CONTINUOUS
10
4.63807
20
-4.56664
11
4.63393
21
-4.57503
0
LINE
8
BLACK
6
CONTINUOUS
10
4.63393
20
-4.57503
11
4.62847
21
-4.58262
0
LINE
8
BLACK
6
CONTINUOUS
10
4.62847
20
-4.58262
11
4.62184
21
-4.58923
0
LINE
8
BLACK
6
CONTINUOUS
10
4.62184
20
-4.58923
11
4.61423
21
-4.59466
0
LINE
8
BLACK
6
CONTINUOUS
10
4.61423
20
-4.59466
11
4.60583
21
-4.59878
0
LINE
8
BLACK
6
CONTINUOUS
10
4.60583
20
-4.59878
11
4.59686
21
-4.60146
0
LINE
8
BLACK
6
CONTINUOUS
10
4.59686
20
-4.60146
11
4.58759
21
-4.60265
0
LINE
8
BLACK
6
CONTINUOUS
10
4.58759
20
-4.60265
11
4.57824
21
-4.60231
0
LINE
8
BLACK
6
CONTINUOUS
10
4.57824
20
-4.60231
11
4.56907
21
-4.60045
0
LINE
8
BLACK
6
CONTINUOUS
10
4.56907
20
-4.60045
11
4.56033
21
-4.59711
0
LINE
8
BLACK
6
CONTINUOUS
10
4.56033
20
-4.59711
11
4.55225
21
-4.59239
0
LINE
8
BLACK
6
CONTINUOUS
10
4.55225
20
-4.59239
11
4.54505
21
-4.58641
0
LINE
8
BLACK
6
CONTINUOUS
10
4.54505
20
-4.58641
11
4.53893
21
-4.57934
0
LINE
8
BLACK
6
CONTINUOUS
10
4.53893
20
-4.57934
11
4.53404
21
-4.57136
0
LINE
8
BLACK
6
CONTINUOUS
10
4.53404
20
-4.57136
11
4.53052
21
-4.5627
0
LINE
8
BLACK
6
CONTINUOUS
10
4.53052
20
-4.5627
11
4.52846
21
-4.55357
0
LINE
8
BLACK
6
CONTINUOUS
10
4.52846
20
-4.55357
11
4.52793
21
-4.54423
0
LINE
8
BLACK
6
CONTINUOUS
10
4.52793
20
-4.54423
11
4.52892
21
-4.53493
0
LINE
8
BLACK
6
CONTINUOUS
10
4.52892
20
-4.53493
11
4.53142
21
-4.52591
0
LINE
8
BLACK
6
CONTINUOUS
10
4.53142
20
-4.52591
11
4.53536
21
-4.51743
0
LINE
8
BLACK
6
CONTINUOUS
10
4.53536
20
-4.51743
11
4.54063
21
-4.5097
0
LINE
8
BLACK
6
CONTINUOUS
10
4.54063
20
-4.5097
11
4.54709
21
-4.50294
0
LINE
8
BLACK
6
CONTINUOUS
10
4.54709
20
-4.50294
11
4.55458
21
-4.49732
0
LINE
8
BLACK
6
CONTINUOUS
10
4.55458
20
-4.49732
11
4.56287
21
-4.493
0
LINE
8
BLACK
6
CONTINUOUS
10
4.56287
20
-4.493
11
4.57177
21
-4.49009
0
LINE
8
BLACK
6
CONTINUOUS
10
4.57177
20
-4.49009
11
4.58101
21
-4.48868
0
LINE
8
BLACK
6
CONTINUOUS
10
4.58101
20
-4.48868
11
4.59037
21
-4.48879
0
LINE
8
BLACK
6
CONTINUOUS
10
4.73503
20
-4.47101
11
4.74237
21
-4.47328
0
LINE
8
BLACK
6
CONTINUOUS
10
4.74237
20
-4.47328
11
4.74913
21
-4.47693
0
LINE
8
BLACK
6
CONTINUOUS
10
4.74913
20
-4.47693
11
4.75505
21
-4.48183
0
LINE
8
BLACK
6
CONTINUOUS
10
4.75505
20
-4.48183
11
4.7599
21
-4.48779
0
LINE
8
BLACK
6
CONTINUOUS
10
4.7599
20
-4.48779
11
4.76351
21
-4.49457
0
LINE
8
BLACK
6
CONTINUOUS
10
4.76351
20
-4.49457
11
4.76573
21
-4.50193
0
LINE
8
BLACK
6
CONTINUOUS
10
4.76573
20
-4.50193
11
4.76648
21
-4.50957
0
LINE
8
BLACK
6
CONTINUOUS
10
4.76648
20
-4.50957
11
4.76647
21
-4.51067
0
LINE
8
BLACK
6
CONTINUOUS
10
4.76647
20
-4.51067
11
4.7655
21
-4.5183
0
LINE
8
BLACK
6
CONTINUOUS
10
4.7655
20
-4.5183
11
4.76308
21
-4.52559
0
LINE
8
BLACK
6
CONTINUOUS
10
4.76308
20
-4.52559
11
4.75928
21
-4.53227
0
LINE
8
BLACK
6
CONTINUOUS
10
4.75928
20
-4.53227
11
4.75426
21
-4.53808
0
LINE
8
BLACK
6
CONTINUOUS
10
4.75426
20
-4.53808
11
4.74821
21
-4.54282
0
LINE
8
BLACK
6
CONTINUOUS
10
4.74821
20
-4.54282
11
4.74135
21
-4.54628
0
LINE
8
BLACK
6
CONTINUOUS
10
4.74135
20
-4.54628
11
4.73395
21
-4.54835
0
LINE
8
BLACK
6
CONTINUOUS
10
4.73395
20
-4.54835
11
4.72629
21
-4.54894
0
LINE
8
BLACK
6
CONTINUOUS
10
4.72629
20
-4.54894
11
4.71866
21
-4.54803
0
LINE
8
BLACK
6
CONTINUOUS
10
4.71866
20
-4.54803
11
4.71135
21
-4.54565
0
LINE
8
BLACK
6
CONTINUOUS
10
4.71135
20
-4.54565
11
4.70464
21
-4.5419
0
LINE
8
BLACK
6
CONTINUOUS
10
4.70464
20
-4.5419
11
4.69879
21
-4.53692
0
LINE
8
BLACK
6
CONTINUOUS
10
4.69879
20
-4.53692
11
4.69402
21
-4.5309
0
LINE
8
BLACK
6
CONTINUOUS
10
4.69402
20
-4.5309
11
4.69051
21
-4.52407
0
LINE
8
BLACK
6
CONTINUOUS
10
4.69051
20
-4.52407
11
4.68839
21
-4.51668
0
LINE
8
BLACK
6
CONTINUOUS
10
4.68839
20
-4.51668
11
4.68775
21
-4.50902
0
LINE
8
BLACK
6
CONTINUOUS
10
4.68775
20
-4.50902
11
4.6886
21
-4.50139
0
LINE
8
BLACK
6
CONTINUOUS
10
4.6886
20
-4.50139
11
4.69093
21
-4.49406
0
LINE
8
BLACK
6
CONTINUOUS
10
4.69093
20
-4.49406
11
4.69463
21
-4.48733
0
LINE
8
BLACK
6
CONTINUOUS
10
4.69463
20
-4.48733
11
4.69957
21
-4.48145
0
LINE
8
BLACK
6
CONTINUOUS
10
4.69957
20
-4.48145
11
4.70556
21
-4.47663
0
LINE
8
BLACK
6
CONTINUOUS
10
4.70556
20
-4.47663
11
4.71236
21
-4.47307
0
LINE
8
BLACK
6
CONTINUOUS
10
4.71236
20
-4.47307
11
4.71974
21
-4.4709
0
LINE
8
BLACK
6
CONTINUOUS
10
4.71974
20
-4.4709
11
4.72739
21
-4.4702
0
LINE
8
BLACK
6
CONTINUOUS
10
4.72739
20
-4.4702
11
4.73503
21
-4.47101
0
LINE
8
BLACK
6
CONTINUOUS
10
4.4843
20
-4.38273
11
4.49351
21
-4.38437
0
LINE
8
BLACK
6
CONTINUOUS
10
4.49351
20
-4.38437
11
4.50233
21
-4.38749
0
LINE
8
BLACK
6
CONTINUOUS
10
4.50233
20
-4.38749
11
4.51052
21
-4.39201
0
LINE
8
BLACK
6
CONTINUOUS
10
4.51052
20
-4.39201
11
4.51786
21
-4.39781
0
LINE
8
BLACK
6
CONTINUOUS
10
4.51786
20
-4.39781
11
4.52416
21
-4.40473
0
LINE
8
BLACK
6
CONTINUOUS
10
4.52416
20
-4.40473
11
4.52924
21
-4.41258
0
LINE
8
BLACK
6
CONTINUOUS
10
4.52924
20
-4.41258
11
4.53297
21
-4.42116
0
LINE
8
BLACK
6
CONTINUOUS
10
4.53297
20
-4.42116
11
4.53525
21
-4.43024
0
LINE
8
BLACK
6
CONTINUOUS
10
4.53525
20
-4.43024
11
4.53602
21
-4.43956
0
LINE
8
BLACK
6
CONTINUOUS
10
4.53602
20
-4.43956
11
4.53595
21
-4.44235
0
LINE
8
BLACK
6
CONTINUOUS
10
4.53595
20
-4.44235
11
4.53473
21
-4.45162
0
LINE
8
BLACK
6
CONTINUOUS
10
4.53473
20
-4.45162
11
4.53201
21
-4.46057
0
LINE
8
BLACK
6
CONTINUOUS
10
4.53201
20
-4.46057
11
4.52786
21
-4.46896
0
LINE
8
BLACK
6
CONTINUOUS
10
4.52786
20
-4.46896
11
4.5224
21
-4.47656
0
LINE
8
BLACK
6
CONTINUOUS
10
4.5224
20
-4.47656
11
4.51578
21
-4.48316
0
LINE
8
BLACK
6
CONTINUOUS
10
4.51578
20
-4.48316
11
4.50816
21
-4.48859
0
LINE
8
BLACK
6
CONTINUOUS
10
4.50816
20
-4.48859
11
4.49976
21
-4.49271
0
LINE
8
BLACK
6
CONTINUOUS
10
4.49976
20
-4.49271
11
4.4908
21
-4.4954
0
LINE
8
BLACK
6
CONTINUOUS
10
4.4908
20
-4.4954
11
4.48152
21
-4.49659
0
LINE
8
BLACK
6
CONTINUOUS
10
4.48152
20
-4.49659
11
4.47217
21
-4.49624
0
LINE
8
BLACK
6
CONTINUOUS
10
4.47217
20
-4.49624
11
4.463
21
-4.49438
0
LINE
8
BLACK
6
CONTINUOUS
10
4.463
20
-4.49438
11
4.45426
21
-4.49104
0
LINE
8
BLACK
6
CONTINUOUS
10
4.45426
20
-4.49104
11
4.44619
21
-4.48632
0
LINE
8
BLACK
6
CONTINUOUS
10
4.44619
20
-4.48632
11
4.43899
21
-4.48035
0
LINE
8
BLACK
6
CONTINUOUS
10
4.43899
20
-4.48035
11
4.43286
21
-4.47328
0
LINE
8
BLACK
6
CONTINUOUS
10
4.43286
20
-4.47328
11
4.42797
21
-4.4653
0
LINE
8
BLACK
6
CONTINUOUS
10
4.42797
20
-4.4653
11
4.42446
21
-4.45663
0
LINE
8
BLACK
6
CONTINUOUS
10
4.42446
20
-4.45663
11
4.4224
21
-4.4475
0
LINE
8
BLACK
6
CONTINUOUS
10
4.4224
20
-4.4475
11
4.42186
21
-4.43816
0
LINE
8
BLACK
6
CONTINUOUS
10
4.42186
20
-4.43816
11
4.42285
21
-4.42886
0
LINE
8
BLACK
6
CONTINUOUS
10
4.42285
20
-4.42886
11
4.42535
21
-4.41985
0
LINE
8
BLACK
6
CONTINUOUS
10
4.42535
20
-4.41985
11
4.42929
21
-4.41136
0
LINE
8
BLACK
6
CONTINUOUS
10
4.42929
20
-4.41136
11
4.43456
21
-4.40363
0
LINE
8
BLACK
6
CONTINUOUS
10
4.43456
20
-4.40363
11
4.44103
21
-4.39687
0
LINE
8
BLACK
6
CONTINUOUS
10
4.44103
20
-4.39687
11
4.44851
21
-4.39125
0
LINE
8
BLACK
6
CONTINUOUS
10
4.44851
20
-4.39125
11
4.45681
21
-4.38693
0
LINE
8
BLACK
6
CONTINUOUS
10
4.45681
20
-4.38693
11
4.4657
21
-4.38403
0
LINE
8
BLACK
6
CONTINUOUS
10
4.4657
20
-4.38403
11
4.47495
21
-4.38261
0
LINE
8
BLACK
6
CONTINUOUS
10
4.47495
20
-4.38261
11
4.4843
21
-4.38273
0
LINE
8
BLACK
6
CONTINUOUS
10
6.47923
20
-4.28766
11
6.48818
21
-4.29006
0
LINE
8
BLACK
6
CONTINUOUS
10
6.48818
20
-4.29006
11
6.49657
21
-4.29397
0
LINE
8
BLACK
6
CONTINUOUS
10
6.49657
20
-4.29397
11
6.50416
21
-4.29929
0
LINE
8
BLACK
6
CONTINUOUS
10
6.50416
20
-4.29929
11
6.51071
21
-4.30584
0
LINE
8
BLACK
6
CONTINUOUS
10
6.51071
20
-4.30584
11
6.51603
21
-4.31343
0
LINE
8
BLACK
6
CONTINUOUS
10
6.51603
20
-4.31343
11
6.51994
21
-4.32182
0
LINE
8
BLACK
6
CONTINUOUS
10
6.51994
20
-4.32182
11
6.52234
21
-4.33077
0
LINE
8
BLACK
6
CONTINUOUS
10
6.52234
20
-4.33077
11
6.52315
21
-4.34
0
LINE
8
BLACK
6
CONTINUOUS
10
6.52315
20
-4.34
11
6.52234
21
-4.34923
0
LINE
8
BLACK
6
CONTINUOUS
10
6.52234
20
-4.34923
11
6.51994
21
-4.35818
0
LINE
8
BLACK
6
CONTINUOUS
10
6.51994
20
-4.35818
11
6.51603
21
-4.36657
0
LINE
8
BLACK
6
CONTINUOUS
10
6.51603
20
-4.36657
11
6.51071
21
-4.37416
0
LINE
8
BLACK
6
CONTINUOUS
10
6.51071
20
-4.37416
11
6.50416
21
-4.38071
0
LINE
8
BLACK
6
CONTINUOUS
10
6.50416
20
-4.38071
11
6.49657
21
-4.38603
0
LINE
8
BLACK
6
CONTINUOUS
10
6.49657
20
-4.38603
11
6.48818
21
-4.38994
0
LINE
8
BLACK
6
CONTINUOUS
10
6.48818
20
-4.38994
11
6.47923
21
-4.39234
0
LINE
8
BLACK
6
CONTINUOUS
10
6.47923
20
-4.39234
11
6.47
21
-4.39315
0
LINE
8
BLACK
6
CONTINUOUS
10
6.47
20
-4.39315
11
6.46077
21
-4.39234
0
LINE
8
BLACK
6
CONTINUOUS
10
6.46077
20
-4.39234
11
6.45182
21
-4.38994
0
LINE
8
BLACK
6
CONTINUOUS
10
6.45182
20
-4.38994
11
6.44343
21
-4.38603
0
LINE
8
BLACK
6
CONTINUOUS
10
6.44343
20
-4.38603
11
6.43584
21
-4.38071
0
LINE
8
BLACK
6
CONTINUOUS
10
6.43584
20
-4.38071
11
6.42929
21
-4.37416
0
LINE
8
BLACK
6
CONTINUOUS
10
6.42929
20
-4.37416
11
6.42397
21
-4.36657
0
LINE
8
BLACK
6
CONTINUOUS
10
6.42397
20
-4.36657
11
6.42006
21
-4.35818
0
LINE
8
BLACK
6
CONTINUOUS
10
6.42006
20
-4.35818
11
6.41766
21
-4.34923
0
LINE
8
BLACK
6
CONTINUOUS
10
6.41766
20
-4.34923
11
6.41685
21
-4.34
0
LINE
8
BLACK
6
CONTINUOUS
10
6.41685
20
-4.34
11
6.41766
21
-4.33077
0
LINE
8
BLACK
6
CONTINUOUS
10
6.41766
20
-4.33077
11
6.42006
21
-4.32182
0
LINE
8
BLACK
6
CONTINUOUS
10
6.42006
20
-4.32182
11
6.42397
21
-4.31343
0
LINE
8
BLACK
6
CONTINUOUS
10
6.42397
20
-4.31343
11
6.42929
21
-4.30584
0
LINE
8
BLACK
6
CONTINUOUS
10
6.42929
20
-4.30584
11
6.43584
21
-4.29929
0
LINE
8
BLACK
6
CONTINUOUS
10
6.43584
20
-4.29929
11
6.44343
21
-4.29397
0
LINE
8
BLACK
6
CONTINUOUS
10
6.44343
20
-4.29397
11
6.45182
21
-4.29006
0
LINE
8
BLACK
6
CONTINUOUS
10
6.45182
20
-4.29006
11
6.46077
21
-4.28766
0
LINE
8
BLACK
6
CONTINUOUS
10
6.46077
20
-4.28766
11
6.47
21
-4.28685
0
LINE
8
BLACK
6
CONTINUOUS
10
6.47
20
-4.28685
11
6.47923
21
-4.28766
0
LINE
8
BLACK
6
CONTINUOUS
10
4.37824
20
-4.27666
11
4.38745
21
-4.2783
0
LINE
8
BLACK
6
CONTINUOUS
10
4.38745
20
-4.2783
11
4.39626
21
-4.28142
0
LINE
8
BLACK
6
CONTINUOUS
10
4.39626
20
-4.28142
11
4.40445
21
-4.28594
0
LINE
8
BLACK
6
CONTINUOUS
10
4.40445
20
-4.28594
11
4.4118
21
-4.29174
0
LINE
8
BLACK
6
CONTINUOUS
10
4.4118
20
-4.29174
11
4.41809
21
-4.29866
0
LINE
8
BLACK
6
CONTINUOUS
10
4.41809
20
-4.29866
11
4.42317
21
-4.30652
0
LINE
8
BLACK
6
CONTINUOUS
10
4.42317
20
-4.30652
11
4.4269
21
-4.3151
0
LINE
8
BLACK
6
CONTINUOUS
10
4.4269
20
-4.3151
11
4.42918
21
-4.32417
0
LINE
8
BLACK
6
CONTINUOUS
10
4.42918
20
-4.32417
11
4.42995
21
-4.33349
0
LINE
8
BLACK
6
CONTINUOUS
10
4.42995
20
-4.33349
11
4.42988
21
-4.33628
0
LINE
8
BLACK
6
CONTINUOUS
10
4.42988
20
-4.33628
11
4.42866
21
-4.34556
0
LINE
8
BLACK
6
CONTINUOUS
10
4.42866
20
-4.34556
11
4.42594
21
-4.35451
0
LINE
8
BLACK
6
CONTINUOUS
10
4.42594
20
-4.35451
11
4.4218
21
-4.3629
0
LINE
8
BLACK
6
CONTINUOUS
10
4.4218
20
-4.3629
11
4.41634
21
-4.37049
0
LINE
8
BLACK
6
CONTINUOUS
10
4.41634
20
-4.37049
11
4.40971
21
-4.3771
0
LINE
8
BLACK
6
CONTINUOUS
10
4.40971
20
-4.3771
11
4.40209
21
-4.38253
0
LINE
8
BLACK
6
CONTINUOUS
10
4.40209
20
-4.38253
11
4.39369
21
-4.38664
0
LINE
8
BLACK
6
CONTINUOUS
10
4.39369
20
-4.38664
11
4.38473
21
-4.38933
0
LINE
8
BLACK
6
CONTINUOUS
10
4.38473
20
-4.38933
11
4.37545
21
-4.39052
0
LINE
8
BLACK
6
CONTINUOUS
10
4.37545
20
-4.39052
11
4.3661
21
-4.39018
0
LINE
8
BLACK
6
CONTINUOUS
10
4.3661
20
-4.39018
11
4.35694
21
-4.38831
0
LINE
8
BLACK
6
CONTINUOUS
10
4.35694
20
-4.38831
11
4.3482
21
-4.38498
0
LINE
8
BLACK
6
CONTINUOUS
10
4.3482
20
-4.38498
11
4.34012
21
-4.38026
0
LINE
8
BLACK
6
CONTINUOUS
10
4.34012
20
-4.38026
11
4.33292
21
-4.37428
0
LINE
8
BLACK
6
CONTINUOUS
10
4.33292
20
-4.37428
11
4.3268
21
-4.36721
0
LINE
8
BLACK
6
CONTINUOUS
10
4.3268
20
-4.36721
11
4.32191
21
-4.35923
0
LINE
8
BLACK
6
CONTINUOUS
10
4.32191
20
-4.35923
11
4.31839
21
-4.35056
0
LINE
8
BLACK
6
CONTINUOUS
10
4.31839
20
-4.35056
11
4.31633
21
-4.34144
0
LINE
8
BLACK
6
CONTINUOUS
10
4.31633
20
-4.34144
11
4.31579
21
-4.3321
0
LINE
8
BLACK
6
CONTINUOUS
10
4.31579
20
-4.3321
11
4.31679
21
-4.3228
0
LINE
8
BLACK
6
CONTINUOUS
10
4.31679
20
-4.3228
11
4.31929
21
-4.31378
0
LINE
8
BLACK
6
CONTINUOUS
10
4.31929
20
-4.31378
11
4.32323
21
-4.3053
0
LINE
8
BLACK
6
CONTINUOUS
10
4.32323
20
-4.3053
11
4.3285
21
-4.29757
0
LINE
8
BLACK
6
CONTINUOUS
10
4.3285
20
-4.29757
11
4.33496
21
-4.2908
0
LINE
8
BLACK
6
CONTINUOUS
10
4.33496
20
-4.2908
11
4.34244
21
-4.28519
0
LINE
8
BLACK
6
CONTINUOUS
10
4.34244
20
-4.28519
11
4.35074
21
-4.28087
0
LINE
8
BLACK
6
CONTINUOUS
10
4.35074
20
-4.28087
11
4.35963
21
-4.27796
0
LINE
8
BLACK
6
CONTINUOUS
10
4.35963
20
-4.27796
11
4.36888
21
-4.27655
0
LINE
8
BLACK
6
CONTINUOUS
10
4.36888
20
-4.27655
11
4.37824
21
-4.27666
0
LINE
8
BLACK
6
CONTINUOUS
10
4.5229
20
-4.25888
11
4.53024
21
-4.26115
0
LINE
8
BLACK
6
CONTINUOUS
10
4.53024
20
-4.26115
11
4.537
21
-4.2648
0
LINE
8
BLACK
6
CONTINUOUS
10
4.537
20
-4.2648
11
4.54292
21
-4.2697
0
LINE
8
BLACK
6
CONTINUOUS
10
4.54292
20
-4.2697
11
4.54777
21
-4.27565
0
LINE
8
BLACK
6
CONTINUOUS
10
4.54777
20
-4.27565
11
4.55138
21
-4.28244
0
LINE
8
BLACK
6
CONTINUOUS
10
4.55138
20
-4.28244
11
4.5536
21
-4.2898
0
LINE
8
BLACK
6
CONTINUOUS
10
4.5536
20
-4.2898
11
4.55435
21
-4.29744
0
LINE
8
BLACK
6
CONTINUOUS
10
4.55435
20
-4.29744
11
4.55434
21
-4.29854
0
LINE
8
BLACK
6
CONTINUOUS
10
4.55434
20
-4.29854
11
4.55337
21
-4.30616
0
LINE
8
BLACK
6
CONTINUOUS
10
4.55337
20
-4.30616
11
4.55095
21
-4.31346
0
LINE
8
BLACK
6
CONTINUOUS
10
4.55095
20
-4.31346
11
4.54715
21
-4.32014
0
LINE
8
BLACK
6
CONTINUOUS
10
4.54715
20
-4.32014
11
4.54213
21
-4.32595
0
LINE
8
BLACK
6
CONTINUOUS
10
4.54213
20
-4.32595
11
4.53608
21
-4.33068
0
LINE
8
BLACK
6
CONTINUOUS
10
4.53608
20
-4.33068
11
4.52922
21
-4.33415
0
LINE
8
BLACK
6
CONTINUOUS
10
4.52922
20
-4.33415
11
4.52182
21
-4.33621
0
LINE
8
BLACK
6
CONTINUOUS
10
4.52182
20
-4.33621
11
4.51416
21
-4.3368
0
LINE
8
BLACK
6
CONTINUOUS
10
4.51416
20
-4.3368
11
4.50653
21
-4.33589
0
LINE
8
BLACK
6
CONTINUOUS
10
4.50653
20
-4.33589
11
4.49922
21
-4.33352
0
LINE
8
BLACK
6
CONTINUOUS
10
4.49922
20
-4.33352
11
4.49251
21
-4.32977
0
LINE
8
BLACK
6
CONTINUOUS
10
4.49251
20
-4.32977
11
4.48666
21
-4.32479
0
LINE
8
BLACK
6
CONTINUOUS
10
4.48666
20
-4.32479
11
4.48189
21
-4.31877
0
LINE
8
BLACK
6
CONTINUOUS
10
4.48189
20
-4.31877
11
4.47838
21
-4.31194
0
LINE
8
BLACK
6
CONTINUOUS
10
4.47838
20
-4.31194
11
4.47626
21
-4.30455
0
LINE
8
BLACK
6
CONTINUOUS
10
4.47626
20
-4.30455
11
4.47561
21
-4.29689
0
LINE
8
BLACK
6
CONTINUOUS
10
4.47561
20
-4.29689
11
4.47647
21
-4.28926
0
LINE
8
BLACK
6
CONTINUOUS
10
4.47647
20
-4.28926
11
4.47879
21
-4.28193
0
LINE
8
BLACK
6
CONTINUOUS
10
4.47879
20
-4.28193
11
4.4825
21
-4.2752
0
LINE
8
BLACK
6
CONTINUOUS
10
4.4825
20
-4.2752
11
4.48743
21
-4.26931
0
LINE
8
BLACK
6
CONTINUOUS
10
4.48743
20
-4.26931
11
4.49342
21
-4.2645
0
LINE
8
BLACK
6
CONTINUOUS
10
4.49342
20
-4.2645
11
4.50023
21
-4.26094
0
LINE
8
BLACK
6
CONTINUOUS
10
4.50023
20
-4.26094
11
4.5076
21
-4.25877
0
LINE
8
BLACK
6
CONTINUOUS
10
4.5076
20
-4.25877
11
4.51526
21
-4.25807
0
LINE
8
BLACK
6
CONTINUOUS
10
4.51526
20
-4.25807
11
4.5229
21
-4.25888
0
LINE
8
BLACK
6
CONTINUOUS
10
6.9888
20
-3.49544
11
6.99058
21
-3.49658
0
LINE
8
BLACK
6
CONTINUOUS
10
6.99058
20
-3.49658
11
7.34049
21
-3.84649
0
LINE
8
BLACK
6
CONTINUOUS
10
7.34049
20
-3.84649
11
7.34183
21
-3.84895
0
LINE
8
BLACK
6
CONTINUOUS
10
7.34183
20
-3.84895
11
7.34163
21
-3.85173
0
LINE
8
BLACK
6
CONTINUOUS
10
7.34163
20
-3.85173
11
7.34049
21
-3.85351
0
LINE
8
BLACK
6
CONTINUOUS
10
7.34049
20
-3.85351
11
7.0552
21
-4.1388
0
LINE
8
BLACK
6
CONTINUOUS
10
7.0552
20
-4.1388
11
7.05275
21
-4.14014
0
LINE
8
BLACK
6
CONTINUOUS
10
7.05275
20
-4.14014
11
7.04996
21
-4.13994
0
LINE
8
BLACK
6
CONTINUOUS
10
7.04996
20
-4.13994
11
7.04818
21
-4.1388
0
LINE
8
BLACK
6
CONTINUOUS
10
7.04818
20
-4.1388
11
6.69827
21
-3.78889
0
LINE
8
BLACK
6
CONTINUOUS
10
6.69827
20
-3.78889
11
6.69693
21
-3.78643
0
LINE
8
BLACK
6
CONTINUOUS
10
6.69693
20
-3.78643
11
6.69713
21
-3.78365
0
LINE
8
BLACK
6
CONTINUOUS
10
6.69713
20
-3.78365
11
6.69827
21
-3.78187
0
LINE
8
BLACK
6
CONTINUOUS
10
6.69827
20
-3.78187
11
6.98356
21
-3.49658
0
LINE
8
BLACK
6
CONTINUOUS
10
6.98356
20
-3.49658
11
6.98602
21
-3.49524
0
LINE
8
BLACK
6
CONTINUOUS
10
6.98602
20
-3.49524
11
6.9888
21
-3.49544
0
LINE
8
BLACK
6
CONTINUOUS
10
6.23053
20
-3.3862
11
6.23136
21
-3.38687
0
LINE
8
BLACK
6
CONTINUOUS
10
6.23136
20
-3.38687
11
6.46508
21
-3.62059
0
LINE
8
BLACK
6
CONTINUOUS
10
6.46508
20
-3.62059
11
6.46642
21
-3.62305
0
LINE
8
BLACK
6
CONTINUOUS
10
6.46642
20
-3.62305
11
6.46654
21
-3.6241
0
LINE
8
BLACK
6
CONTINUOUS
10
6.46654
20
-3.6241
11
6.46654
21
-3.67567
0
LINE
8
BLACK
6
CONTINUOUS
10
6.46654
20
-3.67567
11
6.46575
21
-3.67835
0
LINE
8
BLACK
6
CONTINUOUS
10
6.46575
20
-3.67835
11
6.46508
21
-3.67918
0
LINE
8
BLACK
6
CONTINUOUS
10
6.46508
20
-3.67918
11
6.19656
21
-3.9477
0
LINE
8
BLACK
6
CONTINUOUS
10
6.19656
20
-3.9477
11
6.19411
21
-3.94904
0
LINE
8
BLACK
6
CONTINUOUS
10
6.19411
20
-3.94904
11
6.19305
21
-3.94915
0
LINE
8
BLACK
6
CONTINUOUS
10
6.19305
20
-3.94915
11
6.14148
21
-3.94915
0
LINE
8
BLACK
6
CONTINUOUS
10
6.14148
20
-3.94915
11
6.1388
21
-3.94837
0
LINE
8
BLACK
6
CONTINUOUS
10
6.1388
20
-3.94837
11
6.13798
21
-3.9477
0
LINE
8
BLACK
6
CONTINUOUS
10
6.13798
20
-3.9477
11
5.90425
21
-3.71398
0
LINE
8
BLACK
6
CONTINUOUS
10
5.90425
20
-3.71398
11
5.90291
21
-3.71152
0
LINE
8
BLACK
6
CONTINUOUS
10
5.90291
20
-3.71152
11
5.9028
21
-3.71047
0
LINE
8
BLACK
6
CONTINUOUS
10
5.9028
20
-3.71047
11
5.9028
21
-3.6589
0
LINE
8
BLACK
6
CONTINUOUS
10
5.9028
20
-3.6589
11
5.90359
21
-3.65622
0
LINE
8
BLACK
6
CONTINUOUS
10
5.90359
20
-3.65622
11
5.90425
21
-3.65539
0
LINE
8
BLACK
6
CONTINUOUS
10
5.90425
20
-3.65539
11
6.17277
21
-3.38687
0
LINE
8
BLACK
6
CONTINUOUS
10
6.17277
20
-3.38687
11
6.17523
21
-3.38553
0
LINE
8
BLACK
6
CONTINUOUS
10
6.17523
20
-3.38553
11
6.17628
21
-3.38542
0
LINE
8
BLACK
6
CONTINUOUS
10
6.17628
20
-3.38542
11
6.22785
21
-3.38542
0
LINE
8
BLACK
6
CONTINUOUS
10
6.22785
20
-3.38542
11
6.23053
21
-3.3862
0
LINE
8
BLACK
6
CONTINUOUS
10
7.33087
20
-3.38997
11
7.34632
21
-3.39157
0
LINE
8
BLACK
6
CONTINUOUS
10
7.34632
20
-3.39157
11
7.36154
21
-3.39472
0
LINE
8
BLACK
6
CONTINUOUS
10
7.36154
20
-3.39472
11
7.37636
21
-3.39939
0
LINE
8
BLACK
6
CONTINUOUS
10
7.37636
20
-3.39939
11
7.39062
21
-3.40554
0
LINE
8
BLACK
6
CONTINUOUS
10
7.39062
20
-3.40554
11
7.4042
21
-3.41309
0
LINE
8
BLACK
6
CONTINUOUS
10
7.4042
20
-3.41309
11
7.41694
21
-3.42198
0
LINE
8
BLACK
6
CONTINUOUS
10
7.41694
20
-3.42198
11
7.42872
21
-3.43212
0
LINE
8
BLACK
6
CONTINUOUS
10
7.42872
20
-3.43212
11
7.43942
21
-3.44339
0
LINE
8
BLACK
6
CONTINUOUS
10
7.43942
20
-3.44339
11
7.44892
21
-3.45568
0
LINE
8
BLACK
6
CONTINUOUS
10
7.44892
20
-3.45568
11
7.45713
21
-3.46887
0
LINE
8
BLACK
6
CONTINUOUS
10
7.45713
20
-3.46887
11
7.46396
21
-3.48282
0
LINE
8
BLACK
6
CONTINUOUS
10
7.46396
20
-3.48282
11
7.46935
21
-3.49739
0
LINE
8
BLACK
6
CONTINUOUS
10
7.46935
20
-3.49739
11
7.47324
21
-3.51243
0
LINE
8
BLACK
6
CONTINUOUS
10
7.47324
20
-3.51243
11
7.47559
21
-3.52779
0
LINE
8
BLACK
6
CONTINUOUS
10
7.47559
20
-3.52779
11
7.47638
21
-3.54331
0
LINE
8
BLACK
6
CONTINUOUS
10
7.47638
20
-3.54331
11
7.47637
21
-3.54438
0
LINE
8
BLACK
6
CONTINUOUS
10
7.47637
20
-3.54438
11
7.47548
21
-3.55989
0
LINE
8
BLACK
6
CONTINUOUS
10
7.47548
20
-3.55989
11
7.47302
21
-3.57523
0
LINE
8
BLACK
6
CONTINUOUS
10
7.47302
20
-3.57523
11
7.46903
21
-3.59024
0
LINE
8
BLACK
6
CONTINUOUS
10
7.46903
20
-3.59024
11
7.46354
21
-3.60478
0
LINE
8
BLACK
6
CONTINUOUS
10
7.46354
20
-3.60478
11
7.4566
21
-3.61868
0
LINE
8
BLACK
6
CONTINUOUS
10
7.4566
20
-3.61868
11
7.4483
21
-3.63181
0
LINE
8
BLACK
6
CONTINUOUS
10
7.4483
20
-3.63181
11
7.43872
21
-3.64404
0
LINE
8
BLACK
6
CONTINUOUS
10
7.43872
20
-3.64404
11
7.42794
21
-3.65524
0
LINE
8
BLACK
6
CONTINUOUS
10
7.42794
20
-3.65524
11
7.41609
21
-3.66528
0
LINE
8
BLACK
6
CONTINUOUS
10
7.41609
20
-3.66528
11
7.40329
21
-3.67408
0
LINE
8
BLACK
6
CONTINUOUS
10
7.40329
20
-3.67408
11
7.38966
21
-3.68154
0
LINE
8
BLACK
6
CONTINUOUS
10
7.38966
20
-3.68154
11
7.37535
21
-3.68759
0
LINE
8
BLACK
6
CONTINUOUS
10
7.37535
20
-3.68759
11
7.3605
21
-3.69216
0
LINE
8
BLACK
6
CONTINUOUS
10
7.3605
20
-3.69216
11
7.34526
21
-3.6952
0
LINE
8
BLACK
6
CONTINUOUS
10
7.34526
20
-3.6952
11
7.3298
21
-3.69669
0
LINE
8
BLACK
6
CONTINUOUS
10
7.3298
20
-3.69669
11
7.31426
21
-3.69661
0
LINE
8
BLACK
6
CONTINUOUS
10
7.31426
20
-3.69661
11
7.29882
21
-3.69496
0
LINE
8
BLACK
6
CONTINUOUS
10
7.29882
20
-3.69496
11
7.28361
21
-3.69176
0
LINE
8
BLACK
6
CONTINUOUS
10
7.28361
20
-3.69176
11
7.26881
21
-3.68703
0
LINE
8
BLACK
6
CONTINUOUS
10
7.26881
20
-3.68703
11
7.25456
21
-3.68084
0
LINE
8
BLACK
6
CONTINUOUS
10
7.25456
20
-3.68084
11
7.24102
21
-3.67323
0
LINE
8
BLACK
6
CONTINUOUS
10
7.24102
20
-3.67323
11
7.2283
21
-3.6643
0
LINE
8
BLACK
6
CONTINUOUS
10
7.2283
20
-3.6643
11
7.21656
21
-3.65413
0
LINE
8
BLACK
6
CONTINUOUS
10
7.21656
20
-3.65413
11
7.20591
21
-3.64282
0
LINE
8
BLACK
6
CONTINUOUS
10
7.20591
20
-3.64282
11
7.19645
21
-3.6305
0
LINE
8
BLACK
6
CONTINUOUS
10
7.19645
20
-3.6305
11
7.18828
21
-3.61728
0
LINE
8
BLACK
6
CONTINUOUS
10
7.18828
20
-3.61728
11
7.1815
21
-3.6033
0
LINE
8
BLACK
6
CONTINUOUS
10
7.1815
20
-3.6033
11
7.17616
21
-3.58871
0
LINE
8
BLACK
6
CONTINUOUS
10
7.17616
20
-3.58871
11
7.17232
21
-3.57366
0
LINE
8
BLACK
6
CONTINUOUS
10
7.17232
20
-3.57366
11
7.17002
21
-3.55829
0
LINE
8
BLACK
6
CONTINUOUS
10
7.17002
20
-3.55829
11
7.16929
21
-3.54277
0
LINE
8
BLACK
6
CONTINUOUS
10
7.16929
20
-3.54277
11
7.17013
21
-3.52726
0
LINE
8
BLACK
6
CONTINUOUS
10
7.17013
20
-3.52726
11
7.17254
21
-3.51191
0
LINE
8
BLACK
6
CONTINUOUS
10
7.17254
20
-3.51191
11
7.17648
21
-3.49688
0
LINE
8
BLACK
6
CONTINUOUS
10
7.17648
20
-3.49688
11
7.18192
21
-3.48233
0
LINE
8
BLACK
6
CONTINUOUS
10
7.18192
20
-3.48233
11
7.1888
21
-3.4684
0
LINE
8
BLACK
6
CONTINUOUS
10
7.1888
20
-3.4684
11
7.19706
21
-3.45524
0
LINE
8
BLACK
6
CONTINUOUS
10
7.19706
20
-3.45524
11
7.2066
21
-3.44298
0
LINE
8
BLACK
6
CONTINUOUS
10
7.2066
20
-3.44298
11
7.21734
21
-3.43175
0
LINE
8
BLACK
6
CONTINUOUS
10
7.21734
20
-3.43175
11
7.22915
21
-3.42166
0
LINE
8
BLACK
6
CONTINUOUS
10
7.22915
20
-3.42166
11
7.24192
21
-3.41281
0
LINE
8
BLACK
6
CONTINUOUS
10
7.24192
20
-3.41281
11
7.25553
21
-3.4053
0
LINE
8
BLACK
6
CONTINUOUS
10
7.25553
20
-3.4053
11
7.26982
21
-3.39921
0
LINE
8
BLACK
6
CONTINUOUS
10
7.26982
20
-3.39921
11
7.28465
21
-3.39459
0
LINE
8
BLACK
6
CONTINUOUS
10
7.28465
20
-3.39459
11
7.29987
21
-3.39149
0
LINE
8
BLACK
6
CONTINUOUS
10
7.29987
20
-3.39149
11
7.31533
21
-3.38995
0
LINE
8
BLACK
6
CONTINUOUS
10
7.31533
20
-3.38995
11
7.33087
21
-3.38997
0
LINE
8
BLACK
6
CONTINUOUS
10
4.49622
20
-3.38997
11
4.51168
21
-3.39157
0
LINE
8
BLACK
6
CONTINUOUS
10
4.51168
20
-3.39157
11
4.52689
21
-3.39472
0
LINE
8
BLACK
6
CONTINUOUS
10
4.52689
20
-3.39472
11
4.54171
21
-3.39939
0
LINE
8
BLACK
6
CONTINUOUS
10
4.54171
20
-3.39939
11
4.55598
21
-3.40554
0
LINE
8
BLACK
6
CONTINUOUS
10
4.55598
20
-3.40554
11
4.56955
21
-3.41309
0
LINE
8
BLACK
6
CONTINUOUS
10
4.56955
20
-3.41309
11
4.5823
21
-3.42198
0
LINE
8
BLACK
6
CONTINUOUS
10
4.5823
20
-3.42198
11
4.59408
21
-3.43212
0
LINE
8
BLACK
6
CONTINUOUS
10
4.59408
20
-3.43212
11
4.60477
21
-3.44339
0
LINE
8
BLACK
6
CONTINUOUS
10
4.60477
20
-3.44339
11
4.61427
21
-3.45568
0
LINE
8
BLACK
6
CONTINUOUS
10
4.61427
20
-3.45568
11
4.62248
21
-3.46887
0
LINE
8
BLACK
6
CONTINUOUS
10
4.62248
20
-3.46887
11
4.62932
21
-3.48282
0
LINE
8
BLACK
6
CONTINUOUS
10
4.62932
20
-3.48282
11
4.63471
21
-3.49739
0
LINE
8
BLACK
6
CONTINUOUS
10
4.63471
20
-3.49739
11
4.6386
21
-3.51243
0
LINE
8
BLACK
6
CONTINUOUS
10
4.6386
20
-3.51243
11
4.64095
21
-3.52779
0
LINE
8
BLACK
6
CONTINUOUS
10
4.64095
20
-3.52779
11
4.64173
21
-3.54331
0
LINE
8
BLACK
6
CONTINUOUS
10
4.64173
20
-3.54331
11
4.64173
21
-3.54438
0
LINE
8
BLACK
6
CONTINUOUS
10
4.64173
20
-3.54438
11
4.64083
21
-3.55989
0
LINE
8
BLACK
6
CONTINUOUS
10
4.64083
20
-3.55989
11
4.63838
21
-3.57523
0
LINE
8
BLACK
6
CONTINUOUS
10
4.63838
20
-3.57523
11
4.63438
21
-3.59024
0
LINE
8
BLACK
6
CONTINUOUS
10
4.63438
20
-3.59024
11
4.62889
21
-3.60478
0
LINE
8
BLACK
6
CONTINUOUS
10
4.62889
20
-3.60478
11
4.62196
21
-3.61868
0
LINE
8
BLACK
6
CONTINUOUS
10
4.62196
20
-3.61868
11
4.61366
21
-3.63181
0
LINE
8
BLACK
6
CONTINUOUS
10
4.61366
20
-3.63181
11
4.60407
21
-3.64404
0
LINE
8
BLACK
6
CONTINUOUS
10
4.60407
20
-3.64404
11
4.5933
21
-3.65524
0
LINE
8
BLACK
6
CONTINUOUS
10
4.5933
20
-3.65524
11
4.58145
21
-3.66528
0
LINE
8
BLACK
6
CONTINUOUS
10
4.58145
20
-3.66528
11
4.56864
21
-3.67408
0
LINE
8
BLACK
6
CONTINUOUS
10
4.56864
20
-3.67408
11
4.55502
21
-3.68154
0
LINE
8
BLACK
6
CONTINUOUS
10
4.55502
20
-3.68154
11
4.5407
21
-3.68759
0
LINE
8
BLACK
6
CONTINUOUS
10
4.5407
20
-3.68759
11
4.52585
21
-3.69216
0
LINE
8
BLACK
6
CONTINUOUS
10
4.52585
20
-3.69216
11
4.51062
21
-3.6952
0
LINE
8
BLACK
6
CONTINUOUS
10
4.51062
20
-3.6952
11
4.49515
21
-3.69669
0
LINE
8
BLACK
6
CONTINUOUS
10
4.49515
20
-3.69669
11
4.47962
21
-3.69661
0
LINE
8
BLACK
6
CONTINUOUS
10
4.47962
20
-3.69661
11
4.46417
21
-3.69496
0
LINE
8
BLACK
6
CONTINUOUS
10
4.46417
20
-3.69496
11
4.44897
21
-3.69176
0
LINE
8
BLACK
6
CONTINUOUS
10
4.44897
20
-3.69176
11
4.43417
21
-3.68703
0
LINE
8
BLACK
6
CONTINUOUS
10
4.43417
20
-3.68703
11
4.41992
21
-3.68084
0
LINE
8
BLACK
6
CONTINUOUS
10
4.41992
20
-3.68084
11
4.40637
21
-3.67323
0
LINE
8
BLACK
6
CONTINUOUS
10
4.40637
20
-3.67323
11
4.39366
21
-3.6643
0
LINE
8
BLACK
6
CONTINUOUS
10
4.39366
20
-3.6643
11
4.38192
21
-3.65413
0
LINE
8
BLACK
6
CONTINUOUS
10
4.38192
20
-3.65413
11
4.37126
21
-3.64282
0
LINE
8
BLACK
6
CONTINUOUS
10
4.37126
20
-3.64282
11
4.3618
21
-3.6305
0
LINE
8
BLACK
6
CONTINUOUS
10
4.3618
20
-3.6305
11
4.35364
21
-3.61728
0
LINE
8
BLACK
6
CONTINUOUS
10
4.35364
20
-3.61728
11
4.34685
21
-3.6033
0
LINE
8
BLACK
6
CONTINUOUS
10
4.34685
20
-3.6033
11
4.34151
21
-3.58871
0
LINE
8
BLACK
6
CONTINUOUS
10
4.34151
20
-3.58871
11
4.33767
21
-3.57366
0
LINE
8
BLACK
6
CONTINUOUS
10
4.33767
20
-3.57366
11
4.33538
21
-3.55829
0
LINE
8
BLACK
6
CONTINUOUS
10
4.33538
20
-3.55829
11
4.33465
21
-3.54277
0
LINE
8
BLACK
6
CONTINUOUS
10
4.33465
20
-3.54277
11
4.33549
21
-3.52726
0
LINE
8
BLACK
6
CONTINUOUS
10
4.33549
20
-3.52726
11
4.33789
21
-3.51191
0
LINE
8
BLACK
6
CONTINUOUS
10
4.33789
20
-3.51191
11
4.34183
21
-3.49688
0
LINE
8
BLACK
6
CONTINUOUS
10
4.34183
20
-3.49688
11
4.34727
21
-3.48233
0
LINE
8
BLACK
6
CONTINUOUS
10
4.34727
20
-3.48233
11
4.35416
21
-3.4684
0
LINE
8
BLACK
6
CONTINUOUS
10
4.35416
20
-3.4684
11
4.36241
21
-3.45524
0
LINE
8
BLACK
6
CONTINUOUS
10
4.36241
20
-3.45524
11
4.37196
21
-3.44298
0
LINE
8
BLACK
6
CONTINUOUS
10
4.37196
20
-3.44298
11
4.38269
21
-3.43175
0
LINE
8
BLACK
6
CONTINUOUS
10
4.38269
20
-3.43175
11
4.39451
21
-3.42166
0
LINE
8
BLACK
6
CONTINUOUS
10
4.39451
20
-3.42166
11
4.40728
21
-3.41281
0
LINE
8
BLACK
6
CONTINUOUS
10
4.40728
20
-3.41281
11
4.42088
21
-3.4053
0
LINE
8
BLACK
6
CONTINUOUS
10
4.42088
20
-3.4053
11
4.43517
21
-3.39921
0
LINE
8
BLACK
6
CONTINUOUS
10
4.43517
20
-3.39921
11
4.45
21
-3.39459
0
LINE
8
BLACK
6
CONTINUOUS
10
4.45
20
-3.39459
11
4.46523
21
-3.39149
0
LINE
8
BLACK
6
CONTINUOUS
10
4.46523
20
-3.39149
11
4.48069
21
-3.38995
0
LINE
8
BLACK
6
CONTINUOUS
10
4.48069
20
-3.38995
11
4.49622
21
-3.38997
0
LINE
8
BLACK
6
CONTINUOUS
10
5.80747
20
-2.99863
11
5.80829
21
-2.99929
0
LINE
8
BLACK
6
CONTINUOUS
10
5.80829
20
-2.99929
11
6.04202
21
-3.23302
0
LINE
8
BLACK
6
CONTINUOUS
10
6.04202
20
-3.23302
11
6.04336
21
-3.23547
0
LINE
8
BLACK
6
CONTINUOUS
10
6.04336
20
-3.23547
11
6.04347
21
-3.23652
0
LINE
8
BLACK
6
CONTINUOUS
10
6.04347
20
-3.23652
11
6.04347
21
-3.28809
0
LINE
8
BLACK
6
CONTINUOUS
10
6.04347
20
-3.28809
11
6.04268
21
-3.29077
0
LINE
8
BLACK
6
CONTINUOUS
10
6.04268
20
-3.29077
11
6.04202
21
-3.2916
0
LINE
8
BLACK
6
CONTINUOUS
10
6.04202
20
-3.2916
11
5.77349
21
-3.56012
0
LINE
8
BLACK
6
CONTINUOUS
10
5.77349
20
-3.56012
11
5.77104
21
-3.56146
0
LINE
8
BLACK
6
CONTINUOUS
10
5.77104
20
-3.56146
11
5.76999
21
-3.56158
0
LINE
8
BLACK
6
CONTINUOUS
10
5.76999
20
-3.56158
11
5.71842
21
-3.56158
0
LINE
8
BLACK
6
CONTINUOUS
10
5.71842
20
-3.56158
11
5.71574
21
-3.56079
0
LINE
8
BLACK
6
CONTINUOUS
10
5.71574
20
-3.56079
11
5.71491
21
-3.56012
0
LINE
8
BLACK
6
CONTINUOUS
10
5.71491
20
-3.56012
11
5.48119
21
-3.3264
0
LINE
8
BLACK
6
CONTINUOUS
10
5.48119
20
-3.3264
11
5.47985
21
-3.32395
0
LINE
8
BLACK
6
CONTINUOUS
10
5.47985
20
-3.32395
11
5.47973
21
-3.32289
0
LINE
8
BLACK
6
CONTINUOUS
10
5.47973
20
-3.32289
11
5.47973
21
-3.27132
0
LINE
8
BLACK
6
CONTINUOUS
10
5.47973
20
-3.27132
11
5.48052
21
-3.26864
0
LINE
8
BLACK
6
CONTINUOUS
10
5.48052
20
-3.26864
11
5.48119
21
-3.26781
0
LINE
8
BLACK
6
CONTINUOUS
10
5.48119
20
-3.26781
11
5.74971
21
-2.99929
0
LINE
8
BLACK
6
CONTINUOUS
10
5.74971
20
-2.99929
11
5.75216
21
-2.99795
0
LINE
8
BLACK
6
CONTINUOUS
10
5.75216
20
-2.99795
11
5.75322
21
-2.99784
0
LINE
8
BLACK
6
CONTINUOUS
10
5.75322
20
-2.99784
11
5.80478
21
-2.99784
0
LINE
8
BLACK
6
CONTINUOUS
10
5.80478
20
-2.99784
11
5.80747
21
-2.99863
0
LINE
8
BLACK
6
CONTINUOUS
10
4.97926
20
-2.84967
11
4.98008
21
-2.85034
0
LINE
8
BLACK
6
CONTINUOUS
10
4.98008
20
-2.85034
11
5.10245
21
-2.9727
0
LINE
8
BLACK
6
CONTINUOUS
10
5.10245
20
-2.9727
11
5.10379
21
-2.97516
0
LINE
8
BLACK
6
CONTINUOUS
10
5.10379
20
-2.97516
11
5.10391
21
-2.97621
0
LINE
8
BLACK
6
CONTINUOUS
10
5.10391
20
-2.97621
11
5.10391
21
-3.02778
0
LINE
8
BLACK
6
CONTINUOUS
10
5.10391
20
-3.02778
11
5.10312
21
-3.03046
0
LINE
8
BLACK
6
CONTINUOUS
10
5.10312
20
-3.03046
11
5.10245
21
-3.03129
0
LINE
8
BLACK
6
CONTINUOUS
10
5.10245
20
-3.03129
11
4.98008
21
-3.15366
0
LINE
8
BLACK
6
CONTINUOUS
10
4.98008
20
-3.15366
11
4.97763
21
-3.155
0
LINE
8
BLACK
6
CONTINUOUS
10
4.97763
20
-3.155
11
4.97658
21
-3.15511
0
LINE
8
BLACK
6
CONTINUOUS
10
4.97658
20
-3.15511
11
4.92501
21
-3.15511
0
LINE
8
BLACK
6
CONTINUOUS
10
4.92501
20
-3.15511
11
4.92233
21
-3.15432
0
LINE
8
BLACK
6
CONTINUOUS
10
4.92233
20
-3.15432
11
4.9215
21
-3.15366
0
LINE
8
BLACK
6
CONTINUOUS
10
4.9215
20
-3.15366
11
4.79913
21
-3.03129
0
LINE
8
BLACK
6
CONTINUOUS
10
4.79913
20
-3.03129
11
4.79779
21
-3.02884
0
LINE
8
BLACK
6
CONTINUOUS
10
4.79779
20
-3.02884
11
4.79768
21
-3.02778
0
LINE
8
BLACK
6
CONTINUOUS
10
4.79768
20
-3.02778
11
4.79768
21
-2.97621
0
LINE
8
BLACK
6
CONTINUOUS
10
4.79768
20
-2.97621
11
4.79847
21
-2.97353
0
LINE
8
BLACK
6
CONTINUOUS
10
4.79847
20
-2.97353
11
4.79913
21
-2.9727
0
LINE
8
BLACK
6
CONTINUOUS
10
4.79913
20
-2.9727
11
4.9215
21
-2.85034
0
LINE
8
BLACK
6
CONTINUOUS
10
4.9215
20
-2.85034
11
4.92395
21
-2.849
0
LINE
8
BLACK
6
CONTINUOUS
10
4.92395
20
-2.849
11
4.92501
21
-2.84888
0
LINE
8
BLACK
6
CONTINUOUS
10
4.92501
20
-2.84888
11
4.97658
21
-2.84888
0
LINE
8
BLACK
6
CONTINUOUS
10
4.97658
20
-2.84888
11
4.97926
21
-2.84967
0
LINE
8
BLACK
6
CONTINUOUS
10
5.60623
20
-2.09444
11
5.60801
21
-2.09558
0
LINE
8
BLACK
6
CONTINUOUS
10
5.60801
20
-2.09558
11
5.94592
21
-2.43349
0
LINE
8
BLACK
6
CONTINUOUS
10
5.94592
20
-2.43349
11
5.94726
21
-2.43595
0
LINE
8
BLACK
6
CONTINUOUS
10
5.94726
20
-2.43595
11
5.94706
21
-2.43873
0
LINE
8
BLACK
6
CONTINUOUS
10
5.94706
20
-2.43873
11
5.94592
21
-2.44051
0
LINE
8
BLACK
6
CONTINUOUS
10
5.94592
20
-2.44051
11
5.66063
21
-2.7258
0
LINE
8
BLACK
6
CONTINUOUS
10
5.66063
20
-2.7258
11
5.65818
21
-2.72714
0
LINE
8
BLACK
6
CONTINUOUS
10
5.65818
20
-2.72714
11
5.65539
21
-2.72694
0
LINE
8
BLACK
6
CONTINUOUS
10
5.65539
20
-2.72694
11
5.65361
21
-2.7258
0
LINE
8
BLACK
6
CONTINUOUS
10
5.65361
20
-2.7258
11
5.3157
21
-2.38789
0
LINE
8
BLACK
6
CONTINUOUS
10
5.3157
20
-2.38789
11
5.31436
21
-2.38543
0
LINE
8
BLACK
6
CONTINUOUS
10
5.31436
20
-2.38543
11
5.31456
21
-2.38265
0
LINE
8
BLACK
6
CONTINUOUS
10
5.31456
20
-2.38265
11
5.3157
21
-2.38087
0
LINE
8
BLACK
6
CONTINUOUS
10
5.3157
20
-2.38087
11
5.60099
21
-2.09558
0
LINE
8
BLACK
6
CONTINUOUS
10
5.60099
20
-2.09558
11
5.60345
21
-2.09424
0
LINE
8
BLACK
6
CONTINUOUS
10
5.60345
20
-2.09424
11
5.60623
21
-2.09444
0
LINE
8
BLACK
6
CONTINUOUS
10
4.88123
20
-2.59266
11
4.89018
21
-2.59506
0
LINE
8
BLACK
6
CONTINUOUS
10
4.89018
20
-2.59506
11
4.89857
21
-2.59897
0
LINE
8
BLACK
6
CONTINUOUS
10
4.89857
20
-2.59897
11
4.90616
21
-2.60429
0
LINE
8
BLACK
6
CONTINUOUS
10
4.90616
20
-2.60429
11
4.91271
21
-2.61084
0
LINE
8
BLACK
6
CONTINUOUS
10
4.91271
20
-2.61084
11
4.91803
21
-2.61843
0
LINE
8
BLACK
6
CONTINUOUS
10
4.91803
20
-2.61843
11
4.92194
21
-2.62682
0
LINE
8
BLACK
6
CONTINUOUS
10
4.92194
20
-2.62682
11
4.92434
21
-2.63577
0
LINE
8
BLACK
6
CONTINUOUS
10
4.92434
20
-2.63577
11
4.92515
21
-2.645
0
LINE
8
BLACK
6
CONTINUOUS
10
4.92515
20
-2.645
11
4.92434
21
-2.65423
0
LINE
8
BLACK
6
CONTINUOUS
10
4.92434
20
-2.65423
11
4.92194
21
-2.66318
0
LINE
8
BLACK
6
CONTINUOUS
10
4.92194
20
-2.66318
11
4.91803
21
-2.67157
0
LINE
8
BLACK
6
CONTINUOUS
10
4.91803
20
-2.67157
11
4.91271
21
-2.67916
0
LINE
8
BLACK
6
CONTINUOUS
10
4.91271
20
-2.67916
11
4.90616
21
-2.68571
0
LINE
8
BLACK
6
CONTINUOUS
10
4.90616
20
-2.68571
11
4.89857
21
-2.69103
0
LINE
8
BLACK
6
CONTINUOUS
10
4.89857
20
-2.69103
11
4.89018
21
-2.69494
0
LINE
8
BLACK
6
CONTINUOUS
10
4.89018
20
-2.69494
11
4.88123
21
-2.69734
0
LINE
8
BLACK
6
CONTINUOUS
10
4.88123
20
-2.69734
11
4.872
21
-2.69815
0
LINE
8
BLACK
6
CONTINUOUS
10
4.872
20
-2.69815
11
4.86277
21
-2.69734
0
LINE
8
BLACK
6
CONTINUOUS
10
4.86277
20
-2.69734
11
4.85382
21
-2.69494
0
LINE
8
BLACK
6
CONTINUOUS
10
4.85382
20
-2.69494
11
4.84543
21
-2.69103
0
LINE
8
BLACK
6
CONTINUOUS
10
4.84543
20
-2.69103
11
4.83784
21
-2.68571
0
LINE
8
BLACK
6
CONTINUOUS
10
4.83784
20
-2.68571
11
4.83129
21
-2.67916
0
LINE
8
BLACK
6
CONTINUOUS
10
4.83129
20
-2.67916
11
4.82597
21
-2.67157
0
LINE
8
BLACK
6
CONTINUOUS
10
4.82597
20
-2.67157
11
4.82206
21
-2.66318
0
LINE
8
BLACK
6
CONTINUOUS
10
4.82206
20
-2.66318
11
4.81966
21
-2.65423
0
LINE
8
BLACK
6
CONTINUOUS
10
4.81966
20
-2.65423
11
4.81885
21
-2.645
0
LINE
8
BLACK
6
CONTINUOUS
10
4.81885
20
-2.645
11
4.81966
21
-2.63577
0
LINE
8
BLACK
6
CONTINUOUS
10
4.81966
20
-2.63577
11
4.82206
21
-2.62682
0
LINE
8
BLACK
6
CONTINUOUS
10
4.82206
20
-2.62682
11
4.82597
21
-2.61843
0
LINE
8
BLACK
6
CONTINUOUS
10
4.82597
20
-2.61843
11
4.83129
21
-2.61084
0
LINE
8
BLACK
6
CONTINUOUS
10
4.83129
20
-2.61084
11
4.83784
21
-2.60429
0
LINE
8
BLACK
6
CONTINUOUS
10
4.83784
20
-2.60429
11
4.84543
21
-2.59897
0
LINE
8
BLACK
6
CONTINUOUS
10
4.84543
20
-2.59897
11
4.85382
21
-2.59506
0
LINE
8
BLACK
6
CONTINUOUS
10
4.85382
20
-2.59506
11
4.86277
21
-2.59266
0
LINE
8
BLACK
6
CONTINUOUS
10
4.86277
20
-2.59266
11
4.872
21
-2.59185
0
LINE
8
BLACK
6
CONTINUOUS
10
4.872
20
-2.59185
11
4.88123
21
-2.59266
0
LINE
8
BLACK
6
CONTINUOUS
10
4.88173
20
-2.33237
11
4.88351
21
-2.33351
0
LINE
8
BLACK
6
CONTINUOUS
10
4.88351
20
-2.33351
11
4.97649
21
-2.42649
0
LINE
8
BLACK
6
CONTINUOUS
10
4.97649
20
-2.42649
11
4.97783
21
-2.42895
0
LINE
8
BLACK
6
CONTINUOUS
10
4.97783
20
-2.42895
11
4.97763
21
-2.43173
0
LINE
8
BLACK
6
CONTINUOUS
10
4.97763
20
-2.43173
11
4.97649
21
-2.43351
0
LINE
8
BLACK
6
CONTINUOUS
10
4.97649
20
-2.43351
11
4.88351
21
-2.52649
0
LINE
8
BLACK
6
CONTINUOUS
10
4.88351
20
-2.52649
11
4.88105
21
-2.52783
0
LINE
8
BLACK
6
CONTINUOUS
10
4.88105
20
-2.52783
11
4.87827
21
-2.52763
0
LINE
8
BLACK
6
CONTINUOUS
10
4.87827
20
-2.52763
11
4.87649
21
-2.52649
0
LINE
8
BLACK
6
CONTINUOUS
10
4.87649
20
-2.52649
11
4.78351
21
-2.43351
0
LINE
8
BLACK
6
CONTINUOUS
10
4.78351
20
-2.43351
11
4.78217
21
-2.43105
0
LINE
8
BLACK
6
CONTINUOUS
10
4.78217
20
-2.43105
11
4.78237
21
-2.42827
0
LINE
8
BLACK
6
CONTINUOUS
10
4.78237
20
-2.42827
11
4.78351
21
-2.42649
0
LINE
8
BLACK
6
CONTINUOUS
10
4.78351
20
-2.42649
11
4.87649
21
-2.33351
0
LINE
8
BLACK
6
CONTINUOUS
10
4.87649
20
-2.33351
11
4.87895
21
-2.33217
0
LINE
8
BLACK
6
CONTINUOUS
10
4.87895
20
-2.33217
11
4.88173
21
-2.33237
0
LINE
8
BLACK
6
CONTINUOUS
10
5.91355
20
-1.97265
11
5.929
21
-1.97425
0
LINE
8
BLACK
6
CONTINUOUS
10
5.929
20
-1.97425
11
5.94422
21
-1.9774
0
LINE
8
BLACK
6
CONTINUOUS
10
5.94422
20
-1.9774
11
5.95903
21
-1.98207
0
LINE
8
BLACK
6
CONTINUOUS
10
5.95903
20
-1.98207
11
5.9733
21
-1.98822
0
LINE
8
BLACK
6
CONTINUOUS
10
5.9733
20
-1.98822
11
5.98688
21
-1.99577
0
LINE
8
BLACK
6
CONTINUOUS
10
5.98688
20
-1.99577
11
5.99962
21
-2.00466
0
LINE
8
BLACK
6
CONTINUOUS
10
5.99962
20
-2.00466
11
6.0114
21
-2.01479
0
LINE
8
BLACK
6
CONTINUOUS
10
6.0114
20
-2.01479
11
6.02209
21
-2.02606
0
LINE
8
BLACK
6
CONTINUOUS
10
6.02209
20
-2.02606
11
6.03159
21
-2.03836
0
LINE
8
BLACK
6
CONTINUOUS
10
6.03159
20
-2.03836
11
6.0398
21
-2.05154
0
LINE
8
BLACK
6
CONTINUOUS
10
6.0398
20
-2.05154
11
6.04664
21
-2.0655
0
LINE
8
BLACK
6
CONTINUOUS
10
6.04664
20
-2.0655
11
6.05203
21
-2.08007
0
LINE
8
BLACK
6
CONTINUOUS
10
6.05203
20
-2.08007
11
6.05592
21
-2.09511
0
LINE
8
BLACK
6
CONTINUOUS
10
6.05592
20
-2.09511
11
6.05827
21
-2.11047
0
LINE
8
BLACK
6
CONTINUOUS
10
6.05827
20
-2.11047
11
6.05906
21
-2.12598
0
LINE
8
BLACK
6
CONTINUOUS
10
6.05906
20
-2.12598
11
6.05905
21
-2.12706
0
LINE
8
BLACK
6
CONTINUOUS
10
6.05905
20
-2.12706
11
6.05816
21
-2.14257
0
LINE
8
BLACK
6
CONTINUOUS
10
6.05816
20
-2.14257
11
6.0557
21
-2.15791
0
LINE
8
BLACK
6
CONTINUOUS
10
6.0557
20
-2.15791
11
6.0517
21
-2.17292
0
LINE
8
BLACK
6
CONTINUOUS
10
6.0517
20
-2.17292
11
6.04621
21
-2.18746
0
LINE
8
BLACK
6
CONTINUOUS
10
6.04621
20
-2.18746
11
6.03928
21
-2.20136
0
LINE
8
BLACK
6
CONTINUOUS
10
6.03928
20
-2.20136
11
6.03098
21
-2.21449
0
LINE
8
BLACK
6
CONTINUOUS
10
6.03098
20
-2.21449
11
6.02139
21
-2.22672
0
LINE
8
BLACK
6
CONTINUOUS
10
6.02139
20
-2.22672
11
6.01062
21
-2.23791
0
LINE
8
BLACK
6
CONTINUOUS
10
6.01062
20
-2.23791
11
5.99877
21
-2.24796
0
LINE
8
BLACK
6
CONTINUOUS
10
5.99877
20
-2.24796
11
5.98597
21
-2.25676
0
LINE
8
BLACK
6
CONTINUOUS
10
5.98597
20
-2.25676
11
5.97234
21
-2.26422
0
LINE
8
BLACK
6
CONTINUOUS
10
5.97234
20
-2.26422
11
5.95803
21
-2.27027
0
LINE
8
BLACK
6
CONTINUOUS
10
5.95803
20
-2.27027
11
5.94318
21
-2.27484
0
LINE
8
BLACK
6
CONTINUOUS
10
5.94318
20
-2.27484
11
5.92794
21
-2.27788
0
LINE
8
BLACK
6
CONTINUOUS
10
5.92794
20
-2.27788
11
5.91248
21
-2.27937
0
LINE
8
BLACK
6
CONTINUOUS
10
5.91248
20
-2.27937
11
5.89694
21
-2.27929
0
LINE
8
BLACK
6
CONTINUOUS
10
5.89694
20
-2.27929
11
5.88149
21
-2.27764
0
LINE
8
BLACK
6
CONTINUOUS
10
5.88149
20
-2.27764
11
5.86629
21
-2.27443
0
LINE
8
BLACK
6
CONTINUOUS
10
5.86629
20
-2.27443
11
5.85149
21
-2.26971
0
LINE
8
BLACK
6
CONTINUOUS
10
5.85149
20
-2.26971
11
5.83724
21
-2.26351
0
LINE
8
BLACK
6
CONTINUOUS
10
5.83724
20
-2.26351
11
5.82369
21
-2.25591
0
LINE
8
BLACK
6
CONTINUOUS
10
5.82369
20
-2.25591
11
5.81098
21
-2.24698
0
LINE
8
BLACK
6
CONTINUOUS
10
5.81098
20
-2.24698
11
5.79924
21
-2.23681
0
LINE
8
BLACK
6
CONTINUOUS
10
5.79924
20
-2.23681
11
5.78858
21
-2.2255
0
LINE
8
BLACK
6
CONTINUOUS
10
5.78858
20
-2.2255
11
5.77912
21
-2.21317
0
LINE
8
BLACK
6
CONTINUOUS
10
5.77912
20
-2.21317
11
5.77096
21
-2.19995
0
LINE
8
BLACK
6
CONTINUOUS
10
5.77096
20
-2.19995
11
5.76417
21
-2.18598
0
LINE
8
BLACK
6
CONTINUOUS
10
5.76417
20
-2.18598
11
5.75884
21
-2.17139
0
LINE
8
BLACK
6
CONTINUOUS
10
5.75884
20
-2.17139
11
5.755
21
-2.15633
0
LINE
8
BLACK
6
CONTINUOUS
10
5.755
20
-2.15633
11
5.7527
21
-2.14097
0
LINE
8
BLACK
6
CONTINUOUS
10
5.7527
20
-2.14097
11
5.75197
21
-2.12545
0
LINE
8
BLACK
6
CONTINUOUS
10
5.75197
20
-2.12545
11
5.75281
21
-2.10993
0
LINE
8
BLACK
6
CONTINUOUS
10
5.75281
20
-2.10993
11
5.75521
21
-2.09459
0
LINE
8
BLACK
6
CONTINUOUS
10
5.75521
20
-2.09459
11
5.75916
21
-2.07956
0
LINE
8
BLACK
6
CONTINUOUS
10
5.75916
20
-2.07956
11
5.7646
21
-2.065
0
LINE
8
BLACK
6
CONTINUOUS
10
5.7646
20
-2.065
11
5.77148
21
-2.05108
0
LINE
8
BLACK
6
CONTINUOUS
10
5.77148
20
-2.05108
11
5.77974
21
-2.03792
0
LINE
8
BLACK
6
CONTINUOUS
10
5.77974
20
-2.03792
11
5.78928
21
-2.02566
0
LINE
8
BLACK
6
CONTINUOUS
10
5.78928
20
-2.02566
11
5.80001
21
-2.01442
0
LINE
8
BLACK
6
CONTINUOUS
10
5.80001
20
-2.01442
11
5.81183
21
-2.00433
0
LINE
8
BLACK
6
CONTINUOUS
10
5.81183
20
-2.00433
11
5.8246
21
-1.99549
0
LINE
8
BLACK
6
CONTINUOUS
10
5.8246
20
-1.99549
11
5.8382
21
-1.98798
0
LINE
8
BLACK
6
CONTINUOUS
10
5.8382
20
-1.98798
11
5.85249
21
-1.98188
0
LINE
8
BLACK
6
CONTINUOUS
10
5.85249
20
-1.98188
11
5.86733
21
-1.97726
0
LINE
8
BLACK
6
CONTINUOUS
10
5.86733
20
-1.97726
11
5.88255
21
-1.97417
0
LINE
8
BLACK
6
CONTINUOUS
10
5.88255
20
-1.97417
11
5.89801
21
-1.97262
0
LINE
8
BLACK
6
CONTINUOUS
10
5.89801
20
-1.97262
11
5.91355
21
-1.97265
0
LINE
8
BLACK
6
CONTINUOUS
10
7.32043
20
-2.01821
11
7.33428
21
-2.02065
0
LINE
8
BLACK
6
CONTINUOUS
10
7.33428
20
-2.02065
11
7.34777
21
-2.02462
0
LINE
8
BLACK
6
CONTINUOUS
10
7.34777
20
-2.02462
11
7.36074
21
-2.03007
0
LINE
8
BLACK
6
CONTINUOUS
10
7.36074
20
-2.03007
11
7.37302
21
-2.03694
0
LINE
8
BLACK
6
CONTINUOUS
10
7.37302
20
-2.03694
11
7.38445
21
-2.04512
0
LINE
8
BLACK
6
CONTINUOUS
10
7.38445
20
-2.04512
11
7.39491
21
-2.05453
0
LINE
8
BLACK
6
CONTINUOUS
10
7.39491
20
-2.05453
11
7.40424
21
-2.06505
0
LINE
8
BLACK
6
CONTINUOUS
10
7.40424
20
-2.06505
11
7.41235
21
-2.07655
0
LINE
8
BLACK
6
CONTINUOUS
10
7.41235
20
-2.07655
11
7.41913
21
-2.08887
0
LINE
8
BLACK
6
CONTINUOUS
10
7.41913
20
-2.08887
11
7.42449
21
-2.10188
0
LINE
8
BLACK
6
CONTINUOUS
10
7.42449
20
-2.10188
11
7.42837
21
-2.1154
0
LINE
8
BLACK
6
CONTINUOUS
10
7.42837
20
-2.1154
11
7.43071
21
-2.12926
0
LINE
8
BLACK
6
CONTINUOUS
10
7.43071
20
-2.12926
11
7.4315
21
-2.14331
0
LINE
8
BLACK
6
CONTINUOUS
10
7.4315
20
-2.14331
11
7.43145
21
-2.14682
0
LINE
8
BLACK
6
CONTINUOUS
10
7.43145
20
-2.14682
11
7.43027
21
-2.16084
0
LINE
8
BLACK
6
CONTINUOUS
10
7.43027
20
-2.16084
11
7.42754
21
-2.17464
0
LINE
8
BLACK
6
CONTINUOUS
10
7.42754
20
-2.17464
11
7.42329
21
-2.18804
0
LINE
8
BLACK
6
CONTINUOUS
10
7.42329
20
-2.18804
11
7.41756
21
-2.20089
0
LINE
8
BLACK
6
CONTINUOUS
10
7.41756
20
-2.20089
11
7.41045
21
-2.21303
0
LINE
8
BLACK
6
CONTINUOUS
10
7.41045
20
-2.21303
11
7.40202
21
-2.22429
0
LINE
8
BLACK
6
CONTINUOUS
10
7.40202
20
-2.22429
11
7.39239
21
-2.23454
0
LINE
8
BLACK
6
CONTINUOUS
10
7.39239
20
-2.23454
11
7.38168
21
-2.24366
0
LINE
8
BLACK
6
CONTINUOUS
10
7.38168
20
-2.24366
11
7.37002
21
-2.25152
0
LINE
8
BLACK
6
CONTINUOUS
10
7.37002
20
-2.25152
11
7.35756
21
-2.25804
0
LINE
8
BLACK
6
CONTINUOUS
10
7.35756
20
-2.25804
11
7.34444
21
-2.26313
0
LINE
8
BLACK
6
CONTINUOUS
10
7.34444
20
-2.26313
11
7.33084
21
-2.26672
0
LINE
8
BLACK
6
CONTINUOUS
10
7.33084
20
-2.26672
11
7.31693
21
-2.26877
0
LINE
8
BLACK
6
CONTINUOUS
10
7.31693
20
-2.26877
11
7.30287
21
-2.26926
0
LINE
8
BLACK
6
CONTINUOUS
10
7.30287
20
-2.26926
11
7.28885
21
-2.26818
0
LINE
8
BLACK
6
CONTINUOUS
10
7.28885
20
-2.26818
11
7.27503
21
-2.26555
0
LINE
8
BLACK
6
CONTINUOUS
10
7.27503
20
-2.26555
11
7.2616
21
-2.26139
0
LINE
8
BLACK
6
CONTINUOUS
10
7.2616
20
-2.26139
11
7.24871
21
-2.25576
0
LINE
8
BLACK
6
CONTINUOUS
10
7.24871
20
-2.25576
11
7.23653
21
-2.24873
0
LINE
8
BLACK
6
CONTINUOUS
10
7.23653
20
-2.24873
11
7.22521
21
-2.24038
0
LINE
8
BLACK
6
CONTINUOUS
10
7.22521
20
-2.24038
11
7.21489
21
-2.23082
0
LINE
8
BLACK
6
CONTINUOUS
10
7.21489
20
-2.23082
11
7.2057
21
-2.22018
0
LINE
8
BLACK
6
CONTINUOUS
10
7.2057
20
-2.22018
11
7.19775
21
-2.20857
0
LINE
8
BLACK
6
CONTINUOUS
10
7.19775
20
-2.20857
11
7.19115
21
-2.19615
0
LINE
8
BLACK
6
CONTINUOUS
10
7.19115
20
-2.19615
11
7.18597
21
-2.18307
0
LINE
8
BLACK
6
CONTINUOUS
10
7.18597
20
-2.18307
11
7.18228
21
-2.1695
0
LINE
8
BLACK
6
CONTINUOUS
10
7.18228
20
-2.1695
11
7.18013
21
-2.1556
0
LINE
8
BLACK
6
CONTINUOUS
10
7.18013
20
-2.1556
11
7.17954
21
-2.14155
0
LINE
8
BLACK
6
CONTINUOUS
10
7.17954
20
-2.14155
11
7.18052
21
-2.12752
0
LINE
8
BLACK
6
CONTINUOUS
10
7.18052
20
-2.12752
11
7.18306
21
-2.11368
0
LINE
8
BLACK
6
CONTINUOUS
10
7.18306
20
-2.11368
11
7.18713
21
-2.10022
0
LINE
8
BLACK
6
CONTINUOUS
10
7.18713
20
-2.10022
11
7.19267
21
-2.08729
0
LINE
8
BLACK
6
CONTINUOUS
10
7.19267
20
-2.08729
11
7.19961
21
-2.07506
0
LINE
8
BLACK
6
CONTINUOUS
10
7.19961
20
-2.07506
11
7.20788
21
-2.06368
0
LINE
8
BLACK
6
CONTINUOUS
10
7.20788
20
-2.06368
11
7.21737
21
-2.05329
0
LINE
8
BLACK
6
CONTINUOUS
10
7.21737
20
-2.05329
11
7.22795
21
-2.04403
0
LINE
8
BLACK
6
CONTINUOUS
10
7.22795
20
-2.04403
11
7.2395
21
-2.036
0
LINE
8
BLACK
6
CONTINUOUS
10
7.2395
20
-2.036
11
7.25187
21
-2.02931
0
LINE
8
BLACK
6
CONTINUOUS
10
7.25187
20
-2.02931
11
7.26491
21
-2.02404
0
LINE
8
BLACK
6
CONTINUOUS
10
7.26491
20
-2.02404
11
7.27846
21
-2.02026
0
LINE
8
BLACK
6
CONTINUOUS
10
7.27846
20
-2.02026
11
7.29234
21
-2.01801
0
LINE
8
BLACK
6
CONTINUOUS
10
7.29234
20
-2.01801
11
7.30639
21
-2.01733
0
LINE
8
BLACK
6
CONTINUOUS
10
7.30639
20
-2.01733
11
7.32043
21
-2.01821
0
LINE
8
BLACK
6
CONTINUOUS
10
4.52043
20
-2.01821
11
4.53428
21
-2.02065
0
LINE
8
BLACK
6
CONTINUOUS
10
4.53428
20
-2.02065
11
4.54777
21
-2.02462
0
LINE
8
BLACK
6
CONTINUOUS
10
4.54777
20
-2.02462
11
4.56074
21
-2.03007
0
LINE
8
BLACK
6
CONTINUOUS
10
4.56074
20
-2.03007
11
4.57302
21
-2.03694
0
LINE
8
BLACK
6
CONTINUOUS
10
4.57302
20
-2.03694
11
4.58445
21
-2.04512
0
LINE
8
BLACK
6
CONTINUOUS
10
4.58445
20
-2.04512
11
4.59491
21
-2.05453
0
LINE
8
BLACK
6
CONTINUOUS
10
4.59491
20
-2.05453
11
4.60424
21
-2.06505
0
LINE
8
BLACK
6
CONTINUOUS
10
4.60424
20
-2.06505
11
4.61235
21
-2.07655
0
LINE
8
BLACK
6
CONTINUOUS
10
4.61235
20
-2.07655
11
4.61913
21
-2.08887
0
LINE
8
BLACK
6
CONTINUOUS
10
4.61913
20
-2.08887
11
4.62449
21
-2.10188
0
LINE
8
BLACK
6
CONTINUOUS
10
4.62449
20
-2.10188
11
4.62837
21
-2.1154
0
LINE
8
BLACK
6
CONTINUOUS
10
4.62837
20
-2.1154
11
4.63071
21
-2.12926
0
LINE
8
BLACK
6
CONTINUOUS
10
4.63071
20
-2.12926
11
4.6315
21
-2.14331
0
LINE
8
BLACK
6
CONTINUOUS
10
4.6315
20
-2.14331
11
4.63145
21
-2.14682
0
LINE
8
BLACK
6
CONTINUOUS
10
4.63145
20
-2.14682
11
4.63027
21
-2.16084
0
LINE
8
BLACK
6
CONTINUOUS
10
4.63027
20
-2.16084
11
4.62754
21
-2.17464
0
LINE
8
BLACK
6
CONTINUOUS
10
4.62754
20
-2.17464
11
4.62329
21
-2.18804
0
LINE
8
BLACK
6
CONTINUOUS
10
4.62329
20
-2.18804
11
4.61756
21
-2.20089
0
LINE
8
BLACK
6
CONTINUOUS
10
4.61756
20
-2.20089
11
4.61045
21
-2.21303
0
LINE
8
BLACK
6
CONTINUOUS
10
4.61045
20
-2.21303
11
4.60202
21
-2.22429
0
LINE
8
BLACK
6
CONTINUOUS
10
4.60202
20
-2.22429
11
4.59239
21
-2.23454
0
LINE
8
BLACK
6
CONTINUOUS
10
4.59239
20
-2.23454
11
4.58168
21
-2.24366
0
LINE
8
BLACK
6
CONTINUOUS
10
4.58168
20
-2.24366
11
4.57002
21
-2.25152
0
LINE
8
BLACK
6
CONTINUOUS
10
4.57002
20
-2.25152
11
4.55756
21
-2.25804
0
LINE
8
BLACK
6
CONTINUOUS
10
4.55756
20
-2.25804
11
4.54444
21
-2.26313
0
LINE
8
BLACK
6
CONTINUOUS
10
4.54444
20
-2.26313
11
4.53084
21
-2.26672
0
LINE
8
BLACK
6
CONTINUOUS
10
4.53084
20
-2.26672
11
4.51693
21
-2.26877
0
LINE
8
BLACK
6
CONTINUOUS
10
4.51693
20
-2.26877
11
4.50287
21
-2.26926
0
LINE
8
BLACK
6
CONTINUOUS
10
4.50287
20
-2.26926
11
4.48885
21
-2.26818
0
LINE
8
BLACK
6
CONTINUOUS
10
4.48885
20
-2.26818
11
4.47503
21
-2.26555
0
LINE
8
BLACK
6
CONTINUOUS
10
4.47503
20
-2.26555
11
4.4616
21
-2.26139
0
LINE
8
BLACK
6
CONTINUOUS
10
4.4616
20
-2.26139
11
4.44871
21
-2.25576
0
LINE
8
BLACK
6
CONTINUOUS
10
4.44871
20
-2.25576
11
4.43653
21
-2.24873
0
LINE
8
BLACK
6
CONTINUOUS
10
4.43653
20
-2.24873
11
4.42521
21
-2.24038
0
LINE
8
BLACK
6
CONTINUOUS
10
4.42521
20
-2.24038
11
4.41489
21
-2.23082
0
LINE
8
BLACK
6
CONTINUOUS
10
4.41489
20
-2.23082
11
4.4057
21
-2.22018
0
LINE
8
BLACK
6
CONTINUOUS
10
4.4057
20
-2.22018
11
4.39775
21
-2.20857
0
LINE
8
BLACK
6
CONTINUOUS
10
4.39775
20
-2.20857
11
4.39115
21
-2.19615
0
LINE
8
BLACK
6
CONTINUOUS
10
4.39115
20
-2.19615
11
4.38597
21
-2.18307
0
LINE
8
BLACK
6
CONTINUOUS
10
4.38597
20
-2.18307
11
4.38228
21
-2.1695
0
LINE
8
BLACK
6
CONTINUOUS
10
4.38228
20
-2.1695
11
4.38013
21
-2.1556
0
LINE
8
BLACK
6
CONTINUOUS
10
4.38013
20
-2.1556
11
4.37954
21
-2.14155
0
LINE
8
BLACK
6
CONTINUOUS
10
4.37954
20
-2.14155
11
4.38052
21
-2.12752
0
LINE
8
BLACK
6
CONTINUOUS
10
4.38052
20
-2.12752
11
4.38306
21
-2.11368
0
LINE
8
BLACK
6
CONTINUOUS
10
4.38306
20
-2.11368
11
4.38713
21
-2.10022
0
LINE
8
BLACK
6
CONTINUOUS
10
4.38713
20
-2.10022
11
4.39267
21
-2.08729
0
LINE
8
BLACK
6
CONTINUOUS
10
4.39267
20
-2.08729
11
4.39961
21
-2.07506
0
LINE
8
BLACK
6
CONTINUOUS
10
4.39961
20
-2.07506
11
4.40788
21
-2.06368
0
LINE
8
BLACK
6
CONTINUOUS
10
4.40788
20
-2.06368
11
4.41737
21
-2.05329
0
LINE
8
BLACK
6
CONTINUOUS
10
4.41737
20
-2.05329
11
4.42795
21
-2.04403
0
LINE
8
BLACK
6
CONTINUOUS
10
4.42795
20
-2.04403
11
4.4395
21
-2.036
0
LINE
8
BLACK
6
CONTINUOUS
10
4.4395
20
-2.036
11
4.45187
21
-2.02931
0
LINE
8
BLACK
6
CONTINUOUS
10
4.45187
20
-2.02931
11
4.46491
21
-2.02404
0
LINE
8
BLACK
6
CONTINUOUS
10
4.46491
20
-2.02404
11
4.47846
21
-2.02026
0
LINE
8
BLACK
6
CONTINUOUS
10
4.47846
20
-2.02026
11
4.49234
21
-2.01801
0
LINE
8
BLACK
6
CONTINUOUS
10
4.49234
20
-2.01801
11
4.50639
21
-2.01733
0
LINE
8
BLACK
6
CONTINUOUS
10
4.50639
20
-2.01733
11
4.52043
21
-2.01821
  0
ENDSEC
  0
EOF
