  0
SECTION
  2
HEADER
  9
$ANGBASE
  50
0.0
  9
$ANGDIR
  70
1
  9
$MEASUREMENT
  70
0
  0
ENDSEC
  0
SECTION
  2
TABLES
  0
TABLE
  2
LTYPE
  70
4
  0
LTYPE
  5
40F
  2
CONTINUOUS
  70
0
  3
Solid line
  72
65
  73
0
  40
0.0
  0
LTYPE
  5
410
  2
DASHDOT
 70
0
  3
Dash Dot ____ _ ____ _
 72
65
 73
4
 40
2.0
 49
1.25
 49
-0.25
 49
0.25
 49
-0.25
  0
LTYPE
  5
411
  2
DASHED
 70
0
  3
Dashed __ __ __ __ __
 72
65
 73
2
 40
0.75
 49
0.5
 49
-0.25
  0
LTYPE
  5
43B
  2
DOTTED
 70
0
  3
Dotted .  .  .  .
 72
65
 73
2
 40
0.2
 49
0.0
 49
-0.2
  0
ENDTAB
  0
TABLE
  2
STYLE
  70
4
  0
STYLE
  2
KICAD
  70
0
  40
0
  41
1
  42
1
  50
0
  71
0
  3
isocp.shx
  0
STYLE
  2
KICADB
  70
0
  40
0
  41
1
  42
1
  50
0
  71
0
  3
isocp.shx
  0
STYLE
  2
KICADI
  70
0
  40
0
  41
1
  42
1
  50
15
  71
0
  3
isocp.shx
  0
STYLE
  2
KICADBI
  70
0
  40
0
  41
1
  42
1
  50
15
  71
0
  3
isocp.shx
  0
ENDTAB
  0
TABLE
  2
LAYER
  70
1
  0
LAYER
  2
BLACK
  70
0
  62
7
  6
CONTINUOUS
  0
ENDTAB
  0
ENDSEC
  0
SECTION
  2
ENTITIES
0
LINE
8
BLACK
6
CONTINUOUS
10
5.78343
20
-4.9311
11
5.78749
21
-4.91767
0
LINE
8
BLACK
6
CONTINUOUS
10
5.78749
20
-4.91767
11
5.79301
21
-4.90478
0
LINE
8
BLACK
6
CONTINUOUS
10
5.79301
20
-4.90478
11
5.79994
21
-4.89259
0
LINE
8
BLACK
6
CONTINUOUS
10
5.79994
20
-4.89259
11
5.80818
21
-4.88125
0
LINE
8
BLACK
6
CONTINUOUS
10
5.80818
20
-4.88125
11
5.81763
21
-4.87089
0
LINE
8
BLACK
6
CONTINUOUS
10
5.81763
20
-4.87089
11
5.82818
21
-4.86166
0
LINE
8
BLACK
6
CONTINUOUS
10
5.82818
20
-4.86166
11
5.8397
21
-4.85365
0
LINE
8
BLACK
6
CONTINUOUS
10
5.8397
20
-4.85365
11
5.85203
21
-4.84698
0
LINE
8
BLACK
6
CONTINUOUS
10
5.85203
20
-4.84698
11
5.86504
21
-4.84173
0
LINE
8
BLACK
6
CONTINUOUS
10
5.86504
20
-4.84173
11
5.87854
21
-4.83796
0
LINE
8
BLACK
6
CONTINUOUS
10
5.87854
20
-4.83796
11
5.89238
21
-4.83572
0
LINE
8
BLACK
6
CONTINUOUS
10
5.89238
20
-4.83572
11
5.90639
21
-4.83503
0
LINE
8
BLACK
6
CONTINUOUS
10
5.90639
20
-4.83503
11
5.92038
21
-4.83591
0
LINE
8
BLACK
6
CONTINUOUS
10
5.92038
20
-4.83591
11
5.93419
21
-4.83835
0
LINE
8
BLACK
6
CONTINUOUS
10
5.93419
20
-4.83835
11
5.94764
21
-4.84231
0
LINE
8
BLACK
6
CONTINUOUS
10
5.94764
20
-4.84231
11
5.96057
21
-4.84774
0
LINE
8
BLACK
6
CONTINUOUS
10
5.96057
20
-4.84774
11
5.97281
21
-4.85458
0
LINE
8
BLACK
6
CONTINUOUS
10
5.97281
20
-4.85458
11
5.98421
21
-4.86275
0
LINE
8
BLACK
6
CONTINUOUS
10
5.98421
20
-4.86275
11
5.99463
21
-4.87213
0
LINE
8
BLACK
6
CONTINUOUS
10
5.99463
20
-4.87213
11
6.00394
21
-4.88261
0
LINE
8
BLACK
6
CONTINUOUS
10
6.00394
20
-4.88261
11
6.01203
21
-4.89407
0
LINE
8
BLACK
6
CONTINUOUS
10
6.01203
20
-4.89407
11
6.01878
21
-4.90636
0
LINE
8
BLACK
6
CONTINUOUS
10
6.01878
20
-4.90636
11
6.02413
21
-4.91932
0
LINE
8
BLACK
6
CONTINUOUS
10
6.02413
20
-4.91932
11
6.02799
21
-4.9328
0
LINE
8
BLACK
6
CONTINUOUS
10
6.02799
20
-4.9328
11
6.03033
21
-4.94663
0
LINE
8
BLACK
6
CONTINUOUS
10
6.03033
20
-4.94663
11
6.03111
21
-4.96063
0
LINE
8
BLACK
6
CONTINUOUS
10
6.03111
20
-4.96063
11
6.03106
21
-4.96414
0
LINE
8
BLACK
6
CONTINUOUS
10
6.03106
20
-4.96414
11
6.02989
21
-4.97811
0
LINE
8
BLACK
6
CONTINUOUS
10
6.02989
20
-4.97811
11
6.02717
21
-4.99187
0
LINE
8
BLACK
6
CONTINUOUS
10
6.02717
20
-4.99187
11
6.02293
21
-5.00523
0
LINE
8
BLACK
6
CONTINUOUS
10
6.02293
20
-5.00523
11
6.01722
21
-5.01804
0
LINE
8
BLACK
6
CONTINUOUS
10
6.01722
20
-5.01804
11
6.01013
21
-5.03014
0
LINE
8
BLACK
6
CONTINUOUS
10
6.01013
20
-5.03014
11
6.00173
21
-5.04136
0
LINE
8
BLACK
6
CONTINUOUS
10
6.00173
20
-5.04136
11
5.99213
21
-5.05159
0
LINE
8
BLACK
6
CONTINUOUS
10
5.99213
20
-5.05159
11
5.98145
21
-5.06067
0
LINE
8
BLACK
6
CONTINUOUS
10
5.98145
20
-5.06067
11
5.96982
21
-5.06852
0
LINE
8
BLACK
6
CONTINUOUS
10
5.96982
20
-5.06852
11
5.9574
21
-5.07501
0
LINE
8
BLACK
6
CONTINUOUS
10
5.9574
20
-5.07501
11
5.94432
21
-5.08008
0
LINE
8
BLACK
6
CONTINUOUS
10
5.94432
20
-5.08008
11
5.93077
21
-5.08366
0
LINE
8
BLACK
6
CONTINUOUS
10
5.93077
20
-5.08366
11
5.9169
21
-5.08571
0
LINE
8
BLACK
6
CONTINUOUS
10
5.9169
20
-5.08571
11
5.90288
21
-5.0862
0
LINE
8
BLACK
6
CONTINUOUS
10
5.90288
20
-5.0862
11
5.8889
21
-5.08513
0
LINE
8
BLACK
6
CONTINUOUS
10
5.8889
20
-5.08513
11
5.87513
21
-5.0825
0
LINE
8
BLACK
6
CONTINUOUS
10
5.87513
20
-5.0825
11
5.86173
21
-5.07835
0
LINE
8
BLACK
6
CONTINUOUS
10
5.86173
20
-5.07835
11
5.84888
21
-5.07274
0
LINE
8
BLACK
6
CONTINUOUS
10
5.84888
20
-5.07274
11
5.83674
21
-5.06573
0
LINE
8
BLACK
6
CONTINUOUS
10
5.83674
20
-5.06573
11
5.82545
21
-5.05741
0
LINE
8
BLACK
6
CONTINUOUS
10
5.82545
20
-5.05741
11
5.81516
21
-5.04788
0
LINE
8
BLACK
6
CONTINUOUS
10
5.81516
20
-5.04788
11
5.806
21
-5.03726
0
LINE
8
BLACK
6
CONTINUOUS
10
5.806
20
-5.03726
11
5.79808
21
-5.02569
0
LINE
8
BLACK
6
CONTINUOUS
10
5.79808
20
-5.02569
11
5.79149
21
-5.01331
0
LINE
8
BLACK
6
CONTINUOUS
10
5.79149
20
-5.01331
11
5.78633
21
-5.00028
0
LINE
8
BLACK
6
CONTINUOUS
10
5.78633
20
-5.00028
11
5.78266
21
-4.98674
0
LINE
8
BLACK
6
CONTINUOUS
10
5.78266
20
-4.98674
11
5.78051
21
-4.97289
0
LINE
8
BLACK
6
CONTINUOUS
10
5.78051
20
-4.97289
11
5.77992
21
-4.95888
0
LINE
8
BLACK
6
CONTINUOUS
10
5.77992
20
-4.95888
11
5.78004
21
-4.95715
0
LINE
8
BLACK
6
CONTINUOUS
10
5.78004
20
-4.95715
11
5.7809
21
-4.94489
0
LINE
8
BLACK
6
CONTINUOUS
10
5.7809
20
-4.94489
11
5.78343
21
-4.9311
0
LINE
8
BLACK
6
CONTINUOUS
10
5.79691
20
-4.98253
11
5.80015
21
-4.99487
0
LINE
8
BLACK
6
CONTINUOUS
10
5.80015
20
-4.99487
11
5.80478
21
-5.00675
0
LINE
8
BLACK
6
CONTINUOUS
10
5.80478
20
-5.00675
11
5.81075
21
-5.01802
0
LINE
8
BLACK
6
CONTINUOUS
10
5.81075
20
-5.01802
11
5.81797
21
-5.02853
0
LINE
8
BLACK
6
CONTINUOUS
10
5.81797
20
-5.02853
11
5.82636
21
-5.03814
0
LINE
8
BLACK
6
CONTINUOUS
10
5.82636
20
-5.03814
11
5.83579
21
-5.04673
0
LINE
8
BLACK
6
CONTINUOUS
10
5.83579
20
-5.04673
11
5.84615
21
-5.05417
0
LINE
8
BLACK
6
CONTINUOUS
10
5.84615
20
-5.05417
11
5.85729
21
-5.06037
0
LINE
8
BLACK
6
CONTINUOUS
10
5.85729
20
-5.06037
11
5.86908
21
-5.06525
0
LINE
8
BLACK
6
CONTINUOUS
10
5.86908
20
-5.06525
11
5.88134
21
-5.06875
0
LINE
8
BLACK
6
CONTINUOUS
10
5.88134
20
-5.06875
11
5.89393
21
-5.07081
0
LINE
8
BLACK
6
CONTINUOUS
10
5.89393
20
-5.07081
11
5.90667
21
-5.07141
0
LINE
8
BLACK
6
CONTINUOUS
10
5.90667
20
-5.07141
11
5.9194
21
-5.07054
0
LINE
8
BLACK
6
CONTINUOUS
10
5.9194
20
-5.07054
11
5.93194
21
-5.06822
0
LINE
8
BLACK
6
CONTINUOUS
10
5.93194
20
-5.06822
11
5.94413
21
-5.06447
0
LINE
8
BLACK
6
CONTINUOUS
10
5.94413
20
-5.06447
11
5.95581
21
-5.05934
0
LINE
8
BLACK
6
CONTINUOUS
10
5.95581
20
-5.05934
11
5.96682
21
-5.05291
0
LINE
8
BLACK
6
CONTINUOUS
10
5.96682
20
-5.05291
11
5.97702
21
-5.04525
0
LINE
8
BLACK
6
CONTINUOUS
10
5.97702
20
-5.04525
11
5.98627
21
-5.03647
0
LINE
8
BLACK
6
CONTINUOUS
10
5.98627
20
-5.03647
11
5.99445
21
-5.02668
0
LINE
8
BLACK
6
CONTINUOUS
10
5.99445
20
-5.02668
11
6.00146
21
-5.01602
0
LINE
8
BLACK
6
CONTINUOUS
10
6.00146
20
-5.01602
11
6.00719
21
-5.00463
0
LINE
8
BLACK
6
CONTINUOUS
10
6.00719
20
-5.00463
11
6.01157
21
-4.99265
0
LINE
8
BLACK
6
CONTINUOUS
10
6.01157
20
-4.99265
11
6.01455
21
-4.98025
0
LINE
8
BLACK
6
CONTINUOUS
10
6.01455
20
-4.98025
11
6.01608
21
-4.96759
0
LINE
8
BLACK
6
CONTINUOUS
10
6.01608
20
-4.96759
11
6.0163
21
-4.96063
0
LINE
8
BLACK
6
CONTINUOUS
10
6.0163
20
-4.96063
11
6.01557
21
-4.9479
0
LINE
8
BLACK
6
CONTINUOUS
10
6.01557
20
-4.9479
11
6.01337
21
-4.93533
0
LINE
8
BLACK
6
CONTINUOUS
10
6.01337
20
-4.93533
11
6.00975
21
-4.9231
0
LINE
8
BLACK
6
CONTINUOUS
10
6.00975
20
-4.9231
11
6.00475
21
-4.91137
0
LINE
8
BLACK
6
CONTINUOUS
10
6.00475
20
-4.91137
11
5.99843
21
-4.90029
0
LINE
8
BLACK
6
CONTINUOUS
10
5.99843
20
-4.90029
11
5.99087
21
-4.89001
0
LINE
8
BLACK
6
CONTINUOUS
10
5.99087
20
-4.89001
11
5.98219
21
-4.88067
0
LINE
8
BLACK
6
CONTINUOUS
10
5.98219
20
-4.88067
11
5.97249
21
-4.87238
0
LINE
8
BLACK
6
CONTINUOUS
10
5.97249
20
-4.87238
11
5.96191
21
-4.86527
0
LINE
8
BLACK
6
CONTINUOUS
10
5.96191
20
-4.86527
11
5.95057
21
-4.85942
0
LINE
8
BLACK
6
CONTINUOUS
10
5.95057
20
-4.85942
11
5.93864
21
-4.85491
0
LINE
8
BLACK
6
CONTINUOUS
10
5.93864
20
-4.85491
11
5.92627
21
-4.8518
0
LINE
8
BLACK
6
CONTINUOUS
10
5.92627
20
-4.8518
11
5.91363
21
-4.85014
0
LINE
8
BLACK
6
CONTINUOUS
10
5.91363
20
-4.85014
11
5.90087
21
-4.84994
0
LINE
8
BLACK
6
CONTINUOUS
10
5.90087
20
-4.84994
11
5.88818
21
-4.85121
0
LINE
8
BLACK
6
CONTINUOUS
10
5.88818
20
-4.85121
11
5.87572
21
-4.85392
0
LINE
8
BLACK
6
CONTINUOUS
10
5.87572
20
-4.85392
11
5.86365
21
-4.85806
0
LINE
8
BLACK
6
CONTINUOUS
10
5.86365
20
-4.85806
11
5.85214
21
-4.86355
0
LINE
8
BLACK
6
CONTINUOUS
10
5.85214
20
-4.86355
11
5.84133
21
-4.87032
0
LINE
8
BLACK
6
CONTINUOUS
10
5.84133
20
-4.87032
11
5.83138
21
-4.8783
0
LINE
8
BLACK
6
CONTINUOUS
10
5.83138
20
-4.8783
11
5.82241
21
-4.88736
0
LINE
8
BLACK
6
CONTINUOUS
10
5.82241
20
-4.88736
11
5.81454
21
-4.8974
0
LINE
8
BLACK
6
CONTINUOUS
10
5.81454
20
-4.8974
11
5.80787
21
-4.90828
0
LINE
8
BLACK
6
CONTINUOUS
10
5.80787
20
-4.90828
11
5.8025
21
-4.91985
0
LINE
8
BLACK
6
CONTINUOUS
10
5.8025
20
-4.91985
11
5.7985
21
-4.93196
0
LINE
8
BLACK
6
CONTINUOUS
10
5.7985
20
-4.93196
11
5.79591
21
-4.94445
0
LINE
8
BLACK
6
CONTINUOUS
10
5.79591
20
-4.94445
11
5.79478
21
-4.95715
0
LINE
8
BLACK
6
CONTINUOUS
10
5.79478
20
-4.95715
11
5.79511
21
-4.9699
0
LINE
8
BLACK
6
CONTINUOUS
10
5.79511
20
-4.9699
11
5.79691
21
-4.98253
0
LINE
8
BLACK
6
CONTINUOUS
10
4.38343
20
-4.91377
11
4.38749
21
-4.90035
0
LINE
8
BLACK
6
CONTINUOUS
10
4.38749
20
-4.90035
11
4.39301
21
-4.88746
0
LINE
8
BLACK
6
CONTINUOUS
10
4.39301
20
-4.88746
11
4.39994
21
-4.87527
0
LINE
8
BLACK
6
CONTINUOUS
10
4.39994
20
-4.87527
11
4.40818
21
-4.86392
0
LINE
8
BLACK
6
CONTINUOUS
10
4.40818
20
-4.86392
11
4.41763
21
-4.85357
0
LINE
8
BLACK
6
CONTINUOUS
10
4.41763
20
-4.85357
11
4.42818
21
-4.84433
0
LINE
8
BLACK
6
CONTINUOUS
10
4.42818
20
-4.84433
11
4.4397
21
-4.83633
0
LINE
8
BLACK
6
CONTINUOUS
10
4.4397
20
-4.83633
11
4.45203
21
-4.82966
0
LINE
8
BLACK
6
CONTINUOUS
10
4.45203
20
-4.82966
11
4.46504
21
-4.82441
0
LINE
8
BLACK
6
CONTINUOUS
10
4.46504
20
-4.82441
11
4.47854
21
-4.82064
0
LINE
8
BLACK
6
CONTINUOUS
10
4.47854
20
-4.82064
11
4.49238
21
-4.8184
0
LINE
8
BLACK
6
CONTINUOUS
10
4.49238
20
-4.8184
11
4.50639
21
-4.81771
0
LINE
8
BLACK
6
CONTINUOUS
10
4.50639
20
-4.81771
11
4.52038
21
-4.81859
0
LINE
8
BLACK
6
CONTINUOUS
10
4.52038
20
-4.81859
11
4.53419
21
-4.82103
0
LINE
8
BLACK
6
CONTINUOUS
10
4.53419
20
-4.82103
11
4.54764
21
-4.82498
0
LINE
8
BLACK
6
CONTINUOUS
10
4.54764
20
-4.82498
11
4.56057
21
-4.83042
0
LINE
8
BLACK
6
CONTINUOUS
10
4.56057
20
-4.83042
11
4.57281
21
-4.83726
0
LINE
8
BLACK
6
CONTINUOUS
10
4.57281
20
-4.83726
11
4.58421
21
-4.84542
0
LINE
8
BLACK
6
CONTINUOUS
10
4.58421
20
-4.84542
11
4.59463
21
-4.85481
0
LINE
8
BLACK
6
CONTINUOUS
10
4.59463
20
-4.85481
11
4.60394
21
-4.86529
0
LINE
8
BLACK
6
CONTINUOUS
10
4.60394
20
-4.86529
11
4.61203
21
-4.87675
0
LINE
8
BLACK
6
CONTINUOUS
10
4.61203
20
-4.87675
11
4.61878
21
-4.88904
0
LINE
8
BLACK
6
CONTINUOUS
10
4.61878
20
-4.88904
11
4.62413
21
-4.902
0
LINE
8
BLACK
6
CONTINUOUS
10
4.62413
20
-4.902
11
4.62799
21
-4.91548
0
LINE
8
BLACK
6
CONTINUOUS
10
4.62799
20
-4.91548
11
4.63033
21
-4.92931
0
LINE
8
BLACK
6
CONTINUOUS
10
4.63033
20
-4.92931
11
4.63111
21
-4.94331
0
LINE
8
BLACK
6
CONTINUOUS
10
4.63111
20
-4.94331
11
4.63106
21
-4.94681
0
LINE
8
BLACK
6
CONTINUOUS
10
4.63106
20
-4.94681
11
4.62989
21
-4.96079
0
LINE
8
BLACK
6
CONTINUOUS
10
4.62989
20
-4.96079
11
4.62717
21
-4.97454
0
LINE
8
BLACK
6
CONTINUOUS
10
4.62717
20
-4.97454
11
4.62293
21
-4.98791
0
LINE
8
BLACK
6
CONTINUOUS
10
4.62293
20
-4.98791
11
4.61722
21
-5.00072
0
LINE
8
BLACK
6
CONTINUOUS
10
4.61722
20
-5.00072
11
4.61013
21
-5.01281
0
LINE
8
BLACK
6
CONTINUOUS
10
4.61013
20
-5.01281
11
4.60173
21
-5.02404
0
LINE
8
BLACK
6
CONTINUOUS
10
4.60173
20
-5.02404
11
4.59213
21
-5.03426
0
LINE
8
BLACK
6
CONTINUOUS
10
4.59213
20
-5.03426
11
4.58145
21
-5.04335
0
LINE
8
BLACK
6
CONTINUOUS
10
4.58145
20
-5.04335
11
4.56982
21
-5.05119
0
LINE
8
BLACK
6
CONTINUOUS
10
4.56982
20
-5.05119
11
4.5574
21
-5.05769
0
LINE
8
BLACK
6
CONTINUOUS
10
4.5574
20
-5.05769
11
4.54432
21
-5.06276
0
LINE
8
BLACK
6
CONTINUOUS
10
4.54432
20
-5.06276
11
4.53077
21
-5.06634
0
LINE
8
BLACK
6
CONTINUOUS
10
4.53077
20
-5.06634
11
4.5169
21
-5.06839
0
LINE
8
BLACK
6
CONTINUOUS
10
4.5169
20
-5.06839
11
4.50288
21
-5.06888
0
LINE
8
BLACK
6
CONTINUOUS
10
4.50288
20
-5.06888
11
4.4889
21
-5.0678
0
LINE
8
BLACK
6
CONTINUOUS
10
4.4889
20
-5.0678
11
4.47513
21
-5.06518
0
LINE
8
BLACK
6
CONTINUOUS
10
4.47513
20
-5.06518
11
4.46173
21
-5.06103
0
LINE
8
BLACK
6
CONTINUOUS
10
4.46173
20
-5.06103
11
4.44888
21
-5.05542
0
LINE
8
BLACK
6
CONTINUOUS
10
4.44888
20
-5.05542
11
4.43674
21
-5.0484
0
LINE
8
BLACK
6
CONTINUOUS
10
4.43674
20
-5.0484
11
4.42545
21
-5.04008
0
LINE
8
BLACK
6
CONTINUOUS
10
4.42545
20
-5.04008
11
4.41516
21
-5.03056
0
LINE
8
BLACK
6
CONTINUOUS
10
4.41516
20
-5.03056
11
4.406
21
-5.01994
0
LINE
8
BLACK
6
CONTINUOUS
10
4.406
20
-5.01994
11
4.39808
21
-5.00837
0
LINE
8
BLACK
6
CONTINUOUS
10
4.39808
20
-5.00837
11
4.39149
21
-4.99599
0
LINE
8
BLACK
6
CONTINUOUS
10
4.39149
20
-4.99599
11
4.38633
21
-4.98295
0
LINE
8
BLACK
6
CONTINUOUS
10
4.38633
20
-4.98295
11
4.38266
21
-4.96942
0
LINE
8
BLACK
6
CONTINUOUS
10
4.38266
20
-4.96942
11
4.38051
21
-4.95556
0
LINE
8
BLACK
6
CONTINUOUS
10
4.38051
20
-4.95556
11
4.37992
21
-4.94155
0
LINE
8
BLACK
6
CONTINUOUS
10
4.37992
20
-4.94155
11
4.38004
21
-4.93983
0
LINE
8
BLACK
6
CONTINUOUS
10
4.38004
20
-4.93983
11
4.3809
21
-4.92757
0
LINE
8
BLACK
6
CONTINUOUS
10
4.3809
20
-4.92757
11
4.38343
21
-4.91377
0
LINE
8
BLACK
6
CONTINUOUS
10
4.39691
20
-4.96521
11
4.40015
21
-4.97754
0
LINE
8
BLACK
6
CONTINUOUS
10
4.40015
20
-4.97754
11
4.40478
21
-4.98943
0
LINE
8
BLACK
6
CONTINUOUS
10
4.40478
20
-4.98943
11
4.41075
21
-5.0007
0
LINE
8
BLACK
6
CONTINUOUS
10
4.41075
20
-5.0007
11
4.41797
21
-5.01121
0
LINE
8
BLACK
6
CONTINUOUS
10
4.41797
20
-5.01121
11
4.42636
21
-5.02082
0
LINE
8
BLACK
6
CONTINUOUS
10
4.42636
20
-5.02082
11
4.43579
21
-5.02941
0
LINE
8
BLACK
6
CONTINUOUS
10
4.43579
20
-5.02941
11
4.44615
21
-5.03685
0
LINE
8
BLACK
6
CONTINUOUS
10
4.44615
20
-5.03685
11
4.45729
21
-5.04305
0
LINE
8
BLACK
6
CONTINUOUS
10
4.45729
20
-5.04305
11
4.46908
21
-5.04793
0
LINE
8
BLACK
6
CONTINUOUS
10
4.46908
20
-5.04793
11
4.48134
21
-5.05143
0
LINE
8
BLACK
6
CONTINUOUS
10
4.48134
20
-5.05143
11
4.49393
21
-5.05349
0
LINE
8
BLACK
6
CONTINUOUS
10
4.49393
20
-5.05349
11
4.50667
21
-5.05409
0
LINE
8
BLACK
6
CONTINUOUS
10
4.50667
20
-5.05409
11
4.5194
21
-5.05322
0
LINE
8
BLACK
6
CONTINUOUS
10
4.5194
20
-5.05322
11
4.53194
21
-5.0509
0
LINE
8
BLACK
6
CONTINUOUS
10
4.53194
20
-5.0509
11
4.54413
21
-5.04715
0
LINE
8
BLACK
6
CONTINUOUS
10
4.54413
20
-5.04715
11
4.55581
21
-5.04202
0
LINE
8
BLACK
6
CONTINUOUS
10
4.55581
20
-5.04202
11
4.56682
21
-5.03558
0
LINE
8
BLACK
6
CONTINUOUS
10
4.56682
20
-5.03558
11
4.57702
21
-5.02793
0
LINE
8
BLACK
6
CONTINUOUS
10
4.57702
20
-5.02793
11
4.58627
21
-5.01915
0
LINE
8
BLACK
6
CONTINUOUS
10
4.58627
20
-5.01915
11
4.59445
21
-5.00936
0
LINE
8
BLACK
6
CONTINUOUS
10
4.59445
20
-5.00936
11
4.60146
21
-4.9987
0
LINE
8
BLACK
6
CONTINUOUS
10
4.60146
20
-4.9987
11
4.60719
21
-4.98731
0
LINE
8
BLACK
6
CONTINUOUS
10
4.60719
20
-4.98731
11
4.61157
21
-4.97533
0
LINE
8
BLACK
6
CONTINUOUS
10
4.61157
20
-4.97533
11
4.61455
21
-4.96293
0
LINE
8
BLACK
6
CONTINUOUS
10
4.61455
20
-4.96293
11
4.61608
21
-4.95026
0
LINE
8
BLACK
6
CONTINUOUS
10
4.61608
20
-4.95026
11
4.6163
21
-4.94331
0
LINE
8
BLACK
6
CONTINUOUS
10
4.6163
20
-4.94331
11
4.61557
21
-4.93057
0
LINE
8
BLACK
6
CONTINUOUS
10
4.61557
20
-4.93057
11
4.61337
21
-4.91801
0
LINE
8
BLACK
6
CONTINUOUS
10
4.61337
20
-4.91801
11
4.60975
21
-4.90578
0
LINE
8
BLACK
6
CONTINUOUS
10
4.60975
20
-4.90578
11
4.60475
21
-4.89405
0
LINE
8
BLACK
6
CONTINUOUS
10
4.60475
20
-4.89405
11
4.59843
21
-4.88297
0
LINE
8
BLACK
6
CONTINUOUS
10
4.59843
20
-4.88297
11
4.59087
21
-4.87269
0
LINE
8
BLACK
6
CONTINUOUS
10
4.59087
20
-4.87269
11
4.58219
21
-4.86335
0
LINE
8
BLACK
6
CONTINUOUS
10
4.58219
20
-4.86335
11
4.57249
21
-4.85506
0
LINE
8
BLACK
6
CONTINUOUS
10
4.57249
20
-4.85506
11
4.56191
21
-4.84795
0
LINE
8
BLACK
6
CONTINUOUS
10
4.56191
20
-4.84795
11
4.55057
21
-4.8421
0
LINE
8
BLACK
6
CONTINUOUS
10
4.55057
20
-4.8421
11
4.53864
21
-4.83759
0
LINE
8
BLACK
6
CONTINUOUS
10
4.53864
20
-4.83759
11
4.52627
21
-4.83448
0
LINE
8
BLACK
6
CONTINUOUS
10
4.52627
20
-4.83448
11
4.51363
21
-4.83282
0
LINE
8
BLACK
6
CONTINUOUS
10
4.51363
20
-4.83282
11
4.50087
21
-4.83262
0
LINE
8
BLACK
6
CONTINUOUS
10
4.50087
20
-4.83262
11
4.48818
21
-4.83388
0
LINE
8
BLACK
6
CONTINUOUS
10
4.48818
20
-4.83388
11
4.47572
21
-4.8366
0
LINE
8
BLACK
6
CONTINUOUS
10
4.47572
20
-4.8366
11
4.46365
21
-4.84073
0
LINE
8
BLACK
6
CONTINUOUS
10
4.46365
20
-4.84073
11
4.45214
21
-4.84622
0
LINE
8
BLACK
6
CONTINUOUS
10
4.45214
20
-4.84622
11
4.44133
21
-4.853
0
LINE
8
BLACK
6
CONTINUOUS
10
4.44133
20
-4.853
11
4.43138
21
-4.86098
0
LINE
8
BLACK
6
CONTINUOUS
10
4.43138
20
-4.86098
11
4.42241
21
-4.87004
0
LINE
8
BLACK
6
CONTINUOUS
10
4.42241
20
-4.87004
11
4.41454
21
-4.88008
0
LINE
8
BLACK
6
CONTINUOUS
10
4.41454
20
-4.88008
11
4.40787
21
-4.89095
0
LINE
8
BLACK
6
CONTINUOUS
10
4.40787
20
-4.89095
11
4.4025
21
-4.90252
0
LINE
8
BLACK
6
CONTINUOUS
10
4.4025
20
-4.90252
11
4.3985
21
-4.91463
0
LINE
8
BLACK
6
CONTINUOUS
10
4.3985
20
-4.91463
11
4.39591
21
-4.92712
0
LINE
8
BLACK
6
CONTINUOUS
10
4.39591
20
-4.92712
11
4.39478
21
-4.93983
0
LINE
8
BLACK
6
CONTINUOUS
10
4.39478
20
-4.93983
11
4.39511
21
-4.95258
0
LINE
8
BLACK
6
CONTINUOUS
10
4.39511
20
-4.95258
11
4.39691
21
-4.96521
0
LINE
8
BLACK
6
CONTINUOUS
10
7.18343
20
-4.91377
11
7.18749
21
-4.90035
0
LINE
8
BLACK
6
CONTINUOUS
10
7.18749
20
-4.90035
11
7.19301
21
-4.88746
0
LINE
8
BLACK
6
CONTINUOUS
10
7.19301
20
-4.88746
11
7.19994
21
-4.87527
0
LINE
8
BLACK
6
CONTINUOUS
10
7.19994
20
-4.87527
11
7.20818
21
-4.86392
0
LINE
8
BLACK
6
CONTINUOUS
10
7.20818
20
-4.86392
11
7.21763
21
-4.85357
0
LINE
8
BLACK
6
CONTINUOUS
10
7.21763
20
-4.85357
11
7.22818
21
-4.84433
0
LINE
8
BLACK
6
CONTINUOUS
10
7.22818
20
-4.84433
11
7.2397
21
-4.83633
0
LINE
8
BLACK
6
CONTINUOUS
10
7.2397
20
-4.83633
11
7.25203
21
-4.82966
0
LINE
8
BLACK
6
CONTINUOUS
10
7.25203
20
-4.82966
11
7.26504
21
-4.82441
0
LINE
8
BLACK
6
CONTINUOUS
10
7.26504
20
-4.82441
11
7.27854
21
-4.82064
0
LINE
8
BLACK
6
CONTINUOUS
10
7.27854
20
-4.82064
11
7.29238
21
-4.8184
0
LINE
8
BLACK
6
CONTINUOUS
10
7.29238
20
-4.8184
11
7.30639
21
-4.81771
0
LINE
8
BLACK
6
CONTINUOUS
10
7.30639
20
-4.81771
11
7.32038
21
-4.81859
0
LINE
8
BLACK
6
CONTINUOUS
10
7.32038
20
-4.81859
11
7.33419
21
-4.82103
0
LINE
8
BLACK
6
CONTINUOUS
10
7.33419
20
-4.82103
11
7.34764
21
-4.82498
0
LINE
8
BLACK
6
CONTINUOUS
10
7.34764
20
-4.82498
11
7.36057
21
-4.83042
0
LINE
8
BLACK
6
CONTINUOUS
10
7.36057
20
-4.83042
11
7.37281
21
-4.83726
0
LINE
8
BLACK
6
CONTINUOUS
10
7.37281
20
-4.83726
11
7.38421
21
-4.84542
0
LINE
8
BLACK
6
CONTINUOUS
10
7.38421
20
-4.84542
11
7.39463
21
-4.85481
0
LINE
8
BLACK
6
CONTINUOUS
10
7.39463
20
-4.85481
11
7.40394
21
-4.86529
0
LINE
8
BLACK
6
CONTINUOUS
10
7.40394
20
-4.86529
11
7.41203
21
-4.87675
0
LINE
8
BLACK
6
CONTINUOUS
10
7.41203
20
-4.87675
11
7.41878
21
-4.88904
0
LINE
8
BLACK
6
CONTINUOUS
10
7.41878
20
-4.88904
11
7.42413
21
-4.902
0
LINE
8
BLACK
6
CONTINUOUS
10
7.42413
20
-4.902
11
7.42799
21
-4.91548
0
LINE
8
BLACK
6
CONTINUOUS
10
7.42799
20
-4.91548
11
7.43033
21
-4.92931
0
LINE
8
BLACK
6
CONTINUOUS
10
7.43033
20
-4.92931
11
7.43111
21
-4.94331
0
LINE
8
BLACK
6
CONTINUOUS
10
7.43111
20
-4.94331
11
7.43106
21
-4.94681
0
LINE
8
BLACK
6
CONTINUOUS
10
7.43106
20
-4.94681
11
7.42989
21
-4.96079
0
LINE
8
BLACK
6
CONTINUOUS
10
7.42989
20
-4.96079
11
7.42717
21
-4.97454
0
LINE
8
BLACK
6
CONTINUOUS
10
7.42717
20
-4.97454
11
7.42293
21
-4.98791
0
LINE
8
BLACK
6
CONTINUOUS
10
7.42293
20
-4.98791
11
7.41722
21
-5.00072
0
LINE
8
BLACK
6
CONTINUOUS
10
7.41722
20
-5.00072
11
7.41013
21
-5.01281
0
LINE
8
BLACK
6
CONTINUOUS
10
7.41013
20
-5.01281
11
7.40173
21
-5.02404
0
LINE
8
BLACK
6
CONTINUOUS
10
7.40173
20
-5.02404
11
7.39213
21
-5.03426
0
LINE
8
BLACK
6
CONTINUOUS
10
7.39213
20
-5.03426
11
7.38145
21
-5.04335
0
LINE
8
BLACK
6
CONTINUOUS
10
7.38145
20
-5.04335
11
7.36982
21
-5.05119
0
LINE
8
BLACK
6
CONTINUOUS
10
7.36982
20
-5.05119
11
7.3574
21
-5.05769
0
LINE
8
BLACK
6
CONTINUOUS
10
7.3574
20
-5.05769
11
7.34432
21
-5.06276
0
LINE
8
BLACK
6
CONTINUOUS
10
7.34432
20
-5.06276
11
7.33077
21
-5.06634
0
LINE
8
BLACK
6
CONTINUOUS
10
7.33077
20
-5.06634
11
7.3169
21
-5.06839
0
LINE
8
BLACK
6
CONTINUOUS
10
7.3169
20
-5.06839
11
7.30288
21
-5.06888
0
LINE
8
BLACK
6
CONTINUOUS
10
7.30288
20
-5.06888
11
7.2889
21
-5.0678
0
LINE
8
BLACK
6
CONTINUOUS
10
7.2889
20
-5.0678
11
7.27513
21
-5.06518
0
LINE
8
BLACK
6
CONTINUOUS
10
7.27513
20
-5.06518
11
7.26173
21
-5.06103
0
LINE
8
BLACK
6
CONTINUOUS
10
7.26173
20
-5.06103
11
7.24888
21
-5.05542
0
LINE
8
BLACK
6
CONTINUOUS
10
7.24888
20
-5.05542
11
7.23674
21
-5.0484
0
LINE
8
BLACK
6
CONTINUOUS
10
7.23674
20
-5.0484
11
7.22545
21
-5.04008
0
LINE
8
BLACK
6
CONTINUOUS
10
7.22545
20
-5.04008
11
7.21516
21
-5.03056
0
LINE
8
BLACK
6
CONTINUOUS
10
7.21516
20
-5.03056
11
7.206
21
-5.01994
0
LINE
8
BLACK
6
CONTINUOUS
10
7.206
20
-5.01994
11
7.19808
21
-5.00837
0
LINE
8
BLACK
6
CONTINUOUS
10
7.19808
20
-5.00837
11
7.19149
21
-4.99599
0
LINE
8
BLACK
6
CONTINUOUS
10
7.19149
20
-4.99599
11
7.18633
21
-4.98295
0
LINE
8
BLACK
6
CONTINUOUS
10
7.18633
20
-4.98295
11
7.18266
21
-4.96942
0
LINE
8
BLACK
6
CONTINUOUS
10
7.18266
20
-4.96942
11
7.18051
21
-4.95556
0
LINE
8
BLACK
6
CONTINUOUS
10
7.18051
20
-4.95556
11
7.17992
21
-4.94155
0
LINE
8
BLACK
6
CONTINUOUS
10
7.17992
20
-4.94155
11
7.18004
21
-4.93983
0
LINE
8
BLACK
6
CONTINUOUS
10
7.18004
20
-4.93983
11
7.1809
21
-4.92757
0
LINE
8
BLACK
6
CONTINUOUS
10
7.1809
20
-4.92757
11
7.18343
21
-4.91377
0
LINE
8
BLACK
6
CONTINUOUS
10
7.19691
20
-4.96521
11
7.20015
21
-4.97754
0
LINE
8
BLACK
6
CONTINUOUS
10
7.20015
20
-4.97754
11
7.20478
21
-4.98943
0
LINE
8
BLACK
6
CONTINUOUS
10
7.20478
20
-4.98943
11
7.21075
21
-5.0007
0
LINE
8
BLACK
6
CONTINUOUS
10
7.21075
20
-5.0007
11
7.21797
21
-5.01121
0
LINE
8
BLACK
6
CONTINUOUS
10
7.21797
20
-5.01121
11
7.22636
21
-5.02082
0
LINE
8
BLACK
6
CONTINUOUS
10
7.22636
20
-5.02082
11
7.23579
21
-5.02941
0
LINE
8
BLACK
6
CONTINUOUS
10
7.23579
20
-5.02941
11
7.24615
21
-5.03685
0
LINE
8
BLACK
6
CONTINUOUS
10
7.24615
20
-5.03685
11
7.25729
21
-5.04305
0
LINE
8
BLACK
6
CONTINUOUS
10
7.25729
20
-5.04305
11
7.26908
21
-5.04793
0
LINE
8
BLACK
6
CONTINUOUS
10
7.26908
20
-5.04793
11
7.28134
21
-5.05143
0
LINE
8
BLACK
6
CONTINUOUS
10
7.28134
20
-5.05143
11
7.29393
21
-5.05349
0
LINE
8
BLACK
6
CONTINUOUS
10
7.29393
20
-5.05349
11
7.30667
21
-5.05409
0
LINE
8
BLACK
6
CONTINUOUS
10
7.30667
20
-5.05409
11
7.3194
21
-5.05322
0
LINE
8
BLACK
6
CONTINUOUS
10
7.3194
20
-5.05322
11
7.33194
21
-5.0509
0
LINE
8
BLACK
6
CONTINUOUS
10
7.33194
20
-5.0509
11
7.34413
21
-5.04715
0
LINE
8
BLACK
6
CONTINUOUS
10
7.34413
20
-5.04715
11
7.35581
21
-5.04202
0
LINE
8
BLACK
6
CONTINUOUS
10
7.35581
20
-5.04202
11
7.36682
21
-5.03558
0
LINE
8
BLACK
6
CONTINUOUS
10
7.36682
20
-5.03558
11
7.37702
21
-5.02793
0
LINE
8
BLACK
6
CONTINUOUS
10
7.37702
20
-5.02793
11
7.38627
21
-5.01915
0
LINE
8
BLACK
6
CONTINUOUS
10
7.38627
20
-5.01915
11
7.39445
21
-5.00936
0
LINE
8
BLACK
6
CONTINUOUS
10
7.39445
20
-5.00936
11
7.40146
21
-4.9987
0
LINE
8
BLACK
6
CONTINUOUS
10
7.40146
20
-4.9987
11
7.40719
21
-4.98731
0
LINE
8
BLACK
6
CONTINUOUS
10
7.40719
20
-4.98731
11
7.41157
21
-4.97533
0
LINE
8
BLACK
6
CONTINUOUS
10
7.41157
20
-4.97533
11
7.41455
21
-4.96293
0
LINE
8
BLACK
6
CONTINUOUS
10
7.41455
20
-4.96293
11
7.41608
21
-4.95026
0
LINE
8
BLACK
6
CONTINUOUS
10
7.41608
20
-4.95026
11
7.4163
21
-4.94331
0
LINE
8
BLACK
6
CONTINUOUS
10
7.4163
20
-4.94331
11
7.41557
21
-4.93057
0
LINE
8
BLACK
6
CONTINUOUS
10
7.41557
20
-4.93057
11
7.41337
21
-4.91801
0
LINE
8
BLACK
6
CONTINUOUS
10
7.41337
20
-4.91801
11
7.40975
21
-4.90578
0
LINE
8
BLACK
6
CONTINUOUS
10
7.40975
20
-4.90578
11
7.40475
21
-4.89405
0
LINE
8
BLACK
6
CONTINUOUS
10
7.40475
20
-4.89405
11
7.39843
21
-4.88297
0
LINE
8
BLACK
6
CONTINUOUS
10
7.39843
20
-4.88297
11
7.39087
21
-4.87269
0
LINE
8
BLACK
6
CONTINUOUS
10
7.39087
20
-4.87269
11
7.38219
21
-4.86335
0
LINE
8
BLACK
6
CONTINUOUS
10
7.38219
20
-4.86335
11
7.37249
21
-4.85506
0
LINE
8
BLACK
6
CONTINUOUS
10
7.37249
20
-4.85506
11
7.36191
21
-4.84795
0
LINE
8
BLACK
6
CONTINUOUS
10
7.36191
20
-4.84795
11
7.35057
21
-4.8421
0
LINE
8
BLACK
6
CONTINUOUS
10
7.35057
20
-4.8421
11
7.33864
21
-4.83759
0
LINE
8
BLACK
6
CONTINUOUS
10
7.33864
20
-4.83759
11
7.32627
21
-4.83448
0
LINE
8
BLACK
6
CONTINUOUS
10
7.32627
20
-4.83448
11
7.31363
21
-4.83282
0
LINE
8
BLACK
6
CONTINUOUS
10
7.31363
20
-4.83282
11
7.30087
21
-4.83262
0
LINE
8
BLACK
6
CONTINUOUS
10
7.30087
20
-4.83262
11
7.28818
21
-4.83388
0
LINE
8
BLACK
6
CONTINUOUS
10
7.28818
20
-4.83388
11
7.27572
21
-4.8366
0
LINE
8
BLACK
6
CONTINUOUS
10
7.27572
20
-4.8366
11
7.26365
21
-4.84073
0
LINE
8
BLACK
6
CONTINUOUS
10
7.26365
20
-4.84073
11
7.25214
21
-4.84622
0
LINE
8
BLACK
6
CONTINUOUS
10
7.25214
20
-4.84622
11
7.24133
21
-4.853
0
LINE
8
BLACK
6
CONTINUOUS
10
7.24133
20
-4.853
11
7.23138
21
-4.86098
0
LINE
8
BLACK
6
CONTINUOUS
10
7.23138
20
-4.86098
11
7.22241
21
-4.87004
0
LINE
8
BLACK
6
CONTINUOUS
10
7.22241
20
-4.87004
11
7.21454
21
-4.88008
0
LINE
8
BLACK
6
CONTINUOUS
10
7.21454
20
-4.88008
11
7.20787
21
-4.89095
0
LINE
8
BLACK
6
CONTINUOUS
10
7.20787
20
-4.89095
11
7.2025
21
-4.90252
0
LINE
8
BLACK
6
CONTINUOUS
10
7.2025
20
-4.90252
11
7.1985
21
-4.91463
0
LINE
8
BLACK
6
CONTINUOUS
10
7.1985
20
-4.91463
11
7.19591
21
-4.92712
0
LINE
8
BLACK
6
CONTINUOUS
10
7.19591
20
-4.92712
11
7.19478
21
-4.93983
0
LINE
8
BLACK
6
CONTINUOUS
10
7.19478
20
-4.93983
11
7.19511
21
-4.95258
0
LINE
8
BLACK
6
CONTINUOUS
10
7.19511
20
-4.95258
11
7.19691
21
-4.96521
0
LINE
8
BLACK
6
CONTINUOUS
10
4.36611
20
-3.51377
11
4.37016
21
-3.50035
0
LINE
8
BLACK
6
CONTINUOUS
10
4.37016
20
-3.50035
11
4.37569
21
-3.48746
0
LINE
8
BLACK
6
CONTINUOUS
10
4.37569
20
-3.48746
11
4.38261
21
-3.47527
0
LINE
8
BLACK
6
CONTINUOUS
10
4.38261
20
-3.47527
11
4.39086
21
-3.46392
0
LINE
8
BLACK
6
CONTINUOUS
10
4.39086
20
-3.46392
11
4.40031
21
-3.45357
0
LINE
8
BLACK
6
CONTINUOUS
10
4.40031
20
-3.45357
11
4.41086
21
-3.44433
0
LINE
8
BLACK
6
CONTINUOUS
10
4.41086
20
-3.44433
11
4.42238
21
-3.43633
0
LINE
8
BLACK
6
CONTINUOUS
10
4.42238
20
-3.43633
11
4.43471
21
-3.42966
0
LINE
8
BLACK
6
CONTINUOUS
10
4.43471
20
-3.42966
11
4.44771
21
-3.42441
0
LINE
8
BLACK
6
CONTINUOUS
10
4.44771
20
-3.42441
11
4.46122
21
-3.42064
0
LINE
8
BLACK
6
CONTINUOUS
10
4.46122
20
-3.42064
11
4.47506
21
-3.4184
0
LINE
8
BLACK
6
CONTINUOUS
10
4.47506
20
-3.4184
11
4.48907
21
-3.41771
0
LINE
8
BLACK
6
CONTINUOUS
10
4.48907
20
-3.41771
11
4.50306
21
-3.41859
0
LINE
8
BLACK
6
CONTINUOUS
10
4.50306
20
-3.41859
11
4.51687
21
-3.42103
0
LINE
8
BLACK
6
CONTINUOUS
10
4.51687
20
-3.42103
11
4.53032
21
-3.42498
0
LINE
8
BLACK
6
CONTINUOUS
10
4.53032
20
-3.42498
11
4.54325
21
-3.43042
0
LINE
8
BLACK
6
CONTINUOUS
10
4.54325
20
-3.43042
11
4.55549
21
-3.43726
0
LINE
8
BLACK
6
CONTINUOUS
10
4.55549
20
-3.43726
11
4.56689
21
-3.44542
0
LINE
8
BLACK
6
CONTINUOUS
10
4.56689
20
-3.44542
11
4.57731
21
-3.45481
0
LINE
8
BLACK
6
CONTINUOUS
10
4.57731
20
-3.45481
11
4.58662
21
-3.46529
0
LINE
8
BLACK
6
CONTINUOUS
10
4.58662
20
-3.46529
11
4.5947
21
-3.47675
0
LINE
8
BLACK
6
CONTINUOUS
10
4.5947
20
-3.47675
11
4.60146
21
-3.48904
0
LINE
8
BLACK
6
CONTINUOUS
10
4.60146
20
-3.48904
11
4.6068
21
-3.502
0
LINE
8
BLACK
6
CONTINUOUS
10
4.6068
20
-3.502
11
4.61067
21
-3.51548
0
LINE
8
BLACK
6
CONTINUOUS
10
4.61067
20
-3.51548
11
4.61301
21
-3.52931
0
LINE
8
BLACK
6
CONTINUOUS
10
4.61301
20
-3.52931
11
4.61379
21
-3.54331
0
LINE
8
BLACK
6
CONTINUOUS
10
4.61379
20
-3.54331
11
4.61374
21
-3.54681
0
LINE
8
BLACK
6
CONTINUOUS
10
4.61374
20
-3.54681
11
4.61257
21
-3.56079
0
LINE
8
BLACK
6
CONTINUOUS
10
4.61257
20
-3.56079
11
4.60984
21
-3.57454
0
LINE
8
BLACK
6
CONTINUOUS
10
4.60984
20
-3.57454
11
4.6056
21
-3.58791
0
LINE
8
BLACK
6
CONTINUOUS
10
4.6056
20
-3.58791
11
4.5999
21
-3.60072
0
LINE
8
BLACK
6
CONTINUOUS
10
4.5999
20
-3.60072
11
4.5928
21
-3.61281
0
LINE
8
BLACK
6
CONTINUOUS
10
4.5928
20
-3.61281
11
4.5844
21
-3.62404
0
LINE
8
BLACK
6
CONTINUOUS
10
4.5844
20
-3.62404
11
4.57481
21
-3.63426
0
LINE
8
BLACK
6
CONTINUOUS
10
4.57481
20
-3.63426
11
4.56413
21
-3.64335
0
LINE
8
BLACK
6
CONTINUOUS
10
4.56413
20
-3.64335
11
4.5525
21
-3.65119
0
LINE
8
BLACK
6
CONTINUOUS
10
4.5525
20
-3.65119
11
4.54007
21
-3.65769
0
LINE
8
BLACK
6
CONTINUOUS
10
4.54007
20
-3.65769
11
4.527
21
-3.66276
0
LINE
8
BLACK
6
CONTINUOUS
10
4.527
20
-3.66276
11
4.51344
21
-3.66634
0
LINE
8
BLACK
6
CONTINUOUS
10
4.51344
20
-3.66634
11
4.49957
21
-3.66839
0
LINE
8
BLACK
6
CONTINUOUS
10
4.49957
20
-3.66839
11
4.48556
21
-3.66888
0
LINE
8
BLACK
6
CONTINUOUS
10
4.48556
20
-3.66888
11
4.47158
21
-3.6678
0
LINE
8
BLACK
6
CONTINUOUS
10
4.47158
20
-3.6678
11
4.4578
21
-3.66518
0
LINE
8
BLACK
6
CONTINUOUS
10
4.4578
20
-3.66518
11
4.44441
21
-3.66103
0
LINE
8
BLACK
6
CONTINUOUS
10
4.44441
20
-3.66103
11
4.43156
21
-3.65542
0
LINE
8
BLACK
6
CONTINUOUS
10
4.43156
20
-3.65542
11
4.41942
21
-3.6484
0
LINE
8
BLACK
6
CONTINUOUS
10
4.41942
20
-3.6484
11
4.40813
21
-3.64008
0
LINE
8
BLACK
6
CONTINUOUS
10
4.40813
20
-3.64008
11
4.39784
21
-3.63056
0
LINE
8
BLACK
6
CONTINUOUS
10
4.39784
20
-3.63056
11
4.38868
21
-3.61994
0
LINE
8
BLACK
6
CONTINUOUS
10
4.38868
20
-3.61994
11
4.38076
21
-3.60837
0
LINE
8
BLACK
6
CONTINUOUS
10
4.38076
20
-3.60837
11
4.37417
21
-3.59599
0
LINE
8
BLACK
6
CONTINUOUS
10
4.37417
20
-3.59599
11
4.36901
21
-3.58295
0
LINE
8
BLACK
6
CONTINUOUS
10
4.36901
20
-3.58295
11
4.36533
21
-3.56942
0
LINE
8
BLACK
6
CONTINUOUS
10
4.36533
20
-3.56942
11
4.36319
21
-3.55556
0
LINE
8
BLACK
6
CONTINUOUS
10
4.36319
20
-3.55556
11
4.3626
21
-3.54155
0
LINE
8
BLACK
6
CONTINUOUS
10
4.3626
20
-3.54155
11
4.36272
21
-3.53983
0
LINE
8
BLACK
6
CONTINUOUS
10
4.36272
20
-3.53983
11
4.36358
21
-3.52757
0
LINE
8
BLACK
6
CONTINUOUS
10
4.36358
20
-3.52757
11
4.36611
21
-3.51377
0
LINE
8
BLACK
6
CONTINUOUS
10
4.37959
20
-3.56521
11
4.38282
21
-3.57754
0
LINE
8
BLACK
6
CONTINUOUS
10
4.38282
20
-3.57754
11
4.38746
21
-3.58943
0
LINE
8
BLACK
6
CONTINUOUS
10
4.38746
20
-3.58943
11
4.39343
21
-3.6007
0
LINE
8
BLACK
6
CONTINUOUS
10
4.39343
20
-3.6007
11
4.40065
21
-3.61121
0
LINE
8
BLACK
6
CONTINUOUS
10
4.40065
20
-3.61121
11
4.40903
21
-3.62082
0
LINE
8
BLACK
6
CONTINUOUS
10
4.40903
20
-3.62082
11
4.41847
21
-3.62941
0
LINE
8
BLACK
6
CONTINUOUS
10
4.41847
20
-3.62941
11
4.42883
21
-3.63685
0
LINE
8
BLACK
6
CONTINUOUS
10
4.42883
20
-3.63685
11
4.43997
21
-3.64305
0
LINE
8
BLACK
6
CONTINUOUS
10
4.43997
20
-3.64305
11
4.45175
21
-3.64793
0
LINE
8
BLACK
6
CONTINUOUS
10
4.45175
20
-3.64793
11
4.46402
21
-3.65143
0
LINE
8
BLACK
6
CONTINUOUS
10
4.46402
20
-3.65143
11
4.47661
21
-3.65349
0
LINE
8
BLACK
6
CONTINUOUS
10
4.47661
20
-3.65349
11
4.48935
21
-3.65409
0
LINE
8
BLACK
6
CONTINUOUS
10
4.48935
20
-3.65409
11
4.50207
21
-3.65322
0
LINE
8
BLACK
6
CONTINUOUS
10
4.50207
20
-3.65322
11
4.51462
21
-3.6509
0
LINE
8
BLACK
6
CONTINUOUS
10
4.51462
20
-3.6509
11
4.52681
21
-3.64715
0
LINE
8
BLACK
6
CONTINUOUS
10
4.52681
20
-3.64715
11
4.53849
21
-3.64202
0
LINE
8
BLACK
6
CONTINUOUS
10
4.53849
20
-3.64202
11
4.5495
21
-3.63558
0
LINE
8
BLACK
6
CONTINUOUS
10
4.5495
20
-3.63558
11
4.5597
21
-3.62793
0
LINE
8
BLACK
6
CONTINUOUS
10
4.5597
20
-3.62793
11
4.56895
21
-3.61915
0
LINE
8
BLACK
6
CONTINUOUS
10
4.56895
20
-3.61915
11
4.57713
21
-3.60936
0
LINE
8
BLACK
6
CONTINUOUS
10
4.57713
20
-3.60936
11
4.58413
21
-3.5987
0
LINE
8
BLACK
6
CONTINUOUS
10
4.58413
20
-3.5987
11
4.58986
21
-3.58731
0
LINE
8
BLACK
6
CONTINUOUS
10
4.58986
20
-3.58731
11
4.59425
21
-3.57533
0
LINE
8
BLACK
6
CONTINUOUS
10
4.59425
20
-3.57533
11
4.59723
21
-3.56293
0
LINE
8
BLACK
6
CONTINUOUS
10
4.59723
20
-3.56293
11
4.59876
21
-3.55026
0
LINE
8
BLACK
6
CONTINUOUS
10
4.59876
20
-3.55026
11
4.59898
21
-3.54331
0
LINE
8
BLACK
6
CONTINUOUS
10
4.59898
20
-3.54331
11
4.59824
21
-3.53057
0
LINE
8
BLACK
6
CONTINUOUS
10
4.59824
20
-3.53057
11
4.59605
21
-3.51801
0
LINE
8
BLACK
6
CONTINUOUS
10
4.59605
20
-3.51801
11
4.59243
21
-3.50578
0
LINE
8
BLACK
6
CONTINUOUS
10
4.59243
20
-3.50578
11
4.58742
21
-3.49405
0
LINE
8
BLACK
6
CONTINUOUS
10
4.58742
20
-3.49405
11
4.5811
21
-3.48297
0
LINE
8
BLACK
6
CONTINUOUS
10
4.5811
20
-3.48297
11
4.57355
21
-3.47269
0
LINE
8
BLACK
6
CONTINUOUS
10
4.57355
20
-3.47269
11
4.56487
21
-3.46335
0
LINE
8
BLACK
6
CONTINUOUS
10
4.56487
20
-3.46335
11
4.55517
21
-3.45506
0
LINE
8
BLACK
6
CONTINUOUS
10
4.55517
20
-3.45506
11
4.54458
21
-3.44795
0
LINE
8
BLACK
6
CONTINUOUS
10
4.54458
20
-3.44795
11
4.53325
21
-3.4421
0
LINE
8
BLACK
6
CONTINUOUS
10
4.53325
20
-3.4421
11
4.52132
21
-3.43759
0
LINE
8
BLACK
6
CONTINUOUS
10
4.52132
20
-3.43759
11
4.50895
21
-3.43448
0
LINE
8
BLACK
6
CONTINUOUS
10
4.50895
20
-3.43448
11
4.4963
21
-3.43282
0
LINE
8
BLACK
6
CONTINUOUS
10
4.4963
20
-3.43282
11
4.48355
21
-3.43262
0
LINE
8
BLACK
6
CONTINUOUS
10
4.48355
20
-3.43262
11
4.47086
21
-3.43388
0
LINE
8
BLACK
6
CONTINUOUS
10
4.47086
20
-3.43388
11
4.4584
21
-3.4366
0
LINE
8
BLACK
6
CONTINUOUS
10
4.4584
20
-3.4366
11
4.44633
21
-3.44073
0
LINE
8
BLACK
6
CONTINUOUS
10
4.44633
20
-3.44073
11
4.43482
21
-3.44622
0
LINE
8
BLACK
6
CONTINUOUS
10
4.43482
20
-3.44622
11
4.42401
21
-3.453
0
LINE
8
BLACK
6
CONTINUOUS
10
4.42401
20
-3.453
11
4.41406
21
-3.46098
0
LINE
8
BLACK
6
CONTINUOUS
10
4.41406
20
-3.46098
11
4.40509
21
-3.47004
0
LINE
8
BLACK
6
CONTINUOUS
10
4.40509
20
-3.47004
11
4.39722
21
-3.48008
0
LINE
8
BLACK
6
CONTINUOUS
10
4.39722
20
-3.48008
11
4.39055
21
-3.49095
0
LINE
8
BLACK
6
CONTINUOUS
10
4.39055
20
-3.49095
11
4.38518
21
-3.50252
0
LINE
8
BLACK
6
CONTINUOUS
10
4.38518
20
-3.50252
11
4.38118
21
-3.51463
0
LINE
8
BLACK
6
CONTINUOUS
10
4.38118
20
-3.51463
11
4.37859
21
-3.52712
0
LINE
8
BLACK
6
CONTINUOUS
10
4.37859
20
-3.52712
11
4.37746
21
-3.53983
0
LINE
8
BLACK
6
CONTINUOUS
10
4.37746
20
-3.53983
11
4.37779
21
-3.55258
0
LINE
8
BLACK
6
CONTINUOUS
10
4.37779
20
-3.55258
11
4.37959
21
-3.56521
0
LINE
8
BLACK
6
CONTINUOUS
10
7.20076
20
-3.51377
11
7.20481
21
-3.50035
0
LINE
8
BLACK
6
CONTINUOUS
10
7.20481
20
-3.50035
11
7.21033
21
-3.48746
0
LINE
8
BLACK
6
CONTINUOUS
10
7.21033
20
-3.48746
11
7.21726
21
-3.47527
0
LINE
8
BLACK
6
CONTINUOUS
10
7.21726
20
-3.47527
11
7.2255
21
-3.46392
0
LINE
8
BLACK
6
CONTINUOUS
10
7.2255
20
-3.46392
11
7.23496
21
-3.45357
0
LINE
8
BLACK
6
CONTINUOUS
10
7.23496
20
-3.45357
11
7.24551
21
-3.44433
0
LINE
8
BLACK
6
CONTINUOUS
10
7.24551
20
-3.44433
11
7.25702
21
-3.43633
0
LINE
8
BLACK
6
CONTINUOUS
10
7.25702
20
-3.43633
11
7.26936
21
-3.42966
0
LINE
8
BLACK
6
CONTINUOUS
10
7.26936
20
-3.42966
11
7.28236
21
-3.42441
0
LINE
8
BLACK
6
CONTINUOUS
10
7.28236
20
-3.42441
11
7.29586
21
-3.42064
0
LINE
8
BLACK
6
CONTINUOUS
10
7.29586
20
-3.42064
11
7.30971
21
-3.4184
0
LINE
8
BLACK
6
CONTINUOUS
10
7.30971
20
-3.4184
11
7.32371
21
-3.41771
0
LINE
8
BLACK
6
CONTINUOUS
10
7.32371
20
-3.41771
11
7.33771
21
-3.41859
0
LINE
8
BLACK
6
CONTINUOUS
10
7.33771
20
-3.41859
11
7.35152
21
-3.42103
0
LINE
8
BLACK
6
CONTINUOUS
10
7.35152
20
-3.42103
11
7.36497
21
-3.42498
0
LINE
8
BLACK
6
CONTINUOUS
10
7.36497
20
-3.42498
11
7.37789
21
-3.43042
0
LINE
8
BLACK
6
CONTINUOUS
10
7.37789
20
-3.43042
11
7.39013
21
-3.43726
0
LINE
8
BLACK
6
CONTINUOUS
10
7.39013
20
-3.43726
11
7.40154
21
-3.44542
0
LINE
8
BLACK
6
CONTINUOUS
10
7.40154
20
-3.44542
11
7.41196
21
-3.45481
0
LINE
8
BLACK
6
CONTINUOUS
10
7.41196
20
-3.45481
11
7.42127
21
-3.46529
0
LINE
8
BLACK
6
CONTINUOUS
10
7.42127
20
-3.46529
11
7.42935
21
-3.47675
0
LINE
8
BLACK
6
CONTINUOUS
10
7.42935
20
-3.47675
11
7.4361
21
-3.48904
0
LINE
8
BLACK
6
CONTINUOUS
10
7.4361
20
-3.48904
11
7.44145
21
-3.502
0
LINE
8
BLACK
6
CONTINUOUS
10
7.44145
20
-3.502
11
7.44531
21
-3.51548
0
LINE
8
BLACK
6
CONTINUOUS
10
7.44531
20
-3.51548
11
7.44765
21
-3.52931
0
LINE
8
BLACK
6
CONTINUOUS
10
7.44765
20
-3.52931
11
7.44843
21
-3.54331
0
LINE
8
BLACK
6
CONTINUOUS
10
7.44843
20
-3.54331
11
7.44839
21
-3.54681
0
LINE
8
BLACK
6
CONTINUOUS
10
7.44839
20
-3.54681
11
7.44721
21
-3.56079
0
LINE
8
BLACK
6
CONTINUOUS
10
7.44721
20
-3.56079
11
7.44449
21
-3.57454
0
LINE
8
BLACK
6
CONTINUOUS
10
7.44449
20
-3.57454
11
7.44025
21
-3.58791
0
LINE
8
BLACK
6
CONTINUOUS
10
7.44025
20
-3.58791
11
7.43455
21
-3.60072
0
LINE
8
BLACK
6
CONTINUOUS
10
7.43455
20
-3.60072
11
7.42745
21
-3.61281
0
LINE
8
BLACK
6
CONTINUOUS
10
7.42745
20
-3.61281
11
7.41905
21
-3.62404
0
LINE
8
BLACK
6
CONTINUOUS
10
7.41905
20
-3.62404
11
7.40945
21
-3.63426
0
LINE
8
BLACK
6
CONTINUOUS
10
7.40945
20
-3.63426
11
7.39877
21
-3.64335
0
LINE
8
BLACK
6
CONTINUOUS
10
7.39877
20
-3.64335
11
7.38715
21
-3.65119
0
LINE
8
BLACK
6
CONTINUOUS
10
7.38715
20
-3.65119
11
7.37472
21
-3.65769
0
LINE
8
BLACK
6
CONTINUOUS
10
7.37472
20
-3.65769
11
7.36165
21
-3.66276
0
LINE
8
BLACK
6
CONTINUOUS
10
7.36165
20
-3.66276
11
7.34809
21
-3.66634
0
LINE
8
BLACK
6
CONTINUOUS
10
7.34809
20
-3.66634
11
7.33422
21
-3.66839
0
LINE
8
BLACK
6
CONTINUOUS
10
7.33422
20
-3.66839
11
7.3202
21
-3.66888
0
LINE
8
BLACK
6
CONTINUOUS
10
7.3202
20
-3.66888
11
7.30622
21
-3.6678
0
LINE
8
BLACK
6
CONTINUOUS
10
7.30622
20
-3.6678
11
7.29245
21
-3.66518
0
LINE
8
BLACK
6
CONTINUOUS
10
7.29245
20
-3.66518
11
7.27905
21
-3.66103
0
LINE
8
BLACK
6
CONTINUOUS
10
7.27905
20
-3.66103
11
7.2662
21
-3.65542
0
LINE
8
BLACK
6
CONTINUOUS
10
7.2662
20
-3.65542
11
7.25406
21
-3.6484
0
LINE
8
BLACK
6
CONTINUOUS
10
7.25406
20
-3.6484
11
7.24277
21
-3.64008
0
LINE
8
BLACK
6
CONTINUOUS
10
7.24277
20
-3.64008
11
7.23249
21
-3.63056
0
LINE
8
BLACK
6
CONTINUOUS
10
7.23249
20
-3.63056
11
7.22332
21
-3.61994
0
LINE
8
BLACK
6
CONTINUOUS
10
7.22332
20
-3.61994
11
7.2154
21
-3.60837
0
LINE
8
BLACK
6
CONTINUOUS
10
7.2154
20
-3.60837
11
7.20882
21
-3.59599
0
LINE
8
BLACK
6
CONTINUOUS
10
7.20882
20
-3.59599
11
7.20366
21
-3.58295
0
LINE
8
BLACK
6
CONTINUOUS
10
7.20366
20
-3.58295
11
7.19998
21
-3.56942
0
LINE
8
BLACK
6
CONTINUOUS
10
7.19998
20
-3.56942
11
7.19783
21
-3.55556
0
LINE
8
BLACK
6
CONTINUOUS
10
7.19783
20
-3.55556
11
7.19725
21
-3.54155
0
LINE
8
BLACK
6
CONTINUOUS
10
7.19725
20
-3.54155
11
7.19737
21
-3.53983
0
LINE
8
BLACK
6
CONTINUOUS
10
7.19737
20
-3.53983
11
7.19823
21
-3.52757
0
LINE
8
BLACK
6
CONTINUOUS
10
7.19823
20
-3.52757
11
7.20076
21
-3.51377
0
LINE
8
BLACK
6
CONTINUOUS
10
7.21423
20
-3.56521
11
7.21747
21
-3.57754
0
LINE
8
BLACK
6
CONTINUOUS
10
7.21747
20
-3.57754
11
7.2221
21
-3.58943
0
LINE
8
BLACK
6
CONTINUOUS
10
7.2221
20
-3.58943
11
7.22807
21
-3.6007
0
LINE
8
BLACK
6
CONTINUOUS
10
7.22807
20
-3.6007
11
7.2353
21
-3.61121
0
LINE
8
BLACK
6
CONTINUOUS
10
7.2353
20
-3.61121
11
7.24368
21
-3.62082
0
LINE
8
BLACK
6
CONTINUOUS
10
7.24368
20
-3.62082
11
7.25311
21
-3.62941
0
LINE
8
BLACK
6
CONTINUOUS
10
7.25311
20
-3.62941
11
7.26347
21
-3.63685
0
LINE
8
BLACK
6
CONTINUOUS
10
7.26347
20
-3.63685
11
7.27462
21
-3.64305
0
LINE
8
BLACK
6
CONTINUOUS
10
7.27462
20
-3.64305
11
7.2864
21
-3.64793
0
LINE
8
BLACK
6
CONTINUOUS
10
7.2864
20
-3.64793
11
7.29867
21
-3.65143
0
LINE
8
BLACK
6
CONTINUOUS
10
7.29867
20
-3.65143
11
7.31125
21
-3.65349
0
LINE
8
BLACK
6
CONTINUOUS
10
7.31125
20
-3.65349
11
7.32399
21
-3.65409
0
LINE
8
BLACK
6
CONTINUOUS
10
7.32399
20
-3.65409
11
7.33672
21
-3.65322
0
LINE
8
BLACK
6
CONTINUOUS
10
7.33672
20
-3.65322
11
7.34926
21
-3.6509
0
LINE
8
BLACK
6
CONTINUOUS
10
7.34926
20
-3.6509
11
7.36145
21
-3.64715
0
LINE
8
BLACK
6
CONTINUOUS
10
7.36145
20
-3.64715
11
7.37313
21
-3.64202
0
LINE
8
BLACK
6
CONTINUOUS
10
7.37313
20
-3.64202
11
7.38414
21
-3.63558
0
LINE
8
BLACK
6
CONTINUOUS
10
7.38414
20
-3.63558
11
7.39434
21
-3.62793
0
LINE
8
BLACK
6
CONTINUOUS
10
7.39434
20
-3.62793
11
7.4036
21
-3.61915
0
LINE
8
BLACK
6
CONTINUOUS
10
7.4036
20
-3.61915
11
7.41178
21
-3.60936
0
LINE
8
BLACK
6
CONTINUOUS
10
7.41178
20
-3.60936
11
7.41878
21
-3.5987
0
LINE
8
BLACK
6
CONTINUOUS
10
7.41878
20
-3.5987
11
7.42451
21
-3.58731
0
LINE
8
BLACK
6
CONTINUOUS
10
7.42451
20
-3.58731
11
7.42889
21
-3.57533
0
LINE
8
BLACK
6
CONTINUOUS
10
7.42889
20
-3.57533
11
7.43187
21
-3.56293
0
LINE
8
BLACK
6
CONTINUOUS
10
7.43187
20
-3.56293
11
7.4334
21
-3.55026
0
LINE
8
BLACK
6
CONTINUOUS
10
7.4334
20
-3.55026
11
7.43362
21
-3.54331
0
LINE
8
BLACK
6
CONTINUOUS
10
7.43362
20
-3.54331
11
7.43289
21
-3.53057
0
LINE
8
BLACK
6
CONTINUOUS
10
7.43289
20
-3.53057
11
7.43069
21
-3.51801
0
LINE
8
BLACK
6
CONTINUOUS
10
7.43069
20
-3.51801
11
7.42707
21
-3.50578
0
LINE
8
BLACK
6
CONTINUOUS
10
7.42707
20
-3.50578
11
7.42207
21
-3.49405
0
LINE
8
BLACK
6
CONTINUOUS
10
7.42207
20
-3.49405
11
7.41575
21
-3.48297
0
LINE
8
BLACK
6
CONTINUOUS
10
7.41575
20
-3.48297
11
7.4082
21
-3.47269
0
LINE
8
BLACK
6
CONTINUOUS
10
7.4082
20
-3.47269
11
7.39952
21
-3.46335
0
LINE
8
BLACK
6
CONTINUOUS
10
7.39952
20
-3.46335
11
7.38982
21
-3.45506
0
LINE
8
BLACK
6
CONTINUOUS
10
7.38982
20
-3.45506
11
7.37923
21
-3.44795
0
LINE
8
BLACK
6
CONTINUOUS
10
7.37923
20
-3.44795
11
7.3679
21
-3.4421
0
LINE
8
BLACK
6
CONTINUOUS
10
7.3679
20
-3.4421
11
7.35596
21
-3.43759
0
LINE
8
BLACK
6
CONTINUOUS
10
7.35596
20
-3.43759
11
7.34359
21
-3.43448
0
LINE
8
BLACK
6
CONTINUOUS
10
7.34359
20
-3.43448
11
7.33095
21
-3.43282
0
LINE
8
BLACK
6
CONTINUOUS
10
7.33095
20
-3.43282
11
7.3182
21
-3.43262
0
LINE
8
BLACK
6
CONTINUOUS
10
7.3182
20
-3.43262
11
7.3055
21
-3.43388
0
LINE
8
BLACK
6
CONTINUOUS
10
7.3055
20
-3.43388
11
7.29304
21
-3.4366
0
LINE
8
BLACK
6
CONTINUOUS
10
7.29304
20
-3.4366
11
7.28097
21
-3.44073
0
LINE
8
BLACK
6
CONTINUOUS
10
7.28097
20
-3.44073
11
7.26946
21
-3.44622
0
LINE
8
BLACK
6
CONTINUOUS
10
7.26946
20
-3.44622
11
7.25866
21
-3.453
0
LINE
8
BLACK
6
CONTINUOUS
10
7.25866
20
-3.453
11
7.2487
21
-3.46098
0
LINE
8
BLACK
6
CONTINUOUS
10
7.2487
20
-3.46098
11
7.23973
21
-3.47004
0
LINE
8
BLACK
6
CONTINUOUS
10
7.23973
20
-3.47004
11
7.23186
21
-3.48008
0
LINE
8
BLACK
6
CONTINUOUS
10
7.23186
20
-3.48008
11
7.2252
21
-3.49095
0
LINE
8
BLACK
6
CONTINUOUS
10
7.2252
20
-3.49095
11
7.21983
21
-3.50252
0
LINE
8
BLACK
6
CONTINUOUS
10
7.21983
20
-3.50252
11
7.21582
21
-3.51463
0
LINE
8
BLACK
6
CONTINUOUS
10
7.21582
20
-3.51463
11
7.21324
21
-3.52712
0
LINE
8
BLACK
6
CONTINUOUS
10
7.21324
20
-3.52712
11
7.2121
21
-3.53983
0
LINE
8
BLACK
6
CONTINUOUS
10
7.2121
20
-3.53983
11
7.21244
21
-3.55258
0
LINE
8
BLACK
6
CONTINUOUS
10
7.21244
20
-3.55258
11
7.21423
21
-3.56521
0
LINE
8
BLACK
6
CONTINUOUS
10
7.18343
20
-2.11377
11
7.18749
21
-2.10035
0
LINE
8
BLACK
6
CONTINUOUS
10
7.18749
20
-2.10035
11
7.19301
21
-2.08746
0
LINE
8
BLACK
6
CONTINUOUS
10
7.19301
20
-2.08746
11
7.19994
21
-2.07527
0
LINE
8
BLACK
6
CONTINUOUS
10
7.19994
20
-2.07527
11
7.20818
21
-2.06392
0
LINE
8
BLACK
6
CONTINUOUS
10
7.20818
20
-2.06392
11
7.21763
21
-2.05357
0
LINE
8
BLACK
6
CONTINUOUS
10
7.21763
20
-2.05357
11
7.22818
21
-2.04433
0
LINE
8
BLACK
6
CONTINUOUS
10
7.22818
20
-2.04433
11
7.2397
21
-2.03633
0
LINE
8
BLACK
6
CONTINUOUS
10
7.2397
20
-2.03633
11
7.25203
21
-2.02966
0
LINE
8
BLACK
6
CONTINUOUS
10
7.25203
20
-2.02966
11
7.26504
21
-2.02441
0
LINE
8
BLACK
6
CONTINUOUS
10
7.26504
20
-2.02441
11
7.27854
21
-2.02064
0
LINE
8
BLACK
6
CONTINUOUS
10
7.27854
20
-2.02064
11
7.29238
21
-2.0184
0
LINE
8
BLACK
6
CONTINUOUS
10
7.29238
20
-2.0184
11
7.30639
21
-2.01771
0
LINE
8
BLACK
6
CONTINUOUS
10
7.30639
20
-2.01771
11
7.32038
21
-2.01859
0
LINE
8
BLACK
6
CONTINUOUS
10
7.32038
20
-2.01859
11
7.33419
21
-2.02103
0
LINE
8
BLACK
6
CONTINUOUS
10
7.33419
20
-2.02103
11
7.34764
21
-2.02498
0
LINE
8
BLACK
6
CONTINUOUS
10
7.34764
20
-2.02498
11
7.36057
21
-2.03042
0
LINE
8
BLACK
6
CONTINUOUS
10
7.36057
20
-2.03042
11
7.37281
21
-2.03726
0
LINE
8
BLACK
6
CONTINUOUS
10
7.37281
20
-2.03726
11
7.38421
21
-2.04542
0
LINE
8
BLACK
6
CONTINUOUS
10
7.38421
20
-2.04542
11
7.39463
21
-2.05481
0
LINE
8
BLACK
6
CONTINUOUS
10
7.39463
20
-2.05481
11
7.40394
21
-2.06529
0
LINE
8
BLACK
6
CONTINUOUS
10
7.40394
20
-2.06529
11
7.41203
21
-2.07675
0
LINE
8
BLACK
6
CONTINUOUS
10
7.41203
20
-2.07675
11
7.41878
21
-2.08904
0
LINE
8
BLACK
6
CONTINUOUS
10
7.41878
20
-2.08904
11
7.42413
21
-2.102
0
LINE
8
BLACK
6
CONTINUOUS
10
7.42413
20
-2.102
11
7.42799
21
-2.11548
0
LINE
8
BLACK
6
CONTINUOUS
10
7.42799
20
-2.11548
11
7.43033
21
-2.12931
0
LINE
8
BLACK
6
CONTINUOUS
10
7.43033
20
-2.12931
11
7.43111
21
-2.14331
0
LINE
8
BLACK
6
CONTINUOUS
10
7.43111
20
-2.14331
11
7.43106
21
-2.14681
0
LINE
8
BLACK
6
CONTINUOUS
10
7.43106
20
-2.14681
11
7.42989
21
-2.16079
0
LINE
8
BLACK
6
CONTINUOUS
10
7.42989
20
-2.16079
11
7.42717
21
-2.17454
0
LINE
8
BLACK
6
CONTINUOUS
10
7.42717
20
-2.17454
11
7.42293
21
-2.18791
0
LINE
8
BLACK
6
CONTINUOUS
10
7.42293
20
-2.18791
11
7.41722
21
-2.20072
0
LINE
8
BLACK
6
CONTINUOUS
10
7.41722
20
-2.20072
11
7.41013
21
-2.21281
0
LINE
8
BLACK
6
CONTINUOUS
10
7.41013
20
-2.21281
11
7.40173
21
-2.22404
0
LINE
8
BLACK
6
CONTINUOUS
10
7.40173
20
-2.22404
11
7.39213
21
-2.23426
0
LINE
8
BLACK
6
CONTINUOUS
10
7.39213
20
-2.23426
11
7.38145
21
-2.24335
0
LINE
8
BLACK
6
CONTINUOUS
10
7.38145
20
-2.24335
11
7.36982
21
-2.25119
0
LINE
8
BLACK
6
CONTINUOUS
10
7.36982
20
-2.25119
11
7.3574
21
-2.25769
0
LINE
8
BLACK
6
CONTINUOUS
10
7.3574
20
-2.25769
11
7.34432
21
-2.26276
0
LINE
8
BLACK
6
CONTINUOUS
10
7.34432
20
-2.26276
11
7.33077
21
-2.26634
0
LINE
8
BLACK
6
CONTINUOUS
10
7.33077
20
-2.26634
11
7.3169
21
-2.26839
0
LINE
8
BLACK
6
CONTINUOUS
10
7.3169
20
-2.26839
11
7.30288
21
-2.26888
0
LINE
8
BLACK
6
CONTINUOUS
10
7.30288
20
-2.26888
11
7.2889
21
-2.2678
0
LINE
8
BLACK
6
CONTINUOUS
10
7.2889
20
-2.2678
11
7.27513
21
-2.26518
0
LINE
8
BLACK
6
CONTINUOUS
10
7.27513
20
-2.26518
11
7.26173
21
-2.26103
0
LINE
8
BLACK
6
CONTINUOUS
10
7.26173
20
-2.26103
11
7.24888
21
-2.25542
0
LINE
8
BLACK
6
CONTINUOUS
10
7.24888
20
-2.25542
11
7.23674
21
-2.2484
0
LINE
8
BLACK
6
CONTINUOUS
10
7.23674
20
-2.2484
11
7.22545
21
-2.24008
0
LINE
8
BLACK
6
CONTINUOUS
10
7.22545
20
-2.24008
11
7.21516
21
-2.23056
0
LINE
8
BLACK
6
CONTINUOUS
10
7.21516
20
-2.23056
11
7.206
21
-2.21994
0
LINE
8
BLACK
6
CONTINUOUS
10
7.206
20
-2.21994
11
7.19808
21
-2.20837
0
LINE
8
BLACK
6
CONTINUOUS
10
7.19808
20
-2.20837
11
7.19149
21
-2.19599
0
LINE
8
BLACK
6
CONTINUOUS
10
7.19149
20
-2.19599
11
7.18633
21
-2.18295
0
LINE
8
BLACK
6
CONTINUOUS
10
7.18633
20
-2.18295
11
7.18266
21
-2.16942
0
LINE
8
BLACK
6
CONTINUOUS
10
7.18266
20
-2.16942
11
7.18051
21
-2.15556
0
LINE
8
BLACK
6
CONTINUOUS
10
7.18051
20
-2.15556
11
7.17992
21
-2.14155
0
LINE
8
BLACK
6
CONTINUOUS
10
7.17992
20
-2.14155
11
7.18004
21
-2.13983
0
LINE
8
BLACK
6
CONTINUOUS
10
7.18004
20
-2.13983
11
7.1809
21
-2.12757
0
LINE
8
BLACK
6
CONTINUOUS
10
7.1809
20
-2.12757
11
7.18343
21
-2.11377
0
LINE
8
BLACK
6
CONTINUOUS
10
7.19691
20
-2.16521
11
7.20015
21
-2.17754
0
LINE
8
BLACK
6
CONTINUOUS
10
7.20015
20
-2.17754
11
7.20478
21
-2.18943
0
LINE
8
BLACK
6
CONTINUOUS
10
7.20478
20
-2.18943
11
7.21075
21
-2.2007
0
LINE
8
BLACK
6
CONTINUOUS
10
7.21075
20
-2.2007
11
7.21797
21
-2.21121
0
LINE
8
BLACK
6
CONTINUOUS
10
7.21797
20
-2.21121
11
7.22636
21
-2.22082
0
LINE
8
BLACK
6
CONTINUOUS
10
7.22636
20
-2.22082
11
7.23579
21
-2.22941
0
LINE
8
BLACK
6
CONTINUOUS
10
7.23579
20
-2.22941
11
7.24615
21
-2.23685
0
LINE
8
BLACK
6
CONTINUOUS
10
7.24615
20
-2.23685
11
7.25729
21
-2.24305
0
LINE
8
BLACK
6
CONTINUOUS
10
7.25729
20
-2.24305
11
7.26908
21
-2.24793
0
LINE
8
BLACK
6
CONTINUOUS
10
7.26908
20
-2.24793
11
7.28134
21
-2.25143
0
LINE
8
BLACK
6
CONTINUOUS
10
7.28134
20
-2.25143
11
7.29393
21
-2.25349
0
LINE
8
BLACK
6
CONTINUOUS
10
7.29393
20
-2.25349
11
7.30667
21
-2.25409
0
LINE
8
BLACK
6
CONTINUOUS
10
7.30667
20
-2.25409
11
7.3194
21
-2.25322
0
LINE
8
BLACK
6
CONTINUOUS
10
7.3194
20
-2.25322
11
7.33194
21
-2.2509
0
LINE
8
BLACK
6
CONTINUOUS
10
7.33194
20
-2.2509
11
7.34413
21
-2.24715
0
LINE
8
BLACK
6
CONTINUOUS
10
7.34413
20
-2.24715
11
7.35581
21
-2.24202
0
LINE
8
BLACK
6
CONTINUOUS
10
7.35581
20
-2.24202
11
7.36682
21
-2.23558
0
LINE
8
BLACK
6
CONTINUOUS
10
7.36682
20
-2.23558
11
7.37702
21
-2.22793
0
LINE
8
BLACK
6
CONTINUOUS
10
7.37702
20
-2.22793
11
7.38627
21
-2.21915
0
LINE
8
BLACK
6
CONTINUOUS
10
7.38627
20
-2.21915
11
7.39445
21
-2.20936
0
LINE
8
BLACK
6
CONTINUOUS
10
7.39445
20
-2.20936
11
7.40146
21
-2.1987
0
LINE
8
BLACK
6
CONTINUOUS
10
7.40146
20
-2.1987
11
7.40719
21
-2.18731
0
LINE
8
BLACK
6
CONTINUOUS
10
7.40719
20
-2.18731
11
7.41157
21
-2.17533
0
LINE
8
BLACK
6
CONTINUOUS
10
7.41157
20
-2.17533
11
7.41455
21
-2.16293
0
LINE
8
BLACK
6
CONTINUOUS
10
7.41455
20
-2.16293
11
7.41608
21
-2.15026
0
LINE
8
BLACK
6
CONTINUOUS
10
7.41608
20
-2.15026
11
7.4163
21
-2.14331
0
LINE
8
BLACK
6
CONTINUOUS
10
7.4163
20
-2.14331
11
7.41557
21
-2.13057
0
LINE
8
BLACK
6
CONTINUOUS
10
7.41557
20
-2.13057
11
7.41337
21
-2.11801
0
LINE
8
BLACK
6
CONTINUOUS
10
7.41337
20
-2.11801
11
7.40975
21
-2.10578
0
LINE
8
BLACK
6
CONTINUOUS
10
7.40975
20
-2.10578
11
7.40475
21
-2.09405
0
LINE
8
BLACK
6
CONTINUOUS
10
7.40475
20
-2.09405
11
7.39843
21
-2.08297
0
LINE
8
BLACK
6
CONTINUOUS
10
7.39843
20
-2.08297
11
7.39087
21
-2.07269
0
LINE
8
BLACK
6
CONTINUOUS
10
7.39087
20
-2.07269
11
7.38219
21
-2.06335
0
LINE
8
BLACK
6
CONTINUOUS
10
7.38219
20
-2.06335
11
7.37249
21
-2.05506
0
LINE
8
BLACK
6
CONTINUOUS
10
7.37249
20
-2.05506
11
7.36191
21
-2.04795
0
LINE
8
BLACK
6
CONTINUOUS
10
7.36191
20
-2.04795
11
7.35057
21
-2.0421
0
LINE
8
BLACK
6
CONTINUOUS
10
7.35057
20
-2.0421
11
7.33864
21
-2.03759
0
LINE
8
BLACK
6
CONTINUOUS
10
7.33864
20
-2.03759
11
7.32627
21
-2.03448
0
LINE
8
BLACK
6
CONTINUOUS
10
7.32627
20
-2.03448
11
7.31363
21
-2.03282
0
LINE
8
BLACK
6
CONTINUOUS
10
7.31363
20
-2.03282
11
7.30087
21
-2.03262
0
LINE
8
BLACK
6
CONTINUOUS
10
7.30087
20
-2.03262
11
7.28818
21
-2.03388
0
LINE
8
BLACK
6
CONTINUOUS
10
7.28818
20
-2.03388
11
7.27572
21
-2.0366
0
LINE
8
BLACK
6
CONTINUOUS
10
7.27572
20
-2.0366
11
7.26365
21
-2.04073
0
LINE
8
BLACK
6
CONTINUOUS
10
7.26365
20
-2.04073
11
7.25214
21
-2.04622
0
LINE
8
BLACK
6
CONTINUOUS
10
7.25214
20
-2.04622
11
7.24133
21
-2.053
0
LINE
8
BLACK
6
CONTINUOUS
10
7.24133
20
-2.053
11
7.23138
21
-2.06098
0
LINE
8
BLACK
6
CONTINUOUS
10
7.23138
20
-2.06098
11
7.22241
21
-2.07004
0
LINE
8
BLACK
6
CONTINUOUS
10
7.22241
20
-2.07004
11
7.21454
21
-2.08008
0
LINE
8
BLACK
6
CONTINUOUS
10
7.21454
20
-2.08008
11
7.20787
21
-2.09095
0
LINE
8
BLACK
6
CONTINUOUS
10
7.20787
20
-2.09095
11
7.2025
21
-2.10252
0
LINE
8
BLACK
6
CONTINUOUS
10
7.2025
20
-2.10252
11
7.1985
21
-2.11463
0
LINE
8
BLACK
6
CONTINUOUS
10
7.1985
20
-2.11463
11
7.19591
21
-2.12712
0
LINE
8
BLACK
6
CONTINUOUS
10
7.19591
20
-2.12712
11
7.19478
21
-2.13983
0
LINE
8
BLACK
6
CONTINUOUS
10
7.19478
20
-2.13983
11
7.19511
21
-2.15258
0
LINE
8
BLACK
6
CONTINUOUS
10
7.19511
20
-2.15258
11
7.19691
21
-2.16521
0
LINE
8
BLACK
6
CONTINUOUS
10
4.38343
20
-2.11377
11
4.38749
21
-2.10035
0
LINE
8
BLACK
6
CONTINUOUS
10
4.38749
20
-2.10035
11
4.39301
21
-2.08746
0
LINE
8
BLACK
6
CONTINUOUS
10
4.39301
20
-2.08746
11
4.39994
21
-2.07527
0
LINE
8
BLACK
6
CONTINUOUS
10
4.39994
20
-2.07527
11
4.40818
21
-2.06392
0
LINE
8
BLACK
6
CONTINUOUS
10
4.40818
20
-2.06392
11
4.41763
21
-2.05357
0
LINE
8
BLACK
6
CONTINUOUS
10
4.41763
20
-2.05357
11
4.42818
21
-2.04433
0
LINE
8
BLACK
6
CONTINUOUS
10
4.42818
20
-2.04433
11
4.4397
21
-2.03633
0
LINE
8
BLACK
6
CONTINUOUS
10
4.4397
20
-2.03633
11
4.45203
21
-2.02966
0
LINE
8
BLACK
6
CONTINUOUS
10
4.45203
20
-2.02966
11
4.46504
21
-2.02441
0
LINE
8
BLACK
6
CONTINUOUS
10
4.46504
20
-2.02441
11
4.47854
21
-2.02064
0
LINE
8
BLACK
6
CONTINUOUS
10
4.47854
20
-2.02064
11
4.49238
21
-2.0184
0
LINE
8
BLACK
6
CONTINUOUS
10
4.49238
20
-2.0184
11
4.50639
21
-2.01771
0
LINE
8
BLACK
6
CONTINUOUS
10
4.50639
20
-2.01771
11
4.52038
21
-2.01859
0
LINE
8
BLACK
6
CONTINUOUS
10
4.52038
20
-2.01859
11
4.53419
21
-2.02103
0
LINE
8
BLACK
6
CONTINUOUS
10
4.53419
20
-2.02103
11
4.54764
21
-2.02498
0
LINE
8
BLACK
6
CONTINUOUS
10
4.54764
20
-2.02498
11
4.56057
21
-2.03042
0
LINE
8
BLACK
6
CONTINUOUS
10
4.56057
20
-2.03042
11
4.57281
21
-2.03726
0
LINE
8
BLACK
6
CONTINUOUS
10
4.57281
20
-2.03726
11
4.58421
21
-2.04542
0
LINE
8
BLACK
6
CONTINUOUS
10
4.58421
20
-2.04542
11
4.59463
21
-2.05481
0
LINE
8
BLACK
6
CONTINUOUS
10
4.59463
20
-2.05481
11
4.60394
21
-2.06529
0
LINE
8
BLACK
6
CONTINUOUS
10
4.60394
20
-2.06529
11
4.61203
21
-2.07675
0
LINE
8
BLACK
6
CONTINUOUS
10
4.61203
20
-2.07675
11
4.61878
21
-2.08904
0
LINE
8
BLACK
6
CONTINUOUS
10
4.61878
20
-2.08904
11
4.62413
21
-2.102
0
LINE
8
BLACK
6
CONTINUOUS
10
4.62413
20
-2.102
11
4.62799
21
-2.11548
0
LINE
8
BLACK
6
CONTINUOUS
10
4.62799
20
-2.11548
11
4.63033
21
-2.12931
0
LINE
8
BLACK
6
CONTINUOUS
10
4.63033
20
-2.12931
11
4.63111
21
-2.14331
0
LINE
8
BLACK
6
CONTINUOUS
10
4.63111
20
-2.14331
11
4.63106
21
-2.14681
0
LINE
8
BLACK
6
CONTINUOUS
10
4.63106
20
-2.14681
11
4.62989
21
-2.16079
0
LINE
8
BLACK
6
CONTINUOUS
10
4.62989
20
-2.16079
11
4.62717
21
-2.17454
0
LINE
8
BLACK
6
CONTINUOUS
10
4.62717
20
-2.17454
11
4.62293
21
-2.18791
0
LINE
8
BLACK
6
CONTINUOUS
10
4.62293
20
-2.18791
11
4.61722
21
-2.20072
0
LINE
8
BLACK
6
CONTINUOUS
10
4.61722
20
-2.20072
11
4.61013
21
-2.21281
0
LINE
8
BLACK
6
CONTINUOUS
10
4.61013
20
-2.21281
11
4.60173
21
-2.22404
0
LINE
8
BLACK
6
CONTINUOUS
10
4.60173
20
-2.22404
11
4.59213
21
-2.23426
0
LINE
8
BLACK
6
CONTINUOUS
10
4.59213
20
-2.23426
11
4.58145
21
-2.24335
0
LINE
8
BLACK
6
CONTINUOUS
10
4.58145
20
-2.24335
11
4.56982
21
-2.25119
0
LINE
8
BLACK
6
CONTINUOUS
10
4.56982
20
-2.25119
11
4.5574
21
-2.25769
0
LINE
8
BLACK
6
CONTINUOUS
10
4.5574
20
-2.25769
11
4.54432
21
-2.26276
0
LINE
8
BLACK
6
CONTINUOUS
10
4.54432
20
-2.26276
11
4.53077
21
-2.26634
0
LINE
8
BLACK
6
CONTINUOUS
10
4.53077
20
-2.26634
11
4.5169
21
-2.26839
0
LINE
8
BLACK
6
CONTINUOUS
10
4.5169
20
-2.26839
11
4.50288
21
-2.26888
0
LINE
8
BLACK
6
CONTINUOUS
10
4.50288
20
-2.26888
11
4.4889
21
-2.2678
0
LINE
8
BLACK
6
CONTINUOUS
10
4.4889
20
-2.2678
11
4.47513
21
-2.26518
0
LINE
8
BLACK
6
CONTINUOUS
10
4.47513
20
-2.26518
11
4.46173
21
-2.26103
0
LINE
8
BLACK
6
CONTINUOUS
10
4.46173
20
-2.26103
11
4.44888
21
-2.25542
0
LINE
8
BLACK
6
CONTINUOUS
10
4.44888
20
-2.25542
11
4.43674
21
-2.2484
0
LINE
8
BLACK
6
CONTINUOUS
10
4.43674
20
-2.2484
11
4.42545
21
-2.24008
0
LINE
8
BLACK
6
CONTINUOUS
10
4.42545
20
-2.24008
11
4.41516
21
-2.23056
0
LINE
8
BLACK
6
CONTINUOUS
10
4.41516
20
-2.23056
11
4.406
21
-2.21994
0
LINE
8
BLACK
6
CONTINUOUS
10
4.406
20
-2.21994
11
4.39808
21
-2.20837
0
LINE
8
BLACK
6
CONTINUOUS
10
4.39808
20
-2.20837
11
4.39149
21
-2.19599
0
LINE
8
BLACK
6
CONTINUOUS
10
4.39149
20
-2.19599
11
4.38633
21
-2.18295
0
LINE
8
BLACK
6
CONTINUOUS
10
4.38633
20
-2.18295
11
4.38266
21
-2.16942
0
LINE
8
BLACK
6
CONTINUOUS
10
4.38266
20
-2.16942
11
4.38051
21
-2.15556
0
LINE
8
BLACK
6
CONTINUOUS
10
4.38051
20
-2.15556
11
4.37992
21
-2.14155
0
LINE
8
BLACK
6
CONTINUOUS
10
4.37992
20
-2.14155
11
4.38004
21
-2.13983
0
LINE
8
BLACK
6
CONTINUOUS
10
4.38004
20
-2.13983
11
4.3809
21
-2.12757
0
LINE
8
BLACK
6
CONTINUOUS
10
4.3809
20
-2.12757
11
4.38343
21
-2.11377
0
LINE
8
BLACK
6
CONTINUOUS
10
4.39691
20
-2.16521
11
4.40015
21
-2.17754
0
LINE
8
BLACK
6
CONTINUOUS
10
4.40015
20
-2.17754
11
4.40478
21
-2.18943
0
LINE
8
BLACK
6
CONTINUOUS
10
4.40478
20
-2.18943
11
4.41075
21
-2.2007
0
LINE
8
BLACK
6
CONTINUOUS
10
4.41075
20
-2.2007
11
4.41797
21
-2.21121
0
LINE
8
BLACK
6
CONTINUOUS
10
4.41797
20
-2.21121
11
4.42636
21
-2.22082
0
LINE
8
BLACK
6
CONTINUOUS
10
4.42636
20
-2.22082
11
4.43579
21
-2.22941
0
LINE
8
BLACK
6
CONTINUOUS
10
4.43579
20
-2.22941
11
4.44615
21
-2.23685
0
LINE
8
BLACK
6
CONTINUOUS
10
4.44615
20
-2.23685
11
4.45729
21
-2.24305
0
LINE
8
BLACK
6
CONTINUOUS
10
4.45729
20
-2.24305
11
4.46908
21
-2.24793
0
LINE
8
BLACK
6
CONTINUOUS
10
4.46908
20
-2.24793
11
4.48134
21
-2.25143
0
LINE
8
BLACK
6
CONTINUOUS
10
4.48134
20
-2.25143
11
4.49393
21
-2.25349
0
LINE
8
BLACK
6
CONTINUOUS
10
4.49393
20
-2.25349
11
4.50667
21
-2.25409
0
LINE
8
BLACK
6
CONTINUOUS
10
4.50667
20
-2.25409
11
4.5194
21
-2.25322
0
LINE
8
BLACK
6
CONTINUOUS
10
4.5194
20
-2.25322
11
4.53194
21
-2.2509
0
LINE
8
BLACK
6
CONTINUOUS
10
4.53194
20
-2.2509
11
4.54413
21
-2.24715
0
LINE
8
BLACK
6
CONTINUOUS
10
4.54413
20
-2.24715
11
4.55581
21
-2.24202
0
LINE
8
BLACK
6
CONTINUOUS
10
4.55581
20
-2.24202
11
4.56682
21
-2.23558
0
LINE
8
BLACK
6
CONTINUOUS
10
4.56682
20
-2.23558
11
4.57702
21
-2.22793
0
LINE
8
BLACK
6
CONTINUOUS
10
4.57702
20
-2.22793
11
4.58627
21
-2.21915
0
LINE
8
BLACK
6
CONTINUOUS
10
4.58627
20
-2.21915
11
4.59445
21
-2.20936
0
LINE
8
BLACK
6
CONTINUOUS
10
4.59445
20
-2.20936
11
4.60146
21
-2.1987
0
LINE
8
BLACK
6
CONTINUOUS
10
4.60146
20
-2.1987
11
4.60719
21
-2.18731
0
LINE
8
BLACK
6
CONTINUOUS
10
4.60719
20
-2.18731
11
4.61157
21
-2.17533
0
LINE
8
BLACK
6
CONTINUOUS
10
4.61157
20
-2.17533
11
4.61455
21
-2.16293
0
LINE
8
BLACK
6
CONTINUOUS
10
4.61455
20
-2.16293
11
4.61608
21
-2.15026
0
LINE
8
BLACK
6
CONTINUOUS
10
4.61608
20
-2.15026
11
4.6163
21
-2.14331
0
LINE
8
BLACK
6
CONTINUOUS
10
4.6163
20
-2.14331
11
4.61557
21
-2.13057
0
LINE
8
BLACK
6
CONTINUOUS
10
4.61557
20
-2.13057
11
4.61337
21
-2.11801
0
LINE
8
BLACK
6
CONTINUOUS
10
4.61337
20
-2.11801
11
4.60975
21
-2.10578
0
LINE
8
BLACK
6
CONTINUOUS
10
4.60975
20
-2.10578
11
4.60475
21
-2.09405
0
LINE
8
BLACK
6
CONTINUOUS
10
4.60475
20
-2.09405
11
4.59843
21
-2.08297
0
LINE
8
BLACK
6
CONTINUOUS
10
4.59843
20
-2.08297
11
4.59087
21
-2.07269
0
LINE
8
BLACK
6
CONTINUOUS
10
4.59087
20
-2.07269
11
4.58219
21
-2.06335
0
LINE
8
BLACK
6
CONTINUOUS
10
4.58219
20
-2.06335
11
4.57249
21
-2.05506
0
LINE
8
BLACK
6
CONTINUOUS
10
4.57249
20
-2.05506
11
4.56191
21
-2.04795
0
LINE
8
BLACK
6
CONTINUOUS
10
4.56191
20
-2.04795
11
4.55057
21
-2.0421
0
LINE
8
BLACK
6
CONTINUOUS
10
4.55057
20
-2.0421
11
4.53864
21
-2.03759
0
LINE
8
BLACK
6
CONTINUOUS
10
4.53864
20
-2.03759
11
4.52627
21
-2.03448
0
LINE
8
BLACK
6
CONTINUOUS
10
4.52627
20
-2.03448
11
4.51363
21
-2.03282
0
LINE
8
BLACK
6
CONTINUOUS
10
4.51363
20
-2.03282
11
4.50087
21
-2.03262
0
LINE
8
BLACK
6
CONTINUOUS
10
4.50087
20
-2.03262
11
4.48818
21
-2.03388
0
LINE
8
BLACK
6
CONTINUOUS
10
4.48818
20
-2.03388
11
4.47572
21
-2.0366
0
LINE
8
BLACK
6
CONTINUOUS
10
4.47572
20
-2.0366
11
4.46365
21
-2.04073
0
LINE
8
BLACK
6
CONTINUOUS
10
4.46365
20
-2.04073
11
4.45214
21
-2.04622
0
LINE
8
BLACK
6
CONTINUOUS
10
4.45214
20
-2.04622
11
4.44133
21
-2.053
0
LINE
8
BLACK
6
CONTINUOUS
10
4.44133
20
-2.053
11
4.43138
21
-2.06098
0
LINE
8
BLACK
6
CONTINUOUS
10
4.43138
20
-2.06098
11
4.42241
21
-2.07004
0
LINE
8
BLACK
6
CONTINUOUS
10
4.42241
20
-2.07004
11
4.41454
21
-2.08008
0
LINE
8
BLACK
6
CONTINUOUS
10
4.41454
20
-2.08008
11
4.40787
21
-2.09095
0
LINE
8
BLACK
6
CONTINUOUS
10
4.40787
20
-2.09095
11
4.4025
21
-2.10252
0
LINE
8
BLACK
6
CONTINUOUS
10
4.4025
20
-2.10252
11
4.3985
21
-2.11463
0
LINE
8
BLACK
6
CONTINUOUS
10
4.3985
20
-2.11463
11
4.39591
21
-2.12712
0
LINE
8
BLACK
6
CONTINUOUS
10
4.39591
20
-2.12712
11
4.39478
21
-2.13983
0
LINE
8
BLACK
6
CONTINUOUS
10
4.39478
20
-2.13983
11
4.39511
21
-2.15258
0
LINE
8
BLACK
6
CONTINUOUS
10
4.39511
20
-2.15258
11
4.39691
21
-2.16521
0
LINE
8
BLACK
6
CONTINUOUS
10
5.78343
20
-2.09645
11
5.78749
21
-2.08303
0
LINE
8
BLACK
6
CONTINUOUS
10
5.78749
20
-2.08303
11
5.79301
21
-2.07014
0
LINE
8
BLACK
6
CONTINUOUS
10
5.79301
20
-2.07014
11
5.79994
21
-2.05795
0
LINE
8
BLACK
6
CONTINUOUS
10
5.79994
20
-2.05795
11
5.80818
21
-2.0466
0
LINE
8
BLACK
6
CONTINUOUS
10
5.80818
20
-2.0466
11
5.81763
21
-2.03625
0
LINE
8
BLACK
6
CONTINUOUS
10
5.81763
20
-2.03625
11
5.82818
21
-2.02701
0
LINE
8
BLACK
6
CONTINUOUS
10
5.82818
20
-2.02701
11
5.8397
21
-2.01901
0
LINE
8
BLACK
6
CONTINUOUS
10
5.8397
20
-2.01901
11
5.85203
21
-2.01234
0
LINE
8
BLACK
6
CONTINUOUS
10
5.85203
20
-2.01234
11
5.86504
21
-2.00709
0
LINE
8
BLACK
6
CONTINUOUS
10
5.86504
20
-2.00709
11
5.87854
21
-2.00331
0
LINE
8
BLACK
6
CONTINUOUS
10
5.87854
20
-2.00331
11
5.89238
21
-2.00107
0
LINE
8
BLACK
6
CONTINUOUS
10
5.89238
20
-2.00107
11
5.90639
21
-2.00039
0
LINE
8
BLACK
6
CONTINUOUS
10
5.90639
20
-2.00039
11
5.92038
21
-2.00127
0
LINE
8
BLACK
6
CONTINUOUS
10
5.92038
20
-2.00127
11
5.93419
21
-2.0037
0
LINE
8
BLACK
6
CONTINUOUS
10
5.93419
20
-2.0037
11
5.94764
21
-2.00766
0
LINE
8
BLACK
6
CONTINUOUS
10
5.94764
20
-2.00766
11
5.96057
21
-2.0131
0
LINE
8
BLACK
6
CONTINUOUS
10
5.96057
20
-2.0131
11
5.97281
21
-2.01994
0
LINE
8
BLACK
6
CONTINUOUS
10
5.97281
20
-2.01994
11
5.98421
21
-2.0281
0
LINE
8
BLACK
6
CONTINUOUS
10
5.98421
20
-2.0281
11
5.99463
21
-2.03748
0
LINE
8
BLACK
6
CONTINUOUS
10
5.99463
20
-2.03748
11
6.00394
21
-2.04797
0
LINE
8
BLACK
6
CONTINUOUS
10
6.00394
20
-2.04797
11
6.01203
21
-2.05943
0
LINE
8
BLACK
6
CONTINUOUS
10
6.01203
20
-2.05943
11
6.01878
21
-2.07171
0
LINE
8
BLACK
6
CONTINUOUS
10
6.01878
20
-2.07171
11
6.02413
21
-2.08468
0
LINE
8
BLACK
6
CONTINUOUS
10
6.02413
20
-2.08468
11
6.02799
21
-2.09816
0
LINE
8
BLACK
6
CONTINUOUS
10
6.02799
20
-2.09816
11
6.03033
21
-2.11198
0
LINE
8
BLACK
6
CONTINUOUS
10
6.03033
20
-2.11198
11
6.03111
21
-2.12598
0
LINE
8
BLACK
6
CONTINUOUS
10
6.03111
20
-2.12598
11
6.03106
21
-2.12949
0
LINE
8
BLACK
6
CONTINUOUS
10
6.03106
20
-2.12949
11
6.02989
21
-2.14346
0
LINE
8
BLACK
6
CONTINUOUS
10
6.02989
20
-2.14346
11
6.02717
21
-2.15722
0
LINE
8
BLACK
6
CONTINUOUS
10
6.02717
20
-2.15722
11
6.02293
21
-2.17059
0
LINE
8
BLACK
6
CONTINUOUS
10
6.02293
20
-2.17059
11
6.01722
21
-2.1834
0
LINE
8
BLACK
6
CONTINUOUS
10
6.01722
20
-2.1834
11
6.01013
21
-2.19549
0
LINE
8
BLACK
6
CONTINUOUS
10
6.01013
20
-2.19549
11
6.00173
21
-2.20672
0
LINE
8
BLACK
6
CONTINUOUS
10
6.00173
20
-2.20672
11
5.99213
21
-2.21694
0
LINE
8
BLACK
6
CONTINUOUS
10
5.99213
20
-2.21694
11
5.98145
21
-2.22603
0
LINE
8
BLACK
6
CONTINUOUS
10
5.98145
20
-2.22603
11
5.96982
21
-2.23387
0
LINE
8
BLACK
6
CONTINUOUS
10
5.96982
20
-2.23387
11
5.9574
21
-2.24037
0
LINE
8
BLACK
6
CONTINUOUS
10
5.9574
20
-2.24037
11
5.94432
21
-2.24544
0
LINE
8
BLACK
6
CONTINUOUS
10
5.94432
20
-2.24544
11
5.93077
21
-2.24902
0
LINE
8
BLACK
6
CONTINUOUS
10
5.93077
20
-2.24902
11
5.9169
21
-2.25107
0
LINE
8
BLACK
6
CONTINUOUS
10
5.9169
20
-2.25107
11
5.90288
21
-2.25156
0
LINE
8
BLACK
6
CONTINUOUS
10
5.90288
20
-2.25156
11
5.8889
21
-2.25048
0
LINE
8
BLACK
6
CONTINUOUS
10
5.8889
20
-2.25048
11
5.87513
21
-2.24785
0
LINE
8
BLACK
6
CONTINUOUS
10
5.87513
20
-2.24785
11
5.86173
21
-2.24371
0
LINE
8
BLACK
6
CONTINUOUS
10
5.86173
20
-2.24371
11
5.84888
21
-2.23809
0
LINE
8
BLACK
6
CONTINUOUS
10
5.84888
20
-2.23809
11
5.83674
21
-2.23108
0
LINE
8
BLACK
6
CONTINUOUS
10
5.83674
20
-2.23108
11
5.82545
21
-2.22276
0
LINE
8
BLACK
6
CONTINUOUS
10
5.82545
20
-2.22276
11
5.81516
21
-2.21323
0
LINE
8
BLACK
6
CONTINUOUS
10
5.81516
20
-2.21323
11
5.806
21
-2.20262
0
LINE
8
BLACK
6
CONTINUOUS
10
5.806
20
-2.20262
11
5.79808
21
-2.19105
0
LINE
8
BLACK
6
CONTINUOUS
10
5.79808
20
-2.19105
11
5.79149
21
-2.17867
0
LINE
8
BLACK
6
CONTINUOUS
10
5.79149
20
-2.17867
11
5.78633
21
-2.16563
0
LINE
8
BLACK
6
CONTINUOUS
10
5.78633
20
-2.16563
11
5.78266
21
-2.1521
0
LINE
8
BLACK
6
CONTINUOUS
10
5.78266
20
-2.1521
11
5.78051
21
-2.13824
0
LINE
8
BLACK
6
CONTINUOUS
10
5.78051
20
-2.13824
11
5.77992
21
-2.12423
0
LINE
8
BLACK
6
CONTINUOUS
10
5.77992
20
-2.12423
11
5.78004
21
-2.1225
0
LINE
8
BLACK
6
CONTINUOUS
10
5.78004
20
-2.1225
11
5.7809
21
-2.11024
0
LINE
8
BLACK
6
CONTINUOUS
10
5.7809
20
-2.11024
11
5.78343
21
-2.09645
0
LINE
8
BLACK
6
CONTINUOUS
10
5.79691
20
-2.14788
11
5.80015
21
-2.16022
0
LINE
8
BLACK
6
CONTINUOUS
10
5.80015
20
-2.16022
11
5.80478
21
-2.1721
0
LINE
8
BLACK
6
CONTINUOUS
10
5.80478
20
-2.1721
11
5.81075
21
-2.18338
0
LINE
8
BLACK
6
CONTINUOUS
10
5.81075
20
-2.18338
11
5.81797
21
-2.19389
0
LINE
8
BLACK
6
CONTINUOUS
10
5.81797
20
-2.19389
11
5.82636
21
-2.2035
0
LINE
8
BLACK
6
CONTINUOUS
10
5.82636
20
-2.2035
11
5.83579
21
-2.21208
0
LINE
8
BLACK
6
CONTINUOUS
10
5.83579
20
-2.21208
11
5.84615
21
-2.21953
0
LINE
8
BLACK
6
CONTINUOUS
10
5.84615
20
-2.21953
11
5.85729
21
-2.22573
0
LINE
8
BLACK
6
CONTINUOUS
10
5.85729
20
-2.22573
11
5.86908
21
-2.23061
0
LINE
8
BLACK
6
CONTINUOUS
10
5.86908
20
-2.23061
11
5.88134
21
-2.2341
0
LINE
8
BLACK
6
CONTINUOUS
10
5.88134
20
-2.2341
11
5.89393
21
-2.23616
0
LINE
8
BLACK
6
CONTINUOUS
10
5.89393
20
-2.23616
11
5.90667
21
-2.23677
0
LINE
8
BLACK
6
CONTINUOUS
10
5.90667
20
-2.23677
11
5.9194
21
-2.2359
0
LINE
8
BLACK
6
CONTINUOUS
10
5.9194
20
-2.2359
11
5.93194
21
-2.23357
0
LINE
8
BLACK
6
CONTINUOUS
10
5.93194
20
-2.23357
11
5.94413
21
-2.22982
0
LINE
8
BLACK
6
CONTINUOUS
10
5.94413
20
-2.22982
11
5.95581
21
-2.2247
0
LINE
8
BLACK
6
CONTINUOUS
10
5.95581
20
-2.2247
11
5.96682
21
-2.21826
0
LINE
8
BLACK
6
CONTINUOUS
10
5.96682
20
-2.21826
11
5.97702
21
-2.2106
0
LINE
8
BLACK
6
CONTINUOUS
10
5.97702
20
-2.2106
11
5.98627
21
-2.20182
0
LINE
8
BLACK
6
CONTINUOUS
10
5.98627
20
-2.20182
11
5.99445
21
-2.19204
0
LINE
8
BLACK
6
CONTINUOUS
10
5.99445
20
-2.19204
11
6.00146
21
-2.18138
0
LINE
8
BLACK
6
CONTINUOUS
10
6.00146
20
-2.18138
11
6.00719
21
-2.16998
0
LINE
8
BLACK
6
CONTINUOUS
10
6.00719
20
-2.16998
11
6.01157
21
-2.15801
0
LINE
8
BLACK
6
CONTINUOUS
10
6.01157
20
-2.15801
11
6.01455
21
-2.1456
0
LINE
8
BLACK
6
CONTINUOUS
10
6.01455
20
-2.1456
11
6.01608
21
-2.13294
0
LINE
8
BLACK
6
CONTINUOUS
10
6.01608
20
-2.13294
11
6.0163
21
-2.12598
0
LINE
8
BLACK
6
CONTINUOUS
10
6.0163
20
-2.12598
11
6.01557
21
-2.11325
0
LINE
8
BLACK
6
CONTINUOUS
10
6.01557
20
-2.11325
11
6.01337
21
-2.10069
0
LINE
8
BLACK
6
CONTINUOUS
10
6.01337
20
-2.10069
11
6.00975
21
-2.08846
0
LINE
8
BLACK
6
CONTINUOUS
10
6.00975
20
-2.08846
11
6.00475
21
-2.07672
0
LINE
8
BLACK
6
CONTINUOUS
10
6.00475
20
-2.07672
11
5.99843
21
-2.06565
0
LINE
8
BLACK
6
CONTINUOUS
10
5.99843
20
-2.06565
11
5.99087
21
-2.05537
0
LINE
8
BLACK
6
CONTINUOUS
10
5.99087
20
-2.05537
11
5.98219
21
-2.04602
0
LINE
8
BLACK
6
CONTINUOUS
10
5.98219
20
-2.04602
11
5.97249
21
-2.03774
0
LINE
8
BLACK
6
CONTINUOUS
10
5.97249
20
-2.03774
11
5.96191
21
-2.03062
0
LINE
8
BLACK
6
CONTINUOUS
10
5.96191
20
-2.03062
11
5.95057
21
-2.02477
0
LINE
8
BLACK
6
CONTINUOUS
10
5.95057
20
-2.02477
11
5.93864
21
-2.02027
0
LINE
8
BLACK
6
CONTINUOUS
10
5.93864
20
-2.02027
11
5.92627
21
-2.01716
0
LINE
8
BLACK
6
CONTINUOUS
10
5.92627
20
-2.01716
11
5.91363
21
-2.01549
0
LINE
8
BLACK
6
CONTINUOUS
10
5.91363
20
-2.01549
11
5.90087
21
-2.01529
0
LINE
8
BLACK
6
CONTINUOUS
10
5.90087
20
-2.01529
11
5.88818
21
-2.01656
0
LINE
8
BLACK
6
CONTINUOUS
10
5.88818
20
-2.01656
11
5.87572
21
-2.01928
0
LINE
8
BLACK
6
CONTINUOUS
10
5.87572
20
-2.01928
11
5.86365
21
-2.02341
0
LINE
8
BLACK
6
CONTINUOUS
10
5.86365
20
-2.02341
11
5.85214
21
-2.0289
0
LINE
8
BLACK
6
CONTINUOUS
10
5.85214
20
-2.0289
11
5.84133
21
-2.03568
0
LINE
8
BLACK
6
CONTINUOUS
10
5.84133
20
-2.03568
11
5.83138
21
-2.04365
0
LINE
8
BLACK
6
CONTINUOUS
10
5.83138
20
-2.04365
11
5.82241
21
-2.05272
0
LINE
8
BLACK
6
CONTINUOUS
10
5.82241
20
-2.05272
11
5.81454
21
-2.06276
0
LINE
8
BLACK
6
CONTINUOUS
10
5.81454
20
-2.06276
11
5.80787
21
-2.07363
0
LINE
8
BLACK
6
CONTINUOUS
10
5.80787
20
-2.07363
11
5.8025
21
-2.0852
0
LINE
8
BLACK
6
CONTINUOUS
10
5.8025
20
-2.0852
11
5.7985
21
-2.09731
0
LINE
8
BLACK
6
CONTINUOUS
10
5.7985
20
-2.09731
11
5.79591
21
-2.1098
0
LINE
8
BLACK
6
CONTINUOUS
10
5.79591
20
-2.1098
11
5.79478
21
-2.1225
0
LINE
8
BLACK
6
CONTINUOUS
10
5.79478
20
-2.1225
11
5.79511
21
-2.13525
0
LINE
8
BLACK
6
CONTINUOUS
10
5.79511
20
-2.13525
11
5.79691
21
-2.14788
  0
ENDSEC
  0
EOF
