  0
SECTION
  2
HEADER
  9
$ANGBASE
  50
0.0
  9
$ANGDIR
  70
1
  9
$MEASUREMENT
  70
0
  0
ENDSEC
  0
SECTION
  2
TABLES
  0
TABLE
  2
LTYPE
  70
4
  0
LTYPE
  5
40F
  2
CONTINUOUS
  70
0
  3
Solid line
  72
65
  73
0
  40
0.0
  0
LTYPE
  5
410
  2
DASHDOT
 70
0
  3
Dash Dot ____ _ ____ _
 72
65
 73
4
 40
2.0
 49
1.25
 49
-0.25
 49
0.25
 49
-0.25
  0
LTYPE
  5
411
  2
DASHED
 70
0
  3
Dashed __ __ __ __ __
 72
65
 73
2
 40
0.75
 49
0.5
 49
-0.25
  0
LTYPE
  5
43B
  2
DOTTED
 70
0
  3
Dotted .  .  .  .
 72
65
 73
2
 40
0.2
 49
0.0
 49
-0.2
  0
ENDTAB
  0
TABLE
  2
STYLE
  70
4
  0
STYLE
  2
KICAD
  70
0
  40
0
  41
1
  42
1
  50
0
  71
0
  3
isocp.shx
  0
STYLE
  2
KICADB
  70
0
  40
0
  41
1
  42
1
  50
0
  71
0
  3
isocp.shx
  0
STYLE
  2
KICADI
  70
0
  40
0
  41
1
  42
1
  50
15
  71
0
  3
isocp.shx
  0
STYLE
  2
KICADBI
  70
0
  40
0
  41
1
  42
1
  50
15
  71
0
  3
isocp.shx
  0
ENDTAB
  0
TABLE
  2
LAYER
  70
1
  0
LAYER
  2
BLACK
  70
0
  62
7
  6
CONTINUOUS
  0
ENDTAB
  0
ENDSEC
  0
SECTION
  2
ENTITIES
0
LINE
8
BLACK
6
CONTINUOUS
10
7.31416
20
-4.82551
11
7.32764
21
-4.82729
0
LINE
8
BLACK
6
CONTINUOUS
10
7.32764
20
-4.82729
11
7.34083
21
-4.8306
0
LINE
8
BLACK
6
CONTINUOUS
10
7.34083
20
-4.8306
11
7.35355
21
-4.83541
0
LINE
8
BLACK
6
CONTINUOUS
10
7.35355
20
-4.83541
11
7.36563
21
-4.84164
0
LINE
8
BLACK
6
CONTINUOUS
10
7.36563
20
-4.84164
11
7.37692
21
-4.84923
0
LINE
8
BLACK
6
CONTINUOUS
10
7.37692
20
-4.84923
11
7.38726
21
-4.85806
0
LINE
8
BLACK
6
CONTINUOUS
10
7.38726
20
-4.85806
11
7.39652
21
-4.86802
0
LINE
8
BLACK
6
CONTINUOUS
10
7.39652
20
-4.86802
11
7.40457
21
-4.87898
0
LINE
8
BLACK
6
CONTINUOUS
10
7.40457
20
-4.87898
11
7.4113
21
-4.89079
0
LINE
8
BLACK
6
CONTINUOUS
10
7.4113
20
-4.89079
11
7.41664
21
-4.9033
0
LINE
8
BLACK
6
CONTINUOUS
10
7.41664
20
-4.9033
11
7.4205
21
-4.91634
0
LINE
8
BLACK
6
CONTINUOUS
10
7.4205
20
-4.91634
11
7.42284
21
-4.92973
0
LINE
8
BLACK
6
CONTINUOUS
10
7.42284
20
-4.92973
11
7.42362
21
-4.94331
0
LINE
8
BLACK
6
CONTINUOUS
10
7.42362
20
-4.94331
11
7.42339
21
-4.95072
0
LINE
8
BLACK
6
CONTINUOUS
10
7.42339
20
-4.95072
11
7.42176
21
-4.96422
0
LINE
8
BLACK
6
CONTINUOUS
10
7.42176
20
-4.96422
11
7.41858
21
-4.97744
0
LINE
8
BLACK
6
CONTINUOUS
10
7.41858
20
-4.97744
11
7.41391
21
-4.99021
0
LINE
8
BLACK
6
CONTINUOUS
10
7.41391
20
-4.99021
11
7.4078
21
-5.00236
0
LINE
8
BLACK
6
CONTINUOUS
10
7.4078
20
-5.00236
11
7.40033
21
-5.01373
0
LINE
8
BLACK
6
CONTINUOUS
10
7.40033
20
-5.01373
11
7.39161
21
-5.02416
0
LINE
8
BLACK
6
CONTINUOUS
10
7.39161
20
-5.02416
11
7.38175
21
-5.03352
0
LINE
8
BLACK
6
CONTINUOUS
10
7.38175
20
-5.03352
11
7.37087
21
-5.04168
0
LINE
8
BLACK
6
CONTINUOUS
10
7.37087
20
-5.04168
11
7.35913
21
-5.04854
0
LINE
8
BLACK
6
CONTINUOUS
10
7.35913
20
-5.04854
11
7.34668
21
-5.05401
0
LINE
8
BLACK
6
CONTINUOUS
10
7.34668
20
-5.05401
11
7.33369
21
-5.05801
0
LINE
8
BLACK
6
CONTINUOUS
10
7.33369
20
-5.05801
11
7.32031
21
-5.06049
0
LINE
8
BLACK
6
CONTINUOUS
10
7.32031
20
-5.06049
11
7.30675
21
-5.06141
0
LINE
8
BLACK
6
CONTINUOUS
10
7.30675
20
-5.06141
11
7.29317
21
-5.06077
0
LINE
8
BLACK
6
CONTINUOUS
10
7.29317
20
-5.06077
11
7.27975
21
-5.05857
0
LINE
8
BLACK
6
CONTINUOUS
10
7.27975
20
-5.05857
11
7.26667
21
-5.05485
0
LINE
8
BLACK
6
CONTINUOUS
10
7.26667
20
-5.05485
11
7.25411
21
-5.04964
0
LINE
8
BLACK
6
CONTINUOUS
10
7.25411
20
-5.04964
11
7.24223
21
-5.04303
0
LINE
8
BLACK
6
CONTINUOUS
10
7.24223
20
-5.04303
11
7.23118
21
-5.0351
0
LINE
8
BLACK
6
CONTINUOUS
10
7.23118
20
-5.0351
11
7.22113
21
-5.02594
0
LINE
8
BLACK
6
CONTINUOUS
10
7.22113
20
-5.02594
11
7.21219
21
-5.0157
0
LINE
8
BLACK
6
CONTINUOUS
10
7.21219
20
-5.0157
11
7.20448
21
-5.00449
0
LINE
8
BLACK
6
CONTINUOUS
10
7.20448
20
-5.00449
11
7.19812
21
-4.99247
0
LINE
8
BLACK
6
CONTINUOUS
10
7.19812
20
-4.99247
11
7.19318
21
-4.97981
0
LINE
8
BLACK
6
CONTINUOUS
10
7.19318
20
-4.97981
11
7.18973
21
-4.96665
0
LINE
8
BLACK
6
CONTINUOUS
10
7.18973
20
-4.96665
11
7.18782
21
-4.95319
0
LINE
8
BLACK
6
CONTINUOUS
10
7.18782
20
-4.95319
11
7.18746
21
-4.9396
0
LINE
8
BLACK
6
CONTINUOUS
10
7.18746
20
-4.9396
11
7.18867
21
-4.92605
0
LINE
8
BLACK
6
CONTINUOUS
10
7.18867
20
-4.92605
11
7.19143
21
-4.91274
0
LINE
8
BLACK
6
CONTINUOUS
10
7.19143
20
-4.91274
11
7.1957
21
-4.89983
0
LINE
8
BLACK
6
CONTINUOUS
10
7.1957
20
-4.89983
11
7.20142
21
-4.88749
0
LINE
8
BLACK
6
CONTINUOUS
10
7.20142
20
-4.88749
11
7.20853
21
-4.8759
0
LINE
8
BLACK
6
CONTINUOUS
10
7.20853
20
-4.8759
11
7.21692
21
-4.8652
0
LINE
8
BLACK
6
CONTINUOUS
10
7.21692
20
-4.8652
11
7.22648
21
-4.85553
0
LINE
8
BLACK
6
CONTINUOUS
10
7.22648
20
-4.85553
11
7.23709
21
-4.84703
0
LINE
8
BLACK
6
CONTINUOUS
10
7.23709
20
-4.84703
11
7.24861
21
-4.83981
0
LINE
8
BLACK
6
CONTINUOUS
10
7.24861
20
-4.83981
11
7.26088
21
-4.83395
0
LINE
8
BLACK
6
CONTINUOUS
10
7.26088
20
-4.83395
11
7.27375
21
-4.82955
0
LINE
8
BLACK
6
CONTINUOUS
10
7.27375
20
-4.82955
11
7.28704
21
-4.82665
0
LINE
8
BLACK
6
CONTINUOUS
10
7.28704
20
-4.82665
11
7.30057
21
-4.8253
0
LINE
8
BLACK
6
CONTINUOUS
10
7.30057
20
-4.8253
11
7.31416
21
-4.82551
0
LINE
8
BLACK
6
CONTINUOUS
10
4.51416
20
-4.82551
11
4.52764
21
-4.82729
0
LINE
8
BLACK
6
CONTINUOUS
10
4.52764
20
-4.82729
11
4.54083
21
-4.8306
0
LINE
8
BLACK
6
CONTINUOUS
10
4.54083
20
-4.8306
11
4.55355
21
-4.83541
0
LINE
8
BLACK
6
CONTINUOUS
10
4.55355
20
-4.83541
11
4.56563
21
-4.84164
0
LINE
8
BLACK
6
CONTINUOUS
10
4.56563
20
-4.84164
11
4.57692
21
-4.84923
0
LINE
8
BLACK
6
CONTINUOUS
10
4.57692
20
-4.84923
11
4.58726
21
-4.85806
0
LINE
8
BLACK
6
CONTINUOUS
10
4.58726
20
-4.85806
11
4.59652
21
-4.86802
0
LINE
8
BLACK
6
CONTINUOUS
10
4.59652
20
-4.86802
11
4.60457
21
-4.87898
0
LINE
8
BLACK
6
CONTINUOUS
10
4.60457
20
-4.87898
11
4.6113
21
-4.89079
0
LINE
8
BLACK
6
CONTINUOUS
10
4.6113
20
-4.89079
11
4.61664
21
-4.9033
0
LINE
8
BLACK
6
CONTINUOUS
10
4.61664
20
-4.9033
11
4.6205
21
-4.91634
0
LINE
8
BLACK
6
CONTINUOUS
10
4.6205
20
-4.91634
11
4.62284
21
-4.92973
0
LINE
8
BLACK
6
CONTINUOUS
10
4.62284
20
-4.92973
11
4.62362
21
-4.94331
0
LINE
8
BLACK
6
CONTINUOUS
10
4.62362
20
-4.94331
11
4.62339
21
-4.95072
0
LINE
8
BLACK
6
CONTINUOUS
10
4.62339
20
-4.95072
11
4.62176
21
-4.96422
0
LINE
8
BLACK
6
CONTINUOUS
10
4.62176
20
-4.96422
11
4.61858
21
-4.97744
0
LINE
8
BLACK
6
CONTINUOUS
10
4.61858
20
-4.97744
11
4.61391
21
-4.99021
0
LINE
8
BLACK
6
CONTINUOUS
10
4.61391
20
-4.99021
11
4.6078
21
-5.00236
0
LINE
8
BLACK
6
CONTINUOUS
10
4.6078
20
-5.00236
11
4.60033
21
-5.01373
0
LINE
8
BLACK
6
CONTINUOUS
10
4.60033
20
-5.01373
11
4.59161
21
-5.02416
0
LINE
8
BLACK
6
CONTINUOUS
10
4.59161
20
-5.02416
11
4.58175
21
-5.03352
0
LINE
8
BLACK
6
CONTINUOUS
10
4.58175
20
-5.03352
11
4.57087
21
-5.04168
0
LINE
8
BLACK
6
CONTINUOUS
10
4.57087
20
-5.04168
11
4.55913
21
-5.04854
0
LINE
8
BLACK
6
CONTINUOUS
10
4.55913
20
-5.04854
11
4.54668
21
-5.05401
0
LINE
8
BLACK
6
CONTINUOUS
10
4.54668
20
-5.05401
11
4.53369
21
-5.05801
0
LINE
8
BLACK
6
CONTINUOUS
10
4.53369
20
-5.05801
11
4.52031
21
-5.06049
0
LINE
8
BLACK
6
CONTINUOUS
10
4.52031
20
-5.06049
11
4.50675
21
-5.06141
0
LINE
8
BLACK
6
CONTINUOUS
10
4.50675
20
-5.06141
11
4.49317
21
-5.06077
0
LINE
8
BLACK
6
CONTINUOUS
10
4.49317
20
-5.06077
11
4.47975
21
-5.05857
0
LINE
8
BLACK
6
CONTINUOUS
10
4.47975
20
-5.05857
11
4.46667
21
-5.05485
0
LINE
8
BLACK
6
CONTINUOUS
10
4.46667
20
-5.05485
11
4.45411
21
-5.04964
0
LINE
8
BLACK
6
CONTINUOUS
10
4.45411
20
-5.04964
11
4.44223
21
-5.04303
0
LINE
8
BLACK
6
CONTINUOUS
10
4.44223
20
-5.04303
11
4.43118
21
-5.0351
0
LINE
8
BLACK
6
CONTINUOUS
10
4.43118
20
-5.0351
11
4.42113
21
-5.02594
0
LINE
8
BLACK
6
CONTINUOUS
10
4.42113
20
-5.02594
11
4.41219
21
-5.0157
0
LINE
8
BLACK
6
CONTINUOUS
10
4.41219
20
-5.0157
11
4.40448
21
-5.00449
0
LINE
8
BLACK
6
CONTINUOUS
10
4.40448
20
-5.00449
11
4.39812
21
-4.99247
0
LINE
8
BLACK
6
CONTINUOUS
10
4.39812
20
-4.99247
11
4.39318
21
-4.97981
0
LINE
8
BLACK
6
CONTINUOUS
10
4.39318
20
-4.97981
11
4.38973
21
-4.96665
0
LINE
8
BLACK
6
CONTINUOUS
10
4.38973
20
-4.96665
11
4.38782
21
-4.95319
0
LINE
8
BLACK
6
CONTINUOUS
10
4.38782
20
-4.95319
11
4.38746
21
-4.9396
0
LINE
8
BLACK
6
CONTINUOUS
10
4.38746
20
-4.9396
11
4.38867
21
-4.92605
0
LINE
8
BLACK
6
CONTINUOUS
10
4.38867
20
-4.92605
11
4.39143
21
-4.91274
0
LINE
8
BLACK
6
CONTINUOUS
10
4.39143
20
-4.91274
11
4.3957
21
-4.89983
0
LINE
8
BLACK
6
CONTINUOUS
10
4.3957
20
-4.89983
11
4.40142
21
-4.88749
0
LINE
8
BLACK
6
CONTINUOUS
10
4.40142
20
-4.88749
11
4.40853
21
-4.8759
0
LINE
8
BLACK
6
CONTINUOUS
10
4.40853
20
-4.8759
11
4.41692
21
-4.8652
0
LINE
8
BLACK
6
CONTINUOUS
10
4.41692
20
-4.8652
11
4.42648
21
-4.85553
0
LINE
8
BLACK
6
CONTINUOUS
10
4.42648
20
-4.85553
11
4.43709
21
-4.84703
0
LINE
8
BLACK
6
CONTINUOUS
10
4.43709
20
-4.84703
11
4.44861
21
-4.83981
0
LINE
8
BLACK
6
CONTINUOUS
10
4.44861
20
-4.83981
11
4.46088
21
-4.83395
0
LINE
8
BLACK
6
CONTINUOUS
10
4.46088
20
-4.83395
11
4.47375
21
-4.82955
0
LINE
8
BLACK
6
CONTINUOUS
10
4.47375
20
-4.82955
11
4.48704
21
-4.82665
0
LINE
8
BLACK
6
CONTINUOUS
10
4.48704
20
-4.82665
11
4.50057
21
-4.8253
0
LINE
8
BLACK
6
CONTINUOUS
10
4.50057
20
-4.8253
11
4.51416
21
-4.82551
0
LINE
8
BLACK
6
CONTINUOUS
10
7.31416
20
-2.02551
11
7.32764
21
-2.02729
0
LINE
8
BLACK
6
CONTINUOUS
10
7.32764
20
-2.02729
11
7.34083
21
-2.0306
0
LINE
8
BLACK
6
CONTINUOUS
10
7.34083
20
-2.0306
11
7.35355
21
-2.03541
0
LINE
8
BLACK
6
CONTINUOUS
10
7.35355
20
-2.03541
11
7.36563
21
-2.04164
0
LINE
8
BLACK
6
CONTINUOUS
10
7.36563
20
-2.04164
11
7.37692
21
-2.04923
0
LINE
8
BLACK
6
CONTINUOUS
10
7.37692
20
-2.04923
11
7.38726
21
-2.05806
0
LINE
8
BLACK
6
CONTINUOUS
10
7.38726
20
-2.05806
11
7.39652
21
-2.06802
0
LINE
8
BLACK
6
CONTINUOUS
10
7.39652
20
-2.06802
11
7.40457
21
-2.07898
0
LINE
8
BLACK
6
CONTINUOUS
10
7.40457
20
-2.07898
11
7.4113
21
-2.09079
0
LINE
8
BLACK
6
CONTINUOUS
10
7.4113
20
-2.09079
11
7.41664
21
-2.1033
0
LINE
8
BLACK
6
CONTINUOUS
10
7.41664
20
-2.1033
11
7.4205
21
-2.11634
0
LINE
8
BLACK
6
CONTINUOUS
10
7.4205
20
-2.11634
11
7.42284
21
-2.12973
0
LINE
8
BLACK
6
CONTINUOUS
10
7.42284
20
-2.12973
11
7.42362
21
-2.14331
0
LINE
8
BLACK
6
CONTINUOUS
10
7.42362
20
-2.14331
11
7.42339
21
-2.15072
0
LINE
8
BLACK
6
CONTINUOUS
10
7.42339
20
-2.15072
11
7.42176
21
-2.16422
0
LINE
8
BLACK
6
CONTINUOUS
10
7.42176
20
-2.16422
11
7.41858
21
-2.17744
0
LINE
8
BLACK
6
CONTINUOUS
10
7.41858
20
-2.17744
11
7.41391
21
-2.19021
0
LINE
8
BLACK
6
CONTINUOUS
10
7.41391
20
-2.19021
11
7.4078
21
-2.20236
0
LINE
8
BLACK
6
CONTINUOUS
10
7.4078
20
-2.20236
11
7.40033
21
-2.21373
0
LINE
8
BLACK
6
CONTINUOUS
10
7.40033
20
-2.21373
11
7.39161
21
-2.22416
0
LINE
8
BLACK
6
CONTINUOUS
10
7.39161
20
-2.22416
11
7.38175
21
-2.23352
0
LINE
8
BLACK
6
CONTINUOUS
10
7.38175
20
-2.23352
11
7.37087
21
-2.24168
0
LINE
8
BLACK
6
CONTINUOUS
10
7.37087
20
-2.24168
11
7.35913
21
-2.24854
0
LINE
8
BLACK
6
CONTINUOUS
10
7.35913
20
-2.24854
11
7.34668
21
-2.25401
0
LINE
8
BLACK
6
CONTINUOUS
10
7.34668
20
-2.25401
11
7.33369
21
-2.25801
0
LINE
8
BLACK
6
CONTINUOUS
10
7.33369
20
-2.25801
11
7.32031
21
-2.26049
0
LINE
8
BLACK
6
CONTINUOUS
10
7.32031
20
-2.26049
11
7.30675
21
-2.26141
0
LINE
8
BLACK
6
CONTINUOUS
10
7.30675
20
-2.26141
11
7.29317
21
-2.26077
0
LINE
8
BLACK
6
CONTINUOUS
10
7.29317
20
-2.26077
11
7.27975
21
-2.25857
0
LINE
8
BLACK
6
CONTINUOUS
10
7.27975
20
-2.25857
11
7.26667
21
-2.25485
0
LINE
8
BLACK
6
CONTINUOUS
10
7.26667
20
-2.25485
11
7.25411
21
-2.24964
0
LINE
8
BLACK
6
CONTINUOUS
10
7.25411
20
-2.24964
11
7.24223
21
-2.24303
0
LINE
8
BLACK
6
CONTINUOUS
10
7.24223
20
-2.24303
11
7.23118
21
-2.2351
0
LINE
8
BLACK
6
CONTINUOUS
10
7.23118
20
-2.2351
11
7.22113
21
-2.22594
0
LINE
8
BLACK
6
CONTINUOUS
10
7.22113
20
-2.22594
11
7.21219
21
-2.2157
0
LINE
8
BLACK
6
CONTINUOUS
10
7.21219
20
-2.2157
11
7.20448
21
-2.20449
0
LINE
8
BLACK
6
CONTINUOUS
10
7.20448
20
-2.20449
11
7.19812
21
-2.19247
0
LINE
8
BLACK
6
CONTINUOUS
10
7.19812
20
-2.19247
11
7.19318
21
-2.17981
0
LINE
8
BLACK
6
CONTINUOUS
10
7.19318
20
-2.17981
11
7.18973
21
-2.16665
0
LINE
8
BLACK
6
CONTINUOUS
10
7.18973
20
-2.16665
11
7.18782
21
-2.15319
0
LINE
8
BLACK
6
CONTINUOUS
10
7.18782
20
-2.15319
11
7.18746
21
-2.1396
0
LINE
8
BLACK
6
CONTINUOUS
10
7.18746
20
-2.1396
11
7.18867
21
-2.12605
0
LINE
8
BLACK
6
CONTINUOUS
10
7.18867
20
-2.12605
11
7.19143
21
-2.11274
0
LINE
8
BLACK
6
CONTINUOUS
10
7.19143
20
-2.11274
11
7.1957
21
-2.09983
0
LINE
8
BLACK
6
CONTINUOUS
10
7.1957
20
-2.09983
11
7.20142
21
-2.08749
0
LINE
8
BLACK
6
CONTINUOUS
10
7.20142
20
-2.08749
11
7.20853
21
-2.0759
0
LINE
8
BLACK
6
CONTINUOUS
10
7.20853
20
-2.0759
11
7.21692
21
-2.0652
0
LINE
8
BLACK
6
CONTINUOUS
10
7.21692
20
-2.0652
11
7.22648
21
-2.05553
0
LINE
8
BLACK
6
CONTINUOUS
10
7.22648
20
-2.05553
11
7.23709
21
-2.04703
0
LINE
8
BLACK
6
CONTINUOUS
10
7.23709
20
-2.04703
11
7.24861
21
-2.03981
0
LINE
8
BLACK
6
CONTINUOUS
10
7.24861
20
-2.03981
11
7.26088
21
-2.03395
0
LINE
8
BLACK
6
CONTINUOUS
10
7.26088
20
-2.03395
11
7.27375
21
-2.02955
0
LINE
8
BLACK
6
CONTINUOUS
10
7.27375
20
-2.02955
11
7.28704
21
-2.02665
0
LINE
8
BLACK
6
CONTINUOUS
10
7.28704
20
-2.02665
11
7.30057
21
-2.0253
0
LINE
8
BLACK
6
CONTINUOUS
10
7.30057
20
-2.0253
11
7.31416
21
-2.02551
0
LINE
8
BLACK
6
CONTINUOUS
10
4.51416
20
-2.02551
11
4.52764
21
-2.02729
0
LINE
8
BLACK
6
CONTINUOUS
10
4.52764
20
-2.02729
11
4.54083
21
-2.0306
0
LINE
8
BLACK
6
CONTINUOUS
10
4.54083
20
-2.0306
11
4.55355
21
-2.03541
0
LINE
8
BLACK
6
CONTINUOUS
10
4.55355
20
-2.03541
11
4.56563
21
-2.04164
0
LINE
8
BLACK
6
CONTINUOUS
10
4.56563
20
-2.04164
11
4.57692
21
-2.04923
0
LINE
8
BLACK
6
CONTINUOUS
10
4.57692
20
-2.04923
11
4.58726
21
-2.05806
0
LINE
8
BLACK
6
CONTINUOUS
10
4.58726
20
-2.05806
11
4.59652
21
-2.06802
0
LINE
8
BLACK
6
CONTINUOUS
10
4.59652
20
-2.06802
11
4.60457
21
-2.07898
0
LINE
8
BLACK
6
CONTINUOUS
10
4.60457
20
-2.07898
11
4.6113
21
-2.09079
0
LINE
8
BLACK
6
CONTINUOUS
10
4.6113
20
-2.09079
11
4.61664
21
-2.1033
0
LINE
8
BLACK
6
CONTINUOUS
10
4.61664
20
-2.1033
11
4.6205
21
-2.11634
0
LINE
8
BLACK
6
CONTINUOUS
10
4.6205
20
-2.11634
11
4.62284
21
-2.12973
0
LINE
8
BLACK
6
CONTINUOUS
10
4.62284
20
-2.12973
11
4.62362
21
-2.14331
0
LINE
8
BLACK
6
CONTINUOUS
10
4.62362
20
-2.14331
11
4.62339
21
-2.15072
0
LINE
8
BLACK
6
CONTINUOUS
10
4.62339
20
-2.15072
11
4.62176
21
-2.16422
0
LINE
8
BLACK
6
CONTINUOUS
10
4.62176
20
-2.16422
11
4.61858
21
-2.17744
0
LINE
8
BLACK
6
CONTINUOUS
10
4.61858
20
-2.17744
11
4.61391
21
-2.19021
0
LINE
8
BLACK
6
CONTINUOUS
10
4.61391
20
-2.19021
11
4.6078
21
-2.20236
0
LINE
8
BLACK
6
CONTINUOUS
10
4.6078
20
-2.20236
11
4.60033
21
-2.21373
0
LINE
8
BLACK
6
CONTINUOUS
10
4.60033
20
-2.21373
11
4.59161
21
-2.22416
0
LINE
8
BLACK
6
CONTINUOUS
10
4.59161
20
-2.22416
11
4.58175
21
-2.23352
0
LINE
8
BLACK
6
CONTINUOUS
10
4.58175
20
-2.23352
11
4.57087
21
-2.24168
0
LINE
8
BLACK
6
CONTINUOUS
10
4.57087
20
-2.24168
11
4.55913
21
-2.24854
0
LINE
8
BLACK
6
CONTINUOUS
10
4.55913
20
-2.24854
11
4.54668
21
-2.25401
0
LINE
8
BLACK
6
CONTINUOUS
10
4.54668
20
-2.25401
11
4.53369
21
-2.25801
0
LINE
8
BLACK
6
CONTINUOUS
10
4.53369
20
-2.25801
11
4.52031
21
-2.26049
0
LINE
8
BLACK
6
CONTINUOUS
10
4.52031
20
-2.26049
11
4.50675
21
-2.26141
0
LINE
8
BLACK
6
CONTINUOUS
10
4.50675
20
-2.26141
11
4.49317
21
-2.26077
0
LINE
8
BLACK
6
CONTINUOUS
10
4.49317
20
-2.26077
11
4.47975
21
-2.25857
0
LINE
8
BLACK
6
CONTINUOUS
10
4.47975
20
-2.25857
11
4.46667
21
-2.25485
0
LINE
8
BLACK
6
CONTINUOUS
10
4.46667
20
-2.25485
11
4.45411
21
-2.24964
0
LINE
8
BLACK
6
CONTINUOUS
10
4.45411
20
-2.24964
11
4.44223
21
-2.24303
0
LINE
8
BLACK
6
CONTINUOUS
10
4.44223
20
-2.24303
11
4.43118
21
-2.2351
0
LINE
8
BLACK
6
CONTINUOUS
10
4.43118
20
-2.2351
11
4.42113
21
-2.22594
0
LINE
8
BLACK
6
CONTINUOUS
10
4.42113
20
-2.22594
11
4.41219
21
-2.2157
0
LINE
8
BLACK
6
CONTINUOUS
10
4.41219
20
-2.2157
11
4.40448
21
-2.20449
0
LINE
8
BLACK
6
CONTINUOUS
10
4.40448
20
-2.20449
11
4.39812
21
-2.19247
0
LINE
8
BLACK
6
CONTINUOUS
10
4.39812
20
-2.19247
11
4.39318
21
-2.17981
0
LINE
8
BLACK
6
CONTINUOUS
10
4.39318
20
-2.17981
11
4.38973
21
-2.16665
0
LINE
8
BLACK
6
CONTINUOUS
10
4.38973
20
-2.16665
11
4.38782
21
-2.15319
0
LINE
8
BLACK
6
CONTINUOUS
10
4.38782
20
-2.15319
11
4.38746
21
-2.1396
0
LINE
8
BLACK
6
CONTINUOUS
10
4.38746
20
-2.1396
11
4.38867
21
-2.12605
0
LINE
8
BLACK
6
CONTINUOUS
10
4.38867
20
-2.12605
11
4.39143
21
-2.11274
0
LINE
8
BLACK
6
CONTINUOUS
10
4.39143
20
-2.11274
11
4.3957
21
-2.09983
0
LINE
8
BLACK
6
CONTINUOUS
10
4.3957
20
-2.09983
11
4.40142
21
-2.08749
0
LINE
8
BLACK
6
CONTINUOUS
10
4.40142
20
-2.08749
11
4.40853
21
-2.0759
0
LINE
8
BLACK
6
CONTINUOUS
10
4.40853
20
-2.0759
11
4.41692
21
-2.0652
0
LINE
8
BLACK
6
CONTINUOUS
10
4.41692
20
-2.0652
11
4.42648
21
-2.05553
0
LINE
8
BLACK
6
CONTINUOUS
10
4.42648
20
-2.05553
11
4.43709
21
-2.04703
0
LINE
8
BLACK
6
CONTINUOUS
10
4.43709
20
-2.04703
11
4.44861
21
-2.03981
0
LINE
8
BLACK
6
CONTINUOUS
10
4.44861
20
-2.03981
11
4.46088
21
-2.03395
0
LINE
8
BLACK
6
CONTINUOUS
10
4.46088
20
-2.03395
11
4.47375
21
-2.02955
0
LINE
8
BLACK
6
CONTINUOUS
10
4.47375
20
-2.02955
11
4.48704
21
-2.02665
0
LINE
8
BLACK
6
CONTINUOUS
10
4.48704
20
-2.02665
11
4.50057
21
-2.0253
0
LINE
8
BLACK
6
CONTINUOUS
10
4.50057
20
-2.0253
11
4.51416
21
-2.02551
  0
ENDSEC
  0
EOF
