  0
SECTION
  2
HEADER
  9
$ANGBASE
  50
0.0
  9
$ANGDIR
  70
1
  9
$MEASUREMENT
  70
0
  0
ENDSEC
  0
SECTION
  2
TABLES
  0
TABLE
  2
LTYPE
  70
4
  0
LTYPE
  5
40F
  2
CONTINUOUS
  70
0
  3
Solid line
  72
65
  73
0
  40
0.0
  0
LTYPE
  5
410
  2
DASHDOT
 70
0
  3
Dash Dot ____ _ ____ _
 72
65
 73
4
 40
2.0
 49
1.25
 49
-0.25
 49
0.25
 49
-0.25
  0
LTYPE
  5
411
  2
DASHED
 70
0
  3
Dashed __ __ __ __ __
 72
65
 73
2
 40
0.75
 49
0.5
 49
-0.25
  0
LTYPE
  5
43B
  2
DOTTED
 70
0
  3
Dotted .  .  .  .
 72
65
 73
2
 40
0.2
 49
0.0
 49
-0.2
  0
ENDTAB
  0
TABLE
  2
STYLE
  70
4
  0
STYLE
  2
KICAD
  70
0
  40
0
  41
1
  42
1
  50
0
  71
0
  3
isocp.shx
  0
STYLE
  2
KICADB
  70
0
  40
0
  41
1
  42
1
  50
0
  71
0
  3
isocp.shx
  0
STYLE
  2
KICADI
  70
0
  40
0
  41
1
  42
1
  50
15
  71
0
  3
isocp.shx
  0
STYLE
  2
KICADBI
  70
0
  40
0
  41
1
  42
1
  50
15
  71
0
  3
isocp.shx
  0
ENDTAB
  0
TABLE
  2
LAYER
  70
1
  0
LAYER
  2
BLACK
  70
0
  62
7
  6
CONTINUOUS
  0
ENDTAB
  0
ENDSEC
  0
SECTION
  2
ENTITIES
0
LINE
8
BLACK
6
CONTINUOUS
10
4.41668
20
-4.14118
11
5.30764
21
-5.03214
0
LINE
8
BLACK
6
CONTINUOUS
10
5.30764
20
-5.03214
11
5.30764
21
-5.03214
0
LINE
8
BLACK
6
CONTINUOUS
10
5.30764
20
-5.03214
11
5.30821
21
-5.03353
0
LINE
8
BLACK
6
CONTINUOUS
10
5.30821
20
-5.03353
11
5.30764
21
-5.03492
0
LINE
8
BLACK
6
CONTINUOUS
10
5.30764
20
-5.03492
11
5.07429
21
-5.26827
0
LINE
8
BLACK
6
CONTINUOUS
10
5.07429
20
-5.26827
11
5.0729
21
-5.26884
0
LINE
8
BLACK
6
CONTINUOUS
10
5.0729
20
-5.26884
11
5.07191
21
-5.26844
0
LINE
8
BLACK
6
CONTINUOUS
10
5.07191
20
-5.26844
11
5.07151
21
-5.26827
0
LINE
8
BLACK
6
CONTINUOUS
10
5.07151
20
-5.26827
11
4.18055
21
-4.37731
0
LINE
8
BLACK
6
CONTINUOUS
10
4.18055
20
-4.37731
11
4.17998
21
-4.37592
0
LINE
8
BLACK
6
CONTINUOUS
10
4.17998
20
-4.37592
11
4.18055
21
-4.37453
0
LINE
8
BLACK
6
CONTINUOUS
10
4.18055
20
-4.37453
11
4.4139
21
-4.14118
0
LINE
8
BLACK
6
CONTINUOUS
10
4.4139
20
-4.14118
11
4.41529
21
-4.14061
0
LINE
8
BLACK
6
CONTINUOUS
10
4.41529
20
-4.14061
11
4.41668
21
-4.14118
0
LINE
8
BLACK
6
CONTINUOUS
10
4.18473
20
-4.37592
11
5.0729
21
-5.26409
0
LINE
8
BLACK
6
CONTINUOUS
10
5.0729
20
-5.26409
11
5.30346
21
-5.03353
0
LINE
8
BLACK
6
CONTINUOUS
10
5.30346
20
-5.03353
11
4.41529
21
-4.14536
0
LINE
8
BLACK
6
CONTINUOUS
10
4.41529
20
-4.14536
11
4.18473
21
-4.37592
0
LINE
8
BLACK
6
CONTINUOUS
10
4.78564
20
-4.69596
11
4.78659
21
-4.69602
0
LINE
8
BLACK
6
CONTINUOUS
10
4.78659
20
-4.69602
11
4.79255
21
-4.69801
0
LINE
8
BLACK
6
CONTINUOUS
10
4.79255
20
-4.69801
11
4.79368
21
-4.69876
0
LINE
8
BLACK
6
CONTINUOUS
10
4.79368
20
-4.69876
11
4.79486
21
-4.69943
0
LINE
8
BLACK
6
CONTINUOUS
10
4.79486
20
-4.69943
11
4.8048
21
-4.70938
0
LINE
8
BLACK
6
CONTINUOUS
10
4.8048
20
-4.70938
11
4.80548
21
-4.71055
0
LINE
8
BLACK
6
CONTINUOUS
10
4.80548
20
-4.71055
11
4.80623
21
-4.71169
0
LINE
8
BLACK
6
CONTINUOUS
10
4.80623
20
-4.71169
11
4.80822
21
-4.71765
0
LINE
8
BLACK
6
CONTINUOUS
10
4.80822
20
-4.71765
11
4.80827
21
-4.7186
0
LINE
8
BLACK
6
CONTINUOUS
10
4.80827
20
-4.7186
11
4.80852
21
-4.71952
0
LINE
8
BLACK
6
CONTINUOUS
10
4.80852
20
-4.71952
11
4.80852
21
-4.7235
0
LINE
8
BLACK
6
CONTINUOUS
10
4.80852
20
-4.7235
11
4.80827
21
-4.72441
0
LINE
8
BLACK
6
CONTINUOUS
10
4.80827
20
-4.72441
11
4.80822
21
-4.72536
0
LINE
8
BLACK
6
CONTINUOUS
10
4.80822
20
-4.72536
11
4.80623
21
-4.73133
0
LINE
8
BLACK
6
CONTINUOUS
10
4.80623
20
-4.73133
11
4.80548
21
-4.73246
0
LINE
8
BLACK
6
CONTINUOUS
10
4.80548
20
-4.73246
11
4.8048
21
-4.73364
0
LINE
8
BLACK
6
CONTINUOUS
10
4.8048
20
-4.73364
11
4.80083
21
-4.73761
0
LINE
8
BLACK
6
CONTINUOUS
10
4.80083
20
-4.73761
11
4.8
21
-4.73809
0
LINE
8
BLACK
6
CONTINUOUS
10
4.8
20
-4.73809
11
4.79929
21
-4.73872
0
LINE
8
BLACK
6
CONTINUOUS
10
4.79929
20
-4.73872
11
4.79134
21
-4.7427
0
LINE
8
BLACK
6
CONTINUOUS
10
4.79134
20
-4.7427
11
4.79001
21
-4.74297
0
LINE
8
BLACK
6
CONTINUOUS
10
4.79001
20
-4.74297
11
4.7887
21
-4.74332
0
LINE
8
BLACK
6
CONTINUOUS
10
4.7887
20
-4.74332
11
4.75523
21
-4.74332
0
LINE
8
BLACK
6
CONTINUOUS
10
4.75523
20
-4.74332
11
4.771
21
-4.75909
0
LINE
8
BLACK
6
CONTINUOUS
10
4.771
20
-4.75909
11
4.77253
21
-4.76174
0
LINE
8
BLACK
6
CONTINUOUS
10
4.77253
20
-4.76174
11
4.77253
21
-4.76479
0
LINE
8
BLACK
6
CONTINUOUS
10
4.77253
20
-4.76479
11
4.771
21
-4.76744
0
LINE
8
BLACK
6
CONTINUOUS
10
4.771
20
-4.76744
11
4.76835
21
-4.76897
0
LINE
8
BLACK
6
CONTINUOUS
10
4.76835
20
-4.76897
11
4.76529
21
-4.76897
0
LINE
8
BLACK
6
CONTINUOUS
10
4.76529
20
-4.76897
11
4.76265
21
-4.76744
0
LINE
8
BLACK
6
CONTINUOUS
10
4.76265
20
-4.76744
11
4.7368
21
-4.74159
0
LINE
8
BLACK
6
CONTINUOUS
10
4.7368
20
-4.74159
11
4.73641
21
-4.74092
0
LINE
8
BLACK
6
CONTINUOUS
10
4.73641
20
-4.74092
11
4.73586
21
-4.74037
0
LINE
8
BLACK
6
CONTINUOUS
10
4.73586
20
-4.74037
11
4.73566
21
-4.73962
0
LINE
8
BLACK
6
CONTINUOUS
10
4.73566
20
-4.73962
11
4.73527
21
-4.73894
0
LINE
8
BLACK
6
CONTINUOUS
10
4.73527
20
-4.73894
11
4.73527
21
-4.73817
0
LINE
8
BLACK
6
CONTINUOUS
10
4.73527
20
-4.73817
11
4.73507
21
-4.73741
0
LINE
8
BLACK
6
CONTINUOUS
10
4.73507
20
-4.73741
11
4.73527
21
-4.73666
0
LINE
8
BLACK
6
CONTINUOUS
10
4.73527
20
-4.73666
11
4.73527
21
-4.73636
0
LINE
8
BLACK
6
CONTINUOUS
10
4.73527
20
-4.73636
11
4.73519
21
-4.73606
0
LINE
8
BLACK
6
CONTINUOUS
10
4.73519
20
-4.73606
11
4.73527
21
-4.73589
0
LINE
8
BLACK
6
CONTINUOUS
10
4.73527
20
-4.73589
11
4.73527
21
-4.73589
0
LINE
8
BLACK
6
CONTINUOUS
10
4.73527
20
-4.73589
11
4.73528
21
-4.73586
0
LINE
8
BLACK
6
CONTINUOUS
10
4.73528
20
-4.73586
11
4.73575
21
-4.73485
0
LINE
8
BLACK
6
CONTINUOUS
10
4.73575
20
-4.73485
11
4.73586
21
-4.73446
0
LINE
8
BLACK
6
CONTINUOUS
10
4.73586
20
-4.73446
11
4.736
21
-4.73432
0
LINE
8
BLACK
6
CONTINUOUS
10
4.736
20
-4.73432
11
4.73604
21
-4.73423
0
LINE
8
BLACK
6
CONTINUOUS
10
4.73604
20
-4.73423
11
4.73647
21
-4.7338
0
LINE
8
BLACK
6
CONTINUOUS
10
4.73647
20
-4.7338
11
4.7368
21
-4.73324
0
LINE
8
BLACK
6
CONTINUOUS
10
4.7368
20
-4.73324
11
4.73736
21
-4.73291
0
LINE
8
BLACK
6
CONTINUOUS
10
4.73736
20
-4.73291
11
4.75593
21
-4.71435
0
LINE
8
BLACK
6
CONTINUOUS
10
4.75593
20
-4.71435
11
4.75665
21
-4.71384
0
LINE
8
BLACK
6
CONTINUOUS
10
4.75665
20
-4.71384
11
4.75669
21
-4.71379
0
LINE
8
BLACK
6
CONTINUOUS
10
4.75669
20
-4.71379
11
4.762
21
-4.71114
0
LINE
8
BLACK
6
CONTINUOUS
10
4.762
20
-4.71114
11
4.76298
21
-4.71085
0
LINE
8
BLACK
6
CONTINUOUS
10
4.76298
20
-4.71085
11
4.76315
21
-4.71089
0
LINE
8
BLACK
6
CONTINUOUS
10
4.76315
20
-4.71089
11
4.76332
21
-4.71083
0
LINE
8
BLACK
6
CONTINUOUS
10
4.76332
20
-4.71083
11
4.76862
21
-4.71083
0
LINE
8
BLACK
6
CONTINUOUS
10
4.76862
20
-4.71083
11
4.76963
21
-4.71101
0
LINE
8
BLACK
6
CONTINUOUS
10
4.76963
20
-4.71101
11
4.76976
21
-4.71112
0
LINE
8
BLACK
6
CONTINUOUS
10
4.76976
20
-4.71112
11
4.76994
21
-4.71114
0
LINE
8
BLACK
6
CONTINUOUS
10
4.76994
20
-4.71114
11
4.77524
21
-4.71379
0
LINE
8
BLACK
6
CONTINUOUS
10
4.77524
20
-4.71379
11
4.77595
21
-4.71432
0
LINE
8
BLACK
6
CONTINUOUS
10
4.77595
20
-4.71432
11
4.77601
21
-4.71435
0
LINE
8
BLACK
6
CONTINUOUS
10
4.77601
20
-4.71435
11
4.77866
21
-4.717
0
LINE
8
BLACK
6
CONTINUOUS
10
4.77866
20
-4.717
11
4.77925
21
-4.71784
0
LINE
8
BLACK
6
CONTINUOUS
10
4.77925
20
-4.71784
11
4.77943
21
-4.71985
0
LINE
8
BLACK
6
CONTINUOUS
10
4.77943
20
-4.71985
11
4.77827
21
-4.72151
0
LINE
8
BLACK
6
CONTINUOUS
10
4.77827
20
-4.72151
11
4.77632
21
-4.72203
0
LINE
8
BLACK
6
CONTINUOUS
10
4.77632
20
-4.72203
11
4.77449
21
-4.72117
0
LINE
8
BLACK
6
CONTINUOUS
10
4.77449
20
-4.72117
11
4.77217
21
-4.71886
0
LINE
8
BLACK
6
CONTINUOUS
10
4.77217
20
-4.71886
11
4.76792
21
-4.71674
0
LINE
8
BLACK
6
CONTINUOUS
10
4.76792
20
-4.71674
11
4.76401
21
-4.71674
0
LINE
8
BLACK
6
CONTINUOUS
10
4.76401
20
-4.71674
11
4.75976
21
-4.71886
0
LINE
8
BLACK
6
CONTINUOUS
10
4.75976
20
-4.71886
11
4.74712
21
-4.73151
0
LINE
8
BLACK
6
CONTINUOUS
10
4.74712
20
-4.73151
11
4.7873
21
-4.73151
0
LINE
8
BLACK
6
CONTINUOUS
10
4.7873
20
-4.73151
11
4.79315
21
-4.72858
0
LINE
8
BLACK
6
CONTINUOUS
10
4.79315
20
-4.72858
11
4.79546
21
-4.72627
0
LINE
8
BLACK
6
CONTINUOUS
10
4.79546
20
-4.72627
11
4.79671
21
-4.72254
0
LINE
8
BLACK
6
CONTINUOUS
10
4.79671
20
-4.72254
11
4.79671
21
-4.72048
0
LINE
8
BLACK
6
CONTINUOUS
10
4.79671
20
-4.72048
11
4.79546
21
-4.71674
0
LINE
8
BLACK
6
CONTINUOUS
10
4.79546
20
-4.71674
11
4.78749
21
-4.70877
0
LINE
8
BLACK
6
CONTINUOUS
10
4.78749
20
-4.70877
11
4.78376
21
-4.70753
0
LINE
8
BLACK
6
CONTINUOUS
10
4.78376
20
-4.70753
11
4.78074
21
-4.70753
0
LINE
8
BLACK
6
CONTINUOUS
10
4.78074
20
-4.70753
11
4.77779
21
-4.70674
0
LINE
8
BLACK
6
CONTINUOUS
10
4.77779
20
-4.70674
11
4.77563
21
-4.70457
0
LINE
8
BLACK
6
CONTINUOUS
10
4.77563
20
-4.70457
11
4.77484
21
-4.70162
0
LINE
8
BLACK
6
CONTINUOUS
10
4.77484
20
-4.70162
11
4.77563
21
-4.69867
0
LINE
8
BLACK
6
CONTINUOUS
10
4.77563
20
-4.69867
11
4.77779
21
-4.69651
0
LINE
8
BLACK
6
CONTINUOUS
10
4.77779
20
-4.69651
11
4.78074
21
-4.69572
0
LINE
8
BLACK
6
CONTINUOUS
10
4.78074
20
-4.69572
11
4.78472
21
-4.69572
0
LINE
8
BLACK
6
CONTINUOUS
10
4.78472
20
-4.69572
11
4.78564
21
-4.69596
0
LINE
8
BLACK
6
CONTINUOUS
10
4.771
20
-4.67557
11
4.77253
21
-4.67822
0
LINE
8
BLACK
6
CONTINUOUS
10
4.77253
20
-4.67822
11
4.77253
21
-4.68128
0
LINE
8
BLACK
6
CONTINUOUS
10
4.77253
20
-4.68128
11
4.771
21
-4.68392
0
LINE
8
BLACK
6
CONTINUOUS
10
4.771
20
-4.68392
11
4.74117
21
-4.71375
0
LINE
8
BLACK
6
CONTINUOUS
10
4.74117
20
-4.71375
11
4.74035
21
-4.71423
0
LINE
8
BLACK
6
CONTINUOUS
10
4.74035
20
-4.71423
11
4.73964
21
-4.71486
0
LINE
8
BLACK
6
CONTINUOUS
10
4.73964
20
-4.71486
11
4.737
21
-4.71618
0
LINE
8
BLACK
6
CONTINUOUS
10
4.737
20
-4.71618
11
4.73675
21
-4.71784
0
LINE
8
BLACK
6
CONTINUOUS
10
4.73675
20
-4.71784
11
4.73524
21
-4.71918
0
LINE
8
BLACK
6
CONTINUOUS
10
4.73524
20
-4.71918
11
4.73322
21
-4.71924
0
LINE
8
BLACK
6
CONTINUOUS
10
4.73322
20
-4.71924
11
4.73181
21
-4.71877
0
LINE
8
BLACK
6
CONTINUOUS
10
4.73181
20
-4.71877
11
4.73168
21
-4.71883
0
LINE
8
BLACK
6
CONTINUOUS
10
4.73168
20
-4.71883
11
4.73035
21
-4.71911
0
LINE
8
BLACK
6
CONTINUOUS
10
4.73035
20
-4.71911
11
4.72904
21
-4.71946
0
LINE
8
BLACK
6
CONTINUOUS
10
4.72904
20
-4.71946
11
4.72109
21
-4.71946
0
LINE
8
BLACK
6
CONTINUOUS
10
4.72109
20
-4.71946
11
4.71985
21
-4.71913
0
LINE
8
BLACK
6
CONTINUOUS
10
4.71985
20
-4.71913
11
4.71882
21
-4.71933
0
LINE
8
BLACK
6
CONTINUOUS
10
4.71882
20
-4.71933
11
4.7178
21
-4.71935
0
LINE
8
BLACK
6
CONTINUOUS
10
4.7178
20
-4.71935
11
4.71765
21
-4.71927
0
LINE
8
BLACK
6
CONTINUOUS
10
4.71765
20
-4.71927
11
4.71748
21
-4.71929
0
LINE
8
BLACK
6
CONTINUOUS
10
4.71748
20
-4.71929
11
4.71678
21
-4.7188
0
LINE
8
BLACK
6
CONTINUOUS
10
4.71678
20
-4.7188
11
4.71603
21
-4.71838
0
LINE
8
BLACK
6
CONTINUOUS
10
4.71603
20
-4.71838
11
4.71596
21
-4.71823
0
LINE
8
BLACK
6
CONTINUOUS
10
4.71596
20
-4.71823
11
4.71583
21
-4.71813
0
LINE
8
BLACK
6
CONTINUOUS
10
4.71583
20
-4.71813
11
4.71564
21
-4.71743
0
LINE
8
BLACK
6
CONTINUOUS
10
4.71564
20
-4.71743
11
4.71049
21
-4.71486
0
LINE
8
BLACK
6
CONTINUOUS
10
4.71049
20
-4.71486
11
4.70978
21
-4.71423
0
LINE
8
BLACK
6
CONTINUOUS
10
4.70978
20
-4.71423
11
4.70896
21
-4.71375
0
LINE
8
BLACK
6
CONTINUOUS
10
4.70896
20
-4.71375
11
4.70498
21
-4.70977
0
LINE
8
BLACK
6
CONTINUOUS
10
4.70498
20
-4.70977
11
4.70345
21
-4.70713
0
LINE
8
BLACK
6
CONTINUOUS
10
4.70345
20
-4.70713
11
4.70345
21
-4.70407
0
LINE
8
BLACK
6
CONTINUOUS
10
4.70345
20
-4.70407
11
4.70498
21
-4.70142
0
LINE
8
BLACK
6
CONTINUOUS
10
4.70498
20
-4.70142
11
4.70763
21
-4.69989
0
LINE
8
BLACK
6
CONTINUOUS
10
4.70763
20
-4.69989
11
4.71068
21
-4.69989
0
LINE
8
BLACK
6
CONTINUOUS
10
4.71068
20
-4.69989
11
4.71333
21
-4.70142
0
LINE
8
BLACK
6
CONTINUOUS
10
4.71333
20
-4.70142
11
4.71663
21
-4.70472
0
LINE
8
BLACK
6
CONTINUOUS
10
4.71663
20
-4.70472
11
4.72248
21
-4.70765
0
LINE
8
BLACK
6
CONTINUOUS
10
4.72248
20
-4.70765
11
4.72286
21
-4.70765
0
LINE
8
BLACK
6
CONTINUOUS
10
4.72286
20
-4.70765
11
4.74191
21
-4.6886
0
LINE
8
BLACK
6
CONTINUOUS
10
4.74191
20
-4.6886
11
4.73604
21
-4.68273
0
LINE
8
BLACK
6
CONTINUOUS
10
4.73604
20
-4.68273
11
4.73545
21
-4.68189
0
LINE
8
BLACK
6
CONTINUOUS
10
4.73545
20
-4.68189
11
4.73528
21
-4.67988
0
LINE
8
BLACK
6
CONTINUOUS
10
4.73528
20
-4.67988
11
4.73644
21
-4.67822
0
LINE
8
BLACK
6
CONTINUOUS
10
4.73644
20
-4.67822
11
4.73839
21
-4.6777
0
LINE
8
BLACK
6
CONTINUOUS
10
4.73839
20
-4.6777
11
4.74022
21
-4.67855
0
LINE
8
BLACK
6
CONTINUOUS
10
4.74022
20
-4.67855
11
4.74994
21
-4.68828
0
LINE
8
BLACK
6
CONTINUOUS
10
4.74994
20
-4.68828
11
4.76265
21
-4.67557
0
LINE
8
BLACK
6
CONTINUOUS
10
4.76265
20
-4.67557
11
4.76529
21
-4.67404
0
LINE
8
BLACK
6
CONTINUOUS
10
4.76529
20
-4.67404
11
4.76835
21
-4.67404
0
LINE
8
BLACK
6
CONTINUOUS
10
4.76835
20
-4.67404
11
4.771
21
-4.67557
0
LINE
8
BLACK
6
CONTINUOUS
10
5.48148
20
-4.51722
11
5.48217
21
-4.51912
0
LINE
8
BLACK
6
CONTINUOUS
10
5.48217
20
-4.51912
11
5.48217
21
-4.54042
0
LINE
8
BLACK
6
CONTINUOUS
10
5.48217
20
-4.54042
11
5.50747
21
-4.54404
0
LINE
8
BLACK
6
CONTINUOUS
10
5.50747
20
-4.54404
11
5.50845
21
-4.54436
0
LINE
8
BLACK
6
CONTINUOUS
10
5.50845
20
-4.54436
11
5.5098
21
-4.54586
0
LINE
8
BLACK
6
CONTINUOUS
10
5.5098
20
-4.54586
11
5.50986
21
-4.54788
0
LINE
8
BLACK
6
CONTINUOUS
10
5.50986
20
-4.54788
11
5.50862
21
-4.54947
0
LINE
8
BLACK
6
CONTINUOUS
10
5.50862
20
-4.54947
11
5.50664
21
-4.54988
0
LINE
8
BLACK
6
CONTINUOUS
10
5.50664
20
-4.54988
11
5.48217
21
-4.54639
0
LINE
8
BLACK
6
CONTINUOUS
10
5.48217
20
-4.54639
11
5.48217
21
-4.54971
0
LINE
8
BLACK
6
CONTINUOUS
10
5.48217
20
-4.54971
11
5.49324
21
-4.56078
0
LINE
8
BLACK
6
CONTINUOUS
10
5.49324
20
-4.56078
11
5.49382
21
-4.56162
0
LINE
8
BLACK
6
CONTINUOUS
10
5.49382
20
-4.56162
11
5.494
21
-4.56363
0
LINE
8
BLACK
6
CONTINUOUS
10
5.494
20
-4.56363
11
5.49284
21
-4.56529
0
LINE
8
BLACK
6
CONTINUOUS
10
5.49284
20
-4.56529
11
5.49089
21
-4.56581
0
LINE
8
BLACK
6
CONTINUOUS
10
5.49089
20
-4.56581
11
5.48906
21
-4.56496
0
LINE
8
BLACK
6
CONTINUOUS
10
5.48906
20
-4.56496
11
5.46122
21
-4.53712
0
LINE
8
BLACK
6
CONTINUOUS
10
5.46122
20
-4.53712
11
5.46063
21
-4.53628
0
LINE
8
BLACK
6
CONTINUOUS
10
5.46063
20
-4.53628
11
5.46046
21
-4.53426
0
LINE
8
BLACK
6
CONTINUOUS
10
5.46046
20
-4.53426
11
5.46162
21
-4.53261
0
LINE
8
BLACK
6
CONTINUOUS
10
5.46162
20
-4.53261
11
5.46357
21
-4.53209
0
LINE
8
BLACK
6
CONTINUOUS
10
5.46357
20
-4.53209
11
5.4654
21
-4.53294
0
LINE
8
BLACK
6
CONTINUOUS
10
5.4654
20
-4.53294
11
5.47626
21
-4.54381
0
LINE
8
BLACK
6
CONTINUOUS
10
5.47626
20
-4.54381
11
5.47626
21
-4.51912
0
LINE
8
BLACK
6
CONTINUOUS
10
5.47626
20
-4.51912
11
5.47644
21
-4.51811
0
LINE
8
BLACK
6
CONTINUOUS
10
5.47644
20
-4.51811
11
5.47774
21
-4.51656
0
LINE
8
BLACK
6
CONTINUOUS
10
5.47774
20
-4.51656
11
5.47973
21
-4.51621
0
LINE
8
BLACK
6
CONTINUOUS
10
5.47973
20
-4.51621
11
5.48148
21
-4.51722
0
LINE
8
BLACK
6
CONTINUOUS
10
8.44392
20
-4.42359
11
8.44408
21
-4.42356
0
LINE
8
BLACK
6
CONTINUOUS
10
8.44408
20
-4.42356
11
8.44482
21
-4.42399
0
LINE
8
BLACK
6
CONTINUOUS
10
8.44482
20
-4.42399
11
8.44561
21
-4.42434
0
LINE
8
BLACK
6
CONTINUOUS
10
8.44561
20
-4.42434
11
8.44568
21
-4.42449
0
LINE
8
BLACK
6
CONTINUOUS
10
8.44568
20
-4.42449
11
8.44583
21
-4.42457
0
LINE
8
BLACK
6
CONTINUOUS
10
8.44583
20
-4.42457
11
8.44612
21
-4.42538
0
LINE
8
BLACK
6
CONTINUOUS
10
8.44612
20
-4.42538
11
8.4465
21
-4.42615
0
LINE
8
BLACK
6
CONTINUOUS
10
8.4465
20
-4.42615
11
8.44646
21
-4.42631
0
LINE
8
BLACK
6
CONTINUOUS
10
8.44646
20
-4.42631
11
8.44652
21
-4.42647
0
LINE
8
BLACK
6
CONTINUOUS
10
8.44652
20
-4.42647
11
8.44652
21
-4.46289
0
LINE
8
BLACK
6
CONTINUOUS
10
8.44652
20
-4.46289
11
8.45482
21
-4.46289
0
LINE
8
BLACK
6
CONTINUOUS
10
8.45482
20
-4.46289
11
8.45583
21
-4.46307
0
LINE
8
BLACK
6
CONTINUOUS
10
8.45583
20
-4.46307
11
8.45738
21
-4.46437
0
LINE
8
BLACK
6
CONTINUOUS
10
8.45738
20
-4.46437
11
8.45773
21
-4.46635
0
LINE
8
BLACK
6
CONTINUOUS
10
8.45773
20
-4.46635
11
8.45672
21
-4.4681
0
LINE
8
BLACK
6
CONTINUOUS
10
8.45672
20
-4.4681
11
8.45482
21
-4.46879
0
LINE
8
BLACK
6
CONTINUOUS
10
8.45482
20
-4.46879
11
8.43232
21
-4.46879
0
LINE
8
BLACK
6
CONTINUOUS
10
8.43232
20
-4.46879
11
8.43131
21
-4.46862
0
LINE
8
BLACK
6
CONTINUOUS
10
8.43131
20
-4.46862
11
8.42976
21
-4.46732
0
LINE
8
BLACK
6
CONTINUOUS
10
8.42976
20
-4.46732
11
8.42941
21
-4.46533
0
LINE
8
BLACK
6
CONTINUOUS
10
8.42941
20
-4.46533
11
8.43042
21
-4.46358
0
LINE
8
BLACK
6
CONTINUOUS
10
8.43042
20
-4.46358
11
8.43232
21
-4.46289
0
LINE
8
BLACK
6
CONTINUOUS
10
8.43232
20
-4.46289
11
8.44062
21
-4.46289
0
LINE
8
BLACK
6
CONTINUOUS
10
8.44062
20
-4.46289
11
8.44062
21
-4.43548
0
LINE
8
BLACK
6
CONTINUOUS
10
8.44062
20
-4.43548
11
8.43816
21
-4.43793
0
LINE
8
BLACK
6
CONTINUOUS
10
8.43816
20
-4.43793
11
8.43744
21
-4.43844
0
LINE
8
BLACK
6
CONTINUOUS
10
8.43744
20
-4.43844
11
8.43739
21
-4.43849
0
LINE
8
BLACK
6
CONTINUOUS
10
8.43739
20
-4.43849
11
8.43364
21
-4.44036
0
LINE
8
BLACK
6
CONTINUOUS
10
8.43364
20
-4.44036
11
8.43266
21
-4.44065
0
LINE
8
BLACK
6
CONTINUOUS
10
8.43266
20
-4.44065
11
8.43069
21
-4.44018
0
LINE
8
BLACK
6
CONTINUOUS
10
8.43069
20
-4.44018
11
8.42949
21
-4.43856
0
LINE
8
BLACK
6
CONTINUOUS
10
8.42949
20
-4.43856
11
8.42961
21
-4.43655
0
LINE
8
BLACK
6
CONTINUOUS
10
8.42961
20
-4.43655
11
8.431
21
-4.43508
0
LINE
8
BLACK
6
CONTINUOUS
10
8.431
20
-4.43508
11
8.43432
21
-4.43342
0
LINE
8
BLACK
6
CONTINUOUS
10
8.43432
20
-4.43342
11
8.43753
21
-4.43021
0
LINE
8
BLACK
6
CONTINUOUS
10
8.43753
20
-4.43021
11
8.44111
21
-4.42483
0
LINE
8
BLACK
6
CONTINUOUS
10
8.44111
20
-4.42483
11
8.44182
21
-4.42409
0
LINE
8
BLACK
6
CONTINUOUS
10
8.44182
20
-4.42409
11
8.44198
21
-4.42404
0
LINE
8
BLACK
6
CONTINUOUS
10
8.44198
20
-4.42404
11
8.44209
21
-4.42391
0
LINE
8
BLACK
6
CONTINUOUS
10
8.44209
20
-4.42391
11
8.44294
21
-4.42377
0
LINE
8
BLACK
6
CONTINUOUS
10
8.44294
20
-4.42377
11
8.44376
21
-4.42352
0
LINE
8
BLACK
6
CONTINUOUS
10
8.44376
20
-4.42352
11
8.44392
21
-4.42359
0
LINE
8
BLACK
6
CONTINUOUS
10
8.48395
20
-4.4237
11
8.48408
21
-4.42381
0
LINE
8
BLACK
6
CONTINUOUS
10
8.48408
20
-4.42381
11
8.48426
21
-4.42383
0
LINE
8
BLACK
6
CONTINUOUS
10
8.48426
20
-4.42383
11
8.48801
21
-4.42571
0
LINE
8
BLACK
6
CONTINUOUS
10
8.48801
20
-4.42571
11
8.48872
21
-4.42623
0
LINE
8
BLACK
6
CONTINUOUS
10
8.48872
20
-4.42623
11
8.48878
21
-4.42626
0
LINE
8
BLACK
6
CONTINUOUS
10
8.48878
20
-4.42626
11
8.49065
21
-4.42813
0
LINE
8
BLACK
6
CONTINUOUS
10
8.49065
20
-4.42813
11
8.49116
21
-4.42886
0
LINE
8
BLACK
6
CONTINUOUS
10
8.49116
20
-4.42886
11
8.4912
21
-4.4289
0
LINE
8
BLACK
6
CONTINUOUS
10
8.4912
20
-4.4289
11
8.49308
21
-4.43265
0
LINE
8
BLACK
6
CONTINUOUS
10
8.49308
20
-4.43265
11
8.49322
21
-4.43314
0
LINE
8
BLACK
6
CONTINUOUS
10
8.49322
20
-4.43314
11
8.4933
21
-4.43325
0
LINE
8
BLACK
6
CONTINUOUS
10
8.4933
20
-4.43325
11
8.49518
21
-4.44075
0
LINE
8
BLACK
6
CONTINUOUS
10
8.49518
20
-4.44075
11
8.49522
21
-4.44134
0
LINE
8
BLACK
6
CONTINUOUS
10
8.49522
20
-4.44134
11
8.49527
21
-4.44147
0
LINE
8
BLACK
6
CONTINUOUS
10
8.49527
20
-4.44147
11
8.49527
21
-4.45084
0
LINE
8
BLACK
6
CONTINUOUS
10
8.49527
20
-4.45084
11
8.49516
21
-4.45142
0
LINE
8
BLACK
6
CONTINUOUS
10
8.49516
20
-4.45142
11
8.49518
21
-4.45156
0
LINE
8
BLACK
6
CONTINUOUS
10
8.49518
20
-4.45156
11
8.4933
21
-4.45906
0
LINE
8
BLACK
6
CONTINUOUS
10
8.4933
20
-4.45906
11
8.4931
21
-4.45952
0
LINE
8
BLACK
6
CONTINUOUS
10
8.4931
20
-4.45952
11
8.49308
21
-4.45966
0
LINE
8
BLACK
6
CONTINUOUS
10
8.49308
20
-4.45966
11
8.4912
21
-4.46341
0
LINE
8
BLACK
6
CONTINUOUS
10
8.4912
20
-4.46341
11
8.49068
21
-4.46412
0
LINE
8
BLACK
6
CONTINUOUS
10
8.49068
20
-4.46412
11
8.49065
21
-4.46418
0
LINE
8
BLACK
6
CONTINUOUS
10
8.49065
20
-4.46418
11
8.48878
21
-4.46605
0
LINE
8
BLACK
6
CONTINUOUS
10
8.48878
20
-4.46605
11
8.48805
21
-4.46656
0
LINE
8
BLACK
6
CONTINUOUS
10
8.48805
20
-4.46656
11
8.48801
21
-4.46661
0
LINE
8
BLACK
6
CONTINUOUS
10
8.48801
20
-4.46661
11
8.48426
21
-4.46848
0
LINE
8
BLACK
6
CONTINUOUS
10
8.48426
20
-4.46848
11
8.48328
21
-4.46878
0
LINE
8
BLACK
6
CONTINUOUS
10
8.48328
20
-4.46878
11
8.48311
21
-4.46873
0
LINE
8
BLACK
6
CONTINUOUS
10
8.48311
20
-4.46873
11
8.48294
21
-4.46879
0
LINE
8
BLACK
6
CONTINUOUS
10
8.48294
20
-4.46879
11
8.47919
21
-4.46879
0
LINE
8
BLACK
6
CONTINUOUS
10
8.47919
20
-4.46879
11
8.47818
21
-4.46862
0
LINE
8
BLACK
6
CONTINUOUS
10
8.47818
20
-4.46862
11
8.47804
21
-4.4685
0
LINE
8
BLACK
6
CONTINUOUS
10
8.47804
20
-4.4685
11
8.47787
21
-4.46848
0
LINE
8
BLACK
6
CONTINUOUS
10
8.47787
20
-4.46848
11
8.47412
21
-4.46661
0
LINE
8
BLACK
6
CONTINUOUS
10
8.47412
20
-4.46661
11
8.47341
21
-4.46608
0
LINE
8
BLACK
6
CONTINUOUS
10
8.47341
20
-4.46608
11
8.47335
21
-4.46605
0
LINE
8
BLACK
6
CONTINUOUS
10
8.47335
20
-4.46605
11
8.47148
21
-4.46418
0
LINE
8
BLACK
6
CONTINUOUS
10
8.47148
20
-4.46418
11
8.47097
21
-4.46346
0
LINE
8
BLACK
6
CONTINUOUS
10
8.47097
20
-4.46346
11
8.47092
21
-4.46341
0
LINE
8
BLACK
6
CONTINUOUS
10
8.47092
20
-4.46341
11
8.46905
21
-4.45966
0
LINE
8
BLACK
6
CONTINUOUS
10
8.46905
20
-4.45966
11
8.4689
21
-4.45917
0
LINE
8
BLACK
6
CONTINUOUS
10
8.4689
20
-4.45917
11
8.46883
21
-4.45906
0
LINE
8
BLACK
6
CONTINUOUS
10
8.46883
20
-4.45906
11
8.46695
21
-4.45156
0
LINE
8
BLACK
6
CONTINUOUS
10
8.46695
20
-4.45156
11
8.46691
21
-4.45097
0
LINE
8
BLACK
6
CONTINUOUS
10
8.46691
20
-4.45097
11
8.46686
21
-4.45084
0
LINE
8
BLACK
6
CONTINUOUS
10
8.46686
20
-4.45084
11
8.46686
21
-4.44147
0
LINE
8
BLACK
6
CONTINUOUS
10
8.46686
20
-4.44147
11
8.46697
21
-4.44089
0
LINE
8
BLACK
6
CONTINUOUS
10
8.46697
20
-4.44089
11
8.46695
21
-4.44075
0
LINE
8
BLACK
6
CONTINUOUS
10
8.46695
20
-4.44075
11
8.46883
21
-4.43325
0
LINE
8
BLACK
6
CONTINUOUS
10
8.46883
20
-4.43325
11
8.46903
21
-4.43279
0
LINE
8
BLACK
6
CONTINUOUS
10
8.46903
20
-4.43279
11
8.46905
21
-4.43265
0
LINE
8
BLACK
6
CONTINUOUS
10
8.46905
20
-4.43265
11
8.47092
21
-4.4289
0
LINE
8
BLACK
6
CONTINUOUS
10
8.47092
20
-4.4289
11
8.47145
21
-4.42819
0
LINE
8
BLACK
6
CONTINUOUS
10
8.47145
20
-4.42819
11
8.47148
21
-4.42813
0
LINE
8
BLACK
6
CONTINUOUS
10
8.47148
20
-4.42813
11
8.47335
21
-4.42626
0
LINE
8
BLACK
6
CONTINUOUS
10
8.47335
20
-4.42626
11
8.47408
21
-4.42575
0
LINE
8
BLACK
6
CONTINUOUS
10
8.47408
20
-4.42575
11
8.47412
21
-4.42571
0
LINE
8
BLACK
6
CONTINUOUS
10
8.47412
20
-4.42571
11
8.47787
21
-4.42383
0
LINE
8
BLACK
6
CONTINUOUS
10
8.47787
20
-4.42383
11
8.47885
21
-4.42354
0
LINE
8
BLACK
6
CONTINUOUS
10
8.47885
20
-4.42354
11
8.47902
21
-4.42358
0
LINE
8
BLACK
6
CONTINUOUS
10
8.47902
20
-4.42358
11
8.47919
21
-4.42352
0
LINE
8
BLACK
6
CONTINUOUS
10
8.47919
20
-4.42352
11
8.48294
21
-4.42352
0
LINE
8
BLACK
6
CONTINUOUS
10
8.48294
20
-4.42352
11
8.48395
21
-4.4237
0
LINE
8
BLACK
6
CONTINUOUS
10
8.47989
20
-4.42942
11
8.47719
21
-4.43077
0
LINE
8
BLACK
6
CONTINUOUS
10
8.47719
20
-4.43077
11
8.47599
21
-4.43197
0
LINE
8
BLACK
6
CONTINUOUS
10
8.47599
20
-4.43197
11
8.47448
21
-4.435
0
LINE
8
BLACK
6
CONTINUOUS
10
8.47448
20
-4.435
11
8.47277
21
-4.44183
0
LINE
8
BLACK
6
CONTINUOUS
10
8.47277
20
-4.44183
11
8.47277
21
-4.45048
0
LINE
8
BLACK
6
CONTINUOUS
10
8.47277
20
-4.45048
11
8.47448
21
-4.45731
0
LINE
8
BLACK
6
CONTINUOUS
10
8.47448
20
-4.45731
11
8.47599
21
-4.46034
0
LINE
8
BLACK
6
CONTINUOUS
10
8.47599
20
-4.46034
11
8.47719
21
-4.46154
0
LINE
8
BLACK
6
CONTINUOUS
10
8.47719
20
-4.46154
11
8.47989
21
-4.46289
0
LINE
8
BLACK
6
CONTINUOUS
10
8.47989
20
-4.46289
11
8.48224
21
-4.46289
0
LINE
8
BLACK
6
CONTINUOUS
10
8.48224
20
-4.46289
11
8.48494
21
-4.46154
0
LINE
8
BLACK
6
CONTINUOUS
10
8.48494
20
-4.46154
11
8.48614
21
-4.46034
0
LINE
8
BLACK
6
CONTINUOUS
10
8.48614
20
-4.46034
11
8.48765
21
-4.45731
0
LINE
8
BLACK
6
CONTINUOUS
10
8.48765
20
-4.45731
11
8.48936
21
-4.45048
0
LINE
8
BLACK
6
CONTINUOUS
10
8.48936
20
-4.45048
11
8.48936
21
-4.44183
0
LINE
8
BLACK
6
CONTINUOUS
10
8.48936
20
-4.44183
11
8.48765
21
-4.435
0
LINE
8
BLACK
6
CONTINUOUS
10
8.48765
20
-4.435
11
8.48614
21
-4.43197
0
LINE
8
BLACK
6
CONTINUOUS
10
8.48614
20
-4.43197
11
8.48494
21
-4.43077
0
LINE
8
BLACK
6
CONTINUOUS
10
8.48494
20
-4.43077
11
8.48224
21
-4.42942
0
LINE
8
BLACK
6
CONTINUOUS
10
8.48224
20
-4.42942
11
8.47989
21
-4.42942
0
LINE
8
BLACK
6
CONTINUOUS
10
8.52144
20
-4.4237
11
8.52158
21
-4.42381
0
LINE
8
BLACK
6
CONTINUOUS
10
8.52158
20
-4.42381
11
8.52176
21
-4.42383
0
LINE
8
BLACK
6
CONTINUOUS
10
8.52176
20
-4.42383
11
8.5255
21
-4.42571
0
LINE
8
BLACK
6
CONTINUOUS
10
8.5255
20
-4.42571
11
8.52621
21
-4.42623
0
LINE
8
BLACK
6
CONTINUOUS
10
8.52621
20
-4.42623
11
8.52627
21
-4.42626
0
LINE
8
BLACK
6
CONTINUOUS
10
8.52627
20
-4.42626
11
8.52815
21
-4.42813
0
LINE
8
BLACK
6
CONTINUOUS
10
8.52815
20
-4.42813
11
8.52865
21
-4.42886
0
LINE
8
BLACK
6
CONTINUOUS
10
8.52865
20
-4.42886
11
8.5287
21
-4.4289
0
LINE
8
BLACK
6
CONTINUOUS
10
8.5287
20
-4.4289
11
8.53058
21
-4.43265
0
LINE
8
BLACK
6
CONTINUOUS
10
8.53058
20
-4.43265
11
8.53072
21
-4.43314
0
LINE
8
BLACK
6
CONTINUOUS
10
8.53072
20
-4.43314
11
8.5308
21
-4.43325
0
LINE
8
BLACK
6
CONTINUOUS
10
8.5308
20
-4.43325
11
8.53267
21
-4.44075
0
LINE
8
BLACK
6
CONTINUOUS
10
8.53267
20
-4.44075
11
8.53271
21
-4.44134
0
LINE
8
BLACK
6
CONTINUOUS
10
8.53271
20
-4.44134
11
8.53276
21
-4.44147
0
LINE
8
BLACK
6
CONTINUOUS
10
8.53276
20
-4.44147
11
8.53276
21
-4.45084
0
LINE
8
BLACK
6
CONTINUOUS
10
8.53276
20
-4.45084
11
8.53266
21
-4.45142
0
LINE
8
BLACK
6
CONTINUOUS
10
8.53266
20
-4.45142
11
8.53267
21
-4.45156
0
LINE
8
BLACK
6
CONTINUOUS
10
8.53267
20
-4.45156
11
8.5308
21
-4.45906
0
LINE
8
BLACK
6
CONTINUOUS
10
8.5308
20
-4.45906
11
8.53059
21
-4.45952
0
LINE
8
BLACK
6
CONTINUOUS
10
8.53059
20
-4.45952
11
8.53058
21
-4.45966
0
LINE
8
BLACK
6
CONTINUOUS
10
8.53058
20
-4.45966
11
8.5287
21
-4.46341
0
LINE
8
BLACK
6
CONTINUOUS
10
8.5287
20
-4.46341
11
8.52817
21
-4.46412
0
LINE
8
BLACK
6
CONTINUOUS
10
8.52817
20
-4.46412
11
8.52815
21
-4.46418
0
LINE
8
BLACK
6
CONTINUOUS
10
8.52815
20
-4.46418
11
8.52627
21
-4.46605
0
LINE
8
BLACK
6
CONTINUOUS
10
8.52627
20
-4.46605
11
8.52555
21
-4.46656
0
LINE
8
BLACK
6
CONTINUOUS
10
8.52555
20
-4.46656
11
8.5255
21
-4.46661
0
LINE
8
BLACK
6
CONTINUOUS
10
8.5255
20
-4.46661
11
8.52176
21
-4.46848
0
LINE
8
BLACK
6
CONTINUOUS
10
8.52176
20
-4.46848
11
8.52077
21
-4.46878
0
LINE
8
BLACK
6
CONTINUOUS
10
8.52077
20
-4.46878
11
8.5206
21
-4.46873
0
LINE
8
BLACK
6
CONTINUOUS
10
8.5206
20
-4.46873
11
8.52043
21
-4.46879
0
LINE
8
BLACK
6
CONTINUOUS
10
8.52043
20
-4.46879
11
8.51669
21
-4.46879
0
LINE
8
BLACK
6
CONTINUOUS
10
8.51669
20
-4.46879
11
8.51568
21
-4.46862
0
LINE
8
BLACK
6
CONTINUOUS
10
8.51568
20
-4.46862
11
8.51554
21
-4.4685
0
LINE
8
BLACK
6
CONTINUOUS
10
8.51554
20
-4.4685
11
8.51536
21
-4.46848
0
LINE
8
BLACK
6
CONTINUOUS
10
8.51536
20
-4.46848
11
8.51162
21
-4.46661
0
LINE
8
BLACK
6
CONTINUOUS
10
8.51162
20
-4.46661
11
8.51091
21
-4.46608
0
LINE
8
BLACK
6
CONTINUOUS
10
8.51091
20
-4.46608
11
8.51085
21
-4.46605
0
LINE
8
BLACK
6
CONTINUOUS
10
8.51085
20
-4.46605
11
8.50897
21
-4.46418
0
LINE
8
BLACK
6
CONTINUOUS
10
8.50897
20
-4.46418
11
8.50847
21
-4.46346
0
LINE
8
BLACK
6
CONTINUOUS
10
8.50847
20
-4.46346
11
8.50842
21
-4.46341
0
LINE
8
BLACK
6
CONTINUOUS
10
8.50842
20
-4.46341
11
8.50655
21
-4.45966
0
LINE
8
BLACK
6
CONTINUOUS
10
8.50655
20
-4.45966
11
8.5064
21
-4.45917
0
LINE
8
BLACK
6
CONTINUOUS
10
8.5064
20
-4.45917
11
8.50632
21
-4.45906
0
LINE
8
BLACK
6
CONTINUOUS
10
8.50632
20
-4.45906
11
8.50445
21
-4.45156
0
LINE
8
BLACK
6
CONTINUOUS
10
8.50445
20
-4.45156
11
8.50441
21
-4.45097
0
LINE
8
BLACK
6
CONTINUOUS
10
8.50441
20
-4.45097
11
8.50436
21
-4.45084
0
LINE
8
BLACK
6
CONTINUOUS
10
8.50436
20
-4.45084
11
8.50436
21
-4.44147
0
LINE
8
BLACK
6
CONTINUOUS
10
8.50436
20
-4.44147
11
8.50446
21
-4.44089
0
LINE
8
BLACK
6
CONTINUOUS
10
8.50446
20
-4.44089
11
8.50445
21
-4.44075
0
LINE
8
BLACK
6
CONTINUOUS
10
8.50445
20
-4.44075
11
8.50632
21
-4.43325
0
LINE
8
BLACK
6
CONTINUOUS
10
8.50632
20
-4.43325
11
8.50653
21
-4.43279
0
LINE
8
BLACK
6
CONTINUOUS
10
8.50653
20
-4.43279
11
8.50655
21
-4.43265
0
LINE
8
BLACK
6
CONTINUOUS
10
8.50655
20
-4.43265
11
8.50842
21
-4.4289
0
LINE
8
BLACK
6
CONTINUOUS
10
8.50842
20
-4.4289
11
8.50895
21
-4.42819
0
LINE
8
BLACK
6
CONTINUOUS
10
8.50895
20
-4.42819
11
8.50897
21
-4.42813
0
LINE
8
BLACK
6
CONTINUOUS
10
8.50897
20
-4.42813
11
8.51085
21
-4.42626
0
LINE
8
BLACK
6
CONTINUOUS
10
8.51085
20
-4.42626
11
8.51157
21
-4.42575
0
LINE
8
BLACK
6
CONTINUOUS
10
8.51157
20
-4.42575
11
8.51162
21
-4.42571
0
LINE
8
BLACK
6
CONTINUOUS
10
8.51162
20
-4.42571
11
8.51536
21
-4.42383
0
LINE
8
BLACK
6
CONTINUOUS
10
8.51536
20
-4.42383
11
8.51635
21
-4.42354
0
LINE
8
BLACK
6
CONTINUOUS
10
8.51635
20
-4.42354
11
8.51652
21
-4.42358
0
LINE
8
BLACK
6
CONTINUOUS
10
8.51652
20
-4.42358
11
8.51669
21
-4.42352
0
LINE
8
BLACK
6
CONTINUOUS
10
8.51669
20
-4.42352
11
8.52043
21
-4.42352
0
LINE
8
BLACK
6
CONTINUOUS
10
8.52043
20
-4.42352
11
8.52144
21
-4.4237
0
LINE
8
BLACK
6
CONTINUOUS
10
8.51738
20
-4.42942
11
8.51468
21
-4.43077
0
LINE
8
BLACK
6
CONTINUOUS
10
8.51468
20
-4.43077
11
8.51349
21
-4.43197
0
LINE
8
BLACK
6
CONTINUOUS
10
8.51349
20
-4.43197
11
8.51197
21
-4.435
0
LINE
8
BLACK
6
CONTINUOUS
10
8.51197
20
-4.435
11
8.51026
21
-4.44183
0
LINE
8
BLACK
6
CONTINUOUS
10
8.51026
20
-4.44183
11
8.51026
21
-4.45048
0
LINE
8
BLACK
6
CONTINUOUS
10
8.51026
20
-4.45048
11
8.51197
21
-4.45731
0
LINE
8
BLACK
6
CONTINUOUS
10
8.51197
20
-4.45731
11
8.51349
21
-4.46034
0
LINE
8
BLACK
6
CONTINUOUS
10
8.51349
20
-4.46034
11
8.51468
21
-4.46154
0
LINE
8
BLACK
6
CONTINUOUS
10
8.51468
20
-4.46154
11
8.51738
21
-4.46289
0
LINE
8
BLACK
6
CONTINUOUS
10
8.51738
20
-4.46289
11
8.51974
21
-4.46289
0
LINE
8
BLACK
6
CONTINUOUS
10
8.51974
20
-4.46289
11
8.52244
21
-4.46154
0
LINE
8
BLACK
6
CONTINUOUS
10
8.52244
20
-4.46154
11
8.52363
21
-4.46034
0
LINE
8
BLACK
6
CONTINUOUS
10
8.52363
20
-4.46034
11
8.52515
21
-4.45731
0
LINE
8
BLACK
6
CONTINUOUS
10
8.52515
20
-4.45731
11
8.52686
21
-4.45048
0
LINE
8
BLACK
6
CONTINUOUS
10
8.52686
20
-4.45048
11
8.52686
21
-4.44183
0
LINE
8
BLACK
6
CONTINUOUS
10
8.52686
20
-4.44183
11
8.52515
21
-4.435
0
LINE
8
BLACK
6
CONTINUOUS
10
8.52515
20
-4.435
11
8.52363
21
-4.43197
0
LINE
8
BLACK
6
CONTINUOUS
10
8.52363
20
-4.43197
11
8.52244
21
-4.43077
0
LINE
8
BLACK
6
CONTINUOUS
10
8.52244
20
-4.43077
11
8.51974
21
-4.42942
0
LINE
8
BLACK
6
CONTINUOUS
10
8.51974
20
-4.42942
11
8.51738
21
-4.42942
0
LINE
8
BLACK
6
CONTINUOUS
10
8.55894
20
-4.43682
11
8.55908
21
-4.43693
0
LINE
8
BLACK
6
CONTINUOUS
10
8.55908
20
-4.43693
11
8.55925
21
-4.43695
0
LINE
8
BLACK
6
CONTINUOUS
10
8.55925
20
-4.43695
11
8.563
21
-4.43883
0
LINE
8
BLACK
6
CONTINUOUS
10
8.563
20
-4.43883
11
8.56382
21
-4.43944
0
LINE
8
BLACK
6
CONTINUOUS
10
8.56382
20
-4.43944
11
8.564
21
-4.43985
0
LINE
8
BLACK
6
CONTINUOUS
10
8.564
20
-4.43985
11
8.56432
21
-4.44015
0
LINE
8
BLACK
6
CONTINUOUS
10
8.56432
20
-4.44015
11
8.5662
21
-4.4439
0
LINE
8
BLACK
6
CONTINUOUS
10
8.5662
20
-4.4439
11
8.56649
21
-4.44488
0
LINE
8
BLACK
6
CONTINUOUS
10
8.56649
20
-4.44488
11
8.56645
21
-4.44505
0
LINE
8
BLACK
6
CONTINUOUS
10
8.56645
20
-4.44505
11
8.56651
21
-4.44522
0
LINE
8
BLACK
6
CONTINUOUS
10
8.56651
20
-4.44522
11
8.56651
21
-4.46584
0
LINE
8
BLACK
6
CONTINUOUS
10
8.56651
20
-4.46584
11
8.56633
21
-4.46685
0
LINE
8
BLACK
6
CONTINUOUS
10
8.56633
20
-4.46685
11
8.56503
21
-4.4684
0
LINE
8
BLACK
6
CONTINUOUS
10
8.56503
20
-4.4684
11
8.56304
21
-4.46875
0
LINE
8
BLACK
6
CONTINUOUS
10
8.56304
20
-4.46875
11
8.56129
21
-4.46774
0
LINE
8
BLACK
6
CONTINUOUS
10
8.56129
20
-4.46774
11
8.5606
21
-4.46584
0
LINE
8
BLACK
6
CONTINUOUS
10
8.5606
20
-4.46584
11
8.5606
21
-4.44592
0
LINE
8
BLACK
6
CONTINUOUS
10
8.5606
20
-4.44592
11
8.55948
21
-4.44367
0
LINE
8
BLACK
6
CONTINUOUS
10
8.55948
20
-4.44367
11
8.55723
21
-4.44255
0
LINE
8
BLACK
6
CONTINUOUS
10
8.55723
20
-4.44255
11
8.553
21
-4.44255
0
LINE
8
BLACK
6
CONTINUOUS
10
8.553
20
-4.44255
11
8.55031
21
-4.4439
0
LINE
8
BLACK
6
CONTINUOUS
10
8.55031
20
-4.4439
11
8.54963
21
-4.44457
0
LINE
8
BLACK
6
CONTINUOUS
10
8.54963
20
-4.44457
11
8.54963
21
-4.46584
0
LINE
8
BLACK
6
CONTINUOUS
10
8.54963
20
-4.46584
11
8.54946
21
-4.46685
0
LINE
8
BLACK
6
CONTINUOUS
10
8.54946
20
-4.46685
11
8.54816
21
-4.4684
0
LINE
8
BLACK
6
CONTINUOUS
10
8.54816
20
-4.4684
11
8.54617
21
-4.46875
0
LINE
8
BLACK
6
CONTINUOUS
10
8.54617
20
-4.46875
11
8.54442
21
-4.46774
0
LINE
8
BLACK
6
CONTINUOUS
10
8.54442
20
-4.46774
11
8.54373
21
-4.46584
0
LINE
8
BLACK
6
CONTINUOUS
10
8.54373
20
-4.46584
11
8.54373
21
-4.4396
0
LINE
8
BLACK
6
CONTINUOUS
10
8.54373
20
-4.4396
11
8.54391
21
-4.43859
0
LINE
8
BLACK
6
CONTINUOUS
10
8.54391
20
-4.43859
11
8.54521
21
-4.43704
0
LINE
8
BLACK
6
CONTINUOUS
10
8.54521
20
-4.43704
11
8.54719
21
-4.43669
0
LINE
8
BLACK
6
CONTINUOUS
10
8.54719
20
-4.43669
11
8.54894
21
-4.4377
0
LINE
8
BLACK
6
CONTINUOUS
10
8.54894
20
-4.4377
11
8.54903
21
-4.43793
0
LINE
8
BLACK
6
CONTINUOUS
10
8.54903
20
-4.43793
11
8.55099
21
-4.43695
0
LINE
8
BLACK
6
CONTINUOUS
10
8.55099
20
-4.43695
11
8.55197
21
-4.43666
0
LINE
8
BLACK
6
CONTINUOUS
10
8.55197
20
-4.43666
11
8.55214
21
-4.4367
0
LINE
8
BLACK
6
CONTINUOUS
10
8.55214
20
-4.4367
11
8.55231
21
-4.43664
0
LINE
8
BLACK
6
CONTINUOUS
10
8.55231
20
-4.43664
11
8.55793
21
-4.43664
0
LINE
8
BLACK
6
CONTINUOUS
10
8.55793
20
-4.43664
11
8.55894
21
-4.43682
0
LINE
8
BLACK
6
CONTINUOUS
10
8.60206
20
-4.4237
11
8.60361
21
-4.425
0
LINE
8
BLACK
6
CONTINUOUS
10
8.60361
20
-4.425
11
8.60396
21
-4.42698
0
LINE
8
BLACK
6
CONTINUOUS
10
8.60396
20
-4.42698
11
8.60295
21
-4.42873
0
LINE
8
BLACK
6
CONTINUOUS
10
8.60295
20
-4.42873
11
8.60105
21
-4.42942
0
LINE
8
BLACK
6
CONTINUOUS
10
8.60105
20
-4.42942
11
8.58525
21
-4.42942
0
LINE
8
BLACK
6
CONTINUOUS
10
8.58525
20
-4.42942
11
8.58525
21
-4.44227
0
LINE
8
BLACK
6
CONTINUOUS
10
8.58525
20
-4.44227
11
8.59543
21
-4.44227
0
LINE
8
BLACK
6
CONTINUOUS
10
8.59543
20
-4.44227
11
8.59644
21
-4.44244
0
LINE
8
BLACK
6
CONTINUOUS
10
8.59644
20
-4.44244
11
8.59798
21
-4.44374
0
LINE
8
BLACK
6
CONTINUOUS
10
8.59798
20
-4.44374
11
8.59833
21
-4.44573
0
LINE
8
BLACK
6
CONTINUOUS
10
8.59833
20
-4.44573
11
8.59732
21
-4.44748
0
LINE
8
BLACK
6
CONTINUOUS
10
8.59732
20
-4.44748
11
8.59543
21
-4.44817
0
LINE
8
BLACK
6
CONTINUOUS
10
8.59543
20
-4.44817
11
8.58525
21
-4.44817
0
LINE
8
BLACK
6
CONTINUOUS
10
8.58525
20
-4.44817
11
8.58525
21
-4.46584
0
LINE
8
BLACK
6
CONTINUOUS
10
8.58525
20
-4.46584
11
8.58508
21
-4.46685
0
LINE
8
BLACK
6
CONTINUOUS
10
8.58508
20
-4.46685
11
8.58378
21
-4.4684
0
LINE
8
BLACK
6
CONTINUOUS
10
8.58378
20
-4.4684
11
8.58179
21
-4.46875
0
LINE
8
BLACK
6
CONTINUOUS
10
8.58179
20
-4.46875
11
8.58004
21
-4.46774
0
LINE
8
BLACK
6
CONTINUOUS
10
8.58004
20
-4.46774
11
8.57935
21
-4.46584
0
LINE
8
BLACK
6
CONTINUOUS
10
8.57935
20
-4.46584
11
8.57935
21
-4.42647
0
LINE
8
BLACK
6
CONTINUOUS
10
8.57935
20
-4.42647
11
8.57942
21
-4.42609
0
LINE
8
BLACK
6
CONTINUOUS
10
8.57942
20
-4.42609
11
8.57939
21
-4.42596
0
LINE
8
BLACK
6
CONTINUOUS
10
8.57939
20
-4.42596
11
8.57946
21
-4.42585
0
LINE
8
BLACK
6
CONTINUOUS
10
8.57946
20
-4.42585
11
8.57953
21
-4.42546
0
LINE
8
BLACK
6
CONTINUOUS
10
8.57953
20
-4.42546
11
8.58002
21
-4.42487
0
LINE
8
BLACK
6
CONTINUOUS
10
8.58002
20
-4.42487
11
8.5804
21
-4.42421
0
LINE
8
BLACK
6
CONTINUOUS
10
8.5804
20
-4.42421
11
8.58065
21
-4.42412
0
LINE
8
BLACK
6
CONTINUOUS
10
8.58065
20
-4.42412
11
8.58083
21
-4.42391
0
LINE
8
BLACK
6
CONTINUOUS
10
8.58083
20
-4.42391
11
8.58158
21
-4.42378
0
LINE
8
BLACK
6
CONTINUOUS
10
8.58158
20
-4.42378
11
8.5823
21
-4.42352
0
LINE
8
BLACK
6
CONTINUOUS
10
8.5823
20
-4.42352
11
8.60105
21
-4.42352
0
LINE
8
BLACK
6
CONTINUOUS
10
8.60105
20
-4.42352
11
8.60206
21
-4.4237
0
LINE
8
BLACK
6
CONTINUOUS
10
8.48286
20
-4.40887
11
8.48228
21
-4.40748
0
LINE
8
BLACK
6
CONTINUOUS
10
8.48228
20
-4.40748
11
8.48228
21
-4.37598
0
LINE
8
BLACK
6
CONTINUOUS
10
8.48228
20
-4.37598
11
8.48286
21
-4.37459
0
LINE
8
BLACK
6
CONTINUOUS
10
8.48286
20
-4.37459
11
8.48425
21
-4.37402
0
LINE
8
BLACK
6
CONTINUOUS
10
8.48425
20
-4.37402
11
8.54724
21
-4.37402
0
LINE
8
BLACK
6
CONTINUOUS
10
8.54724
20
-4.37402
11
8.54864
21
-4.37459
0
LINE
8
BLACK
6
CONTINUOUS
10
8.54864
20
-4.37459
11
8.54921
21
-4.37598
0
LINE
8
BLACK
6
CONTINUOUS
10
8.54921
20
-4.37598
11
8.54921
21
-4.40748
0
LINE
8
BLACK
6
CONTINUOUS
10
8.54921
20
-4.40748
11
8.54864
21
-4.40887
0
LINE
8
BLACK
6
CONTINUOUS
10
8.54864
20
-4.40887
11
8.54724
21
-4.40945
0
LINE
8
BLACK
6
CONTINUOUS
10
8.54724
20
-4.40945
11
8.48425
21
-4.40945
0
LINE
8
BLACK
6
CONTINUOUS
10
8.48425
20
-4.40945
11
8.48286
21
-4.40887
0
LINE
8
BLACK
6
CONTINUOUS
10
8.48622
20
-4.37795
11
8.48622
21
-4.40551
0
LINE
8
BLACK
6
CONTINUOUS
10
8.48622
20
-4.40551
11
8.54528
21
-4.40551
0
LINE
8
BLACK
6
CONTINUOUS
10
8.54528
20
-4.40551
11
8.54528
21
-4.37795
0
LINE
8
BLACK
6
CONTINUOUS
10
8.54528
20
-4.37795
11
8.48622
21
-4.37795
0
LINE
8
BLACK
6
CONTINUOUS
10
8.5028
20
-4.382
11
8.503
21
-4.38199
0
LINE
8
BLACK
6
CONTINUOUS
10
8.503
20
-4.38199
11
8.50525
21
-4.38274
0
LINE
8
BLACK
6
CONTINUOUS
10
8.50525
20
-4.38274
11
8.50546
21
-4.38292
0
LINE
8
BLACK
6
CONTINUOUS
10
8.50546
20
-4.38292
11
8.50571
21
-4.38302
0
LINE
8
BLACK
6
CONTINUOUS
10
8.50571
20
-4.38302
11
8.50646
21
-4.38377
0
LINE
8
BLACK
6
CONTINUOUS
10
8.50646
20
-4.38377
11
8.50681
21
-4.38461
0
LINE
8
BLACK
6
CONTINUOUS
10
8.50681
20
-4.38461
11
8.50646
21
-4.38544
0
LINE
8
BLACK
6
CONTINUOUS
10
8.50646
20
-4.38544
11
8.50562
21
-4.38579
0
LINE
8
BLACK
6
CONTINUOUS
10
8.50562
20
-4.38579
11
8.50479
21
-4.38544
0
LINE
8
BLACK
6
CONTINUOUS
10
8.50479
20
-4.38544
11
8.50424
21
-4.38489
0
LINE
8
BLACK
6
CONTINUOUS
10
8.50424
20
-4.38489
11
8.50243
21
-4.38429
0
LINE
8
BLACK
6
CONTINUOUS
10
8.50243
20
-4.38429
11
8.50132
21
-4.38429
0
LINE
8
BLACK
6
CONTINUOUS
10
8.50132
20
-4.38429
11
8.49951
21
-4.38489
0
LINE
8
BLACK
6
CONTINUOUS
10
8.49951
20
-4.38489
11
8.49835
21
-4.38606
0
LINE
8
BLACK
6
CONTINUOUS
10
8.49835
20
-4.38606
11
8.49774
21
-4.38727
0
LINE
8
BLACK
6
CONTINUOUS
10
8.49774
20
-4.38727
11
8.49706
21
-4.39
0
LINE
8
BLACK
6
CONTINUOUS
10
8.49706
20
-4.39
11
8.49706
21
-4.39196
0
LINE
8
BLACK
6
CONTINUOUS
10
8.49706
20
-4.39196
11
8.49774
21
-4.39469
0
LINE
8
BLACK
6
CONTINUOUS
10
8.49774
20
-4.39469
11
8.49835
21
-4.39591
0
LINE
8
BLACK
6
CONTINUOUS
10
8.49835
20
-4.39591
11
8.49951
21
-4.39707
0
LINE
8
BLACK
6
CONTINUOUS
10
8.49951
20
-4.39707
11
8.50132
21
-4.39768
0
LINE
8
BLACK
6
CONTINUOUS
10
8.50132
20
-4.39768
11
8.50243
21
-4.39768
0
LINE
8
BLACK
6
CONTINUOUS
10
8.50243
20
-4.39768
11
8.50424
21
-4.39707
0
LINE
8
BLACK
6
CONTINUOUS
10
8.50424
20
-4.39707
11
8.50479
21
-4.39652
0
LINE
8
BLACK
6
CONTINUOUS
10
8.50479
20
-4.39652
11
8.50562
21
-4.39618
0
LINE
8
BLACK
6
CONTINUOUS
10
8.50562
20
-4.39618
11
8.50646
21
-4.39652
0
LINE
8
BLACK
6
CONTINUOUS
10
8.50646
20
-4.39652
11
8.50681
21
-4.39736
0
LINE
8
BLACK
6
CONTINUOUS
10
8.50681
20
-4.39736
11
8.50646
21
-4.39819
0
LINE
8
BLACK
6
CONTINUOUS
10
8.50646
20
-4.39819
11
8.50571
21
-4.39894
0
LINE
8
BLACK
6
CONTINUOUS
10
8.50571
20
-4.39894
11
8.50546
21
-4.39905
0
LINE
8
BLACK
6
CONTINUOUS
10
8.50546
20
-4.39905
11
8.50525
21
-4.39923
0
LINE
8
BLACK
6
CONTINUOUS
10
8.50525
20
-4.39923
11
8.503
21
-4.39998
0
LINE
8
BLACK
6
CONTINUOUS
10
8.503
20
-4.39998
11
8.5028
21
-4.39996
0
LINE
8
BLACK
6
CONTINUOUS
10
8.5028
20
-4.39996
11
8.50262
21
-4.40004
0
LINE
8
BLACK
6
CONTINUOUS
10
8.50262
20
-4.40004
11
8.50112
21
-4.40004
0
LINE
8
BLACK
6
CONTINUOUS
10
8.50112
20
-4.40004
11
8.50095
21
-4.39996
0
LINE
8
BLACK
6
CONTINUOUS
10
8.50095
20
-4.39996
11
8.50075
21
-4.39998
0
LINE
8
BLACK
6
CONTINUOUS
10
8.50075
20
-4.39998
11
8.4985
21
-4.39923
0
LINE
8
BLACK
6
CONTINUOUS
10
8.4985
20
-4.39923
11
8.49829
21
-4.39905
0
LINE
8
BLACK
6
CONTINUOUS
10
8.49829
20
-4.39905
11
8.49804
21
-4.39894
0
LINE
8
BLACK
6
CONTINUOUS
10
8.49804
20
-4.39894
11
8.49654
21
-4.39744
0
LINE
8
BLACK
6
CONTINUOUS
10
8.49654
20
-4.39744
11
8.49647
21
-4.39726
0
LINE
8
BLACK
6
CONTINUOUS
10
8.49647
20
-4.39726
11
8.49632
21
-4.39713
0
LINE
8
BLACK
6
CONTINUOUS
10
8.49632
20
-4.39713
11
8.49557
21
-4.39564
0
LINE
8
BLACK
6
CONTINUOUS
10
8.49557
20
-4.39564
11
8.49556
21
-4.3955
0
LINE
8
BLACK
6
CONTINUOUS
10
8.49556
20
-4.3955
11
8.49548
21
-4.39539
0
LINE
8
BLACK
6
CONTINUOUS
10
8.49548
20
-4.39539
11
8.49473
21
-4.39239
0
LINE
8
BLACK
6
CONTINUOUS
10
8.49473
20
-4.39239
11
8.49475
21
-4.39225
0
LINE
8
BLACK
6
CONTINUOUS
10
8.49475
20
-4.39225
11
8.49469
21
-4.39211
0
LINE
8
BLACK
6
CONTINUOUS
10
8.49469
20
-4.39211
11
8.49469
21
-4.38986
0
LINE
8
BLACK
6
CONTINUOUS
10
8.49469
20
-4.38986
11
8.49475
21
-4.38972
0
LINE
8
BLACK
6
CONTINUOUS
10
8.49475
20
-4.38972
11
8.49473
21
-4.38957
0
LINE
8
BLACK
6
CONTINUOUS
10
8.49473
20
-4.38957
11
8.49548
21
-4.38657
0
LINE
8
BLACK
6
CONTINUOUS
10
8.49548
20
-4.38657
11
8.49556
21
-4.38646
0
LINE
8
BLACK
6
CONTINUOUS
10
8.49556
20
-4.38646
11
8.49557
21
-4.38633
0
LINE
8
BLACK
6
CONTINUOUS
10
8.49557
20
-4.38633
11
8.49632
21
-4.38483
0
LINE
8
BLACK
6
CONTINUOUS
10
8.49632
20
-4.38483
11
8.49647
21
-4.3847
0
LINE
8
BLACK
6
CONTINUOUS
10
8.49647
20
-4.3847
11
8.49654
21
-4.38452
0
LINE
8
BLACK
6
CONTINUOUS
10
8.49654
20
-4.38452
11
8.49804
21
-4.38302
0
LINE
8
BLACK
6
CONTINUOUS
10
8.49804
20
-4.38302
11
8.49829
21
-4.38292
0
LINE
8
BLACK
6
CONTINUOUS
10
8.49829
20
-4.38292
11
8.4985
21
-4.38274
0
LINE
8
BLACK
6
CONTINUOUS
10
8.4985
20
-4.38274
11
8.50075
21
-4.38199
0
LINE
8
BLACK
6
CONTINUOUS
10
8.50075
20
-4.38199
11
8.50095
21
-4.382
0
LINE
8
BLACK
6
CONTINUOUS
10
8.50095
20
-4.382
11
8.50112
21
-4.38193
0
LINE
8
BLACK
6
CONTINUOUS
10
8.50112
20
-4.38193
11
8.50262
21
-4.38193
0
LINE
8
BLACK
6
CONTINUOUS
10
8.50262
20
-4.38193
11
8.5028
21
-4.382
0
LINE
8
BLACK
6
CONTINUOUS
10
8.53287
20
-4.38203
11
8.53315
21
-4.38205
0
LINE
8
BLACK
6
CONTINUOUS
10
8.53315
20
-4.38205
11
8.53465
21
-4.3828
0
LINE
8
BLACK
6
CONTINUOUS
10
8.53465
20
-4.3828
11
8.53478
21
-4.38295
0
LINE
8
BLACK
6
CONTINUOUS
10
8.53478
20
-4.38295
11
8.53496
21
-4.38302
0
LINE
8
BLACK
6
CONTINUOUS
10
8.53496
20
-4.38302
11
8.53571
21
-4.38377
0
LINE
8
BLACK
6
CONTINUOUS
10
8.53571
20
-4.38377
11
8.53578
21
-4.38395
0
LINE
8
BLACK
6
CONTINUOUS
10
8.53578
20
-4.38395
11
8.53593
21
-4.38408
0
LINE
8
BLACK
6
CONTINUOUS
10
8.53593
20
-4.38408
11
8.53668
21
-4.38558
0
LINE
8
BLACK
6
CONTINUOUS
10
8.53668
20
-4.38558
11
8.5367
21
-4.38585
0
LINE
8
BLACK
6
CONTINUOUS
10
8.5367
20
-4.38585
11
8.5368
21
-4.38611
0
LINE
8
BLACK
6
CONTINUOUS
10
8.5368
20
-4.38611
11
8.5368
21
-4.38761
0
LINE
8
BLACK
6
CONTINUOUS
10
8.5368
20
-4.38761
11
8.53673
21
-4.38779
0
LINE
8
BLACK
6
CONTINUOUS
10
8.53673
20
-4.38779
11
8.53674
21
-4.38798
0
LINE
8
BLACK
6
CONTINUOUS
10
8.53674
20
-4.38798
11
8.53599
21
-4.39023
0
LINE
8
BLACK
6
CONTINUOUS
10
8.53599
20
-4.39023
11
8.53581
21
-4.39044
0
LINE
8
BLACK
6
CONTINUOUS
10
8.53581
20
-4.39044
11
8.53571
21
-4.39069
0
LINE
8
BLACK
6
CONTINUOUS
10
8.53571
20
-4.39069
11
8.52872
21
-4.39768
0
LINE
8
BLACK
6
CONTINUOUS
10
8.52872
20
-4.39768
11
8.53562
21
-4.39768
0
LINE
8
BLACK
6
CONTINUOUS
10
8.53562
20
-4.39768
11
8.53646
21
-4.39802
0
LINE
8
BLACK
6
CONTINUOUS
10
8.53646
20
-4.39802
11
8.5368
21
-4.39886
0
LINE
8
BLACK
6
CONTINUOUS
10
8.5368
20
-4.39886
11
8.53646
21
-4.39969
0
LINE
8
BLACK
6
CONTINUOUS
10
8.53646
20
-4.39969
11
8.53562
21
-4.40004
0
LINE
8
BLACK
6
CONTINUOUS
10
8.53562
20
-4.40004
11
8.52587
21
-4.40004
0
LINE
8
BLACK
6
CONTINUOUS
10
8.52587
20
-4.40004
11
8.52504
21
-4.39969
0
LINE
8
BLACK
6
CONTINUOUS
10
8.52504
20
-4.39969
11
8.52469
21
-4.39886
0
LINE
8
BLACK
6
CONTINUOUS
10
8.52469
20
-4.39886
11
8.52504
21
-4.39802
0
LINE
8
BLACK
6
CONTINUOUS
10
8.52504
20
-4.39802
11
8.53384
21
-4.38922
0
LINE
8
BLACK
6
CONTINUOUS
10
8.53384
20
-4.38922
11
8.53444
21
-4.38742
0
LINE
8
BLACK
6
CONTINUOUS
10
8.53444
20
-4.38742
11
8.53444
21
-4.38639
0
LINE
8
BLACK
6
CONTINUOUS
10
8.53444
20
-4.38639
11
8.5339
21
-4.38531
0
LINE
8
BLACK
6
CONTINUOUS
10
8.5339
20
-4.38531
11
8.53342
21
-4.38483
0
LINE
8
BLACK
6
CONTINUOUS
10
8.53342
20
-4.38483
11
8.53234
21
-4.38429
0
LINE
8
BLACK
6
CONTINUOUS
10
8.53234
20
-4.38429
11
8.52915
21
-4.38429
0
LINE
8
BLACK
6
CONTINUOUS
10
8.52915
20
-4.38429
11
8.52807
21
-4.38483
0
LINE
8
BLACK
6
CONTINUOUS
10
8.52807
20
-4.38483
11
8.52746
21
-4.38544
0
LINE
8
BLACK
6
CONTINUOUS
10
8.52746
20
-4.38544
11
8.52662
21
-4.38579
0
LINE
8
BLACK
6
CONTINUOUS
10
8.52662
20
-4.38579
11
8.52579
21
-4.38544
0
LINE
8
BLACK
6
CONTINUOUS
10
8.52579
20
-4.38544
11
8.52544
21
-4.38461
0
LINE
8
BLACK
6
CONTINUOUS
10
8.52544
20
-4.38461
11
8.52579
21
-4.38377
0
LINE
8
BLACK
6
CONTINUOUS
10
8.52579
20
-4.38377
11
8.52654
21
-4.38302
0
LINE
8
BLACK
6
CONTINUOUS
10
8.52654
20
-4.38302
11
8.52672
21
-4.38295
0
LINE
8
BLACK
6
CONTINUOUS
10
8.52672
20
-4.38295
11
8.52684
21
-4.3828
0
LINE
8
BLACK
6
CONTINUOUS
10
8.52684
20
-4.3828
11
8.52834
21
-4.38205
0
LINE
8
BLACK
6
CONTINUOUS
10
8.52834
20
-4.38205
11
8.52862
21
-4.38203
0
LINE
8
BLACK
6
CONTINUOUS
10
8.52862
20
-4.38203
11
8.52887
21
-4.38193
0
LINE
8
BLACK
6
CONTINUOUS
10
8.52887
20
-4.38193
11
8.53262
21
-4.38193
0
LINE
8
BLACK
6
CONTINUOUS
10
8.53262
20
-4.38193
11
8.53287
21
-4.38203
0
LINE
8
BLACK
6
CONTINUOUS
10
8.5216
20
-4.38202
11
8.52184
21
-4.38202
0
LINE
8
BLACK
6
CONTINUOUS
10
8.52184
20
-4.38202
11
8.522
21
-4.38219
0
LINE
8
BLACK
6
CONTINUOUS
10
8.522
20
-4.38219
11
8.52221
21
-4.38227
0
LINE
8
BLACK
6
CONTINUOUS
10
8.52221
20
-4.38227
11
8.5223
21
-4.3825
0
LINE
8
BLACK
6
CONTINUOUS
10
8.5223
20
-4.3825
11
8.52247
21
-4.38267
0
LINE
8
BLACK
6
CONTINUOUS
10
8.52247
20
-4.38267
11
8.52247
21
-4.3829
0
LINE
8
BLACK
6
CONTINUOUS
10
8.52247
20
-4.3829
11
8.52255
21
-4.38311
0
LINE
8
BLACK
6
CONTINUOUS
10
8.52255
20
-4.38311
11
8.52246
21
-4.38333
0
LINE
8
BLACK
6
CONTINUOUS
10
8.52246
20
-4.38333
11
8.52246
21
-4.38357
0
LINE
8
BLACK
6
CONTINUOUS
10
8.52246
20
-4.38357
11
8.51571
21
-4.39932
0
LINE
8
BLACK
6
CONTINUOUS
10
8.51571
20
-4.39932
11
8.51506
21
-4.39995
0
LINE
8
BLACK
6
CONTINUOUS
10
8.51506
20
-4.39995
11
8.51416
21
-4.39994
0
LINE
8
BLACK
6
CONTINUOUS
10
8.51416
20
-4.39994
11
8.51353
21
-4.3993
0
LINE
8
BLACK
6
CONTINUOUS
10
8.51353
20
-4.3993
11
8.51354
21
-4.39839
0
LINE
8
BLACK
6
CONTINUOUS
10
8.51354
20
-4.39839
11
8.51958
21
-4.38429
0
LINE
8
BLACK
6
CONTINUOUS
10
8.51958
20
-4.38429
11
8.51087
21
-4.38429
0
LINE
8
BLACK
6
CONTINUOUS
10
8.51087
20
-4.38429
11
8.51004
21
-4.38394
0
LINE
8
BLACK
6
CONTINUOUS
10
8.51004
20
-4.38394
11
8.50969
21
-4.38311
0
LINE
8
BLACK
6
CONTINUOUS
10
8.50969
20
-4.38311
11
8.51004
21
-4.38227
0
LINE
8
BLACK
6
CONTINUOUS
10
8.51004
20
-4.38227
11
8.51087
21
-4.38193
0
LINE
8
BLACK
6
CONTINUOUS
10
8.51087
20
-4.38193
11
8.52137
21
-4.38193
0
LINE
8
BLACK
6
CONTINUOUS
10
8.52137
20
-4.38193
11
8.5216
21
-4.38202
0
LINE
8
BLACK
6
CONTINUOUS
10
8.66477
20
-4.05816
11
8.66546
21
-4.06006
0
LINE
8
BLACK
6
CONTINUOUS
10
8.66546
20
-4.06006
11
8.66546
21
-4.07543
0
LINE
8
BLACK
6
CONTINUOUS
10
8.66546
20
-4.07543
11
8.68292
21
-4.05797
0
LINE
8
BLACK
6
CONTINUOUS
10
8.68292
20
-4.05797
11
8.68376
21
-4.05739
0
LINE
8
BLACK
6
CONTINUOUS
10
8.68376
20
-4.05739
11
8.68577
21
-4.05721
0
LINE
8
BLACK
6
CONTINUOUS
10
8.68577
20
-4.05721
11
8.68742
21
-4.05837
0
LINE
8
BLACK
6
CONTINUOUS
10
8.68742
20
-4.05837
11
8.68795
21
-4.06032
0
LINE
8
BLACK
6
CONTINUOUS
10
8.68795
20
-4.06032
11
8.68709
21
-4.06215
0
LINE
8
BLACK
6
CONTINUOUS
10
8.68709
20
-4.06215
11
8.67203
21
-4.07721
0
LINE
8
BLACK
6
CONTINUOUS
10
8.67203
20
-4.07721
11
8.68737
21
-4.09766
0
LINE
8
BLACK
6
CONTINUOUS
10
8.68737
20
-4.09766
11
8.68783
21
-4.09858
0
LINE
8
BLACK
6
CONTINUOUS
10
8.68783
20
-4.09858
11
8.68772
21
-4.10059
0
LINE
8
BLACK
6
CONTINUOUS
10
8.68772
20
-4.10059
11
8.68634
21
-4.10207
0
LINE
8
BLACK
6
CONTINUOUS
10
8.68634
20
-4.10207
11
8.68433
21
-4.10231
0
LINE
8
BLACK
6
CONTINUOUS
10
8.68433
20
-4.10231
11
8.68264
21
-4.1012
0
LINE
8
BLACK
6
CONTINUOUS
10
8.68264
20
-4.1012
11
8.66781
21
-4.08143
0
LINE
8
BLACK
6
CONTINUOUS
10
8.66781
20
-4.08143
11
8.66546
21
-4.08378
0
LINE
8
BLACK
6
CONTINUOUS
10
8.66546
20
-4.08378
11
8.66546
21
-4.09943
0
LINE
8
BLACK
6
CONTINUOUS
10
8.66546
20
-4.09943
11
8.66528
21
-4.10044
0
LINE
8
BLACK
6
CONTINUOUS
10
8.66528
20
-4.10044
11
8.66398
21
-4.10199
0
LINE
8
BLACK
6
CONTINUOUS
10
8.66398
20
-4.10199
11
8.66199
21
-4.10234
0
LINE
8
BLACK
6
CONTINUOUS
10
8.66199
20
-4.10234
11
8.66025
21
-4.10133
0
LINE
8
BLACK
6
CONTINUOUS
10
8.66025
20
-4.10133
11
8.65955
21
-4.09943
0
LINE
8
BLACK
6
CONTINUOUS
10
8.65955
20
-4.09943
11
8.65955
21
-4.06006
0
LINE
8
BLACK
6
CONTINUOUS
10
8.65955
20
-4.06006
11
8.65973
21
-4.05905
0
LINE
8
BLACK
6
CONTINUOUS
10
8.65973
20
-4.05905
11
8.66103
21
-4.05751
0
LINE
8
BLACK
6
CONTINUOUS
10
8.66103
20
-4.05751
11
8.66302
21
-4.05715
0
LINE
8
BLACK
6
CONTINUOUS
10
8.66302
20
-4.05715
11
8.66477
21
-4.05816
0
LINE
8
BLACK
6
CONTINUOUS
10
8.66477
20
-3.90108
11
8.66546
21
-3.90298
0
LINE
8
BLACK
6
CONTINUOUS
10
8.66546
20
-3.90298
11
8.66546
21
-3.91834
0
LINE
8
BLACK
6
CONTINUOUS
10
8.66546
20
-3.91834
11
8.68292
21
-3.90089
0
LINE
8
BLACK
6
CONTINUOUS
10
8.68292
20
-3.90089
11
8.68376
21
-3.9003
0
LINE
8
BLACK
6
CONTINUOUS
10
8.68376
20
-3.9003
11
8.68577
21
-3.90012
0
LINE
8
BLACK
6
CONTINUOUS
10
8.68577
20
-3.90012
11
8.68742
21
-3.90128
0
LINE
8
BLACK
6
CONTINUOUS
10
8.68742
20
-3.90128
11
8.68795
21
-3.90323
0
LINE
8
BLACK
6
CONTINUOUS
10
8.68795
20
-3.90323
11
8.68709
21
-3.90506
0
LINE
8
BLACK
6
CONTINUOUS
10
8.68709
20
-3.90506
11
8.67203
21
-3.92013
0
LINE
8
BLACK
6
CONTINUOUS
10
8.67203
20
-3.92013
11
8.68737
21
-3.94057
0
LINE
8
BLACK
6
CONTINUOUS
10
8.68737
20
-3.94057
11
8.68783
21
-3.94149
0
LINE
8
BLACK
6
CONTINUOUS
10
8.68783
20
-3.94149
11
8.68772
21
-3.94351
0
LINE
8
BLACK
6
CONTINUOUS
10
8.68772
20
-3.94351
11
8.68634
21
-3.94498
0
LINE
8
BLACK
6
CONTINUOUS
10
8.68634
20
-3.94498
11
8.68433
21
-3.94522
0
LINE
8
BLACK
6
CONTINUOUS
10
8.68433
20
-3.94522
11
8.68264
21
-3.94412
0
LINE
8
BLACK
6
CONTINUOUS
10
8.68264
20
-3.94412
11
8.66781
21
-3.92434
0
LINE
8
BLACK
6
CONTINUOUS
10
8.66781
20
-3.92434
11
8.66546
21
-3.9267
0
LINE
8
BLACK
6
CONTINUOUS
10
8.66546
20
-3.9267
11
8.66546
21
-3.94235
0
LINE
8
BLACK
6
CONTINUOUS
10
8.66546
20
-3.94235
11
8.66528
21
-3.94336
0
LINE
8
BLACK
6
CONTINUOUS
10
8.66528
20
-3.94336
11
8.66398
21
-3.9449
0
LINE
8
BLACK
6
CONTINUOUS
10
8.66398
20
-3.9449
11
8.66199
21
-3.94525
0
LINE
8
BLACK
6
CONTINUOUS
10
8.66199
20
-3.94525
11
8.66025
21
-3.94424
0
LINE
8
BLACK
6
CONTINUOUS
10
8.66025
20
-3.94424
11
8.65955
21
-3.94235
0
LINE
8
BLACK
6
CONTINUOUS
10
8.65955
20
-3.94235
11
8.65955
21
-3.90298
0
LINE
8
BLACK
6
CONTINUOUS
10
8.65955
20
-3.90298
11
8.65973
21
-3.90197
0
LINE
8
BLACK
6
CONTINUOUS
10
8.65973
20
-3.90197
11
8.66103
21
-3.90042
0
LINE
8
BLACK
6
CONTINUOUS
10
8.66103
20
-3.90042
11
8.66302
21
-3.90007
0
LINE
8
BLACK
6
CONTINUOUS
10
8.66302
20
-3.90007
11
8.66477
21
-3.90108
  0
ENDSEC
  0
EOF
