G04 #@! TF.GenerationSoftware,KiCad,Pcbnew,(5.1.0-3-gb9944e2c0)*
G04 #@! TF.CreationDate,2019-04-29T13:26:23+02:00*
G04 #@! TF.ProjectId,QFHMIX01C,5146484d-4958-4303-9143-2e6b69636164,REV 0.2*
G04 #@! TF.SameCoordinates,Original*
G04 #@! TF.FileFunction,Copper,L2,Bot*
G04 #@! TF.FilePolarity,Positive*
%FSLAX45Y45*%
G04 Gerber Fmt 4.5, Leading zero omitted, Abs format (unit mm)*
G04 Created by KiCad (PCBNEW (5.1.0-3-gb9944e2c0)) date 2019-04-29 13:26:23*
%MOMM*%
%LPD*%
G04 APERTURE LIST*
%ADD10C,3.200000*%
%ADD11C,0.150000*%
%ADD12C,0.760000*%
%ADD13C,0.635000*%
%ADD14C,0.700000*%
%ADD15C,0.889000*%
%ADD16R,0.635000X1.143000*%
%ADD17R,1.143000X0.635000*%
%ADD18C,1.850000*%
%ADD19C,0.300000*%
%ADD20C,1.450000*%
%ADD21C,2.500000*%
%ADD22C,1.000000*%
%ADD23C,0.600000*%
%ADD24C,0.900000*%
%ADD25C,0.300000*%
%ADD26C,1.800000*%
%ADD27R,0.900000X0.800000*%
%ADD28R,0.800000X0.900000*%
%ADD29C,2.000000*%
%ADD30C,1.500000*%
%ADD31C,0.299720*%
%ADD32C,1.524000*%
%ADD33C,6.000000*%
%ADD34C,0.750000*%
%ADD35C,0.250000*%
%ADD36C,0.500000*%
%ADD37C,0.600000*%
%ADD38C,0.800000*%
%ADD39C,1.000000*%
%ADD40C,1.500000*%
%ADD41C,0.100000*%
G04 APERTURE END LIST*
D10*
X15701464Y-9313536D03*
D11*
G36*
X15418622Y-9256967D02*
G01*
X15644896Y-9030693D01*
X15984307Y-9370104D01*
X15758033Y-9596378D01*
X15418622Y-9256967D01*
X15418622Y-9256967D01*
G37*
D12*
X15764326Y-8981266D03*
D11*
G36*
X15692555Y-8999297D02*
G01*
X15782357Y-8909495D01*
X15836098Y-8963235D01*
X15746295Y-9053037D01*
X15692555Y-8999297D01*
X15692555Y-8999297D01*
G37*
D12*
X15854129Y-9071069D03*
D11*
G36*
X15782358Y-9089100D02*
G01*
X15872160Y-8999297D01*
X15925900Y-9053037D01*
X15836098Y-9142840D01*
X15782358Y-9089100D01*
X15782358Y-9089100D01*
G37*
D12*
X15943931Y-9160871D03*
D11*
G36*
X15872160Y-9178902D02*
G01*
X15961963Y-9089100D01*
X16015703Y-9142840D01*
X15925900Y-9232642D01*
X15872160Y-9178902D01*
X15872160Y-9178902D01*
G37*
D12*
X16033734Y-9250674D03*
D11*
G36*
X15961963Y-9268705D02*
G01*
X16051765Y-9178902D01*
X16105505Y-9232643D01*
X16015703Y-9322445D01*
X15961963Y-9268705D01*
X15961963Y-9268705D01*
G37*
D12*
X15369195Y-9376397D03*
D11*
G36*
X15297424Y-9394429D02*
G01*
X15387226Y-9304626D01*
X15440966Y-9358366D01*
X15351164Y-9448169D01*
X15297424Y-9394429D01*
X15297424Y-9394429D01*
G37*
D12*
X15458998Y-9466200D03*
D11*
G36*
X15387226Y-9484231D02*
G01*
X15477029Y-9394429D01*
X15530769Y-9448169D01*
X15440966Y-9537971D01*
X15387226Y-9484231D01*
X15387226Y-9484231D01*
G37*
D12*
X15548800Y-9556002D03*
D11*
G36*
X15477029Y-9574034D02*
G01*
X15566831Y-9484231D01*
X15620571Y-9537971D01*
X15530769Y-9627774D01*
X15477029Y-9574034D01*
X15477029Y-9574034D01*
G37*
D12*
X15638603Y-9645805D03*
D11*
G36*
X15566831Y-9663836D02*
G01*
X15656634Y-9574034D01*
X15710374Y-9627774D01*
X15620571Y-9717576D01*
X15566831Y-9663836D01*
X15566831Y-9663836D01*
G37*
D10*
X18070000Y-9807500D03*
D11*
G36*
X18126569Y-9524657D02*
G01*
X18352843Y-9750932D01*
X18013432Y-10090343D01*
X17787157Y-9864069D01*
X18126569Y-9524657D01*
X18126569Y-9524657D01*
G37*
D12*
X18402270Y-9870362D03*
D11*
G36*
X18384238Y-9798591D02*
G01*
X18474041Y-9888393D01*
X18420301Y-9942133D01*
X18330498Y-9852331D01*
X18384238Y-9798591D01*
X18384238Y-9798591D01*
G37*
D12*
X18312467Y-9960164D03*
D11*
G36*
X18294436Y-9888393D02*
G01*
X18384238Y-9978196D01*
X18330498Y-10031936D01*
X18240696Y-9942133D01*
X18294436Y-9888393D01*
X18294436Y-9888393D01*
G37*
D12*
X18222664Y-10049967D03*
D11*
G36*
X18204633Y-9978196D02*
G01*
X18294436Y-10067998D01*
X18240696Y-10121738D01*
X18150893Y-10031936D01*
X18204633Y-9978196D01*
X18204633Y-9978196D01*
G37*
D12*
X18132862Y-10139770D03*
D11*
G36*
X18114831Y-10067998D02*
G01*
X18204633Y-10157801D01*
X18150893Y-10211541D01*
X18061091Y-10121738D01*
X18114831Y-10067998D01*
X18114831Y-10067998D01*
G37*
D12*
X18007138Y-9475231D03*
D11*
G36*
X17989107Y-9403459D02*
G01*
X18078910Y-9493262D01*
X18025169Y-9547002D01*
X17935367Y-9457199D01*
X17989107Y-9403459D01*
X17989107Y-9403459D01*
G37*
D12*
X17917336Y-9565033D03*
D11*
G36*
X17899304Y-9493262D02*
G01*
X17989107Y-9583064D01*
X17935367Y-9636804D01*
X17845564Y-9547002D01*
X17899304Y-9493262D01*
X17899304Y-9493262D01*
G37*
D12*
X17827533Y-9654836D03*
D11*
G36*
X17809502Y-9583064D02*
G01*
X17899304Y-9672867D01*
X17845564Y-9726607D01*
X17755762Y-9636804D01*
X17809502Y-9583064D01*
X17809502Y-9583064D01*
G37*
D12*
X17737731Y-9744638D03*
D11*
G36*
X17719699Y-9672867D02*
G01*
X17809502Y-9762669D01*
X17755762Y-9816410D01*
X17665959Y-9726607D01*
X17719699Y-9672867D01*
X17719699Y-9672867D01*
G37*
D10*
X14676464Y-8298535D03*
D11*
G36*
X14393622Y-8241967D02*
G01*
X14619896Y-8015693D01*
X14959307Y-8355104D01*
X14733033Y-8581378D01*
X14393622Y-8241967D01*
X14393622Y-8241967D01*
G37*
D12*
X14739326Y-7966266D03*
D11*
G36*
X14667555Y-7984297D02*
G01*
X14757357Y-7894495D01*
X14811098Y-7948235D01*
X14721295Y-8038037D01*
X14667555Y-7984297D01*
X14667555Y-7984297D01*
G37*
D12*
X14829129Y-8056069D03*
D11*
G36*
X14757358Y-8074100D02*
G01*
X14847160Y-7984297D01*
X14900900Y-8038037D01*
X14811098Y-8127840D01*
X14757358Y-8074100D01*
X14757358Y-8074100D01*
G37*
D12*
X14918931Y-8145871D03*
D11*
G36*
X14847160Y-8163902D02*
G01*
X14936963Y-8074100D01*
X14990703Y-8127840D01*
X14900900Y-8217642D01*
X14847160Y-8163902D01*
X14847160Y-8163902D01*
G37*
D12*
X15008734Y-8235674D03*
D11*
G36*
X14936963Y-8253705D02*
G01*
X15026765Y-8163902D01*
X15080505Y-8217642D01*
X14990703Y-8307445D01*
X14936963Y-8253705D01*
X14936963Y-8253705D01*
G37*
D12*
X14344195Y-8361397D03*
D11*
G36*
X14272424Y-8379428D02*
G01*
X14362226Y-8289626D01*
X14415966Y-8343366D01*
X14326164Y-8433169D01*
X14272424Y-8379428D01*
X14272424Y-8379428D01*
G37*
D12*
X14433998Y-8451200D03*
D11*
G36*
X14362226Y-8469231D02*
G01*
X14452029Y-8379429D01*
X14505769Y-8433169D01*
X14415966Y-8522971D01*
X14362226Y-8469231D01*
X14362226Y-8469231D01*
G37*
D12*
X14523800Y-8541002D03*
D11*
G36*
X14452029Y-8559034D02*
G01*
X14541831Y-8469231D01*
X14595571Y-8522971D01*
X14505769Y-8612774D01*
X14452029Y-8559034D01*
X14452029Y-8559034D01*
G37*
D12*
X14613603Y-8630805D03*
D11*
G36*
X14541831Y-8648836D02*
G01*
X14631634Y-8559034D01*
X14685374Y-8612774D01*
X14595571Y-8702576D01*
X14541831Y-8648836D01*
X14541831Y-8648836D01*
G37*
D10*
X14180000Y-5932500D03*
D11*
G36*
X14123431Y-6215343D02*
G01*
X13897157Y-5989068D01*
X14236568Y-5649657D01*
X14462843Y-5875931D01*
X14123431Y-6215343D01*
X14123431Y-6215343D01*
G37*
D12*
X13847730Y-5869638D03*
D11*
G36*
X13865762Y-5941409D02*
G01*
X13775959Y-5851607D01*
X13829699Y-5797867D01*
X13919502Y-5887669D01*
X13865762Y-5941409D01*
X13865762Y-5941409D01*
G37*
D12*
X13937533Y-5779836D03*
D11*
G36*
X13955564Y-5851607D02*
G01*
X13865762Y-5761804D01*
X13919502Y-5708064D01*
X14009304Y-5797867D01*
X13955564Y-5851607D01*
X13955564Y-5851607D01*
G37*
D12*
X14027336Y-5690033D03*
D11*
G36*
X14045367Y-5761804D02*
G01*
X13955564Y-5672002D01*
X14009304Y-5618262D01*
X14099107Y-5708064D01*
X14045367Y-5761804D01*
X14045367Y-5761804D01*
G37*
D12*
X14117138Y-5600230D03*
D11*
G36*
X14135169Y-5672002D02*
G01*
X14045367Y-5582199D01*
X14099107Y-5528459D01*
X14188909Y-5618262D01*
X14135169Y-5672002D01*
X14135169Y-5672002D01*
G37*
D12*
X14242862Y-6264769D03*
D11*
G36*
X14260893Y-6336541D02*
G01*
X14171090Y-6246738D01*
X14224831Y-6192998D01*
X14314633Y-6282801D01*
X14260893Y-6336541D01*
X14260893Y-6336541D01*
G37*
D12*
X14332664Y-6174967D03*
D11*
G36*
X14350696Y-6246738D02*
G01*
X14260893Y-6156936D01*
X14314633Y-6103196D01*
X14404436Y-6192998D01*
X14350696Y-6246738D01*
X14350696Y-6246738D01*
G37*
D12*
X14422467Y-6085164D03*
D11*
G36*
X14440498Y-6156936D02*
G01*
X14350696Y-6067133D01*
X14404436Y-6013393D01*
X14494238Y-6103196D01*
X14440498Y-6156936D01*
X14440498Y-6156936D01*
G37*
D12*
X14512269Y-5995362D03*
D11*
G36*
X14530301Y-6067133D02*
G01*
X14440498Y-5977331D01*
X14494238Y-5923590D01*
X14584041Y-6013393D01*
X14530301Y-6067133D01*
X14530301Y-6067133D01*
G37*
D13*
X12526829Y-11473171D03*
D11*
G36*
X12508869Y-11410309D02*
G01*
X12589691Y-11491131D01*
X12544790Y-11536033D01*
X12463967Y-11455210D01*
X12508869Y-11410309D01*
X12508869Y-11410309D01*
G37*
D13*
X12634592Y-11365408D03*
D11*
G36*
X12616632Y-11302546D02*
G01*
X12697454Y-11383368D01*
X12652553Y-11428270D01*
X12571730Y-11347447D01*
X12616632Y-11302546D01*
X12616632Y-11302546D01*
G37*
D13*
X13355671Y-11613171D03*
D11*
G36*
X13292809Y-11631131D02*
G01*
X13373631Y-11550309D01*
X13418533Y-11595210D01*
X13337710Y-11676033D01*
X13292809Y-11631131D01*
X13292809Y-11631131D01*
G37*
D13*
X13247908Y-11505408D03*
D11*
G36*
X13185046Y-11523368D02*
G01*
X13265868Y-11442546D01*
X13310770Y-11487447D01*
X13229947Y-11568270D01*
X13185046Y-11523368D01*
X13185046Y-11523368D01*
G37*
D14*
X14184675Y-10392175D03*
D11*
G36*
X14255386Y-10370962D02*
G01*
X14163462Y-10462886D01*
X14113964Y-10413388D01*
X14205888Y-10321464D01*
X14255386Y-10370962D01*
X14255386Y-10370962D01*
G37*
D14*
X14050325Y-10257825D03*
D11*
G36*
X14121036Y-10236612D02*
G01*
X14029112Y-10328536D01*
X13979614Y-10279038D01*
X14071538Y-10187114D01*
X14121036Y-10236612D01*
X14121036Y-10236612D01*
G37*
D14*
X14637825Y-10817825D03*
D11*
G36*
X14567114Y-10839038D02*
G01*
X14659038Y-10747114D01*
X14708536Y-10796612D01*
X14616612Y-10888536D01*
X14567114Y-10839038D01*
X14567114Y-10839038D01*
G37*
D14*
X14772175Y-10952175D03*
D11*
G36*
X14701464Y-10973388D02*
G01*
X14793388Y-10881464D01*
X14842886Y-10930962D01*
X14750962Y-11022886D01*
X14701464Y-10973388D01*
X14701464Y-10973388D01*
G37*
D14*
X13738673Y-9943673D03*
D11*
G36*
X13809384Y-9922460D02*
G01*
X13717460Y-10014384D01*
X13667962Y-9964886D01*
X13759886Y-9872963D01*
X13809384Y-9922460D01*
X13809384Y-9922460D01*
G37*
D14*
X13604323Y-9809323D03*
D11*
G36*
X13675034Y-9788110D02*
G01*
X13583110Y-9880034D01*
X13533612Y-9830536D01*
X13625536Y-9738612D01*
X13675034Y-9788110D01*
X13675034Y-9788110D01*
G37*
D14*
X13032825Y-9237825D03*
D11*
G36*
X12962114Y-9259038D02*
G01*
X13054038Y-9167114D01*
X13103536Y-9216612D01*
X13011612Y-9308536D01*
X12962114Y-9259038D01*
X12962114Y-9259038D01*
G37*
D14*
X13167175Y-9372175D03*
D11*
G36*
X13096464Y-9393388D02*
G01*
X13188388Y-9301464D01*
X13237886Y-9350962D01*
X13145962Y-9442886D01*
X13096464Y-9393388D01*
X13096464Y-9393388D01*
G37*
D13*
X13151381Y-8813619D03*
D11*
G36*
X13169342Y-8876480D02*
G01*
X13088520Y-8795658D01*
X13133421Y-8750757D01*
X13214243Y-8831579D01*
X13169342Y-8876480D01*
X13169342Y-8876480D01*
G37*
D13*
X13043618Y-8921382D03*
D11*
G36*
X13061579Y-8984243D02*
G01*
X12980757Y-8903421D01*
X13025658Y-8858520D01*
X13106480Y-8939342D01*
X13061579Y-8984243D01*
X13061579Y-8984243D01*
G37*
D13*
X12214268Y-7761362D03*
D11*
G36*
X12151406Y-7779323D02*
G01*
X12232228Y-7698500D01*
X12277129Y-7743402D01*
X12196307Y-7824224D01*
X12151406Y-7779323D01*
X12151406Y-7779323D01*
G37*
D13*
X12106505Y-7653599D03*
D11*
G36*
X12043643Y-7671560D02*
G01*
X12124465Y-7590737D01*
X12169366Y-7635639D01*
X12088544Y-7716461D01*
X12043643Y-7671560D01*
X12043643Y-7671560D01*
G37*
D13*
X12435448Y-6567353D03*
D11*
G36*
X12417487Y-6504491D02*
G01*
X12498310Y-6585313D01*
X12453408Y-6630215D01*
X12372586Y-6549392D01*
X12417487Y-6504491D01*
X12417487Y-6504491D01*
G37*
D13*
X12543211Y-6459590D03*
D11*
G36*
X12525250Y-6396728D02*
G01*
X12606073Y-6477550D01*
X12561171Y-6522452D01*
X12480349Y-6441629D01*
X12525250Y-6396728D01*
X12525250Y-6396728D01*
G37*
D13*
X12361562Y-7611672D03*
D11*
G36*
X12298700Y-7629632D02*
G01*
X12379523Y-7548810D01*
X12424424Y-7593711D01*
X12343602Y-7674534D01*
X12298700Y-7629632D01*
X12298700Y-7629632D01*
G37*
D13*
X12253799Y-7503909D03*
D11*
G36*
X12190937Y-7521869D02*
G01*
X12271760Y-7441047D01*
X12316661Y-7485948D01*
X12235839Y-7566771D01*
X12190937Y-7521869D01*
X12190937Y-7521869D01*
G37*
D13*
X12299748Y-6434353D03*
D11*
G36*
X12281787Y-6371491D02*
G01*
X12362609Y-6452313D01*
X12317708Y-6497214D01*
X12236886Y-6416392D01*
X12281787Y-6371491D01*
X12281787Y-6371491D01*
G37*
D13*
X12407511Y-6326590D03*
D11*
G36*
X12389550Y-6263728D02*
G01*
X12470372Y-6344550D01*
X12425471Y-6389451D01*
X12344649Y-6308629D01*
X12389550Y-6263728D01*
X12389550Y-6263728D01*
G37*
D13*
X12560750Y-7414880D03*
D11*
G36*
X12497888Y-7432840D02*
G01*
X12578711Y-7352018D01*
X12623612Y-7396919D01*
X12542790Y-7477742D01*
X12497888Y-7432840D01*
X12497888Y-7432840D01*
G37*
D13*
X12452987Y-7307117D03*
D11*
G36*
X12390125Y-7325077D02*
G01*
X12470948Y-7244255D01*
X12515849Y-7289156D01*
X12435027Y-7369979D01*
X12390125Y-7325077D01*
X12390125Y-7325077D01*
G37*
D13*
X12709242Y-7266387D03*
D11*
G36*
X12646381Y-7284348D02*
G01*
X12727203Y-7203526D01*
X12772104Y-7248427D01*
X12691282Y-7329249D01*
X12646381Y-7284348D01*
X12646381Y-7284348D01*
G37*
D13*
X12601479Y-7158624D03*
D11*
G36*
X12538618Y-7176585D02*
G01*
X12619440Y-7095763D01*
X12664341Y-7140664D01*
X12583519Y-7221486D01*
X12538618Y-7176585D01*
X12538618Y-7176585D01*
G37*
D13*
X16807763Y-11037763D03*
D11*
G36*
X16744901Y-11055724D02*
G01*
X16825724Y-10974901D01*
X16870625Y-11019803D01*
X16789803Y-11100625D01*
X16744901Y-11055724D01*
X16744901Y-11055724D01*
G37*
D13*
X16700000Y-10930000D03*
D11*
G36*
X16637138Y-10947961D02*
G01*
X16717960Y-10867138D01*
X16762862Y-10912040D01*
X16682039Y-10992862D01*
X16637138Y-10947961D01*
X16637138Y-10947961D01*
G37*
D13*
X17003882Y-11233881D03*
D11*
G36*
X16941020Y-11251842D02*
G01*
X17021842Y-11171020D01*
X17066743Y-11215921D01*
X16985921Y-11296743D01*
X16941020Y-11251842D01*
X16941020Y-11251842D01*
G37*
D13*
X16896119Y-11126119D03*
D11*
G36*
X16833257Y-11144079D02*
G01*
X16914079Y-11063257D01*
X16958980Y-11108158D01*
X16878158Y-11188980D01*
X16833257Y-11144079D01*
X16833257Y-11144079D01*
G37*
D13*
X12206381Y-5823618D03*
D11*
G36*
X12224342Y-5886480D02*
G01*
X12143520Y-5805658D01*
X12188421Y-5760757D01*
X12269243Y-5841579D01*
X12224342Y-5886480D01*
X12224342Y-5886480D01*
G37*
D13*
X12098618Y-5931381D03*
D11*
G36*
X12116579Y-5994243D02*
G01*
X12035757Y-5913421D01*
X12080658Y-5868520D01*
X12161480Y-5949342D01*
X12116579Y-5994243D01*
X12116579Y-5994243D01*
G37*
D13*
X11733618Y-6436118D03*
D11*
G36*
X11796480Y-6418158D02*
G01*
X11715658Y-6498980D01*
X11670757Y-6454079D01*
X11751579Y-6373257D01*
X11796480Y-6418158D01*
X11796480Y-6418158D01*
G37*
D13*
X11841381Y-6543881D03*
D11*
G36*
X11904243Y-6525921D02*
G01*
X11823421Y-6606743D01*
X11778520Y-6561842D01*
X11859342Y-6481020D01*
X11904243Y-6525921D01*
X11904243Y-6525921D01*
G37*
D13*
X16288881Y-10523882D03*
D11*
G36*
X16226020Y-10541842D02*
G01*
X16306842Y-10461020D01*
X16351743Y-10505921D01*
X16270921Y-10586743D01*
X16226020Y-10541842D01*
X16226020Y-10541842D01*
G37*
D13*
X16181118Y-10416119D03*
D11*
G36*
X16118257Y-10434079D02*
G01*
X16199079Y-10353257D01*
X16243980Y-10398158D01*
X16163158Y-10478980D01*
X16118257Y-10434079D01*
X16118257Y-10434079D01*
G37*
D13*
X16451118Y-10681119D03*
D11*
G36*
X16513980Y-10663158D02*
G01*
X16433158Y-10743980D01*
X16388257Y-10699079D01*
X16469079Y-10618257D01*
X16513980Y-10663158D01*
X16513980Y-10663158D01*
G37*
D13*
X16558881Y-10788882D03*
D11*
G36*
X16621743Y-10770921D02*
G01*
X16540921Y-10851743D01*
X16496020Y-10806842D01*
X16576842Y-10726020D01*
X16621743Y-10770921D01*
X16621743Y-10770921D01*
G37*
D13*
X14918881Y-11108619D03*
D11*
G36*
X14936842Y-11171480D02*
G01*
X14856020Y-11090658D01*
X14900921Y-11045757D01*
X14981743Y-11126579D01*
X14936842Y-11171480D01*
X14936842Y-11171480D01*
G37*
D13*
X14811118Y-11216381D03*
D11*
G36*
X14829079Y-11279243D02*
G01*
X14748257Y-11198421D01*
X14793158Y-11153520D01*
X14873980Y-11234342D01*
X14829079Y-11279243D01*
X14829079Y-11279243D01*
G37*
D13*
X13971118Y-10018882D03*
D11*
G36*
X13953158Y-9956020D02*
G01*
X14033980Y-10036842D01*
X13989079Y-10081743D01*
X13908257Y-10000921D01*
X13953158Y-9956020D01*
X13953158Y-9956020D01*
G37*
D13*
X14078881Y-9911119D03*
D11*
G36*
X14060921Y-9848257D02*
G01*
X14141743Y-9929079D01*
X14096842Y-9973980D01*
X14016020Y-9893158D01*
X14060921Y-9848257D01*
X14060921Y-9848257D01*
G37*
D13*
X15531381Y-10198882D03*
D11*
G36*
X15468520Y-10216842D02*
G01*
X15549342Y-10136020D01*
X15594243Y-10180921D01*
X15513421Y-10261743D01*
X15468520Y-10216842D01*
X15468520Y-10216842D01*
G37*
D13*
X15423618Y-10091119D03*
D11*
G36*
X15360757Y-10109079D02*
G01*
X15441579Y-10028257D01*
X15486480Y-10073158D01*
X15405658Y-10153980D01*
X15360757Y-10109079D01*
X15360757Y-10109079D01*
G37*
D13*
X13503171Y-11468171D03*
D11*
G36*
X13440309Y-11486131D02*
G01*
X13521131Y-11405309D01*
X13566033Y-11450210D01*
X13485210Y-11531033D01*
X13440309Y-11486131D01*
X13440309Y-11486131D01*
G37*
D13*
X13395408Y-11360408D03*
D11*
G36*
X13332546Y-11378368D02*
G01*
X13413368Y-11297546D01*
X13458270Y-11342447D01*
X13377447Y-11423270D01*
X13332546Y-11378368D01*
X13332546Y-11378368D01*
G37*
D13*
X14359041Y-10800075D03*
D11*
G36*
X14377002Y-10862937D02*
G01*
X14296179Y-10782115D01*
X14341081Y-10737213D01*
X14421903Y-10818036D01*
X14377002Y-10862937D01*
X14377002Y-10862937D01*
G37*
D13*
X14251278Y-10907838D03*
D11*
G36*
X14269239Y-10970700D02*
G01*
X14188416Y-10889878D01*
X14233318Y-10844976D01*
X14314140Y-10925799D01*
X14269239Y-10970700D01*
X14269239Y-10970700D01*
G37*
D13*
X12711580Y-11780066D03*
D11*
G36*
X12648718Y-11798027D02*
G01*
X12729541Y-11717204D01*
X12774442Y-11762106D01*
X12693620Y-11842928D01*
X12648718Y-11798027D01*
X12648718Y-11798027D01*
G37*
D13*
X12603817Y-11672303D03*
D11*
G36*
X12540955Y-11690264D02*
G01*
X12621778Y-11609441D01*
X12666679Y-11654343D01*
X12585857Y-11735165D01*
X12540955Y-11690264D01*
X12540955Y-11690264D01*
G37*
D13*
X14214225Y-10657522D03*
D11*
G36*
X14232186Y-10720384D02*
G01*
X14151364Y-10639562D01*
X14196265Y-10594661D01*
X14277087Y-10675483D01*
X14232186Y-10720384D01*
X14232186Y-10720384D01*
G37*
D13*
X14106462Y-10765285D03*
D11*
G36*
X14124423Y-10828147D02*
G01*
X14043601Y-10747325D01*
X14088502Y-10702424D01*
X14169324Y-10783246D01*
X14124423Y-10828147D01*
X14124423Y-10828147D01*
G37*
D13*
X13343353Y-9784387D03*
D11*
G36*
X13361313Y-9847249D02*
G01*
X13280491Y-9766426D01*
X13325392Y-9721525D01*
X13406215Y-9802347D01*
X13361313Y-9847249D01*
X13361313Y-9847249D01*
G37*
D13*
X13235590Y-9892150D03*
D11*
G36*
X13253550Y-9955012D02*
G01*
X13172728Y-9874189D01*
X13217629Y-9829288D01*
X13298452Y-9910110D01*
X13253550Y-9955012D01*
X13253550Y-9955012D01*
G37*
D13*
X12324881Y-11388881D03*
D11*
G36*
X12262020Y-11406842D02*
G01*
X12342842Y-11326020D01*
X12387743Y-11370921D01*
X12306921Y-11451743D01*
X12262020Y-11406842D01*
X12262020Y-11406842D01*
G37*
D13*
X12217118Y-11281118D03*
D11*
G36*
X12154257Y-11299079D02*
G01*
X12235079Y-11218257D01*
X12279980Y-11263158D01*
X12199158Y-11343980D01*
X12154257Y-11299079D01*
X12154257Y-11299079D01*
G37*
D13*
X13199669Y-9640703D03*
D11*
G36*
X13217629Y-9703565D02*
G01*
X13136807Y-9622742D01*
X13181708Y-9577841D01*
X13262531Y-9658663D01*
X13217629Y-9703565D01*
X13217629Y-9703565D01*
G37*
D13*
X13091906Y-9748466D03*
D11*
G36*
X13109866Y-9811328D02*
G01*
X13029044Y-9730505D01*
X13073945Y-9685604D01*
X13154768Y-9766426D01*
X13109866Y-9811328D01*
X13109866Y-9811328D01*
G37*
D13*
X14498881Y-9176382D03*
D11*
G36*
X14436020Y-9194342D02*
G01*
X14516842Y-9113520D01*
X14561743Y-9158421D01*
X14480921Y-9239243D01*
X14436020Y-9194342D01*
X14436020Y-9194342D01*
G37*
D13*
X14391118Y-9068619D03*
D11*
G36*
X14328257Y-9086579D02*
G01*
X14409079Y-9005757D01*
X14453980Y-9050658D01*
X14373158Y-9131480D01*
X14328257Y-9086579D01*
X14328257Y-9086579D01*
G37*
D13*
X12650035Y-10631289D03*
D11*
G36*
X12587173Y-10649249D02*
G01*
X12667995Y-10568427D01*
X12712896Y-10613328D01*
X12632074Y-10694150D01*
X12587173Y-10649249D01*
X12587173Y-10649249D01*
G37*
D13*
X12542272Y-10523526D03*
D11*
G36*
X12479410Y-10541486D02*
G01*
X12560232Y-10460664D01*
X12605133Y-10505565D01*
X12524311Y-10586387D01*
X12479410Y-10541486D01*
X12479410Y-10541486D01*
G37*
D13*
X13701118Y-10291382D03*
D11*
G36*
X13683158Y-10228520D02*
G01*
X13763980Y-10309342D01*
X13719079Y-10354243D01*
X13638257Y-10273421D01*
X13683158Y-10228520D01*
X13683158Y-10228520D01*
G37*
D13*
X13808881Y-10183619D03*
D11*
G36*
X13790921Y-10120757D02*
G01*
X13871743Y-10201579D01*
X13826842Y-10246480D01*
X13746020Y-10165658D01*
X13790921Y-10120757D01*
X13790921Y-10120757D01*
G37*
D13*
X12764329Y-9205671D03*
D11*
G36*
X12746369Y-9142809D02*
G01*
X12827191Y-9223631D01*
X12782290Y-9268533D01*
X12701467Y-9187710D01*
X12746369Y-9142809D01*
X12746369Y-9142809D01*
G37*
D13*
X12872092Y-9097908D03*
D11*
G36*
X12854132Y-9035046D02*
G01*
X12934954Y-9115868D01*
X12890053Y-9160770D01*
X12809230Y-9079947D01*
X12854132Y-9035046D01*
X12854132Y-9035046D01*
G37*
D14*
X16247825Y-8632825D03*
D11*
G36*
X16177114Y-8654038D02*
G01*
X16269038Y-8562114D01*
X16318536Y-8611612D01*
X16226612Y-8703536D01*
X16177114Y-8654038D01*
X16177114Y-8654038D01*
G37*
D14*
X16382175Y-8767175D03*
D11*
G36*
X16311464Y-8788388D02*
G01*
X16403388Y-8696464D01*
X16452886Y-8745962D01*
X16360962Y-8837886D01*
X16311464Y-8788388D01*
X16311464Y-8788388D01*
G37*
D14*
X17034675Y-8637825D03*
D11*
G36*
X17013462Y-8567114D02*
G01*
X17105386Y-8659038D01*
X17055888Y-8708536D01*
X16963964Y-8616612D01*
X17013462Y-8567114D01*
X17013462Y-8567114D01*
G37*
D14*
X16900325Y-8772175D03*
D11*
G36*
X16879112Y-8701464D02*
G01*
X16971036Y-8793388D01*
X16921538Y-8842886D01*
X16829614Y-8750962D01*
X16879112Y-8701464D01*
X16879112Y-8701464D01*
G37*
D14*
X17515294Y-9123543D03*
D11*
G36*
X17494081Y-9052832D02*
G01*
X17586005Y-9144756D01*
X17536508Y-9194254D01*
X17444584Y-9102330D01*
X17494081Y-9052832D01*
X17494081Y-9052832D01*
G37*
D14*
X17380944Y-9257893D03*
D11*
G36*
X17359731Y-9187183D02*
G01*
X17451655Y-9279106D01*
X17402157Y-9328604D01*
X17310233Y-9236680D01*
X17359731Y-9187183D01*
X17359731Y-9187183D01*
G37*
D15*
X15237352Y-8892648D03*
D11*
G36*
X15255312Y-8973470D02*
G01*
X15156530Y-8874688D01*
X15219391Y-8811826D01*
X15318174Y-8910609D01*
X15255312Y-8973470D01*
X15255312Y-8973470D01*
G37*
D15*
X15102648Y-9027352D03*
D11*
G36*
X15120609Y-9108174D02*
G01*
X15021826Y-9009391D01*
X15084688Y-8946530D01*
X15183470Y-9045312D01*
X15120609Y-9108174D01*
X15120609Y-9108174D01*
G37*
D15*
X16127352Y-9802648D03*
D11*
G36*
X16145312Y-9883470D02*
G01*
X16046530Y-9784688D01*
X16109391Y-9721826D01*
X16208174Y-9820609D01*
X16145312Y-9883470D01*
X16145312Y-9883470D01*
G37*
D15*
X15992648Y-9937352D03*
D11*
G36*
X16010609Y-10018174D02*
G01*
X15911826Y-9919391D01*
X15974688Y-9856530D01*
X16073470Y-9955312D01*
X16010609Y-10018174D01*
X16010609Y-10018174D01*
G37*
D15*
X17702648Y-8782648D03*
D11*
G36*
X17783470Y-8764688D02*
G01*
X17684688Y-8863470D01*
X17621826Y-8800609D01*
X17720609Y-8701826D01*
X17783470Y-8764688D01*
X17783470Y-8764688D01*
G37*
D15*
X17837352Y-8917352D03*
D11*
G36*
X17918174Y-8899391D02*
G01*
X17819391Y-8998174D01*
X17756530Y-8935312D01*
X17855312Y-8836530D01*
X17918174Y-8899391D01*
X17918174Y-8899391D01*
G37*
D15*
X17052648Y-9432648D03*
D11*
G36*
X17133470Y-9414688D02*
G01*
X17034688Y-9513470D01*
X16971826Y-9450609D01*
X17070609Y-9351826D01*
X17133470Y-9414688D01*
X17133470Y-9414688D01*
G37*
D15*
X17187352Y-9567352D03*
D11*
G36*
X17268174Y-9549391D02*
G01*
X17169391Y-9648174D01*
X17106530Y-9585312D01*
X17205312Y-9486530D01*
X17268174Y-9549391D01*
X17268174Y-9549391D01*
G37*
D15*
X15012648Y-9192648D03*
D11*
G36*
X15093470Y-9174688D02*
G01*
X14994688Y-9273470D01*
X14931826Y-9210609D01*
X15030609Y-9111826D01*
X15093470Y-9174688D01*
X15093470Y-9174688D01*
G37*
D15*
X15147352Y-9327352D03*
D11*
G36*
X15228174Y-9309391D02*
G01*
X15129391Y-9408174D01*
X15066530Y-9345312D01*
X15165312Y-9246530D01*
X15228174Y-9309391D01*
X15228174Y-9309391D01*
G37*
D15*
X15827352Y-10017352D03*
D11*
G36*
X15746530Y-10035312D02*
G01*
X15845312Y-9936530D01*
X15908174Y-9999391D01*
X15809391Y-10098174D01*
X15746530Y-10035312D01*
X15746530Y-10035312D01*
G37*
D15*
X15692648Y-9882648D03*
D11*
G36*
X15611826Y-9900609D02*
G01*
X15710609Y-9801826D01*
X15773470Y-9864688D01*
X15674688Y-9963470D01*
X15611826Y-9900609D01*
X15611826Y-9900609D01*
G37*
D15*
X17942648Y-9022648D03*
D11*
G36*
X18023470Y-9004688D02*
G01*
X17924688Y-9103470D01*
X17861826Y-9040609D01*
X17960609Y-8941826D01*
X18023470Y-9004688D01*
X18023470Y-9004688D01*
G37*
D15*
X18077352Y-9157352D03*
D11*
G36*
X18158174Y-9139391D02*
G01*
X18059391Y-9238174D01*
X17996530Y-9175312D01*
X18095312Y-9076530D01*
X18158174Y-9139391D01*
X18158174Y-9139391D01*
G37*
D15*
X17292648Y-9672648D03*
D11*
G36*
X17373470Y-9654688D02*
G01*
X17274688Y-9753470D01*
X17211826Y-9690609D01*
X17310609Y-9591826D01*
X17373470Y-9654688D01*
X17373470Y-9654688D01*
G37*
D15*
X17427352Y-9807352D03*
D11*
G36*
X17508174Y-9789391D02*
G01*
X17409391Y-9888174D01*
X17346530Y-9825312D01*
X17445312Y-9726530D01*
X17508174Y-9789391D01*
X17508174Y-9789391D01*
G37*
D15*
X14672648Y-8862648D03*
D11*
G36*
X14753470Y-8844688D02*
G01*
X14654688Y-8943470D01*
X14591826Y-8880609D01*
X14690609Y-8781826D01*
X14753470Y-8844688D01*
X14753470Y-8844688D01*
G37*
D15*
X14807352Y-8997352D03*
D11*
G36*
X14888174Y-8979391D02*
G01*
X14789391Y-9078174D01*
X14726530Y-9015312D01*
X14825312Y-8916530D01*
X14888174Y-8979391D01*
X14888174Y-8979391D01*
G37*
D15*
X14117352Y-8317352D03*
D11*
G36*
X14036530Y-8335312D02*
G01*
X14135312Y-8236530D01*
X14198174Y-8299391D01*
X14099391Y-8398174D01*
X14036530Y-8335312D01*
X14036530Y-8335312D01*
G37*
D15*
X13982648Y-8182648D03*
D11*
G36*
X13901826Y-8200609D02*
G01*
X14000609Y-8101826D01*
X14063470Y-8164688D01*
X13964688Y-8263470D01*
X13901826Y-8200609D01*
X13901826Y-8200609D01*
G37*
D15*
X14842648Y-5942648D03*
D11*
G36*
X14923470Y-5924688D02*
G01*
X14824688Y-6023470D01*
X14761826Y-5960609D01*
X14860609Y-5861826D01*
X14923470Y-5924688D01*
X14923470Y-5924688D01*
G37*
D15*
X14977352Y-6077352D03*
D11*
G36*
X15058174Y-6059391D02*
G01*
X14959391Y-6158174D01*
X14896530Y-6095312D01*
X14995312Y-5996530D01*
X15058174Y-6059391D01*
X15058174Y-6059391D01*
G37*
D15*
X14192648Y-6592648D03*
D11*
G36*
X14273470Y-6574688D02*
G01*
X14174688Y-6673470D01*
X14111826Y-6610609D01*
X14210609Y-6511826D01*
X14273470Y-6574688D01*
X14273470Y-6574688D01*
G37*
D15*
X14327352Y-6727352D03*
D11*
G36*
X14408174Y-6709391D02*
G01*
X14309391Y-6808174D01*
X14246530Y-6745312D01*
X14345312Y-6646530D01*
X14408174Y-6709391D01*
X14408174Y-6709391D01*
G37*
D15*
X14972648Y-8897352D03*
D11*
G36*
X14954688Y-8816530D02*
G01*
X15053470Y-8915312D01*
X14990609Y-8978174D01*
X14891826Y-8879391D01*
X14954688Y-8816530D01*
X14954688Y-8816530D01*
G37*
D15*
X15107352Y-8762648D03*
D11*
G36*
X15089391Y-8681826D02*
G01*
X15188174Y-8780609D01*
X15125312Y-8843470D01*
X15026530Y-8744688D01*
X15089391Y-8681826D01*
X15089391Y-8681826D01*
G37*
D15*
X14062648Y-8007352D03*
D11*
G36*
X14044688Y-7926530D02*
G01*
X14143470Y-8025312D01*
X14080609Y-8088174D01*
X13981826Y-7989391D01*
X14044688Y-7926530D01*
X14044688Y-7926530D01*
G37*
D15*
X14197352Y-7872648D03*
D11*
G36*
X14179391Y-7791826D02*
G01*
X14278174Y-7890609D01*
X14215312Y-7953470D01*
X14116530Y-7854688D01*
X14179391Y-7791826D01*
X14179391Y-7791826D01*
G37*
D15*
X15092648Y-6192648D03*
D11*
G36*
X15173470Y-6174688D02*
G01*
X15074688Y-6273470D01*
X15011826Y-6210609D01*
X15110609Y-6111826D01*
X15173470Y-6174688D01*
X15173470Y-6174688D01*
G37*
D15*
X15227352Y-6327352D03*
D11*
G36*
X15308174Y-6309391D02*
G01*
X15209391Y-6408174D01*
X15146530Y-6345312D01*
X15245312Y-6246530D01*
X15308174Y-6309391D01*
X15308174Y-6309391D01*
G37*
D15*
X14442648Y-6842648D03*
D11*
G36*
X14523470Y-6824688D02*
G01*
X14424688Y-6923470D01*
X14361826Y-6860609D01*
X14460609Y-6761826D01*
X14523470Y-6824688D01*
X14523470Y-6824688D01*
G37*
D15*
X14577352Y-6977352D03*
D11*
G36*
X14658174Y-6959391D02*
G01*
X14559391Y-7058174D01*
X14496530Y-6995312D01*
X14595312Y-6896530D01*
X14658174Y-6959391D01*
X14658174Y-6959391D01*
G37*
D13*
X15673881Y-8703882D03*
D11*
G36*
X15611020Y-8721842D02*
G01*
X15691842Y-8641020D01*
X15736743Y-8685921D01*
X15655921Y-8766743D01*
X15611020Y-8721842D01*
X15611020Y-8721842D01*
G37*
D13*
X15566118Y-8596119D03*
D11*
G36*
X15503257Y-8614079D02*
G01*
X15584079Y-8533257D01*
X15628980Y-8578158D01*
X15548158Y-8658980D01*
X15503257Y-8614079D01*
X15503257Y-8614079D01*
G37*
D13*
X16453881Y-9716119D03*
D11*
G36*
X16471842Y-9778980D02*
G01*
X16391020Y-9698158D01*
X16435921Y-9653257D01*
X16516743Y-9734079D01*
X16471842Y-9778980D01*
X16471842Y-9778980D01*
G37*
D13*
X16346118Y-9823882D03*
D11*
G36*
X16364079Y-9886743D02*
G01*
X16283257Y-9805921D01*
X16328158Y-9761020D01*
X16408980Y-9841842D01*
X16364079Y-9886743D01*
X16364079Y-9886743D01*
G37*
D13*
X17728882Y-8568882D03*
D11*
G36*
X17666020Y-8586842D02*
G01*
X17746842Y-8506020D01*
X17791743Y-8550921D01*
X17710921Y-8631743D01*
X17666020Y-8586842D01*
X17666020Y-8586842D01*
G37*
D13*
X17621119Y-8461119D03*
D11*
G36*
X17558257Y-8479079D02*
G01*
X17639079Y-8398257D01*
X17683980Y-8443158D01*
X17603158Y-8523980D01*
X17558257Y-8479079D01*
X17558257Y-8479079D01*
G37*
D13*
X16726118Y-9346119D03*
D11*
G36*
X16788980Y-9328158D02*
G01*
X16708158Y-9408980D01*
X16663257Y-9364079D01*
X16744079Y-9283257D01*
X16788980Y-9328158D01*
X16788980Y-9328158D01*
G37*
D13*
X16833882Y-9453882D03*
D11*
G36*
X16896743Y-9435921D02*
G01*
X16815921Y-9516743D01*
X16771020Y-9471842D01*
X16851842Y-9391020D01*
X16896743Y-9435921D01*
X16896743Y-9435921D01*
G37*
D13*
X15432016Y-9884531D03*
D11*
G36*
X15414056Y-9821669D02*
G01*
X15494878Y-9902492D01*
X15449977Y-9947393D01*
X15369155Y-9866571D01*
X15414056Y-9821669D01*
X15414056Y-9821669D01*
G37*
D13*
X15539779Y-9776768D03*
D11*
G36*
X15521819Y-9713906D02*
G01*
X15602641Y-9794729D01*
X15557740Y-9839630D01*
X15476918Y-9758808D01*
X15521819Y-9713906D01*
X15521819Y-9713906D01*
G37*
D16*
X16711200Y-8710000D03*
X16558800Y-8710000D03*
D13*
X17226382Y-9138882D03*
D11*
G36*
X17163520Y-9156842D02*
G01*
X17244342Y-9076020D01*
X17289243Y-9120921D01*
X17208421Y-9201743D01*
X17163520Y-9156842D01*
X17163520Y-9156842D01*
G37*
D13*
X17118619Y-9031119D03*
D11*
G36*
X17055757Y-9049079D02*
G01*
X17136579Y-8968257D01*
X17181480Y-9013158D01*
X17100658Y-9093980D01*
X17055757Y-9049079D01*
X17055757Y-9049079D01*
G37*
D13*
X18233619Y-10266119D03*
D11*
G36*
X18296480Y-10248158D02*
G01*
X18215658Y-10328980D01*
X18170757Y-10284079D01*
X18251579Y-10203257D01*
X18296480Y-10248158D01*
X18296480Y-10248158D01*
G37*
D13*
X18341382Y-10373882D03*
D11*
G36*
X18404243Y-10355921D02*
G01*
X18323421Y-10436743D01*
X18278520Y-10391842D01*
X18359342Y-10311020D01*
X18404243Y-10355921D01*
X18404243Y-10355921D01*
G37*
D13*
X18642281Y-10554586D03*
D11*
G36*
X18705143Y-10536625D02*
G01*
X18624321Y-10617448D01*
X18579419Y-10572546D01*
X18660242Y-10491724D01*
X18705143Y-10536625D01*
X18705143Y-10536625D01*
G37*
D13*
X18750044Y-10662349D03*
D11*
G36*
X18812906Y-10644388D02*
G01*
X18732084Y-10725211D01*
X18687182Y-10680309D01*
X18768005Y-10599487D01*
X18812906Y-10644388D01*
X18812906Y-10644388D01*
G37*
D13*
X18808882Y-10863619D03*
D11*
G36*
X18826842Y-10926480D02*
G01*
X18746020Y-10845658D01*
X18790921Y-10800757D01*
X18871743Y-10881579D01*
X18826842Y-10926480D01*
X18826842Y-10926480D01*
G37*
D13*
X18701119Y-10971382D03*
D11*
G36*
X18719079Y-11034243D02*
G01*
X18638257Y-10953421D01*
X18683158Y-10908520D01*
X18763980Y-10989342D01*
X18719079Y-11034243D01*
X18719079Y-11034243D01*
G37*
D13*
X16126118Y-8781119D03*
D11*
G36*
X16188980Y-8763158D02*
G01*
X16108158Y-8843980D01*
X16063257Y-8799079D01*
X16144079Y-8718257D01*
X16188980Y-8763158D01*
X16188980Y-8763158D01*
G37*
D13*
X16233881Y-8888882D03*
D11*
G36*
X16296743Y-8870921D02*
G01*
X16215921Y-8951743D01*
X16171020Y-8906842D01*
X16251842Y-8826020D01*
X16296743Y-8870921D01*
X16296743Y-8870921D01*
G37*
D13*
X17158882Y-8788619D03*
D11*
G36*
X17176842Y-8851480D02*
G01*
X17096020Y-8770658D01*
X17140921Y-8725757D01*
X17221743Y-8806579D01*
X17176842Y-8851480D01*
X17176842Y-8851480D01*
G37*
D13*
X17051119Y-8896382D03*
D11*
G36*
X17069079Y-8959243D02*
G01*
X16988257Y-8878421D01*
X17033158Y-8833520D01*
X17113980Y-8914342D01*
X17069079Y-8959243D01*
X17069079Y-8959243D01*
G37*
D13*
X17643882Y-9281119D03*
D11*
G36*
X17661842Y-9343980D02*
G01*
X17581020Y-9263158D01*
X17625921Y-9218257D01*
X17706743Y-9299079D01*
X17661842Y-9343980D01*
X17661842Y-9343980D01*
G37*
D13*
X17536119Y-9388882D03*
D11*
G36*
X17554079Y-9451743D02*
G01*
X17473257Y-9370921D01*
X17518158Y-9326020D01*
X17598980Y-9406842D01*
X17554079Y-9451743D01*
X17554079Y-9451743D01*
G37*
D13*
X15135032Y-9587546D03*
D11*
G36*
X15117071Y-9524685D02*
G01*
X15197893Y-9605507D01*
X15152992Y-9650408D01*
X15072170Y-9569586D01*
X15117071Y-9524685D01*
X15117071Y-9524685D01*
G37*
D13*
X15242795Y-9479783D03*
D11*
G36*
X15224834Y-9416922D02*
G01*
X15305656Y-9497744D01*
X15260755Y-9542645D01*
X15179933Y-9461823D01*
X15224834Y-9416922D01*
X15224834Y-9416922D01*
G37*
D16*
X16711200Y-8520000D03*
X16558800Y-8520000D03*
D13*
X17398882Y-8963882D03*
D11*
G36*
X17336020Y-8981842D02*
G01*
X17416842Y-8901020D01*
X17461743Y-8945921D01*
X17380921Y-9026743D01*
X17336020Y-8981842D01*
X17336020Y-8981842D01*
G37*
D13*
X17291119Y-8856119D03*
D11*
G36*
X17228257Y-8874079D02*
G01*
X17309079Y-8793257D01*
X17353980Y-8838158D01*
X17273158Y-8918980D01*
X17228257Y-8874079D01*
X17228257Y-8874079D01*
G37*
D13*
X18636907Y-10075450D03*
D11*
G36*
X18574045Y-10093411D02*
G01*
X18654868Y-10012588D01*
X18699769Y-10057490D01*
X18618947Y-10138312D01*
X18574045Y-10093411D01*
X18574045Y-10093411D01*
G37*
D13*
X18529144Y-9967687D03*
D11*
G36*
X18466282Y-9985648D02*
G01*
X18547105Y-9904825D01*
X18592006Y-9949727D01*
X18511184Y-10030549D01*
X18466282Y-9985648D01*
X18466282Y-9985648D01*
G37*
D13*
X18926821Y-10485572D03*
D11*
G36*
X18863959Y-10503533D02*
G01*
X18944781Y-10422710D01*
X18989683Y-10467612D01*
X18908860Y-10548434D01*
X18863959Y-10503533D01*
X18863959Y-10503533D01*
G37*
D13*
X18819058Y-10377809D03*
D11*
G36*
X18756196Y-10395770D02*
G01*
X18837018Y-10314947D01*
X18881920Y-10359849D01*
X18801097Y-10440671D01*
X18756196Y-10395770D01*
X18756196Y-10395770D01*
G37*
D13*
X19233882Y-10438619D03*
D11*
G36*
X19251842Y-10501480D02*
G01*
X19171020Y-10420658D01*
X19215921Y-10375757D01*
X19296743Y-10456579D01*
X19251842Y-10501480D01*
X19251842Y-10501480D01*
G37*
D13*
X19126119Y-10546382D03*
D11*
G36*
X19144079Y-10609243D02*
G01*
X19063257Y-10528421D01*
X19108158Y-10483520D01*
X19188980Y-10564342D01*
X19144079Y-10609243D01*
X19144079Y-10609243D01*
G37*
D13*
X15403881Y-8433882D03*
D11*
G36*
X15341020Y-8451842D02*
G01*
X15421842Y-8371020D01*
X15466743Y-8415921D01*
X15385921Y-8496743D01*
X15341020Y-8451842D01*
X15341020Y-8451842D01*
G37*
D13*
X15296118Y-8326118D03*
D11*
G36*
X15233257Y-8344079D02*
G01*
X15314079Y-8263257D01*
X15358980Y-8308158D01*
X15278158Y-8388980D01*
X15233257Y-8344079D01*
X15233257Y-8344079D01*
G37*
D13*
X14176118Y-7653881D03*
D11*
G36*
X14158158Y-7591020D02*
G01*
X14238980Y-7671842D01*
X14194079Y-7716743D01*
X14113257Y-7635921D01*
X14158158Y-7591020D01*
X14158158Y-7591020D01*
G37*
D13*
X14283881Y-7546118D03*
D11*
G36*
X14265921Y-7483257D02*
G01*
X14346743Y-7564079D01*
X14301842Y-7608980D01*
X14221020Y-7528158D01*
X14265921Y-7483257D01*
X14265921Y-7483257D01*
G37*
D13*
X15553881Y-6413881D03*
D11*
G36*
X15491020Y-6431842D02*
G01*
X15571842Y-6351020D01*
X15616743Y-6395921D01*
X15535921Y-6476743D01*
X15491020Y-6431842D01*
X15491020Y-6431842D01*
G37*
D13*
X15446118Y-6306118D03*
D11*
G36*
X15383257Y-6324079D02*
G01*
X15464079Y-6243257D01*
X15508980Y-6288158D01*
X15428158Y-6368980D01*
X15383257Y-6324079D01*
X15383257Y-6324079D01*
G37*
D13*
X14556118Y-7196118D03*
D11*
G36*
X14618980Y-7178158D02*
G01*
X14538158Y-7258980D01*
X14493257Y-7214079D01*
X14574079Y-7133257D01*
X14618980Y-7178158D01*
X14618980Y-7178158D01*
G37*
D13*
X14663881Y-7303881D03*
D11*
G36*
X14726743Y-7285921D02*
G01*
X14645921Y-7366743D01*
X14601020Y-7321842D01*
X14681842Y-7241020D01*
X14726743Y-7285921D01*
X14726743Y-7285921D01*
G37*
D13*
X14411811Y-8868874D03*
D11*
G36*
X14393851Y-8806012D02*
G01*
X14474673Y-8886835D01*
X14429772Y-8931736D01*
X14348949Y-8850914D01*
X14393851Y-8806012D01*
X14393851Y-8806012D01*
G37*
D13*
X14519574Y-8761111D03*
D11*
G36*
X14501614Y-8698249D02*
G01*
X14582436Y-8779072D01*
X14537535Y-8823973D01*
X14456712Y-8743151D01*
X14501614Y-8698249D01*
X14501614Y-8698249D01*
G37*
D17*
X15530000Y-7283800D03*
X15530000Y-7436200D03*
D13*
X15023459Y-6593829D03*
D11*
G36*
X15086320Y-6575868D02*
G01*
X15005498Y-6656691D01*
X14960597Y-6611789D01*
X15041419Y-6530967D01*
X15086320Y-6575868D01*
X15086320Y-6575868D01*
G37*
D13*
X15131222Y-6701592D03*
D11*
G36*
X15194083Y-6683631D02*
G01*
X15113261Y-6764454D01*
X15068360Y-6719552D01*
X15149182Y-6638730D01*
X15194083Y-6683631D01*
X15194083Y-6683631D01*
G37*
D13*
X14023881Y-5471382D03*
D11*
G36*
X13961020Y-5489342D02*
G01*
X14041842Y-5408520D01*
X14086743Y-5453421D01*
X14005921Y-5534243D01*
X13961020Y-5489342D01*
X13961020Y-5489342D01*
G37*
D13*
X13916118Y-5363619D03*
D11*
G36*
X13853257Y-5381579D02*
G01*
X13934079Y-5300757D01*
X13978980Y-5345658D01*
X13898158Y-5426480D01*
X13853257Y-5381579D01*
X13853257Y-5381579D01*
G37*
D13*
X13611381Y-5186382D03*
D11*
G36*
X13548520Y-5204342D02*
G01*
X13629342Y-5123520D01*
X13674243Y-5168421D01*
X13593421Y-5249243D01*
X13548520Y-5204342D01*
X13548520Y-5204342D01*
G37*
D13*
X13503618Y-5078619D03*
D11*
G36*
X13440757Y-5096579D02*
G01*
X13521579Y-5015757D01*
X13566480Y-5060658D01*
X13485658Y-5141480D01*
X13440757Y-5096579D01*
X13440757Y-5096579D01*
G37*
D13*
X13441118Y-4878882D03*
D11*
G36*
X13423158Y-4816020D02*
G01*
X13503980Y-4896842D01*
X13459079Y-4941743D01*
X13378257Y-4860921D01*
X13423158Y-4816020D01*
X13423158Y-4816020D01*
G37*
D13*
X13548881Y-4771119D03*
D11*
G36*
X13530921Y-4708257D02*
G01*
X13611743Y-4789079D01*
X13566842Y-4833980D01*
X13486020Y-4753158D01*
X13530921Y-4708257D01*
X13530921Y-4708257D01*
G37*
D13*
X15106118Y-7771118D03*
D11*
G36*
X15168980Y-7753158D02*
G01*
X15088158Y-7833980D01*
X15043257Y-7789079D01*
X15124079Y-7708257D01*
X15168980Y-7753158D01*
X15168980Y-7753158D01*
G37*
D13*
X15213881Y-7878881D03*
D11*
G36*
X15276743Y-7860921D02*
G01*
X15195921Y-7941743D01*
X15151020Y-7896842D01*
X15231842Y-7816020D01*
X15276743Y-7860921D01*
X15276743Y-7860921D01*
G37*
D13*
X15090634Y-6945544D03*
D11*
G36*
X15072673Y-6882682D02*
G01*
X15153496Y-6963504D01*
X15108594Y-7008405D01*
X15027772Y-6927583D01*
X15072673Y-6882682D01*
X15072673Y-6882682D01*
G37*
D13*
X15198397Y-6837781D03*
D11*
G36*
X15180436Y-6774919D02*
G01*
X15261259Y-6855741D01*
X15216357Y-6900642D01*
X15135535Y-6819820D01*
X15180436Y-6774919D01*
X15180436Y-6774919D01*
G37*
D13*
X14611118Y-6466381D03*
D11*
G36*
X14593158Y-6403520D02*
G01*
X14673980Y-6484342D01*
X14629079Y-6529243D01*
X14548257Y-6448421D01*
X14593158Y-6403520D01*
X14593158Y-6403520D01*
G37*
D13*
X14718881Y-6358618D03*
D11*
G36*
X14700921Y-6295757D02*
G01*
X14781743Y-6376579D01*
X14736842Y-6421480D01*
X14656020Y-6340658D01*
X14700921Y-6295757D01*
X14700921Y-6295757D01*
G37*
D13*
X14114826Y-8571889D03*
D11*
G36*
X14096866Y-8509028D02*
G01*
X14177688Y-8589850D01*
X14132787Y-8634751D01*
X14051965Y-8553929D01*
X14096866Y-8509028D01*
X14096866Y-8509028D01*
G37*
D13*
X14222589Y-8464126D03*
D11*
G36*
X14204629Y-8401265D02*
G01*
X14285451Y-8482087D01*
X14240550Y-8526988D01*
X14159728Y-8446166D01*
X14204629Y-8401265D01*
X14204629Y-8401265D01*
G37*
D17*
X15282401Y-7285688D03*
X15282401Y-7438088D03*
D13*
X14846682Y-6770605D03*
D11*
G36*
X14909544Y-6752645D02*
G01*
X14828721Y-6833467D01*
X14783820Y-6788566D01*
X14864642Y-6707744D01*
X14909544Y-6752645D01*
X14909544Y-6752645D01*
G37*
D13*
X14954445Y-6878368D03*
D11*
G36*
X15017307Y-6860408D02*
G01*
X14936484Y-6941230D01*
X14891583Y-6896329D01*
X14972405Y-6815507D01*
X15017307Y-6860408D01*
X15017307Y-6860408D01*
G37*
D13*
X13616118Y-5663618D03*
D11*
G36*
X13678980Y-5645658D02*
G01*
X13598158Y-5726480D01*
X13553257Y-5681579D01*
X13634079Y-5600757D01*
X13678980Y-5645658D01*
X13678980Y-5645658D01*
G37*
D13*
X13723881Y-5771381D03*
D11*
G36*
X13786743Y-5753421D02*
G01*
X13705921Y-5834243D01*
X13661020Y-5789342D01*
X13741842Y-5708520D01*
X13786743Y-5753421D01*
X13786743Y-5753421D01*
G37*
D13*
X13326118Y-5256119D03*
D11*
G36*
X13388980Y-5238158D02*
G01*
X13308158Y-5318980D01*
X13263257Y-5274079D01*
X13344079Y-5193257D01*
X13388980Y-5238158D01*
X13388980Y-5238158D01*
G37*
D13*
X13433881Y-5363882D03*
D11*
G36*
X13496743Y-5345921D02*
G01*
X13415921Y-5426743D01*
X13371020Y-5381842D01*
X13451842Y-5301020D01*
X13496743Y-5345921D01*
X13496743Y-5345921D01*
G37*
D13*
X13016118Y-5301382D03*
D11*
G36*
X12998158Y-5238520D02*
G01*
X13078980Y-5319342D01*
X13034079Y-5364243D01*
X12953257Y-5283421D01*
X12998158Y-5238520D01*
X12998158Y-5238520D01*
G37*
D13*
X13123881Y-5193619D03*
D11*
G36*
X13105921Y-5130757D02*
G01*
X13186743Y-5211579D01*
X13141842Y-5256480D01*
X13061020Y-5175658D01*
X13105921Y-5130757D01*
X13105921Y-5130757D01*
G37*
D13*
X15336118Y-8793882D03*
D11*
G36*
X15318158Y-8731020D02*
G01*
X15398980Y-8811842D01*
X15354079Y-8856743D01*
X15273257Y-8775921D01*
X15318158Y-8731020D01*
X15318158Y-8731020D01*
G37*
D13*
X15443881Y-8686119D03*
D11*
G36*
X15425921Y-8623257D02*
G01*
X15506743Y-8704079D01*
X15461842Y-8748980D01*
X15381020Y-8668158D01*
X15425921Y-8623257D01*
X15425921Y-8623257D01*
G37*
D13*
X16333881Y-9596119D03*
D11*
G36*
X16351842Y-9658980D02*
G01*
X16271020Y-9578158D01*
X16315921Y-9533257D01*
X16396743Y-9614079D01*
X16351842Y-9658980D01*
X16351842Y-9658980D01*
G37*
D13*
X16226118Y-9703882D03*
D11*
G36*
X16244079Y-9766743D02*
G01*
X16163257Y-9685921D01*
X16208158Y-9641020D01*
X16288980Y-9721842D01*
X16244079Y-9766743D01*
X16244079Y-9766743D01*
G37*
D13*
X17608882Y-8688882D03*
D11*
G36*
X17546020Y-8706842D02*
G01*
X17626842Y-8626020D01*
X17671743Y-8670921D01*
X17590921Y-8751743D01*
X17546020Y-8706842D01*
X17546020Y-8706842D01*
G37*
D13*
X17501119Y-8581119D03*
D11*
G36*
X17438257Y-8599079D02*
G01*
X17519079Y-8518257D01*
X17563980Y-8563158D01*
X17483158Y-8643980D01*
X17438257Y-8599079D01*
X17438257Y-8599079D01*
G37*
D13*
X16846119Y-9226119D03*
D11*
G36*
X16908980Y-9208158D02*
G01*
X16828158Y-9288980D01*
X16783257Y-9244079D01*
X16864079Y-9163257D01*
X16908980Y-9208158D01*
X16908980Y-9208158D01*
G37*
D13*
X16953882Y-9333882D03*
D11*
G36*
X17016743Y-9315921D02*
G01*
X16935921Y-9396743D01*
X16891020Y-9351842D01*
X16971842Y-9271020D01*
X17016743Y-9315921D01*
X17016743Y-9315921D01*
G37*
D13*
X15313881Y-8556119D03*
D11*
G36*
X15331842Y-8618980D02*
G01*
X15251020Y-8538158D01*
X15295921Y-8493257D01*
X15376743Y-8574079D01*
X15331842Y-8618980D01*
X15331842Y-8618980D01*
G37*
D13*
X15206118Y-8663882D03*
D11*
G36*
X15224079Y-8726743D02*
G01*
X15143257Y-8645921D01*
X15188158Y-8601020D01*
X15268980Y-8681842D01*
X15224079Y-8726743D01*
X15224079Y-8726743D01*
G37*
D13*
X14296118Y-7773881D03*
D11*
G36*
X14278158Y-7711020D02*
G01*
X14358980Y-7791842D01*
X14314079Y-7836743D01*
X14233257Y-7755921D01*
X14278158Y-7711020D01*
X14278158Y-7711020D01*
G37*
D13*
X14403881Y-7666118D03*
D11*
G36*
X14385921Y-7603257D02*
G01*
X14466743Y-7684079D01*
X14421842Y-7728980D01*
X14341020Y-7648158D01*
X14385921Y-7603257D01*
X14385921Y-7603257D01*
G37*
D13*
X15433881Y-6533881D03*
D11*
G36*
X15371020Y-6551842D02*
G01*
X15451842Y-6471020D01*
X15496743Y-6515921D01*
X15415921Y-6596743D01*
X15371020Y-6551842D01*
X15371020Y-6551842D01*
G37*
D13*
X15326118Y-6426118D03*
D11*
G36*
X15263257Y-6444079D02*
G01*
X15344079Y-6363257D01*
X15388980Y-6408158D01*
X15308158Y-6488980D01*
X15263257Y-6444079D01*
X15263257Y-6444079D01*
G37*
D13*
X14676118Y-7076118D03*
D11*
G36*
X14738980Y-7058158D02*
G01*
X14658158Y-7138980D01*
X14613257Y-7094079D01*
X14694079Y-7013257D01*
X14738980Y-7058158D01*
X14738980Y-7058158D01*
G37*
D13*
X14783881Y-7183881D03*
D11*
G36*
X14846743Y-7165921D02*
G01*
X14765921Y-7246743D01*
X14721020Y-7201842D01*
X14801842Y-7121020D01*
X14846743Y-7165921D01*
X14846743Y-7165921D01*
G37*
D15*
X16332352Y-9012648D03*
D11*
G36*
X16350312Y-9093470D02*
G01*
X16251530Y-8994688D01*
X16314391Y-8931826D01*
X16413174Y-9030609D01*
X16350312Y-9093470D01*
X16350312Y-9093470D01*
G37*
D15*
X16197648Y-9147352D03*
D11*
G36*
X16215609Y-9228174D02*
G01*
X16116826Y-9129391D01*
X16179688Y-9066530D01*
X16278470Y-9165312D01*
X16215609Y-9228174D01*
X16215609Y-9228174D01*
G37*
D15*
X17567352Y-9637352D03*
D11*
G36*
X17486530Y-9655312D02*
G01*
X17585312Y-9556530D01*
X17648174Y-9619391D01*
X17549391Y-9718174D01*
X17486530Y-9655312D01*
X17486530Y-9655312D01*
G37*
D15*
X17432648Y-9502648D03*
D11*
G36*
X17351826Y-9520609D02*
G01*
X17450609Y-9421826D01*
X17513470Y-9484688D01*
X17414688Y-9583470D01*
X17351826Y-9520609D01*
X17351826Y-9520609D01*
G37*
D14*
X18682021Y-10283198D03*
D11*
G36*
X18660807Y-10212487D02*
G01*
X18752731Y-10304411D01*
X18703234Y-10353909D01*
X18611310Y-10261985D01*
X18660807Y-10212487D01*
X18660807Y-10212487D01*
G37*
D14*
X18547670Y-10417548D03*
D11*
G36*
X18526457Y-10346838D02*
G01*
X18618381Y-10438762D01*
X18568884Y-10488259D01*
X18476960Y-10396335D01*
X18526457Y-10346838D01*
X18526457Y-10346838D01*
G37*
D14*
X19021432Y-10629680D03*
D11*
G36*
X19000219Y-10558970D02*
G01*
X19092143Y-10650894D01*
X19042645Y-10700391D01*
X18950721Y-10608467D01*
X19000219Y-10558970D01*
X19000219Y-10558970D01*
G37*
D14*
X18887082Y-10764031D03*
D11*
G36*
X18865868Y-10693320D02*
G01*
X18957792Y-10785244D01*
X18908295Y-10834741D01*
X18816371Y-10742817D01*
X18865868Y-10693320D01*
X18865868Y-10693320D01*
G37*
D15*
X15867648Y-8817352D03*
D11*
G36*
X15849688Y-8736530D02*
G01*
X15948470Y-8835312D01*
X15885609Y-8898174D01*
X15786826Y-8799391D01*
X15849688Y-8736530D01*
X15849688Y-8736530D01*
G37*
D15*
X16002352Y-8682648D03*
D11*
G36*
X15984391Y-8601826D02*
G01*
X16083174Y-8700609D01*
X16020312Y-8763470D01*
X15921530Y-8664688D01*
X15984391Y-8601826D01*
X15984391Y-8601826D01*
G37*
D15*
X17765148Y-9170148D03*
D11*
G36*
X17845970Y-9152188D02*
G01*
X17747188Y-9250970D01*
X17684326Y-9188109D01*
X17783109Y-9089326D01*
X17845970Y-9152188D01*
X17845970Y-9152188D01*
G37*
D15*
X17899852Y-9304852D03*
D11*
G36*
X17980674Y-9286891D02*
G01*
X17881891Y-9385674D01*
X17819030Y-9322812D01*
X17917812Y-9224030D01*
X17980674Y-9286891D01*
X17980674Y-9286891D01*
G37*
D15*
X15314398Y-8008714D03*
D11*
G36*
X15332358Y-8089536D02*
G01*
X15233575Y-7990754D01*
X15296437Y-7927892D01*
X15395220Y-8026675D01*
X15332358Y-8089536D01*
X15332358Y-8089536D01*
G37*
D15*
X15179694Y-8143418D03*
D11*
G36*
X15197654Y-8224240D02*
G01*
X15098872Y-8125457D01*
X15161733Y-8062596D01*
X15260516Y-8161378D01*
X15197654Y-8224240D01*
X15197654Y-8224240D01*
G37*
D15*
X14684719Y-6099526D03*
D11*
G36*
X14765541Y-6081565D02*
G01*
X14666759Y-6180348D01*
X14603897Y-6117486D01*
X14702680Y-6018703D01*
X14765541Y-6081565D01*
X14765541Y-6081565D01*
G37*
D15*
X14819423Y-6234230D03*
D11*
G36*
X14900245Y-6216269D02*
G01*
X14801462Y-6315052D01*
X14738601Y-6252190D01*
X14837383Y-6153407D01*
X14900245Y-6216269D01*
X14900245Y-6216269D01*
G37*
D14*
X15234017Y-7615334D03*
D11*
G36*
X15163306Y-7636547D02*
G01*
X15255230Y-7544623D01*
X15304727Y-7594120D01*
X15212803Y-7686044D01*
X15163306Y-7636547D01*
X15163306Y-7636547D01*
G37*
D14*
X15368367Y-7749684D03*
D11*
G36*
X15297656Y-7770897D02*
G01*
X15389580Y-7678973D01*
X15439078Y-7728471D01*
X15347154Y-7820395D01*
X15297656Y-7770897D01*
X15297656Y-7770897D01*
G37*
D14*
X15211690Y-7093187D03*
D11*
G36*
X15232904Y-7163898D02*
G01*
X15140980Y-7071974D01*
X15190477Y-7022477D01*
X15282401Y-7114401D01*
X15232904Y-7163898D01*
X15232904Y-7163898D01*
G37*
D14*
X15346041Y-6958837D03*
D11*
G36*
X15367254Y-7029548D02*
G01*
X15275330Y-6937624D01*
X15324827Y-6888127D01*
X15416751Y-6980050D01*
X15367254Y-7029548D01*
X15367254Y-7029548D01*
G37*
D14*
X14741464Y-6630033D03*
D11*
G36*
X14762678Y-6700743D02*
G01*
X14670754Y-6608819D01*
X14720251Y-6559322D01*
X14812175Y-6651246D01*
X14762678Y-6700743D01*
X14762678Y-6700743D01*
G37*
D14*
X14875815Y-6495682D03*
D11*
G36*
X14897028Y-6566393D02*
G01*
X14805104Y-6474469D01*
X14854601Y-6424972D01*
X14946525Y-6516896D01*
X14897028Y-6566393D01*
X14897028Y-6566393D01*
G37*
D14*
X13575325Y-5462175D03*
D11*
G36*
X13596538Y-5532886D02*
G01*
X13504614Y-5440962D01*
X13554112Y-5391464D01*
X13646036Y-5483388D01*
X13596538Y-5532886D01*
X13596538Y-5532886D01*
G37*
D14*
X13709675Y-5327825D03*
D11*
G36*
X13730888Y-5398536D02*
G01*
X13638964Y-5306612D01*
X13688462Y-5257114D01*
X13780386Y-5349038D01*
X13730888Y-5398536D01*
X13730888Y-5398536D01*
G37*
D14*
X13230325Y-5117175D03*
D11*
G36*
X13251538Y-5187886D02*
G01*
X13159614Y-5095962D01*
X13209112Y-5046464D01*
X13301036Y-5138388D01*
X13251538Y-5187886D01*
X13251538Y-5187886D01*
G37*
D14*
X13364675Y-4982825D03*
D11*
G36*
X13385888Y-5053536D02*
G01*
X13293964Y-4961612D01*
X13343462Y-4912114D01*
X13435386Y-5004038D01*
X13385888Y-5053536D01*
X13385888Y-5053536D01*
G37*
D15*
X14842167Y-7805891D03*
D11*
G36*
X14824206Y-7725069D02*
G01*
X14922989Y-7823851D01*
X14860127Y-7886713D01*
X14761345Y-7787930D01*
X14824206Y-7725069D01*
X14824206Y-7725069D01*
G37*
D15*
X14976871Y-7671187D03*
D11*
G36*
X14958910Y-7590365D02*
G01*
X15057693Y-7689148D01*
X14994831Y-7752009D01*
X14896048Y-7653227D01*
X14958910Y-7590365D01*
X14958910Y-7590365D01*
G37*
D15*
X14487083Y-6566570D03*
D11*
G36*
X14406260Y-6584530D02*
G01*
X14505043Y-6485747D01*
X14567905Y-6548609D01*
X14469122Y-6647392D01*
X14406260Y-6584530D01*
X14406260Y-6584530D01*
G37*
D15*
X14352379Y-6431866D03*
D11*
G36*
X14271557Y-6449826D02*
G01*
X14370339Y-6351044D01*
X14433201Y-6413905D01*
X14334418Y-6512688D01*
X14271557Y-6449826D01*
X14271557Y-6449826D01*
G37*
D13*
X13963910Y-10907838D03*
D11*
G36*
X13981870Y-10970700D02*
G01*
X13901048Y-10889878D01*
X13945949Y-10844976D01*
X14026771Y-10925799D01*
X13981870Y-10970700D01*
X13981870Y-10970700D01*
G37*
D13*
X13856147Y-11015601D03*
D11*
G36*
X13874107Y-11078463D02*
G01*
X13793285Y-10997641D01*
X13838186Y-10952739D01*
X13919008Y-11033562D01*
X13874107Y-11078463D01*
X13874107Y-11078463D01*
G37*
G36*
X13119811Y-11028091D02*
G01*
X13121607Y-11028357D01*
X13123368Y-11028798D01*
X13125077Y-11029410D01*
X13126719Y-11030186D01*
X13128276Y-11031120D01*
X13129734Y-11032201D01*
X13131079Y-11033420D01*
X13235731Y-11138072D01*
X13236950Y-11139417D01*
X13238032Y-11140876D01*
X13238965Y-11142433D01*
X13239741Y-11144074D01*
X13240353Y-11145783D01*
X13240794Y-11147544D01*
X13241060Y-11149340D01*
X13241150Y-11151154D01*
X13241060Y-11152967D01*
X13240794Y-11154763D01*
X13240353Y-11156524D01*
X13239741Y-11158233D01*
X13238965Y-11159874D01*
X13238032Y-11161432D01*
X13236950Y-11162890D01*
X13235731Y-11164235D01*
X13075218Y-11324748D01*
X13073873Y-11325967D01*
X13072414Y-11327049D01*
X13070857Y-11327982D01*
X13069216Y-11328758D01*
X13067507Y-11329370D01*
X13065746Y-11329811D01*
X13063950Y-11330078D01*
X13062136Y-11330167D01*
X13060323Y-11330078D01*
X13058527Y-11329811D01*
X13056766Y-11329370D01*
X13055057Y-11328758D01*
X13053416Y-11327982D01*
X13051858Y-11327049D01*
X13050400Y-11325967D01*
X13049055Y-11324748D01*
X12944403Y-11220096D01*
X12943184Y-11218751D01*
X12942102Y-11217293D01*
X12941169Y-11215736D01*
X12940393Y-11214094D01*
X12939781Y-11212385D01*
X12939340Y-11210624D01*
X12939074Y-11208828D01*
X12938985Y-11207015D01*
X12939074Y-11205202D01*
X12939340Y-11203406D01*
X12939781Y-11201645D01*
X12940393Y-11199935D01*
X12941169Y-11198294D01*
X12942102Y-11196737D01*
X12943184Y-11195279D01*
X12944403Y-11193933D01*
X13104916Y-11033420D01*
X13106261Y-11032201D01*
X13107720Y-11031120D01*
X13109277Y-11030186D01*
X13110918Y-11029410D01*
X13112627Y-11028798D01*
X13114389Y-11028357D01*
X13116184Y-11028091D01*
X13117998Y-11028002D01*
X13119811Y-11028091D01*
X13119811Y-11028091D01*
G37*
D18*
X13090067Y-11179084D03*
D11*
G36*
X12850403Y-10758683D02*
G01*
X12852199Y-10758950D01*
X12853960Y-10759391D01*
X12855670Y-10760002D01*
X12857311Y-10760779D01*
X12858868Y-10761712D01*
X12860326Y-10762793D01*
X12861672Y-10764013D01*
X12966323Y-10868664D01*
X12967543Y-10870010D01*
X12968624Y-10871468D01*
X12969557Y-10873025D01*
X12970334Y-10874666D01*
X12970945Y-10876376D01*
X12971386Y-10878137D01*
X12971653Y-10879933D01*
X12971742Y-10881746D01*
X12971653Y-10883559D01*
X12971386Y-10885355D01*
X12970945Y-10887116D01*
X12970334Y-10888826D01*
X12969557Y-10890467D01*
X12968624Y-10892024D01*
X12967543Y-10893482D01*
X12966323Y-10894827D01*
X12805810Y-11055341D01*
X12804465Y-11056560D01*
X12803007Y-11057641D01*
X12801450Y-11058575D01*
X12799808Y-11059351D01*
X12798099Y-11059963D01*
X12796338Y-11060404D01*
X12794542Y-11060670D01*
X12792729Y-11060759D01*
X12790915Y-11060670D01*
X12789120Y-11060404D01*
X12787358Y-11059963D01*
X12785649Y-11059351D01*
X12784008Y-11058575D01*
X12782451Y-11057641D01*
X12780992Y-11056560D01*
X12779647Y-11055341D01*
X12674995Y-10950689D01*
X12673776Y-10949344D01*
X12672695Y-10947885D01*
X12671761Y-10946328D01*
X12670985Y-10944687D01*
X12670374Y-10942978D01*
X12669932Y-10941217D01*
X12669666Y-10939421D01*
X12669577Y-10937607D01*
X12669666Y-10935794D01*
X12669932Y-10933998D01*
X12670374Y-10932237D01*
X12670985Y-10930528D01*
X12671761Y-10928887D01*
X12672695Y-10927329D01*
X12673776Y-10925871D01*
X12674995Y-10924526D01*
X12835509Y-10764013D01*
X12836854Y-10762793D01*
X12838312Y-10761712D01*
X12839869Y-10760779D01*
X12841511Y-10760002D01*
X12843220Y-10759391D01*
X12844981Y-10758950D01*
X12846777Y-10758683D01*
X12848590Y-10758594D01*
X12850403Y-10758683D01*
X12850403Y-10758683D01*
G37*
D18*
X12820659Y-10909677D03*
D19*
X12665449Y-10860533D03*
D11*
G36*
X12697269Y-10871139D02*
G01*
X12676056Y-10892352D01*
X12633630Y-10849926D01*
X12654843Y-10828713D01*
X12697269Y-10871139D01*
X12697269Y-10871139D01*
G37*
D19*
X12771515Y-10754467D03*
D11*
G36*
X12803335Y-10765073D02*
G01*
X12782122Y-10786286D01*
X12739696Y-10743860D01*
X12760909Y-10722647D01*
X12803335Y-10765073D01*
X12803335Y-10765073D01*
G37*
D19*
X12700805Y-10825177D03*
D11*
G36*
X12732625Y-10835784D02*
G01*
X12711411Y-10856997D01*
X12668985Y-10814571D01*
X12690198Y-10793358D01*
X12732625Y-10835784D01*
X12732625Y-10835784D01*
G37*
D19*
X12736160Y-10789822D03*
D11*
G36*
X12767980Y-10800429D02*
G01*
X12746767Y-10821642D01*
X12704340Y-10779215D01*
X12725554Y-10758002D01*
X12767980Y-10800429D01*
X12767980Y-10800429D01*
G37*
D19*
X13139211Y-11334294D03*
D11*
G36*
X13171031Y-11344901D02*
G01*
X13149818Y-11366114D01*
X13107391Y-11323688D01*
X13128604Y-11302474D01*
X13171031Y-11344901D01*
X13171031Y-11344901D01*
G37*
D19*
X13245277Y-11228228D03*
D11*
G36*
X13277097Y-11238835D02*
G01*
X13255884Y-11260048D01*
X13213457Y-11217622D01*
X13234670Y-11196408D01*
X13277097Y-11238835D01*
X13277097Y-11238835D01*
G37*
D19*
X13174566Y-11298939D03*
D11*
G36*
X13206386Y-11309545D02*
G01*
X13185173Y-11330759D01*
X13142747Y-11288332D01*
X13163960Y-11267119D01*
X13206386Y-11309545D01*
X13206386Y-11309545D01*
G37*
D19*
X13209922Y-11263583D03*
D11*
G36*
X13241741Y-11274190D02*
G01*
X13220528Y-11295403D01*
X13178102Y-11252977D01*
X13199315Y-11231764D01*
X13241741Y-11274190D01*
X13241741Y-11274190D01*
G37*
D19*
X13036681Y-11387327D03*
D11*
G36*
X13047287Y-11355507D02*
G01*
X13068500Y-11376721D01*
X13026074Y-11419147D01*
X13004861Y-11397934D01*
X13047287Y-11355507D01*
X13047287Y-11355507D01*
G37*
D19*
X13001325Y-11351972D03*
D11*
G36*
X13011932Y-11320152D02*
G01*
X13033145Y-11341365D01*
X12990719Y-11383792D01*
X12969505Y-11362578D01*
X13011932Y-11320152D01*
X13011932Y-11320152D01*
G37*
D19*
X12965970Y-11316616D03*
D11*
G36*
X12976576Y-11284797D02*
G01*
X12997790Y-11306010D01*
X12955363Y-11348436D01*
X12934150Y-11327223D01*
X12976576Y-11284797D01*
X12976576Y-11284797D01*
G37*
D19*
X12930615Y-11281261D03*
D11*
G36*
X12941221Y-11249441D02*
G01*
X12962434Y-11270655D01*
X12920008Y-11313081D01*
X12898795Y-11291868D01*
X12941221Y-11249441D01*
X12941221Y-11249441D01*
G37*
D19*
X12895259Y-11245906D03*
D11*
G36*
X12905866Y-11214086D02*
G01*
X12927079Y-11235299D01*
X12884653Y-11277726D01*
X12863439Y-11256512D01*
X12905866Y-11214086D01*
X12905866Y-11214086D01*
G37*
D19*
X12612416Y-10963063D03*
D11*
G36*
X12623023Y-10931243D02*
G01*
X12644236Y-10952457D01*
X12601810Y-10994883D01*
X12580597Y-10973670D01*
X12623023Y-10931243D01*
X12623023Y-10931243D01*
G37*
D19*
X12647772Y-10998419D03*
D11*
G36*
X12658378Y-10966599D02*
G01*
X12679592Y-10987812D01*
X12637165Y-11030238D01*
X12615952Y-11009025D01*
X12658378Y-10966599D01*
X12658378Y-10966599D01*
G37*
D19*
X12683127Y-11033774D03*
D11*
G36*
X12693734Y-11001954D02*
G01*
X12714947Y-11023167D01*
X12672521Y-11065594D01*
X12651307Y-11044380D01*
X12693734Y-11001954D01*
X12693734Y-11001954D01*
G37*
D19*
X12718482Y-11069129D03*
D11*
G36*
X12729089Y-11037309D02*
G01*
X12750302Y-11058523D01*
X12707876Y-11100949D01*
X12686663Y-11079736D01*
X12729089Y-11037309D01*
X12729089Y-11037309D01*
G37*
D19*
X12753838Y-11104485D03*
D11*
G36*
X12764444Y-11072665D02*
G01*
X12785658Y-11093878D01*
X12743231Y-11136304D01*
X12722018Y-11115091D01*
X12764444Y-11072665D01*
X12764444Y-11072665D01*
G37*
D19*
X13298310Y-11125698D03*
D11*
G36*
X13308917Y-11093878D02*
G01*
X13330130Y-11115091D01*
X13287703Y-11157518D01*
X13266490Y-11136304D01*
X13308917Y-11093878D01*
X13308917Y-11093878D01*
G37*
D19*
X13262955Y-11090342D03*
D11*
G36*
X13273561Y-11058523D02*
G01*
X13294774Y-11079736D01*
X13252348Y-11122162D01*
X13231135Y-11100949D01*
X13273561Y-11058523D01*
X13273561Y-11058523D01*
G37*
D19*
X13227599Y-11054987D03*
D11*
G36*
X13238206Y-11023167D02*
G01*
X13259419Y-11044380D01*
X13216993Y-11086807D01*
X13195780Y-11065594D01*
X13238206Y-11023167D01*
X13238206Y-11023167D01*
G37*
D19*
X13192244Y-11019632D03*
D11*
G36*
X13202851Y-10987812D02*
G01*
X13224064Y-11009025D01*
X13181637Y-11051452D01*
X13160424Y-11030238D01*
X13202851Y-10987812D01*
X13202851Y-10987812D01*
G37*
D19*
X13156889Y-10984276D03*
D11*
G36*
X13167495Y-10952457D02*
G01*
X13188708Y-10973670D01*
X13146282Y-11016096D01*
X13125069Y-10994883D01*
X13167495Y-10952457D01*
X13167495Y-10952457D01*
G37*
D19*
X12874046Y-10701434D03*
D11*
G36*
X12884653Y-10669614D02*
G01*
X12905866Y-10690827D01*
X12863439Y-10733253D01*
X12842226Y-10712040D01*
X12884653Y-10669614D01*
X12884653Y-10669614D01*
G37*
D19*
X12909401Y-10736789D03*
D11*
G36*
X12920008Y-10704969D02*
G01*
X12941221Y-10726182D01*
X12898795Y-10768609D01*
X12877582Y-10747396D01*
X12920008Y-10704969D01*
X12920008Y-10704969D01*
G37*
D19*
X12944757Y-10772144D03*
D11*
G36*
X12955363Y-10740325D02*
G01*
X12976576Y-10761538D01*
X12934150Y-10803964D01*
X12912937Y-10782751D01*
X12955363Y-10740325D01*
X12955363Y-10740325D01*
G37*
D19*
X12980112Y-10807500D03*
D11*
G36*
X12990719Y-10775680D02*
G01*
X13011932Y-10796893D01*
X12969505Y-10839319D01*
X12948292Y-10818106D01*
X12990719Y-10775680D01*
X12990719Y-10775680D01*
G37*
D19*
X12813942Y-11115091D03*
D11*
G36*
X12849297Y-11058523D02*
G01*
X12870510Y-11079736D01*
X12778587Y-11171660D01*
X12757373Y-11150446D01*
X12849297Y-11058523D01*
X12849297Y-11058523D01*
G37*
D19*
X12884653Y-11185802D03*
D11*
G36*
X12920008Y-11129233D02*
G01*
X12941221Y-11150447D01*
X12849297Y-11242370D01*
X12828084Y-11221157D01*
X12920008Y-11129233D01*
X12920008Y-11129233D01*
G37*
D19*
X12849297Y-11150446D03*
D11*
G36*
X12884653Y-11093878D02*
G01*
X12905866Y-11115091D01*
X12813942Y-11207015D01*
X12792729Y-11185802D01*
X12884653Y-11093878D01*
X12884653Y-11093878D01*
G37*
D19*
X13096785Y-10973670D03*
D11*
G36*
X13132140Y-10917101D02*
G01*
X13153353Y-10938314D01*
X13061429Y-11030238D01*
X13040216Y-11009025D01*
X13132140Y-10917101D01*
X13132140Y-10917101D01*
G37*
D19*
X13026074Y-10902959D03*
D11*
G36*
X13061429Y-10846391D02*
G01*
X13082642Y-10867604D01*
X12990719Y-10959528D01*
X12969505Y-10938314D01*
X13061429Y-10846391D01*
X13061429Y-10846391D01*
G37*
D19*
X13015467Y-10842855D03*
D11*
G36*
X13026074Y-10811035D02*
G01*
X13047287Y-10832248D01*
X13004861Y-10874675D01*
X12983648Y-10853462D01*
X13026074Y-10811035D01*
X13026074Y-10811035D01*
G37*
D20*
X12955363Y-11044380D03*
D11*
G36*
X12935918Y-10922405D02*
G01*
X13077339Y-11063826D01*
X12974809Y-11166356D01*
X12833387Y-11024935D01*
X12935918Y-10922405D01*
X12935918Y-10922405D01*
G37*
D19*
X13061429Y-10938314D03*
D11*
G36*
X13096785Y-10881746D02*
G01*
X13117998Y-10902959D01*
X13026074Y-10994883D01*
X13004861Y-10973670D01*
X13096785Y-10881746D01*
X13096785Y-10881746D01*
G37*
D13*
X13556573Y-9038331D03*
D11*
G36*
X13574533Y-9101192D02*
G01*
X13493711Y-9020370D01*
X13538612Y-8975469D01*
X13619434Y-9056291D01*
X13574533Y-9101192D01*
X13574533Y-9101192D01*
G37*
D13*
X13448810Y-9146094D03*
D11*
G36*
X13466770Y-9208955D02*
G01*
X13385948Y-9128133D01*
X13430849Y-9083232D01*
X13511671Y-9164054D01*
X13466770Y-9208955D01*
X13466770Y-9208955D01*
G37*
D13*
X13271511Y-10107676D03*
D11*
G36*
X13334373Y-10089716D02*
G01*
X13253550Y-10170538D01*
X13208649Y-10125637D01*
X13289471Y-10044814D01*
X13334373Y-10089716D01*
X13334373Y-10089716D01*
G37*
D13*
X13379274Y-10215439D03*
D11*
G36*
X13442136Y-10197479D02*
G01*
X13361313Y-10278301D01*
X13316412Y-10233400D01*
X13397234Y-10152577D01*
X13442136Y-10197479D01*
X13442136Y-10197479D01*
G37*
D13*
X12768617Y-9604782D03*
D11*
G36*
X12831478Y-9586821D02*
G01*
X12750656Y-9667644D01*
X12705755Y-9622742D01*
X12786577Y-9541920D01*
X12831478Y-9586821D01*
X12831478Y-9586821D01*
G37*
D13*
X12876380Y-9712545D03*
D11*
G36*
X12939241Y-9694584D02*
G01*
X12858419Y-9775407D01*
X12813518Y-9730505D01*
X12894340Y-9649683D01*
X12939241Y-9694584D01*
X12939241Y-9694584D01*
G37*
D13*
X12948222Y-9892150D03*
D11*
G36*
X12966182Y-9955012D02*
G01*
X12885360Y-9874189D01*
X12930261Y-9829288D01*
X13011084Y-9910110D01*
X12966182Y-9955012D01*
X12966182Y-9955012D01*
G37*
D13*
X12840459Y-9999913D03*
D11*
G36*
X12858419Y-10062775D02*
G01*
X12777597Y-9981952D01*
X12822498Y-9937051D01*
X12903321Y-10017873D01*
X12858419Y-10062775D01*
X12858419Y-10062775D01*
G37*
D13*
X12438101Y-11055157D03*
D11*
G36*
X12456061Y-11118019D02*
G01*
X12375239Y-11037196D01*
X12420140Y-10992295D01*
X12500962Y-11073117D01*
X12456061Y-11118019D01*
X12456061Y-11118019D01*
G37*
D13*
X12330338Y-11162920D03*
D11*
G36*
X12348298Y-11225782D02*
G01*
X12267476Y-11144959D01*
X12312377Y-11100058D01*
X12393199Y-11180880D01*
X12348298Y-11225782D01*
X12348298Y-11225782D01*
G37*
D13*
X12554844Y-11171900D03*
D11*
G36*
X12572804Y-11234762D02*
G01*
X12491982Y-11153940D01*
X12536883Y-11109038D01*
X12617706Y-11189861D01*
X12572804Y-11234762D01*
X12572804Y-11234762D01*
G37*
D13*
X12447081Y-11279663D03*
D11*
G36*
X12465041Y-11342525D02*
G01*
X12384219Y-11261703D01*
X12429120Y-11216801D01*
X12509943Y-11297624D01*
X12465041Y-11342525D01*
X12465041Y-11342525D01*
G37*
D13*
X13091906Y-10035834D03*
D11*
G36*
X13109866Y-10098696D02*
G01*
X13029044Y-10017873D01*
X13073945Y-9972972D01*
X13154768Y-10053794D01*
X13109866Y-10098696D01*
X13109866Y-10098696D01*
G37*
D13*
X12984143Y-10143597D03*
D11*
G36*
X13002103Y-10206459D02*
G01*
X12921281Y-10125636D01*
X12966182Y-10080735D01*
X13047005Y-10161557D01*
X13002103Y-10206459D01*
X13002103Y-10206459D01*
G37*
D13*
X12824252Y-11448492D03*
D11*
G36*
X12842212Y-11511354D02*
G01*
X12761390Y-11430531D01*
X12806291Y-11385630D01*
X12887113Y-11466452D01*
X12842212Y-11511354D01*
X12842212Y-11511354D01*
G37*
D13*
X12716489Y-11556255D03*
D11*
G36*
X12734449Y-11619117D02*
G01*
X12653627Y-11538294D01*
X12698528Y-11493393D01*
X12779350Y-11574215D01*
X12734449Y-11619117D01*
X12734449Y-11619117D01*
G37*
D13*
X12940995Y-11565235D03*
D11*
G36*
X12958955Y-11628097D02*
G01*
X12878133Y-11547275D01*
X12923034Y-11502374D01*
X13003857Y-11583196D01*
X12958955Y-11628097D01*
X12958955Y-11628097D01*
G37*
D13*
X12833232Y-11672998D03*
D11*
G36*
X12851192Y-11735860D02*
G01*
X12770370Y-11655038D01*
X12815271Y-11610137D01*
X12896094Y-11690959D01*
X12851192Y-11735860D01*
X12851192Y-11735860D01*
G37*
D13*
X14107594Y-11051522D03*
D11*
G36*
X14125554Y-11114384D02*
G01*
X14044732Y-11033562D01*
X14089633Y-10988660D01*
X14170456Y-11069483D01*
X14125554Y-11114384D01*
X14125554Y-11114384D01*
G37*
D13*
X13999831Y-11159285D03*
D11*
G36*
X14017791Y-11222147D02*
G01*
X13936969Y-11141325D01*
X13981870Y-11096423D01*
X14062693Y-11177246D01*
X14017791Y-11222147D01*
X14017791Y-11222147D01*
G37*
D13*
X13784305Y-10620470D03*
D11*
G36*
X13847166Y-10602510D02*
G01*
X13766344Y-10683332D01*
X13721443Y-10638431D01*
X13802265Y-10557608D01*
X13847166Y-10602510D01*
X13847166Y-10602510D01*
G37*
D13*
X13892068Y-10728233D03*
D11*
G36*
X13954929Y-10710273D02*
G01*
X13874107Y-10791095D01*
X13829206Y-10746194D01*
X13910028Y-10665371D01*
X13954929Y-10710273D01*
X13954929Y-10710273D01*
G37*
D13*
X14287199Y-11123364D03*
D11*
G36*
X14350061Y-11105404D02*
G01*
X14269239Y-11186226D01*
X14224337Y-11141325D01*
X14305160Y-11060502D01*
X14350061Y-11105404D01*
X14350061Y-11105404D01*
G37*
D13*
X14394962Y-11231127D03*
D11*
G36*
X14457824Y-11213166D02*
G01*
X14377002Y-11293989D01*
X14332100Y-11249087D01*
X14412923Y-11168265D01*
X14457824Y-11213166D01*
X14457824Y-11213166D01*
G37*
D13*
X14665033Y-9980480D03*
D11*
G36*
X14647073Y-9917618D02*
G01*
X14727895Y-9998440D01*
X14682994Y-10043341D01*
X14602172Y-9962519D01*
X14647073Y-9917618D01*
X14647073Y-9917618D01*
G37*
D13*
X14772796Y-9872717D03*
D11*
G36*
X14754836Y-9809855D02*
G01*
X14835658Y-9890677D01*
X14790757Y-9935578D01*
X14709935Y-9854756D01*
X14754836Y-9809855D01*
X14754836Y-9809855D01*
G37*
D13*
X14574806Y-10070707D03*
D11*
G36*
X14592767Y-10133568D02*
G01*
X14511945Y-10052746D01*
X14556846Y-10007845D01*
X14637668Y-10088667D01*
X14592767Y-10133568D01*
X14592767Y-10133568D01*
G37*
D13*
X14467043Y-10178470D03*
D11*
G36*
X14485004Y-10241331D02*
G01*
X14404182Y-10160509D01*
X14449083Y-10115608D01*
X14529905Y-10196430D01*
X14485004Y-10241331D01*
X14485004Y-10241331D01*
G37*
D13*
X13637706Y-8953152D03*
D11*
G36*
X13619746Y-8890291D02*
G01*
X13700568Y-8971113D01*
X13655667Y-9016014D01*
X13574844Y-8935192D01*
X13619746Y-8890291D01*
X13619746Y-8890291D01*
G37*
D13*
X13745469Y-8845389D03*
D11*
G36*
X13727509Y-8782528D02*
G01*
X13808331Y-8863350D01*
X13763430Y-8908251D01*
X13682607Y-8827429D01*
X13727509Y-8782528D01*
X13727509Y-8782528D01*
G37*
D13*
X12453913Y-7007554D03*
D11*
G36*
X12435952Y-6944692D02*
G01*
X12516775Y-7025514D01*
X12471873Y-7070416D01*
X12391051Y-6989593D01*
X12435952Y-6944692D01*
X12435952Y-6944692D01*
G37*
D13*
X12561676Y-6899791D03*
D11*
G36*
X12543715Y-6836929D02*
G01*
X12624538Y-6917751D01*
X12579636Y-6962653D01*
X12498814Y-6881830D01*
X12543715Y-6836929D01*
X12543715Y-6836929D01*
G37*
D13*
X12358476Y-7102991D03*
D11*
G36*
X12376436Y-7165853D02*
G01*
X12295614Y-7085030D01*
X12340515Y-7040129D01*
X12421338Y-7120951D01*
X12376436Y-7165853D01*
X12376436Y-7165853D01*
G37*
D13*
X12250713Y-7210754D03*
D11*
G36*
X12268673Y-7273616D02*
G01*
X12187851Y-7192793D01*
X12232752Y-7147892D01*
X12313575Y-7228714D01*
X12268673Y-7273616D01*
X12268673Y-7273616D01*
G37*
D13*
X12828323Y-7399611D03*
D11*
G36*
X12891185Y-7381650D02*
G01*
X12810363Y-7462472D01*
X12765462Y-7417571D01*
X12846284Y-7336749D01*
X12891185Y-7381650D01*
X12891185Y-7381650D01*
G37*
D13*
X12936086Y-7507374D03*
D11*
G36*
X12998948Y-7489413D02*
G01*
X12918126Y-7570235D01*
X12873225Y-7525334D01*
X12954047Y-7444512D01*
X12998948Y-7489413D01*
X12998948Y-7489413D01*
G37*
D13*
X12087176Y-6207998D03*
D11*
G36*
X12150038Y-6190038D02*
G01*
X12069216Y-6270860D01*
X12024315Y-6225959D01*
X12105137Y-6145137D01*
X12150038Y-6190038D01*
X12150038Y-6190038D01*
G37*
D13*
X12194939Y-6315761D03*
D11*
G36*
X12257801Y-6297801D02*
G01*
X12176979Y-6378623D01*
X12132078Y-6333722D01*
X12212900Y-6252900D01*
X12257801Y-6297801D01*
X12257801Y-6297801D01*
G37*
D13*
X12675306Y-6791048D03*
D11*
G36*
X12612445Y-6809009D02*
G01*
X12693267Y-6728187D01*
X12738168Y-6773088D01*
X12657346Y-6853910D01*
X12612445Y-6809009D01*
X12612445Y-6809009D01*
G37*
D13*
X12567543Y-6683285D03*
D11*
G36*
X12504682Y-6701246D02*
G01*
X12585504Y-6620424D01*
X12630405Y-6665325D01*
X12549583Y-6746147D01*
X12504682Y-6701246D01*
X12504682Y-6701246D01*
G37*
D13*
X12693973Y-7533961D03*
D11*
G36*
X12756835Y-7516000D02*
G01*
X12676013Y-7596823D01*
X12631111Y-7551921D01*
X12711934Y-7471099D01*
X12756835Y-7516000D01*
X12756835Y-7516000D01*
G37*
D13*
X12801736Y-7641724D03*
D11*
G36*
X12864598Y-7623763D02*
G01*
X12783776Y-7704586D01*
X12738874Y-7659684D01*
X12819697Y-7578862D01*
X12864598Y-7623763D01*
X12864598Y-7623763D01*
G37*
D13*
X12480073Y-7744325D03*
D11*
G36*
X12542935Y-7726365D02*
G01*
X12462113Y-7807187D01*
X12417212Y-7762286D01*
X12498034Y-7681463D01*
X12542935Y-7726365D01*
X12542935Y-7726365D01*
G37*
D13*
X12587836Y-7852088D03*
D11*
G36*
X12650698Y-7834128D02*
G01*
X12569876Y-7914950D01*
X12524975Y-7870049D01*
X12605797Y-7789226D01*
X12650698Y-7834128D01*
X12650698Y-7834128D01*
G37*
D13*
X12091963Y-6671191D03*
D11*
G36*
X12154825Y-6653230D02*
G01*
X12074002Y-6734053D01*
X12029101Y-6689151D01*
X12109923Y-6608329D01*
X12154825Y-6653230D01*
X12154825Y-6653230D01*
G37*
D13*
X12199726Y-6778954D03*
D11*
G36*
X12262588Y-6760993D02*
G01*
X12181765Y-6841816D01*
X12136864Y-6796914D01*
X12217686Y-6716092D01*
X12262588Y-6760993D01*
X12262588Y-6760993D01*
G37*
D13*
X12345723Y-7878675D03*
D11*
G36*
X12408585Y-7860715D02*
G01*
X12327763Y-7941537D01*
X12282861Y-7896636D01*
X12363684Y-7815814D01*
X12408585Y-7860715D01*
X12408585Y-7860715D01*
G37*
D13*
X12453486Y-7986438D03*
D11*
G36*
X12516348Y-7968478D02*
G01*
X12435526Y-8049300D01*
X12390624Y-8004399D01*
X12471447Y-7923577D01*
X12516348Y-7968478D01*
X12516348Y-7968478D01*
G37*
D13*
X11844313Y-7617154D03*
D11*
G36*
X11826352Y-7554292D02*
G01*
X11907175Y-7635114D01*
X11862273Y-7680016D01*
X11781451Y-7599193D01*
X11826352Y-7554292D01*
X11826352Y-7554292D01*
G37*
D13*
X11952076Y-7509391D03*
D11*
G36*
X11934115Y-7446529D02*
G01*
X12014938Y-7527351D01*
X11970036Y-7572253D01*
X11889214Y-7491430D01*
X11934115Y-7446529D01*
X11934115Y-7446529D01*
G37*
D13*
X12155276Y-7306191D03*
D11*
G36*
X12173236Y-7369053D02*
G01*
X12092414Y-7288230D01*
X12137315Y-7243329D01*
X12218138Y-7324151D01*
X12173236Y-7369053D01*
X12173236Y-7369053D01*
G37*
D13*
X12047513Y-7413954D03*
D11*
G36*
X12065473Y-7476816D02*
G01*
X11984651Y-7395993D01*
X12029552Y-7351092D01*
X12110375Y-7431914D01*
X12065473Y-7476816D01*
X12065473Y-7476816D01*
G37*
D13*
X12311779Y-6198921D03*
D11*
G36*
X12248918Y-6216882D02*
G01*
X12329740Y-6136060D01*
X12374641Y-6180961D01*
X12293819Y-6261783D01*
X12248918Y-6216882D01*
X12248918Y-6216882D01*
G37*
D13*
X12204016Y-6091158D03*
D11*
G36*
X12141155Y-6109119D02*
G01*
X12221977Y-6028297D01*
X12266878Y-6073198D01*
X12186056Y-6154020D01*
X12141155Y-6109119D01*
X12141155Y-6109119D01*
G37*
D13*
X12689414Y-6561723D03*
D11*
G36*
X12752276Y-6543762D02*
G01*
X12671454Y-6624585D01*
X12626552Y-6579683D01*
X12707375Y-6498861D01*
X12752276Y-6543762D01*
X12752276Y-6543762D01*
G37*
D13*
X12797177Y-6669486D03*
D11*
G36*
X12860039Y-6651525D02*
G01*
X12779217Y-6732348D01*
X12734315Y-6687446D01*
X12815138Y-6606624D01*
X12860039Y-6651525D01*
X12860039Y-6651525D01*
G37*
D13*
X14659659Y-9759580D03*
D11*
G36*
X14677620Y-9822441D02*
G01*
X14596797Y-9741619D01*
X14641699Y-9696718D01*
X14722521Y-9777540D01*
X14677620Y-9822441D01*
X14677620Y-9822441D01*
G37*
D13*
X14551896Y-9867343D03*
D11*
G36*
X14569857Y-9930204D02*
G01*
X14489034Y-9849382D01*
X14533936Y-9804481D01*
X14614758Y-9885303D01*
X14569857Y-9930204D01*
X14569857Y-9930204D01*
G37*
D13*
X14353906Y-10065332D03*
D11*
G36*
X14335946Y-10002471D02*
G01*
X14416768Y-10083293D01*
X14371867Y-10128194D01*
X14291045Y-10047372D01*
X14335946Y-10002471D01*
X14335946Y-10002471D01*
G37*
D13*
X14461669Y-9957569D03*
D11*
G36*
X14443709Y-9894708D02*
G01*
X14524531Y-9975530D01*
X14479630Y-10020431D01*
X14398808Y-9939609D01*
X14443709Y-9894708D01*
X14443709Y-9894708D01*
G37*
D13*
X13634354Y-8734275D03*
D11*
G36*
X13652315Y-8797137D02*
G01*
X13571493Y-8716314D01*
X13616394Y-8671413D01*
X13697216Y-8752235D01*
X13652315Y-8797137D01*
X13652315Y-8797137D01*
G37*
D13*
X13526591Y-8842038D03*
D11*
G36*
X13544552Y-8904900D02*
G01*
X13463730Y-8824077D01*
X13508631Y-8779176D01*
X13589453Y-8859998D01*
X13544552Y-8904900D01*
X13544552Y-8904900D01*
G37*
D13*
X13335673Y-9032957D03*
D11*
G36*
X13317712Y-8970095D02*
G01*
X13398534Y-9050917D01*
X13353633Y-9095818D01*
X13272811Y-9014996D01*
X13317712Y-8970095D01*
X13317712Y-8970095D01*
G37*
D13*
X13443436Y-8925194D03*
D11*
G36*
X13425475Y-8862332D02*
G01*
X13506297Y-8943154D01*
X13461396Y-8988055D01*
X13380574Y-8907233D01*
X13425475Y-8862332D01*
X13425475Y-8862332D01*
G37*
D21*
X11107073Y-11007073D03*
X12992927Y-12892927D03*
X11376481Y-11276481D03*
X11645888Y-11545888D03*
X11915296Y-11815296D03*
X12184704Y-12084704D03*
X12454111Y-12354111D03*
X12723519Y-12623519D03*
D15*
X15357963Y-11448737D03*
D11*
G36*
X15340003Y-11367914D02*
G01*
X15438785Y-11466697D01*
X15375924Y-11529559D01*
X15277141Y-11430776D01*
X15340003Y-11367914D01*
X15340003Y-11367914D01*
G37*
D15*
X15492667Y-11314033D03*
D11*
G36*
X15474706Y-11233211D02*
G01*
X15573489Y-11331993D01*
X15510627Y-11394855D01*
X15411845Y-11296072D01*
X15474706Y-11233211D01*
X15474706Y-11233211D01*
G37*
D15*
X15672648Y-11532648D03*
D11*
G36*
X15753470Y-11514688D02*
G01*
X15654688Y-11613470D01*
X15591826Y-11550609D01*
X15690609Y-11451826D01*
X15753470Y-11514688D01*
X15753470Y-11514688D01*
G37*
D15*
X15807352Y-11667352D03*
D11*
G36*
X15888174Y-11649391D02*
G01*
X15789391Y-11748174D01*
X15726530Y-11685312D01*
X15825312Y-11586530D01*
X15888174Y-11649391D01*
X15888174Y-11649391D01*
G37*
D15*
X11953275Y-6073743D03*
D11*
G36*
X11971235Y-6154565D02*
G01*
X11872452Y-6055783D01*
X11935314Y-5992921D01*
X12034097Y-6091704D01*
X11971235Y-6154565D01*
X11971235Y-6154565D01*
G37*
D15*
X11818571Y-6208447D03*
D11*
G36*
X11836531Y-6289269D02*
G01*
X11737749Y-6190486D01*
X11800610Y-6127625D01*
X11899393Y-6226407D01*
X11836531Y-6289269D01*
X11836531Y-6289269D01*
G37*
D15*
X12972352Y-8645148D03*
D11*
G36*
X12990312Y-8725970D02*
G01*
X12891530Y-8627188D01*
X12954391Y-8564326D01*
X13053174Y-8663109D01*
X12990312Y-8725970D01*
X12990312Y-8725970D01*
G37*
D15*
X12837648Y-8779852D03*
D11*
G36*
X12855609Y-8860674D02*
G01*
X12756826Y-8761891D01*
X12819688Y-8699030D01*
X12918470Y-8797812D01*
X12855609Y-8860674D01*
X12855609Y-8860674D01*
G37*
D22*
X16435711Y-10380711D03*
D11*
G36*
X16515260Y-10371872D02*
G01*
X16426872Y-10460260D01*
X16356161Y-10389550D01*
X16444549Y-10301161D01*
X16515260Y-10371872D01*
X16515260Y-10371872D01*
G37*
D22*
X16294289Y-10239289D03*
D11*
G36*
X16373839Y-10230451D02*
G01*
X16285450Y-10318839D01*
X16214740Y-10248128D01*
X16303128Y-10159740D01*
X16373839Y-10230451D01*
X16373839Y-10230451D01*
G37*
D22*
X16943211Y-10900711D03*
D11*
G36*
X17022760Y-10891872D02*
G01*
X16934372Y-10980260D01*
X16863661Y-10909550D01*
X16952050Y-10821161D01*
X17022760Y-10891872D01*
X17022760Y-10891872D01*
G37*
D22*
X16801789Y-10759289D03*
D11*
G36*
X16881339Y-10750451D02*
G01*
X16792951Y-10838839D01*
X16722240Y-10768128D01*
X16810628Y-10679740D01*
X16881339Y-10750451D01*
X16881339Y-10750451D01*
G37*
D23*
X11910894Y-6895662D03*
X11981605Y-6966372D03*
X11910894Y-7037083D03*
X11840184Y-6966372D03*
X11910894Y-6966372D03*
D24*
X11847255Y-6966372D03*
D11*
G36*
X11783615Y-6966372D02*
G01*
X11847255Y-6902733D01*
X11910894Y-6966372D01*
X11847255Y-7030012D01*
X11783615Y-6966372D01*
X11783615Y-6966372D01*
G37*
D24*
X11910894Y-6902733D03*
D11*
G36*
X11847255Y-6902733D02*
G01*
X11910894Y-6839093D01*
X11974534Y-6902733D01*
X11910894Y-6966372D01*
X11847255Y-6902733D01*
X11847255Y-6902733D01*
G37*
D24*
X11910894Y-7030012D03*
D11*
G36*
X11847255Y-7030012D02*
G01*
X11910894Y-6966372D01*
X11974534Y-7030012D01*
X11910894Y-7093651D01*
X11847255Y-7030012D01*
X11847255Y-7030012D01*
G37*
D24*
X11974534Y-6966372D03*
D11*
G36*
X11910894Y-6966372D02*
G01*
X11974534Y-6902733D01*
X12038174Y-6966372D01*
X11974534Y-7030012D01*
X11910894Y-6966372D01*
X11910894Y-6966372D01*
G37*
D19*
X11753563Y-7017637D03*
D25*
X11769473Y-7001728D02*
X11737653Y-7033547D01*
D19*
X11788918Y-7052993D03*
D25*
X11804828Y-7037083D02*
X11773009Y-7068903D01*
D19*
X11824274Y-7088348D03*
D25*
X11840184Y-7072438D02*
X11808364Y-7104258D01*
D19*
X11859629Y-7123704D03*
D25*
X11875539Y-7107794D02*
X11843719Y-7139613D01*
D19*
X11962160Y-7123704D03*
D25*
X11946250Y-7107794D02*
X11978069Y-7139613D01*
D19*
X11997515Y-7088348D03*
D25*
X11981605Y-7072438D02*
X12013425Y-7104258D01*
D19*
X12032870Y-7052993D03*
D25*
X12016960Y-7037083D02*
X12048780Y-7068903D01*
D19*
X12068226Y-7017637D03*
D25*
X12052316Y-7001728D02*
X12084136Y-7033547D01*
D19*
X12068226Y-6915107D03*
D25*
X12084136Y-6899197D02*
X12052316Y-6931017D01*
D19*
X12032870Y-6879752D03*
D25*
X12048780Y-6863842D02*
X12016960Y-6895662D01*
D19*
X11997515Y-6844396D03*
D25*
X12013425Y-6828486D02*
X11981605Y-6860306D01*
D19*
X11962160Y-6809041D03*
D25*
X11978069Y-6793131D02*
X11946250Y-6824951D01*
D19*
X11859629Y-6809041D03*
D25*
X11843719Y-6793131D02*
X11875539Y-6824951D01*
D19*
X11824274Y-6844396D03*
D25*
X11808364Y-6828486D02*
X11840184Y-6860306D01*
D19*
X11788918Y-6879752D03*
D25*
X11773009Y-6863842D02*
X11804828Y-6895662D01*
D19*
X11753563Y-6915107D03*
D25*
X11737653Y-6899197D02*
X11769473Y-6931017D01*
D26*
X17331421Y-11388579D03*
D11*
G36*
X17356170Y-11236551D02*
G01*
X17483449Y-11363830D01*
X17306673Y-11540607D01*
X17179393Y-11413327D01*
X17356170Y-11236551D01*
X17356170Y-11236551D01*
G37*
D26*
X17048579Y-11671421D03*
D11*
G36*
X17073327Y-11519393D02*
G01*
X17200607Y-11646673D01*
X17023830Y-11823449D01*
X16896551Y-11696170D01*
X17073327Y-11519393D01*
X17073327Y-11519393D01*
G37*
D27*
X11350000Y-8185000D03*
X11350000Y-8375000D03*
X11150000Y-8280000D03*
X18607605Y-7840711D03*
X18807605Y-7935711D03*
X18807605Y-7745711D03*
D28*
X15605727Y-12800000D03*
X15700727Y-12600000D03*
X15510727Y-12600000D03*
D29*
X15666261Y-11140439D03*
D11*
G36*
X15602622Y-10935378D02*
G01*
X15871322Y-11204078D01*
X15729901Y-11345499D01*
X15461200Y-11076799D01*
X15602622Y-10935378D01*
X15602622Y-10935378D01*
G37*
D30*
X16111739Y-10694961D03*
D11*
G36*
X16129416Y-10571218D02*
G01*
X16235482Y-10677284D01*
X16094061Y-10818705D01*
X15987995Y-10712639D01*
X16129416Y-10571218D01*
X16129416Y-10571218D01*
G37*
D30*
X16274373Y-10857596D03*
D11*
G36*
X16292051Y-10733852D02*
G01*
X16398117Y-10839918D01*
X16256695Y-10981340D01*
X16150629Y-10875274D01*
X16292051Y-10733852D01*
X16292051Y-10733852D01*
G37*
D30*
X15949104Y-10532327D03*
D11*
G36*
X15966782Y-10408583D02*
G01*
X16072848Y-10514649D01*
X15931426Y-10656070D01*
X15825360Y-10550004D01*
X15966782Y-10408583D01*
X15966782Y-10408583D01*
G37*
D30*
X16500104Y-11084627D03*
D11*
G36*
X16517782Y-10960883D02*
G01*
X16623848Y-11066949D01*
X16482426Y-11208370D01*
X16376360Y-11102305D01*
X16517782Y-10960883D01*
X16517782Y-10960883D01*
G37*
D30*
X16825373Y-11409896D03*
D11*
G36*
X16843051Y-11286152D02*
G01*
X16949117Y-11392218D01*
X16807696Y-11533640D01*
X16701629Y-11427574D01*
X16843051Y-11286152D01*
X16843051Y-11286152D01*
G37*
D30*
X16662739Y-11247261D03*
D11*
G36*
X16680416Y-11123518D02*
G01*
X16786482Y-11229584D01*
X16645061Y-11371005D01*
X16538995Y-11264939D01*
X16680416Y-11123518D01*
X16680416Y-11123518D01*
G37*
D29*
X16217261Y-11692739D03*
D11*
G36*
X16153622Y-11487678D02*
G01*
X16422322Y-11756378D01*
X16280901Y-11897800D01*
X16012200Y-11629099D01*
X16153622Y-11487678D01*
X16153622Y-11487678D01*
G37*
D31*
X13528526Y-9323700D03*
D11*
G36*
X13463149Y-9367883D02*
G01*
X13572709Y-9258323D01*
X13593902Y-9279517D01*
X13484343Y-9389076D01*
X13463149Y-9367883D01*
X13463149Y-9367883D01*
G37*
D31*
X13574505Y-9369679D03*
D11*
G36*
X13509128Y-9413862D02*
G01*
X13618688Y-9304302D01*
X13639881Y-9325496D01*
X13530322Y-9435055D01*
X13509128Y-9413862D01*
X13509128Y-9413862D01*
G37*
D31*
X13620484Y-9415658D03*
D11*
G36*
X13555107Y-9459840D02*
G01*
X13664666Y-9350281D01*
X13685860Y-9371475D01*
X13576301Y-9481034D01*
X13555107Y-9459840D01*
X13555107Y-9459840D01*
G37*
D31*
X13666283Y-9461457D03*
D11*
G36*
X13600907Y-9505640D02*
G01*
X13710466Y-9396081D01*
X13731659Y-9417274D01*
X13622100Y-9526833D01*
X13600907Y-9505640D01*
X13600907Y-9505640D01*
G37*
D31*
X13712082Y-9507256D03*
D11*
G36*
X13646706Y-9551439D02*
G01*
X13756265Y-9441880D01*
X13777459Y-9463073D01*
X13667899Y-9572633D01*
X13646706Y-9551439D01*
X13646706Y-9551439D01*
G37*
D31*
X13758061Y-9553235D03*
D11*
G36*
X13692685Y-9597418D02*
G01*
X13802244Y-9487859D01*
X13823437Y-9509052D01*
X13713878Y-9618611D01*
X13692685Y-9597418D01*
X13692685Y-9597418D01*
G37*
D31*
X13804040Y-9599214D03*
D11*
G36*
X13738664Y-9643397D02*
G01*
X13848223Y-9533838D01*
X13869416Y-9555031D01*
X13759857Y-9664590D01*
X13738664Y-9643397D01*
X13738664Y-9643397D01*
G37*
D31*
X14199890Y-9203364D03*
D11*
G36*
X14265266Y-9159181D02*
G01*
X14155707Y-9268741D01*
X14134513Y-9247547D01*
X14244073Y-9137988D01*
X14265266Y-9159181D01*
X14265266Y-9159181D01*
G37*
D31*
X14153911Y-9157385D03*
D11*
G36*
X14219287Y-9113203D02*
G01*
X14109728Y-9222762D01*
X14088535Y-9201568D01*
X14198094Y-9092009D01*
X14219287Y-9113203D01*
X14219287Y-9113203D01*
G37*
D31*
X14107932Y-9111407D03*
D11*
G36*
X14173308Y-9067224D02*
G01*
X14063749Y-9176783D01*
X14042556Y-9155589D01*
X14152115Y-9046030D01*
X14173308Y-9067224D01*
X14173308Y-9067224D01*
G37*
D31*
X14062133Y-9065607D03*
D11*
G36*
X14127509Y-9021424D02*
G01*
X14017950Y-9130984D01*
X13996756Y-9109790D01*
X14106315Y-9000231D01*
X14127509Y-9021424D01*
X14127509Y-9021424D01*
G37*
D31*
X14016333Y-9019808D03*
D11*
G36*
X14081710Y-8975625D02*
G01*
X13972150Y-9085184D01*
X13950957Y-9063991D01*
X14060516Y-8954432D01*
X14081710Y-8975625D01*
X14081710Y-8975625D01*
G37*
D31*
X13970354Y-8973829D03*
D11*
G36*
X14035731Y-8929646D02*
G01*
X13926171Y-9039205D01*
X13904978Y-9018012D01*
X14014537Y-8908453D01*
X14035731Y-8929646D01*
X14035731Y-8929646D01*
G37*
D31*
X13924375Y-8927850D03*
D11*
G36*
X13989752Y-8883667D02*
G01*
X13880193Y-8993226D01*
X13858999Y-8972033D01*
X13968558Y-8862474D01*
X13989752Y-8883667D01*
X13989752Y-8883667D01*
G37*
D32*
X17639408Y-10589803D03*
D11*
G36*
X17639408Y-10482040D02*
G01*
X17747171Y-10589803D01*
X17639408Y-10697566D01*
X17531645Y-10589803D01*
X17639408Y-10482040D01*
X17639408Y-10482040D01*
G37*
D32*
X17459803Y-10769408D03*
D11*
G36*
X17459803Y-10661645D02*
G01*
X17567566Y-10769408D01*
X17459803Y-10877171D01*
X17352040Y-10769408D01*
X17459803Y-10661645D01*
X17459803Y-10661645D01*
G37*
D32*
X17459803Y-10410197D03*
D11*
G36*
X17459803Y-10302434D02*
G01*
X17567566Y-10410197D01*
X17459803Y-10517961D01*
X17352040Y-10410197D01*
X17459803Y-10302434D01*
X17459803Y-10302434D01*
G37*
D32*
X17280197Y-10589803D03*
D11*
G36*
X17280197Y-10482040D02*
G01*
X17387961Y-10589803D01*
X17280197Y-10697566D01*
X17172434Y-10589803D01*
X17280197Y-10482040D01*
X17280197Y-10482040D01*
G37*
D32*
X17280197Y-10230592D03*
D11*
G36*
X17280197Y-10122829D02*
G01*
X17387961Y-10230592D01*
X17280197Y-10338355D01*
X17172434Y-10230592D01*
X17280197Y-10122829D01*
X17280197Y-10122829D01*
G37*
D32*
X17100592Y-10410197D03*
D11*
G36*
X17100592Y-10302434D02*
G01*
X17208355Y-10410197D01*
X17100592Y-10517961D01*
X16992829Y-10410197D01*
X17100592Y-10302434D01*
X17100592Y-10302434D01*
G37*
D33*
X11444000Y-12556000D03*
X18556000Y-5444000D03*
X18556000Y-12556000D03*
D31*
X14544214Y-10339388D03*
D11*
G36*
X14478838Y-10383571D02*
G01*
X14588397Y-10274012D01*
X14609590Y-10295205D01*
X14500031Y-10404764D01*
X14478838Y-10383571D01*
X14478838Y-10383571D01*
G37*
D31*
X14590193Y-10385367D03*
D11*
G36*
X14524816Y-10429550D02*
G01*
X14634376Y-10319990D01*
X14655569Y-10341184D01*
X14546010Y-10450743D01*
X14524816Y-10429550D01*
X14524816Y-10429550D01*
G37*
D31*
X14636172Y-10431346D03*
D11*
G36*
X14570795Y-10475529D02*
G01*
X14680355Y-10365969D01*
X14701548Y-10387163D01*
X14591989Y-10496722D01*
X14570795Y-10475529D01*
X14570795Y-10475529D01*
G37*
D31*
X14681971Y-10477145D03*
D11*
G36*
X14616595Y-10521328D02*
G01*
X14726154Y-10411769D01*
X14747347Y-10432962D01*
X14637788Y-10542521D01*
X14616595Y-10521328D01*
X14616595Y-10521328D01*
G37*
D31*
X14727770Y-10522944D03*
D11*
G36*
X14662394Y-10567127D02*
G01*
X14771953Y-10457568D01*
X14793147Y-10478761D01*
X14683587Y-10588321D01*
X14662394Y-10567127D01*
X14662394Y-10567127D01*
G37*
D31*
X14773749Y-10568923D03*
D11*
G36*
X14708373Y-10613106D02*
G01*
X14817932Y-10503547D01*
X14839126Y-10524740D01*
X14729566Y-10634300D01*
X14708373Y-10613106D01*
X14708373Y-10613106D01*
G37*
D31*
X14819728Y-10614902D03*
D11*
G36*
X14754352Y-10659085D02*
G01*
X14863911Y-10549526D01*
X14885104Y-10570719D01*
X14775545Y-10680278D01*
X14754352Y-10659085D01*
X14754352Y-10659085D01*
G37*
D31*
X15215578Y-10219052D03*
D11*
G36*
X15280954Y-10174870D02*
G01*
X15171395Y-10284429D01*
X15150202Y-10263235D01*
X15259761Y-10153676D01*
X15280954Y-10174870D01*
X15280954Y-10174870D01*
G37*
D31*
X15169599Y-10173074D03*
D11*
G36*
X15234975Y-10128891D02*
G01*
X15125416Y-10238450D01*
X15104223Y-10217256D01*
X15213782Y-10107697D01*
X15234975Y-10128891D01*
X15234975Y-10128891D01*
G37*
D31*
X15123620Y-10127095D03*
D11*
G36*
X15188996Y-10082912D02*
G01*
X15079437Y-10192471D01*
X15058244Y-10171278D01*
X15167803Y-10061718D01*
X15188996Y-10082912D01*
X15188996Y-10082912D01*
G37*
D31*
X15077821Y-10081295D03*
D11*
G36*
X15143197Y-10037112D02*
G01*
X15033638Y-10146672D01*
X15012444Y-10125478D01*
X15122004Y-10015919D01*
X15143197Y-10037112D01*
X15143197Y-10037112D01*
G37*
D31*
X15032021Y-10035496D03*
D11*
G36*
X15097398Y-9991313D02*
G01*
X14987838Y-10100872D01*
X14966645Y-10079679D01*
X15076204Y-9970120D01*
X15097398Y-9991313D01*
X15097398Y-9991313D01*
G37*
D31*
X14986042Y-9989517D03*
D11*
G36*
X15051419Y-9945334D02*
G01*
X14941860Y-10054893D01*
X14920666Y-10033700D01*
X15030225Y-9924141D01*
X15051419Y-9945334D01*
X15051419Y-9945334D01*
G37*
D31*
X14940064Y-9943538D03*
D11*
G36*
X15005440Y-9899355D02*
G01*
X14895881Y-10008914D01*
X14874687Y-9987721D01*
X14984246Y-9878162D01*
X15005440Y-9899355D01*
X15005440Y-9899355D01*
G37*
D33*
X11400000Y-9000000D03*
X18600000Y-9000000D03*
X15000000Y-5400000D03*
X15000000Y-12600000D03*
D29*
X17851421Y-10858579D03*
D11*
G36*
X17869099Y-11017678D02*
G01*
X17692322Y-10840901D01*
X17833744Y-10699480D01*
X18010520Y-10876256D01*
X17869099Y-11017678D01*
X17869099Y-11017678D01*
G37*
D29*
X17568579Y-11141421D03*
D11*
G36*
X17586256Y-11300520D02*
G01*
X17409480Y-11123744D01*
X17550901Y-10982322D01*
X17727678Y-11159099D01*
X17586256Y-11300520D01*
X17586256Y-11300520D01*
G37*
D28*
X15620000Y-5410000D03*
X15525000Y-5610000D03*
X15715000Y-5610000D03*
D27*
X19192305Y-7840711D03*
X18992305Y-7745711D03*
X18992305Y-7935711D03*
X11520000Y-8375000D03*
X11520000Y-8185000D03*
X11720000Y-8280000D03*
D28*
X15700727Y-12440000D03*
X15510727Y-12440000D03*
X15605727Y-12240000D03*
X15617981Y-5965000D03*
X15712981Y-5765000D03*
X15522981Y-5765000D03*
D33*
X11444000Y-5444000D03*
D22*
X16969289Y-10629289D03*
D11*
G36*
X17048839Y-10620451D02*
G01*
X16960451Y-10708839D01*
X16889740Y-10638128D01*
X16978128Y-10549740D01*
X17048839Y-10620451D01*
X17048839Y-10620451D01*
G37*
D22*
X17110711Y-10770711D03*
D11*
G36*
X17190260Y-10761872D02*
G01*
X17101872Y-10850260D01*
X17031161Y-10779550D01*
X17119550Y-10691161D01*
X17190260Y-10761872D01*
X17190260Y-10761872D01*
G37*
D22*
X14605754Y-8086403D03*
D34*
X13035065Y-11220677D03*
X13133848Y-11121894D03*
X13457071Y-12157647D03*
X13707071Y-12407647D03*
X15450000Y-11700000D03*
X15100000Y-11700000D03*
X14730000Y-11700000D03*
X13420000Y-7940000D03*
X13740000Y-7280000D03*
X13149138Y-6850684D03*
X12512742Y-7557790D03*
X13460000Y-7740000D03*
X11650000Y-7850000D03*
X13210000Y-6550000D03*
X13400000Y-6350000D03*
X12510000Y-8620000D03*
X12000000Y-10550000D03*
X12200000Y-10360000D03*
X13820000Y-8777550D03*
X13780000Y-8300000D03*
X13420000Y-8620000D03*
X12540000Y-8160000D03*
X13460000Y-7280000D03*
X13920000Y-9140000D03*
X14780000Y-10350000D03*
X14950000Y-10520908D03*
X14120000Y-9320000D03*
X11690434Y-6852656D03*
X11500000Y-6700000D03*
X12620000Y-10780000D03*
X12680000Y-8460000D03*
X12150000Y-11170000D03*
X13000000Y-7980000D03*
X13750000Y-10920000D03*
X12654163Y-10209441D03*
X12747279Y-9917279D03*
X13090000Y-10250000D03*
X13270000Y-10730000D03*
X12990039Y-11712043D03*
X12276360Y-11011508D03*
X12830000Y-11850000D03*
X19440000Y-4560000D03*
X12500000Y-6150000D03*
X16414000Y-11242200D03*
X16350500Y-11178700D03*
X15480000Y-10580000D03*
X15640000Y-10480000D03*
X12125000Y-7180000D03*
X12290000Y-7350000D03*
X12425000Y-5700000D03*
X14500000Y-10970000D03*
X13630000Y-9200000D03*
X14940000Y-10160000D03*
X13002540Y-11091557D03*
X12774638Y-10960249D03*
X12873421Y-10861467D03*
X14639960Y-10200000D03*
X11800000Y-10760000D03*
X12920000Y-7805278D03*
X12760000Y-7820000D03*
X13100000Y-7620000D03*
X13740000Y-7740000D03*
X12680000Y-6025000D03*
X13725000Y-6650000D03*
X13060000Y-6025000D03*
X13465000Y-6805000D03*
X13240000Y-8120000D03*
X13400000Y-8300000D03*
X13600000Y-8100000D03*
X11425000Y-10775000D03*
X12025000Y-10175000D03*
X11825000Y-10375000D03*
X11625000Y-10575000D03*
X11600000Y-10960000D03*
X11750000Y-9750000D03*
X12400000Y-9950000D03*
X13260000Y-7780000D03*
X13080000Y-7960000D03*
X11990000Y-8125000D03*
X12865000Y-6737500D03*
X12910000Y-7252500D03*
X12480000Y-10460000D03*
X13975000Y-11700000D03*
X13420000Y-11680000D03*
X13570000Y-11530000D03*
X13260000Y-9450000D03*
X13910000Y-9520000D03*
X14177500Y-9807500D03*
X16690000Y-10700000D03*
X16750000Y-10640000D03*
X12650000Y-6975000D03*
X12350000Y-6750000D03*
X12070000Y-6480000D03*
X11600000Y-6200000D03*
X16270000Y-10100000D03*
X16470000Y-9900000D03*
X14540000Y-11340000D03*
X13980000Y-11340000D03*
X13470000Y-10810000D03*
X13190000Y-10520000D03*
X14670000Y-9410000D03*
X13250000Y-8460000D03*
X11500000Y-10000000D03*
X12420000Y-9350000D03*
X15000000Y-13450000D03*
X15500000Y-13450000D03*
X14500000Y-13450000D03*
X14000000Y-13450000D03*
X13500000Y-13450000D03*
X13000000Y-13450000D03*
X12000000Y-13450000D03*
X12500000Y-13450000D03*
X11500000Y-13450000D03*
X11000000Y-13450000D03*
X10550000Y-13000000D03*
X10550000Y-12000000D03*
X10550000Y-12500000D03*
X10550000Y-11000000D03*
X10550000Y-11500000D03*
X10550000Y-10500000D03*
X10550000Y-10000000D03*
X10550000Y-9500000D03*
X10550000Y-9000000D03*
X18500000Y-4550000D03*
X18000000Y-4550000D03*
X19000000Y-4550000D03*
X19450000Y-5000000D03*
X19450000Y-6000000D03*
X19450000Y-5500000D03*
X19450000Y-7000000D03*
X19450000Y-6500000D03*
X17000000Y-13450000D03*
X16500000Y-13450000D03*
X18000000Y-13450000D03*
X17500000Y-13450000D03*
X19000000Y-13450000D03*
X18500000Y-13450000D03*
X19450000Y-13000000D03*
X19450000Y-12000000D03*
X19450000Y-12500000D03*
X19450000Y-11500000D03*
X19450000Y-11000000D03*
X16000000Y-13450000D03*
X12010000Y-8675000D03*
X12300000Y-8395000D03*
X12125000Y-9950000D03*
X12125000Y-9675000D03*
X12125000Y-9350000D03*
X12225000Y-9125000D03*
X12425000Y-8900000D03*
X12400000Y-9675000D03*
X10550000Y-8500000D03*
X10550000Y-8000000D03*
X10550000Y-7500000D03*
X10550000Y-7000000D03*
X10550000Y-6500000D03*
X10550000Y-6000000D03*
X10550000Y-5500000D03*
X10550000Y-5000000D03*
X11000000Y-4550000D03*
X11500000Y-4550000D03*
X12000000Y-4550000D03*
X12500000Y-4550000D03*
X13000000Y-4550000D03*
X13500000Y-4550000D03*
X14000000Y-4550000D03*
X14500000Y-4550000D03*
X15000000Y-4550000D03*
X15500000Y-4550000D03*
X16000000Y-4550000D03*
X16500000Y-4550000D03*
X17000000Y-4550000D03*
X17500000Y-4550000D03*
X19450000Y-7500000D03*
X19450000Y-8000000D03*
X19450000Y-8500000D03*
X19450000Y-9000000D03*
X19450000Y-9500000D03*
X19450000Y-10000000D03*
X19450000Y-10500000D03*
D22*
X14535043Y-8157114D03*
X14464332Y-8227825D03*
X14535043Y-8298535D03*
X14605754Y-8227825D03*
X14676464Y-8157114D03*
X14747175Y-8227825D03*
X14676464Y-8298535D03*
X14605754Y-8369246D03*
X14676464Y-8439957D03*
X14747175Y-8369246D03*
X14817886Y-8298535D03*
X14888596Y-8369246D03*
X14817886Y-8439957D03*
X14747175Y-8510668D03*
X14888596Y-8510668D03*
X14464332Y-8086403D03*
X14570398Y-7980337D03*
X14358266Y-8192469D03*
X14340589Y-7962660D03*
X14446655Y-7856594D03*
X14234523Y-8068726D03*
X14994662Y-8404602D03*
X14782530Y-8616734D03*
X15012340Y-8634411D03*
X15118406Y-8528345D03*
X14906274Y-8740477D03*
X15005269Y-7969731D03*
X14920416Y-7969731D03*
X15005269Y-7884878D03*
X15090122Y-7969731D03*
X15005269Y-8054584D03*
X14344124Y-8630876D03*
X14259271Y-8630876D03*
X14344124Y-8715729D03*
X14428977Y-8630876D03*
X14344124Y-8546023D03*
X14180000Y-5930000D03*
X14109289Y-5859289D03*
X14250711Y-6000711D03*
X14038579Y-6071421D03*
X13967868Y-6000711D03*
X14038579Y-5930000D03*
X14109289Y-6142132D03*
X14109289Y-6000711D03*
X14180000Y-6071421D03*
X14180000Y-5788579D03*
X14250711Y-5859289D03*
X14321421Y-5930000D03*
X14392132Y-5859289D03*
X14321421Y-5788579D03*
X14250711Y-5717868D03*
X14392132Y-5717868D03*
X13967868Y-6142132D03*
X13851195Y-5601195D03*
X13766342Y-5601195D03*
X13851195Y-5516343D03*
X13936048Y-5601195D03*
X13851195Y-5686048D03*
X14512340Y-6262340D03*
X14427487Y-6262340D03*
X14512340Y-6177487D03*
X14512340Y-6347193D03*
X14597193Y-6262340D03*
X14073934Y-6248198D03*
X13950190Y-6371942D03*
X13844124Y-6265876D03*
X13738058Y-6159810D03*
X13861802Y-6036066D03*
X14286066Y-5611802D03*
X14409810Y-5488058D03*
X14515876Y-5594124D03*
X14621942Y-5700190D03*
X14498198Y-5823934D03*
X18072500Y-9810000D03*
X18143211Y-9880711D03*
X18218921Y-9820000D03*
X18284632Y-9739289D03*
X18213921Y-9668579D03*
X18143211Y-9597868D03*
X18072500Y-9668579D03*
X18143211Y-9739289D03*
X18001789Y-9739289D03*
X17931079Y-9810000D03*
X18001789Y-9880711D03*
X18072500Y-9951421D03*
X18001789Y-10022132D03*
X17931079Y-9951421D03*
X17860368Y-9880711D03*
X17860368Y-10022132D03*
X17966434Y-10128198D03*
X18390698Y-9703934D03*
X18284632Y-9597868D03*
X18178566Y-9491802D03*
X17754302Y-9916066D03*
X17740160Y-9477660D03*
X17825013Y-9477660D03*
X17740160Y-9562513D03*
X17655307Y-9477660D03*
X17740160Y-9392807D03*
X18401305Y-10138805D03*
X18486158Y-10138805D03*
X18401305Y-10223658D03*
X18316452Y-10138805D03*
X18401305Y-10053952D03*
X18408376Y-9474124D03*
X18302310Y-9368058D03*
X18514442Y-9580190D03*
X17736624Y-10145876D03*
X17630558Y-10039810D03*
X17842690Y-10251942D03*
X15701464Y-9313536D03*
X15630754Y-9242825D03*
X15772175Y-9242825D03*
X15701464Y-9172114D03*
X15560043Y-9313536D03*
X15630754Y-9384246D03*
X15701464Y-9454957D03*
X15772175Y-9384246D03*
X15842886Y-9313536D03*
X15842886Y-9454957D03*
X15772175Y-9525668D03*
X15913596Y-9384246D03*
X16019662Y-9419602D03*
X15913596Y-9525668D03*
X15807530Y-9631734D03*
X15931274Y-9755477D03*
X16037340Y-9649411D03*
X16143406Y-9543345D03*
X15560043Y-9172114D03*
X15489332Y-9242825D03*
X15630754Y-9101404D03*
X15595398Y-8995338D03*
X15471655Y-8871594D03*
X15365589Y-8977660D03*
X15489332Y-9101404D03*
X15383266Y-9207470D03*
X15259523Y-9083726D03*
X15369124Y-9645876D03*
X15369124Y-9561023D03*
X15284271Y-9645876D03*
X15369124Y-9730729D03*
X15453977Y-9645876D03*
X16030269Y-8984731D03*
X15945416Y-8984731D03*
X16030269Y-8899878D03*
X16115122Y-8984731D03*
X16030269Y-9069584D03*
D34*
X12912737Y-11001755D03*
X15525000Y-5965000D03*
X14350000Y-11700000D03*
X14100000Y-12025000D03*
X17760000Y-8650000D03*
X17810000Y-8600000D03*
X15360000Y-8260000D03*
X15740000Y-8640000D03*
X15670000Y-10150000D03*
X15530000Y-10000000D03*
X14590000Y-9210000D03*
X14530000Y-9270000D03*
X13030000Y-9050000D03*
X12930000Y-8960000D03*
X12700000Y-9260000D03*
X12840000Y-9400000D03*
X12710000Y-9540000D03*
X16600000Y-10890000D03*
X16660000Y-10830000D03*
X15830000Y-10290000D03*
X16070000Y-10290000D03*
X13630000Y-10360000D03*
X13590000Y-10140000D03*
X13870000Y-10410000D03*
X13450000Y-10280000D03*
X13720000Y-10550000D03*
X14980000Y-11340000D03*
X12460000Y-11540000D03*
X12200000Y-11800000D03*
X12172500Y-6932500D03*
X11597500Y-6960000D03*
X14000000Y-13000000D03*
X14000000Y-12500000D03*
X11000000Y-10000000D03*
X11000000Y-10500000D03*
X13500000Y-13000000D03*
X14475000Y-12400000D03*
X14730000Y-12050000D03*
X15250000Y-12050000D03*
X15750000Y-12050000D03*
X19192305Y-7750000D03*
X11350000Y-7550000D03*
X11350000Y-7020000D03*
X11350000Y-6450000D03*
X12100000Y-5700000D03*
X11850000Y-5950000D03*
X12300000Y-6000000D03*
X11650000Y-9550000D03*
X11975000Y-9225000D03*
X10850000Y-9275000D03*
X11175000Y-9550000D03*
X14475000Y-12800000D03*
X14725000Y-13125000D03*
X11450000Y-5225000D03*
X11444000Y-12331000D03*
X11444000Y-12781000D03*
X11669000Y-12556000D03*
X11219000Y-12556000D03*
X11284000Y-12396000D03*
X11604000Y-12396000D03*
X11604000Y-12716000D03*
X11284000Y-12716000D03*
X11604000Y-5284000D03*
X11219000Y-5444000D03*
X11444000Y-5669000D03*
X11284000Y-5284000D03*
X11284000Y-5604000D03*
X11669000Y-5444000D03*
X11604000Y-5604000D03*
X18716000Y-5284000D03*
X18331000Y-5444000D03*
X18556000Y-5669000D03*
X18396000Y-5604000D03*
X18556000Y-5219000D03*
X18781000Y-5444000D03*
X18716000Y-5604000D03*
X18716000Y-12716000D03*
X18781000Y-12556000D03*
X18716000Y-12396000D03*
X18331000Y-12556000D03*
X18556000Y-12331000D03*
X18396000Y-12396000D03*
X18556000Y-12781000D03*
X18396000Y-12716000D03*
X18396000Y-5284000D03*
X10560000Y-4560000D03*
X10560000Y-13440000D03*
X19440000Y-13440000D03*
X11620000Y-7360000D03*
X12770000Y-6290000D03*
X12950000Y-6300000D03*
X12730000Y-6400000D03*
X11925000Y-7700000D03*
X12155000Y-7945000D03*
X12740000Y-5700000D03*
X17060000Y-11010000D03*
X17270000Y-11110000D03*
X13740000Y-9320000D03*
X16200000Y-12050000D03*
X16700000Y-12050000D03*
X17180000Y-12050000D03*
X17460000Y-11770000D03*
X18040000Y-11190000D03*
X18040000Y-10910000D03*
X17760000Y-11470000D03*
X15150000Y-10350000D03*
X15700000Y-12240000D03*
X16870000Y-9540000D03*
X16920000Y-9490000D03*
X15360000Y-6270000D03*
X15410000Y-6220000D03*
X14520000Y-7110000D03*
X14470000Y-7160000D03*
X14140000Y-7740000D03*
X14090000Y-7690000D03*
X16310000Y-9910000D03*
X16260000Y-9860000D03*
X15610000Y-8770000D03*
X15230000Y-8390000D03*
X13580000Y-8480000D03*
X16710000Y-9790000D03*
X16890000Y-9790000D03*
X17090000Y-9990000D03*
X16620000Y-10070000D03*
X16620000Y-10330000D03*
X14960000Y-10960000D03*
X15390000Y-11160000D03*
X15130000Y-11130000D03*
X15160000Y-10740000D03*
X12680000Y-10440000D03*
X14790000Y-9730000D03*
X15710000Y-5965000D03*
X19190000Y-7930000D03*
X15510000Y-12240000D03*
X15620000Y-10230000D03*
X15565000Y-10285000D03*
X14805000Y-9275000D03*
X14980000Y-9445000D03*
X14620000Y-9080000D03*
X11720000Y-8390000D03*
X11720000Y-8170000D03*
X13520000Y-6210000D03*
X13890000Y-6590000D03*
X14190000Y-7090000D03*
X13920000Y-6840000D03*
X14190000Y-7430000D03*
X13730000Y-7910000D03*
X13950000Y-7660000D03*
X13730000Y-8170000D03*
X17400000Y-10090000D03*
X17790000Y-10470000D03*
X17790000Y-10660000D03*
X16540000Y-11700000D03*
X16610000Y-11630000D03*
X16680000Y-11560000D03*
X14920000Y-10822500D03*
X13895000Y-9810000D03*
X14185000Y-10092500D03*
X13150000Y-9100000D03*
X15512763Y-8325000D03*
X15675000Y-8485000D03*
X14870000Y-7100000D03*
X15330002Y-6634998D03*
X16945000Y-9135000D03*
X17420000Y-8660000D03*
X13120854Y-11609512D03*
X12371320Y-10859979D03*
X12719681Y-11205587D03*
X13215791Y-10855795D03*
X13480000Y-11280000D03*
X11997500Y-6300000D03*
X12740000Y-6850000D03*
X13797908Y-8436371D03*
X14363594Y-9702092D03*
X13730733Y-8503546D03*
X14296419Y-9769267D03*
X13143949Y-10785084D03*
X12730000Y-10550000D03*
X13550000Y-8652500D03*
X13252500Y-8945000D03*
X14572500Y-9675000D03*
X14270000Y-9980000D03*
X12688588Y-8908588D03*
X13642500Y-7845000D03*
X12621412Y-8841412D03*
X13547500Y-7845000D03*
X18600000Y-7980000D03*
D35*
X11753563Y-6915107D02*
X11804828Y-6966372D01*
X11804828Y-6966372D02*
X11840184Y-6966372D01*
D25*
X14913723Y-10520908D02*
X14917226Y-10520908D01*
X11753563Y-6915107D02*
X11691112Y-6852656D01*
X11691112Y-6852656D02*
X11690434Y-6852656D01*
D36*
X13378426Y-10214591D02*
X13379148Y-10214591D01*
X13785153Y-10621319D02*
X13784461Y-10621319D01*
X12796329Y-6668637D02*
X12796735Y-6668637D01*
X11845161Y-7616305D02*
X11845161Y-7616983D01*
X12560827Y-6900639D02*
X12561377Y-6900639D01*
D25*
X14544214Y-10339388D02*
X14544214Y-10339388D01*
X14940063Y-9943538D02*
X14939945Y-9943538D01*
X13528526Y-9323700D02*
X13528526Y-9323581D01*
X12665450Y-10860533D02*
X12765166Y-10960249D01*
X12765166Y-10960249D02*
X12774638Y-10960249D01*
X12700805Y-10825177D02*
X12774638Y-10899010D01*
X12774638Y-10899010D02*
X12774638Y-10960249D01*
D35*
X13090067Y-11179084D02*
X13002540Y-11091557D01*
X13090067Y-11179084D02*
X13090067Y-11179084D01*
D25*
X13760712Y-9364394D02*
X13760712Y-9367027D01*
X13061429Y-10938314D02*
X12955363Y-11044380D01*
X12849297Y-11150446D02*
X12955363Y-11044380D01*
X14682855Y-10477145D02*
X14780000Y-10380000D01*
X14681971Y-10477145D02*
X14682855Y-10477145D01*
D36*
X15600000Y-12050000D02*
X15450000Y-12050000D01*
X15605727Y-12055727D02*
X15600000Y-12050000D01*
X15673881Y-8703882D02*
X15676118Y-8703882D01*
X15446118Y-6306118D02*
X15446118Y-6303881D01*
X14556118Y-7196118D02*
X14553881Y-7196118D01*
X14176118Y-7653881D02*
X14173881Y-7653881D01*
D25*
X13666283Y-9461457D02*
X13668543Y-9461457D01*
X13668543Y-9461457D02*
X13770000Y-9360000D01*
X15121966Y-10315506D02*
X15121965Y-10315507D01*
X15121966Y-10312664D02*
X15121966Y-10315506D01*
D36*
X15296118Y-8323881D02*
X15360000Y-8260000D01*
X15296118Y-8326118D02*
X15296118Y-8323881D01*
X15232237Y-8390000D02*
X15296118Y-8326118D01*
X15230000Y-8390000D02*
X15232237Y-8390000D01*
X15610000Y-8767763D02*
X15673881Y-8703882D01*
X15610000Y-8770000D02*
X15610000Y-8767763D01*
X15737763Y-8640000D02*
X15673881Y-8703882D01*
X15740000Y-8640000D02*
X15737763Y-8640000D01*
X15510000Y-12240000D02*
X15605727Y-12240000D01*
X15605727Y-12240000D02*
X15700000Y-12240000D01*
X15617981Y-5965000D02*
X15525000Y-5965000D01*
X15617981Y-5965000D02*
X15710000Y-5965000D01*
X11720000Y-8280000D02*
X11720000Y-8170000D01*
X11720000Y-8280000D02*
X11720000Y-8390000D01*
X19192305Y-7927695D02*
X19190000Y-7930000D01*
X19192305Y-7840711D02*
X19192305Y-7927695D01*
D37*
X19192305Y-7840711D02*
X19192305Y-7750000D01*
D38*
X17459803Y-10421619D02*
X17110711Y-10770711D01*
X17459803Y-10410197D02*
X17459803Y-10421619D01*
X17260000Y-10920000D02*
X17110711Y-10770711D01*
X17350000Y-10920000D02*
X17260000Y-10920000D01*
X17568579Y-11141421D02*
X17568579Y-11138579D01*
X17568579Y-11138579D02*
X17350000Y-10920000D01*
X17568579Y-11151421D02*
X17331421Y-11388579D01*
X17568579Y-11141421D02*
X17568579Y-11151421D01*
X16827867Y-11409896D02*
X17003882Y-11233881D01*
X16825373Y-11409896D02*
X16827867Y-11409896D01*
X17176724Y-11233881D02*
X17331421Y-11388579D01*
X17003882Y-11233881D02*
X17176724Y-11233881D01*
X16825373Y-11414627D02*
X16540000Y-11700000D01*
X16825373Y-11409896D02*
X16825373Y-11414627D01*
D39*
X13897500Y-10095000D02*
X13897500Y-10105000D01*
X13897500Y-10105000D02*
X14036498Y-10243998D01*
X13897500Y-10095000D02*
X13890000Y-10095000D01*
X13890000Y-10095000D02*
X13752500Y-9957500D01*
D25*
X15026052Y-10223826D02*
X15026889Y-10223826D01*
X15026889Y-10223826D02*
X15123620Y-10127095D01*
X14107932Y-9111407D02*
X14107095Y-9111407D01*
X14107095Y-9111407D02*
X14012159Y-9206342D01*
D37*
X15026052Y-10421683D02*
X15026052Y-10223826D01*
X15051452Y-10447083D02*
X15026052Y-10421683D01*
X14920000Y-10822500D02*
X15051452Y-10691048D01*
X15051452Y-10691048D02*
X15051452Y-10447083D01*
X14036498Y-10243998D02*
X14036498Y-10241498D01*
X14012159Y-9692841D02*
X13932500Y-9772500D01*
X14012159Y-9206342D02*
X14012159Y-9692841D01*
X13932500Y-9772500D02*
X13895000Y-9810000D01*
X13752500Y-9952500D02*
X13895000Y-9810000D01*
X13752500Y-9957500D02*
X13752500Y-9952500D01*
X13897500Y-10092500D02*
X13897500Y-10095000D01*
X13954289Y-10035711D02*
X13897500Y-10092500D01*
X13897500Y-10095000D02*
X13825711Y-10166789D01*
X14036498Y-10243998D02*
X14185000Y-10095496D01*
X14185000Y-10095496D02*
X14185000Y-10092500D01*
X13142996Y-9100000D02*
X13150000Y-9100000D01*
D38*
X15313881Y-8523882D02*
X15403881Y-8433882D01*
X15313881Y-8556119D02*
X15313881Y-8523882D01*
X15476118Y-8686119D02*
X15566118Y-8596119D01*
X15443881Y-8686119D02*
X15476118Y-8686119D01*
X16846119Y-9226119D02*
X16726118Y-9346119D01*
X16406118Y-9666119D02*
X16403881Y-9666119D01*
X16726118Y-9346119D02*
X16406118Y-9666119D01*
X16333881Y-9596119D02*
X16403881Y-9666119D01*
X16403881Y-9666119D02*
X16453881Y-9716119D01*
X17621119Y-8461119D02*
X17501119Y-8581119D01*
X14663881Y-7303881D02*
X14783881Y-7183881D01*
X15433881Y-6533881D02*
X15553881Y-6413881D01*
X14354144Y-7613618D02*
X14351381Y-7613618D01*
X14663881Y-7303881D02*
X14354144Y-7613618D01*
X14283881Y-7546118D02*
X14351381Y-7613618D01*
X14351381Y-7613618D02*
X14403881Y-7666118D01*
X15403881Y-8433882D02*
X15512763Y-8325000D01*
X15566118Y-8596119D02*
X15566118Y-8593882D01*
X15566118Y-8593882D02*
X15675000Y-8485000D01*
X14867763Y-7100000D02*
X14870000Y-7100000D01*
X14783881Y-7183881D02*
X14867763Y-7100000D01*
X15433881Y-6533881D02*
X15332765Y-6634998D01*
X15332765Y-6634998D02*
X15330002Y-6634998D01*
X16937237Y-9135000D02*
X16846119Y-9226119D01*
X16945000Y-9135000D02*
X16937237Y-9135000D01*
X17501119Y-8581119D02*
X17498882Y-8581119D01*
X17498882Y-8581119D02*
X17420000Y-8660000D01*
X16450850Y-10681119D02*
X16274373Y-10857596D01*
X16451118Y-10681119D02*
X16450850Y-10681119D01*
X16501364Y-9763601D02*
X16501601Y-9763601D01*
X16453881Y-9716119D02*
X16501364Y-9763601D01*
X16501601Y-9763601D02*
X16744000Y-10006000D01*
X16744000Y-10388237D02*
X16451118Y-10681119D01*
X16744000Y-10006000D02*
X16744000Y-10388237D01*
D37*
X13150000Y-9120650D02*
X13032825Y-9237825D01*
X13150000Y-9100000D02*
X13150000Y-9120650D01*
X13012009Y-9237825D02*
X12872092Y-9097908D01*
X13032825Y-9237825D02*
X13012009Y-9237825D01*
X14786002Y-10956498D02*
X14920000Y-10822500D01*
X15605800Y-11465800D02*
X15510000Y-11465800D01*
X15672648Y-11532648D02*
X15605800Y-11465800D01*
X15510000Y-11465800D02*
X15297180Y-11252980D01*
X15297180Y-11252980D02*
X15072980Y-11252980D01*
X15072980Y-11252980D02*
X14786002Y-10966002D01*
X14786002Y-10966002D02*
X14786002Y-10956498D01*
D38*
X15845296Y-11360000D02*
X15672648Y-11532648D01*
X16052648Y-11079321D02*
X16052648Y-11152648D01*
X16274373Y-10857596D02*
X16052648Y-11079321D01*
X16052648Y-11152648D02*
X15845296Y-11360000D01*
D37*
X11918772Y-6624409D02*
X11983578Y-6689215D01*
D36*
X13120854Y-11599008D02*
X13120854Y-11609512D01*
D35*
X11995747Y-6775453D02*
X11995747Y-6773570D01*
X11962160Y-6809041D02*
X11995747Y-6775453D01*
X11995747Y-6773570D02*
X12012494Y-6756822D01*
X12012494Y-6756822D02*
X12012494Y-6722596D01*
X12012494Y-6722596D02*
X11983578Y-6693680D01*
D25*
X12813942Y-11115091D02*
X12723446Y-11205587D01*
X12723446Y-11205587D02*
X12719681Y-11205587D01*
D37*
X13158353Y-11647012D02*
X13120854Y-11609512D01*
X13306341Y-11795000D02*
X13158353Y-11647012D01*
X13545719Y-11795000D02*
X13306341Y-11795000D01*
X15358140Y-11448560D02*
X13892159Y-11448560D01*
X13892159Y-11448560D02*
X13545719Y-11795000D01*
X12837648Y-8909852D02*
X12837648Y-8779852D01*
X12555000Y-9192500D02*
X12837648Y-8909852D01*
X12555000Y-10155000D02*
X12555000Y-9192500D01*
X12300610Y-10409390D02*
X12555000Y-10155000D01*
X12371320Y-10859979D02*
X12300610Y-10789268D01*
X12300610Y-10789268D02*
X12300610Y-10409390D01*
D25*
X13183663Y-11441163D02*
X13247908Y-11505408D01*
X13139211Y-11334294D02*
X13183663Y-11378746D01*
X13183663Y-11378746D02*
X13183663Y-11441163D01*
X13143803Y-11609512D02*
X13247908Y-11505408D01*
X13120854Y-11609512D02*
X13143803Y-11609512D01*
X12719681Y-11280319D02*
X12634592Y-11365408D01*
X12719681Y-11205587D02*
X12719681Y-11280319D01*
D37*
X11480366Y-6904897D02*
X11841381Y-6543881D01*
X12837648Y-8779852D02*
X11480366Y-7422570D01*
X11480366Y-7422570D02*
X11480366Y-6904897D01*
X11918772Y-6621272D02*
X11841381Y-6543881D01*
X11918772Y-6624409D02*
X11918772Y-6621272D01*
X11841381Y-6543881D02*
X11925000Y-6460263D01*
X11925000Y-6460263D02*
X11925000Y-6415000D01*
X11818571Y-6308571D02*
X11818571Y-6208447D01*
X11925000Y-6415000D02*
X11818571Y-6308571D01*
D38*
X14117352Y-8358889D02*
X14222589Y-8464126D01*
X14117352Y-8317352D02*
X14117352Y-8358889D01*
D36*
X13091057Y-10036682D02*
X13162899Y-10108525D01*
X13162899Y-10108525D02*
X13272359Y-10108525D01*
X13218761Y-9908979D02*
X13091057Y-10036682D01*
D25*
X13620483Y-9415658D02*
X13530818Y-9505323D01*
X13530818Y-9505323D02*
X13530818Y-9511670D01*
D36*
X13430893Y-9696847D02*
X13360182Y-9767558D01*
X13530818Y-9511670D02*
X13430893Y-9611595D01*
X13430893Y-9611595D02*
X13430893Y-9696847D01*
X13360182Y-9767558D02*
X13362445Y-9767558D01*
X13360182Y-9795182D02*
X13360182Y-9767558D01*
X13575650Y-9840000D02*
X13617825Y-9797825D01*
X13398966Y-9840000D02*
X13575650Y-9840000D01*
X13339041Y-9780075D02*
X13398966Y-9840000D01*
X13963061Y-10908687D02*
X13891219Y-10836845D01*
X13891219Y-10836845D02*
X13891219Y-10727385D01*
X14089633Y-10782114D02*
X13963061Y-10908687D01*
D25*
X14590193Y-10385367D02*
X14502082Y-10473477D01*
X14502082Y-10473477D02*
X14492624Y-10473477D01*
D36*
X14396119Y-10569982D02*
X14492624Y-10473477D01*
X14231055Y-10640693D02*
X14301765Y-10569982D01*
X14301765Y-10569982D02*
X14396119Y-10569982D01*
X14208193Y-10640693D02*
X14231055Y-10640693D01*
X14150000Y-10426850D02*
X14184675Y-10392175D01*
X14214225Y-10657522D02*
X14150000Y-10593297D01*
X14150000Y-10593297D02*
X14150000Y-10426850D01*
X14106745Y-11052371D02*
X14178587Y-11124213D01*
X14178587Y-11124213D02*
X14288048Y-11124213D01*
X14234449Y-10924667D02*
X14106746Y-11052371D01*
X14106746Y-11052371D02*
X14106745Y-11052371D01*
X17226382Y-8856119D02*
X17158882Y-8788619D01*
X17291119Y-8856119D02*
X17226382Y-8856119D01*
X16890263Y-8520000D02*
X17158882Y-8788619D01*
X16711200Y-8520000D02*
X16890263Y-8520000D01*
D38*
X15147352Y-9384341D02*
X15242795Y-9479783D01*
X15147352Y-9327352D02*
X15147352Y-9384341D01*
D25*
X13214660Y-10855795D02*
X13215791Y-10855795D01*
X13096785Y-10973670D02*
X13214660Y-10855795D01*
X13377457Y-11360408D02*
X13245277Y-11228228D01*
X13395408Y-11360408D02*
X13377457Y-11360408D01*
X13395408Y-11344592D02*
X13395408Y-11360408D01*
X13395408Y-11360408D02*
X13475815Y-11280000D01*
X13475815Y-11280000D02*
X13480000Y-11280000D01*
D38*
X16432052Y-10380711D02*
X16288881Y-10523882D01*
X16435711Y-10380711D02*
X16432052Y-10380711D01*
X16117802Y-10694961D02*
X16288881Y-10523882D01*
X16111739Y-10694961D02*
X16117802Y-10694961D01*
X16154523Y-11630000D02*
X16217261Y-11692739D01*
X15807352Y-11667352D02*
X15844704Y-11630000D01*
X15844704Y-11630000D02*
X16154523Y-11630000D01*
X16217261Y-11692739D02*
X16662739Y-11247261D01*
X16943211Y-10902315D02*
X16807763Y-11037763D01*
X16943211Y-10900711D02*
X16943211Y-10902315D01*
X16807763Y-11037763D02*
X16750000Y-11095526D01*
X16750000Y-11160000D02*
X16662739Y-11247261D01*
X16750000Y-11095526D02*
X16750000Y-11160000D01*
D36*
X12087176Y-6210324D02*
X11997500Y-6300000D01*
X12087176Y-6207998D02*
X12087176Y-6210324D01*
X12087176Y-6207645D02*
X11953275Y-6073743D01*
X12087176Y-6207998D02*
X12087176Y-6207645D01*
X11956257Y-6073743D02*
X12081789Y-5948211D01*
X11953275Y-6073743D02*
X11956257Y-6073743D01*
X12674458Y-6790200D02*
X12680200Y-6790200D01*
X12702500Y-6812500D02*
X12740000Y-6850000D01*
X12680200Y-6790200D02*
X12702500Y-6812500D01*
D25*
X12454761Y-7006705D02*
X12584650Y-7136594D01*
X12584650Y-7136594D02*
X12584650Y-7141795D01*
X12389028Y-6940972D02*
X12291894Y-6940972D01*
X12454761Y-7006705D02*
X12389028Y-6940972D01*
X12291894Y-6940972D02*
X12171244Y-7061622D01*
X12171244Y-7061622D02*
X12112211Y-7061622D01*
X12112211Y-7061622D02*
X12068226Y-7017638D01*
X12813262Y-7384549D02*
X12726072Y-7297359D01*
X12726072Y-7297359D02*
X12726072Y-7283216D01*
X12679619Y-7519607D02*
X12591721Y-7431709D01*
X12591721Y-7431709D02*
X12577579Y-7431709D01*
X12304407Y-7048922D02*
X12358476Y-7102991D01*
X12253794Y-7048922D02*
X12304407Y-7048922D01*
X12190294Y-7112422D02*
X12253794Y-7048922D01*
X12032870Y-7052993D02*
X12092300Y-7112422D01*
X12092300Y-7112422D02*
X12190294Y-7112422D01*
X12470000Y-7214515D02*
X12358476Y-7102991D01*
X12452987Y-7307117D02*
X12470000Y-7290104D01*
X12470000Y-7290104D02*
X12470000Y-7214515D01*
D35*
X12092811Y-6672188D02*
X12092811Y-6672039D01*
X12075000Y-6690000D02*
X12092811Y-6672188D01*
X11997515Y-6844396D02*
X12075000Y-6766911D01*
X12075000Y-6766911D02*
X12075000Y-6690000D01*
D25*
X12299748Y-6463406D02*
X12299748Y-6434353D01*
X12091963Y-6671191D02*
X12299748Y-6463406D01*
D38*
X14577352Y-6977352D02*
X14676118Y-7076118D01*
D25*
X12831598Y-8471669D02*
X12837651Y-8474584D01*
X12826346Y-8467481D02*
X12831598Y-8471669D01*
X13430213Y-8793459D02*
X13479710Y-8793459D01*
X12822158Y-8462229D02*
X12826346Y-8467481D01*
X12819243Y-8456176D02*
X12822158Y-8462229D01*
X12817748Y-8449627D02*
X12819243Y-8456176D01*
X12822158Y-8430307D02*
X12819243Y-8436359D01*
X12826346Y-8425054D02*
X12822158Y-8430307D01*
X13047569Y-8193275D02*
X13040245Y-8208483D01*
X13178747Y-8264106D02*
X13185285Y-8270643D01*
X13051325Y-8159940D02*
X13051325Y-8176819D01*
X13051325Y-8176819D02*
X13047569Y-8193275D01*
X13047569Y-8143484D02*
X13051325Y-8159940D01*
X13040245Y-8128276D02*
X13047569Y-8143484D01*
X13029721Y-8115080D02*
X13040245Y-8128276D01*
X13023184Y-8108542D02*
X13029721Y-8115080D01*
X12994779Y-8090695D02*
X13009987Y-8098018D01*
X13009987Y-8098018D02*
X13023184Y-8108542D01*
X12961444Y-8086939D02*
X12978323Y-8086939D01*
X12944988Y-8090695D02*
X12961444Y-8086939D01*
X12916584Y-8108542D02*
X12929781Y-8098018D01*
X13117008Y-8242502D02*
X13133887Y-8242502D01*
X12707957Y-8316106D02*
X12713209Y-8311917D01*
X12868772Y-8467481D02*
X13072147Y-8264106D01*
X12701904Y-8319021D02*
X12707957Y-8316106D01*
X12688637Y-8320515D02*
X12695355Y-8320515D01*
X12682087Y-8319021D02*
X12688637Y-8320515D01*
X12676035Y-8316106D02*
X12682087Y-8319021D01*
X12670783Y-8311917D02*
X12676035Y-8316106D01*
X12666594Y-8306665D02*
X12670783Y-8311917D01*
X12663679Y-8300612D02*
X12666594Y-8306665D01*
X12662184Y-8294063D02*
X12663679Y-8300612D01*
X12662184Y-8287345D02*
X12662184Y-8294063D01*
X13029721Y-8221679D02*
X12826346Y-8425054D01*
X12666594Y-8274743D02*
X12663679Y-8280796D01*
X12670783Y-8269491D02*
X12666594Y-8274743D01*
X12874157Y-8066116D02*
X12670783Y-8269491D01*
X12884681Y-8052919D02*
X12874157Y-8066116D01*
X12892005Y-8037712D02*
X12884681Y-8052919D01*
X12895761Y-8021256D02*
X12892005Y-8037712D01*
X12895761Y-8004376D02*
X12895761Y-8021256D01*
X13185285Y-8270643D02*
X13195808Y-8283840D01*
X12892005Y-7987921D02*
X12895761Y-8004376D01*
X12884681Y-7972713D02*
X12892005Y-7987921D01*
X12874158Y-7959516D02*
X12884681Y-7972713D01*
X13203132Y-8299048D02*
X13206888Y-8315503D01*
X12867620Y-7952979D02*
X12874158Y-7959516D01*
X12839216Y-7935131D02*
X12854423Y-7942455D01*
X12822760Y-7931375D02*
X12839216Y-7935131D01*
X12805881Y-7931375D02*
X12822760Y-7931375D01*
X12789425Y-7935131D02*
X12805881Y-7931375D01*
X12774217Y-7942455D02*
X12789425Y-7935131D01*
X12696589Y-8017410D02*
X12761020Y-7952979D01*
X12691337Y-8021598D02*
X12696589Y-8017410D01*
X12685285Y-8024513D02*
X12691337Y-8021598D01*
X12678735Y-8026008D02*
X12685285Y-8024513D01*
X12665468Y-8024513D02*
X12672017Y-8026008D01*
X12659415Y-8021598D02*
X12665468Y-8024513D01*
X12654163Y-8017410D02*
X12659415Y-8021598D01*
X13116665Y-8446926D02*
X13113750Y-8452979D01*
X12640021Y-8003268D02*
X12654163Y-8017410D01*
X12640021Y-7904273D02*
X12640021Y-8003268D01*
X12586988Y-7851240D02*
X12640021Y-7904273D01*
X12837651Y-8474584D02*
X12844200Y-8476079D01*
X12695355Y-8320515D02*
X12701904Y-8319021D01*
X13040245Y-8208483D02*
X13029721Y-8221679D01*
X12817748Y-8442909D02*
X12817748Y-8449627D01*
X13195808Y-8283840D02*
X13203132Y-8299048D01*
X13100552Y-8246258D02*
X13117008Y-8242502D01*
X12672017Y-8026008D02*
X12678735Y-8026008D01*
X13116665Y-8478848D02*
X13120854Y-8484100D01*
X12863520Y-8471669D02*
X12868772Y-8467481D01*
X12663679Y-8280796D02*
X12662184Y-8287345D01*
X12854423Y-7942455D02*
X12867620Y-7952979D01*
X13133887Y-8242502D02*
X13150343Y-8246258D01*
X12978323Y-8086939D02*
X12994779Y-8090695D01*
X12929781Y-8098018D02*
X12944988Y-8090695D01*
X12713209Y-8311917D02*
X12916584Y-8108542D01*
X13120854Y-8441674D02*
X13116665Y-8446926D01*
X12844200Y-8476079D02*
X12850918Y-8476079D01*
X13165550Y-8253582D02*
X13178747Y-8264106D01*
X12819243Y-8436359D02*
X12817748Y-8442909D01*
X12761020Y-7952979D02*
X12774217Y-7942455D01*
X13085344Y-8253582D02*
X13100552Y-8246258D01*
X13150343Y-8246258D02*
X13165550Y-8253582D01*
X12850918Y-8476079D02*
X12857468Y-8474584D01*
X12857468Y-8474584D02*
X12863520Y-8471669D01*
X13072147Y-8264106D02*
X13085344Y-8253582D01*
X13206888Y-8315503D02*
X13206888Y-8332383D01*
X13206888Y-8332383D02*
X13203132Y-8348839D01*
X13203132Y-8348839D02*
X13195808Y-8364046D01*
X13195808Y-8364046D02*
X13185284Y-8377243D01*
X13185284Y-8377243D02*
X13120854Y-8441674D01*
X13113750Y-8452979D02*
X13112255Y-8459528D01*
X13112255Y-8459528D02*
X13112255Y-8466246D01*
X13112255Y-8466246D02*
X13113750Y-8472795D01*
X13113750Y-8472795D02*
X13116665Y-8478848D01*
X13120854Y-8484100D02*
X13430213Y-8793459D01*
X13479710Y-8793459D02*
X13527440Y-8841189D01*
X13638555Y-9003824D02*
X13894979Y-9260248D01*
X13638555Y-8952304D02*
X13638555Y-9003824D01*
X13894979Y-9260248D02*
X13894979Y-9414102D01*
X13894979Y-9414102D02*
X13758061Y-9551020D01*
X13758061Y-9551020D02*
X13758061Y-9553235D01*
X13527440Y-8841189D02*
X13638555Y-8952304D01*
X13104234Y-8302730D02*
X13109486Y-8298541D01*
X12872455Y-8523952D02*
X12887662Y-8516629D01*
X12900859Y-8506105D02*
X13104234Y-8302730D01*
X12822664Y-8523952D02*
X12839120Y-8527708D01*
X13064382Y-8437992D02*
X13060626Y-8454448D01*
X12766118Y-8454707D02*
X12769874Y-8471163D01*
X12769874Y-8421372D02*
X12766118Y-8437828D01*
X12610555Y-8282264D02*
X12610555Y-8299144D01*
X12777198Y-8406164D02*
X12769874Y-8421372D01*
X12787722Y-8392968D02*
X12777198Y-8406164D01*
X12991097Y-8189593D02*
X12787722Y-8392968D01*
X12769874Y-8471163D02*
X12777198Y-8486371D01*
X12999695Y-8171739D02*
X12998200Y-8178288D01*
X12995285Y-8152419D02*
X12998200Y-8158471D01*
X12991097Y-8147166D02*
X12995285Y-8152419D01*
X12999695Y-8165021D02*
X12999695Y-8171739D01*
X12979792Y-8140063D02*
X12985845Y-8142978D01*
X12973243Y-8138568D02*
X12979792Y-8140063D01*
X12766118Y-8437828D02*
X12766118Y-8454707D01*
X12966525Y-8138568D02*
X12973243Y-8138568D01*
X12953923Y-8142978D02*
X12959975Y-8140063D01*
X12839120Y-8527708D02*
X12855999Y-8527708D01*
X12745296Y-8350541D02*
X12948671Y-8147166D01*
X12732099Y-8361065D02*
X12745296Y-8350541D01*
X13150849Y-8339904D02*
X13146660Y-8345156D01*
X12700435Y-8372145D02*
X12716891Y-8368389D01*
X13082229Y-8409587D02*
X13071705Y-8422784D01*
X12716891Y-8368389D02*
X12732099Y-8361065D01*
X13394857Y-8878312D02*
X13442587Y-8926042D01*
X12667100Y-8368389D02*
X12683556Y-8372145D01*
X12651893Y-8361065D02*
X12667100Y-8368389D01*
X12638696Y-8350541D02*
X12651893Y-8361065D01*
X12887662Y-8516629D02*
X12900859Y-8506105D01*
X12985845Y-8142978D02*
X12991097Y-8147166D01*
X12728676Y-8056034D02*
X12793107Y-7991603D01*
X12666937Y-8077637D02*
X12683816Y-8077637D01*
X12777198Y-8486371D02*
X12787722Y-8499567D01*
X12798359Y-7987414D02*
X12804412Y-7984500D01*
X12715479Y-8066558D02*
X12728676Y-8056034D01*
X12683556Y-8372145D02*
X12700435Y-8372145D01*
X12683816Y-8077637D02*
X12700272Y-8073881D01*
X12650481Y-8073881D02*
X12666937Y-8077637D01*
X12635273Y-8066558D02*
X12650481Y-8073881D01*
X12787722Y-8499567D02*
X12794259Y-8506105D01*
X12839722Y-8028777D02*
X12835533Y-8034029D01*
X12998200Y-8158471D02*
X12999695Y-8165021D01*
X12621635Y-8330807D02*
X12632159Y-8344004D01*
X12998200Y-8178288D02*
X12995285Y-8184341D01*
X12622076Y-8056034D02*
X12635273Y-8066558D01*
X12794259Y-8506105D02*
X12807456Y-8516629D01*
X12844132Y-8009457D02*
X12844132Y-8016175D01*
X12842637Y-8022724D02*
X12839722Y-8028777D01*
X12793107Y-7991603D02*
X12798359Y-7987414D01*
X13155259Y-8327302D02*
X13153764Y-8333851D01*
X12632159Y-8344004D02*
X12638696Y-8350541D01*
X12604666Y-8038623D02*
X12622076Y-8056034D01*
X12614311Y-8315600D02*
X12621635Y-8330807D01*
X12959975Y-8140063D02*
X12966525Y-8138568D01*
X12452638Y-7985590D02*
X12505671Y-8038623D01*
X12817679Y-7983005D02*
X12824229Y-7984500D01*
X12614311Y-8265808D02*
X12610555Y-8282264D01*
X12505671Y-8038623D02*
X12604666Y-8038623D01*
X13064382Y-8487783D02*
X13071705Y-8502990D01*
X12855999Y-8527708D02*
X12872455Y-8523952D01*
X12700272Y-8073881D02*
X12715479Y-8066558D01*
X12995285Y-8184341D02*
X12991097Y-8189593D01*
X12835533Y-7991603D02*
X12839722Y-7996855D01*
X12804412Y-7984500D02*
X12810961Y-7983005D01*
X12810961Y-7983005D02*
X12817679Y-7983005D01*
X12824229Y-7984500D02*
X12830281Y-7987414D01*
X12621635Y-8250601D02*
X12614311Y-8265808D01*
X12844132Y-8016175D02*
X12842637Y-8022724D01*
X12839722Y-7996855D02*
X12842637Y-8002908D01*
X13146660Y-8345156D02*
X13082229Y-8409587D01*
X12807456Y-8516629D02*
X12822664Y-8523952D01*
X12842637Y-8002908D02*
X12844132Y-8009457D01*
X13109486Y-8298541D02*
X13115539Y-8295627D01*
X12835533Y-8034029D02*
X12632159Y-8237404D01*
X12948671Y-8147166D02*
X12953923Y-8142978D01*
X12632159Y-8237404D02*
X12621635Y-8250601D01*
X12830281Y-7987414D02*
X12835533Y-7991603D01*
X13135356Y-8295627D02*
X13141408Y-8298541D01*
X13128806Y-8294132D02*
X13135356Y-8295627D01*
X12610555Y-8299144D02*
X12614311Y-8315600D01*
X13115539Y-8295627D02*
X13122088Y-8294132D01*
X13122088Y-8294132D02*
X13128806Y-8294132D01*
X13141408Y-8298541D02*
X13146660Y-8302730D01*
X13146660Y-8302730D02*
X13150849Y-8307982D01*
X13150849Y-8307982D02*
X13153764Y-8314035D01*
X13153764Y-8314035D02*
X13155259Y-8320584D01*
X13155259Y-8320584D02*
X13155259Y-8327302D01*
X13071705Y-8422784D02*
X13064382Y-8437992D01*
X13153764Y-8333851D02*
X13150849Y-8339904D01*
X13060626Y-8454448D02*
X13060626Y-8471327D01*
X13060626Y-8471327D02*
X13064382Y-8487783D01*
X13071705Y-8502990D02*
X13082230Y-8516187D01*
X13082230Y-8516187D02*
X13394857Y-8828815D01*
X13394857Y-8828815D02*
X13394857Y-8878312D01*
X13442587Y-8926042D02*
X13555724Y-9039179D01*
X13555724Y-9039179D02*
X13603199Y-9039179D01*
X13603199Y-9039179D02*
X13844979Y-9280959D01*
X13844979Y-9280959D02*
X13844979Y-9379249D01*
X13844979Y-9379249D02*
X13716972Y-9507256D01*
X13716972Y-9507256D02*
X13712082Y-9507256D01*
X14710970Y-10078965D02*
X14710970Y-10029886D01*
X14925424Y-10417249D02*
X14925424Y-10293418D01*
X14710970Y-10029886D02*
X14663241Y-9982157D01*
X14773749Y-10568923D02*
X14925424Y-10417249D01*
X14925424Y-10293418D02*
X14710970Y-10078965D01*
X12935238Y-7506525D02*
X12995342Y-7566629D01*
X12995342Y-7566629D02*
X12995342Y-7665624D01*
X12995342Y-7665624D02*
X13766088Y-8436371D01*
X13766088Y-8436371D02*
X13797908Y-8436371D01*
X14448446Y-9818764D02*
X14363594Y-9733912D01*
X14363594Y-9733912D02*
X14363594Y-9702092D01*
X14505015Y-9818764D02*
X14448446Y-9818764D01*
X14552745Y-9866494D02*
X14505015Y-9818764D01*
X14665882Y-9979631D02*
X14552745Y-9866494D01*
X14875424Y-10375291D02*
X14875424Y-10314129D01*
X14727770Y-10522944D02*
X14875424Y-10375291D01*
X14875424Y-10314129D02*
X14675615Y-10114320D01*
X14675615Y-10114320D02*
X14626536Y-10114320D01*
X14626536Y-10114320D02*
X14578807Y-10066591D01*
X12800888Y-7640875D02*
X12860992Y-7700979D01*
X12860992Y-7700979D02*
X12959987Y-7700979D01*
X12959987Y-7700979D02*
X13730733Y-8471726D01*
X13730733Y-8471726D02*
X13730733Y-8503546D01*
X14413091Y-9854120D02*
X14328238Y-9769267D01*
X14328238Y-9769267D02*
X14296419Y-9769267D01*
X14460821Y-9958418D02*
X14413091Y-9910688D01*
X14413091Y-9910688D02*
X14413091Y-9854120D01*
X14573958Y-10071555D02*
X14460821Y-9958418D01*
D36*
X11520000Y-8185000D02*
X11350000Y-8185000D01*
X11350000Y-8375000D02*
X11520000Y-8375000D01*
D25*
X13143949Y-10785084D02*
X13143949Y-10783953D01*
X13026074Y-10902959D02*
X13143949Y-10785084D01*
X12771515Y-10752769D02*
X12650035Y-10631289D01*
X12771515Y-10754467D02*
X12771515Y-10752769D01*
X12730000Y-10551324D02*
X12730000Y-10550000D01*
X12650035Y-10631289D02*
X12730000Y-10551324D01*
X14127944Y-8999796D02*
X14150455Y-8999796D01*
X14062132Y-9065607D02*
X14127944Y-8999796D01*
X14150455Y-8999796D02*
X14177396Y-8972855D01*
D36*
X14297500Y-8975000D02*
X14374289Y-9051789D01*
X14179541Y-8975000D02*
X14297500Y-8975000D01*
X12947373Y-9892998D02*
X12875531Y-9821156D01*
X12875531Y-9821156D02*
X12875531Y-9711696D01*
X13075077Y-9765295D02*
X12947373Y-9892998D01*
X13194225Y-9637522D02*
X13130000Y-9573297D01*
X13130000Y-9406850D02*
X13164675Y-9372175D01*
X13130000Y-9573297D02*
X13130000Y-9406850D01*
D25*
X13574505Y-9369679D02*
X13486394Y-9457789D01*
X13486394Y-9457789D02*
X13476936Y-9457789D01*
D36*
X13381562Y-9553163D02*
X13476936Y-9457789D01*
X13216498Y-9623874D02*
X13287209Y-9553163D01*
X13287209Y-9553163D02*
X13381562Y-9553163D01*
D25*
X13216498Y-9621611D02*
X13216498Y-9623873D01*
D36*
X13191373Y-9623874D02*
X13216498Y-9623874D01*
D25*
X14636172Y-10431346D02*
X14546506Y-10521011D01*
X14546506Y-10521011D02*
X14546506Y-10527359D01*
D36*
X14446581Y-10712535D02*
X14364558Y-10794558D01*
X14546506Y-10527359D02*
X14446581Y-10627284D01*
X14446581Y-10627284D02*
X14446581Y-10712535D01*
X14595650Y-10860000D02*
X14637825Y-10817825D01*
X14359041Y-10800075D02*
X14418966Y-10860000D01*
X14418966Y-10860000D02*
X14595650Y-10860000D01*
D25*
X15141836Y-10017280D02*
X15164348Y-10017280D01*
X15164348Y-10017280D02*
X15191288Y-9990339D01*
X15076025Y-10083091D02*
X15141836Y-10017280D01*
D36*
X15322500Y-9990000D02*
X15406789Y-10074289D01*
D25*
X15322161Y-9990339D02*
X15322500Y-9990000D01*
X15191288Y-9990339D02*
X15322161Y-9990339D01*
X12056944Y-7147777D02*
X12056944Y-7239422D01*
X11997515Y-7088348D02*
X12056944Y-7147777D01*
X12056944Y-7239422D02*
X11993444Y-7302922D01*
X11993444Y-7302922D02*
X11993444Y-7358188D01*
X11993444Y-7358188D02*
X12048361Y-7413105D01*
X12148559Y-7515000D02*
X12047513Y-7413954D01*
X12253799Y-7503909D02*
X12242708Y-7515000D01*
X12242708Y-7515000D02*
X12148559Y-7515000D01*
X12480922Y-7745174D02*
X12378391Y-7642643D01*
X12378391Y-7642643D02*
X12378391Y-7628501D01*
D35*
X12191895Y-6778105D02*
X12198877Y-6778105D01*
X12175000Y-6795000D02*
X12191895Y-6778105D01*
X12032870Y-6879752D02*
X12117622Y-6795000D01*
X12117622Y-6795000D02*
X12175000Y-6795000D01*
D25*
X12411327Y-6567353D02*
X12435448Y-6567353D01*
X12199726Y-6778954D02*
X12411327Y-6567353D01*
X12006145Y-7167688D02*
X12006145Y-7222930D01*
X11962160Y-7123704D02*
X12006145Y-7167688D01*
X12006145Y-7222930D02*
X11883417Y-7345658D01*
X11883417Y-7345658D02*
X11883417Y-7442429D01*
X11883417Y-7442429D02*
X11912337Y-7471348D01*
X11951227Y-7510239D02*
X12077758Y-7636770D01*
X12077758Y-7636770D02*
X12089675Y-7636770D01*
X11951227Y-7510239D02*
X11912337Y-7471348D01*
X11912337Y-7471348D02*
X11911427Y-7471348D01*
X12346572Y-7879524D02*
X12245239Y-7778191D01*
X12245239Y-7778191D02*
X12231097Y-7778191D01*
D36*
X18807604Y-7745711D02*
X18962305Y-7745711D01*
X18807604Y-7935711D02*
X18962305Y-7935711D01*
X15700727Y-12610467D02*
X15700727Y-12472060D01*
X15510727Y-12610467D02*
X15510727Y-12472060D01*
X15522981Y-5734521D02*
X15522981Y-5595110D01*
X15712981Y-5734521D02*
X15712981Y-5595110D01*
D38*
X15227352Y-6327352D02*
X15326118Y-6426118D01*
D36*
X12746087Y-10094285D02*
X12746087Y-10340209D01*
X12841307Y-9999064D02*
X12746087Y-10094285D01*
X12746087Y-10340209D02*
X12986543Y-10580665D01*
X12986543Y-10580665D02*
X12986543Y-10660749D01*
X12986543Y-10660749D02*
X12978797Y-10668494D01*
D25*
X12909401Y-10736789D02*
X12976517Y-10669674D01*
X12976517Y-10669674D02*
X12976517Y-10668568D01*
X12647772Y-10998419D02*
X12599979Y-11046211D01*
D36*
X12596190Y-11050000D02*
X12599979Y-11046211D01*
X12437252Y-11056005D02*
X12443257Y-11050000D01*
X12443257Y-11050000D02*
X12596190Y-11050000D01*
D25*
X12718482Y-11069129D02*
X12670690Y-11116922D01*
D36*
X12614863Y-11172749D02*
X12670690Y-11116922D01*
X12553995Y-11172749D02*
X12614863Y-11172749D01*
X13092569Y-10696199D02*
X13092569Y-10548852D01*
X13048359Y-10740410D02*
X13092569Y-10696199D01*
X13092569Y-10548852D02*
X12911180Y-10367463D01*
X12911180Y-10367463D02*
X12911180Y-10216560D01*
X12911180Y-10216560D02*
X12984991Y-10142749D01*
D25*
X12980112Y-10807500D02*
X13022538Y-10765073D01*
X13022538Y-10765073D02*
X13023695Y-10765073D01*
X13023695Y-10765073D02*
X13048359Y-10740410D01*
D36*
X13778633Y-11093115D02*
X13636832Y-11093115D01*
X13856995Y-11014753D02*
X13778633Y-11093115D01*
X13636832Y-11093115D02*
X13453194Y-10909477D01*
X13453194Y-10909477D02*
X13302399Y-10909477D01*
X13302399Y-10909477D02*
X13259395Y-10952481D01*
D25*
X13192244Y-11019632D02*
X13259395Y-10952481D01*
X13259395Y-10952481D02*
X13259395Y-10951446D01*
X12930614Y-11281261D02*
X12882822Y-11329054D01*
D36*
X12823403Y-11388472D02*
X12882822Y-11329054D01*
X12823403Y-11449340D02*
X12823403Y-11388472D01*
D25*
X13001325Y-11351972D02*
X12953532Y-11399765D01*
D36*
X12950000Y-11403297D02*
X12953532Y-11399765D01*
X12940147Y-11566084D02*
X12950000Y-11556230D01*
X12950000Y-11556230D02*
X12950000Y-11403297D01*
X13903157Y-11255959D02*
X13658255Y-11255959D01*
X14000679Y-11158437D02*
X13903157Y-11255959D01*
X13658255Y-11255959D02*
X13417838Y-11015543D01*
X13417838Y-11015543D02*
X13337754Y-11015543D01*
X13337754Y-11015543D02*
X13330009Y-11023288D01*
D25*
X13262955Y-11090342D02*
X13330009Y-11023288D01*
X13330009Y-11023288D02*
X13331237Y-11023288D01*
D36*
X13587500Y-8690000D02*
X13550000Y-8652500D01*
X13632623Y-8735123D02*
X13587500Y-8690000D01*
X13633506Y-8735123D02*
X13632623Y-8735123D01*
X14658811Y-9760428D02*
X14657928Y-9760428D01*
X14657928Y-9760428D02*
X14610000Y-9712500D01*
X14610000Y-9712500D02*
X14572500Y-9675000D01*
X14354484Y-10064484D02*
X14307500Y-10017500D01*
X14307500Y-10017500D02*
X14270000Y-9980000D01*
X14354755Y-10064484D02*
X14354484Y-10064484D01*
X13335673Y-9028173D02*
X13252500Y-8945000D01*
X13335673Y-9032957D02*
X13335673Y-9028173D01*
X12982911Y-8645148D02*
X13151381Y-8813619D01*
X12972352Y-8645148D02*
X12982911Y-8645148D01*
X13252500Y-8914737D02*
X13151381Y-8813619D01*
X13252500Y-8945000D02*
X13252500Y-8914737D01*
X11917570Y-11829422D02*
X11898266Y-11829422D01*
X12434100Y-11279663D02*
X12324881Y-11388881D01*
X12447081Y-11279663D02*
X12434100Y-11279663D01*
X11915296Y-11798467D02*
X11915296Y-11815296D01*
X12324881Y-11388881D02*
X11915296Y-11798467D01*
X12330338Y-11167899D02*
X12217118Y-11281118D01*
X12330338Y-11162920D02*
X12330338Y-11167899D01*
X11910658Y-11281118D02*
X11645888Y-11545888D01*
X12217118Y-11281118D02*
X11910658Y-11281118D01*
D37*
X12415514Y-12389097D02*
X12406676Y-12380259D01*
D36*
X12818648Y-11672998D02*
X12711580Y-11780066D01*
X12833232Y-11672998D02*
X12818648Y-11672998D01*
X12711580Y-12096643D02*
X12454111Y-12354111D01*
X12711580Y-11780066D02*
X12711580Y-12096643D01*
X11385866Y-11264192D02*
X11359451Y-11290607D01*
X12310931Y-6198073D02*
X12312652Y-6198073D01*
X12310931Y-6198073D02*
X12194091Y-6314913D01*
D25*
X11376481Y-11045964D02*
X11376481Y-11276481D01*
X12277500Y-9291391D02*
X12277500Y-10144945D01*
X12660303Y-8908588D02*
X12277500Y-9291391D01*
X12688588Y-8908588D02*
X12660303Y-8908588D01*
X12277500Y-10144945D02*
X11376481Y-11045964D01*
X12469100Y-6265000D02*
X12569445Y-6265000D01*
X12569445Y-6265000D02*
X12704445Y-6130000D01*
X13620000Y-7822500D02*
X13642500Y-7845000D01*
X12704445Y-6130000D02*
X13010355Y-6130000D01*
X13010355Y-6130000D02*
X13620000Y-6739645D01*
X13620000Y-6739645D02*
X13620000Y-7822500D01*
X12469100Y-6265000D02*
X12407511Y-6326590D01*
D36*
X12311779Y-6230858D02*
X12407511Y-6326590D01*
X12311779Y-6198921D02*
X12311779Y-6230858D01*
X12690263Y-6562571D02*
X12689954Y-6562571D01*
X12689954Y-6562571D02*
X12568392Y-6684134D01*
D25*
X11337590Y-11007073D02*
X11107073Y-11007073D01*
X12621412Y-8841412D02*
X12621412Y-8869697D01*
X12621412Y-8869697D02*
X12222500Y-9268609D01*
X12222500Y-9268609D02*
X12222500Y-10122163D01*
X12222500Y-10122163D02*
X11337590Y-11007073D01*
X12605000Y-6397801D02*
X12605000Y-6300156D01*
X12605000Y-6300156D02*
X12725156Y-6180000D01*
X13570000Y-7822500D02*
X13547500Y-7845000D01*
X12725156Y-6180000D02*
X12989645Y-6180000D01*
X12989645Y-6180000D02*
X13570000Y-6760355D01*
X13570000Y-6760355D02*
X13570000Y-7822500D01*
X12605000Y-6397801D02*
X12543211Y-6459590D01*
D36*
X12668621Y-6585000D02*
X12543211Y-6459590D01*
X12670000Y-6585000D02*
X12668621Y-6585000D01*
X12716489Y-11559632D02*
X12603817Y-11672303D01*
X12716489Y-11556255D02*
X12716489Y-11559632D01*
X12191417Y-12084704D02*
X12184704Y-12084704D01*
X12603817Y-11672303D02*
X12191417Y-12084704D01*
D38*
X18068738Y-9157352D02*
X17904380Y-9321710D01*
X18077352Y-9157352D02*
X18068738Y-9157352D01*
D36*
X17899852Y-9367944D02*
X18007138Y-9475231D01*
X17899852Y-9304852D02*
X17899852Y-9367944D01*
D39*
X11393200Y-9006800D02*
X11400000Y-9000000D01*
D40*
X11079659Y-6289544D02*
X11043380Y-6285456D01*
X11096890Y-6295573D02*
X11079659Y-6289544D01*
X11112346Y-6305285D02*
X11096890Y-6295573D01*
X11125254Y-6318193D02*
X11112346Y-6305285D01*
X11134966Y-6333649D02*
X11125254Y-6318193D01*
X11140995Y-6350880D02*
X11134966Y-6333649D01*
X11143039Y-6369020D02*
X11140995Y-6350880D01*
X11143039Y-6505980D02*
X11143039Y-6369020D01*
X11140995Y-6524120D02*
X11143039Y-6505980D01*
X11134966Y-6541350D02*
X11140995Y-6524120D01*
X11125254Y-6556807D02*
X11134966Y-6541350D01*
X11112346Y-6569715D02*
X11125254Y-6556807D01*
X11096890Y-6579427D02*
X11112346Y-6569715D01*
X11079659Y-6585456D02*
X11096890Y-6579427D01*
X11061520Y-6587500D02*
X11079659Y-6585456D01*
X10898480Y-6587500D02*
X11061520Y-6587500D01*
X10880341Y-6589544D02*
X10898480Y-6587500D01*
X10863110Y-6595573D02*
X10880341Y-6589544D01*
X10847654Y-6605285D02*
X10863110Y-6595573D01*
X10834746Y-6618193D02*
X10847654Y-6605285D01*
X10825034Y-6633649D02*
X10834746Y-6618193D01*
X10819005Y-6650880D02*
X10825034Y-6633649D01*
X10816961Y-6669020D02*
X10819005Y-6650880D01*
X10816961Y-6805980D02*
X10816961Y-6669020D01*
X10819005Y-6824120D02*
X10816961Y-6805980D01*
X10825034Y-6841350D02*
X10819005Y-6824120D01*
X10834746Y-6856807D02*
X10825034Y-6841350D01*
X10847654Y-6869715D02*
X10834746Y-6856807D01*
X10863110Y-6879427D02*
X10847654Y-6869715D01*
X10880341Y-6885456D02*
X10863110Y-6879427D01*
X10898480Y-6887500D02*
X10880341Y-6885456D01*
X11061520Y-6887500D02*
X10898480Y-6887500D01*
X11079659Y-6889544D02*
X11061520Y-6887500D01*
X11096890Y-6895573D02*
X11079659Y-6889544D01*
X11112346Y-6905285D02*
X11096890Y-6895573D01*
X11125254Y-6918193D02*
X11112346Y-6905285D01*
X11134966Y-6933649D02*
X11125254Y-6918193D01*
X11140995Y-6950880D02*
X11134966Y-6933649D01*
X11143039Y-6969020D02*
X11140995Y-6950880D01*
X11143039Y-7105980D02*
X11143039Y-6969020D01*
X11140995Y-7124120D02*
X11143039Y-7105980D01*
X11134966Y-7141350D02*
X11140995Y-7124120D01*
X11125254Y-7156807D02*
X11134966Y-7141350D01*
X10819005Y-7850880D02*
X10825034Y-7833649D01*
X10816961Y-8005980D02*
X10816961Y-7869020D01*
X10819005Y-8024120D02*
X10816961Y-8005980D01*
X10825034Y-8041350D02*
X10819005Y-8024120D01*
X10834746Y-8056807D02*
X10825034Y-8041350D01*
X10847654Y-8069715D02*
X10834746Y-8056807D01*
X10863110Y-8079427D02*
X10847654Y-8069715D01*
X10880341Y-8085456D02*
X10863110Y-8079427D01*
X10898480Y-8087500D02*
X10880341Y-8085456D01*
X11043380Y-6285456D02*
X11026150Y-6279427D01*
X10980000Y-8087500D02*
X10898480Y-8087500D01*
X11026150Y-6279427D02*
X11010693Y-6269715D01*
X10980000Y-8088480D02*
X10980000Y-8087500D01*
X11010693Y-6269715D02*
X10997785Y-6256807D01*
X11061520Y-8088480D02*
X10980000Y-8088480D01*
X10997785Y-6256807D02*
X10988073Y-6241350D01*
X11079659Y-8090524D02*
X11061520Y-8088480D01*
X10988073Y-6241350D02*
X10982044Y-6224120D01*
X11096890Y-8096553D02*
X11079659Y-8090524D01*
X10982044Y-6224120D02*
X10980000Y-6205980D01*
X11112346Y-8106265D02*
X11096890Y-8096553D01*
X10980000Y-6205980D02*
X10980000Y-5800000D01*
X11125254Y-8119173D02*
X11112346Y-8106265D01*
X10860000Y-5680000D02*
X10860000Y-5120000D01*
X11140995Y-8151860D02*
X11134966Y-8134630D01*
X10860000Y-5120000D02*
X11165920Y-4814080D01*
X11143039Y-8170000D02*
X11140995Y-8151860D01*
X10816961Y-7869020D02*
X10819005Y-7850880D01*
X10980000Y-5800000D02*
X10860000Y-5680000D01*
X11134966Y-8134630D02*
X11125254Y-8119173D01*
X11400000Y-9000000D02*
X10980000Y-8580000D01*
X11143039Y-7705980D02*
X11143039Y-7569020D01*
X11096890Y-8380407D02*
X11112346Y-8370695D01*
X10997785Y-8419173D02*
X11010693Y-8406265D01*
X10988073Y-8434630D02*
X10997785Y-8419173D01*
X10982044Y-8451860D02*
X10988073Y-8434630D01*
X10980000Y-8470000D02*
X10982044Y-8451860D01*
X10980000Y-8580000D02*
X10980000Y-8470000D01*
X11010693Y-8406265D02*
X11026150Y-8396553D01*
X11026150Y-8396553D02*
X11043380Y-8390524D01*
X11043380Y-8390524D02*
X11079659Y-8386436D01*
X11079659Y-8386436D02*
X11096890Y-8380407D01*
X11112346Y-8370695D02*
X11125254Y-8357787D01*
X11125254Y-8357787D02*
X11134966Y-8342331D01*
X11134966Y-8342331D02*
X11140995Y-8325101D01*
X12528817Y-4814080D02*
X13016118Y-5301382D01*
X11140995Y-8325101D02*
X11143039Y-8306961D01*
X11165920Y-4814080D02*
X12528817Y-4814080D01*
X11143039Y-8306961D02*
X11143039Y-8170000D01*
X10825034Y-7833649D02*
X10834746Y-7818193D01*
X10834746Y-7818193D02*
X10847654Y-7805285D01*
X10847654Y-7805285D02*
X10863110Y-7795573D01*
X10863110Y-7795573D02*
X10880341Y-7789544D01*
X10880341Y-7789544D02*
X10898480Y-7787500D01*
X10898480Y-7787500D02*
X11061520Y-7787500D01*
X11061520Y-7787500D02*
X11079659Y-7785456D01*
X11079659Y-7785456D02*
X11096890Y-7779427D01*
X11096890Y-7779427D02*
X11112346Y-7769715D01*
X11112346Y-7769715D02*
X11125254Y-7756807D01*
X11125254Y-7756807D02*
X11134966Y-7741350D01*
X11134966Y-7741350D02*
X11140995Y-7724120D01*
X11140995Y-7724120D02*
X11143039Y-7705980D01*
X11143039Y-7569020D02*
X11140995Y-7550880D01*
X11140995Y-7550880D02*
X11134966Y-7533649D01*
X11134966Y-7533649D02*
X11125254Y-7518193D01*
X11125254Y-7518193D02*
X11112346Y-7505285D01*
X11112346Y-7505285D02*
X11096890Y-7495573D01*
X11096890Y-7495573D02*
X11079659Y-7489544D01*
X11079659Y-7489544D02*
X11061520Y-7487500D01*
X11061520Y-7487500D02*
X10898480Y-7487500D01*
X10898480Y-7487500D02*
X10880341Y-7485456D01*
X10880341Y-7485456D02*
X10863110Y-7479427D01*
X10863110Y-7479427D02*
X10847654Y-7469715D01*
X10847654Y-7469715D02*
X10834746Y-7456807D01*
X10834746Y-7456807D02*
X10825034Y-7441350D01*
X10825034Y-7441350D02*
X10819005Y-7424120D01*
X10819005Y-7424120D02*
X10816961Y-7405980D01*
X10816961Y-7405980D02*
X10816961Y-7269020D01*
X10816961Y-7269020D02*
X10819005Y-7250880D01*
X10819005Y-7250880D02*
X10825034Y-7233649D01*
X10825034Y-7233649D02*
X10834746Y-7218193D01*
X10834746Y-7218193D02*
X10847654Y-7205285D01*
X10847654Y-7205285D02*
X10863110Y-7195573D01*
X10863110Y-7195573D02*
X10880341Y-7189544D01*
X10880341Y-7189544D02*
X10898480Y-7187500D01*
X10898480Y-7187500D02*
X11061520Y-7187500D01*
X11061520Y-7187500D02*
X11079659Y-7185456D01*
X11079659Y-7185456D02*
X11096890Y-7179427D01*
X11096890Y-7179427D02*
X11112346Y-7169715D01*
X11112346Y-7169715D02*
X11125254Y-7156807D01*
D25*
X14069633Y-8865092D02*
X14069633Y-8874550D01*
X14069633Y-8874550D02*
X13970354Y-8973829D01*
D36*
X14114826Y-8571889D02*
X14114826Y-8800174D01*
X14069633Y-8845367D02*
X14069633Y-8865092D01*
X14114826Y-8800174D02*
X14069633Y-8845367D01*
D39*
X18594100Y-8994100D02*
X18600000Y-9000000D01*
D40*
X16972339Y-4773029D02*
X13564980Y-4773029D01*
X18599310Y-6400000D02*
X16972339Y-4773029D01*
X18600000Y-7980000D02*
X18600000Y-6400000D01*
X18600000Y-6400000D02*
X18599310Y-6400000D01*
D38*
X14621111Y-8862648D02*
X14519574Y-8761111D01*
X14672648Y-8862648D02*
X14621111Y-8862648D01*
D25*
X14123515Y-8918974D02*
X14117168Y-8918974D01*
X14117168Y-8918974D02*
X14016333Y-9019808D01*
D36*
X14143642Y-8918974D02*
X14117168Y-8918974D01*
X14192616Y-8870000D02*
X14143642Y-8918974D01*
X14411811Y-8868874D02*
X14412937Y-8870000D01*
X14412937Y-8870000D02*
X14192616Y-8870000D01*
D39*
X15007500Y-5407500D02*
X15000000Y-5400000D01*
D40*
X19230877Y-8990877D02*
X19230877Y-10434378D01*
X19230877Y-8878877D02*
X19230877Y-8990877D01*
X17471752Y-7119752D02*
X19230877Y-8878877D01*
X17449667Y-7102139D02*
X17471752Y-7119752D01*
X17424216Y-7089883D02*
X17449667Y-7102139D01*
X17396676Y-7083597D02*
X17424216Y-7089883D01*
X17368428Y-7083597D02*
X17396676Y-7083597D01*
X17340888Y-7089883D02*
X17368428Y-7083597D01*
X17315437Y-7102139D02*
X17340888Y-7089883D01*
X17271267Y-7137364D02*
X17315437Y-7102139D01*
X17245816Y-7149620D02*
X17271267Y-7137364D01*
X17218276Y-7155906D02*
X17245816Y-7149620D01*
X17190028Y-7155906D02*
X17218276Y-7155906D01*
X17162488Y-7149620D02*
X17190028Y-7155906D01*
X17137037Y-7137364D02*
X17162488Y-7149620D01*
X17114952Y-7119752D02*
X17137037Y-7137364D01*
X17081220Y-7086020D02*
X17114952Y-7119752D01*
X17063608Y-7063934D02*
X17081220Y-7086020D01*
X17051351Y-7038484D02*
X17063608Y-7063934D01*
X17045065Y-7010944D02*
X17051351Y-7038484D01*
X17045065Y-6982696D02*
X17045065Y-7010944D01*
X17051351Y-6955156D02*
X17045065Y-6982696D01*
X17063608Y-6929705D02*
X17051351Y-6955156D01*
X17081220Y-6907620D02*
X17063608Y-6929705D01*
X17259620Y-6729220D02*
X17081220Y-6907620D01*
X17277232Y-6707135D02*
X17259620Y-6729220D01*
X17289489Y-6681684D02*
X17277232Y-6707135D01*
X17295775Y-6654144D02*
X17289489Y-6681684D01*
X17295775Y-6625896D02*
X17295775Y-6654144D01*
X17289489Y-6598356D02*
X17295775Y-6625896D01*
X17277232Y-6572905D02*
X17289489Y-6598356D01*
X16619845Y-6585724D02*
X16626131Y-6613264D01*
X16619845Y-6557476D02*
X16619845Y-6585724D01*
X16626131Y-6529936D02*
X16619845Y-6557476D01*
X16638388Y-6504485D02*
X16626131Y-6529936D01*
X16673612Y-6460314D02*
X16638388Y-6504485D01*
X16685869Y-6434864D02*
X16673612Y-6460314D01*
X16638388Y-6638714D02*
X16656000Y-6660800D01*
X16692155Y-6407324D02*
X16685869Y-6434864D01*
X16626131Y-6613264D02*
X16638388Y-6638714D01*
X16692155Y-6379076D02*
X16692155Y-6407324D01*
X15005000Y-5405000D02*
X15757000Y-5405000D01*
X15000000Y-5400000D02*
X15005000Y-5405000D01*
X15757000Y-5405000D02*
X16656000Y-6304000D01*
X16656000Y-6304000D02*
X16673612Y-6326085D01*
X16673612Y-6326085D02*
X16685869Y-6351536D01*
X16685869Y-6351536D02*
X16692155Y-6379076D01*
X16656000Y-6660800D02*
X16689732Y-6694532D01*
X16689732Y-6694532D02*
X16711817Y-6712144D01*
X16711817Y-6712144D02*
X16737268Y-6724401D01*
X16737268Y-6724401D02*
X16764808Y-6730686D01*
X16764808Y-6730686D02*
X16793056Y-6730686D01*
X16793056Y-6730686D02*
X16820596Y-6724401D01*
X16820596Y-6724401D02*
X16846047Y-6712144D01*
X16846047Y-6712144D02*
X16868132Y-6694532D01*
X16868132Y-6694532D02*
X16957332Y-6605332D01*
X16957332Y-6605332D02*
X16958288Y-6606288D01*
X16958288Y-6606288D02*
X17047488Y-6517088D01*
X17047488Y-6517088D02*
X17069573Y-6499475D01*
X17069573Y-6499475D02*
X17095024Y-6487219D01*
X17095024Y-6487219D02*
X17122564Y-6480933D01*
X17122564Y-6480933D02*
X17150812Y-6480933D01*
X17150812Y-6480933D02*
X17178352Y-6487219D01*
X17178352Y-6487219D02*
X17203803Y-6499475D01*
X17203803Y-6499475D02*
X17225888Y-6517088D01*
X17225888Y-6517088D02*
X17259620Y-6550820D01*
X17259620Y-6550820D02*
X17277232Y-6572905D01*
D36*
X17398882Y-9007130D02*
X17515294Y-9123543D01*
X17398882Y-8963882D02*
X17398882Y-9007130D01*
X17515294Y-9152531D02*
X17643882Y-9281119D01*
X17515294Y-9123543D02*
X17515294Y-9152531D01*
X17754852Y-9170148D02*
X17643882Y-9281119D01*
X17765148Y-9170148D02*
X17754852Y-9170148D01*
X16100822Y-8781119D02*
X16002352Y-8682648D01*
X16126118Y-8781119D02*
X16100822Y-8781119D01*
X16387237Y-8520000D02*
X16126118Y-8781119D01*
X16558800Y-8520000D02*
X16387237Y-8520000D01*
D25*
X15084133Y-9891550D02*
X14984854Y-9990829D01*
D36*
X15129326Y-9588889D02*
X15129326Y-9817174D01*
X15084133Y-9862367D02*
X15084133Y-9882092D01*
X15129326Y-9817174D02*
X15084133Y-9862367D01*
X17261932Y-9138882D02*
X17380944Y-9257893D01*
X17226382Y-9138882D02*
X17261932Y-9138882D01*
X17405130Y-9257893D02*
X17536119Y-9388882D01*
X17380944Y-9257893D02*
X17405130Y-9257893D01*
X17432648Y-9492352D02*
X17536119Y-9388882D01*
X17432648Y-9502648D02*
X17432648Y-9492352D01*
X16864737Y-8710000D02*
X17051119Y-8896382D01*
X16711200Y-8710000D02*
X16864737Y-8710000D01*
X17118619Y-8963882D02*
X17051119Y-8896382D01*
X17118619Y-9031119D02*
X17118619Y-8963882D01*
X16412763Y-8710000D02*
X16233881Y-8888882D01*
X16558800Y-8710000D02*
X16412763Y-8710000D01*
X16233881Y-8914178D02*
X16332352Y-9012648D01*
X16233881Y-8888882D02*
X16233881Y-8914178D01*
D39*
X15008400Y-12608400D02*
X15000000Y-12600000D01*
X14994100Y-12594100D02*
X15000000Y-12600000D01*
D40*
X18695314Y-11304686D02*
X18695314Y-10969940D01*
X18427236Y-11572764D02*
X18695314Y-11304686D01*
X18403348Y-11591814D02*
X18427236Y-11572764D01*
X18375820Y-11605071D02*
X18403348Y-11591814D01*
X18346032Y-11611870D02*
X18375820Y-11605071D01*
X18315478Y-11611870D02*
X18346032Y-11611870D01*
X18285690Y-11605071D02*
X18315478Y-11611870D01*
X18258162Y-11591814D02*
X18285690Y-11605071D01*
X18210386Y-11553714D02*
X18258162Y-11591814D01*
X18182858Y-11540457D02*
X18210386Y-11553714D01*
X18153070Y-11533658D02*
X18182858Y-11540457D01*
X18122516Y-11533658D02*
X18153070Y-11533658D01*
X18092728Y-11540457D02*
X18122516Y-11533658D01*
X18065200Y-11553714D02*
X18092728Y-11540457D01*
X18041312Y-11572764D02*
X18065200Y-11553714D01*
X18022142Y-11591934D02*
X18041312Y-11572764D01*
X18003092Y-11615822D02*
X18022142Y-11591934D01*
X17989835Y-11643350D02*
X18003092Y-11615822D01*
X17983036Y-11673138D02*
X17989835Y-11643350D01*
X17983036Y-11703692D02*
X17983036Y-11673138D01*
X17989835Y-11733480D02*
X17983036Y-11703692D01*
X18003092Y-11761008D02*
X17989835Y-11733480D01*
X18022142Y-11784896D02*
X18003092Y-11761008D01*
X18215104Y-11977858D02*
X18022142Y-11784896D01*
X18234154Y-12001746D02*
X18215104Y-11977858D01*
X18247411Y-12029274D02*
X18234154Y-12001746D01*
X18254210Y-12059062D02*
X18247411Y-12029274D01*
X18254210Y-12089616D02*
X18254210Y-12059062D01*
X18247411Y-12119404D02*
X18254210Y-12089616D01*
X18234154Y-12146932D02*
X18247411Y-12119404D01*
X18215104Y-12170820D02*
X18234154Y-12146932D01*
X18195934Y-12189990D02*
X18215104Y-12170820D01*
X18172046Y-12209040D02*
X18195934Y-12189990D01*
X18144518Y-12222297D02*
X18172046Y-12209040D01*
X18114730Y-12229096D02*
X18144518Y-12222297D01*
X18084176Y-12229096D02*
X18114730Y-12229096D01*
X18054388Y-12222297D02*
X18084176Y-12229096D01*
X18026860Y-12209040D02*
X18054388Y-12222297D01*
X18002972Y-12189990D02*
X18026860Y-12209040D01*
X17810010Y-11997028D02*
X18002972Y-12189990D01*
X17786122Y-11977978D02*
X17810010Y-11997028D01*
X17758594Y-11964721D02*
X17786122Y-11977978D01*
X17728806Y-11957922D02*
X17758594Y-11964721D01*
X17698252Y-11957922D02*
X17728806Y-11957922D01*
X17668464Y-11964721D02*
X17698252Y-11957922D01*
X17640936Y-11977978D02*
X17668464Y-11964721D01*
X17617048Y-11997028D02*
X17640936Y-11977978D01*
X17597878Y-12016198D02*
X17617048Y-11997028D01*
X17578828Y-12040086D02*
X17597878Y-12016198D01*
X17565571Y-12067614D02*
X17578828Y-12040086D01*
X17558772Y-12097402D02*
X17565571Y-12067614D01*
X17558772Y-12127956D02*
X17558772Y-12097402D01*
X17565571Y-12157744D02*
X17558772Y-12127956D01*
X17578828Y-12185272D02*
X17565571Y-12157744D01*
X17597878Y-12209160D02*
X17578828Y-12185272D01*
X17694359Y-12305641D02*
X17597878Y-12209160D01*
X17693613Y-12306387D02*
X17694359Y-12305641D01*
X17790094Y-12402868D02*
X17693613Y-12306387D01*
X17809144Y-12426756D02*
X17790094Y-12402868D01*
X17822401Y-12454284D02*
X17809144Y-12426756D01*
X17829200Y-12484072D02*
X17822401Y-12454284D01*
X17829200Y-12514626D02*
X17829200Y-12484072D01*
X17822401Y-12544414D02*
X17829200Y-12514626D01*
X17809144Y-12571942D02*
X17822401Y-12544414D01*
X17790094Y-12595830D02*
X17809144Y-12571942D01*
X16553523Y-13142275D02*
X16577275Y-13118523D01*
X16525082Y-13160145D02*
X16553523Y-13142275D01*
X16493378Y-13171239D02*
X16525082Y-13160145D01*
X16460000Y-13175000D02*
X16493378Y-13171239D01*
X16426622Y-13171239D02*
X16460000Y-13175000D01*
X16394917Y-13160145D02*
X16426622Y-13171239D01*
X16366476Y-13142275D02*
X16394917Y-13160145D01*
X16342725Y-13118523D02*
X16366476Y-13142275D01*
X16324855Y-13090083D02*
X16342725Y-13118523D01*
X16313761Y-13058378D02*
X16324855Y-13090083D01*
X16310000Y-13025000D02*
X16313761Y-13058378D01*
X16306239Y-12486622D02*
X16310000Y-12520000D01*
X16295145Y-12454917D02*
X16306239Y-12486622D01*
X16277275Y-12426476D02*
X16295145Y-12454917D01*
X16253523Y-12402725D02*
X16277275Y-12426476D01*
X16225082Y-12384855D02*
X16253523Y-12402725D01*
X16193378Y-12373761D02*
X16225082Y-12384855D01*
X16160000Y-12370000D02*
X16193378Y-12373761D01*
X16126622Y-12373761D02*
X16160000Y-12370000D01*
X15953523Y-12777275D02*
X15977275Y-12753523D01*
X15925082Y-12795145D02*
X15953523Y-12777275D01*
X15893378Y-12806239D02*
X15925082Y-12795145D01*
X15860000Y-12810000D02*
X15893378Y-12806239D01*
X15210000Y-12810000D02*
X15860000Y-12810000D01*
X15977275Y-12753523D02*
X15995145Y-12725082D01*
X15995145Y-12725082D02*
X16006239Y-12693378D01*
X16006239Y-12693378D02*
X16010000Y-12660000D01*
X16010000Y-12660000D02*
X16010000Y-12520000D01*
X16010000Y-12520000D02*
X16013761Y-12486622D01*
X16310000Y-12520000D02*
X16310000Y-13025000D01*
X15000000Y-12600000D02*
X15210000Y-12810000D01*
X16595145Y-13090083D02*
X16606239Y-13058378D01*
X16013761Y-12486622D02*
X16024855Y-12454917D01*
X16024855Y-12454917D02*
X16042725Y-12426476D01*
X16042725Y-12426476D02*
X16066476Y-12402725D01*
X16066476Y-12402725D02*
X16094917Y-12384855D01*
X16094917Y-12384855D02*
X16126622Y-12373761D01*
X16577275Y-13118523D02*
X16595145Y-13090083D01*
X16606239Y-13058378D02*
X16610000Y-13025000D01*
X16610000Y-13025000D02*
X16610000Y-12520000D01*
X16610000Y-12520000D02*
X16613761Y-12486622D01*
X16613761Y-12486622D02*
X16624855Y-12454917D01*
X16624855Y-12454917D02*
X16642725Y-12426476D01*
X16642725Y-12426476D02*
X16666476Y-12402725D01*
X16666476Y-12402725D02*
X16694917Y-12384855D01*
X16694917Y-12384855D02*
X16726622Y-12373761D01*
X16726622Y-12373761D02*
X16760000Y-12370000D01*
X16760000Y-12370000D02*
X16793378Y-12373761D01*
X16793378Y-12373761D02*
X16825083Y-12384855D01*
X16825083Y-12384855D02*
X16853523Y-12402725D01*
X16853523Y-12402725D02*
X16877275Y-12426476D01*
X16877275Y-12426476D02*
X16895145Y-12454917D01*
X16895145Y-12454917D02*
X16906239Y-12486622D01*
X16906239Y-12486622D02*
X16910000Y-12520000D01*
X16910000Y-12520000D02*
X16910000Y-12660000D01*
X16910000Y-12660000D02*
X16913761Y-12693378D01*
X16913761Y-12693378D02*
X16924855Y-12725082D01*
X16924855Y-12725082D02*
X16942725Y-12753523D01*
X16942725Y-12753523D02*
X16966477Y-12777275D01*
X16966477Y-12777275D02*
X16994917Y-12795145D01*
X16994917Y-12795145D02*
X17026622Y-12806239D01*
X17026622Y-12806239D02*
X17060000Y-12810000D01*
X17060000Y-12810000D02*
X17190000Y-12810000D01*
X17190000Y-12810000D02*
X17385000Y-12615000D01*
X17385000Y-12615000D02*
X17408888Y-12595950D01*
X17408888Y-12595950D02*
X17436416Y-12582693D01*
X17436416Y-12582693D02*
X17466204Y-12575894D01*
X17466204Y-12575894D02*
X17496758Y-12575894D01*
X17496758Y-12575894D02*
X17526546Y-12582693D01*
X17526546Y-12582693D02*
X17554074Y-12595950D01*
X17554074Y-12595950D02*
X17601850Y-12634050D01*
X17601850Y-12634050D02*
X17629378Y-12647307D01*
X17629378Y-12647307D02*
X17659166Y-12654106D01*
X17659166Y-12654106D02*
X17689720Y-12654106D01*
X17689720Y-12654106D02*
X17719508Y-12647307D01*
X17719508Y-12647307D02*
X17747036Y-12634050D01*
X17747036Y-12634050D02*
X17770924Y-12615000D01*
X17770924Y-12615000D02*
X17790094Y-12595830D01*
D38*
X15645659Y-9882648D02*
X15539779Y-9776768D01*
X15692648Y-9882648D02*
X15645659Y-9882648D01*
D25*
X15131668Y-9935974D02*
X15030833Y-10036808D01*
D36*
X15427437Y-9887000D02*
X15207116Y-9887000D01*
X15207116Y-9887000D02*
X15158142Y-9935974D01*
X15158142Y-9935974D02*
X15131668Y-9935974D01*
D38*
X14327352Y-6727352D02*
X14442648Y-6842648D01*
X14977352Y-6077352D02*
X15092648Y-6192648D01*
X14197352Y-7872648D02*
X14296118Y-7773881D01*
X13982648Y-8087352D02*
X14062648Y-8007352D01*
X13982648Y-8182648D02*
X13982648Y-8087352D01*
X15107352Y-8762648D02*
X15206118Y-8663882D01*
X14907352Y-8897352D02*
X14807352Y-8997352D01*
X14972648Y-8897352D02*
X14907352Y-8897352D01*
X14192648Y-6591597D02*
X14352379Y-6431866D01*
X14192648Y-6592648D02*
X14192648Y-6591597D01*
X14841597Y-5942648D02*
X14684719Y-6099526D01*
X14842648Y-5942648D02*
X14841597Y-5942648D01*
D36*
X15867648Y-8877944D02*
X15764326Y-8981266D01*
X15867648Y-8817352D02*
X15867648Y-8877944D01*
D38*
X17427352Y-9807352D02*
X17427352Y-9798738D01*
D36*
X17630444Y-9637352D02*
X17737731Y-9744638D01*
X17567352Y-9637352D02*
X17630444Y-9637352D01*
D38*
X17427352Y-9798738D02*
X17582646Y-9643443D01*
D36*
X16137056Y-9147352D02*
X16033734Y-9250674D01*
X16197648Y-9147352D02*
X16137056Y-9147352D01*
D38*
X17187352Y-9567352D02*
X17292648Y-9672648D01*
X17837352Y-8917352D02*
X17942648Y-9022648D01*
X15912648Y-10017352D02*
X15992648Y-9937352D01*
X15827352Y-10017352D02*
X15912648Y-10017352D01*
X15102648Y-9102648D02*
X15012648Y-9192648D01*
X15102648Y-9027352D02*
X15102648Y-9102648D01*
X16953882Y-9333882D02*
X17052648Y-9432648D01*
X17608882Y-8688882D02*
X17702648Y-8782648D01*
X16127352Y-9802648D02*
X16226118Y-9703882D01*
X15237352Y-8892648D02*
X15336118Y-8793882D01*
D41*
G36*
X15436400Y-9363959D02*
G01*
X15259624Y-9540736D01*
X15181842Y-9462954D01*
X15229875Y-9414921D01*
X15284372Y-9414921D01*
X15285348Y-9414825D01*
X15286286Y-9414541D01*
X15287150Y-9414079D01*
X15287908Y-9413457D01*
X15386903Y-9314462D01*
X15436400Y-9363959D01*
X15436400Y-9363959D01*
G37*
X15436400Y-9363959D02*
X15259624Y-9540736D01*
X15181842Y-9462954D01*
X15229875Y-9414921D01*
X15284372Y-9414921D01*
X15285348Y-9414825D01*
X15286286Y-9414541D01*
X15287150Y-9414079D01*
X15287908Y-9413457D01*
X15386903Y-9314462D01*
X15436400Y-9363959D01*
G36*
X15705101Y-9632660D02*
G01*
X15606106Y-9731655D01*
X15605484Y-9732413D01*
X15605022Y-9733277D01*
X15604738Y-9734215D01*
X15604642Y-9735190D01*
X15604642Y-9789688D01*
X15556609Y-9837721D01*
X15478827Y-9759939D01*
X15655604Y-9583162D01*
X15705101Y-9632660D01*
X15705101Y-9632660D01*
G37*
X15705101Y-9632660D02*
X15606106Y-9731655D01*
X15605484Y-9732413D01*
X15605022Y-9733277D01*
X15604738Y-9734215D01*
X15604642Y-9735190D01*
X15604642Y-9789688D01*
X15556609Y-9837721D01*
X15478827Y-9759939D01*
X15655604Y-9583162D01*
X15705101Y-9632660D01*
G36*
X13650099Y-5480650D02*
G01*
X13650099Y-5620000D01*
X13650195Y-5620976D01*
X13650479Y-5621913D01*
X13650942Y-5622778D01*
X13651563Y-5623536D01*
X13683383Y-5655355D01*
X13605601Y-5733137D01*
X13554033Y-5681569D01*
X13554033Y-5584645D01*
X13553937Y-5583669D01*
X13553652Y-5582731D01*
X13553190Y-5581867D01*
X13552568Y-5581109D01*
X13358114Y-5386655D01*
X13457109Y-5287660D01*
X13650099Y-5480650D01*
X13650099Y-5480650D01*
G37*
X13650099Y-5480650D02*
X13650099Y-5620000D01*
X13650195Y-5620976D01*
X13650479Y-5621913D01*
X13650942Y-5622778D01*
X13651563Y-5623536D01*
X13683383Y-5655355D01*
X13605601Y-5733137D01*
X13554033Y-5681569D01*
X13554033Y-5584645D01*
X13553937Y-5583669D01*
X13553652Y-5582731D01*
X13553190Y-5581867D01*
X13552568Y-5581109D01*
X13358114Y-5386655D01*
X13457109Y-5287660D01*
X13650099Y-5480650D01*
G36*
X13828340Y-5305338D02*
G01*
X13829098Y-5305959D01*
X13829962Y-5306421D01*
X13830900Y-5306706D01*
X13831876Y-5306802D01*
X13928799Y-5306802D01*
X13980368Y-5358371D01*
X13902586Y-5436152D01*
X13870766Y-5404333D01*
X13870009Y-5403711D01*
X13869144Y-5403249D01*
X13868206Y-5402964D01*
X13867231Y-5402868D01*
X13727881Y-5402868D01*
X13534891Y-5209878D01*
X13633886Y-5110883D01*
X13828340Y-5305338D01*
X13828340Y-5305338D01*
G37*
X13828340Y-5305338D02*
X13829098Y-5305959D01*
X13829962Y-5306421D01*
X13830900Y-5306706D01*
X13831876Y-5306802D01*
X13928799Y-5306802D01*
X13980368Y-5358371D01*
X13902586Y-5436152D01*
X13870766Y-5404333D01*
X13870009Y-5403711D01*
X13869144Y-5403249D01*
X13868206Y-5402964D01*
X13867231Y-5402868D01*
X13727881Y-5402868D01*
X13534891Y-5209878D01*
X13633886Y-5110883D01*
X13828340Y-5305338D01*
G36*
X13520749Y-4898751D02*
G01*
X13474787Y-4944713D01*
X13474165Y-4945471D01*
X13473703Y-4946335D01*
X13473418Y-4947273D01*
X13473322Y-4948249D01*
X13473418Y-4949224D01*
X13473703Y-4950162D01*
X13474165Y-4951026D01*
X13474787Y-4951784D01*
X13577317Y-5054315D01*
X13478322Y-5153310D01*
X13273261Y-4948249D01*
X13421754Y-4799756D01*
X13520749Y-4898751D01*
X13520749Y-4898751D01*
G37*
X13520749Y-4898751D02*
X13474787Y-4944713D01*
X13474165Y-4945471D01*
X13473703Y-4946335D01*
X13473418Y-4947273D01*
X13473322Y-4948249D01*
X13473418Y-4949224D01*
X13473703Y-4950162D01*
X13474165Y-4951026D01*
X13474787Y-4951784D01*
X13577317Y-5054315D01*
X13478322Y-5153310D01*
X13273261Y-4948249D01*
X13421754Y-4799756D01*
X13520749Y-4898751D01*
G36*
X13916678Y-5888651D02*
G01*
X13867181Y-5938148D01*
X13768186Y-5839153D01*
X13767428Y-5838531D01*
X13766564Y-5838069D01*
X13765626Y-5837785D01*
X13764650Y-5837689D01*
X13710153Y-5837689D01*
X13662120Y-5789656D01*
X13739902Y-5711874D01*
X13916678Y-5888651D01*
X13916678Y-5888651D01*
G37*
X13916678Y-5888651D02*
X13867181Y-5938148D01*
X13768186Y-5839153D01*
X13767428Y-5838531D01*
X13766564Y-5838069D01*
X13765626Y-5837785D01*
X13764650Y-5837689D01*
X13710153Y-5837689D01*
X13662120Y-5789656D01*
X13739902Y-5711874D01*
X13916678Y-5888651D01*
G36*
X14081434Y-5459437D02*
G01*
X14081434Y-5513934D01*
X14081530Y-5514909D01*
X14081814Y-5515847D01*
X14082276Y-5516712D01*
X14082898Y-5517470D01*
X14185429Y-5620000D01*
X14135931Y-5669497D01*
X13959154Y-5492721D01*
X14036936Y-5414939D01*
X14081434Y-5459437D01*
X14081434Y-5459437D01*
G37*
X14081434Y-5459437D02*
X14081434Y-5513934D01*
X14081530Y-5514909D01*
X14081814Y-5515847D01*
X14082276Y-5516712D01*
X14082898Y-5517470D01*
X14185429Y-5620000D01*
X14135931Y-5669497D01*
X13959154Y-5492721D01*
X14036936Y-5414939D01*
X14081434Y-5459437D01*
G36*
X13400540Y-5231091D02*
G01*
X13301545Y-5330086D01*
X13199015Y-5227556D01*
X13198257Y-5226934D01*
X13197393Y-5226472D01*
X13196455Y-5226187D01*
X13195479Y-5226091D01*
X13194504Y-5226187D01*
X13193566Y-5226472D01*
X13192701Y-5226934D01*
X13191944Y-5227556D01*
X13145982Y-5273518D01*
X13046987Y-5174523D01*
X13195479Y-5026030D01*
X13400540Y-5231091D01*
X13400540Y-5231091D01*
G37*
X13400540Y-5231091D02*
X13301545Y-5330086D01*
X13199015Y-5227556D01*
X13198257Y-5226934D01*
X13197393Y-5226472D01*
X13196455Y-5226187D01*
X13195479Y-5226091D01*
X13194504Y-5226187D01*
X13193566Y-5226472D01*
X13192701Y-5226934D01*
X13191944Y-5227556D01*
X13145982Y-5273518D01*
X13046987Y-5174523D01*
X13195479Y-5026030D01*
X13400540Y-5231091D01*
G36*
X14417929Y-8345000D02*
G01*
X14241152Y-8521777D01*
X14163370Y-8443995D01*
X14211403Y-8395962D01*
X14265901Y-8395962D01*
X14266876Y-8395866D01*
X14267814Y-8395581D01*
X14268679Y-8395119D01*
X14269436Y-8394498D01*
X14368431Y-8295503D01*
X14417929Y-8345000D01*
X14417929Y-8345000D01*
G37*
X14417929Y-8345000D02*
X14241152Y-8521777D01*
X14163370Y-8443995D01*
X14211403Y-8395962D01*
X14265901Y-8395962D01*
X14266876Y-8395866D01*
X14267814Y-8395581D01*
X14268679Y-8395119D01*
X14269436Y-8394498D01*
X14368431Y-8295503D01*
X14417929Y-8345000D01*
G36*
X14684497Y-8616569D02*
G01*
X14585503Y-8715564D01*
X14584881Y-8716321D01*
X14584419Y-8717186D01*
X14584134Y-8718124D01*
X14584038Y-8719099D01*
X14584038Y-8773597D01*
X14536005Y-8821630D01*
X14458223Y-8743848D01*
X14635000Y-8567071D01*
X14684497Y-8616569D01*
X14684497Y-8616569D01*
G37*
X14684497Y-8616569D02*
X14585503Y-8715564D01*
X14584881Y-8716321D01*
X14584419Y-8717186D01*
X14584134Y-8718124D01*
X14584038Y-8719099D01*
X14584038Y-8773597D01*
X14536005Y-8821630D01*
X14458223Y-8743848D01*
X14635000Y-8567071D01*
X14684497Y-8616569D01*
D25*
G36*
X14671629Y-5702843D02*
G01*
X14509853Y-5864619D01*
X14480711Y-5864619D01*
X14477784Y-5864908D01*
X14474970Y-5865761D01*
X14472377Y-5867147D01*
X14470104Y-5869013D01*
X14381716Y-5957401D01*
X14379850Y-5959674D01*
X14378464Y-5962267D01*
X14377610Y-5965081D01*
X14377322Y-5968008D01*
X14377322Y-6003363D01*
X14377610Y-6006289D01*
X14378464Y-6009103D01*
X14379850Y-6011697D01*
X14381737Y-6013991D01*
X14628765Y-6260021D01*
X14509920Y-6378867D01*
X14261427Y-6134098D01*
X14259140Y-6132250D01*
X14256536Y-6130883D01*
X14253716Y-6130051D01*
X14250901Y-6129784D01*
X14215546Y-6129784D01*
X14212619Y-6130073D01*
X14209805Y-6130926D01*
X14207212Y-6132312D01*
X14204939Y-6134178D01*
X14116551Y-6222566D01*
X14114685Y-6224839D01*
X14113299Y-6227432D01*
X14112445Y-6230246D01*
X14112157Y-6233173D01*
X14112157Y-6262315D01*
X13950381Y-6424092D01*
X13688751Y-6162462D01*
X13850528Y-6000685D01*
X13879670Y-6000685D01*
X13882596Y-6000397D01*
X13885410Y-5999544D01*
X13888003Y-5998157D01*
X13890276Y-5996292D01*
X13978665Y-5907904D01*
X13980530Y-5905631D01*
X13981916Y-5903037D01*
X13982770Y-5900223D01*
X13983058Y-5897297D01*
X13983058Y-5861942D01*
X13982770Y-5859015D01*
X13981916Y-5856201D01*
X13980530Y-5853608D01*
X13978665Y-5851335D01*
X13724106Y-5596777D01*
X13844315Y-5476569D01*
X14098873Y-5731127D01*
X14101146Y-5732992D01*
X14103739Y-5734379D01*
X14106553Y-5735232D01*
X14109480Y-5735520D01*
X14144835Y-5735520D01*
X14147761Y-5735232D01*
X14150575Y-5734379D01*
X14153168Y-5732992D01*
X14155441Y-5731127D01*
X14243830Y-5642739D01*
X14245695Y-5640466D01*
X14247081Y-5637872D01*
X14247935Y-5635058D01*
X14248223Y-5632132D01*
X14248223Y-5602990D01*
X14410000Y-5441213D01*
X14671629Y-5702843D01*
X14671629Y-5702843D01*
G37*
X14671629Y-5702843D02*
X14509853Y-5864619D01*
X14480711Y-5864619D01*
X14477784Y-5864908D01*
X14474970Y-5865761D01*
X14472377Y-5867147D01*
X14470104Y-5869013D01*
X14381716Y-5957401D01*
X14379850Y-5959674D01*
X14378464Y-5962267D01*
X14377610Y-5965081D01*
X14377322Y-5968008D01*
X14377322Y-6003363D01*
X14377610Y-6006289D01*
X14378464Y-6009103D01*
X14379850Y-6011697D01*
X14381737Y-6013991D01*
X14628765Y-6260021D01*
X14509920Y-6378867D01*
X14261427Y-6134098D01*
X14259140Y-6132250D01*
X14256536Y-6130883D01*
X14253716Y-6130051D01*
X14250901Y-6129784D01*
X14215546Y-6129784D01*
X14212619Y-6130073D01*
X14209805Y-6130926D01*
X14207212Y-6132312D01*
X14204939Y-6134178D01*
X14116551Y-6222566D01*
X14114685Y-6224839D01*
X14113299Y-6227432D01*
X14112445Y-6230246D01*
X14112157Y-6233173D01*
X14112157Y-6262315D01*
X13950381Y-6424092D01*
X13688751Y-6162462D01*
X13850528Y-6000685D01*
X13879670Y-6000685D01*
X13882596Y-6000397D01*
X13885410Y-5999544D01*
X13888003Y-5998157D01*
X13890276Y-5996292D01*
X13978665Y-5907904D01*
X13980530Y-5905631D01*
X13981916Y-5903037D01*
X13982770Y-5900223D01*
X13983058Y-5897297D01*
X13983058Y-5861942D01*
X13982770Y-5859015D01*
X13981916Y-5856201D01*
X13980530Y-5853608D01*
X13978665Y-5851335D01*
X13724106Y-5596777D01*
X13844315Y-5476569D01*
X14098873Y-5731127D01*
X14101146Y-5732992D01*
X14103739Y-5734379D01*
X14106553Y-5735232D01*
X14109480Y-5735520D01*
X14144835Y-5735520D01*
X14147761Y-5735232D01*
X14150575Y-5734379D01*
X14153168Y-5732992D01*
X14155441Y-5731127D01*
X14243830Y-5642739D01*
X14245695Y-5640466D01*
X14247081Y-5637872D01*
X14247935Y-5635058D01*
X14248223Y-5632132D01*
X14248223Y-5602990D01*
X14410000Y-5441213D01*
X14671629Y-5702843D01*
G36*
X18561642Y-9579315D02*
G01*
X18399865Y-9741091D01*
X18370723Y-9741091D01*
X18367797Y-9741380D01*
X18364983Y-9742233D01*
X18362390Y-9743619D01*
X18360117Y-9745485D01*
X18271728Y-9833873D01*
X18269863Y-9836146D01*
X18268477Y-9838739D01*
X18267623Y-9841553D01*
X18267335Y-9844480D01*
X18267335Y-9879835D01*
X18267623Y-9882761D01*
X18268477Y-9885575D01*
X18269863Y-9888169D01*
X18271728Y-9890442D01*
X18526287Y-10145000D01*
X18406079Y-10265208D01*
X18151520Y-10010650D01*
X18149247Y-10008784D01*
X18146654Y-10007398D01*
X18143840Y-10006545D01*
X18140914Y-10006256D01*
X18105558Y-10006256D01*
X18102632Y-10006545D01*
X18099818Y-10007398D01*
X18097225Y-10008784D01*
X18094952Y-10010650D01*
X18006563Y-10099038D01*
X18004698Y-10101311D01*
X18003312Y-10103904D01*
X18002458Y-10106718D01*
X18002170Y-10109645D01*
X18002170Y-10138787D01*
X17840393Y-10300564D01*
X17578764Y-10038934D01*
X17740540Y-9877157D01*
X17769683Y-9877157D01*
X17772609Y-9876869D01*
X17775423Y-9876016D01*
X17778016Y-9874629D01*
X17780289Y-9872764D01*
X17868678Y-9784376D01*
X17870543Y-9782103D01*
X17871929Y-9779509D01*
X17872783Y-9776695D01*
X17873071Y-9773769D01*
X17873071Y-9738414D01*
X17872783Y-9735487D01*
X17871929Y-9732673D01*
X17870543Y-9730080D01*
X17868678Y-9727807D01*
X17614119Y-9473249D01*
X17734327Y-9353040D01*
X17988886Y-9607599D01*
X17991159Y-9609464D01*
X17993752Y-9610850D01*
X17996566Y-9611704D01*
X17999492Y-9611992D01*
X18034848Y-9611992D01*
X18037774Y-9611704D01*
X18040588Y-9610850D01*
X18043181Y-9609464D01*
X18045454Y-9607599D01*
X18133843Y-9519211D01*
X18135708Y-9516938D01*
X18137094Y-9514344D01*
X18137948Y-9511530D01*
X18138236Y-9508604D01*
X18138236Y-9479462D01*
X18300013Y-9317685D01*
X18561642Y-9579315D01*
X18561642Y-9579315D01*
G37*
X18561642Y-9579315D02*
X18399865Y-9741091D01*
X18370723Y-9741091D01*
X18367797Y-9741380D01*
X18364983Y-9742233D01*
X18362390Y-9743619D01*
X18360117Y-9745485D01*
X18271728Y-9833873D01*
X18269863Y-9836146D01*
X18268477Y-9838739D01*
X18267623Y-9841553D01*
X18267335Y-9844480D01*
X18267335Y-9879835D01*
X18267623Y-9882761D01*
X18268477Y-9885575D01*
X18269863Y-9888169D01*
X18271728Y-9890442D01*
X18526287Y-10145000D01*
X18406079Y-10265208D01*
X18151520Y-10010650D01*
X18149247Y-10008784D01*
X18146654Y-10007398D01*
X18143840Y-10006545D01*
X18140914Y-10006256D01*
X18105558Y-10006256D01*
X18102632Y-10006545D01*
X18099818Y-10007398D01*
X18097225Y-10008784D01*
X18094952Y-10010650D01*
X18006563Y-10099038D01*
X18004698Y-10101311D01*
X18003312Y-10103904D01*
X18002458Y-10106718D01*
X18002170Y-10109645D01*
X18002170Y-10138787D01*
X17840393Y-10300564D01*
X17578764Y-10038934D01*
X17740540Y-9877157D01*
X17769683Y-9877157D01*
X17772609Y-9876869D01*
X17775423Y-9876016D01*
X17778016Y-9874629D01*
X17780289Y-9872764D01*
X17868678Y-9784376D01*
X17870543Y-9782103D01*
X17871929Y-9779509D01*
X17872783Y-9776695D01*
X17873071Y-9773769D01*
X17873071Y-9738414D01*
X17872783Y-9735487D01*
X17871929Y-9732673D01*
X17870543Y-9730080D01*
X17868678Y-9727807D01*
X17614119Y-9473249D01*
X17734327Y-9353040D01*
X17988886Y-9607599D01*
X17991159Y-9609464D01*
X17993752Y-9610850D01*
X17996566Y-9611704D01*
X17999492Y-9611992D01*
X18034848Y-9611992D01*
X18037774Y-9611704D01*
X18040588Y-9610850D01*
X18043181Y-9609464D01*
X18045454Y-9607599D01*
X18133843Y-9519211D01*
X18135708Y-9516938D01*
X18137094Y-9514344D01*
X18137948Y-9511530D01*
X18138236Y-9508604D01*
X18138236Y-9479462D01*
X18300013Y-9317685D01*
X18561642Y-9579315D01*
D41*
G36*
X17832929Y-8600000D02*
G01*
X17760000Y-8672929D01*
X17667071Y-8580000D01*
X17740000Y-8507071D01*
X17832929Y-8600000D01*
X17832929Y-8600000D01*
G37*
X17832929Y-8600000D02*
X17760000Y-8672929D01*
X17667071Y-8580000D01*
X17740000Y-8507071D01*
X17832929Y-8600000D01*
G36*
X16942929Y-9490000D02*
G01*
X16870000Y-9562929D01*
X16777071Y-9470000D01*
X16850000Y-9397071D01*
X16942929Y-9490000D01*
X16942929Y-9490000D01*
G37*
X16942929Y-9490000D02*
X16870000Y-9562929D01*
X16777071Y-9470000D01*
X16850000Y-9397071D01*
X16942929Y-9490000D01*
G36*
X15502929Y-6290000D02*
G01*
X15430000Y-6362929D01*
X15337071Y-6270000D01*
X15410000Y-6197071D01*
X15502929Y-6290000D01*
X15502929Y-6290000D01*
G37*
X15502929Y-6290000D02*
X15430000Y-6362929D01*
X15337071Y-6270000D01*
X15410000Y-6197071D01*
X15502929Y-6290000D01*
G36*
X14612929Y-7180000D02*
G01*
X14540000Y-7252929D01*
X14447071Y-7160000D01*
X14520000Y-7087071D01*
X14612929Y-7180000D01*
X14612929Y-7180000D01*
G37*
X14612929Y-7180000D02*
X14540000Y-7252929D01*
X14447071Y-7160000D01*
X14520000Y-7087071D01*
X14612929Y-7180000D01*
G36*
X14232929Y-7670000D02*
G01*
X14140000Y-7762929D01*
X14067071Y-7690000D01*
X14160000Y-7597071D01*
X14232929Y-7670000D01*
X14232929Y-7670000D01*
G37*
X14232929Y-7670000D02*
X14140000Y-7762929D01*
X14067071Y-7690000D01*
X14160000Y-7597071D01*
X14232929Y-7670000D01*
G36*
X16402929Y-9840000D02*
G01*
X16310000Y-9932929D01*
X16237071Y-9860000D01*
X16330000Y-9767071D01*
X16402929Y-9840000D01*
X16402929Y-9840000D01*
G37*
X16402929Y-9840000D02*
X16310000Y-9932929D01*
X16237071Y-9860000D01*
X16330000Y-9767071D01*
X16402929Y-9840000D01*
D25*
G36*
X14611256Y-7967469D02*
G01*
X14611256Y-7996612D01*
X14611544Y-7999538D01*
X14612398Y-8002352D01*
X14613784Y-8004945D01*
X14615650Y-8007218D01*
X14704038Y-8095607D01*
X14706311Y-8097472D01*
X14708904Y-8098858D01*
X14711718Y-8099712D01*
X14714645Y-8100000D01*
X14750000Y-8100000D01*
X14752926Y-8099712D01*
X14755740Y-8098858D01*
X14758334Y-8097472D01*
X14760607Y-8095607D01*
X15008094Y-7848119D01*
X15124767Y-7964792D01*
X14877279Y-8212279D01*
X14875414Y-8214552D01*
X14874028Y-8217145D01*
X14873174Y-8219959D01*
X14872886Y-8222886D01*
X14872886Y-8258241D01*
X14873174Y-8261168D01*
X14874028Y-8263981D01*
X14875414Y-8266575D01*
X14877279Y-8268848D01*
X14969203Y-8360772D01*
X14971476Y-8362637D01*
X14974069Y-8364023D01*
X14976883Y-8364877D01*
X14979810Y-8365165D01*
X15008952Y-8365165D01*
X15170728Y-8526942D01*
X14909099Y-8788571D01*
X14747322Y-8626795D01*
X14747322Y-8597652D01*
X14747034Y-8594726D01*
X14746180Y-8591912D01*
X14744794Y-8589319D01*
X14742929Y-8587046D01*
X14654541Y-8498658D01*
X14652268Y-8496792D01*
X14649674Y-8495406D01*
X14646860Y-8494552D01*
X14643934Y-8494264D01*
X14608579Y-8494264D01*
X14605652Y-8494552D01*
X14602838Y-8495406D01*
X14600245Y-8496792D01*
X14597972Y-8498658D01*
X14343414Y-8753216D01*
X14223205Y-8633008D01*
X14477764Y-8378449D01*
X14479629Y-8376176D01*
X14481015Y-8373583D01*
X14481869Y-8370769D01*
X14482157Y-8367843D01*
X14482157Y-8332487D01*
X14481869Y-8329561D01*
X14481016Y-8326747D01*
X14479629Y-8324154D01*
X14477764Y-8321881D01*
X14389375Y-8233492D01*
X14387102Y-8231627D01*
X14384509Y-8230241D01*
X14381695Y-8229387D01*
X14378769Y-8229099D01*
X14349627Y-8229099D01*
X14187850Y-8067322D01*
X14449480Y-7805693D01*
X14611256Y-7967469D01*
X14611256Y-7967469D01*
G37*
X14611256Y-7967469D02*
X14611256Y-7996612D01*
X14611544Y-7999538D01*
X14612398Y-8002352D01*
X14613784Y-8004945D01*
X14615650Y-8007218D01*
X14704038Y-8095607D01*
X14706311Y-8097472D01*
X14708904Y-8098858D01*
X14711718Y-8099712D01*
X14714645Y-8100000D01*
X14750000Y-8100000D01*
X14752926Y-8099712D01*
X14755740Y-8098858D01*
X14758334Y-8097472D01*
X14760607Y-8095607D01*
X15008094Y-7848119D01*
X15124767Y-7964792D01*
X14877279Y-8212279D01*
X14875414Y-8214552D01*
X14874028Y-8217145D01*
X14873174Y-8219959D01*
X14872886Y-8222886D01*
X14872886Y-8258241D01*
X14873174Y-8261168D01*
X14874028Y-8263981D01*
X14875414Y-8266575D01*
X14877279Y-8268848D01*
X14969203Y-8360772D01*
X14971476Y-8362637D01*
X14974069Y-8364023D01*
X14976883Y-8364877D01*
X14979810Y-8365165D01*
X15008952Y-8365165D01*
X15170728Y-8526942D01*
X14909099Y-8788571D01*
X14747322Y-8626795D01*
X14747322Y-8597652D01*
X14747034Y-8594726D01*
X14746180Y-8591912D01*
X14744794Y-8589319D01*
X14742929Y-8587046D01*
X14654541Y-8498658D01*
X14652268Y-8496792D01*
X14649674Y-8495406D01*
X14646860Y-8494552D01*
X14643934Y-8494264D01*
X14608579Y-8494264D01*
X14605652Y-8494552D01*
X14602838Y-8495406D01*
X14600245Y-8496792D01*
X14597972Y-8498658D01*
X14343414Y-8753216D01*
X14223205Y-8633008D01*
X14477764Y-8378449D01*
X14479629Y-8376176D01*
X14481015Y-8373583D01*
X14481869Y-8370769D01*
X14482157Y-8367843D01*
X14482157Y-8332487D01*
X14481869Y-8329561D01*
X14481016Y-8326747D01*
X14479629Y-8324154D01*
X14477764Y-8321881D01*
X14389375Y-8233492D01*
X14387102Y-8231627D01*
X14384509Y-8230241D01*
X14381695Y-8229387D01*
X14378769Y-8229099D01*
X14349627Y-8229099D01*
X14187850Y-8067322D01*
X14449480Y-7805693D01*
X14611256Y-7967469D01*
G36*
X15636256Y-8982470D02*
G01*
X15636256Y-9011612D01*
X15636544Y-9014538D01*
X15637398Y-9017352D01*
X15638784Y-9019945D01*
X15640650Y-9022218D01*
X15729038Y-9110607D01*
X15731311Y-9112472D01*
X15733904Y-9113858D01*
X15736718Y-9114712D01*
X15739645Y-9115000D01*
X15775000Y-9115000D01*
X15777926Y-9114712D01*
X15780740Y-9113858D01*
X15783334Y-9112472D01*
X15785607Y-9110607D01*
X16033094Y-8863119D01*
X16149767Y-8979792D01*
X15902279Y-9227279D01*
X15900414Y-9229552D01*
X15899028Y-9232146D01*
X15898174Y-9234959D01*
X15897886Y-9237886D01*
X15897886Y-9273241D01*
X15898174Y-9276168D01*
X15899028Y-9278982D01*
X15900414Y-9281575D01*
X15902279Y-9283848D01*
X15994203Y-9375772D01*
X15996476Y-9377637D01*
X15999069Y-9379023D01*
X16001883Y-9379877D01*
X16004810Y-9380165D01*
X16033952Y-9380165D01*
X16195728Y-9541942D01*
X15934099Y-9803571D01*
X15772322Y-9641795D01*
X15772322Y-9612652D01*
X15772034Y-9609726D01*
X15771180Y-9606912D01*
X15769794Y-9604319D01*
X15767929Y-9602046D01*
X15679541Y-9513658D01*
X15677268Y-9511792D01*
X15674674Y-9510406D01*
X15671860Y-9509552D01*
X15668934Y-9509264D01*
X15633579Y-9509264D01*
X15630652Y-9509552D01*
X15627838Y-9510406D01*
X15625245Y-9511792D01*
X15622972Y-9513658D01*
X15368414Y-9768216D01*
X15248205Y-9648008D01*
X15502764Y-9393449D01*
X15504629Y-9391176D01*
X15506015Y-9388583D01*
X15506869Y-9385769D01*
X15507157Y-9382843D01*
X15507157Y-9347487D01*
X15506869Y-9344561D01*
X15506016Y-9341747D01*
X15504629Y-9339154D01*
X15502764Y-9336881D01*
X15414375Y-9248492D01*
X15412102Y-9246627D01*
X15409509Y-9245241D01*
X15406695Y-9244387D01*
X15403769Y-9244099D01*
X15374627Y-9244099D01*
X15212850Y-9082322D01*
X15474480Y-8820693D01*
X15636256Y-8982470D01*
X15636256Y-8982470D01*
G37*
X15636256Y-8982470D02*
X15636256Y-9011612D01*
X15636544Y-9014538D01*
X15637398Y-9017352D01*
X15638784Y-9019945D01*
X15640650Y-9022218D01*
X15729038Y-9110607D01*
X15731311Y-9112472D01*
X15733904Y-9113858D01*
X15736718Y-9114712D01*
X15739645Y-9115000D01*
X15775000Y-9115000D01*
X15777926Y-9114712D01*
X15780740Y-9113858D01*
X15783334Y-9112472D01*
X15785607Y-9110607D01*
X16033094Y-8863119D01*
X16149767Y-8979792D01*
X15902279Y-9227279D01*
X15900414Y-9229552D01*
X15899028Y-9232146D01*
X15898174Y-9234959D01*
X15897886Y-9237886D01*
X15897886Y-9273241D01*
X15898174Y-9276168D01*
X15899028Y-9278982D01*
X15900414Y-9281575D01*
X15902279Y-9283848D01*
X15994203Y-9375772D01*
X15996476Y-9377637D01*
X15999069Y-9379023D01*
X16001883Y-9379877D01*
X16004810Y-9380165D01*
X16033952Y-9380165D01*
X16195728Y-9541942D01*
X15934099Y-9803571D01*
X15772322Y-9641795D01*
X15772322Y-9612652D01*
X15772034Y-9609726D01*
X15771180Y-9606912D01*
X15769794Y-9604319D01*
X15767929Y-9602046D01*
X15679541Y-9513658D01*
X15677268Y-9511792D01*
X15674674Y-9510406D01*
X15671860Y-9509552D01*
X15668934Y-9509264D01*
X15633579Y-9509264D01*
X15630652Y-9509552D01*
X15627838Y-9510406D01*
X15625245Y-9511792D01*
X15622972Y-9513658D01*
X15368414Y-9768216D01*
X15248205Y-9648008D01*
X15502764Y-9393449D01*
X15504629Y-9391176D01*
X15506015Y-9388583D01*
X15506869Y-9385769D01*
X15507157Y-9382843D01*
X15507157Y-9347487D01*
X15506869Y-9344561D01*
X15506016Y-9341747D01*
X15504629Y-9339154D01*
X15502764Y-9336881D01*
X15414375Y-9248492D01*
X15412102Y-9246627D01*
X15409509Y-9245241D01*
X15406695Y-9244387D01*
X15403769Y-9244099D01*
X15374627Y-9244099D01*
X15212850Y-9082322D01*
X15474480Y-8820693D01*
X15636256Y-8982470D01*
D41*
G36*
X15349160Y-7177165D02*
G01*
X15349160Y-7325657D01*
X15210668Y-7325657D01*
X15210668Y-7238733D01*
X15210571Y-7237758D01*
X15210287Y-7236820D01*
X15209825Y-7235955D01*
X15209203Y-7235198D01*
X14883934Y-6909929D01*
X14982929Y-6810934D01*
X15349160Y-7177165D01*
X15349160Y-7177165D01*
G37*
X15349160Y-7177165D02*
X15349160Y-7325657D01*
X15210668Y-7325657D01*
X15210668Y-7238733D01*
X15210571Y-7237758D01*
X15210287Y-7236820D01*
X15209825Y-7235955D01*
X15209203Y-7235198D01*
X14883934Y-6909929D01*
X14982929Y-6810934D01*
X15349160Y-7177165D01*
G36*
X15265772Y-8154436D02*
G01*
X15192990Y-8227218D01*
X15067782Y-8227218D01*
X15066806Y-8227314D01*
X15065868Y-8227599D01*
X15065004Y-8228061D01*
X15064246Y-8228683D01*
X14990000Y-8302929D01*
X14940502Y-8253431D01*
X15078388Y-8115546D01*
X15152635Y-8041299D01*
X15265772Y-8154436D01*
X15265772Y-8154436D01*
G37*
X15265772Y-8154436D02*
X15192990Y-8227218D01*
X15067782Y-8227218D01*
X15066806Y-8227314D01*
X15065868Y-8227599D01*
X15065004Y-8228061D01*
X15064246Y-8228683D01*
X14990000Y-8302929D01*
X14940502Y-8253431D01*
X15078388Y-8115546D01*
X15152635Y-8041299D01*
X15265772Y-8154436D01*
G36*
X15603718Y-7078170D02*
G01*
X15603718Y-7325657D01*
X15465226Y-7325657D01*
X15465226Y-7139738D01*
X15465130Y-7138763D01*
X15464845Y-7137825D01*
X15464383Y-7136960D01*
X15463761Y-7136203D01*
X15060711Y-6733152D01*
X15159706Y-6634157D01*
X15603718Y-7078170D01*
X15603718Y-7078170D01*
G37*
X15603718Y-7078170D02*
X15603718Y-7325657D01*
X15465226Y-7325657D01*
X15465226Y-7139738D01*
X15465130Y-7138763D01*
X15464845Y-7137825D01*
X15464383Y-7136960D01*
X15463761Y-7136203D01*
X15060711Y-6733152D01*
X15159706Y-6634157D01*
X15603718Y-7078170D01*
G36*
X14933431Y-7822096D02*
G01*
X14859185Y-7896342D01*
X14721299Y-8034228D01*
X14671802Y-7984731D01*
X14746048Y-7910485D01*
X14746670Y-7909727D01*
X14747132Y-7908862D01*
X14747416Y-7907924D01*
X14747513Y-7906949D01*
X14747513Y-7781741D01*
X14820294Y-7708959D01*
X14933431Y-7822096D01*
X14933431Y-7822096D01*
G37*
X14933431Y-7822096D02*
X14859185Y-7896342D01*
X14721299Y-8034228D01*
X14671802Y-7984731D01*
X14746048Y-7910485D01*
X14746670Y-7909727D01*
X14747132Y-7908862D01*
X14747416Y-7907924D01*
X14747513Y-7906949D01*
X14747513Y-7781741D01*
X14820294Y-7708959D01*
X14933431Y-7822096D01*
G36*
X14919289Y-6747294D02*
G01*
X14820294Y-6846289D01*
X14558665Y-6584659D01*
X14557907Y-6584038D01*
X14557043Y-6583576D01*
X14556105Y-6583291D01*
X14555129Y-6583195D01*
X14554154Y-6583291D01*
X14553216Y-6583576D01*
X14552351Y-6584038D01*
X14551594Y-6584659D01*
X14470276Y-6665977D01*
X14388959Y-6584659D01*
X14550037Y-6423582D01*
X14552603Y-6422519D01*
X14566525Y-6413217D01*
X14575868Y-6403873D01*
X14919289Y-6747294D01*
X14919289Y-6747294D01*
G37*
X14919289Y-6747294D02*
X14820294Y-6846289D01*
X14558665Y-6584659D01*
X14557907Y-6584038D01*
X14557043Y-6583576D01*
X14556105Y-6583291D01*
X14555129Y-6583195D01*
X14554154Y-6583291D01*
X14553216Y-6583576D01*
X14552351Y-6584038D01*
X14551594Y-6584659D01*
X14470276Y-6665977D01*
X14388959Y-6584659D01*
X14550037Y-6423582D01*
X14552603Y-6422519D01*
X14566525Y-6413217D01*
X14575868Y-6403873D01*
X14919289Y-6747294D01*
G36*
X14915754Y-6220499D02*
G01*
X14834436Y-6301817D01*
X14833815Y-6302574D01*
X14833353Y-6303439D01*
X14833068Y-6304377D01*
X14832972Y-6305352D01*
X14833068Y-6306328D01*
X14833353Y-6307266D01*
X14833815Y-6308130D01*
X14834436Y-6308888D01*
X15096066Y-6570517D01*
X14997071Y-6669512D01*
X14653650Y-6326091D01*
X14663217Y-6316525D01*
X14672519Y-6302603D01*
X14673582Y-6300037D01*
X14834436Y-6139182D01*
X14915754Y-6220499D01*
X14915754Y-6220499D01*
G37*
X14915754Y-6220499D02*
X14834436Y-6301817D01*
X14833815Y-6302574D01*
X14833353Y-6303439D01*
X14833068Y-6304377D01*
X14832972Y-6305352D01*
X14833068Y-6306328D01*
X14833353Y-6307266D01*
X14833815Y-6308130D01*
X14834436Y-6308888D01*
X15096066Y-6570517D01*
X14997071Y-6669512D01*
X14653650Y-6326091D01*
X14663217Y-6316525D01*
X14672519Y-6302603D01*
X14673582Y-6300037D01*
X14834436Y-6139182D01*
X14915754Y-6220499D01*
G36*
X15603718Y-7646781D02*
G01*
X15322066Y-7927881D01*
X15321443Y-7928638D01*
X15320980Y-7929502D01*
X15320695Y-7930439D01*
X15320598Y-7931415D01*
X15320693Y-7932390D01*
X15320976Y-7933329D01*
X15321438Y-7934194D01*
X15322062Y-7934955D01*
X15403657Y-8016551D01*
X15329411Y-8090797D01*
X15160143Y-7921528D01*
X15156146Y-7915546D01*
X15146556Y-7905957D01*
X15463761Y-7588751D01*
X15464383Y-7587993D01*
X15464845Y-7587129D01*
X15465130Y-7586191D01*
X15465226Y-7585215D01*
X15465226Y-7406368D01*
X15603718Y-7406368D01*
X15603718Y-7646781D01*
X15603718Y-7646781D01*
G37*
X15603718Y-7646781D02*
X15322066Y-7927881D01*
X15321443Y-7928638D01*
X15320980Y-7929502D01*
X15320695Y-7930439D01*
X15320598Y-7931415D01*
X15320693Y-7932390D01*
X15320976Y-7933329D01*
X15321438Y-7934194D01*
X15322062Y-7934955D01*
X15403657Y-8016551D01*
X15329411Y-8090797D01*
X15160143Y-7921528D01*
X15156146Y-7915546D01*
X15146556Y-7905957D01*
X15463761Y-7588751D01*
X15464383Y-7587993D01*
X15464845Y-7587129D01*
X15465130Y-7586191D01*
X15465226Y-7585215D01*
X15465226Y-7406368D01*
X15603718Y-7406368D01*
X15603718Y-7646781D01*
G36*
X15349160Y-7547789D02*
G01*
X15068774Y-7828175D01*
X15059453Y-7818854D01*
X15053471Y-7814857D01*
X14883934Y-7645320D01*
X14958180Y-7571073D01*
X15039498Y-7652391D01*
X15040255Y-7653012D01*
X15041120Y-7653475D01*
X15042058Y-7653759D01*
X15043033Y-7653855D01*
X15044009Y-7653759D01*
X15044946Y-7653475D01*
X15045811Y-7653012D01*
X15046569Y-7652391D01*
X15209203Y-7489756D01*
X15209825Y-7488998D01*
X15210287Y-7488134D01*
X15210571Y-7487196D01*
X15210668Y-7486221D01*
X15210668Y-7406368D01*
X15349160Y-7406368D01*
X15349160Y-7547789D01*
X15349160Y-7547789D01*
G37*
X15349160Y-7547789D02*
X15068774Y-7828175D01*
X15059453Y-7818854D01*
X15053471Y-7814857D01*
X14883934Y-7645320D01*
X14958180Y-7571073D01*
X15039498Y-7652391D01*
X15040255Y-7653012D01*
X15041120Y-7653475D01*
X15042058Y-7653759D01*
X15043033Y-7653855D01*
X15044009Y-7653759D01*
X15044946Y-7653475D01*
X15045811Y-7653012D01*
X15046569Y-7652391D01*
X15209203Y-7489756D01*
X15209825Y-7488998D01*
X15210287Y-7488134D01*
X15210571Y-7487196D01*
X15210668Y-7486221D01*
X15210668Y-7406368D01*
X15349160Y-7406368D01*
X15349160Y-7547789D01*
G36*
X14364210Y-6333637D02*
G01*
X14438457Y-6407883D01*
X14325320Y-6521020D01*
X14252538Y-6448238D01*
X14252538Y-6323030D01*
X14252442Y-6322054D01*
X14252157Y-6321117D01*
X14251695Y-6320252D01*
X14251073Y-6319494D01*
X14176827Y-6245248D01*
X14226325Y-6195751D01*
X14364210Y-6333637D01*
X14364210Y-6333637D01*
G37*
X14364210Y-6333637D02*
X14438457Y-6407883D01*
X14325320Y-6521020D01*
X14252538Y-6448238D01*
X14252538Y-6323030D01*
X14252442Y-6322054D01*
X14252157Y-6321117D01*
X14251695Y-6320252D01*
X14251073Y-6319494D01*
X14176827Y-6245248D01*
X14226325Y-6195751D01*
X14364210Y-6333637D01*
G36*
X14569271Y-6001296D02*
G01*
X14570029Y-6001918D01*
X14570894Y-6002380D01*
X14571832Y-6002665D01*
X14572807Y-6002761D01*
X14698015Y-6002761D01*
X14770797Y-6075543D01*
X14657660Y-6188680D01*
X14445528Y-5976548D01*
X14495025Y-5927050D01*
X14569271Y-6001296D01*
X14569271Y-6001296D01*
G37*
X14569271Y-6001296D02*
X14570029Y-6001918D01*
X14570894Y-6002380D01*
X14571832Y-6002665D01*
X14572807Y-6002761D01*
X14698015Y-6002761D01*
X14770797Y-6075543D01*
X14657660Y-6188680D01*
X14445528Y-5976548D01*
X14495025Y-5927050D01*
X14569271Y-6001296D01*
G36*
X18697267Y-10059632D02*
G01*
X18697267Y-10156556D01*
X18697363Y-10157531D01*
X18697647Y-10158469D01*
X18698109Y-10159334D01*
X18698731Y-10160091D01*
X18893186Y-10354546D01*
X18794191Y-10453541D01*
X18601201Y-10260551D01*
X18601201Y-10121201D01*
X18601104Y-10120225D01*
X18600820Y-10119287D01*
X18600358Y-10118423D01*
X18599736Y-10117665D01*
X18567916Y-10085845D01*
X18645698Y-10008063D01*
X18697267Y-10059632D01*
X18697267Y-10059632D01*
G37*
X18697267Y-10059632D02*
X18697267Y-10156556D01*
X18697363Y-10157531D01*
X18697647Y-10158469D01*
X18698109Y-10159334D01*
X18698731Y-10160091D01*
X18893186Y-10354546D01*
X18794191Y-10453541D01*
X18601201Y-10260551D01*
X18601201Y-10121201D01*
X18601104Y-10120225D01*
X18600820Y-10119287D01*
X18600358Y-10118423D01*
X18599736Y-10117665D01*
X18567916Y-10085845D01*
X18645698Y-10008063D01*
X18697267Y-10059632D01*
G36*
X18380533Y-10336868D02*
G01*
X18381291Y-10337490D01*
X18382155Y-10337952D01*
X18383093Y-10338236D01*
X18384069Y-10338333D01*
X18523419Y-10338333D01*
X18716409Y-10531323D01*
X18617414Y-10630318D01*
X18422959Y-10435863D01*
X18422202Y-10435241D01*
X18421337Y-10434779D01*
X18420399Y-10434495D01*
X18419424Y-10434399D01*
X18322500Y-10434399D01*
X18270931Y-10382830D01*
X18348713Y-10305048D01*
X18380533Y-10336868D01*
X18380533Y-10336868D01*
G37*
X18380533Y-10336868D02*
X18381291Y-10337490D01*
X18382155Y-10337952D01*
X18383093Y-10338236D01*
X18384069Y-10338333D01*
X18523419Y-10338333D01*
X18716409Y-10531323D01*
X18617414Y-10630318D01*
X18422959Y-10435863D01*
X18422202Y-10435241D01*
X18421337Y-10434779D01*
X18420399Y-10434495D01*
X18419424Y-10434399D01*
X18322500Y-10434399D01*
X18270931Y-10382830D01*
X18348713Y-10305048D01*
X18380533Y-10336868D01*
G36*
X18978038Y-10792952D02*
G01*
X18829546Y-10941445D01*
X18730551Y-10842450D01*
X18776513Y-10796488D01*
X18777135Y-10795730D01*
X18777597Y-10794866D01*
X18777881Y-10793928D01*
X18777977Y-10792952D01*
X18777881Y-10791977D01*
X18777597Y-10791039D01*
X18777135Y-10790174D01*
X18776513Y-10789417D01*
X18673982Y-10686886D01*
X18772977Y-10587891D01*
X18978038Y-10792952D01*
X18978038Y-10792952D01*
G37*
X18978038Y-10792952D02*
X18829546Y-10941445D01*
X18730551Y-10842450D01*
X18776513Y-10796488D01*
X18777135Y-10795730D01*
X18777597Y-10794866D01*
X18777881Y-10793928D01*
X18777977Y-10792952D01*
X18777881Y-10791977D01*
X18777597Y-10791039D01*
X18777135Y-10790174D01*
X18776513Y-10789417D01*
X18673982Y-10686886D01*
X18772977Y-10587891D01*
X18978038Y-10792952D01*
G36*
X18483113Y-9902047D02*
G01*
X18483871Y-9902669D01*
X18484736Y-9903131D01*
X18485674Y-9903416D01*
X18486649Y-9903512D01*
X18541146Y-9903512D01*
X18589179Y-9951545D01*
X18511398Y-10029327D01*
X18334621Y-9852550D01*
X18384118Y-9803052D01*
X18483113Y-9902047D01*
X18483113Y-9902047D01*
G37*
X18483113Y-9902047D02*
X18483871Y-9902669D01*
X18484736Y-9903131D01*
X18485674Y-9903416D01*
X18486649Y-9903512D01*
X18541146Y-9903512D01*
X18589179Y-9951545D01*
X18511398Y-10029327D01*
X18334621Y-9852550D01*
X18384118Y-9803052D01*
X18483113Y-9902047D01*
G36*
X18292145Y-10248480D02*
G01*
X18214363Y-10326262D01*
X18169866Y-10281764D01*
X18169866Y-10227267D01*
X18169770Y-10226291D01*
X18169485Y-10225353D01*
X18169023Y-10224489D01*
X18168401Y-10223731D01*
X18065871Y-10121200D01*
X18115368Y-10071703D01*
X18292145Y-10248480D01*
X18292145Y-10248480D01*
G37*
X18292145Y-10248480D02*
X18214363Y-10326262D01*
X18169866Y-10281764D01*
X18169866Y-10227267D01*
X18169770Y-10226291D01*
X18169485Y-10225353D01*
X18169023Y-10224489D01*
X18168401Y-10223731D01*
X18065871Y-10121200D01*
X18115368Y-10071703D01*
X18292145Y-10248480D01*
G36*
X19052285Y-10513645D02*
G01*
X19053042Y-10514267D01*
X19053907Y-10514729D01*
X19054845Y-10515013D01*
X19055820Y-10515109D01*
X19056796Y-10515013D01*
X19057733Y-10514729D01*
X19058598Y-10514267D01*
X19059356Y-10513645D01*
X19105318Y-10467683D01*
X19204312Y-10566678D01*
X19055820Y-10715170D01*
X18850759Y-10510109D01*
X18949754Y-10411114D01*
X19052285Y-10513645D01*
X19052285Y-10513645D01*
G37*
X19052285Y-10513645D02*
X19053042Y-10514267D01*
X19053907Y-10514729D01*
X19054845Y-10515013D01*
X19055820Y-10515109D01*
X19056796Y-10515013D01*
X19057733Y-10514729D01*
X19058598Y-10514267D01*
X19059356Y-10513645D01*
X19105318Y-10467683D01*
X19204312Y-10566678D01*
X19055820Y-10715170D01*
X18850759Y-10510109D01*
X18949754Y-10411114D01*
X19052285Y-10513645D01*
M02*
