G04 #@! TF.GenerationSoftware,KiCad,Pcbnew,(5.1.0-3-gb9944e2c0)*
G04 #@! TF.CreationDate,2019-04-17T10:32:59+02:00*
G04 #@! TF.ProjectId,QFHMIX01C,5146484d-4958-4303-9143-2e6b69636164,REV 0.2*
G04 #@! TF.SameCoordinates,Original*
G04 #@! TF.FileFunction,Copper,L1,Top*
G04 #@! TF.FilePolarity,Positive*
%FSLAX45Y45*%
G04 Gerber Fmt 4.5, Leading zero omitted, Abs format (unit mm)*
G04 Created by KiCad (PCBNEW (5.1.0-3-gb9944e2c0)) date 2019-04-17 10:32:59*
%MOMM*%
%LPD*%
G04 APERTURE LIST*
%ADD10C,2.500000*%
%ADD11C,0.600000*%
%ADD12C,1.524000*%
%ADD13C,0.150000*%
%ADD14C,6.000000*%
%ADD15C,1.000000*%
%ADD16C,0.750000*%
%ADD17C,0.500000*%
%ADD18C,0.800000*%
%ADD19C,0.600000*%
%ADD20C,0.250000*%
%ADD21C,0.300000*%
%ADD22C,1.500000*%
G04 APERTURE END LIST*
D10*
X11107073Y-11007073D03*
X12992927Y-12892927D03*
X11376481Y-11276481D03*
X11645888Y-11545888D03*
X11915296Y-11815296D03*
X12184704Y-12084704D03*
X12454111Y-12354111D03*
X12723519Y-12623519D03*
D11*
X11910894Y-6895662D03*
X11981605Y-6966372D03*
X11910894Y-7037083D03*
X11840184Y-6966372D03*
X11910894Y-6966372D03*
D12*
X17639408Y-10589803D03*
D13*
G36*
X17639408Y-10482040D02*
G01*
X17747171Y-10589803D01*
X17639408Y-10697566D01*
X17531645Y-10589803D01*
X17639408Y-10482040D01*
X17639408Y-10482040D01*
G37*
D12*
X17459803Y-10769408D03*
D13*
G36*
X17459803Y-10661645D02*
G01*
X17567566Y-10769408D01*
X17459803Y-10877171D01*
X17352040Y-10769408D01*
X17459803Y-10661645D01*
X17459803Y-10661645D01*
G37*
D12*
X17459803Y-10410197D03*
D13*
G36*
X17459803Y-10302434D02*
G01*
X17567566Y-10410197D01*
X17459803Y-10517961D01*
X17352040Y-10410197D01*
X17459803Y-10302434D01*
X17459803Y-10302434D01*
G37*
D12*
X17280197Y-10589803D03*
D13*
G36*
X17280197Y-10482040D02*
G01*
X17387961Y-10589803D01*
X17280197Y-10697566D01*
X17172434Y-10589803D01*
X17280197Y-10482040D01*
X17280197Y-10482040D01*
G37*
D12*
X17280197Y-10230592D03*
D13*
G36*
X17280197Y-10122829D02*
G01*
X17387961Y-10230592D01*
X17280197Y-10338355D01*
X17172434Y-10230592D01*
X17280197Y-10122829D01*
X17280197Y-10122829D01*
G37*
D12*
X17100592Y-10410197D03*
D13*
G36*
X17100592Y-10302434D02*
G01*
X17208355Y-10410197D01*
X17100592Y-10517961D01*
X16992829Y-10410197D01*
X17100592Y-10302434D01*
X17100592Y-10302434D01*
G37*
D14*
X11444000Y-12556000D03*
X18556000Y-5444000D03*
X18556000Y-12556000D03*
X11400000Y-9000000D03*
X18600000Y-9000000D03*
X15000000Y-5400000D03*
X15000000Y-12600000D03*
X11444000Y-5444000D03*
D15*
X14605754Y-8086403D03*
D16*
X13035065Y-11220677D03*
X13133848Y-11121894D03*
X13457071Y-12157647D03*
X13707071Y-12407647D03*
X15450000Y-11700000D03*
X15100000Y-11700000D03*
X14730000Y-11700000D03*
X13420000Y-7940000D03*
X13740000Y-7280000D03*
X13149138Y-6850684D03*
X12512742Y-7557790D03*
X13460000Y-7740000D03*
X11650000Y-7850000D03*
X13210000Y-6550000D03*
X13400000Y-6350000D03*
X12510000Y-8620000D03*
X12000000Y-10550000D03*
X12200000Y-10360000D03*
X11350000Y-8095000D03*
X13820000Y-8777550D03*
X13780000Y-8300000D03*
X13420000Y-8620000D03*
X12540000Y-8160000D03*
X13460000Y-7280000D03*
X13920000Y-9140000D03*
X14780000Y-10350000D03*
X14950000Y-10520908D03*
X14120000Y-9320000D03*
X11690434Y-6852656D03*
X11500000Y-6700000D03*
X12620000Y-10780000D03*
X12680000Y-8460000D03*
X12150000Y-11170000D03*
X13000000Y-7980000D03*
X13750000Y-10920000D03*
X12654163Y-10209441D03*
X12747279Y-9917279D03*
X13090000Y-10250000D03*
X13270000Y-10730000D03*
X12990039Y-11712043D03*
X12276360Y-11011508D03*
X12830000Y-11850000D03*
X19440000Y-4560000D03*
X12500000Y-6150000D03*
X16414000Y-11242200D03*
X16350500Y-11178700D03*
X15720000Y-10910000D03*
X15890000Y-10740000D03*
X12125000Y-7180000D03*
X12290000Y-7350000D03*
X12425000Y-5700000D03*
X14500000Y-10970000D03*
X13630000Y-9200000D03*
X14940000Y-10160000D03*
X13002540Y-11091557D03*
X12774638Y-10960249D03*
X12873421Y-10861467D03*
X14639960Y-10200000D03*
X11800000Y-10760000D03*
X12920000Y-7805278D03*
X12760000Y-7820000D03*
X13100000Y-7620000D03*
X13740000Y-7740000D03*
X12680000Y-6025000D03*
X13725000Y-6650000D03*
X13060000Y-6025000D03*
X13465000Y-6805000D03*
X13240000Y-8120000D03*
X13400000Y-8300000D03*
X13600000Y-8100000D03*
X11425000Y-10775000D03*
X12025000Y-10175000D03*
X11825000Y-10375000D03*
X11625000Y-10575000D03*
X11600000Y-10960000D03*
X11750000Y-9750000D03*
X12400000Y-9950000D03*
X13260000Y-7780000D03*
X13080000Y-7960000D03*
X11990000Y-8125000D03*
X12865000Y-6737500D03*
X12910000Y-7252500D03*
X12480000Y-10460000D03*
X13975000Y-11700000D03*
X13420000Y-11680000D03*
X13570000Y-11530000D03*
X13260000Y-9450000D03*
X13910000Y-9520000D03*
X14177500Y-9807500D03*
X16690000Y-10700000D03*
X16750000Y-10640000D03*
X12650000Y-6975000D03*
X12350000Y-6750000D03*
X12070000Y-6480000D03*
X11600000Y-6200000D03*
X16270000Y-10100000D03*
X16470000Y-9900000D03*
X14540000Y-11340000D03*
X13980000Y-11340000D03*
X13470000Y-10810000D03*
X13190000Y-10520000D03*
X14670000Y-9410000D03*
X13250000Y-8460000D03*
X11500000Y-10000000D03*
X12420000Y-9350000D03*
X15000000Y-13450000D03*
X15500000Y-13450000D03*
X14500000Y-13450000D03*
X14000000Y-13450000D03*
X13500000Y-13450000D03*
X13000000Y-13450000D03*
X12000000Y-13450000D03*
X12500000Y-13450000D03*
X11500000Y-13450000D03*
X11000000Y-13450000D03*
X10550000Y-13000000D03*
X10550000Y-12000000D03*
X10550000Y-12500000D03*
X10550000Y-11000000D03*
X10550000Y-11500000D03*
X10550000Y-10500000D03*
X10550000Y-10000000D03*
X10550000Y-9500000D03*
X10550000Y-9000000D03*
X18500000Y-4550000D03*
X18000000Y-4550000D03*
X19000000Y-4550000D03*
X19450000Y-5000000D03*
X19450000Y-6000000D03*
X19450000Y-5500000D03*
X19450000Y-7000000D03*
X19450000Y-6500000D03*
X17000000Y-13450000D03*
X16500000Y-13450000D03*
X18000000Y-13450000D03*
X17500000Y-13450000D03*
X19000000Y-13450000D03*
X18500000Y-13450000D03*
X19450000Y-13000000D03*
X19450000Y-12000000D03*
X19450000Y-12500000D03*
X19450000Y-11500000D03*
X19450000Y-11000000D03*
X16000000Y-13450000D03*
X12010000Y-8675000D03*
X12300000Y-8395000D03*
X12125000Y-9950000D03*
X12125000Y-9675000D03*
X12125000Y-9350000D03*
X12225000Y-9125000D03*
X12425000Y-8900000D03*
X12400000Y-9675000D03*
X10550000Y-8500000D03*
X10550000Y-8000000D03*
X10550000Y-7500000D03*
X10550000Y-7000000D03*
X10550000Y-6500000D03*
X10550000Y-6000000D03*
X10550000Y-5500000D03*
X10550000Y-5000000D03*
X11000000Y-4550000D03*
X11500000Y-4550000D03*
X12000000Y-4550000D03*
X12500000Y-4550000D03*
X13000000Y-4550000D03*
X13500000Y-4550000D03*
X14000000Y-4550000D03*
X14500000Y-4550000D03*
X15000000Y-4550000D03*
X15500000Y-4550000D03*
X16000000Y-4550000D03*
X16500000Y-4550000D03*
X17000000Y-4550000D03*
X17500000Y-4550000D03*
X19450000Y-7500000D03*
X19450000Y-8000000D03*
X19450000Y-8500000D03*
X19450000Y-9000000D03*
X19450000Y-9500000D03*
X19450000Y-10000000D03*
X19450000Y-10500000D03*
D15*
X14535043Y-8157114D03*
X14464332Y-8227825D03*
X14535043Y-8298535D03*
X14605754Y-8227825D03*
X14676464Y-8157114D03*
X14747175Y-8227825D03*
X14676464Y-8298535D03*
X14605754Y-8369246D03*
X14676464Y-8439957D03*
X14747175Y-8369246D03*
X14817886Y-8298535D03*
X14888596Y-8369246D03*
X14817886Y-8439957D03*
X14747175Y-8510668D03*
X14888596Y-8510668D03*
X14464332Y-8086403D03*
X14570398Y-7980337D03*
X14358266Y-8192469D03*
X14340589Y-7962660D03*
X14446655Y-7856594D03*
X14234523Y-8068726D03*
X14994662Y-8404602D03*
X14782530Y-8616734D03*
X15012340Y-8634411D03*
X15118406Y-8528345D03*
X14906274Y-8740477D03*
X15005269Y-7969731D03*
X14920416Y-7969731D03*
X15005269Y-7884878D03*
X15090122Y-7969731D03*
X15005269Y-8054584D03*
X14344124Y-8630876D03*
X14259271Y-8630876D03*
X14344124Y-8715729D03*
X14428977Y-8630876D03*
X14344124Y-8546023D03*
X14190000Y-5925000D03*
X14119289Y-5854289D03*
X14260711Y-5995711D03*
X14048579Y-6066421D03*
X13977868Y-5995711D03*
X14048579Y-5925000D03*
X14119289Y-6137132D03*
X14119289Y-5995711D03*
X14190000Y-6066421D03*
X14190000Y-5783579D03*
X14260711Y-5854289D03*
X14331421Y-5925000D03*
X14402132Y-5854289D03*
X14331421Y-5783579D03*
X14260711Y-5712868D03*
X14402132Y-5712868D03*
X13977868Y-6137132D03*
X13861195Y-5596195D03*
X13776342Y-5596195D03*
X13861195Y-5511343D03*
X13946048Y-5596195D03*
X13861195Y-5681048D03*
X14522340Y-6257340D03*
X14437487Y-6257340D03*
X14522340Y-6172487D03*
X14522340Y-6342193D03*
X14607193Y-6257340D03*
X14083934Y-6243198D03*
X13960190Y-6366942D03*
X13854124Y-6260876D03*
X13748058Y-6154810D03*
X13871802Y-6031066D03*
X14296066Y-5606802D03*
X14419810Y-5483058D03*
X14525876Y-5589124D03*
X14631942Y-5695190D03*
X14508198Y-5818934D03*
X18080000Y-9815000D03*
X18150711Y-9885711D03*
X18221421Y-9815000D03*
X18292132Y-9744289D03*
X18221421Y-9673579D03*
X18150711Y-9602868D03*
X18080000Y-9673579D03*
X18150711Y-9744289D03*
X18009289Y-9744289D03*
X17938579Y-9815000D03*
X18009289Y-9885711D03*
X18080000Y-9956421D03*
X18009289Y-10027132D03*
X17938579Y-9956421D03*
X17867868Y-9885711D03*
X17867868Y-10027132D03*
X17973934Y-10133198D03*
X18398198Y-9708934D03*
X18292132Y-9602868D03*
X18186066Y-9496802D03*
X17761802Y-9921066D03*
X17747660Y-9482660D03*
X17832513Y-9482660D03*
X17747660Y-9567513D03*
X17662807Y-9482660D03*
X17747660Y-9397807D03*
X18408805Y-10143805D03*
X18493658Y-10143805D03*
X18408805Y-10228658D03*
X18323952Y-10143805D03*
X18408805Y-10058952D03*
X18415876Y-9479124D03*
X18309810Y-9373058D03*
X18521942Y-9585190D03*
X17744124Y-10150876D03*
X17638058Y-10044810D03*
X17850190Y-10256942D03*
X15701464Y-9313536D03*
X15630754Y-9242825D03*
X15772175Y-9242825D03*
X15701464Y-9172114D03*
X15560043Y-9313536D03*
X15630754Y-9384246D03*
X15701464Y-9454957D03*
X15772175Y-9384246D03*
X15842886Y-9313536D03*
X15842886Y-9454957D03*
X15772175Y-9525668D03*
X15913596Y-9384246D03*
X16019662Y-9419602D03*
X15913596Y-9525668D03*
X15807530Y-9631734D03*
X15931274Y-9755477D03*
X16037340Y-9649411D03*
X16143406Y-9543345D03*
X15560043Y-9172114D03*
X15489332Y-9242825D03*
X15630754Y-9101404D03*
X15595398Y-8995338D03*
X15471655Y-8871594D03*
X15365589Y-8977660D03*
X15489332Y-9101404D03*
X15383266Y-9207470D03*
X15259523Y-9083726D03*
X15369124Y-9645876D03*
X15369124Y-9561023D03*
X15284271Y-9645876D03*
X15369124Y-9730729D03*
X15453977Y-9645876D03*
X16030269Y-8984731D03*
X15945416Y-8984731D03*
X16030269Y-8899878D03*
X16115122Y-8984731D03*
X16030269Y-9069584D03*
D16*
X12912737Y-11001755D03*
X15615000Y-5960000D03*
X14350000Y-11700000D03*
X14100000Y-12025000D03*
X17760000Y-8650000D03*
X17810000Y-8600000D03*
X15360000Y-8260000D03*
X15740000Y-8640000D03*
X15670000Y-10150000D03*
X15530000Y-10000000D03*
X14590000Y-9210000D03*
X14530000Y-9270000D03*
X13030000Y-9050000D03*
X12930000Y-8960000D03*
X12700000Y-9260000D03*
X12840000Y-9400000D03*
X12710000Y-9540000D03*
X16600000Y-10890000D03*
X16660000Y-10830000D03*
X15830000Y-10290000D03*
X16070000Y-10290000D03*
X13630000Y-10360000D03*
X13590000Y-10140000D03*
X13870000Y-10410000D03*
X13450000Y-10280000D03*
X13720000Y-10550000D03*
X14980000Y-11340000D03*
X12460000Y-11540000D03*
X12200000Y-11800000D03*
X12172500Y-6932500D03*
X11597500Y-6960000D03*
X14000000Y-13000000D03*
X14000000Y-12500000D03*
X11000000Y-10000000D03*
X11000000Y-10500000D03*
X13500000Y-13000000D03*
X14475000Y-12400000D03*
X14730000Y-12050000D03*
X15250000Y-12050000D03*
X15750000Y-12050000D03*
X18450000Y-8020000D03*
X11350000Y-7550000D03*
X11350000Y-7020000D03*
X11350000Y-6450000D03*
X12100000Y-5700000D03*
X11850000Y-5950000D03*
X12300000Y-6000000D03*
X11650000Y-9550000D03*
X11975000Y-9225000D03*
X10850000Y-9275000D03*
X11175000Y-9550000D03*
X14475000Y-12800000D03*
X14725000Y-13125000D03*
X11450000Y-5225000D03*
X11444000Y-12331000D03*
X11444000Y-12781000D03*
X11669000Y-12556000D03*
X11219000Y-12556000D03*
X11284000Y-12396000D03*
X11604000Y-12396000D03*
X11604000Y-12716000D03*
X11284000Y-12716000D03*
X11604000Y-5284000D03*
X11219000Y-5444000D03*
X11444000Y-5669000D03*
X11284000Y-5284000D03*
X11284000Y-5604000D03*
X11669000Y-5444000D03*
X11604000Y-5604000D03*
X18716000Y-5284000D03*
X18331000Y-5444000D03*
X18556000Y-5669000D03*
X18396000Y-5604000D03*
X18556000Y-5219000D03*
X18781000Y-5444000D03*
X18716000Y-5604000D03*
X18716000Y-12716000D03*
X18781000Y-12556000D03*
X18716000Y-12396000D03*
X18331000Y-12556000D03*
X18556000Y-12331000D03*
X18396000Y-12396000D03*
X18556000Y-12781000D03*
X18396000Y-12716000D03*
X18396000Y-5284000D03*
X10560000Y-4560000D03*
X10560000Y-13440000D03*
X19440000Y-13440000D03*
X11620000Y-7360000D03*
X12770000Y-6290000D03*
X12950000Y-6300000D03*
X12730000Y-6400000D03*
X11925000Y-7700000D03*
X12155000Y-7945000D03*
X12740000Y-5700000D03*
X17060000Y-11010000D03*
X17270000Y-11110000D03*
X13740000Y-9320000D03*
X16200000Y-12050000D03*
X16700000Y-12050000D03*
X17150000Y-12050000D03*
X17450000Y-11750000D03*
X18000000Y-11200000D03*
X18000000Y-10950000D03*
X17750000Y-11450000D03*
X15150000Y-10350000D03*
X15700000Y-12240000D03*
X16870000Y-9540000D03*
X16920000Y-9490000D03*
X15360000Y-6270000D03*
X15410000Y-6220000D03*
X14520000Y-7110000D03*
X14470000Y-7160000D03*
X14140000Y-7740000D03*
X14090000Y-7690000D03*
X16310000Y-9910000D03*
X16260000Y-9860000D03*
X15610000Y-8770000D03*
X15230000Y-8390000D03*
X13580000Y-8480000D03*
X16710000Y-9790000D03*
X16890000Y-9790000D03*
X17090000Y-9990000D03*
X16620000Y-10070000D03*
X16620000Y-10330000D03*
X14960000Y-10960000D03*
X15390000Y-11160000D03*
X15130000Y-11130000D03*
X15160000Y-10740000D03*
X12680000Y-10440000D03*
X14790000Y-9730000D03*
X15800000Y-5960000D03*
X18750000Y-8020000D03*
X15510000Y-12240000D03*
X11350000Y-8285000D03*
X15620000Y-10230000D03*
X15565000Y-10285000D03*
X14805000Y-9275000D03*
X14980000Y-9445000D03*
X14620000Y-9080000D03*
X16540000Y-11700000D03*
X16610000Y-11630000D03*
X16680000Y-11560000D03*
X14920000Y-10822500D03*
X13895000Y-9810000D03*
X14185000Y-10092500D03*
X13150000Y-9100000D03*
X15512763Y-8325000D03*
X15675000Y-8485000D03*
X14870000Y-7100000D03*
X15330002Y-6634998D03*
X16945000Y-9135000D03*
X17420000Y-8660000D03*
X13120854Y-11609512D03*
X12371320Y-10859979D03*
X12719681Y-11205587D03*
X13215791Y-10855795D03*
X13480000Y-11280000D03*
X11997500Y-6300000D03*
X12740000Y-6850000D03*
X13797908Y-8436371D03*
X14363594Y-9702092D03*
X13730733Y-8503546D03*
X14296419Y-9769267D03*
X13143949Y-10785084D03*
X12730000Y-10550000D03*
X13550000Y-8652500D03*
X13252500Y-8945000D03*
X14572500Y-9675000D03*
X14270000Y-9980000D03*
X12688588Y-8908588D03*
X13642500Y-7845000D03*
X12621412Y-8841412D03*
X13547500Y-7845000D03*
D15*
X17760000Y-5560690D03*
D17*
X11840184Y-6966372D02*
X11910894Y-6966372D01*
X11910894Y-7037083D02*
X11910894Y-6966372D01*
X11981605Y-6966372D02*
X11910894Y-6966372D01*
X11910894Y-6895662D02*
X11910894Y-6966372D01*
D18*
X16360000Y-11880000D02*
X16680000Y-11560000D01*
X14005854Y-11880000D02*
X16360000Y-11880000D01*
X12992927Y-12892927D02*
X14005854Y-11880000D01*
D19*
X14920000Y-10822500D02*
X14190000Y-10092500D01*
X14190000Y-10092500D02*
X14185000Y-10092500D01*
X13822500Y-9772500D02*
X13187500Y-9137500D01*
X13187500Y-9137500D02*
X13150000Y-9100000D01*
X13857500Y-9772500D02*
X13822500Y-9772500D01*
X13895000Y-9810000D02*
X13857500Y-9772500D01*
D18*
X15672763Y-8485000D02*
X15512763Y-8325000D01*
X15675000Y-8485000D02*
X15672763Y-8485000D01*
X15512763Y-8325000D02*
X15512763Y-7742763D01*
X15512763Y-7742763D02*
X14907500Y-7137500D01*
X14907500Y-7137500D02*
X14870000Y-7100000D01*
X14870000Y-7100000D02*
X15330002Y-6639998D01*
X15330002Y-6639998D02*
X15330002Y-6634998D01*
X15675000Y-8485000D02*
X16295000Y-8485000D01*
X16295000Y-8485000D02*
X16945000Y-9135000D01*
X17420000Y-8660000D02*
X16945000Y-9135000D01*
D19*
X13120854Y-11606759D02*
X13120854Y-11609512D01*
X12719681Y-11205587D02*
X13120854Y-11606759D01*
X12371320Y-10859979D02*
X12716928Y-11205587D01*
X12716928Y-11205587D02*
X12719681Y-11205587D01*
D20*
X13442500Y-11242500D02*
X13442500Y-11242500D01*
X13480000Y-11280000D02*
X13442500Y-11242500D01*
X13215791Y-11015791D02*
X13215791Y-10855795D01*
X13442500Y-11242500D02*
X13215791Y-11015791D01*
D17*
X12702500Y-6812500D02*
X12740000Y-6850000D01*
X11997500Y-6300000D02*
X12190000Y-6300000D01*
X12190000Y-6300000D02*
X12702500Y-6812500D01*
D21*
X14296670Y-9666988D02*
X14331774Y-9702092D01*
X14296670Y-8966952D02*
X14296670Y-9666988D01*
X13797908Y-8468190D02*
X14296670Y-8966952D01*
X13797908Y-8436371D02*
X13797908Y-8468190D01*
X14331774Y-9702092D02*
X14363594Y-9702092D01*
X14246670Y-8987663D02*
X14246670Y-9687698D01*
X14246670Y-9687698D02*
X14296419Y-9737447D01*
X13730733Y-8503546D02*
X13762553Y-8503546D01*
X13762553Y-8503546D02*
X14246670Y-8987663D01*
X14296419Y-9737447D02*
X14296419Y-9769267D01*
X12767500Y-10587500D02*
X12730000Y-10550000D01*
X12963953Y-10783953D02*
X12767500Y-10587500D01*
X13143949Y-10783953D02*
X12963953Y-10783953D01*
D17*
X13550000Y-8652500D02*
X13257500Y-8945000D01*
X13257500Y-8945000D02*
X13252500Y-8945000D01*
X13252500Y-8945000D02*
X13509762Y-9202262D01*
X13509762Y-9272795D02*
X14216967Y-9980000D01*
X13509762Y-9202262D02*
X13509762Y-9272795D01*
X14572500Y-9675000D02*
X14270000Y-9977500D01*
X14270000Y-9977500D02*
X14270000Y-9980000D01*
X14216967Y-9980000D02*
X14270000Y-9980000D01*
D21*
X13620000Y-7867500D02*
X13642500Y-7845000D01*
X13620000Y-7945355D02*
X13620000Y-7867500D01*
X12688588Y-8876768D02*
X13620000Y-7945355D01*
X12688588Y-8908588D02*
X12688588Y-8876768D01*
X13570000Y-7867500D02*
X13547500Y-7845000D01*
X13570000Y-7924645D02*
X13570000Y-7867500D01*
X12653232Y-8841412D02*
X13570000Y-7924645D01*
X12621412Y-8841412D02*
X12653232Y-8841412D01*
D22*
X18600000Y-6400690D02*
X17760000Y-5560690D01*
X18600000Y-9000000D02*
X18600000Y-6400690D01*
M02*
